%TF.GenerationSoftware,KiCad,Pcbnew,10.0.6*%
%TF.CreationDate,2026-09-23T18:09:16+08:00*%
%TF.ProjectId,Stage_Module,53746167-655f-44d6-9f64-756c652e6b69,1.7*%
%TF.SameCoordinates,Original*%
%TF.FileFunction,Copper,L1,Top*%
%TF.FilePolarity,Positive*%
%FSLAX46Y46*%
G04 Gerber Fmt 4.6, Leading zero omitted, Abs format (unit mm)*
G04 Created by KiCad (PCBNEW 10.0.6) date 2026-09-23 18:09:16*
%MOMM*%
%LPD*%
G01*
G04 APERTURE LIST*
%TA.AperFunction,ComponentPad*%
%ADD10R,1.000000X0.999900*%
%TD*%
%TA.AperFunction,ComponentPad*%
%ADD11R,1.400000X1.400000*%
%TD*%
%TA.AperFunction,ComponentPad*%
%ADD12R,1.524000X1.524000*%
%TD*%
%TA.AperFunction,ComponentPad*%
%ADD13R,1.300000X1.300000*%
%TD*%
%TA.AperFunction,ComponentPad*%
%ADD14R,1.000000X1.000000*%
%TD*%
%TA.AperFunction,ComponentPad*%
%ADD15R,1.800000X1.800000*%
%TD*%
%TA.AperFunction,ViaPad*%
%ADD16C,0.609600*%
%TD*%
%TA.AperFunction,Conductor*%
%ADD17C,0.254000*%
%TD*%
%TA.AperFunction,Conductor*%
%ADD18C,0.762000*%
%TD*%
G04 APERTURE END LIST*
D10*
%TO.P,WP10,1*%
%TO.N,N/C*%
X183614300Y-122277900D03*
%TD*%
D11*
%TO.P,TP_LIGHT,1*%
%TO.N,LIGHT*%
X174000100Y-88999900D03*
%TD*%
D12*
%TO.P,C-MAIN,1*%
%TO.N,+5V*%
X176229900Y-109500000D03*
%TO.P,C-MAIN,2*%
%TO.N,GND*%
X178769900Y-109500000D03*
%TD*%
D13*
%TO.P,WP3,1*%
%TO.N,RESET*%
X181614300Y-130278000D03*
%TD*%
D10*
%TO.P,WP12,1*%
%TO.N,N/C*%
X183614300Y-126277900D03*
%TD*%
D12*
%TO.P,R1,1*%
%TO.N,STAGE*%
X145911300Y-112173900D03*
%TO.P,R1,2*%
%TO.N,GND*%
X156071300Y-112173900D03*
%TD*%
D14*
%TO.P,WP15,1*%
%TO.N,N/C*%
X183614300Y-132277900D03*
%TD*%
D13*
%TO.P,WP1,1*%
%TO.N,SDA*%
X181614300Y-134278000D03*
%TD*%
%TO.P,WP2,1*%
%TO.N,SCL*%
X181614300Y-132278000D03*
%TD*%
D11*
%TO.P,TP_STAGE,1*%
%TO.N,STAGE*%
X145999900Y-117500000D03*
%TD*%
D15*
%TO.P,U1,1*%
%TO.N,RESET*%
X126642500Y-120654600D03*
%TO.P,U1,2*%
%TO.N,N/C*%
X124102500Y-120654600D03*
%TO.P,U1,3*%
%TO.N,STAGE*%
X121562500Y-120654600D03*
%TO.P,U1,4*%
%TO.N,GND*%
X119022500Y-120654600D03*
%TO.P,U1,5*%
%TO.N,SDA*%
X119022500Y-128274600D03*
%TO.P,U1,6*%
%TO.N,N/C*%
X121562500Y-128274600D03*
%TO.P,U1,7*%
%TO.N,SCL*%
X124102500Y-128274600D03*
%TO.P,U1,8*%
%TO.N,+5V*%
X126642500Y-128274600D03*
%TD*%
D12*
%TO.P,R2,1*%
%TO.N,ARMED*%
X158411100Y-89173900D03*
%TO.P,R2,2*%
%TO.N,LIGHT*%
X168571100Y-89173900D03*
%TD*%
D11*
%TO.P,TP_GND,1*%
%TO.N,GND*%
X177000100Y-88999900D03*
%TD*%
D10*
%TO.P,WP11,1*%
%TO.N,N/C*%
X183614300Y-124277900D03*
%TD*%
D13*
%TO.P,WP8,1*%
%TO.N,GND*%
X181614300Y-120278000D03*
%TD*%
D14*
%TO.P,WP6,1*%
%TO.N,N/C*%
X181614300Y-124278000D03*
%TD*%
D11*
%TO.P,TP_ARMED,1*%
%TO.N,ARMED*%
X137999900Y-91999900D03*
%TD*%
D14*
%TO.P,WP13,1*%
%TO.N,N/C*%
X183614300Y-128278000D03*
%TD*%
D11*
%TO.P,TP_+5V,1*%
%TO.N,+5V*%
X137999900Y-84999900D03*
%TD*%
D14*
%TO.P,WP4,1*%
%TO.N,N/C*%
X181614300Y-128278000D03*
%TD*%
D10*
%TO.P,WP9,1*%
%TO.N,N/C*%
X183614300Y-120277900D03*
%TD*%
D12*
%TO.P,C1,1*%
%TO.N,GND*%
X129825700Y-122962800D03*
%TO.P,C1,2*%
%TO.N,+5V*%
X129825700Y-127962800D03*
%TD*%
D14*
%TO.P,WP16,1*%
%TO.N,N/C*%
X183614300Y-134277900D03*
%TD*%
%TO.P,WP14,1*%
%TO.N,N/C*%
X183614300Y-130277900D03*
%TD*%
D11*
%TO.P,WP83,1*%
%TO.N,ARMED*%
X153999700Y-117500200D03*
%TD*%
D13*
%TO.P,WP7,1*%
%TO.N,+5V*%
X181614300Y-122278000D03*
%TD*%
D14*
%TO.P,WP5,1*%
%TO.N,N/C*%
X181614300Y-126278000D03*
%TD*%
D16*
%TO.N,RESET*%
X128310100Y-134999800D03*
%TO.N,GUARD2*%
X199499700Y-104999900D03*
X199499700Y-95002500D03*
%TO.N,GUARD1*%
X100500100Y-95002500D03*
X100500100Y-104999900D03*
%TD*%
%TO.N,LIGHT*%
D17*
X173826100Y-89173900D02*
X174000100Y-88999900D01*
X168571100Y-89173900D02*
X173826100Y-89173900D01*
%TO.N,RESET*%
X172499200Y-138999100D02*
X132308800Y-138999100D01*
X181221600Y-130276700D02*
X172499200Y-138999100D01*
X181615300Y-130276700D02*
X181221600Y-130276700D01*
X132308800Y-138999100D02*
X128310800Y-135001100D01*
%TO.N,STAGE*%
X121562100Y-120436700D02*
X127998400Y-114000400D01*
X121562800Y-120653700D02*
X121562800Y-120232700D01*
X121562100Y-120655200D02*
X121562100Y-120436700D01*
X138000900Y-114000400D02*
X141501100Y-117500500D01*
X127998400Y-114000400D02*
X138000900Y-114000400D01*
X145999900Y-117500000D02*
X145999900Y-112262600D01*
X141501100Y-117500500D02*
X145999400Y-117500500D01*
X145999900Y-112262600D02*
X145911100Y-112173900D01*
%TO.N,SDA*%
X119022100Y-129021900D02*
X119022100Y-128275200D01*
X181615300Y-134277200D02*
X174891900Y-141000600D01*
X174891900Y-141000600D02*
X131000700Y-141000600D01*
X131000700Y-141000600D02*
X119022100Y-129021900D01*
%TO.N,SCL*%
X181221600Y-132278200D02*
X173500000Y-139999800D01*
X124102600Y-132103400D02*
X124102600Y-128274700D01*
X131998900Y-139999800D02*
X126499800Y-134500700D01*
X181615300Y-132278200D02*
X181221600Y-132278200D01*
X126499800Y-134500700D02*
X124102600Y-132103400D01*
X173500000Y-139999800D02*
X131998900Y-139999800D01*
%TO.N,ARMED*%
X138000900Y-91998900D02*
X145001200Y-91998900D01*
X145001200Y-91998900D02*
X154000400Y-101000700D01*
X155586100Y-91998900D02*
X158411100Y-89173900D01*
X145001200Y-91998900D02*
X155586100Y-91998900D01*
X154000400Y-101000700D02*
X154000400Y-117500500D01*
%TO.N,GUARD2*%
D18*
X199499800Y-104999900D02*
X197000500Y-104999900D01*
X194501200Y-102500500D02*
X194501200Y-97499300D01*
X196998000Y-95002400D02*
X199499800Y-95002400D01*
X197000500Y-104999900D02*
X194501200Y-102500500D01*
X194501200Y-97499300D02*
X196998000Y-95002400D01*
%TO.N,GUARD1*%
X100500000Y-104999900D02*
X102999300Y-104999900D01*
X105498600Y-97499300D02*
X103001800Y-95002400D01*
X105498600Y-102500500D02*
X105498600Y-97499300D01*
X103001800Y-95002400D02*
X100500000Y-95002400D01*
X102999300Y-104999900D02*
X105498600Y-102500500D01*
%TD*%
%TA.AperFunction,Conductor*%
%TO.N,+5V*%
G36*
X189808418Y-50553502D02*
G01*
X189829392Y-50570404D01*
X199226292Y-59967209D01*
X199462495Y-60203409D01*
X199496520Y-60265721D01*
X199499400Y-60292505D01*
X199499400Y-94240900D01*
X199479398Y-94309021D01*
X199425742Y-94355514D01*
X199373400Y-94366900D01*
X197066810Y-94366900D01*
X197066789Y-94366899D01*
X197060578Y-94366899D01*
X196997987Y-94366900D01*
X196935402Y-94366900D01*
X196935399Y-94366900D01*
X196935396Y-94366901D01*
X196926940Y-94368583D01*
X196874528Y-94379008D01*
X196874529Y-94379009D01*
X196812625Y-94391323D01*
X196766124Y-94410583D01*
X196766125Y-94410584D01*
X196696984Y-94439224D01*
X196696983Y-94439225D01*
X196696969Y-94439231D01*
X196696958Y-94439238D01*
X196696955Y-94439240D01*
X196644306Y-94474418D01*
X196644307Y-94474419D01*
X196592891Y-94508775D01*
X196592889Y-94508777D01*
X196592879Y-94508785D01*
X196546719Y-94554948D01*
X196546718Y-94554949D01*
X196504375Y-94597292D01*
X196504372Y-94597295D01*
X196504367Y-94597299D01*
X194057285Y-97044481D01*
X194007574Y-97094192D01*
X194007559Y-97094212D01*
X193980088Y-97135324D01*
X193980089Y-97135325D01*
X193973207Y-97145626D01*
X193938027Y-97198278D01*
X193938024Y-97198283D01*
X193938020Y-97198290D01*
X193937984Y-97198366D01*
X193937725Y-97199003D01*
X193913365Y-97257817D01*
X193913363Y-97257821D01*
X193890120Y-97313932D01*
X193890118Y-97313943D01*
X193877804Y-97375854D01*
X193877804Y-97375855D01*
X193865699Y-97436712D01*
X193865700Y-97499313D01*
X193865700Y-102500489D01*
X193865699Y-102563088D01*
X193865700Y-102563091D01*
X193877804Y-102623945D01*
X193890118Y-102685856D01*
X193890120Y-102685867D01*
X193890128Y-102685896D01*
X193890384Y-102686501D01*
X193913364Y-102741981D01*
X193917595Y-102752195D01*
X193938022Y-102801513D01*
X193938027Y-102801522D01*
X193980088Y-102864472D01*
X194007570Y-102905603D01*
X194007574Y-102905607D01*
X194007575Y-102905608D01*
X194057815Y-102955848D01*
X196503709Y-105401840D01*
X196503730Y-105401863D01*
X196506874Y-105405007D01*
X196506875Y-105405008D01*
X196570257Y-105468390D01*
X196570259Y-105468393D01*
X196595376Y-105493512D01*
X196595385Y-105493519D01*
X196595388Y-105493521D01*
X196595392Y-105493525D01*
X196657349Y-105534923D01*
X196657351Y-105534925D01*
X196657352Y-105534925D01*
X196699479Y-105563075D01*
X196699495Y-105563084D01*
X196700028Y-105563301D01*
X196703575Y-105564770D01*
X196748365Y-105583322D01*
X196748367Y-105583324D01*
X196748368Y-105583324D01*
X196803737Y-105606260D01*
X196803785Y-105606285D01*
X196811589Y-105609513D01*
X196811661Y-105609543D01*
X196813238Y-105610196D01*
X196815022Y-105610935D01*
X196815648Y-105611194D01*
X196816967Y-105611495D01*
X196820403Y-105612026D01*
X196852754Y-105618461D01*
X196852758Y-105618461D01*
X196852759Y-105618462D01*
X196937902Y-105635400D01*
X196979624Y-105635400D01*
X197063078Y-105635402D01*
X197063083Y-105635400D01*
X197069278Y-105635401D01*
X197069319Y-105635400D01*
X199373400Y-105635400D01*
X199441521Y-105655402D01*
X199488014Y-105709058D01*
X199499400Y-105761400D01*
X199499400Y-139773491D01*
X199479398Y-139841612D01*
X199462495Y-139862587D01*
X194692488Y-144632498D01*
X194692486Y-144632500D01*
X194649237Y-144675748D01*
X194599303Y-144725682D01*
X194599301Y-144725684D01*
X189829591Y-149495395D01*
X189767279Y-149529421D01*
X189740496Y-149532300D01*
X110259410Y-149532300D01*
X110191289Y-149512298D01*
X110170338Y-149495419D01*
X105351653Y-144679240D01*
X105351606Y-144679193D01*
X100537281Y-139862362D01*
X100503273Y-139800041D01*
X100500400Y-139773290D01*
X100500400Y-127349530D01*
X117868000Y-127349530D01*
X117868000Y-129199663D01*
X117868001Y-129199673D01*
X117882765Y-129273900D01*
X117939016Y-129358084D01*
X118023197Y-129414333D01*
X118023199Y-129414334D01*
X118097433Y-129429100D01*
X118837583Y-129429099D01*
X118905704Y-129449101D01*
X118926679Y-129466004D01*
X130692256Y-141231678D01*
X130692285Y-141231709D01*
X130766448Y-141305872D01*
X130766451Y-141305874D01*
X130766453Y-141305876D01*
X130828332Y-141341601D01*
X130828331Y-141341601D01*
X130828334Y-141341602D01*
X130847166Y-141352476D01*
X130853441Y-141356099D01*
X130853445Y-141356101D01*
X130950473Y-141382100D01*
X130950474Y-141382100D01*
X174942123Y-141382100D01*
X174942125Y-141382100D01*
X175039154Y-141356101D01*
X175039157Y-141356099D01*
X175039158Y-141356099D01*
X175082650Y-141330988D01*
X175126147Y-141305876D01*
X175197176Y-141234847D01*
X175214896Y-141217127D01*
X175214898Y-141217123D01*
X181212617Y-135219403D01*
X181274929Y-135185378D01*
X181301712Y-135182499D01*
X182289364Y-135182499D01*
X182289366Y-135182499D01*
X182289369Y-135182498D01*
X182289372Y-135182498D01*
X182325963Y-135175219D01*
X182363601Y-135167734D01*
X182447784Y-135111484D01*
X182504034Y-135027301D01*
X182518800Y-134953067D01*
X182518799Y-133752830D01*
X182859800Y-133752830D01*
X182859800Y-134802963D01*
X182859801Y-134802973D01*
X182874565Y-134877200D01*
X182930816Y-134961384D01*
X183014997Y-135017633D01*
X183014999Y-135017634D01*
X183089233Y-135032400D01*
X184139366Y-135032399D01*
X184139369Y-135032398D01*
X184139373Y-135032398D01*
X184200815Y-135020177D01*
X184213601Y-135017634D01*
X184297784Y-134961384D01*
X184354034Y-134877201D01*
X184368800Y-134802967D01*
X184368799Y-133752834D01*
X184368798Y-133752830D01*
X184368798Y-133752826D01*
X184354034Y-133678599D01*
X184303477Y-133602936D01*
X184297784Y-133594416D01*
X184243587Y-133558202D01*
X184213602Y-133538166D01*
X184139367Y-133523400D01*
X183089236Y-133523400D01*
X183089226Y-133523401D01*
X183014999Y-133538165D01*
X182930815Y-133594416D01*
X182874566Y-133678597D01*
X182859800Y-133752830D01*
X182518799Y-133752830D01*
X182518799Y-133602934D01*
X182518798Y-133602931D01*
X182518798Y-133602926D01*
X182504034Y-133528699D01*
X182447783Y-133444515D01*
X182355367Y-133382763D01*
X182309840Y-133328286D01*
X182300993Y-133257843D01*
X182331634Y-133193799D01*
X182355368Y-133173234D01*
X182363598Y-133167734D01*
X182363601Y-133167734D01*
X182447784Y-133111484D01*
X182504034Y-133027301D01*
X182518800Y-132953067D01*
X182518799Y-131752830D01*
X182859800Y-131752830D01*
X182859800Y-132802963D01*
X182859801Y-132802973D01*
X182874565Y-132877200D01*
X182930816Y-132961384D01*
X183014997Y-133017633D01*
X183014999Y-133017634D01*
X183089233Y-133032400D01*
X184139366Y-133032399D01*
X184139369Y-133032398D01*
X184139373Y-133032398D01*
X184188626Y-133022601D01*
X184213601Y-133017634D01*
X184297784Y-132961384D01*
X184354034Y-132877201D01*
X184368800Y-132802967D01*
X184368799Y-131752834D01*
X184368798Y-131752830D01*
X184368798Y-131752826D01*
X184354034Y-131678599D01*
X184303477Y-131602936D01*
X184297784Y-131594416D01*
X184297783Y-131594415D01*
X184213602Y-131538166D01*
X184139367Y-131523400D01*
X183089236Y-131523400D01*
X183089226Y-131523401D01*
X183014999Y-131538165D01*
X182930815Y-131594416D01*
X182874566Y-131678597D01*
X182859800Y-131752830D01*
X182518799Y-131752830D01*
X182518799Y-131602934D01*
X182518798Y-131602931D01*
X182518798Y-131602926D01*
X182504034Y-131528699D01*
X182492612Y-131511605D01*
X182447784Y-131444516D01*
X182447783Y-131444515D01*
X182355367Y-131382763D01*
X182309840Y-131328286D01*
X182300993Y-131257843D01*
X182331634Y-131193799D01*
X182355368Y-131173234D01*
X182363598Y-131167734D01*
X182363601Y-131167734D01*
X182447784Y-131111484D01*
X182504034Y-131027301D01*
X182518800Y-130953067D01*
X182518799Y-129752830D01*
X182859800Y-129752830D01*
X182859800Y-130802963D01*
X182859801Y-130802973D01*
X182874565Y-130877200D01*
X182930816Y-130961384D01*
X183014997Y-131017633D01*
X183014999Y-131017634D01*
X183089233Y-131032400D01*
X184139366Y-131032399D01*
X184139369Y-131032398D01*
X184139373Y-131032398D01*
X184188626Y-131022601D01*
X184213601Y-131017634D01*
X184297784Y-130961384D01*
X184354034Y-130877201D01*
X184368800Y-130802967D01*
X184368799Y-129752834D01*
X184368798Y-129752830D01*
X184368798Y-129752826D01*
X184354034Y-129678599D01*
X184303477Y-129602936D01*
X184297784Y-129594416D01*
X184297783Y-129594415D01*
X184213602Y-129538166D01*
X184139367Y-129523400D01*
X183089236Y-129523400D01*
X183089226Y-129523401D01*
X183014999Y-129538165D01*
X182930815Y-129594416D01*
X182874566Y-129678597D01*
X182859800Y-129752830D01*
X182518799Y-129752830D01*
X182518799Y-129602934D01*
X182518798Y-129602930D01*
X182518798Y-129602926D01*
X182504034Y-129528699D01*
X182476653Y-129487721D01*
X182447784Y-129444516D01*
X182447783Y-129444515D01*
X182363602Y-129388266D01*
X182289367Y-129373500D01*
X180939236Y-129373500D01*
X180939226Y-129373501D01*
X180864999Y-129388265D01*
X180780815Y-129444516D01*
X180724566Y-129528697D01*
X180709800Y-129602930D01*
X180709800Y-130196787D01*
X180689798Y-130264908D01*
X180672895Y-130285882D01*
X172378082Y-138580695D01*
X172315770Y-138614721D01*
X172288987Y-138617600D01*
X132519013Y-138617600D01*
X132450892Y-138597598D01*
X132429918Y-138580695D01*
X128906305Y-135057082D01*
X128872279Y-134994770D01*
X128869400Y-134967987D01*
X128869400Y-134926168D01*
X128869400Y-134926167D01*
X128831284Y-134783918D01*
X128757651Y-134656382D01*
X128757649Y-134656380D01*
X128757645Y-134656375D01*
X128653524Y-134552254D01*
X128653514Y-134552246D01*
X128525982Y-134478616D01*
X128383733Y-134440500D01*
X128236467Y-134440500D01*
X128141634Y-134465910D01*
X128094217Y-134478616D01*
X127966685Y-134552246D01*
X127966675Y-134552254D01*
X127862554Y-134656375D01*
X127862546Y-134656385D01*
X127788916Y-134783917D01*
X127788916Y-134783918D01*
X127752196Y-134920960D01*
X127748663Y-134934144D01*
X127747258Y-134933767D01*
X127722149Y-134990519D01*
X127662882Y-135029608D01*
X127591891Y-135030449D01*
X127536859Y-134998236D01*
X126757153Y-134218530D01*
X124521003Y-131982286D01*
X124486979Y-131919973D01*
X124484100Y-131893192D01*
X124484100Y-129555099D01*
X124504102Y-129486978D01*
X124557758Y-129440485D01*
X124610100Y-129429099D01*
X125027564Y-129429099D01*
X125027566Y-129429099D01*
X125027569Y-129429098D01*
X125027572Y-129429098D01*
X125064163Y-129421819D01*
X125101801Y-129414334D01*
X125185984Y-129358084D01*
X125242234Y-129273901D01*
X125257000Y-129199667D01*
X125256999Y-127713023D01*
X140499400Y-127713023D01*
X140499400Y-128287176D01*
X140534067Y-128860285D01*
X140534067Y-128860287D01*
X140603271Y-129430229D01*
X140603272Y-129430236D01*
X140694881Y-129930135D01*
X140706766Y-129994985D01*
X140773296Y-130264908D01*
X140844170Y-130552455D01*
X141014980Y-131100605D01*
X141218565Y-131637413D01*
X141218585Y-131637461D01*
X141454216Y-132161013D01*
X141454217Y-132161015D01*
X141721034Y-132669393D01*
X142018059Y-133160732D01*
X142018068Y-133160746D01*
X142344216Y-133633253D01*
X142344219Y-133633257D01*
X142698308Y-134085218D01*
X143013061Y-134440500D01*
X143079048Y-134514984D01*
X143485015Y-134920951D01*
X143485023Y-134920958D01*
X143485025Y-134920960D01*
X143914782Y-135301692D01*
X144366743Y-135655781D01*
X144366746Y-135655783D01*
X144839253Y-135981931D01*
X144839267Y-135981940D01*
X145330606Y-136278965D01*
X145838984Y-136545782D01*
X145838990Y-136545785D01*
X146362557Y-136781423D01*
X146899396Y-136985020D01*
X147447549Y-137155831D01*
X148005015Y-137293234D01*
X148569760Y-137396727D01*
X148854741Y-137431330D01*
X149139713Y-137465932D01*
X149139716Y-137465932D01*
X149139723Y-137465933D01*
X149636730Y-137495997D01*
X149712824Y-137500600D01*
X149712825Y-137500600D01*
X150286976Y-137500600D01*
X150347103Y-137496962D01*
X150860077Y-137465933D01*
X150860085Y-137465932D01*
X150860087Y-137465932D01*
X151082129Y-137438970D01*
X151430040Y-137396727D01*
X151994785Y-137293234D01*
X152552251Y-137155831D01*
X153100404Y-136985020D01*
X153637243Y-136781423D01*
X154160810Y-136545785D01*
X154669195Y-136278964D01*
X155160541Y-135981935D01*
X155633057Y-135655781D01*
X156085018Y-135301692D01*
X156514775Y-134920960D01*
X156920760Y-134514975D01*
X157301492Y-134085218D01*
X157655581Y-133633257D01*
X157981735Y-133160741D01*
X158278764Y-132669395D01*
X158545585Y-132161010D01*
X158781223Y-131637443D01*
X158984820Y-131100604D01*
X159155631Y-130552451D01*
X159293034Y-129994985D01*
X159396527Y-129430240D01*
X159444821Y-129032500D01*
X159465732Y-128860287D01*
X159465732Y-128860285D01*
X159465731Y-128860285D01*
X159465733Y-128860277D01*
X159500400Y-128287175D01*
X159500400Y-127752930D01*
X180859800Y-127752930D01*
X180859800Y-128803063D01*
X180859801Y-128803073D01*
X180874565Y-128877300D01*
X180930816Y-128961484D01*
X181014997Y-129017733D01*
X181014999Y-129017734D01*
X181089233Y-129032500D01*
X182139366Y-129032499D01*
X182139369Y-129032498D01*
X182139373Y-129032498D01*
X182188626Y-129022701D01*
X182213601Y-129017734D01*
X182297784Y-128961484D01*
X182354034Y-128877301D01*
X182368800Y-128803067D01*
X182368799Y-127752934D01*
X182368799Y-127752933D01*
X182368799Y-127752931D01*
X182368799Y-127752930D01*
X182859800Y-127752930D01*
X182859800Y-128803063D01*
X182859801Y-128803073D01*
X182874565Y-128877300D01*
X182930816Y-128961484D01*
X183014997Y-129017733D01*
X183014999Y-129017734D01*
X183089233Y-129032500D01*
X184139366Y-129032499D01*
X184139369Y-129032498D01*
X184139373Y-129032498D01*
X184188626Y-129022701D01*
X184213601Y-129017734D01*
X184297784Y-128961484D01*
X184354034Y-128877301D01*
X184368800Y-128803067D01*
X184368799Y-127752934D01*
X184368798Y-127752931D01*
X184368798Y-127752926D01*
X184354034Y-127678699D01*
X184297783Y-127594515D01*
X184213602Y-127538266D01*
X184139367Y-127523500D01*
X183089236Y-127523500D01*
X183089226Y-127523501D01*
X183014999Y-127538265D01*
X182930815Y-127594516D01*
X182874566Y-127678697D01*
X182859800Y-127752930D01*
X182368799Y-127752930D01*
X182354034Y-127678699D01*
X182297783Y-127594515D01*
X182213602Y-127538266D01*
X182139367Y-127523500D01*
X181089236Y-127523500D01*
X181089226Y-127523501D01*
X181014999Y-127538265D01*
X180930815Y-127594516D01*
X180874566Y-127678697D01*
X180859800Y-127752930D01*
X159500400Y-127752930D01*
X159500400Y-127713025D01*
X159498323Y-127678697D01*
X159479144Y-127361632D01*
X159465733Y-127139923D01*
X159452689Y-127032500D01*
X159396528Y-126569970D01*
X159396527Y-126569963D01*
X159396527Y-126569960D01*
X159293034Y-126005215D01*
X159230851Y-125752930D01*
X180859800Y-125752930D01*
X180859800Y-126803063D01*
X180859801Y-126803073D01*
X180874565Y-126877300D01*
X180930816Y-126961484D01*
X181014997Y-127017733D01*
X181014999Y-127017734D01*
X181089233Y-127032500D01*
X182139366Y-127032499D01*
X182139369Y-127032498D01*
X182139373Y-127032498D01*
X182188626Y-127022701D01*
X182213601Y-127017734D01*
X182297784Y-126961484D01*
X182354034Y-126877301D01*
X182368800Y-126803067D01*
X182368799Y-125752934D01*
X182368798Y-125752930D01*
X182368798Y-125752926D01*
X182368789Y-125752880D01*
X182859800Y-125752880D01*
X182859800Y-126802913D01*
X182859801Y-126802923D01*
X182874565Y-126877150D01*
X182930816Y-126961334D01*
X183014997Y-127017583D01*
X183014999Y-127017584D01*
X183089233Y-127032350D01*
X184139366Y-127032349D01*
X184139369Y-127032348D01*
X184139373Y-127032348D01*
X184188626Y-127022551D01*
X184213601Y-127017584D01*
X184297784Y-126961334D01*
X184354034Y-126877151D01*
X184368800Y-126802917D01*
X184368799Y-125752884D01*
X184368798Y-125752880D01*
X184368798Y-125752876D01*
X184354034Y-125678649D01*
X184297817Y-125594516D01*
X184297784Y-125594466D01*
X184297783Y-125594465D01*
X184213602Y-125538216D01*
X184139367Y-125523450D01*
X183089236Y-125523450D01*
X183089226Y-125523451D01*
X183014999Y-125538215D01*
X182930815Y-125594466D01*
X182874566Y-125678647D01*
X182859800Y-125752880D01*
X182368789Y-125752880D01*
X182354034Y-125678699D01*
X182297783Y-125594515D01*
X182213602Y-125538266D01*
X182139367Y-125523500D01*
X181089236Y-125523500D01*
X181089226Y-125523501D01*
X181014999Y-125538265D01*
X180930815Y-125594516D01*
X180874566Y-125678697D01*
X180859800Y-125752930D01*
X159230851Y-125752930D01*
X159155631Y-125447749D01*
X158984820Y-124899596D01*
X158781223Y-124362757D01*
X158615018Y-123993463D01*
X158545589Y-123839198D01*
X158527797Y-123805298D01*
X158527796Y-123805294D01*
X158500313Y-123752930D01*
X180859800Y-123752930D01*
X180859800Y-124803063D01*
X180859801Y-124803073D01*
X180874565Y-124877300D01*
X180930816Y-124961484D01*
X181014997Y-125017733D01*
X181014999Y-125017734D01*
X181089233Y-125032500D01*
X182139366Y-125032499D01*
X182139369Y-125032498D01*
X182139373Y-125032498D01*
X182188626Y-125022701D01*
X182213601Y-125017734D01*
X182297784Y-124961484D01*
X182354034Y-124877301D01*
X182368800Y-124803067D01*
X182368799Y-123752934D01*
X182368798Y-123752930D01*
X182368798Y-123752926D01*
X182368789Y-123752880D01*
X182859800Y-123752880D01*
X182859800Y-124802913D01*
X182859801Y-124802923D01*
X182874565Y-124877150D01*
X182930816Y-124961334D01*
X183014997Y-125017583D01*
X183014999Y-125017584D01*
X183089233Y-125032350D01*
X184139366Y-125032349D01*
X184139369Y-125032348D01*
X184139373Y-125032348D01*
X184188626Y-125022551D01*
X184213601Y-125017584D01*
X184297784Y-124961334D01*
X184354034Y-124877151D01*
X184368800Y-124802917D01*
X184368799Y-123752884D01*
X184368798Y-123752880D01*
X184368798Y-123752876D01*
X184354034Y-123678649D01*
X184297817Y-123594516D01*
X184297784Y-123594466D01*
X184297783Y-123594465D01*
X184213602Y-123538216D01*
X184139367Y-123523450D01*
X183089236Y-123523450D01*
X183089226Y-123523451D01*
X183014999Y-123538215D01*
X182930815Y-123594466D01*
X182874566Y-123678647D01*
X182859800Y-123752880D01*
X182368789Y-123752880D01*
X182354034Y-123678699D01*
X182297783Y-123594515D01*
X182213602Y-123538266D01*
X182139367Y-123523500D01*
X181089236Y-123523500D01*
X181089226Y-123523501D01*
X181014999Y-123538265D01*
X180930815Y-123594516D01*
X180874566Y-123678697D01*
X180859800Y-123752930D01*
X158500313Y-123752930D01*
X158278765Y-123330806D01*
X157981740Y-122839467D01*
X157981731Y-122839453D01*
X157655583Y-122366946D01*
X157655581Y-122366943D01*
X157301492Y-121914982D01*
X157157882Y-121752880D01*
X182859800Y-121752880D01*
X182859800Y-122802913D01*
X182859801Y-122802923D01*
X182874565Y-122877150D01*
X182930816Y-122961334D01*
X183014997Y-123017583D01*
X183014999Y-123017584D01*
X183089233Y-123032350D01*
X184139366Y-123032349D01*
X184139369Y-123032348D01*
X184139373Y-123032348D01*
X184188626Y-123022551D01*
X184213601Y-123017584D01*
X184297784Y-122961334D01*
X184354034Y-122877151D01*
X184368800Y-122802917D01*
X184368799Y-121752884D01*
X184368798Y-121752880D01*
X184368798Y-121752876D01*
X184354034Y-121678649D01*
X184337497Y-121653900D01*
X184297784Y-121594466D01*
X184297783Y-121594465D01*
X184213602Y-121538216D01*
X184139367Y-121523450D01*
X183089236Y-121523450D01*
X183089226Y-121523451D01*
X183014999Y-121538215D01*
X182930815Y-121594466D01*
X182874566Y-121678647D01*
X182859800Y-121752880D01*
X157157882Y-121752880D01*
X156920760Y-121485225D01*
X156920758Y-121485223D01*
X156920751Y-121485215D01*
X156514784Y-121079248D01*
X156445179Y-121017583D01*
X156085018Y-120698508D01*
X155633057Y-120344419D01*
X155505880Y-120256635D01*
X155160546Y-120018268D01*
X155160532Y-120018259D01*
X154669206Y-119721242D01*
X154669191Y-119721234D01*
X154644565Y-119708309D01*
X154644564Y-119708308D01*
X154443783Y-119602930D01*
X180709800Y-119602930D01*
X180709800Y-120953063D01*
X180709801Y-120953073D01*
X180724565Y-121027300D01*
X180780816Y-121111484D01*
X180864997Y-121167733D01*
X180864999Y-121167734D01*
X180939233Y-121182500D01*
X182289366Y-121182499D01*
X182289369Y-121182498D01*
X182289373Y-121182498D01*
X182338626Y-121172701D01*
X182363601Y-121167734D01*
X182447784Y-121111484D01*
X182504034Y-121027301D01*
X182518800Y-120953067D01*
X182518799Y-119752880D01*
X182859800Y-119752880D01*
X182859800Y-120802913D01*
X182859801Y-120802923D01*
X182874565Y-120877150D01*
X182930816Y-120961334D01*
X183014997Y-121017583D01*
X183014999Y-121017584D01*
X183089233Y-121032350D01*
X184139366Y-121032349D01*
X184139369Y-121032348D01*
X184139373Y-121032348D01*
X184188626Y-121022551D01*
X184213601Y-121017584D01*
X184297784Y-120961334D01*
X184354034Y-120877151D01*
X184368800Y-120802917D01*
X184368799Y-119752884D01*
X184368798Y-119752880D01*
X184368798Y-119752876D01*
X184354034Y-119678649D01*
X184310920Y-119614125D01*
X184297784Y-119594466D01*
X184262839Y-119571116D01*
X184213602Y-119538216D01*
X184139367Y-119523450D01*
X183089236Y-119523450D01*
X183089226Y-119523451D01*
X183014999Y-119538215D01*
X182930815Y-119594466D01*
X182874566Y-119678647D01*
X182859800Y-119752880D01*
X182518799Y-119752880D01*
X182518799Y-119602934D01*
X182518798Y-119602930D01*
X182518798Y-119602926D01*
X182504034Y-119528699D01*
X182488480Y-119505421D01*
X182447784Y-119444516D01*
X182420735Y-119426442D01*
X182363602Y-119388266D01*
X182289367Y-119373500D01*
X180939236Y-119373500D01*
X180939226Y-119373501D01*
X180864999Y-119388265D01*
X180780815Y-119444516D01*
X180724566Y-119528697D01*
X180709800Y-119602930D01*
X154443783Y-119602930D01*
X154160815Y-119454417D01*
X154160813Y-119454416D01*
X153637261Y-119218785D01*
X153637257Y-119218783D01*
X153637243Y-119218777D01*
X153637229Y-119218771D01*
X153637213Y-119218765D01*
X153100405Y-119015180D01*
X152552255Y-118844370D01*
X152552251Y-118844369D01*
X151994785Y-118706966D01*
X151994781Y-118706965D01*
X151994776Y-118706964D01*
X151430036Y-118603472D01*
X151430029Y-118603471D01*
X150860086Y-118534267D01*
X150286976Y-118499600D01*
X150286975Y-118499600D01*
X149712825Y-118499600D01*
X149712824Y-118499600D01*
X149139714Y-118534267D01*
X149139712Y-118534267D01*
X148569770Y-118603471D01*
X148569763Y-118603472D01*
X148005023Y-118706964D01*
X147447544Y-118844370D01*
X146899394Y-119015180D01*
X146362586Y-119218765D01*
X146362538Y-119218785D01*
X145838986Y-119454416D01*
X145838984Y-119454417D01*
X145330606Y-119721234D01*
X144839267Y-120018259D01*
X144839253Y-120018268D01*
X144366746Y-120344416D01*
X143914782Y-120698508D01*
X143485015Y-121079248D01*
X143079048Y-121485215D01*
X142698308Y-121914982D01*
X142344216Y-122366946D01*
X142018068Y-122839453D01*
X142018059Y-122839467D01*
X141721034Y-123330806D01*
X141454217Y-123839184D01*
X141454216Y-123839186D01*
X141218585Y-124362738D01*
X141218565Y-124362786D01*
X141014980Y-124899594D01*
X140844170Y-125447744D01*
X140706764Y-126005223D01*
X140603272Y-126569963D01*
X140603271Y-126569970D01*
X140534067Y-127139912D01*
X140534067Y-127139914D01*
X140499400Y-127713023D01*
X125256999Y-127713023D01*
X125256999Y-127349534D01*
X125256998Y-127349530D01*
X125256998Y-127349526D01*
X125242234Y-127275299D01*
X125185983Y-127191115D01*
X125101802Y-127134866D01*
X125027567Y-127120100D01*
X123177436Y-127120100D01*
X123177426Y-127120101D01*
X123103199Y-127134865D01*
X123019015Y-127191116D01*
X122962766Y-127275296D01*
X122956078Y-127308919D01*
X122923169Y-127371829D01*
X122861473Y-127406959D01*
X122790579Y-127403158D01*
X122732993Y-127361632D01*
X122708920Y-127308915D01*
X122702234Y-127275299D01*
X122645983Y-127191115D01*
X122561802Y-127134866D01*
X122487567Y-127120100D01*
X120637436Y-127120100D01*
X120637426Y-127120101D01*
X120563199Y-127134865D01*
X120479015Y-127191116D01*
X120422766Y-127275296D01*
X120416078Y-127308919D01*
X120383169Y-127371829D01*
X120321473Y-127406959D01*
X120250579Y-127403158D01*
X120192993Y-127361632D01*
X120168920Y-127308915D01*
X120162234Y-127275299D01*
X120105983Y-127191115D01*
X120021802Y-127134866D01*
X119947567Y-127120100D01*
X118097436Y-127120100D01*
X118097426Y-127120101D01*
X118023199Y-127134865D01*
X117939015Y-127191116D01*
X117882766Y-127275297D01*
X117868000Y-127349530D01*
X100500400Y-127349530D01*
X100500400Y-122175730D01*
X128809200Y-122175730D01*
X128809200Y-123749863D01*
X128809201Y-123749873D01*
X128823965Y-123824100D01*
X128880216Y-123908284D01*
X128964397Y-123964533D01*
X128964399Y-123964534D01*
X129038633Y-123979300D01*
X130612766Y-123979299D01*
X130612769Y-123979298D01*
X130612773Y-123979298D01*
X130662026Y-123969501D01*
X130687001Y-123964534D01*
X130771184Y-123908284D01*
X130827434Y-123824101D01*
X130842200Y-123749867D01*
X130842199Y-122175734D01*
X130842198Y-122175730D01*
X130842198Y-122175726D01*
X130827434Y-122101499D01*
X130771183Y-122017315D01*
X130687002Y-121961066D01*
X130612767Y-121946300D01*
X129038636Y-121946300D01*
X129038626Y-121946301D01*
X128964399Y-121961065D01*
X128880215Y-122017316D01*
X128823966Y-122101497D01*
X128809200Y-122175730D01*
X100500400Y-122175730D01*
X100500400Y-119729530D01*
X117868000Y-119729530D01*
X117868000Y-121579663D01*
X117868001Y-121579673D01*
X117882765Y-121653900D01*
X117939016Y-121738084D01*
X118023197Y-121794333D01*
X118023199Y-121794334D01*
X118097433Y-121809100D01*
X119947566Y-121809099D01*
X119947569Y-121809098D01*
X119947573Y-121809098D01*
X119996826Y-121799301D01*
X120021801Y-121794334D01*
X120105984Y-121738084D01*
X120162234Y-121653901D01*
X120168921Y-121620282D01*
X120201828Y-121557373D01*
X120263522Y-121522240D01*
X120334417Y-121526040D01*
X120392004Y-121567565D01*
X120416079Y-121620282D01*
X120422766Y-121653901D01*
X120479016Y-121738084D01*
X120563197Y-121794333D01*
X120563199Y-121794334D01*
X120637433Y-121809100D01*
X122487566Y-121809099D01*
X122487569Y-121809098D01*
X122487573Y-121809098D01*
X122536826Y-121799301D01*
X122561801Y-121794334D01*
X122645984Y-121738084D01*
X122702234Y-121653901D01*
X122708921Y-121620282D01*
X122741828Y-121557373D01*
X122803522Y-121522240D01*
X122874417Y-121526040D01*
X122932004Y-121567565D01*
X122956079Y-121620282D01*
X122962766Y-121653901D01*
X123019016Y-121738084D01*
X123103197Y-121794333D01*
X123103199Y-121794334D01*
X123177433Y-121809100D01*
X125027566Y-121809099D01*
X125027569Y-121809098D01*
X125027573Y-121809098D01*
X125076826Y-121799301D01*
X125101801Y-121794334D01*
X125185984Y-121738084D01*
X125242234Y-121653901D01*
X125248921Y-121620282D01*
X125281828Y-121557373D01*
X125343522Y-121522240D01*
X125414417Y-121526040D01*
X125472004Y-121567565D01*
X125496079Y-121620282D01*
X125502766Y-121653901D01*
X125559016Y-121738084D01*
X125643197Y-121794333D01*
X125643199Y-121794334D01*
X125717433Y-121809100D01*
X127567566Y-121809099D01*
X127567569Y-121809098D01*
X127567573Y-121809098D01*
X127616826Y-121799301D01*
X127641801Y-121794334D01*
X127725984Y-121738084D01*
X127782234Y-121653901D01*
X127797000Y-121579667D01*
X127796999Y-119729534D01*
X127796998Y-119729530D01*
X127796998Y-119729526D01*
X127782234Y-119655299D01*
X127741586Y-119594466D01*
X127725984Y-119571116D01*
X127682507Y-119542065D01*
X127641802Y-119514866D01*
X127567567Y-119500100D01*
X125717436Y-119500100D01*
X125717426Y-119500101D01*
X125643199Y-119514865D01*
X125559015Y-119571116D01*
X125502766Y-119655296D01*
X125496078Y-119688919D01*
X125463169Y-119751829D01*
X125401473Y-119786959D01*
X125330579Y-119783158D01*
X125272993Y-119741632D01*
X125248920Y-119688915D01*
X125242234Y-119655299D01*
X125201586Y-119594466D01*
X125185984Y-119571116D01*
X125142507Y-119542065D01*
X125101802Y-119514866D01*
X125027569Y-119500100D01*
X123342411Y-119500100D01*
X123274290Y-119480098D01*
X123227797Y-119426442D01*
X123217693Y-119356168D01*
X123247187Y-119291588D01*
X123253301Y-119285020D01*
X128119518Y-114418805D01*
X128181830Y-114384779D01*
X128208613Y-114381900D01*
X137790691Y-114381900D01*
X137858812Y-114401902D01*
X137879785Y-114418803D01*
X141195824Y-117734747D01*
X141266853Y-117805776D01*
X141266854Y-117805777D01*
X141266856Y-117805778D01*
X141352957Y-117855488D01*
X141353819Y-117855995D01*
X141353851Y-117856003D01*
X141353852Y-117856004D01*
X141367807Y-117859743D01*
X141421392Y-117874100D01*
X141421403Y-117874102D01*
X141450875Y-117882000D01*
X141450876Y-117882000D01*
X141450877Y-117882000D01*
X141450881Y-117882001D01*
X141551331Y-117882000D01*
X144919401Y-117882000D01*
X144987522Y-117902002D01*
X145034015Y-117955658D01*
X145045401Y-118008000D01*
X145045401Y-118225072D01*
X145060165Y-118299300D01*
X145116416Y-118383484D01*
X145200597Y-118439733D01*
X145200599Y-118439734D01*
X145274833Y-118454500D01*
X146724966Y-118454499D01*
X146724969Y-118454498D01*
X146724973Y-118454498D01*
X146774226Y-118444701D01*
X146799201Y-118439734D01*
X146883384Y-118383484D01*
X146939634Y-118299301D01*
X146954400Y-118225067D01*
X146954399Y-116774934D01*
X146954398Y-116774930D01*
X146954398Y-116774926D01*
X146939634Y-116700699D01*
X146939633Y-116700697D01*
X146883384Y-116616516D01*
X146883383Y-116616515D01*
X146799202Y-116560266D01*
X146724969Y-116545500D01*
X146724967Y-116545500D01*
X146507400Y-116545500D01*
X146439279Y-116525498D01*
X146392786Y-116471842D01*
X146381400Y-116419500D01*
X146381400Y-113316399D01*
X146401402Y-113248278D01*
X146455058Y-113201785D01*
X146507400Y-113190399D01*
X146698364Y-113190399D01*
X146698366Y-113190399D01*
X146698369Y-113190398D01*
X146698372Y-113190398D01*
X146734963Y-113183119D01*
X146772601Y-113175634D01*
X146856784Y-113119384D01*
X146913034Y-113035201D01*
X146927800Y-112960967D01*
X146927799Y-111386834D01*
X146927798Y-111386830D01*
X146927798Y-111386826D01*
X146913034Y-111312599D01*
X146856783Y-111228415D01*
X146772602Y-111172166D01*
X146698367Y-111157400D01*
X145124236Y-111157400D01*
X145124226Y-111157401D01*
X145049999Y-111172165D01*
X144965815Y-111228416D01*
X144909566Y-111312597D01*
X144894800Y-111386830D01*
X144894800Y-112960963D01*
X144894801Y-112960973D01*
X144909565Y-113035200D01*
X144965816Y-113119384D01*
X145049997Y-113175633D01*
X145049999Y-113175634D01*
X145124233Y-113190400D01*
X145492400Y-113190399D01*
X145560520Y-113210401D01*
X145607013Y-113264056D01*
X145618400Y-113316399D01*
X145618400Y-116419500D01*
X145598398Y-116487621D01*
X145544742Y-116534114D01*
X145492401Y-116545500D01*
X145274836Y-116545500D01*
X145274826Y-116545501D01*
X145200599Y-116560265D01*
X145116415Y-116616516D01*
X145060166Y-116700697D01*
X145045400Y-116774930D01*
X145045400Y-116993000D01*
X145025398Y-117061121D01*
X144971742Y-117107614D01*
X144919400Y-117119000D01*
X141711310Y-117119000D01*
X141643189Y-117098998D01*
X141622216Y-117082097D01*
X138304488Y-113764465D01*
X138304486Y-113764463D01*
X138235147Y-113695124D01*
X138235146Y-113695123D01*
X138235143Y-113695121D01*
X138148164Y-113644904D01*
X138148152Y-113644898D01*
X138148147Y-113644895D01*
X138070152Y-113623998D01*
X138070152Y-113623997D01*
X138051122Y-113618899D01*
X138051120Y-113618899D01*
X137950669Y-113618900D01*
X128056359Y-113618900D01*
X128056343Y-113618899D01*
X128048625Y-113618899D01*
X127948175Y-113618899D01*
X127899661Y-113631898D01*
X127851145Y-113644898D01*
X127764156Y-113695121D01*
X127764146Y-113695129D01*
X121996080Y-119463195D01*
X121933768Y-119497221D01*
X121906985Y-119500100D01*
X120637436Y-119500100D01*
X120637426Y-119500101D01*
X120563199Y-119514865D01*
X120479015Y-119571116D01*
X120422766Y-119655296D01*
X120416078Y-119688919D01*
X120383169Y-119751829D01*
X120321473Y-119786959D01*
X120250579Y-119783158D01*
X120192993Y-119741632D01*
X120168920Y-119688915D01*
X120162234Y-119655299D01*
X120121586Y-119594466D01*
X120105984Y-119571116D01*
X120062507Y-119542065D01*
X120021802Y-119514866D01*
X119947567Y-119500100D01*
X118097436Y-119500100D01*
X118097426Y-119500101D01*
X118023199Y-119514865D01*
X117939015Y-119571116D01*
X117882766Y-119655297D01*
X117868000Y-119729530D01*
X100500400Y-119729530D01*
X100500400Y-105761400D01*
X100520402Y-105693279D01*
X100574058Y-105646786D01*
X100626400Y-105635400D01*
X102936717Y-105635400D01*
X102936722Y-105635401D01*
X102999313Y-105635400D01*
X103061891Y-105635400D01*
X103061893Y-105635400D01*
X103061902Y-105635399D01*
X103061904Y-105635399D01*
X103122770Y-105623290D01*
X103184669Y-105610978D01*
X103184671Y-105610976D01*
X103184881Y-105610935D01*
X103186759Y-105610196D01*
X103189484Y-105609177D01*
X103192020Y-105607933D01*
X103231175Y-105591714D01*
X103296225Y-105564770D01*
X103299905Y-105563396D01*
X103300201Y-105563263D01*
X103301998Y-105562132D01*
X103304785Y-105560092D01*
X103363163Y-105521084D01*
X103400776Y-105495951D01*
X103403993Y-105493961D01*
X103405690Y-105492310D01*
X103409119Y-105489063D01*
X103410729Y-105487204D01*
X103427350Y-105470582D01*
X103454181Y-105443752D01*
X103498372Y-105399561D01*
X103498383Y-105399547D01*
X105942465Y-102955367D01*
X105942466Y-102955367D01*
X105965659Y-102932173D01*
X105985914Y-102911918D01*
X105987768Y-102910311D01*
X105991005Y-102906893D01*
X105992667Y-102905184D01*
X105994649Y-102901981D01*
X106019711Y-102864472D01*
X106059916Y-102804300D01*
X106061705Y-102801776D01*
X106061730Y-102801729D01*
X106062574Y-102799591D01*
X106082203Y-102752198D01*
X106082205Y-102752195D01*
X106089815Y-102733820D01*
X106109678Y-102685869D01*
X106109679Y-102685862D01*
X106109682Y-102685856D01*
X106126948Y-102599043D01*
X106134100Y-102563091D01*
X106134100Y-102563088D01*
X106134102Y-102563078D01*
X106134100Y-102479623D01*
X106134100Y-97499313D01*
X106134101Y-97436722D01*
X106134100Y-97436716D01*
X106134100Y-97436709D01*
X106121995Y-97375854D01*
X106109682Y-97313943D01*
X106109681Y-97313941D01*
X106109547Y-97313266D01*
X106107981Y-97309835D01*
X106090424Y-97267447D01*
X106061956Y-97198717D01*
X106061790Y-97198310D01*
X106061776Y-97198283D01*
X106061767Y-97198270D01*
X106026592Y-97145626D01*
X106026592Y-97145625D01*
X106003634Y-97111266D01*
X105992233Y-97094202D01*
X105992229Y-97094198D01*
X105992225Y-97094192D01*
X105942515Y-97044482D01*
X104555991Y-95657902D01*
X103498592Y-94600460D01*
X103498562Y-94600428D01*
X103453084Y-94554951D01*
X103453082Y-94554948D01*
X103453082Y-94554949D01*
X103406918Y-94508783D01*
X103406917Y-94508782D01*
X103406913Y-94508778D01*
X103355494Y-94474421D01*
X103355493Y-94474420D01*
X103302829Y-94439230D01*
X103233674Y-94410584D01*
X103233673Y-94410584D01*
X103187774Y-94391571D01*
X103187212Y-94391334D01*
X103187182Y-94391324D01*
X103140960Y-94382130D01*
X103125270Y-94379009D01*
X103125268Y-94379008D01*
X103125267Y-94379008D01*
X103094422Y-94372872D01*
X103064404Y-94366901D01*
X103064398Y-94366900D01*
X103064397Y-94366900D01*
X103064396Y-94366900D01*
X103064391Y-94366900D01*
X103001813Y-94366900D01*
X102939222Y-94366899D01*
X102939221Y-94366899D01*
X102933010Y-94366899D01*
X102932990Y-94366900D01*
X100626400Y-94366900D01*
X100558279Y-94346898D01*
X100511786Y-94293242D01*
X100500400Y-94240900D01*
X100500400Y-68933308D01*
X114000400Y-68933308D01*
X114000400Y-88933258D01*
X114000400Y-115933508D01*
X114000400Y-116065292D01*
X114025367Y-116158473D01*
X114034507Y-116192583D01*
X114034510Y-116192590D01*
X114100397Y-116306710D01*
X114100405Y-116306720D01*
X114193579Y-116399894D01*
X114193584Y-116399898D01*
X114193586Y-116399900D01*
X114193587Y-116399901D01*
X114193589Y-116399902D01*
X114273806Y-116446215D01*
X114307714Y-116465792D01*
X114435008Y-116499900D01*
X114435010Y-116499900D01*
X122064790Y-116499900D01*
X122064792Y-116499900D01*
X122192086Y-116465792D01*
X122306214Y-116399900D01*
X122399400Y-116306714D01*
X122465292Y-116192586D01*
X122499400Y-116065292D01*
X122499400Y-109625600D01*
X122519402Y-109557479D01*
X122573058Y-109510986D01*
X122625400Y-109499600D01*
X134566690Y-109499600D01*
X134566692Y-109499600D01*
X134693986Y-109465492D01*
X134808114Y-109399600D01*
X134901300Y-109306414D01*
X134967192Y-109192286D01*
X135001300Y-109064992D01*
X135001300Y-91274830D01*
X137045400Y-91274830D01*
X137045400Y-92724963D01*
X137045401Y-92724973D01*
X137060165Y-92799200D01*
X137116416Y-92883384D01*
X137200597Y-92939633D01*
X137200599Y-92939634D01*
X137274833Y-92954400D01*
X138724966Y-92954399D01*
X138724969Y-92954398D01*
X138724973Y-92954398D01*
X138774226Y-92944601D01*
X138799201Y-92939634D01*
X138883384Y-92883384D01*
X138939634Y-92799201D01*
X138954400Y-92724967D01*
X138954400Y-92506400D01*
X138974402Y-92438279D01*
X139028058Y-92391786D01*
X139080400Y-92380400D01*
X144790942Y-92380400D01*
X144859063Y-92400402D01*
X144880050Y-92417317D01*
X147017064Y-94554948D01*
X153572548Y-101112325D01*
X153582008Y-101121787D01*
X153616024Y-101184105D01*
X153618900Y-101210870D01*
X153618900Y-116419700D01*
X153598898Y-116487821D01*
X153545242Y-116534314D01*
X153492901Y-116545700D01*
X153274636Y-116545700D01*
X153274626Y-116545701D01*
X153200399Y-116560465D01*
X153116215Y-116616716D01*
X153059966Y-116700897D01*
X153045200Y-116775130D01*
X153045200Y-118225263D01*
X153045201Y-118225273D01*
X153059965Y-118299500D01*
X153116216Y-118383684D01*
X153200397Y-118439933D01*
X153200399Y-118439934D01*
X153274633Y-118454700D01*
X154724766Y-118454699D01*
X154724769Y-118454698D01*
X154724773Y-118454698D01*
X154774026Y-118444901D01*
X154799001Y-118439934D01*
X154883184Y-118383684D01*
X154939434Y-118299501D01*
X154954200Y-118225267D01*
X154954199Y-116775134D01*
X154954198Y-116775130D01*
X154954198Y-116775126D01*
X154939434Y-116700899D01*
X154883183Y-116616715D01*
X154799002Y-116560466D01*
X154724769Y-116545700D01*
X154724767Y-116545700D01*
X154507900Y-116545700D01*
X154439779Y-116525698D01*
X154393286Y-116472042D01*
X154381900Y-116419700D01*
X154381900Y-111386830D01*
X155054800Y-111386830D01*
X155054800Y-112960963D01*
X155054801Y-112960973D01*
X155069565Y-113035200D01*
X155125816Y-113119384D01*
X155209997Y-113175633D01*
X155209999Y-113175634D01*
X155284233Y-113190400D01*
X156858366Y-113190399D01*
X156858369Y-113190398D01*
X156858373Y-113190398D01*
X156907626Y-113180601D01*
X156932601Y-113175634D01*
X157016784Y-113119384D01*
X157073034Y-113035201D01*
X157087800Y-112960967D01*
X157087799Y-111386834D01*
X157087798Y-111386830D01*
X157087798Y-111386826D01*
X157073034Y-111312599D01*
X157016783Y-111228415D01*
X156932602Y-111172166D01*
X156858367Y-111157400D01*
X155284236Y-111157400D01*
X155284226Y-111157401D01*
X155209999Y-111172165D01*
X155125815Y-111228416D01*
X155069566Y-111312597D01*
X155054800Y-111386830D01*
X154381900Y-111386830D01*
X154381900Y-108712930D01*
X177753400Y-108712930D01*
X177753400Y-110287063D01*
X177753401Y-110287073D01*
X177768165Y-110361300D01*
X177824416Y-110445484D01*
X177908597Y-110501733D01*
X177908599Y-110501734D01*
X177982833Y-110516500D01*
X179556966Y-110516499D01*
X179556969Y-110516498D01*
X179556973Y-110516498D01*
X179606226Y-110506701D01*
X179631201Y-110501734D01*
X179715384Y-110445484D01*
X179771634Y-110361301D01*
X179786400Y-110287067D01*
X179786399Y-108712934D01*
X179786398Y-108712930D01*
X179786398Y-108712926D01*
X179771634Y-108638699D01*
X179715383Y-108554515D01*
X179631202Y-108498266D01*
X179556967Y-108483500D01*
X177982836Y-108483500D01*
X177982826Y-108483501D01*
X177908599Y-108498265D01*
X177824415Y-108554516D01*
X177768166Y-108638697D01*
X177753400Y-108712930D01*
X154381900Y-108712930D01*
X154381900Y-100999400D01*
X154381901Y-100990219D01*
X154381907Y-100950530D01*
X154381906Y-100950526D01*
X154381900Y-100950476D01*
X154368364Y-100899956D01*
X154368360Y-100899940D01*
X154356260Y-100854756D01*
X154355951Y-100853539D01*
X154355940Y-100853511D01*
X154355867Y-100853387D01*
X154330069Y-100808702D01*
X154330062Y-100808690D01*
X154305708Y-100766496D01*
X154305671Y-100766447D01*
X154267655Y-100728432D01*
X154267645Y-100728415D01*
X154267642Y-100728419D01*
X146137056Y-92595483D01*
X146103040Y-92533165D01*
X146108115Y-92462350D01*
X146150670Y-92405521D01*
X146217193Y-92380720D01*
X146226164Y-92380400D01*
X155636323Y-92380400D01*
X155636325Y-92380400D01*
X155733354Y-92354401D01*
X155733357Y-92354399D01*
X155733358Y-92354399D01*
X155776850Y-92329288D01*
X155820347Y-92304176D01*
X155891376Y-92233147D01*
X155909096Y-92215427D01*
X155909098Y-92215423D01*
X157897217Y-90227303D01*
X157959529Y-90193278D01*
X157986312Y-90190399D01*
X159198164Y-90190399D01*
X159198166Y-90190399D01*
X159198169Y-90190398D01*
X159198172Y-90190398D01*
X159234763Y-90183119D01*
X159272401Y-90175634D01*
X159356584Y-90119384D01*
X159412834Y-90035201D01*
X159427600Y-89960967D01*
X159427599Y-88386834D01*
X159427599Y-88386833D01*
X159427599Y-88386831D01*
X159427599Y-88386830D01*
X167554600Y-88386830D01*
X167554600Y-89960963D01*
X167554601Y-89960973D01*
X167569365Y-90035200D01*
X167625616Y-90119384D01*
X167709797Y-90175633D01*
X167709799Y-90175634D01*
X167784033Y-90190400D01*
X169358166Y-90190399D01*
X169358169Y-90190398D01*
X169358173Y-90190398D01*
X169407426Y-90180601D01*
X169432401Y-90175634D01*
X169516584Y-90119384D01*
X169572834Y-90035201D01*
X169587600Y-89960967D01*
X169587600Y-89681400D01*
X169607602Y-89613279D01*
X169661258Y-89566786D01*
X169713600Y-89555400D01*
X172919601Y-89555400D01*
X172987722Y-89575402D01*
X173034215Y-89629058D01*
X173045601Y-89681400D01*
X173045601Y-89724972D01*
X173060365Y-89799200D01*
X173116616Y-89883384D01*
X173200797Y-89939633D01*
X173200799Y-89939634D01*
X173275033Y-89954400D01*
X174725166Y-89954399D01*
X174725169Y-89954398D01*
X174725173Y-89954398D01*
X174774426Y-89944601D01*
X174799401Y-89939634D01*
X174883584Y-89883384D01*
X174939834Y-89799201D01*
X174954600Y-89724967D01*
X174954599Y-88274834D01*
X174954599Y-88274833D01*
X174954599Y-88274831D01*
X174954599Y-88274830D01*
X176045600Y-88274830D01*
X176045600Y-89724963D01*
X176045601Y-89724973D01*
X176060365Y-89799200D01*
X176116616Y-89883384D01*
X176200797Y-89939633D01*
X176200799Y-89939634D01*
X176275033Y-89954400D01*
X177725166Y-89954399D01*
X177725169Y-89954398D01*
X177725173Y-89954398D01*
X177774426Y-89944601D01*
X177799401Y-89939634D01*
X177883584Y-89883384D01*
X177939834Y-89799201D01*
X177954600Y-89724967D01*
X177954599Y-88274834D01*
X177954598Y-88274831D01*
X177954598Y-88274826D01*
X177939834Y-88200599D01*
X177920835Y-88172165D01*
X177883584Y-88116416D01*
X177883583Y-88116415D01*
X177799402Y-88060166D01*
X177725167Y-88045400D01*
X176275036Y-88045400D01*
X176275026Y-88045401D01*
X176200799Y-88060165D01*
X176116615Y-88116416D01*
X176060366Y-88200597D01*
X176045600Y-88274830D01*
X174954599Y-88274830D01*
X174939834Y-88200599D01*
X174920835Y-88172165D01*
X174883584Y-88116416D01*
X174883583Y-88116415D01*
X174799402Y-88060166D01*
X174725167Y-88045400D01*
X173275036Y-88045400D01*
X173275026Y-88045401D01*
X173200799Y-88060165D01*
X173116615Y-88116416D01*
X173060366Y-88200597D01*
X173045600Y-88274830D01*
X173045600Y-88666400D01*
X173025598Y-88734521D01*
X172971942Y-88781014D01*
X172919600Y-88792400D01*
X169713599Y-88792400D01*
X169645478Y-88772398D01*
X169598985Y-88718742D01*
X169587599Y-88666400D01*
X169587599Y-88386836D01*
X169587598Y-88386827D01*
X169572834Y-88312599D01*
X169547597Y-88274830D01*
X169516584Y-88228416D01*
X169516583Y-88228415D01*
X169432402Y-88172166D01*
X169358167Y-88157400D01*
X167784036Y-88157400D01*
X167784026Y-88157401D01*
X167709799Y-88172165D01*
X167625615Y-88228416D01*
X167569366Y-88312597D01*
X167554600Y-88386830D01*
X159427599Y-88386830D01*
X159412834Y-88312599D01*
X159387597Y-88274830D01*
X159356584Y-88228416D01*
X159356583Y-88228415D01*
X159272402Y-88172166D01*
X159198167Y-88157400D01*
X157624036Y-88157400D01*
X157624026Y-88157401D01*
X157549799Y-88172165D01*
X157465615Y-88228416D01*
X157409366Y-88312597D01*
X157394600Y-88386830D01*
X157394600Y-89598686D01*
X157374598Y-89666807D01*
X157357695Y-89687781D01*
X155464982Y-91580495D01*
X155402670Y-91614520D01*
X155375887Y-91617400D01*
X145004604Y-91617400D01*
X145004561Y-91617399D01*
X144951030Y-91617392D01*
X144951029Y-91617392D01*
X144942892Y-91617391D01*
X144942754Y-91617400D01*
X139080399Y-91617400D01*
X139012278Y-91597398D01*
X138965785Y-91543742D01*
X138954399Y-91491400D01*
X138954399Y-91274836D01*
X138954398Y-91274827D01*
X138939634Y-91200599D01*
X138883383Y-91116415D01*
X138799202Y-91060166D01*
X138724967Y-91045400D01*
X137274836Y-91045400D01*
X137274826Y-91045401D01*
X137200599Y-91060165D01*
X137116415Y-91116416D01*
X137060166Y-91200597D01*
X137045400Y-91274830D01*
X135001300Y-91274830D01*
X135001300Y-68933308D01*
X134967192Y-68806014D01*
X134901300Y-68691886D01*
X134901298Y-68691884D01*
X134901294Y-68691879D01*
X134808120Y-68598705D01*
X134808110Y-68598697D01*
X134693990Y-68532810D01*
X134693987Y-68532809D01*
X134693986Y-68532808D01*
X134693984Y-68532807D01*
X134693983Y-68532807D01*
X134659873Y-68523667D01*
X134566692Y-68498700D01*
X114566792Y-68498700D01*
X114435008Y-68498700D01*
X114366794Y-68516977D01*
X114307716Y-68532807D01*
X114307709Y-68532810D01*
X114193589Y-68598697D01*
X114193579Y-68598705D01*
X114100405Y-68691879D01*
X114100397Y-68691889D01*
X114034510Y-68806009D01*
X114034508Y-68806014D01*
X114000400Y-68933308D01*
X100500400Y-68933308D01*
X100500400Y-60292604D01*
X100520402Y-60224483D01*
X100537305Y-60203509D01*
X110170409Y-50570405D01*
X110232721Y-50536379D01*
X110259504Y-50533500D01*
X189740297Y-50533500D01*
X189808418Y-50553502D01*
G37*
%TD.AperFunction*%
%TD*%
M02*
