%TF.GenerationSoftware,KiCad,Pcbnew,10.0.6*%
%TF.CreationDate,2026-09-23T18:09:16+08:00*%
%TF.ProjectId,Stage_Module,53746167-655f-44d6-9f64-756c652e6b69,1.7*%
%TF.SameCoordinates,Original*%
%TF.FileFunction,Legend,Top*%
%TF.FilePolarity,Positive*%
%FSLAX46Y46*%
G04 Gerber Fmt 4.6, Leading zero omitted, Abs format (unit mm)*
G04 Created by KiCad (PCBNEW 10.0.6) date 2026-09-23 18:09:16*
%MOMM*%
%LPD*%
G01*
G04 APERTURE LIST*
%ADD10C,0.254000*%
%ADD11C,0.080000*%
%ADD12C,0.120000*%
%ADD13C,0.150000*%
%ADD14C,0.200000*%
%ADD15C,0.152400*%
%ADD16C,0.177800*%
G04 APERTURE END LIST*
D10*
X117333000Y-117963600D02*
X117333000Y-129962600D01*
X117333000Y-129962600D02*
X128331100Y-129962600D01*
X128331100Y-129962600D02*
X131831200Y-129962600D01*
X131831200Y-117963600D02*
X117333000Y-117963600D01*
X131831200Y-129962600D02*
X131831200Y-117963600D01*
X179614000Y-115278100D02*
X185614000Y-115278100D01*
X179614000Y-139278100D02*
X179614000Y-115278100D01*
X184614000Y-126278000D02*
X184614000Y-128278000D01*
X184614000Y-128278000D02*
X185614000Y-128278000D01*
X185614000Y-115278100D02*
X185614000Y-139278100D01*
X185614000Y-126278000D02*
X184614000Y-126278000D01*
X185614000Y-139278100D02*
X179614000Y-139278100D01*
D11*
X136871078Y-85110726D02*
X136627269Y-85110726D01*
X136231078Y-85110726D02*
X135987269Y-85110726D01*
X135591078Y-85110726D02*
X135347269Y-85110726D01*
X134951078Y-85110726D02*
X134707269Y-85110726D01*
X136871078Y-91860526D02*
X136627269Y-91860526D01*
X136231078Y-91860526D02*
X135987269Y-91860526D01*
X135591078Y-91860526D02*
X135347269Y-91860526D01*
X134951078Y-91860526D02*
X134707269Y-91860526D01*
X157890626Y-87639173D02*
X158172531Y-87639173D01*
X158630626Y-87639173D02*
X158912531Y-87639173D01*
X159370626Y-87639173D02*
X159652531Y-87639173D01*
X160110626Y-87639173D02*
X160392531Y-87639173D01*
X160850626Y-87639173D02*
X161132531Y-87639173D01*
X161590626Y-87639173D02*
X161872531Y-87639173D01*
X162330626Y-87639173D02*
X162612531Y-87639173D01*
X163070626Y-87639173D02*
X163352531Y-87639173D01*
X163810626Y-87639173D02*
X164092531Y-87639173D01*
X164550626Y-87639173D02*
X164832531Y-87639173D01*
X165290626Y-87639173D02*
X165572531Y-87639173D01*
X166030626Y-87639173D02*
X166312531Y-87639173D01*
X166770626Y-87639173D02*
X167052531Y-87639173D01*
X167510626Y-87639173D02*
X167792531Y-87639173D01*
X168250626Y-87639173D02*
X168532531Y-87639173D01*
X168990626Y-87639173D02*
X169272531Y-87639173D01*
X157890626Y-90889073D02*
X158172531Y-90889073D01*
X158630626Y-90889073D02*
X158912531Y-90889073D01*
X159370626Y-90889073D02*
X159652531Y-90889073D01*
X160110626Y-90889073D02*
X160392531Y-90889073D01*
X160850626Y-90889073D02*
X161132531Y-90889073D01*
X161590626Y-90889073D02*
X161872531Y-90889073D01*
X162330626Y-90889073D02*
X162612531Y-90889073D01*
X163070626Y-90889073D02*
X163352531Y-90889073D01*
X163810626Y-90889073D02*
X164092531Y-90889073D01*
X164550626Y-90889073D02*
X164832531Y-90889073D01*
X165290626Y-90889073D02*
X165572531Y-90889073D01*
X166030626Y-90889073D02*
X166312531Y-90889073D01*
X166770626Y-90889073D02*
X167052531Y-90889073D01*
X167510626Y-90889073D02*
X167792531Y-90889073D01*
X168250626Y-90889073D02*
X168532531Y-90889073D01*
X168990626Y-90889073D02*
X169272531Y-90889073D01*
X156639173Y-89859173D02*
X156639173Y-89577269D01*
X156639173Y-89119173D02*
X156639173Y-88837269D01*
X156639173Y-88379173D02*
X156639173Y-88097269D01*
X170389373Y-89859673D02*
X170389373Y-89577769D01*
X170389373Y-89119673D02*
X170389373Y-88837769D01*
X170389373Y-88379673D02*
X170389373Y-88097769D01*
X146110726Y-118640726D02*
X146110726Y-118922631D01*
X146110726Y-119380726D02*
X146110726Y-119662631D01*
X153860826Y-118640726D02*
X153860826Y-118922631D01*
X153860826Y-119380726D02*
X153860826Y-119662631D01*
D12*
X166769423Y-85691955D02*
X166769423Y-84891955D01*
X166769423Y-84891955D02*
X167226566Y-85691955D01*
X167226566Y-85691955D02*
X167226566Y-84891955D01*
X167759899Y-84891955D02*
X167912280Y-84891955D01*
X167912280Y-84891955D02*
X167988470Y-84930050D01*
X167988470Y-84930050D02*
X168064661Y-85006240D01*
X168064661Y-85006240D02*
X168102756Y-85158621D01*
X168102756Y-85158621D02*
X168102756Y-85425288D01*
X168102756Y-85425288D02*
X168064661Y-85577669D01*
X168064661Y-85577669D02*
X167988470Y-85653860D01*
X167988470Y-85653860D02*
X167912280Y-85691955D01*
X167912280Y-85691955D02*
X167759899Y-85691955D01*
X167759899Y-85691955D02*
X167683708Y-85653860D01*
X167683708Y-85653860D02*
X167607518Y-85577669D01*
X167607518Y-85577669D02*
X167569422Y-85425288D01*
X167569422Y-85425288D02*
X167569422Y-85158621D01*
X167569422Y-85158621D02*
X167607518Y-85006240D01*
X167607518Y-85006240D02*
X167683708Y-84930050D01*
X167683708Y-84930050D02*
X167759899Y-84891955D01*
X168331327Y-84891955D02*
X168788470Y-84891955D01*
X168559898Y-85691955D02*
X168559898Y-84891955D01*
X169931327Y-85272907D02*
X169664661Y-85272907D01*
X169664661Y-85691955D02*
X169664661Y-84891955D01*
X169664661Y-84891955D02*
X170045613Y-84891955D01*
X170502756Y-84891955D02*
X170655137Y-84891955D01*
X170655137Y-84891955D02*
X170731327Y-84930050D01*
X170731327Y-84930050D02*
X170807518Y-85006240D01*
X170807518Y-85006240D02*
X170845613Y-85158621D01*
X170845613Y-85158621D02*
X170845613Y-85425288D01*
X170845613Y-85425288D02*
X170807518Y-85577669D01*
X170807518Y-85577669D02*
X170731327Y-85653860D01*
X170731327Y-85653860D02*
X170655137Y-85691955D01*
X170655137Y-85691955D02*
X170502756Y-85691955D01*
X170502756Y-85691955D02*
X170426565Y-85653860D01*
X170426565Y-85653860D02*
X170350375Y-85577669D01*
X170350375Y-85577669D02*
X170312279Y-85425288D01*
X170312279Y-85425288D02*
X170312279Y-85158621D01*
X170312279Y-85158621D02*
X170350375Y-85006240D01*
X170350375Y-85006240D02*
X170426565Y-84930050D01*
X170426565Y-84930050D02*
X170502756Y-84891955D01*
X171645613Y-85691955D02*
X171378946Y-85311002D01*
X171188470Y-85691955D02*
X171188470Y-84891955D01*
X171188470Y-84891955D02*
X171493232Y-84891955D01*
X171493232Y-84891955D02*
X171569422Y-84930050D01*
X171569422Y-84930050D02*
X171607517Y-84968145D01*
X171607517Y-84968145D02*
X171645613Y-85044336D01*
X171645613Y-85044336D02*
X171645613Y-85158621D01*
X171645613Y-85158621D02*
X171607517Y-85234812D01*
X171607517Y-85234812D02*
X171569422Y-85272907D01*
X171569422Y-85272907D02*
X171493232Y-85311002D01*
X171493232Y-85311002D02*
X171188470Y-85311002D01*
X172597994Y-85691955D02*
X172597994Y-84891955D01*
X173055137Y-85691955D02*
X172712279Y-85234812D01*
X173055137Y-84891955D02*
X172597994Y-85349098D01*
X173397994Y-85272907D02*
X173664660Y-85272907D01*
X173778946Y-85691955D02*
X173397994Y-85691955D01*
X173397994Y-85691955D02*
X173397994Y-84891955D01*
X173397994Y-84891955D02*
X173778946Y-84891955D01*
X174578947Y-85691955D02*
X174312280Y-85311002D01*
X174121804Y-85691955D02*
X174121804Y-84891955D01*
X174121804Y-84891955D02*
X174426566Y-84891955D01*
X174426566Y-84891955D02*
X174502756Y-84930050D01*
X174502756Y-84930050D02*
X174540851Y-84968145D01*
X174540851Y-84968145D02*
X174578947Y-85044336D01*
X174578947Y-85044336D02*
X174578947Y-85158621D01*
X174578947Y-85158621D02*
X174540851Y-85234812D01*
X174540851Y-85234812D02*
X174502756Y-85272907D01*
X174502756Y-85272907D02*
X174426566Y-85311002D01*
X174426566Y-85311002D02*
X174121804Y-85311002D01*
X175188470Y-85272907D02*
X175302756Y-85311002D01*
X175302756Y-85311002D02*
X175340851Y-85349098D01*
X175340851Y-85349098D02*
X175378947Y-85425288D01*
X175378947Y-85425288D02*
X175378947Y-85539574D01*
X175378947Y-85539574D02*
X175340851Y-85615764D01*
X175340851Y-85615764D02*
X175302756Y-85653860D01*
X175302756Y-85653860D02*
X175226566Y-85691955D01*
X175226566Y-85691955D02*
X174921804Y-85691955D01*
X174921804Y-85691955D02*
X174921804Y-84891955D01*
X174921804Y-84891955D02*
X175188470Y-84891955D01*
X175188470Y-84891955D02*
X175264661Y-84930050D01*
X175264661Y-84930050D02*
X175302756Y-84968145D01*
X175302756Y-84968145D02*
X175340851Y-85044336D01*
X175340851Y-85044336D02*
X175340851Y-85120526D01*
X175340851Y-85120526D02*
X175302756Y-85196717D01*
X175302756Y-85196717D02*
X175264661Y-85234812D01*
X175264661Y-85234812D02*
X175188470Y-85272907D01*
X175188470Y-85272907D02*
X174921804Y-85272907D01*
X175683708Y-85463383D02*
X176064661Y-85463383D01*
X175607518Y-85691955D02*
X175874185Y-84891955D01*
X175874185Y-84891955D02*
X176140851Y-85691955D01*
X176788470Y-85691955D02*
X176407518Y-85691955D01*
X176407518Y-85691955D02*
X176407518Y-84891955D01*
X178121804Y-85615764D02*
X178083708Y-85653860D01*
X178083708Y-85653860D02*
X177969423Y-85691955D01*
X177969423Y-85691955D02*
X177893232Y-85691955D01*
X177893232Y-85691955D02*
X177778946Y-85653860D01*
X177778946Y-85653860D02*
X177702756Y-85577669D01*
X177702756Y-85577669D02*
X177664661Y-85501479D01*
X177664661Y-85501479D02*
X177626565Y-85349098D01*
X177626565Y-85349098D02*
X177626565Y-85234812D01*
X177626565Y-85234812D02*
X177664661Y-85082431D01*
X177664661Y-85082431D02*
X177702756Y-85006240D01*
X177702756Y-85006240D02*
X177778946Y-84930050D01*
X177778946Y-84930050D02*
X177893232Y-84891955D01*
X177893232Y-84891955D02*
X177969423Y-84891955D01*
X177969423Y-84891955D02*
X178083708Y-84930050D01*
X178083708Y-84930050D02*
X178121804Y-84968145D01*
X178617042Y-84891955D02*
X178769423Y-84891955D01*
X178769423Y-84891955D02*
X178845613Y-84930050D01*
X178845613Y-84930050D02*
X178921804Y-85006240D01*
X178921804Y-85006240D02*
X178959899Y-85158621D01*
X178959899Y-85158621D02*
X178959899Y-85425288D01*
X178959899Y-85425288D02*
X178921804Y-85577669D01*
X178921804Y-85577669D02*
X178845613Y-85653860D01*
X178845613Y-85653860D02*
X178769423Y-85691955D01*
X178769423Y-85691955D02*
X178617042Y-85691955D01*
X178617042Y-85691955D02*
X178540851Y-85653860D01*
X178540851Y-85653860D02*
X178464661Y-85577669D01*
X178464661Y-85577669D02*
X178426565Y-85425288D01*
X178426565Y-85425288D02*
X178426565Y-85158621D01*
X178426565Y-85158621D02*
X178464661Y-85006240D01*
X178464661Y-85006240D02*
X178540851Y-84930050D01*
X178540851Y-84930050D02*
X178617042Y-84891955D01*
X179302756Y-85691955D02*
X179302756Y-84891955D01*
X179302756Y-84891955D02*
X179759899Y-85691955D01*
X179759899Y-85691955D02*
X179759899Y-84891955D01*
X180102755Y-85653860D02*
X180217041Y-85691955D01*
X180217041Y-85691955D02*
X180407517Y-85691955D01*
X180407517Y-85691955D02*
X180483708Y-85653860D01*
X180483708Y-85653860D02*
X180521803Y-85615764D01*
X180521803Y-85615764D02*
X180559898Y-85539574D01*
X180559898Y-85539574D02*
X180559898Y-85463383D01*
X180559898Y-85463383D02*
X180521803Y-85387193D01*
X180521803Y-85387193D02*
X180483708Y-85349098D01*
X180483708Y-85349098D02*
X180407517Y-85311002D01*
X180407517Y-85311002D02*
X180255136Y-85272907D01*
X180255136Y-85272907D02*
X180178946Y-85234812D01*
X180178946Y-85234812D02*
X180140851Y-85196717D01*
X180140851Y-85196717D02*
X180102755Y-85120526D01*
X180102755Y-85120526D02*
X180102755Y-85044336D01*
X180102755Y-85044336D02*
X180140851Y-84968145D01*
X180140851Y-84968145D02*
X180178946Y-84930050D01*
X180178946Y-84930050D02*
X180255136Y-84891955D01*
X180255136Y-84891955D02*
X180445613Y-84891955D01*
X180445613Y-84891955D02*
X180559898Y-84930050D01*
X180902756Y-84891955D02*
X180902756Y-85539574D01*
X180902756Y-85539574D02*
X180940851Y-85615764D01*
X180940851Y-85615764D02*
X180978946Y-85653860D01*
X180978946Y-85653860D02*
X181055137Y-85691955D01*
X181055137Y-85691955D02*
X181207518Y-85691955D01*
X181207518Y-85691955D02*
X181283708Y-85653860D01*
X181283708Y-85653860D02*
X181321803Y-85615764D01*
X181321803Y-85615764D02*
X181359899Y-85539574D01*
X181359899Y-85539574D02*
X181359899Y-84891955D01*
X181740851Y-85691955D02*
X181740851Y-84891955D01*
X181740851Y-84891955D02*
X182007517Y-85463383D01*
X182007517Y-85463383D02*
X182274184Y-84891955D01*
X182274184Y-84891955D02*
X182274184Y-85691955D01*
X182655137Y-85691955D02*
X182655137Y-84891955D01*
X182655137Y-84891955D02*
X182959899Y-84891955D01*
X182959899Y-84891955D02*
X183036089Y-84930050D01*
X183036089Y-84930050D02*
X183074184Y-84968145D01*
X183074184Y-84968145D02*
X183112280Y-85044336D01*
X183112280Y-85044336D02*
X183112280Y-85158621D01*
X183112280Y-85158621D02*
X183074184Y-85234812D01*
X183074184Y-85234812D02*
X183036089Y-85272907D01*
X183036089Y-85272907D02*
X182959899Y-85311002D01*
X182959899Y-85311002D02*
X182655137Y-85311002D01*
X183340851Y-84891955D02*
X183797994Y-84891955D01*
X183569422Y-85691955D02*
X183569422Y-84891955D01*
X184064661Y-85691955D02*
X184064661Y-84891955D01*
X184597994Y-84891955D02*
X184750375Y-84891955D01*
X184750375Y-84891955D02*
X184826565Y-84930050D01*
X184826565Y-84930050D02*
X184902756Y-85006240D01*
X184902756Y-85006240D02*
X184940851Y-85158621D01*
X184940851Y-85158621D02*
X184940851Y-85425288D01*
X184940851Y-85425288D02*
X184902756Y-85577669D01*
X184902756Y-85577669D02*
X184826565Y-85653860D01*
X184826565Y-85653860D02*
X184750375Y-85691955D01*
X184750375Y-85691955D02*
X184597994Y-85691955D01*
X184597994Y-85691955D02*
X184521803Y-85653860D01*
X184521803Y-85653860D02*
X184445613Y-85577669D01*
X184445613Y-85577669D02*
X184407517Y-85425288D01*
X184407517Y-85425288D02*
X184407517Y-85158621D01*
X184407517Y-85158621D02*
X184445613Y-85006240D01*
X184445613Y-85006240D02*
X184521803Y-84930050D01*
X184521803Y-84930050D02*
X184597994Y-84891955D01*
X185283708Y-85691955D02*
X185283708Y-84891955D01*
X185283708Y-84891955D02*
X185740851Y-85691955D01*
X185740851Y-85691955D02*
X185740851Y-84891955D01*
D13*
X122746303Y-119254104D02*
X122708207Y-119292200D01*
X122708207Y-119292200D02*
X122593922Y-119330295D01*
X122593922Y-119330295D02*
X122517731Y-119330295D01*
X122517731Y-119330295D02*
X122403445Y-119292200D01*
X122403445Y-119292200D02*
X122327255Y-119216009D01*
X122327255Y-119216009D02*
X122289160Y-119139819D01*
X122289160Y-119139819D02*
X122251064Y-118987438D01*
X122251064Y-118987438D02*
X122251064Y-118873152D01*
X122251064Y-118873152D02*
X122289160Y-118720771D01*
X122289160Y-118720771D02*
X122327255Y-118644580D01*
X122327255Y-118644580D02*
X122403445Y-118568390D01*
X122403445Y-118568390D02*
X122517731Y-118530295D01*
X122517731Y-118530295D02*
X122593922Y-118530295D01*
X122593922Y-118530295D02*
X122708207Y-118568390D01*
X122708207Y-118568390D02*
X122746303Y-118606485D01*
X123241541Y-118530295D02*
X123393922Y-118530295D01*
X123393922Y-118530295D02*
X123470112Y-118568390D01*
X123470112Y-118568390D02*
X123546303Y-118644580D01*
X123546303Y-118644580D02*
X123584398Y-118796961D01*
X123584398Y-118796961D02*
X123584398Y-119063628D01*
X123584398Y-119063628D02*
X123546303Y-119216009D01*
X123546303Y-119216009D02*
X123470112Y-119292200D01*
X123470112Y-119292200D02*
X123393922Y-119330295D01*
X123393922Y-119330295D02*
X123241541Y-119330295D01*
X123241541Y-119330295D02*
X123165350Y-119292200D01*
X123165350Y-119292200D02*
X123089160Y-119216009D01*
X123089160Y-119216009D02*
X123051064Y-119063628D01*
X123051064Y-119063628D02*
X123051064Y-118796961D01*
X123051064Y-118796961D02*
X123089160Y-118644580D01*
X123089160Y-118644580D02*
X123165350Y-118568390D01*
X123165350Y-118568390D02*
X123241541Y-118530295D01*
X123927255Y-119330295D02*
X123927255Y-118530295D01*
X123927255Y-118530295D02*
X124384398Y-119330295D01*
X124384398Y-119330295D02*
X124384398Y-118530295D01*
X124651064Y-118530295D02*
X125108207Y-118530295D01*
X124879635Y-119330295D02*
X124879635Y-118530295D01*
X125832017Y-119330295D02*
X125565350Y-118949342D01*
X125374874Y-119330295D02*
X125374874Y-118530295D01*
X125374874Y-118530295D02*
X125679636Y-118530295D01*
X125679636Y-118530295D02*
X125755826Y-118568390D01*
X125755826Y-118568390D02*
X125793921Y-118606485D01*
X125793921Y-118606485D02*
X125832017Y-118682676D01*
X125832017Y-118682676D02*
X125832017Y-118796961D01*
X125832017Y-118796961D02*
X125793921Y-118873152D01*
X125793921Y-118873152D02*
X125755826Y-118911247D01*
X125755826Y-118911247D02*
X125679636Y-118949342D01*
X125679636Y-118949342D02*
X125374874Y-118949342D01*
X126327255Y-118530295D02*
X126479636Y-118530295D01*
X126479636Y-118530295D02*
X126555826Y-118568390D01*
X126555826Y-118568390D02*
X126632017Y-118644580D01*
X126632017Y-118644580D02*
X126670112Y-118796961D01*
X126670112Y-118796961D02*
X126670112Y-119063628D01*
X126670112Y-119063628D02*
X126632017Y-119216009D01*
X126632017Y-119216009D02*
X126555826Y-119292200D01*
X126555826Y-119292200D02*
X126479636Y-119330295D01*
X126479636Y-119330295D02*
X126327255Y-119330295D01*
X126327255Y-119330295D02*
X126251064Y-119292200D01*
X126251064Y-119292200D02*
X126174874Y-119216009D01*
X126174874Y-119216009D02*
X126136778Y-119063628D01*
X126136778Y-119063628D02*
X126136778Y-118796961D01*
X126136778Y-118796961D02*
X126174874Y-118644580D01*
X126174874Y-118644580D02*
X126251064Y-118568390D01*
X126251064Y-118568390D02*
X126327255Y-118530295D01*
X127393921Y-119330295D02*
X127012969Y-119330295D01*
X127012969Y-119330295D02*
X127012969Y-118530295D01*
X148501064Y-138542200D02*
X148615350Y-138580295D01*
X148615350Y-138580295D02*
X148805826Y-138580295D01*
X148805826Y-138580295D02*
X148882017Y-138542200D01*
X148882017Y-138542200D02*
X148920112Y-138504104D01*
X148920112Y-138504104D02*
X148958207Y-138427914D01*
X148958207Y-138427914D02*
X148958207Y-138351723D01*
X148958207Y-138351723D02*
X148920112Y-138275533D01*
X148920112Y-138275533D02*
X148882017Y-138237438D01*
X148882017Y-138237438D02*
X148805826Y-138199342D01*
X148805826Y-138199342D02*
X148653445Y-138161247D01*
X148653445Y-138161247D02*
X148577255Y-138123152D01*
X148577255Y-138123152D02*
X148539160Y-138085057D01*
X148539160Y-138085057D02*
X148501064Y-138008866D01*
X148501064Y-138008866D02*
X148501064Y-137932676D01*
X148501064Y-137932676D02*
X148539160Y-137856485D01*
X148539160Y-137856485D02*
X148577255Y-137818390D01*
X148577255Y-137818390D02*
X148653445Y-137780295D01*
X148653445Y-137780295D02*
X148843922Y-137780295D01*
X148843922Y-137780295D02*
X148958207Y-137818390D01*
X149186779Y-137780295D02*
X149643922Y-137780295D01*
X149415350Y-138580295D02*
X149415350Y-137780295D01*
X149872493Y-138351723D02*
X150253446Y-138351723D01*
X149796303Y-138580295D02*
X150062970Y-137780295D01*
X150062970Y-137780295D02*
X150329636Y-138580295D01*
X151015350Y-137818390D02*
X150939160Y-137780295D01*
X150939160Y-137780295D02*
X150824874Y-137780295D01*
X150824874Y-137780295D02*
X150710588Y-137818390D01*
X150710588Y-137818390D02*
X150634398Y-137894580D01*
X150634398Y-137894580D02*
X150596303Y-137970771D01*
X150596303Y-137970771D02*
X150558207Y-138123152D01*
X150558207Y-138123152D02*
X150558207Y-138237438D01*
X150558207Y-138237438D02*
X150596303Y-138389819D01*
X150596303Y-138389819D02*
X150634398Y-138466009D01*
X150634398Y-138466009D02*
X150710588Y-138542200D01*
X150710588Y-138542200D02*
X150824874Y-138580295D01*
X150824874Y-138580295D02*
X150901065Y-138580295D01*
X150901065Y-138580295D02*
X151015350Y-138542200D01*
X151015350Y-138542200D02*
X151053446Y-138504104D01*
X151053446Y-138504104D02*
X151053446Y-138237438D01*
X151053446Y-138237438D02*
X150901065Y-138237438D01*
X151396303Y-138161247D02*
X151662969Y-138161247D01*
X151777255Y-138580295D02*
X151396303Y-138580295D01*
X151396303Y-138580295D02*
X151396303Y-137780295D01*
X151396303Y-137780295D02*
X151777255Y-137780295D01*
X173671064Y-93589823D02*
X174052017Y-93589823D01*
X173594874Y-93818395D02*
X173861541Y-93018395D01*
X173861541Y-93018395D02*
X174128207Y-93818395D01*
X174852017Y-93818395D02*
X174585350Y-93437442D01*
X174394874Y-93818395D02*
X174394874Y-93018395D01*
X174394874Y-93018395D02*
X174699636Y-93018395D01*
X174699636Y-93018395D02*
X174775826Y-93056490D01*
X174775826Y-93056490D02*
X174813921Y-93094585D01*
X174813921Y-93094585D02*
X174852017Y-93170776D01*
X174852017Y-93170776D02*
X174852017Y-93285061D01*
X174852017Y-93285061D02*
X174813921Y-93361252D01*
X174813921Y-93361252D02*
X174775826Y-93399347D01*
X174775826Y-93399347D02*
X174699636Y-93437442D01*
X174699636Y-93437442D02*
X174394874Y-93437442D01*
X175194874Y-93818395D02*
X175194874Y-93018395D01*
X175194874Y-93018395D02*
X175461540Y-93589823D01*
X175461540Y-93589823D02*
X175728207Y-93018395D01*
X175728207Y-93018395D02*
X175728207Y-93818395D01*
X176109160Y-93399347D02*
X176375826Y-93399347D01*
X176490112Y-93818395D02*
X176109160Y-93818395D01*
X176109160Y-93818395D02*
X176109160Y-93018395D01*
X176109160Y-93018395D02*
X176490112Y-93018395D01*
X176832970Y-93818395D02*
X176832970Y-93018395D01*
X176832970Y-93018395D02*
X177023446Y-93018395D01*
X177023446Y-93018395D02*
X177137732Y-93056490D01*
X177137732Y-93056490D02*
X177213922Y-93132680D01*
X177213922Y-93132680D02*
X177252017Y-93208871D01*
X177252017Y-93208871D02*
X177290113Y-93361252D01*
X177290113Y-93361252D02*
X177290113Y-93475538D01*
X177290113Y-93475538D02*
X177252017Y-93627919D01*
X177252017Y-93627919D02*
X177213922Y-93704109D01*
X177213922Y-93704109D02*
X177137732Y-93780300D01*
X177137732Y-93780300D02*
X177023446Y-93818395D01*
X177023446Y-93818395D02*
X176832970Y-93818395D01*
X173789160Y-87225633D02*
X174398684Y-87225633D01*
X174093922Y-87530395D02*
X174093922Y-86920871D01*
X176608208Y-87225633D02*
X177217732Y-87225633D01*
X137698376Y-87250964D02*
X137698376Y-87631917D01*
X137469804Y-87174774D02*
X138269804Y-87441441D01*
X138269804Y-87441441D02*
X137469804Y-87708107D01*
X137469804Y-88431917D02*
X137850757Y-88165250D01*
X137469804Y-87974774D02*
X138269804Y-87974774D01*
X138269804Y-87974774D02*
X138269804Y-88279536D01*
X138269804Y-88279536D02*
X138231709Y-88355726D01*
X138231709Y-88355726D02*
X138193614Y-88393821D01*
X138193614Y-88393821D02*
X138117423Y-88431917D01*
X138117423Y-88431917D02*
X138003138Y-88431917D01*
X138003138Y-88431917D02*
X137926947Y-88393821D01*
X137926947Y-88393821D02*
X137888852Y-88355726D01*
X137888852Y-88355726D02*
X137850757Y-88279536D01*
X137850757Y-88279536D02*
X137850757Y-87974774D01*
X137469804Y-88774774D02*
X138269804Y-88774774D01*
X138269804Y-88774774D02*
X137698376Y-89041440D01*
X137698376Y-89041440D02*
X138269804Y-89308107D01*
X138269804Y-89308107D02*
X137469804Y-89308107D01*
X120022017Y-125935533D02*
X120455350Y-125935533D01*
X119935350Y-126195533D02*
X120238684Y-125285533D01*
X120238684Y-125285533D02*
X120542017Y-126195533D01*
X120715350Y-125285533D02*
X121235350Y-125285533D01*
X120975350Y-126195533D02*
X120975350Y-125285533D01*
X121408683Y-125285533D02*
X121928683Y-125285533D01*
X121668683Y-126195533D02*
X121668683Y-125285533D01*
X122232016Y-126195533D02*
X122232016Y-125285533D01*
X122665349Y-126195533D02*
X122665349Y-125285533D01*
X122665349Y-125285533D02*
X123185349Y-126195533D01*
X123185349Y-126195533D02*
X123185349Y-125285533D01*
X123792016Y-125762200D02*
X123792016Y-126195533D01*
X123488682Y-125285533D02*
X123792016Y-125762200D01*
X123792016Y-125762200D02*
X124095349Y-125285533D01*
X124355349Y-125372200D02*
X124398682Y-125328866D01*
X124398682Y-125328866D02*
X124485349Y-125285533D01*
X124485349Y-125285533D02*
X124702016Y-125285533D01*
X124702016Y-125285533D02*
X124788682Y-125328866D01*
X124788682Y-125328866D02*
X124832016Y-125372200D01*
X124832016Y-125372200D02*
X124875349Y-125458866D01*
X124875349Y-125458866D02*
X124875349Y-125545533D01*
X124875349Y-125545533D02*
X124832016Y-125675533D01*
X124832016Y-125675533D02*
X124312016Y-126195533D01*
X124312016Y-126195533D02*
X124875349Y-126195533D01*
X125698683Y-125285533D02*
X125265349Y-125285533D01*
X125265349Y-125285533D02*
X125222016Y-125718866D01*
X125222016Y-125718866D02*
X125265349Y-125675533D01*
X125265349Y-125675533D02*
X125352016Y-125632200D01*
X125352016Y-125632200D02*
X125568683Y-125632200D01*
X125568683Y-125632200D02*
X125655349Y-125675533D01*
X125655349Y-125675533D02*
X125698683Y-125718866D01*
X125698683Y-125718866D02*
X125742016Y-125805533D01*
X125742016Y-125805533D02*
X125742016Y-126022200D01*
X125742016Y-126022200D02*
X125698683Y-126108866D01*
X125698683Y-126108866D02*
X125655349Y-126152200D01*
X125655349Y-126152200D02*
X125568683Y-126195533D01*
X125568683Y-126195533D02*
X125352016Y-126195533D01*
X125352016Y-126195533D02*
X125265349Y-126152200D01*
X125265349Y-126152200D02*
X125222016Y-126108866D01*
D14*
X101009600Y-60864058D02*
X100951504Y-61038344D01*
X100951504Y-61038344D02*
X100951504Y-61328820D01*
X100951504Y-61328820D02*
X101009600Y-61445011D01*
X101009600Y-61445011D02*
X101067695Y-61503106D01*
X101067695Y-61503106D02*
X101183885Y-61561201D01*
X101183885Y-61561201D02*
X101300076Y-61561201D01*
X101300076Y-61561201D02*
X101416266Y-61503106D01*
X101416266Y-61503106D02*
X101474361Y-61445011D01*
X101474361Y-61445011D02*
X101532457Y-61328820D01*
X101532457Y-61328820D02*
X101590552Y-61096439D01*
X101590552Y-61096439D02*
X101648647Y-60980249D01*
X101648647Y-60980249D02*
X101706742Y-60922154D01*
X101706742Y-60922154D02*
X101822933Y-60864058D01*
X101822933Y-60864058D02*
X101939123Y-60864058D01*
X101939123Y-60864058D02*
X102055314Y-60922154D01*
X102055314Y-60922154D02*
X102113409Y-60980249D01*
X102113409Y-60980249D02*
X102171504Y-61096439D01*
X102171504Y-61096439D02*
X102171504Y-61386916D01*
X102171504Y-61386916D02*
X102113409Y-61561201D01*
X102171504Y-61909773D02*
X102171504Y-62606916D01*
X100951504Y-62258344D02*
X102171504Y-62258344D01*
X101300076Y-62955487D02*
X101300076Y-63536440D01*
X100951504Y-62839297D02*
X102171504Y-63245964D01*
X102171504Y-63245964D02*
X100951504Y-63652630D01*
X102113409Y-64698344D02*
X102171504Y-64582154D01*
X102171504Y-64582154D02*
X102171504Y-64407868D01*
X102171504Y-64407868D02*
X102113409Y-64233582D01*
X102113409Y-64233582D02*
X101997219Y-64117392D01*
X101997219Y-64117392D02*
X101881028Y-64059297D01*
X101881028Y-64059297D02*
X101648647Y-64001201D01*
X101648647Y-64001201D02*
X101474361Y-64001201D01*
X101474361Y-64001201D02*
X101241980Y-64059297D01*
X101241980Y-64059297D02*
X101125790Y-64117392D01*
X101125790Y-64117392D02*
X101009600Y-64233582D01*
X101009600Y-64233582D02*
X100951504Y-64407868D01*
X100951504Y-64407868D02*
X100951504Y-64524059D01*
X100951504Y-64524059D02*
X101009600Y-64698344D01*
X101009600Y-64698344D02*
X101067695Y-64756440D01*
X101067695Y-64756440D02*
X101474361Y-64756440D01*
X101474361Y-64756440D02*
X101474361Y-64524059D01*
X101590552Y-65279297D02*
X101590552Y-65685963D01*
X100951504Y-65860249D02*
X100951504Y-65279297D01*
X100951504Y-65279297D02*
X102171504Y-65279297D01*
X102171504Y-65279297D02*
X102171504Y-65860249D01*
X100951504Y-67312631D02*
X102171504Y-67312631D01*
X102171504Y-67312631D02*
X101300076Y-67719297D01*
X101300076Y-67719297D02*
X102171504Y-68125964D01*
X102171504Y-68125964D02*
X100951504Y-68125964D01*
X102171504Y-68939298D02*
X102171504Y-69171679D01*
X102171504Y-69171679D02*
X102113409Y-69287869D01*
X102113409Y-69287869D02*
X101997219Y-69404060D01*
X101997219Y-69404060D02*
X101764838Y-69462155D01*
X101764838Y-69462155D02*
X101358171Y-69462155D01*
X101358171Y-69462155D02*
X101125790Y-69404060D01*
X101125790Y-69404060D02*
X101009600Y-69287869D01*
X101009600Y-69287869D02*
X100951504Y-69171679D01*
X100951504Y-69171679D02*
X100951504Y-68939298D01*
X100951504Y-68939298D02*
X101009600Y-68823107D01*
X101009600Y-68823107D02*
X101125790Y-68706917D01*
X101125790Y-68706917D02*
X101358171Y-68648821D01*
X101358171Y-68648821D02*
X101764838Y-68648821D01*
X101764838Y-68648821D02*
X101997219Y-68706917D01*
X101997219Y-68706917D02*
X102113409Y-68823107D01*
X102113409Y-68823107D02*
X102171504Y-68939298D01*
X100951504Y-69985012D02*
X102171504Y-69985012D01*
X102171504Y-69985012D02*
X102171504Y-70275488D01*
X102171504Y-70275488D02*
X102113409Y-70449774D01*
X102113409Y-70449774D02*
X101997219Y-70565964D01*
X101997219Y-70565964D02*
X101881028Y-70624059D01*
X101881028Y-70624059D02*
X101648647Y-70682155D01*
X101648647Y-70682155D02*
X101474361Y-70682155D01*
X101474361Y-70682155D02*
X101241980Y-70624059D01*
X101241980Y-70624059D02*
X101125790Y-70565964D01*
X101125790Y-70565964D02*
X101009600Y-70449774D01*
X101009600Y-70449774D02*
X100951504Y-70275488D01*
X100951504Y-70275488D02*
X100951504Y-69985012D01*
X102171504Y-71205012D02*
X101183885Y-71205012D01*
X101183885Y-71205012D02*
X101067695Y-71263107D01*
X101067695Y-71263107D02*
X101009600Y-71321202D01*
X101009600Y-71321202D02*
X100951504Y-71437393D01*
X100951504Y-71437393D02*
X100951504Y-71669774D01*
X100951504Y-71669774D02*
X101009600Y-71785964D01*
X101009600Y-71785964D02*
X101067695Y-71844059D01*
X101067695Y-71844059D02*
X101183885Y-71902155D01*
X101183885Y-71902155D02*
X102171504Y-71902155D01*
X100951504Y-73064059D02*
X100951504Y-72483107D01*
X100951504Y-72483107D02*
X102171504Y-72483107D01*
X101590552Y-73470726D02*
X101590552Y-73877392D01*
X100951504Y-74051678D02*
X100951504Y-73470726D01*
X100951504Y-73470726D02*
X102171504Y-73470726D01*
X102171504Y-73470726D02*
X102171504Y-74051678D01*
X101764838Y-75387869D02*
X100951504Y-75678345D01*
X100951504Y-75678345D02*
X101764838Y-75968822D01*
X100951504Y-77072631D02*
X100951504Y-76375488D01*
X100951504Y-76724060D02*
X102171504Y-76724060D01*
X102171504Y-76724060D02*
X101997219Y-76607869D01*
X101997219Y-76607869D02*
X101881028Y-76491679D01*
X101881028Y-76491679D02*
X101822933Y-76375488D01*
X101067695Y-77595489D02*
X101009600Y-77653584D01*
X101009600Y-77653584D02*
X100951504Y-77595489D01*
X100951504Y-77595489D02*
X101009600Y-77537393D01*
X101009600Y-77537393D02*
X101067695Y-77595489D01*
X101067695Y-77595489D02*
X100951504Y-77595489D01*
X101648647Y-78350726D02*
X101706742Y-78234536D01*
X101706742Y-78234536D02*
X101764838Y-78176441D01*
X101764838Y-78176441D02*
X101881028Y-78118345D01*
X101881028Y-78118345D02*
X101939123Y-78118345D01*
X101939123Y-78118345D02*
X102055314Y-78176441D01*
X102055314Y-78176441D02*
X102113409Y-78234536D01*
X102113409Y-78234536D02*
X102171504Y-78350726D01*
X102171504Y-78350726D02*
X102171504Y-78583107D01*
X102171504Y-78583107D02*
X102113409Y-78699298D01*
X102113409Y-78699298D02*
X102055314Y-78757393D01*
X102055314Y-78757393D02*
X101939123Y-78815488D01*
X101939123Y-78815488D02*
X101881028Y-78815488D01*
X101881028Y-78815488D02*
X101764838Y-78757393D01*
X101764838Y-78757393D02*
X101706742Y-78699298D01*
X101706742Y-78699298D02*
X101648647Y-78583107D01*
X101648647Y-78583107D02*
X101648647Y-78350726D01*
X101648647Y-78350726D02*
X101590552Y-78234536D01*
X101590552Y-78234536D02*
X101532457Y-78176441D01*
X101532457Y-78176441D02*
X101416266Y-78118345D01*
X101416266Y-78118345D02*
X101183885Y-78118345D01*
X101183885Y-78118345D02*
X101067695Y-78176441D01*
X101067695Y-78176441D02*
X101009600Y-78234536D01*
X101009600Y-78234536D02*
X100951504Y-78350726D01*
X100951504Y-78350726D02*
X100951504Y-78583107D01*
X100951504Y-78583107D02*
X101009600Y-78699298D01*
X101009600Y-78699298D02*
X101067695Y-78757393D01*
X101067695Y-78757393D02*
X101183885Y-78815488D01*
X101183885Y-78815488D02*
X101416266Y-78815488D01*
X101416266Y-78815488D02*
X101532457Y-78757393D01*
X101532457Y-78757393D02*
X101590552Y-78699298D01*
X101590552Y-78699298D02*
X101648647Y-78583107D01*
X111019773Y-147441419D02*
X111019773Y-148760942D01*
X111019773Y-148760942D02*
X111097392Y-148916180D01*
X111097392Y-148916180D02*
X111175011Y-148993800D01*
X111175011Y-148993800D02*
X111330249Y-149071419D01*
X111330249Y-149071419D02*
X111640725Y-149071419D01*
X111640725Y-149071419D02*
X111795963Y-148993800D01*
X111795963Y-148993800D02*
X111873582Y-148916180D01*
X111873582Y-148916180D02*
X111951201Y-148760942D01*
X111951201Y-148760942D02*
X111951201Y-147441419D01*
X112727392Y-149071419D02*
X112727392Y-147441419D01*
X112727392Y-147441419D02*
X113658820Y-149071419D01*
X113658820Y-149071419D02*
X113658820Y-147441419D01*
X114202154Y-147441419D02*
X115133582Y-147441419D01*
X114667868Y-149071419D02*
X114667868Y-147441419D01*
X115676916Y-149071419D02*
X115676916Y-147441419D01*
X116220249Y-147441419D02*
X117151677Y-147441419D01*
X116685963Y-149071419D02*
X116685963Y-147441419D01*
X118471201Y-149071419D02*
X117695011Y-149071419D01*
X117695011Y-149071419D02*
X117695011Y-147441419D01*
X119014535Y-148217609D02*
X119557868Y-148217609D01*
X119790725Y-149071419D02*
X119014535Y-149071419D01*
X119014535Y-149071419D02*
X119014535Y-147441419D01*
X119014535Y-147441419D02*
X119790725Y-147441419D01*
X120489297Y-149071419D02*
X120489297Y-147441419D01*
X120489297Y-147441419D02*
X120877392Y-147441419D01*
X120877392Y-147441419D02*
X121110249Y-147519038D01*
X121110249Y-147519038D02*
X121265487Y-147674276D01*
X121265487Y-147674276D02*
X121343106Y-147829514D01*
X121343106Y-147829514D02*
X121420725Y-148139990D01*
X121420725Y-148139990D02*
X121420725Y-148372847D01*
X121420725Y-148372847D02*
X121343106Y-148683323D01*
X121343106Y-148683323D02*
X121265487Y-148838561D01*
X121265487Y-148838561D02*
X121110249Y-148993800D01*
X121110249Y-148993800D02*
X120877392Y-149071419D01*
X120877392Y-149071419D02*
X120489297Y-149071419D01*
X123283583Y-148993800D02*
X123516440Y-149071419D01*
X123516440Y-149071419D02*
X123904535Y-149071419D01*
X123904535Y-149071419D02*
X124059773Y-148993800D01*
X124059773Y-148993800D02*
X124137392Y-148916180D01*
X124137392Y-148916180D02*
X124215011Y-148760942D01*
X124215011Y-148760942D02*
X124215011Y-148605704D01*
X124215011Y-148605704D02*
X124137392Y-148450466D01*
X124137392Y-148450466D02*
X124059773Y-148372847D01*
X124059773Y-148372847D02*
X123904535Y-148295228D01*
X123904535Y-148295228D02*
X123594059Y-148217609D01*
X123594059Y-148217609D02*
X123438821Y-148139990D01*
X123438821Y-148139990D02*
X123361202Y-148062371D01*
X123361202Y-148062371D02*
X123283583Y-147907133D01*
X123283583Y-147907133D02*
X123283583Y-147751895D01*
X123283583Y-147751895D02*
X123361202Y-147596657D01*
X123361202Y-147596657D02*
X123438821Y-147519038D01*
X123438821Y-147519038D02*
X123594059Y-147441419D01*
X123594059Y-147441419D02*
X123982154Y-147441419D01*
X123982154Y-147441419D02*
X124215011Y-147519038D01*
X124913583Y-149071419D02*
X124913583Y-147441419D01*
X124913583Y-147441419D02*
X125534535Y-147441419D01*
X125534535Y-147441419D02*
X125689773Y-147519038D01*
X125689773Y-147519038D02*
X125767392Y-147596657D01*
X125767392Y-147596657D02*
X125845011Y-147751895D01*
X125845011Y-147751895D02*
X125845011Y-147984752D01*
X125845011Y-147984752D02*
X125767392Y-148139990D01*
X125767392Y-148139990D02*
X125689773Y-148217609D01*
X125689773Y-148217609D02*
X125534535Y-148295228D01*
X125534535Y-148295228D02*
X124913583Y-148295228D01*
X126465964Y-148605704D02*
X127242154Y-148605704D01*
X126310726Y-149071419D02*
X126854059Y-147441419D01*
X126854059Y-147441419D02*
X127397392Y-149071419D01*
X128872154Y-148916180D02*
X128794535Y-148993800D01*
X128794535Y-148993800D02*
X128561678Y-149071419D01*
X128561678Y-149071419D02*
X128406440Y-149071419D01*
X128406440Y-149071419D02*
X128173583Y-148993800D01*
X128173583Y-148993800D02*
X128018345Y-148838561D01*
X128018345Y-148838561D02*
X127940726Y-148683323D01*
X127940726Y-148683323D02*
X127863107Y-148372847D01*
X127863107Y-148372847D02*
X127863107Y-148139990D01*
X127863107Y-148139990D02*
X127940726Y-147829514D01*
X127940726Y-147829514D02*
X128018345Y-147674276D01*
X128018345Y-147674276D02*
X128173583Y-147519038D01*
X128173583Y-147519038D02*
X128406440Y-147441419D01*
X128406440Y-147441419D02*
X128561678Y-147441419D01*
X128561678Y-147441419D02*
X128794535Y-147519038D01*
X128794535Y-147519038D02*
X128872154Y-147596657D01*
X129570726Y-148217609D02*
X130114059Y-148217609D01*
X130346916Y-149071419D02*
X129570726Y-149071419D01*
X129570726Y-149071419D02*
X129570726Y-147441419D01*
X129570726Y-147441419D02*
X130346916Y-147441419D01*
X133218821Y-148916180D02*
X133141202Y-148993800D01*
X133141202Y-148993800D02*
X132908345Y-149071419D01*
X132908345Y-149071419D02*
X132753107Y-149071419D01*
X132753107Y-149071419D02*
X132520250Y-148993800D01*
X132520250Y-148993800D02*
X132365012Y-148838561D01*
X132365012Y-148838561D02*
X132287393Y-148683323D01*
X132287393Y-148683323D02*
X132209774Y-148372847D01*
X132209774Y-148372847D02*
X132209774Y-148139990D01*
X132209774Y-148139990D02*
X132287393Y-147829514D01*
X132287393Y-147829514D02*
X132365012Y-147674276D01*
X132365012Y-147674276D02*
X132520250Y-147519038D01*
X132520250Y-147519038D02*
X132753107Y-147441419D01*
X132753107Y-147441419D02*
X132908345Y-147441419D01*
X132908345Y-147441419D02*
X133141202Y-147519038D01*
X133141202Y-147519038D02*
X133218821Y-147596657D01*
X134848821Y-149071419D02*
X134305488Y-148295228D01*
X133917393Y-149071419D02*
X133917393Y-147441419D01*
X133917393Y-147441419D02*
X134538345Y-147441419D01*
X134538345Y-147441419D02*
X134693583Y-147519038D01*
X134693583Y-147519038D02*
X134771202Y-147596657D01*
X134771202Y-147596657D02*
X134848821Y-147751895D01*
X134848821Y-147751895D02*
X134848821Y-147984752D01*
X134848821Y-147984752D02*
X134771202Y-148139990D01*
X134771202Y-148139990D02*
X134693583Y-148217609D01*
X134693583Y-148217609D02*
X134538345Y-148295228D01*
X134538345Y-148295228D02*
X133917393Y-148295228D01*
X135469774Y-148605704D02*
X136245964Y-148605704D01*
X135314536Y-149071419D02*
X135857869Y-147441419D01*
X135857869Y-147441419D02*
X136401202Y-149071419D01*
X137487869Y-148217609D02*
X136944536Y-148217609D01*
X136944536Y-149071419D02*
X136944536Y-147441419D01*
X136944536Y-147441419D02*
X137720726Y-147441419D01*
X138108822Y-147441419D02*
X139040250Y-147441419D01*
X138574536Y-149071419D02*
X138574536Y-147441419D01*
X175201101Y-148916180D02*
X175123482Y-148993800D01*
X175123482Y-148993800D02*
X174890625Y-149071419D01*
X174890625Y-149071419D02*
X174735387Y-149071419D01*
X174735387Y-149071419D02*
X174502530Y-148993800D01*
X174502530Y-148993800D02*
X174347292Y-148838561D01*
X174347292Y-148838561D02*
X174269673Y-148683323D01*
X174269673Y-148683323D02*
X174192054Y-148372847D01*
X174192054Y-148372847D02*
X174192054Y-148139990D01*
X174192054Y-148139990D02*
X174269673Y-147829514D01*
X174269673Y-147829514D02*
X174347292Y-147674276D01*
X174347292Y-147674276D02*
X174502530Y-147519038D01*
X174502530Y-147519038D02*
X174735387Y-147441419D01*
X174735387Y-147441419D02*
X174890625Y-147441419D01*
X174890625Y-147441419D02*
X175123482Y-147519038D01*
X175123482Y-147519038D02*
X175201101Y-147596657D01*
X176210149Y-147441419D02*
X176520625Y-147441419D01*
X176520625Y-147441419D02*
X176675863Y-147519038D01*
X176675863Y-147519038D02*
X176831101Y-147674276D01*
X176831101Y-147674276D02*
X176908720Y-147984752D01*
X176908720Y-147984752D02*
X176908720Y-148528085D01*
X176908720Y-148528085D02*
X176831101Y-148838561D01*
X176831101Y-148838561D02*
X176675863Y-148993800D01*
X176675863Y-148993800D02*
X176520625Y-149071419D01*
X176520625Y-149071419D02*
X176210149Y-149071419D01*
X176210149Y-149071419D02*
X176054911Y-148993800D01*
X176054911Y-148993800D02*
X175899673Y-148838561D01*
X175899673Y-148838561D02*
X175822054Y-148528085D01*
X175822054Y-148528085D02*
X175822054Y-147984752D01*
X175822054Y-147984752D02*
X175899673Y-147674276D01*
X175899673Y-147674276D02*
X176054911Y-147519038D01*
X176054911Y-147519038D02*
X176210149Y-147441419D01*
X177607292Y-149071419D02*
X177607292Y-147441419D01*
X177607292Y-147441419D02*
X177995387Y-147441419D01*
X177995387Y-147441419D02*
X178228244Y-147519038D01*
X178228244Y-147519038D02*
X178383482Y-147674276D01*
X178383482Y-147674276D02*
X178461101Y-147829514D01*
X178461101Y-147829514D02*
X178538720Y-148139990D01*
X178538720Y-148139990D02*
X178538720Y-148372847D01*
X178538720Y-148372847D02*
X178461101Y-148683323D01*
X178461101Y-148683323D02*
X178383482Y-148838561D01*
X178383482Y-148838561D02*
X178228244Y-148993800D01*
X178228244Y-148993800D02*
X177995387Y-149071419D01*
X177995387Y-149071419D02*
X177607292Y-149071419D01*
X179159673Y-148605704D02*
X179935863Y-148605704D01*
X179004435Y-149071419D02*
X179547768Y-147441419D01*
X179547768Y-147441419D02*
X180091101Y-149071419D01*
X180634435Y-149071419D02*
X180634435Y-147441419D01*
X180634435Y-147441419D02*
X181255387Y-147441419D01*
X181255387Y-147441419D02*
X181410625Y-147519038D01*
X181410625Y-147519038D02*
X181488244Y-147596657D01*
X181488244Y-147596657D02*
X181565863Y-147751895D01*
X181565863Y-147751895D02*
X181565863Y-147984752D01*
X181565863Y-147984752D02*
X181488244Y-148139990D01*
X181488244Y-148139990D02*
X181410625Y-148217609D01*
X181410625Y-148217609D02*
X181255387Y-148295228D01*
X181255387Y-148295228D02*
X180634435Y-148295228D01*
X182574911Y-147441419D02*
X182885387Y-147441419D01*
X182885387Y-147441419D02*
X183040625Y-147519038D01*
X183040625Y-147519038D02*
X183195863Y-147674276D01*
X183195863Y-147674276D02*
X183273482Y-147984752D01*
X183273482Y-147984752D02*
X183273482Y-148528085D01*
X183273482Y-148528085D02*
X183195863Y-148838561D01*
X183195863Y-148838561D02*
X183040625Y-148993800D01*
X183040625Y-148993800D02*
X182885387Y-149071419D01*
X182885387Y-149071419D02*
X182574911Y-149071419D01*
X182574911Y-149071419D02*
X182419673Y-148993800D01*
X182419673Y-148993800D02*
X182264435Y-148838561D01*
X182264435Y-148838561D02*
X182186816Y-148528085D01*
X182186816Y-148528085D02*
X182186816Y-147984752D01*
X182186816Y-147984752D02*
X182264435Y-147674276D01*
X182264435Y-147674276D02*
X182419673Y-147519038D01*
X182419673Y-147519038D02*
X182574911Y-147441419D01*
X183972054Y-149071419D02*
X183972054Y-147441419D01*
X183972054Y-147441419D02*
X184593006Y-147441419D01*
X184593006Y-147441419D02*
X184748244Y-147519038D01*
X184748244Y-147519038D02*
X184825863Y-147596657D01*
X184825863Y-147596657D02*
X184903482Y-147751895D01*
X184903482Y-147751895D02*
X184903482Y-147984752D01*
X184903482Y-147984752D02*
X184825863Y-148139990D01*
X184825863Y-148139990D02*
X184748244Y-148217609D01*
X184748244Y-148217609D02*
X184593006Y-148295228D01*
X184593006Y-148295228D02*
X183972054Y-148295228D01*
X185602054Y-149071419D02*
X185602054Y-147441419D01*
X186533482Y-149071419D02*
X185834911Y-148139990D01*
X186533482Y-147441419D02*
X185602054Y-148372847D01*
X187154435Y-148993800D02*
X187387292Y-149071419D01*
X187387292Y-149071419D02*
X187775387Y-149071419D01*
X187775387Y-149071419D02*
X187930625Y-148993800D01*
X187930625Y-148993800D02*
X188008244Y-148916180D01*
X188008244Y-148916180D02*
X188085863Y-148760942D01*
X188085863Y-148760942D02*
X188085863Y-148605704D01*
X188085863Y-148605704D02*
X188008244Y-148450466D01*
X188008244Y-148450466D02*
X187930625Y-148372847D01*
X187930625Y-148372847D02*
X187775387Y-148295228D01*
X187775387Y-148295228D02*
X187464911Y-148217609D01*
X187464911Y-148217609D02*
X187309673Y-148139990D01*
X187309673Y-148139990D02*
X187232054Y-148062371D01*
X187232054Y-148062371D02*
X187154435Y-147907133D01*
X187154435Y-147907133D02*
X187154435Y-147751895D01*
X187154435Y-147751895D02*
X187232054Y-147596657D01*
X187232054Y-147596657D02*
X187309673Y-147519038D01*
X187309673Y-147519038D02*
X187464911Y-147441419D01*
X187464911Y-147441419D02*
X187853006Y-147441419D01*
X187853006Y-147441419D02*
X188085863Y-147519038D01*
X188784435Y-149071419D02*
X188784435Y-147441419D01*
X188784435Y-147441419D02*
X189405387Y-147441419D01*
X189405387Y-147441419D02*
X189560625Y-147519038D01*
X189560625Y-147519038D02*
X189638244Y-147596657D01*
X189638244Y-147596657D02*
X189715863Y-147751895D01*
X189715863Y-147751895D02*
X189715863Y-147984752D01*
X189715863Y-147984752D02*
X189638244Y-148139990D01*
X189638244Y-148139990D02*
X189560625Y-148217609D01*
X189560625Y-148217609D02*
X189405387Y-148295228D01*
X189405387Y-148295228D02*
X188784435Y-148295228D01*
X186542380Y-117269673D02*
X188172380Y-117269673D01*
X188172380Y-117269673D02*
X188172380Y-117657768D01*
X188172380Y-117657768D02*
X188094761Y-117890625D01*
X188094761Y-117890625D02*
X187939523Y-118045863D01*
X187939523Y-118045863D02*
X187784285Y-118123482D01*
X187784285Y-118123482D02*
X187473809Y-118201101D01*
X187473809Y-118201101D02*
X187240952Y-118201101D01*
X187240952Y-118201101D02*
X186930476Y-118123482D01*
X186930476Y-118123482D02*
X186775238Y-118045863D01*
X186775238Y-118045863D02*
X186620000Y-117890625D01*
X186620000Y-117890625D02*
X186542380Y-117657768D01*
X186542380Y-117657768D02*
X186542380Y-117269673D01*
X187008095Y-118822054D02*
X187008095Y-119598244D01*
X186542380Y-118666816D02*
X188172380Y-119210149D01*
X188172380Y-119210149D02*
X186542380Y-119753482D01*
X188172380Y-120063959D02*
X188172380Y-120995387D01*
X186542380Y-120529673D02*
X188172380Y-120529673D01*
X187008095Y-121461102D02*
X187008095Y-122237292D01*
X186542380Y-121305864D02*
X188172380Y-121849197D01*
X188172380Y-121849197D02*
X186542380Y-122392530D01*
X187396190Y-124721102D02*
X187318571Y-124953959D01*
X187318571Y-124953959D02*
X187240952Y-125031578D01*
X187240952Y-125031578D02*
X187085714Y-125109197D01*
X187085714Y-125109197D02*
X186852857Y-125109197D01*
X186852857Y-125109197D02*
X186697619Y-125031578D01*
X186697619Y-125031578D02*
X186620000Y-124953959D01*
X186620000Y-124953959D02*
X186542380Y-124798721D01*
X186542380Y-124798721D02*
X186542380Y-124177769D01*
X186542380Y-124177769D02*
X188172380Y-124177769D01*
X188172380Y-124177769D02*
X188172380Y-124721102D01*
X188172380Y-124721102D02*
X188094761Y-124876340D01*
X188094761Y-124876340D02*
X188017142Y-124953959D01*
X188017142Y-124953959D02*
X187861904Y-125031578D01*
X187861904Y-125031578D02*
X187706666Y-125031578D01*
X187706666Y-125031578D02*
X187551428Y-124953959D01*
X187551428Y-124953959D02*
X187473809Y-124876340D01*
X187473809Y-124876340D02*
X187396190Y-124721102D01*
X187396190Y-124721102D02*
X187396190Y-124177769D01*
X188172380Y-125807769D02*
X186852857Y-125807769D01*
X186852857Y-125807769D02*
X186697619Y-125885388D01*
X186697619Y-125885388D02*
X186620000Y-125963007D01*
X186620000Y-125963007D02*
X186542380Y-126118245D01*
X186542380Y-126118245D02*
X186542380Y-126428721D01*
X186542380Y-126428721D02*
X186620000Y-126583959D01*
X186620000Y-126583959D02*
X186697619Y-126661578D01*
X186697619Y-126661578D02*
X186852857Y-126739197D01*
X186852857Y-126739197D02*
X188172380Y-126739197D01*
X186620000Y-127437769D02*
X186542380Y-127670626D01*
X186542380Y-127670626D02*
X186542380Y-128058721D01*
X186542380Y-128058721D02*
X186620000Y-128213959D01*
X186620000Y-128213959D02*
X186697619Y-128291578D01*
X186697619Y-128291578D02*
X186852857Y-128369197D01*
X186852857Y-128369197D02*
X187008095Y-128369197D01*
X187008095Y-128369197D02*
X187163333Y-128291578D01*
X187163333Y-128291578D02*
X187240952Y-128213959D01*
X187240952Y-128213959D02*
X187318571Y-128058721D01*
X187318571Y-128058721D02*
X187396190Y-127748245D01*
X187396190Y-127748245D02*
X187473809Y-127593007D01*
X187473809Y-127593007D02*
X187551428Y-127515388D01*
X187551428Y-127515388D02*
X187706666Y-127437769D01*
X187706666Y-127437769D02*
X187861904Y-127437769D01*
X187861904Y-127437769D02*
X188017142Y-127515388D01*
X188017142Y-127515388D02*
X188094761Y-127593007D01*
X188094761Y-127593007D02*
X188172380Y-127748245D01*
X188172380Y-127748245D02*
X188172380Y-128136340D01*
X188172380Y-128136340D02*
X188094761Y-128369197D01*
X186697619Y-131241102D02*
X186620000Y-131163483D01*
X186620000Y-131163483D02*
X186542380Y-130930626D01*
X186542380Y-130930626D02*
X186542380Y-130775388D01*
X186542380Y-130775388D02*
X186620000Y-130542531D01*
X186620000Y-130542531D02*
X186775238Y-130387293D01*
X186775238Y-130387293D02*
X186930476Y-130309674D01*
X186930476Y-130309674D02*
X187240952Y-130232055D01*
X187240952Y-130232055D02*
X187473809Y-130232055D01*
X187473809Y-130232055D02*
X187784285Y-130309674D01*
X187784285Y-130309674D02*
X187939523Y-130387293D01*
X187939523Y-130387293D02*
X188094761Y-130542531D01*
X188094761Y-130542531D02*
X188172380Y-130775388D01*
X188172380Y-130775388D02*
X188172380Y-130930626D01*
X188172380Y-130930626D02*
X188094761Y-131163483D01*
X188094761Y-131163483D02*
X188017142Y-131241102D01*
X188172380Y-132250150D02*
X188172380Y-132560626D01*
X188172380Y-132560626D02*
X188094761Y-132715864D01*
X188094761Y-132715864D02*
X187939523Y-132871102D01*
X187939523Y-132871102D02*
X187629047Y-132948721D01*
X187629047Y-132948721D02*
X187085714Y-132948721D01*
X187085714Y-132948721D02*
X186775238Y-132871102D01*
X186775238Y-132871102D02*
X186620000Y-132715864D01*
X186620000Y-132715864D02*
X186542380Y-132560626D01*
X186542380Y-132560626D02*
X186542380Y-132250150D01*
X186542380Y-132250150D02*
X186620000Y-132094912D01*
X186620000Y-132094912D02*
X186775238Y-131939674D01*
X186775238Y-131939674D02*
X187085714Y-131862055D01*
X187085714Y-131862055D02*
X187629047Y-131862055D01*
X187629047Y-131862055D02*
X187939523Y-131939674D01*
X187939523Y-131939674D02*
X188094761Y-132094912D01*
X188094761Y-132094912D02*
X188172380Y-132250150D01*
X186542380Y-133647293D02*
X188172380Y-133647293D01*
X188172380Y-133647293D02*
X186542380Y-134578721D01*
X186542380Y-134578721D02*
X188172380Y-134578721D01*
X186542380Y-135354912D02*
X188172380Y-135354912D01*
X188172380Y-135354912D02*
X186542380Y-136286340D01*
X186542380Y-136286340D02*
X188172380Y-136286340D01*
D15*
X175590491Y-105448532D02*
X175546948Y-105492075D01*
X175546948Y-105492075D02*
X175416320Y-105535617D01*
X175416320Y-105535617D02*
X175329234Y-105535617D01*
X175329234Y-105535617D02*
X175198605Y-105492075D01*
X175198605Y-105492075D02*
X175111520Y-105404989D01*
X175111520Y-105404989D02*
X175067977Y-105317903D01*
X175067977Y-105317903D02*
X175024434Y-105143732D01*
X175024434Y-105143732D02*
X175024434Y-105013103D01*
X175024434Y-105013103D02*
X175067977Y-104838932D01*
X175067977Y-104838932D02*
X175111520Y-104751846D01*
X175111520Y-104751846D02*
X175198605Y-104664760D01*
X175198605Y-104664760D02*
X175329234Y-104621217D01*
X175329234Y-104621217D02*
X175416320Y-104621217D01*
X175416320Y-104621217D02*
X175546948Y-104664760D01*
X175546948Y-104664760D02*
X175590491Y-104708303D01*
X175982377Y-105187275D02*
X176679063Y-105187275D01*
X177114491Y-105535617D02*
X177114491Y-104621217D01*
X177114491Y-104621217D02*
X177419291Y-105274360D01*
X177419291Y-105274360D02*
X177724091Y-104621217D01*
X177724091Y-104621217D02*
X177724091Y-105535617D01*
X178115977Y-105274360D02*
X178551406Y-105274360D01*
X178028891Y-105535617D02*
X178333691Y-104621217D01*
X178333691Y-104621217D02*
X178638491Y-105535617D01*
X178943291Y-105535617D02*
X178943291Y-104621217D01*
X179378720Y-105535617D02*
X179378720Y-104621217D01*
X179378720Y-104621217D02*
X179901234Y-105535617D01*
X179901234Y-105535617D02*
X179901234Y-104621217D01*
D16*
X148607201Y-112698696D02*
X148302401Y-112263268D01*
X148084687Y-112698696D02*
X148084687Y-111784296D01*
X148084687Y-111784296D02*
X148433030Y-111784296D01*
X148433030Y-111784296D02*
X148520115Y-111827839D01*
X148520115Y-111827839D02*
X148563658Y-111871382D01*
X148563658Y-111871382D02*
X148607201Y-111958468D01*
X148607201Y-111958468D02*
X148607201Y-112089096D01*
X148607201Y-112089096D02*
X148563658Y-112176182D01*
X148563658Y-112176182D02*
X148520115Y-112219725D01*
X148520115Y-112219725D02*
X148433030Y-112263268D01*
X148433030Y-112263268D02*
X148084687Y-112263268D01*
X149478058Y-112698696D02*
X148955544Y-112698696D01*
X149216801Y-112698696D02*
X149216801Y-111784296D01*
X149216801Y-111784296D02*
X149129715Y-111914925D01*
X149129715Y-111914925D02*
X149042630Y-112002011D01*
X149042630Y-112002011D02*
X148955544Y-112045554D01*
X150334687Y-112350354D02*
X151031373Y-112350354D01*
X152642458Y-112698696D02*
X152119944Y-112698696D01*
X152381201Y-112698696D02*
X152381201Y-111784296D01*
X152381201Y-111784296D02*
X152294115Y-111914925D01*
X152294115Y-111914925D02*
X152207030Y-112002011D01*
X152207030Y-112002011D02*
X152119944Y-112045554D01*
X153208515Y-111784296D02*
X153295601Y-111784296D01*
X153295601Y-111784296D02*
X153382687Y-111827839D01*
X153382687Y-111827839D02*
X153426230Y-111871382D01*
X153426230Y-111871382D02*
X153469772Y-111958468D01*
X153469772Y-111958468D02*
X153513315Y-112132639D01*
X153513315Y-112132639D02*
X153513315Y-112350354D01*
X153513315Y-112350354D02*
X153469772Y-112524525D01*
X153469772Y-112524525D02*
X153426230Y-112611611D01*
X153426230Y-112611611D02*
X153382687Y-112655154D01*
X153382687Y-112655154D02*
X153295601Y-112698696D01*
X153295601Y-112698696D02*
X153208515Y-112698696D01*
X153208515Y-112698696D02*
X153121430Y-112655154D01*
X153121430Y-112655154D02*
X153077887Y-112611611D01*
X153077887Y-112611611D02*
X153034344Y-112524525D01*
X153034344Y-112524525D02*
X152990801Y-112350354D01*
X152990801Y-112350354D02*
X152990801Y-112132639D01*
X152990801Y-112132639D02*
X153034344Y-111958468D01*
X153034344Y-111958468D02*
X153077887Y-111871382D01*
X153077887Y-111871382D02*
X153121430Y-111827839D01*
X153121430Y-111827839D02*
X153208515Y-111784296D01*
X153905201Y-112698696D02*
X153905201Y-111784296D01*
X154427715Y-112698696D02*
X154035829Y-112176182D01*
X154427715Y-111784296D02*
X153905201Y-112306811D01*
D15*
X122150777Y-123085717D02*
X122150777Y-123825946D01*
X122150777Y-123825946D02*
X122194320Y-123913032D01*
X122194320Y-123913032D02*
X122237863Y-123956575D01*
X122237863Y-123956575D02*
X122324948Y-124000117D01*
X122324948Y-124000117D02*
X122499120Y-124000117D01*
X122499120Y-124000117D02*
X122586205Y-123956575D01*
X122586205Y-123956575D02*
X122629748Y-123913032D01*
X122629748Y-123913032D02*
X122673291Y-123825946D01*
X122673291Y-123825946D02*
X122673291Y-123085717D01*
X123587691Y-124000117D02*
X123065177Y-124000117D01*
X123326434Y-124000117D02*
X123326434Y-123085717D01*
X123326434Y-123085717D02*
X123239348Y-123216346D01*
X123239348Y-123216346D02*
X123152263Y-123303432D01*
X123152263Y-123303432D02*
X123065177Y-123346975D01*
D16*
X160857201Y-89698696D02*
X160552401Y-89263268D01*
X160334687Y-89698696D02*
X160334687Y-88784296D01*
X160334687Y-88784296D02*
X160683030Y-88784296D01*
X160683030Y-88784296D02*
X160770115Y-88827839D01*
X160770115Y-88827839D02*
X160813658Y-88871382D01*
X160813658Y-88871382D02*
X160857201Y-88958468D01*
X160857201Y-88958468D02*
X160857201Y-89089096D01*
X160857201Y-89089096D02*
X160813658Y-89176182D01*
X160813658Y-89176182D02*
X160770115Y-89219725D01*
X160770115Y-89219725D02*
X160683030Y-89263268D01*
X160683030Y-89263268D02*
X160334687Y-89263268D01*
X161205544Y-88871382D02*
X161249087Y-88827839D01*
X161249087Y-88827839D02*
X161336173Y-88784296D01*
X161336173Y-88784296D02*
X161553887Y-88784296D01*
X161553887Y-88784296D02*
X161640973Y-88827839D01*
X161640973Y-88827839D02*
X161684515Y-88871382D01*
X161684515Y-88871382D02*
X161728058Y-88958468D01*
X161728058Y-88958468D02*
X161728058Y-89045554D01*
X161728058Y-89045554D02*
X161684515Y-89176182D01*
X161684515Y-89176182D02*
X161162001Y-89698696D01*
X161162001Y-89698696D02*
X161728058Y-89698696D01*
X162834687Y-89350354D02*
X163531373Y-89350354D01*
X165142458Y-89698696D02*
X164619944Y-89698696D01*
X164881201Y-89698696D02*
X164881201Y-88784296D01*
X164881201Y-88784296D02*
X164794115Y-88914925D01*
X164794115Y-88914925D02*
X164707030Y-89002011D01*
X164707030Y-89002011D02*
X164619944Y-89045554D01*
X165969772Y-88784296D02*
X165534344Y-88784296D01*
X165534344Y-88784296D02*
X165490801Y-89219725D01*
X165490801Y-89219725D02*
X165534344Y-89176182D01*
X165534344Y-89176182D02*
X165621430Y-89132639D01*
X165621430Y-89132639D02*
X165839144Y-89132639D01*
X165839144Y-89132639D02*
X165926230Y-89176182D01*
X165926230Y-89176182D02*
X165969772Y-89219725D01*
X165969772Y-89219725D02*
X166013315Y-89306811D01*
X166013315Y-89306811D02*
X166013315Y-89524525D01*
X166013315Y-89524525D02*
X165969772Y-89611611D01*
X165969772Y-89611611D02*
X165926230Y-89655154D01*
X165926230Y-89655154D02*
X165839144Y-89698696D01*
X165839144Y-89698696D02*
X165621430Y-89698696D01*
X165621430Y-89698696D02*
X165534344Y-89655154D01*
X165534344Y-89655154D02*
X165490801Y-89611611D01*
X166579372Y-88784296D02*
X166666458Y-88784296D01*
X166666458Y-88784296D02*
X166753544Y-88827839D01*
X166753544Y-88827839D02*
X166797087Y-88871382D01*
X166797087Y-88871382D02*
X166840629Y-88958468D01*
X166840629Y-88958468D02*
X166884172Y-89132639D01*
X166884172Y-89132639D02*
X166884172Y-89350354D01*
X166884172Y-89350354D02*
X166840629Y-89524525D01*
X166840629Y-89524525D02*
X166797087Y-89611611D01*
X166797087Y-89611611D02*
X166753544Y-89655154D01*
X166753544Y-89655154D02*
X166666458Y-89698696D01*
X166666458Y-89698696D02*
X166579372Y-89698696D01*
X166579372Y-89698696D02*
X166492287Y-89655154D01*
X166492287Y-89655154D02*
X166448744Y-89611611D01*
X166448744Y-89611611D02*
X166405201Y-89524525D01*
X166405201Y-89524525D02*
X166361658Y-89350354D01*
X166361658Y-89350354D02*
X166361658Y-89132639D01*
X166361658Y-89132639D02*
X166405201Y-88958468D01*
X166405201Y-88958468D02*
X166448744Y-88871382D01*
X166448744Y-88871382D02*
X166492287Y-88827839D01*
X166492287Y-88827839D02*
X166579372Y-88784296D01*
X129607201Y-125861611D02*
X129563658Y-125905154D01*
X129563658Y-125905154D02*
X129433030Y-125948696D01*
X129433030Y-125948696D02*
X129345944Y-125948696D01*
X129345944Y-125948696D02*
X129215315Y-125905154D01*
X129215315Y-125905154D02*
X129128230Y-125818068D01*
X129128230Y-125818068D02*
X129084687Y-125730982D01*
X129084687Y-125730982D02*
X129041144Y-125556811D01*
X129041144Y-125556811D02*
X129041144Y-125426182D01*
X129041144Y-125426182D02*
X129084687Y-125252011D01*
X129084687Y-125252011D02*
X129128230Y-125164925D01*
X129128230Y-125164925D02*
X129215315Y-125077839D01*
X129215315Y-125077839D02*
X129345944Y-125034296D01*
X129345944Y-125034296D02*
X129433030Y-125034296D01*
X129433030Y-125034296D02*
X129563658Y-125077839D01*
X129563658Y-125077839D02*
X129607201Y-125121382D01*
X130478058Y-125948696D02*
X129955544Y-125948696D01*
X130216801Y-125948696D02*
X130216801Y-125034296D01*
X130216801Y-125034296D02*
X130129715Y-125164925D01*
X130129715Y-125164925D02*
X130042630Y-125252011D01*
X130042630Y-125252011D02*
X129955544Y-125295554D01*
%TO.C,C-MAIN*%
D10*
X175721800Y-107975900D02*
X176737800Y-107975900D01*
X176229800Y-107467900D02*
X176229800Y-108483900D01*
X180649500Y-109500000D02*
G75*
G02*
X174350300Y-109500000I-3149600J0D01*
G01*
X174350300Y-109500000D02*
G75*
G02*
X180649500Y-109500000I3149600J0D01*
G01*
%TO.C,R1*%
X144500000Y-110960500D02*
X144500000Y-111212000D01*
X144500000Y-111212000D02*
X144500000Y-113462400D01*
X144500000Y-113462400D02*
X157499700Y-113462400D01*
X157499700Y-110960500D02*
X144500000Y-110960500D01*
X157499700Y-113462400D02*
X157499700Y-110960500D01*
%TO.C,U1*%
X118132600Y-127578100D02*
X118132600Y-121351100D01*
X120863800Y-127386400D02*
X119721400Y-127386400D01*
X120865800Y-121544400D02*
X119719400Y-121544400D01*
X123403800Y-127386400D02*
X122261400Y-127386400D01*
X123405800Y-121544400D02*
X122259400Y-121544400D01*
X125943800Y-127386400D02*
X124801400Y-127386400D01*
X125945800Y-121544400D02*
X124799400Y-121544400D01*
X127532600Y-123449400D02*
X127532600Y-121351100D01*
X127532600Y-125481400D02*
X127532600Y-127578100D01*
X127532600Y-125481400D02*
G75*
G02*
X127532600Y-123449400I0J1016000D01*
G01*
%TO.C,R2*%
X157000000Y-87960500D02*
X157000000Y-88212000D01*
X157000000Y-88212000D02*
X157000000Y-90462400D01*
X157000000Y-90462400D02*
X169999700Y-90462400D01*
X169999700Y-87960500D02*
X157000000Y-87960500D01*
X169999700Y-90462400D02*
X169999700Y-87960500D01*
%TO.C,C1*%
X128532600Y-121676100D02*
X128532600Y-121925100D01*
X128532600Y-121925100D02*
X128532600Y-129174200D01*
X128532600Y-129174200D02*
X131031900Y-129174200D01*
X131031900Y-121676100D02*
X128532600Y-121676100D01*
X131031900Y-129174200D02*
X131031900Y-121676100D01*
%TD*%
M02*
