M48
; DRILL file KiCad 10.0.6 date 2026-09-23T14:01:36
; FORMAT={-:-/ absolute / metric / decimal}
; #@! TF.CreationDate,2026-09-23T14:01:36+08:00
; #@! TF.GenerationSoftware,Kicad,Pcbnew,10.0.6
; #@! TF.FileFunction,Plated,1,2,PTH
FMAT,2
METRIC
; #@! TA.AperFunction,Plated,PTH,ViaDrill
T1C0.305
; #@! TA.AperFunction,Plated,PTH,ComponentDrill
T2C0.670
; #@! TA.AperFunction,Plated,PTH,ComponentDrill
T3C0.889
; #@! TA.AperFunction,Plated,PTH,ComponentDrill
T4C0.914
; #@! TA.AperFunction,Plated,PTH,ComponentDrill
T5C1.100
%
G90
G05
T1
X100.5Y-95.002
X100.5Y-105.0
X128.31Y-135.0
X199.5Y-95.002
X199.5Y-105.0
T2
X181.614Y-120.278
X181.614Y-122.278
X181.614Y-124.278
X181.614Y-126.278
X181.614Y-128.278
X181.614Y-130.278
X181.614Y-132.278
X181.614Y-134.278
X183.614Y-120.278
X183.614Y-122.278
X183.614Y-124.278
X183.614Y-126.278
X183.614Y-128.278
X183.614Y-130.278
X183.614Y-132.278
X183.614Y-134.278
T3
X138.0Y-85.0
X138.0Y-92.0
X146.0Y-117.5
X154.0Y-117.5
X174.0Y-89.0
X177.0Y-89.0
T4
X129.826Y-122.963
X129.826Y-127.963
X145.911Y-112.174
X156.071Y-112.174
X158.411Y-89.174
X168.571Y-89.174
X176.23Y-109.5
X178.77Y-109.5
T5
X119.022Y-120.655
X119.022Y-128.275
X121.562Y-120.655
X121.562Y-128.275
X124.102Y-120.655
X124.102Y-128.275
X126.642Y-120.655
X126.642Y-128.275
M30
