M48
; DRILL file KiCad 10.0.6 date 2026-09-22T18:34:03
; FORMAT={-:-/ absolute / metric / decimal}
; #@! TF.CreationDate,2026-09-22T18:34:03+08:00
; #@! TF.GenerationSoftware,Kicad,Pcbnew,10.0.6
; #@! TF.FileFunction,Plated,1,2,PTH
FMAT,2
METRIC
; #@! TA.AperFunction,Plated,PTH,ViaDrill
T1C0.305
; #@! TA.AperFunction,Plated,PTH,ComponentDrill
T2C0.670
; #@! TA.AperFunction,Plated,PTH,ComponentDrill
T3C0.914
; #@! TA.AperFunction,Plated,PTH,ComponentDrill
T4C1.000
; #@! TA.AperFunction,Plated,PTH,ComponentDrill
T5C1.100
%
G90
G05
T1
X100.503Y-95.005
X100.503Y-105.002
X127.0Y-66.75
X149.25Y-91.0
X152.25Y-97.25
X164.5Y-68.5
X167.25Y-102.25
X168.75Y-105.0
X173.0Y-90.0
X192.0Y-92.25
X199.5Y-95.001
X199.5Y-104.999
T2
X162.75Y-60.5
X162.75Y-62.5
X164.75Y-60.5
X164.75Y-62.5
X166.75Y-60.5
X166.75Y-62.5
X168.75Y-60.5
X168.75Y-62.5
X170.75Y-62.5
X170.75Y-60.5
X172.75Y-62.5
X172.75Y-60.5
X174.75Y-62.5
X174.75Y-60.5
X176.75Y-60.5
X176.75Y-62.5
T3
X107.0Y-119.0
X107.0Y-123.0
X109.174Y-98.429
X109.174Y-108.589
X111.035Y-60.158
X113.929Y-108.576
X115.5Y-98.0
X117.106Y-64.732
X121.107Y-64.732
X121.195Y-60.158
X123.5Y-98.0
X124.089Y-108.576
X132.0Y-117.0
X132.0Y-125.0
X132.256Y-57.751
X132.256Y-62.751
X135.424Y-76.429
X135.424Y-86.589
X145.179Y-72.076
X153.5Y-62.23
X153.5Y-64.77
X155.339Y-72.076
X159.75Y-77.5
X159.75Y-85.5
X166.0Y-107.5
X166.0Y-115.5
X166.0Y-125.5
X169.826Y-111.161
X169.826Y-121.321
X169.826Y-126.161
X169.826Y-136.321
X173.5Y-107.5
X173.5Y-115.5
X173.5Y-125.5
X173.5Y-133.5
X175.993Y-94.249
X175.993Y-99.249
X177.929Y-71.826
X188.089Y-71.826
X191.243Y-95.249
X191.243Y-100.249
X192.326Y-106.661
X192.326Y-116.821
X192.326Y-125.411
X192.326Y-135.571
X192.5Y-77.5
X192.5Y-85.5
T4
X154.61Y-93.19
X154.61Y-100.81
X157.15Y-93.19
X157.15Y-100.81
X159.69Y-93.19
X159.69Y-100.81
X162.23Y-93.19
X162.23Y-100.81
X164.77Y-93.19
X164.77Y-100.81
X167.31Y-93.19
X167.31Y-100.81
X169.85Y-93.19
X169.85Y-100.81
X172.39Y-93.19
X172.39Y-100.81
T5
X135.19Y-58.69
X135.19Y-66.31
X137.73Y-58.69
X137.73Y-66.31
X140.27Y-58.69
X140.27Y-66.31
X142.81Y-58.69
X142.81Y-66.31
X179.94Y-93.19
X179.94Y-100.81
X182.48Y-93.19
X182.48Y-100.81
X185.02Y-93.19
X185.02Y-100.81
X187.56Y-93.19
X187.56Y-100.81
M30
