%TF.GenerationSoftware,KiCad,Pcbnew,10.0.6*%
%TF.CreationDate,2026-09-23T18:13:00+08:00*%
%TF.ProjectId,Time_Module,54696d65-5f4d-46f6-9475-6c652e6b6963,1.7*%
%TF.SameCoordinates,Original*%
%TF.FileFunction,Profile,NP*%
%FSLAX46Y46*%
G04 Gerber Fmt 4.6, Leading zero omitted, Abs format (unit mm)*
G04 Created by KiCad (PCBNEW 10.0.6) date 2026-09-23 18:13:00*
%MOMM*%
%LPD*%
G01*
G04 APERTURE LIST*
%TA.AperFunction,Profile*%
%ADD10C,0.254000*%
%TD*%
G04 APERTURE END LIST*
D10*
X100000000Y-60049700D02*
X110000000Y-50049700D01*
X100000000Y-98448133D02*
X100000000Y-60049700D01*
X100000000Y-98448133D02*
X100025400Y-98899800D01*
X100000000Y-140049700D02*
X100000000Y-101497700D01*
X100000000Y-140049700D02*
X105000000Y-145049700D01*
X100005100Y-101482200D02*
X100005400Y-101125400D01*
X100005400Y-101125400D02*
X100170000Y-101261200D01*
X100105400Y-98809800D02*
X100025400Y-98899800D01*
X100170000Y-101261200D02*
X100340600Y-101359600D01*
X100246500Y-98700200D02*
X100105400Y-98809800D01*
X100340600Y-101359600D02*
X100675700Y-101474000D01*
X100543500Y-98570000D02*
X100246500Y-98700200D01*
X100675700Y-101474000D02*
X101099900Y-101512000D01*
X100848600Y-98503300D02*
X100543500Y-98570000D01*
X101099900Y-101512000D02*
X101561200Y-101404800D01*
X101204000Y-98504400D02*
X100848600Y-98503300D01*
X101502600Y-98591000D02*
X101204000Y-98504400D01*
X101519000Y-98591000D02*
X101502600Y-98591000D01*
X101561200Y-101404800D02*
X101973700Y-101161400D01*
X101709200Y-98686900D02*
X101519000Y-98591000D01*
X101973700Y-101161400D02*
X102144100Y-100984500D01*
X101991600Y-98862200D02*
X101709200Y-98686900D01*
X102131800Y-99022800D02*
X101991600Y-98862200D01*
X102144100Y-100984500D02*
X102295600Y-100776900D01*
X102198200Y-99099000D02*
X102131800Y-99022800D01*
X102242900Y-99173400D02*
X102198200Y-99099000D01*
X102259300Y-99176700D02*
X102242900Y-99173400D01*
X102295600Y-100776900D02*
X102380800Y-100623000D01*
X102347000Y-99345600D02*
X102259300Y-99176700D01*
X102369200Y-100648500D02*
X102459500Y-100394500D01*
X102380800Y-100623000D02*
X102412100Y-100521500D01*
X102419900Y-99530800D02*
X102347000Y-99345600D01*
X102459500Y-100394500D02*
X102499600Y-100140500D01*
X102484200Y-99759500D02*
X102433400Y-99558700D01*
X102488900Y-99751200D02*
X102419900Y-99530800D01*
X102499600Y-99948100D02*
X102484200Y-99759500D01*
X102499600Y-100140500D02*
X102499600Y-99948100D01*
X102506500Y-100052200D02*
X102488900Y-99751200D01*
X105000000Y-145049700D02*
X109999900Y-150049500D01*
X110000000Y-50049700D02*
X189999800Y-50049700D01*
X112999800Y-70251000D02*
X112999800Y-84249900D01*
X112999800Y-84249900D02*
X125999800Y-84249900D01*
X129500100Y-121000100D02*
G75*
G02*
X109500100Y-121000100I-10000000J0D01*
G01*
X109500100Y-121000100D02*
G75*
G02*
X129500100Y-121000100I10000000J0D01*
G01*
X125999800Y-70250000D02*
X112999800Y-70251000D01*
X125999800Y-84249900D02*
X125999800Y-70250000D01*
X137749800Y-137000000D02*
X137749800Y-105000000D01*
X143749800Y-70251000D02*
X143749800Y-84249900D01*
X143749800Y-84249900D02*
X156749900Y-84249900D01*
X156749900Y-70250000D02*
X143749800Y-70251000D01*
X156749900Y-84249900D02*
X156749900Y-70250000D01*
X162749900Y-105000000D02*
X137749800Y-105000000D01*
X162749900Y-137000000D02*
X137749800Y-137000000D01*
X162749900Y-137000000D02*
X162749900Y-105000000D01*
X176499800Y-70251000D02*
X176499800Y-84249900D01*
X176499800Y-84249900D02*
X189499900Y-84249900D01*
X176499800Y-104751000D02*
X176499800Y-118749900D01*
X176499800Y-118749900D02*
X189499800Y-118749900D01*
X176499800Y-123501000D02*
X176499800Y-137499900D01*
X176499800Y-137499900D02*
X189499800Y-137499900D01*
X189499800Y-104750000D02*
X176499800Y-104751000D01*
X189499800Y-118749900D02*
X189499800Y-104750000D01*
X189499800Y-123500000D02*
X176499800Y-123501000D01*
X189499800Y-137499900D02*
X189499800Y-123500000D01*
X189499900Y-70250000D02*
X176499800Y-70251000D01*
X189499900Y-84249900D02*
X189499900Y-70250000D01*
X189999800Y-150049500D02*
X109999900Y-150049500D01*
X195001100Y-145050800D02*
X189999800Y-150049500D01*
X197501700Y-99964500D02*
X197519500Y-100265400D01*
X197508800Y-99876200D02*
X197508800Y-100068500D01*
X197508800Y-100068500D02*
X197524200Y-100257200D01*
X197519500Y-100265400D02*
X197588400Y-100485800D01*
X197524200Y-100257200D02*
X197575000Y-100458000D01*
X197549000Y-99622200D02*
X197508800Y-99876200D01*
X197588400Y-100485800D02*
X197661500Y-100671000D01*
X197611195Y-99446868D02*
X197549000Y-99622200D01*
X197611195Y-99446868D02*
X197596400Y-99495200D01*
X197661500Y-100671000D02*
X197749000Y-100839900D01*
X197712800Y-99239800D02*
X197627500Y-99393600D01*
X197749000Y-100839900D02*
X197765500Y-100843200D01*
X197765500Y-100843200D02*
X197810300Y-100917600D01*
X197810300Y-100917600D02*
X197876600Y-100993800D01*
X197864200Y-99032100D02*
X197712800Y-99239800D01*
X197876600Y-100993800D02*
X198016800Y-101154400D01*
X198016800Y-101154400D02*
X198299200Y-101329700D01*
X198034700Y-98855200D02*
X197864200Y-99032100D01*
X198299200Y-101329700D02*
X198489300Y-101425600D01*
X198447100Y-98611800D02*
X198034700Y-98855200D01*
X198489300Y-101425600D02*
X198505800Y-101425600D01*
X198505800Y-101425600D02*
X198804500Y-101512200D01*
X198804500Y-101512200D02*
X199159800Y-101513400D01*
X198908500Y-98504600D02*
X198447100Y-98611800D01*
X199159800Y-101513400D02*
X199464700Y-101446600D01*
X199332700Y-98542700D02*
X198908500Y-98504600D01*
X199464700Y-101446600D02*
X199761800Y-101316400D01*
X199667800Y-98657000D02*
X199332700Y-98542700D01*
X199761800Y-101316400D02*
X199903100Y-101206700D01*
X199838300Y-98755500D02*
X199667800Y-98657000D01*
X199903100Y-101206700D02*
X199986200Y-101121300D01*
X199995000Y-98712800D02*
X199996500Y-98891300D01*
X199996500Y-98891300D02*
X199838300Y-98755500D01*
X199999800Y-60049700D02*
X189999800Y-50049700D01*
X199999800Y-60049700D02*
X199999800Y-98534400D01*
X199999800Y-98534400D02*
X199995000Y-98712800D01*
X199999800Y-101599900D02*
X199996200Y-101118200D01*
X199999800Y-101599900D02*
X199999800Y-140049500D01*
X199999800Y-140049500D02*
X195001100Y-145050800D01*
M02*
