%TF.GenerationSoftware,KiCad,Pcbnew,10.0.6*%
%TF.CreationDate,2026-09-23T18:12:59+08:00*%
%TF.ProjectId,Time_Module,54696d65-5f4d-46f6-9475-6c652e6b6963,1.7*%
%TF.SameCoordinates,Original*%
%TF.FileFunction,Copper,L2,Bot*%
%TF.FilePolarity,Positive*%
%FSLAX46Y46*%
G04 Gerber Fmt 4.6, Leading zero omitted, Abs format (unit mm)*
G04 Created by KiCad (PCBNEW 10.0.6) date 2026-09-23 18:12:59*
%MOMM*%
%LPD*%
G01*
G04 APERTURE LIST*
%TA.AperFunction,ComponentPad*%
%ADD10R,1.524000X1.524000*%
%TD*%
%TA.AperFunction,ComponentPad*%
%ADD11R,1.000000X1.000000*%
%TD*%
%TA.AperFunction,ComponentPad*%
%ADD12R,1.800000X1.800000*%
%TD*%
%TA.AperFunction,ComponentPad*%
%ADD13R,0.999900X1.000000*%
%TD*%
%TA.AperFunction,ComponentPad*%
%ADD14R,1.600000X1.600000*%
%TD*%
%TA.AperFunction,ComponentPad*%
%ADD15R,1.300100X1.300000*%
%TD*%
%TA.AperFunction,ComponentPad*%
%ADD16R,1.300000X1.300000*%
%TD*%
%TA.AperFunction,ViaPad*%
%ADD17C,0.609600*%
%TD*%
%TA.AperFunction,Conductor*%
%ADD18C,0.254000*%
%TD*%
%TA.AperFunction,Conductor*%
%ADD19C,0.762000*%
%TD*%
G04 APERTURE END LIST*
D10*
%TO.P,R9,1*%
%TO.N,TLIGHT*%
X114174000Y-103588900D03*
%TO.P,R9,2*%
%TO.N,LIGHT1*%
X114174000Y-93428900D03*
%TD*%
%TO.P,TP_+5V,*%
%TO.N,+5V*%
X131999900Y-124999900D03*
%TD*%
%TO.P,R7,1*%
%TO.N,T7*%
X145161200Y-67174000D03*
%TO.P,R7,2*%
%TO.N,GND*%
X155321200Y-67174000D03*
%TD*%
D11*
%TO.P,WP16,1*%
%TO.N,N/C*%
X141499800Y-59000000D03*
%TD*%
%TO.P,WP10,1*%
%TO.N,N/C*%
X129500100Y-59000000D03*
%TD*%
D12*
%TO.P,U1,1*%
%TO.N,RESET*%
X150010100Y-91590000D03*
%TO.P,U1,2*%
%TO.N,DATA(P)*%
X147470100Y-91590000D03*
%TO.P,U1,3*%
%TO.N,LATCH(G)*%
X144930100Y-91590000D03*
%TO.P,U1,4*%
%TO.N,GND*%
X142390100Y-91590000D03*
%TO.P,U1,5*%
%TO.N,SDA*%
X142390100Y-99210000D03*
%TO.P,U1,6*%
%TO.N,CLOCK(Y)*%
X144930100Y-99210000D03*
%TO.P,U1,7*%
%TO.N,SCL*%
X147470100Y-99210000D03*
%TO.P,U1,8*%
%TO.N,+5V*%
X150010100Y-99210000D03*
%TD*%
D11*
%TO.P,WP15,1*%
%TO.N,N/C*%
X139500000Y-59000000D03*
%TD*%
D10*
%TO.P,TP_T3,*%
%TO.N,T3*%
X166000100Y-125500000D03*
%TD*%
%TO.P,TP_+5V,*%
%TO.N,+5V*%
X173500000Y-73500100D03*
%TD*%
D13*
%TO.P,WP4,1*%
%TO.N,N/C*%
X135500100Y-61000000D03*
%TD*%
D11*
%TO.P,WP11,1*%
%TO.N,N/C*%
X131499800Y-59000000D03*
%TD*%
D10*
%TO.P,TP_+5V,*%
%TO.N,+5V*%
X140500000Y-73500100D03*
%TD*%
D14*
%TO.P,U2,1*%
%TO.N,LATCH(G)*%
X176390000Y-91440100D03*
%TO.P,U2,2*%
%TO.N,CLOCK(Y)*%
X173850000Y-91440100D03*
%TO.P,U2,3*%
%TO.N,T5*%
X171310000Y-91440100D03*
%TO.P,U2,4*%
%TO.N,T6*%
X168770000Y-91440100D03*
%TO.P,U2,5*%
%TO.N,T7*%
X166230000Y-91440100D03*
%TO.P,U2,6*%
%TO.N,T8*%
X163690000Y-91440100D03*
%TO.P,U2,7*%
%TO.N,N/C*%
X161150000Y-91440100D03*
%TO.P,U2,8*%
%TO.N,GND*%
X158610000Y-91440100D03*
%TO.P,U2,9*%
%TO.N,DATA(P)*%
X158610000Y-99060100D03*
%TO.P,U2,10*%
%TO.N,N/C*%
X161150000Y-99060100D03*
%TO.P,U2,11*%
%TO.N,T1*%
X163690000Y-99060100D03*
%TO.P,U2,12*%
%TO.N,T2*%
X166230000Y-99060100D03*
%TO.P,U2,13*%
%TO.N,T3*%
X168770000Y-99060100D03*
%TO.P,U2,14*%
%TO.N,T4*%
X171310000Y-99060100D03*
%TO.P,U2,15*%
%TO.N,GND*%
X173850000Y-99060100D03*
%TO.P,U2,16*%
%TO.N,+5V*%
X176390000Y-99060100D03*
%TD*%
D10*
%TO.P,TP_+5V,*%
%TO.N,+5V*%
X165999900Y-115500000D03*
%TD*%
%TO.P,R5,1*%
%TO.N,T5*%
X124088800Y-108576200D03*
%TO.P,R5,2*%
%TO.N,GND*%
X113928800Y-108576200D03*
%TD*%
%TO.P,TP_+5V,*%
%TO.N,+5V*%
X173500000Y-115500000D03*
%TD*%
%TO.P,TP_+5V,*%
%TO.N,+5V*%
X110000000Y-73500100D03*
%TD*%
%TO.P,R2,1*%
%TO.N,T2*%
X192326200Y-106661300D03*
%TO.P,R2,2*%
%TO.N,GND*%
X192326200Y-116821300D03*
%TD*%
%TO.P,TP_+5V,*%
%TO.N,+5V*%
X173500000Y-133500000D03*
%TD*%
D11*
%TO.P,WP6,1*%
%TO.N,N/C*%
X131499800Y-61000000D03*
%TD*%
D12*
%TO.P,U3,1*%
%TO.N,RESET*%
X122190200Y-101809900D03*
%TO.P,U3,2*%
%TO.N,LIGHT1*%
X124730200Y-101809900D03*
%TO.P,U3,3*%
%TO.N,N/C*%
X127270200Y-101809900D03*
%TO.P,U3,4*%
%TO.N,GND*%
X129810200Y-101809900D03*
%TO.P,U3,5*%
%TO.N,SDA*%
X129810200Y-94189900D03*
%TO.P,U3,6*%
%TO.N,N/C*%
X127270200Y-94189900D03*
%TO.P,U3,7*%
%TO.N,SCL*%
X124730200Y-94189900D03*
%TO.P,U3,8*%
%TO.N,+5V*%
X122190200Y-94189900D03*
%TD*%
D15*
%TO.P,WP2,1*%
%TO.N,SCL*%
X139500000Y-61000000D03*
%TD*%
D16*
%TO.P,WP1,1*%
%TO.N,SDA*%
X141499700Y-61000000D03*
%TD*%
D10*
%TO.P,TP_T4,*%
%TO.N,T4*%
X165999900Y-107500000D03*
%TD*%
D11*
%TO.P,WP9,1*%
%TO.N,N/C*%
X127500100Y-59000000D03*
%TD*%
D10*
%TO.P,R6,1*%
%TO.N,T6*%
X177911200Y-67174000D03*
%TO.P,R6,2*%
%TO.N,GND*%
X188071200Y-67174000D03*
%TD*%
%TO.P,C3,1*%
%TO.N,GND*%
X119256300Y-98250600D03*
%TO.P,C3,2*%
%TO.N,+5V*%
X119256300Y-93250600D03*
%TD*%
%TO.P,R3,1*%
%TO.N,T3*%
X169826100Y-126161100D03*
%TO.P,R3,2*%
%TO.N,GND*%
X169826100Y-136321100D03*
%TD*%
%TO.P,TP_T5,*%
%TO.N,T5*%
X131999900Y-116999900D03*
%TD*%
%TO.P,C2,1*%
%TO.N,GND*%
X180043300Y-92787800D03*
%TO.P,C2,2*%
%TO.N,+5V*%
X180043300Y-97787800D03*
%TD*%
%TO.P,C1,1*%
%TO.N,GND*%
X153543700Y-92949400D03*
%TO.P,C1,2*%
%TO.N,+5V*%
X153543700Y-97949300D03*
%TD*%
%TO.P,TP_GND,*%
%TO.N,GND*%
X107000000Y-123000100D03*
%TD*%
%TO.P,TP_TLIGHT,*%
%TO.N,TLIGHT*%
X107000000Y-119000100D03*
%TD*%
%TO.P,TP_T6,*%
%TO.N,T6*%
X173500000Y-81500100D03*
%TD*%
D16*
%TO.P,WP8,1*%
%TO.N,GND*%
X127500000Y-61000000D03*
%TD*%
D11*
%TO.P,WP5,1*%
%TO.N,N/C*%
X133500000Y-61000000D03*
%TD*%
%TO.P,WP12,1*%
%TO.N,N/C*%
X133500100Y-59000000D03*
%TD*%
D10*
%TO.P,TP_T1,*%
%TO.N,T1*%
X173500000Y-125500000D03*
%TD*%
D11*
%TO.P,WP14,1*%
%TO.N,N/C*%
X137500000Y-59000000D03*
%TD*%
D10*
%TO.P,R4,1*%
%TO.N,T4*%
X169826100Y-111161200D03*
%TO.P,R4,2*%
%TO.N,GND*%
X169826100Y-121321200D03*
%TD*%
D11*
%TO.P,WP13,1*%
%TO.N,N/C*%
X135500000Y-59000000D03*
%TD*%
D10*
%TO.P,TP_T8,*%
%TO.N,T8*%
X110000000Y-81500100D03*
%TD*%
D16*
%TO.P,WP7,1*%
%TO.N,+5V*%
X129500000Y-61000000D03*
%TD*%
D10*
%TO.P,TP_T7,*%
%TO.N,T7*%
X140500000Y-81500100D03*
%TD*%
%TO.P,R1,1*%
%TO.N,T1*%
X192326200Y-125411300D03*
%TO.P,R1,2*%
%TO.N,GND*%
X192326200Y-135571300D03*
%TD*%
%TO.P,C-MAIN,1*%
%TO.N,+5V*%
X115500100Y-61519900D03*
%TO.P,C-MAIN,2*%
%TO.N,GND*%
X115500100Y-58979900D03*
%TD*%
D15*
%TO.P,WP3,1*%
%TO.N,RESET*%
X137500100Y-61000000D03*
%TD*%
D10*
%TO.P,TP_T2,*%
%TO.N,T2*%
X173500000Y-107500000D03*
%TD*%
%TO.P,R8,1*%
%TO.N,T8*%
X114411200Y-67174000D03*
%TO.P,R8,2*%
%TO.N,GND*%
X124571200Y-67174000D03*
%TD*%
D17*
%TO.N,RESET*%
X128500100Y-97500000D03*
X133999900Y-91999900D03*
%TO.N,SDA*%
X135999900Y-87999900D03*
%TO.N,T8*%
X140500000Y-86999900D03*
%TO.N,GUARD2*%
X199499900Y-104999900D03*
X199499900Y-95002500D03*
%TO.N,GUARD*%
X100500100Y-104999900D03*
X100500100Y-95002500D03*
%TD*%
%TO.N,LIGHT1*%
D18*
X114173200Y-96174700D02*
X114173200Y-93428900D01*
X118498800Y-100500300D02*
X114173200Y-96174700D01*
X123418800Y-100500300D02*
X118498800Y-100500300D01*
X124729400Y-101810900D02*
X123418800Y-100500300D01*
%TO.N,RESET*%
X134000400Y-91998900D02*
X136002000Y-94000400D01*
X149900800Y-92298600D02*
X149900800Y-91590000D01*
X134000000Y-94500000D02*
X134000000Y-92000000D01*
X136002000Y-94000400D02*
X148199000Y-94000400D01*
X149900800Y-91590000D02*
X150010100Y-91590000D01*
X131000000Y-97500000D02*
X134000000Y-94500000D01*
X148199000Y-94000400D02*
X149900800Y-92298600D01*
X128500000Y-97500000D02*
X131000000Y-97500000D01*
%TO.N,LATCH(G)*%
X174201000Y-89250600D02*
X176390500Y-91440100D01*
X144930100Y-90469800D02*
X146149300Y-89250600D01*
X146149300Y-89250600D02*
X174201000Y-89250600D01*
X144930100Y-91590000D02*
X144930100Y-90469800D01*
%TO.N,SDA*%
X129810000Y-94190000D02*
X136000000Y-88000000D01*
%TO.N,CLOCK(Y)*%
X169000100Y-96000000D02*
X173559900Y-91440100D01*
X148139800Y-96000000D02*
X169000100Y-96000000D01*
X144929800Y-99210000D02*
X148139800Y-96000000D01*
X173559900Y-91440100D02*
X173850000Y-91440100D01*
%TO.N,T3*%
X164500000Y-123999900D02*
X166000100Y-125500000D01*
X168770000Y-101230000D02*
X164500000Y-105500000D01*
X168770000Y-99060000D02*
X168770000Y-101230000D01*
X164500000Y-105500000D02*
X164500000Y-123999900D01*
%TO.N,T5*%
X128000000Y-109000000D02*
X124512700Y-109000000D01*
X124512700Y-109000000D02*
X124088800Y-108576100D01*
X131999900Y-113000000D02*
X128000000Y-109000000D01*
X131999900Y-116999900D02*
X131999900Y-113000000D01*
%TO.N,T8*%
X110000000Y-85000000D02*
X110000000Y-81500000D01*
X111999900Y-86999900D02*
X110000000Y-85000000D01*
X140500000Y-86999900D02*
X111999900Y-86999900D01*
%TO.N,T4*%
X171310000Y-99060000D02*
X171310000Y-102189900D01*
X171310000Y-102189900D02*
X165999900Y-107500000D01*
%TO.N,GUARD2*%
D19*
X196998200Y-95002500D02*
X199500000Y-95002500D01*
X194501400Y-97499300D02*
X196998200Y-95002500D01*
X194501400Y-102500600D02*
X194501400Y-97499300D01*
X199500000Y-105000000D02*
X197000700Y-105000000D01*
X197000700Y-105000000D02*
X194501400Y-102500600D01*
%TO.N,GUARD*%
X103001800Y-95002500D02*
X100500000Y-95002500D01*
X102999300Y-105000000D02*
X105498600Y-102500600D01*
X105498600Y-102500600D02*
X105498600Y-97499300D01*
X100500000Y-105000000D02*
X102999300Y-105000000D01*
X105498600Y-97499300D02*
X103001800Y-95002500D01*
%TD*%
%TA.AperFunction,Conductor*%
%TO.N,GND*%
G36*
X189808417Y-50570202D02*
G01*
X189829391Y-50587105D01*
X199462395Y-60220109D01*
X199496421Y-60282421D01*
X199499300Y-60309204D01*
X199499300Y-94241000D01*
X199479298Y-94309121D01*
X199425642Y-94355614D01*
X199373300Y-94367000D01*
X196935606Y-94367000D01*
X196812830Y-94391422D01*
X196812825Y-94391424D01*
X196697177Y-94439327D01*
X196593096Y-94508872D01*
X196593089Y-94508877D01*
X194007777Y-97094189D01*
X194007772Y-97094196D01*
X193938227Y-97198277D01*
X193890324Y-97313925D01*
X193890322Y-97313930D01*
X193865900Y-97436706D01*
X193865900Y-102495178D01*
X193865899Y-102563187D01*
X193876086Y-102614398D01*
X193876087Y-102614403D01*
X193890321Y-102685974D01*
X193890326Y-102685990D01*
X193890560Y-102686544D01*
X193907566Y-102727600D01*
X193907566Y-102727601D01*
X193938217Y-102801603D01*
X193938220Y-102801608D01*
X193938227Y-102801622D01*
X193980288Y-102864572D01*
X194007770Y-102905703D01*
X194007774Y-102905707D01*
X194007775Y-102905708D01*
X194051701Y-102949634D01*
X196503909Y-105401940D01*
X196503930Y-105401963D01*
X196507074Y-105405107D01*
X196507075Y-105405108D01*
X196568359Y-105466392D01*
X196595583Y-105493617D01*
X196595586Y-105493619D01*
X196595592Y-105493625D01*
X196657549Y-105535023D01*
X196657551Y-105535025D01*
X196657552Y-105535025D01*
X196699679Y-105563175D01*
X196699695Y-105563184D01*
X196700228Y-105563401D01*
X196748565Y-105583422D01*
X196748567Y-105583424D01*
X196748568Y-105583424D01*
X196803937Y-105606360D01*
X196803985Y-105606385D01*
X196811789Y-105609613D01*
X196811861Y-105609643D01*
X196813438Y-105610296D01*
X196815222Y-105611035D01*
X196815848Y-105611294D01*
X196817167Y-105611595D01*
X196820603Y-105612126D01*
X196852954Y-105618561D01*
X196852958Y-105618561D01*
X196852959Y-105618562D01*
X196938102Y-105635500D01*
X196979824Y-105635500D01*
X197063278Y-105635502D01*
X197063283Y-105635500D01*
X197069478Y-105635501D01*
X197069519Y-105635500D01*
X199373300Y-105635500D01*
X199441421Y-105655502D01*
X199487914Y-105709158D01*
X199499300Y-105761500D01*
X199499300Y-139790090D01*
X199479298Y-139858211D01*
X199462419Y-139879162D01*
X194646287Y-144697799D01*
X194646240Y-144697846D01*
X189829462Y-149512119D01*
X189767141Y-149546127D01*
X189740390Y-149549000D01*
X110259401Y-149549000D01*
X110191280Y-149528998D01*
X110170306Y-149512096D01*
X105357242Y-144699128D01*
X105357242Y-144699127D01*
X105357241Y-144699127D01*
X100537405Y-139879291D01*
X100503379Y-139816979D01*
X100500500Y-139790196D01*
X100500500Y-120682806D01*
X108999600Y-120682806D01*
X108999600Y-121317393D01*
X109037915Y-121950827D01*
X109114403Y-122580763D01*
X109114404Y-122580770D01*
X109226728Y-123193702D01*
X109228792Y-123204962D01*
X109285523Y-123435128D01*
X109380659Y-123821110D01*
X109569448Y-124426957D01*
X109794463Y-125020272D01*
X109794483Y-125020320D01*
X110054917Y-125598981D01*
X110054918Y-125598983D01*
X110349821Y-126160874D01*
X110349827Y-126160885D01*
X110678100Y-126703915D01*
X110678118Y-126703943D01*
X111038591Y-127226179D01*
X111038600Y-127226190D01*
X111429959Y-127725723D01*
X111429963Y-127725728D01*
X111429965Y-127725730D01*
X111429966Y-127725731D01*
X111850759Y-128200709D01*
X111850780Y-128200731D01*
X112299468Y-128649419D01*
X112299490Y-128649440D01*
X112667302Y-128975292D01*
X112774477Y-129070241D01*
X113181942Y-129389469D01*
X113274020Y-129461608D01*
X113796256Y-129822081D01*
X113796284Y-129822099D01*
X114339314Y-130150372D01*
X114339325Y-130150378D01*
X114799528Y-130391911D01*
X114901222Y-130445284D01*
X115479898Y-130705725D01*
X116073244Y-130930752D01*
X116679094Y-131119542D01*
X117295238Y-131271408D01*
X117919426Y-131385795D01*
X118164849Y-131415594D01*
X118549372Y-131462284D01*
X118549377Y-131462284D01*
X118549383Y-131462285D01*
X119085833Y-131494734D01*
X119182807Y-131500600D01*
X119182808Y-131500600D01*
X119817393Y-131500600D01*
X119901491Y-131495512D01*
X120450817Y-131462285D01*
X120450823Y-131462284D01*
X120450827Y-131462284D01*
X120696240Y-131432485D01*
X121080774Y-131385795D01*
X121704962Y-131271408D01*
X122321106Y-131119542D01*
X122926956Y-130930752D01*
X123520302Y-130705725D01*
X124098978Y-130445284D01*
X124660874Y-130150378D01*
X124660885Y-130150372D01*
X125203915Y-129822099D01*
X125203917Y-129822097D01*
X125203938Y-129822085D01*
X125503712Y-129615165D01*
X125726179Y-129461608D01*
X125726183Y-129461604D01*
X125726190Y-129461600D01*
X126225723Y-129070241D01*
X126700716Y-128649434D01*
X127149434Y-128200716D01*
X127570241Y-127725723D01*
X127961600Y-127226190D01*
X127995140Y-127177600D01*
X128115165Y-127003712D01*
X128322085Y-126703938D01*
X128435396Y-126516498D01*
X128650372Y-126160885D01*
X128650378Y-126160874D01*
X128807658Y-125861202D01*
X128945284Y-125598978D01*
X129205725Y-125020302D01*
X129430752Y-124426956D01*
X129497476Y-124212830D01*
X130983400Y-124212830D01*
X130983400Y-125786963D01*
X130983401Y-125786973D01*
X130998165Y-125861200D01*
X131054416Y-125945384D01*
X131138597Y-126001633D01*
X131138599Y-126001634D01*
X131212833Y-126016400D01*
X132786966Y-126016399D01*
X132786969Y-126016398D01*
X132786973Y-126016398D01*
X132836226Y-126006601D01*
X132861201Y-126001634D01*
X132945384Y-125945384D01*
X133001634Y-125861201D01*
X133016400Y-125786967D01*
X133016399Y-124212834D01*
X133016399Y-124212833D01*
X133016398Y-124212826D01*
X133001634Y-124138599D01*
X132972655Y-124095230D01*
X132945384Y-124054416D01*
X132945383Y-124054415D01*
X132861202Y-123998166D01*
X132786967Y-123983400D01*
X131212836Y-123983400D01*
X131212826Y-123983401D01*
X131138599Y-123998165D01*
X131054415Y-124054416D01*
X130998166Y-124138597D01*
X130983400Y-124212830D01*
X129497476Y-124212830D01*
X129619542Y-123821106D01*
X129771408Y-123204962D01*
X129885795Y-122580774D01*
X129962285Y-121950817D01*
X130000600Y-121317392D01*
X130000600Y-120682808D01*
X129962285Y-120049383D01*
X129958304Y-120016600D01*
X129885796Y-119419436D01*
X129885795Y-119419429D01*
X129885795Y-119419426D01*
X129771408Y-118795238D01*
X129619542Y-118179094D01*
X129430752Y-117573244D01*
X129205725Y-116979898D01*
X128945284Y-116401222D01*
X128945281Y-116401216D01*
X128650378Y-115839325D01*
X128650372Y-115839314D01*
X128322099Y-115296284D01*
X128322081Y-115296256D01*
X127961608Y-114774020D01*
X127789637Y-114554516D01*
X127570241Y-114274477D01*
X127398482Y-114080601D01*
X127149440Y-113799490D01*
X127149419Y-113799468D01*
X126700731Y-113350780D01*
X126700709Y-113350759D01*
X126225731Y-112929966D01*
X126225730Y-112929965D01*
X126225728Y-112929963D01*
X126225723Y-112929959D01*
X125726190Y-112538600D01*
X125726179Y-112538591D01*
X125203943Y-112178118D01*
X125203915Y-112178100D01*
X124660885Y-111849827D01*
X124660874Y-111849821D01*
X124098983Y-111554918D01*
X124098981Y-111554917D01*
X123520320Y-111294483D01*
X123520316Y-111294481D01*
X123520302Y-111294475D01*
X123520288Y-111294469D01*
X123520272Y-111294463D01*
X122926957Y-111069448D01*
X122321110Y-110880659D01*
X122321106Y-110880658D01*
X121704962Y-110728792D01*
X121704958Y-110728791D01*
X121704953Y-110728790D01*
X121080770Y-110614404D01*
X121080763Y-110614403D01*
X120450827Y-110537915D01*
X119817393Y-110499600D01*
X119817392Y-110499600D01*
X119182808Y-110499600D01*
X119182807Y-110499600D01*
X118549372Y-110537915D01*
X117919436Y-110614403D01*
X117919429Y-110614404D01*
X117295246Y-110728790D01*
X116679089Y-110880659D01*
X116073242Y-111069448D01*
X115479927Y-111294463D01*
X115479879Y-111294483D01*
X114901218Y-111554917D01*
X114901216Y-111554918D01*
X114339325Y-111849821D01*
X114339314Y-111849827D01*
X113796284Y-112178100D01*
X113796256Y-112178118D01*
X113274020Y-112538591D01*
X112774469Y-112929965D01*
X112774468Y-112929966D01*
X112299490Y-113350759D01*
X112299468Y-113350780D01*
X111850780Y-113799468D01*
X111850759Y-113799490D01*
X111429966Y-114274468D01*
X111429965Y-114274469D01*
X111038591Y-114774020D01*
X110678118Y-115296256D01*
X110678100Y-115296284D01*
X110349827Y-115839314D01*
X110349821Y-115839325D01*
X110054918Y-116401216D01*
X110054917Y-116401218D01*
X109794483Y-116979879D01*
X109794463Y-116979927D01*
X109569448Y-117573242D01*
X109380659Y-118179089D01*
X109228790Y-118795246D01*
X109114404Y-119419429D01*
X109114403Y-119419436D01*
X109037915Y-120049372D01*
X108999600Y-120682806D01*
X100500500Y-120682806D01*
X100500500Y-118213030D01*
X105983500Y-118213030D01*
X105983500Y-119787163D01*
X105983501Y-119787173D01*
X105998265Y-119861400D01*
X106054516Y-119945584D01*
X106138697Y-120001833D01*
X106138699Y-120001834D01*
X106212933Y-120016600D01*
X107787066Y-120016599D01*
X107787069Y-120016598D01*
X107787073Y-120016598D01*
X107836326Y-120006801D01*
X107861301Y-120001834D01*
X107945484Y-119945584D01*
X108001734Y-119861401D01*
X108016500Y-119787167D01*
X108016499Y-118213034D01*
X108016498Y-118213030D01*
X108016498Y-118213026D01*
X108001734Y-118138799D01*
X107945483Y-118054615D01*
X107861302Y-117998366D01*
X107787067Y-117983600D01*
X106212936Y-117983600D01*
X106212926Y-117983601D01*
X106138699Y-117998365D01*
X106054515Y-118054616D01*
X105998266Y-118138797D01*
X105983500Y-118213030D01*
X100500500Y-118213030D01*
X100500500Y-107789130D01*
X123072300Y-107789130D01*
X123072300Y-109363263D01*
X123072301Y-109363273D01*
X123087065Y-109437500D01*
X123143316Y-109521684D01*
X123227497Y-109577933D01*
X123227499Y-109577934D01*
X123301733Y-109592700D01*
X124875866Y-109592699D01*
X124875869Y-109592698D01*
X124875873Y-109592698D01*
X124925126Y-109582901D01*
X124950101Y-109577934D01*
X125034284Y-109521684D01*
X125053121Y-109493492D01*
X125090538Y-109437497D01*
X125145015Y-109391970D01*
X125195302Y-109381500D01*
X127789782Y-109381500D01*
X127857903Y-109401502D01*
X127878879Y-109418406D01*
X131581497Y-113121115D01*
X131615521Y-113183427D01*
X131618400Y-113210209D01*
X131618400Y-115857400D01*
X131598398Y-115925521D01*
X131544742Y-115972014D01*
X131492400Y-115983400D01*
X131212836Y-115983400D01*
X131212826Y-115983401D01*
X131138599Y-115998165D01*
X131054415Y-116054416D01*
X130998166Y-116138597D01*
X130983400Y-116212830D01*
X130983400Y-117786963D01*
X130983401Y-117786973D01*
X130998165Y-117861200D01*
X131054416Y-117945384D01*
X131138597Y-118001633D01*
X131138599Y-118001634D01*
X131212833Y-118016400D01*
X132786966Y-118016399D01*
X132786969Y-118016398D01*
X132786973Y-118016398D01*
X132836226Y-118006601D01*
X132861201Y-118001634D01*
X132945384Y-117945384D01*
X133001634Y-117861201D01*
X133016400Y-117786967D01*
X133016399Y-116212834D01*
X133016398Y-116212830D01*
X133016398Y-116212826D01*
X133001634Y-116138599D01*
X132945383Y-116054415D01*
X132861202Y-115998166D01*
X132786969Y-115983400D01*
X132786967Y-115983400D01*
X132507400Y-115983400D01*
X132439279Y-115963398D01*
X132392786Y-115909742D01*
X132381400Y-115857400D01*
X132381400Y-113020775D01*
X132381401Y-112949780D01*
X132376092Y-112929965D01*
X132355406Y-112852756D01*
X132355404Y-112852752D01*
X132307047Y-112768992D01*
X132305545Y-112766201D01*
X132305315Y-112765893D01*
X132305177Y-112765755D01*
X132305176Y-112765753D01*
X132265267Y-112725844D01*
X128305277Y-108765754D01*
X128305276Y-108765753D01*
X128262876Y-108723353D01*
X128234251Y-108694727D01*
X128234250Y-108694726D01*
X128234248Y-108694724D01*
X128192020Y-108670344D01*
X128147258Y-108644500D01*
X128147249Y-108644497D01*
X128147242Y-108644495D01*
X128134866Y-108641178D01*
X128134866Y-108641179D01*
X128050232Y-108618500D01*
X128050230Y-108618499D01*
X127942062Y-108618499D01*
X127942046Y-108618500D01*
X125231300Y-108618500D01*
X125163179Y-108598498D01*
X125116686Y-108544842D01*
X125105300Y-108492500D01*
X125105299Y-107789136D01*
X125105298Y-107789126D01*
X125090534Y-107714899D01*
X125065744Y-107677799D01*
X125034284Y-107630716D01*
X124998468Y-107606784D01*
X124950102Y-107574466D01*
X124875867Y-107559700D01*
X123301736Y-107559700D01*
X123301726Y-107559701D01*
X123227499Y-107574465D01*
X123143315Y-107630716D01*
X123087066Y-107714897D01*
X123072300Y-107789130D01*
X100500500Y-107789130D01*
X100500500Y-105761500D01*
X100520502Y-105693379D01*
X100574158Y-105646886D01*
X100626500Y-105635500D01*
X102936717Y-105635500D01*
X102936722Y-105635501D01*
X102999313Y-105635500D01*
X103061891Y-105635500D01*
X103061893Y-105635500D01*
X103061902Y-105635499D01*
X103061904Y-105635499D01*
X103122770Y-105623390D01*
X103184669Y-105611078D01*
X103184671Y-105611076D01*
X103184881Y-105611035D01*
X103186759Y-105610296D01*
X103189484Y-105609277D01*
X103192020Y-105608033D01*
X103231175Y-105591814D01*
X103296225Y-105564870D01*
X103299907Y-105563495D01*
X103300204Y-105563361D01*
X103301991Y-105562237D01*
X103304787Y-105560190D01*
X103352994Y-105527978D01*
X103400789Y-105496042D01*
X103403995Y-105494059D01*
X103405700Y-105492400D01*
X103409120Y-105489161D01*
X103410729Y-105487304D01*
X103427350Y-105470682D01*
X103454181Y-105443852D01*
X103498372Y-105399661D01*
X103498383Y-105399647D01*
X103963904Y-104934108D01*
X137249300Y-104934108D01*
X137249300Y-136934108D01*
X137249300Y-137065892D01*
X137274267Y-137159073D01*
X137283407Y-137193183D01*
X137283410Y-137193190D01*
X137349297Y-137307310D01*
X137349305Y-137307320D01*
X137442479Y-137400494D01*
X137442484Y-137400498D01*
X137442486Y-137400500D01*
X137556614Y-137466392D01*
X137683908Y-137500500D01*
X137683910Y-137500500D01*
X162815790Y-137500500D01*
X162815792Y-137500500D01*
X162943086Y-137466392D01*
X163057214Y-137400500D01*
X163150400Y-137307314D01*
X163216292Y-137193186D01*
X163250400Y-137065892D01*
X163250400Y-132712930D01*
X172483500Y-132712930D01*
X172483500Y-134287063D01*
X172483501Y-134287073D01*
X172498265Y-134361300D01*
X172554516Y-134445484D01*
X172638697Y-134501733D01*
X172638699Y-134501734D01*
X172712933Y-134516500D01*
X174287066Y-134516499D01*
X174287069Y-134516498D01*
X174287073Y-134516498D01*
X174336326Y-134506701D01*
X174361301Y-134501734D01*
X174445484Y-134445484D01*
X174501734Y-134361301D01*
X174516500Y-134287067D01*
X174516499Y-132712934D01*
X174516498Y-132712930D01*
X174516498Y-132712926D01*
X174501734Y-132638699D01*
X174445483Y-132554515D01*
X174361302Y-132498266D01*
X174287067Y-132483500D01*
X172712936Y-132483500D01*
X172712926Y-132483501D01*
X172638699Y-132498265D01*
X172554515Y-132554516D01*
X172498266Y-132638697D01*
X172483500Y-132712930D01*
X163250400Y-132712930D01*
X163250400Y-124050123D01*
X164118499Y-124050123D01*
X164144500Y-124147158D01*
X164182414Y-124212826D01*
X164182419Y-124212834D01*
X164194724Y-124234147D01*
X164946696Y-124986119D01*
X164980720Y-125048430D01*
X164983600Y-125075213D01*
X164983600Y-126287063D01*
X164983601Y-126287073D01*
X164998365Y-126361300D01*
X165054616Y-126445484D01*
X165138797Y-126501733D01*
X165138799Y-126501734D01*
X165213033Y-126516500D01*
X166787166Y-126516499D01*
X166787169Y-126516498D01*
X166787173Y-126516498D01*
X166836426Y-126506701D01*
X166861401Y-126501734D01*
X166945584Y-126445484D01*
X167001834Y-126361301D01*
X167016600Y-126287067D01*
X167016599Y-125374030D01*
X168809600Y-125374030D01*
X168809600Y-126948163D01*
X168809601Y-126948173D01*
X168824365Y-127022400D01*
X168880616Y-127106584D01*
X168964797Y-127162833D01*
X168964799Y-127162834D01*
X169039033Y-127177600D01*
X170613166Y-127177599D01*
X170613169Y-127177598D01*
X170613173Y-127177598D01*
X170662426Y-127167801D01*
X170687401Y-127162834D01*
X170771584Y-127106584D01*
X170827834Y-127022401D01*
X170842600Y-126948167D01*
X170842599Y-125374034D01*
X170842598Y-125374030D01*
X170842598Y-125374026D01*
X170827834Y-125299799D01*
X170771583Y-125215615D01*
X170687402Y-125159366D01*
X170613167Y-125144600D01*
X169039036Y-125144600D01*
X169039026Y-125144601D01*
X168964799Y-125159365D01*
X168880615Y-125215616D01*
X168824366Y-125299797D01*
X168809600Y-125374030D01*
X167016599Y-125374030D01*
X167016599Y-124712934D01*
X167016599Y-124712933D01*
X167016599Y-124712931D01*
X167016599Y-124712930D01*
X172483500Y-124712930D01*
X172483500Y-126287063D01*
X172483501Y-126287073D01*
X172498265Y-126361300D01*
X172554516Y-126445484D01*
X172638697Y-126501733D01*
X172638699Y-126501734D01*
X172712933Y-126516500D01*
X174287066Y-126516499D01*
X174287069Y-126516498D01*
X174287073Y-126516498D01*
X174336326Y-126506701D01*
X174361301Y-126501734D01*
X174445484Y-126445484D01*
X174501734Y-126361301D01*
X174516500Y-126287067D01*
X174516499Y-124712934D01*
X174516498Y-124712931D01*
X174516498Y-124712926D01*
X174501734Y-124638699D01*
X174445483Y-124554515D01*
X174361302Y-124498266D01*
X174287067Y-124483500D01*
X172712936Y-124483500D01*
X172712926Y-124483501D01*
X172638699Y-124498265D01*
X172554515Y-124554516D01*
X172498266Y-124638697D01*
X172483500Y-124712930D01*
X167016599Y-124712930D01*
X167001834Y-124638699D01*
X166945583Y-124554515D01*
X166861402Y-124498266D01*
X166787169Y-124483500D01*
X166787167Y-124483500D01*
X165575313Y-124483500D01*
X165507192Y-124463498D01*
X165486218Y-124446595D01*
X164918405Y-123878782D01*
X164884379Y-123816470D01*
X164881500Y-123789687D01*
X164881500Y-123435142D01*
X175999294Y-123435142D01*
X175999300Y-123499961D01*
X175999300Y-123501038D01*
X175999300Y-137434008D01*
X175999300Y-137565792D01*
X176024267Y-137658973D01*
X176033407Y-137693083D01*
X176033410Y-137693090D01*
X176099297Y-137807210D01*
X176099305Y-137807220D01*
X176192479Y-137900394D01*
X176192484Y-137900398D01*
X176192486Y-137900400D01*
X176306614Y-137966292D01*
X176433908Y-138000400D01*
X176433910Y-138000400D01*
X189565690Y-138000400D01*
X189565692Y-138000400D01*
X189692986Y-137966292D01*
X189807114Y-137900400D01*
X189900300Y-137807214D01*
X189966192Y-137693086D01*
X190000300Y-137565792D01*
X190000300Y-124624230D01*
X191309700Y-124624230D01*
X191309700Y-126198363D01*
X191309701Y-126198373D01*
X191324465Y-126272600D01*
X191380716Y-126356784D01*
X191464897Y-126413033D01*
X191464899Y-126413034D01*
X191539133Y-126427800D01*
X193113266Y-126427799D01*
X193113269Y-126427798D01*
X193113273Y-126427798D01*
X193162526Y-126418001D01*
X193187501Y-126413034D01*
X193271684Y-126356784D01*
X193327934Y-126272601D01*
X193342700Y-126198367D01*
X193342699Y-124624234D01*
X193342698Y-124624230D01*
X193342698Y-124624226D01*
X193327934Y-124549999D01*
X193327933Y-124549997D01*
X193271684Y-124465816D01*
X193268215Y-124463498D01*
X193187502Y-124409566D01*
X193113267Y-124394800D01*
X191539136Y-124394800D01*
X191539126Y-124394801D01*
X191464899Y-124409565D01*
X191380715Y-124465816D01*
X191324466Y-124549997D01*
X191309700Y-124624230D01*
X190000300Y-124624230D01*
X190000300Y-123574438D01*
X190000305Y-123574349D01*
X190000304Y-123565855D01*
X190000305Y-123565853D01*
X190000300Y-123499961D01*
X190000300Y-123434108D01*
X190000298Y-123434101D01*
X190000295Y-123434078D01*
X190000295Y-123434070D01*
X189983514Y-123371462D01*
X189966192Y-123306814D01*
X189966182Y-123306796D01*
X189966177Y-123306778D01*
X189934106Y-123251240D01*
X189900300Y-123192686D01*
X189900285Y-123192671D01*
X189900276Y-123192655D01*
X189853679Y-123146065D01*
X189807114Y-123099500D01*
X189807113Y-123099499D01*
X189807107Y-123099493D01*
X189807088Y-123099478D01*
X189748492Y-123065654D01*
X189748485Y-123065650D01*
X189692966Y-123033596D01*
X189629875Y-123016697D01*
X189629867Y-123016692D01*
X189629867Y-123016695D01*
X189565682Y-122999497D01*
X189565658Y-122999494D01*
X189500644Y-122999500D01*
X189426238Y-122999500D01*
X189426146Y-122999505D01*
X176498879Y-123000500D01*
X176433889Y-123000500D01*
X176382534Y-123014263D01*
X176382529Y-123014265D01*
X176371262Y-123017285D01*
X176306614Y-123034608D01*
X176306596Y-123034617D01*
X176306578Y-123034623D01*
X176251040Y-123066693D01*
X176192486Y-123100500D01*
X176192471Y-123100514D01*
X176192455Y-123100524D01*
X176145865Y-123147120D01*
X176099300Y-123193686D01*
X176099290Y-123193702D01*
X176099276Y-123193717D01*
X176092826Y-123204891D01*
X176065457Y-123252302D01*
X176065454Y-123252307D01*
X176033397Y-123307831D01*
X176016497Y-123370924D01*
X176016495Y-123370931D01*
X175999298Y-123435114D01*
X175999294Y-123435142D01*
X164881500Y-123435142D01*
X164881500Y-116565674D01*
X164901502Y-116497553D01*
X164955158Y-116451060D01*
X165025432Y-116440956D01*
X165077500Y-116460908D01*
X165138599Y-116501734D01*
X165212833Y-116516500D01*
X166786966Y-116516499D01*
X166786969Y-116516498D01*
X166786973Y-116516498D01*
X166836226Y-116506701D01*
X166861201Y-116501734D01*
X166945384Y-116445484D01*
X167001634Y-116361301D01*
X167016400Y-116287067D01*
X167016399Y-114712934D01*
X167016399Y-114712933D01*
X167016399Y-114712931D01*
X167016399Y-114712930D01*
X172483500Y-114712930D01*
X172483500Y-116287063D01*
X172483501Y-116287073D01*
X172498265Y-116361300D01*
X172554516Y-116445484D01*
X172638697Y-116501733D01*
X172638699Y-116501734D01*
X172712933Y-116516500D01*
X174287066Y-116516499D01*
X174287069Y-116516498D01*
X174287073Y-116516498D01*
X174336326Y-116506701D01*
X174361301Y-116501734D01*
X174445484Y-116445484D01*
X174501734Y-116361301D01*
X174516500Y-116287067D01*
X174516499Y-114712934D01*
X174516498Y-114712931D01*
X174516498Y-114712926D01*
X174501734Y-114638699D01*
X174445483Y-114554515D01*
X174361302Y-114498266D01*
X174287067Y-114483500D01*
X172712936Y-114483500D01*
X172712926Y-114483501D01*
X172638699Y-114498265D01*
X172554515Y-114554516D01*
X172498266Y-114638697D01*
X172483500Y-114712930D01*
X167016399Y-114712930D01*
X167001634Y-114638699D01*
X166945383Y-114554515D01*
X166861202Y-114498266D01*
X166786967Y-114483500D01*
X165212836Y-114483500D01*
X165212826Y-114483501D01*
X165138599Y-114498265D01*
X165077502Y-114539090D01*
X165009749Y-114560305D01*
X164941282Y-114541522D01*
X164893839Y-114488705D01*
X164881500Y-114434325D01*
X164881500Y-110374130D01*
X168809600Y-110374130D01*
X168809600Y-111948263D01*
X168809601Y-111948273D01*
X168824365Y-112022500D01*
X168880616Y-112106684D01*
X168964797Y-112162933D01*
X168964799Y-112162934D01*
X169039033Y-112177700D01*
X170613166Y-112177699D01*
X170613169Y-112177698D01*
X170613173Y-112177698D01*
X170662426Y-112167901D01*
X170687401Y-112162934D01*
X170771584Y-112106684D01*
X170827834Y-112022501D01*
X170842600Y-111948267D01*
X170842599Y-110374134D01*
X170842598Y-110374130D01*
X170842598Y-110374126D01*
X170827834Y-110299899D01*
X170771583Y-110215715D01*
X170687402Y-110159466D01*
X170613167Y-110144700D01*
X169039036Y-110144700D01*
X169039026Y-110144701D01*
X168964799Y-110159465D01*
X168880615Y-110215716D01*
X168824366Y-110299897D01*
X168809600Y-110374130D01*
X164881500Y-110374130D01*
X164881500Y-108565674D01*
X164901502Y-108497553D01*
X164955158Y-108451060D01*
X165025432Y-108440956D01*
X165077500Y-108460908D01*
X165138599Y-108501734D01*
X165212833Y-108516500D01*
X166786966Y-108516499D01*
X166786969Y-108516498D01*
X166786973Y-108516498D01*
X166836226Y-108506701D01*
X166861201Y-108501734D01*
X166945384Y-108445484D01*
X167001634Y-108361301D01*
X167016400Y-108287067D01*
X167016399Y-107075211D01*
X167036401Y-107007091D01*
X167053299Y-106986122D01*
X167326491Y-106712930D01*
X172483500Y-106712930D01*
X172483500Y-108287063D01*
X172483501Y-108287073D01*
X172498265Y-108361300D01*
X172554516Y-108445484D01*
X172638697Y-108501733D01*
X172638699Y-108501734D01*
X172712933Y-108516500D01*
X174287066Y-108516499D01*
X174287069Y-108516498D01*
X174287073Y-108516498D01*
X174336326Y-108506701D01*
X174361301Y-108501734D01*
X174445484Y-108445484D01*
X174501734Y-108361301D01*
X174516500Y-108287067D01*
X174516499Y-106712934D01*
X174516498Y-106712930D01*
X174516498Y-106712926D01*
X174501734Y-106638699D01*
X174445483Y-106554515D01*
X174361302Y-106498266D01*
X174287067Y-106483500D01*
X172712936Y-106483500D01*
X172712926Y-106483501D01*
X172638699Y-106498265D01*
X172554515Y-106554516D01*
X172498266Y-106638697D01*
X172483500Y-106712930D01*
X167326491Y-106712930D01*
X169354283Y-104685138D01*
X175999294Y-104685138D01*
X175999300Y-104749961D01*
X175999300Y-104750058D01*
X175999300Y-118684008D01*
X175999300Y-118815792D01*
X176024267Y-118908973D01*
X176033407Y-118943083D01*
X176033410Y-118943090D01*
X176099297Y-119057210D01*
X176099305Y-119057220D01*
X176192479Y-119150394D01*
X176192484Y-119150398D01*
X176192486Y-119150400D01*
X176306614Y-119216292D01*
X176433908Y-119250400D01*
X176433910Y-119250400D01*
X189565690Y-119250400D01*
X189565692Y-119250400D01*
X189692986Y-119216292D01*
X189807114Y-119150400D01*
X189900300Y-119057214D01*
X189966192Y-118943086D01*
X190000300Y-118815792D01*
X190000300Y-105874230D01*
X191309700Y-105874230D01*
X191309700Y-107448363D01*
X191309701Y-107448373D01*
X191324465Y-107522600D01*
X191380716Y-107606784D01*
X191464897Y-107663033D01*
X191464899Y-107663034D01*
X191539133Y-107677800D01*
X193113266Y-107677799D01*
X193113269Y-107677798D01*
X193113273Y-107677798D01*
X193162526Y-107668001D01*
X193187501Y-107663034D01*
X193271684Y-107606784D01*
X193327934Y-107522601D01*
X193342700Y-107448367D01*
X193342699Y-105874234D01*
X193342698Y-105874230D01*
X193342698Y-105874226D01*
X193327934Y-105799999D01*
X193271683Y-105715815D01*
X193187502Y-105659566D01*
X193113267Y-105644800D01*
X191539136Y-105644800D01*
X191539126Y-105644801D01*
X191464899Y-105659565D01*
X191380715Y-105715816D01*
X191324466Y-105799997D01*
X191309700Y-105874230D01*
X190000300Y-105874230D01*
X190000300Y-104824438D01*
X190000305Y-104824349D01*
X190000304Y-104815855D01*
X190000305Y-104815853D01*
X190000300Y-104749961D01*
X190000300Y-104684108D01*
X190000298Y-104684103D01*
X190000295Y-104684074D01*
X190000295Y-104684070D01*
X189983320Y-104620737D01*
X189983320Y-104620730D01*
X189983319Y-104620731D01*
X189969643Y-104569695D01*
X189966192Y-104556814D01*
X189966182Y-104556796D01*
X189966177Y-104556778D01*
X189934106Y-104501240D01*
X189900300Y-104442686D01*
X189900285Y-104442671D01*
X189900276Y-104442655D01*
X189853679Y-104396065D01*
X189807114Y-104349500D01*
X189807113Y-104349499D01*
X189807107Y-104349493D01*
X189807088Y-104349478D01*
X189748492Y-104315654D01*
X189748485Y-104315650D01*
X189692966Y-104283596D01*
X189629875Y-104266697D01*
X189629867Y-104266692D01*
X189629867Y-104266695D01*
X189565682Y-104249497D01*
X189565658Y-104249494D01*
X189500644Y-104249500D01*
X189426238Y-104249500D01*
X189426146Y-104249505D01*
X176498879Y-104250500D01*
X176433889Y-104250500D01*
X176382534Y-104264263D01*
X176382529Y-104264265D01*
X176371262Y-104267285D01*
X176306614Y-104284608D01*
X176306596Y-104284617D01*
X176306578Y-104284623D01*
X176251040Y-104316693D01*
X176192486Y-104350500D01*
X176192471Y-104350514D01*
X176192455Y-104350524D01*
X176145865Y-104397120D01*
X176099300Y-104443686D01*
X176099290Y-104443702D01*
X176099276Y-104443717D01*
X176066070Y-104501240D01*
X176065457Y-104502302D01*
X176065454Y-104502307D01*
X176033398Y-104557829D01*
X176016552Y-104620721D01*
X176016550Y-104620729D01*
X175999297Y-104685119D01*
X175999294Y-104685138D01*
X169354283Y-104685138D01*
X171533870Y-102505550D01*
X171533880Y-102505543D01*
X171615270Y-102424153D01*
X171615276Y-102424147D01*
X171665501Y-102337154D01*
X171691500Y-102240125D01*
X171691500Y-100240599D01*
X171711502Y-100172478D01*
X171765158Y-100125985D01*
X171817500Y-100114599D01*
X172135064Y-100114599D01*
X172135066Y-100114599D01*
X172135069Y-100114598D01*
X172135072Y-100114598D01*
X172193207Y-100103035D01*
X172209301Y-100099834D01*
X172293484Y-100043584D01*
X172349734Y-99959401D01*
X172364500Y-99885167D01*
X172364499Y-98235034D01*
X172364499Y-98235033D01*
X172364499Y-98235031D01*
X172364499Y-98235030D01*
X175335500Y-98235030D01*
X175335500Y-99885163D01*
X175335501Y-99885173D01*
X175350265Y-99959400D01*
X175406516Y-100043584D01*
X175490697Y-100099833D01*
X175490699Y-100099834D01*
X175564933Y-100114600D01*
X177215066Y-100114599D01*
X177215069Y-100114598D01*
X177215073Y-100114598D01*
X177273207Y-100103035D01*
X177289301Y-100099834D01*
X177373484Y-100043584D01*
X177429734Y-99959401D01*
X177444500Y-99885167D01*
X177444499Y-98235034D01*
X177444498Y-98235031D01*
X177444498Y-98235026D01*
X177429734Y-98160799D01*
X177418458Y-98143924D01*
X177373484Y-98076616D01*
X177363981Y-98070266D01*
X177289302Y-98020366D01*
X177215067Y-98005600D01*
X175564936Y-98005600D01*
X175564926Y-98005601D01*
X175490699Y-98020365D01*
X175406515Y-98076616D01*
X175350266Y-98160797D01*
X175335500Y-98235030D01*
X172364499Y-98235030D01*
X172349734Y-98160799D01*
X172338458Y-98143924D01*
X172293484Y-98076616D01*
X172283981Y-98070266D01*
X172209302Y-98020366D01*
X172135067Y-98005600D01*
X170484936Y-98005600D01*
X170484926Y-98005601D01*
X170410699Y-98020365D01*
X170326515Y-98076616D01*
X170270266Y-98160797D01*
X170255500Y-98235030D01*
X170255500Y-99885163D01*
X170255501Y-99885173D01*
X170270265Y-99959400D01*
X170326516Y-100043584D01*
X170410697Y-100099833D01*
X170410699Y-100099834D01*
X170484933Y-100114600D01*
X170802500Y-100114599D01*
X170870620Y-100134601D01*
X170917113Y-100188256D01*
X170928500Y-100240599D01*
X170928500Y-101979686D01*
X170908498Y-102047807D01*
X170891595Y-102068781D01*
X166513780Y-106446595D01*
X166451468Y-106480621D01*
X166424685Y-106483500D01*
X165212836Y-106483500D01*
X165212826Y-106483501D01*
X165138599Y-106498265D01*
X165077502Y-106539090D01*
X165009749Y-106560305D01*
X164941282Y-106541522D01*
X164893839Y-106488705D01*
X164881500Y-106434325D01*
X164881500Y-105710213D01*
X164901502Y-105642092D01*
X164918405Y-105621118D01*
X169075270Y-101464253D01*
X169075276Y-101464247D01*
X169114665Y-101396023D01*
X169125500Y-101377257D01*
X169125500Y-101377256D01*
X169125502Y-101377253D01*
X169151500Y-101280225D01*
X169151500Y-101179775D01*
X169151500Y-100240599D01*
X169171502Y-100172478D01*
X169225158Y-100125985D01*
X169277500Y-100114599D01*
X169595064Y-100114599D01*
X169595066Y-100114599D01*
X169595069Y-100114598D01*
X169595072Y-100114598D01*
X169653207Y-100103035D01*
X169669301Y-100099834D01*
X169753484Y-100043584D01*
X169809734Y-99959401D01*
X169824500Y-99885167D01*
X169824499Y-98235034D01*
X169824498Y-98235031D01*
X169824498Y-98235026D01*
X169809734Y-98160799D01*
X169798458Y-98143924D01*
X169753484Y-98076616D01*
X169743981Y-98070266D01*
X169669302Y-98020366D01*
X169595067Y-98005600D01*
X167944936Y-98005600D01*
X167944926Y-98005601D01*
X167870699Y-98020365D01*
X167786515Y-98076616D01*
X167730266Y-98160797D01*
X167715500Y-98235030D01*
X167715500Y-99885163D01*
X167715501Y-99885173D01*
X167730265Y-99959400D01*
X167786516Y-100043584D01*
X167870697Y-100099833D01*
X167870699Y-100099834D01*
X167944933Y-100114600D01*
X168262500Y-100114599D01*
X168330620Y-100134601D01*
X168377113Y-100188256D01*
X168388500Y-100240599D01*
X168388500Y-101019787D01*
X168368498Y-101087908D01*
X168351595Y-101108882D01*
X164265753Y-105194724D01*
X164230239Y-105230238D01*
X164194725Y-105265751D01*
X164194721Y-105265756D01*
X164144500Y-105352741D01*
X164118500Y-105449776D01*
X164118500Y-124050123D01*
X164118499Y-124050123D01*
X163250400Y-124050123D01*
X163250400Y-104934108D01*
X163216292Y-104806814D01*
X163150400Y-104692686D01*
X163150398Y-104692684D01*
X163150394Y-104692679D01*
X163057220Y-104599505D01*
X163057210Y-104599497D01*
X162943090Y-104533610D01*
X162943087Y-104533609D01*
X162943086Y-104533608D01*
X162943084Y-104533607D01*
X162943083Y-104533607D01*
X162908973Y-104524467D01*
X162815792Y-104499500D01*
X137815692Y-104499500D01*
X137683908Y-104499500D01*
X137615694Y-104517777D01*
X137556616Y-104533607D01*
X137556609Y-104533610D01*
X137442489Y-104599497D01*
X137442479Y-104599505D01*
X137349305Y-104692679D01*
X137349297Y-104692689D01*
X137283410Y-104806809D01*
X137283407Y-104806816D01*
X137275385Y-104836756D01*
X137249300Y-104934108D01*
X103963904Y-104934108D01*
X105948299Y-102949634D01*
X105992225Y-102905708D01*
X105992229Y-102905701D01*
X105992233Y-102905698D01*
X106019711Y-102864572D01*
X106061634Y-102801830D01*
X113157500Y-102801830D01*
X113157500Y-104375963D01*
X113157501Y-104375973D01*
X113172265Y-104450200D01*
X113228516Y-104534384D01*
X113312697Y-104590633D01*
X113312699Y-104590634D01*
X113386933Y-104605400D01*
X114961066Y-104605399D01*
X114961069Y-104605398D01*
X114961073Y-104605398D01*
X115010326Y-104595601D01*
X115035301Y-104590634D01*
X115119484Y-104534384D01*
X115175734Y-104450201D01*
X115190500Y-104375967D01*
X115190499Y-102801834D01*
X115190498Y-102801830D01*
X115190498Y-102801826D01*
X115175734Y-102727599D01*
X115150658Y-102690071D01*
X115119484Y-102643416D01*
X115076064Y-102614403D01*
X115035302Y-102587166D01*
X114961067Y-102572400D01*
X113386936Y-102572400D01*
X113386926Y-102572401D01*
X113312699Y-102587165D01*
X113228515Y-102643416D01*
X113172266Y-102727597D01*
X113157500Y-102801830D01*
X106061634Y-102801830D01*
X106061773Y-102801622D01*
X106061776Y-102801614D01*
X106061779Y-102801610D01*
X106089382Y-102734967D01*
X106089383Y-102734966D01*
X106094395Y-102722865D01*
X106107987Y-102690050D01*
X106109615Y-102686484D01*
X106109742Y-102686147D01*
X106110345Y-102682623D01*
X106132466Y-102571403D01*
X106132467Y-102571399D01*
X106134100Y-102563189D01*
X106134100Y-102563187D01*
X106134102Y-102563178D01*
X106134100Y-102479723D01*
X106134100Y-97436709D01*
X106109678Y-97313931D01*
X106061773Y-97198278D01*
X105992225Y-97094192D01*
X105903708Y-97005675D01*
X103406908Y-94508875D01*
X103302822Y-94439327D01*
X103187169Y-94391422D01*
X103139299Y-94381900D01*
X103064393Y-94367000D01*
X103064391Y-94367000D01*
X100626500Y-94367000D01*
X100558379Y-94346998D01*
X100511886Y-94293342D01*
X100500500Y-94241000D01*
X100500500Y-92641830D01*
X113157500Y-92641830D01*
X113157500Y-94215963D01*
X113157501Y-94215973D01*
X113172265Y-94290200D01*
X113228516Y-94374384D01*
X113312697Y-94430633D01*
X113312699Y-94430634D01*
X113386933Y-94445400D01*
X113665701Y-94445399D01*
X113733820Y-94465401D01*
X113780313Y-94519056D01*
X113791700Y-94571399D01*
X113791700Y-96224923D01*
X113791699Y-96224923D01*
X113817698Y-96321951D01*
X113817701Y-96321958D01*
X113852078Y-96381500D01*
X113852080Y-96381503D01*
X113867923Y-96408945D01*
X113867927Y-96408951D01*
X118193524Y-100734547D01*
X118264553Y-100805576D01*
X118264554Y-100805577D01*
X118264556Y-100805578D01*
X118351541Y-100855799D01*
X118351543Y-100855799D01*
X118351546Y-100855801D01*
X118448575Y-100881800D01*
X120909700Y-100881800D01*
X120977821Y-100901802D01*
X121024314Y-100955458D01*
X121035700Y-101007800D01*
X121035700Y-102734963D01*
X121035701Y-102734973D01*
X121050465Y-102809200D01*
X121106716Y-102893384D01*
X121190897Y-102949633D01*
X121190899Y-102949634D01*
X121265133Y-102964400D01*
X123115266Y-102964399D01*
X123115269Y-102964398D01*
X123115273Y-102964398D01*
X123164526Y-102954601D01*
X123189501Y-102949634D01*
X123273684Y-102893384D01*
X123329934Y-102809201D01*
X123336621Y-102775582D01*
X123369528Y-102712673D01*
X123431222Y-102677540D01*
X123502117Y-102681340D01*
X123559704Y-102722865D01*
X123583779Y-102775582D01*
X123590466Y-102809201D01*
X123646716Y-102893384D01*
X123730897Y-102949633D01*
X123730899Y-102949634D01*
X123805133Y-102964400D01*
X125655266Y-102964399D01*
X125655269Y-102964398D01*
X125655273Y-102964398D01*
X125704526Y-102954601D01*
X125729501Y-102949634D01*
X125813684Y-102893384D01*
X125869934Y-102809201D01*
X125876621Y-102775582D01*
X125909528Y-102712673D01*
X125971222Y-102677540D01*
X126042117Y-102681340D01*
X126099704Y-102722865D01*
X126123779Y-102775582D01*
X126130466Y-102809201D01*
X126186716Y-102893384D01*
X126270897Y-102949633D01*
X126270899Y-102949634D01*
X126345133Y-102964400D01*
X128195266Y-102964399D01*
X128195269Y-102964398D01*
X128195273Y-102964398D01*
X128244526Y-102954601D01*
X128269501Y-102949634D01*
X128353684Y-102893384D01*
X128409934Y-102809201D01*
X128424700Y-102734967D01*
X128424699Y-100884834D01*
X128424698Y-100884831D01*
X128424698Y-100884826D01*
X128409934Y-100810599D01*
X128406576Y-100805574D01*
X128353684Y-100726416D01*
X128353683Y-100726415D01*
X128269502Y-100670166D01*
X128195267Y-100655400D01*
X126345136Y-100655400D01*
X126345126Y-100655401D01*
X126270899Y-100670165D01*
X126186715Y-100726416D01*
X126130466Y-100810596D01*
X126123778Y-100844219D01*
X126090869Y-100907129D01*
X126029173Y-100942259D01*
X125958279Y-100938458D01*
X125900693Y-100896932D01*
X125876620Y-100844215D01*
X125869934Y-100810599D01*
X125866576Y-100805574D01*
X125813684Y-100726416D01*
X125813683Y-100726415D01*
X125729502Y-100670166D01*
X125655269Y-100655400D01*
X125655267Y-100655400D01*
X124165613Y-100655400D01*
X124097492Y-100635398D01*
X124076522Y-100618499D01*
X123653047Y-100195024D01*
X123643727Y-100189643D01*
X123599542Y-100164133D01*
X123599541Y-100164133D01*
X123566058Y-100144801D01*
X123566055Y-100144800D01*
X123566054Y-100144799D01*
X123566052Y-100144798D01*
X123566051Y-100144798D01*
X123529719Y-100135063D01*
X123469025Y-100118800D01*
X123469023Y-100118800D01*
X118709013Y-100118800D01*
X118640892Y-100098798D01*
X118619918Y-100081895D01*
X116111654Y-97573631D01*
X127940799Y-97573631D01*
X127978916Y-97715882D01*
X128052546Y-97843414D01*
X128052554Y-97843424D01*
X128156675Y-97947545D01*
X128156680Y-97947549D01*
X128156682Y-97947551D01*
X128284218Y-98021184D01*
X128426467Y-98059300D01*
X128426469Y-98059300D01*
X128573731Y-98059300D01*
X128573733Y-98059300D01*
X128715982Y-98021184D01*
X128843518Y-97947551D01*
X128843524Y-97947545D01*
X128872665Y-97918405D01*
X128934977Y-97884379D01*
X128961760Y-97881500D01*
X131050223Y-97881500D01*
X131050225Y-97881500D01*
X131147254Y-97855501D01*
X131147257Y-97855499D01*
X131147258Y-97855499D01*
X131217884Y-97814723D01*
X131234247Y-97805276D01*
X131305276Y-97734247D01*
X134305276Y-94734247D01*
X134355502Y-94647253D01*
X134381501Y-94550225D01*
X134381501Y-94449775D01*
X134381501Y-94442058D01*
X134381500Y-94442040D01*
X134381500Y-93223669D01*
X134401502Y-93155548D01*
X134455158Y-93109055D01*
X134525432Y-93098951D01*
X134590012Y-93128445D01*
X134596589Y-93134567D01*
X135702302Y-94240225D01*
X135751864Y-94289787D01*
X135767751Y-94305674D01*
X135767757Y-94305679D01*
X135767840Y-94305727D01*
X135783153Y-94314567D01*
X135854016Y-94355479D01*
X135854996Y-94356056D01*
X135855224Y-94356147D01*
X135858647Y-94356948D01*
X135904747Y-94369299D01*
X135923722Y-94374383D01*
X135923724Y-94374384D01*
X135950801Y-94381639D01*
X135951724Y-94381894D01*
X135951777Y-94381901D01*
X135951780Y-94381900D01*
X135951784Y-94381902D01*
X136018750Y-94381900D01*
X136018752Y-94381900D01*
X148249223Y-94381900D01*
X148249225Y-94381900D01*
X148346254Y-94355901D01*
X148346257Y-94355899D01*
X148346258Y-94355899D01*
X148427280Y-94309121D01*
X148433247Y-94305676D01*
X148504276Y-94234647D01*
X149957518Y-92781403D01*
X150019830Y-92747379D01*
X150046613Y-92744499D01*
X150935164Y-92744499D01*
X150935166Y-92744499D01*
X150935169Y-92744498D01*
X150935172Y-92744498D01*
X150971763Y-92737219D01*
X151009401Y-92729734D01*
X151093584Y-92673484D01*
X151149834Y-92589301D01*
X151164600Y-92515067D01*
X151164599Y-90664934D01*
X151164598Y-90664930D01*
X151164598Y-90664926D01*
X151158332Y-90633423D01*
X151154674Y-90615030D01*
X160095500Y-90615030D01*
X160095500Y-92265163D01*
X160095501Y-92265173D01*
X160110265Y-92339400D01*
X160166516Y-92423584D01*
X160250697Y-92479833D01*
X160250699Y-92479834D01*
X160324933Y-92494600D01*
X161975066Y-92494599D01*
X161975069Y-92494598D01*
X161975073Y-92494598D01*
X162024326Y-92484801D01*
X162049301Y-92479834D01*
X162133484Y-92423584D01*
X162189734Y-92339401D01*
X162204500Y-92265167D01*
X162204499Y-90615034D01*
X162204499Y-90615033D01*
X162204499Y-90615031D01*
X162204499Y-90615030D01*
X162635500Y-90615030D01*
X162635500Y-92265163D01*
X162635501Y-92265173D01*
X162650265Y-92339400D01*
X162706516Y-92423584D01*
X162790697Y-92479833D01*
X162790699Y-92479834D01*
X162864933Y-92494600D01*
X164515066Y-92494599D01*
X164515069Y-92494598D01*
X164515073Y-92494598D01*
X164564326Y-92484801D01*
X164589301Y-92479834D01*
X164673484Y-92423584D01*
X164729734Y-92339401D01*
X164744500Y-92265167D01*
X164744499Y-90615034D01*
X164744499Y-90615033D01*
X164744499Y-90615031D01*
X164744499Y-90615030D01*
X165175500Y-90615030D01*
X165175500Y-92265163D01*
X165175501Y-92265173D01*
X165190265Y-92339400D01*
X165246516Y-92423584D01*
X165330697Y-92479833D01*
X165330699Y-92479834D01*
X165404933Y-92494600D01*
X167055066Y-92494599D01*
X167055069Y-92494598D01*
X167055073Y-92494598D01*
X167104326Y-92484801D01*
X167129301Y-92479834D01*
X167213484Y-92423584D01*
X167269734Y-92339401D01*
X167284500Y-92265167D01*
X167284499Y-90615034D01*
X167284499Y-90615033D01*
X167284499Y-90615031D01*
X167284499Y-90615030D01*
X167715500Y-90615030D01*
X167715500Y-92265163D01*
X167715501Y-92265173D01*
X167730265Y-92339400D01*
X167786516Y-92423584D01*
X167870697Y-92479833D01*
X167870699Y-92479834D01*
X167944933Y-92494600D01*
X169595066Y-92494599D01*
X169595069Y-92494598D01*
X169595073Y-92494598D01*
X169644326Y-92484801D01*
X169669301Y-92479834D01*
X169753484Y-92423584D01*
X169809734Y-92339401D01*
X169824500Y-92265167D01*
X169824499Y-90615034D01*
X169824498Y-90615031D01*
X169824498Y-90615026D01*
X169809734Y-90540799D01*
X169809733Y-90540797D01*
X169753484Y-90456616D01*
X169743981Y-90450266D01*
X169669302Y-90400366D01*
X169595067Y-90385600D01*
X167944936Y-90385600D01*
X167944926Y-90385601D01*
X167870699Y-90400365D01*
X167786515Y-90456616D01*
X167730266Y-90540797D01*
X167715500Y-90615030D01*
X167284499Y-90615030D01*
X167269734Y-90540799D01*
X167269733Y-90540797D01*
X167213484Y-90456616D01*
X167203981Y-90450266D01*
X167129302Y-90400366D01*
X167055067Y-90385600D01*
X165404936Y-90385600D01*
X165404926Y-90385601D01*
X165330699Y-90400365D01*
X165246515Y-90456616D01*
X165190266Y-90540797D01*
X165175500Y-90615030D01*
X164744499Y-90615030D01*
X164729734Y-90540799D01*
X164729733Y-90540797D01*
X164673484Y-90456616D01*
X164663981Y-90450266D01*
X164589302Y-90400366D01*
X164515067Y-90385600D01*
X162864936Y-90385600D01*
X162864926Y-90385601D01*
X162790699Y-90400365D01*
X162706515Y-90456616D01*
X162650266Y-90540797D01*
X162635500Y-90615030D01*
X162204499Y-90615030D01*
X162189734Y-90540799D01*
X162189733Y-90540797D01*
X162133484Y-90456616D01*
X162123981Y-90450266D01*
X162049302Y-90400366D01*
X161975067Y-90385600D01*
X160324936Y-90385600D01*
X160324926Y-90385601D01*
X160250699Y-90400365D01*
X160166515Y-90456616D01*
X160110266Y-90540797D01*
X160095500Y-90615030D01*
X151154674Y-90615030D01*
X151149834Y-90590699D01*
X151093583Y-90506515D01*
X151009402Y-90450266D01*
X150935167Y-90435500D01*
X149085036Y-90435500D01*
X149085026Y-90435501D01*
X149010799Y-90450265D01*
X148926615Y-90506516D01*
X148870366Y-90590696D01*
X148863678Y-90624319D01*
X148830769Y-90687229D01*
X148769073Y-90722359D01*
X148698179Y-90718558D01*
X148640593Y-90677032D01*
X148616520Y-90624315D01*
X148614674Y-90615036D01*
X148609834Y-90590699D01*
X148553584Y-90506516D01*
X148553583Y-90506515D01*
X148469402Y-90450266D01*
X148395167Y-90435500D01*
X146545036Y-90435500D01*
X146545026Y-90435501D01*
X146470799Y-90450265D01*
X146386615Y-90506516D01*
X146330366Y-90590696D01*
X146323678Y-90624319D01*
X146290769Y-90687229D01*
X146229073Y-90722359D01*
X146158179Y-90718558D01*
X146100593Y-90677032D01*
X146076520Y-90624315D01*
X146074674Y-90615036D01*
X146069834Y-90590699D01*
X146013584Y-90506516D01*
X146013583Y-90506515D01*
X145929402Y-90450266D01*
X145855169Y-90435500D01*
X145855167Y-90435500D01*
X145808113Y-90435500D01*
X145739992Y-90415498D01*
X145693499Y-90361842D01*
X145683395Y-90291568D01*
X145712889Y-90226988D01*
X145719018Y-90220404D01*
X146270419Y-89669004D01*
X146332731Y-89634979D01*
X146359514Y-89632100D01*
X173990787Y-89632100D01*
X174058908Y-89652102D01*
X174079882Y-89669005D01*
X174581382Y-90170505D01*
X174615408Y-90232817D01*
X174610343Y-90303632D01*
X174567796Y-90360468D01*
X174501276Y-90385279D01*
X174492287Y-90385600D01*
X173024936Y-90385600D01*
X173024926Y-90385601D01*
X172950699Y-90400365D01*
X172866515Y-90456616D01*
X172810266Y-90540797D01*
X172795500Y-90615030D01*
X172795500Y-91612797D01*
X172775498Y-91680918D01*
X172758596Y-91701891D01*
X172579595Y-91880896D01*
X172517284Y-91914922D01*
X172446468Y-91909858D01*
X172389632Y-91867312D01*
X172364820Y-91800792D01*
X172364499Y-91791802D01*
X172364499Y-90615036D01*
X172364498Y-90615027D01*
X172349734Y-90540799D01*
X172349733Y-90540797D01*
X172293484Y-90456616D01*
X172283981Y-90450266D01*
X172209302Y-90400366D01*
X172135067Y-90385600D01*
X170484936Y-90385600D01*
X170484926Y-90385601D01*
X170410699Y-90400365D01*
X170326515Y-90456616D01*
X170270266Y-90540797D01*
X170255500Y-90615030D01*
X170255500Y-92265163D01*
X170255501Y-92265173D01*
X170270265Y-92339400D01*
X170326516Y-92423584D01*
X170410697Y-92479833D01*
X170410699Y-92479834D01*
X170484933Y-92494600D01*
X171661721Y-92494599D01*
X171729842Y-92514601D01*
X171776335Y-92568257D01*
X171786439Y-92638531D01*
X171756946Y-92703111D01*
X171750817Y-92709693D01*
X168878981Y-95581594D01*
X168816670Y-95615620D01*
X168789885Y-95618500D01*
X148197759Y-95618500D01*
X148197743Y-95618499D01*
X148190025Y-95618499D01*
X148089575Y-95618499D01*
X148041061Y-95631498D01*
X147992545Y-95644498D01*
X147955779Y-95665726D01*
X147905556Y-95694721D01*
X147905551Y-95694725D01*
X147870038Y-95730239D01*
X147834524Y-95765753D01*
X147834522Y-95765755D01*
X145581681Y-98018595D01*
X145519369Y-98052621D01*
X145492586Y-98055500D01*
X144005036Y-98055500D01*
X144005026Y-98055501D01*
X143930799Y-98070265D01*
X143846615Y-98126516D01*
X143790366Y-98210696D01*
X143783678Y-98244319D01*
X143750769Y-98307229D01*
X143689073Y-98342359D01*
X143618179Y-98338558D01*
X143560593Y-98297032D01*
X143536520Y-98244315D01*
X143534674Y-98235036D01*
X143529834Y-98210699D01*
X143473584Y-98126516D01*
X143473583Y-98126515D01*
X143389402Y-98070266D01*
X143315167Y-98055500D01*
X141465036Y-98055500D01*
X141465026Y-98055501D01*
X141390799Y-98070265D01*
X141306615Y-98126516D01*
X141250366Y-98210697D01*
X141235600Y-98284930D01*
X141235600Y-100135063D01*
X141235601Y-100135073D01*
X141250365Y-100209300D01*
X141306616Y-100293484D01*
X141390797Y-100349733D01*
X141390799Y-100349734D01*
X141465033Y-100364500D01*
X143315166Y-100364499D01*
X143315169Y-100364498D01*
X143315173Y-100364498D01*
X143378787Y-100351845D01*
X143389401Y-100349734D01*
X143473584Y-100293484D01*
X143529834Y-100209301D01*
X143536521Y-100175682D01*
X143569428Y-100112773D01*
X143631122Y-100077640D01*
X143702017Y-100081440D01*
X143759604Y-100122965D01*
X143783679Y-100175682D01*
X143790366Y-100209301D01*
X143846616Y-100293484D01*
X143930797Y-100349733D01*
X143930799Y-100349734D01*
X144005033Y-100364500D01*
X145855166Y-100364499D01*
X145855169Y-100364498D01*
X145855173Y-100364498D01*
X145918787Y-100351845D01*
X145929401Y-100349734D01*
X146013584Y-100293484D01*
X146069834Y-100209301D01*
X146076521Y-100175682D01*
X146109428Y-100112773D01*
X146171122Y-100077640D01*
X146242017Y-100081440D01*
X146299604Y-100122965D01*
X146323679Y-100175682D01*
X146330366Y-100209301D01*
X146386616Y-100293484D01*
X146470797Y-100349733D01*
X146470799Y-100349734D01*
X146545033Y-100364500D01*
X148395166Y-100364499D01*
X148395169Y-100364498D01*
X148395173Y-100364498D01*
X148458787Y-100351845D01*
X148469401Y-100349734D01*
X148553584Y-100293484D01*
X148609834Y-100209301D01*
X148616521Y-100175682D01*
X148649428Y-100112773D01*
X148711122Y-100077640D01*
X148782017Y-100081440D01*
X148839604Y-100122965D01*
X148863679Y-100175682D01*
X148870366Y-100209301D01*
X148926616Y-100293484D01*
X149010797Y-100349733D01*
X149010799Y-100349734D01*
X149085033Y-100364500D01*
X150935166Y-100364499D01*
X150935169Y-100364498D01*
X150935173Y-100364498D01*
X150998787Y-100351845D01*
X151009401Y-100349734D01*
X151093584Y-100293484D01*
X151149834Y-100209301D01*
X151164600Y-100135067D01*
X151164599Y-98284934D01*
X151164598Y-98284930D01*
X151164598Y-98284926D01*
X151149834Y-98210699D01*
X151116490Y-98160797D01*
X151093584Y-98126516D01*
X151093583Y-98126515D01*
X151009402Y-98070266D01*
X150935167Y-98055500D01*
X149085036Y-98055500D01*
X149085026Y-98055501D01*
X149010799Y-98070265D01*
X148926615Y-98126516D01*
X148870366Y-98210696D01*
X148863678Y-98244319D01*
X148830769Y-98307229D01*
X148769073Y-98342359D01*
X148698179Y-98338558D01*
X148640593Y-98297032D01*
X148616520Y-98244315D01*
X148614674Y-98235036D01*
X148609834Y-98210699D01*
X148553584Y-98126516D01*
X148553583Y-98126515D01*
X148469402Y-98070266D01*
X148395169Y-98055500D01*
X148395167Y-98055500D01*
X146928011Y-98055500D01*
X146859890Y-98035498D01*
X146813397Y-97981842D01*
X146803293Y-97911568D01*
X146832787Y-97846988D01*
X146838900Y-97840420D01*
X147517091Y-97162230D01*
X152527200Y-97162230D01*
X152527200Y-98736363D01*
X152527201Y-98736373D01*
X152541965Y-98810600D01*
X152598216Y-98894784D01*
X152682397Y-98951033D01*
X152682399Y-98951034D01*
X152756633Y-98965800D01*
X154330766Y-98965799D01*
X154330769Y-98965798D01*
X154330773Y-98965798D01*
X154380026Y-98956001D01*
X154405001Y-98951034D01*
X154489184Y-98894784D01*
X154545434Y-98810601D01*
X154560200Y-98736367D01*
X154560199Y-98235030D01*
X157555500Y-98235030D01*
X157555500Y-99885163D01*
X157555501Y-99885173D01*
X157570265Y-99959400D01*
X157626516Y-100043584D01*
X157710697Y-100099833D01*
X157710699Y-100099834D01*
X157784933Y-100114600D01*
X159435066Y-100114599D01*
X159435069Y-100114598D01*
X159435073Y-100114598D01*
X159493207Y-100103035D01*
X159509301Y-100099834D01*
X159593484Y-100043584D01*
X159649734Y-99959401D01*
X159664500Y-99885167D01*
X159664499Y-98235034D01*
X159664499Y-98235033D01*
X159664499Y-98235031D01*
X159664499Y-98235030D01*
X160095500Y-98235030D01*
X160095500Y-99885163D01*
X160095501Y-99885173D01*
X160110265Y-99959400D01*
X160166516Y-100043584D01*
X160250697Y-100099833D01*
X160250699Y-100099834D01*
X160324933Y-100114600D01*
X161975066Y-100114599D01*
X161975069Y-100114598D01*
X161975073Y-100114598D01*
X162033207Y-100103035D01*
X162049301Y-100099834D01*
X162133484Y-100043584D01*
X162189734Y-99959401D01*
X162204500Y-99885167D01*
X162204499Y-98235034D01*
X162204499Y-98235033D01*
X162204499Y-98235031D01*
X162204499Y-98235030D01*
X162635500Y-98235030D01*
X162635500Y-99885163D01*
X162635501Y-99885173D01*
X162650265Y-99959400D01*
X162706516Y-100043584D01*
X162790697Y-100099833D01*
X162790699Y-100099834D01*
X162864933Y-100114600D01*
X164515066Y-100114599D01*
X164515069Y-100114598D01*
X164515073Y-100114598D01*
X164573207Y-100103035D01*
X164589301Y-100099834D01*
X164673484Y-100043584D01*
X164729734Y-99959401D01*
X164744500Y-99885167D01*
X164744499Y-98235034D01*
X164744499Y-98235033D01*
X164744499Y-98235031D01*
X164744499Y-98235030D01*
X165175500Y-98235030D01*
X165175500Y-99885163D01*
X165175501Y-99885173D01*
X165190265Y-99959400D01*
X165246516Y-100043584D01*
X165330697Y-100099833D01*
X165330699Y-100099834D01*
X165404933Y-100114600D01*
X167055066Y-100114599D01*
X167055069Y-100114598D01*
X167055073Y-100114598D01*
X167113207Y-100103035D01*
X167129301Y-100099834D01*
X167213484Y-100043584D01*
X167269734Y-99959401D01*
X167284500Y-99885167D01*
X167284499Y-98235034D01*
X167284498Y-98235031D01*
X167284498Y-98235026D01*
X167269734Y-98160799D01*
X167258458Y-98143924D01*
X167213484Y-98076616D01*
X167203981Y-98070266D01*
X167129302Y-98020366D01*
X167055067Y-98005600D01*
X165404936Y-98005600D01*
X165404926Y-98005601D01*
X165330699Y-98020365D01*
X165246515Y-98076616D01*
X165190266Y-98160797D01*
X165175500Y-98235030D01*
X164744499Y-98235030D01*
X164729734Y-98160799D01*
X164718458Y-98143924D01*
X164673484Y-98076616D01*
X164663981Y-98070266D01*
X164589302Y-98020366D01*
X164515067Y-98005600D01*
X162864936Y-98005600D01*
X162864926Y-98005601D01*
X162790699Y-98020365D01*
X162706515Y-98076616D01*
X162650266Y-98160797D01*
X162635500Y-98235030D01*
X162204499Y-98235030D01*
X162189734Y-98160799D01*
X162178458Y-98143924D01*
X162133484Y-98076616D01*
X162123981Y-98070266D01*
X162049302Y-98020366D01*
X161975067Y-98005600D01*
X160324936Y-98005600D01*
X160324926Y-98005601D01*
X160250699Y-98020365D01*
X160166515Y-98076616D01*
X160110266Y-98160797D01*
X160095500Y-98235030D01*
X159664499Y-98235030D01*
X159649734Y-98160799D01*
X159638458Y-98143924D01*
X159593484Y-98076616D01*
X159583981Y-98070266D01*
X159509302Y-98020366D01*
X159435067Y-98005600D01*
X157784936Y-98005600D01*
X157784926Y-98005601D01*
X157710699Y-98020365D01*
X157626515Y-98076616D01*
X157570266Y-98160797D01*
X157555500Y-98235030D01*
X154560199Y-98235030D01*
X154560199Y-97947553D01*
X154560199Y-97162236D01*
X154560198Y-97162226D01*
X154553928Y-97130708D01*
X154545434Y-97087999D01*
X154545433Y-97087998D01*
X154545434Y-97087998D01*
X154529763Y-97064546D01*
X154529762Y-97064545D01*
X154489183Y-97003815D01*
X154484566Y-97000730D01*
X179026800Y-97000730D01*
X179026800Y-98574863D01*
X179026801Y-98574873D01*
X179041565Y-98649100D01*
X179097816Y-98733284D01*
X179181997Y-98789533D01*
X179181999Y-98789534D01*
X179256233Y-98804300D01*
X180830366Y-98804299D01*
X180830369Y-98804298D01*
X180830373Y-98804298D01*
X180882559Y-98793918D01*
X180904601Y-98789534D01*
X180988784Y-98733284D01*
X181045034Y-98649101D01*
X181059800Y-98574867D01*
X181059799Y-97000734D01*
X181059798Y-97000730D01*
X181059798Y-97000726D01*
X181045034Y-96926499D01*
X180988783Y-96842315D01*
X180904602Y-96786066D01*
X180830367Y-96771300D01*
X179256236Y-96771300D01*
X179256226Y-96771301D01*
X179181999Y-96786065D01*
X179097815Y-96842316D01*
X179041566Y-96926497D01*
X179026800Y-97000730D01*
X154484566Y-97000730D01*
X154405002Y-96947566D01*
X154330767Y-96932800D01*
X152756636Y-96932800D01*
X152756626Y-96932801D01*
X152682399Y-96947565D01*
X152598215Y-97003816D01*
X152541966Y-97087997D01*
X152527200Y-97162230D01*
X147517091Y-97162230D01*
X148260917Y-96418405D01*
X148323229Y-96384379D01*
X148350012Y-96381500D01*
X168949875Y-96381500D01*
X168949879Y-96381501D01*
X169050329Y-96381500D01*
X169132347Y-96359522D01*
X169147354Y-96355501D01*
X169147354Y-96355500D01*
X169147355Y-96355500D01*
X169147357Y-96355500D01*
X169147358Y-96355499D01*
X169158031Y-96352639D01*
X169169056Y-96342971D01*
X169179198Y-96337116D01*
X169234347Y-96305276D01*
X169305376Y-96234247D01*
X169312547Y-96227076D01*
X169312560Y-96227060D01*
X172541054Y-92998495D01*
X173008034Y-92531505D01*
X173070345Y-92497479D01*
X173097130Y-92494599D01*
X174675064Y-92494599D01*
X174675066Y-92494599D01*
X174675069Y-92494598D01*
X174675072Y-92494598D01*
X174711663Y-92487319D01*
X174749301Y-92479834D01*
X174833484Y-92423584D01*
X174889734Y-92339401D01*
X174904500Y-92265167D01*
X174904499Y-90797811D01*
X174924501Y-90729691D01*
X174978157Y-90683198D01*
X175048431Y-90673094D01*
X175113011Y-90702587D01*
X175119594Y-90708717D01*
X175298595Y-90887718D01*
X175332621Y-90950030D01*
X175335500Y-90976813D01*
X175335500Y-92265163D01*
X175335501Y-92265173D01*
X175350265Y-92339400D01*
X175406516Y-92423584D01*
X175490697Y-92479833D01*
X175490699Y-92479834D01*
X175564933Y-92494600D01*
X177215066Y-92494599D01*
X177215069Y-92494598D01*
X177215073Y-92494598D01*
X177264326Y-92484801D01*
X177289301Y-92479834D01*
X177373484Y-92423584D01*
X177429734Y-92339401D01*
X177444500Y-92265167D01*
X177444499Y-90615034D01*
X177444498Y-90615031D01*
X177444498Y-90615026D01*
X177429734Y-90540799D01*
X177429733Y-90540797D01*
X177373484Y-90456616D01*
X177363981Y-90450266D01*
X177289302Y-90400366D01*
X177215069Y-90385600D01*
X177215067Y-90385600D01*
X175927713Y-90385600D01*
X175859592Y-90365598D01*
X175838618Y-90348695D01*
X174435253Y-88945329D01*
X174435243Y-88945321D01*
X174348258Y-88895100D01*
X174336792Y-88892027D01*
X174251225Y-88869100D01*
X146099075Y-88869100D01*
X146039690Y-88885012D01*
X146002041Y-88895100D01*
X145915056Y-88945321D01*
X145915046Y-88945329D01*
X144695853Y-90164524D01*
X144660339Y-90200038D01*
X144624825Y-90235551D01*
X144624821Y-90235556D01*
X144574599Y-90322544D01*
X144569356Y-90342112D01*
X144532405Y-90402734D01*
X144468544Y-90433756D01*
X144447650Y-90435500D01*
X144005036Y-90435500D01*
X144005026Y-90435501D01*
X143930799Y-90450265D01*
X143846615Y-90506516D01*
X143790366Y-90590697D01*
X143775600Y-90664930D01*
X143775600Y-92515063D01*
X143775601Y-92515073D01*
X143790365Y-92589300D01*
X143846616Y-92673484D01*
X143930797Y-92729733D01*
X143930799Y-92729734D01*
X144005033Y-92744500D01*
X145855166Y-92744499D01*
X145855169Y-92744498D01*
X145855173Y-92744498D01*
X145904426Y-92734701D01*
X145929401Y-92729734D01*
X146013584Y-92673484D01*
X146069834Y-92589301D01*
X146076521Y-92555682D01*
X146109428Y-92492773D01*
X146171122Y-92457640D01*
X146242017Y-92461440D01*
X146299604Y-92502965D01*
X146323679Y-92555682D01*
X146330366Y-92589301D01*
X146386616Y-92673484D01*
X146470797Y-92729733D01*
X146470799Y-92729734D01*
X146545033Y-92744500D01*
X148395166Y-92744499D01*
X148395169Y-92744498D01*
X148395173Y-92744498D01*
X148444426Y-92734701D01*
X148469401Y-92729734D01*
X148553584Y-92673484D01*
X148609834Y-92589301D01*
X148616521Y-92555682D01*
X148649428Y-92492773D01*
X148711122Y-92457640D01*
X148782017Y-92461440D01*
X148839604Y-92502965D01*
X148863679Y-92555682D01*
X148870366Y-92589301D01*
X148893109Y-92623338D01*
X148914324Y-92691090D01*
X148895541Y-92759557D01*
X148877440Y-92782435D01*
X148077882Y-93581995D01*
X148015569Y-93616020D01*
X147988786Y-93618900D01*
X136212207Y-93618900D01*
X136144086Y-93598898D01*
X136123114Y-93581998D01*
X135650147Y-93109055D01*
X135130367Y-92589300D01*
X134596107Y-92055067D01*
X134562080Y-91992755D01*
X134559200Y-91965969D01*
X134559200Y-91926268D01*
X134554803Y-91909858D01*
X134521084Y-91784018D01*
X134447451Y-91656482D01*
X134447449Y-91656480D01*
X134447445Y-91656475D01*
X134343324Y-91552354D01*
X134343314Y-91552346D01*
X134215782Y-91478716D01*
X134073533Y-91440600D01*
X133926267Y-91440600D01*
X133831434Y-91466010D01*
X133784017Y-91478716D01*
X133656485Y-91552346D01*
X133656475Y-91552354D01*
X133552354Y-91656475D01*
X133552346Y-91656485D01*
X133478716Y-91784017D01*
X133440600Y-91926268D01*
X133440600Y-92073531D01*
X133440599Y-92073531D01*
X133478716Y-92215782D01*
X133552346Y-92343314D01*
X133552348Y-92343317D01*
X133552349Y-92343318D01*
X133581595Y-92372564D01*
X133615620Y-92434874D01*
X133618500Y-92461659D01*
X133618500Y-94289787D01*
X133598498Y-94357908D01*
X133581595Y-94378882D01*
X130878882Y-97081595D01*
X130816570Y-97115621D01*
X130789787Y-97118500D01*
X128961760Y-97118500D01*
X128893639Y-97098498D01*
X128872665Y-97081595D01*
X128843524Y-97052454D01*
X128843514Y-97052446D01*
X128715982Y-96978816D01*
X128573733Y-96940700D01*
X128426467Y-96940700D01*
X128331634Y-96966110D01*
X128284217Y-96978816D01*
X128156685Y-97052446D01*
X128156675Y-97052454D01*
X128052554Y-97156575D01*
X128052546Y-97156585D01*
X127978916Y-97284117D01*
X127940800Y-97426368D01*
X127940800Y-97573631D01*
X127940799Y-97573631D01*
X116111654Y-97573631D01*
X114591605Y-96053582D01*
X114557579Y-95991270D01*
X114554700Y-95964487D01*
X114554700Y-94571399D01*
X114574702Y-94503278D01*
X114628358Y-94456785D01*
X114680700Y-94445399D01*
X114961064Y-94445399D01*
X114961066Y-94445399D01*
X114961069Y-94445398D01*
X114961072Y-94445398D01*
X114997663Y-94438119D01*
X115035301Y-94430634D01*
X115119484Y-94374384D01*
X115175734Y-94290201D01*
X115190500Y-94215967D01*
X115190499Y-92641834D01*
X115190498Y-92641830D01*
X115190498Y-92641826D01*
X115175734Y-92567599D01*
X115148838Y-92527347D01*
X115148837Y-92527346D01*
X115119484Y-92483416D01*
X115119482Y-92483415D01*
X115119482Y-92483414D01*
X115089724Y-92463530D01*
X118239800Y-92463530D01*
X118239800Y-94037663D01*
X118239801Y-94037673D01*
X118254565Y-94111900D01*
X118310816Y-94196084D01*
X118394997Y-94252333D01*
X118394999Y-94252334D01*
X118469233Y-94267100D01*
X120043366Y-94267099D01*
X120043369Y-94267098D01*
X120043373Y-94267098D01*
X120092626Y-94257301D01*
X120117601Y-94252334D01*
X120201784Y-94196084D01*
X120258034Y-94111901D01*
X120272800Y-94037667D01*
X120272799Y-92463534D01*
X120272798Y-92463530D01*
X120272798Y-92463526D01*
X120258034Y-92389299D01*
X120258033Y-92389297D01*
X120201784Y-92305116D01*
X120201783Y-92305115D01*
X120117602Y-92248866D01*
X120043367Y-92234100D01*
X118469236Y-92234100D01*
X118469226Y-92234101D01*
X118394999Y-92248865D01*
X118310815Y-92305116D01*
X118254566Y-92389297D01*
X118239800Y-92463530D01*
X115089724Y-92463530D01*
X115035302Y-92427166D01*
X114961067Y-92412400D01*
X113386936Y-92412400D01*
X113386926Y-92412401D01*
X113312699Y-92427165D01*
X113228515Y-92483416D01*
X113172266Y-92567597D01*
X113157500Y-92641830D01*
X100500500Y-92641830D01*
X100500500Y-80713030D01*
X108983500Y-80713030D01*
X108983500Y-82287163D01*
X108983501Y-82287173D01*
X108998265Y-82361400D01*
X109054516Y-82445584D01*
X109138697Y-82501833D01*
X109138699Y-82501834D01*
X109212933Y-82516600D01*
X109492501Y-82516599D01*
X109560620Y-82536601D01*
X109607113Y-82590256D01*
X109618500Y-82642599D01*
X109618500Y-85050223D01*
X109618499Y-85050223D01*
X109644500Y-85147258D01*
X109694721Y-85234243D01*
X109694729Y-85234253D01*
X111765646Y-87305170D01*
X111765651Y-87305174D01*
X111765653Y-87305176D01*
X111852647Y-87355402D01*
X111949675Y-87381401D01*
X111949677Y-87381401D01*
X112057843Y-87381401D01*
X112057859Y-87381400D01*
X135523240Y-87381400D01*
X135591361Y-87401402D01*
X135637854Y-87455058D01*
X135647958Y-87525332D01*
X135618464Y-87589912D01*
X135612335Y-87596495D01*
X135552354Y-87656475D01*
X135552346Y-87656485D01*
X135478716Y-87784017D01*
X135440600Y-87926268D01*
X135440600Y-87967686D01*
X135420598Y-88035807D01*
X135403695Y-88056781D01*
X130461980Y-92998495D01*
X130399668Y-93032521D01*
X130372885Y-93035400D01*
X128885136Y-93035400D01*
X128885126Y-93035401D01*
X128810899Y-93050165D01*
X128726715Y-93106416D01*
X128670466Y-93190596D01*
X128663778Y-93224219D01*
X128630869Y-93287129D01*
X128569173Y-93322259D01*
X128498279Y-93318458D01*
X128440693Y-93276932D01*
X128416620Y-93224215D01*
X128409934Y-93190599D01*
X128353683Y-93106415D01*
X128269502Y-93050166D01*
X128195267Y-93035400D01*
X126345136Y-93035400D01*
X126345126Y-93035401D01*
X126270899Y-93050165D01*
X126186715Y-93106416D01*
X126130466Y-93190596D01*
X126123778Y-93224219D01*
X126090869Y-93287129D01*
X126029173Y-93322259D01*
X125958279Y-93318458D01*
X125900693Y-93276932D01*
X125876620Y-93224215D01*
X125869934Y-93190599D01*
X125813683Y-93106415D01*
X125729502Y-93050166D01*
X125655267Y-93035400D01*
X123805136Y-93035400D01*
X123805126Y-93035401D01*
X123730899Y-93050165D01*
X123646715Y-93106416D01*
X123590466Y-93190596D01*
X123583778Y-93224219D01*
X123550869Y-93287129D01*
X123489173Y-93322259D01*
X123418279Y-93318458D01*
X123360693Y-93276932D01*
X123336620Y-93224215D01*
X123329934Y-93190599D01*
X123273683Y-93106415D01*
X123189502Y-93050166D01*
X123115267Y-93035400D01*
X121265136Y-93035400D01*
X121265126Y-93035401D01*
X121190899Y-93050165D01*
X121106715Y-93106416D01*
X121050466Y-93190597D01*
X121035700Y-93264830D01*
X121035700Y-95114963D01*
X121035701Y-95114973D01*
X121050465Y-95189200D01*
X121106716Y-95273384D01*
X121190897Y-95329633D01*
X121190899Y-95329634D01*
X121265133Y-95344400D01*
X123115266Y-95344399D01*
X123115269Y-95344398D01*
X123115273Y-95344398D01*
X123164526Y-95334601D01*
X123189501Y-95329634D01*
X123273684Y-95273384D01*
X123329934Y-95189201D01*
X123336621Y-95155582D01*
X123369528Y-95092673D01*
X123431222Y-95057540D01*
X123502117Y-95061340D01*
X123559704Y-95102865D01*
X123583779Y-95155582D01*
X123590466Y-95189201D01*
X123646716Y-95273384D01*
X123730897Y-95329633D01*
X123730899Y-95329634D01*
X123805133Y-95344400D01*
X125655266Y-95344399D01*
X125655269Y-95344398D01*
X125655273Y-95344398D01*
X125704526Y-95334601D01*
X125729501Y-95329634D01*
X125813684Y-95273384D01*
X125869934Y-95189201D01*
X125876621Y-95155582D01*
X125909528Y-95092673D01*
X125971222Y-95057540D01*
X126042117Y-95061340D01*
X126099704Y-95102865D01*
X126123779Y-95155582D01*
X126130466Y-95189201D01*
X126186716Y-95273384D01*
X126270897Y-95329633D01*
X126270899Y-95329634D01*
X126345133Y-95344400D01*
X128195266Y-95344399D01*
X128195269Y-95344398D01*
X128195273Y-95344398D01*
X128244526Y-95334601D01*
X128269501Y-95329634D01*
X128353684Y-95273384D01*
X128409934Y-95189201D01*
X128416621Y-95155582D01*
X128449528Y-95092673D01*
X128511222Y-95057540D01*
X128582117Y-95061340D01*
X128639704Y-95102865D01*
X128663779Y-95155582D01*
X128670466Y-95189201D01*
X128726716Y-95273384D01*
X128810897Y-95329633D01*
X128810899Y-95329634D01*
X128885133Y-95344400D01*
X130735266Y-95344399D01*
X130735269Y-95344398D01*
X130735273Y-95344398D01*
X130784526Y-95334601D01*
X130809501Y-95329634D01*
X130893684Y-95273384D01*
X130949934Y-95189201D01*
X130964700Y-95114967D01*
X130964699Y-93627011D01*
X130984701Y-93558891D01*
X131001599Y-93537922D01*
X135943418Y-88596105D01*
X136005730Y-88562079D01*
X136032513Y-88559200D01*
X136073531Y-88559200D01*
X136073533Y-88559200D01*
X136215782Y-88521084D01*
X136343318Y-88447451D01*
X136447451Y-88343318D01*
X136521084Y-88215782D01*
X136559200Y-88073533D01*
X136559200Y-87926267D01*
X136521084Y-87784018D01*
X136447451Y-87656482D01*
X136447449Y-87656480D01*
X136447445Y-87656475D01*
X136387465Y-87596495D01*
X136353439Y-87534183D01*
X136358504Y-87463368D01*
X136401051Y-87406532D01*
X136467571Y-87381721D01*
X136476560Y-87381400D01*
X140038340Y-87381400D01*
X140106461Y-87401402D01*
X140127435Y-87418305D01*
X140156575Y-87447445D01*
X140156580Y-87447449D01*
X140156582Y-87447451D01*
X140156583Y-87447452D01*
X140156585Y-87447453D01*
X140184151Y-87463368D01*
X140284118Y-87521084D01*
X140426367Y-87559200D01*
X140426369Y-87559200D01*
X140573631Y-87559200D01*
X140573633Y-87559200D01*
X140715882Y-87521084D01*
X140843418Y-87447451D01*
X140947551Y-87343318D01*
X141021184Y-87215782D01*
X141059300Y-87073533D01*
X141059300Y-86926267D01*
X141021184Y-86784018D01*
X140947551Y-86656482D01*
X140947549Y-86656480D01*
X140947545Y-86656475D01*
X140843424Y-86552354D01*
X140843414Y-86552346D01*
X140715882Y-86478716D01*
X140573633Y-86440600D01*
X140426367Y-86440600D01*
X140331534Y-86466010D01*
X140284117Y-86478716D01*
X140156585Y-86552346D01*
X140156575Y-86552354D01*
X140127435Y-86581495D01*
X140065123Y-86615521D01*
X140038340Y-86618400D01*
X112210113Y-86618400D01*
X112141992Y-86598398D01*
X112121018Y-86581495D01*
X110418405Y-84878882D01*
X110384379Y-84816570D01*
X110381500Y-84789787D01*
X110381500Y-82642599D01*
X110401502Y-82574478D01*
X110455158Y-82527985D01*
X110507500Y-82516599D01*
X110787064Y-82516599D01*
X110787066Y-82516599D01*
X110787069Y-82516598D01*
X110787072Y-82516598D01*
X110823663Y-82509319D01*
X110861301Y-82501834D01*
X110945484Y-82445584D01*
X111001734Y-82361401D01*
X111016500Y-82287167D01*
X111016499Y-80713034D01*
X111016498Y-80713030D01*
X111016498Y-80713026D01*
X111001734Y-80638799D01*
X110945483Y-80554615D01*
X110861302Y-80498366D01*
X110787067Y-80483600D01*
X109212936Y-80483600D01*
X109212926Y-80483601D01*
X109138699Y-80498365D01*
X109054515Y-80554616D01*
X108998266Y-80638797D01*
X108983500Y-80713030D01*
X100500500Y-80713030D01*
X100500500Y-72713030D01*
X108983500Y-72713030D01*
X108983500Y-74287163D01*
X108983501Y-74287173D01*
X108998265Y-74361400D01*
X109054516Y-74445584D01*
X109138697Y-74501833D01*
X109138699Y-74501834D01*
X109212933Y-74516600D01*
X110787066Y-74516599D01*
X110787069Y-74516598D01*
X110787073Y-74516598D01*
X110836326Y-74506801D01*
X110861301Y-74501834D01*
X110945484Y-74445584D01*
X111001734Y-74361401D01*
X111016500Y-74287167D01*
X111016499Y-72713034D01*
X111016498Y-72713030D01*
X111016498Y-72713026D01*
X111001734Y-72638799D01*
X110945483Y-72554615D01*
X110861302Y-72498366D01*
X110787067Y-72483600D01*
X109212936Y-72483600D01*
X109212926Y-72483601D01*
X109138699Y-72498365D01*
X109054515Y-72554616D01*
X108998266Y-72638797D01*
X108983500Y-72713030D01*
X100500500Y-72713030D01*
X100500500Y-70185142D01*
X112499294Y-70185142D01*
X112499300Y-70249961D01*
X112499300Y-70251038D01*
X112499300Y-84184008D01*
X112499300Y-84315792D01*
X112524267Y-84408973D01*
X112533407Y-84443083D01*
X112533410Y-84443090D01*
X112599297Y-84557210D01*
X112599305Y-84557220D01*
X112692479Y-84650394D01*
X112692484Y-84650398D01*
X112692486Y-84650400D01*
X112806614Y-84716292D01*
X112933908Y-84750400D01*
X112933910Y-84750400D01*
X126065690Y-84750400D01*
X126065692Y-84750400D01*
X126192986Y-84716292D01*
X126307114Y-84650400D01*
X126400300Y-84557214D01*
X126466192Y-84443086D01*
X126500300Y-84315792D01*
X126500300Y-80713030D01*
X139483500Y-80713030D01*
X139483500Y-82287163D01*
X139483501Y-82287173D01*
X139498265Y-82361400D01*
X139554516Y-82445584D01*
X139638697Y-82501833D01*
X139638699Y-82501834D01*
X139712933Y-82516600D01*
X141287066Y-82516599D01*
X141287069Y-82516598D01*
X141287073Y-82516598D01*
X141336326Y-82506801D01*
X141361301Y-82501834D01*
X141445484Y-82445584D01*
X141501734Y-82361401D01*
X141516500Y-82287167D01*
X141516499Y-80713034D01*
X141516498Y-80713030D01*
X141516498Y-80713026D01*
X141501734Y-80638799D01*
X141445483Y-80554615D01*
X141361302Y-80498366D01*
X141287067Y-80483600D01*
X139712936Y-80483600D01*
X139712926Y-80483601D01*
X139638699Y-80498365D01*
X139554515Y-80554616D01*
X139498266Y-80638797D01*
X139483500Y-80713030D01*
X126500300Y-80713030D01*
X126500300Y-72713030D01*
X139483500Y-72713030D01*
X139483500Y-74287163D01*
X139483501Y-74287173D01*
X139498265Y-74361400D01*
X139554516Y-74445584D01*
X139638697Y-74501833D01*
X139638699Y-74501834D01*
X139712933Y-74516600D01*
X141287066Y-74516599D01*
X141287069Y-74516598D01*
X141287073Y-74516598D01*
X141336326Y-74506801D01*
X141361301Y-74501834D01*
X141445484Y-74445584D01*
X141501734Y-74361401D01*
X141516500Y-74287167D01*
X141516499Y-72713034D01*
X141516498Y-72713030D01*
X141516498Y-72713026D01*
X141501734Y-72638799D01*
X141445483Y-72554615D01*
X141361302Y-72498366D01*
X141287067Y-72483600D01*
X139712936Y-72483600D01*
X139712926Y-72483601D01*
X139638699Y-72498365D01*
X139554515Y-72554616D01*
X139498266Y-72638797D01*
X139483500Y-72713030D01*
X126500300Y-72713030D01*
X126500300Y-70324438D01*
X126500305Y-70324349D01*
X126500304Y-70315855D01*
X126500305Y-70315853D01*
X126500300Y-70249961D01*
X126500300Y-70185146D01*
X143249294Y-70185146D01*
X143249300Y-70249961D01*
X143249300Y-70251038D01*
X143249300Y-84184008D01*
X143249300Y-84315792D01*
X143274267Y-84408973D01*
X143283407Y-84443083D01*
X143283410Y-84443090D01*
X143349297Y-84557210D01*
X143349305Y-84557220D01*
X143442479Y-84650394D01*
X143442484Y-84650398D01*
X143442486Y-84650400D01*
X143556614Y-84716292D01*
X143683908Y-84750400D01*
X143683910Y-84750400D01*
X156815790Y-84750400D01*
X156815792Y-84750400D01*
X156943086Y-84716292D01*
X157057214Y-84650400D01*
X157150400Y-84557214D01*
X157216292Y-84443086D01*
X157250400Y-84315792D01*
X157250400Y-80713030D01*
X172483500Y-80713030D01*
X172483500Y-82287163D01*
X172483501Y-82287173D01*
X172498265Y-82361400D01*
X172554516Y-82445584D01*
X172638697Y-82501833D01*
X172638699Y-82501834D01*
X172712933Y-82516600D01*
X174287066Y-82516599D01*
X174287069Y-82516598D01*
X174287073Y-82516598D01*
X174336326Y-82506801D01*
X174361301Y-82501834D01*
X174445484Y-82445584D01*
X174501734Y-82361401D01*
X174516500Y-82287167D01*
X174516499Y-80713034D01*
X174516498Y-80713030D01*
X174516498Y-80713026D01*
X174501734Y-80638799D01*
X174445483Y-80554615D01*
X174361302Y-80498366D01*
X174287067Y-80483600D01*
X172712936Y-80483600D01*
X172712926Y-80483601D01*
X172638699Y-80498365D01*
X172554515Y-80554616D01*
X172498266Y-80638797D01*
X172483500Y-80713030D01*
X157250400Y-80713030D01*
X157250400Y-72713030D01*
X172483500Y-72713030D01*
X172483500Y-74287163D01*
X172483501Y-74287173D01*
X172498265Y-74361400D01*
X172554516Y-74445584D01*
X172638697Y-74501833D01*
X172638699Y-74501834D01*
X172712933Y-74516600D01*
X174287066Y-74516599D01*
X174287069Y-74516598D01*
X174287073Y-74516598D01*
X174336326Y-74506801D01*
X174361301Y-74501834D01*
X174445484Y-74445584D01*
X174501734Y-74361401D01*
X174516500Y-74287167D01*
X174516499Y-72713034D01*
X174516498Y-72713030D01*
X174516498Y-72713026D01*
X174501734Y-72638799D01*
X174445483Y-72554615D01*
X174361302Y-72498366D01*
X174287067Y-72483600D01*
X172712936Y-72483600D01*
X172712926Y-72483601D01*
X172638699Y-72498365D01*
X172554515Y-72554616D01*
X172498266Y-72638797D01*
X172483500Y-72713030D01*
X157250400Y-72713030D01*
X157250400Y-70324438D01*
X157250405Y-70324350D01*
X157250404Y-70315856D01*
X157250405Y-70315854D01*
X157250400Y-70249962D01*
X157250400Y-70185146D01*
X175999294Y-70185146D01*
X175999300Y-70249961D01*
X175999300Y-70251038D01*
X175999300Y-84184008D01*
X175999300Y-84315792D01*
X176024267Y-84408973D01*
X176033407Y-84443083D01*
X176033410Y-84443090D01*
X176099297Y-84557210D01*
X176099305Y-84557220D01*
X176192479Y-84650394D01*
X176192484Y-84650398D01*
X176192486Y-84650400D01*
X176306614Y-84716292D01*
X176433908Y-84750400D01*
X176433910Y-84750400D01*
X189565790Y-84750400D01*
X189565792Y-84750400D01*
X189693086Y-84716292D01*
X189807214Y-84650400D01*
X189900400Y-84557214D01*
X189966292Y-84443086D01*
X190000400Y-84315792D01*
X190000400Y-70324438D01*
X190000405Y-70324350D01*
X190000404Y-70315856D01*
X190000405Y-70315854D01*
X190000400Y-70249962D01*
X190000400Y-70184108D01*
X190000398Y-70184101D01*
X190000395Y-70184078D01*
X190000395Y-70184070D01*
X189983614Y-70121462D01*
X189966292Y-70056814D01*
X189966282Y-70056796D01*
X189966277Y-70056778D01*
X189934206Y-70001240D01*
X189900400Y-69942686D01*
X189900385Y-69942671D01*
X189900376Y-69942655D01*
X189853779Y-69896065D01*
X189807214Y-69849500D01*
X189807213Y-69849499D01*
X189807207Y-69849493D01*
X189807188Y-69849478D01*
X189748592Y-69815654D01*
X189748585Y-69815650D01*
X189693066Y-69783596D01*
X189629975Y-69766697D01*
X189629967Y-69766692D01*
X189629967Y-69766695D01*
X189565782Y-69749497D01*
X189565758Y-69749494D01*
X189500744Y-69749500D01*
X189426338Y-69749500D01*
X189426246Y-69749505D01*
X176498879Y-69750500D01*
X176433889Y-69750500D01*
X176382534Y-69764263D01*
X176382529Y-69764265D01*
X176371262Y-69767285D01*
X176306614Y-69784608D01*
X176306596Y-69784617D01*
X176306578Y-69784623D01*
X176251040Y-69816693D01*
X176192486Y-69850500D01*
X176192471Y-69850514D01*
X176192455Y-69850524D01*
X176145865Y-69897120D01*
X176099300Y-69943686D01*
X176099290Y-69943702D01*
X176099276Y-69943717D01*
X176065454Y-70002307D01*
X176033408Y-70057814D01*
X176033402Y-70057832D01*
X176033393Y-70057850D01*
X176016065Y-70122536D01*
X176013045Y-70133803D01*
X176013044Y-70133808D01*
X175999299Y-70185110D01*
X175999294Y-70185146D01*
X157250400Y-70185146D01*
X157250400Y-70184108D01*
X157250395Y-70184089D01*
X157250395Y-70184070D01*
X157233614Y-70121462D01*
X157216292Y-70056814D01*
X157216282Y-70056796D01*
X157216277Y-70056778D01*
X157184206Y-70001240D01*
X157157447Y-69954891D01*
X157150518Y-69942890D01*
X157150404Y-69942690D01*
X157150381Y-69942660D01*
X157103779Y-69896065D01*
X157103779Y-69896064D01*
X157103775Y-69896061D01*
X157057214Y-69849500D01*
X157057213Y-69849499D01*
X157057207Y-69849493D01*
X157057188Y-69849478D01*
X156998592Y-69815654D01*
X156998585Y-69815650D01*
X156943066Y-69783596D01*
X156879975Y-69766697D01*
X156879967Y-69766692D01*
X156879967Y-69766695D01*
X156815782Y-69749497D01*
X156815758Y-69749494D01*
X156750744Y-69749500D01*
X156676338Y-69749500D01*
X156676246Y-69749505D01*
X143748879Y-69750500D01*
X143683889Y-69750500D01*
X143632534Y-69764263D01*
X143632529Y-69764265D01*
X143621262Y-69767285D01*
X143556614Y-69784608D01*
X143556596Y-69784617D01*
X143556578Y-69784623D01*
X143501040Y-69816693D01*
X143442486Y-69850500D01*
X143442471Y-69850514D01*
X143442455Y-69850524D01*
X143395865Y-69897120D01*
X143349300Y-69943686D01*
X143349290Y-69943702D01*
X143349276Y-69943717D01*
X143315454Y-70002307D01*
X143283408Y-70057814D01*
X143283402Y-70057832D01*
X143283393Y-70057850D01*
X143266065Y-70122536D01*
X143263045Y-70133803D01*
X143263044Y-70133808D01*
X143249299Y-70185110D01*
X143249294Y-70185146D01*
X126500300Y-70185146D01*
X126500300Y-70184108D01*
X126500295Y-70184089D01*
X126500295Y-70184070D01*
X126483514Y-70121462D01*
X126466192Y-70056814D01*
X126466182Y-70056796D01*
X126466177Y-70056778D01*
X126434106Y-70001240D01*
X126407347Y-69954891D01*
X126400418Y-69942890D01*
X126400304Y-69942690D01*
X126400281Y-69942660D01*
X126353679Y-69896065D01*
X126353679Y-69896064D01*
X126353675Y-69896061D01*
X126307114Y-69849500D01*
X126307113Y-69849499D01*
X126307107Y-69849493D01*
X126307088Y-69849478D01*
X126248492Y-69815654D01*
X126248485Y-69815650D01*
X126192966Y-69783596D01*
X126129875Y-69766697D01*
X126129867Y-69766692D01*
X126129867Y-69766695D01*
X126065682Y-69749497D01*
X126065658Y-69749494D01*
X126000644Y-69749500D01*
X125926238Y-69749500D01*
X125926146Y-69749505D01*
X112998879Y-69750500D01*
X112933889Y-69750500D01*
X112882534Y-69764263D01*
X112882529Y-69764265D01*
X112871262Y-69767285D01*
X112806614Y-69784608D01*
X112806596Y-69784617D01*
X112806578Y-69784623D01*
X112751040Y-69816693D01*
X112692486Y-69850500D01*
X112692471Y-69850514D01*
X112692455Y-69850524D01*
X112645865Y-69897120D01*
X112599300Y-69943686D01*
X112599290Y-69943702D01*
X112599276Y-69943717D01*
X112592826Y-69954891D01*
X112565457Y-70002302D01*
X112565454Y-70002307D01*
X112533397Y-70057831D01*
X112516497Y-70120924D01*
X112516495Y-70120931D01*
X112499298Y-70185114D01*
X112499294Y-70185142D01*
X100500500Y-70185142D01*
X100500500Y-66386930D01*
X113394700Y-66386930D01*
X113394700Y-67961063D01*
X113394701Y-67961073D01*
X113409465Y-68035300D01*
X113465716Y-68119484D01*
X113549897Y-68175733D01*
X113549899Y-68175734D01*
X113624133Y-68190500D01*
X115198266Y-68190499D01*
X115198269Y-68190498D01*
X115198273Y-68190498D01*
X115247526Y-68180701D01*
X115272501Y-68175734D01*
X115356684Y-68119484D01*
X115412934Y-68035301D01*
X115427700Y-67961067D01*
X115427699Y-66386934D01*
X115427699Y-66386933D01*
X115427699Y-66386931D01*
X115427699Y-66386930D01*
X144144700Y-66386930D01*
X144144700Y-67961063D01*
X144144701Y-67961073D01*
X144159465Y-68035300D01*
X144215716Y-68119484D01*
X144299897Y-68175733D01*
X144299899Y-68175734D01*
X144374133Y-68190500D01*
X145948266Y-68190499D01*
X145948269Y-68190498D01*
X145948273Y-68190498D01*
X145997526Y-68180701D01*
X146022501Y-68175734D01*
X146106684Y-68119484D01*
X146162934Y-68035301D01*
X146177700Y-67961067D01*
X146177699Y-66386934D01*
X146177699Y-66386933D01*
X146177699Y-66386931D01*
X146177699Y-66386930D01*
X176894700Y-66386930D01*
X176894700Y-67961063D01*
X176894701Y-67961073D01*
X176909465Y-68035300D01*
X176965716Y-68119484D01*
X177049897Y-68175733D01*
X177049899Y-68175734D01*
X177124133Y-68190500D01*
X178698266Y-68190499D01*
X178698269Y-68190498D01*
X178698273Y-68190498D01*
X178747526Y-68180701D01*
X178772501Y-68175734D01*
X178856684Y-68119484D01*
X178912934Y-68035301D01*
X178927700Y-67961067D01*
X178927699Y-66386934D01*
X178927698Y-66386931D01*
X178927698Y-66386926D01*
X178912934Y-66312699D01*
X178856683Y-66228515D01*
X178772502Y-66172266D01*
X178698267Y-66157500D01*
X177124136Y-66157500D01*
X177124126Y-66157501D01*
X177049899Y-66172265D01*
X176965715Y-66228516D01*
X176909466Y-66312697D01*
X176894700Y-66386930D01*
X146177699Y-66386930D01*
X146162934Y-66312699D01*
X146106683Y-66228515D01*
X146022502Y-66172266D01*
X145948267Y-66157500D01*
X144374136Y-66157500D01*
X144374126Y-66157501D01*
X144299899Y-66172265D01*
X144215715Y-66228516D01*
X144159466Y-66312697D01*
X144144700Y-66386930D01*
X115427699Y-66386930D01*
X115412934Y-66312699D01*
X115356683Y-66228515D01*
X115272502Y-66172266D01*
X115198267Y-66157500D01*
X113624136Y-66157500D01*
X113624126Y-66157501D01*
X113549899Y-66172265D01*
X113465715Y-66228516D01*
X113409466Y-66312697D01*
X113394700Y-66386930D01*
X100500500Y-66386930D01*
X100500500Y-60732830D01*
X114483600Y-60732830D01*
X114483600Y-62306963D01*
X114483601Y-62306973D01*
X114498365Y-62381200D01*
X114554616Y-62465384D01*
X114638797Y-62521633D01*
X114638799Y-62521634D01*
X114713033Y-62536400D01*
X116287166Y-62536399D01*
X116287169Y-62536398D01*
X116287173Y-62536398D01*
X116336426Y-62526601D01*
X116361401Y-62521634D01*
X116445584Y-62465384D01*
X116501834Y-62381201D01*
X116516600Y-62306967D01*
X116516599Y-60732834D01*
X116516598Y-60732830D01*
X116516598Y-60732826D01*
X116501834Y-60658599D01*
X116445583Y-60574415D01*
X116361402Y-60518166D01*
X116287167Y-60503400D01*
X114713036Y-60503400D01*
X114713026Y-60503401D01*
X114638799Y-60518165D01*
X114554615Y-60574416D01*
X114498366Y-60658597D01*
X114483600Y-60732830D01*
X100500500Y-60732830D01*
X100500500Y-60324930D01*
X128595500Y-60324930D01*
X128595500Y-61675063D01*
X128595501Y-61675073D01*
X128610265Y-61749300D01*
X128666516Y-61833484D01*
X128750697Y-61889733D01*
X128750699Y-61889734D01*
X128824933Y-61904500D01*
X130175066Y-61904499D01*
X130175069Y-61904498D01*
X130175073Y-61904498D01*
X130224326Y-61894701D01*
X130249301Y-61889734D01*
X130333484Y-61833484D01*
X130389734Y-61749301D01*
X130404500Y-61675067D01*
X130404499Y-60474930D01*
X130745300Y-60474930D01*
X130745300Y-61525063D01*
X130745301Y-61525073D01*
X130760065Y-61599300D01*
X130816316Y-61683484D01*
X130900497Y-61739733D01*
X130900499Y-61739734D01*
X130974733Y-61754500D01*
X132024866Y-61754499D01*
X132024869Y-61754498D01*
X132024873Y-61754498D01*
X132074126Y-61744701D01*
X132099101Y-61739734D01*
X132183284Y-61683484D01*
X132239534Y-61599301D01*
X132254300Y-61525067D01*
X132254299Y-60474934D01*
X132254299Y-60474933D01*
X132254299Y-60474931D01*
X132254299Y-60474930D01*
X132745500Y-60474930D01*
X132745500Y-61525063D01*
X132745501Y-61525073D01*
X132760265Y-61599300D01*
X132816516Y-61683484D01*
X132900697Y-61739733D01*
X132900699Y-61739734D01*
X132974933Y-61754500D01*
X134025066Y-61754499D01*
X134025069Y-61754498D01*
X134025073Y-61754498D01*
X134074326Y-61744701D01*
X134099301Y-61739734D01*
X134183484Y-61683484D01*
X134239734Y-61599301D01*
X134254500Y-61525067D01*
X134254499Y-60474934D01*
X134254499Y-60474933D01*
X134254499Y-60474931D01*
X134254499Y-60474930D01*
X134745650Y-60474930D01*
X134745650Y-61525063D01*
X134745651Y-61525073D01*
X134760415Y-61599300D01*
X134816666Y-61683484D01*
X134900847Y-61739733D01*
X134900849Y-61739734D01*
X134975083Y-61754500D01*
X136025116Y-61754499D01*
X136025119Y-61754498D01*
X136025123Y-61754498D01*
X136074376Y-61744701D01*
X136099351Y-61739734D01*
X136183534Y-61683484D01*
X136239784Y-61599301D01*
X136254550Y-61525067D01*
X136254549Y-60474934D01*
X136254548Y-60474931D01*
X136254548Y-60474926D01*
X136239784Y-60400700D01*
X136239784Y-60400699D01*
X136189156Y-60324930D01*
X136595550Y-60324930D01*
X136595550Y-61675063D01*
X136595551Y-61675073D01*
X136610315Y-61749300D01*
X136666566Y-61833484D01*
X136750747Y-61889733D01*
X136750749Y-61889734D01*
X136824983Y-61904500D01*
X138175216Y-61904499D01*
X138175219Y-61904498D01*
X138175223Y-61904498D01*
X138224476Y-61894701D01*
X138249451Y-61889734D01*
X138333634Y-61833484D01*
X138389884Y-61749301D01*
X138389883Y-61749301D01*
X138395285Y-61741218D01*
X138449762Y-61695690D01*
X138520206Y-61686843D01*
X138584250Y-61717484D01*
X138604815Y-61741218D01*
X138666466Y-61833484D01*
X138750647Y-61889733D01*
X138750649Y-61889734D01*
X138824883Y-61904500D01*
X140175116Y-61904499D01*
X140175119Y-61904498D01*
X140175123Y-61904498D01*
X140224376Y-61894701D01*
X140249351Y-61889734D01*
X140333534Y-61833484D01*
X140389784Y-61749301D01*
X140389784Y-61749300D01*
X140395110Y-61741330D01*
X140449587Y-61695802D01*
X140520031Y-61686955D01*
X140584074Y-61717596D01*
X140604640Y-61741330D01*
X140666216Y-61833484D01*
X140750397Y-61889733D01*
X140750399Y-61889734D01*
X140824633Y-61904500D01*
X142174766Y-61904499D01*
X142174769Y-61904498D01*
X142174773Y-61904498D01*
X142224026Y-61894701D01*
X142249001Y-61889734D01*
X142333184Y-61833484D01*
X142389434Y-61749301D01*
X142404200Y-61675067D01*
X142404199Y-60324934D01*
X142404198Y-60324930D01*
X142404198Y-60324926D01*
X142389434Y-60250699D01*
X142333183Y-60166515D01*
X142249002Y-60110266D01*
X142174767Y-60095500D01*
X140824636Y-60095500D01*
X140824626Y-60095501D01*
X140750399Y-60110265D01*
X140666216Y-60166515D01*
X140604638Y-60258671D01*
X140550160Y-60304197D01*
X140479717Y-60313044D01*
X140415674Y-60282402D01*
X140395109Y-60258669D01*
X140389782Y-60250697D01*
X140333534Y-60166516D01*
X140333533Y-60166515D01*
X140249352Y-60110266D01*
X140175117Y-60095500D01*
X138824886Y-60095500D01*
X138824876Y-60095501D01*
X138750649Y-60110265D01*
X138666466Y-60166515D01*
X138604813Y-60258783D01*
X138550335Y-60304309D01*
X138479892Y-60313156D01*
X138415848Y-60282514D01*
X138395284Y-60258781D01*
X138389884Y-60250699D01*
X138333634Y-60166516D01*
X138333633Y-60166515D01*
X138249452Y-60110266D01*
X138175217Y-60095500D01*
X136824986Y-60095500D01*
X136824976Y-60095501D01*
X136750749Y-60110265D01*
X136666565Y-60166516D01*
X136610316Y-60250697D01*
X136595550Y-60324930D01*
X136189156Y-60324930D01*
X136183534Y-60316516D01*
X136183533Y-60316515D01*
X136099352Y-60260266D01*
X136025117Y-60245500D01*
X134975086Y-60245500D01*
X134975076Y-60245501D01*
X134900849Y-60260265D01*
X134816665Y-60316516D01*
X134760416Y-60400697D01*
X134745650Y-60474930D01*
X134254499Y-60474930D01*
X134239734Y-60400699D01*
X134183483Y-60316515D01*
X134099302Y-60260266D01*
X134025067Y-60245500D01*
X132974936Y-60245500D01*
X132974926Y-60245501D01*
X132900699Y-60260265D01*
X132816515Y-60316516D01*
X132760266Y-60400697D01*
X132745500Y-60474930D01*
X132254299Y-60474930D01*
X132239534Y-60400699D01*
X132183283Y-60316515D01*
X132099102Y-60260266D01*
X132024867Y-60245500D01*
X130974736Y-60245500D01*
X130974726Y-60245501D01*
X130900499Y-60260265D01*
X130816315Y-60316516D01*
X130760066Y-60400697D01*
X130745300Y-60474930D01*
X130404499Y-60474930D01*
X130404499Y-60324934D01*
X130404498Y-60324930D01*
X130404498Y-60324926D01*
X130389734Y-60250699D01*
X130333483Y-60166515D01*
X130249302Y-60110266D01*
X130175067Y-60095500D01*
X128824936Y-60095500D01*
X128824926Y-60095501D01*
X128750699Y-60110265D01*
X128666515Y-60166516D01*
X128610266Y-60250697D01*
X128595500Y-60324930D01*
X100500500Y-60324930D01*
X100500500Y-60309204D01*
X100520502Y-60241083D01*
X100537405Y-60220109D01*
X102282584Y-58474930D01*
X126745600Y-58474930D01*
X126745600Y-59525063D01*
X126745601Y-59525073D01*
X126760365Y-59599300D01*
X126816616Y-59683484D01*
X126900797Y-59739733D01*
X126900799Y-59739734D01*
X126975033Y-59754500D01*
X128025166Y-59754499D01*
X128025169Y-59754498D01*
X128025173Y-59754498D01*
X128086077Y-59742384D01*
X128099401Y-59739734D01*
X128183584Y-59683484D01*
X128239834Y-59599301D01*
X128254600Y-59525067D01*
X128254599Y-58474934D01*
X128254599Y-58474933D01*
X128254599Y-58474931D01*
X128254599Y-58474930D01*
X128745600Y-58474930D01*
X128745600Y-59525063D01*
X128745601Y-59525073D01*
X128760365Y-59599300D01*
X128816616Y-59683484D01*
X128900797Y-59739733D01*
X128900799Y-59739734D01*
X128975033Y-59754500D01*
X130025166Y-59754499D01*
X130025169Y-59754498D01*
X130025173Y-59754498D01*
X130086077Y-59742384D01*
X130099401Y-59739734D01*
X130183584Y-59683484D01*
X130239834Y-59599301D01*
X130254600Y-59525067D01*
X130254599Y-58474934D01*
X130254599Y-58474933D01*
X130254599Y-58474931D01*
X130254599Y-58474930D01*
X130745300Y-58474930D01*
X130745300Y-59525063D01*
X130745301Y-59525073D01*
X130760065Y-59599300D01*
X130816316Y-59683484D01*
X130900497Y-59739733D01*
X130900499Y-59739734D01*
X130974733Y-59754500D01*
X132024866Y-59754499D01*
X132024869Y-59754498D01*
X132024873Y-59754498D01*
X132085777Y-59742384D01*
X132099101Y-59739734D01*
X132183284Y-59683484D01*
X132239534Y-59599301D01*
X132254300Y-59525067D01*
X132254299Y-58474934D01*
X132254299Y-58474933D01*
X132254299Y-58474931D01*
X132254299Y-58474930D01*
X132745600Y-58474930D01*
X132745600Y-59525063D01*
X132745601Y-59525073D01*
X132760365Y-59599300D01*
X132816616Y-59683484D01*
X132900797Y-59739733D01*
X132900799Y-59739734D01*
X132975033Y-59754500D01*
X134025166Y-59754499D01*
X134025169Y-59754498D01*
X134025173Y-59754498D01*
X134086077Y-59742384D01*
X134099401Y-59739734D01*
X134183584Y-59683484D01*
X134239834Y-59599301D01*
X134254600Y-59525067D01*
X134254599Y-58474934D01*
X134254599Y-58474933D01*
X134254599Y-58474931D01*
X134254599Y-58474930D01*
X134745500Y-58474930D01*
X134745500Y-59525063D01*
X134745501Y-59525073D01*
X134760265Y-59599300D01*
X134816516Y-59683484D01*
X134900697Y-59739733D01*
X134900699Y-59739734D01*
X134974933Y-59754500D01*
X136025066Y-59754499D01*
X136025069Y-59754498D01*
X136025073Y-59754498D01*
X136085977Y-59742384D01*
X136099301Y-59739734D01*
X136183484Y-59683484D01*
X136239734Y-59599301D01*
X136254500Y-59525067D01*
X136254499Y-58474934D01*
X136254499Y-58474933D01*
X136254499Y-58474931D01*
X136254499Y-58474930D01*
X136745500Y-58474930D01*
X136745500Y-59525063D01*
X136745501Y-59525073D01*
X136760265Y-59599300D01*
X136816516Y-59683484D01*
X136900697Y-59739733D01*
X136900699Y-59739734D01*
X136974933Y-59754500D01*
X138025066Y-59754499D01*
X138025069Y-59754498D01*
X138025073Y-59754498D01*
X138085977Y-59742384D01*
X138099301Y-59739734D01*
X138183484Y-59683484D01*
X138239734Y-59599301D01*
X138254500Y-59525067D01*
X138254499Y-58474934D01*
X138254499Y-58474933D01*
X138254499Y-58474931D01*
X138254499Y-58474930D01*
X138745500Y-58474930D01*
X138745500Y-59525063D01*
X138745501Y-59525073D01*
X138760265Y-59599300D01*
X138816516Y-59683484D01*
X138900697Y-59739733D01*
X138900699Y-59739734D01*
X138974933Y-59754500D01*
X140025066Y-59754499D01*
X140025069Y-59754498D01*
X140025073Y-59754498D01*
X140085977Y-59742384D01*
X140099301Y-59739734D01*
X140183484Y-59683484D01*
X140239734Y-59599301D01*
X140254500Y-59525067D01*
X140254499Y-58474934D01*
X140254499Y-58474933D01*
X140254499Y-58474931D01*
X140254499Y-58474930D01*
X140745300Y-58474930D01*
X140745300Y-59525063D01*
X140745301Y-59525073D01*
X140760065Y-59599300D01*
X140816316Y-59683484D01*
X140900497Y-59739733D01*
X140900499Y-59739734D01*
X140974733Y-59754500D01*
X142024866Y-59754499D01*
X142024869Y-59754498D01*
X142024873Y-59754498D01*
X142085777Y-59742384D01*
X142099101Y-59739734D01*
X142183284Y-59683484D01*
X142239534Y-59599301D01*
X142254300Y-59525067D01*
X142254299Y-58474934D01*
X142254298Y-58474931D01*
X142254298Y-58474926D01*
X142239534Y-58400699D01*
X142183283Y-58316515D01*
X142099102Y-58260266D01*
X142024867Y-58245500D01*
X140974736Y-58245500D01*
X140974726Y-58245501D01*
X140900499Y-58260265D01*
X140816315Y-58316516D01*
X140760066Y-58400697D01*
X140745300Y-58474930D01*
X140254499Y-58474930D01*
X140239734Y-58400699D01*
X140183483Y-58316515D01*
X140099302Y-58260266D01*
X140025067Y-58245500D01*
X138974936Y-58245500D01*
X138974926Y-58245501D01*
X138900699Y-58260265D01*
X138816515Y-58316516D01*
X138760266Y-58400697D01*
X138745500Y-58474930D01*
X138254499Y-58474930D01*
X138239734Y-58400699D01*
X138183483Y-58316515D01*
X138099302Y-58260266D01*
X138025067Y-58245500D01*
X136974936Y-58245500D01*
X136974926Y-58245501D01*
X136900699Y-58260265D01*
X136816515Y-58316516D01*
X136760266Y-58400697D01*
X136745500Y-58474930D01*
X136254499Y-58474930D01*
X136239734Y-58400699D01*
X136183483Y-58316515D01*
X136099302Y-58260266D01*
X136025067Y-58245500D01*
X134974936Y-58245500D01*
X134974926Y-58245501D01*
X134900699Y-58260265D01*
X134816515Y-58316516D01*
X134760266Y-58400697D01*
X134745500Y-58474930D01*
X134254599Y-58474930D01*
X134239834Y-58400699D01*
X134183583Y-58316515D01*
X134099402Y-58260266D01*
X134025167Y-58245500D01*
X132975036Y-58245500D01*
X132975026Y-58245501D01*
X132900799Y-58260265D01*
X132816615Y-58316516D01*
X132760366Y-58400697D01*
X132745600Y-58474930D01*
X132254299Y-58474930D01*
X132239534Y-58400699D01*
X132183283Y-58316515D01*
X132099102Y-58260266D01*
X132024867Y-58245500D01*
X130974736Y-58245500D01*
X130974726Y-58245501D01*
X130900499Y-58260265D01*
X130816315Y-58316516D01*
X130760066Y-58400697D01*
X130745300Y-58474930D01*
X130254599Y-58474930D01*
X130239834Y-58400699D01*
X130183583Y-58316515D01*
X130099402Y-58260266D01*
X130025167Y-58245500D01*
X128975036Y-58245500D01*
X128975026Y-58245501D01*
X128900799Y-58260265D01*
X128816615Y-58316516D01*
X128760366Y-58400697D01*
X128745600Y-58474930D01*
X128254599Y-58474930D01*
X128239834Y-58400699D01*
X128183583Y-58316515D01*
X128099402Y-58260266D01*
X128025167Y-58245500D01*
X126975036Y-58245500D01*
X126975026Y-58245501D01*
X126900799Y-58260265D01*
X126816615Y-58316516D01*
X126760366Y-58400697D01*
X126745600Y-58474930D01*
X102282584Y-58474930D01*
X110170409Y-50587105D01*
X110232721Y-50553079D01*
X110259504Y-50550200D01*
X189740296Y-50550200D01*
X189808417Y-50570202D01*
G37*
%TD.AperFunction*%
%TD*%
M02*
