M48
; DRILL file KiCad 10.0.6 date 2026-09-23T17:28:54
; FORMAT={-:-/ absolute / metric / decimal}
; #@! TF.CreationDate,2026-09-23T17:28:54+08:00
; #@! TF.GenerationSoftware,Kicad,Pcbnew,10.0.6
; #@! TF.FileFunction,Plated,1,2,PTH
FMAT,2
METRIC
; #@! TA.AperFunction,Plated,PTH,ViaDrill
T1C0.305
; #@! TA.AperFunction,Plated,PTH,ComponentDrill
T2C0.670
; #@! TA.AperFunction,Plated,PTH,ComponentDrill
T3C0.914
; #@! TA.AperFunction,Plated,PTH,ComponentDrill
T4C1.000
; #@! TA.AperFunction,Plated,PTH,ComponentDrill
T5C1.100
%
G90
G05
T1
X100.5Y-95.002
X100.5Y-105.0
X128.5Y-97.5
X134.0Y-92.0
X136.0Y-88.0
X140.5Y-87.0
X199.5Y-95.002
X199.5Y-105.0
T2
X127.5Y-61.0
X127.5Y-59.0
X129.5Y-61.0
X129.5Y-59.0
X131.5Y-59.0
X131.5Y-61.0
X133.5Y-61.0
X133.5Y-59.0
X135.5Y-59.0
X135.5Y-61.0
X137.5Y-59.0
X137.5Y-61.0
X139.5Y-59.0
X139.5Y-61.0
X141.5Y-61.0
X141.5Y-59.0
T3
X107.0Y-119.0
X107.0Y-123.0
X110.0Y-73.5
X110.0Y-81.5
X113.929Y-108.576
X114.174Y-93.429
X114.174Y-103.589
X114.411Y-67.174
X115.5Y-58.98
X115.5Y-61.52
X119.256Y-93.251
X119.256Y-98.251
X124.089Y-108.576
X124.571Y-67.174
X132.0Y-117.0
X132.0Y-125.0
X140.5Y-73.5
X140.5Y-81.5
X145.161Y-67.174
X153.544Y-92.949
X153.544Y-97.949
X155.321Y-67.174
X166.0Y-107.5
X166.0Y-115.5
X166.0Y-125.5
X169.826Y-111.161
X169.826Y-121.321
X169.826Y-126.161
X169.826Y-136.321
X173.5Y-73.5
X173.5Y-81.5
X173.5Y-107.5
X173.5Y-115.5
X173.5Y-125.5
X173.5Y-133.5
X177.911Y-67.174
X180.043Y-92.788
X180.043Y-97.788
X188.071Y-67.174
X192.326Y-106.661
X192.326Y-116.821
X192.326Y-125.411
X192.326Y-135.571
T4
X158.61Y-91.44
X158.61Y-99.06
X161.15Y-91.44
X161.15Y-99.06
X163.69Y-91.44
X163.69Y-99.06
X166.23Y-91.44
X166.23Y-99.06
X168.77Y-91.44
X168.77Y-99.06
X171.31Y-91.44
X171.31Y-99.06
X173.85Y-91.44
X173.85Y-99.06
X176.39Y-91.44
X176.39Y-99.06
T5
X122.19Y-94.19
X122.19Y-101.81
X124.73Y-94.19
X124.73Y-101.81
X127.27Y-94.19
X127.27Y-101.81
X129.81Y-94.19
X129.81Y-101.81
X142.39Y-91.59
X142.39Y-99.21
X144.93Y-91.59
X144.93Y-99.21
X147.47Y-91.59
X147.47Y-99.21
X150.01Y-91.59
X150.01Y-99.21
M30
