%TF.GenerationSoftware,KiCad,Pcbnew,10.0.6*%
%TF.CreationDate,2026-09-23T18:20:44+08:00*%
%TF.ProjectId,Camera_Module,43616d65-7261-45f4-9d6f-64756c652e6b,1.7*%
%TF.SameCoordinates,Original*%
%TF.FileFunction,Legend,Top*%
%TF.FilePolarity,Positive*%
%FSLAX46Y46*%
G04 Gerber Fmt 4.6, Leading zero omitted, Abs format (unit mm)*
G04 Created by KiCad (PCBNEW 10.0.6) date 2026-09-23 18:20:44*
%MOMM*%
%LPD*%
G01*
G04 APERTURE LIST*
%ADD10C,0.254000*%
%ADD11C,0.080000*%
%ADD12C,0.100000*%
%ADD13C,0.150000*%
%ADD14C,0.200000*%
%ADD15C,0.177800*%
%ADD16C,0.152400*%
G04 APERTURE END LIST*
D10*
X113750500Y-63500700D02*
X113750500Y-76249000D01*
X113750500Y-76249000D02*
X183251200Y-76249000D01*
X182250300Y-63500700D02*
X113750500Y-63500700D01*
X183251200Y-63500700D02*
X182250300Y-63500700D01*
X183251200Y-64250000D02*
X183251200Y-63500700D01*
X183251200Y-76249000D02*
X183251200Y-64250000D01*
X183499800Y-126500100D02*
X189499700Y-126500100D01*
X183499800Y-150500000D02*
X183499800Y-126500100D01*
X188499700Y-137500200D02*
X188499700Y-139499900D01*
X188499700Y-139499900D02*
X189499700Y-139499900D01*
X189499700Y-126500100D02*
X189499700Y-150500000D01*
X189499700Y-137500200D02*
X188499700Y-137500200D01*
X189499700Y-150500000D02*
X183499800Y-150500000D01*
D11*
X112629421Y-97139773D02*
X112873231Y-97139773D01*
X113269421Y-97139773D02*
X113513231Y-97139773D01*
X113909421Y-97139773D02*
X114153231Y-97139773D01*
X119628921Y-128639073D02*
X119872731Y-128639073D01*
X120268921Y-128639073D02*
X120512731Y-128639073D01*
X120908921Y-128639073D02*
X121152731Y-128639073D01*
X119628921Y-137389373D02*
X119872731Y-137389373D01*
X120268921Y-137389373D02*
X120512731Y-137389373D01*
X120908921Y-137389373D02*
X121152731Y-137389373D01*
X132128721Y-97139773D02*
X132372531Y-97139773D01*
X132768721Y-97139773D02*
X133012531Y-97139773D01*
X133408721Y-97139773D02*
X133652531Y-97139773D01*
X141628821Y-128639073D02*
X141872631Y-128639073D01*
X142268821Y-128639073D02*
X142512631Y-128639073D01*
X142908821Y-128639073D02*
X143152631Y-128639073D01*
X141628821Y-137390173D02*
X141872631Y-137390173D01*
X142268821Y-137390173D02*
X142512631Y-137390173D01*
X142908821Y-137390173D02*
X143152631Y-137390173D01*
X151628821Y-97139073D02*
X151872631Y-97139073D01*
X152268821Y-97139073D02*
X152512631Y-97139073D01*
X152908821Y-97139073D02*
X153152631Y-97139073D01*
X163628821Y-128639373D02*
X163872631Y-128639373D01*
X164268821Y-128639373D02*
X164512631Y-128639373D01*
X164908821Y-128639373D02*
X165152631Y-128639373D01*
X163628821Y-137389173D02*
X163872631Y-137389173D01*
X164268821Y-137389173D02*
X164512631Y-137389173D01*
X164908821Y-137389173D02*
X165152631Y-137389173D01*
X171128721Y-97139273D02*
X171372531Y-97139273D01*
X171768721Y-97139273D02*
X172012531Y-97139273D01*
X172408721Y-97139273D02*
X172652531Y-97139273D01*
X112640826Y-87389273D02*
X112922731Y-87389273D01*
X113380826Y-87389273D02*
X113662731Y-87389273D01*
X114120826Y-87389273D02*
X114402731Y-87389273D01*
X119640826Y-118889273D02*
X119922731Y-118889273D01*
X120380826Y-118889273D02*
X120662731Y-118889273D01*
X121120826Y-118889273D02*
X121402731Y-118889273D01*
X119640826Y-147139173D02*
X119922731Y-147139173D01*
X120380826Y-147139173D02*
X120662731Y-147139173D01*
X121120826Y-147139173D02*
X121402731Y-147139173D01*
X132140626Y-87389473D02*
X132422531Y-87389473D01*
X132880626Y-87389473D02*
X133162531Y-87389473D01*
X133620626Y-87389473D02*
X133902531Y-87389473D01*
X141640726Y-118889773D02*
X141922631Y-118889773D01*
X142380726Y-118889773D02*
X142662631Y-118889773D01*
X143120726Y-118889773D02*
X143402631Y-118889773D01*
X141640726Y-147138973D02*
X141922631Y-147138973D01*
X142380726Y-147138973D02*
X142662631Y-147138973D01*
X143120726Y-147138973D02*
X143402631Y-147138973D01*
X151640726Y-87390473D02*
X151922631Y-87390473D01*
X152380726Y-87390473D02*
X152662631Y-87390473D01*
X153120726Y-87390473D02*
X153402631Y-87390473D01*
X163640726Y-118889273D02*
X163922631Y-118889273D01*
X164380726Y-118889273D02*
X164662631Y-118889273D01*
X165120726Y-118889273D02*
X165402631Y-118889273D01*
X163640726Y-147139473D02*
X163922631Y-147139473D01*
X164380726Y-147139473D02*
X164662631Y-147139473D01*
X165120726Y-147139473D02*
X165402631Y-147139473D01*
X171140626Y-87389273D02*
X171422531Y-87389273D01*
X171880626Y-87389273D02*
X172162531Y-87389273D01*
X172620626Y-87389273D02*
X172902531Y-87389273D01*
D12*
X102891979Y-139222795D02*
X103349122Y-139222795D01*
X103120550Y-140022795D02*
X103120550Y-139222795D01*
X103615789Y-140022795D02*
X103615789Y-139222795D01*
X103615789Y-139603747D02*
X104072932Y-139603747D01*
X104072932Y-140022795D02*
X104072932Y-139222795D01*
X104453884Y-140022795D02*
X104453884Y-139222795D01*
X104796740Y-139984700D02*
X104911026Y-140022795D01*
X104911026Y-140022795D02*
X105101502Y-140022795D01*
X105101502Y-140022795D02*
X105177693Y-139984700D01*
X105177693Y-139984700D02*
X105215788Y-139946604D01*
X105215788Y-139946604D02*
X105253883Y-139870414D01*
X105253883Y-139870414D02*
X105253883Y-139794223D01*
X105253883Y-139794223D02*
X105215788Y-139718033D01*
X105215788Y-139718033D02*
X105177693Y-139679938D01*
X105177693Y-139679938D02*
X105101502Y-139641842D01*
X105101502Y-139641842D02*
X104949121Y-139603747D01*
X104949121Y-139603747D02*
X104872931Y-139565652D01*
X104872931Y-139565652D02*
X104834836Y-139527557D01*
X104834836Y-139527557D02*
X104796740Y-139451366D01*
X104796740Y-139451366D02*
X104796740Y-139375176D01*
X104796740Y-139375176D02*
X104834836Y-139298985D01*
X104834836Y-139298985D02*
X104872931Y-139260890D01*
X104872931Y-139260890D02*
X104949121Y-139222795D01*
X104949121Y-139222795D02*
X105139598Y-139222795D01*
X105139598Y-139222795D02*
X105253883Y-139260890D01*
X106206265Y-140022795D02*
X106206265Y-139222795D01*
X106206265Y-139222795D02*
X106396741Y-139222795D01*
X106396741Y-139222795D02*
X106511027Y-139260890D01*
X106511027Y-139260890D02*
X106587217Y-139337080D01*
X106587217Y-139337080D02*
X106625312Y-139413271D01*
X106625312Y-139413271D02*
X106663408Y-139565652D01*
X106663408Y-139565652D02*
X106663408Y-139679938D01*
X106663408Y-139679938D02*
X106625312Y-139832319D01*
X106625312Y-139832319D02*
X106587217Y-139908509D01*
X106587217Y-139908509D02*
X106511027Y-139984700D01*
X106511027Y-139984700D02*
X106396741Y-140022795D01*
X106396741Y-140022795D02*
X106206265Y-140022795D01*
X107158646Y-139222795D02*
X107311027Y-139222795D01*
X107311027Y-139222795D02*
X107387217Y-139260890D01*
X107387217Y-139260890D02*
X107463408Y-139337080D01*
X107463408Y-139337080D02*
X107501503Y-139489461D01*
X107501503Y-139489461D02*
X107501503Y-139756128D01*
X107501503Y-139756128D02*
X107463408Y-139908509D01*
X107463408Y-139908509D02*
X107387217Y-139984700D01*
X107387217Y-139984700D02*
X107311027Y-140022795D01*
X107311027Y-140022795D02*
X107158646Y-140022795D01*
X107158646Y-140022795D02*
X107082455Y-139984700D01*
X107082455Y-139984700D02*
X107006265Y-139908509D01*
X107006265Y-139908509D02*
X106968169Y-139756128D01*
X106968169Y-139756128D02*
X106968169Y-139489461D01*
X106968169Y-139489461D02*
X107006265Y-139337080D01*
X107006265Y-139337080D02*
X107082455Y-139260890D01*
X107082455Y-139260890D02*
X107158646Y-139222795D01*
X107844360Y-139603747D02*
X108111026Y-139603747D01*
X108225312Y-140022795D02*
X107844360Y-140022795D01*
X107844360Y-140022795D02*
X107844360Y-139222795D01*
X107844360Y-139222795D02*
X108225312Y-139222795D01*
X108530074Y-139984700D02*
X108644360Y-140022795D01*
X108644360Y-140022795D02*
X108834836Y-140022795D01*
X108834836Y-140022795D02*
X108911027Y-139984700D01*
X108911027Y-139984700D02*
X108949122Y-139946604D01*
X108949122Y-139946604D02*
X108987217Y-139870414D01*
X108987217Y-139870414D02*
X108987217Y-139794223D01*
X108987217Y-139794223D02*
X108949122Y-139718033D01*
X108949122Y-139718033D02*
X108911027Y-139679938D01*
X108911027Y-139679938D02*
X108834836Y-139641842D01*
X108834836Y-139641842D02*
X108682455Y-139603747D01*
X108682455Y-139603747D02*
X108606265Y-139565652D01*
X108606265Y-139565652D02*
X108568170Y-139527557D01*
X108568170Y-139527557D02*
X108530074Y-139451366D01*
X108530074Y-139451366D02*
X108530074Y-139375176D01*
X108530074Y-139375176D02*
X108568170Y-139298985D01*
X108568170Y-139298985D02*
X108606265Y-139260890D01*
X108606265Y-139260890D02*
X108682455Y-139222795D01*
X108682455Y-139222795D02*
X108872932Y-139222795D01*
X108872932Y-139222795D02*
X108987217Y-139260890D01*
X110206265Y-139603747D02*
X110320551Y-139641842D01*
X110320551Y-139641842D02*
X110358646Y-139679938D01*
X110358646Y-139679938D02*
X110396742Y-139756128D01*
X110396742Y-139756128D02*
X110396742Y-139870414D01*
X110396742Y-139870414D02*
X110358646Y-139946604D01*
X110358646Y-139946604D02*
X110320551Y-139984700D01*
X110320551Y-139984700D02*
X110244361Y-140022795D01*
X110244361Y-140022795D02*
X109939599Y-140022795D01*
X109939599Y-140022795D02*
X109939599Y-139222795D01*
X109939599Y-139222795D02*
X110206265Y-139222795D01*
X110206265Y-139222795D02*
X110282456Y-139260890D01*
X110282456Y-139260890D02*
X110320551Y-139298985D01*
X110320551Y-139298985D02*
X110358646Y-139375176D01*
X110358646Y-139375176D02*
X110358646Y-139451366D01*
X110358646Y-139451366D02*
X110320551Y-139527557D01*
X110320551Y-139527557D02*
X110282456Y-139565652D01*
X110282456Y-139565652D02*
X110206265Y-139603747D01*
X110206265Y-139603747D02*
X109939599Y-139603747D01*
X110739599Y-139222795D02*
X110739599Y-139870414D01*
X110739599Y-139870414D02*
X110777694Y-139946604D01*
X110777694Y-139946604D02*
X110815789Y-139984700D01*
X110815789Y-139984700D02*
X110891980Y-140022795D01*
X110891980Y-140022795D02*
X111044361Y-140022795D01*
X111044361Y-140022795D02*
X111120551Y-139984700D01*
X111120551Y-139984700D02*
X111158646Y-139946604D01*
X111158646Y-139946604D02*
X111196742Y-139870414D01*
X111196742Y-139870414D02*
X111196742Y-139222795D01*
X111463408Y-139222795D02*
X111920551Y-139222795D01*
X111691979Y-140022795D02*
X111691979Y-139222795D01*
X113253885Y-140022795D02*
X112987218Y-139641842D01*
X112796742Y-140022795D02*
X112796742Y-139222795D01*
X112796742Y-139222795D02*
X113101504Y-139222795D01*
X113101504Y-139222795D02*
X113177694Y-139260890D01*
X113177694Y-139260890D02*
X113215789Y-139298985D01*
X113215789Y-139298985D02*
X113253885Y-139375176D01*
X113253885Y-139375176D02*
X113253885Y-139489461D01*
X113253885Y-139489461D02*
X113215789Y-139565652D01*
X113215789Y-139565652D02*
X113177694Y-139603747D01*
X113177694Y-139603747D02*
X113101504Y-139641842D01*
X113101504Y-139641842D02*
X112796742Y-139641842D01*
X113749123Y-139222795D02*
X113901504Y-139222795D01*
X113901504Y-139222795D02*
X113977694Y-139260890D01*
X113977694Y-139260890D02*
X114053885Y-139337080D01*
X114053885Y-139337080D02*
X114091980Y-139489461D01*
X114091980Y-139489461D02*
X114091980Y-139756128D01*
X114091980Y-139756128D02*
X114053885Y-139908509D01*
X114053885Y-139908509D02*
X113977694Y-139984700D01*
X113977694Y-139984700D02*
X113901504Y-140022795D01*
X113901504Y-140022795D02*
X113749123Y-140022795D01*
X113749123Y-140022795D02*
X113672932Y-139984700D01*
X113672932Y-139984700D02*
X113596742Y-139908509D01*
X113596742Y-139908509D02*
X113558646Y-139756128D01*
X113558646Y-139756128D02*
X113558646Y-139489461D01*
X113558646Y-139489461D02*
X113596742Y-139337080D01*
X113596742Y-139337080D02*
X113672932Y-139260890D01*
X113672932Y-139260890D02*
X113749123Y-139222795D01*
X114891980Y-139946604D02*
X114853884Y-139984700D01*
X114853884Y-139984700D02*
X114739599Y-140022795D01*
X114739599Y-140022795D02*
X114663408Y-140022795D01*
X114663408Y-140022795D02*
X114549122Y-139984700D01*
X114549122Y-139984700D02*
X114472932Y-139908509D01*
X114472932Y-139908509D02*
X114434837Y-139832319D01*
X114434837Y-139832319D02*
X114396741Y-139679938D01*
X114396741Y-139679938D02*
X114396741Y-139565652D01*
X114396741Y-139565652D02*
X114434837Y-139413271D01*
X114434837Y-139413271D02*
X114472932Y-139337080D01*
X114472932Y-139337080D02*
X114549122Y-139260890D01*
X114549122Y-139260890D02*
X114663408Y-139222795D01*
X114663408Y-139222795D02*
X114739599Y-139222795D01*
X114739599Y-139222795D02*
X114853884Y-139260890D01*
X114853884Y-139260890D02*
X114891980Y-139298985D01*
X115234837Y-140022795D02*
X115234837Y-139222795D01*
X115691980Y-140022795D02*
X115349122Y-139565652D01*
X115691980Y-139222795D02*
X115234837Y-139679938D01*
X116034837Y-139603747D02*
X116301503Y-139603747D01*
X116415789Y-140022795D02*
X116034837Y-140022795D01*
X116034837Y-140022795D02*
X116034837Y-139222795D01*
X116034837Y-139222795D02*
X116415789Y-139222795D01*
X116644361Y-139222795D02*
X117101504Y-139222795D01*
X116872932Y-140022795D02*
X116872932Y-139222795D01*
X103006265Y-141272695D02*
X103006265Y-140472695D01*
X103006265Y-140472695D02*
X103196741Y-140472695D01*
X103196741Y-140472695D02*
X103311027Y-140510790D01*
X103311027Y-140510790D02*
X103387217Y-140586980D01*
X103387217Y-140586980D02*
X103425312Y-140663171D01*
X103425312Y-140663171D02*
X103463408Y-140815552D01*
X103463408Y-140815552D02*
X103463408Y-140929838D01*
X103463408Y-140929838D02*
X103425312Y-141082219D01*
X103425312Y-141082219D02*
X103387217Y-141158409D01*
X103387217Y-141158409D02*
X103311027Y-141234600D01*
X103311027Y-141234600D02*
X103196741Y-141272695D01*
X103196741Y-141272695D02*
X103006265Y-141272695D01*
X103958646Y-140472695D02*
X104111027Y-140472695D01*
X104111027Y-140472695D02*
X104187217Y-140510790D01*
X104187217Y-140510790D02*
X104263408Y-140586980D01*
X104263408Y-140586980D02*
X104301503Y-140739361D01*
X104301503Y-140739361D02*
X104301503Y-141006028D01*
X104301503Y-141006028D02*
X104263408Y-141158409D01*
X104263408Y-141158409D02*
X104187217Y-141234600D01*
X104187217Y-141234600D02*
X104111027Y-141272695D01*
X104111027Y-141272695D02*
X103958646Y-141272695D01*
X103958646Y-141272695D02*
X103882455Y-141234600D01*
X103882455Y-141234600D02*
X103806265Y-141158409D01*
X103806265Y-141158409D02*
X103768169Y-141006028D01*
X103768169Y-141006028D02*
X103768169Y-140739361D01*
X103768169Y-140739361D02*
X103806265Y-140586980D01*
X103806265Y-140586980D02*
X103882455Y-140510790D01*
X103882455Y-140510790D02*
X103958646Y-140472695D01*
X104644360Y-140853647D02*
X104911026Y-140853647D01*
X105025312Y-141272695D02*
X104644360Y-141272695D01*
X104644360Y-141272695D02*
X104644360Y-140472695D01*
X104644360Y-140472695D02*
X105025312Y-140472695D01*
X105330074Y-141234600D02*
X105444360Y-141272695D01*
X105444360Y-141272695D02*
X105634836Y-141272695D01*
X105634836Y-141272695D02*
X105711027Y-141234600D01*
X105711027Y-141234600D02*
X105749122Y-141196504D01*
X105749122Y-141196504D02*
X105787217Y-141120314D01*
X105787217Y-141120314D02*
X105787217Y-141044123D01*
X105787217Y-141044123D02*
X105749122Y-140967933D01*
X105749122Y-140967933D02*
X105711027Y-140929838D01*
X105711027Y-140929838D02*
X105634836Y-140891742D01*
X105634836Y-140891742D02*
X105482455Y-140853647D01*
X105482455Y-140853647D02*
X105406265Y-140815552D01*
X105406265Y-140815552D02*
X105368170Y-140777457D01*
X105368170Y-140777457D02*
X105330074Y-140701266D01*
X105330074Y-140701266D02*
X105330074Y-140625076D01*
X105330074Y-140625076D02*
X105368170Y-140548885D01*
X105368170Y-140548885D02*
X105406265Y-140510790D01*
X105406265Y-140510790D02*
X105482455Y-140472695D01*
X105482455Y-140472695D02*
X105672932Y-140472695D01*
X105672932Y-140472695D02*
X105787217Y-140510790D01*
X106130075Y-141272695D02*
X106130075Y-140472695D01*
X106130075Y-140472695D02*
X106587218Y-141272695D01*
X106587218Y-141272695D02*
X106587218Y-140472695D01*
X107006265Y-140472695D02*
X106930074Y-140625076D01*
X107234836Y-140472695D02*
X107691979Y-140472695D01*
X107463407Y-141272695D02*
X107463407Y-140472695D01*
X108491979Y-140472695D02*
X108682455Y-141272695D01*
X108682455Y-141272695D02*
X108834836Y-140701266D01*
X108834836Y-140701266D02*
X108987217Y-141272695D01*
X108987217Y-141272695D02*
X109177694Y-140472695D01*
X109634837Y-140472695D02*
X109787218Y-140472695D01*
X109787218Y-140472695D02*
X109863408Y-140510790D01*
X109863408Y-140510790D02*
X109939599Y-140586980D01*
X109939599Y-140586980D02*
X109977694Y-140739361D01*
X109977694Y-140739361D02*
X109977694Y-141006028D01*
X109977694Y-141006028D02*
X109939599Y-141158409D01*
X109939599Y-141158409D02*
X109863408Y-141234600D01*
X109863408Y-141234600D02*
X109787218Y-141272695D01*
X109787218Y-141272695D02*
X109634837Y-141272695D01*
X109634837Y-141272695D02*
X109558646Y-141234600D01*
X109558646Y-141234600D02*
X109482456Y-141158409D01*
X109482456Y-141158409D02*
X109444360Y-141006028D01*
X109444360Y-141006028D02*
X109444360Y-140739361D01*
X109444360Y-140739361D02*
X109482456Y-140586980D01*
X109482456Y-140586980D02*
X109558646Y-140510790D01*
X109558646Y-140510790D02*
X109634837Y-140472695D01*
X110777694Y-141272695D02*
X110511027Y-140891742D01*
X110320551Y-141272695D02*
X110320551Y-140472695D01*
X110320551Y-140472695D02*
X110625313Y-140472695D01*
X110625313Y-140472695D02*
X110701503Y-140510790D01*
X110701503Y-140510790D02*
X110739598Y-140548885D01*
X110739598Y-140548885D02*
X110777694Y-140625076D01*
X110777694Y-140625076D02*
X110777694Y-140739361D01*
X110777694Y-140739361D02*
X110739598Y-140815552D01*
X110739598Y-140815552D02*
X110701503Y-140853647D01*
X110701503Y-140853647D02*
X110625313Y-140891742D01*
X110625313Y-140891742D02*
X110320551Y-140891742D01*
X111120551Y-141272695D02*
X111120551Y-140472695D01*
X111577694Y-141272695D02*
X111234836Y-140815552D01*
X111577694Y-140472695D02*
X111120551Y-140929838D01*
X112453884Y-140472695D02*
X112644360Y-141272695D01*
X112644360Y-141272695D02*
X112796741Y-140701266D01*
X112796741Y-140701266D02*
X112949122Y-141272695D01*
X112949122Y-141272695D02*
X113139599Y-140472695D01*
X113444361Y-141272695D02*
X113444361Y-140472695D01*
X113711027Y-140472695D02*
X114168170Y-140472695D01*
X113939598Y-141272695D02*
X113939598Y-140472695D01*
X114434837Y-141272695D02*
X114434837Y-140472695D01*
X114434837Y-140853647D02*
X114891980Y-140853647D01*
X114891980Y-141272695D02*
X114891980Y-140472695D01*
X115425313Y-140472695D02*
X115577694Y-140472695D01*
X115577694Y-140472695D02*
X115653884Y-140510790D01*
X115653884Y-140510790D02*
X115730075Y-140586980D01*
X115730075Y-140586980D02*
X115768170Y-140739361D01*
X115768170Y-140739361D02*
X115768170Y-141006028D01*
X115768170Y-141006028D02*
X115730075Y-141158409D01*
X115730075Y-141158409D02*
X115653884Y-141234600D01*
X115653884Y-141234600D02*
X115577694Y-141272695D01*
X115577694Y-141272695D02*
X115425313Y-141272695D01*
X115425313Y-141272695D02*
X115349122Y-141234600D01*
X115349122Y-141234600D02*
X115272932Y-141158409D01*
X115272932Y-141158409D02*
X115234836Y-141006028D01*
X115234836Y-141006028D02*
X115234836Y-140739361D01*
X115234836Y-140739361D02*
X115272932Y-140586980D01*
X115272932Y-140586980D02*
X115349122Y-140510790D01*
X115349122Y-140510790D02*
X115425313Y-140472695D01*
X116111027Y-140472695D02*
X116111027Y-141120314D01*
X116111027Y-141120314D02*
X116149122Y-141196504D01*
X116149122Y-141196504D02*
X116187217Y-141234600D01*
X116187217Y-141234600D02*
X116263408Y-141272695D01*
X116263408Y-141272695D02*
X116415789Y-141272695D01*
X116415789Y-141272695D02*
X116491979Y-141234600D01*
X116491979Y-141234600D02*
X116530074Y-141196504D01*
X116530074Y-141196504D02*
X116568170Y-141120314D01*
X116568170Y-141120314D02*
X116568170Y-140472695D01*
X116834836Y-140472695D02*
X117291979Y-140472695D01*
X117063407Y-141272695D02*
X117063407Y-140472695D01*
X104006265Y-138772695D02*
X104006265Y-137972695D01*
X104996741Y-138772695D02*
X104996741Y-137972695D01*
X104996741Y-137972695D02*
X105187217Y-137972695D01*
X105187217Y-137972695D02*
X105301503Y-138010790D01*
X105301503Y-138010790D02*
X105377693Y-138086980D01*
X105377693Y-138086980D02*
X105415788Y-138163171D01*
X105415788Y-138163171D02*
X105453884Y-138315552D01*
X105453884Y-138315552D02*
X105453884Y-138429838D01*
X105453884Y-138429838D02*
X105415788Y-138582219D01*
X105415788Y-138582219D02*
X105377693Y-138658409D01*
X105377693Y-138658409D02*
X105301503Y-138734600D01*
X105301503Y-138734600D02*
X105187217Y-138772695D01*
X105187217Y-138772695D02*
X104996741Y-138772695D01*
X105949122Y-137972695D02*
X106101503Y-137972695D01*
X106101503Y-137972695D02*
X106177693Y-138010790D01*
X106177693Y-138010790D02*
X106253884Y-138086980D01*
X106253884Y-138086980D02*
X106291979Y-138239361D01*
X106291979Y-138239361D02*
X106291979Y-138506028D01*
X106291979Y-138506028D02*
X106253884Y-138658409D01*
X106253884Y-138658409D02*
X106177693Y-138734600D01*
X106177693Y-138734600D02*
X106101503Y-138772695D01*
X106101503Y-138772695D02*
X105949122Y-138772695D01*
X105949122Y-138772695D02*
X105872931Y-138734600D01*
X105872931Y-138734600D02*
X105796741Y-138658409D01*
X105796741Y-138658409D02*
X105758645Y-138506028D01*
X105758645Y-138506028D02*
X105758645Y-138239361D01*
X105758645Y-138239361D02*
X105796741Y-138086980D01*
X105796741Y-138086980D02*
X105872931Y-138010790D01*
X105872931Y-138010790D02*
X105949122Y-137972695D01*
X106634836Y-138772695D02*
X106634836Y-137972695D01*
X106634836Y-137972695D02*
X107091979Y-138772695D01*
X107091979Y-138772695D02*
X107091979Y-137972695D01*
X107358645Y-137972695D02*
X107815788Y-137972695D01*
X107587216Y-138772695D02*
X107587216Y-137972695D01*
X108691979Y-138772695D02*
X108691979Y-137972695D01*
X109149122Y-138772695D02*
X108806264Y-138315552D01*
X109149122Y-137972695D02*
X108691979Y-138429838D01*
X109491979Y-138772695D02*
X109491979Y-137972695D01*
X109491979Y-137972695D02*
X109949122Y-138772695D01*
X109949122Y-138772695D02*
X109949122Y-137972695D01*
X110482455Y-137972695D02*
X110634836Y-137972695D01*
X110634836Y-137972695D02*
X110711026Y-138010790D01*
X110711026Y-138010790D02*
X110787217Y-138086980D01*
X110787217Y-138086980D02*
X110825312Y-138239361D01*
X110825312Y-138239361D02*
X110825312Y-138506028D01*
X110825312Y-138506028D02*
X110787217Y-138658409D01*
X110787217Y-138658409D02*
X110711026Y-138734600D01*
X110711026Y-138734600D02*
X110634836Y-138772695D01*
X110634836Y-138772695D02*
X110482455Y-138772695D01*
X110482455Y-138772695D02*
X110406264Y-138734600D01*
X110406264Y-138734600D02*
X110330074Y-138658409D01*
X110330074Y-138658409D02*
X110291978Y-138506028D01*
X110291978Y-138506028D02*
X110291978Y-138239361D01*
X110291978Y-138239361D02*
X110330074Y-138086980D01*
X110330074Y-138086980D02*
X110406264Y-138010790D01*
X110406264Y-138010790D02*
X110482455Y-137972695D01*
X111091978Y-137972695D02*
X111282454Y-138772695D01*
X111282454Y-138772695D02*
X111434835Y-138201266D01*
X111434835Y-138201266D02*
X111587216Y-138772695D01*
X111587216Y-138772695D02*
X111777693Y-137972695D01*
X112615788Y-137972695D02*
X112806264Y-138772695D01*
X112806264Y-138772695D02*
X112958645Y-138201266D01*
X112958645Y-138201266D02*
X113111026Y-138772695D01*
X113111026Y-138772695D02*
X113301503Y-137972695D01*
X113606265Y-138772695D02*
X113606265Y-137972695D01*
X113606265Y-138353647D02*
X114063408Y-138353647D01*
X114063408Y-138772695D02*
X114063408Y-137972695D01*
X114406264Y-138544123D02*
X114787217Y-138544123D01*
X114330074Y-138772695D02*
X114596741Y-137972695D01*
X114596741Y-137972695D02*
X114863407Y-138772695D01*
X115015788Y-137972695D02*
X115472931Y-137972695D01*
X115244359Y-138772695D02*
X115244359Y-137972695D01*
D13*
X115246403Y-100954004D02*
X115208307Y-100992100D01*
X115208307Y-100992100D02*
X115094022Y-101030195D01*
X115094022Y-101030195D02*
X115017831Y-101030195D01*
X115017831Y-101030195D02*
X114903545Y-100992100D01*
X114903545Y-100992100D02*
X114827355Y-100915909D01*
X114827355Y-100915909D02*
X114789260Y-100839719D01*
X114789260Y-100839719D02*
X114751164Y-100687338D01*
X114751164Y-100687338D02*
X114751164Y-100573052D01*
X114751164Y-100573052D02*
X114789260Y-100420671D01*
X114789260Y-100420671D02*
X114827355Y-100344480D01*
X114827355Y-100344480D02*
X114903545Y-100268290D01*
X114903545Y-100268290D02*
X115017831Y-100230195D01*
X115017831Y-100230195D02*
X115094022Y-100230195D01*
X115094022Y-100230195D02*
X115208307Y-100268290D01*
X115208307Y-100268290D02*
X115246403Y-100306385D01*
X115741641Y-100649242D02*
X115741641Y-101030195D01*
X115474974Y-100230195D02*
X115741641Y-100649242D01*
X115741641Y-100649242D02*
X116008307Y-100230195D01*
X116732117Y-100954004D02*
X116694021Y-100992100D01*
X116694021Y-100992100D02*
X116579736Y-101030195D01*
X116579736Y-101030195D02*
X116503545Y-101030195D01*
X116503545Y-101030195D02*
X116389259Y-100992100D01*
X116389259Y-100992100D02*
X116313069Y-100915909D01*
X116313069Y-100915909D02*
X116274974Y-100839719D01*
X116274974Y-100839719D02*
X116236878Y-100687338D01*
X116236878Y-100687338D02*
X116236878Y-100573052D01*
X116236878Y-100573052D02*
X116274974Y-100420671D01*
X116274974Y-100420671D02*
X116313069Y-100344480D01*
X116313069Y-100344480D02*
X116389259Y-100268290D01*
X116389259Y-100268290D02*
X116503545Y-100230195D01*
X116503545Y-100230195D02*
X116579736Y-100230195D01*
X116579736Y-100230195D02*
X116694021Y-100268290D01*
X116694021Y-100268290D02*
X116732117Y-100306385D01*
X117455926Y-101030195D02*
X117074974Y-101030195D01*
X117074974Y-101030195D02*
X117074974Y-100230195D01*
X117722593Y-100611147D02*
X117989259Y-100611147D01*
X118103545Y-101030195D02*
X117722593Y-101030195D01*
X117722593Y-101030195D02*
X117722593Y-100230195D01*
X117722593Y-100230195D02*
X118103545Y-100230195D01*
X119513070Y-100954004D02*
X119474974Y-100992100D01*
X119474974Y-100992100D02*
X119360689Y-101030195D01*
X119360689Y-101030195D02*
X119284498Y-101030195D01*
X119284498Y-101030195D02*
X119170212Y-100992100D01*
X119170212Y-100992100D02*
X119094022Y-100915909D01*
X119094022Y-100915909D02*
X119055927Y-100839719D01*
X119055927Y-100839719D02*
X119017831Y-100687338D01*
X119017831Y-100687338D02*
X119017831Y-100573052D01*
X119017831Y-100573052D02*
X119055927Y-100420671D01*
X119055927Y-100420671D02*
X119094022Y-100344480D01*
X119094022Y-100344480D02*
X119170212Y-100268290D01*
X119170212Y-100268290D02*
X119284498Y-100230195D01*
X119284498Y-100230195D02*
X119360689Y-100230195D01*
X119360689Y-100230195D02*
X119474974Y-100268290D01*
X119474974Y-100268290D02*
X119513070Y-100306385D01*
X119817831Y-100801623D02*
X120198784Y-100801623D01*
X119741641Y-101030195D02*
X120008308Y-100230195D01*
X120008308Y-100230195D02*
X120274974Y-101030195D01*
X120541641Y-101030195D02*
X120541641Y-100230195D01*
X120541641Y-100230195D02*
X120808307Y-100801623D01*
X120808307Y-100801623D02*
X121074974Y-100230195D01*
X121074974Y-100230195D02*
X121074974Y-101030195D01*
X121712769Y-131730295D02*
X122246103Y-131730295D01*
X122246103Y-131730295D02*
X121712769Y-132530295D01*
X121712769Y-132530295D02*
X122246103Y-132530295D01*
X122703246Y-131730295D02*
X122855627Y-131730295D01*
X122855627Y-131730295D02*
X122931817Y-131768390D01*
X122931817Y-131768390D02*
X123008008Y-131844580D01*
X123008008Y-131844580D02*
X123046103Y-131996961D01*
X123046103Y-131996961D02*
X123046103Y-132263628D01*
X123046103Y-132263628D02*
X123008008Y-132416009D01*
X123008008Y-132416009D02*
X122931817Y-132492200D01*
X122931817Y-132492200D02*
X122855627Y-132530295D01*
X122855627Y-132530295D02*
X122703246Y-132530295D01*
X122703246Y-132530295D02*
X122627055Y-132492200D01*
X122627055Y-132492200D02*
X122550865Y-132416009D01*
X122550865Y-132416009D02*
X122512769Y-132263628D01*
X122512769Y-132263628D02*
X122512769Y-131996961D01*
X122512769Y-131996961D02*
X122550865Y-131844580D01*
X122550865Y-131844580D02*
X122627055Y-131768390D01*
X122627055Y-131768390D02*
X122703246Y-131730295D01*
X123541341Y-131730295D02*
X123693722Y-131730295D01*
X123693722Y-131730295D02*
X123769912Y-131768390D01*
X123769912Y-131768390D02*
X123846103Y-131844580D01*
X123846103Y-131844580D02*
X123884198Y-131996961D01*
X123884198Y-131996961D02*
X123884198Y-132263628D01*
X123884198Y-132263628D02*
X123846103Y-132416009D01*
X123846103Y-132416009D02*
X123769912Y-132492200D01*
X123769912Y-132492200D02*
X123693722Y-132530295D01*
X123693722Y-132530295D02*
X123541341Y-132530295D01*
X123541341Y-132530295D02*
X123465150Y-132492200D01*
X123465150Y-132492200D02*
X123388960Y-132416009D01*
X123388960Y-132416009D02*
X123350864Y-132263628D01*
X123350864Y-132263628D02*
X123350864Y-131996961D01*
X123350864Y-131996961D02*
X123388960Y-131844580D01*
X123388960Y-131844580D02*
X123465150Y-131768390D01*
X123465150Y-131768390D02*
X123541341Y-131730295D01*
X124227055Y-132530295D02*
X124227055Y-131730295D01*
X124227055Y-131730295D02*
X124493721Y-132301723D01*
X124493721Y-132301723D02*
X124760388Y-131730295D01*
X124760388Y-131730295D02*
X124760388Y-132530295D01*
X125903246Y-131730295D02*
X126055627Y-131730295D01*
X126055627Y-131730295D02*
X126131817Y-131768390D01*
X126131817Y-131768390D02*
X126208008Y-131844580D01*
X126208008Y-131844580D02*
X126246103Y-131996961D01*
X126246103Y-131996961D02*
X126246103Y-132263628D01*
X126246103Y-132263628D02*
X126208008Y-132416009D01*
X126208008Y-132416009D02*
X126131817Y-132492200D01*
X126131817Y-132492200D02*
X126055627Y-132530295D01*
X126055627Y-132530295D02*
X125903246Y-132530295D01*
X125903246Y-132530295D02*
X125827055Y-132492200D01*
X125827055Y-132492200D02*
X125750865Y-132416009D01*
X125750865Y-132416009D02*
X125712769Y-132263628D01*
X125712769Y-132263628D02*
X125712769Y-131996961D01*
X125712769Y-131996961D02*
X125750865Y-131844580D01*
X125750865Y-131844580D02*
X125827055Y-131768390D01*
X125827055Y-131768390D02*
X125903246Y-131730295D01*
X126588960Y-131730295D02*
X126588960Y-132377914D01*
X126588960Y-132377914D02*
X126627055Y-132454104D01*
X126627055Y-132454104D02*
X126665150Y-132492200D01*
X126665150Y-132492200D02*
X126741341Y-132530295D01*
X126741341Y-132530295D02*
X126893722Y-132530295D01*
X126893722Y-132530295D02*
X126969912Y-132492200D01*
X126969912Y-132492200D02*
X127008007Y-132454104D01*
X127008007Y-132454104D02*
X127046103Y-132377914D01*
X127046103Y-132377914D02*
X127046103Y-131730295D01*
X127312769Y-131730295D02*
X127769912Y-131730295D01*
X127541340Y-132530295D02*
X127541340Y-131730295D01*
X122246103Y-151030095D02*
X121979436Y-150649142D01*
X121788960Y-151030095D02*
X121788960Y-150230095D01*
X121788960Y-150230095D02*
X122093722Y-150230095D01*
X122093722Y-150230095D02*
X122169912Y-150268190D01*
X122169912Y-150268190D02*
X122208007Y-150306285D01*
X122208007Y-150306285D02*
X122246103Y-150382476D01*
X122246103Y-150382476D02*
X122246103Y-150496761D01*
X122246103Y-150496761D02*
X122208007Y-150572952D01*
X122208007Y-150572952D02*
X122169912Y-150611047D01*
X122169912Y-150611047D02*
X122093722Y-150649142D01*
X122093722Y-150649142D02*
X121788960Y-150649142D01*
X122588960Y-151030095D02*
X122588960Y-150230095D01*
X123388959Y-150268190D02*
X123312769Y-150230095D01*
X123312769Y-150230095D02*
X123198483Y-150230095D01*
X123198483Y-150230095D02*
X123084197Y-150268190D01*
X123084197Y-150268190D02*
X123008007Y-150344380D01*
X123008007Y-150344380D02*
X122969912Y-150420571D01*
X122969912Y-150420571D02*
X122931816Y-150572952D01*
X122931816Y-150572952D02*
X122931816Y-150687238D01*
X122931816Y-150687238D02*
X122969912Y-150839619D01*
X122969912Y-150839619D02*
X123008007Y-150915809D01*
X123008007Y-150915809D02*
X123084197Y-150992000D01*
X123084197Y-150992000D02*
X123198483Y-151030095D01*
X123198483Y-151030095D02*
X123274674Y-151030095D01*
X123274674Y-151030095D02*
X123388959Y-150992000D01*
X123388959Y-150992000D02*
X123427055Y-150953904D01*
X123427055Y-150953904D02*
X123427055Y-150687238D01*
X123427055Y-150687238D02*
X123274674Y-150687238D01*
X123769912Y-151030095D02*
X123769912Y-150230095D01*
X123769912Y-150611047D02*
X124227055Y-150611047D01*
X124227055Y-151030095D02*
X124227055Y-150230095D01*
X124493721Y-150230095D02*
X124950864Y-150230095D01*
X124722292Y-151030095D02*
X124722292Y-150230095D01*
X134289060Y-101030195D02*
X134289060Y-100230195D01*
X134555726Y-100230195D02*
X134822393Y-101030195D01*
X134822393Y-101030195D02*
X135089059Y-100230195D01*
X135317630Y-100801623D02*
X135698583Y-100801623D01*
X135241440Y-101030195D02*
X135508107Y-100230195D01*
X135508107Y-100230195D02*
X135774773Y-101030195D01*
X142996403Y-64954104D02*
X142958307Y-64992200D01*
X142958307Y-64992200D02*
X142844022Y-65030295D01*
X142844022Y-65030295D02*
X142767831Y-65030295D01*
X142767831Y-65030295D02*
X142653545Y-64992200D01*
X142653545Y-64992200D02*
X142577355Y-64916009D01*
X142577355Y-64916009D02*
X142539260Y-64839819D01*
X142539260Y-64839819D02*
X142501164Y-64687438D01*
X142501164Y-64687438D02*
X142501164Y-64573152D01*
X142501164Y-64573152D02*
X142539260Y-64420771D01*
X142539260Y-64420771D02*
X142577355Y-64344580D01*
X142577355Y-64344580D02*
X142653545Y-64268390D01*
X142653545Y-64268390D02*
X142767831Y-64230295D01*
X142767831Y-64230295D02*
X142844022Y-64230295D01*
X142844022Y-64230295D02*
X142958307Y-64268390D01*
X142958307Y-64268390D02*
X142996403Y-64306485D01*
X143491641Y-64230295D02*
X143644022Y-64230295D01*
X143644022Y-64230295D02*
X143720212Y-64268390D01*
X143720212Y-64268390D02*
X143796403Y-64344580D01*
X143796403Y-64344580D02*
X143834498Y-64496961D01*
X143834498Y-64496961D02*
X143834498Y-64763628D01*
X143834498Y-64763628D02*
X143796403Y-64916009D01*
X143796403Y-64916009D02*
X143720212Y-64992200D01*
X143720212Y-64992200D02*
X143644022Y-65030295D01*
X143644022Y-65030295D02*
X143491641Y-65030295D01*
X143491641Y-65030295D02*
X143415450Y-64992200D01*
X143415450Y-64992200D02*
X143339260Y-64916009D01*
X143339260Y-64916009D02*
X143301164Y-64763628D01*
X143301164Y-64763628D02*
X143301164Y-64496961D01*
X143301164Y-64496961D02*
X143339260Y-64344580D01*
X143339260Y-64344580D02*
X143415450Y-64268390D01*
X143415450Y-64268390D02*
X143491641Y-64230295D01*
X144177355Y-65030295D02*
X144177355Y-64230295D01*
X144177355Y-64230295D02*
X144634498Y-65030295D01*
X144634498Y-65030295D02*
X144634498Y-64230295D01*
X144901164Y-64230295D02*
X145358307Y-64230295D01*
X145129735Y-65030295D02*
X145129735Y-64230295D01*
X146082117Y-65030295D02*
X145815450Y-64649342D01*
X145624974Y-65030295D02*
X145624974Y-64230295D01*
X145624974Y-64230295D02*
X145929736Y-64230295D01*
X145929736Y-64230295D02*
X146005926Y-64268390D01*
X146005926Y-64268390D02*
X146044021Y-64306485D01*
X146044021Y-64306485D02*
X146082117Y-64382676D01*
X146082117Y-64382676D02*
X146082117Y-64496961D01*
X146082117Y-64496961D02*
X146044021Y-64573152D01*
X146044021Y-64573152D02*
X146005926Y-64611247D01*
X146005926Y-64611247D02*
X145929736Y-64649342D01*
X145929736Y-64649342D02*
X145624974Y-64649342D01*
X146577355Y-64230295D02*
X146729736Y-64230295D01*
X146729736Y-64230295D02*
X146805926Y-64268390D01*
X146805926Y-64268390D02*
X146882117Y-64344580D01*
X146882117Y-64344580D02*
X146920212Y-64496961D01*
X146920212Y-64496961D02*
X146920212Y-64763628D01*
X146920212Y-64763628D02*
X146882117Y-64916009D01*
X146882117Y-64916009D02*
X146805926Y-64992200D01*
X146805926Y-64992200D02*
X146729736Y-65030295D01*
X146729736Y-65030295D02*
X146577355Y-65030295D01*
X146577355Y-65030295D02*
X146501164Y-64992200D01*
X146501164Y-64992200D02*
X146424974Y-64916009D01*
X146424974Y-64916009D02*
X146386878Y-64763628D01*
X146386878Y-64763628D02*
X146386878Y-64496961D01*
X146386878Y-64496961D02*
X146424974Y-64344580D01*
X146424974Y-64344580D02*
X146501164Y-64268390D01*
X146501164Y-64268390D02*
X146577355Y-64230295D01*
X147644021Y-65030295D02*
X147263069Y-65030295D01*
X147263069Y-65030295D02*
X147263069Y-64230295D01*
X148901164Y-65030295D02*
X148520212Y-65030295D01*
X148520212Y-65030295D02*
X148520212Y-64230295D01*
X149320212Y-64230295D02*
X149472593Y-64230295D01*
X149472593Y-64230295D02*
X149548783Y-64268390D01*
X149548783Y-64268390D02*
X149624974Y-64344580D01*
X149624974Y-64344580D02*
X149663069Y-64496961D01*
X149663069Y-64496961D02*
X149663069Y-64763628D01*
X149663069Y-64763628D02*
X149624974Y-64916009D01*
X149624974Y-64916009D02*
X149548783Y-64992200D01*
X149548783Y-64992200D02*
X149472593Y-65030295D01*
X149472593Y-65030295D02*
X149320212Y-65030295D01*
X149320212Y-65030295D02*
X149244021Y-64992200D01*
X149244021Y-64992200D02*
X149167831Y-64916009D01*
X149167831Y-64916009D02*
X149129735Y-64763628D01*
X149129735Y-64763628D02*
X149129735Y-64496961D01*
X149129735Y-64496961D02*
X149167831Y-64344580D01*
X149167831Y-64344580D02*
X149244021Y-64268390D01*
X149244021Y-64268390D02*
X149320212Y-64230295D01*
X150424973Y-64268390D02*
X150348783Y-64230295D01*
X150348783Y-64230295D02*
X150234497Y-64230295D01*
X150234497Y-64230295D02*
X150120211Y-64268390D01*
X150120211Y-64268390D02*
X150044021Y-64344580D01*
X150044021Y-64344580D02*
X150005926Y-64420771D01*
X150005926Y-64420771D02*
X149967830Y-64573152D01*
X149967830Y-64573152D02*
X149967830Y-64687438D01*
X149967830Y-64687438D02*
X150005926Y-64839819D01*
X150005926Y-64839819D02*
X150044021Y-64916009D01*
X150044021Y-64916009D02*
X150120211Y-64992200D01*
X150120211Y-64992200D02*
X150234497Y-65030295D01*
X150234497Y-65030295D02*
X150310688Y-65030295D01*
X150310688Y-65030295D02*
X150424973Y-64992200D01*
X150424973Y-64992200D02*
X150463069Y-64954104D01*
X150463069Y-64954104D02*
X150463069Y-64687438D01*
X150463069Y-64687438D02*
X150310688Y-64687438D01*
X150805926Y-65030295D02*
X150805926Y-64230295D01*
X151644021Y-64954104D02*
X151605925Y-64992200D01*
X151605925Y-64992200D02*
X151491640Y-65030295D01*
X151491640Y-65030295D02*
X151415449Y-65030295D01*
X151415449Y-65030295D02*
X151301163Y-64992200D01*
X151301163Y-64992200D02*
X151224973Y-64916009D01*
X151224973Y-64916009D02*
X151186878Y-64839819D01*
X151186878Y-64839819D02*
X151148782Y-64687438D01*
X151148782Y-64687438D02*
X151148782Y-64573152D01*
X151148782Y-64573152D02*
X151186878Y-64420771D01*
X151186878Y-64420771D02*
X151224973Y-64344580D01*
X151224973Y-64344580D02*
X151301163Y-64268390D01*
X151301163Y-64268390D02*
X151415449Y-64230295D01*
X151415449Y-64230295D02*
X151491640Y-64230295D01*
X151491640Y-64230295D02*
X151605925Y-64268390D01*
X151605925Y-64268390D02*
X151644021Y-64306485D01*
X143789160Y-131730295D02*
X143789160Y-132377914D01*
X143789160Y-132377914D02*
X143827255Y-132454104D01*
X143827255Y-132454104D02*
X143865350Y-132492200D01*
X143865350Y-132492200D02*
X143941541Y-132530295D01*
X143941541Y-132530295D02*
X144093922Y-132530295D01*
X144093922Y-132530295D02*
X144170112Y-132492200D01*
X144170112Y-132492200D02*
X144208207Y-132454104D01*
X144208207Y-132454104D02*
X144246303Y-132377914D01*
X144246303Y-132377914D02*
X144246303Y-131730295D01*
X144627255Y-132530295D02*
X144627255Y-131730295D01*
X144627255Y-131730295D02*
X144932017Y-131730295D01*
X144932017Y-131730295D02*
X145008207Y-131768390D01*
X145008207Y-131768390D02*
X145046302Y-131806485D01*
X145046302Y-131806485D02*
X145084398Y-131882676D01*
X145084398Y-131882676D02*
X145084398Y-131996961D01*
X145084398Y-131996961D02*
X145046302Y-132073152D01*
X145046302Y-132073152D02*
X145008207Y-132111247D01*
X145008207Y-132111247D02*
X144932017Y-132149342D01*
X144932017Y-132149342D02*
X144627255Y-132149342D01*
X143789160Y-151030095D02*
X143789160Y-150230095D01*
X143789160Y-150230095D02*
X143979636Y-150230095D01*
X143979636Y-150230095D02*
X144093922Y-150268190D01*
X144093922Y-150268190D02*
X144170112Y-150344380D01*
X144170112Y-150344380D02*
X144208207Y-150420571D01*
X144208207Y-150420571D02*
X144246303Y-150572952D01*
X144246303Y-150572952D02*
X144246303Y-150687238D01*
X144246303Y-150687238D02*
X144208207Y-150839619D01*
X144208207Y-150839619D02*
X144170112Y-150915809D01*
X144170112Y-150915809D02*
X144093922Y-150992000D01*
X144093922Y-150992000D02*
X143979636Y-151030095D01*
X143979636Y-151030095D02*
X143789160Y-151030095D01*
X144741541Y-150230095D02*
X144893922Y-150230095D01*
X144893922Y-150230095D02*
X144970112Y-150268190D01*
X144970112Y-150268190D02*
X145046303Y-150344380D01*
X145046303Y-150344380D02*
X145084398Y-150496761D01*
X145084398Y-150496761D02*
X145084398Y-150763428D01*
X145084398Y-150763428D02*
X145046303Y-150915809D01*
X145046303Y-150915809D02*
X144970112Y-150992000D01*
X144970112Y-150992000D02*
X144893922Y-151030095D01*
X144893922Y-151030095D02*
X144741541Y-151030095D01*
X144741541Y-151030095D02*
X144665350Y-150992000D01*
X144665350Y-150992000D02*
X144589160Y-150915809D01*
X144589160Y-150915809D02*
X144551064Y-150763428D01*
X144551064Y-150763428D02*
X144551064Y-150496761D01*
X144551064Y-150496761D02*
X144589160Y-150344380D01*
X144589160Y-150344380D02*
X144665350Y-150268190D01*
X144665350Y-150268190D02*
X144741541Y-150230095D01*
X145351064Y-150230095D02*
X145541540Y-151030095D01*
X145541540Y-151030095D02*
X145693921Y-150458666D01*
X145693921Y-150458666D02*
X145846302Y-151030095D01*
X145846302Y-151030095D02*
X146036779Y-150230095D01*
X146341541Y-151030095D02*
X146341541Y-150230095D01*
X146341541Y-150230095D02*
X146798684Y-151030095D01*
X146798684Y-151030095D02*
X146798684Y-150230095D01*
X153250964Y-100992100D02*
X153365250Y-101030195D01*
X153365250Y-101030195D02*
X153555726Y-101030195D01*
X153555726Y-101030195D02*
X153631917Y-100992100D01*
X153631917Y-100992100D02*
X153670012Y-100954004D01*
X153670012Y-100954004D02*
X153708107Y-100877814D01*
X153708107Y-100877814D02*
X153708107Y-100801623D01*
X153708107Y-100801623D02*
X153670012Y-100725433D01*
X153670012Y-100725433D02*
X153631917Y-100687338D01*
X153631917Y-100687338D02*
X153555726Y-100649242D01*
X153555726Y-100649242D02*
X153403345Y-100611147D01*
X153403345Y-100611147D02*
X153327155Y-100573052D01*
X153327155Y-100573052D02*
X153289060Y-100534957D01*
X153289060Y-100534957D02*
X153250964Y-100458766D01*
X153250964Y-100458766D02*
X153250964Y-100382576D01*
X153250964Y-100382576D02*
X153289060Y-100306385D01*
X153289060Y-100306385D02*
X153327155Y-100268290D01*
X153327155Y-100268290D02*
X153403345Y-100230195D01*
X153403345Y-100230195D02*
X153593822Y-100230195D01*
X153593822Y-100230195D02*
X153708107Y-100268290D01*
X154508108Y-100954004D02*
X154470012Y-100992100D01*
X154470012Y-100992100D02*
X154355727Y-101030195D01*
X154355727Y-101030195D02*
X154279536Y-101030195D01*
X154279536Y-101030195D02*
X154165250Y-100992100D01*
X154165250Y-100992100D02*
X154089060Y-100915909D01*
X154089060Y-100915909D02*
X154050965Y-100839719D01*
X154050965Y-100839719D02*
X154012869Y-100687338D01*
X154012869Y-100687338D02*
X154012869Y-100573052D01*
X154012869Y-100573052D02*
X154050965Y-100420671D01*
X154050965Y-100420671D02*
X154089060Y-100344480D01*
X154089060Y-100344480D02*
X154165250Y-100268290D01*
X154165250Y-100268290D02*
X154279536Y-100230195D01*
X154279536Y-100230195D02*
X154355727Y-100230195D01*
X154355727Y-100230195D02*
X154470012Y-100268290D01*
X154470012Y-100268290D02*
X154508108Y-100306385D01*
X155308108Y-101030195D02*
X155041441Y-100649242D01*
X154850965Y-101030195D02*
X154850965Y-100230195D01*
X154850965Y-100230195D02*
X155155727Y-100230195D01*
X155155727Y-100230195D02*
X155231917Y-100268290D01*
X155231917Y-100268290D02*
X155270012Y-100306385D01*
X155270012Y-100306385D02*
X155308108Y-100382576D01*
X155308108Y-100382576D02*
X155308108Y-100496861D01*
X155308108Y-100496861D02*
X155270012Y-100573052D01*
X155270012Y-100573052D02*
X155231917Y-100611147D01*
X155231917Y-100611147D02*
X155155727Y-100649242D01*
X155155727Y-100649242D02*
X154850965Y-100649242D01*
X155650965Y-100611147D02*
X155917631Y-100611147D01*
X156031917Y-101030195D02*
X155650965Y-101030195D01*
X155650965Y-101030195D02*
X155650965Y-100230195D01*
X155650965Y-100230195D02*
X156031917Y-100230195D01*
X156374775Y-100611147D02*
X156641441Y-100611147D01*
X156755727Y-101030195D02*
X156374775Y-101030195D01*
X156374775Y-101030195D02*
X156374775Y-100230195D01*
X156374775Y-100230195D02*
X156755727Y-100230195D01*
X157098585Y-101030195D02*
X157098585Y-100230195D01*
X157098585Y-100230195D02*
X157555728Y-101030195D01*
X157555728Y-101030195D02*
X157555728Y-100230195D01*
X158508108Y-100992100D02*
X158622394Y-101030195D01*
X158622394Y-101030195D02*
X158812870Y-101030195D01*
X158812870Y-101030195D02*
X158889061Y-100992100D01*
X158889061Y-100992100D02*
X158927156Y-100954004D01*
X158927156Y-100954004D02*
X158965251Y-100877814D01*
X158965251Y-100877814D02*
X158965251Y-100801623D01*
X158965251Y-100801623D02*
X158927156Y-100725433D01*
X158927156Y-100725433D02*
X158889061Y-100687338D01*
X158889061Y-100687338D02*
X158812870Y-100649242D01*
X158812870Y-100649242D02*
X158660489Y-100611147D01*
X158660489Y-100611147D02*
X158584299Y-100573052D01*
X158584299Y-100573052D02*
X158546204Y-100534957D01*
X158546204Y-100534957D02*
X158508108Y-100458766D01*
X158508108Y-100458766D02*
X158508108Y-100382576D01*
X158508108Y-100382576D02*
X158546204Y-100306385D01*
X158546204Y-100306385D02*
X158584299Y-100268290D01*
X158584299Y-100268290D02*
X158660489Y-100230195D01*
X158660489Y-100230195D02*
X158850966Y-100230195D01*
X158850966Y-100230195D02*
X158965251Y-100268290D01*
X159308109Y-101030195D02*
X159308109Y-100230195D01*
X159308109Y-100611147D02*
X159765252Y-100611147D01*
X159765252Y-101030195D02*
X159765252Y-100230195D01*
X160298585Y-100230195D02*
X160450966Y-100230195D01*
X160450966Y-100230195D02*
X160527156Y-100268290D01*
X160527156Y-100268290D02*
X160603347Y-100344480D01*
X160603347Y-100344480D02*
X160641442Y-100496861D01*
X160641442Y-100496861D02*
X160641442Y-100763528D01*
X160641442Y-100763528D02*
X160603347Y-100915909D01*
X160603347Y-100915909D02*
X160527156Y-100992100D01*
X160527156Y-100992100D02*
X160450966Y-101030195D01*
X160450966Y-101030195D02*
X160298585Y-101030195D01*
X160298585Y-101030195D02*
X160222394Y-100992100D01*
X160222394Y-100992100D02*
X160146204Y-100915909D01*
X160146204Y-100915909D02*
X160108108Y-100763528D01*
X160108108Y-100763528D02*
X160108108Y-100496861D01*
X160108108Y-100496861D02*
X160146204Y-100344480D01*
X160146204Y-100344480D02*
X160222394Y-100268290D01*
X160222394Y-100268290D02*
X160298585Y-100230195D01*
X160870013Y-100230195D02*
X161327156Y-100230195D01*
X161098584Y-101030195D02*
X161098584Y-100230195D01*
X165712969Y-131730295D02*
X166246303Y-131730295D01*
X166246303Y-131730295D02*
X165712969Y-132530295D01*
X165712969Y-132530295D02*
X166246303Y-132530295D01*
X166703446Y-131730295D02*
X166855827Y-131730295D01*
X166855827Y-131730295D02*
X166932017Y-131768390D01*
X166932017Y-131768390D02*
X167008208Y-131844580D01*
X167008208Y-131844580D02*
X167046303Y-131996961D01*
X167046303Y-131996961D02*
X167046303Y-132263628D01*
X167046303Y-132263628D02*
X167008208Y-132416009D01*
X167008208Y-132416009D02*
X166932017Y-132492200D01*
X166932017Y-132492200D02*
X166855827Y-132530295D01*
X166855827Y-132530295D02*
X166703446Y-132530295D01*
X166703446Y-132530295D02*
X166627255Y-132492200D01*
X166627255Y-132492200D02*
X166551065Y-132416009D01*
X166551065Y-132416009D02*
X166512969Y-132263628D01*
X166512969Y-132263628D02*
X166512969Y-131996961D01*
X166512969Y-131996961D02*
X166551065Y-131844580D01*
X166551065Y-131844580D02*
X166627255Y-131768390D01*
X166627255Y-131768390D02*
X166703446Y-131730295D01*
X167541541Y-131730295D02*
X167693922Y-131730295D01*
X167693922Y-131730295D02*
X167770112Y-131768390D01*
X167770112Y-131768390D02*
X167846303Y-131844580D01*
X167846303Y-131844580D02*
X167884398Y-131996961D01*
X167884398Y-131996961D02*
X167884398Y-132263628D01*
X167884398Y-132263628D02*
X167846303Y-132416009D01*
X167846303Y-132416009D02*
X167770112Y-132492200D01*
X167770112Y-132492200D02*
X167693922Y-132530295D01*
X167693922Y-132530295D02*
X167541541Y-132530295D01*
X167541541Y-132530295D02*
X167465350Y-132492200D01*
X167465350Y-132492200D02*
X167389160Y-132416009D01*
X167389160Y-132416009D02*
X167351064Y-132263628D01*
X167351064Y-132263628D02*
X167351064Y-131996961D01*
X167351064Y-131996961D02*
X167389160Y-131844580D01*
X167389160Y-131844580D02*
X167465350Y-131768390D01*
X167465350Y-131768390D02*
X167541541Y-131730295D01*
X168227255Y-132530295D02*
X168227255Y-131730295D01*
X168227255Y-131730295D02*
X168493921Y-132301723D01*
X168493921Y-132301723D02*
X168760588Y-131730295D01*
X168760588Y-131730295D02*
X168760588Y-132530295D01*
X169751065Y-132530295D02*
X169751065Y-131730295D01*
X170132017Y-132530295D02*
X170132017Y-131730295D01*
X170132017Y-131730295D02*
X170589160Y-132530295D01*
X170589160Y-132530295D02*
X170589160Y-131730295D01*
X166170112Y-151030095D02*
X165789160Y-151030095D01*
X165789160Y-151030095D02*
X165789160Y-150230095D01*
X166436779Y-150611047D02*
X166703445Y-150611047D01*
X166817731Y-151030095D02*
X166436779Y-151030095D01*
X166436779Y-151030095D02*
X166436779Y-150230095D01*
X166436779Y-150230095D02*
X166817731Y-150230095D01*
X167427255Y-150611047D02*
X167160589Y-150611047D01*
X167160589Y-151030095D02*
X167160589Y-150230095D01*
X167160589Y-150230095D02*
X167541541Y-150230095D01*
X167732017Y-150230095D02*
X168189160Y-150230095D01*
X167960588Y-151030095D02*
X167960588Y-150230095D01*
X172789160Y-100230195D02*
X172789160Y-100877814D01*
X172789160Y-100877814D02*
X172827255Y-100954004D01*
X172827255Y-100954004D02*
X172865350Y-100992100D01*
X172865350Y-100992100D02*
X172941541Y-101030195D01*
X172941541Y-101030195D02*
X173093922Y-101030195D01*
X173093922Y-101030195D02*
X173170112Y-100992100D01*
X173170112Y-100992100D02*
X173208207Y-100954004D01*
X173208207Y-100954004D02*
X173246303Y-100877814D01*
X173246303Y-100877814D02*
X173246303Y-100230195D01*
X173627255Y-101030195D02*
X173627255Y-100230195D01*
X125228684Y-71035533D02*
X125835350Y-71035533D01*
X125835350Y-71035533D02*
X125445350Y-71945533D01*
X126572017Y-71338866D02*
X126572017Y-71945533D01*
X126355351Y-70992200D02*
X126138684Y-71642200D01*
X126138684Y-71642200D02*
X126702017Y-71642200D01*
X127048684Y-71945533D02*
X127048684Y-71035533D01*
X127048684Y-71468866D02*
X127568684Y-71468866D01*
X127568684Y-71945533D02*
X127568684Y-71035533D01*
X128522017Y-71858866D02*
X128478684Y-71902200D01*
X128478684Y-71902200D02*
X128348684Y-71945533D01*
X128348684Y-71945533D02*
X128262017Y-71945533D01*
X128262017Y-71945533D02*
X128132017Y-71902200D01*
X128132017Y-71902200D02*
X128045351Y-71815533D01*
X128045351Y-71815533D02*
X128002017Y-71728866D01*
X128002017Y-71728866D02*
X127958684Y-71555533D01*
X127958684Y-71555533D02*
X127958684Y-71425533D01*
X127958684Y-71425533D02*
X128002017Y-71252200D01*
X128002017Y-71252200D02*
X128045351Y-71165533D01*
X128045351Y-71165533D02*
X128132017Y-71078866D01*
X128132017Y-71078866D02*
X128262017Y-71035533D01*
X128262017Y-71035533D02*
X128348684Y-71035533D01*
X128348684Y-71035533D02*
X128478684Y-71078866D01*
X128478684Y-71078866D02*
X128522017Y-71122200D01*
X129388684Y-71945533D02*
X128868684Y-71945533D01*
X129128684Y-71945533D02*
X129128684Y-71035533D01*
X129128684Y-71035533D02*
X129042017Y-71165533D01*
X129042017Y-71165533D02*
X128955351Y-71252200D01*
X128955351Y-71252200D02*
X128868684Y-71295533D01*
X130168684Y-71035533D02*
X129995351Y-71035533D01*
X129995351Y-71035533D02*
X129908684Y-71078866D01*
X129908684Y-71078866D02*
X129865351Y-71122200D01*
X129865351Y-71122200D02*
X129778684Y-71252200D01*
X129778684Y-71252200D02*
X129735351Y-71425533D01*
X129735351Y-71425533D02*
X129735351Y-71772200D01*
X129735351Y-71772200D02*
X129778684Y-71858866D01*
X129778684Y-71858866D02*
X129822018Y-71902200D01*
X129822018Y-71902200D02*
X129908684Y-71945533D01*
X129908684Y-71945533D02*
X130082018Y-71945533D01*
X130082018Y-71945533D02*
X130168684Y-71902200D01*
X130168684Y-71902200D02*
X130212018Y-71858866D01*
X130212018Y-71858866D02*
X130255351Y-71772200D01*
X130255351Y-71772200D02*
X130255351Y-71555533D01*
X130255351Y-71555533D02*
X130212018Y-71468866D01*
X130212018Y-71468866D02*
X130168684Y-71425533D01*
X130168684Y-71425533D02*
X130082018Y-71382200D01*
X130082018Y-71382200D02*
X129908684Y-71382200D01*
X129908684Y-71382200D02*
X129822018Y-71425533D01*
X129822018Y-71425533D02*
X129778684Y-71468866D01*
X129778684Y-71468866D02*
X129735351Y-71555533D01*
X131078685Y-71035533D02*
X130645351Y-71035533D01*
X130645351Y-71035533D02*
X130602018Y-71468866D01*
X130602018Y-71468866D02*
X130645351Y-71425533D01*
X130645351Y-71425533D02*
X130732018Y-71382200D01*
X130732018Y-71382200D02*
X130948685Y-71382200D01*
X130948685Y-71382200D02*
X131035351Y-71425533D01*
X131035351Y-71425533D02*
X131078685Y-71468866D01*
X131078685Y-71468866D02*
X131122018Y-71555533D01*
X131122018Y-71555533D02*
X131122018Y-71772200D01*
X131122018Y-71772200D02*
X131078685Y-71858866D01*
X131078685Y-71858866D02*
X131035351Y-71902200D01*
X131035351Y-71902200D02*
X130948685Y-71945533D01*
X130948685Y-71945533D02*
X130732018Y-71945533D01*
X130732018Y-71945533D02*
X130645351Y-71902200D01*
X130645351Y-71902200D02*
X130602018Y-71858866D01*
X152978684Y-71035533D02*
X153585350Y-71035533D01*
X153585350Y-71035533D02*
X153195350Y-71945533D01*
X154322017Y-71338866D02*
X154322017Y-71945533D01*
X154105351Y-70992200D02*
X153888684Y-71642200D01*
X153888684Y-71642200D02*
X154452017Y-71642200D01*
X154798684Y-71945533D02*
X154798684Y-71035533D01*
X154798684Y-71468866D02*
X155318684Y-71468866D01*
X155318684Y-71945533D02*
X155318684Y-71035533D01*
X156272017Y-71858866D02*
X156228684Y-71902200D01*
X156228684Y-71902200D02*
X156098684Y-71945533D01*
X156098684Y-71945533D02*
X156012017Y-71945533D01*
X156012017Y-71945533D02*
X155882017Y-71902200D01*
X155882017Y-71902200D02*
X155795351Y-71815533D01*
X155795351Y-71815533D02*
X155752017Y-71728866D01*
X155752017Y-71728866D02*
X155708684Y-71555533D01*
X155708684Y-71555533D02*
X155708684Y-71425533D01*
X155708684Y-71425533D02*
X155752017Y-71252200D01*
X155752017Y-71252200D02*
X155795351Y-71165533D01*
X155795351Y-71165533D02*
X155882017Y-71078866D01*
X155882017Y-71078866D02*
X156012017Y-71035533D01*
X156012017Y-71035533D02*
X156098684Y-71035533D01*
X156098684Y-71035533D02*
X156228684Y-71078866D01*
X156228684Y-71078866D02*
X156272017Y-71122200D01*
X157138684Y-71945533D02*
X156618684Y-71945533D01*
X156878684Y-71945533D02*
X156878684Y-71035533D01*
X156878684Y-71035533D02*
X156792017Y-71165533D01*
X156792017Y-71165533D02*
X156705351Y-71252200D01*
X156705351Y-71252200D02*
X156618684Y-71295533D01*
X157918684Y-71035533D02*
X157745351Y-71035533D01*
X157745351Y-71035533D02*
X157658684Y-71078866D01*
X157658684Y-71078866D02*
X157615351Y-71122200D01*
X157615351Y-71122200D02*
X157528684Y-71252200D01*
X157528684Y-71252200D02*
X157485351Y-71425533D01*
X157485351Y-71425533D02*
X157485351Y-71772200D01*
X157485351Y-71772200D02*
X157528684Y-71858866D01*
X157528684Y-71858866D02*
X157572018Y-71902200D01*
X157572018Y-71902200D02*
X157658684Y-71945533D01*
X157658684Y-71945533D02*
X157832018Y-71945533D01*
X157832018Y-71945533D02*
X157918684Y-71902200D01*
X157918684Y-71902200D02*
X157962018Y-71858866D01*
X157962018Y-71858866D02*
X158005351Y-71772200D01*
X158005351Y-71772200D02*
X158005351Y-71555533D01*
X158005351Y-71555533D02*
X157962018Y-71468866D01*
X157962018Y-71468866D02*
X157918684Y-71425533D01*
X157918684Y-71425533D02*
X157832018Y-71382200D01*
X157832018Y-71382200D02*
X157658684Y-71382200D01*
X157658684Y-71382200D02*
X157572018Y-71425533D01*
X157572018Y-71425533D02*
X157528684Y-71468866D01*
X157528684Y-71468866D02*
X157485351Y-71555533D01*
X158828685Y-71035533D02*
X158395351Y-71035533D01*
X158395351Y-71035533D02*
X158352018Y-71468866D01*
X158352018Y-71468866D02*
X158395351Y-71425533D01*
X158395351Y-71425533D02*
X158482018Y-71382200D01*
X158482018Y-71382200D02*
X158698685Y-71382200D01*
X158698685Y-71382200D02*
X158785351Y-71425533D01*
X158785351Y-71425533D02*
X158828685Y-71468866D01*
X158828685Y-71468866D02*
X158872018Y-71555533D01*
X158872018Y-71555533D02*
X158872018Y-71772200D01*
X158872018Y-71772200D02*
X158828685Y-71858866D01*
X158828685Y-71858866D02*
X158785351Y-71902200D01*
X158785351Y-71902200D02*
X158698685Y-71945533D01*
X158698685Y-71945533D02*
X158482018Y-71945533D01*
X158482018Y-71945533D02*
X158395351Y-71902200D01*
X158395351Y-71902200D02*
X158352018Y-71858866D01*
X174522017Y-71435533D02*
X174955350Y-71435533D01*
X174435350Y-71695533D02*
X174738684Y-70785533D01*
X174738684Y-70785533D02*
X175042017Y-71695533D01*
X175215350Y-70785533D02*
X175735350Y-70785533D01*
X175475350Y-71695533D02*
X175475350Y-70785533D01*
X175908683Y-70785533D02*
X176428683Y-70785533D01*
X176168683Y-71695533D02*
X176168683Y-70785533D01*
X176732016Y-71695533D02*
X176732016Y-70785533D01*
X177165349Y-71695533D02*
X177165349Y-70785533D01*
X177165349Y-70785533D02*
X177685349Y-71695533D01*
X177685349Y-71695533D02*
X177685349Y-70785533D01*
X178292016Y-71262200D02*
X178292016Y-71695533D01*
X177988682Y-70785533D02*
X178292016Y-71262200D01*
X178292016Y-71262200D02*
X178595349Y-70785533D01*
X179288682Y-71088866D02*
X179288682Y-71695533D01*
X179072016Y-70742200D02*
X178855349Y-71392200D01*
X178855349Y-71392200D02*
X179418682Y-71392200D01*
X180198683Y-70785533D02*
X179765349Y-70785533D01*
X179765349Y-70785533D02*
X179722016Y-71218866D01*
X179722016Y-71218866D02*
X179765349Y-71175533D01*
X179765349Y-71175533D02*
X179852016Y-71132200D01*
X179852016Y-71132200D02*
X180068683Y-71132200D01*
X180068683Y-71132200D02*
X180155349Y-71175533D01*
X180155349Y-71175533D02*
X180198683Y-71218866D01*
X180198683Y-71218866D02*
X180242016Y-71305533D01*
X180242016Y-71305533D02*
X180242016Y-71522200D01*
X180242016Y-71522200D02*
X180198683Y-71608866D01*
X180198683Y-71608866D02*
X180155349Y-71652200D01*
X180155349Y-71652200D02*
X180068683Y-71695533D01*
X180068683Y-71695533D02*
X179852016Y-71695533D01*
X179852016Y-71695533D02*
X179765349Y-71652200D01*
X179765349Y-71652200D02*
X179722016Y-71608866D01*
D14*
X101067695Y-71619297D02*
X101009600Y-71561201D01*
X101009600Y-71561201D02*
X100951504Y-71386916D01*
X100951504Y-71386916D02*
X100951504Y-71270725D01*
X100951504Y-71270725D02*
X101009600Y-71096439D01*
X101009600Y-71096439D02*
X101125790Y-70980249D01*
X101125790Y-70980249D02*
X101241980Y-70922154D01*
X101241980Y-70922154D02*
X101474361Y-70864058D01*
X101474361Y-70864058D02*
X101648647Y-70864058D01*
X101648647Y-70864058D02*
X101881028Y-70922154D01*
X101881028Y-70922154D02*
X101997219Y-70980249D01*
X101997219Y-70980249D02*
X102113409Y-71096439D01*
X102113409Y-71096439D02*
X102171504Y-71270725D01*
X102171504Y-71270725D02*
X102171504Y-71386916D01*
X102171504Y-71386916D02*
X102113409Y-71561201D01*
X102113409Y-71561201D02*
X102055314Y-71619297D01*
X101300076Y-72084058D02*
X101300076Y-72665011D01*
X100951504Y-71967868D02*
X102171504Y-72374535D01*
X102171504Y-72374535D02*
X100951504Y-72781201D01*
X100951504Y-73187868D02*
X102171504Y-73187868D01*
X102171504Y-73187868D02*
X101300076Y-73594534D01*
X101300076Y-73594534D02*
X102171504Y-74001201D01*
X102171504Y-74001201D02*
X100951504Y-74001201D01*
X101590552Y-74582154D02*
X101590552Y-74988820D01*
X100951504Y-75163106D02*
X100951504Y-74582154D01*
X100951504Y-74582154D02*
X102171504Y-74582154D01*
X102171504Y-74582154D02*
X102171504Y-75163106D01*
X100951504Y-76383107D02*
X101532457Y-75976440D01*
X100951504Y-75685964D02*
X102171504Y-75685964D01*
X102171504Y-75685964D02*
X102171504Y-76150726D01*
X102171504Y-76150726D02*
X102113409Y-76266916D01*
X102113409Y-76266916D02*
X102055314Y-76325011D01*
X102055314Y-76325011D02*
X101939123Y-76383107D01*
X101939123Y-76383107D02*
X101764838Y-76383107D01*
X101764838Y-76383107D02*
X101648647Y-76325011D01*
X101648647Y-76325011D02*
X101590552Y-76266916D01*
X101590552Y-76266916D02*
X101532457Y-76150726D01*
X101532457Y-76150726D02*
X101532457Y-75685964D01*
X101300076Y-76847868D02*
X101300076Y-77428821D01*
X100951504Y-76731678D02*
X102171504Y-77138345D01*
X102171504Y-77138345D02*
X100951504Y-77545011D01*
X100951504Y-78881202D02*
X102171504Y-78881202D01*
X102171504Y-78881202D02*
X101300076Y-79287868D01*
X101300076Y-79287868D02*
X102171504Y-79694535D01*
X102171504Y-79694535D02*
X100951504Y-79694535D01*
X102171504Y-80507869D02*
X102171504Y-80740250D01*
X102171504Y-80740250D02*
X102113409Y-80856440D01*
X102113409Y-80856440D02*
X101997219Y-80972631D01*
X101997219Y-80972631D02*
X101764838Y-81030726D01*
X101764838Y-81030726D02*
X101358171Y-81030726D01*
X101358171Y-81030726D02*
X101125790Y-80972631D01*
X101125790Y-80972631D02*
X101009600Y-80856440D01*
X101009600Y-80856440D02*
X100951504Y-80740250D01*
X100951504Y-80740250D02*
X100951504Y-80507869D01*
X100951504Y-80507869D02*
X101009600Y-80391678D01*
X101009600Y-80391678D02*
X101125790Y-80275488D01*
X101125790Y-80275488D02*
X101358171Y-80217392D01*
X101358171Y-80217392D02*
X101764838Y-80217392D01*
X101764838Y-80217392D02*
X101997219Y-80275488D01*
X101997219Y-80275488D02*
X102113409Y-80391678D01*
X102113409Y-80391678D02*
X102171504Y-80507869D01*
X100951504Y-81553583D02*
X102171504Y-81553583D01*
X102171504Y-81553583D02*
X102171504Y-81844059D01*
X102171504Y-81844059D02*
X102113409Y-82018345D01*
X102113409Y-82018345D02*
X101997219Y-82134535D01*
X101997219Y-82134535D02*
X101881028Y-82192630D01*
X101881028Y-82192630D02*
X101648647Y-82250726D01*
X101648647Y-82250726D02*
X101474361Y-82250726D01*
X101474361Y-82250726D02*
X101241980Y-82192630D01*
X101241980Y-82192630D02*
X101125790Y-82134535D01*
X101125790Y-82134535D02*
X101009600Y-82018345D01*
X101009600Y-82018345D02*
X100951504Y-81844059D01*
X100951504Y-81844059D02*
X100951504Y-81553583D01*
X102171504Y-82773583D02*
X101183885Y-82773583D01*
X101183885Y-82773583D02*
X101067695Y-82831678D01*
X101067695Y-82831678D02*
X101009600Y-82889773D01*
X101009600Y-82889773D02*
X100951504Y-83005964D01*
X100951504Y-83005964D02*
X100951504Y-83238345D01*
X100951504Y-83238345D02*
X101009600Y-83354535D01*
X101009600Y-83354535D02*
X101067695Y-83412630D01*
X101067695Y-83412630D02*
X101183885Y-83470726D01*
X101183885Y-83470726D02*
X102171504Y-83470726D01*
X100951504Y-84632630D02*
X100951504Y-84051678D01*
X100951504Y-84051678D02*
X102171504Y-84051678D01*
X101590552Y-85039297D02*
X101590552Y-85445963D01*
X100951504Y-85620249D02*
X100951504Y-85039297D01*
X100951504Y-85039297D02*
X102171504Y-85039297D01*
X102171504Y-85039297D02*
X102171504Y-85620249D01*
X101764838Y-86956440D02*
X100951504Y-87246916D01*
X100951504Y-87246916D02*
X101764838Y-87537393D01*
X100951504Y-88641202D02*
X100951504Y-87944059D01*
X100951504Y-88292631D02*
X102171504Y-88292631D01*
X102171504Y-88292631D02*
X101997219Y-88176440D01*
X101997219Y-88176440D02*
X101881028Y-88060250D01*
X101881028Y-88060250D02*
X101822933Y-87944059D01*
X101067695Y-89164060D02*
X101009600Y-89222155D01*
X101009600Y-89222155D02*
X100951504Y-89164060D01*
X100951504Y-89164060D02*
X101009600Y-89105964D01*
X101009600Y-89105964D02*
X101067695Y-89164060D01*
X101067695Y-89164060D02*
X100951504Y-89164060D01*
X101648647Y-89919297D02*
X101706742Y-89803107D01*
X101706742Y-89803107D02*
X101764838Y-89745012D01*
X101764838Y-89745012D02*
X101881028Y-89686916D01*
X101881028Y-89686916D02*
X101939123Y-89686916D01*
X101939123Y-89686916D02*
X102055314Y-89745012D01*
X102055314Y-89745012D02*
X102113409Y-89803107D01*
X102113409Y-89803107D02*
X102171504Y-89919297D01*
X102171504Y-89919297D02*
X102171504Y-90151678D01*
X102171504Y-90151678D02*
X102113409Y-90267869D01*
X102113409Y-90267869D02*
X102055314Y-90325964D01*
X102055314Y-90325964D02*
X101939123Y-90384059D01*
X101939123Y-90384059D02*
X101881028Y-90384059D01*
X101881028Y-90384059D02*
X101764838Y-90325964D01*
X101764838Y-90325964D02*
X101706742Y-90267869D01*
X101706742Y-90267869D02*
X101648647Y-90151678D01*
X101648647Y-90151678D02*
X101648647Y-89919297D01*
X101648647Y-89919297D02*
X101590552Y-89803107D01*
X101590552Y-89803107D02*
X101532457Y-89745012D01*
X101532457Y-89745012D02*
X101416266Y-89686916D01*
X101416266Y-89686916D02*
X101183885Y-89686916D01*
X101183885Y-89686916D02*
X101067695Y-89745012D01*
X101067695Y-89745012D02*
X101009600Y-89803107D01*
X101009600Y-89803107D02*
X100951504Y-89919297D01*
X100951504Y-89919297D02*
X100951504Y-90151678D01*
X100951504Y-90151678D02*
X101009600Y-90267869D01*
X101009600Y-90267869D02*
X101067695Y-90325964D01*
X101067695Y-90325964D02*
X101183885Y-90384059D01*
X101183885Y-90384059D02*
X101416266Y-90384059D01*
X101416266Y-90384059D02*
X101532457Y-90325964D01*
X101532457Y-90325964D02*
X101590552Y-90267869D01*
X101590552Y-90267869D02*
X101648647Y-90151678D01*
X111019773Y-157441719D02*
X111019773Y-158761242D01*
X111019773Y-158761242D02*
X111097392Y-158916480D01*
X111097392Y-158916480D02*
X111175011Y-158994100D01*
X111175011Y-158994100D02*
X111330249Y-159071719D01*
X111330249Y-159071719D02*
X111640725Y-159071719D01*
X111640725Y-159071719D02*
X111795963Y-158994100D01*
X111795963Y-158994100D02*
X111873582Y-158916480D01*
X111873582Y-158916480D02*
X111951201Y-158761242D01*
X111951201Y-158761242D02*
X111951201Y-157441719D01*
X112727392Y-159071719D02*
X112727392Y-157441719D01*
X112727392Y-157441719D02*
X113658820Y-159071719D01*
X113658820Y-159071719D02*
X113658820Y-157441719D01*
X114202154Y-157441719D02*
X115133582Y-157441719D01*
X114667868Y-159071719D02*
X114667868Y-157441719D01*
X115676916Y-159071719D02*
X115676916Y-157441719D01*
X116220249Y-157441719D02*
X117151677Y-157441719D01*
X116685963Y-159071719D02*
X116685963Y-157441719D01*
X118471201Y-159071719D02*
X117695011Y-159071719D01*
X117695011Y-159071719D02*
X117695011Y-157441719D01*
X119014535Y-158217909D02*
X119557868Y-158217909D01*
X119790725Y-159071719D02*
X119014535Y-159071719D01*
X119014535Y-159071719D02*
X119014535Y-157441719D01*
X119014535Y-157441719D02*
X119790725Y-157441719D01*
X120489297Y-159071719D02*
X120489297Y-157441719D01*
X120489297Y-157441719D02*
X120877392Y-157441719D01*
X120877392Y-157441719D02*
X121110249Y-157519338D01*
X121110249Y-157519338D02*
X121265487Y-157674576D01*
X121265487Y-157674576D02*
X121343106Y-157829814D01*
X121343106Y-157829814D02*
X121420725Y-158140290D01*
X121420725Y-158140290D02*
X121420725Y-158373147D01*
X121420725Y-158373147D02*
X121343106Y-158683623D01*
X121343106Y-158683623D02*
X121265487Y-158838861D01*
X121265487Y-158838861D02*
X121110249Y-158994100D01*
X121110249Y-158994100D02*
X120877392Y-159071719D01*
X120877392Y-159071719D02*
X120489297Y-159071719D01*
X123283583Y-158994100D02*
X123516440Y-159071719D01*
X123516440Y-159071719D02*
X123904535Y-159071719D01*
X123904535Y-159071719D02*
X124059773Y-158994100D01*
X124059773Y-158994100D02*
X124137392Y-158916480D01*
X124137392Y-158916480D02*
X124215011Y-158761242D01*
X124215011Y-158761242D02*
X124215011Y-158606004D01*
X124215011Y-158606004D02*
X124137392Y-158450766D01*
X124137392Y-158450766D02*
X124059773Y-158373147D01*
X124059773Y-158373147D02*
X123904535Y-158295528D01*
X123904535Y-158295528D02*
X123594059Y-158217909D01*
X123594059Y-158217909D02*
X123438821Y-158140290D01*
X123438821Y-158140290D02*
X123361202Y-158062671D01*
X123361202Y-158062671D02*
X123283583Y-157907433D01*
X123283583Y-157907433D02*
X123283583Y-157752195D01*
X123283583Y-157752195D02*
X123361202Y-157596957D01*
X123361202Y-157596957D02*
X123438821Y-157519338D01*
X123438821Y-157519338D02*
X123594059Y-157441719D01*
X123594059Y-157441719D02*
X123982154Y-157441719D01*
X123982154Y-157441719D02*
X124215011Y-157519338D01*
X124913583Y-159071719D02*
X124913583Y-157441719D01*
X124913583Y-157441719D02*
X125534535Y-157441719D01*
X125534535Y-157441719D02*
X125689773Y-157519338D01*
X125689773Y-157519338D02*
X125767392Y-157596957D01*
X125767392Y-157596957D02*
X125845011Y-157752195D01*
X125845011Y-157752195D02*
X125845011Y-157985052D01*
X125845011Y-157985052D02*
X125767392Y-158140290D01*
X125767392Y-158140290D02*
X125689773Y-158217909D01*
X125689773Y-158217909D02*
X125534535Y-158295528D01*
X125534535Y-158295528D02*
X124913583Y-158295528D01*
X126465964Y-158606004D02*
X127242154Y-158606004D01*
X126310726Y-159071719D02*
X126854059Y-157441719D01*
X126854059Y-157441719D02*
X127397392Y-159071719D01*
X128872154Y-158916480D02*
X128794535Y-158994100D01*
X128794535Y-158994100D02*
X128561678Y-159071719D01*
X128561678Y-159071719D02*
X128406440Y-159071719D01*
X128406440Y-159071719D02*
X128173583Y-158994100D01*
X128173583Y-158994100D02*
X128018345Y-158838861D01*
X128018345Y-158838861D02*
X127940726Y-158683623D01*
X127940726Y-158683623D02*
X127863107Y-158373147D01*
X127863107Y-158373147D02*
X127863107Y-158140290D01*
X127863107Y-158140290D02*
X127940726Y-157829814D01*
X127940726Y-157829814D02*
X128018345Y-157674576D01*
X128018345Y-157674576D02*
X128173583Y-157519338D01*
X128173583Y-157519338D02*
X128406440Y-157441719D01*
X128406440Y-157441719D02*
X128561678Y-157441719D01*
X128561678Y-157441719D02*
X128794535Y-157519338D01*
X128794535Y-157519338D02*
X128872154Y-157596957D01*
X129570726Y-158217909D02*
X130114059Y-158217909D01*
X130346916Y-159071719D02*
X129570726Y-159071719D01*
X129570726Y-159071719D02*
X129570726Y-157441719D01*
X129570726Y-157441719D02*
X130346916Y-157441719D01*
X133218821Y-158916480D02*
X133141202Y-158994100D01*
X133141202Y-158994100D02*
X132908345Y-159071719D01*
X132908345Y-159071719D02*
X132753107Y-159071719D01*
X132753107Y-159071719D02*
X132520250Y-158994100D01*
X132520250Y-158994100D02*
X132365012Y-158838861D01*
X132365012Y-158838861D02*
X132287393Y-158683623D01*
X132287393Y-158683623D02*
X132209774Y-158373147D01*
X132209774Y-158373147D02*
X132209774Y-158140290D01*
X132209774Y-158140290D02*
X132287393Y-157829814D01*
X132287393Y-157829814D02*
X132365012Y-157674576D01*
X132365012Y-157674576D02*
X132520250Y-157519338D01*
X132520250Y-157519338D02*
X132753107Y-157441719D01*
X132753107Y-157441719D02*
X132908345Y-157441719D01*
X132908345Y-157441719D02*
X133141202Y-157519338D01*
X133141202Y-157519338D02*
X133218821Y-157596957D01*
X134848821Y-159071719D02*
X134305488Y-158295528D01*
X133917393Y-159071719D02*
X133917393Y-157441719D01*
X133917393Y-157441719D02*
X134538345Y-157441719D01*
X134538345Y-157441719D02*
X134693583Y-157519338D01*
X134693583Y-157519338D02*
X134771202Y-157596957D01*
X134771202Y-157596957D02*
X134848821Y-157752195D01*
X134848821Y-157752195D02*
X134848821Y-157985052D01*
X134848821Y-157985052D02*
X134771202Y-158140290D01*
X134771202Y-158140290D02*
X134693583Y-158217909D01*
X134693583Y-158217909D02*
X134538345Y-158295528D01*
X134538345Y-158295528D02*
X133917393Y-158295528D01*
X135469774Y-158606004D02*
X136245964Y-158606004D01*
X135314536Y-159071719D02*
X135857869Y-157441719D01*
X135857869Y-157441719D02*
X136401202Y-159071719D01*
X137487869Y-158217909D02*
X136944536Y-158217909D01*
X136944536Y-159071719D02*
X136944536Y-157441719D01*
X136944536Y-157441719D02*
X137720726Y-157441719D01*
X138108822Y-157441719D02*
X139040250Y-157441719D01*
X138574536Y-159071719D02*
X138574536Y-157441719D01*
X175201101Y-158916480D02*
X175123482Y-158994100D01*
X175123482Y-158994100D02*
X174890625Y-159071719D01*
X174890625Y-159071719D02*
X174735387Y-159071719D01*
X174735387Y-159071719D02*
X174502530Y-158994100D01*
X174502530Y-158994100D02*
X174347292Y-158838861D01*
X174347292Y-158838861D02*
X174269673Y-158683623D01*
X174269673Y-158683623D02*
X174192054Y-158373147D01*
X174192054Y-158373147D02*
X174192054Y-158140290D01*
X174192054Y-158140290D02*
X174269673Y-157829814D01*
X174269673Y-157829814D02*
X174347292Y-157674576D01*
X174347292Y-157674576D02*
X174502530Y-157519338D01*
X174502530Y-157519338D02*
X174735387Y-157441719D01*
X174735387Y-157441719D02*
X174890625Y-157441719D01*
X174890625Y-157441719D02*
X175123482Y-157519338D01*
X175123482Y-157519338D02*
X175201101Y-157596957D01*
X176210149Y-157441719D02*
X176520625Y-157441719D01*
X176520625Y-157441719D02*
X176675863Y-157519338D01*
X176675863Y-157519338D02*
X176831101Y-157674576D01*
X176831101Y-157674576D02*
X176908720Y-157985052D01*
X176908720Y-157985052D02*
X176908720Y-158528385D01*
X176908720Y-158528385D02*
X176831101Y-158838861D01*
X176831101Y-158838861D02*
X176675863Y-158994100D01*
X176675863Y-158994100D02*
X176520625Y-159071719D01*
X176520625Y-159071719D02*
X176210149Y-159071719D01*
X176210149Y-159071719D02*
X176054911Y-158994100D01*
X176054911Y-158994100D02*
X175899673Y-158838861D01*
X175899673Y-158838861D02*
X175822054Y-158528385D01*
X175822054Y-158528385D02*
X175822054Y-157985052D01*
X175822054Y-157985052D02*
X175899673Y-157674576D01*
X175899673Y-157674576D02*
X176054911Y-157519338D01*
X176054911Y-157519338D02*
X176210149Y-157441719D01*
X177607292Y-159071719D02*
X177607292Y-157441719D01*
X177607292Y-157441719D02*
X177995387Y-157441719D01*
X177995387Y-157441719D02*
X178228244Y-157519338D01*
X178228244Y-157519338D02*
X178383482Y-157674576D01*
X178383482Y-157674576D02*
X178461101Y-157829814D01*
X178461101Y-157829814D02*
X178538720Y-158140290D01*
X178538720Y-158140290D02*
X178538720Y-158373147D01*
X178538720Y-158373147D02*
X178461101Y-158683623D01*
X178461101Y-158683623D02*
X178383482Y-158838861D01*
X178383482Y-158838861D02*
X178228244Y-158994100D01*
X178228244Y-158994100D02*
X177995387Y-159071719D01*
X177995387Y-159071719D02*
X177607292Y-159071719D01*
X179159673Y-158606004D02*
X179935863Y-158606004D01*
X179004435Y-159071719D02*
X179547768Y-157441719D01*
X179547768Y-157441719D02*
X180091101Y-159071719D01*
X180634435Y-159071719D02*
X180634435Y-157441719D01*
X180634435Y-157441719D02*
X181255387Y-157441719D01*
X181255387Y-157441719D02*
X181410625Y-157519338D01*
X181410625Y-157519338D02*
X181488244Y-157596957D01*
X181488244Y-157596957D02*
X181565863Y-157752195D01*
X181565863Y-157752195D02*
X181565863Y-157985052D01*
X181565863Y-157985052D02*
X181488244Y-158140290D01*
X181488244Y-158140290D02*
X181410625Y-158217909D01*
X181410625Y-158217909D02*
X181255387Y-158295528D01*
X181255387Y-158295528D02*
X180634435Y-158295528D01*
X182574911Y-157441719D02*
X182885387Y-157441719D01*
X182885387Y-157441719D02*
X183040625Y-157519338D01*
X183040625Y-157519338D02*
X183195863Y-157674576D01*
X183195863Y-157674576D02*
X183273482Y-157985052D01*
X183273482Y-157985052D02*
X183273482Y-158528385D01*
X183273482Y-158528385D02*
X183195863Y-158838861D01*
X183195863Y-158838861D02*
X183040625Y-158994100D01*
X183040625Y-158994100D02*
X182885387Y-159071719D01*
X182885387Y-159071719D02*
X182574911Y-159071719D01*
X182574911Y-159071719D02*
X182419673Y-158994100D01*
X182419673Y-158994100D02*
X182264435Y-158838861D01*
X182264435Y-158838861D02*
X182186816Y-158528385D01*
X182186816Y-158528385D02*
X182186816Y-157985052D01*
X182186816Y-157985052D02*
X182264435Y-157674576D01*
X182264435Y-157674576D02*
X182419673Y-157519338D01*
X182419673Y-157519338D02*
X182574911Y-157441719D01*
X183972054Y-159071719D02*
X183972054Y-157441719D01*
X183972054Y-157441719D02*
X184593006Y-157441719D01*
X184593006Y-157441719D02*
X184748244Y-157519338D01*
X184748244Y-157519338D02*
X184825863Y-157596957D01*
X184825863Y-157596957D02*
X184903482Y-157752195D01*
X184903482Y-157752195D02*
X184903482Y-157985052D01*
X184903482Y-157985052D02*
X184825863Y-158140290D01*
X184825863Y-158140290D02*
X184748244Y-158217909D01*
X184748244Y-158217909D02*
X184593006Y-158295528D01*
X184593006Y-158295528D02*
X183972054Y-158295528D01*
X185602054Y-159071719D02*
X185602054Y-157441719D01*
X186533482Y-159071719D02*
X185834911Y-158140290D01*
X186533482Y-157441719D02*
X185602054Y-158373147D01*
X187154435Y-158994100D02*
X187387292Y-159071719D01*
X187387292Y-159071719D02*
X187775387Y-159071719D01*
X187775387Y-159071719D02*
X187930625Y-158994100D01*
X187930625Y-158994100D02*
X188008244Y-158916480D01*
X188008244Y-158916480D02*
X188085863Y-158761242D01*
X188085863Y-158761242D02*
X188085863Y-158606004D01*
X188085863Y-158606004D02*
X188008244Y-158450766D01*
X188008244Y-158450766D02*
X187930625Y-158373147D01*
X187930625Y-158373147D02*
X187775387Y-158295528D01*
X187775387Y-158295528D02*
X187464911Y-158217909D01*
X187464911Y-158217909D02*
X187309673Y-158140290D01*
X187309673Y-158140290D02*
X187232054Y-158062671D01*
X187232054Y-158062671D02*
X187154435Y-157907433D01*
X187154435Y-157907433D02*
X187154435Y-157752195D01*
X187154435Y-157752195D02*
X187232054Y-157596957D01*
X187232054Y-157596957D02*
X187309673Y-157519338D01*
X187309673Y-157519338D02*
X187464911Y-157441719D01*
X187464911Y-157441719D02*
X187853006Y-157441719D01*
X187853006Y-157441719D02*
X188085863Y-157519338D01*
X188784435Y-159071719D02*
X188784435Y-157441719D01*
X188784435Y-157441719D02*
X189405387Y-157441719D01*
X189405387Y-157441719D02*
X189560625Y-157519338D01*
X189560625Y-157519338D02*
X189638244Y-157596957D01*
X189638244Y-157596957D02*
X189715863Y-157752195D01*
X189715863Y-157752195D02*
X189715863Y-157985052D01*
X189715863Y-157985052D02*
X189638244Y-158140290D01*
X189638244Y-158140290D02*
X189560625Y-158217909D01*
X189560625Y-158217909D02*
X189405387Y-158295528D01*
X189405387Y-158295528D02*
X188784435Y-158295528D01*
X190428080Y-128519673D02*
X192058080Y-128519673D01*
X192058080Y-128519673D02*
X192058080Y-128907768D01*
X192058080Y-128907768D02*
X191980461Y-129140625D01*
X191980461Y-129140625D02*
X191825223Y-129295863D01*
X191825223Y-129295863D02*
X191669985Y-129373482D01*
X191669985Y-129373482D02*
X191359509Y-129451101D01*
X191359509Y-129451101D02*
X191126652Y-129451101D01*
X191126652Y-129451101D02*
X190816176Y-129373482D01*
X190816176Y-129373482D02*
X190660938Y-129295863D01*
X190660938Y-129295863D02*
X190505700Y-129140625D01*
X190505700Y-129140625D02*
X190428080Y-128907768D01*
X190428080Y-128907768D02*
X190428080Y-128519673D01*
X190893795Y-130072054D02*
X190893795Y-130848244D01*
X190428080Y-129916816D02*
X192058080Y-130460149D01*
X192058080Y-130460149D02*
X190428080Y-131003482D01*
X192058080Y-131313959D02*
X192058080Y-132245387D01*
X190428080Y-131779673D02*
X192058080Y-131779673D01*
X190893795Y-132711102D02*
X190893795Y-133487292D01*
X190428080Y-132555864D02*
X192058080Y-133099197D01*
X192058080Y-133099197D02*
X190428080Y-133642530D01*
X191281890Y-135971102D02*
X191204271Y-136203959D01*
X191204271Y-136203959D02*
X191126652Y-136281578D01*
X191126652Y-136281578D02*
X190971414Y-136359197D01*
X190971414Y-136359197D02*
X190738557Y-136359197D01*
X190738557Y-136359197D02*
X190583319Y-136281578D01*
X190583319Y-136281578D02*
X190505700Y-136203959D01*
X190505700Y-136203959D02*
X190428080Y-136048721D01*
X190428080Y-136048721D02*
X190428080Y-135427769D01*
X190428080Y-135427769D02*
X192058080Y-135427769D01*
X192058080Y-135427769D02*
X192058080Y-135971102D01*
X192058080Y-135971102D02*
X191980461Y-136126340D01*
X191980461Y-136126340D02*
X191902842Y-136203959D01*
X191902842Y-136203959D02*
X191747604Y-136281578D01*
X191747604Y-136281578D02*
X191592366Y-136281578D01*
X191592366Y-136281578D02*
X191437128Y-136203959D01*
X191437128Y-136203959D02*
X191359509Y-136126340D01*
X191359509Y-136126340D02*
X191281890Y-135971102D01*
X191281890Y-135971102D02*
X191281890Y-135427769D01*
X192058080Y-137057769D02*
X190738557Y-137057769D01*
X190738557Y-137057769D02*
X190583319Y-137135388D01*
X190583319Y-137135388D02*
X190505700Y-137213007D01*
X190505700Y-137213007D02*
X190428080Y-137368245D01*
X190428080Y-137368245D02*
X190428080Y-137678721D01*
X190428080Y-137678721D02*
X190505700Y-137833959D01*
X190505700Y-137833959D02*
X190583319Y-137911578D01*
X190583319Y-137911578D02*
X190738557Y-137989197D01*
X190738557Y-137989197D02*
X192058080Y-137989197D01*
X190505700Y-138687769D02*
X190428080Y-138920626D01*
X190428080Y-138920626D02*
X190428080Y-139308721D01*
X190428080Y-139308721D02*
X190505700Y-139463959D01*
X190505700Y-139463959D02*
X190583319Y-139541578D01*
X190583319Y-139541578D02*
X190738557Y-139619197D01*
X190738557Y-139619197D02*
X190893795Y-139619197D01*
X190893795Y-139619197D02*
X191049033Y-139541578D01*
X191049033Y-139541578D02*
X191126652Y-139463959D01*
X191126652Y-139463959D02*
X191204271Y-139308721D01*
X191204271Y-139308721D02*
X191281890Y-138998245D01*
X191281890Y-138998245D02*
X191359509Y-138843007D01*
X191359509Y-138843007D02*
X191437128Y-138765388D01*
X191437128Y-138765388D02*
X191592366Y-138687769D01*
X191592366Y-138687769D02*
X191747604Y-138687769D01*
X191747604Y-138687769D02*
X191902842Y-138765388D01*
X191902842Y-138765388D02*
X191980461Y-138843007D01*
X191980461Y-138843007D02*
X192058080Y-138998245D01*
X192058080Y-138998245D02*
X192058080Y-139386340D01*
X192058080Y-139386340D02*
X191980461Y-139619197D01*
X190583319Y-142491102D02*
X190505700Y-142413483D01*
X190505700Y-142413483D02*
X190428080Y-142180626D01*
X190428080Y-142180626D02*
X190428080Y-142025388D01*
X190428080Y-142025388D02*
X190505700Y-141792531D01*
X190505700Y-141792531D02*
X190660938Y-141637293D01*
X190660938Y-141637293D02*
X190816176Y-141559674D01*
X190816176Y-141559674D02*
X191126652Y-141482055D01*
X191126652Y-141482055D02*
X191359509Y-141482055D01*
X191359509Y-141482055D02*
X191669985Y-141559674D01*
X191669985Y-141559674D02*
X191825223Y-141637293D01*
X191825223Y-141637293D02*
X191980461Y-141792531D01*
X191980461Y-141792531D02*
X192058080Y-142025388D01*
X192058080Y-142025388D02*
X192058080Y-142180626D01*
X192058080Y-142180626D02*
X191980461Y-142413483D01*
X191980461Y-142413483D02*
X191902842Y-142491102D01*
X192058080Y-143500150D02*
X192058080Y-143810626D01*
X192058080Y-143810626D02*
X191980461Y-143965864D01*
X191980461Y-143965864D02*
X191825223Y-144121102D01*
X191825223Y-144121102D02*
X191514747Y-144198721D01*
X191514747Y-144198721D02*
X190971414Y-144198721D01*
X190971414Y-144198721D02*
X190660938Y-144121102D01*
X190660938Y-144121102D02*
X190505700Y-143965864D01*
X190505700Y-143965864D02*
X190428080Y-143810626D01*
X190428080Y-143810626D02*
X190428080Y-143500150D01*
X190428080Y-143500150D02*
X190505700Y-143344912D01*
X190505700Y-143344912D02*
X190660938Y-143189674D01*
X190660938Y-143189674D02*
X190971414Y-143112055D01*
X190971414Y-143112055D02*
X191514747Y-143112055D01*
X191514747Y-143112055D02*
X191825223Y-143189674D01*
X191825223Y-143189674D02*
X191980461Y-143344912D01*
X191980461Y-143344912D02*
X192058080Y-143500150D01*
X190428080Y-144897293D02*
X192058080Y-144897293D01*
X192058080Y-144897293D02*
X190428080Y-145828721D01*
X190428080Y-145828721D02*
X192058080Y-145828721D01*
X190428080Y-146604912D02*
X192058080Y-146604912D01*
X192058080Y-146604912D02*
X190428080Y-147536340D01*
X190428080Y-147536340D02*
X192058080Y-147536340D01*
D15*
X169107201Y-114198996D02*
X168802401Y-113763568D01*
X168584687Y-114198996D02*
X168584687Y-113284596D01*
X168584687Y-113284596D02*
X168933030Y-113284596D01*
X168933030Y-113284596D02*
X169020115Y-113328139D01*
X169020115Y-113328139D02*
X169063658Y-113371682D01*
X169063658Y-113371682D02*
X169107201Y-113458768D01*
X169107201Y-113458768D02*
X169107201Y-113589396D01*
X169107201Y-113589396D02*
X169063658Y-113676482D01*
X169063658Y-113676482D02*
X169020115Y-113720025D01*
X169020115Y-113720025D02*
X168933030Y-113763568D01*
X168933030Y-113763568D02*
X168584687Y-113763568D01*
X169542630Y-114198996D02*
X169716801Y-114198996D01*
X169716801Y-114198996D02*
X169803887Y-114155454D01*
X169803887Y-114155454D02*
X169847430Y-114111911D01*
X169847430Y-114111911D02*
X169934515Y-113981282D01*
X169934515Y-113981282D02*
X169978058Y-113807111D01*
X169978058Y-113807111D02*
X169978058Y-113458768D01*
X169978058Y-113458768D02*
X169934515Y-113371682D01*
X169934515Y-113371682D02*
X169890973Y-113328139D01*
X169890973Y-113328139D02*
X169803887Y-113284596D01*
X169803887Y-113284596D02*
X169629715Y-113284596D01*
X169629715Y-113284596D02*
X169542630Y-113328139D01*
X169542630Y-113328139D02*
X169499087Y-113371682D01*
X169499087Y-113371682D02*
X169455544Y-113458768D01*
X169455544Y-113458768D02*
X169455544Y-113676482D01*
X169455544Y-113676482D02*
X169499087Y-113763568D01*
X169499087Y-113763568D02*
X169542630Y-113807111D01*
X169542630Y-113807111D02*
X169629715Y-113850654D01*
X169629715Y-113850654D02*
X169803887Y-113850654D01*
X169803887Y-113850654D02*
X169890973Y-113807111D01*
X169890973Y-113807111D02*
X169934515Y-113763568D01*
X169934515Y-113763568D02*
X169978058Y-113676482D01*
X171334687Y-113850554D02*
X172031373Y-113850554D01*
X173642458Y-114198896D02*
X173119944Y-114198896D01*
X173381201Y-114198896D02*
X173381201Y-113284496D01*
X173381201Y-113284496D02*
X173294115Y-113415125D01*
X173294115Y-113415125D02*
X173207030Y-113502211D01*
X173207030Y-113502211D02*
X173119944Y-113545754D01*
X174208515Y-113284496D02*
X174295601Y-113284496D01*
X174295601Y-113284496D02*
X174382687Y-113328039D01*
X174382687Y-113328039D02*
X174426230Y-113371582D01*
X174426230Y-113371582D02*
X174469772Y-113458668D01*
X174469772Y-113458668D02*
X174513315Y-113632839D01*
X174513315Y-113632839D02*
X174513315Y-113850554D01*
X174513315Y-113850554D02*
X174469772Y-114024725D01*
X174469772Y-114024725D02*
X174426230Y-114111811D01*
X174426230Y-114111811D02*
X174382687Y-114155354D01*
X174382687Y-114155354D02*
X174295601Y-114198896D01*
X174295601Y-114198896D02*
X174208515Y-114198896D01*
X174208515Y-114198896D02*
X174121430Y-114155354D01*
X174121430Y-114155354D02*
X174077887Y-114111811D01*
X174077887Y-114111811D02*
X174034344Y-114024725D01*
X174034344Y-114024725D02*
X173990801Y-113850554D01*
X173990801Y-113850554D02*
X173990801Y-113632839D01*
X173990801Y-113632839D02*
X174034344Y-113458668D01*
X174034344Y-113458668D02*
X174077887Y-113371582D01*
X174077887Y-113371582D02*
X174121430Y-113328039D01*
X174121430Y-113328039D02*
X174208515Y-113284496D01*
X174905201Y-114198896D02*
X174905201Y-113284496D01*
X175427715Y-114198896D02*
X175035829Y-113676382D01*
X175427715Y-113284496D02*
X174905201Y-113807011D01*
X143107201Y-70912911D02*
X143063658Y-70956454D01*
X143063658Y-70956454D02*
X142933030Y-70999996D01*
X142933030Y-70999996D02*
X142845944Y-70999996D01*
X142845944Y-70999996D02*
X142715315Y-70956454D01*
X142715315Y-70956454D02*
X142628230Y-70869368D01*
X142628230Y-70869368D02*
X142584687Y-70782282D01*
X142584687Y-70782282D02*
X142541144Y-70608111D01*
X142541144Y-70608111D02*
X142541144Y-70477482D01*
X142541144Y-70477482D02*
X142584687Y-70303311D01*
X142584687Y-70303311D02*
X142628230Y-70216225D01*
X142628230Y-70216225D02*
X142715315Y-70129139D01*
X142715315Y-70129139D02*
X142845944Y-70085596D01*
X142845944Y-70085596D02*
X142933030Y-70085596D01*
X142933030Y-70085596D02*
X143063658Y-70129139D01*
X143063658Y-70129139D02*
X143107201Y-70172682D01*
X143455544Y-70172682D02*
X143499087Y-70129139D01*
X143499087Y-70129139D02*
X143586173Y-70085596D01*
X143586173Y-70085596D02*
X143803887Y-70085596D01*
X143803887Y-70085596D02*
X143890973Y-70129139D01*
X143890973Y-70129139D02*
X143934515Y-70172682D01*
X143934515Y-70172682D02*
X143978058Y-70259768D01*
X143978058Y-70259768D02*
X143978058Y-70346854D01*
X143978058Y-70346854D02*
X143934515Y-70477482D01*
X143934515Y-70477482D02*
X143412001Y-70999996D01*
X143412001Y-70999996D02*
X143978058Y-70999996D01*
X118357201Y-82698696D02*
X118052401Y-82263268D01*
X117834687Y-82698696D02*
X117834687Y-81784296D01*
X117834687Y-81784296D02*
X118183030Y-81784296D01*
X118183030Y-81784296D02*
X118270115Y-81827839D01*
X118270115Y-81827839D02*
X118313658Y-81871382D01*
X118313658Y-81871382D02*
X118357201Y-81958468D01*
X118357201Y-81958468D02*
X118357201Y-82089096D01*
X118357201Y-82089096D02*
X118313658Y-82176182D01*
X118313658Y-82176182D02*
X118270115Y-82219725D01*
X118270115Y-82219725D02*
X118183030Y-82263268D01*
X118183030Y-82263268D02*
X117834687Y-82263268D01*
X119140973Y-82089096D02*
X119140973Y-82698696D01*
X118923258Y-81740754D02*
X118705544Y-82393896D01*
X118705544Y-82393896D02*
X119271601Y-82393896D01*
X120084687Y-82350354D02*
X120781373Y-82350354D01*
X122392458Y-82698696D02*
X121869944Y-82698696D01*
X122131201Y-82698696D02*
X122131201Y-81784296D01*
X122131201Y-81784296D02*
X122044115Y-81914925D01*
X122044115Y-81914925D02*
X121957030Y-82002011D01*
X121957030Y-82002011D02*
X121869944Y-82045554D01*
X122958515Y-81784296D02*
X123045601Y-81784296D01*
X123045601Y-81784296D02*
X123132687Y-81827839D01*
X123132687Y-81827839D02*
X123176230Y-81871382D01*
X123176230Y-81871382D02*
X123219772Y-81958468D01*
X123219772Y-81958468D02*
X123263315Y-82132639D01*
X123263315Y-82132639D02*
X123263315Y-82350354D01*
X123263315Y-82350354D02*
X123219772Y-82524525D01*
X123219772Y-82524525D02*
X123176230Y-82611611D01*
X123176230Y-82611611D02*
X123132687Y-82655154D01*
X123132687Y-82655154D02*
X123045601Y-82698696D01*
X123045601Y-82698696D02*
X122958515Y-82698696D01*
X122958515Y-82698696D02*
X122871430Y-82655154D01*
X122871430Y-82655154D02*
X122827887Y-82611611D01*
X122827887Y-82611611D02*
X122784344Y-82524525D01*
X122784344Y-82524525D02*
X122740801Y-82350354D01*
X122740801Y-82350354D02*
X122740801Y-82132639D01*
X122740801Y-82132639D02*
X122784344Y-81958468D01*
X122784344Y-81958468D02*
X122827887Y-81871382D01*
X122827887Y-81871382D02*
X122871430Y-81827839D01*
X122871430Y-81827839D02*
X122958515Y-81784296D01*
X123655201Y-82698696D02*
X123655201Y-81784296D01*
X124177715Y-82698696D02*
X123785829Y-82176182D01*
X124177715Y-81784296D02*
X123655201Y-82306811D01*
X168857201Y-153698696D02*
X168552401Y-153263268D01*
X168334687Y-153698696D02*
X168334687Y-152784296D01*
X168334687Y-152784296D02*
X168683030Y-152784296D01*
X168683030Y-152784296D02*
X168770115Y-152827839D01*
X168770115Y-152827839D02*
X168813658Y-152871382D01*
X168813658Y-152871382D02*
X168857201Y-152958468D01*
X168857201Y-152958468D02*
X168857201Y-153089096D01*
X168857201Y-153089096D02*
X168813658Y-153176182D01*
X168813658Y-153176182D02*
X168770115Y-153219725D01*
X168770115Y-153219725D02*
X168683030Y-153263268D01*
X168683030Y-153263268D02*
X168334687Y-153263268D01*
X169728058Y-153698696D02*
X169205544Y-153698696D01*
X169466801Y-153698696D02*
X169466801Y-152784296D01*
X169466801Y-152784296D02*
X169379715Y-152914925D01*
X169379715Y-152914925D02*
X169292630Y-153002011D01*
X169292630Y-153002011D02*
X169205544Y-153045554D01*
X170294115Y-152784296D02*
X170381201Y-152784296D01*
X170381201Y-152784296D02*
X170468287Y-152827839D01*
X170468287Y-152827839D02*
X170511830Y-152871382D01*
X170511830Y-152871382D02*
X170555372Y-152958468D01*
X170555372Y-152958468D02*
X170598915Y-153132639D01*
X170598915Y-153132639D02*
X170598915Y-153350354D01*
X170598915Y-153350354D02*
X170555372Y-153524525D01*
X170555372Y-153524525D02*
X170511830Y-153611611D01*
X170511830Y-153611611D02*
X170468287Y-153655154D01*
X170468287Y-153655154D02*
X170381201Y-153698696D01*
X170381201Y-153698696D02*
X170294115Y-153698696D01*
X170294115Y-153698696D02*
X170207030Y-153655154D01*
X170207030Y-153655154D02*
X170163487Y-153611611D01*
X170163487Y-153611611D02*
X170119944Y-153524525D01*
X170119944Y-153524525D02*
X170076401Y-153350354D01*
X170076401Y-153350354D02*
X170076401Y-153132639D01*
X170076401Y-153132639D02*
X170119944Y-152958468D01*
X170119944Y-152958468D02*
X170163487Y-152871382D01*
X170163487Y-152871382D02*
X170207030Y-152827839D01*
X170207030Y-152827839D02*
X170294115Y-152784296D01*
X171334687Y-153350354D02*
X172031373Y-153350354D01*
X173642458Y-153698696D02*
X173119944Y-153698696D01*
X173381201Y-153698696D02*
X173381201Y-152784296D01*
X173381201Y-152784296D02*
X173294115Y-152914925D01*
X173294115Y-152914925D02*
X173207030Y-153002011D01*
X173207030Y-153002011D02*
X173119944Y-153045554D01*
X174208515Y-152784296D02*
X174295601Y-152784296D01*
X174295601Y-152784296D02*
X174382687Y-152827839D01*
X174382687Y-152827839D02*
X174426230Y-152871382D01*
X174426230Y-152871382D02*
X174469772Y-152958468D01*
X174469772Y-152958468D02*
X174513315Y-153132639D01*
X174513315Y-153132639D02*
X174513315Y-153350354D01*
X174513315Y-153350354D02*
X174469772Y-153524525D01*
X174469772Y-153524525D02*
X174426230Y-153611611D01*
X174426230Y-153611611D02*
X174382687Y-153655154D01*
X174382687Y-153655154D02*
X174295601Y-153698696D01*
X174295601Y-153698696D02*
X174208515Y-153698696D01*
X174208515Y-153698696D02*
X174121430Y-153655154D01*
X174121430Y-153655154D02*
X174077887Y-153611611D01*
X174077887Y-153611611D02*
X174034344Y-153524525D01*
X174034344Y-153524525D02*
X173990801Y-153350354D01*
X173990801Y-153350354D02*
X173990801Y-153132639D01*
X173990801Y-153132639D02*
X174034344Y-152958468D01*
X174034344Y-152958468D02*
X174077887Y-152871382D01*
X174077887Y-152871382D02*
X174121430Y-152827839D01*
X174121430Y-152827839D02*
X174208515Y-152784296D01*
X174905201Y-153698696D02*
X174905201Y-152784296D01*
X175427715Y-153698696D02*
X175035829Y-153176182D01*
X175427715Y-152784296D02*
X174905201Y-153306811D01*
X156857201Y-82698696D02*
X156552401Y-82263268D01*
X156334687Y-82698696D02*
X156334687Y-81784296D01*
X156334687Y-81784296D02*
X156683030Y-81784296D01*
X156683030Y-81784296D02*
X156770115Y-81827839D01*
X156770115Y-81827839D02*
X156813658Y-81871382D01*
X156813658Y-81871382D02*
X156857201Y-81958468D01*
X156857201Y-81958468D02*
X156857201Y-82089096D01*
X156857201Y-82089096D02*
X156813658Y-82176182D01*
X156813658Y-82176182D02*
X156770115Y-82219725D01*
X156770115Y-82219725D02*
X156683030Y-82263268D01*
X156683030Y-82263268D02*
X156334687Y-82263268D01*
X157205544Y-81871382D02*
X157249087Y-81827839D01*
X157249087Y-81827839D02*
X157336173Y-81784296D01*
X157336173Y-81784296D02*
X157553887Y-81784296D01*
X157553887Y-81784296D02*
X157640973Y-81827839D01*
X157640973Y-81827839D02*
X157684515Y-81871382D01*
X157684515Y-81871382D02*
X157728058Y-81958468D01*
X157728058Y-81958468D02*
X157728058Y-82045554D01*
X157728058Y-82045554D02*
X157684515Y-82176182D01*
X157684515Y-82176182D02*
X157162001Y-82698696D01*
X157162001Y-82698696D02*
X157728058Y-82698696D01*
X158584687Y-82350354D02*
X159281373Y-82350354D01*
X160892458Y-82698696D02*
X160369944Y-82698696D01*
X160631201Y-82698696D02*
X160631201Y-81784296D01*
X160631201Y-81784296D02*
X160544115Y-81914925D01*
X160544115Y-81914925D02*
X160457030Y-82002011D01*
X160457030Y-82002011D02*
X160369944Y-82045554D01*
X161458515Y-81784296D02*
X161545601Y-81784296D01*
X161545601Y-81784296D02*
X161632687Y-81827839D01*
X161632687Y-81827839D02*
X161676230Y-81871382D01*
X161676230Y-81871382D02*
X161719772Y-81958468D01*
X161719772Y-81958468D02*
X161763315Y-82132639D01*
X161763315Y-82132639D02*
X161763315Y-82350354D01*
X161763315Y-82350354D02*
X161719772Y-82524525D01*
X161719772Y-82524525D02*
X161676230Y-82611611D01*
X161676230Y-82611611D02*
X161632687Y-82655154D01*
X161632687Y-82655154D02*
X161545601Y-82698696D01*
X161545601Y-82698696D02*
X161458515Y-82698696D01*
X161458515Y-82698696D02*
X161371430Y-82655154D01*
X161371430Y-82655154D02*
X161327887Y-82611611D01*
X161327887Y-82611611D02*
X161284344Y-82524525D01*
X161284344Y-82524525D02*
X161240801Y-82350354D01*
X161240801Y-82350354D02*
X161240801Y-82132639D01*
X161240801Y-82132639D02*
X161284344Y-81958468D01*
X161284344Y-81958468D02*
X161327887Y-81871382D01*
X161327887Y-81871382D02*
X161371430Y-81827839D01*
X161371430Y-81827839D02*
X161458515Y-81784296D01*
X162155201Y-82698696D02*
X162155201Y-81784296D01*
X162677715Y-82698696D02*
X162285829Y-82176182D01*
X162677715Y-81784296D02*
X162155201Y-82306811D01*
X137357101Y-82698696D02*
X137052301Y-82263268D01*
X136834587Y-82698696D02*
X136834587Y-81784296D01*
X136834587Y-81784296D02*
X137182930Y-81784296D01*
X137182930Y-81784296D02*
X137270015Y-81827839D01*
X137270015Y-81827839D02*
X137313558Y-81871382D01*
X137313558Y-81871382D02*
X137357101Y-81958468D01*
X137357101Y-81958468D02*
X137357101Y-82089096D01*
X137357101Y-82089096D02*
X137313558Y-82176182D01*
X137313558Y-82176182D02*
X137270015Y-82219725D01*
X137270015Y-82219725D02*
X137182930Y-82263268D01*
X137182930Y-82263268D02*
X136834587Y-82263268D01*
X137661901Y-81784296D02*
X138227958Y-81784296D01*
X138227958Y-81784296D02*
X137923158Y-82132639D01*
X137923158Y-82132639D02*
X138053787Y-82132639D01*
X138053787Y-82132639D02*
X138140873Y-82176182D01*
X138140873Y-82176182D02*
X138184415Y-82219725D01*
X138184415Y-82219725D02*
X138227958Y-82306811D01*
X138227958Y-82306811D02*
X138227958Y-82524525D01*
X138227958Y-82524525D02*
X138184415Y-82611611D01*
X138184415Y-82611611D02*
X138140873Y-82655154D01*
X138140873Y-82655154D02*
X138053787Y-82698696D01*
X138053787Y-82698696D02*
X137792530Y-82698696D01*
X137792530Y-82698696D02*
X137705444Y-82655154D01*
X137705444Y-82655154D02*
X137661901Y-82611611D01*
X139084587Y-82350354D02*
X139781273Y-82350354D01*
X141392358Y-82698696D02*
X140869844Y-82698696D01*
X141131101Y-82698696D02*
X141131101Y-81784296D01*
X141131101Y-81784296D02*
X141044015Y-81914925D01*
X141044015Y-81914925D02*
X140956930Y-82002011D01*
X140956930Y-82002011D02*
X140869844Y-82045554D01*
X141958415Y-81784296D02*
X142045501Y-81784296D01*
X142045501Y-81784296D02*
X142132587Y-81827839D01*
X142132587Y-81827839D02*
X142176130Y-81871382D01*
X142176130Y-81871382D02*
X142219672Y-81958468D01*
X142219672Y-81958468D02*
X142263215Y-82132639D01*
X142263215Y-82132639D02*
X142263215Y-82350354D01*
X142263215Y-82350354D02*
X142219672Y-82524525D01*
X142219672Y-82524525D02*
X142176130Y-82611611D01*
X142176130Y-82611611D02*
X142132587Y-82655154D01*
X142132587Y-82655154D02*
X142045501Y-82698696D01*
X142045501Y-82698696D02*
X141958415Y-82698696D01*
X141958415Y-82698696D02*
X141871330Y-82655154D01*
X141871330Y-82655154D02*
X141827787Y-82611611D01*
X141827787Y-82611611D02*
X141784244Y-82524525D01*
X141784244Y-82524525D02*
X141740701Y-82350354D01*
X141740701Y-82350354D02*
X141740701Y-82132639D01*
X141740701Y-82132639D02*
X141784244Y-81958468D01*
X141784244Y-81958468D02*
X141827787Y-81871382D01*
X141827787Y-81871382D02*
X141871330Y-81827839D01*
X141871330Y-81827839D02*
X141958415Y-81784296D01*
X142655101Y-82698696D02*
X142655101Y-81784296D01*
X143177615Y-82698696D02*
X142785729Y-82176182D01*
X143177615Y-81784296D02*
X142655101Y-82306811D01*
X115607201Y-70701511D02*
X115563658Y-70745054D01*
X115563658Y-70745054D02*
X115433030Y-70788596D01*
X115433030Y-70788596D02*
X115345944Y-70788596D01*
X115345944Y-70788596D02*
X115215315Y-70745054D01*
X115215315Y-70745054D02*
X115128230Y-70657968D01*
X115128230Y-70657968D02*
X115084687Y-70570882D01*
X115084687Y-70570882D02*
X115041144Y-70396711D01*
X115041144Y-70396711D02*
X115041144Y-70266082D01*
X115041144Y-70266082D02*
X115084687Y-70091911D01*
X115084687Y-70091911D02*
X115128230Y-70004825D01*
X115128230Y-70004825D02*
X115215315Y-69917739D01*
X115215315Y-69917739D02*
X115345944Y-69874196D01*
X115345944Y-69874196D02*
X115433030Y-69874196D01*
X115433030Y-69874196D02*
X115563658Y-69917739D01*
X115563658Y-69917739D02*
X115607201Y-69961282D01*
X115912001Y-69874196D02*
X116478058Y-69874196D01*
X116478058Y-69874196D02*
X116173258Y-70222539D01*
X116173258Y-70222539D02*
X116303887Y-70222539D01*
X116303887Y-70222539D02*
X116390973Y-70266082D01*
X116390973Y-70266082D02*
X116434515Y-70309625D01*
X116434515Y-70309625D02*
X116478058Y-70396711D01*
X116478058Y-70396711D02*
X116478058Y-70614425D01*
X116478058Y-70614425D02*
X116434515Y-70701511D01*
X116434515Y-70701511D02*
X116390973Y-70745054D01*
X116390973Y-70745054D02*
X116303887Y-70788596D01*
X116303887Y-70788596D02*
X116042630Y-70788596D01*
X116042630Y-70788596D02*
X115955544Y-70745054D01*
X115955544Y-70745054D02*
X115912001Y-70701511D01*
D16*
X176817777Y-69121217D02*
X176817777Y-69861446D01*
X176817777Y-69861446D02*
X176861320Y-69948532D01*
X176861320Y-69948532D02*
X176904863Y-69992075D01*
X176904863Y-69992075D02*
X176991948Y-70035617D01*
X176991948Y-70035617D02*
X177166120Y-70035617D01*
X177166120Y-70035617D02*
X177253205Y-69992075D01*
X177253205Y-69992075D02*
X177296748Y-69948532D01*
X177296748Y-69948532D02*
X177340291Y-69861446D01*
X177340291Y-69861446D02*
X177340291Y-69121217D01*
X178254691Y-70035617D02*
X177732177Y-70035617D01*
X177993434Y-70035617D02*
X177993434Y-69121217D01*
X177993434Y-69121217D02*
X177906348Y-69251846D01*
X177906348Y-69251846D02*
X177819263Y-69338932D01*
X177819263Y-69338932D02*
X177732177Y-69382475D01*
D15*
X125107201Y-114198996D02*
X124802401Y-113763568D01*
X124584687Y-114198996D02*
X124584687Y-113284596D01*
X124584687Y-113284596D02*
X124933030Y-113284596D01*
X124933030Y-113284596D02*
X125020115Y-113328139D01*
X125020115Y-113328139D02*
X125063658Y-113371682D01*
X125063658Y-113371682D02*
X125107201Y-113458768D01*
X125107201Y-113458768D02*
X125107201Y-113589396D01*
X125107201Y-113589396D02*
X125063658Y-113676482D01*
X125063658Y-113676482D02*
X125020115Y-113720025D01*
X125020115Y-113720025D02*
X124933030Y-113763568D01*
X124933030Y-113763568D02*
X124584687Y-113763568D01*
X125934515Y-113284596D02*
X125499087Y-113284596D01*
X125499087Y-113284596D02*
X125455544Y-113720025D01*
X125455544Y-113720025D02*
X125499087Y-113676482D01*
X125499087Y-113676482D02*
X125586173Y-113632939D01*
X125586173Y-113632939D02*
X125803887Y-113632939D01*
X125803887Y-113632939D02*
X125890973Y-113676482D01*
X125890973Y-113676482D02*
X125934515Y-113720025D01*
X125934515Y-113720025D02*
X125978058Y-113807111D01*
X125978058Y-113807111D02*
X125978058Y-114024825D01*
X125978058Y-114024825D02*
X125934515Y-114111911D01*
X125934515Y-114111911D02*
X125890973Y-114155454D01*
X125890973Y-114155454D02*
X125803887Y-114198996D01*
X125803887Y-114198996D02*
X125586173Y-114198996D01*
X125586173Y-114198996D02*
X125499087Y-114155454D01*
X125499087Y-114155454D02*
X125455544Y-114111911D01*
X127334687Y-113850554D02*
X128031373Y-113850554D01*
X129642458Y-114198896D02*
X129119944Y-114198896D01*
X129381201Y-114198896D02*
X129381201Y-113284496D01*
X129381201Y-113284496D02*
X129294115Y-113415125D01*
X129294115Y-113415125D02*
X129207030Y-113502211D01*
X129207030Y-113502211D02*
X129119944Y-113545754D01*
X130208515Y-113284496D02*
X130295601Y-113284496D01*
X130295601Y-113284496D02*
X130382687Y-113328039D01*
X130382687Y-113328039D02*
X130426230Y-113371582D01*
X130426230Y-113371582D02*
X130469772Y-113458668D01*
X130469772Y-113458668D02*
X130513315Y-113632839D01*
X130513315Y-113632839D02*
X130513315Y-113850554D01*
X130513315Y-113850554D02*
X130469772Y-114024725D01*
X130469772Y-114024725D02*
X130426230Y-114111811D01*
X130426230Y-114111811D02*
X130382687Y-114155354D01*
X130382687Y-114155354D02*
X130295601Y-114198896D01*
X130295601Y-114198896D02*
X130208515Y-114198896D01*
X130208515Y-114198896D02*
X130121430Y-114155354D01*
X130121430Y-114155354D02*
X130077887Y-114111811D01*
X130077887Y-114111811D02*
X130034344Y-114024725D01*
X130034344Y-114024725D02*
X129990801Y-113850554D01*
X129990801Y-113850554D02*
X129990801Y-113632839D01*
X129990801Y-113632839D02*
X130034344Y-113458668D01*
X130034344Y-113458668D02*
X130077887Y-113371582D01*
X130077887Y-113371582D02*
X130121430Y-113328039D01*
X130121430Y-113328039D02*
X130208515Y-113284496D01*
X130905201Y-114198896D02*
X130905201Y-113284496D01*
X131427715Y-114198896D02*
X131035829Y-113676382D01*
X131427715Y-113284496D02*
X130905201Y-113807011D01*
X125107201Y-153698696D02*
X124802401Y-153263268D01*
X124584687Y-153698696D02*
X124584687Y-152784296D01*
X124584687Y-152784296D02*
X124933030Y-152784296D01*
X124933030Y-152784296D02*
X125020115Y-152827839D01*
X125020115Y-152827839D02*
X125063658Y-152871382D01*
X125063658Y-152871382D02*
X125107201Y-152958468D01*
X125107201Y-152958468D02*
X125107201Y-153089096D01*
X125107201Y-153089096D02*
X125063658Y-153176182D01*
X125063658Y-153176182D02*
X125020115Y-153219725D01*
X125020115Y-153219725D02*
X124933030Y-153263268D01*
X124933030Y-153263268D02*
X124584687Y-153263268D01*
X125890973Y-152784296D02*
X125716801Y-152784296D01*
X125716801Y-152784296D02*
X125629715Y-152827839D01*
X125629715Y-152827839D02*
X125586173Y-152871382D01*
X125586173Y-152871382D02*
X125499087Y-153002011D01*
X125499087Y-153002011D02*
X125455544Y-153176182D01*
X125455544Y-153176182D02*
X125455544Y-153524525D01*
X125455544Y-153524525D02*
X125499087Y-153611611D01*
X125499087Y-153611611D02*
X125542630Y-153655154D01*
X125542630Y-153655154D02*
X125629715Y-153698696D01*
X125629715Y-153698696D02*
X125803887Y-153698696D01*
X125803887Y-153698696D02*
X125890973Y-153655154D01*
X125890973Y-153655154D02*
X125934515Y-153611611D01*
X125934515Y-153611611D02*
X125978058Y-153524525D01*
X125978058Y-153524525D02*
X125978058Y-153306811D01*
X125978058Y-153306811D02*
X125934515Y-153219725D01*
X125934515Y-153219725D02*
X125890973Y-153176182D01*
X125890973Y-153176182D02*
X125803887Y-153132639D01*
X125803887Y-153132639D02*
X125629715Y-153132639D01*
X125629715Y-153132639D02*
X125542630Y-153176182D01*
X125542630Y-153176182D02*
X125499087Y-153219725D01*
X125499087Y-153219725D02*
X125455544Y-153306811D01*
X127334687Y-153350354D02*
X128031373Y-153350354D01*
X129642458Y-153698696D02*
X129119944Y-153698696D01*
X129381201Y-153698696D02*
X129381201Y-152784296D01*
X129381201Y-152784296D02*
X129294115Y-152914925D01*
X129294115Y-152914925D02*
X129207030Y-153002011D01*
X129207030Y-153002011D02*
X129119944Y-153045554D01*
X130208515Y-152784296D02*
X130295601Y-152784296D01*
X130295601Y-152784296D02*
X130382687Y-152827839D01*
X130382687Y-152827839D02*
X130426230Y-152871382D01*
X130426230Y-152871382D02*
X130469772Y-152958468D01*
X130469772Y-152958468D02*
X130513315Y-153132639D01*
X130513315Y-153132639D02*
X130513315Y-153350354D01*
X130513315Y-153350354D02*
X130469772Y-153524525D01*
X130469772Y-153524525D02*
X130426230Y-153611611D01*
X130426230Y-153611611D02*
X130382687Y-153655154D01*
X130382687Y-153655154D02*
X130295601Y-153698696D01*
X130295601Y-153698696D02*
X130208515Y-153698696D01*
X130208515Y-153698696D02*
X130121430Y-153655154D01*
X130121430Y-153655154D02*
X130077887Y-153611611D01*
X130077887Y-153611611D02*
X130034344Y-153524525D01*
X130034344Y-153524525D02*
X129990801Y-153350354D01*
X129990801Y-153350354D02*
X129990801Y-153132639D01*
X129990801Y-153132639D02*
X130034344Y-152958468D01*
X130034344Y-152958468D02*
X130077887Y-152871382D01*
X130077887Y-152871382D02*
X130121430Y-152827839D01*
X130121430Y-152827839D02*
X130208515Y-152784296D01*
X130905201Y-153698696D02*
X130905201Y-152784296D01*
X131427715Y-153698696D02*
X131035829Y-153176182D01*
X131427715Y-152784296D02*
X130905201Y-153306811D01*
X147107201Y-114198996D02*
X146802401Y-113763568D01*
X146584687Y-114198996D02*
X146584687Y-113284596D01*
X146584687Y-113284596D02*
X146933030Y-113284596D01*
X146933030Y-113284596D02*
X147020115Y-113328139D01*
X147020115Y-113328139D02*
X147063658Y-113371682D01*
X147063658Y-113371682D02*
X147107201Y-113458768D01*
X147107201Y-113458768D02*
X147107201Y-113589396D01*
X147107201Y-113589396D02*
X147063658Y-113676482D01*
X147063658Y-113676482D02*
X147020115Y-113720025D01*
X147020115Y-113720025D02*
X146933030Y-113763568D01*
X146933030Y-113763568D02*
X146584687Y-113763568D01*
X147412001Y-113284596D02*
X148021601Y-113284596D01*
X148021601Y-113284596D02*
X147629715Y-114198996D01*
X149334687Y-113850554D02*
X150031373Y-113850554D01*
X151642458Y-114198896D02*
X151119944Y-114198896D01*
X151381201Y-114198896D02*
X151381201Y-113284496D01*
X151381201Y-113284496D02*
X151294115Y-113415125D01*
X151294115Y-113415125D02*
X151207030Y-113502211D01*
X151207030Y-113502211D02*
X151119944Y-113545754D01*
X152208515Y-113284496D02*
X152295601Y-113284496D01*
X152295601Y-113284496D02*
X152382687Y-113328039D01*
X152382687Y-113328039D02*
X152426230Y-113371582D01*
X152426230Y-113371582D02*
X152469772Y-113458668D01*
X152469772Y-113458668D02*
X152513315Y-113632839D01*
X152513315Y-113632839D02*
X152513315Y-113850554D01*
X152513315Y-113850554D02*
X152469772Y-114024725D01*
X152469772Y-114024725D02*
X152426230Y-114111811D01*
X152426230Y-114111811D02*
X152382687Y-114155354D01*
X152382687Y-114155354D02*
X152295601Y-114198896D01*
X152295601Y-114198896D02*
X152208515Y-114198896D01*
X152208515Y-114198896D02*
X152121430Y-114155354D01*
X152121430Y-114155354D02*
X152077887Y-114111811D01*
X152077887Y-114111811D02*
X152034344Y-114024725D01*
X152034344Y-114024725D02*
X151990801Y-113850554D01*
X151990801Y-113850554D02*
X151990801Y-113632839D01*
X151990801Y-113632839D02*
X152034344Y-113458668D01*
X152034344Y-113458668D02*
X152077887Y-113371582D01*
X152077887Y-113371582D02*
X152121430Y-113328039D01*
X152121430Y-113328039D02*
X152208515Y-113284496D01*
X152905201Y-114198896D02*
X152905201Y-113284496D01*
X153427715Y-114198896D02*
X153035829Y-113676382D01*
X153427715Y-113284496D02*
X152905201Y-113807011D01*
D16*
X155317877Y-69121217D02*
X155317877Y-69861446D01*
X155317877Y-69861446D02*
X155361420Y-69948532D01*
X155361420Y-69948532D02*
X155404963Y-69992075D01*
X155404963Y-69992075D02*
X155492048Y-70035617D01*
X155492048Y-70035617D02*
X155666220Y-70035617D01*
X155666220Y-70035617D02*
X155753305Y-69992075D01*
X155753305Y-69992075D02*
X155796848Y-69948532D01*
X155796848Y-69948532D02*
X155840391Y-69861446D01*
X155840391Y-69861446D02*
X155840391Y-69121217D01*
X156232277Y-69208303D02*
X156275820Y-69164760D01*
X156275820Y-69164760D02*
X156362906Y-69121217D01*
X156362906Y-69121217D02*
X156580620Y-69121217D01*
X156580620Y-69121217D02*
X156667706Y-69164760D01*
X156667706Y-69164760D02*
X156711248Y-69208303D01*
X156711248Y-69208303D02*
X156754791Y-69295389D01*
X156754791Y-69295389D02*
X156754791Y-69382475D01*
X156754791Y-69382475D02*
X156711248Y-69513103D01*
X156711248Y-69513103D02*
X156188734Y-70035617D01*
X156188734Y-70035617D02*
X156754791Y-70035617D01*
X127818077Y-69121117D02*
X127818077Y-69861346D01*
X127818077Y-69861346D02*
X127861620Y-69948432D01*
X127861620Y-69948432D02*
X127905163Y-69991975D01*
X127905163Y-69991975D02*
X127992248Y-70035517D01*
X127992248Y-70035517D02*
X128166420Y-70035517D01*
X128166420Y-70035517D02*
X128253505Y-69991975D01*
X128253505Y-69991975D02*
X128297048Y-69948432D01*
X128297048Y-69948432D02*
X128340591Y-69861346D01*
X128340591Y-69861346D02*
X128340591Y-69121117D01*
X128688934Y-69121117D02*
X129254991Y-69121117D01*
X129254991Y-69121117D02*
X128950191Y-69469460D01*
X128950191Y-69469460D02*
X129080820Y-69469460D01*
X129080820Y-69469460D02*
X129167906Y-69513003D01*
X129167906Y-69513003D02*
X129211448Y-69556546D01*
X129211448Y-69556546D02*
X129254991Y-69643632D01*
X129254991Y-69643632D02*
X129254991Y-69861346D01*
X129254991Y-69861346D02*
X129211448Y-69948432D01*
X129211448Y-69948432D02*
X129167906Y-69991975D01*
X129167906Y-69991975D02*
X129080820Y-70035517D01*
X129080820Y-70035517D02*
X128819563Y-70035517D01*
X128819563Y-70035517D02*
X128732477Y-69991975D01*
X128732477Y-69991975D02*
X128688934Y-69948432D01*
D15*
X169857201Y-71202011D02*
X169813658Y-71245554D01*
X169813658Y-71245554D02*
X169683030Y-71289096D01*
X169683030Y-71289096D02*
X169595944Y-71289096D01*
X169595944Y-71289096D02*
X169465315Y-71245554D01*
X169465315Y-71245554D02*
X169378230Y-71158468D01*
X169378230Y-71158468D02*
X169334687Y-71071382D01*
X169334687Y-71071382D02*
X169291144Y-70897211D01*
X169291144Y-70897211D02*
X169291144Y-70766582D01*
X169291144Y-70766582D02*
X169334687Y-70592411D01*
X169334687Y-70592411D02*
X169378230Y-70505325D01*
X169378230Y-70505325D02*
X169465315Y-70418239D01*
X169465315Y-70418239D02*
X169595944Y-70374696D01*
X169595944Y-70374696D02*
X169683030Y-70374696D01*
X169683030Y-70374696D02*
X169813658Y-70418239D01*
X169813658Y-70418239D02*
X169857201Y-70461782D01*
X170728058Y-71289096D02*
X170205544Y-71289096D01*
X170466801Y-71289096D02*
X170466801Y-70374696D01*
X170466801Y-70374696D02*
X170379715Y-70505325D01*
X170379715Y-70505325D02*
X170292630Y-70592411D01*
X170292630Y-70592411D02*
X170205544Y-70635954D01*
D16*
X190637067Y-118840491D02*
X190593525Y-118796948D01*
X190593525Y-118796948D02*
X190549982Y-118666320D01*
X190549982Y-118666320D02*
X190549982Y-118579234D01*
X190549982Y-118579234D02*
X190593525Y-118448605D01*
X190593525Y-118448605D02*
X190680610Y-118361520D01*
X190680610Y-118361520D02*
X190767696Y-118317977D01*
X190767696Y-118317977D02*
X190941867Y-118274434D01*
X190941867Y-118274434D02*
X191072496Y-118274434D01*
X191072496Y-118274434D02*
X191246667Y-118317977D01*
X191246667Y-118317977D02*
X191333753Y-118361520D01*
X191333753Y-118361520D02*
X191420839Y-118448605D01*
X191420839Y-118448605D02*
X191464382Y-118579234D01*
X191464382Y-118579234D02*
X191464382Y-118666320D01*
X191464382Y-118666320D02*
X191420839Y-118796948D01*
X191420839Y-118796948D02*
X191377296Y-118840491D01*
X190898325Y-119232377D02*
X190898325Y-119929063D01*
X190549982Y-120364491D02*
X191464382Y-120364491D01*
X191464382Y-120364491D02*
X190811239Y-120669291D01*
X190811239Y-120669291D02*
X191464382Y-120974091D01*
X191464382Y-120974091D02*
X190549982Y-120974091D01*
X190811239Y-121365977D02*
X190811239Y-121801406D01*
X190549982Y-121278891D02*
X191464382Y-121583691D01*
X191464382Y-121583691D02*
X190549982Y-121888491D01*
X190549982Y-122193291D02*
X191464382Y-122193291D01*
X190549982Y-122628720D02*
X191464382Y-122628720D01*
X191464382Y-122628720D02*
X190549982Y-123151234D01*
X190549982Y-123151234D02*
X191464382Y-123151234D01*
D15*
X176357001Y-82698696D02*
X176052201Y-82263268D01*
X175834487Y-82698696D02*
X175834487Y-81784296D01*
X175834487Y-81784296D02*
X176182830Y-81784296D01*
X176182830Y-81784296D02*
X176269915Y-81827839D01*
X176269915Y-81827839D02*
X176313458Y-81871382D01*
X176313458Y-81871382D02*
X176357001Y-81958468D01*
X176357001Y-81958468D02*
X176357001Y-82089096D01*
X176357001Y-82089096D02*
X176313458Y-82176182D01*
X176313458Y-82176182D02*
X176269915Y-82219725D01*
X176269915Y-82219725D02*
X176182830Y-82263268D01*
X176182830Y-82263268D02*
X175834487Y-82263268D01*
X177227858Y-82698696D02*
X176705344Y-82698696D01*
X176966601Y-82698696D02*
X176966601Y-81784296D01*
X176966601Y-81784296D02*
X176879515Y-81914925D01*
X176879515Y-81914925D02*
X176792430Y-82002011D01*
X176792430Y-82002011D02*
X176705344Y-82045554D01*
X178084487Y-82350354D02*
X178781173Y-82350354D01*
X180392258Y-82698696D02*
X179869744Y-82698696D01*
X180131001Y-82698696D02*
X180131001Y-81784296D01*
X180131001Y-81784296D02*
X180043915Y-81914925D01*
X180043915Y-81914925D02*
X179956830Y-82002011D01*
X179956830Y-82002011D02*
X179869744Y-82045554D01*
X180958315Y-81784296D02*
X181045401Y-81784296D01*
X181045401Y-81784296D02*
X181132487Y-81827839D01*
X181132487Y-81827839D02*
X181176030Y-81871382D01*
X181176030Y-81871382D02*
X181219572Y-81958468D01*
X181219572Y-81958468D02*
X181263115Y-82132639D01*
X181263115Y-82132639D02*
X181263115Y-82350354D01*
X181263115Y-82350354D02*
X181219572Y-82524525D01*
X181219572Y-82524525D02*
X181176030Y-82611611D01*
X181176030Y-82611611D02*
X181132487Y-82655154D01*
X181132487Y-82655154D02*
X181045401Y-82698696D01*
X181045401Y-82698696D02*
X180958315Y-82698696D01*
X180958315Y-82698696D02*
X180871230Y-82655154D01*
X180871230Y-82655154D02*
X180827687Y-82611611D01*
X180827687Y-82611611D02*
X180784144Y-82524525D01*
X180784144Y-82524525D02*
X180740601Y-82350354D01*
X180740601Y-82350354D02*
X180740601Y-82132639D01*
X180740601Y-82132639D02*
X180784144Y-81958468D01*
X180784144Y-81958468D02*
X180827687Y-81871382D01*
X180827687Y-81871382D02*
X180871230Y-81827839D01*
X180871230Y-81827839D02*
X180958315Y-81784296D01*
X181655001Y-82698696D02*
X181655001Y-81784296D01*
X182177515Y-82698696D02*
X181785629Y-82176182D01*
X182177515Y-81784296D02*
X181655001Y-82306811D01*
X147107201Y-153698696D02*
X146802401Y-153263268D01*
X146584687Y-153698696D02*
X146584687Y-152784296D01*
X146584687Y-152784296D02*
X146933030Y-152784296D01*
X146933030Y-152784296D02*
X147020115Y-152827839D01*
X147020115Y-152827839D02*
X147063658Y-152871382D01*
X147063658Y-152871382D02*
X147107201Y-152958468D01*
X147107201Y-152958468D02*
X147107201Y-153089096D01*
X147107201Y-153089096D02*
X147063658Y-153176182D01*
X147063658Y-153176182D02*
X147020115Y-153219725D01*
X147020115Y-153219725D02*
X146933030Y-153263268D01*
X146933030Y-153263268D02*
X146584687Y-153263268D01*
X147629715Y-153176182D02*
X147542630Y-153132639D01*
X147542630Y-153132639D02*
X147499087Y-153089096D01*
X147499087Y-153089096D02*
X147455544Y-153002011D01*
X147455544Y-153002011D02*
X147455544Y-152958468D01*
X147455544Y-152958468D02*
X147499087Y-152871382D01*
X147499087Y-152871382D02*
X147542630Y-152827839D01*
X147542630Y-152827839D02*
X147629715Y-152784296D01*
X147629715Y-152784296D02*
X147803887Y-152784296D01*
X147803887Y-152784296D02*
X147890973Y-152827839D01*
X147890973Y-152827839D02*
X147934515Y-152871382D01*
X147934515Y-152871382D02*
X147978058Y-152958468D01*
X147978058Y-152958468D02*
X147978058Y-153002011D01*
X147978058Y-153002011D02*
X147934515Y-153089096D01*
X147934515Y-153089096D02*
X147890973Y-153132639D01*
X147890973Y-153132639D02*
X147803887Y-153176182D01*
X147803887Y-153176182D02*
X147629715Y-153176182D01*
X147629715Y-153176182D02*
X147542630Y-153219725D01*
X147542630Y-153219725D02*
X147499087Y-153263268D01*
X147499087Y-153263268D02*
X147455544Y-153350354D01*
X147455544Y-153350354D02*
X147455544Y-153524525D01*
X147455544Y-153524525D02*
X147499087Y-153611611D01*
X147499087Y-153611611D02*
X147542630Y-153655154D01*
X147542630Y-153655154D02*
X147629715Y-153698696D01*
X147629715Y-153698696D02*
X147803887Y-153698696D01*
X147803887Y-153698696D02*
X147890973Y-153655154D01*
X147890973Y-153655154D02*
X147934515Y-153611611D01*
X147934515Y-153611611D02*
X147978058Y-153524525D01*
X147978058Y-153524525D02*
X147978058Y-153350354D01*
X147978058Y-153350354D02*
X147934515Y-153263268D01*
X147934515Y-153263268D02*
X147890973Y-153219725D01*
X147890973Y-153219725D02*
X147803887Y-153176182D01*
X149334687Y-153350354D02*
X150031373Y-153350354D01*
X151642458Y-153698696D02*
X151119944Y-153698696D01*
X151381201Y-153698696D02*
X151381201Y-152784296D01*
X151381201Y-152784296D02*
X151294115Y-152914925D01*
X151294115Y-152914925D02*
X151207030Y-153002011D01*
X151207030Y-153002011D02*
X151119944Y-153045554D01*
X152208515Y-152784296D02*
X152295601Y-152784296D01*
X152295601Y-152784296D02*
X152382687Y-152827839D01*
X152382687Y-152827839D02*
X152426230Y-152871382D01*
X152426230Y-152871382D02*
X152469772Y-152958468D01*
X152469772Y-152958468D02*
X152513315Y-153132639D01*
X152513315Y-153132639D02*
X152513315Y-153350354D01*
X152513315Y-153350354D02*
X152469772Y-153524525D01*
X152469772Y-153524525D02*
X152426230Y-153611611D01*
X152426230Y-153611611D02*
X152382687Y-153655154D01*
X152382687Y-153655154D02*
X152295601Y-153698696D01*
X152295601Y-153698696D02*
X152208515Y-153698696D01*
X152208515Y-153698696D02*
X152121430Y-153655154D01*
X152121430Y-153655154D02*
X152077887Y-153611611D01*
X152077887Y-153611611D02*
X152034344Y-153524525D01*
X152034344Y-153524525D02*
X151990801Y-153350354D01*
X151990801Y-153350354D02*
X151990801Y-153132639D01*
X151990801Y-153132639D02*
X152034344Y-152958468D01*
X152034344Y-152958468D02*
X152077887Y-152871382D01*
X152077887Y-152871382D02*
X152121430Y-152827839D01*
X152121430Y-152827839D02*
X152208515Y-152784296D01*
X152905201Y-153698696D02*
X152905201Y-152784296D01*
X153427715Y-153698696D02*
X153035829Y-153176182D01*
X153427715Y-152784296D02*
X152905201Y-153306811D01*
%TO.C,R9*%
D10*
X165500100Y-112537400D02*
X165500100Y-115039300D01*
X165500100Y-115039300D02*
X178499800Y-115039300D01*
X178499800Y-112537400D02*
X165500100Y-112537400D01*
X178499800Y-114787800D02*
X178499800Y-112537400D01*
X178499800Y-115039300D02*
X178499800Y-114787800D01*
%TO.C,C2*%
X142000500Y-66750800D02*
X142000500Y-74248900D01*
X142000500Y-74248900D02*
X144499800Y-74248900D01*
X144499800Y-66750800D02*
X142000500Y-66750800D01*
X144499800Y-73999900D02*
X144499800Y-66750800D01*
X144499800Y-74248900D02*
X144499800Y-73999900D01*
%TO.C,R4*%
X114500200Y-81037500D02*
X114500200Y-83539400D01*
X114500200Y-83539400D02*
X127499900Y-83539400D01*
X127499900Y-81037500D02*
X114500200Y-81037500D01*
X127499900Y-83287900D02*
X127499900Y-81037500D01*
X127499900Y-83539400D02*
X127499900Y-83287900D01*
%TO.C,R10*%
X165500100Y-152037300D02*
X165500100Y-154539200D01*
X165500100Y-154539200D02*
X178499800Y-154539200D01*
X178499800Y-152037300D02*
X165500100Y-152037300D01*
X178499800Y-154287700D02*
X178499800Y-152037300D01*
X178499800Y-154539200D02*
X178499800Y-154287700D01*
%TO.C,R2*%
X153000100Y-81037500D02*
X153000100Y-83539400D01*
X153000100Y-83539400D02*
X165999800Y-83539400D01*
X165999800Y-81037500D02*
X153000100Y-81037500D01*
X165999800Y-83287900D02*
X165999800Y-81037500D01*
X165999800Y-83539400D02*
X165999800Y-83287900D01*
%TO.C,R3*%
X133500100Y-81037500D02*
X133500100Y-83539400D01*
X133500100Y-83539400D02*
X146499800Y-83539400D01*
X146499800Y-81037500D02*
X133500100Y-81037500D01*
X146499800Y-83287900D02*
X146499800Y-81037500D01*
X146499800Y-83539400D02*
X146499800Y-83287900D01*
%TO.C,C3*%
X114550600Y-66540100D02*
X114550600Y-74038200D01*
X114550600Y-74038200D02*
X117049900Y-74038200D01*
X117049900Y-66540100D02*
X114550600Y-66540100D01*
X117049900Y-73789200D02*
X117049900Y-66540100D01*
X117049900Y-74038200D02*
X117049900Y-73789200D01*
%TO.C,U1*%
X172549900Y-69483200D02*
X172549900Y-67386500D01*
X172549900Y-71515200D02*
X172549900Y-73613500D01*
X174136700Y-73420200D02*
X175283100Y-73420200D01*
X174138700Y-67578200D02*
X175281100Y-67578200D01*
X176676700Y-73420200D02*
X177823100Y-73420200D01*
X176678700Y-67578200D02*
X177821100Y-67578200D01*
X179216700Y-73420200D02*
X180363100Y-73420200D01*
X179218700Y-67578200D02*
X180361100Y-67578200D01*
X181949900Y-67386500D02*
X181949900Y-73613500D01*
X172549900Y-69483200D02*
G75*
G02*
X172549900Y-71515200I0J-1016000D01*
G01*
%TO.C,R5*%
X121500100Y-112537400D02*
X121500100Y-115039300D01*
X121500100Y-115039300D02*
X134499800Y-115039300D01*
X134499800Y-112537400D02*
X121500100Y-112537400D01*
X134499800Y-114787800D02*
X134499800Y-112537400D01*
X134499800Y-115039300D02*
X134499800Y-114787800D01*
%TO.C,R6*%
X121500100Y-152037300D02*
X121500100Y-154539200D01*
X121500100Y-154539200D02*
X134499800Y-154539200D01*
X134499800Y-152037300D02*
X121500100Y-152037300D01*
X134499800Y-154287700D02*
X134499800Y-152037300D01*
X134499800Y-154539200D02*
X134499800Y-154287700D01*
%TO.C,R7*%
X143500100Y-112537400D02*
X143500100Y-115039300D01*
X143500100Y-115039300D02*
X156499800Y-115039300D01*
X156499800Y-112537400D02*
X143500100Y-112537400D01*
X156499800Y-114787800D02*
X156499800Y-112537400D01*
X156499800Y-115039300D02*
X156499800Y-114787800D01*
%TO.C,U2*%
X145750000Y-67301900D02*
X146030700Y-67301900D01*
X145750000Y-69501800D02*
X145750000Y-67301900D01*
X145750000Y-73699900D02*
X145750000Y-71500000D01*
X145750000Y-73699900D02*
X146029300Y-73699900D01*
X147689300Y-67301900D02*
X148570700Y-67301900D01*
X147690700Y-73699900D02*
X148569300Y-73699900D01*
X150229300Y-67301900D02*
X151110700Y-67301900D01*
X150230700Y-73699900D02*
X151109300Y-73699900D01*
X152769300Y-67301900D02*
X153650700Y-67301900D01*
X152770700Y-73699900D02*
X153649300Y-73699900D01*
X155309300Y-67301900D02*
X156190700Y-67301900D01*
X155310700Y-73699900D02*
X156189300Y-73699900D01*
X157849300Y-67301900D02*
X158730700Y-67301900D01*
X157850700Y-73699900D02*
X158729300Y-73699900D01*
X160389300Y-67301900D02*
X161270700Y-67301900D01*
X160390700Y-73699900D02*
X161269300Y-73699900D01*
X162929300Y-67301900D02*
X163810700Y-67301900D01*
X162930700Y-73699900D02*
X163809300Y-73699900D01*
X165469300Y-67301900D02*
X165750000Y-67301900D01*
X165470700Y-73699900D02*
X165750000Y-73699900D01*
X165750000Y-73699900D02*
X165750000Y-67300100D01*
X145750000Y-69500000D02*
G75*
G02*
X145800100Y-71499999I24999J-1000001D01*
G01*
X147200100Y-72699800D02*
G75*
G02*
X146600100Y-72699800I-300000J0D01*
G01*
X146600100Y-72699800D02*
G75*
G02*
X147200100Y-72699800I300000J0D01*
G01*
%TO.C,U3*%
X118500500Y-67302600D02*
X118781200Y-67302600D01*
X118500500Y-69502500D02*
X118500500Y-67302600D01*
X118500500Y-73700600D02*
X118500500Y-71500700D01*
X118500500Y-73700600D02*
X118779800Y-73700600D01*
X120439800Y-67302600D02*
X121321200Y-67302600D01*
X120441200Y-73700600D02*
X121319800Y-73700600D01*
X122979800Y-67302600D02*
X123861200Y-67302600D01*
X122981200Y-73700600D02*
X123859800Y-73700600D01*
X125519800Y-67302600D02*
X126401200Y-67302600D01*
X125521200Y-73700600D02*
X126399800Y-73700600D01*
X128059800Y-67302600D02*
X128941200Y-67302600D01*
X128061200Y-73700600D02*
X128939800Y-73700600D01*
X130599800Y-67302600D02*
X131481200Y-67302600D01*
X130601200Y-73700600D02*
X131479800Y-73700600D01*
X133139800Y-67302600D02*
X134021200Y-67302600D01*
X133141200Y-73700600D02*
X134019800Y-73700600D01*
X135679800Y-67302600D02*
X136561200Y-67302600D01*
X135681200Y-73700600D02*
X136559800Y-73700600D01*
X138219800Y-67302600D02*
X138500500Y-67302600D01*
X138221200Y-73700600D02*
X138500500Y-73700600D01*
X138500500Y-73700600D02*
X138500500Y-67300800D01*
X118500500Y-69500700D02*
G75*
G02*
X118550600Y-71500699I24999J-1000001D01*
G01*
X119950700Y-72700500D02*
G75*
G02*
X119350700Y-72700500I-300000J0D01*
G01*
X119350700Y-72700500D02*
G75*
G02*
X119950700Y-72700500I300000J0D01*
G01*
%TO.C,C1*%
X168800000Y-67039400D02*
X168800000Y-74537500D01*
X168800000Y-74537500D02*
X171299300Y-74537500D01*
X171299300Y-67039400D02*
X168800000Y-67039400D01*
X171299300Y-74288500D02*
X171299300Y-67039400D01*
X171299300Y-74537500D02*
X171299300Y-74288500D01*
%TO.C,C-MAIN*%
X184221900Y-119475800D02*
X185237900Y-119475800D01*
X184729900Y-118967800D02*
X184729900Y-119983800D01*
X189149500Y-120999900D02*
G75*
G02*
X182850300Y-120999900I-3149600J0D01*
G01*
X182850300Y-120999900D02*
G75*
G02*
X189149500Y-120999900I3149600J0D01*
G01*
%TO.C,R1*%
X172500000Y-81037500D02*
X172500000Y-83539400D01*
X172500000Y-83539400D02*
X185499700Y-83539400D01*
X185499700Y-81037500D02*
X172500000Y-81037500D01*
X185499700Y-83287900D02*
X185499700Y-81037500D01*
X185499700Y-83539400D02*
X185499700Y-83287900D01*
%TO.C,R8*%
X143500100Y-152037300D02*
X143500100Y-154539200D01*
X143500100Y-154539200D02*
X156499800Y-154539200D01*
X156499800Y-152037300D02*
X143500100Y-152037300D01*
X156499800Y-154287700D02*
X156499800Y-152037300D01*
X156499800Y-154539200D02*
X156499800Y-154287700D01*
%TD*%
M02*
