%TF.GenerationSoftware,KiCad,Pcbnew,10.0.6*%
%TF.CreationDate,2026-09-23T18:20:44+08:00*%
%TF.ProjectId,Camera_Module,43616d65-7261-45f4-9d6f-64756c652e6b,1.7*%
%TF.SameCoordinates,Original*%
%TF.FileFunction,Copper,L1,Top*%
%TF.FilePolarity,Positive*%
%FSLAX46Y46*%
G04 Gerber Fmt 4.6, Leading zero omitted, Abs format (unit mm)*
G04 Created by KiCad (PCBNEW 10.0.6) date 2026-09-23 18:20:44*
%MOMM*%
%LPD*%
G01*
G04 APERTURE LIST*
%TA.AperFunction,ComponentPad*%
%ADD10R,1.524000X1.524000*%
%TD*%
%TA.AperFunction,ComponentPad*%
%ADD11R,1.300000X1.300000*%
%TD*%
%TA.AperFunction,ComponentPad*%
%ADD12R,3.000000X1.000000*%
%TD*%
%TA.AperFunction,ComponentPad*%
%ADD13R,1.000000X1.000000*%
%TD*%
%TA.AperFunction,ComponentPad*%
%ADD14O,1.524000X1.524000*%
%TD*%
%TA.AperFunction,ComponentPad*%
%ADD15R,1.800000X1.800000*%
%TD*%
%TA.AperFunction,ComponentPad*%
%ADD16R,1.600000X1.600000*%
%TD*%
%TA.AperFunction,ViaPad*%
%ADD17C,0.609600*%
%TD*%
%TA.AperFunction,Conductor*%
%ADD18C,0.254000*%
%TD*%
%TA.AperFunction,Conductor*%
%ADD19C,0.762000*%
%TD*%
G04 APERTURE END LIST*
D10*
%TO.P,TP_+5V,*%
%TO.N,+5V*%
X140500000Y-128500000D03*
%TD*%
D11*
%TO.P,WP2,1*%
%TO.N,SCL*%
X185499900Y-143500000D03*
%TD*%
D10*
%TO.P,R9,1*%
%TO.N,GND*%
X177088800Y-113826200D03*
%TO.P,R9,2*%
%TO.N,UI9*%
X166928800Y-113826200D03*
%TD*%
%TO.P,C2,1*%
%TO.N,GND*%
X143206700Y-72962100D03*
%TO.P,C2,2*%
%TO.N,+5V*%
X143206700Y-67962100D03*
%TD*%
%TO.P,TP_UI2,11*%
%TO.N,UI2*%
X150500000Y-87500100D03*
%TD*%
%TO.P,TP_+5V,22*%
%TO.N,+5V*%
X162500000Y-128500000D03*
%TD*%
%TO.P,TP_UI4,15*%
%TO.N,UI4*%
X111500100Y-87500100D03*
%TD*%
%TO.P,R4,1*%
%TO.N,GND*%
X126088900Y-82326100D03*
%TO.P,R4,2*%
%TO.N,UI4*%
X115928900Y-82326100D03*
%TD*%
%TO.P,TP_UI6,23*%
%TO.N,UI6*%
X118500100Y-137500000D03*
%TD*%
D12*
%TO.P,TP_Pad_gge40554,28*%
%TO.N,N/C*%
X107499900Y-136000100D03*
%TD*%
D10*
%TO.P,R10,1*%
%TO.N,GND*%
X177088800Y-153325900D03*
%TO.P,R10,2*%
%TO.N,UI10*%
X166928800Y-153325900D03*
%TD*%
D13*
%TO.P,WP6,1*%
%TO.N,N/C*%
X185499900Y-135500000D03*
%TD*%
D10*
%TO.P,R2,1*%
%TO.N,GND*%
X164588900Y-82326100D03*
%TO.P,R2,2*%
%TO.N,UI2*%
X154428900Y-82326100D03*
%TD*%
%TO.P,R3,1*%
%TO.N,GND*%
X145088800Y-82326100D03*
%TO.P,R3,2*%
%TO.N,UI3*%
X134928800Y-82326100D03*
%TD*%
D11*
%TO.P,WP7,1*%
%TO.N,+5V*%
X185499900Y-133500000D03*
%TD*%
D10*
%TO.P,C3,1*%
%TO.N,GND*%
X115756900Y-72751500D03*
%TO.P,C3,2*%
%TO.N,+5V*%
X115756900Y-67751500D03*
%TD*%
%TO.P,TP_+5V,*%
%TO.N,+5V*%
X118500100Y-146999800D03*
%TD*%
D14*
%TO.P,TP_Pad_gge44183,*%
%TO.N,*%
X105000000Y-134499900D03*
%TD*%
D13*
%TO.P,WP10,1*%
%TO.N,N/C*%
X187499900Y-133500000D03*
%TD*%
D15*
%TO.P,U1,1*%
%TO.N,RESET*%
X173439800Y-74309900D03*
%TO.P,U1,2*%
%TO.N,DATA(P)*%
X175979800Y-74309900D03*
%TO.P,U1,3*%
%TO.N,LATCH(G)*%
X178519800Y-74309900D03*
%TO.P,U1,4*%
%TO.N,GND*%
X181059800Y-74309900D03*
%TO.P,U1,5*%
%TO.N,SDA*%
X181059800Y-66689900D03*
%TO.P,U1,6*%
%TO.N,CLOCK(Y)*%
X178519800Y-66689900D03*
%TO.P,U1,7*%
%TO.N,SCL*%
X175979800Y-66689900D03*
%TO.P,U1,8*%
%TO.N,+5V*%
X173439800Y-66689900D03*
%TD*%
D10*
%TO.P,TP_+5V,*%
%TO.N,+5V*%
X162500000Y-146999800D03*
%TD*%
%TO.P,R5,1*%
%TO.N,GND*%
X133088800Y-113826200D03*
%TO.P,R5,2*%
%TO.N,UI5*%
X122928800Y-113826200D03*
%TD*%
%TO.P,TP_UI5,17*%
%TO.N,UI5*%
X118500100Y-118999900D03*
%TD*%
%TO.P,R6,1*%
%TO.N,GND*%
X133088800Y-153325900D03*
%TO.P,R6,2*%
%TO.N,UI6*%
X122928800Y-153325900D03*
%TD*%
D11*
%TO.P,WP1,1*%
%TO.N,SDA*%
X185499900Y-145500000D03*
%TD*%
D10*
%TO.P,TP_+5V,*%
%TO.N,+5V*%
X140500000Y-146999800D03*
%TD*%
%TO.P,TP_UI1,9*%
%TO.N,UI1*%
X170000100Y-87500100D03*
%TD*%
%TO.P,TP_+5V,10*%
%TO.N,+5V*%
X170000100Y-96999900D03*
%TD*%
D13*
%TO.P,WP16,1*%
%TO.N,N/C*%
X187499900Y-145500000D03*
%TD*%
D10*
%TO.P,R7,1*%
%TO.N,GND*%
X155088800Y-113826200D03*
%TO.P,R7,2*%
%TO.N,UI7*%
X144928800Y-113826200D03*
%TD*%
%TO.P,TP_UI8,25*%
%TO.N,UI8*%
X140500000Y-137500000D03*
%TD*%
D16*
%TO.P,U2,1*%
%TO.N,LATCH(G)*%
X146860000Y-74309900D03*
%TO.P,U2,2*%
%TO.N,CLOCK(Y)*%
X149400000Y-74309900D03*
%TO.P,U2,3*%
%TO.N,UI8*%
X151940000Y-74309900D03*
%TO.P,U2,4*%
%TO.N,UI7*%
X154480000Y-74309900D03*
%TO.P,U2,5*%
%TO.N,UI10*%
X157020000Y-74309900D03*
%TO.P,U2,6*%
%TO.N,UI9*%
X159560000Y-74309900D03*
%TO.P,U2,7*%
%TO.N,N/C*%
X162100000Y-74309900D03*
%TO.P,U2,8*%
%TO.N,GND*%
X164640000Y-74309900D03*
%TO.P,U2,9*%
%TO.N,DATA(B)*%
X164640000Y-66689900D03*
%TO.P,U2,10*%
%TO.N,N/C*%
X162100000Y-66689900D03*
%TO.P,U2,11*%
%TO.N,UI1*%
X159560000Y-66689900D03*
%TO.P,U2,12*%
%TO.N,UI2*%
X157020000Y-66689900D03*
%TO.P,U2,13*%
%TO.N,UI5*%
X154480000Y-66689900D03*
%TO.P,U2,14*%
%TO.N,UI6*%
X151940000Y-66689900D03*
%TO.P,U2,15*%
%TO.N,GND*%
X149400000Y-66689900D03*
%TO.P,U2,16*%
%TO.N,+5V*%
X146860000Y-66689900D03*
%TD*%
%TO.P,U3,1*%
%TO.N,LATCH(G)*%
X119610600Y-74310800D03*
%TO.P,U3,2*%
%TO.N,CLOCK(Y)*%
X122150600Y-74310800D03*
%TO.P,U3,3*%
%TO.N,GND*%
X124690600Y-74310800D03*
%TO.P,U3,4*%
X127230600Y-74310800D03*
%TO.P,U3,5*%
X129770600Y-74310800D03*
%TO.P,U3,6*%
X132310600Y-74310800D03*
%TO.P,U3,7*%
%TO.N,N/C*%
X134850600Y-74310800D03*
%TO.P,U3,8*%
%TO.N,GND*%
X137390600Y-74310800D03*
%TO.P,U3,9*%
%TO.N,DATA(P)*%
X137390600Y-66690800D03*
%TO.P,U3,10*%
%TO.N,DATA(B)*%
X134850600Y-66690800D03*
%TO.P,U3,11*%
%TO.N,UI3*%
X132310600Y-66690800D03*
%TO.P,U3,12*%
%TO.N,UI4*%
X129770600Y-66690800D03*
%TO.P,U3,13*%
%TO.N,GND*%
X127230600Y-66690800D03*
%TO.P,U3,14*%
X124690600Y-66690800D03*
%TO.P,U3,15*%
X122150600Y-66690800D03*
%TO.P,U3,16*%
%TO.N,+5V*%
X119610600Y-66690800D03*
%TD*%
D11*
%TO.P,WP8,1*%
%TO.N,GND*%
X185499900Y-131500000D03*
%TD*%
D13*
%TO.P,WP14,1*%
%TO.N,N/C*%
X187499900Y-141500000D03*
%TD*%
D10*
%TO.P,TP_+5V,12*%
%TO.N,+5V*%
X150500000Y-96999900D03*
%TD*%
%TO.P,TP_UI7,19*%
%TO.N,UI7*%
X140500000Y-118999900D03*
%TD*%
D13*
%TO.P,WP15,1*%
%TO.N,N/C*%
X187499900Y-143500000D03*
%TD*%
D14*
%TO.P,TP_Pad_gge44204,*%
%TO.N,*%
X109999800Y-134499700D03*
%TD*%
D10*
%TO.P,C1,1*%
%TO.N,GND*%
X170006200Y-73250400D03*
%TO.P,C1,2*%
%TO.N,+5V*%
X170006200Y-68250500D03*
%TD*%
%TO.P,TP_UI10,27*%
%TO.N,UI10*%
X162500000Y-137500000D03*
%TD*%
D13*
%TO.P,WP13,1*%
%TO.N,N/C*%
X187499900Y-139500000D03*
%TD*%
D10*
%TO.P,TP_+5V,*%
%TO.N,+5V*%
X130999900Y-96999900D03*
%TD*%
%TO.P,C-MAIN,1*%
%TO.N,+5V*%
X184729900Y-120999900D03*
%TO.P,C-MAIN,2*%
%TO.N,GND*%
X187269900Y-120999900D03*
%TD*%
D13*
%TO.P,WP5,1*%
%TO.N,N/C*%
X185499900Y-137500000D03*
%TD*%
%TO.P,WP12,1*%
%TO.N,N/C*%
X187499900Y-137499900D03*
%TD*%
%TO.P,WP4,1*%
%TO.N,N/C*%
X185499900Y-139500000D03*
%TD*%
D11*
%TO.P,WP3,1*%
%TO.N,RESET*%
X185499900Y-141500000D03*
%TD*%
D10*
%TO.P,TP_UI3,13*%
%TO.N,UI3*%
X130999900Y-87500100D03*
%TD*%
D13*
%TO.P,WP11,1*%
%TO.N,N/C*%
X187499900Y-135499900D03*
%TD*%
D10*
%TO.P,TP_UI9,21*%
%TO.N,UI9*%
X162500000Y-118999900D03*
%TD*%
%TO.P,TP_+5V,*%
%TO.N,+5V*%
X111500100Y-96999900D03*
%TD*%
%TO.P,R1,1*%
%TO.N,GND*%
X184088700Y-82326100D03*
%TO.P,R1,2*%
%TO.N,UI1*%
X173928700Y-82326100D03*
%TD*%
%TO.P,R8,1*%
%TO.N,GND*%
X155088800Y-153325900D03*
%TO.P,R8,2*%
%TO.N,UI8*%
X144928800Y-153325900D03*
%TD*%
%TO.P,TP_+5V,*%
%TO.N,+5V*%
X118500100Y-128500000D03*
%TD*%
D13*
%TO.P,WP9,1*%
%TO.N,N/C*%
X187499900Y-131500000D03*
%TD*%
D17*
%TO.N,UI2*%
X155750000Y-70500100D03*
%TO.N,RESET*%
X179749900Y-76000000D03*
%TO.N,DATA(P)*%
X167749900Y-70500100D03*
%TO.N,UI5*%
X150750000Y-70500100D03*
%TO.N,UI1*%
X163500000Y-70500100D03*
%TO.N,UI7*%
X153750000Y-78000000D03*
%TO.N,UI8*%
X151750000Y-78000000D03*
%TO.N,GUARD2*%
X199499900Y-104999900D03*
X199499900Y-114997600D03*
%TO.N,GUARD1*%
X100500600Y-105001200D03*
X100500600Y-114998600D03*
%TD*%
%TO.N,UI9*%
D18*
X168000900Y-81501100D02*
X168000900Y-100998100D01*
X166929000Y-102070000D02*
X166929000Y-113825100D01*
X168000900Y-100998100D02*
X166929000Y-102070000D01*
X162500000Y-118254800D02*
X162500000Y-118999900D01*
X165499000Y-78999200D02*
X168000900Y-81501100D01*
X159560500Y-74310400D02*
X164249300Y-78999200D01*
X166928800Y-113826100D02*
X162500000Y-118254800D01*
X164249300Y-78999200D02*
X165499000Y-78999200D01*
%TO.N,UI2*%
X154428800Y-82326100D02*
X150500000Y-86254900D01*
X154429700Y-79822200D02*
X154429700Y-82326600D01*
X150500000Y-86254900D02*
X150500000Y-87500100D01*
X155750000Y-78501900D02*
X154429700Y-79822200D01*
X155750000Y-70500100D02*
X155750000Y-78501900D01*
%TO.N,UI4*%
X115928900Y-75821100D02*
X115928900Y-82326100D01*
X119750000Y-72000000D02*
X115928900Y-75821100D01*
X124461100Y-72000000D02*
X119750000Y-72000000D01*
X111500100Y-86754900D02*
X111500100Y-87500100D01*
X129770500Y-66690600D02*
X124461100Y-72000000D01*
X115928900Y-82326100D02*
X111500100Y-86754900D01*
%TO.N,UI6*%
X125499100Y-108498800D02*
X116748800Y-117249100D01*
X118498800Y-137500500D02*
X120000000Y-138999100D01*
X148000900Y-70629900D02*
X148000900Y-103500000D01*
X148000900Y-103500000D02*
X142999700Y-108498800D01*
X142999700Y-108498800D02*
X125499100Y-108498800D01*
X120000000Y-149999800D02*
X122928600Y-152928400D01*
X116748800Y-131749900D02*
X118498800Y-133500000D01*
X118498800Y-133500000D02*
X118498800Y-137500500D01*
X122928600Y-152928400D02*
X122928600Y-153327200D01*
X116748800Y-117249100D02*
X116748800Y-131749900D01*
X120000000Y-138999100D02*
X120000000Y-149999800D01*
X151940500Y-66690400D02*
X148000900Y-70629900D01*
%TO.N,UI10*%
X163999900Y-149999800D02*
X166928800Y-152928700D01*
X162500000Y-137500000D02*
X163999900Y-138999800D01*
X165250100Y-79499600D02*
X167500500Y-81750000D01*
X167500500Y-81750000D02*
X167500500Y-100749200D01*
X162499200Y-137000100D02*
X162499200Y-137500500D01*
X163999900Y-138999800D02*
X163999900Y-149999800D01*
X160749200Y-135250000D02*
X162499200Y-137000100D01*
X167500500Y-100749200D02*
X160749200Y-107500500D01*
X157020500Y-74310400D02*
X162209700Y-79499600D01*
X160749200Y-107500500D02*
X160749200Y-135250000D01*
X166928800Y-152928700D02*
X166928800Y-153326000D01*
X162209700Y-79499600D02*
X165250100Y-79499600D01*
%TO.N,UI3*%
X134825900Y-82326600D02*
X134930100Y-82326600D01*
X130999900Y-86255000D02*
X130999900Y-87500100D01*
X134928900Y-82326100D02*
X130999900Y-86255000D01*
X133500100Y-67879100D02*
X133500100Y-81000700D01*
X132311300Y-66690400D02*
X133500100Y-67879100D01*
X133500100Y-81000700D02*
X134825900Y-82326600D01*
%TO.N,RESET*%
X188999100Y-80000000D02*
X184999100Y-76000000D01*
X185498900Y-141501000D02*
X186499600Y-140500200D01*
X184999100Y-76000000D02*
X179749900Y-76000000D01*
X188999100Y-139999800D02*
X188501200Y-140500200D01*
X188501300Y-140500200D02*
X188999100Y-139999800D01*
X188501200Y-140500200D02*
X186499700Y-140500200D01*
X185001100Y-75999500D02*
X188999100Y-80000000D01*
X188999100Y-139999800D02*
X188999100Y-80000000D01*
X186499700Y-140500200D02*
X185498900Y-141501000D01*
X188999100Y-80000000D02*
X188999100Y-139999800D01*
X186499600Y-140500200D02*
X188501300Y-140500200D01*
%TO.N,DATA(P)*%
X172170000Y-70500100D02*
X167749900Y-70500100D01*
X175979700Y-74309800D02*
X172170000Y-70500100D01*
%TO.N,CLOCK(Y)*%
X149400500Y-70350500D02*
X149400500Y-74310400D01*
X175458300Y-69751100D02*
X149999900Y-69751100D01*
X149999900Y-69751100D02*
X149400500Y-70350500D01*
X178519000Y-66690400D02*
X175458300Y-69751100D01*
%TO.N,UI5*%
X148999200Y-103500000D02*
X143497500Y-108999100D01*
X150750000Y-70500100D02*
X150750000Y-75249400D01*
X150750000Y-75249400D02*
X148999200Y-77000200D01*
X122928600Y-113571100D02*
X122928600Y-113825100D01*
X118500100Y-118254800D02*
X118500100Y-118999900D01*
X143497500Y-108999100D02*
X127500600Y-108999100D01*
X127500600Y-108999100D02*
X122928600Y-113571100D01*
X148999200Y-77000200D02*
X148999200Y-103500000D01*
X122928900Y-113826100D02*
X118500100Y-118254800D01*
%TO.N,UI1*%
X167000100Y-76499800D02*
X172826900Y-82326600D01*
X164501100Y-71501100D02*
X167000100Y-74000100D01*
X164501000Y-71501100D02*
X164501100Y-71501100D01*
X172826900Y-82326600D02*
X173929300Y-82326600D01*
X173928800Y-82326100D02*
X170000100Y-86254800D01*
X170000100Y-86254800D02*
X170000100Y-87500100D01*
X163500000Y-70500100D02*
X164501000Y-71501100D01*
X167000100Y-74000100D02*
X167000100Y-76499800D01*
%TO.N,UI7*%
X153750000Y-75039800D02*
X153750000Y-78000000D01*
X140500000Y-118254800D02*
X140500000Y-118999900D01*
X144928800Y-113826100D02*
X140500000Y-118254800D01*
X154480000Y-74309900D02*
X153750000Y-75039800D01*
%TO.N,UI8*%
X151750000Y-74499800D02*
X151750000Y-78000000D01*
X141999900Y-138999800D02*
X141999900Y-150499800D01*
X144826100Y-153326000D02*
X144928800Y-153326000D01*
X141999900Y-150499800D02*
X144826100Y-153326000D01*
X140500000Y-137500000D02*
X141999900Y-138999800D01*
X151940000Y-74309900D02*
X151750000Y-74499800D01*
%TO.N,DATA(B)*%
X137499900Y-63500000D02*
X134850500Y-66149400D01*
X164640000Y-66689900D02*
X161450100Y-63500000D01*
X134850500Y-66149400D02*
X134850500Y-66690600D01*
X161450100Y-63500000D02*
X137499900Y-63500000D01*
%TO.N,GUARD2*%
D19*
X199500000Y-114997500D02*
X197000700Y-114997500D01*
X194501400Y-107496800D02*
X196998200Y-105000000D01*
X196998200Y-105000000D02*
X199500000Y-105000000D01*
X194501400Y-112498100D02*
X194501400Y-107496800D01*
X197000700Y-114997500D02*
X194501400Y-112498100D01*
%TO.N,GUARD1*%
X105499300Y-107498100D02*
X103002500Y-105001300D01*
X102999900Y-114998700D02*
X105499300Y-112499400D01*
X100500700Y-114998700D02*
X102999900Y-114998700D01*
X105499300Y-112499400D02*
X105499300Y-107498100D01*
X103002500Y-105001300D02*
X100500700Y-105001300D01*
%TD*%
%TA.AperFunction,Conductor*%
%TO.N,+5V*%
G36*
X189808617Y-60520502D02*
G01*
X189829591Y-60537405D01*
X199462595Y-70170409D01*
X199496621Y-70232721D01*
X199499500Y-70259504D01*
X199499500Y-104238500D01*
X199479498Y-104306621D01*
X199425842Y-104353114D01*
X199373500Y-104364500D01*
X196935606Y-104364500D01*
X196812830Y-104388922D01*
X196812825Y-104388924D01*
X196697177Y-104436827D01*
X196593096Y-104506372D01*
X196593089Y-104506377D01*
X194007777Y-107091689D01*
X194007772Y-107091696D01*
X193938227Y-107195777D01*
X193890324Y-107311425D01*
X193890322Y-107311430D01*
X193865900Y-107434206D01*
X193865900Y-112498089D01*
X193865899Y-112560688D01*
X193871992Y-112591323D01*
X193878004Y-112621545D01*
X193880441Y-112633797D01*
X193890320Y-112683467D01*
X193890328Y-112683496D01*
X193890584Y-112684101D01*
X193913564Y-112739581D01*
X193918634Y-112751821D01*
X193938222Y-112799113D01*
X193938227Y-112799122D01*
X193980288Y-112862072D01*
X194007770Y-112903203D01*
X194007774Y-112903207D01*
X194007775Y-112903208D01*
X194058015Y-112953448D01*
X196503909Y-115399440D01*
X196503930Y-115399463D01*
X196507074Y-115402607D01*
X196507075Y-115402608D01*
X196570457Y-115465990D01*
X196570459Y-115465993D01*
X196595576Y-115491112D01*
X196595585Y-115491119D01*
X196595588Y-115491121D01*
X196595592Y-115491125D01*
X196657549Y-115532523D01*
X196657551Y-115532525D01*
X196657552Y-115532525D01*
X196699679Y-115560675D01*
X196699695Y-115560684D01*
X196700228Y-115560901D01*
X196716945Y-115567825D01*
X196748565Y-115580922D01*
X196748567Y-115580924D01*
X196748568Y-115580924D01*
X196803937Y-115603860D01*
X196803985Y-115603885D01*
X196811789Y-115607113D01*
X196811861Y-115607143D01*
X196815848Y-115608794D01*
X196817167Y-115609095D01*
X196820603Y-115609626D01*
X196852954Y-115616061D01*
X196852958Y-115616061D01*
X196852959Y-115616062D01*
X196938102Y-115633000D01*
X196979824Y-115633000D01*
X197063278Y-115633002D01*
X197063283Y-115633000D01*
X197069478Y-115633001D01*
X197069519Y-115633000D01*
X199373500Y-115633000D01*
X199441621Y-115653002D01*
X199488114Y-115706658D01*
X199499500Y-115759000D01*
X199499500Y-149740487D01*
X199479498Y-149808608D01*
X199462594Y-149829584D01*
X194695658Y-154596329D01*
X194695626Y-154596358D01*
X194663048Y-154628937D01*
X194630469Y-154661516D01*
X194613310Y-154678674D01*
X194596153Y-154695831D01*
X194596139Y-154695847D01*
X189829787Y-159462295D01*
X189767475Y-159496320D01*
X189740691Y-159499200D01*
X110259414Y-159499200D01*
X110191293Y-159479198D01*
X110170341Y-159462318D01*
X105353688Y-154648074D01*
X105353643Y-154648029D01*
X100537382Y-149829359D01*
X100503373Y-149767038D01*
X100500500Y-149740286D01*
X100500500Y-134399780D01*
X103983500Y-134399780D01*
X103983500Y-134600019D01*
X104022564Y-134796402D01*
X104022565Y-134796405D01*
X104044889Y-134850300D01*
X104099190Y-134981393D01*
X104210300Y-135147682D01*
X104210434Y-135147882D01*
X104210439Y-135147888D01*
X104352011Y-135289460D01*
X104352017Y-135289465D01*
X104352019Y-135289467D01*
X104518507Y-135400710D01*
X104703498Y-135477336D01*
X104899884Y-135516400D01*
X105100116Y-135516400D01*
X105296502Y-135477336D01*
X105481493Y-135400710D01*
X105550323Y-135354719D01*
X105618071Y-135333506D01*
X105686538Y-135352289D01*
X105733982Y-135405105D01*
X105745190Y-135468843D01*
X105745400Y-135468843D01*
X105745400Y-135470036D01*
X105745715Y-135471828D01*
X105745400Y-135475028D01*
X105745400Y-136525163D01*
X105745401Y-136525173D01*
X105760165Y-136599400D01*
X105816416Y-136683584D01*
X105900597Y-136739833D01*
X105900599Y-136739834D01*
X105974833Y-136754600D01*
X109024966Y-136754599D01*
X109024969Y-136754598D01*
X109024972Y-136754598D01*
X109061563Y-136747319D01*
X109099201Y-136739834D01*
X109183384Y-136683584D01*
X109239634Y-136599401D01*
X109254400Y-136525167D01*
X109254399Y-135475034D01*
X109254398Y-135475028D01*
X109254063Y-135471623D01*
X109254399Y-135469851D01*
X109254399Y-135468844D01*
X109254590Y-135468844D01*
X109267291Y-135401870D01*
X109316130Y-135350341D01*
X109385075Y-135333396D01*
X109449455Y-135354505D01*
X109518307Y-135400510D01*
X109703298Y-135477136D01*
X109899684Y-135516200D01*
X110099916Y-135516200D01*
X110296302Y-135477136D01*
X110481293Y-135400510D01*
X110647781Y-135289267D01*
X110789367Y-135147681D01*
X110900610Y-134981193D01*
X110977236Y-134796202D01*
X111016300Y-134599816D01*
X111016300Y-134399584D01*
X110977236Y-134203198D01*
X110900610Y-134018207D01*
X110789367Y-133851719D01*
X110789365Y-133851717D01*
X110789360Y-133851711D01*
X110647788Y-133710139D01*
X110647782Y-133710134D01*
X110647781Y-133710133D01*
X110481293Y-133598890D01*
X110364639Y-133550570D01*
X110296305Y-133522265D01*
X110296302Y-133522264D01*
X110099919Y-133483200D01*
X110099916Y-133483200D01*
X109899684Y-133483200D01*
X109899680Y-133483200D01*
X109703297Y-133522264D01*
X109703294Y-133522265D01*
X109518307Y-133598890D01*
X109351817Y-133710134D01*
X109351811Y-133710139D01*
X109210239Y-133851711D01*
X109210234Y-133851717D01*
X109098990Y-134018207D01*
X109022365Y-134203194D01*
X109022364Y-134203197D01*
X108983300Y-134399580D01*
X108983300Y-134599819D01*
X109022364Y-134796202D01*
X109022365Y-134796205D01*
X109098990Y-134981193D01*
X109145314Y-135050522D01*
X109166529Y-135118275D01*
X109147746Y-135186742D01*
X109094928Y-135234185D01*
X109031157Y-135245401D01*
X109031157Y-135245600D01*
X109030025Y-135245600D01*
X109028212Y-135245919D01*
X109024969Y-135245600D01*
X105974825Y-135245600D01*
X105971724Y-135245906D01*
X105970117Y-135245600D01*
X105968645Y-135245601D01*
X105968645Y-135245321D01*
X105901973Y-135232667D01*
X105850452Y-135183820D01*
X105833518Y-135114872D01*
X105854626Y-135050511D01*
X105900810Y-134981393D01*
X105977436Y-134796402D01*
X106016500Y-134600016D01*
X106016500Y-134399784D01*
X105977436Y-134203398D01*
X105900810Y-134018407D01*
X105789567Y-133851919D01*
X105789565Y-133851917D01*
X105789560Y-133851911D01*
X105647988Y-133710339D01*
X105647982Y-133710334D01*
X105647981Y-133710333D01*
X105481493Y-133599090D01*
X105364839Y-133550770D01*
X105296505Y-133522465D01*
X105296502Y-133522464D01*
X105100119Y-133483400D01*
X105100116Y-133483400D01*
X104899884Y-133483400D01*
X104899880Y-133483400D01*
X104703497Y-133522464D01*
X104703494Y-133522465D01*
X104518507Y-133599090D01*
X104352017Y-133710334D01*
X104352011Y-133710339D01*
X104210439Y-133851911D01*
X104210434Y-133851917D01*
X104099190Y-134018407D01*
X104022565Y-134203394D01*
X104022564Y-134203397D01*
X103983500Y-134399780D01*
X100500500Y-134399780D01*
X100500500Y-131800130D01*
X116367298Y-131800130D01*
X116367302Y-131800163D01*
X116367552Y-131801064D01*
X116375507Y-131830753D01*
X116375508Y-131830757D01*
X116393295Y-131897147D01*
X116393296Y-131897150D01*
X116424778Y-131951680D01*
X116443521Y-131984144D01*
X116443523Y-131984146D01*
X116443524Y-131984147D01*
X116495545Y-132036168D01*
X116495546Y-132036170D01*
X116495547Y-132036170D01*
X118080399Y-133621112D01*
X118114421Y-133683424D01*
X118117300Y-133710204D01*
X118117300Y-136357500D01*
X118097298Y-136425621D01*
X118043642Y-136472114D01*
X117991300Y-136483500D01*
X117713036Y-136483500D01*
X117713026Y-136483501D01*
X117638799Y-136498265D01*
X117554615Y-136554516D01*
X117498366Y-136638697D01*
X117483600Y-136712930D01*
X117483600Y-138287063D01*
X117483601Y-138287073D01*
X117498365Y-138361300D01*
X117554616Y-138445484D01*
X117638797Y-138501733D01*
X117638799Y-138501734D01*
X117713033Y-138516500D01*
X118924443Y-138516499D01*
X118992564Y-138536501D01*
X119013460Y-138553325D01*
X119517806Y-139056797D01*
X119581518Y-139120398D01*
X119615597Y-139182681D01*
X119618500Y-139209571D01*
X119618500Y-150050023D01*
X119618499Y-150050023D01*
X119641539Y-150136009D01*
X119644499Y-150147054D01*
X119671136Y-150193191D01*
X119671905Y-150194522D01*
X119671906Y-150194524D01*
X119694723Y-150234045D01*
X119694727Y-150234051D01*
X121879145Y-152418468D01*
X121913170Y-152480780D01*
X121913631Y-152532134D01*
X121912301Y-152538822D01*
X121912300Y-152538834D01*
X121912300Y-154112963D01*
X121912301Y-154112973D01*
X121927065Y-154187200D01*
X121983316Y-154271384D01*
X122067497Y-154327633D01*
X122067499Y-154327634D01*
X122141733Y-154342400D01*
X123715866Y-154342399D01*
X123715869Y-154342398D01*
X123715873Y-154342398D01*
X123765126Y-154332601D01*
X123790101Y-154327634D01*
X123874284Y-154271384D01*
X123930534Y-154187201D01*
X123945300Y-154112967D01*
X123945299Y-152538834D01*
X123945299Y-152538833D01*
X123945299Y-152538831D01*
X123945299Y-152538830D01*
X132072300Y-152538830D01*
X132072300Y-154112963D01*
X132072301Y-154112973D01*
X132087065Y-154187200D01*
X132143316Y-154271384D01*
X132227497Y-154327633D01*
X132227499Y-154327634D01*
X132301733Y-154342400D01*
X133875866Y-154342399D01*
X133875869Y-154342398D01*
X133875873Y-154342398D01*
X133925126Y-154332601D01*
X133950101Y-154327634D01*
X134034284Y-154271384D01*
X134090534Y-154187201D01*
X134105300Y-154112967D01*
X134105299Y-152538834D01*
X134105298Y-152538831D01*
X134105298Y-152538826D01*
X134090534Y-152464599D01*
X134034283Y-152380415D01*
X133950102Y-152324166D01*
X133875867Y-152309400D01*
X132301736Y-152309400D01*
X132301726Y-152309401D01*
X132227499Y-152324165D01*
X132143315Y-152380416D01*
X132087066Y-152464597D01*
X132072300Y-152538830D01*
X123945299Y-152538830D01*
X123930534Y-152464599D01*
X123874283Y-152380415D01*
X123790102Y-152324166D01*
X123715869Y-152309400D01*
X123715867Y-152309400D01*
X122901313Y-152309400D01*
X122833192Y-152289398D01*
X122812218Y-152272495D01*
X120418405Y-149878682D01*
X120384379Y-149816370D01*
X120381500Y-149789587D01*
X120381500Y-139057570D01*
X120381550Y-139056797D01*
X120381543Y-139048997D01*
X120381544Y-139048995D01*
X120381500Y-138998192D01*
X120381500Y-138948875D01*
X120381500Y-138948868D01*
X120381457Y-138948549D01*
X120381457Y-138948544D01*
X120375129Y-138925011D01*
X120368307Y-138899636D01*
X120368279Y-138899531D01*
X120355501Y-138851845D01*
X120355452Y-138851727D01*
X120355378Y-138851549D01*
X120355374Y-138851541D01*
X120355374Y-138851539D01*
X120330307Y-138808208D01*
X120305674Y-138765543D01*
X120305278Y-138764856D01*
X120305075Y-138764593D01*
X120305073Y-138764589D01*
X120300743Y-138760266D01*
X120269850Y-138729426D01*
X120269857Y-138729418D01*
X120269775Y-138729352D01*
X120234247Y-138693824D01*
X120234246Y-138693823D01*
X120228774Y-138688351D01*
X120228194Y-138687843D01*
X119901084Y-138361300D01*
X119553581Y-138014398D01*
X119519502Y-137952115D01*
X119516599Y-137925225D01*
X119516599Y-136712936D01*
X119516598Y-136712927D01*
X119501834Y-136638699D01*
X119475576Y-136599402D01*
X119445584Y-136554516D01*
X119401661Y-136525167D01*
X119361402Y-136498266D01*
X119287169Y-136483500D01*
X119287167Y-136483500D01*
X119006300Y-136483500D01*
X118938179Y-136463498D01*
X118891686Y-136409842D01*
X118880300Y-136357500D01*
X118880300Y-135324253D01*
X120999594Y-135324253D01*
X120999600Y-135324342D01*
X120999600Y-149184008D01*
X120999600Y-149315792D01*
X121024567Y-149408973D01*
X121033707Y-149443083D01*
X121033710Y-149443090D01*
X121099597Y-149557210D01*
X121099605Y-149557220D01*
X121192779Y-149650394D01*
X121192784Y-149650398D01*
X121192786Y-149650400D01*
X121306914Y-149716292D01*
X121434208Y-149750400D01*
X121434210Y-149750400D01*
X134565790Y-149750400D01*
X134565792Y-149750400D01*
X134693086Y-149716292D01*
X134807214Y-149650400D01*
X134900400Y-149557214D01*
X134966292Y-149443086D01*
X135000400Y-149315792D01*
X135000400Y-136712930D01*
X139483500Y-136712930D01*
X139483500Y-138287063D01*
X139483501Y-138287073D01*
X139498265Y-138361300D01*
X139554516Y-138445484D01*
X139638697Y-138501733D01*
X139638699Y-138501734D01*
X139712933Y-138516500D01*
X140924837Y-138516499D01*
X140992958Y-138536501D01*
X141013929Y-138553400D01*
X141196164Y-138735622D01*
X141581492Y-139120924D01*
X141615520Y-139183234D01*
X141618400Y-139210022D01*
X141618400Y-150550023D01*
X141618399Y-150550023D01*
X141644400Y-150647058D01*
X141694621Y-150734043D01*
X141694629Y-150734053D01*
X143875395Y-152914817D01*
X143909420Y-152977129D01*
X143912300Y-153003912D01*
X143912300Y-154112963D01*
X143912301Y-154112973D01*
X143927065Y-154187200D01*
X143983316Y-154271384D01*
X144067497Y-154327633D01*
X144067499Y-154327634D01*
X144141733Y-154342400D01*
X145715866Y-154342399D01*
X145715869Y-154342398D01*
X145715873Y-154342398D01*
X145765126Y-154332601D01*
X145790101Y-154327634D01*
X145874284Y-154271384D01*
X145930534Y-154187201D01*
X145945300Y-154112967D01*
X145945299Y-152538834D01*
X145945299Y-152538833D01*
X145945299Y-152538831D01*
X145945299Y-152538830D01*
X154072300Y-152538830D01*
X154072300Y-154112963D01*
X154072301Y-154112973D01*
X154087065Y-154187200D01*
X154143316Y-154271384D01*
X154227497Y-154327633D01*
X154227499Y-154327634D01*
X154301733Y-154342400D01*
X155875866Y-154342399D01*
X155875869Y-154342398D01*
X155875873Y-154342398D01*
X155925126Y-154332601D01*
X155950101Y-154327634D01*
X156034284Y-154271384D01*
X156090534Y-154187201D01*
X156105300Y-154112967D01*
X156105299Y-152538834D01*
X156105298Y-152538831D01*
X156105298Y-152538826D01*
X156090534Y-152464599D01*
X156034283Y-152380415D01*
X155950102Y-152324166D01*
X155875867Y-152309400D01*
X154301736Y-152309400D01*
X154301726Y-152309401D01*
X154227499Y-152324165D01*
X154143315Y-152380416D01*
X154087066Y-152464597D01*
X154072300Y-152538830D01*
X145945299Y-152538830D01*
X145930534Y-152464599D01*
X145874283Y-152380415D01*
X145790102Y-152324166D01*
X145715869Y-152309400D01*
X145715867Y-152309400D01*
X144401213Y-152309400D01*
X144333092Y-152289398D01*
X144312118Y-152272495D01*
X142418305Y-150378682D01*
X142384279Y-150316370D01*
X142381400Y-150289587D01*
X142381400Y-139058804D01*
X142381401Y-139058775D01*
X142381400Y-139050015D01*
X142381402Y-139050012D01*
X142381400Y-138974933D01*
X142381400Y-138949575D01*
X142381400Y-138949566D01*
X142371402Y-138912262D01*
X142367162Y-138896440D01*
X142355401Y-138852546D01*
X142355397Y-138852539D01*
X142355396Y-138852535D01*
X142334599Y-138816516D01*
X142305176Y-138765553D01*
X142305170Y-138765547D01*
X142305168Y-138765543D01*
X142275245Y-138735622D01*
X142234147Y-138694524D01*
X142234146Y-138694523D01*
X142228219Y-138688596D01*
X142228192Y-138688572D01*
X141553407Y-138013832D01*
X141519379Y-137951521D01*
X141516499Y-137924734D01*
X141516499Y-136712936D01*
X141516498Y-136712927D01*
X141501734Y-136638699D01*
X141475476Y-136599402D01*
X141445484Y-136554516D01*
X141401561Y-136525167D01*
X141361302Y-136498266D01*
X141287067Y-136483500D01*
X139712936Y-136483500D01*
X139712926Y-136483501D01*
X139638699Y-136498265D01*
X139554515Y-136554516D01*
X139498266Y-136638697D01*
X139483500Y-136712930D01*
X135000400Y-136712930D01*
X135000400Y-135324253D01*
X142999194Y-135324253D01*
X142999200Y-135324342D01*
X142999200Y-149184008D01*
X142999200Y-149315792D01*
X143024167Y-149408973D01*
X143033307Y-149443083D01*
X143033310Y-149443090D01*
X143099197Y-149557210D01*
X143099205Y-149557220D01*
X143192379Y-149650394D01*
X143192384Y-149650398D01*
X143192386Y-149650400D01*
X143306514Y-149716292D01*
X143433808Y-149750400D01*
X143433810Y-149750400D01*
X156565890Y-149750400D01*
X156565892Y-149750400D01*
X156693186Y-149716292D01*
X156807314Y-149650400D01*
X156900500Y-149557214D01*
X156966392Y-149443086D01*
X157000500Y-149315792D01*
X157000500Y-135245600D01*
X157000505Y-135184943D01*
X157000502Y-135184934D01*
X157000500Y-135184912D01*
X157000500Y-135184908D01*
X156986308Y-135131942D01*
X156983547Y-135121637D01*
X156983546Y-135121631D01*
X156966860Y-135059344D01*
X156966446Y-135057701D01*
X156966438Y-135057681D01*
X156966062Y-135057042D01*
X156931414Y-134997031D01*
X156930860Y-134996071D01*
X156900669Y-134943770D01*
X156900526Y-134943520D01*
X156900502Y-134943488D01*
X156899572Y-134942558D01*
X156851513Y-134894499D01*
X156851509Y-134894492D01*
X156851508Y-134894494D01*
X156807337Y-134850315D01*
X156807322Y-134850304D01*
X156748806Y-134816520D01*
X156748800Y-134816513D01*
X156748799Y-134816516D01*
X156693218Y-134784421D01*
X156693217Y-134784420D01*
X156693204Y-134784413D01*
X156693203Y-134784412D01*
X156629232Y-134767271D01*
X156629229Y-134767269D01*
X156629229Y-134767270D01*
X156602210Y-134760029D01*
X156565927Y-134750305D01*
X156565925Y-134750304D01*
X156565907Y-134750300D01*
X156565892Y-134750300D01*
X156493773Y-134750300D01*
X143573838Y-134749404D01*
X143573770Y-134749400D01*
X143565592Y-134749400D01*
X143505997Y-134749400D01*
X143433835Y-134749394D01*
X143433821Y-134749396D01*
X143381815Y-134763330D01*
X143381812Y-134763331D01*
X143370538Y-134766352D01*
X143306546Y-134783495D01*
X143306531Y-134783503D01*
X143306514Y-134783508D01*
X143249516Y-134816416D01*
X143192414Y-134849379D01*
X143192402Y-134849390D01*
X143192386Y-134849400D01*
X143147292Y-134894494D01*
X143099221Y-134942558D01*
X143099211Y-134942574D01*
X143099200Y-134942586D01*
X143068320Y-134996071D01*
X143033321Y-135056682D01*
X143033316Y-135056699D01*
X143033308Y-135056714D01*
X143016170Y-135120671D01*
X143013149Y-135131940D01*
X143013149Y-135131942D01*
X142999200Y-135183991D01*
X142999200Y-135245610D01*
X142999194Y-135324253D01*
X135000400Y-135324253D01*
X135000400Y-135245600D01*
X135000405Y-135184943D01*
X135000402Y-135184934D01*
X135000400Y-135184912D01*
X135000400Y-135184908D01*
X134986208Y-135131942D01*
X134983447Y-135121637D01*
X134983446Y-135121631D01*
X134966760Y-135059344D01*
X134966346Y-135057701D01*
X134966338Y-135057681D01*
X134965962Y-135057042D01*
X134931314Y-134997031D01*
X134930760Y-134996071D01*
X134900569Y-134943770D01*
X134900426Y-134943520D01*
X134900402Y-134943488D01*
X134899472Y-134942558D01*
X134851413Y-134894499D01*
X134851409Y-134894492D01*
X134851408Y-134894494D01*
X134807237Y-134850315D01*
X134807222Y-134850304D01*
X134748706Y-134816520D01*
X134748700Y-134816513D01*
X134748699Y-134816516D01*
X134693118Y-134784421D01*
X134693117Y-134784420D01*
X134693104Y-134784413D01*
X134693103Y-134784412D01*
X134629132Y-134767271D01*
X134629129Y-134767269D01*
X134629129Y-134767270D01*
X134602110Y-134760029D01*
X134565827Y-134750305D01*
X134565825Y-134750304D01*
X134565807Y-134750300D01*
X134565792Y-134750300D01*
X134493675Y-134750300D01*
X121574238Y-134749404D01*
X121574170Y-134749400D01*
X121565992Y-134749400D01*
X121506395Y-134749400D01*
X121434235Y-134749394D01*
X121434221Y-134749396D01*
X121382215Y-134763330D01*
X121382212Y-134763331D01*
X121370938Y-134766352D01*
X121306946Y-134783495D01*
X121306931Y-134783503D01*
X121306914Y-134783508D01*
X121249916Y-134816416D01*
X121192814Y-134849379D01*
X121192802Y-134849390D01*
X121192786Y-134849400D01*
X121147692Y-134894494D01*
X121099621Y-134942558D01*
X121099611Y-134942574D01*
X121099600Y-134942586D01*
X121068720Y-134996071D01*
X121033721Y-135056682D01*
X121033716Y-135056699D01*
X121033708Y-135056714D01*
X121016570Y-135120671D01*
X121013549Y-135131940D01*
X121013549Y-135131942D01*
X120999600Y-135183991D01*
X120999600Y-135245610D01*
X120999594Y-135324253D01*
X118880300Y-135324253D01*
X118880300Y-133483200D01*
X118880301Y-133449785D01*
X118880300Y-133449781D01*
X118880300Y-133449775D01*
X118864320Y-133390137D01*
X118854305Y-133352757D01*
X118854303Y-133352753D01*
X118854301Y-133352746D01*
X118807949Y-133272461D01*
X118804082Y-133265762D01*
X118804080Y-133265760D01*
X118804076Y-133265753D01*
X118752052Y-133213729D01*
X117787679Y-132249300D01*
X117167202Y-131628787D01*
X117133179Y-131566474D01*
X117130300Y-131539694D01*
X117130300Y-117459313D01*
X117150302Y-117391192D01*
X117167205Y-117370218D01*
X119137992Y-115399431D01*
X125620218Y-108917205D01*
X125682530Y-108883179D01*
X125709313Y-108880300D01*
X126775688Y-108880300D01*
X126843809Y-108900302D01*
X126890302Y-108953958D01*
X126900406Y-109024232D01*
X126870912Y-109088812D01*
X126864783Y-109095395D01*
X123187380Y-112772795D01*
X123125068Y-112806821D01*
X123098285Y-112809700D01*
X122141736Y-112809700D01*
X122141726Y-112809701D01*
X122069792Y-112824009D01*
X122069790Y-112824010D01*
X122067499Y-112824466D01*
X121983316Y-112880716D01*
X121927066Y-112964899D01*
X121926610Y-112967190D01*
X121926609Y-112967192D01*
X121912300Y-113039130D01*
X121912300Y-114250968D01*
X121892298Y-114319089D01*
X121875394Y-114340064D01*
X118268879Y-117946496D01*
X118206567Y-117980521D01*
X118179785Y-117983400D01*
X117713036Y-117983400D01*
X117713026Y-117983401D01*
X117638799Y-117998165D01*
X117554615Y-118054416D01*
X117498366Y-118138597D01*
X117483600Y-118212830D01*
X117483600Y-119786963D01*
X117483601Y-119786973D01*
X117498365Y-119861200D01*
X117554616Y-119945384D01*
X117638797Y-120001633D01*
X117638799Y-120001634D01*
X117713033Y-120016400D01*
X119287166Y-120016399D01*
X119287169Y-120016398D01*
X119287173Y-120016398D01*
X119336426Y-120006601D01*
X119361401Y-120001634D01*
X119445584Y-119945384D01*
X119501834Y-119861201D01*
X119516600Y-119786967D01*
X119516599Y-118212834D01*
X119516598Y-118212830D01*
X119516598Y-118212826D01*
X119501834Y-118138599D01*
X119445582Y-118054413D01*
X119436810Y-118045641D01*
X119438659Y-118043791D01*
X119404483Y-118002892D01*
X119395638Y-117932449D01*
X119426283Y-117868406D01*
X119430906Y-117863529D01*
X120220204Y-117074249D01*
X120999594Y-117074249D01*
X120999600Y-117074338D01*
X120999600Y-130934008D01*
X120999600Y-131065792D01*
X121024567Y-131158973D01*
X121033707Y-131193083D01*
X121033710Y-131193090D01*
X121099597Y-131307210D01*
X121099605Y-131307220D01*
X121192779Y-131400394D01*
X121192784Y-131400398D01*
X121192786Y-131400400D01*
X121306914Y-131466292D01*
X121434208Y-131500400D01*
X121434210Y-131500400D01*
X134565790Y-131500400D01*
X134565792Y-131500400D01*
X134693086Y-131466292D01*
X134807214Y-131400400D01*
X134900400Y-131307214D01*
X134966292Y-131193086D01*
X135000400Y-131065792D01*
X135000400Y-118212830D01*
X139483500Y-118212830D01*
X139483500Y-119786963D01*
X139483501Y-119786973D01*
X139498265Y-119861200D01*
X139554516Y-119945384D01*
X139638697Y-120001633D01*
X139638699Y-120001634D01*
X139712933Y-120016400D01*
X141287066Y-120016399D01*
X141287069Y-120016398D01*
X141287073Y-120016398D01*
X141336326Y-120006601D01*
X141361301Y-120001634D01*
X141445484Y-119945384D01*
X141501734Y-119861201D01*
X141516500Y-119786967D01*
X141516499Y-118212834D01*
X141516498Y-118212830D01*
X141516498Y-118212826D01*
X141501734Y-118138599D01*
X141445482Y-118054413D01*
X141436710Y-118045641D01*
X141438559Y-118043791D01*
X141404383Y-118002892D01*
X141395538Y-117932449D01*
X141426183Y-117868406D01*
X141430806Y-117863529D01*
X142220103Y-117074250D01*
X142999194Y-117074250D01*
X142999200Y-117074338D01*
X142999200Y-130934008D01*
X142999200Y-131065792D01*
X143024167Y-131158973D01*
X143033307Y-131193083D01*
X143033310Y-131193090D01*
X143099197Y-131307210D01*
X143099205Y-131307220D01*
X143192379Y-131400394D01*
X143192384Y-131400398D01*
X143192386Y-131400400D01*
X143306514Y-131466292D01*
X143433808Y-131500400D01*
X143433810Y-131500400D01*
X156565890Y-131500400D01*
X156565892Y-131500400D01*
X156693186Y-131466292D01*
X156807314Y-131400400D01*
X156900500Y-131307214D01*
X156966392Y-131193086D01*
X157000500Y-131065792D01*
X157000500Y-117000938D01*
X157000505Y-116935046D01*
X157000500Y-116935027D01*
X157000500Y-116935008D01*
X156983734Y-116872436D01*
X156966407Y-116807750D01*
X156966397Y-116807732D01*
X156966392Y-116807714D01*
X156934345Y-116752207D01*
X156900524Y-116693617D01*
X156900509Y-116693602D01*
X156900500Y-116693586D01*
X156853934Y-116647020D01*
X156807345Y-116600424D01*
X156807344Y-116600423D01*
X156807339Y-116600418D01*
X156807319Y-116600403D01*
X156805564Y-116599390D01*
X156748759Y-116566593D01*
X156748760Y-116566591D01*
X156748752Y-116566589D01*
X156693222Y-116534523D01*
X156693221Y-116534522D01*
X156693206Y-116534514D01*
X156693188Y-116534509D01*
X156693186Y-116534508D01*
X156628537Y-116517185D01*
X156600299Y-116509616D01*
X156565912Y-116500400D01*
X156565892Y-116500400D01*
X156500920Y-116500400D01*
X143573742Y-116499405D01*
X143573656Y-116499400D01*
X143565592Y-116499400D01*
X143498856Y-116499400D01*
X143433846Y-116499394D01*
X143433810Y-116499399D01*
X143382514Y-116513142D01*
X143382507Y-116513144D01*
X143371236Y-116516165D01*
X143306550Y-116533493D01*
X143306532Y-116533502D01*
X143306514Y-116533508D01*
X143251007Y-116565554D01*
X143192417Y-116599376D01*
X143192402Y-116599390D01*
X143192386Y-116599400D01*
X143145820Y-116645965D01*
X143099224Y-116692555D01*
X143099214Y-116692571D01*
X143099200Y-116692586D01*
X143092747Y-116703761D01*
X143092746Y-116703763D01*
X143065396Y-116751134D01*
X143065393Y-116751139D01*
X143033313Y-116806694D01*
X143016994Y-116867600D01*
X143016991Y-116867609D01*
X142999200Y-116933986D01*
X142999200Y-116999872D01*
X142999194Y-117074250D01*
X142220103Y-117074250D01*
X144414800Y-114879602D01*
X144477112Y-114845578D01*
X144503894Y-114842699D01*
X145715864Y-114842699D01*
X145715866Y-114842699D01*
X145715869Y-114842698D01*
X145715872Y-114842698D01*
X145752463Y-114835419D01*
X145790101Y-114827934D01*
X145874284Y-114771684D01*
X145930534Y-114687501D01*
X145945300Y-114613267D01*
X145945299Y-113039134D01*
X145945299Y-113039133D01*
X145945299Y-113039131D01*
X145945299Y-113039130D01*
X154072300Y-113039130D01*
X154072300Y-114613263D01*
X154072301Y-114613273D01*
X154087065Y-114687500D01*
X154143316Y-114771684D01*
X154227497Y-114827933D01*
X154227499Y-114827934D01*
X154301733Y-114842700D01*
X155875866Y-114842699D01*
X155875869Y-114842698D01*
X155875873Y-114842698D01*
X155925126Y-114832901D01*
X155950101Y-114827934D01*
X156034284Y-114771684D01*
X156090534Y-114687501D01*
X156105300Y-114613267D01*
X156105299Y-113039134D01*
X156105298Y-113039131D01*
X156105298Y-113039126D01*
X156090534Y-112964899D01*
X156050378Y-112904802D01*
X156034284Y-112880716D01*
X156006382Y-112862072D01*
X155950102Y-112824466D01*
X155875867Y-112809700D01*
X154301736Y-112809700D01*
X154301726Y-112809701D01*
X154227499Y-112824465D01*
X154143315Y-112880716D01*
X154087066Y-112964897D01*
X154072300Y-113039130D01*
X145945299Y-113039130D01*
X145930534Y-112964899D01*
X145890378Y-112904802D01*
X145874284Y-112880716D01*
X145846382Y-112862072D01*
X145790102Y-112824466D01*
X145715867Y-112809700D01*
X144141736Y-112809700D01*
X144141726Y-112809701D01*
X144067499Y-112824465D01*
X143983315Y-112880716D01*
X143927066Y-112964897D01*
X143912300Y-113039130D01*
X143912300Y-114250868D01*
X143892298Y-114318989D01*
X143875394Y-114339964D01*
X140268779Y-117946496D01*
X140206467Y-117980521D01*
X140179685Y-117983400D01*
X139712936Y-117983400D01*
X139712926Y-117983401D01*
X139638699Y-117998165D01*
X139554515Y-118054416D01*
X139498266Y-118138597D01*
X139483500Y-118212830D01*
X135000400Y-118212830D01*
X135000400Y-117000939D01*
X135000405Y-116935047D01*
X135000400Y-116935028D01*
X135000400Y-116935008D01*
X134983204Y-116870832D01*
X134966307Y-116807750D01*
X134966297Y-116807732D01*
X134966292Y-116807714D01*
X134934245Y-116752207D01*
X134900424Y-116693617D01*
X134900409Y-116693602D01*
X134900400Y-116693586D01*
X134853834Y-116647020D01*
X134807245Y-116600424D01*
X134807244Y-116600423D01*
X134807239Y-116600418D01*
X134807219Y-116600403D01*
X134805464Y-116599390D01*
X134748659Y-116566593D01*
X134748660Y-116566591D01*
X134748652Y-116566589D01*
X134693122Y-116534523D01*
X134693121Y-116534522D01*
X134693106Y-116534514D01*
X134693088Y-116534509D01*
X134693086Y-116534508D01*
X134628437Y-116517185D01*
X134600199Y-116509616D01*
X134565812Y-116500400D01*
X134565792Y-116500400D01*
X134500822Y-116500400D01*
X121574142Y-116499405D01*
X121574056Y-116499400D01*
X121565992Y-116499400D01*
X121499255Y-116499400D01*
X121434242Y-116499394D01*
X121434214Y-116499398D01*
X121370038Y-116516593D01*
X121370031Y-116516595D01*
X121306931Y-116533497D01*
X121261482Y-116559737D01*
X121261480Y-116559738D01*
X121251407Y-116565554D01*
X121192817Y-116599376D01*
X121192802Y-116599390D01*
X121192786Y-116599400D01*
X121146220Y-116645965D01*
X121099624Y-116692555D01*
X121099614Y-116692571D01*
X121099600Y-116692586D01*
X121093147Y-116703761D01*
X121093146Y-116703763D01*
X121065796Y-116751134D01*
X121065793Y-116751139D01*
X121033713Y-116806694D01*
X121017394Y-116867600D01*
X121017391Y-116867609D01*
X120999600Y-116933986D01*
X120999600Y-116999871D01*
X120999594Y-117074249D01*
X120220204Y-117074249D01*
X122414900Y-114879602D01*
X122477212Y-114845578D01*
X122503994Y-114842699D01*
X123715864Y-114842699D01*
X123715866Y-114842699D01*
X123715869Y-114842698D01*
X123715872Y-114842698D01*
X123752463Y-114835419D01*
X123790101Y-114827934D01*
X123874284Y-114771684D01*
X123930534Y-114687501D01*
X123945300Y-114613267D01*
X123945299Y-113146111D01*
X123954082Y-113116196D01*
X123960711Y-113085727D01*
X123964525Y-113080631D01*
X123965301Y-113077991D01*
X123982199Y-113057022D01*
X124000091Y-113039130D01*
X132072300Y-113039130D01*
X132072300Y-114613263D01*
X132072301Y-114613273D01*
X132087065Y-114687500D01*
X132143316Y-114771684D01*
X132227497Y-114827933D01*
X132227499Y-114827934D01*
X132301733Y-114842700D01*
X133875866Y-114842699D01*
X133875869Y-114842698D01*
X133875873Y-114842698D01*
X133925126Y-114832901D01*
X133950101Y-114827934D01*
X134034284Y-114771684D01*
X134090534Y-114687501D01*
X134105300Y-114613267D01*
X134105299Y-113039134D01*
X134105298Y-113039131D01*
X134105298Y-113039126D01*
X134090534Y-112964899D01*
X134050378Y-112904802D01*
X134034284Y-112880716D01*
X134006382Y-112862072D01*
X133950102Y-112824466D01*
X133875867Y-112809700D01*
X132301736Y-112809700D01*
X132301726Y-112809701D01*
X132227499Y-112824465D01*
X132143315Y-112880716D01*
X132087066Y-112964897D01*
X132072300Y-113039130D01*
X124000091Y-113039130D01*
X127621717Y-109417505D01*
X127684029Y-109383479D01*
X127710812Y-109380600D01*
X143497410Y-109380600D01*
X143547632Y-109380612D01*
X143547632Y-109380611D01*
X143547635Y-109380612D01*
X143547638Y-109380611D01*
X143547719Y-109380600D01*
X143547725Y-109380600D01*
X143595935Y-109367681D01*
X143595936Y-109367686D01*
X143595962Y-109367673D01*
X143644669Y-109354636D01*
X143644672Y-109354633D01*
X143644683Y-109354631D01*
X143644747Y-109354604D01*
X143644750Y-109354601D01*
X143644754Y-109354601D01*
X143680965Y-109333695D01*
X143690643Y-109328108D01*
X143690649Y-109328103D01*
X143731675Y-109304431D01*
X143731680Y-109304425D01*
X143731719Y-109304403D01*
X143731725Y-109304399D01*
X143731843Y-109304280D01*
X143767980Y-109268143D01*
X143782778Y-109253352D01*
X149227039Y-103811661D01*
X149227204Y-103811519D01*
X149270532Y-103768191D01*
X149270554Y-103768168D01*
X149270571Y-103768150D01*
X149304420Y-103734319D01*
X149304421Y-103734316D01*
X149304464Y-103734274D01*
X149304665Y-103733919D01*
X149330915Y-103688450D01*
X149330936Y-103688431D01*
X149330929Y-103688427D01*
X149330931Y-103688424D01*
X149354666Y-103647337D01*
X149354667Y-103647329D01*
X149354674Y-103647319D01*
X149354697Y-103647262D01*
X149354697Y-103647259D01*
X149354701Y-103647254D01*
X149367871Y-103598099D01*
X149380688Y-103550316D01*
X149380688Y-103550314D01*
X149380689Y-103550311D01*
X149380700Y-103550228D01*
X149380700Y-103500090D01*
X149380712Y-103449865D01*
X149380711Y-103449861D01*
X149380713Y-103441774D01*
X149380700Y-103441560D01*
X149380700Y-88565173D01*
X149400702Y-88497052D01*
X149454358Y-88450559D01*
X149524632Y-88440455D01*
X149576701Y-88460408D01*
X149638699Y-88501834D01*
X149712933Y-88516600D01*
X151287066Y-88516599D01*
X151287069Y-88516598D01*
X151287073Y-88516598D01*
X151336326Y-88506801D01*
X151361301Y-88501834D01*
X151445484Y-88445584D01*
X151501734Y-88361401D01*
X151516500Y-88287167D01*
X151516499Y-86713034D01*
X151516498Y-86713030D01*
X151516498Y-86713026D01*
X151501734Y-86638799D01*
X151501733Y-86638797D01*
X151445484Y-86554616D01*
X151445480Y-86554613D01*
X151361302Y-86498366D01*
X151287069Y-86483600D01*
X151287067Y-86483600D01*
X151115013Y-86483600D01*
X151046892Y-86463598D01*
X151000399Y-86409942D01*
X150990295Y-86339668D01*
X151019789Y-86275088D01*
X151025918Y-86268505D01*
X151969823Y-85324600D01*
X152699495Y-85324600D01*
X152699500Y-85324671D01*
X152699500Y-99184008D01*
X152699500Y-99315792D01*
X152724467Y-99408973D01*
X152733607Y-99443083D01*
X152733610Y-99443090D01*
X152799497Y-99557210D01*
X152799505Y-99557220D01*
X152892679Y-99650394D01*
X152892684Y-99650398D01*
X152892686Y-99650400D01*
X153006814Y-99716292D01*
X153134108Y-99750400D01*
X153134110Y-99750400D01*
X166265790Y-99750400D01*
X166265792Y-99750400D01*
X166393086Y-99716292D01*
X166507214Y-99650400D01*
X166600400Y-99557214D01*
X166666292Y-99443086D01*
X166700400Y-99315792D01*
X166700400Y-85250831D01*
X166700404Y-85184939D01*
X166700400Y-85184924D01*
X166700400Y-85184908D01*
X166683200Y-85120718D01*
X166666304Y-85057643D01*
X166666296Y-85057629D01*
X166666292Y-85057614D01*
X166632735Y-84999492D01*
X166600419Y-84943511D01*
X166600408Y-84943500D01*
X166600400Y-84943486D01*
X166553829Y-84896915D01*
X166507239Y-84850319D01*
X166507224Y-84850310D01*
X166507214Y-84850300D01*
X166451261Y-84817995D01*
X166441021Y-84812082D01*
X166393103Y-84784412D01*
X166339453Y-84770037D01*
X166330041Y-84767515D01*
X166330037Y-84767514D01*
X166330035Y-84767513D01*
X166293019Y-84757592D01*
X166265823Y-84750304D01*
X166265821Y-84750303D01*
X166265807Y-84750300D01*
X166265792Y-84750300D01*
X166200815Y-84750300D01*
X153274139Y-84749504D01*
X153274071Y-84749500D01*
X153265892Y-84749500D01*
X153199147Y-84749500D01*
X153199142Y-84749499D01*
X153134138Y-84749495D01*
X153134111Y-84749499D01*
X153069923Y-84766697D01*
X153069919Y-84766698D01*
X153006828Y-84783599D01*
X152948691Y-84817164D01*
X152948687Y-84817167D01*
X152892694Y-84849490D01*
X152846120Y-84896065D01*
X152846114Y-84896072D01*
X152799509Y-84942669D01*
X152782014Y-84972970D01*
X152767195Y-84998638D01*
X152733670Y-85056699D01*
X152733612Y-85056799D01*
X152716716Y-85119853D01*
X152716715Y-85119858D01*
X152699500Y-85184090D01*
X152699500Y-85249977D01*
X152699495Y-85324600D01*
X151969823Y-85324600D01*
X152058882Y-85235541D01*
X153914918Y-83379504D01*
X153977230Y-83345479D01*
X154004013Y-83342599D01*
X155215964Y-83342599D01*
X155215966Y-83342599D01*
X155215969Y-83342598D01*
X155215972Y-83342598D01*
X155252563Y-83335319D01*
X155290201Y-83327834D01*
X155374384Y-83271584D01*
X155430634Y-83187401D01*
X155445400Y-83113167D01*
X155445399Y-81539034D01*
X155445399Y-81539033D01*
X155445399Y-81539031D01*
X155445399Y-81539030D01*
X163572400Y-81539030D01*
X163572400Y-83113163D01*
X163572401Y-83113173D01*
X163587165Y-83187400D01*
X163643416Y-83271584D01*
X163727597Y-83327833D01*
X163727599Y-83327834D01*
X163801833Y-83342600D01*
X165375966Y-83342599D01*
X165375969Y-83342598D01*
X165375973Y-83342598D01*
X165425226Y-83332801D01*
X165450201Y-83327834D01*
X165534384Y-83271584D01*
X165590634Y-83187401D01*
X165605400Y-83113167D01*
X165605399Y-81539034D01*
X165605398Y-81539031D01*
X165605398Y-81539026D01*
X165590634Y-81464799D01*
X165543660Y-81394499D01*
X165534384Y-81380616D01*
X165534383Y-81380615D01*
X165450202Y-81324366D01*
X165375967Y-81309600D01*
X163801836Y-81309600D01*
X163801826Y-81309601D01*
X163727599Y-81324365D01*
X163643415Y-81380616D01*
X163587166Y-81464797D01*
X163572400Y-81539030D01*
X155445399Y-81539030D01*
X155430634Y-81464799D01*
X155383660Y-81394499D01*
X155374384Y-81380616D01*
X155374383Y-81380615D01*
X155290202Y-81324366D01*
X155215969Y-81309600D01*
X155215967Y-81309600D01*
X154937200Y-81309600D01*
X154869079Y-81289598D01*
X154822586Y-81235942D01*
X154811200Y-81183600D01*
X154811200Y-80032413D01*
X154831202Y-79964292D01*
X154848105Y-79943318D01*
X156055269Y-78736154D01*
X156055276Y-78736147D01*
X156079653Y-78693924D01*
X156105501Y-78649154D01*
X156131500Y-78552125D01*
X156131500Y-75490399D01*
X156151502Y-75422278D01*
X156205158Y-75375785D01*
X156257495Y-75364399D01*
X157482786Y-75364399D01*
X157550907Y-75384401D01*
X157571881Y-75401304D01*
X161904424Y-79733847D01*
X161975453Y-79804876D01*
X161975454Y-79804877D01*
X161975456Y-79804878D01*
X162062441Y-79855099D01*
X162062443Y-79855099D01*
X162062446Y-79855101D01*
X162159475Y-79881100D01*
X165039887Y-79881100D01*
X165108008Y-79901102D01*
X165128982Y-79918005D01*
X167082095Y-81871118D01*
X167116121Y-81933430D01*
X167119000Y-81960213D01*
X167119000Y-100538987D01*
X167098998Y-100607108D01*
X167082095Y-100628082D01*
X160514953Y-107195224D01*
X160479439Y-107230738D01*
X160443925Y-107266251D01*
X160443921Y-107266256D01*
X160393700Y-107353241D01*
X160393699Y-107353246D01*
X160371658Y-107435506D01*
X160367700Y-107450276D01*
X160367700Y-135233250D01*
X160367698Y-135300230D01*
X160367702Y-135300265D01*
X160367945Y-135301142D01*
X160371862Y-135315757D01*
X160371863Y-135315762D01*
X160393693Y-135397241D01*
X160393697Y-135397251D01*
X160420698Y-135444018D01*
X160420700Y-135444021D01*
X160443921Y-135484244D01*
X160443923Y-135484246D01*
X160443924Y-135484247D01*
X160495945Y-135536268D01*
X160495946Y-135536270D01*
X160495947Y-135536270D01*
X161468041Y-136508420D01*
X161502064Y-136570733D01*
X161498108Y-136626015D01*
X161500687Y-136626528D01*
X161483500Y-136712930D01*
X161483500Y-138287063D01*
X161483501Y-138287073D01*
X161498265Y-138361300D01*
X161554516Y-138445484D01*
X161638697Y-138501733D01*
X161638699Y-138501734D01*
X161712933Y-138516500D01*
X162924837Y-138516499D01*
X162992958Y-138536501D01*
X163013929Y-138553400D01*
X163196164Y-138735622D01*
X163581492Y-139120924D01*
X163615520Y-139183234D01*
X163618400Y-139210022D01*
X163618400Y-150050023D01*
X163618399Y-150050023D01*
X163641439Y-150136009D01*
X163644399Y-150147054D01*
X163671036Y-150193191D01*
X163671805Y-150194522D01*
X163671806Y-150194524D01*
X163694623Y-150234045D01*
X163694627Y-150234051D01*
X165879129Y-152418552D01*
X165913154Y-152480864D01*
X165913614Y-152532225D01*
X165912300Y-152538829D01*
X165912300Y-154112963D01*
X165912301Y-154112973D01*
X165927065Y-154187200D01*
X165983316Y-154271384D01*
X166067497Y-154327633D01*
X166067499Y-154327634D01*
X166141733Y-154342400D01*
X167715866Y-154342399D01*
X167715869Y-154342398D01*
X167715873Y-154342398D01*
X167765126Y-154332601D01*
X167790101Y-154327634D01*
X167874284Y-154271384D01*
X167930534Y-154187201D01*
X167945300Y-154112967D01*
X167945299Y-152538834D01*
X167945299Y-152538833D01*
X167945299Y-152538831D01*
X167945299Y-152538830D01*
X176072300Y-152538830D01*
X176072300Y-154112963D01*
X176072301Y-154112973D01*
X176087065Y-154187200D01*
X176143316Y-154271384D01*
X176227497Y-154327633D01*
X176227499Y-154327634D01*
X176301733Y-154342400D01*
X177875866Y-154342399D01*
X177875869Y-154342398D01*
X177875873Y-154342398D01*
X177925126Y-154332601D01*
X177950101Y-154327634D01*
X178034284Y-154271384D01*
X178090534Y-154187201D01*
X178105300Y-154112967D01*
X178105299Y-152538834D01*
X178105298Y-152538831D01*
X178105298Y-152538826D01*
X178090534Y-152464599D01*
X178034283Y-152380415D01*
X177950102Y-152324166D01*
X177875867Y-152309400D01*
X176301736Y-152309400D01*
X176301726Y-152309401D01*
X176227499Y-152324165D01*
X176143315Y-152380416D01*
X176087066Y-152464597D01*
X176072300Y-152538830D01*
X167945299Y-152538830D01*
X167930534Y-152464599D01*
X167874283Y-152380415D01*
X167790102Y-152324166D01*
X167715869Y-152309400D01*
X167715867Y-152309400D01*
X166901213Y-152309400D01*
X166833092Y-152289398D01*
X166812118Y-152272495D01*
X164418305Y-149878682D01*
X164384279Y-149816370D01*
X164381400Y-149789587D01*
X164381400Y-139058804D01*
X164381401Y-139058775D01*
X164381400Y-139050015D01*
X164381402Y-139050012D01*
X164381400Y-138974933D01*
X164381400Y-138949575D01*
X164381400Y-138949566D01*
X164371402Y-138912262D01*
X164367162Y-138896440D01*
X164355401Y-138852546D01*
X164355397Y-138852539D01*
X164355396Y-138852535D01*
X164334599Y-138816516D01*
X164305176Y-138765553D01*
X164305170Y-138765547D01*
X164305168Y-138765543D01*
X164275245Y-138735622D01*
X164234147Y-138694524D01*
X164234146Y-138694523D01*
X164228219Y-138688596D01*
X164228192Y-138688572D01*
X163553407Y-138013832D01*
X163519379Y-137951521D01*
X163516499Y-137924734D01*
X163516499Y-136712936D01*
X163516498Y-136712927D01*
X163501734Y-136638699D01*
X163475476Y-136599402D01*
X163445484Y-136554516D01*
X163401561Y-136525167D01*
X163361302Y-136498266D01*
X163287069Y-136483500D01*
X163287067Y-136483500D01*
X162574329Y-136483500D01*
X162506208Y-136463498D01*
X162485231Y-136446593D01*
X162137858Y-136099200D01*
X161362956Y-135324253D01*
X164999494Y-135324253D01*
X164999500Y-135324342D01*
X164999500Y-149184008D01*
X164999500Y-149315792D01*
X165024467Y-149408973D01*
X165033607Y-149443083D01*
X165033610Y-149443090D01*
X165099497Y-149557210D01*
X165099505Y-149557220D01*
X165192679Y-149650394D01*
X165192684Y-149650398D01*
X165192686Y-149650400D01*
X165306814Y-149716292D01*
X165434108Y-149750400D01*
X165434110Y-149750400D01*
X178565790Y-149750400D01*
X178565792Y-149750400D01*
X178693086Y-149716292D01*
X178807214Y-149650400D01*
X178900400Y-149557214D01*
X178966292Y-149443086D01*
X179000400Y-149315792D01*
X179000400Y-136974930D01*
X184745400Y-136974930D01*
X184745400Y-138025063D01*
X184745401Y-138025073D01*
X184760165Y-138099300D01*
X184816416Y-138183484D01*
X184900597Y-138239733D01*
X184900599Y-138239734D01*
X184974833Y-138254500D01*
X186024966Y-138254499D01*
X186024969Y-138254498D01*
X186024973Y-138254498D01*
X186074226Y-138244701D01*
X186099201Y-138239734D01*
X186183384Y-138183484D01*
X186239634Y-138099301D01*
X186254400Y-138025067D01*
X186254399Y-136974934D01*
X186254379Y-136974834D01*
X186254378Y-136974830D01*
X186745400Y-136974830D01*
X186745400Y-138024963D01*
X186745401Y-138024973D01*
X186760165Y-138099200D01*
X186816416Y-138183384D01*
X186900597Y-138239633D01*
X186900599Y-138239634D01*
X186974833Y-138254400D01*
X188024966Y-138254399D01*
X188024969Y-138254398D01*
X188024973Y-138254398D01*
X188074226Y-138244601D01*
X188099201Y-138239634D01*
X188183384Y-138183384D01*
X188239634Y-138099201D01*
X188254400Y-138024967D01*
X188254399Y-136974834D01*
X188254398Y-136974830D01*
X188254398Y-136974826D01*
X188239634Y-136900599D01*
X188239633Y-136900597D01*
X188183384Y-136816416D01*
X188183383Y-136816415D01*
X188099202Y-136760166D01*
X188024967Y-136745400D01*
X186974836Y-136745400D01*
X186974826Y-136745401D01*
X186900599Y-136760165D01*
X186816415Y-136816416D01*
X186760166Y-136900597D01*
X186745400Y-136974830D01*
X186254378Y-136974830D01*
X186239634Y-136900699D01*
X186183383Y-136816515D01*
X186099202Y-136760266D01*
X186024967Y-136745500D01*
X184974836Y-136745500D01*
X184974826Y-136745501D01*
X184900599Y-136760265D01*
X184816415Y-136816516D01*
X184760166Y-136900697D01*
X184745400Y-136974930D01*
X179000400Y-136974930D01*
X179000400Y-135245600D01*
X179000405Y-135184943D01*
X179000400Y-135184924D01*
X179000400Y-135184908D01*
X178983447Y-135121638D01*
X178966305Y-135057646D01*
X178966296Y-135057631D01*
X178966292Y-135057614D01*
X178931314Y-134997031D01*
X178930760Y-134996071D01*
X178918556Y-134974930D01*
X184745400Y-134974930D01*
X184745400Y-136025063D01*
X184745401Y-136025073D01*
X184760165Y-136099300D01*
X184816416Y-136183484D01*
X184900597Y-136239733D01*
X184900599Y-136239734D01*
X184974833Y-136254500D01*
X186024966Y-136254499D01*
X186024969Y-136254498D01*
X186024973Y-136254498D01*
X186074226Y-136244701D01*
X186099201Y-136239734D01*
X186183384Y-136183484D01*
X186239634Y-136099301D01*
X186254400Y-136025067D01*
X186254399Y-134974934D01*
X186254379Y-134974834D01*
X186254378Y-134974830D01*
X186745400Y-134974830D01*
X186745400Y-136024963D01*
X186745401Y-136024973D01*
X186760165Y-136099200D01*
X186816416Y-136183384D01*
X186900597Y-136239633D01*
X186900599Y-136239634D01*
X186974833Y-136254400D01*
X188024966Y-136254399D01*
X188024969Y-136254398D01*
X188024973Y-136254398D01*
X188074226Y-136244601D01*
X188099201Y-136239634D01*
X188183384Y-136183384D01*
X188239634Y-136099201D01*
X188254400Y-136024967D01*
X188254399Y-134974834D01*
X188254398Y-134974830D01*
X188254398Y-134974826D01*
X188239634Y-134900599D01*
X188206032Y-134850311D01*
X188183384Y-134816416D01*
X188153436Y-134796405D01*
X188099202Y-134760166D01*
X188024967Y-134745400D01*
X186974836Y-134745400D01*
X186974826Y-134745401D01*
X186900599Y-134760165D01*
X186816415Y-134816416D01*
X186760166Y-134900597D01*
X186745400Y-134974830D01*
X186254378Y-134974830D01*
X186239634Y-134900699D01*
X186205958Y-134850300D01*
X186183384Y-134816516D01*
X186183380Y-134816513D01*
X186099202Y-134760266D01*
X186024967Y-134745500D01*
X184974836Y-134745500D01*
X184974826Y-134745501D01*
X184900599Y-134760265D01*
X184816415Y-134816516D01*
X184760166Y-134900697D01*
X184745400Y-134974930D01*
X178918556Y-134974930D01*
X178900569Y-134943770D01*
X178900426Y-134943520D01*
X178900402Y-134943488D01*
X178899472Y-134942558D01*
X178851413Y-134894499D01*
X178851409Y-134894492D01*
X178851408Y-134894494D01*
X178807237Y-134850315D01*
X178807222Y-134850304D01*
X178748706Y-134816520D01*
X178748700Y-134816513D01*
X178748699Y-134816516D01*
X178693118Y-134784421D01*
X178693117Y-134784420D01*
X178693104Y-134784413D01*
X178693103Y-134784412D01*
X178629132Y-134767271D01*
X178629129Y-134767269D01*
X178629129Y-134767270D01*
X178602110Y-134760029D01*
X178565827Y-134750305D01*
X178565825Y-134750304D01*
X178565807Y-134750300D01*
X178565792Y-134750300D01*
X178493675Y-134750300D01*
X165574138Y-134749404D01*
X165574070Y-134749400D01*
X165565892Y-134749400D01*
X165506295Y-134749400D01*
X165434135Y-134749394D01*
X165434121Y-134749396D01*
X165382115Y-134763330D01*
X165382112Y-134763331D01*
X165370838Y-134766352D01*
X165306846Y-134783495D01*
X165306831Y-134783503D01*
X165306814Y-134783508D01*
X165249816Y-134816416D01*
X165192714Y-134849379D01*
X165192702Y-134849390D01*
X165192686Y-134849400D01*
X165147592Y-134894494D01*
X165099521Y-134942558D01*
X165099511Y-134942574D01*
X165099500Y-134942586D01*
X165068620Y-134996071D01*
X165033621Y-135056682D01*
X165033616Y-135056699D01*
X165033608Y-135056714D01*
X165016470Y-135120671D01*
X165013449Y-135131940D01*
X165013449Y-135131942D01*
X164999500Y-135183991D01*
X164999500Y-135245610D01*
X164999494Y-135324253D01*
X161362956Y-135324253D01*
X161230730Y-135192019D01*
X161167602Y-135128887D01*
X161133579Y-135066574D01*
X161130700Y-135039794D01*
X161130700Y-132974930D01*
X186745400Y-132974930D01*
X186745400Y-134025063D01*
X186745401Y-134025073D01*
X186760165Y-134099300D01*
X186816416Y-134183484D01*
X186900597Y-134239733D01*
X186900599Y-134239734D01*
X186974833Y-134254500D01*
X188024966Y-134254499D01*
X188024969Y-134254498D01*
X188024973Y-134254498D01*
X188074226Y-134244701D01*
X188099201Y-134239734D01*
X188183384Y-134183484D01*
X188239634Y-134099301D01*
X188254400Y-134025067D01*
X188254399Y-132974934D01*
X188254398Y-132974930D01*
X188254398Y-132974926D01*
X188239634Y-132900699D01*
X188183383Y-132816515D01*
X188099202Y-132760266D01*
X188024967Y-132745500D01*
X186974836Y-132745500D01*
X186974826Y-132745501D01*
X186900599Y-132760265D01*
X186816415Y-132816516D01*
X186760166Y-132900697D01*
X186745400Y-132974930D01*
X161130700Y-132974930D01*
X161130700Y-107710713D01*
X161150702Y-107642592D01*
X161167605Y-107621618D01*
X166332405Y-102456818D01*
X166394717Y-102422792D01*
X166465532Y-102427857D01*
X166522368Y-102470404D01*
X166547179Y-102536924D01*
X166547500Y-102545913D01*
X166547500Y-112683700D01*
X166527498Y-112751821D01*
X166473842Y-112798314D01*
X166421500Y-112809700D01*
X166141736Y-112809700D01*
X166141726Y-112809701D01*
X166067499Y-112824465D01*
X165983315Y-112880716D01*
X165927066Y-112964897D01*
X165912300Y-113039130D01*
X165912300Y-114250868D01*
X165892298Y-114318989D01*
X165875394Y-114339964D01*
X162268779Y-117946496D01*
X162206467Y-117980521D01*
X162179685Y-117983400D01*
X161712936Y-117983400D01*
X161712926Y-117983401D01*
X161638699Y-117998165D01*
X161554515Y-118054416D01*
X161498266Y-118138597D01*
X161483500Y-118212830D01*
X161483500Y-119786963D01*
X161483501Y-119786973D01*
X161498265Y-119861200D01*
X161554516Y-119945384D01*
X161638697Y-120001633D01*
X161638699Y-120001634D01*
X161712933Y-120016400D01*
X163287066Y-120016399D01*
X163287069Y-120016398D01*
X163287073Y-120016398D01*
X163336326Y-120006601D01*
X163361301Y-120001634D01*
X163445484Y-119945384D01*
X163501734Y-119861201D01*
X163516500Y-119786967D01*
X163516499Y-118212834D01*
X163516498Y-118212830D01*
X163516498Y-118212826D01*
X163501734Y-118138599D01*
X163445482Y-118054413D01*
X163436710Y-118045641D01*
X163438559Y-118043791D01*
X163404383Y-118002892D01*
X163395538Y-117932449D01*
X163426183Y-117868406D01*
X163430806Y-117863529D01*
X164220104Y-117074249D01*
X164999494Y-117074249D01*
X164999500Y-117074338D01*
X164999500Y-130934008D01*
X164999500Y-131065792D01*
X165024467Y-131158973D01*
X165033607Y-131193083D01*
X165033610Y-131193090D01*
X165099497Y-131307210D01*
X165099505Y-131307220D01*
X165192679Y-131400394D01*
X165192684Y-131400398D01*
X165192686Y-131400400D01*
X165306814Y-131466292D01*
X165434108Y-131500400D01*
X165434110Y-131500400D01*
X178565790Y-131500400D01*
X178565792Y-131500400D01*
X178693086Y-131466292D01*
X178807214Y-131400400D01*
X178900400Y-131307214D01*
X178966292Y-131193086D01*
X179000400Y-131065792D01*
X179000400Y-130824930D01*
X184595400Y-130824930D01*
X184595400Y-132175063D01*
X184595401Y-132175073D01*
X184610165Y-132249300D01*
X184666416Y-132333484D01*
X184750597Y-132389733D01*
X184750599Y-132389734D01*
X184824833Y-132404500D01*
X186174966Y-132404499D01*
X186174969Y-132404498D01*
X186174973Y-132404498D01*
X186224226Y-132394701D01*
X186249201Y-132389734D01*
X186333384Y-132333484D01*
X186389634Y-132249301D01*
X186404400Y-132175067D01*
X186404399Y-130974930D01*
X186745400Y-130974930D01*
X186745400Y-132025063D01*
X186745401Y-132025073D01*
X186760165Y-132099300D01*
X186816416Y-132183484D01*
X186900597Y-132239733D01*
X186900599Y-132239734D01*
X186974833Y-132254500D01*
X188024966Y-132254499D01*
X188024969Y-132254498D01*
X188024973Y-132254498D01*
X188074226Y-132244701D01*
X188099201Y-132239734D01*
X188183384Y-132183484D01*
X188239634Y-132099301D01*
X188254400Y-132025067D01*
X188254399Y-130974934D01*
X188254398Y-130974930D01*
X188254398Y-130974926D01*
X188239634Y-130900699D01*
X188183383Y-130816515D01*
X188099202Y-130760266D01*
X188024967Y-130745500D01*
X186974836Y-130745500D01*
X186974826Y-130745501D01*
X186900599Y-130760265D01*
X186816415Y-130816516D01*
X186760166Y-130900697D01*
X186745400Y-130974930D01*
X186404399Y-130974930D01*
X186404399Y-130824934D01*
X186404398Y-130824930D01*
X186404398Y-130824926D01*
X186389634Y-130750699D01*
X186333383Y-130666515D01*
X186249202Y-130610266D01*
X186174967Y-130595500D01*
X184824836Y-130595500D01*
X184824826Y-130595501D01*
X184750599Y-130610265D01*
X184666415Y-130666516D01*
X184610166Y-130750697D01*
X184595400Y-130824930D01*
X179000400Y-130824930D01*
X179000400Y-120212830D01*
X186253400Y-120212830D01*
X186253400Y-121786963D01*
X186253401Y-121786973D01*
X186268165Y-121861200D01*
X186324416Y-121945384D01*
X186408597Y-122001633D01*
X186408599Y-122001634D01*
X186482833Y-122016400D01*
X188056966Y-122016399D01*
X188056969Y-122016398D01*
X188056973Y-122016398D01*
X188106226Y-122006601D01*
X188131201Y-122001634D01*
X188215384Y-121945384D01*
X188271634Y-121861201D01*
X188286400Y-121786967D01*
X188286399Y-120212834D01*
X188286398Y-120212830D01*
X188286398Y-120212826D01*
X188271634Y-120138599D01*
X188215383Y-120054415D01*
X188131202Y-119998166D01*
X188056967Y-119983400D01*
X186482836Y-119983400D01*
X186482826Y-119983401D01*
X186408599Y-119998165D01*
X186324415Y-120054416D01*
X186268166Y-120138597D01*
X186253400Y-120212830D01*
X179000400Y-120212830D01*
X179000400Y-117000939D01*
X179000405Y-116935047D01*
X179000400Y-116935028D01*
X179000400Y-116935008D01*
X178983204Y-116870832D01*
X178966307Y-116807750D01*
X178966297Y-116807732D01*
X178966292Y-116807714D01*
X178934245Y-116752207D01*
X178900424Y-116693617D01*
X178900409Y-116693602D01*
X178900400Y-116693586D01*
X178853834Y-116647020D01*
X178807245Y-116600424D01*
X178807244Y-116600423D01*
X178807239Y-116600418D01*
X178807219Y-116600403D01*
X178805464Y-116599390D01*
X178748659Y-116566593D01*
X178748660Y-116566591D01*
X178748652Y-116566589D01*
X178693122Y-116534523D01*
X178693121Y-116534522D01*
X178693106Y-116534514D01*
X178693088Y-116534509D01*
X178693086Y-116534508D01*
X178628437Y-116517185D01*
X178600199Y-116509616D01*
X178565812Y-116500400D01*
X178565792Y-116500400D01*
X178500822Y-116500400D01*
X165574042Y-116499405D01*
X165573956Y-116499400D01*
X165565892Y-116499400D01*
X165499155Y-116499400D01*
X165434142Y-116499394D01*
X165434114Y-116499398D01*
X165369938Y-116516593D01*
X165369931Y-116516595D01*
X165306831Y-116533497D01*
X165261382Y-116559737D01*
X165261380Y-116559738D01*
X165251307Y-116565554D01*
X165192717Y-116599376D01*
X165192702Y-116599390D01*
X165192686Y-116599400D01*
X165146120Y-116645965D01*
X165099524Y-116692555D01*
X165099514Y-116692571D01*
X165099500Y-116692586D01*
X165093047Y-116703761D01*
X165093046Y-116703763D01*
X165065696Y-116751134D01*
X165065693Y-116751139D01*
X165033613Y-116806694D01*
X165017294Y-116867600D01*
X165017291Y-116867609D01*
X164999500Y-116933986D01*
X164999500Y-116999871D01*
X164999494Y-117074249D01*
X164220104Y-117074249D01*
X166414800Y-114879602D01*
X166477112Y-114845578D01*
X166503894Y-114842699D01*
X167715864Y-114842699D01*
X167715866Y-114842699D01*
X167715869Y-114842698D01*
X167715872Y-114842698D01*
X167752463Y-114835419D01*
X167790101Y-114827934D01*
X167874284Y-114771684D01*
X167930534Y-114687501D01*
X167945300Y-114613267D01*
X167945299Y-113039134D01*
X167945299Y-113039133D01*
X167945299Y-113039131D01*
X167945299Y-113039130D01*
X176072300Y-113039130D01*
X176072300Y-114613263D01*
X176072301Y-114613273D01*
X176087065Y-114687500D01*
X176143316Y-114771684D01*
X176227497Y-114827933D01*
X176227499Y-114827934D01*
X176301733Y-114842700D01*
X177875866Y-114842699D01*
X177875869Y-114842698D01*
X177875873Y-114842698D01*
X177925126Y-114832901D01*
X177950101Y-114827934D01*
X178034284Y-114771684D01*
X178090534Y-114687501D01*
X178105300Y-114613267D01*
X178105299Y-113039134D01*
X178105298Y-113039131D01*
X178105298Y-113039126D01*
X178090534Y-112964899D01*
X178050378Y-112904802D01*
X178034284Y-112880716D01*
X178006382Y-112862072D01*
X177950102Y-112824466D01*
X177875867Y-112809700D01*
X176301736Y-112809700D01*
X176301726Y-112809701D01*
X176227499Y-112824465D01*
X176143315Y-112880716D01*
X176087066Y-112964897D01*
X176072300Y-113039130D01*
X167945299Y-113039130D01*
X167930534Y-112964899D01*
X167890378Y-112904802D01*
X167874284Y-112880716D01*
X167846382Y-112862072D01*
X167790102Y-112824466D01*
X167715869Y-112809700D01*
X167715867Y-112809700D01*
X167436500Y-112809700D01*
X167368379Y-112789698D01*
X167321886Y-112736042D01*
X167310500Y-112683700D01*
X167310500Y-102280212D01*
X167330502Y-102212091D01*
X167347400Y-102191121D01*
X168224771Y-101313749D01*
X168224781Y-101313742D01*
X168306170Y-101232353D01*
X168306176Y-101232347D01*
X168356401Y-101145354D01*
X168356402Y-101145353D01*
X168382401Y-101048325D01*
X168382401Y-100947875D01*
X168382401Y-100940158D01*
X168382400Y-100940140D01*
X168382400Y-81450876D01*
X168382400Y-81450875D01*
X168367294Y-81394499D01*
X168356402Y-81353847D01*
X168324282Y-81298214D01*
X168306178Y-81266856D01*
X168306170Y-81266846D01*
X165733253Y-78693929D01*
X165733243Y-78693921D01*
X165655701Y-78649153D01*
X165655700Y-78649153D01*
X165646254Y-78643699D01*
X165646253Y-78643698D01*
X165646252Y-78643698D01*
X165601221Y-78631632D01*
X165549225Y-78617700D01*
X165549223Y-78617700D01*
X164459512Y-78617700D01*
X164391391Y-78597698D01*
X164370417Y-78580795D01*
X161369117Y-75579494D01*
X161335091Y-75517182D01*
X161340156Y-75446366D01*
X161382703Y-75389531D01*
X161449223Y-75364720D01*
X161458187Y-75364399D01*
X162925066Y-75364399D01*
X162925069Y-75364398D01*
X162925073Y-75364398D01*
X162988501Y-75351782D01*
X162999301Y-75349634D01*
X163083484Y-75293384D01*
X163139734Y-75209201D01*
X163154500Y-75134967D01*
X163154499Y-73484834D01*
X163154498Y-73484827D01*
X163154498Y-73484826D01*
X163139734Y-73410599D01*
X163117600Y-73377473D01*
X163083484Y-73326416D01*
X163083483Y-73326415D01*
X162999302Y-73270166D01*
X162925067Y-73255400D01*
X161274936Y-73255400D01*
X161274926Y-73255401D01*
X161200699Y-73270165D01*
X161116515Y-73326416D01*
X161060266Y-73410597D01*
X161045500Y-73484830D01*
X161045500Y-74951687D01*
X161025498Y-75019808D01*
X160971842Y-75066301D01*
X160901568Y-75076405D01*
X160836988Y-75046911D01*
X160830405Y-75040782D01*
X160651404Y-74861781D01*
X160617378Y-74799469D01*
X160614499Y-74772686D01*
X160614499Y-73484836D01*
X160614498Y-73484827D01*
X160599734Y-73410599D01*
X160577600Y-73377473D01*
X160543484Y-73326416D01*
X160543483Y-73326415D01*
X160459302Y-73270166D01*
X160385067Y-73255400D01*
X158734936Y-73255400D01*
X158734926Y-73255401D01*
X158660699Y-73270165D01*
X158576515Y-73326416D01*
X158520266Y-73410597D01*
X158505500Y-73484830D01*
X158505500Y-74951687D01*
X158485498Y-75019808D01*
X158431842Y-75066301D01*
X158361568Y-75076405D01*
X158296988Y-75046911D01*
X158290405Y-75040782D01*
X158111404Y-74861781D01*
X158077378Y-74799469D01*
X158074499Y-74772686D01*
X158074499Y-73484836D01*
X158074498Y-73484827D01*
X158059734Y-73410599D01*
X158037600Y-73377473D01*
X158003484Y-73326416D01*
X158003483Y-73326415D01*
X157919302Y-73270166D01*
X157845069Y-73255400D01*
X156257500Y-73255400D01*
X156189379Y-73235398D01*
X156142886Y-73181742D01*
X156131500Y-73129400D01*
X156131500Y-70961759D01*
X156151502Y-70893638D01*
X156168401Y-70872667D01*
X156197551Y-70843518D01*
X156271184Y-70715982D01*
X156309300Y-70573733D01*
X156309300Y-70426467D01*
X156273058Y-70291211D01*
X156274748Y-70220235D01*
X156314542Y-70161439D01*
X156379807Y-70133491D01*
X156394765Y-70132600D01*
X162855235Y-70132600D01*
X162923356Y-70152602D01*
X162969849Y-70206258D01*
X162979953Y-70276532D01*
X162976942Y-70291211D01*
X162940702Y-70426462D01*
X162940700Y-70426468D01*
X162940700Y-70573731D01*
X162940699Y-70573731D01*
X162978816Y-70715982D01*
X163052446Y-70843514D01*
X163052454Y-70843524D01*
X163156575Y-70947645D01*
X163156580Y-70947649D01*
X163156582Y-70947651D01*
X163284118Y-71021284D01*
X163426367Y-71059400D01*
X163467587Y-71059400D01*
X163535708Y-71079402D01*
X163556677Y-71096300D01*
X164041972Y-71581595D01*
X164272232Y-71811855D01*
X164273042Y-71812565D01*
X165500782Y-73040305D01*
X165534808Y-73102617D01*
X165529743Y-73173432D01*
X165487196Y-73230268D01*
X165420676Y-73255079D01*
X165411687Y-73255400D01*
X163814936Y-73255400D01*
X163814926Y-73255401D01*
X163740699Y-73270165D01*
X163656515Y-73326416D01*
X163600266Y-73410597D01*
X163585500Y-73484830D01*
X163585500Y-75134963D01*
X163585501Y-75134973D01*
X163600265Y-75209200D01*
X163656516Y-75293384D01*
X163740697Y-75349633D01*
X163740699Y-75349634D01*
X163814933Y-75364400D01*
X165465066Y-75364399D01*
X165465069Y-75364398D01*
X165465073Y-75364398D01*
X165528501Y-75351782D01*
X165539301Y-75349634D01*
X165623484Y-75293384D01*
X165679734Y-75209201D01*
X165694500Y-75134967D01*
X165694499Y-73538211D01*
X165714501Y-73470091D01*
X165768157Y-73423598D01*
X165838431Y-73413494D01*
X165903011Y-73442988D01*
X165909594Y-73449117D01*
X166581695Y-74121218D01*
X166615721Y-74183530D01*
X166618600Y-74210313D01*
X166618600Y-76550023D01*
X166618599Y-76550023D01*
X166644599Y-76647054D01*
X166672236Y-76694922D01*
X166672237Y-76694925D01*
X166694820Y-76734042D01*
X166694827Y-76734051D01*
X172592646Y-82631870D01*
X172592651Y-82631874D01*
X172592653Y-82631876D01*
X172592654Y-82631877D01*
X172592656Y-82631878D01*
X172679649Y-82682103D01*
X172747742Y-82700349D01*
X172808364Y-82737300D01*
X172839386Y-82801161D01*
X172830956Y-82871656D01*
X172804225Y-82911150D01*
X170479838Y-85235539D01*
X169765853Y-85949524D01*
X169733465Y-85981912D01*
X169694825Y-86020551D01*
X169694821Y-86020556D01*
X169644600Y-86107541D01*
X169618600Y-86204576D01*
X169618600Y-86357600D01*
X169598598Y-86425721D01*
X169544942Y-86472214D01*
X169492600Y-86483600D01*
X169213036Y-86483600D01*
X169213026Y-86483601D01*
X169138799Y-86498365D01*
X169054615Y-86554616D01*
X168998366Y-86638797D01*
X168983600Y-86713030D01*
X168983600Y-88287163D01*
X168983601Y-88287173D01*
X168998365Y-88361400D01*
X169054616Y-88445584D01*
X169138797Y-88501833D01*
X169138799Y-88501834D01*
X169213033Y-88516600D01*
X170787166Y-88516599D01*
X170787169Y-88516598D01*
X170787173Y-88516598D01*
X170836426Y-88506801D01*
X170861401Y-88501834D01*
X170945584Y-88445584D01*
X171001834Y-88361401D01*
X171016600Y-88287167D01*
X171016599Y-86713034D01*
X171016598Y-86713030D01*
X171016598Y-86713026D01*
X171001834Y-86638799D01*
X171001833Y-86638797D01*
X170945584Y-86554616D01*
X170945580Y-86554613D01*
X170861402Y-86498366D01*
X170787169Y-86483600D01*
X170787167Y-86483600D01*
X170615013Y-86483600D01*
X170546892Y-86463598D01*
X170500399Y-86409942D01*
X170490295Y-86339668D01*
X170519789Y-86275088D01*
X170525904Y-86268518D01*
X171809136Y-84985285D01*
X171871444Y-84951264D01*
X171942259Y-84956328D01*
X171999095Y-84998875D01*
X172023906Y-85065395D01*
X172019936Y-85106988D01*
X172018108Y-85113808D01*
X172016270Y-85120671D01*
X172016011Y-85121638D01*
X171999300Y-85183991D01*
X171999300Y-85249875D01*
X171999294Y-85324253D01*
X171999300Y-85324342D01*
X171999300Y-99184008D01*
X171999300Y-99315792D01*
X172024267Y-99408973D01*
X172033407Y-99443083D01*
X172033410Y-99443090D01*
X172099297Y-99557210D01*
X172099305Y-99557220D01*
X172192479Y-99650394D01*
X172192484Y-99650398D01*
X172192486Y-99650400D01*
X172306614Y-99716292D01*
X172433908Y-99750400D01*
X172433910Y-99750400D01*
X185565690Y-99750400D01*
X185565692Y-99750400D01*
X185692986Y-99716292D01*
X185807114Y-99650400D01*
X185900300Y-99557214D01*
X185966192Y-99443086D01*
X186000300Y-99315792D01*
X186000300Y-85250835D01*
X186000305Y-85184943D01*
X186000300Y-85184924D01*
X186000300Y-85184908D01*
X185983347Y-85121638D01*
X185966205Y-85057646D01*
X185966196Y-85057631D01*
X185966192Y-85057614D01*
X185932635Y-84999492D01*
X185931213Y-84997029D01*
X185931209Y-84997022D01*
X185900469Y-84943770D01*
X185900326Y-84943520D01*
X185900302Y-84943488D01*
X185884878Y-84928064D01*
X185853731Y-84896917D01*
X185807142Y-84850321D01*
X185807125Y-84850311D01*
X185807114Y-84850300D01*
X185753628Y-84819420D01*
X185693018Y-84784421D01*
X185693000Y-84784416D01*
X185692986Y-84784408D01*
X185680431Y-84781043D01*
X185680430Y-84781043D01*
X185629032Y-84767271D01*
X185629029Y-84767269D01*
X185629029Y-84767270D01*
X185602010Y-84760029D01*
X185565727Y-84750305D01*
X185565725Y-84750304D01*
X185565707Y-84750300D01*
X185565692Y-84750300D01*
X185493574Y-84750300D01*
X172573938Y-84749404D01*
X172573870Y-84749400D01*
X172565692Y-84749400D01*
X172506096Y-84749400D01*
X172433935Y-84749394D01*
X172433921Y-84749396D01*
X172378352Y-84764285D01*
X172370638Y-84766352D01*
X172358743Y-84769538D01*
X172356882Y-84770037D01*
X172285905Y-84768339D01*
X172227114Y-84728537D01*
X172199174Y-84663270D01*
X172210956Y-84593257D01*
X172235186Y-84559235D01*
X173414918Y-83379503D01*
X173477230Y-83345478D01*
X173504013Y-83342599D01*
X174715764Y-83342599D01*
X174715766Y-83342599D01*
X174715769Y-83342598D01*
X174715772Y-83342598D01*
X174752363Y-83335319D01*
X174790001Y-83327834D01*
X174874184Y-83271584D01*
X174930434Y-83187401D01*
X174945200Y-83113167D01*
X174945199Y-81539034D01*
X174945199Y-81539033D01*
X174945199Y-81539031D01*
X174945199Y-81539030D01*
X183072200Y-81539030D01*
X183072200Y-83113163D01*
X183072201Y-83113173D01*
X183086965Y-83187400D01*
X183143216Y-83271584D01*
X183227397Y-83327833D01*
X183227399Y-83327834D01*
X183301633Y-83342600D01*
X184875766Y-83342599D01*
X184875769Y-83342598D01*
X184875773Y-83342598D01*
X184925026Y-83332801D01*
X184950001Y-83327834D01*
X185034184Y-83271584D01*
X185090434Y-83187401D01*
X185105200Y-83113167D01*
X185105199Y-81539034D01*
X185105198Y-81539031D01*
X185105198Y-81539026D01*
X185090434Y-81464799D01*
X185043460Y-81394499D01*
X185034184Y-81380616D01*
X185034183Y-81380615D01*
X184950002Y-81324366D01*
X184875767Y-81309600D01*
X183301636Y-81309600D01*
X183301626Y-81309601D01*
X183227399Y-81324365D01*
X183143215Y-81380616D01*
X183086966Y-81464797D01*
X183072200Y-81539030D01*
X174945199Y-81539030D01*
X174930434Y-81464799D01*
X174883460Y-81394499D01*
X174874184Y-81380616D01*
X174874183Y-81380615D01*
X174790002Y-81324366D01*
X174715767Y-81309600D01*
X173141636Y-81309600D01*
X173141626Y-81309601D01*
X173067399Y-81324365D01*
X172983215Y-81380616D01*
X172926966Y-81464797D01*
X172912200Y-81539030D01*
X172912200Y-81568187D01*
X172892198Y-81636308D01*
X172838542Y-81682801D01*
X172768268Y-81692905D01*
X172703688Y-81663411D01*
X172697105Y-81657282D01*
X167418505Y-76378682D01*
X167384479Y-76316370D01*
X167381600Y-76289587D01*
X167381600Y-74060488D01*
X167381601Y-74060475D01*
X167381601Y-73949876D01*
X167381237Y-73948516D01*
X167355602Y-73852847D01*
X167338602Y-73823402D01*
X167305378Y-73765856D01*
X167305370Y-73765846D01*
X166002854Y-72463330D01*
X168989700Y-72463330D01*
X168989700Y-74037463D01*
X168989701Y-74037473D01*
X169004465Y-74111700D01*
X169060716Y-74195884D01*
X169144897Y-74252133D01*
X169144899Y-74252134D01*
X169219133Y-74266900D01*
X170793266Y-74266899D01*
X170793269Y-74266898D01*
X170793273Y-74266898D01*
X170842526Y-74257101D01*
X170867501Y-74252134D01*
X170951684Y-74195884D01*
X171007934Y-74111701D01*
X171022700Y-74037467D01*
X171022699Y-72463334D01*
X171022698Y-72463330D01*
X171022698Y-72463326D01*
X171007934Y-72389099D01*
X170951926Y-72305278D01*
X170951684Y-72304916D01*
X170951683Y-72304915D01*
X170867502Y-72248666D01*
X170793267Y-72233900D01*
X169219136Y-72233900D01*
X169219126Y-72233901D01*
X169144899Y-72248665D01*
X169060715Y-72304916D01*
X169004466Y-72389097D01*
X168989700Y-72463330D01*
X166002854Y-72463330D01*
X164729908Y-71190384D01*
X164729085Y-71189662D01*
X164096205Y-70556782D01*
X164062179Y-70494470D01*
X164059300Y-70467687D01*
X164059300Y-70426468D01*
X164059298Y-70426462D01*
X164023058Y-70291211D01*
X164024748Y-70220235D01*
X164064542Y-70161439D01*
X164129807Y-70133491D01*
X164144765Y-70132600D01*
X167105135Y-70132600D01*
X167173256Y-70152602D01*
X167219749Y-70206258D01*
X167229853Y-70276532D01*
X167226842Y-70291211D01*
X167190602Y-70426462D01*
X167190600Y-70426468D01*
X167190600Y-70573731D01*
X167190599Y-70573731D01*
X167228716Y-70715982D01*
X167302346Y-70843514D01*
X167302354Y-70843524D01*
X167406475Y-70947645D01*
X167406480Y-70947649D01*
X167406482Y-70947651D01*
X167534018Y-71021284D01*
X167676267Y-71059400D01*
X167676269Y-71059400D01*
X167823531Y-71059400D01*
X167823533Y-71059400D01*
X167965782Y-71021284D01*
X168093318Y-70947651D01*
X168105995Y-70934974D01*
X168122465Y-70918505D01*
X168184777Y-70884479D01*
X168211560Y-70881600D01*
X171959787Y-70881600D01*
X172027908Y-70901602D01*
X172048882Y-70918505D01*
X174070682Y-72940305D01*
X174104708Y-73002617D01*
X174099643Y-73073432D01*
X174057096Y-73130268D01*
X173990576Y-73155079D01*
X173981587Y-73155400D01*
X172514736Y-73155400D01*
X172514726Y-73155401D01*
X172440499Y-73170165D01*
X172356315Y-73226416D01*
X172300066Y-73310597D01*
X172285300Y-73384830D01*
X172285300Y-75234963D01*
X172285301Y-75234973D01*
X172300065Y-75309200D01*
X172356316Y-75393384D01*
X172440497Y-75449633D01*
X172440499Y-75449634D01*
X172514733Y-75464400D01*
X174364866Y-75464399D01*
X174364869Y-75464398D01*
X174364873Y-75464398D01*
X174414126Y-75454601D01*
X174439101Y-75449634D01*
X174523284Y-75393384D01*
X174579534Y-75309201D01*
X174586221Y-75275582D01*
X174619128Y-75212673D01*
X174680822Y-75177540D01*
X174751717Y-75181340D01*
X174809304Y-75222865D01*
X174833379Y-75275582D01*
X174840066Y-75309201D01*
X174896316Y-75393384D01*
X174980497Y-75449633D01*
X174980499Y-75449634D01*
X175054733Y-75464400D01*
X176904866Y-75464399D01*
X176904869Y-75464398D01*
X176904873Y-75464398D01*
X176954126Y-75454601D01*
X176979101Y-75449634D01*
X177063284Y-75393384D01*
X177119534Y-75309201D01*
X177126221Y-75275582D01*
X177159128Y-75212673D01*
X177220822Y-75177540D01*
X177291717Y-75181340D01*
X177349304Y-75222865D01*
X177373379Y-75275582D01*
X177380066Y-75309201D01*
X177436316Y-75393384D01*
X177520497Y-75449633D01*
X177520499Y-75449634D01*
X177594733Y-75464400D01*
X179195067Y-75464399D01*
X179263188Y-75484401D01*
X179309681Y-75538057D01*
X179319785Y-75608331D01*
X179304186Y-75653398D01*
X179228716Y-75784115D01*
X179190600Y-75926368D01*
X179190600Y-76073631D01*
X179190599Y-76073631D01*
X179228716Y-76215882D01*
X179302346Y-76343414D01*
X179302354Y-76343424D01*
X179406475Y-76447545D01*
X179406480Y-76447549D01*
X179406482Y-76447551D01*
X179534018Y-76521184D01*
X179676267Y-76559300D01*
X179676269Y-76559300D01*
X179823531Y-76559300D01*
X179823533Y-76559300D01*
X179965782Y-76521184D01*
X180093318Y-76447551D01*
X180093324Y-76447545D01*
X180122465Y-76418405D01*
X180184777Y-76384379D01*
X180211560Y-76381500D01*
X184788887Y-76381500D01*
X184857008Y-76401502D01*
X184877982Y-76418405D01*
X188580695Y-80121117D01*
X188614721Y-80183429D01*
X188617600Y-80210212D01*
X188617600Y-139790331D01*
X188597598Y-139858452D01*
X188580921Y-139879199D01*
X188558147Y-139902089D01*
X188469717Y-139990962D01*
X188407490Y-140025142D01*
X188336662Y-140020254D01*
X188279720Y-139977850D01*
X188254743Y-139911392D01*
X188254399Y-139902112D01*
X188254399Y-138974934D01*
X188254399Y-138974933D01*
X188254398Y-138974926D01*
X188239634Y-138900699D01*
X188206990Y-138851845D01*
X188183384Y-138816516D01*
X188183383Y-138816515D01*
X188099202Y-138760266D01*
X188024967Y-138745500D01*
X186974836Y-138745500D01*
X186974826Y-138745501D01*
X186900599Y-138760265D01*
X186816415Y-138816516D01*
X186760166Y-138900697D01*
X186745400Y-138974930D01*
X186745401Y-139992700D01*
X186725399Y-140060821D01*
X186671743Y-140107314D01*
X186619401Y-140118700D01*
X186558223Y-140118700D01*
X186558178Y-140118697D01*
X186549807Y-140118697D01*
X186549806Y-140118697D01*
X186489536Y-140118700D01*
X186449363Y-140118700D01*
X186449358Y-140118701D01*
X186413013Y-140128441D01*
X186342037Y-140126753D01*
X186283240Y-140086961D01*
X186255290Y-140021697D01*
X186254399Y-140006751D01*
X186254399Y-138974934D01*
X186254399Y-138974933D01*
X186254398Y-138974926D01*
X186239634Y-138900699D01*
X186206990Y-138851845D01*
X186183384Y-138816516D01*
X186183383Y-138816515D01*
X186099202Y-138760266D01*
X186024967Y-138745500D01*
X184974836Y-138745500D01*
X184974826Y-138745501D01*
X184900599Y-138760265D01*
X184816415Y-138816516D01*
X184760166Y-138900697D01*
X184745400Y-138974930D01*
X184745400Y-140025063D01*
X184745401Y-140025073D01*
X184760165Y-140099300D01*
X184816416Y-140183484D01*
X184900597Y-140239733D01*
X184900599Y-140239734D01*
X184974833Y-140254500D01*
X185901610Y-140254499D01*
X185969731Y-140274501D01*
X186016224Y-140328157D01*
X186026328Y-140398431D01*
X185996835Y-140463011D01*
X185990710Y-140469590D01*
X185901718Y-140558591D01*
X185839407Y-140592619D01*
X185812618Y-140595500D01*
X184824836Y-140595500D01*
X184824826Y-140595501D01*
X184750599Y-140610265D01*
X184666415Y-140666516D01*
X184610166Y-140750697D01*
X184595400Y-140824930D01*
X184595400Y-142175063D01*
X184595401Y-142175073D01*
X184610165Y-142249300D01*
X184613639Y-142254499D01*
X184666416Y-142333484D01*
X184750599Y-142389734D01*
X184758832Y-142395235D01*
X184804359Y-142449713D01*
X184813206Y-142520156D01*
X184782565Y-142584200D01*
X184758832Y-142604765D01*
X184666414Y-142666517D01*
X184610166Y-142750697D01*
X184595400Y-142824930D01*
X184595400Y-144175063D01*
X184595401Y-144175073D01*
X184610165Y-144249300D01*
X184613639Y-144254499D01*
X184666416Y-144333484D01*
X184750599Y-144389734D01*
X184758832Y-144395235D01*
X184804359Y-144449713D01*
X184813206Y-144520156D01*
X184782565Y-144584200D01*
X184758832Y-144604765D01*
X184666414Y-144666517D01*
X184610166Y-144750697D01*
X184595400Y-144824930D01*
X184595400Y-146175063D01*
X184595401Y-146175073D01*
X184610165Y-146249300D01*
X184666416Y-146333484D01*
X184750597Y-146389733D01*
X184750599Y-146389734D01*
X184824833Y-146404500D01*
X186174966Y-146404499D01*
X186174969Y-146404498D01*
X186174973Y-146404498D01*
X186224226Y-146394701D01*
X186249201Y-146389734D01*
X186333384Y-146333484D01*
X186389634Y-146249301D01*
X186404400Y-146175067D01*
X186404399Y-144974930D01*
X186745400Y-144974930D01*
X186745400Y-146025063D01*
X186745401Y-146025073D01*
X186760165Y-146099300D01*
X186816416Y-146183484D01*
X186900597Y-146239733D01*
X186900599Y-146239734D01*
X186974833Y-146254500D01*
X188024966Y-146254499D01*
X188024969Y-146254498D01*
X188024973Y-146254498D01*
X188074226Y-146244701D01*
X188099201Y-146239734D01*
X188183384Y-146183484D01*
X188239634Y-146099301D01*
X188254400Y-146025067D01*
X188254399Y-144974934D01*
X188254398Y-144974930D01*
X188254398Y-144974926D01*
X188239634Y-144900699D01*
X188183383Y-144816515D01*
X188099202Y-144760266D01*
X188024967Y-144745500D01*
X186974836Y-144745500D01*
X186974826Y-144745501D01*
X186900599Y-144760265D01*
X186816415Y-144816516D01*
X186760166Y-144900697D01*
X186745400Y-144974930D01*
X186404399Y-144974930D01*
X186404399Y-144824934D01*
X186404398Y-144824930D01*
X186404398Y-144824926D01*
X186389634Y-144750699D01*
X186386160Y-144745500D01*
X186333384Y-144666516D01*
X186333383Y-144666515D01*
X186240967Y-144604763D01*
X186195440Y-144550286D01*
X186186593Y-144479843D01*
X186217234Y-144415799D01*
X186240968Y-144395234D01*
X186249198Y-144389734D01*
X186249201Y-144389734D01*
X186333384Y-144333484D01*
X186389634Y-144249301D01*
X186404400Y-144175067D01*
X186404399Y-142974930D01*
X186745400Y-142974930D01*
X186745400Y-144025063D01*
X186745401Y-144025073D01*
X186760165Y-144099300D01*
X186816416Y-144183484D01*
X186900597Y-144239733D01*
X186900599Y-144239734D01*
X186974833Y-144254500D01*
X188024966Y-144254499D01*
X188024969Y-144254498D01*
X188024973Y-144254498D01*
X188074226Y-144244701D01*
X188099201Y-144239734D01*
X188183384Y-144183484D01*
X188239634Y-144099301D01*
X188254400Y-144025067D01*
X188254399Y-142974934D01*
X188254398Y-142974930D01*
X188254398Y-142974926D01*
X188239634Y-142900699D01*
X188183383Y-142816515D01*
X188099202Y-142760266D01*
X188024967Y-142745500D01*
X186974836Y-142745500D01*
X186974826Y-142745501D01*
X186900599Y-142760265D01*
X186816415Y-142816516D01*
X186760166Y-142900697D01*
X186745400Y-142974930D01*
X186404399Y-142974930D01*
X186404399Y-142824934D01*
X186404398Y-142824930D01*
X186404398Y-142824926D01*
X186389634Y-142750699D01*
X186386160Y-142745500D01*
X186333384Y-142666516D01*
X186333383Y-142666515D01*
X186240967Y-142604763D01*
X186195440Y-142550286D01*
X186186593Y-142479843D01*
X186217234Y-142415799D01*
X186240968Y-142395234D01*
X186249198Y-142389734D01*
X186249201Y-142389734D01*
X186333384Y-142333484D01*
X186389634Y-142249301D01*
X186404400Y-142175067D01*
X186404399Y-141187213D01*
X186424401Y-141119093D01*
X186441304Y-141098119D01*
X186530305Y-141009118D01*
X186592617Y-140975092D01*
X186663432Y-140980157D01*
X186720268Y-141022704D01*
X186745079Y-141089224D01*
X186745400Y-141098213D01*
X186745400Y-142025063D01*
X186745401Y-142025073D01*
X186760165Y-142099300D01*
X186816416Y-142183484D01*
X186900597Y-142239733D01*
X186900599Y-142239734D01*
X186974833Y-142254500D01*
X188024966Y-142254499D01*
X188024969Y-142254498D01*
X188024973Y-142254498D01*
X188074226Y-142244701D01*
X188099201Y-142239734D01*
X188183384Y-142183484D01*
X188239634Y-142099301D01*
X188254400Y-142025067D01*
X188254399Y-141007699D01*
X188255746Y-141003109D01*
X188254740Y-140998430D01*
X188265655Y-140969363D01*
X188274401Y-140939579D01*
X188278017Y-140936445D01*
X188279700Y-140931965D01*
X188304594Y-140913415D01*
X188328057Y-140893086D01*
X188333857Y-140891612D01*
X188336631Y-140889546D01*
X188354843Y-140886281D01*
X188371692Y-140882001D01*
X188376037Y-140881700D01*
X188451459Y-140881700D01*
X188451930Y-140881825D01*
X188452049Y-140881824D01*
X188452069Y-140881830D01*
X188501911Y-140881700D01*
X188551425Y-140881700D01*
X188551525Y-140881700D01*
X188551995Y-140881573D01*
X188552380Y-140881573D01*
X188552397Y-140881568D01*
X188552519Y-140881568D01*
X188600627Y-140868542D01*
X188648554Y-140855701D01*
X188648564Y-140855695D01*
X188649338Y-140855374D01*
X188649413Y-140855343D01*
X188649466Y-140855320D01*
X188649478Y-140855317D01*
X188683077Y-140835800D01*
X188692173Y-140830518D01*
X188692460Y-140830352D01*
X188735545Y-140805477D01*
X188735544Y-140805477D01*
X188735547Y-140805476D01*
X188735549Y-140805473D01*
X188735816Y-140805269D01*
X188735953Y-140805163D01*
X188736334Y-140804868D01*
X188736341Y-140804865D01*
X188771378Y-140769644D01*
X188806576Y-140734447D01*
X188806577Y-140734444D01*
X188811443Y-140729579D01*
X188812948Y-140727855D01*
X189269181Y-140269241D01*
X189304376Y-140234047D01*
X189304619Y-140233625D01*
X189304961Y-140233282D01*
X189304970Y-140233265D01*
X189304985Y-140233251D01*
X189329755Y-140190088D01*
X189354601Y-140147054D01*
X189354727Y-140146583D01*
X189354969Y-140146162D01*
X189354973Y-140146145D01*
X189354984Y-140146127D01*
X189367787Y-140097842D01*
X189380600Y-140050025D01*
X189380600Y-140049540D01*
X189380725Y-140049069D01*
X189380724Y-140049051D01*
X189380730Y-140049032D01*
X189380600Y-139999190D01*
X189380600Y-80001739D01*
X189380616Y-79949894D01*
X189380614Y-79949889D01*
X189380600Y-79949774D01*
X189368067Y-79903005D01*
X189368067Y-79903004D01*
X189354648Y-79852858D01*
X189354645Y-79852852D01*
X189354644Y-79852849D01*
X189354601Y-79852747D01*
X189354601Y-79852746D01*
X189329505Y-79809280D01*
X189329495Y-79809239D01*
X189329486Y-79809245D01*
X189304451Y-79765852D01*
X189304375Y-79765752D01*
X189267687Y-79729064D01*
X189267668Y-79729030D01*
X189267661Y-79729038D01*
X185235442Y-75694298D01*
X185235438Y-75694296D01*
X185235434Y-75694292D01*
X185148466Y-75644045D01*
X185051445Y-75618015D01*
X184946736Y-75617982D01*
X184938824Y-75618500D01*
X182221740Y-75618500D01*
X182153619Y-75598498D01*
X182107126Y-75544842D01*
X182097022Y-75474568D01*
X182126516Y-75409988D01*
X182134922Y-75402571D01*
X182134510Y-75402159D01*
X182143283Y-75393385D01*
X182143285Y-75393383D01*
X182199534Y-75309201D01*
X182214300Y-75234967D01*
X182214299Y-73384834D01*
X182214298Y-73384830D01*
X182214298Y-73384826D01*
X182199534Y-73310599D01*
X182199532Y-73310596D01*
X182143284Y-73226416D01*
X182143283Y-73226415D01*
X182059102Y-73170166D01*
X181984867Y-73155400D01*
X180134736Y-73155400D01*
X180134726Y-73155401D01*
X180060499Y-73170165D01*
X179976315Y-73226416D01*
X179920066Y-73310596D01*
X179913378Y-73344219D01*
X179880469Y-73407129D01*
X179818773Y-73442259D01*
X179747879Y-73438458D01*
X179690293Y-73396932D01*
X179666220Y-73344215D01*
X179659534Y-73310599D01*
X179659532Y-73310596D01*
X179603284Y-73226416D01*
X179603283Y-73226415D01*
X179519102Y-73170166D01*
X179444867Y-73155400D01*
X177594736Y-73155400D01*
X177594726Y-73155401D01*
X177520499Y-73170165D01*
X177436315Y-73226416D01*
X177380066Y-73310596D01*
X177373378Y-73344219D01*
X177340469Y-73407129D01*
X177278773Y-73442259D01*
X177207879Y-73438458D01*
X177150293Y-73396932D01*
X177126220Y-73344215D01*
X177119534Y-73310599D01*
X177119532Y-73310596D01*
X177063284Y-73226416D01*
X177063283Y-73226415D01*
X176979102Y-73170166D01*
X176904869Y-73155400D01*
X176904867Y-73155400D01*
X175417013Y-73155400D01*
X175348892Y-73135398D01*
X175327918Y-73118495D01*
X172557119Y-70347695D01*
X172523093Y-70285383D01*
X172528158Y-70214567D01*
X172570705Y-70157732D01*
X172637225Y-70132921D01*
X172646214Y-70132600D01*
X175508523Y-70132600D01*
X175508525Y-70132600D01*
X175605554Y-70106601D01*
X175605557Y-70106599D01*
X175605558Y-70106599D01*
X175649050Y-70081488D01*
X175692547Y-70056376D01*
X175763576Y-69985347D01*
X175781296Y-69967627D01*
X175781298Y-69967623D01*
X177867617Y-67881303D01*
X177929929Y-67847278D01*
X177956712Y-67844399D01*
X179444864Y-67844399D01*
X179444866Y-67844399D01*
X179444869Y-67844398D01*
X179444872Y-67844398D01*
X179481463Y-67837119D01*
X179519101Y-67829634D01*
X179603284Y-67773384D01*
X179659534Y-67689201D01*
X179666221Y-67655582D01*
X179699128Y-67592673D01*
X179760822Y-67557540D01*
X179831717Y-67561340D01*
X179889304Y-67602865D01*
X179913379Y-67655582D01*
X179920066Y-67689201D01*
X179976316Y-67773384D01*
X180060497Y-67829633D01*
X180060499Y-67829634D01*
X180134733Y-67844400D01*
X181984866Y-67844399D01*
X181984869Y-67844398D01*
X181984873Y-67844398D01*
X182034126Y-67834601D01*
X182059101Y-67829634D01*
X182143284Y-67773384D01*
X182199534Y-67689201D01*
X182214300Y-67614967D01*
X182214299Y-65764834D01*
X182214298Y-65764830D01*
X182214298Y-65764826D01*
X182199534Y-65690599D01*
X182176346Y-65655896D01*
X182143284Y-65606416D01*
X182143283Y-65606415D01*
X182059102Y-65550166D01*
X181984867Y-65535400D01*
X180134736Y-65535400D01*
X180134726Y-65535401D01*
X180060499Y-65550165D01*
X179976315Y-65606416D01*
X179920066Y-65690596D01*
X179913378Y-65724219D01*
X179880469Y-65787129D01*
X179818773Y-65822259D01*
X179747879Y-65818458D01*
X179690293Y-65776932D01*
X179666220Y-65724215D01*
X179659534Y-65690599D01*
X179636346Y-65655896D01*
X179603284Y-65606416D01*
X179603283Y-65606415D01*
X179519102Y-65550166D01*
X179444867Y-65535400D01*
X177594736Y-65535400D01*
X177594726Y-65535401D01*
X177520499Y-65550165D01*
X177436315Y-65606416D01*
X177380066Y-65690596D01*
X177373378Y-65724219D01*
X177340469Y-65787129D01*
X177278773Y-65822259D01*
X177207879Y-65818458D01*
X177150293Y-65776932D01*
X177126220Y-65724215D01*
X177119534Y-65690599D01*
X177096346Y-65655896D01*
X177063284Y-65606416D01*
X177063283Y-65606415D01*
X176979102Y-65550166D01*
X176904867Y-65535400D01*
X175054736Y-65535400D01*
X175054726Y-65535401D01*
X174980499Y-65550165D01*
X174896315Y-65606416D01*
X174840066Y-65690597D01*
X174825300Y-65764830D01*
X174825300Y-67614963D01*
X174825301Y-67614973D01*
X174840065Y-67689200D01*
X174896316Y-67773384D01*
X174980497Y-67829633D01*
X174980499Y-67829634D01*
X175054733Y-67844400D01*
X176521287Y-67844399D01*
X176589408Y-67864401D01*
X176635901Y-67918057D01*
X176646005Y-67988331D01*
X176616512Y-68052911D01*
X176610382Y-68059494D01*
X175337182Y-69332695D01*
X175274870Y-69366720D01*
X175248087Y-69369600D01*
X150104957Y-69369600D01*
X150036836Y-69349598D01*
X149990343Y-69295942D01*
X149980239Y-69225668D01*
X150009733Y-69161088D01*
X150015863Y-69154503D01*
X151133264Y-68037131D01*
X151389099Y-67781301D01*
X151451411Y-67747278D01*
X151478193Y-67744399D01*
X152765064Y-67744399D01*
X152765066Y-67744399D01*
X152765069Y-67744398D01*
X152765072Y-67744398D01*
X152801663Y-67737119D01*
X152839301Y-67729634D01*
X152923484Y-67673384D01*
X152979734Y-67589201D01*
X152994500Y-67514967D01*
X152994499Y-65864834D01*
X152994499Y-65864833D01*
X152994499Y-65864831D01*
X152994499Y-65864830D01*
X153425500Y-65864830D01*
X153425500Y-67514963D01*
X153425501Y-67514973D01*
X153440265Y-67589200D01*
X153496516Y-67673384D01*
X153580697Y-67729633D01*
X153580699Y-67729634D01*
X153654933Y-67744400D01*
X155305066Y-67744399D01*
X155305069Y-67744398D01*
X155305073Y-67744398D01*
X155354326Y-67734601D01*
X155379301Y-67729634D01*
X155463484Y-67673384D01*
X155519734Y-67589201D01*
X155534500Y-67514967D01*
X155534499Y-65864834D01*
X155534499Y-65864833D01*
X155534499Y-65864831D01*
X155534499Y-65864830D01*
X155965500Y-65864830D01*
X155965500Y-67514963D01*
X155965501Y-67514973D01*
X155980265Y-67589200D01*
X156036516Y-67673384D01*
X156120697Y-67729633D01*
X156120699Y-67729634D01*
X156194933Y-67744400D01*
X157845066Y-67744399D01*
X157845069Y-67744398D01*
X157845073Y-67744398D01*
X157894326Y-67734601D01*
X157919301Y-67729634D01*
X158003484Y-67673384D01*
X158059734Y-67589201D01*
X158074500Y-67514967D01*
X158074499Y-65864834D01*
X158074499Y-65864833D01*
X158074499Y-65864831D01*
X158074499Y-65864830D01*
X158505500Y-65864830D01*
X158505500Y-67514963D01*
X158505501Y-67514973D01*
X158520265Y-67589200D01*
X158576516Y-67673384D01*
X158660697Y-67729633D01*
X158660699Y-67729634D01*
X158734933Y-67744400D01*
X160385066Y-67744399D01*
X160385069Y-67744398D01*
X160385073Y-67744398D01*
X160434326Y-67734601D01*
X160459301Y-67729634D01*
X160543484Y-67673384D01*
X160599734Y-67589201D01*
X160614500Y-67514967D01*
X160614499Y-65864834D01*
X160614498Y-65864831D01*
X160614498Y-65864826D01*
X160599734Y-65790599D01*
X160582513Y-65764826D01*
X160543484Y-65706416D01*
X160543483Y-65706415D01*
X160459302Y-65650166D01*
X160385067Y-65635400D01*
X158734936Y-65635400D01*
X158734926Y-65635401D01*
X158660699Y-65650165D01*
X158576515Y-65706416D01*
X158520266Y-65790597D01*
X158505500Y-65864830D01*
X158074499Y-65864830D01*
X158059734Y-65790599D01*
X158042513Y-65764826D01*
X158003484Y-65706416D01*
X158003483Y-65706415D01*
X157919302Y-65650166D01*
X157845067Y-65635400D01*
X156194936Y-65635400D01*
X156194926Y-65635401D01*
X156120699Y-65650165D01*
X156036515Y-65706416D01*
X155980266Y-65790597D01*
X155965500Y-65864830D01*
X155534499Y-65864830D01*
X155519734Y-65790599D01*
X155502513Y-65764826D01*
X155463484Y-65706416D01*
X155463483Y-65706415D01*
X155379302Y-65650166D01*
X155305067Y-65635400D01*
X153654936Y-65635400D01*
X153654926Y-65635401D01*
X153580699Y-65650165D01*
X153496515Y-65706416D01*
X153440266Y-65790597D01*
X153425500Y-65864830D01*
X152994499Y-65864830D01*
X152979734Y-65790599D01*
X152962513Y-65764826D01*
X152923484Y-65706416D01*
X152923483Y-65706415D01*
X152839302Y-65650166D01*
X152765067Y-65635400D01*
X151114936Y-65635400D01*
X151114926Y-65635401D01*
X151040699Y-65650165D01*
X150956515Y-65706416D01*
X150900266Y-65790597D01*
X150885500Y-65864830D01*
X150885500Y-67153664D01*
X150865498Y-67221785D01*
X150848594Y-67242761D01*
X150669593Y-67421756D01*
X150607280Y-67455780D01*
X150536465Y-67450714D01*
X150479630Y-67408166D01*
X150454820Y-67341646D01*
X150454499Y-67332683D01*
X150454499Y-65864834D01*
X150454498Y-65864831D01*
X150454498Y-65864826D01*
X150439734Y-65790599D01*
X150422513Y-65764826D01*
X150383484Y-65706416D01*
X150383483Y-65706415D01*
X150299302Y-65650166D01*
X150225067Y-65635400D01*
X148574936Y-65635400D01*
X148574926Y-65635401D01*
X148500699Y-65650165D01*
X148416515Y-65706416D01*
X148360266Y-65790597D01*
X148345500Y-65864830D01*
X148345500Y-67514963D01*
X148345501Y-67514973D01*
X148360265Y-67589200D01*
X148416516Y-67673384D01*
X148500697Y-67729633D01*
X148500699Y-67729634D01*
X148574933Y-67744400D01*
X150042746Y-67744399D01*
X150110867Y-67764401D01*
X150157360Y-67818057D01*
X150167464Y-67888331D01*
X150137971Y-67952911D01*
X150131840Y-67959496D01*
X148491795Y-69599500D01*
X147858558Y-70232721D01*
X147759471Y-70331805D01*
X147748234Y-70343042D01*
X147748234Y-70343043D01*
X147695627Y-70395649D01*
X147695625Y-70395651D01*
X147695623Y-70395653D01*
X147695115Y-70396359D01*
X147693722Y-70398947D01*
X147692825Y-70400498D01*
X147692826Y-70400499D01*
X147645399Y-70482643D01*
X147619400Y-70579667D01*
X147619399Y-70579669D01*
X147619399Y-70690269D01*
X147619400Y-70690282D01*
X147619400Y-73129400D01*
X147599398Y-73197521D01*
X147545742Y-73244014D01*
X147493400Y-73255400D01*
X146034936Y-73255400D01*
X146034926Y-73255401D01*
X145960699Y-73270165D01*
X145876515Y-73326416D01*
X145820266Y-73410597D01*
X145805500Y-73484830D01*
X145805500Y-75134963D01*
X145805501Y-75134973D01*
X145820265Y-75209200D01*
X145876516Y-75293384D01*
X145960697Y-75349633D01*
X145960699Y-75349634D01*
X146034933Y-75364400D01*
X147493400Y-75364399D01*
X147561521Y-75384401D01*
X147608014Y-75438057D01*
X147619400Y-75490399D01*
X147619400Y-103289714D01*
X147599398Y-103357835D01*
X147582474Y-103378831D01*
X146722393Y-104238500D01*
X142886446Y-108072608D01*
X142878633Y-108080417D01*
X142816313Y-108114427D01*
X142789559Y-108117300D01*
X125549325Y-108117300D01*
X125448875Y-108117300D01*
X125440508Y-108119542D01*
X125351842Y-108143299D01*
X125264856Y-108193521D01*
X125264846Y-108193529D01*
X118686694Y-114771683D01*
X116514553Y-116943824D01*
X116479039Y-116979338D01*
X116443525Y-117014851D01*
X116443521Y-117014856D01*
X116393300Y-117101841D01*
X116367300Y-117198876D01*
X116367300Y-131727542D01*
X116367298Y-131800130D01*
X100500500Y-131800130D01*
X100500500Y-115760200D01*
X100520502Y-115692079D01*
X100574158Y-115645586D01*
X100626500Y-115634200D01*
X102999887Y-115634200D01*
X103062478Y-115634201D01*
X103062483Y-115634200D01*
X103062491Y-115634200D01*
X103108079Y-115625131D01*
X103123342Y-115622096D01*
X103123345Y-115622095D01*
X103185257Y-115609782D01*
X103185259Y-115609780D01*
X103185468Y-115609739D01*
X103187365Y-115608993D01*
X103190082Y-115607977D01*
X103192618Y-115606734D01*
X103199556Y-115603860D01*
X103241377Y-115586536D01*
X103241380Y-115586536D01*
X103241380Y-115586535D01*
X103241381Y-115586535D01*
X103299022Y-115562660D01*
X103301132Y-115561828D01*
X103301176Y-115561805D01*
X103303700Y-115560016D01*
X103365409Y-115518784D01*
X103401371Y-115494756D01*
X103404582Y-115492769D01*
X103406301Y-115491097D01*
X103409710Y-115487869D01*
X103411318Y-115486014D01*
X103431812Y-115465519D01*
X103455248Y-115442085D01*
X103455248Y-115442084D01*
X103497903Y-115399431D01*
X105899344Y-112998084D01*
X105899367Y-112998065D01*
X105904405Y-112993026D01*
X105904408Y-112993025D01*
X105967787Y-112929645D01*
X105967788Y-112929645D01*
X105980354Y-112917079D01*
X105988892Y-112908540D01*
X105991346Y-112906300D01*
X105992766Y-112904802D01*
X105994258Y-112902655D01*
X105995879Y-112900405D01*
X105997302Y-112897956D01*
X106034325Y-112842547D01*
X106059492Y-112804884D01*
X106061536Y-112802092D01*
X106062664Y-112800299D01*
X106062792Y-112800015D01*
X106064164Y-112796337D01*
X106082724Y-112751531D01*
X106108026Y-112690449D01*
X106110224Y-112685804D01*
X106111101Y-112681905D01*
X106111560Y-112678823D01*
X106117861Y-112647146D01*
X106134799Y-112562003D01*
X106134799Y-112561996D01*
X106134800Y-112561991D01*
X106134800Y-112520276D01*
X106134802Y-112436822D01*
X106134800Y-112436816D01*
X106134801Y-112431178D01*
X106134800Y-112431132D01*
X106134800Y-107435510D01*
X106134799Y-107435506D01*
X106134541Y-107434209D01*
X106110378Y-107312731D01*
X106062473Y-107197078D01*
X105992925Y-107092992D01*
X105904408Y-107004475D01*
X103407608Y-104507675D01*
X103303522Y-104438127D01*
X103187869Y-104390222D01*
X103065093Y-104365800D01*
X103065091Y-104365800D01*
X100626500Y-104365800D01*
X100558379Y-104345798D01*
X100511886Y-104292142D01*
X100500500Y-104239800D01*
X100500500Y-86713030D01*
X110483600Y-86713030D01*
X110483600Y-88287163D01*
X110483601Y-88287173D01*
X110498365Y-88361400D01*
X110554616Y-88445584D01*
X110638797Y-88501833D01*
X110638799Y-88501834D01*
X110713033Y-88516600D01*
X112287166Y-88516599D01*
X112287169Y-88516598D01*
X112287173Y-88516598D01*
X112336426Y-88506801D01*
X112361401Y-88501834D01*
X112445584Y-88445584D01*
X112501834Y-88361401D01*
X112516600Y-88287167D01*
X112516599Y-86713034D01*
X112516598Y-86713030D01*
X112516598Y-86713026D01*
X112501834Y-86638799D01*
X112445582Y-86554613D01*
X112436810Y-86545841D01*
X112438642Y-86544008D01*
X112404412Y-86503039D01*
X112395572Y-86432595D01*
X112426220Y-86368554D01*
X112430833Y-86363688D01*
X113880045Y-84914476D01*
X113942355Y-84880452D01*
X114013170Y-84885517D01*
X114070006Y-84928064D01*
X114094817Y-84994584D01*
X114085549Y-85051786D01*
X114083509Y-85056710D01*
X114083508Y-85056714D01*
X114049400Y-85184008D01*
X114049400Y-99183908D01*
X114049400Y-99315692D01*
X114049427Y-99315792D01*
X114083507Y-99442983D01*
X114083510Y-99442990D01*
X114149397Y-99557110D01*
X114149405Y-99557120D01*
X114242579Y-99650294D01*
X114242584Y-99650298D01*
X114242586Y-99650300D01*
X114242587Y-99650301D01*
X114242589Y-99650302D01*
X114322806Y-99696615D01*
X114356714Y-99716192D01*
X114484008Y-99750300D01*
X114484010Y-99750300D01*
X127615790Y-99750300D01*
X127615792Y-99750300D01*
X127743086Y-99716192D01*
X127857214Y-99650300D01*
X127950400Y-99557114D01*
X128016292Y-99442986D01*
X128050400Y-99315692D01*
X128050400Y-86713030D01*
X129983400Y-86713030D01*
X129983400Y-88287163D01*
X129983401Y-88287173D01*
X129998165Y-88361400D01*
X130054416Y-88445584D01*
X130138597Y-88501833D01*
X130138599Y-88501834D01*
X130212833Y-88516600D01*
X131786966Y-88516599D01*
X131786969Y-88516598D01*
X131786973Y-88516598D01*
X131836226Y-88506801D01*
X131861201Y-88501834D01*
X131945384Y-88445584D01*
X132001634Y-88361401D01*
X132016400Y-88287167D01*
X132016399Y-86713034D01*
X132016398Y-86713030D01*
X132016398Y-86713026D01*
X132001634Y-86638799D01*
X132001633Y-86638797D01*
X131945384Y-86554616D01*
X131945380Y-86554613D01*
X131861202Y-86498366D01*
X131786969Y-86483600D01*
X131786967Y-86483600D01*
X131615020Y-86483600D01*
X131546899Y-86463598D01*
X131500406Y-86409942D01*
X131490302Y-86339668D01*
X131519796Y-86275088D01*
X131525926Y-86268503D01*
X132469853Y-85324600D01*
X133299495Y-85324600D01*
X133299500Y-85324671D01*
X133299500Y-99184008D01*
X133299500Y-99315792D01*
X133324467Y-99408973D01*
X133333607Y-99443083D01*
X133333610Y-99443090D01*
X133399497Y-99557210D01*
X133399505Y-99557220D01*
X133492679Y-99650394D01*
X133492684Y-99650398D01*
X133492686Y-99650400D01*
X133606814Y-99716292D01*
X133734108Y-99750400D01*
X133734110Y-99750400D01*
X146865790Y-99750400D01*
X146865792Y-99750400D01*
X146993086Y-99716292D01*
X147107214Y-99650400D01*
X147200400Y-99557214D01*
X147266292Y-99443086D01*
X147300400Y-99315792D01*
X147300400Y-85250831D01*
X147300404Y-85184939D01*
X147300400Y-85184924D01*
X147300400Y-85184908D01*
X147283200Y-85120718D01*
X147266304Y-85057643D01*
X147266296Y-85057629D01*
X147266292Y-85057614D01*
X147232735Y-84999492D01*
X147200419Y-84943511D01*
X147200408Y-84943500D01*
X147200400Y-84943486D01*
X147153829Y-84896915D01*
X147107239Y-84850319D01*
X147107224Y-84850310D01*
X147107214Y-84850300D01*
X147051261Y-84817995D01*
X147041021Y-84812082D01*
X146993103Y-84784412D01*
X146939453Y-84770037D01*
X146930041Y-84767515D01*
X146930037Y-84767514D01*
X146930035Y-84767513D01*
X146893019Y-84757592D01*
X146865823Y-84750304D01*
X146865821Y-84750303D01*
X146865807Y-84750300D01*
X146865792Y-84750300D01*
X146800815Y-84750300D01*
X133874139Y-84749504D01*
X133874071Y-84749500D01*
X133865892Y-84749500D01*
X133799147Y-84749500D01*
X133799142Y-84749499D01*
X133734138Y-84749495D01*
X133734111Y-84749499D01*
X133669923Y-84766697D01*
X133669919Y-84766698D01*
X133606828Y-84783599D01*
X133548691Y-84817164D01*
X133548687Y-84817167D01*
X133492694Y-84849490D01*
X133446120Y-84896065D01*
X133446114Y-84896072D01*
X133399509Y-84942669D01*
X133382014Y-84972970D01*
X133367195Y-84998638D01*
X133333670Y-85056699D01*
X133333612Y-85056799D01*
X133316716Y-85119853D01*
X133316715Y-85119858D01*
X133299500Y-85184090D01*
X133299500Y-85249977D01*
X133299495Y-85324600D01*
X132469853Y-85324600D01*
X132558916Y-85235539D01*
X134414999Y-83379502D01*
X134477311Y-83345478D01*
X134504093Y-83342599D01*
X135715864Y-83342599D01*
X135715866Y-83342599D01*
X135715869Y-83342598D01*
X135715872Y-83342598D01*
X135752463Y-83335319D01*
X135790101Y-83327834D01*
X135874284Y-83271584D01*
X135930534Y-83187401D01*
X135945300Y-83113167D01*
X135945299Y-81539034D01*
X135945299Y-81539033D01*
X135945299Y-81539031D01*
X135945299Y-81539030D01*
X144072300Y-81539030D01*
X144072300Y-83113163D01*
X144072301Y-83113173D01*
X144087065Y-83187400D01*
X144143316Y-83271584D01*
X144227497Y-83327833D01*
X144227499Y-83327834D01*
X144301733Y-83342600D01*
X145875866Y-83342599D01*
X145875869Y-83342598D01*
X145875873Y-83342598D01*
X145925126Y-83332801D01*
X145950101Y-83327834D01*
X146034284Y-83271584D01*
X146090534Y-83187401D01*
X146105300Y-83113167D01*
X146105299Y-81539034D01*
X146105298Y-81539031D01*
X146105298Y-81539026D01*
X146090534Y-81464799D01*
X146043560Y-81394499D01*
X146034284Y-81380616D01*
X146034283Y-81380615D01*
X145950102Y-81324366D01*
X145875867Y-81309600D01*
X144301736Y-81309600D01*
X144301726Y-81309601D01*
X144227499Y-81324365D01*
X144143315Y-81380616D01*
X144087066Y-81464797D01*
X144072300Y-81539030D01*
X135945299Y-81539030D01*
X135930534Y-81464799D01*
X135883560Y-81394499D01*
X135874284Y-81380616D01*
X135874283Y-81380615D01*
X135790102Y-81324366D01*
X135715869Y-81309600D01*
X135715867Y-81309600D01*
X134400673Y-81309600D01*
X134332552Y-81289598D01*
X134311574Y-81272692D01*
X133918501Y-80879589D01*
X133884478Y-80817276D01*
X133881600Y-80790497D01*
X133881600Y-75490143D01*
X133901602Y-75422022D01*
X133955258Y-75375529D01*
X134019955Y-75364750D01*
X134025519Y-75365297D01*
X134025533Y-75365300D01*
X135675666Y-75365299D01*
X135675669Y-75365298D01*
X135675673Y-75365298D01*
X135743626Y-75351782D01*
X135749901Y-75350534D01*
X135834084Y-75294284D01*
X135890334Y-75210101D01*
X135905100Y-75135867D01*
X135905099Y-73485734D01*
X135905099Y-73485733D01*
X135905099Y-73485731D01*
X135905099Y-73485730D01*
X136336100Y-73485730D01*
X136336100Y-75135863D01*
X136336101Y-75135873D01*
X136350865Y-75210100D01*
X136407116Y-75294284D01*
X136491297Y-75350533D01*
X136491299Y-75350534D01*
X136565533Y-75365300D01*
X138215666Y-75365299D01*
X138215669Y-75365298D01*
X138215673Y-75365298D01*
X138283626Y-75351782D01*
X138289901Y-75350534D01*
X138374084Y-75294284D01*
X138430334Y-75210101D01*
X138445100Y-75135867D01*
X138445099Y-73485734D01*
X138445098Y-73485731D01*
X138445098Y-73485726D01*
X138430334Y-73411499D01*
X138427414Y-73407129D01*
X138374084Y-73327316D01*
X138374083Y-73327315D01*
X138289902Y-73271066D01*
X138215667Y-73256300D01*
X136565536Y-73256300D01*
X136565526Y-73256301D01*
X136491299Y-73271065D01*
X136407115Y-73327316D01*
X136350866Y-73411497D01*
X136336100Y-73485730D01*
X135905099Y-73485730D01*
X135890334Y-73411499D01*
X135887414Y-73407129D01*
X135834084Y-73327316D01*
X135834083Y-73327315D01*
X135749902Y-73271066D01*
X135675667Y-73256300D01*
X134025530Y-73256300D01*
X134019943Y-73256851D01*
X133950190Y-73243618D01*
X133898665Y-73194775D01*
X133881600Y-73131457D01*
X133881600Y-72175030D01*
X142190200Y-72175030D01*
X142190200Y-73749163D01*
X142190201Y-73749173D01*
X142204965Y-73823400D01*
X142261216Y-73907584D01*
X142345397Y-73963833D01*
X142345399Y-73963834D01*
X142419633Y-73978600D01*
X143993766Y-73978599D01*
X143993769Y-73978598D01*
X143993773Y-73978598D01*
X144043026Y-73968801D01*
X144068001Y-73963834D01*
X144152184Y-73907584D01*
X144208434Y-73823401D01*
X144223200Y-73749167D01*
X144223199Y-72175034D01*
X144223198Y-72175030D01*
X144223198Y-72175026D01*
X144208434Y-72100799D01*
X144152183Y-72016615D01*
X144068002Y-71960366D01*
X143993767Y-71945600D01*
X142419636Y-71945600D01*
X142419626Y-71945601D01*
X142345399Y-71960365D01*
X142261215Y-72016616D01*
X142204966Y-72100797D01*
X142190200Y-72175030D01*
X133881600Y-72175030D01*
X133881600Y-67938100D01*
X133881601Y-67938071D01*
X133881600Y-67929313D01*
X133881602Y-67929309D01*
X133881600Y-67879084D01*
X133881600Y-67870143D01*
X133901602Y-67802022D01*
X133955258Y-67755529D01*
X134019955Y-67744750D01*
X134025519Y-67745297D01*
X134025533Y-67745300D01*
X135675666Y-67745299D01*
X135675669Y-67745298D01*
X135675673Y-67745298D01*
X135724926Y-67735501D01*
X135749901Y-67730534D01*
X135834084Y-67674284D01*
X135890334Y-67590101D01*
X135905100Y-67515867D01*
X135905099Y-65865734D01*
X135905099Y-65865733D01*
X135905099Y-65865731D01*
X135905099Y-65865730D01*
X136336100Y-65865730D01*
X136336100Y-67515863D01*
X136336101Y-67515873D01*
X136350865Y-67590100D01*
X136407116Y-67674284D01*
X136491297Y-67730533D01*
X136491299Y-67730534D01*
X136565533Y-67745300D01*
X138215666Y-67745299D01*
X138215669Y-67745298D01*
X138215673Y-67745298D01*
X138264926Y-67735501D01*
X138289901Y-67730534D01*
X138374084Y-67674284D01*
X138430334Y-67590101D01*
X138445100Y-67515867D01*
X138445099Y-65865734D01*
X138445098Y-65865731D01*
X138445098Y-65865726D01*
X138430334Y-65791499D01*
X138422335Y-65779528D01*
X138374084Y-65707316D01*
X138372899Y-65706524D01*
X138289902Y-65651066D01*
X138215667Y-65636300D01*
X136565536Y-65636300D01*
X136565526Y-65636301D01*
X136491299Y-65651065D01*
X136407115Y-65707316D01*
X136350866Y-65791497D01*
X136336100Y-65865730D01*
X135905099Y-65865730D01*
X135895696Y-65818458D01*
X135890334Y-65791499D01*
X135890332Y-65791496D01*
X135885585Y-65780033D01*
X135886802Y-65779528D01*
X135869525Y-65724364D01*
X135888303Y-65655896D01*
X135906406Y-65633015D01*
X137621017Y-63918405D01*
X137683329Y-63884379D01*
X137710112Y-63881500D01*
X161239887Y-63881500D01*
X161308008Y-63901502D01*
X161328982Y-63918405D01*
X162830882Y-65420305D01*
X162864908Y-65482617D01*
X162859843Y-65553432D01*
X162817296Y-65610268D01*
X162750776Y-65635079D01*
X162741787Y-65635400D01*
X161274936Y-65635400D01*
X161274926Y-65635401D01*
X161200699Y-65650165D01*
X161116515Y-65706416D01*
X161060266Y-65790597D01*
X161045500Y-65864830D01*
X161045500Y-67514963D01*
X161045501Y-67514973D01*
X161060265Y-67589200D01*
X161116516Y-67673384D01*
X161200697Y-67729633D01*
X161200699Y-67729634D01*
X161274933Y-67744400D01*
X162925066Y-67744399D01*
X162925069Y-67744398D01*
X162925073Y-67744398D01*
X162974326Y-67734601D01*
X162999301Y-67729634D01*
X163083484Y-67673384D01*
X163139734Y-67589201D01*
X163154500Y-67514967D01*
X163154499Y-66048111D01*
X163174501Y-65979991D01*
X163228157Y-65933498D01*
X163298431Y-65923394D01*
X163363011Y-65952887D01*
X163369594Y-65959017D01*
X163548595Y-66138018D01*
X163582621Y-66200330D01*
X163585500Y-66227113D01*
X163585500Y-67514963D01*
X163585501Y-67514973D01*
X163600265Y-67589200D01*
X163656516Y-67673384D01*
X163740697Y-67729633D01*
X163740699Y-67729634D01*
X163814933Y-67744400D01*
X165465066Y-67744399D01*
X165465069Y-67744398D01*
X165465073Y-67744398D01*
X165514326Y-67734601D01*
X165539301Y-67729634D01*
X165623484Y-67673384D01*
X165679734Y-67589201D01*
X165694500Y-67514967D01*
X165694499Y-65864834D01*
X165694498Y-65864831D01*
X165694498Y-65864826D01*
X165679734Y-65790599D01*
X165662513Y-65764826D01*
X165623484Y-65706416D01*
X165623483Y-65706415D01*
X165539302Y-65650166D01*
X165465069Y-65635400D01*
X165465067Y-65635400D01*
X164177213Y-65635400D01*
X164109092Y-65615398D01*
X164088118Y-65598495D01*
X161684353Y-63194729D01*
X161684343Y-63194721D01*
X161597358Y-63144500D01*
X161585892Y-63141427D01*
X161500325Y-63118500D01*
X137449675Y-63118500D01*
X137390290Y-63134412D01*
X137352641Y-63144500D01*
X137265656Y-63194721D01*
X137265651Y-63194725D01*
X137230138Y-63230239D01*
X137194624Y-63265753D01*
X137194622Y-63265755D01*
X134860980Y-65599395D01*
X134798668Y-65633421D01*
X134771885Y-65636300D01*
X134025536Y-65636300D01*
X134025526Y-65636301D01*
X133951299Y-65651065D01*
X133867115Y-65707316D01*
X133810866Y-65791497D01*
X133796100Y-65865730D01*
X133796100Y-67331402D01*
X133776098Y-67399523D01*
X133722442Y-67446016D01*
X133652168Y-67456120D01*
X133587588Y-67426626D01*
X133581008Y-67420501D01*
X133402007Y-67241514D01*
X133367980Y-67179203D01*
X133365099Y-67152415D01*
X133365099Y-65865736D01*
X133365098Y-65865727D01*
X133350334Y-65791499D01*
X133342335Y-65779528D01*
X133294084Y-65707316D01*
X133292899Y-65706524D01*
X133209902Y-65651066D01*
X133135667Y-65636300D01*
X131485536Y-65636300D01*
X131485526Y-65636301D01*
X131411299Y-65651065D01*
X131327115Y-65707316D01*
X131270866Y-65791497D01*
X131256100Y-65865730D01*
X131256100Y-67515863D01*
X131256101Y-67515873D01*
X131270865Y-67590100D01*
X131327116Y-67674284D01*
X131411297Y-67730533D01*
X131411299Y-67730534D01*
X131485533Y-67745300D01*
X132774555Y-67745299D01*
X132842676Y-67765301D01*
X132863642Y-67782196D01*
X133081692Y-68000226D01*
X133115719Y-68062535D01*
X133118600Y-68089324D01*
X133118600Y-73130300D01*
X133098598Y-73198421D01*
X133044942Y-73244914D01*
X132992600Y-73256300D01*
X131485536Y-73256300D01*
X131485526Y-73256301D01*
X131411299Y-73271065D01*
X131327115Y-73327316D01*
X131270866Y-73411497D01*
X131256100Y-73485730D01*
X131256100Y-75135863D01*
X131256101Y-75135873D01*
X131270865Y-75210100D01*
X131327116Y-75294284D01*
X131411297Y-75350533D01*
X131411299Y-75350534D01*
X131485533Y-75365300D01*
X132992600Y-75365299D01*
X133060721Y-75385301D01*
X133107214Y-75438957D01*
X133118600Y-75491299D01*
X133118600Y-81000690D01*
X133118598Y-81050926D01*
X133118604Y-81050970D01*
X133118840Y-81051821D01*
X133130795Y-81096437D01*
X133130796Y-81096442D01*
X133144595Y-81147946D01*
X133144598Y-81147951D01*
X133144599Y-81147954D01*
X133172233Y-81195817D01*
X133172235Y-81195824D01*
X133172236Y-81195824D01*
X133194818Y-81234942D01*
X133234719Y-81274842D01*
X133234722Y-81274848D01*
X133234724Y-81274847D01*
X133867852Y-81908023D01*
X133875399Y-81915570D01*
X133909422Y-81977883D01*
X133912300Y-82004662D01*
X133912300Y-82750966D01*
X133892298Y-82819087D01*
X133875393Y-82840063D01*
X131663614Y-85051786D01*
X130758471Y-85956905D01*
X130758465Y-85956909D01*
X130733463Y-85981912D01*
X130733462Y-85981914D01*
X130694627Y-86020749D01*
X130694625Y-86020751D01*
X130694623Y-86020753D01*
X130694114Y-86021459D01*
X130692734Y-86024025D01*
X130670244Y-86062979D01*
X130644400Y-86107741D01*
X130644399Y-86107742D01*
X130618400Y-86204767D01*
X130618399Y-86204769D01*
X130618399Y-86315369D01*
X130618400Y-86315382D01*
X130618400Y-86357600D01*
X130598398Y-86425721D01*
X130544742Y-86472214D01*
X130492400Y-86483600D01*
X130212836Y-86483600D01*
X130212826Y-86483601D01*
X130138599Y-86498365D01*
X130054415Y-86554616D01*
X129998166Y-86638797D01*
X129983400Y-86713030D01*
X128050400Y-86713030D01*
X128050400Y-85184008D01*
X128016292Y-85056714D01*
X127958334Y-84956328D01*
X127950402Y-84942589D01*
X127950394Y-84942579D01*
X127857220Y-84849405D01*
X127857210Y-84849397D01*
X127743090Y-84783510D01*
X127743087Y-84783509D01*
X127743086Y-84783508D01*
X127743084Y-84783507D01*
X127743083Y-84783507D01*
X127692811Y-84770037D01*
X127615792Y-84749400D01*
X114615792Y-84749400D01*
X114484008Y-84749400D01*
X114371748Y-84779479D01*
X114356710Y-84783509D01*
X114351786Y-84785549D01*
X114281196Y-84793135D01*
X114217710Y-84761353D01*
X114181486Y-84700293D01*
X114184023Y-84629342D01*
X114214476Y-84580045D01*
X115415018Y-83379504D01*
X115477330Y-83345478D01*
X115504113Y-83342599D01*
X116715964Y-83342599D01*
X116715966Y-83342599D01*
X116715969Y-83342598D01*
X116715972Y-83342598D01*
X116752563Y-83335319D01*
X116790201Y-83327834D01*
X116874384Y-83271584D01*
X116930634Y-83187401D01*
X116945400Y-83113167D01*
X116945399Y-81539034D01*
X116945399Y-81539033D01*
X116945399Y-81539031D01*
X116945399Y-81539030D01*
X125072400Y-81539030D01*
X125072400Y-83113163D01*
X125072401Y-83113173D01*
X125087165Y-83187400D01*
X125143416Y-83271584D01*
X125227597Y-83327833D01*
X125227599Y-83327834D01*
X125301833Y-83342600D01*
X126875966Y-83342599D01*
X126875969Y-83342598D01*
X126875973Y-83342598D01*
X126925226Y-83332801D01*
X126950201Y-83327834D01*
X127034384Y-83271584D01*
X127090634Y-83187401D01*
X127105400Y-83113167D01*
X127105399Y-81539034D01*
X127105398Y-81539031D01*
X127105398Y-81539026D01*
X127090634Y-81464799D01*
X127043660Y-81394499D01*
X127034384Y-81380616D01*
X127034383Y-81380615D01*
X126950202Y-81324366D01*
X126875967Y-81309600D01*
X125301836Y-81309600D01*
X125301826Y-81309601D01*
X125227599Y-81324365D01*
X125143415Y-81380616D01*
X125087166Y-81464797D01*
X125072400Y-81539030D01*
X116945399Y-81539030D01*
X116930634Y-81464799D01*
X116883660Y-81394499D01*
X116874384Y-81380616D01*
X116874383Y-81380615D01*
X116790202Y-81324366D01*
X116715969Y-81309600D01*
X116715967Y-81309600D01*
X116436400Y-81309600D01*
X116368279Y-81289598D01*
X116321786Y-81235942D01*
X116310400Y-81183600D01*
X116310400Y-76031312D01*
X116330402Y-75963191D01*
X116347305Y-75942217D01*
X117337835Y-74951687D01*
X118341007Y-73948514D01*
X118403317Y-73914491D01*
X118474132Y-73919555D01*
X118530968Y-73962102D01*
X118555779Y-74028622D01*
X118556100Y-74037611D01*
X118556100Y-75135863D01*
X118556101Y-75135873D01*
X118570865Y-75210100D01*
X118627116Y-75294284D01*
X118711297Y-75350533D01*
X118711299Y-75350534D01*
X118785533Y-75365300D01*
X120435666Y-75365299D01*
X120435669Y-75365298D01*
X120435673Y-75365298D01*
X120503626Y-75351782D01*
X120509901Y-75350534D01*
X120594084Y-75294284D01*
X120650334Y-75210101D01*
X120665100Y-75135867D01*
X120665099Y-73485734D01*
X120665099Y-73485733D01*
X120665099Y-73485731D01*
X120665099Y-73485730D01*
X121096100Y-73485730D01*
X121096100Y-75135863D01*
X121096101Y-75135873D01*
X121110865Y-75210100D01*
X121167116Y-75294284D01*
X121251297Y-75350533D01*
X121251299Y-75350534D01*
X121325533Y-75365300D01*
X122975666Y-75365299D01*
X122975669Y-75365298D01*
X122975673Y-75365298D01*
X123043626Y-75351782D01*
X123049901Y-75350534D01*
X123134084Y-75294284D01*
X123190334Y-75210101D01*
X123205100Y-75135867D01*
X123205099Y-73485734D01*
X123205099Y-73485733D01*
X123205099Y-73485731D01*
X123205099Y-73485730D01*
X123636100Y-73485730D01*
X123636100Y-75135863D01*
X123636101Y-75135873D01*
X123650865Y-75210100D01*
X123707116Y-75294284D01*
X123791297Y-75350533D01*
X123791299Y-75350534D01*
X123865533Y-75365300D01*
X125515666Y-75365299D01*
X125515669Y-75365298D01*
X125515673Y-75365298D01*
X125583626Y-75351782D01*
X125589901Y-75350534D01*
X125674084Y-75294284D01*
X125730334Y-75210101D01*
X125745100Y-75135867D01*
X125745099Y-73485734D01*
X125745099Y-73485733D01*
X125745099Y-73485731D01*
X125745099Y-73485730D01*
X126176100Y-73485730D01*
X126176100Y-75135863D01*
X126176101Y-75135873D01*
X126190865Y-75210100D01*
X126247116Y-75294284D01*
X126331297Y-75350533D01*
X126331299Y-75350534D01*
X126405533Y-75365300D01*
X128055666Y-75365299D01*
X128055669Y-75365298D01*
X128055673Y-75365298D01*
X128123626Y-75351782D01*
X128129901Y-75350534D01*
X128214084Y-75294284D01*
X128270334Y-75210101D01*
X128285100Y-75135867D01*
X128285099Y-73485734D01*
X128285099Y-73485733D01*
X128285099Y-73485731D01*
X128285099Y-73485730D01*
X128716100Y-73485730D01*
X128716100Y-75135863D01*
X128716101Y-75135873D01*
X128730865Y-75210100D01*
X128787116Y-75294284D01*
X128871297Y-75350533D01*
X128871299Y-75350534D01*
X128945533Y-75365300D01*
X130595666Y-75365299D01*
X130595669Y-75365298D01*
X130595673Y-75365298D01*
X130663626Y-75351782D01*
X130669901Y-75350534D01*
X130754084Y-75294284D01*
X130810334Y-75210101D01*
X130825100Y-75135867D01*
X130825099Y-73485734D01*
X130825098Y-73485731D01*
X130825098Y-73485726D01*
X130810334Y-73411499D01*
X130807414Y-73407129D01*
X130754084Y-73327316D01*
X130754083Y-73327315D01*
X130669902Y-73271066D01*
X130595667Y-73256300D01*
X128945536Y-73256300D01*
X128945526Y-73256301D01*
X128871299Y-73271065D01*
X128787115Y-73327316D01*
X128730866Y-73411497D01*
X128716100Y-73485730D01*
X128285099Y-73485730D01*
X128270334Y-73411499D01*
X128267414Y-73407129D01*
X128214084Y-73327316D01*
X128214083Y-73327315D01*
X128129902Y-73271066D01*
X128055667Y-73256300D01*
X126405536Y-73256300D01*
X126405526Y-73256301D01*
X126331299Y-73271065D01*
X126247115Y-73327316D01*
X126190866Y-73411497D01*
X126176100Y-73485730D01*
X125745099Y-73485730D01*
X125730334Y-73411499D01*
X125727414Y-73407129D01*
X125674084Y-73327316D01*
X125674083Y-73327315D01*
X125589902Y-73271066D01*
X125515667Y-73256300D01*
X123865536Y-73256300D01*
X123865526Y-73256301D01*
X123791299Y-73271065D01*
X123707115Y-73327316D01*
X123650866Y-73411497D01*
X123636100Y-73485730D01*
X123205099Y-73485730D01*
X123190334Y-73411499D01*
X123187414Y-73407129D01*
X123134084Y-73327316D01*
X123134083Y-73327315D01*
X123049902Y-73271066D01*
X122975667Y-73256300D01*
X121325536Y-73256300D01*
X121325526Y-73256301D01*
X121251299Y-73271065D01*
X121167115Y-73327316D01*
X121110866Y-73411497D01*
X121096100Y-73485730D01*
X120665099Y-73485730D01*
X120650334Y-73411499D01*
X120647414Y-73407129D01*
X120594084Y-73327316D01*
X120594083Y-73327315D01*
X120509902Y-73271066D01*
X120435669Y-73256300D01*
X120435667Y-73256300D01*
X119337412Y-73256300D01*
X119269291Y-73236298D01*
X119222798Y-73182642D01*
X119212694Y-73112368D01*
X119242188Y-73047788D01*
X119248317Y-73041204D01*
X119871118Y-72418404D01*
X119933430Y-72384379D01*
X119960213Y-72381500D01*
X124511323Y-72381500D01*
X124511325Y-72381500D01*
X124608354Y-72355501D01*
X124608357Y-72355499D01*
X124608358Y-72355499D01*
X124651850Y-72330388D01*
X124695347Y-72305276D01*
X124766376Y-72234247D01*
X124784096Y-72216527D01*
X124784098Y-72216523D01*
X129218417Y-67782203D01*
X129280729Y-67748178D01*
X129307512Y-67745299D01*
X130595664Y-67745299D01*
X130595666Y-67745299D01*
X130595669Y-67745298D01*
X130595672Y-67745298D01*
X130632263Y-67738019D01*
X130669901Y-67730534D01*
X130754084Y-67674284D01*
X130810334Y-67590101D01*
X130825100Y-67515867D01*
X130825099Y-65865734D01*
X130825098Y-65865731D01*
X130825098Y-65865726D01*
X130810334Y-65791499D01*
X130802335Y-65779528D01*
X130754084Y-65707316D01*
X130752899Y-65706524D01*
X130669902Y-65651066D01*
X130595667Y-65636300D01*
X128945536Y-65636300D01*
X128945526Y-65636301D01*
X128871299Y-65651065D01*
X128787115Y-65707316D01*
X128730866Y-65791497D01*
X128716100Y-65865730D01*
X128716100Y-67153287D01*
X128696098Y-67221408D01*
X128679199Y-67242377D01*
X128589290Y-67332287D01*
X128500194Y-67421383D01*
X128437882Y-67455408D01*
X128367066Y-67450343D01*
X128310231Y-67407796D01*
X128285420Y-67341275D01*
X128285099Y-67332311D01*
X128285099Y-65865734D01*
X128285098Y-65865731D01*
X128285098Y-65865726D01*
X128270334Y-65791499D01*
X128262335Y-65779528D01*
X128214084Y-65707316D01*
X128212899Y-65706524D01*
X128129902Y-65651066D01*
X128055667Y-65636300D01*
X126405536Y-65636300D01*
X126405526Y-65636301D01*
X126331299Y-65651065D01*
X126247115Y-65707316D01*
X126190866Y-65791497D01*
X126176100Y-65865730D01*
X126176100Y-67515863D01*
X126176101Y-67515873D01*
X126190865Y-67590100D01*
X126247116Y-67674284D01*
X126331297Y-67730533D01*
X126331299Y-67730534D01*
X126405533Y-67745300D01*
X127872087Y-67745299D01*
X127940208Y-67765301D01*
X127986701Y-67818957D01*
X127996805Y-67889231D01*
X127967312Y-67953811D01*
X127961182Y-67960394D01*
X124339982Y-71581595D01*
X124277670Y-71615621D01*
X124250887Y-71618500D01*
X119699775Y-71618500D01*
X119640390Y-71634412D01*
X119602741Y-71644500D01*
X119515756Y-71694721D01*
X119515751Y-71694725D01*
X119480238Y-71730239D01*
X119444724Y-71765753D01*
X119444722Y-71765755D01*
X115676930Y-75533545D01*
X115676928Y-75533548D01*
X115623629Y-75586846D01*
X115623621Y-75586856D01*
X115573400Y-75673841D01*
X115547400Y-75770876D01*
X115547400Y-81183600D01*
X115527398Y-81251721D01*
X115473742Y-81298214D01*
X115421400Y-81309600D01*
X115141836Y-81309600D01*
X115141826Y-81309601D01*
X115067599Y-81324365D01*
X114983415Y-81380616D01*
X114927166Y-81464797D01*
X114912400Y-81539030D01*
X114912400Y-82750886D01*
X114892398Y-82819007D01*
X114875495Y-82839981D01*
X111268781Y-86446695D01*
X111206469Y-86480721D01*
X111179686Y-86483600D01*
X110713036Y-86483600D01*
X110713026Y-86483601D01*
X110638799Y-86498365D01*
X110554615Y-86554616D01*
X110498366Y-86638797D01*
X110483600Y-86713030D01*
X100500500Y-86713030D01*
X100500500Y-71964430D01*
X114740400Y-71964430D01*
X114740400Y-73538563D01*
X114740401Y-73538573D01*
X114755165Y-73612800D01*
X114811416Y-73696984D01*
X114895597Y-73753233D01*
X114895599Y-73753234D01*
X114969833Y-73768000D01*
X116543966Y-73767999D01*
X116543969Y-73767998D01*
X116543973Y-73767998D01*
X116593226Y-73758201D01*
X116618201Y-73753234D01*
X116702384Y-73696984D01*
X116758634Y-73612801D01*
X116773400Y-73538567D01*
X116773399Y-71964434D01*
X116773398Y-71964430D01*
X116773398Y-71964426D01*
X116758634Y-71890199D01*
X116706760Y-71812565D01*
X116702384Y-71806016D01*
X116702383Y-71806015D01*
X116618202Y-71749766D01*
X116543967Y-71735000D01*
X114969836Y-71735000D01*
X114969826Y-71735001D01*
X114895599Y-71749765D01*
X114811415Y-71806016D01*
X114755166Y-71890197D01*
X114740400Y-71964430D01*
X100500500Y-71964430D01*
X100500500Y-70259504D01*
X100520502Y-70191383D01*
X100537405Y-70170409D01*
X104842084Y-65865730D01*
X121096100Y-65865730D01*
X121096100Y-67515863D01*
X121096101Y-67515873D01*
X121110865Y-67590100D01*
X121167116Y-67674284D01*
X121251297Y-67730533D01*
X121251299Y-67730534D01*
X121325533Y-67745300D01*
X122975666Y-67745299D01*
X122975669Y-67745298D01*
X122975673Y-67745298D01*
X123024926Y-67735501D01*
X123049901Y-67730534D01*
X123134084Y-67674284D01*
X123190334Y-67590101D01*
X123205100Y-67515867D01*
X123205099Y-65865734D01*
X123205099Y-65865733D01*
X123205099Y-65865731D01*
X123205099Y-65865730D01*
X123636100Y-65865730D01*
X123636100Y-67515863D01*
X123636101Y-67515873D01*
X123650865Y-67590100D01*
X123707116Y-67674284D01*
X123791297Y-67730533D01*
X123791299Y-67730534D01*
X123865533Y-67745300D01*
X125515666Y-67745299D01*
X125515669Y-67745298D01*
X125515673Y-67745298D01*
X125564926Y-67735501D01*
X125589901Y-67730534D01*
X125674084Y-67674284D01*
X125730334Y-67590101D01*
X125745100Y-67515867D01*
X125745099Y-65865734D01*
X125745098Y-65865731D01*
X125745098Y-65865726D01*
X125730334Y-65791499D01*
X125722335Y-65779528D01*
X125674084Y-65707316D01*
X125672899Y-65706524D01*
X125589902Y-65651066D01*
X125515667Y-65636300D01*
X123865536Y-65636300D01*
X123865526Y-65636301D01*
X123791299Y-65651065D01*
X123707115Y-65707316D01*
X123650866Y-65791497D01*
X123636100Y-65865730D01*
X123205099Y-65865730D01*
X123190334Y-65791499D01*
X123182335Y-65779528D01*
X123134084Y-65707316D01*
X123132899Y-65706524D01*
X123049902Y-65651066D01*
X122975667Y-65636300D01*
X121325536Y-65636300D01*
X121325526Y-65636301D01*
X121251299Y-65651065D01*
X121167115Y-65707316D01*
X121110866Y-65791497D01*
X121096100Y-65865730D01*
X104842084Y-65865730D01*
X110170409Y-60537405D01*
X110232721Y-60503379D01*
X110259504Y-60500500D01*
X189740496Y-60500500D01*
X189808617Y-60520502D01*
G37*
%TD.AperFunction*%
%TD*%
M02*
