%TF.GenerationSoftware,KiCad,Pcbnew,10.0.6*%
%TF.CreationDate,2026-09-23T18:21:20+08:00*%
%TF.ProjectId,Control_Systems_Module,436f6e74-726f-46c5-9f53-797374656d73,1.7*%
%TF.SameCoordinates,Original*%
%TF.FileFunction,Legend,Bot*%
%TF.FilePolarity,Positive*%
%FSLAX46Y46*%
G04 Gerber Fmt 4.6, Leading zero omitted, Abs format (unit mm)*
G04 Created by KiCad (PCBNEW 10.0.6) date 2026-09-23 18:21:20*
%MOMM*%
%LPD*%
G01*
G04 APERTURE LIST*
%ADD10C,1.000000*%
%ADD11C,0.254000*%
%ADD12C,0.180000*%
G04 APERTURE END LIST*
D10*
X110000200Y-87999900D02*
G75*
G02*
X103000000Y-87999900I-3500100J0D01*
G01*
X103000000Y-87999900D02*
G75*
G02*
X110000200Y-87999900I3500100J0D01*
G01*
X110000200Y-132500000D02*
G75*
G02*
X103000000Y-132500000I-3500100J0D01*
G01*
X103000000Y-132500000D02*
G75*
G02*
X110000200Y-132500000I3500100J0D01*
G01*
D11*
X111599800Y-141097100D02*
X111599800Y-146897200D01*
X111599800Y-146897200D02*
X117100200Y-146897200D01*
X111799800Y-141097100D02*
X111599800Y-141097100D01*
X117100200Y-141101500D02*
X111799800Y-141097100D01*
X117100200Y-146897200D02*
X117100200Y-141101500D01*
D10*
X150918100Y-66000200D02*
G75*
G02*
X147081700Y-66000200I-1918200J0D01*
G01*
X147081700Y-66000200D02*
G75*
G02*
X150918100Y-66000200I1918200J0D01*
G01*
X150918100Y-85500100D02*
G75*
G02*
X147081700Y-85500100I-1918200J0D01*
G01*
X147081700Y-85500100D02*
G75*
G02*
X150918100Y-85500100I1918200J0D01*
G01*
X150918100Y-104500000D02*
G75*
G02*
X147081700Y-104500000I-1918200J0D01*
G01*
X147081700Y-104500000D02*
G75*
G02*
X150918100Y-104500000I1918200J0D01*
G01*
X150918100Y-124000100D02*
G75*
G02*
X147081700Y-124000100I-1918200J0D01*
G01*
X147081700Y-124000100D02*
G75*
G02*
X150918100Y-124000100I1918200J0D01*
G01*
X150918100Y-143000100D02*
G75*
G02*
X147081700Y-143000100I-1918200J0D01*
G01*
X147081700Y-143000100D02*
G75*
G02*
X150918100Y-143000100I1918200J0D01*
G01*
X159418200Y-66000200D02*
G75*
G02*
X155581800Y-66000200I-1918200J0D01*
G01*
X155581800Y-66000200D02*
G75*
G02*
X159418200Y-66000200I1918200J0D01*
G01*
X159418200Y-85500100D02*
G75*
G02*
X155581800Y-85500100I-1918200J0D01*
G01*
X155581800Y-85500100D02*
G75*
G02*
X159418200Y-85500100I1918200J0D01*
G01*
X159418200Y-104500000D02*
G75*
G02*
X155581800Y-104500000I-1918200J0D01*
G01*
X155581800Y-104500000D02*
G75*
G02*
X159418200Y-104500000I1918200J0D01*
G01*
X159418200Y-124000100D02*
G75*
G02*
X155581800Y-124000100I-1918200J0D01*
G01*
X155581800Y-124000100D02*
G75*
G02*
X159418200Y-124000100I1918200J0D01*
G01*
X159418200Y-143000100D02*
G75*
G02*
X155581800Y-143000100I-1918200J0D01*
G01*
X155581800Y-143000100D02*
G75*
G02*
X159418200Y-143000100I1918200J0D01*
G01*
X170418200Y-104500000D02*
G75*
G02*
X166581800Y-104500000I-1918200J0D01*
G01*
X166581800Y-104500000D02*
G75*
G02*
X170418200Y-104500000I1918200J0D01*
G01*
X170418200Y-124000100D02*
G75*
G02*
X166581800Y-124000100I-1918200J0D01*
G01*
X166581800Y-124000100D02*
G75*
G02*
X170418200Y-124000100I1918200J0D01*
G01*
X170418200Y-143000100D02*
G75*
G02*
X166581800Y-143000100I-1918200J0D01*
G01*
X166581800Y-143000100D02*
G75*
G02*
X170418200Y-143000100I1918200J0D01*
G01*
X170419000Y-85499800D02*
G75*
G02*
X166582600Y-85499800I-1918200J0D01*
G01*
X166582600Y-85499800D02*
G75*
G02*
X170419000Y-85499800I1918200J0D01*
G01*
X170419700Y-66000000D02*
G75*
G02*
X166583300Y-66000000I-1918200J0D01*
G01*
X166583300Y-66000000D02*
G75*
G02*
X170419700Y-66000000I1918200J0D01*
G01*
X178918300Y-104500000D02*
G75*
G02*
X175081900Y-104500000I-1918200J0D01*
G01*
X175081900Y-104500000D02*
G75*
G02*
X178918300Y-104500000I1918200J0D01*
G01*
X178918300Y-124000100D02*
G75*
G02*
X175081900Y-124000100I-1918200J0D01*
G01*
X175081900Y-124000100D02*
G75*
G02*
X178918300Y-124000100I1918200J0D01*
G01*
X178918300Y-143000100D02*
G75*
G02*
X175081900Y-143000100I-1918200J0D01*
G01*
X175081900Y-143000100D02*
G75*
G02*
X178918300Y-143000100I1918200J0D01*
G01*
X178919100Y-85499800D02*
G75*
G02*
X175082700Y-85499800I-1918200J0D01*
G01*
X175082700Y-85499800D02*
G75*
G02*
X178919100Y-85499800I1918200J0D01*
G01*
X178919800Y-66000000D02*
G75*
G02*
X175083400Y-66000000I-1918200J0D01*
G01*
X175083400Y-66000000D02*
G75*
G02*
X178919800Y-66000000I1918200J0D01*
G01*
D12*
X104308145Y-92569573D02*
X103874812Y-92569573D01*
X104394812Y-92829573D02*
X104091479Y-91919573D01*
X104091479Y-91919573D02*
X103788145Y-92829573D01*
X104508345Y-128369373D02*
X104075012Y-128369373D01*
X104595012Y-128629373D02*
X104291679Y-127719373D01*
X104291679Y-127719373D02*
X103988345Y-128629373D01*
X106508345Y-83569673D02*
X106075012Y-83569673D01*
X106595012Y-83829673D02*
X106291679Y-82919673D01*
X106291679Y-82919673D02*
X105988345Y-83829673D01*
X106708245Y-137769373D02*
X106274912Y-137769373D01*
X106794912Y-138029373D02*
X106491579Y-137119373D01*
X106491579Y-137119373D02*
X106188245Y-138029373D01*
X116351479Y-141969273D02*
X116134812Y-142879273D01*
X116134812Y-142879273D02*
X115961479Y-142229273D01*
X115961479Y-142229273D02*
X115788145Y-142879273D01*
X115788145Y-142879273D02*
X115571479Y-141969273D01*
X115224812Y-142879273D02*
X115224812Y-141969273D01*
X115224812Y-142402606D02*
X114704812Y-142402606D01*
X114704812Y-142879273D02*
X114704812Y-141969273D01*
X114271479Y-142879273D02*
X114271479Y-141969273D01*
X113968146Y-141969273D02*
X113448146Y-141969273D01*
X113708146Y-142879273D02*
X113708146Y-141969273D01*
X113144813Y-142402606D02*
X112841480Y-142402606D01*
X112711480Y-142879273D02*
X113144813Y-142879273D01*
X113144813Y-142879273D02*
X113144813Y-141969273D01*
X113144813Y-141969273D02*
X112711480Y-141969273D01*
X116308145Y-144369373D02*
X115874812Y-144369373D01*
X116394812Y-144629373D02*
X116091479Y-143719373D01*
X116091479Y-143719373D02*
X115788145Y-144629373D01*
X115484812Y-144542706D02*
X115441479Y-144586040D01*
X115441479Y-144586040D02*
X115484812Y-144629373D01*
X115484812Y-144629373D02*
X115528145Y-144586040D01*
X115528145Y-144586040D02*
X115484812Y-144542706D01*
X115484812Y-144542706D02*
X115484812Y-144629373D01*
X115484812Y-144066040D02*
X115441479Y-144109373D01*
X115441479Y-144109373D02*
X115484812Y-144152706D01*
X115484812Y-144152706D02*
X115528145Y-144109373D01*
X115528145Y-144109373D02*
X115484812Y-144066040D01*
X115484812Y-144066040D02*
X115484812Y-144152706D01*
X113881479Y-144629373D02*
X114401479Y-144629373D01*
X114141479Y-144629373D02*
X114141479Y-143719373D01*
X114141479Y-143719373D02*
X114228146Y-143849373D01*
X114228146Y-143849373D02*
X114314813Y-143936040D01*
X114314813Y-143936040D02*
X114401479Y-143979373D01*
X113101479Y-144022706D02*
X113101479Y-144629373D01*
X113318146Y-143676040D02*
X113534812Y-144326040D01*
X113534812Y-144326040D02*
X112971479Y-144326040D01*
X115961479Y-145850206D02*
X115831479Y-145893540D01*
X115831479Y-145893540D02*
X115788145Y-145936873D01*
X115788145Y-145936873D02*
X115744812Y-146023540D01*
X115744812Y-146023540D02*
X115744812Y-146153540D01*
X115744812Y-146153540D02*
X115788145Y-146240206D01*
X115788145Y-146240206D02*
X115831479Y-146283540D01*
X115831479Y-146283540D02*
X115918145Y-146326873D01*
X115918145Y-146326873D02*
X116264812Y-146326873D01*
X116264812Y-146326873D02*
X116264812Y-145416873D01*
X116264812Y-145416873D02*
X115961479Y-145416873D01*
X115961479Y-145416873D02*
X115874812Y-145460206D01*
X115874812Y-145460206D02*
X115831479Y-145503540D01*
X115831479Y-145503540D02*
X115788145Y-145590206D01*
X115788145Y-145590206D02*
X115788145Y-145676873D01*
X115788145Y-145676873D02*
X115831479Y-145763540D01*
X115831479Y-145763540D02*
X115874812Y-145806873D01*
X115874812Y-145806873D02*
X115961479Y-145850206D01*
X115961479Y-145850206D02*
X116264812Y-145850206D01*
X115354812Y-146240206D02*
X115311479Y-146283540D01*
X115311479Y-146283540D02*
X115354812Y-146326873D01*
X115354812Y-146326873D02*
X115398145Y-146283540D01*
X115398145Y-146283540D02*
X115354812Y-146240206D01*
X115354812Y-146240206D02*
X115354812Y-146326873D01*
X115354812Y-145763540D02*
X115311479Y-145806873D01*
X115311479Y-145806873D02*
X115354812Y-145850206D01*
X115354812Y-145850206D02*
X115398145Y-145806873D01*
X115398145Y-145806873D02*
X115354812Y-145763540D01*
X115354812Y-145763540D02*
X115354812Y-145850206D01*
X113751479Y-146326873D02*
X114271479Y-146326873D01*
X114011479Y-146326873D02*
X114011479Y-145416873D01*
X114011479Y-145416873D02*
X114098146Y-145546873D01*
X114098146Y-145546873D02*
X114184813Y-145633540D01*
X114184813Y-145633540D02*
X114271479Y-145676873D01*
X113188146Y-145416873D02*
X113101479Y-145416873D01*
X113101479Y-145416873D02*
X113014812Y-145460206D01*
X113014812Y-145460206D02*
X112971479Y-145503540D01*
X112971479Y-145503540D02*
X112928146Y-145590206D01*
X112928146Y-145590206D02*
X112884812Y-145763540D01*
X112884812Y-145763540D02*
X112884812Y-145980206D01*
X112884812Y-145980206D02*
X112928146Y-146153540D01*
X112928146Y-146153540D02*
X112971479Y-146240206D01*
X112971479Y-146240206D02*
X113014812Y-146283540D01*
X113014812Y-146283540D02*
X113101479Y-146326873D01*
X113101479Y-146326873D02*
X113188146Y-146326873D01*
X113188146Y-146326873D02*
X113274812Y-146283540D01*
X113274812Y-146283540D02*
X113318146Y-146240206D01*
X113318146Y-146240206D02*
X113361479Y-146153540D01*
X113361479Y-146153540D02*
X113404812Y-145980206D01*
X113404812Y-145980206D02*
X113404812Y-145763540D01*
X113404812Y-145763540D02*
X113361479Y-145590206D01*
X113361479Y-145590206D02*
X113318146Y-145503540D01*
X113318146Y-145503540D02*
X113274812Y-145460206D01*
X113274812Y-145460206D02*
X113188146Y-145416873D01*
X145708145Y-85969373D02*
X145274812Y-85969373D01*
X145794812Y-86229373D02*
X145491479Y-85319373D01*
X145491479Y-85319373D02*
X145188145Y-86229373D01*
X145908045Y-66369473D02*
X145474712Y-66369473D01*
X145994712Y-66629473D02*
X145691379Y-65719473D01*
X145691379Y-65719473D02*
X145388045Y-66629473D01*
X145908045Y-104969373D02*
X145474712Y-104969373D01*
X145994712Y-105229373D02*
X145691379Y-104319373D01*
X145691379Y-104319373D02*
X145388045Y-105229373D01*
X145908045Y-124369373D02*
X145474712Y-124369373D01*
X145994712Y-124629373D02*
X145691379Y-123719373D01*
X145691379Y-123719373D02*
X145388045Y-124629373D01*
X145908045Y-143369373D02*
X145474712Y-143369373D01*
X145994712Y-143629373D02*
X145691379Y-142719373D01*
X145691379Y-142719373D02*
X145388045Y-143629373D01*
X160361479Y-65952906D02*
X160231479Y-65996240D01*
X160231479Y-65996240D02*
X160188145Y-66039573D01*
X160188145Y-66039573D02*
X160144812Y-66126240D01*
X160144812Y-66126240D02*
X160144812Y-66256240D01*
X160144812Y-66256240D02*
X160188145Y-66342906D01*
X160188145Y-66342906D02*
X160231479Y-66386240D01*
X160231479Y-66386240D02*
X160318145Y-66429573D01*
X160318145Y-66429573D02*
X160664812Y-66429573D01*
X160664812Y-66429573D02*
X160664812Y-65519573D01*
X160664812Y-65519573D02*
X160361479Y-65519573D01*
X160361479Y-65519573D02*
X160274812Y-65562906D01*
X160274812Y-65562906D02*
X160231479Y-65606240D01*
X160231479Y-65606240D02*
X160188145Y-65692906D01*
X160188145Y-65692906D02*
X160188145Y-65779573D01*
X160188145Y-65779573D02*
X160231479Y-65866240D01*
X160231479Y-65866240D02*
X160274812Y-65909573D01*
X160274812Y-65909573D02*
X160361479Y-65952906D01*
X160361479Y-65952906D02*
X160664812Y-65952906D01*
X160361479Y-85552806D02*
X160231479Y-85596140D01*
X160231479Y-85596140D02*
X160188145Y-85639473D01*
X160188145Y-85639473D02*
X160144812Y-85726140D01*
X160144812Y-85726140D02*
X160144812Y-85856140D01*
X160144812Y-85856140D02*
X160188145Y-85942806D01*
X160188145Y-85942806D02*
X160231479Y-85986140D01*
X160231479Y-85986140D02*
X160318145Y-86029473D01*
X160318145Y-86029473D02*
X160664812Y-86029473D01*
X160664812Y-86029473D02*
X160664812Y-85119473D01*
X160664812Y-85119473D02*
X160361479Y-85119473D01*
X160361479Y-85119473D02*
X160274812Y-85162806D01*
X160274812Y-85162806D02*
X160231479Y-85206140D01*
X160231479Y-85206140D02*
X160188145Y-85292806D01*
X160188145Y-85292806D02*
X160188145Y-85379473D01*
X160188145Y-85379473D02*
X160231479Y-85466140D01*
X160231479Y-85466140D02*
X160274812Y-85509473D01*
X160274812Y-85509473D02*
X160361479Y-85552806D01*
X160361479Y-85552806D02*
X160664812Y-85552806D01*
X160361479Y-104552806D02*
X160231479Y-104596140D01*
X160231479Y-104596140D02*
X160188145Y-104639473D01*
X160188145Y-104639473D02*
X160144812Y-104726140D01*
X160144812Y-104726140D02*
X160144812Y-104856140D01*
X160144812Y-104856140D02*
X160188145Y-104942806D01*
X160188145Y-104942806D02*
X160231479Y-104986140D01*
X160231479Y-104986140D02*
X160318145Y-105029473D01*
X160318145Y-105029473D02*
X160664812Y-105029473D01*
X160664812Y-105029473D02*
X160664812Y-104119473D01*
X160664812Y-104119473D02*
X160361479Y-104119473D01*
X160361479Y-104119473D02*
X160274812Y-104162806D01*
X160274812Y-104162806D02*
X160231479Y-104206140D01*
X160231479Y-104206140D02*
X160188145Y-104292806D01*
X160188145Y-104292806D02*
X160188145Y-104379473D01*
X160188145Y-104379473D02*
X160231479Y-104466140D01*
X160231479Y-104466140D02*
X160274812Y-104509473D01*
X160274812Y-104509473D02*
X160361479Y-104552806D01*
X160361479Y-104552806D02*
X160664812Y-104552806D01*
X160361479Y-123952806D02*
X160231479Y-123996140D01*
X160231479Y-123996140D02*
X160188145Y-124039473D01*
X160188145Y-124039473D02*
X160144812Y-124126140D01*
X160144812Y-124126140D02*
X160144812Y-124256140D01*
X160144812Y-124256140D02*
X160188145Y-124342806D01*
X160188145Y-124342806D02*
X160231479Y-124386140D01*
X160231479Y-124386140D02*
X160318145Y-124429473D01*
X160318145Y-124429473D02*
X160664812Y-124429473D01*
X160664812Y-124429473D02*
X160664812Y-123519473D01*
X160664812Y-123519473D02*
X160361479Y-123519473D01*
X160361479Y-123519473D02*
X160274812Y-123562806D01*
X160274812Y-123562806D02*
X160231479Y-123606140D01*
X160231479Y-123606140D02*
X160188145Y-123692806D01*
X160188145Y-123692806D02*
X160188145Y-123779473D01*
X160188145Y-123779473D02*
X160231479Y-123866140D01*
X160231479Y-123866140D02*
X160274812Y-123909473D01*
X160274812Y-123909473D02*
X160361479Y-123952806D01*
X160361479Y-123952806D02*
X160664812Y-123952806D01*
X160361479Y-142952806D02*
X160231479Y-142996140D01*
X160231479Y-142996140D02*
X160188145Y-143039473D01*
X160188145Y-143039473D02*
X160144812Y-143126140D01*
X160144812Y-143126140D02*
X160144812Y-143256140D01*
X160144812Y-143256140D02*
X160188145Y-143342806D01*
X160188145Y-143342806D02*
X160231479Y-143386140D01*
X160231479Y-143386140D02*
X160318145Y-143429473D01*
X160318145Y-143429473D02*
X160664812Y-143429473D01*
X160664812Y-143429473D02*
X160664812Y-142519473D01*
X160664812Y-142519473D02*
X160361479Y-142519473D01*
X160361479Y-142519473D02*
X160274812Y-142562806D01*
X160274812Y-142562806D02*
X160231479Y-142606140D01*
X160231479Y-142606140D02*
X160188145Y-142692806D01*
X160188145Y-142692806D02*
X160188145Y-142779473D01*
X160188145Y-142779473D02*
X160231479Y-142866140D01*
X160231479Y-142866140D02*
X160274812Y-142909473D01*
X160274812Y-142909473D02*
X160361479Y-142952806D01*
X160361479Y-142952806D02*
X160664812Y-142952806D01*
X164961379Y-65952906D02*
X164831379Y-65996240D01*
X164831379Y-65996240D02*
X164788045Y-66039573D01*
X164788045Y-66039573D02*
X164744712Y-66126240D01*
X164744712Y-66126240D02*
X164744712Y-66256240D01*
X164744712Y-66256240D02*
X164788045Y-66342906D01*
X164788045Y-66342906D02*
X164831379Y-66386240D01*
X164831379Y-66386240D02*
X164918045Y-66429573D01*
X164918045Y-66429573D02*
X165264712Y-66429573D01*
X165264712Y-66429573D02*
X165264712Y-65519573D01*
X165264712Y-65519573D02*
X164961379Y-65519573D01*
X164961379Y-65519573D02*
X164874712Y-65562906D01*
X164874712Y-65562906D02*
X164831379Y-65606240D01*
X164831379Y-65606240D02*
X164788045Y-65692906D01*
X164788045Y-65692906D02*
X164788045Y-65779573D01*
X164788045Y-65779573D02*
X164831379Y-65866240D01*
X164831379Y-65866240D02*
X164874712Y-65909573D01*
X164874712Y-65909573D02*
X164961379Y-65952906D01*
X164961379Y-65952906D02*
X165264712Y-65952906D01*
X164961379Y-85552806D02*
X164831379Y-85596140D01*
X164831379Y-85596140D02*
X164788045Y-85639473D01*
X164788045Y-85639473D02*
X164744712Y-85726140D01*
X164744712Y-85726140D02*
X164744712Y-85856140D01*
X164744712Y-85856140D02*
X164788045Y-85942806D01*
X164788045Y-85942806D02*
X164831379Y-85986140D01*
X164831379Y-85986140D02*
X164918045Y-86029473D01*
X164918045Y-86029473D02*
X165264712Y-86029473D01*
X165264712Y-86029473D02*
X165264712Y-85119473D01*
X165264712Y-85119473D02*
X164961379Y-85119473D01*
X164961379Y-85119473D02*
X164874712Y-85162806D01*
X164874712Y-85162806D02*
X164831379Y-85206140D01*
X164831379Y-85206140D02*
X164788045Y-85292806D01*
X164788045Y-85292806D02*
X164788045Y-85379473D01*
X164788045Y-85379473D02*
X164831379Y-85466140D01*
X164831379Y-85466140D02*
X164874712Y-85509473D01*
X164874712Y-85509473D02*
X164961379Y-85552806D01*
X164961379Y-85552806D02*
X165264712Y-85552806D01*
X164961379Y-104552806D02*
X164831379Y-104596140D01*
X164831379Y-104596140D02*
X164788045Y-104639473D01*
X164788045Y-104639473D02*
X164744712Y-104726140D01*
X164744712Y-104726140D02*
X164744712Y-104856140D01*
X164744712Y-104856140D02*
X164788045Y-104942806D01*
X164788045Y-104942806D02*
X164831379Y-104986140D01*
X164831379Y-104986140D02*
X164918045Y-105029473D01*
X164918045Y-105029473D02*
X165264712Y-105029473D01*
X165264712Y-105029473D02*
X165264712Y-104119473D01*
X165264712Y-104119473D02*
X164961379Y-104119473D01*
X164961379Y-104119473D02*
X164874712Y-104162806D01*
X164874712Y-104162806D02*
X164831379Y-104206140D01*
X164831379Y-104206140D02*
X164788045Y-104292806D01*
X164788045Y-104292806D02*
X164788045Y-104379473D01*
X164788045Y-104379473D02*
X164831379Y-104466140D01*
X164831379Y-104466140D02*
X164874712Y-104509473D01*
X164874712Y-104509473D02*
X164961379Y-104552806D01*
X164961379Y-104552806D02*
X165264712Y-104552806D01*
X164961379Y-123952806D02*
X164831379Y-123996140D01*
X164831379Y-123996140D02*
X164788045Y-124039473D01*
X164788045Y-124039473D02*
X164744712Y-124126140D01*
X164744712Y-124126140D02*
X164744712Y-124256140D01*
X164744712Y-124256140D02*
X164788045Y-124342806D01*
X164788045Y-124342806D02*
X164831379Y-124386140D01*
X164831379Y-124386140D02*
X164918045Y-124429473D01*
X164918045Y-124429473D02*
X165264712Y-124429473D01*
X165264712Y-124429473D02*
X165264712Y-123519473D01*
X165264712Y-123519473D02*
X164961379Y-123519473D01*
X164961379Y-123519473D02*
X164874712Y-123562806D01*
X164874712Y-123562806D02*
X164831379Y-123606140D01*
X164831379Y-123606140D02*
X164788045Y-123692806D01*
X164788045Y-123692806D02*
X164788045Y-123779473D01*
X164788045Y-123779473D02*
X164831379Y-123866140D01*
X164831379Y-123866140D02*
X164874712Y-123909473D01*
X164874712Y-123909473D02*
X164961379Y-123952806D01*
X164961379Y-123952806D02*
X165264712Y-123952806D01*
X164961379Y-142952806D02*
X164831379Y-142996140D01*
X164831379Y-142996140D02*
X164788045Y-143039473D01*
X164788045Y-143039473D02*
X164744712Y-143126140D01*
X164744712Y-143126140D02*
X164744712Y-143256140D01*
X164744712Y-143256140D02*
X164788045Y-143342806D01*
X164788045Y-143342806D02*
X164831379Y-143386140D01*
X164831379Y-143386140D02*
X164918045Y-143429473D01*
X164918045Y-143429473D02*
X165264712Y-143429473D01*
X165264712Y-143429473D02*
X165264712Y-142519473D01*
X165264712Y-142519473D02*
X164961379Y-142519473D01*
X164961379Y-142519473D02*
X164874712Y-142562806D01*
X164874712Y-142562806D02*
X164831379Y-142606140D01*
X164831379Y-142606140D02*
X164788045Y-142692806D01*
X164788045Y-142692806D02*
X164788045Y-142779473D01*
X164788045Y-142779473D02*
X164831379Y-142866140D01*
X164831379Y-142866140D02*
X164874712Y-142909473D01*
X164874712Y-142909473D02*
X164961379Y-142952806D01*
X164961379Y-142952806D02*
X165264712Y-142952806D01*
X180308045Y-66369473D02*
X179874712Y-66369473D01*
X180394712Y-66629473D02*
X180091379Y-65719473D01*
X180091379Y-65719473D02*
X179788045Y-66629473D01*
X180308045Y-85969373D02*
X179874712Y-85969373D01*
X180394712Y-86229373D02*
X180091379Y-85319373D01*
X180091379Y-85319373D02*
X179788045Y-86229373D01*
X180308045Y-104969373D02*
X179874712Y-104969373D01*
X180394712Y-105229373D02*
X180091379Y-104319373D01*
X180091379Y-104319373D02*
X179788045Y-105229373D01*
X180308045Y-124369373D02*
X179874712Y-124369373D01*
X180394712Y-124629373D02*
X180091379Y-123719373D01*
X180091379Y-123719373D02*
X179788045Y-124629373D01*
X180308045Y-143369373D02*
X179874712Y-143369373D01*
X180394712Y-143629373D02*
X180091379Y-142719373D01*
X180091379Y-142719373D02*
X179788045Y-143629373D01*
M02*
