M48
; DRILL file KiCad 10.0.6 date 2026-09-22T18:32:29
; FORMAT={-:-/ absolute / metric / decimal}
; #@! TF.CreationDate,2026-09-22T18:32:29+08:00
; #@! TF.GenerationSoftware,Kicad,Pcbnew,10.0.6
; #@! TF.FileFunction,Plated,1,2,PTH
FMAT,2
METRIC
; #@! TA.AperFunction,Plated,PTH,ViaDrill
T1C0.305
; #@! TA.AperFunction,Plated,PTH,ComponentDrill
T2C0.670
; #@! TA.AperFunction,Plated,PTH,ComponentDrill
T3C0.889
; #@! TA.AperFunction,Plated,PTH,ComponentDrill
T4C0.914
; #@! TA.AperFunction,Plated,PTH,ComponentDrill
T5C1.000
; #@! TA.AperFunction,Plated,PTH,ComponentDrill
T6C1.100
%
G90
G05
T1
X100.58Y-104.962
X100.58Y-114.96
X109.5Y-111.5
X111.25Y-97.5
X119.5Y-80.75
X120.25Y-83.0
X123.75Y-84.25
X124.0Y-118.4
X124.5Y-112.5
X124.6Y-120.0
X125.5Y-100.25
X125.5Y-102.25
X126.0Y-107.25
X127.25Y-67.5
X127.25Y-110.25
X127.75Y-117.0
X128.5Y-96.75
X128.5Y-118.0
X131.0Y-120.0
X132.0Y-92.25
X132.75Y-90.25
X132.75Y-107.5
X133.25Y-98.25
X133.25Y-117.25
X133.25Y-120.0
X134.25Y-103.75
X136.0Y-107.5
X136.0Y-108.5
X136.25Y-100.5
X140.25Y-99.0
X141.75Y-64.75
X142.25Y-103.75
X143.0Y-103.25
X144.25Y-84.0
X144.25Y-85.0
X144.25Y-122.75
X145.0Y-102.5
X147.0Y-84.25
X147.25Y-103.5
X161.5Y-142.75
X199.25Y-105.252
X199.25Y-115.25
T2
X113.0Y-149.75
X113.0Y-151.75
X115.0Y-149.75
X115.0Y-151.75
X117.0Y-149.75
X117.0Y-151.75
X119.0Y-149.75
X119.0Y-151.75
X121.0Y-151.75
X121.0Y-149.75
X123.0Y-151.75
X123.0Y-149.75
X125.0Y-151.75
X125.0Y-149.75
X127.0Y-151.75
X127.0Y-149.75
T3
X106.5Y-86.5
X106.5Y-89.75
X106.5Y-130.5
X106.5Y-134.0
X142.5Y-93.0
X142.5Y-95.5
X142.5Y-73.5
X142.5Y-76.0
X142.5Y-112.0
X142.5Y-114.5
X142.5Y-131.0
X142.5Y-133.5
X142.5Y-151.0
X142.5Y-153.5
X149.0Y-66.0
X149.0Y-85.5
X149.0Y-104.5
X149.0Y-124.0
X149.0Y-143.0
X157.5Y-66.0
X157.5Y-85.5
X157.5Y-104.5
X157.5Y-143.0
X157.5Y-124.0
X168.5Y-143.0
X168.5Y-104.5
X168.5Y-124.0
X168.501Y-85.5
X168.503Y-66.0
X177.0Y-104.5
X177.0Y-124.0
X177.0Y-143.0
X177.001Y-85.5
X177.003Y-66.0
X184.0Y-73.5
X184.0Y-76.0
X184.0Y-93.0
X184.0Y-95.5
X184.0Y-112.0
X184.0Y-114.5
X184.0Y-131.0
X184.0Y-133.5
X184.0Y-151.0
X184.0Y-153.5
T4
X104.23Y-141.75
X106.424Y-93.929
X106.424Y-104.089
X106.576Y-116.911
X106.576Y-127.071
X106.77Y-141.75
X107.456Y-69.251
X107.456Y-74.251
X119.943Y-90.549
X119.943Y-95.549
X131.05Y-121.943
X131.056Y-132.65
X131.056Y-137.65
X132.856Y-100.651
X132.856Y-105.65
X133.857Y-82.051
X133.857Y-87.051
X134.929Y-69.326
X136.05Y-121.943
X142.673Y-98.929
X142.673Y-109.089
X142.673Y-137.929
X142.673Y-148.089
X142.674Y-79.929
X142.674Y-90.089
X142.674Y-117.929
X142.674Y-128.089
X145.089Y-69.326
X161.924Y-69.929
X161.924Y-80.089
X161.924Y-88.929
X161.924Y-99.089
X161.924Y-108.429
X161.924Y-118.589
X161.924Y-127.429
X161.924Y-137.589
X161.924Y-146.929
X161.924Y-157.089
X164.674Y-69.929
X164.674Y-80.089
X164.674Y-88.929
X164.674Y-99.089
X164.674Y-108.429
X164.674Y-118.589
X164.674Y-127.429
X164.674Y-137.589
X164.674Y-146.929
X164.674Y-157.089
X181.429Y-69.326
X184.326Y-79.911
X184.326Y-90.071
X184.326Y-98.911
X184.326Y-109.071
X184.326Y-117.911
X184.326Y-128.071
X184.326Y-137.911
X184.326Y-148.071
X191.589Y-69.326
T5
X110.61Y-65.44
X110.61Y-73.06
X111.19Y-100.11
X111.19Y-102.65
X111.19Y-105.19
X111.19Y-107.73
X111.19Y-110.27
X111.19Y-112.81
X111.19Y-115.35
X111.19Y-117.89
X113.15Y-65.44
X113.15Y-73.06
X115.69Y-65.44
X115.69Y-73.06
X118.23Y-65.44
X118.23Y-73.06
X118.81Y-100.11
X118.81Y-102.65
X118.81Y-105.19
X118.81Y-107.73
X118.81Y-110.27
X118.81Y-112.81
X118.81Y-115.35
X118.81Y-117.89
X120.77Y-65.44
X120.77Y-73.06
X122.44Y-77.86
X122.44Y-80.4
X122.44Y-82.94
X122.44Y-85.48
X122.44Y-88.02
X122.44Y-90.56
X122.44Y-93.1
X122.44Y-95.64
X122.44Y-100.11
X122.44Y-102.65
X122.44Y-105.19
X122.44Y-107.73
X122.44Y-110.27
X122.44Y-112.81
X122.44Y-115.35
X122.44Y-117.89
X123.31Y-65.44
X123.31Y-73.06
X125.85Y-65.44
X125.85Y-73.06
X128.39Y-65.44
X128.39Y-73.06
X130.06Y-77.86
X130.06Y-80.4
X130.06Y-82.94
X130.06Y-85.48
X130.06Y-88.02
X130.06Y-90.56
X130.06Y-93.1
X130.06Y-95.64
X130.06Y-100.11
X130.06Y-102.65
X130.06Y-105.19
X130.06Y-107.73
X130.06Y-110.27
X130.06Y-112.81
X130.06Y-115.35
X130.06Y-117.89
T6
X120.59Y-121.99
X120.59Y-124.53
X120.59Y-127.07
X120.59Y-129.61
X120.59Y-132.79
X120.59Y-135.33
X120.59Y-137.87
X120.59Y-140.41
X128.21Y-121.99
X128.21Y-124.53
X128.21Y-127.07
X128.21Y-129.61
X128.21Y-132.79
X128.21Y-135.33
X128.21Y-137.87
X128.21Y-140.41
M30
