<?xml version="1.0" encoding="UTF-8" standalone="no"?>
<svg
   xmlns:dc="http://purl.org/dc/elements/1.1/"
   xmlns:cc="http://creativecommons.org/ns#"
   xmlns:rdf="http://www.w3.org/1999/02/22-rdf-syntax-ns#"
   xmlns:svg="http://www.w3.org/2000/svg"
   xmlns="http://www.w3.org/2000/svg"
   xmlns:sodipodi="http://sodipodi.sourceforge.net/DTD/sodipodi-0.dtd"
   xmlns:inkscape="http://www.inkscape.org/namespaces/inkscape"
   width="545mm"
   height="771mm"
   viewBox="0 0 545 771"
   version="1.1"
   id="svg8"
   inkscape:version="1.0.2-2 (e86c870879, 2021-01-15)"
   sodipodi:docname="Mark_IV.svg">
  <defs
     id="defs2" />
  <sodipodi:namedview
     id="base"
     pagecolor="#ffffff"
     bordercolor="#666666"
     borderopacity="1.0"
     inkscape:pageopacity="0.0"
     inkscape:pageshadow="2"
     inkscape:zoom="0.35355339"
     inkscape:cx="1617.6412"
     inkscape:cy="1173.5093"
     inkscape:document-units="mm"
     inkscape:current-layer="layer2"
     showgrid="false"
     showguides="true"
     inkscape:window-width="2979"
     inkscape:window-height="1440"
     inkscape:window-x="9"
     inkscape:window-y="338"
     inkscape:window-maximized="0"
     inkscape:document-rotation="0"
     inkscape:snap-object-midpoints="true"
     inkscape:snap-center="true"
     inkscape:snap-global="true">
    <inkscape:grid
       type="xygrid"
       id="grid19" />
  </sodipodi:namedview>
  <metadata
     id="metadata5">
    <rdf:RDF>
      <cc:Work
         rdf:about="">
        <dc:format>image/svg+xml</dc:format>
        <dc:type
           rdf:resource="http://purl.org/dc/dcmitype/StillImage" />
        <dc:title />
      </cc:Work>
    </rdf:RDF>
  </metadata>
  <g
     inkscape:label="Layer 1"
     inkscape:groupmode="layer"
     id="layer1"
     transform="translate(0,351)" />
  <g
     inkscape:groupmode="layer"
     id="layer2"
     inkscape:label="guide"
     transform="translate(0,351)"
     style="display:inline">
    <path
       id="path1266"
       style="display:inline;opacity:1;fill:#ffcc00;fill-opacity:1;stroke:#0000ff;stroke-width:0.188308;stroke-linejoin:miter;stroke-miterlimit:4;stroke-dasharray:none"
       d="m 50.234375,1460.7539 v 94.2793 h 18.708984 0.566407 v 113.6016 H 68.955078 50.246094 v 150.9648 h 18.708984 0.56836 v 94.6953 H 163.4375 v 18.711 h 151.32031 v -18.709 h 113.19531 v 18.709 h 151.41993 v -18.7032 h 2.8164 v -0.012 h 49.09375 l 153.66797,0.01 h 77.29492 v 18.7109 h 151.41801 v -18.7109 h 113.1972 v 18.7109 h 151.3692 v -18.7109 h 93.8828 v -94.6953 h 0.6055 0.037 18.6718 v -150.9649 h -18.707 -0.5684 V 1555.041 h 0.5684 18.709 v -94.2812 h -18.709 v 9.2597 h -46.3769 v -9.2597 H 994.56641 v 9.2597 H 881.36914 v -9.2597 h -160.46289 -78.31641 -9.01757 -73.29493 v 9.2597 h -24.42773 -32.61523 v -0.012 l -34.0293,-0.012 v 0.018 h -22.11719 v -9.2598 H 115.32422 v 9.2578 H 68.947266 v -9.2578 z m 75.494145,9.0645 h 113.38476 v 19.4668 H 125.72852 Z m 188.97656,0 H 428.0918 v 19.4648 H 314.70508 Z m 264.56445,0 h 53.95703 9.01367 50.41797 v 19.4648 h -51.30078 -9.19336 -52.89453 z m 169.73242,0 h 113.38477 v 19.4648 H 749.00195 Z m 264.56645,0 h 113.3847 v 19.4648 h -113.3847 z m 188.9746,0 h 113.3886 v 19.4648 H 1202.543 Z M 84.871094,1491.8262 c 2.035275,0 3.6875,1.6502 3.6875,3.6855 0,2.0352 -1.652225,3.6836 -3.6875,3.6836 -2.035276,0 -3.681641,-1.6484 -3.681641,-3.6836 0,-2.0353 1.646365,-3.6855 3.681641,-3.6855 z m 837.382816,0 c 2.03527,-10e-5 3.68554,1.6484 3.68554,3.6836 0,2.0355 -1.65027,3.6855 -3.68554,3.6855 -2.03528,0 -3.6836,-1.6502 -3.6836,-3.6855 0,-2.0352 1.64832,-3.6836 3.6836,-3.6836 z m 31.4082,0 c 2.03527,0 3.68555,1.6484 3.68555,3.6836 0,2.0353 -1.65028,3.6855 -3.68555,3.6855 -2.03528,0 -3.68359,-1.6502 -3.68359,-3.6855 0,-2.0352 1.64831,-3.6837 3.68359,-3.6836 z m 403.08589,0 c 2.0353,0 3.6875,1.6484 3.6875,3.6836 0,2.0353 -1.6526,3.6855 -3.6875,3.6855 -2.0352,0 -3.6835,-1.6502 -3.6835,-3.6855 0,-2.0352 1.6483,-3.6836 3.6835,-3.6836 z m -837.49995,0.012 c 1.99748,0.044 3.60742,1.668 3.60742,3.6758 0,1.9951 -1.58902,3.6107 -3.56836,3.6738 -1.99748,-0.044 -3.60547,-1.668 -3.60547,-3.6758 0,-1.9951 1.58669,-3.6107 3.56641,-3.6738 z m -31.50196,0.012 c 1.90451,0.1433 3.41211,1.7172 3.41211,3.6582 0,1.9629 -1.53949,3.5506 -3.47461,3.6621 -1.90412,-0.1432 -3.41015,-1.7154 -3.41015,-3.6562 0,-1.963 1.53791,-3.5526 3.47265,-3.6641 z m -350.72851,6.5156 h 299.0625 l 15.22851,15.2344 -0.19336,0.4727 33.06446,33.0781 v 299.0703 l -48.8125,48.7871 h -20.93946 v 0.019 H 136.99219 l -48.789065,-48.8125 v -299.0625 z m 434.29492,0 h 60.50195 10.60743 73.95703 1.03906 152.95508 l 48.78906,48.8106 v 299.0664 l -48.81445,48.7851 h -85.39649 -154.90429 -45.0293 -13.73047 l -48.78906,-48.8125 v -299.0625 l 32.27734,-32.2578 z m 434.293,0 h 299.0644 l 48.7852,48.8106 v 299.0664 l -48.8106,48.789 h -299.0644 l -48.78518,-48.8124 v -299.0665 z m -97.71292,2.4336 c 5.00976,0 9.07031,4.0625 9.07031,9.0723 0,5.0098 -4.06055,9.0703 -9.07031,9.0703 -5.00977,0 -9.07031,-4.0605 -9.07031,-9.0703 0,-5.0098 4.06054,-9.0723 9.07031,-9.0723 z m 60.13476,0 c 5.00977,0 9.07032,4.0625 9.07032,9.0723 0,5.0098 -4.06055,9.0703 -9.07032,9.0703 -5.00976,0 -9.07421,-4.0605 -9.07422,-9.0703 0,-5.0098 4.06446,-9.0723 9.07422,-9.0723 z m -868.791012,0.01 c 5.009762,0 9.070312,4.0605 9.070312,9.0703 0,5.0098 -4.06055,9.0703 -9.070312,9.0703 -5.009764,0 -9.072266,-4.0605 -9.072266,-9.0703 10e-7,-5.0098 4.062502,-9.0703 9.072266,-9.0703 z m 1243.152372,0 c 5.0097,0 9.0703,4.0625 9.0703,9.0723 -4e-4,5.0098 -4.0606,9.0703 -9.0703,9.0703 -5.0098,0 -9.0723,-4.0605 -9.0723,-9.0703 0,-5.0098 4.0625,-9.0723 9.0723,-9.0723 z m -808.8262,0 h 0.002 a 9.0710631,9.0710631 0 0 1 0.0645,0 9.0710631,9.0710631 0 0 1 9.07226,9.0704 9.0710631,9.0710631 0 0 1 -9.07226,9.0722 9.0710631,9.0710631 0 0 1 -9.07032,-9.0722 9.0710631,9.0710631 0 0 1 9.00391,-9.0704 z m -60.27734,0.01 h 0.004 a 9.071063,9.071063 0 0 1 0.0625,0 9.071063,9.071063 0 0 1 9.07422,9.0703 9.071063,9.071063 0 0 1 -9.07422,9.0723 9.071063,9.071063 0 0 1 -9.06836,-9.0723 9.071063,9.071063 0 0 1 9.00196,-9.0703 z m 454.95898,54.3223 h 19.46484 v 113.3867 h -19.46484 z m -434.29492,0.022 h 19.10547 v 113.3808 h -19.10547 z m 0,188.9707 h 19.10547 v 113.3828 h -19.10547 z m 434.29492,0 h 19.46484 v 113.3867 h -19.46484 z m -454.95898,131.0429 h 0.004 a 9.0710628,9.0710628 0 0 1 0.0625,0 9.0710628,9.0710628 0 0 1 9.07422,9.0703 9.0710628,9.0710628 0 0 1 -9.07422,9.0723 9.0710628,9.0710628 0 0 1 -9.06836,-9.0723 9.0710628,9.0710628 0 0 1 9.00196,-9.0703 z m 434.60742,0 c 5.00976,0 9.07031,4.0605 9.07031,9.0703 0,5.0098 -4.06055,9.0704 -9.07031,9.0704 -5.00977,0 -9.07031,-4.0606 -9.07031,-9.0704 0,-5.0098 4.06054,-9.0703 9.07031,-9.0703 z m 60.13476,0 c 5.00977,0 9.07032,4.0605 9.07032,9.0703 0,5.0098 -4.06055,9.0704 -9.07032,9.0704 -5.00976,0 -9.07421,-4.0606 -9.07422,-9.0704 0,-5.0098 4.06446,-9.0703 9.07422,-9.0703 z m 374.36136,0 c 5.0097,0 9.0699,4.0605 9.0703,9.0703 -4e-4,5.0098 -4.0606,9.0704 -9.0703,9.0704 -5.0098,0 -9.0723,-4.0606 -9.0723,-9.0704 0,-5.0098 4.0625,-9.0703 9.0723,-9.0703 z m -1243.152372,0.01 c 5.009762,0 9.070312,4.0605 9.070312,9.0703 0,5.0098 -4.06055,9.0703 -9.070312,9.0703 -5.009764,0 -9.072266,-4.0605 -9.072266,-9.0703 10e-7,-5.0098 4.062502,-9.0703 9.072266,-9.0703 z m 434.326172,0.012 h 0.002 a 9.0710629,9.0710629 0 0 1 0.0645,0 9.0710629,9.0710629 0 0 1 9.07226,9.0703 9.0710629,9.0710629 0 0 1 -9.07226,9.0723 9.0710629,9.0710629 0 0 1 -9.07032,-9.0723 9.0710629,9.0710629 0 0 1 9.00391,-9.0703 z m -448.691406,19.7442 c 2.035275,0 3.6875,1.6521 3.6875,3.6875 0,2.0353 -1.652225,3.6836 -3.6875,3.6836 -2.035276,2e-4 -3.681641,-1.6483 -3.681641,-3.6836 0,-2.0354 1.646365,-3.6875 3.681641,-3.6875 z m 837.382816,0 c 2.03527,0 3.68554,1.6483 3.68554,3.6836 0,2.0353 -1.65027,3.6855 -3.68554,3.6855 -2.03528,0 -3.6836,-1.6502 -3.6836,-3.6855 0,-2.0353 1.64832,-3.6836 3.6836,-3.6836 z m 31.4082,0 c 2.03527,0 3.68555,1.6483 3.68555,3.6836 0,2.0353 -1.65028,3.6855 -3.68555,3.6855 -2.03528,0 -3.68359,-1.6502 -3.68359,-3.6855 0,-2.0353 1.64831,-3.6836 3.68359,-3.6836 z m 403.08589,0.012 c 2.0353,0 3.6875,1.6483 3.6875,3.6836 0,2.0353 -1.6526,3.6855 -3.6875,3.6855 -2.0352,10e-5 -3.6835,-1.6502 -3.6835,-3.6855 0,-2.0354 1.6479,-3.6837 3.6835,-3.6836 z m -837.48042,0.016 c 1.98916,0.053 3.58789,1.67 3.58789,3.6719 0,2.0044 -1.60471,3.6286 -3.59766,3.6777 -1.98425,-0.058 -3.57617,-1.6754 -3.57617,-3.6738 0,-2.0013 1.59791,-3.6218 3.58594,-3.6758 z m -31.46289,0.01 c 1.87653,0.1715 3.35351,1.7334 3.35351,3.6543 0,1.9832 -1.57011,3.5859 -3.5332,3.6679 -1.87578,-0.1711 -3.35156,-1.7296 -3.35156,-3.6504 0,-1.9832 1.56854,-3.5899 3.53125,-3.6718 z"
       transform="matrix(0.26458333,0,0,0.26458333,0,-351)" />
    <path
       id="path856-5"
       style="display:inline;fill:#ffcc00;fill-opacity:1;stroke:#0000ff;stroke-width:0.188308;stroke-linejoin:miter;stroke-miterlimit:4;stroke-dasharray:none"
       d="m 1250.3965,1973.668 -303.69728,0.01 v 0.01 H 815.50391 77.890625 v 84.8535 H 77.326172 58.615234 v 75.4336 h 18.712891 0.568359 v 75.4024 H 77.328125 58.615234 v 75.3203 h 18.710938 0.564453 v 51.4765 h -0.564453 v -0.01 H 58.615234 v 37.6054 h 18.710938 0.564453 v 37.795 h -0.564453 v 0.014 h 46.378908 v -3.5898 -9.2598 h 21.66406 L 96.558594,2349.9023 V 2050.877 l 48.826176,-48.8125 H 444.4082 l 48.8125,48.8261 v 299.0254 l -48.82422,48.8086 h 11.07032 v 9.2617 3.5899 h 113.19922 v -3.5899 -9.2617 h 11.07226 l -48.8125,-48.8223 V 2050.877 l 48.82617,-48.8125 h 299.02539 l 48.8086,48.8261 v 299.0254 l -48.82227,48.8086 h 11.20117 v 9.2598 3.5879 h 10.46875 46.37891 56.3535 v -3.5879 -9.2617 h 11.0703 v -0.014 h 0.5254 l -48.81248,-48.8223 V 2050.863 l 48.81448,-48.8008 h 298.5234 l 48.8125,48.8242 v 299.0254 l -48.8242,48.8106 h 21.668 v 9.2558 3.5918 h 45.8144 v -37.793 h 0.5664 18.709 v -37.6074 h -18.709 -0.5664 v -51.4746 h 0.5664 18.709 v -75.3203 h -18.1406 -0.5684 -0.5644 v -23.9551 -30.5859 -20.8633 h 0.5644 0.5684 18.1406 v -75.4316 h -18.709 -0.5664 v -84.8575 h -130.3613 c 7e-4,0 0,-0.01 0,-0.014 z m -319.56642,21.4863 0.006,0.012 a 3.6852379,3.6852379 0 0 1 1.11328,0.1719 3.6852379,3.6852379 0 0 1 0.15039,0.053 3.6852379,3.6852379 0 0 1 0.14648,0.059 3.6852379,3.6852379 0 0 1 0.29493,0.1367 3.6852379,3.6852379 0 0 1 0.14062,0.078 3.6852379,3.6852379 0 0 1 0.40234,0.2695 3.6852379,3.6852379 0 0 1 0.125,0.1016 3.6852379,3.6852379 0 0 1 0.23438,0.2187 3.6852379,3.6852379 0 0 1 0.11328,0.1152 3.6852379,3.6852379 0 0 1 0.10547,0.1211 3.6852379,3.6852379 0 0 1 0.2832,0.3887 3.6852379,3.6852379 0 0 1 0.15821,0.2793 3.6852379,3.6852379 0 0 1 0.0723,0.1445 3.6852379,3.6852379 0 0 1 0.0644,0.1465 3.6852379,3.6852379 0 0 1 0.27149,1.3926 3.6852379,3.6852379 0 0 1 -1.08789,2.6133 3.6852379,3.6852379 0 0 1 -2.45899,1.0703 3.6852379,3.6852379 0 0 1 -0.13476,0 3.6852379,3.6852379 0 0 1 -3.68555,-3.6856 3.6852379,3.6852379 0 0 1 3.68555,-3.6855 z m -837.572268,0.012 a 3.6852379,3.6852379 0 0 1 3.685547,3.6856 3.6852379,3.6852379 0 0 1 -3.685547,3.6855 3.6852379,3.6852379 0 0 1 -3.6875,-3.6855 3.6852379,3.6852379 0 0 1 3.6875,-3.6856 z m 403.085938,0 a 3.6852379,3.6852379 0 0 1 3.68555,3.6856 3.6852379,3.6852379 0 0 1 -3.68555,3.6855 3.6852379,3.6852379 0 0 1 -3.6875,-3.6855 3.6852379,3.6852379 0 0 1 3.6875,-3.6856 z m 31.40625,0 a 3.6852379,3.6852379 0 0 1 3.6875,3.6856 3.6852379,3.6852379 0 0 1 -3.6875,3.6855 3.6852379,3.6852379 0 0 1 -3.68555,-3.6855 3.6852379,3.6852379 0 0 1 3.68555,-3.6856 z m 434.56445,0 a 3.6852379,3.6852379 0 0 1 3.61328,3.6817 3.6852379,3.6852379 0 0 1 -3.38281,3.6738 3.6852379,3.6852379 0 0 1 -3.59961,-3.6836 3.6852379,3.6852379 0 0 1 3.36914,-3.6719 z m 403.01755,0 a 3.6852379,3.6852379 0 0 1 3.6836,3.6836 3.6852379,3.6852379 0 0 1 -3.6836,3.6856 3.6852379,3.6852379 0 0 1 -3.6855,-3.6856 3.6852379,3.6852379 0 0 1 3.6855,-3.6836 z m -388.61325,8.9688 h 0.002 a 9.0710631,9.0710631 0 0 1 0.0645,0 9.0710631,9.0710631 0 0 1 9.07226,9.0703 9.0710631,9.0710631 0 0 1 -9.07226,9.0722 9.0710631,9.0710631 0 0 1 -9.07032,-9.0722 9.0710631,9.0710631 0 0 1 9.00391,-9.0703 z m -869.17187,0.01 h 0.002 a 9.0710604,9.0710604 0 0 1 0.0645,0 9.0710604,9.0710604 0 0 1 9.07227,9.0703 9.0710604,9.0710604 0 0 1 -9.07227,9.0723 9.0710604,9.0710604 0 0 1 -9.070311,-9.0723 9.0710604,9.0710604 0 0 1 9.003911,-9.0703 z m 374.36718,0 a 9.0710614,9.0710614 0 0 1 0.0645,0 9.0710614,9.0710614 0 0 1 9.07226,9.0703 9.0710614,9.0710614 0 0 1 -9.07226,9.0723 9.0710614,9.0710614 0 0 1 -9.07032,-9.0723 9.0710614,9.0710614 0 0 1 9.00586,-9.0703 z m 60.12696,0 h 0.004 a 9.0710617,9.0710617 0 0 1 0.0645,0 9.0710617,9.0710617 0 0 1 9.07226,9.0723 9.0710617,9.0710617 0 0 1 -9.07226,9.0703 9.0710617,9.0710617 0 0 1 -9.07032,-9.0703 9.0710617,9.0710617 0 0 1 9.00196,-9.0723 z m 374.33398,0 h 0.002 a 9.071063,9.071063 0 0 1 0.0645,0 9.071063,9.071063 0 0 1 9.07226,9.0703 9.071063,9.071063 0 0 1 -9.07226,9.0723 9.071063,9.071063 0 0 1 -9.07032,-9.0723 9.071063,9.071063 0 0 1 9.00391,-9.0703 z m 434.5137,0 h 0.01 a 9.0710628,9.0710628 0 0 1 0.062,0 9.0710628,9.0710628 0 0 1 9.0723,9.0703 9.0710628,9.0710628 0 0 1 -9.0723,9.0703 9.0710628,9.0710628 0 0 1 -9.0703,-9.0703 9.0710628,9.0710628 0 0 1 8.9981,-9.0703 z m -848.55472,44.8496 h 19.46485 v 113.3868 h -19.46485 z m 434.6875,0 h 19.26954 v 113.3848 h -19.26954 z m -434.6875,188.9786 h 19.46485 V 2351.36 h -19.46485 z m 434.6875,0 h 19.26954 v 113.3847 h -19.26954 z m -829.4746,140.5273 h 0.002 a 9.0710606,9.0710606 0 0 1 0.0645,0 9.0710606,9.0710606 0 0 1 9.07227,9.0703 9.0710606,9.0710606 0 0 1 -9.07227,9.0723 9.0710606,9.0710606 0 0 1 -9.070311,-9.0723 9.0710606,9.0710606 0 0 1 9.003911,-9.0703 z m 374.36718,0 a 9.0710608,9.0710608 0 0 1 0.0645,0 9.0710608,9.0710608 0 0 1 9.07226,9.0703 9.0710608,9.0710608 0 0 1 -9.07226,9.0723 9.0710608,9.0710608 0 0 1 -9.07032,-9.0723 9.0710608,9.0710608 0 0 1 9.00586,-9.0703 z m 60.12696,0 h 0.004 a 9.0710611,9.0710611 0 0 1 0.0645,0 9.0710611,9.0710611 0 0 1 9.07226,9.0723 9.0710611,9.0710611 0 0 1 -9.07226,9.0703 9.0710611,9.0710611 0 0 1 -9.07032,-9.0703 9.0710611,9.0710611 0 0 1 9.00196,-9.0723 z m 374.33593,0 h 0.002 a 9.0710618,9.0710618 0 0 1 0.0644,0 9.0710618,9.0710618 0 0 1 9.07226,9.0703 9.0710618,9.0710618 0 0 1 -9.07226,9.0723 9.0710618,9.0710618 0 0 1 -9.07031,-9.0723 9.0710618,9.0710618 0 0 1 9.0039,-9.0703 z m 60.3418,0 h 0.002 a 9.0710629,9.0710629 0 0 1 0.0645,0 9.0710629,9.0710629 0 0 1 9.07226,9.0703 9.0710629,9.0710629 0 0 1 -9.07226,9.0723 9.0710629,9.0710629 0 0 1 -9.07032,-9.0723 9.0710629,9.0710629 0 0 1 9.00391,-9.0703 z m 374.16995,0 h 0.01 a 9.071063,9.071063 0 0 1 0.062,0 9.071063,9.071063 0 0 1 9.0723,9.0703 9.071063,9.071063 0 0 1 -9.0723,9.0703 9.071063,9.071063 0 0 1 -9.0703,-9.0703 9.071063,9.071063 0 0 1 8.9981,-9.0703 z m 14.4433,19.748 a 3.6852379,3.6852379 0 0 1 3.6856,3.6836 3.6852379,3.6852379 0 0 1 -3.6856,3.6856 3.6852379,3.6852379 0 0 1 -3.6855,-3.6856 3.6852379,3.6852379 0 0 1 3.6855,-3.6836 z m -434.47067,0.01 v 0.01 a 3.6852379,3.6852379 0 0 1 1.08789,0.1718 3.6852379,3.6852379 0 0 1 0.45117,0.1758 3.6852379,3.6852379 0 0 1 0.14258,0.07 3.6852379,3.6852379 0 0 1 0.79101,0.5547 3.6852379,3.6852379 0 0 1 0.11329,0.1133 3.6852379,3.6852379 0 0 1 0.66211,0.9082 3.6852379,3.6852379 0 0 1 0.13671,0.291 3.6852379,3.6852379 0 0 1 0.1543,0.4571 3.6852379,3.6852379 0 0 1 0.11719,0.7949 3.6852379,3.6852379 0 0 1 0,0.1406 3.6852379,3.6852379 0 0 1 0,0.1602 3.6852379,3.6852379 0 0 1 -0.16602,0.9492 3.6852379,3.6852379 0 0 1 -0.10937,0.3008 3.6852379,3.6852379 0 0 1 -0.92188,1.3086 3.6852379,3.6852379 0 0 1 -0.25,0.207 3.6852379,3.6852379 0 0 1 -0.26367,0.1855 3.6852379,3.6852379 0 0 1 -0.28125,0.1602 3.6852379,3.6852379 0 0 1 -0.44336,0.1933 3.6852379,3.6852379 0 0 1 -0.78125,0.1876 3.6852379,3.6852379 0 0 1 -0.46289,0.029 3.6852379,3.6852379 0 0 1 -2.375,-0.8691 3.6852379,3.6852379 0 0 1 -0.23828,-0.2187 3.6852379,3.6852379 0 0 1 -0.41211,-0.4942 3.6852379,3.6852379 0 0 1 -0.6582,-2.1015 3.6852379,3.6852379 0 0 1 0.0371,-0.4825 3.6852379,3.6852379 0 0 1 0.19336,-0.7812 3.6852379,3.6852379 0 0 1 0.10546,-0.252 3.6852379,3.6852379 0 0 1 0.0371,-0.045 3.6852379,3.6852379 0 0 1 0.0723,-0.1426 3.6852379,3.6852379 0 0 1 0.1582,-0.2773 3.6852379,3.6852379 0 0 1 0.50586,-0.625 3.6852379,3.6852379 0 0 1 0.24219,-0.2188 3.6852379,3.6852379 0 0 1 0.25781,-0.1953 3.6852379,3.6852379 0 0 1 0.27149,-0.1719 3.6852379,3.6852379 0 0 1 0.28711,-0.1484 3.6852379,3.6852379 0 0 1 0.29882,-0.1211 3.6852379,3.6852379 0 0 1 0.27149,-0.086 3.6852379,3.6852379 0 0 1 0.0645,-0.025 3.6852379,3.6852379 0 0 1 0.2832,-0.061 3.6852379,3.6852379 0 0 1 0.6211,-0.053 z m -837.603518,0.01 a 3.6852379,3.6852379 0 0 1 3.685547,3.6855 3.6852379,3.6852379 0 0 1 -3.685547,3.6856 3.6852379,3.6852379 0 0 1 -3.6875,-3.6856 3.6852379,3.6852379 0 0 1 3.6875,-3.6855 z m 403.085938,0 a 3.6852379,3.6852379 0 0 1 3.68555,3.6855 3.6852379,3.6852379 0 0 1 -3.68555,3.6856 3.6852379,3.6852379 0 0 1 -3.6875,-3.6856 3.6852379,3.6852379 0 0 1 3.6875,-3.6855 z m 31.40625,0 a 3.6852379,3.6852379 0 0 1 3.6875,3.6855 3.6852379,3.6852379 0 0 1 -3.6875,3.6856 3.6852379,3.6852379 0 0 1 -3.68555,-3.6856 3.6852379,3.6852379 0 0 1 3.68555,-3.6855 z m 434.56445,0 a 3.6852379,3.6852379 0 0 1 3.61328,3.6816 3.6852379,3.6852379 0 0 1 -3.38281,3.6738 3.6852379,3.6852379 0 0 1 -3.59961,-3.6836 3.6852379,3.6852379 0 0 1 3.36914,-3.6718 z"
       transform="matrix(0.26458333,0,0,0.26458333,0,-351)" />
    <path
       id="path1370"
       style="display:inline;opacity:1;fill:#ffcc00;fill-opacity:1;stroke:#0000ff;stroke-width:0.0574926;stroke-linejoin:miter;stroke-miterlimit:4;stroke-dasharray:none"
       d="m 476.08261,1.9264382 0.003,30.9598998 v 14.0358 29.9506 h 0.003 v 6e-4 l 4.95006,-6e-4 v 40.055492 h -4.95379 v 29.9573 h 4.95215 v 40.0296 h -4.95268 v 29.9574 h 12.14655 v -4.9496 -5e-4 -0.1499 h 8.21036 6.73963 8.21036 v 0.1499 4.9501 h 12.14271 V 91.935938 l 0.003,0.01 -0.003,-230.015408 h -12.14342 v 4.9501 0.1498 h -8.21036 -6.73966 -8.21033 v -0.1498 -4.9501 h -12.14655 v 29.9573 h 4.95216 v 40.029601 h -4.95216 v 29.9574 h 4.95216 V 1.9302382 Z m 37.40391,0 V -38.116069 h 5.1418 V 1.9264382 Z m 0,-69.9998072 v -40.042601 h 5.1418 v 40.042601 z m 0.003,254.996299 v -40.0425 h 5.14178 v 40.0423 z m 0,-69.9999 V 76.880538 h 5.14178 v 40.042492 z" />
    <path
       id="path1343-3-0-8-7"
       style="display:inline;fill:#ffcc00;stroke:#0000ff;stroke-width:0.188976;stroke-miterlimit:4;stroke-dasharray:none"
       d="m 864.42383,517.97266 v 18.70898 0.56641 H 751.22461 l -56.91992,0.0117 H 581.10742 v -0.56641 -18.70898 H 429.73633 v 18.70898 0.56641 H 316.53906 v -0.56641 -18.70898 H 165.17188 v 18.70898 0.56641 H 71.25 v 93.92187 H 70.681641 51.972656 V 782.55078 H 70.681641 71.25 V 895.74805 H 70.681641 51.972656 V 1047.1172 H 70.681641 71.25 v 113.1973 H 70.681641 51.972656 v 151.3671 H 70.681641 71.25 v 93.9219 h 93.92188 v 0.5664 18.709 h 151.32031 v -18.709 -0.5664 H 429.6875 v 0.5664 18.709 h 151.41992 v -18.709 -0.5664 h 113.19727 l 56.86914,-0.01 h 113.19726 v 0.5664 18.7089 h 151.41801 v -18.7089 -0.5664 h 113.1972 v 0.5664 18.7089 h 151.3692 v -18.7089 -0.5664 h 93.9218 v -93.9219 h 0.5665 18.7089 v -151.3692 h -18.7089 -0.5665 v -113.1972 h 0.5665 18.7089 V 895.73633 h -18.7089 -0.5665 V 782.53906 h 0.5665 18.7089 V 631.16992 h -18.7089 -0.5665 v -93.92187 h -93.9218 v -0.56641 -18.70898 h -151.3692 v 18.70898 0.56641 H 1015.791 v -0.56641 -18.70898 z m 65.95312,75.58984 h 19.46289 v 113.19727 h -19.46289 z m -434.6875,0.0117 h 19.4668 v 113.19726 h -19.4668 z m 380.76758,18.71094 h 0.0371 c 5.16661,-6.1e-4 9.35509,4.18712 9.35547,9.35351 3.8e-4,5.16711 -4.1881,9.35608 -9.35547,9.35547 -5.16624,-2.6e-4 -9.35389,-4.18904 -9.35352,-9.35547 3.8e-4,-5.15138 4.16567,-9.33269 9.31641,-9.35351 z m -307.4668,0.10742 c 0,0 0.0371,-8e-5 0.0371,0 5.16624,-6.1e-4 9.35472,4.18713 9.35547,9.35351 -7.5e-4,5.16632 -4.18923,9.35412 -9.35547,9.35352 -5.16585,-3.8e-4 -9.35313,-4.18792 -9.35351,-9.35352 3.8e-4,-5.15138 4.16529,-9.33269 9.3164,-9.35351 z m 106.4336,56.39648 h 94.29883 v 19.46485 h -94.29883 z m 254.95312,113.75391 h 19.46289 v 113.19726 h -19.46289 z m -434.6875,0.0117 h 19.4668 v 113.19726 h -19.4668 z m 254.77918,179.15418 113.9552,-0.0116 v 19.46679 l -113.9552,0.0116 z m 264.56437,1.1e-4 113.9553,-0.0117 v 19.46679 l -113.9553,0.0117 z m 188.9913,0 113.9405,-0.0117 v 19.46679 l -113.9405,0.0117 z m -1076.45985,-10e-6 113.4028,-1.1e-4 v 19.4668 l -113.4028,1.1e-4 z m 188.97461,0 113.41996,-2.3e-4 v 19.4668 l -113.41996,2.3e-4 z m 264.56836,0 113.41423,-1.1e-4 v 19.4668 l -113.41423,1.1e-4 z m 349.26953,85.41217 h 19.46289 v 113.1973 h -19.46289 z m -434.6875,0.014 h 19.4668 v 113.1953 h -19.4668 z m 434.6875,188.9707 h 19.46289 v 113.1953 h -19.46289 z m -434.6875,0.016 h 19.4668 v 113.1973 h -19.4668 z"
       transform="matrix(0.26458333,0,0,0.26458333,0,-351)"
       sodipodi:nodetypes="ccccccccccccccccccccccccccccccccccccccccccccccccccccccccccccccccccccccccccccccccccccccccccccccccccccccccsscssccccccscccccccccccccccccccccccccccccccccccccccccccccccccccccccccccccccccc" />
    <path
       id="path1328"
       style="display:inline;opacity:1;fill:#ffcc00;fill-opacity:1;stroke:#0000ff;stroke-width:0.188976;stroke-linejoin:miter;stroke-miterlimit:4;stroke-dasharray:none"
       d="M 1015.5605 155.72852 L 864.59375 155.73047 L 864.59375 174.38672 L 713.63086 174.38672 L 637.62109 174.38672 L 580.87305 174.38672 L 580.87305 155.74023 L 429.9082 155.74023 L 429.9082 174.39648 L 278.94531 174.39648 L 278.94531 155.74023 L 202.93359 155.74023 L 202.93359 174.39648 L 71.246094 174.39648 L 71.246094 205.18945 L 70.679688 205.18945 L 51.970703 205.18945 L 51.970703 251.0957 L 70.679688 251.0957 L 71.246094 251.0957 L 71.246094 258.31055 L 71.246094 331.41797 L 71.246094 338.63281 L 70.679688 338.63281 L 51.970703 338.63281 L 51.970703 384.54297 L 70.677734 384.54297 L 71.244141 384.54297 L 71.244141 391.75781 L 71.244141 464.86523 L 71.244141 472.08008 L 70.677734 472.08008 L 51.970703 472.08008 L 51.970703 517.98438 L 165.16602 517.98438 L 165.16602 499.27734 L 316.53711 499.27734 L 316.53711 517.98438 L 429.73438 517.98438 L 429.73438 499.27734 L 581.10352 499.27734 L 581.10352 517.98438 L 694.30078 517.98438 L 694.30078 517.97266 L 751.22461 517.97266 L 845.66992 517.97266 L 845.66992 517.98438 L 845.68164 517.97266 L 864.42383 517.97266 L 864.42383 499.26562 L 1015.793 499.26562 L 1015.793 517.97266 L 1128.9902 517.97266 L 1128.9902 499.26562 L 1280.3594 499.26562 L 1280.3594 517.97266 L 1393.5566 517.97266 L 1393.5566 472.06641 L 1374.8184 472.06641 L 1374.252 472.06641 L 1374.252 464.85352 L 1374.252 391.74414 L 1374.252 384.53125 L 1374.8184 384.53125 L 1393.5566 384.53125 L 1393.5566 338.61914 L 1374.8184 338.61914 L 1374.252 338.61914 L 1374.252 331.40625 L 1374.252 258.29688 L 1374.252 251.08398 L 1374.8184 251.08398 L 1393.5566 251.08398 L 1393.5566 205.17773 L 1374.8184 205.17773 L 1374.252 205.17773 L 1374.252 174.4375 L 1242.5742 174.4375 L 1242.5742 155.72852 L 1166.5234 155.72852 L 1166.5234 174.4375 L 1015.5605 174.4375 L 1015.5605 155.72852 z M 621.58594 382.03516 L 651.63477 382.03516 L 651.63477 394.81836 L 670.53125 394.81836 L 670.53125 409.67383 L 602.68945 409.67383 L 602.68945 426.76758 L 602.68945 441.62305 L 602.68945 444.64648 L 566.97266 444.64648 L 566.97266 403.26172 L 602.68945 403.26172 L 602.68945 394.81836 L 621.58594 394.81836 L 621.58594 382.03516 z M 626.02539 461.08789 L 818.96875 461.08789 L 818.96875 480.55273 L 626.02539 480.55273 L 626.02539 461.08789 z "
       transform="matrix(0.26458333,0,0,0.26458333,0,-351)" />
    <path
       id="path2021-3"
       style="display:inline;opacity:1;fill:#ffcc00;fill-opacity:1;stroke:#0000ff;stroke-width:0.0500002;stroke-linejoin:miter;stroke-miterlimit:4;stroke-dasharray:none"
       d="m 135.29231,-339.97485 -4.66018,5.3e-4 c 1.4e-4,7.9e-4 2.7e-4,0.002 5.3e-4,0.003 H 20.413021 v 4.41214 h -0.149863 -4.950084 v 4.95008 h 4.950084 0.149863 v 4.41214 h 34.847485 v -4.95009 h 20.121768 v 4.95009 h 39.941746 v -4.94285 h 39.94278 v 4.94285 h 39.93142 v -0.003 h 20.12176 v 0.003 l 15.02596,-0.003 v -4.94285 h 39.94279 v 4.94285 h 39.93139 v -4.95009 h 20.12178 v 4.95009 h 34.84284 v -4.41214 h 0.14986 4.95009 v -4.95008 h -4.95009 -0.14986 v -4.41213 z" />
    <g
       id="g3451" />
    <path
       style="opacity:1;fill:#ffcc00;stroke:#0000ff;stroke-width:0.0499946;stroke-miterlimit:4;stroke-dasharray:none"
       d="m 385.05885,371.33923 v 4.95009 h -19.9496 v 5.04981 h 19.9496 v 4.95009 h 25.0502 v -4.95009 h 19.9502 v -5.04981 h -19.9502 v -4.95009 z"
       id="path2177" />
    <text
       xml:space="preserve"
       style="font-style:normal;font-variant:normal;font-weight:normal;font-stretch:normal;font-size:50.8px;line-height:1.25;font-family:sans-serif;-inkscape-font-specification:'sans-serif, Normal';font-variant-ligatures:normal;font-variant-caps:normal;font-variant-numeric:normal;font-variant-east-asian:normal;opacity:1;fill:#000000;fill-opacity:1;stroke:#000000;stroke-width:0.264583"
       x="422.40073"
       y="-302.42953"
       id="text848"><tspan
         sodipodi:role="line"
         id="tspan846"
         x="422.40073"
         y="-302.42953"
         style="font-style:normal;font-variant:normal;font-weight:normal;font-stretch:normal;font-size:50.8px;font-family:sans-serif;-inkscape-font-specification:'sans-serif, Normal';font-variant-ligatures:normal;font-variant-caps:normal;font-variant-numeric:normal;font-variant-east-asian:normal;fill:#000000;stroke:#000000;stroke-width:0.264583">B5</tspan></text>
    <g
       id="g1202"
       transform="translate(62.105525,-259.91894)"
       style="stroke:#0000ff" />
    <path
       id="rect927-4"
       style="display:inline;opacity:1;fill:#ffcc00;stroke:#0000ff;stroke-width:0.0499999;stroke-miterlimit:4;stroke-dasharray:none"
       d="m 409.33865,235.4345 v 4.95009 h -19.9502 v 44.99983 h 90.95 v -44.99983 h -19.9501 v -4.95009 z m -15.2001,25.70024 a 1.7250233,1.7250234 0 0 1 1.725,1.72496 1.7250233,1.7250234 0 0 1 -1.725,1.72496 1.7250233,1.7250234 0 0 1 -1.7248,-1.72496 1.7250233,1.7250234 0 0 1 1.7248,-1.72496 z m 81.4498,0 a 1.7250233,1.7250234 0 0 1 1.725,1.72496 1.7250233,1.7250234 0 0 1 -1.725,1.72496 1.7250233,1.7250234 0 0 1 -1.7249,-1.72496 1.7250233,1.7250234 0 0 1 1.7249,-1.72496 z m -53.1998,14.20017 h 24.9499 v 5.15007 h -24.9499 z" />
    <path
       id="rect4636-8-6-8-3-5-5-2-8-6-1-9"
       style="display:inline;fill:#ffcc00;fill-opacity:1;stroke:#0000ff;stroke-width:0.0501134;stroke-linejoin:miter;stroke-miterlimit:4;stroke-dasharray:none"
       d="m 19.551143,363.3716 v 4.95009 0.14986 h -0.051 -9.9518 v 32.25022 l 9.998376,0.002 v 0 0.14986 l 3.71e-4,4.94802 h 29.946153 v -4.95009 -0.14986 h 0.055 6.0513 0.055 7.6822 0.055 6.0518 l 0.104643,-10e-4 v 0.14986 l -0.0011,4.95112 h 29.95012 v -4.95009 -0.14986 h 0.05 17.374694 v -16.09979 0 h 5.1495 v 0 16.09979 h 2.2759 v 0 h 9.9513 5.1469 l 0.10375,0.001 v 0.14986 l -0.002,4.9491 24.80182,-4e-5 h 5.147 v -4.95009 -0.14986 h 0.053 0.8526 0.054 5.1464 0.054 2.48205 0.054 5.14689 0.053 0.8527 0.054 v 0.14986 4.95009 h 5.1464 0.054 24.74972 l 2.9e-4,-4.95112 v -0.14986 l 0.10061,0.001 h 15.0983 2.2758 v -16.09979 0 h 5.14959 v 0 16.09979 h 17.3746 0.05 v 0.14986 4.95009 h 29.95416 l 0.001,-4.95009 v -0.14986 h 0.0984 6.0519 0.055 7.6827 0.054 6.0518 0.055 v 0.14986 4.95009 h 29.95012 l -4.8e-4,-4.94492 v -0.14986 0 l 9.99578,-0.005 v -32.25022 h -9.9524 -0.051 v -0.14986 -4.95009 h -29.8984 v 4.95009 0.14986 h -0.051 -6.1557 -0.052 -7.5856 -0.051 -6.1552 -0.052 v -0.14986 -4.95009 h -29.8979 v 4.95009 0.14986 h -0.05 -13.8436 -11.0086 -9.9524 -0.05 -5.1475 -0.05 v -0.14986 -4.95009 h -24.7024 -0.051 -5.1459 v 4.95009 0.14986 h -0.051 -0.9581 -0.051 -5.1459 -0.05 -2.39055 -0.051 -5.1459 -0.051 -0.9581 -0.051 v -0.14986 -4.95009 h -5.1459 -0.05 -24.7029 v 4.95009 0.14986 h -0.05 -5.1475 -10.002 -24.852694 -0.049 v -0.14986 -4.95009 h -29.8985 v 4.95009 0.14986 h -0.052 -6.1551 -0.051 -7.5856 -0.052 -6.1552 -0.052 v -0.14986 -4.95009 z m 4.9439,8.74985 h 0.1085 19.8417 0.1085 v 24.94992 h -0.1085 -19.8417 -0.1085 z m 49.8687,0 h 0.3225 19.6277 0.322 v 24.94992 h -0.322 -19.6277 -0.3225 z m 69.999397,0 h 0.324 19.6257 0.3245 v 24.94992 h -0.3245 -19.6257 -0.324 z m 44.80335,0 h 0.3246 19.6257 0.324 v 24.94992 h -0.324 -19.6257 -0.3246 z m 70.0015,0 h 0.3219 19.6283 0.3219 v 24.94992 h -0.3219 -19.6283 -0.3219 z m 50.0827,0 h 0.108 19.8422 0.108 v 24.94992 h -0.108 -19.8422 -0.108 z"
       sodipodi:nodetypes="cccccccccccccccccccccccccccccccccccccccccccccccccccccccccccccccccccccccccccccccccccccccccccccccccccccccccccccccccccccccccccccccccccccccccccccccccccccccccccccccccccccccccccccccccccccccccccccccccccccccccccccccccccccccc" />
    <path
       id="path2081-4-2-2"
       style="display:inline;fill:#ffcc00;fill-opacity:1;stroke:#0000ff;stroke-width:0.049938;stroke-linejoin:miter;stroke-miterlimit:4;stroke-dasharray:none"
       d="m 55.505848,353.15538 h 29.950115 v -4.9496 -0.1498 h 5.09994 v -5e-4 H 105.5059 v 0.1498 4.9501 h 29.95011 v -4.9501 -0.1498 h 25.09975 4.79918 10.15081 v 0.1498 4.9501 h 29.95476 v -4.9501 -0.1498 h 5.0953 9.8547 5.09529 v 0.1498 4.9501 h 29.95527 v -4.9501 -0.1498 h 9.92341 v -32.2513 H 255.459 v -0.1499 -4.9495 h -30.04986 v 4.9495 0.1499 h -5.0002 -9.94979 -5.0002 v -0.1499 -4.9495 h -29.99972 v 4.9495 0.1499 h -17.42529 v 16.1003 h -5.15007 v -16.1003 h -12.13259 v -0.1499 -4.795 l -5.2896,-2.1787 0.0574,-0.1385 1.88722,-4.5759 -27.68926,-11.4169 -1.88671,4.5765 -0.0574,0.1385 -13.822927,-5.6932 0.003,-0.01 -4.71599,-1.9426 0.0574,-0.1384 1.8867,-4.5765 -5.71231,-2.3466 -21.975915,-9.0703 -1.88722,4.5765 h -5.3e-4 l -0.0568,0.1385 -14.77739,-6.0865 h -1.28984 v 75.9406 h 10.02471 c 7e-5,1.6999 3e-5,3.3997 3e-5,5.0996 z m 9.10383,-14.7562 v -29.9501 h 29.949605 v 29.9501 z m 159.724102,3.5057 v -19.9497 h 29.95008 v 19.9497 z"
       sodipodi:nodetypes="cccccccccccccccccccccccccccccccccccccccccccccccccccccccccccccccccccccccccccccccccc" />
    <path
       id="path2081-4-2-2-6"
       style="display:inline;fill:#ffcc00;fill-opacity:1;stroke:#0000ff;stroke-width:0.049938;stroke-linejoin:miter;stroke-miterlimit:4;stroke-dasharray:none"
       d="m 490.18374,305.72134 h -29.95011 v 4.9496 0.1499 h -5.09994 v 5e-4 h -14.95 v -0.1499 -4.9501 h -29.9501 v 4.9501 0.1499 h -25.09975 -4.79918 -10.15082 v -0.1499 -4.9501 h -29.95476 v 4.9501 0.1499 h -5.0953 -9.8547 -5.09529 v -0.1499 -4.9501 h -29.95527 v 4.9501 0.1499 h -9.92341 v 32.2513 h 9.92547 v 0.1498 4.9496 h 30.04986 v -4.9496 -0.1498 h 5.0002 9.94979 5.0002 v 0.1498 4.9496 h 29.99972 v -4.9496 -0.1498 h 17.4253 v -16.1004 h 5.15007 v 16.1003 h 12.13259 v 0.1499 4.7951 l 5.2896,2.1786 -0.0574,0.1385 -1.88722,4.576 27.68925,11.41685 1.88671,-4.57645 0.0574,-0.1385 13.82293,5.69315 -0.003,0.01 4.71599,1.9425 -0.0574,0.1385 -1.8867,4.5765 5.71231,2.3466 21.97592,9.0702 1.88722,-4.5764 h 5.3e-4 l 0.0568,-0.1385 14.77739,6.0864 h 1.28984 v -75.94045 h -10.02471 c -7e-5,-1.6999 -3e-5,-3.3998 -3e-5,-5.0997 z m -9.10383,14.7563 v 29.95 h -29.9496 v -29.9501 z m -159.7241,-3.5058 v 19.9497 h -29.95008 v -19.9497 z"
       sodipodi:nodetypes="cccccccccccccccccccccccccccccccccccccccccccccccccccccccccccccccccccccccccccccccccc" />
    <path
       id="path2481-1-3-2-4-0-7"
       style="display:inline;fill:#ffcc00;fill-opacity:1;stroke:#0000ff;stroke-width:0.0574926;stroke-linejoin:miter;stroke-miterlimit:4;stroke-dasharray:none"
       d="m 396.02531,-271.91252 v 4.94956 0.14987 h -12.14602 v 24.85068 h 4.94956 0.14986 v 7.45019 32.59956 h -0.14986 -4.95009 v 29.94959 l 4.95009,5.3e-4 h 0.14986 v 7.45019 25.14937 7.45019 h -0.14986 -4.95009 v 29.9496 h 4.95009 0.14986 v 7.450702 25.148854 7.45072 h -0.14986 -4.95009 v 24.85017 h 12.14604 v 0.14986 4.95009 h 23.16136 v -4.94959 -0.14986 h 12.14295 V -152.75132 l 43.44334,-105.3853 h 4.95009 v -4.41368 h -4.95009 -0.14986 v -2.14923 -0.15554 -2.64532 h 0.14986 4.95009 v -4.41213 h -4.94906 -8.13334 v 4.95008 0.14986 h -1.17616 -9.79373 -1.17616 v -0.14986 -4.95008 h -23.16032 v 4.95008 0.14986 h -1.17721 -10.96987 v -0.14986 -4.95008 z m 4.69222,16.98036 a 2.3999997,2.3999997 0 0 1 0.0175,0 2.3999997,2.3999997 0 0 1 2.39985,2.39985 2.3999997,2.3999997 0 0 1 -2.39985,2.39985 2.3999997,2.3999997 0 0 1 -2.39985,-2.39985 2.3999997,2.3999997 0 0 1 2.38229,-2.39985 z m 39.15524,0 a 2.3999997,2.3999997 0 0 1 0.0175,0 2.3999997,2.3999997 0 0 1 2.39985,2.39985 2.3999997,2.3999997 0 0 1 -2.39985,2.39985 2.3999997,2.3999997 0 0 1 -2.39985,-2.39985 2.3999997,2.3999997 0 0 1 2.38228,-2.39985 z m 17.98598,11.45563 4.80745,1.98179 -7.62228,18.49086 -4.80795,-1.98179 z m -15.24506,36.9812 4.80746,1.98179 -7.62228,18.49035 -4.80745,-1.98179 z m -41.89616,0.66611 a 2.3999997,2.3999997 0 0 1 0.0175,0 2.3999997,2.3999997 0 0 1 2.39985,2.39986 2.3999997,2.3999997 0 0 1 -2.39985,2.39985 2.3999997,2.3999997 0 0 1 -2.39985,-2.39985 2.3999997,2.3999997 0 0 1 2.38229,-2.39986 z m 29.10004,30.42295 4.80798,1.98076 -3.8096,9.24594 -4.80796,-1.98075 z m -8.539,18.43918 h 5.14953 v 25.00055 h -5.14953 z m -20.56104,6.76548 a 2.3999998,2.3999998 0 0 1 0.0175,0 2.3999998,2.3999998 0 0 1 2.39985,2.39986 2.3999998,2.3999998 0 0 1 -2.39985,2.39985 2.3999998,2.3999998 0 0 1 -2.39985,-2.39985 2.3999998,2.3999998 0 0 1 2.38229,-2.39986 z m 20.56413,48.29266 h 5.14231 v 39.942276 h -5.14231 z m -20.56413,49.741676 a 2.3999998,2.3999998 0 0 1 0.0175,0 2.3999998,2.3999998 0 0 1 2.39985,2.39985 2.3999998,2.3999998 0 0 1 -2.39985,2.40038 2.3999998,2.3999998 0 0 1 -2.39985,-2.40038 2.3999998,2.3999998 0 0 1 2.38229,-2.39985 z" />
    <path
       id="path2481-1-3-2-4-0-7-9"
       style="display:inline;fill:#ffcc00;fill-opacity:1;stroke:#0000ff;stroke-width:0.0574926;stroke-linejoin:miter;stroke-miterlimit:4;stroke-dasharray:none"
       d="m 390.78683,-20.465352 v 4.94956 0.14987 H 378.64081 V 9.4847582 h 4.94956 0.14986 v 7.4501898 32.59956 h -0.14986 -4.95009 v 29.94959 l 4.95009,5.3e-4 h 0.14986 v 7.45019 25.149372 7.45019 h -0.14986 -4.95009 v 29.9496 h 4.95009 0.14986 v 7.4507 25.14885 7.45072 h -0.14986 -4.95009 v 24.85017 h 12.14604 v 0.14986 4.95009 h 23.16136 v -4.94959 -0.14986 h 12.14295 V 98.695848 L 469.53397,-6.6894518 h 4.95009 v -4.4136802 h -4.95009 -0.14986 v -2.14923 -0.15554 -2.64532 h 0.14986 4.95009 v -4.41213 h -4.94906 -8.13334 v 4.95008 0.14986 h -1.17616 -9.79373 -1.17616 v -0.14986 -4.95008 h -23.16032 v 4.95008 0.14986 h -1.17721 -10.96987 v -0.14986 -4.95008 z m 4.69222,16.9803602 a 2.3999997,2.3999997 0 0 1 0.0175,0 2.3999997,2.3999997 0 0 1 2.39985,2.39985 2.3999997,2.3999997 0 0 1 -2.39985,2.39985 2.3999997,2.3999997 0 0 1 -2.39985,-2.39985 2.3999997,2.3999997 0 0 1 2.38229,-2.39985 z m 39.15524,0 a 2.3999997,2.3999997 0 0 1 0.0175,0 2.3999997,2.3999997 0 0 1 2.39985,2.39985 2.3999997,2.3999997 0 0 1 -2.39985,2.39985 2.3999997,2.3999997 0 0 1 -2.39985,-2.39985 2.3999997,2.3999997 0 0 1 2.38228,-2.39985 z m 17.98598,11.45563 4.80745,1.98179 -7.62228,18.4908598 -4.80795,-1.98179 z m -15.24506,36.9811998 4.80746,1.98179 -7.62228,18.49035 -4.80745,-1.98179 z m -41.89616,0.66611 a 2.3999997,2.3999997 0 0 1 0.0175,0 2.3999997,2.3999997 0 0 1 2.39985,2.39986 2.3999997,2.3999997 0 0 1 -2.39985,2.39985 2.3999997,2.3999997 0 0 1 -2.39985,-2.39985 2.3999997,2.3999997 0 0 1 2.38229,-2.39986 z m 29.10004,30.42295 4.80798,1.98076 -3.8096,9.24594 -4.80796,-1.98075 z m -8.539,18.43918 h 5.14953 v 25.000552 h -5.14953 z m -20.56104,6.765482 a 2.3999998,2.3999998 0 0 1 0.0175,0 2.3999998,2.3999998 0 0 1 2.39985,2.39986 2.3999998,2.3999998 0 0 1 -2.39985,2.39985 2.3999998,2.3999998 0 0 1 -2.39985,-2.39985 2.3999998,2.3999998 0 0 1 2.38229,-2.39986 z m 20.56413,48.29266 h 5.14231 v 39.94227 h -5.14231 z m -20.56413,49.74167 a 2.3999998,2.3999998 0 0 1 0.0175,0 2.3999998,2.3999998 0 0 1 2.39985,2.39985 2.3999998,2.3999998 0 0 1 -2.39985,2.40038 2.3999998,2.3999998 0 0 1 -2.39985,-2.40038 2.3999998,2.3999998 0 0 1 2.38229,-2.39985 z" />
  </g>
</svg>
