<?xml version="1.0" encoding="UTF-8" standalone="no"?>
<svg
   xmlns:dc="http://purl.org/dc/elements/1.1/"
   xmlns:cc="http://creativecommons.org/ns#"
   xmlns:rdf="http://www.w3.org/1999/02/22-rdf-syntax-ns#"
   xmlns:svg="http://www.w3.org/2000/svg"
   xmlns="http://www.w3.org/2000/svg"
   xmlns:sodipodi="http://sodipodi.sourceforge.net/DTD/sodipodi-0.dtd"
   xmlns:inkscape="http://www.inkscape.org/namespaces/inkscape"
   width="420mm"
   height="297mm"
   viewBox="0 0 420 297"
   version="1.1"
   id="svg8"
   inkscape:version="1.0.2-2 (e86c870879, 2021-01-15)"
   sodipodi:docname="Mark_0.svg">
  <defs
     id="defs2" />
  <sodipodi:namedview
     id="base"
     pagecolor="#ffffff"
     bordercolor="#666666"
     borderopacity="1.0"
     inkscape:pageopacity="0.0"
     inkscape:pageshadow="2"
     inkscape:zoom="0.5"
     inkscape:cx="1028.7504"
     inkscape:cy="748.39088"
     inkscape:document-units="mm"
     inkscape:current-layer="layer2"
     showgrid="false"
     showguides="true"
     inkscape:window-width="3840"
     inkscape:window-height="1537"
     inkscape:window-x="-8"
     inkscape:window-y="292"
     inkscape:window-maximized="1"
     inkscape:document-rotation="0"
     inkscape:snap-object-midpoints="true"
     inkscape:snap-global="false">
    <inkscape:grid
       type="xygrid"
       id="grid19" />
  </sodipodi:namedview>
  <metadata
     id="metadata5">
    <rdf:RDF>
      <cc:Work
         rdf:about="">
        <dc:format>image/svg+xml</dc:format>
        <dc:type
           rdf:resource="http://purl.org/dc/dcmitype/StillImage" />
        <dc:title></dc:title>
      </cc:Work>
    </rdf:RDF>
  </metadata>
  <g
     inkscape:label="Layer 1"
     inkscape:groupmode="layer"
     id="layer1"
     transform="translate(0,351)" />
  <g
     inkscape:groupmode="layer"
     id="layer2"
     inkscape:label="guide"
     transform="translate(0,351)"
     style="display:inline">
    <g
       id="g3451" />
    <path
       id="path2177"
       style="fill:#c8ab37;stroke:#0000ff;stroke-width:0.0499946;stroke-miterlimit:4;stroke-dasharray:none"
       d="m 281.94377,-267.19253 v 4.95009 0.14986 h -19.94969 v 4.75009 h 19.94969 v 0.14986 4.95009 h 25.05014 v -4.95009 -0.14986 h 19.9502 v -4.75009 h -19.9502 v -0.14986 -4.95009 z" />
    <path
       id="path2154"
       style="fill:#c8ab37;stroke:#0000ff;stroke-width:0.0499986;stroke-miterlimit:4;stroke-dasharray:none"
       d="m 278.38566,-323.78576 v 4.95006 0.15039 h -19.95019 v 44.84947 h 64.95002 v -44.84997 H 303.4358 v -0.14989 -4.95006 z m -15.02492,25.70022 a 1.7250233,1.7250234 0 0 1 1.72495,1.72498 1.7250233,1.7250234 0 0 1 -1.72495,1.72495 1.7250233,1.7250234 0 0 1 -1.72495,-1.72495 1.7250233,1.7250234 0 0 1 1.72495,-1.72498 z m 55.09998,0 a 1.7250233,1.7250234 0 0 1 1.72498,1.72498 1.7250233,1.7250234 0 0 1 -1.72498,1.72495 1.7250233,1.7250234 0 0 1 -1.72495,-1.72495 1.7250233,1.7250234 0 0 1 1.72495,-1.72498 z m -40.02495,14.20016 h 24.94992 v 5.15009 h -24.94992 z" />
    <text
       xml:space="preserve"
       style="font-style:normal;font-variant:normal;font-weight:normal;font-stretch:normal;font-size:50.8px;line-height:1.25;font-family:sans-serif;-inkscape-font-specification:'sans-serif, Normal';font-variant-ligatures:normal;font-variant-caps:normal;font-variant-numeric:normal;font-variant-east-asian:normal;fill:#000000;fill-opacity:1;stroke:none;stroke-width:0.264583"
       x="6.4085474"
       y="-298.03018"
       id="text848"><tspan
         sodipodi:role="line"
         id="tspan846"
         x="6.4085474"
         y="-298.03018"
         style="font-style:normal;font-variant:normal;font-weight:normal;font-stretch:normal;font-size:50.8px;font-family:sans-serif;-inkscape-font-specification:'sans-serif, Normal';font-variant-ligatures:normal;font-variant-caps:normal;font-variant-numeric:normal;font-variant-east-asian:normal;stroke-width:0.264583">B5</tspan></text>
    <path
       id="path2481-1-9-5-0"
       style="display:inline;fill:#c8ab37;fill-opacity:1;stroke:#0000ff;stroke-width:0.0574926;stroke-linejoin:miter;stroke-miterlimit:4;stroke-dasharray:none"
       d="m 196.62962,-206.69458 v 4.22197 0.7276 0.14986 h 12.14602 v 24.85068 h -3.26596 -1.6836 -0.14986 v 20.09955 h -5.3e-4 v 19.9502 h 0.14986 2.24483 2.70526 v 29.95011 h -4.71858 -0.23151 -0.14986 v 24.16133 l -7.04247,0.0108 v -4.66897 -0.28112 -0.14986 h -3.21013 -16.74007 -3.21014 v 0.14986 0.94258 4.00751 l -12.14757,-0.0108 v -4.9501 l -43.44337,-105.3853 h -4.95007 v -4.41368 h 3.29642 1.65365 0.14986 v -2.29702 -1.44745 -1.20561 h -0.14986 -0.52917 -4.4209 v -4.41214 h 4.95007 8.13337 v 3.75946 1.19063 0.14986 h 2.67994 4.83483 4.63124 v -0.14986 -1.28985 -3.66024 h 23.16036 v 4.05712 0.89297 0.14986 h 2.28357 4.73511 5.12787 v -0.14986 -1.55443 -3.39566 z m -4.69275,16.98036 a 2.3999996,2.3999996 0 0 0 -0.0176,0 2.3999996,2.3999996 0 0 0 -2.39985,2.39985 2.3999996,2.3999996 0 0 0 2.39985,2.39986 2.3999996,2.3999996 0 0 0 2.39985,-2.39986 2.3999996,2.3999996 0 0 0 -2.38228,-2.39985 z m -39.15525,0 a 2.3999996,2.3999996 0 0 0 -0.0176,0 2.3999996,2.3999996 0 0 0 -2.39985,2.39985 2.3999996,2.3999996 0 0 0 2.39985,2.39986 2.3999996,2.3999996 0 0 0 2.39985,-2.39986 2.3999996,2.3999996 0 0 0 -2.38228,-2.39985 z m -17.98598,11.45563 -4.80745,1.98179 7.62227,18.49086 4.80799,-1.98179 z m 15.24508,36.98121 -4.80748,1.98179 7.62228,18.49034 4.80748,-1.98179 z m 41.89615,0.66611 a 2.3999997,2.3999997 0 0 0 -0.0176,0 2.3999997,2.3999997 0 0 0 -2.39985,2.39985 2.3999997,2.3999997 0 0 0 2.39985,2.39985 2.3999997,2.3999997 0 0 0 2.39985,-2.39985 2.3999997,2.3999997 0 0 0 -2.38228,-2.39985 z m -29.10005,30.42294 -4.80796,1.98076 3.80958,9.24595 4.80798,-1.98076 z" />
    <path
       id="path2481-1-9-5-0-1"
       style="display:inline;fill:#c8ab37;fill-opacity:1;stroke:#0000ff;stroke-width:0.0574926;stroke-linejoin:miter;stroke-miterlimit:4;stroke-dasharray:none"
       d="m 22.998977,-206.8174 v 4.22197 0.7276 0.14986 h -12.14601 v 24.85068 h 3.26596 1.6836 0.14986 v 20.09955 h 5.3e-4 v 19.9502 h -0.14986 -2.24483 -2.70526 v 29.95012 h 4.71858 0.23151 0.14986 v 24.161326 l 7.04246,0.0108 v -4.66897 -0.28112 -0.14986 h 3.21014 16.74005 3.21014 v 0.14986 0.94258 4.00751 l 12.14758,-0.0108 v -4.9501 L 101.74665,-193.0415 h 4.95007 v -4.41368 h -3.29642 -1.65365 -0.14986 v -2.29702 -1.44745 -1.20561 h 0.14986 0.52917 4.4209 v -4.41214 h -4.95007 -8.133376 v 3.75946 1.19063 0.14986 h -2.679937 -4.83483 -4.63124 v -0.14986 -1.28985 -3.66024 h -23.16036 v 4.05712 0.89297 0.14986 h -2.28356 -4.73512 -5.12786 v -0.14986 -1.55443 -3.39566 z m 4.69276,16.98036 a 2.3999996,2.3999996 0 0 1 0.0176,0 2.3999996,2.3999996 0 0 1 2.39985,2.39985 2.3999996,2.3999996 0 0 1 -2.39985,2.39986 2.3999996,2.3999996 0 0 1 -2.39985,-2.39986 2.3999996,2.3999996 0 0 1 2.38228,-2.39985 z m 39.15523,0 a 2.3999996,2.3999996 0 0 1 0.0176,0 2.3999996,2.3999996 0 0 1 2.39986,2.39985 2.3999996,2.3999996 0 0 1 -2.39986,2.39986 2.3999996,2.3999996 0 0 1 -2.39985,-2.39986 2.3999996,2.3999996 0 0 1 2.38229,-2.39985 z m 17.98598,11.45563 4.80745,1.98179 -7.62227,18.49086 -4.80798,-1.98179 z m -15.24508,36.98121 4.80748,1.98179 -7.62227,18.49034 -4.80748,-1.98179 z m -41.89613,0.66611 a 2.3999997,2.3999997 0 0 1 0.0176,0 2.3999997,2.3999997 0 0 1 2.39985,2.39985 2.3999997,2.3999997 0 0 1 -2.39985,2.39985 2.3999997,2.3999997 0 0 1 -2.39985,-2.39985 2.3999997,2.3999997 0 0 1 2.38228,-2.39985 z m 29.10004,30.42295 4.80795,1.98076 -3.80958,9.245946 -4.80798,-1.980756 z" />
    <path
       id="path1072"
       style="display:inline;fill:#c8ab37;fill-opacity:1;stroke:#0000ff;stroke-width:0.0501213;stroke-miterlimit:4;stroke-dasharray:none"
       d="m 111.59997,-337.27871 v 4.95009 0.14986 H 86.74983 v 24.85017 h -0.14986 -4.950093 v 40.04975 h 4.950093 0.14986 v 9.19478 11.56054 9.19478 h -0.14986 -4.950093 v 24.16135 h 5.084233 l 0.0109,-5.09598 24.85017,-0.004 v 5.10048 l 65.09289,0.003 v -5.10257 l 24.85017,0.003 0.0177,5.10326 5.08733,-0.007 -2.4e-4,-24.16132 h -4.95009 -0.14986 v -9.19478 -11.56054 -9.19478 h 0.14986 4.95009 v -40.04967 h -4.95009 -0.14986 v -24.85017 h -24.85067 v -0.14986 -4.95009 h -25.04345 -14.84974 z m 4.99504,24.45019 c 1.64306,0 2.97506,1.33195 2.97503,2.97501 0,1.64304 -1.33202,2.97502 -2.97503,2.97502 -1.64309,3e-5 -2.975,-1.33195 -2.975,-2.97502 -5e-5,-1.64306 1.33191,-2.97504 2.975,-2.97501 z m 55.10001,0 c 1.64304,0 2.975,1.33195 2.975,2.97501 0,1.64304 -1.33199,2.97502 -2.975,2.97502 -1.64306,0 -2.975,-1.33198 -2.975,-2.97502 -3e-5,-1.64306 1.33191,-2.97501 2.975,-2.97501 z m -40.02495,15.45022 h 24.94989 v 5.15007 h -24.94989 z"
       sodipodi:nodetypes="cccccccccccccccccccccccccccccccccccccccccccssssssssssccccc" />
    <path
       id="path2021-5"
       style="display:inline;fill:#c8ab37;fill-opacity:1;stroke:#0000ff;stroke-width:0.0500002;stroke-linejoin:miter;stroke-miterlimit:4;stroke-dasharray:none"
       d="m 116.54234,-185.89317 h -4.41214 v -0.14986 -4.95006 h -4.95007 v 4.95006 0.15039 H 102.768 v 34.84698 h 4.95008 0.14986 v 0.17155 13.44105 3.85558 12.96975 5.82805 8.83668 h -0.14986 -4.95008 v 34.842819 h 4.41213 v 0.14986 4.95009 h 4.95007 v -4.95009 -0.14986 h 4.41214 v -62.413739 -0.4377 z" />
    <path
       id="path1961-0-1-8-0"
       style="display:inline;fill:#c8ab37;fill-opacity:1;stroke:#0000ff;stroke-width:0.0499999;stroke-linejoin:miter;stroke-miterlimit:4;stroke-dasharray:none"
       d="m 257.70892,-220.96049 v 1.19424 3.74189 0.14986 h -14.89159 -5.05809 -14.89263 v 7.99693 h -0.14987 -2.2443 -2.70526 v 12.14654 h 4.94956 0.14987 v 3.21066 16.73955 3.21065 h -0.14987 -4.94956 v 12.14758 h 4.94956 0.14987 v 3.21066 16.73954 3.21066 h -0.14987 -4.94956 v 12.145 h 29.94907 v -4.94957 -0.14986 h 20.10007 12.19615 2.16679 10.67946 1.90117 18.04903 v 0.14986 4.94957 h 29.9501 v -12.14603 h -4.95784 -0.14986 v -3.20963 -16.74057 -3.20963 h 0.14986 4.95784 v -12.14861 h -4.95784 -0.14986 v -9.42733 -10.52235 -3.21015 h 0.14986 4.95784 v -12.14654 h -2.04742 -2.91042 -0.15036 v -7.98298 H 302.8116 v -0.14986 -3.37343 -1.57665 z m 9.02994,59.87799 h 7.95042 v 3.38223 h 4.9997 v 3.93051 h -17.94981 v 4.52272 3.93051 0.79995 h -9.45007 v -10.94972 h 9.45007 v -2.23397 h 4.99969 z m 0.99994,20.91604 h 25.05015 v 5.15059 H 267.7388 Z" />
    <path
       id="path1145-0"
       style="display:inline;fill:#c8ab37;fill-opacity:1;stroke:#0000ff;stroke-width:0.0498232;stroke-linejoin:miter;stroke-miterlimit:4;stroke-dasharray:none"
       d="m 220.93964,-339.99479 v 22.45032 h -0.14986 -1.91771 -3.03238 v 19.95848 h 4.95112 0.14987 v 1.49706 7.27449 11.17865 h -0.14987 -4.95112 v 9.20718 h -5.3e-4 v 10.72131 h 5.3e-4 4.94957 5.3e-4 0.14935 v 13.61984 h -0.14986 v -0.003 h -4.95009 v 9.94977 h 4.95009 0.14986 v 9.99992 h -0.14986 v 0.004 h 0.15037 12.1207 v -0.94983 -2.44996 h 5.73247 l -12.91497,-12.91757 v -27.45519 -51.66196 l 12.91858,-12.91497 h 51.20464 27.87842 l 12.91447,12.91859 v 51.43045 27.68668 l -12.91809,12.91394 h 5.73352 v 2.44996 0.94983 h 12.12122 v -9.9999 h 0.14986 4.95009 v -9.94979 h -4.95009 -0.14986 v -13.61984 h 0.14986 4.95009 v -10.50271 -9.42578 h -4.94959 -0.14986 v -11.1125 -6.59133 -2.24637 h 0.14986 4.94959 v -19.95847 h -1.77509 -3.175 -0.15039 v -22.45032 l -45.49803,-5.3e-4 v -5.3e-4 z m 110.71522,5.68287 a 0.97505252,0.97505252 0 0 1 0.97512,0.97514 0.97505252,0.97505252 0 0 1 -0.97512,0.97513 0.97505252,0.97505252 0 0 1 -0.97515,-0.97513 0.97505252,0.97505252 0 0 1 0.97515,-0.97514 z m -106.64984,10e-4 a 0.97505252,0.97505252 0 0 1 0.97514,0.97462 0.97505252,0.97505252 0 0 1 -0.97514,0.97513 0.97505252,0.97505252 0 0 1 -0.97513,-0.97513 0.97505252,0.97505252 0 0 1 0.97513,-0.97462 z m 102.83249,2.37402 a 2.4000521,2.4000521 0 0 1 0.0175,0 2.4000521,2.4000521 0 0 1 2.39988,2.39985 2.4000521,2.4000521 0 0 1 -2.39988,2.40037 2.4000521,2.4000521 0 0 1 -2.40035,-2.40037 2.4000521,2.4000521 0 0 1 2.38278,-2.39985 z m -99.04978,5.2e-4 a 2.400052,2.400052 0 0 1 0.0176,0 2.400052,2.400052 0 0 1 2.39985,2.39986 2.400052,2.400052 0 0 1 -2.39985,2.39985 2.400052,2.400052 0 0 1 -2.40036,-2.39985 2.400052,2.400052 0 0 1 2.38279,-2.39986 z m -0.001,99.0482 v 0 a 2.400052,2.400052 0 0 1 0.0171,0 2.400052,2.400052 0 0 1 0.002,0 2.400052,2.400052 0 0 1 0.0656,0 2.400052,2.400052 0 0 1 0.002,0 2.400052,2.400052 0 0 1 0.0651,0.003 2.400052,2.400052 0 0 1 0.002,0 2.400052,2.400052 0 0 1 0.0656,0.007 2.400052,2.400052 0 0 1 0.002,0 2.400052,2.400052 0 0 1 0.0651,0.006 2.400052,2.400052 0 0 1 0.003,0 2.400052,2.400052 0 0 1 0.0646,0.008 2.400052,2.400052 0 0 1 0.003,0 2.400052,2.400052 0 0 1 0.0651,0.0103 2.400052,2.400052 0 0 1 0.001,0 2.400052,2.400052 0 0 1 0.0646,0.0119 2.400052,2.400052 0 0 1 0.38604,0.1106 2.400052,2.400052 0 0 1 0.003,0 2.400052,2.400052 0 0 1 0.12247,0.0506 2.400052,2.400052 0 0 1 0.003,0 2.400052,2.400052 0 0 1 0.11937,0.0574 2.400052,2.400052 0 0 1 0.002,0 2.400052,2.400052 0 0 1 1.30172,2.13424 2.400052,2.400052 0 0 1 -0.23461,1.03663 2.400052,2.400052 0 0 1 -5.3e-4,0 2.400052,2.400052 0 0 1 -0.0295,0.0594 2.400052,2.400052 0 0 1 -5.3e-4,0 2.400052,2.400052 0 0 1 -0.4315,0.59375 2.400052,2.400052 0 0 1 -0.0481,0.047 2.400052,2.400052 0 0 1 -0.0956,0.0868 2.400052,2.400052 0 0 1 -0.003,0.003 2.400052,2.400052 0 0 1 -5.2e-4,0 2.400052,2.400052 0 0 1 -0.009,0.007 2.400052,2.400052 0 0 1 -0.35088,0.24546 2.400052,2.400052 0 0 1 -0.0243,0.014 2.400052,2.400052 0 0 1 -5.4e-4,0 2.400052,2.400052 0 0 1 -0.0584,0.0315 2.400052,2.400052 0 0 1 -5.2e-4,0 2.400052,2.400052 0 0 1 -0.0295,0.0151 2.400052,2.400052 0 0 1 -0.0589,0.0289 2.400052,2.400052 0 0 1 -0.0315,0.0164 2.400052,2.400052 0 0 1 -5.2e-4,0 2.400052,2.400052 0 0 1 -0.061,0.0265 2.400052,2.400052 0 0 1 -9.9e-4,0 2.400052,2.400052 0 0 1 -0.0615,0.0265 2.400052,2.400052 0 0 1 -5.2e-4,0 2.400052,2.400052 0 0 1 -0.0393,0.0146 2.400052,2.400052 0 0 1 -0.045,0.0161 2.400052,2.400052 0 0 1 -0.0413,0.0156 2.400052,2.400052 0 0 1 -0.74207,0.11781 2.400052,2.400052 0 0 1 -2.40035,-2.39985 2.400052,2.400052 0 0 1 0.18035,-0.91416 2.400052,2.400052 0 0 1 5.2e-4,0 2.400052,2.400052 0 0 1 1.33842,-1.31775 2.400052,2.400052 0 0 1 0.0119,-0.006 2.400052,2.400052 0 0 1 0.001,0 2.400052,2.400052 0 0 1 0.0155,-0.005 2.400052,2.400052 0 0 1 0.11059,-0.0393 2.400052,2.400052 0 0 1 0.71675,-0.11834 z m 99.04875,0 a 2.4000521,2.4000521 0 0 1 0.0175,0 2.4000521,2.4000521 0 0 1 2.40038,2.39985 2.4000521,2.4000521 0 0 1 -1.46968,2.21226 2.4000521,2.4000521 0 0 1 -0.12298,0.0481 2.4000521,2.4000521 0 0 1 -0.003,0 2.4000521,2.4000521 0 0 1 -0.18962,0.0589 2.4000521,2.4000521 0 0 1 -0.003,0 2.4000521,2.4000521 0 0 1 -0.26252,0.0537 2.4000521,2.4000521 0 0 1 -0.34933,0.0259 2.4000521,2.4000521 0 0 1 -0.004,0 2.4000521,2.4000521 0 0 1 -0.0651,0 2.4000521,2.4000521 0 0 1 -0.003,0 2.4000521,2.4000521 0 0 1 -0.0646,-0.003 2.4000521,2.4000521 0 0 1 -0.003,0 2.4000521,2.4000521 0 0 1 -0.0651,-0.005 2.4000521,2.4000521 0 0 1 -0.003,0 2.4000521,2.4000521 0 0 1 -0.0651,-0.006 2.4000521,2.4000521 0 0 1 -0.003,0 2.4000521,2.4000521 0 0 1 -0.0641,-0.008 2.4000521,2.4000521 0 0 1 -0.11576,-0.0191 2.4000521,2.4000521 0 0 1 -0.0185,-0.004 2.4000521,2.4000521 0 0 1 -0.0103,-0.003 2.4000521,2.4000521 0 0 1 -0.37414,-0.10803 2.4000521,2.4000521 0 0 1 -0.003,0 2.4000521,2.4000521 0 0 1 -0.24286,-0.1085 2.4000521,2.4000521 0 0 1 -0.003,0 2.4000521,2.4000521 0 0 1 -1.30173,-2.13477 2.4000521,2.4000521 0 0 1 1.17099,-2.06136 2.4000521,2.4000521 0 0 1 0.0563,-0.0331 2.4000521,2.4000521 0 0 1 0.003,0 2.4000521,2.4000521 0 0 1 0.0574,-0.031 2.4000521,2.4000521 0 0 1 0.003,0 2.4000521,2.4000521 0 0 1 0.0584,-0.03 2.4000521,2.4000521 0 0 1 0.003,0 2.4000521,2.4000521 0 0 1 0.0589,-0.0279 2.4000521,2.4000521 0 0 1 0.003,0 2.4000521,2.4000521 0 0 1 0.06,-0.0269 2.4000521,2.4000521 0 0 1 0.003,0 2.4000521,2.4000521 0 0 1 0.0605,-0.0249 2.4000521,2.4000521 0 0 1 0.004,0 2.4000521,2.4000521 0 0 1 0.0615,-0.0228 2.4000521,2.4000521 0 0 1 0.003,0 2.4000521,2.4000521 0 0 1 0.12557,-0.0408 2.4000521,2.4000521 0 0 1 0.003,0 2.4000521,2.4000521 0 0 1 0.063,-0.0175 2.4000521,2.4000521 0 0 1 0.003,0 2.4000521,2.4000521 0 0 1 0.0636,-0.0156 2.4000521,2.4000521 0 0 1 0.003,0 2.4000521,2.4000521 0 0 1 0.0641,-0.014 2.4000521,2.4000521 0 0 1 0.003,0 2.4000521,2.4000521 0 0 1 0.0641,-0.0119 2.4000521,2.4000521 0 0 1 0.003,0 2.4000521,2.4000521 0 0 1 0.0646,-0.0103 2.4000521,2.4000521 0 0 1 0.33333,-0.0265 l -0.008,-0.005 z m -102.83972,5.2193 a 0.97505252,0.97505252 0 0 1 0.01,0 l -0.001,0.005 a 0.97505252,0.97505252 0 0 1 0.0429,0 0.97505252,0.97505252 0 0 1 5.3e-4,0 0.97505252,0.97505252 0 0 1 0.0419,0.003 0.97505252,0.97505252 0 0 1 5.3e-4,0 0.97505252,0.97505252 0 0 1 0.0419,0.005 0.97505252,0.97505252 0 0 1 5.3e-4,0 0.97505252,0.97505252 0 0 1 0.0424,0.007 0.97505252,0.97505252 0 0 1 5.3e-4,0 0.97505252,0.97505252 0 0 1 0.0408,0.008 0.97505252,0.97505252 0 0 1 5.3e-4,0 0.97505252,0.97505252 0 0 1 0.0408,0.0103 0.97505252,0.97505252 0 0 1 5.3e-4,0 0.97505252,0.97505252 0 0 1 0.0408,0.0119 0.97505252,0.97505252 0 0 1 5.2e-4,0 0.97505252,0.97505252 0 0 1 0.0398,0.014 0.97505252,0.97505252 0 0 1 5.3e-4,0 0.97505252,0.97505252 0 0 1 0.0398,0.0156 0.97505252,0.97505252 0 0 1 5.3e-4,0 0.97505252,0.97505252 0 0 1 0.0377,0.0169 0.97505252,0.97505252 0 0 1 0.001,0 0.97505252,0.97505252 0 0 1 0.0372,0.019 0.97505252,0.97505252 0 0 1 5.4e-4,0 0.97505252,0.97505252 0 0 1 0.0372,0.0206 0.97505252,0.97505252 0 0 1 0.001,0 0.97505252,0.97505252 0 0 1 0.0357,0.0222 0.97505252,0.97505252 0 0 1 5.3e-4,0 0.97505252,0.97505252 0 0 1 0.0351,0.0238 0.97505252,0.97505252 0 0 1 5.3e-4,0 0.97505252,0.97505252 0 0 1 0.0336,0.0254 0.97505252,0.97505252 0 0 1 5.3e-4,0 0.97505252,0.97505252 0 0 1 0.0331,0.0269 0.97505252,0.97505252 0 0 1 5.4e-4,0 0.97505252,0.97505252 0 0 1 0.0315,0.0279 0.97505252,0.97505252 0 0 1 5.3e-4,0 0.97505252,0.97505252 0 0 1 0.03,0.03 0.97505252,0.97505252 0 0 1 0.28371,0.68731 0.97505252,0.97505252 0 0 1 -0.0455,0.29453 0.97505252,0.97505252 0 0 1 -0.0134,0.0398 0.97505252,0.97505252 0 0 1 -5.4e-4,0 0.97505252,0.97505252 0 0 1 -0.015,0.0393 0.97505252,0.97505252 0 0 1 -5.2e-4,0 0.97505252,0.97505252 0 0 1 -0.0165,0.0382 0.97505252,0.97505252 0 0 1 -5.3e-4,0 0.97505252,0.97505252 0 0 1 -0.0186,0.0377 0.97505252,0.97505252 0 0 1 -5.2e-4,0 0.97505252,0.97505252 0 0 1 -0.0202,0.0372 0.97505252,0.97505252 0 0 1 -5.3e-4,0 0.97505252,0.97505252 0 0 1 -0.0217,0.0357 0.97505252,0.97505252 0 0 1 -5.2e-4,0 0.97505252,0.97505252 0 0 1 -0.0238,0.0351 0.97505252,0.97505252 0 0 1 -5.3e-4,0 0.97505252,0.97505252 0 0 1 -0.0248,0.0341 0.97505252,0.97505252 0 0 1 -5.2e-4,0 0.97505252,0.97505252 0 0 1 -0.0258,0.0326 0.97505252,0.97505252 0 0 1 -5.4e-4,0 0.97505252,0.97505252 0 0 1 -0.0274,0.0315 0.97505252,0.97505252 0 0 1 -9.9e-4,0 0.97505252,0.97505252 0 0 1 -0.0289,0.03 0.97505252,0.97505252 0 0 1 -5.2e-4,0 0.97505252,0.97505252 0 0 1 -0.0305,0.0289 0.97505252,0.97505252 0 0 1 -5.2e-4,0 0.97505252,0.97505252 0 0 1 -0.0315,0.0279 0.97505252,0.97505252 0 0 1 -5.3e-4,0 0.97505252,0.97505252 0 0 1 -0.0331,0.0259 0.97505252,0.97505252 0 0 1 -5.4e-4,0 0.97505252,0.97505252 0 0 1 -0.0341,0.0249 0.97505252,0.97505252 0 0 1 -5.4e-4,0 0.97505252,0.97505252 0 0 1 -0.0346,0.0228 0.97505252,0.97505252 0 0 1 -9.9e-4,0 0.97505252,0.97505252 0 0 1 -0.0362,0.0217 0.97505252,0.97505252 0 0 1 -5.3e-4,0 0.97505252,0.97505252 0 0 1 -0.0372,0.0196 0.97505252,0.97505252 0 0 1 -5.2e-4,0 0.97505252,0.97505252 0 0 1 -0.0377,0.0185 0.97505252,0.97505252 0 0 1 -5.2e-4,0 0.97505252,0.97505252 0 0 1 -0.0388,0.0164 0.97505252,0.97505252 0 0 1 -5.2e-4,0 0.97505252,0.97505252 0 0 1 -0.0393,0.0145 0.97505252,0.97505252 0 0 1 -5.2e-4,0 0.97505252,0.97505252 0 0 1 -0.0398,0.013 0.97505252,0.97505252 0 0 1 -0.28888,0.0439 0.97505252,0.97505252 0 0 1 -0.97513,-0.97513 0.97505252,0.97505252 0 0 1 0.0455,-0.29403 0.97505252,0.97505252 0 0 1 0.0134,-0.0403 0.97505252,0.97505252 0 0 1 5.2e-4,0 0.97505252,0.97505252 0 0 1 0.015,-0.0393 0.97505252,0.97505252 0 0 1 5.3e-4,0 0.97505252,0.97505252 0 0 1 0.0165,-0.0382 0.97505252,0.97505252 0 0 1 5.2e-4,0 0.97505252,0.97505252 0 0 1 0.0186,-0.0377 0.97505252,0.97505252 0 0 1 5.2e-4,0 0.97505252,0.97505252 0 0 1 0.0202,-0.0372 0.97505252,0.97505252 0 0 1 5.4e-4,0 0.97505252,0.97505252 0 0 1 0.0217,-0.0356 0.97505252,0.97505252 0 0 1 5.2e-4,0 0.97505252,0.97505252 0 0 1 0.0233,-0.0351 0.97505252,0.97505252 0 0 1 5.4e-4,0 0.97505252,0.97505252 0 0 1 0.0248,-0.0336 0.97505252,0.97505252 0 0 1 5.4e-4,0 0.97505252,0.97505252 0 0 1 0.0269,-0.0331 0.97505252,0.97505252 0 0 1 5.2e-4,0 0.97505252,0.97505252 0 0 1 0.0574,-0.062 0.97505252,0.97505252 0 0 1 0.002,-0.003 0.97505252,0.97505252 0 0 1 0.03,-0.0284 0.97505252,0.97505252 0 0 1 0.0646,-0.0543 0.97505252,0.97505252 0 0 1 10e-4,0 0.97505252,0.97505252 0 0 1 0.0693,-0.0481 0.97505252,0.97505252 0 0 1 9.9e-4,0 0.97505252,0.97505252 0 0 1 0.0625,-0.0362 0.97505252,0.97505252 0 0 1 0.0108,-0.006 0.97505252,0.97505252 0 0 1 5.2e-4,0 0.97505252,0.97505252 0 0 1 0.0129,-0.006 0.97505252,0.97505252 0 0 1 0.0951,-0.0413 0.97505252,0.97505252 0 0 1 0.009,-0.003 0.97505252,0.97505252 0 0 1 9.9e-4,0 0.97505252,0.97505252 0 0 1 0.0393,-0.013 0.97505252,0.97505252 0 0 1 9.9e-4,0 0.97505252,0.97505252 0 0 1 0.0176,-0.005 0.97505252,0.97505252 0 0 1 0.0434,-0.0114 0.97505252,0.97505252 0 0 1 0.0207,-0.005 0.97505252,0.97505252 0 0 1 0.0264,-0.005 0.97505252,0.97505252 0 0 1 0.17001,-0.0169 z m 106.63794,0.005 a 0.97505252,0.97505252 0 0 1 0.0196,0 0.97505252,0.97505252 0 0 1 0.97515,0.97462 0.97505252,0.97505252 0 0 1 -0.76896,0.9529 0.97505252,0.97505252 0 0 1 -0.20463,0.0222 0.97505252,0.97505252 0 0 1 -0.0444,0 0.97505252,0.97505252 0 0 1 -0.0408,-0.003 0.97505252,0.97505252 0 0 1 -0.003,0 0.97505252,0.97505252 0 0 1 -0.0408,-0.005 0.97505252,0.97505252 0 0 1 -0.003,0 0.97505252,0.97505252 0 0 1 -0.0408,-0.007 0.97505252,0.97505252 0 0 1 -0.003,0 0.97505252,0.97505252 0 0 1 -0.0403,-0.008 0.97505252,0.97505252 0 0 1 -0.0827,-0.0222 0.97505252,0.97505252 0 0 1 -0.68058,-0.92967 0.97505252,0.97505252 0 0 1 0.34985,-0.7488 0.97505252,0.97505252 0 0 1 0.0667,-0.0511 0.97505252,0.97505252 0 0 1 0.0713,-0.045 0.97505252,0.97505252 0 0 1 0.075,-0.0388 0.97505252,0.97505252 0 0 1 0.0382,-0.0164 0.97505252,0.97505252 0 0 1 0.009,-0.003 0.97505252,0.97505252 0 0 1 0.031,-0.0119 0.97505252,0.97505252 0 0 1 0.063,-0.0201 0.97505252,0.97505252 0 0 1 0.0175,-0.005 0.97505252,0.97505252 0 0 1 0.0206,-0.005 0.97505252,0.97505252 0 0 1 0.0362,-0.008 0.97505252,0.97505252 0 0 1 0.16949,-0.0185 l 0.0109,-0.003 z" />
    <path
       id="path1491-3"
       style="display:inline;fill:#c8ab37;fill-opacity:1;stroke:#0000ff;stroke-width:0.0574926;stroke-linejoin:miter;stroke-miterlimit:4;stroke-dasharray:none"
       d="m 249.57945,-117.38858 -24.85017,0.004 v 12.13829 h -5.09995 v 23.16033 h 5.09995 c -5.3e-4,2.405034 -5e-5,2.6e-5 -0.0109,12.147574 h 59.93485 v 0.003 l 54.88707,0.004 -0.0109,-12.147575 h 5.09995 v -23.160079 h -5.09995 l -0.007,-12.14601 -24.85017,-0.003 v 4.95265 0.14989 h -19.27429 -1.48103 -9.46248 v -0.003 h -15.58044 -19.29442 v -0.14986 -3.61733 z m 0.003,37.402874 0.002,5.14234 -19.94866,0.005 -0.002,-5.14231 z m 85.04184,5.3e-4 0.001,5.14232 -19.94865,0.005 -0.001,-5.14234 z" />
    <path
       id="rect1162"
       style="opacity:1;fill:#c8ab37;stroke:#0000ff;stroke-width:0.0610108;stroke-miterlimit:4;stroke-dasharray:none"
       d="m 244.62258,-232.00403 h 2.44428 v 7.73493 h 6.48747 v -19.94865 h -5.08238 v -65.09266 h 5.08288 v -19.94866 h -6.48745 v 7.73597 h -2.4448 z" />
  </g>
</svg>
