<?xml version="1.0" encoding="UTF-8" standalone="no"?>
<svg
   xmlns:dc="http://purl.org/dc/elements/1.1/"
   xmlns:cc="http://creativecommons.org/ns#"
   xmlns:rdf="http://www.w3.org/1999/02/22-rdf-syntax-ns#"
   xmlns:svg="http://www.w3.org/2000/svg"
   xmlns="http://www.w3.org/2000/svg"
   xmlns:sodipodi="http://sodipodi.sourceforge.net/DTD/sodipodi-0.dtd"
   xmlns:inkscape="http://www.inkscape.org/namespaces/inkscape"
   width="353mm"
   height="500mm"
   viewBox="0 0 353 500"
   version="1.1"
   id="svg8"
   inkscape:version="1.0.2-2 (e86c870879, 2021-01-15)"
   sodipodi:docname="Mark_I_Vertical.svg">
  <defs
     id="defs2">
    <rect
       x="125.28021"
       y="-133.77708"
       width="42.994789"
       height="13.096875"
       id="rect1003-6-1-8-0" />
    <rect
       x="125.28021"
       y="-133.77708"
       width="42.994789"
       height="13.096875"
       id="rect996" />
    <rect
       x="125.28021"
       y="-133.77708"
       width="42.994789"
       height="13.096875"
       id="rect1003-6-1-8-0-3" />
    <rect
       x="125.28021"
       y="-133.77708"
       width="42.994789"
       height="13.096875"
       id="rect999" />
    <rect
       x="125.28021"
       y="-133.77708"
       width="42.994789"
       height="13.096875"
       id="rect1003-6-1-7-8" />
    <rect
       x="125.28021"
       y="-133.77708"
       width="42.994789"
       height="13.096875"
       id="rect1002" />
    <rect
       x="125.28021"
       y="-133.77708"
       width="42.994789"
       height="13.096875"
       id="rect1003-6-9-2-9-6" />
    <rect
       x="125.28021"
       y="-133.77708"
       width="42.994789"
       height="13.096875"
       id="rect1005" />
    <rect
       x="125.28021"
       y="-133.77708"
       width="42.994789"
       height="13.096875"
       id="rect1003-6-1-7-4-4" />
    <rect
       x="125.28021"
       y="-133.77708"
       width="42.994789"
       height="13.096875"
       id="rect1008" />
    <rect
       x="125.28021"
       y="-133.77708"
       width="42.994789"
       height="13.096875"
       id="rect1003-6-9-2-9-5-9" />
    <rect
       x="125.28021"
       y="-133.77708"
       width="42.994789"
       height="13.096875"
       id="rect1011" />
    <rect
       x="125.28021"
       y="-133.77708"
       width="42.994789"
       height="13.096875"
       id="rect1003-6-1-7-4" />
    <rect
       x="125.28021"
       y="-133.77708"
       width="42.994789"
       height="13.096875"
       id="rect1014" />
    <rect
       x="125.28021"
       y="-133.77708"
       width="42.994789"
       height="13.096875"
       id="rect1003-6-9-2-9-5" />
    <rect
       x="125.28021"
       y="-133.77708"
       width="42.994789"
       height="13.096875"
       id="rect1017" />
    <rect
       x="125.28021"
       y="-133.77708"
       width="42.994789"
       height="13.096875"
       id="rect1003-6-1-2" />
    <rect
       x="125.28021"
       y="-133.77708"
       width="42.994789"
       height="13.096875"
       id="rect1020" />
    <rect
       x="125.28021"
       y="-133.77708"
       width="42.994789"
       height="13.096875"
       id="rect1003-6-9-2-6" />
    <rect
       x="125.28021"
       y="-133.77708"
       width="42.994789"
       height="13.096875"
       id="rect1023" />
    <rect
       x="125.28021"
       y="-133.77708"
       width="42.994789"
       height="13.096875"
       id="rect1003-6-1-2-5" />
    <rect
       x="125.28021"
       y="-133.77708"
       width="42.994789"
       height="13.096875"
       id="rect1026" />
    <rect
       x="125.28021"
       y="-133.77708"
       width="42.994789"
       height="13.096875"
       id="rect1003-6-9-2-6-0" />
    <rect
       x="125.28021"
       y="-133.77708"
       width="42.994789"
       height="13.096875"
       id="rect1029" />
    <rect
       x="125.28021"
       y="-133.77708"
       width="42.994789"
       height="13.096875"
       id="rect1003-6-1-7" />
    <rect
       x="125.28021"
       y="-133.77708"
       width="42.994789"
       height="13.096875"
       id="rect1032" />
    <rect
       x="125.28021"
       y="-133.77708"
       width="42.994789"
       height="13.096875"
       id="rect1003-6-9-2-9" />
    <rect
       x="125.28021"
       y="-133.77708"
       width="42.994789"
       height="13.096875"
       id="rect1035" />
  </defs>
  <sodipodi:namedview
     id="base"
     pagecolor="#ffffff"
     bordercolor="#666666"
     borderopacity="1.0"
     inkscape:pageopacity="0.0"
     inkscape:pageshadow="2"
     inkscape:zoom="0.35355339"
     inkscape:cx="359.21235"
     inkscape:cy="855.49822"
     inkscape:document-units="mm"
     inkscape:current-layer="layer2"
     showgrid="false"
     showguides="true"
     inkscape:window-width="2266"
     inkscape:window-height="1496"
     inkscape:window-x="0"
     inkscape:window-y="325"
     inkscape:window-maximized="0"
     inkscape:document-rotation="0"
     inkscape:snap-object-midpoints="true"
     inkscape:snap-global="true">
    <inkscape:grid
       type="xygrid"
       id="grid19" />
  </sodipodi:namedview>
  <metadata
     id="metadata5">
    <rdf:RDF>
      <cc:Work
         rdf:about="">
        <dc:format>image/svg+xml</dc:format>
        <dc:type
           rdf:resource="http://purl.org/dc/dcmitype/StillImage" />
        <dc:title />
      </cc:Work>
    </rdf:RDF>
  </metadata>
  <g
     inkscape:label="Layer 1"
     inkscape:groupmode="layer"
     id="layer1"
     transform="translate(0,351)" />
  <g
     inkscape:groupmode="layer"
     id="layer2"
     inkscape:label="guide"
     transform="translate(0,351)"
     style="display:inline">
    <path
       id="path1491"
       style="display:inline;fill:#6c5353;fill-opacity:1;stroke:#0000ff;stroke-width:0.0574926;stroke-linejoin:miter;stroke-miterlimit:4;stroke-dasharray:none"
       d="m 285.8731,-120.11401 h 12.14139 v -4.95009 -0.15039 h 2.40503 18.35029 2.40503 v 0.15039 4.95009 h 12.14758 v -65.02394 h 0.003 v -59.97618 h -12.14345 v 4.95007 0.14988 h -2.40501 -18.35031 -2.40501 v -0.14988 -4.95007 h -12.14819 v 29.95734 h 4.95269 0.14986 v 19.27427 1.48105 9.46248 h -0.003 v 15.58044 19.29442 h -0.14986 -3.61736 -1.33326 z m 37.40187,-29.95424 v -34.60668 h 0.003 v -30.48548 h 5.14231 v 29.36256 h -0.003 v 35.7296 z" />
    <path
       id="path1145"
       style="display:inline;fill:#6c5353;fill-opacity:1;stroke:#0000ff;stroke-width:0.0498232;stroke-linejoin:miter;stroke-miterlimit:4;stroke-dasharray:none"
       d="m 20.486439,-73.833909 v 22.450313 h -0.14986 -1.91771 -3.03238 v 19.958477 h 4.95112 0.14987 v 1.49706 7.27449 11.17865 h -0.14987 -4.95112 v 9.2071796 h -5.3e-4 v 10.72131 h 5.3e-4 4.94957 5.3e-4 0.14935 V 22.073421 h -0.14986 v -0.003 h -4.95009 v 9.94977 h 4.95009 0.14986 v 9.99992 h -0.14986 v 0.004 h 0.15037 12.12071 v -0.94983 -2.44996 h 5.73247 L 25.424649,25.706751 V -1.7484494 -53.410406 l 12.91859,-12.91497 h 51.20464 27.878401 l 12.91447,12.91859 V -1.9763394 25.710351 l -12.91809,12.91394 h 5.73352 v 2.44996 0.94983 h 12.12122 v -9.9999 h 0.14986 4.95009 v -9.94979 h -4.95009 -0.14986 V 8.4545406 h 0.14986 4.95009 v -10.50271 -9.4257796 h -4.94959 -0.14986 v -11.1125 -6.59133 -2.24637 h 0.14986 4.94959 v -19.958467 h -1.77509 -3.175 -0.15039 v -22.450313 l -45.498011,-5.3e-4 v -5.3e-4 z m 110.715211,5.682863 a 0.97505252,0.97505252 0 0 1 0.97512,0.97514 0.97505252,0.97505252 0 0 1 -0.97512,0.97513 0.97505252,0.97505252 0 0 1 -0.97515,-0.97513 0.97505252,0.97505252 0 0 1 0.97515,-0.97514 z m -106.649831,10e-4 a 0.97505252,0.97505252 0 0 1 0.97514,0.97462 0.97505252,0.97505252 0 0 1 -0.97514,0.97513 0.97505252,0.97505252 0 0 1 -0.97513,-0.97513 0.97505252,0.97505252 0 0 1 0.97513,-0.97462 z m 102.832481,2.37402 a 2.4000521,2.4000521 0 0 1 0.0175,0 2.4000521,2.4000521 0 0 1 2.39988,2.39985 2.4000521,2.4000521 0 0 1 -2.39988,2.40037 2.4000521,2.4000521 0 0 1 -2.40035,-2.40037 2.4000521,2.4000521 0 0 1 2.38278,-2.39985 z m -99.049761,5.2e-4 a 2.400052,2.400052 0 0 1 0.0176,0 2.400052,2.400052 0 0 1 2.39985,2.39986 2.400052,2.400052 0 0 1 -2.39985,2.39985 2.400052,2.400052 0 0 1 -2.40037,-2.39985 2.400052,2.400052 0 0 1 2.3828,-2.39986 z m -0.001,99.048207 v 0 a 2.400052,2.400052 0 0 1 0.0171,0 2.400052,2.400052 0 0 1 0.002,0 2.400052,2.400052 0 0 1 0.0656,0 2.400052,2.400052 0 0 1 0.002,0 2.400052,2.400052 0 0 1 0.0651,0.003 2.400052,2.400052 0 0 1 0.002,0 2.400052,2.400052 0 0 1 0.0656,0.007 2.400052,2.400052 0 0 1 0.002,0 2.400052,2.400052 0 0 1 0.0651,0.006 2.400052,2.400052 0 0 1 0.003,0 2.400052,2.400052 0 0 1 0.0646,0.008 2.400052,2.400052 0 0 1 0.003,0 2.400052,2.400052 0 0 1 0.0651,0.0103 2.400052,2.400052 0 0 1 0.001,0 2.400052,2.400052 0 0 1 0.0646,0.0119 2.400052,2.400052 0 0 1 0.38603,0.1106 2.400052,2.400052 0 0 1 0.003,0 2.400052,2.400052 0 0 1 0.12247,0.0506 2.400052,2.400052 0 0 1 0.003,0 2.400052,2.400052 0 0 1 0.11937,0.0574 2.400052,2.400052 0 0 1 0.002,0 2.400052,2.400052 0 0 1 1.30173,2.13424 2.400052,2.400052 0 0 1 -0.23461,1.03663 2.400052,2.400052 0 0 1 -5.3e-4,0 2.400052,2.400052 0 0 1 -0.0295,0.0594 2.400052,2.400052 0 0 1 -5.3e-4,0 2.400052,2.400052 0 0 1 -0.4315,0.59375 2.400052,2.400052 0 0 1 -0.0481,0.047 2.400052,2.400052 0 0 1 -0.0956,0.0868 2.400052,2.400052 0 0 1 -0.003,0.003 2.400052,2.400052 0 0 1 -5.3e-4,0 2.400052,2.400052 0 0 1 -0.009,0.007 2.400052,2.400052 0 0 1 -0.35089,0.24546 2.400052,2.400052 0 0 1 -0.0243,0.014 2.400052,2.400052 0 0 1 -5.3e-4,0 2.400052,2.400052 0 0 1 -0.0584,0.0315 2.400052,2.400052 0 0 1 -5.3e-4,0 2.400052,2.400052 0 0 1 -0.0295,0.0151 2.400052,2.400052 0 0 1 -0.0589,0.0289 2.400052,2.400052 0 0 1 -0.0315,0.0164 2.400052,2.400052 0 0 1 -5.3e-4,0 2.400052,2.400052 0 0 1 -0.061,0.0265 2.400052,2.400052 0 0 1 -0.001,0 2.400052,2.400052 0 0 1 -0.0615,0.0265 2.400052,2.400052 0 0 1 -5.3e-4,0 2.400052,2.400052 0 0 1 -0.0393,0.0146 2.400052,2.400052 0 0 1 -0.045,0.0161 2.400052,2.400052 0 0 1 -0.0413,0.0156 2.400052,2.400052 0 0 1 -0.74207,0.11781 2.400052,2.400052 0 0 1 -2.40037,-2.39985 2.400052,2.400052 0 0 1 0.18035,-0.91416 2.400052,2.400052 0 0 1 5.2e-4,0 2.400052,2.400052 0 0 1 1.33843,-1.31775 2.400052,2.400052 0 0 1 0.0119,-0.006 2.400052,2.400052 0 0 1 10e-4,0 2.400052,2.400052 0 0 1 0.0155,-0.005 2.400052,2.400052 0 0 1 0.11059,-0.0393 2.400052,2.400052 0 0 1 0.71675,-0.11834 z m 99.048731,0 a 2.4000521,2.4000521 0 0 1 0.0175,0 2.4000521,2.4000521 0 0 1 2.40038,2.39985 2.4000521,2.4000521 0 0 1 -1.46968,2.21226 2.4000521,2.4000521 0 0 1 -0.12298,0.0481 2.4000521,2.4000521 0 0 1 -0.003,0 2.4000521,2.4000521 0 0 1 -0.18962,0.0589 2.4000521,2.4000521 0 0 1 -0.003,0 2.4000521,2.4000521 0 0 1 -0.26252,0.0537 2.4000521,2.4000521 0 0 1 -0.34933,0.0259 2.4000521,2.4000521 0 0 1 -0.004,0 2.4000521,2.4000521 0 0 1 -0.0651,0 2.4000521,2.4000521 0 0 1 -0.003,0 2.4000521,2.4000521 0 0 1 -0.0646,-0.003 2.4000521,2.4000521 0 0 1 -0.003,0 2.4000521,2.4000521 0 0 1 -0.0651,-0.005 2.4000521,2.4000521 0 0 1 -0.003,0 2.4000521,2.4000521 0 0 1 -0.0651,-0.006 2.4000521,2.4000521 0 0 1 -0.003,0 2.4000521,2.4000521 0 0 1 -0.0641,-0.008 2.4000521,2.4000521 0 0 1 -0.11576,-0.0191 2.4000521,2.4000521 0 0 1 -0.0185,-0.004 2.4000521,2.4000521 0 0 1 -0.0103,-0.003 2.4000521,2.4000521 0 0 1 -0.37414,-0.10803 2.4000521,2.4000521 0 0 1 -0.003,0 2.4000521,2.4000521 0 0 1 -0.24286,-0.1085 2.4000521,2.4000521 0 0 1 -0.003,0 2.4000521,2.4000521 0 0 1 -1.30173,-2.13477 2.4000521,2.4000521 0 0 1 1.17099,-2.06136 2.4000521,2.4000521 0 0 1 0.0563,-0.0331 2.4000521,2.4000521 0 0 1 0.003,0 2.4000521,2.4000521 0 0 1 0.0574,-0.031 2.4000521,2.4000521 0 0 1 0.003,0 2.4000521,2.4000521 0 0 1 0.0584,-0.03 2.4000521,2.4000521 0 0 1 0.003,0 2.4000521,2.4000521 0 0 1 0.0589,-0.0279 2.4000521,2.4000521 0 0 1 0.003,0 2.4000521,2.4000521 0 0 1 0.06,-0.0269 2.4000521,2.4000521 0 0 1 0.003,0 2.4000521,2.4000521 0 0 1 0.0605,-0.0249 2.4000521,2.4000521 0 0 1 0.004,0 2.4000521,2.4000521 0 0 1 0.0615,-0.0228 2.4000521,2.4000521 0 0 1 0.003,0 2.4000521,2.4000521 0 0 1 0.12557,-0.0408 2.4000521,2.4000521 0 0 1 0.003,0 2.4000521,2.4000521 0 0 1 0.063,-0.0175 2.4000521,2.4000521 0 0 1 0.003,0 2.4000521,2.4000521 0 0 1 0.0636,-0.0156 2.4000521,2.4000521 0 0 1 0.003,0 2.4000521,2.4000521 0 0 1 0.0641,-0.014 2.4000521,2.4000521 0 0 1 0.003,0 2.4000521,2.4000521 0 0 1 0.0641,-0.0119 2.4000521,2.4000521 0 0 1 0.003,0 2.4000521,2.4000521 0 0 1 0.0646,-0.0103 2.4000521,2.4000521 0 0 1 0.33333,-0.0265 l -0.008,-0.005 z m -102.839711,5.2193 a 0.97505252,0.97505252 0 0 1 0.01,0 l -10e-4,0.005 a 0.97505252,0.97505252 0 0 1 0.0429,0 0.97505252,0.97505252 0 0 1 5.3e-4,0 0.97505252,0.97505252 0 0 1 0.0419,0.003 0.97505252,0.97505252 0 0 1 5.3e-4,0 0.97505252,0.97505252 0 0 1 0.0419,0.005 0.97505252,0.97505252 0 0 1 5.3e-4,0 0.97505252,0.97505252 0 0 1 0.0424,0.007 0.97505252,0.97505252 0 0 1 5.3e-4,0 0.97505252,0.97505252 0 0 1 0.0408,0.008 0.97505252,0.97505252 0 0 1 5.3e-4,0 0.97505252,0.97505252 0 0 1 0.0408,0.0103 0.97505252,0.97505252 0 0 1 5.3e-4,0 0.97505252,0.97505252 0 0 1 0.0408,0.0119 0.97505252,0.97505252 0 0 1 5.3e-4,0 0.97505252,0.97505252 0 0 1 0.0398,0.014 0.97505252,0.97505252 0 0 1 5.3e-4,0 0.97505252,0.97505252 0 0 1 0.0398,0.0156 0.97505252,0.97505252 0 0 1 5.3e-4,0 0.97505252,0.97505252 0 0 1 0.0377,0.0169 0.97505252,0.97505252 0 0 1 10e-4,0 0.97505252,0.97505252 0 0 1 0.0372,0.019 0.97505252,0.97505252 0 0 1 5.3e-4,0 0.97505252,0.97505252 0 0 1 0.0372,0.0206 0.97505252,0.97505252 0 0 1 10e-4,0 0.97505252,0.97505252 0 0 1 0.0357,0.0222 0.97505252,0.97505252 0 0 1 5.3e-4,0 0.97505252,0.97505252 0 0 1 0.0351,0.0238 0.97505252,0.97505252 0 0 1 5.3e-4,0 0.97505252,0.97505252 0 0 1 0.0336,0.0254 0.97505252,0.97505252 0 0 1 5.3e-4,0 0.97505252,0.97505252 0 0 1 0.0331,0.0269 0.97505252,0.97505252 0 0 1 5.3e-4,0 0.97505252,0.97505252 0 0 1 0.0315,0.0279 0.97505252,0.97505252 0 0 1 5.3e-4,0 0.97505252,0.97505252 0 0 1 0.03,0.03 0.97505252,0.97505252 0 0 1 0.2837,0.68731 0.97505252,0.97505252 0 0 1 -0.0455,0.29453 0.97505252,0.97505252 0 0 1 -0.0134,0.0398 0.97505252,0.97505252 0 0 1 -5.3e-4,0 0.97505252,0.97505252 0 0 1 -0.015,0.0393 0.97505252,0.97505252 0 0 1 -5.2e-4,0 0.97505252,0.97505252 0 0 1 -0.0165,0.0382 0.97505252,0.97505252 0 0 1 -5.3e-4,0 0.97505252,0.97505252 0 0 1 -0.0186,0.0377 0.97505252,0.97505252 0 0 1 -5.3e-4,0 0.97505252,0.97505252 0 0 1 -0.0202,0.0372 0.97505252,0.97505252 0 0 1 -5.3e-4,0 0.97505252,0.97505252 0 0 1 -0.0217,0.0357 0.97505252,0.97505252 0 0 1 -5.2e-4,0 0.97505252,0.97505252 0 0 1 -0.0238,0.0351 0.97505252,0.97505252 0 0 1 -5.3e-4,0 0.97505252,0.97505252 0 0 1 -0.0248,0.0341 0.97505252,0.97505252 0 0 1 -5.2e-4,0 0.97505252,0.97505252 0 0 1 -0.0258,0.0326 0.97505252,0.97505252 0 0 1 -5.3e-4,0 0.97505252,0.97505252 0 0 1 -0.0274,0.0315 0.97505252,0.97505252 0 0 1 -0.001,0 0.97505252,0.97505252 0 0 1 -0.0289,0.03 0.97505252,0.97505252 0 0 1 -5.3e-4,0 0.97505252,0.97505252 0 0 1 -0.0305,0.0289 0.97505252,0.97505252 0 0 1 -5.3e-4,0 0.97505252,0.97505252 0 0 1 -0.0315,0.0279 0.97505252,0.97505252 0 0 1 -5.3e-4,0 0.97505252,0.97505252 0 0 1 -0.0331,0.0259 0.97505252,0.97505252 0 0 1 -5.3e-4,0 0.97505252,0.97505252 0 0 1 -0.0341,0.0249 0.97505252,0.97505252 0 0 1 -5.3e-4,0 0.97505252,0.97505252 0 0 1 -0.0346,0.0228 0.97505252,0.97505252 0 0 1 -0.001,0 0.97505252,0.97505252 0 0 1 -0.0362,0.0217 0.97505252,0.97505252 0 0 1 -5.3e-4,0 0.97505252,0.97505252 0 0 1 -0.0372,0.0196 0.97505252,0.97505252 0 0 1 -5.3e-4,0 0.97505252,0.97505252 0 0 1 -0.0377,0.0185 0.97505252,0.97505252 0 0 1 -5.3e-4,0 0.97505252,0.97505252 0 0 1 -0.0388,0.0164 0.97505252,0.97505252 0 0 1 -5.3e-4,0 0.97505252,0.97505252 0 0 1 -0.0393,0.0145 0.97505252,0.97505252 0 0 1 -5.3e-4,0 0.97505252,0.97505252 0 0 1 -0.0398,0.013 0.97505252,0.97505252 0 0 1 -0.28887,0.0439 0.97505252,0.97505252 0 0 1 -0.97514,-0.97513 0.97505252,0.97505252 0 0 1 0.0455,-0.29403 0.97505252,0.97505252 0 0 1 0.0134,-0.0403 0.97505252,0.97505252 0 0 1 5.3e-4,0 0.97505252,0.97505252 0 0 1 0.015,-0.0393 0.97505252,0.97505252 0 0 1 5.3e-4,0 0.97505252,0.97505252 0 0 1 0.0165,-0.0382 0.97505252,0.97505252 0 0 1 5.3e-4,0 0.97505252,0.97505252 0 0 1 0.0186,-0.0377 0.97505252,0.97505252 0 0 1 5.3e-4,0 0.97505252,0.97505252 0 0 1 0.0202,-0.0372 0.97505252,0.97505252 0 0 1 5.3e-4,0 0.97505252,0.97505252 0 0 1 0.0217,-0.0356 0.97505252,0.97505252 0 0 1 5.3e-4,0 0.97505252,0.97505252 0 0 1 0.0233,-0.0351 0.97505252,0.97505252 0 0 1 5.3e-4,0 0.97505252,0.97505252 0 0 1 0.0248,-0.0336 0.97505252,0.97505252 0 0 1 5.3e-4,0 0.97505252,0.97505252 0 0 1 0.0269,-0.0331 0.97505252,0.97505252 0 0 1 5.3e-4,0 0.97505252,0.97505252 0 0 1 0.0574,-0.062 0.97505252,0.97505252 0 0 1 0.002,-0.003 0.97505252,0.97505252 0 0 1 0.03,-0.0284 0.97505252,0.97505252 0 0 1 0.0646,-0.0543 0.97505252,0.97505252 0 0 1 0.001,0 0.97505252,0.97505252 0 0 1 0.0693,-0.0481 0.97505252,0.97505252 0 0 1 10e-4,0 0.97505252,0.97505252 0 0 1 0.0625,-0.0362 0.97505252,0.97505252 0 0 1 0.0108,-0.006 0.97505252,0.97505252 0 0 1 5.3e-4,0 0.97505252,0.97505252 0 0 1 0.0129,-0.006 0.97505252,0.97505252 0 0 1 0.0951,-0.0413 0.97505252,0.97505252 0 0 1 0.009,-0.003 0.97505252,0.97505252 0 0 1 10e-4,0 0.97505252,0.97505252 0 0 1 0.0393,-0.013 0.97505252,0.97505252 0 0 1 0.001,0 0.97505252,0.97505252 0 0 1 0.0176,-0.005 0.97505252,0.97505252 0 0 1 0.0434,-0.0114 0.97505252,0.97505252 0 0 1 0.0207,-0.005 0.97505252,0.97505252 0 0 1 0.0264,-0.005 0.97505252,0.97505252 0 0 1 0.17002,-0.0169 z m 106.637931,0.005 a 0.97505252,0.97505252 0 0 1 0.0196,0 0.97505252,0.97505252 0 0 1 0.97515,0.97462 0.97505252,0.97505252 0 0 1 -0.76896,0.9529 0.97505252,0.97505252 0 0 1 -0.20463,0.0222 0.97505252,0.97505252 0 0 1 -0.0444,0 0.97505252,0.97505252 0 0 1 -0.0408,-0.003 0.97505252,0.97505252 0 0 1 -0.003,0 0.97505252,0.97505252 0 0 1 -0.0408,-0.005 0.97505252,0.97505252 0 0 1 -0.003,0 0.97505252,0.97505252 0 0 1 -0.0408,-0.007 0.97505252,0.97505252 0 0 1 -0.003,0 0.97505252,0.97505252 0 0 1 -0.0403,-0.008 0.97505252,0.97505252 0 0 1 -0.0827,-0.0222 0.97505252,0.97505252 0 0 1 -0.68058,-0.92967 0.97505252,0.97505252 0 0 1 0.34985,-0.7488 0.97505252,0.97505252 0 0 1 0.0667,-0.0511 0.97505252,0.97505252 0 0 1 0.0713,-0.045 0.97505252,0.97505252 0 0 1 0.075,-0.0388 0.97505252,0.97505252 0 0 1 0.0382,-0.0164 0.97505252,0.97505252 0 0 1 0.009,-0.003 0.97505252,0.97505252 0 0 1 0.031,-0.0119 0.97505252,0.97505252 0 0 1 0.063,-0.0201 0.97505252,0.97505252 0 0 1 0.0175,-0.005 0.97505252,0.97505252 0 0 1 0.0206,-0.005 0.97505252,0.97505252 0 0 1 0.0362,-0.008 0.97505252,0.97505252 0 0 1 0.16949,-0.0185 l 0.0109,-0.003 z" />
    <g
       id="g3451" />
    <text
       xml:space="preserve"
       style="font-style:normal;font-variant:normal;font-weight:normal;font-stretch:normal;font-size:50.8px;line-height:1.25;font-family:sans-serif;-inkscape-font-specification:'sans-serif, Normal';font-variant-ligatures:normal;font-variant-caps:normal;font-variant-numeric:normal;font-variant-east-asian:normal;fill:#000000;fill-opacity:1;stroke:none;stroke-width:0.264583"
       x="280.24106"
       y="-301.92236"
       id="text848"><tspan
         sodipodi:role="line"
         id="tspan846"
         x="280.24106"
         y="-301.92236"
         style="font-style:normal;font-variant:normal;font-weight:normal;font-stretch:normal;font-size:50.8px;font-family:sans-serif;-inkscape-font-specification:'sans-serif, Normal';font-variant-ligatures:normal;font-variant-caps:normal;font-variant-numeric:normal;font-variant-east-asian:normal;fill:#000000;stroke-width:0.264583">B5</tspan></text>
    <path
       id="path921-5"
       style="display:inline;fill:#6c5353;fill-opacity:1;stroke:#0000ff;stroke-width:0.0498232;stroke-linejoin:miter;stroke-miterlimit:4;stroke-dasharray:none"
       d="m 211.63032,-93.147163 v 24.945255 h 2.62464 2.32544 0.14986 v 9.3028 h 0.003 v 20.75479 h -0.14986 -0.77515 -4.17442 V 1.7979519 h 0.76429 4.18579 0.15038 V 26.702382 h 24.84655 v 0.14986 4.95059 h 40.04975 25.05015 v -4.95059 -0.14986 h 24.84654 V 1.7979519 h 0.15038 4.18579 0.7643 V -38.144318 h -4.17443 -0.77514 -0.14986 v -20.75479 h 0.003 v -9.3028 h 0.14987 2.32595 2.62413 v -24.945255 h -4.94905 v 2.449985 h -12.27159 v -2.449985 h -2.7802 -87.78017 v 2.449985 H 216.5797 v -2.449985 z m 22.4471,2.399865 h 30.00024 v 5.15007 h -30.00024 z m 50.00005,0 h 30.00024 v 5.15007 h -30.00024 z m -63.272,5.82444 c 0.53848,0 0.97513,0.43711 0.97513,0.97565 0,0.5385 -0.43665,0.97467 -0.97513,0.97462 -0.5385,5e-5 -0.97462,-0.43612 -0.97462,-0.97462 0,-0.53854 0.43609,-0.97565 0.97462,-0.97565 z m 106.64982,0 c 0.53853,0 0.97513,0.43711 0.97513,0.97565 0,0.5385 -0.4366,0.97467 -0.97513,0.97462 -0.53848,0 -0.97462,-0.43612 -0.97462,-0.97462 0,-0.53854 0.43614,-0.97565 0.97462,-0.97565 z m -92.8703,1.7296 h 79.12695 l 12.91497,12.90826 V 8.8414519 L 313.71866,21.756422 H 234.5917 L 221.67673,8.8481719 V -70.278788 Z m -9.97924,0.64596 c 1.32551,0 2.39986,1.07383 2.39986,2.39934 0,1.32554 -1.07435,2.40038 -2.39986,2.40038 -1.32551,0 -2.40037,-1.07484 -2.40037,-2.40038 0,-1.32551 1.07486,-2.39934 2.40037,-2.39934 z m 99.04977,0 c 1.32551,0 2.39985,1.07383 2.39985,2.39934 0,1.32554 -1.07434,2.40038 -2.39985,2.40038 -1.32551,0 -2.39985,-1.07484 -2.39985,-2.40038 0,-1.32551 1.07434,-2.39934 2.39985,-2.39934 z m -99.04977,99.04925 c 1.32551,0 2.39986,1.07434 2.39986,2.39985 0,1.32551 -1.07435,2.40038 -2.39986,2.40038 -1.32551,0 -2.40037,-1.07487 -2.40037,-2.40038 0,-1.32551 1.07486,-2.39985 2.40037,-2.39985 z m 99.04977,0 c 1.32551,0 2.39985,1.07434 2.39985,2.39985 0,1.32551 -1.07434,2.40038 -2.39985,2.40038 -1.32553,0 -2.39985,-1.07487 -2.39985,-2.40038 0,-1.32551 1.07434,-2.39985 2.39985,-2.39985 z m -102.85005,5.22502 c 0.53851,0 0.97513,0.43662 0.97513,0.97512 0,0.53854 -0.43662,0.97515 -0.97513,0.97515 -0.5385,0 -0.97514,-0.43664 -0.97514,-0.97515 0,-0.5385 0.43661,-0.97512 0.97514,-0.97512 z m 106.64982,0 c 0.53853,0 0.97513,0.43662 0.97513,0.97512 0,0.53851 -0.4366,0.97515 -0.97513,0.97515 -0.53849,0 -0.97462,-0.43664 -0.97462,-0.97515 0,-0.5385 0.43613,-0.97512 0.97462,-0.97512 z"
       sodipodi:nodetypes="cccccccccccccccccccccccccccccccccccccccccccccccccccccccccccsssssssssscccccccccssssssssssssssssssssssssssssss" />
    <path
       id="path2021"
       style="display:inline;fill:#6c5353;fill-opacity:1;stroke:#0000ff;stroke-width:0.0500002;stroke-linejoin:miter;stroke-miterlimit:4;stroke-dasharray:none"
       d="m 152.74013,-330.50064 v 4.41214 h -0.14986 -4.95006 v 4.95006 h 4.95006 0.15039 v 4.41214 h 34.84698 v -4.95009 -0.14986 h 0.17155 13.44105 3.85558 12.96975 5.82805 8.83669 v 0.14986 4.95009 h 34.84282 v -4.41214 h 0.14986 4.95009 v -4.95006 h -4.95009 -0.14986 v -4.41214 h -62.41375 -0.4377 z" />
    <path
       id="path2154"
       style="display:inline;fill:#6c5353;stroke:#0000ff;stroke-width:0.0499986;stroke-miterlimit:4;stroke-dasharray:none"
       d="m 262.69204,-61.992664 v 4.95006 0.15039 h -19.95019 v 44.84947 h 64.95001 v -44.84997 h -19.94968 v -0.14989 -4.95006 z m -15.02492,25.70022 a 1.7250233,1.7250234 0 0 1 1.72495,1.72498 1.7250233,1.7250234 0 0 1 -1.72495,1.72495 1.7250233,1.7250234 0 0 1 -1.72495,-1.72495 1.7250233,1.7250234 0 0 1 1.72495,-1.72498 z m 55.09998,0 a 1.7250233,1.7250234 0 0 1 1.72498,1.72498 1.7250233,1.7250234 0 0 1 -1.72498,1.72495 1.7250233,1.7250234 0 0 1 -1.72495,-1.72495 1.7250233,1.7250234 0 0 1 1.72495,-1.72498 z m -40.02495,14.20016 h 24.94992 v 5.15009 h -24.94992 z" />
    <path
       id="path2177"
       style="display:inline;fill:#6c5353;stroke:#0000ff;stroke-width:0.0499946;stroke-miterlimit:4;stroke-dasharray:none"
       d="m 266.64739,-160.18827 h -4.95009 -0.14986 v -19.94969 h -4.75009 v 19.94969 h -0.14986 -4.95009 v 25.05014 h 4.95009 0.14986 v 19.9502 h 4.75009 v -19.9502 h 0.14986 4.95009 z" />
    <path
       id="path2481-1-3-2-4-0-7"
       style="display:inline;fill:#6c5353;fill-opacity:1;stroke:#0000ff;stroke-width:0.0574926;stroke-linejoin:miter;stroke-miterlimit:4;stroke-dasharray:none"
       d="m 157.55139,-174.12027 v 4.94956 0.14987 h -12.14602 v 24.85068 h 4.94956 0.14986 v 7.45019 32.59955 h -0.14986 -4.95009 v 29.949587 l 4.95009,5.3e-4 h 0.14986 v 7.45019 25.14937 7.45019 h -0.14986 -4.95009 v 29.9496 h 4.95009 0.14986 v 7.4507 25.14886 7.45072 h -0.14986 -4.95009 v 24.85018 h 12.14604 v 0.14986 4.950079 h 23.16136 v -4.949589 -0.14986 h 12.14295 v -115.68908 l 43.44334,-105.385287 h 4.95009 v -4.41368 h -4.95009 -0.14986 v -2.14923 -0.15554 -2.64532 h 0.14986 4.95009 v -4.41213 h -4.94906 -8.13334 v 4.95008 0.14986 h -1.17616 -9.79373 -1.17616 v -0.14986 -4.95008 h -23.16032 v 4.95008 0.14986 h -1.17721 -10.96987 v -0.14986 -4.95008 z m 4.69222,16.98036 a 2.3999997,2.3999997 0 0 1 0.0175,0 2.3999997,2.3999997 0 0 1 2.39985,2.39985 2.3999997,2.3999997 0 0 1 -2.39985,2.39985 2.3999997,2.3999997 0 0 1 -2.39985,-2.39985 2.3999997,2.3999997 0 0 1 2.38229,-2.39985 z m 39.15524,0 a 2.3999997,2.3999997 0 0 1 0.0175,0 2.3999997,2.3999997 0 0 1 2.39985,2.39985 2.3999997,2.3999997 0 0 1 -2.39985,2.39985 2.3999997,2.3999997 0 0 1 -2.39985,-2.39985 2.3999997,2.3999997 0 0 1 2.38228,-2.39985 z m 17.98598,11.45563 4.80745,1.98179 -7.62228,18.49086 -4.80795,-1.98179 z m -15.24506,36.98119 4.80746,1.98179 -7.62228,18.490347 -4.80745,-1.98179 z m -41.89616,0.66611 a 2.3999997,2.3999997 0 0 1 0.0175,0 2.3999997,2.3999997 0 0 1 2.39985,2.39986 2.3999997,2.3999997 0 0 1 -2.39985,2.39985 2.3999997,2.3999997 0 0 1 -2.39985,-2.39985 2.3999997,2.3999997 0 0 1 2.38229,-2.39986 z m 29.10004,30.422947 4.80798,1.98076 -3.8096,9.24594 -4.80796,-1.98075 z m -8.539,18.43918 h 5.14953 v 25.00055 h -5.14953 z m -20.56104,6.76548 a 2.3999998,2.3999998 0 0 1 0.0175,0 2.3999998,2.3999998 0 0 1 2.39985,2.39986 2.3999998,2.3999998 0 0 1 -2.39985,2.39985 2.3999998,2.3999998 0 0 1 -2.39985,-2.39985 2.3999998,2.3999998 0 0 1 2.38229,-2.39986 z m 20.56413,48.29266 h 5.14231 v 39.94228 h -5.14231 z m -20.56413,49.74168 a 2.3999998,2.3999998 0 0 1 0.0175,0 2.3999998,2.3999998 0 0 1 2.39985,2.39985 2.3999998,2.3999998 0 0 1 -2.39985,2.40038 2.3999998,2.3999998 0 0 1 -2.39985,-2.40038 2.3999998,2.3999998 0 0 1 2.38229,-2.39985 z" />
    <path
       id="path2481-1-3-2-4-0-7-4"
       style="display:inline;fill:#6c5353;fill-opacity:1;stroke:#0000ff;stroke-width:0.0574926;stroke-linejoin:miter;stroke-miterlimit:4;stroke-dasharray:none"
       d="m 334.83619,119.84938 h -4.94957 -0.14986 v 12.14603 h -24.85068 v -4.94957 -0.14985 h -7.4502 -32.59955 v 0.14985 4.95009 h -29.94959 l -5.4e-4,-4.95009 v -0.14985 h -7.45019 -25.14937 -7.45019 v 0.14985 4.95009 h -29.9496 v -4.95009 -0.14985 h -7.4507 -25.14886 -7.45072 v 0.14985 4.95009 H 99.9864 V 119.8499 H 99.83654 94.88646 V 96.688543 h 4.94958 0.14986 V 84.545588 h 115.68908 l 105.3853,-43.44333 v -4.95009 h 4.41368 v 4.95009 0.14986 h 2.14923 0.15553 2.64533 v -0.14986 -4.95009 h 4.41213 v 4.94906 8.13334 h -4.95009 -0.14985 v 1.17615 9.79373 1.17616 h 0.14985 4.95009 v 23.16031 h -4.95009 -0.14985 v 1.17721 10.969875 h 0.14985 4.95009 z m -16.98037,-4.69222 a 2.3999997,2.3999997 0 0 0 0,-0.0175 2.3999997,2.3999997 0 0 0 -2.39984,-2.39985 2.3999997,2.3999997 0 0 0 -2.39985,2.39985 2.3999997,2.3999997 0 0 0 2.39985,2.39986 2.3999997,2.3999997 0 0 0 2.39984,-2.3823 z m 0,-39.155242 a 2.3999997,2.3999997 0 0 0 0,-0.0175 2.3999997,2.3999997 0 0 0 -2.39984,-2.39985 2.3999997,2.3999997 0 0 0 -2.39985,2.39985 2.3999997,2.3999997 0 0 0 2.39985,2.39986 2.3999997,2.3999997 0 0 0 2.39984,-2.38228 z m -11.45562,-17.98597 -1.98179,-4.80745 -18.49086,7.62228 1.98179,4.80795 z m -36.9812,15.24506 -1.98179,-4.80745 -18.49035,7.62227 1.98179,4.80745 z m -0.66611,41.896162 a 2.3999997,2.3999997 0 0 0 0,-0.0175 2.3999997,2.3999997 0 0 0 -2.39986,-2.39985 2.3999997,2.3999997 0 0 0 -2.39985,2.39985 2.3999997,2.3999997 0 0 0 2.39985,2.39985 2.3999997,2.3999997 0 0 0 2.39986,-2.38229 z m -30.42295,-29.100042 -1.98076,-4.80798 -9.24594,3.8096 1.98075,4.80796 z m -18.43919,8.539 v -5.14953 h -25.00054 v 5.14953 z m -6.76548,20.561042 a 2.3999998,2.3999998 0 0 0 0,-0.0175 2.3999998,2.3999998 0 0 0 -2.39986,-2.39985 2.3999998,2.3999998 0 0 0 -2.39985,2.39985 2.3999998,2.3999998 0 0 0 2.39985,2.39985 2.3999998,2.3999998 0 0 0 2.39986,-2.38229 z M 164.83261,94.593038 v -5.14231 h -39.94228 v 5.14231 z m -49.74168,20.564132 a 2.3999998,2.3999998 0 0 0 0,-0.0175 2.3999998,2.3999998 0 0 0 -2.39985,-2.39985 2.3999998,2.3999998 0 0 0 -2.40038,2.39985 2.3999998,2.3999998 0 0 0 2.40038,2.39985 2.3999998,2.3999998 0 0 0 2.39985,-2.38229 z" />
    <path
       id="rect4636-8-6-8-3-5-5-2-8-6-1-9-2"
       style="display:inline;fill:#6c5353;fill-opacity:1;stroke:#0000ff;stroke-width:0.0501134;stroke-linejoin:miter;stroke-miterlimit:4;stroke-dasharray:none"
       d="m 53.369351,46.716148 h 4.95009 0.14986 v 9.95183 h 32.25022 v -10.0025 h 0.14986 4.95009 v -29.95009 h -4.95009 -0.14986 V 12.131168 10.508528 2.8717778 0.31378777 -3.3345522 h 0.14986 4.95009 V -33.284672 h -4.95009 -0.14986 v -9.95185 h -32.25022 v 9.94979 h -0.14986 -4.95009 v 29.9971298 h 4.95009 0.14986 v 3.60391997 2.50269003 0.005 7.7318402 0.006 0.8573 5.24878 h -0.14986 -4.95009 z m 8.75038,-5.10357 v -19.95022 h 24.94989 v 19.95022 z m 0,-49.9525202 V -28.290662 h 24.94989 v 19.9507198 z" />
    <path
       id="path1787-7-1"
       style="display:inline;fill:#6c5353;fill-opacity:1;stroke:#0000ff;stroke-width:0.0501213;stroke-miterlimit:4;stroke-dasharray:none"
       d="m 42.345322,-331.67585 v 4.95009 0.14986 H 17.495179 v 24.85016 h -0.14986 -4.950089 v 40.04975 h 4.950089 0.14986 v 9.19479 11.56053 9.19479 h -0.14986 -4.950089 v 40.04974 h 4.950089 0.14986 v 9.1948 11.56052 9.1948 h -0.14986 -4.950089 v 40.04974 h 4.950089 0.14986 v 24.850164 h 24.850143 v 0.14986 4.95009 h 25.20053 14.836325 25.055833 v -4.95009 -0.14986 h 24.85014 v -24.850164 h 0.14986 4.95009 v -40.04974 h -4.95009 -0.14986 v -9.1948 -11.56052 -9.1948 h 0.14986 4.95009 v -40.04974 h -4.95009 -0.14986 v -9.19479 -11.56053 -9.19479 h 0.14986 4.95009 v -40.04975 h -4.95009 -0.14986 v -24.85016 h -24.85014 v -0.14986 -4.95009 H 82.39456 67.54482 Z m 4.996603,24.45019 c 1.643063,0 2.975028,1.33195 2.975002,2.97501 0,1.64304 -1.331966,2.97501 -2.975002,2.97501 -1.643062,3e-5 -2.975001,-1.33194 -2.975001,-2.97501 -5.3e-5,-1.64306 1.331939,-2.97504 2.975001,-2.97501 z m 55.100005,0 c 1.64304,0 2.97503,1.33195 2.97501,2.97501 0,1.64304 -1.332,2.97501 -2.97501,2.97501 -1.64306,0 -2.975021,-1.33197 -2.975021,-2.97501 -3e-5,-1.64306 1.331931,-2.97501 2.975021,-2.97501 z m -40.024946,15.45022 h 24.94989 v 5.15007 h -24.94989 z m -27.578685,77.49914 h 18.265034 11.685085 v 5.15059 H 53.113149 34.838299 Z m 50.000058,0 h 15.160812 14.789281 v 5.15059 H 99.968689 84.838357 Z" />
    <path
       id="path1961-0-1-8"
       style="display:inline;fill:#6c5353;fill-opacity:1;stroke:#0000ff;stroke-width:0.188976;stroke-linejoin:miter;stroke-miterlimit:4;stroke-dasharray:none"
       d="M 706.7168 216.68359 L 706.7168 221.19727 L 706.7168 235.33984 L 706.7168 235.90625 L 650.43359 235.90625 L 631.31641 235.90625 L 575.0293 235.90625 L 575.0293 266.13086 L 574.46289 266.13086 L 565.98047 266.13086 L 555.75586 266.13086 L 555.75586 312.03906 L 574.46289 312.03906 L 575.0293 312.03906 L 575.0293 324.17383 L 575.0293 387.44141 L 575.0293 399.57617 L 574.46289 399.57617 L 555.75586 399.57617 L 555.75586 445.48828 L 574.46289 445.48828 L 575.0293 445.48828 L 575.0293 457.62305 L 575.0293 520.89062 L 575.0293 533.02539 L 574.46289 533.02539 L 555.75586 533.02539 L 555.75586 578.92773 L 668.94922 578.92773 L 668.94922 560.2207 L 668.94922 559.6543 L 744.91797 559.6543 L 791.01367 559.6543 L 799.20312 559.6543 L 839.56641 559.6543 L 846.75195 559.6543 L 914.96875 559.6543 L 914.96875 560.2207 L 914.96875 578.92773 L 1028.166 578.92773 L 1028.166 533.02148 L 1009.4277 533.02148 L 1008.8613 533.02148 L 1008.8613 520.89062 L 1008.8613 457.61914 L 1008.8613 445.48828 L 1009.4277 445.48828 L 1028.166 445.48828 L 1028.166 399.57227 L 1009.4277 399.57227 L 1008.8613 399.57227 L 1008.8613 363.94141 L 1008.8613 324.17188 L 1008.8613 312.03906 L 1009.4277 312.03906 L 1028.166 312.03906 L 1028.166 266.13086 L 1020.4277 266.13086 L 1009.4277 266.13086 L 1008.8594 266.13086 L 1008.8594 235.95898 L 877.18359 235.95898 L 877.18359 235.39258 L 877.18359 222.64258 L 877.18359 216.68359 L 706.7168 216.68359 z M 740.8457 442.99414 L 770.89453 442.99414 L 770.89453 455.77734 L 789.79102 455.77734 L 789.79102 470.63281 L 721.94922 470.63281 L 721.94922 487.72656 L 721.94922 502.58203 L 721.94922 505.60547 L 686.23242 505.60547 L 686.23242 464.2207 L 721.94922 464.2207 L 721.94922 455.77734 L 740.8457 455.77734 L 740.8457 442.99414 z M 744.625 522.04688 L 839.30273 522.04688 L 839.30273 541.51367 L 744.625 541.51367 L 744.625 522.04688 z "
       transform="matrix(0.26458333,0,0,0.26458333,0,-351)" />
  </g>
</svg>
