<?xml version="1.0" encoding="UTF-8" standalone="no"?>
<svg
   xmlns:dc="http://purl.org/dc/elements/1.1/"
   xmlns:cc="http://creativecommons.org/ns#"
   xmlns:rdf="http://www.w3.org/1999/02/22-rdf-syntax-ns#"
   xmlns:svg="http://www.w3.org/2000/svg"
   xmlns="http://www.w3.org/2000/svg"
   xmlns:sodipodi="http://sodipodi.sourceforge.net/DTD/sodipodi-0.dtd"
   xmlns:inkscape="http://www.inkscape.org/namespaces/inkscape"
   width="420mm"
   height="594mm"
   viewBox="0 0 420 594"
   version="1.1"
   id="svg8"
   inkscape:version="1.0.2-2 (e86c870879, 2021-01-15)"
   sodipodi:docname="Mark_II.svg">
  <defs
     id="defs2" />
  <sodipodi:namedview
     id="base"
     pagecolor="#ffffff"
     bordercolor="#666666"
     borderopacity="1.0"
     inkscape:pageopacity="0.0"
     inkscape:pageshadow="2"
     inkscape:zoom="0.5"
     inkscape:cx="1580.5932"
     inkscape:cy="329.49216"
     inkscape:document-units="mm"
     inkscape:current-layer="layer2"
     showgrid="false"
     showguides="true"
     inkscape:window-width="2854"
     inkscape:window-height="1496"
     inkscape:window-x="117"
     inkscape:window-y="303"
     inkscape:window-maximized="0"
     inkscape:document-rotation="0"
     inkscape:snap-object-midpoints="true"
     inkscape:snap-global="false"
     inkscape:snap-others="true"
     inkscape:object-nodes="true"
     inkscape:snap-nodes="true"
     inkscape:snap-bbox="true"
     inkscape:snap-smooth-nodes="true"
     inkscape:snap-intersection-paths="true">
    <inkscape:grid
       type="xygrid"
       id="grid19" />
  </sodipodi:namedview>
  <metadata
     id="metadata5">
    <rdf:RDF>
      <cc:Work
         rdf:about="">
        <dc:format>image/svg+xml</dc:format>
        <dc:type
           rdf:resource="http://purl.org/dc/dcmitype/StillImage" />
        <dc:title />
      </cc:Work>
    </rdf:RDF>
  </metadata>
  <g
     inkscape:label="Layer 1"
     inkscape:groupmode="layer"
     id="layer1"
     transform="translate(0,351)" />
  <g
     inkscape:groupmode="layer"
     id="layer2"
     inkscape:label="guide"
     transform="translate(0,351)"
     style="display:inline">
    <g
       id="g3451" />
    <path
       id="path1491"
       style="display:inline;fill:#88aa00;fill-opacity:1;stroke:#0000ff;stroke-width:0.0574926;stroke-linejoin:miter;stroke-miterlimit:4;stroke-dasharray:none"
       d="M 274.84898,187.75661 V 199.898 h 4.95009 0.15039 v 2.40503 18.35029 2.40503 h -0.15039 -4.95009 v 12.14758 h 65.02394 v 0.003 h 59.97618 v -12.14345 h -4.95007 -0.14988 v -2.40501 -18.35031 -2.40501 h 0.14988 4.95007 v -12.14819 h -29.95734 v 4.95269 0.14986 h -19.27427 -1.48105 -9.46248 v -0.003 H 324.09352 304.7991 v -0.14986 -3.61736 -1.33326 z m 29.95424,37.40187 h 34.60668 v 0.003 h 30.48548 v 5.14231 h -29.36256 v -0.003 h -35.7296 z" />
    <path
       id="path1145"
       style="display:inline;fill:#88aa00;fill-opacity:1;stroke:#0000ff;stroke-width:0.0498232;stroke-linejoin:miter;stroke-miterlimit:4;stroke-dasharray:none"
       d="m 27.292765,64.126647 v 22.45032 h -0.14986 -1.91771 -3.03238 v 19.958473 h 4.95112 0.14987 v 1.49706 7.27449 11.17865 h -0.14987 -4.95112 v 9.20718 h -5.3e-4 v 10.72131 h 5.3e-4 4.94957 5.3e-4 0.14935 v 13.61984 h -0.14986 v -0.003 h -4.95009 v 9.94977 h 4.95009 0.14986 v 9.99992 h -0.14986 v 0.004 h 0.15037 12.12071 v -0.94983 -2.44996 h 5.73247 L 32.230975,163.6673 V 136.21211 84.550157 l 12.91859,-12.91497 h 51.20464 27.878415 l 12.91447,12.91859 V 135.98422 163.6709 L 124.229,176.58484 h 5.73352 v 2.44996 0.94983 h 12.12122 v -9.9999 h 0.14986 4.95009 v -9.94979 h -4.95009 -0.14986 V 146.4151 h 0.14986 4.95009 v -10.50271 -9.42578 h -4.94959 -0.14986 v -11.1125 -6.59133 -2.24637 h 0.14986 4.94959 V 86.577947 h -1.77509 -3.175 -0.15039 v -22.45032 l -45.498025,-5.3e-4 v -5.3e-4 z m 110.715225,5.68287 a 0.97505252,0.97505252 0 0 1 0.97512,0.97514 0.97505252,0.97505252 0 0 1 -0.97512,0.97513 0.97505252,0.97505252 0 0 1 -0.97515,-0.97513 0.97505252,0.97505252 0 0 1 0.97515,-0.97514 z m -106.649845,0.001 a 0.97505252,0.97505252 0 0 1 0.97514,0.97462 0.97505252,0.97505252 0 0 1 -0.97514,0.97513 0.97505252,0.97505252 0 0 1 -0.97513,-0.97513 0.97505252,0.97505252 0 0 1 0.97513,-0.97462 z m 102.832495,2.37402 a 2.4000521,2.4000521 0 0 1 0.0175,0 2.4000521,2.4000521 0 0 1 2.39988,2.39985 2.4000521,2.4000521 0 0 1 -2.39988,2.40037 2.4000521,2.4000521 0 0 1 -2.40035,-2.40037 2.4000521,2.4000521 0 0 1 2.38278,-2.39985 z m -99.049775,5.2e-4 a 2.400052,2.400052 0 0 1 0.0176,0 2.400052,2.400052 0 0 1 2.39985,2.39986 2.400052,2.400052 0 0 1 -2.39985,2.39985 2.400052,2.400052 0 0 1 -2.40037,-2.39985 2.400052,2.400052 0 0 1 2.3828,-2.39986 z m -10e-4,99.048193 v 0 a 2.400052,2.400052 0 0 1 0.0171,0 2.400052,2.400052 0 0 1 0.002,0 2.400052,2.400052 0 0 1 0.0656,0 2.400052,2.400052 0 0 1 0.002,0 2.400052,2.400052 0 0 1 0.0651,0.003 2.400052,2.400052 0 0 1 0.002,0 2.400052,2.400052 0 0 1 0.0656,0.007 2.400052,2.400052 0 0 1 0.002,0 2.400052,2.400052 0 0 1 0.0651,0.006 2.400052,2.400052 0 0 1 0.003,0 2.400052,2.400052 0 0 1 0.0646,0.008 2.400052,2.400052 0 0 1 0.003,0 2.400052,2.400052 0 0 1 0.0651,0.0103 2.400052,2.400052 0 0 1 0.001,0 2.400052,2.400052 0 0 1 0.0646,0.0119 2.400052,2.400052 0 0 1 0.38603,0.1106 2.400052,2.400052 0 0 1 0.003,0 2.400052,2.400052 0 0 1 0.12247,0.0506 2.400052,2.400052 0 0 1 0.003,0 2.400052,2.400052 0 0 1 0.11937,0.0574 2.400052,2.400052 0 0 1 0.002,0 2.400052,2.400052 0 0 1 1.30173,2.13424 2.400052,2.400052 0 0 1 -0.23461,1.03663 2.400052,2.400052 0 0 1 -5.3e-4,0 2.400052,2.400052 0 0 1 -0.0295,0.0594 2.400052,2.400052 0 0 1 -5.3e-4,0 2.400052,2.400052 0 0 1 -0.4315,0.59375 2.400052,2.400052 0 0 1 -0.0481,0.047 2.400052,2.400052 0 0 1 -0.0956,0.0868 2.400052,2.400052 0 0 1 -0.003,0.003 2.400052,2.400052 0 0 1 -5.3e-4,0 2.400052,2.400052 0 0 1 -0.009,0.007 2.400052,2.400052 0 0 1 -0.35089,0.24546 2.400052,2.400052 0 0 1 -0.0243,0.014 2.400052,2.400052 0 0 1 -5.3e-4,0 2.400052,2.400052 0 0 1 -0.0584,0.0315 2.400052,2.400052 0 0 1 -5.3e-4,0 2.400052,2.400052 0 0 1 -0.0295,0.0151 2.400052,2.400052 0 0 1 -0.0589,0.0289 2.400052,2.400052 0 0 1 -0.0315,0.0164 2.400052,2.400052 0 0 1 -5.3e-4,0 2.400052,2.400052 0 0 1 -0.061,0.0265 2.400052,2.400052 0 0 1 -0.001,0 2.400052,2.400052 0 0 1 -0.0615,0.0265 2.400052,2.400052 0 0 1 -5.3e-4,0 2.400052,2.400052 0 0 1 -0.0393,0.0146 2.400052,2.400052 0 0 1 -0.045,0.0161 2.400052,2.400052 0 0 1 -0.0413,0.0156 2.400052,2.400052 0 0 1 -0.74207,0.11781 2.400052,2.400052 0 0 1 -2.40037,-2.39985 2.400052,2.400052 0 0 1 0.18035,-0.91416 2.400052,2.400052 0 0 1 5.2e-4,0 2.400052,2.400052 0 0 1 1.33843,-1.31775 2.400052,2.400052 0 0 1 0.0119,-0.006 2.400052,2.400052 0 0 1 10e-4,0 2.400052,2.400052 0 0 1 0.0155,-0.005 2.400052,2.400052 0 0 1 0.11059,-0.0393 2.400052,2.400052 0 0 1 0.71675,-0.11834 z m 99.048745,0 a 2.4000521,2.4000521 0 0 1 0.0175,0 2.4000521,2.4000521 0 0 1 2.40038,2.39985 2.4000521,2.4000521 0 0 1 -1.46968,2.21226 2.4000521,2.4000521 0 0 1 -0.12298,0.0481 2.4000521,2.4000521 0 0 1 -0.003,0 2.4000521,2.4000521 0 0 1 -0.18962,0.0589 2.4000521,2.4000521 0 0 1 -0.003,0 2.4000521,2.4000521 0 0 1 -0.26252,0.0537 2.4000521,2.4000521 0 0 1 -0.34933,0.0259 2.4000521,2.4000521 0 0 1 -0.004,0 2.4000521,2.4000521 0 0 1 -0.0651,0 2.4000521,2.4000521 0 0 1 -0.003,0 2.4000521,2.4000521 0 0 1 -0.0646,-0.003 2.4000521,2.4000521 0 0 1 -0.003,0 2.4000521,2.4000521 0 0 1 -0.0651,-0.005 2.4000521,2.4000521 0 0 1 -0.003,0 2.4000521,2.4000521 0 0 1 -0.0651,-0.006 2.4000521,2.4000521 0 0 1 -0.003,0 2.4000521,2.4000521 0 0 1 -0.0641,-0.008 2.4000521,2.4000521 0 0 1 -0.11576,-0.0191 2.4000521,2.4000521 0 0 1 -0.0185,-0.004 2.4000521,2.4000521 0 0 1 -0.0103,-0.003 2.4000521,2.4000521 0 0 1 -0.37414,-0.10803 2.4000521,2.4000521 0 0 1 -0.003,0 2.4000521,2.4000521 0 0 1 -0.24286,-0.1085 2.4000521,2.4000521 0 0 1 -0.003,0 2.4000521,2.4000521 0 0 1 -1.30173,-2.13477 2.4000521,2.4000521 0 0 1 1.17099,-2.06136 2.4000521,2.4000521 0 0 1 0.0563,-0.0331 2.4000521,2.4000521 0 0 1 0.003,0 2.4000521,2.4000521 0 0 1 0.0574,-0.031 2.4000521,2.4000521 0 0 1 0.003,0 2.4000521,2.4000521 0 0 1 0.0584,-0.03 2.4000521,2.4000521 0 0 1 0.003,0 2.4000521,2.4000521 0 0 1 0.0589,-0.0279 2.4000521,2.4000521 0 0 1 0.003,0 2.4000521,2.4000521 0 0 1 0.06,-0.0269 2.4000521,2.4000521 0 0 1 0.003,0 2.4000521,2.4000521 0 0 1 0.0605,-0.0249 2.4000521,2.4000521 0 0 1 0.004,0 2.4000521,2.4000521 0 0 1 0.0615,-0.0228 2.4000521,2.4000521 0 0 1 0.003,0 2.4000521,2.4000521 0 0 1 0.12557,-0.0408 2.4000521,2.4000521 0 0 1 0.003,0 2.4000521,2.4000521 0 0 1 0.063,-0.0175 2.4000521,2.4000521 0 0 1 0.003,0 2.4000521,2.4000521 0 0 1 0.0636,-0.0156 2.4000521,2.4000521 0 0 1 0.003,0 2.4000521,2.4000521 0 0 1 0.0641,-0.014 2.4000521,2.4000521 0 0 1 0.003,0 2.4000521,2.4000521 0 0 1 0.0641,-0.0119 2.4000521,2.4000521 0 0 1 0.003,0 2.4000521,2.4000521 0 0 1 0.0646,-0.0103 2.4000521,2.4000521 0 0 1 0.33333,-0.0265 l -0.008,-0.005 z m -102.839725,5.2193 a 0.97505252,0.97505252 0 0 1 0.01,0 l -0.001,0.005 a 0.97505252,0.97505252 0 0 1 0.0429,0 0.97505252,0.97505252 0 0 1 5.3e-4,0 0.97505252,0.97505252 0 0 1 0.0419,0.003 0.97505252,0.97505252 0 0 1 5.3e-4,0 0.97505252,0.97505252 0 0 1 0.0419,0.005 0.97505252,0.97505252 0 0 1 5.3e-4,0 0.97505252,0.97505252 0 0 1 0.0424,0.007 0.97505252,0.97505252 0 0 1 5.3e-4,0 0.97505252,0.97505252 0 0 1 0.0408,0.008 0.97505252,0.97505252 0 0 1 5.3e-4,0 0.97505252,0.97505252 0 0 1 0.0408,0.0103 0.97505252,0.97505252 0 0 1 5.3e-4,0 0.97505252,0.97505252 0 0 1 0.0408,0.0119 0.97505252,0.97505252 0 0 1 5.3e-4,0 0.97505252,0.97505252 0 0 1 0.0398,0.014 0.97505252,0.97505252 0 0 1 5.3e-4,0 0.97505252,0.97505252 0 0 1 0.0398,0.0156 0.97505252,0.97505252 0 0 1 5.3e-4,0 0.97505252,0.97505252 0 0 1 0.0377,0.0169 0.97505252,0.97505252 0 0 1 0.001,0 0.97505252,0.97505252 0 0 1 0.0372,0.019 0.97505252,0.97505252 0 0 1 5.3e-4,0 0.97505252,0.97505252 0 0 1 0.0372,0.0206 0.97505252,0.97505252 0 0 1 0.001,0 0.97505252,0.97505252 0 0 1 0.0357,0.0222 0.97505252,0.97505252 0 0 1 5.3e-4,0 0.97505252,0.97505252 0 0 1 0.0351,0.0238 0.97505252,0.97505252 0 0 1 5.3e-4,0 0.97505252,0.97505252 0 0 1 0.0336,0.0254 0.97505252,0.97505252 0 0 1 5.3e-4,0 0.97505252,0.97505252 0 0 1 0.0331,0.0269 0.97505252,0.97505252 0 0 1 5.3e-4,0 0.97505252,0.97505252 0 0 1 0.0315,0.0279 0.97505252,0.97505252 0 0 1 5.3e-4,0 0.97505252,0.97505252 0 0 1 0.03,0.03 0.97505252,0.97505252 0 0 1 0.2837,0.68731 0.97505252,0.97505252 0 0 1 -0.0455,0.29453 0.97505252,0.97505252 0 0 1 -0.0134,0.0398 0.97505252,0.97505252 0 0 1 -5.3e-4,0 0.97505252,0.97505252 0 0 1 -0.015,0.0393 0.97505252,0.97505252 0 0 1 -5.2e-4,0 0.97505252,0.97505252 0 0 1 -0.0165,0.0382 0.97505252,0.97505252 0 0 1 -5.3e-4,0 0.97505252,0.97505252 0 0 1 -0.0186,0.0377 0.97505252,0.97505252 0 0 1 -5.3e-4,0 0.97505252,0.97505252 0 0 1 -0.0202,0.0372 0.97505252,0.97505252 0 0 1 -5.3e-4,0 0.97505252,0.97505252 0 0 1 -0.0217,0.0357 0.97505252,0.97505252 0 0 1 -5.2e-4,0 0.97505252,0.97505252 0 0 1 -0.0238,0.0351 0.97505252,0.97505252 0 0 1 -5.3e-4,0 0.97505252,0.97505252 0 0 1 -0.0248,0.0341 0.97505252,0.97505252 0 0 1 -5.2e-4,0 0.97505252,0.97505252 0 0 1 -0.0258,0.0326 0.97505252,0.97505252 0 0 1 -5.3e-4,0 0.97505252,0.97505252 0 0 1 -0.0274,0.0315 0.97505252,0.97505252 0 0 1 -0.001,0 0.97505252,0.97505252 0 0 1 -0.0289,0.03 0.97505252,0.97505252 0 0 1 -5.3e-4,0 0.97505252,0.97505252 0 0 1 -0.0305,0.0289 0.97505252,0.97505252 0 0 1 -5.3e-4,0 0.97505252,0.97505252 0 0 1 -0.0315,0.0279 0.97505252,0.97505252 0 0 1 -5.3e-4,0 0.97505252,0.97505252 0 0 1 -0.0331,0.0259 0.97505252,0.97505252 0 0 1 -5.3e-4,0 0.97505252,0.97505252 0 0 1 -0.0341,0.0249 0.97505252,0.97505252 0 0 1 -5.3e-4,0 0.97505252,0.97505252 0 0 1 -0.0346,0.0228 0.97505252,0.97505252 0 0 1 -10e-4,0 0.97505252,0.97505252 0 0 1 -0.0362,0.0217 0.97505252,0.97505252 0 0 1 -5.3e-4,0 0.97505252,0.97505252 0 0 1 -0.0372,0.0196 0.97505252,0.97505252 0 0 1 -5.3e-4,0 0.97505252,0.97505252 0 0 1 -0.0377,0.0185 0.97505252,0.97505252 0 0 1 -5.3e-4,0 0.97505252,0.97505252 0 0 1 -0.0388,0.0164 0.97505252,0.97505252 0 0 1 -5.3e-4,0 0.97505252,0.97505252 0 0 1 -0.0393,0.0145 0.97505252,0.97505252 0 0 1 -5.3e-4,0 0.97505252,0.97505252 0 0 1 -0.0398,0.013 0.97505252,0.97505252 0 0 1 -0.28887,0.0439 0.97505252,0.97505252 0 0 1 -0.97514,-0.97513 0.97505252,0.97505252 0 0 1 0.0455,-0.29403 0.97505252,0.97505252 0 0 1 0.0134,-0.0403 0.97505252,0.97505252 0 0 1 5.3e-4,0 0.97505252,0.97505252 0 0 1 0.015,-0.0393 0.97505252,0.97505252 0 0 1 5.3e-4,0 0.97505252,0.97505252 0 0 1 0.0165,-0.0382 0.97505252,0.97505252 0 0 1 5.3e-4,0 0.97505252,0.97505252 0 0 1 0.0186,-0.0377 0.97505252,0.97505252 0 0 1 5.3e-4,0 0.97505252,0.97505252 0 0 1 0.0202,-0.0372 0.97505252,0.97505252 0 0 1 5.3e-4,0 0.97505252,0.97505252 0 0 1 0.0217,-0.0356 0.97505252,0.97505252 0 0 1 5.3e-4,0 0.97505252,0.97505252 0 0 1 0.0233,-0.0351 0.97505252,0.97505252 0 0 1 5.3e-4,0 0.97505252,0.97505252 0 0 1 0.0248,-0.0336 0.97505252,0.97505252 0 0 1 5.3e-4,0 0.97505252,0.97505252 0 0 1 0.0269,-0.0331 0.97505252,0.97505252 0 0 1 5.3e-4,0 0.97505252,0.97505252 0 0 1 0.0574,-0.062 0.97505252,0.97505252 0 0 1 0.002,-0.003 0.97505252,0.97505252 0 0 1 0.03,-0.0284 0.97505252,0.97505252 0 0 1 0.0646,-0.0543 0.97505252,0.97505252 0 0 1 10e-4,0 0.97505252,0.97505252 0 0 1 0.0693,-0.0481 0.97505252,0.97505252 0 0 1 0.001,0 0.97505252,0.97505252 0 0 1 0.0625,-0.0362 0.97505252,0.97505252 0 0 1 0.0108,-0.006 0.97505252,0.97505252 0 0 1 5.3e-4,0 0.97505252,0.97505252 0 0 1 0.0129,-0.006 0.97505252,0.97505252 0 0 1 0.0951,-0.0413 0.97505252,0.97505252 0 0 1 0.009,-0.003 0.97505252,0.97505252 0 0 1 0.001,0 0.97505252,0.97505252 0 0 1 0.0393,-0.013 0.97505252,0.97505252 0 0 1 10e-4,0 0.97505252,0.97505252 0 0 1 0.0176,-0.005 0.97505252,0.97505252 0 0 1 0.0434,-0.0114 0.97505252,0.97505252 0 0 1 0.0207,-0.005 0.97505252,0.97505252 0 0 1 0.0264,-0.005 0.97505252,0.97505252 0 0 1 0.17002,-0.0169 z m 106.637945,0.005 a 0.97505252,0.97505252 0 0 1 0.0196,0 0.97505252,0.97505252 0 0 1 0.97515,0.97462 0.97505252,0.97505252 0 0 1 -0.76896,0.9529 0.97505252,0.97505252 0 0 1 -0.20463,0.0222 0.97505252,0.97505252 0 0 1 -0.0444,0 0.97505252,0.97505252 0 0 1 -0.0408,-0.003 0.97505252,0.97505252 0 0 1 -0.003,0 0.97505252,0.97505252 0 0 1 -0.0408,-0.005 0.97505252,0.97505252 0 0 1 -0.003,0 0.97505252,0.97505252 0 0 1 -0.0408,-0.007 0.97505252,0.97505252 0 0 1 -0.003,0 0.97505252,0.97505252 0 0 1 -0.0403,-0.008 0.97505252,0.97505252 0 0 1 -0.0827,-0.0222 0.97505252,0.97505252 0 0 1 -0.68058,-0.92967 0.97505252,0.97505252 0 0 1 0.34985,-0.7488 0.97505252,0.97505252 0 0 1 0.0667,-0.0511 0.97505252,0.97505252 0 0 1 0.0713,-0.045 0.97505252,0.97505252 0 0 1 0.075,-0.0388 0.97505252,0.97505252 0 0 1 0.0382,-0.0164 0.97505252,0.97505252 0 0 1 0.009,-0.003 0.97505252,0.97505252 0 0 1 0.031,-0.0119 0.97505252,0.97505252 0 0 1 0.063,-0.0201 0.97505252,0.97505252 0 0 1 0.0175,-0.005 0.97505252,0.97505252 0 0 1 0.0206,-0.005 0.97505252,0.97505252 0 0 1 0.0362,-0.008 0.97505252,0.97505252 0 0 1 0.16949,-0.0185 l 0.0109,-0.003 z" />
    <text
       xml:space="preserve"
       style="font-style:normal;font-variant:normal;font-weight:normal;font-stretch:normal;font-size:50.8px;line-height:1.25;font-family:sans-serif;-inkscape-font-specification:'sans-serif, Normal';font-variant-ligatures:normal;font-variant-caps:normal;font-variant-numeric:normal;font-variant-east-asian:normal;display:inline;fill:#000000;fill-opacity:1;stroke:none;stroke-width:0.264583"
       x="341.89917"
       y="-301.04102"
       id="text848"><tspan
         sodipodi:role="line"
         id="tspan846"
         x="341.89917"
         y="-301.04102"
         style="font-style:normal;font-variant:normal;font-weight:normal;font-stretch:normal;font-size:50.8px;font-family:sans-serif;-inkscape-font-specification:'sans-serif, Normal';font-variant-ligatures:normal;font-variant-caps:normal;font-variant-numeric:normal;font-variant-east-asian:normal;fill:#000000;stroke-width:0.264583">B5</tspan></text>
    <path
       id="path2021"
       style="display:inline;fill:#88aa00;fill-opacity:1;stroke:#0000ff;stroke-width:0.0500002;stroke-linejoin:miter;stroke-miterlimit:4;stroke-dasharray:none"
       d="m 139.96144,199.08918 v 4.41214 h -0.14986 -4.95006 v 4.95006 h 4.95006 0.15039 v 4.41214 h 34.84698 v -4.95009 -0.14986 h 0.17155 13.44105 3.85558 12.96975 5.82805 8.83669 v 0.14986 4.95009 h 34.84282 v -4.41214 h 0.14986 4.95009 v -4.95006 h -4.95009 -0.14986 v -4.41214 h -62.41375 -0.4377 z" />
    <path
       id="path2154"
       style="display:inline;fill:#88aa00;stroke:#0000ff;stroke-width:0.0499986;stroke-miterlimit:4;stroke-dasharray:none"
       d="m 70.374446,116.30998 v 4.95006 0.15039 H 50.424256 V 166.2599 H 115.37427 V 121.40993 H 95.424586 v -0.14989 -4.95006 z m -15.02492,25.70022 a 1.7250233,1.7250234 0 0 1 1.72495,1.72498 1.7250233,1.7250234 0 0 1 -1.72495,1.72495 1.7250233,1.7250234 0 0 1 -1.72495,-1.72495 1.7250233,1.7250234 0 0 1 1.72495,-1.72498 z m 55.099984,0 a 1.7250233,1.7250234 0 0 1 1.72498,1.72498 1.7250233,1.7250234 0 0 1 -1.72498,1.72495 1.7250233,1.7250234 0 0 1 -1.72495,-1.72495 1.7250233,1.7250234 0 0 1 1.72495,-1.72498 z m -40.024954,14.20016 h 24.94992 v 5.15009 h -24.94992 z" />
    <path
       id="path2177"
       style="display:inline;fill:#88aa00;stroke:#0000ff;stroke-width:0.0499946;stroke-miterlimit:4;stroke-dasharray:none"
       d="m 73.359913,86.16939 v 4.95009 0.14986 h -19.94969 v 4.75009 h 19.94969 v 0.14986 4.95009 h 25.05014 V 96.16929 96.01943 H 118.36025 V 91.26934 H 98.410053 v -0.14986 -4.95009 z" />
    <path
       id="rect4636-8-6-8-3-5-5-2-8-6-1-9-2"
       style="display:inline;fill:#88aa00;fill-opacity:1;stroke:#0000ff;stroke-width:0.0501134;stroke-linejoin:miter;stroke-miterlimit:4;stroke-dasharray:none"
       d="m 227.65345,-255.3884 h 4.95009 0.14986 v 9.95183 h 32.25022 v -10.0025 h 0.14986 4.95009 v -29.95009 h -4.95009 -0.14986 v -4.58422 -1.62264 -7.63675 -2.55799 -3.64834 h 0.14986 4.95009 v -29.95012 h -4.95009 -0.14986 v -9.95185 H 232.7534 v 9.94979 h -0.14986 -4.95009 v 29.99713 h 4.95009 0.14986 v 3.60392 2.50269 0.005 7.73184 0.006 0.8573 5.24878 h -0.14986 -4.95009 z m 8.75038,-5.10357 v -19.95022 h 24.94989 v 19.95022 z m 0,-49.95252 v -19.95072 h 24.94989 v 19.95072 z" />
    <path
       id="path1787"
       style="display:inline;fill:#88aa00;fill-opacity:1;stroke:#0000ff;stroke-width:0.0501213;stroke-miterlimit:4;stroke-dasharray:none"
       d="m 31.741627,-141.33859 h 4.95009 0.14986 v 24.85017 h 24.85016 v 0.14986 4.95009 h 40.049753 v -4.95009 -0.14986 h 9.19479 11.56053 9.19478 v 0.14986 4.95009 h 40.04977 v -4.95009 -0.14986 h 4.85653 l 25.09356,0.0512 v 5.04878 h 14.95621 25.09356 v -4.95009 -0.14986 h 4.85653 l 19.94041,0.0501 0.0527,5.04931 20.00239,0.0548 v -5.09995 l 9.24904,-0.0543 h 11.56055 9.19477 v 0.14986 4.95009 h 40.04977 v -4.95009 -0.14986 h 24.85017 v -24.85017 h 0.14986 4.95009 v -25.20051 -14.83632 -25.05583 h -4.95009 -0.14986 v -24.85017 h -24.85017 v -0.14986 -4.95009 h -40.04977 v 4.95009 0.14986 h -9.19477 -11.56055 -9.19477 v -0.14986 -4.95009 l -20.1104,-0.0517 10e-4,5.20176 -24.79694,-0.0501 v -0.14986 -4.95009 h -25.09356 -14.95621 v 5.14906 l -25.09356,-0.0496 h -4.85653 v -0.14986 -4.95009 h -40.04977 v 4.95009 0.14986 h -9.19478 -11.56053 -9.19479 v -0.14986 -4.95009 H 61.691697 v 4.95009 0.14986 h -24.85016 v 24.85067 h -0.14986 -4.95009 v 25.04345 14.84974 z m 24.45019,-4.99504 c 0,-1.64304 1.33195,-2.97503 2.97501,-2.975 1.64304,0 2.97501,1.33199 2.97501,2.975 3e-5,1.64309 -1.33194,2.97502 -2.97501,2.97502 -1.64306,6e-5 -2.97504,-1.33193 -2.97501,-2.97502 z m 0,-55.09998 c 0,-1.64304 1.33195,-2.97503 2.97501,-2.97503 1.64304,0 2.97501,1.33202 2.97501,2.97503 0,1.64306 -1.33197,2.975 -2.97501,2.975 -1.64306,2e-5 -2.97501,-1.33192 -2.97501,-2.975 z m 15.45022,40.02494 v -24.94989 h 5.15007 v 24.94989 z m 77.499143,27.57713 v -18.26504 -11.68508 h 5.15059 v 11.67527 18.27485 z m 0,-50.00006 v -15.16081 -14.78928 h 5.15059 v 14.81976 15.13033 z m 114.90669,50.00006 v -29.8514 -0.0987 h 5.15006 v 11.67527 18.27485 z m 0,-50.00006 v -29.8514 l 0.0145,-0.0987 h 5.13559 v 14.81976 15.13033 z" />
    <path
       id="path921-5"
       style="display:inline;opacity:0.894207;fill:#88aa00;fill-opacity:1;stroke:#0000ff;stroke-width:0.0498232;stroke-linejoin:miter;stroke-miterlimit:4;stroke-dasharray:none"
       d="m 160.98537,184.30872 h 24.94526 v -2.62464 -2.32545 -0.14986 h 9.30277 v -0.003 h 20.75482 v 0.14986 0.77515 4.17441 h 39.94227 v -0.76428 -4.18578 -0.15039 l 24.90441,1.8e-4 v 0.15452 0 4.94956 l 20.05514,-1.9e-4 v -2.62464 -2.32545 -0.14986 h 9.30277 v -0.003 h 20.7548 v 0.14986 0.77515 4.17441 h 39.94227 v -0.76428 -4.18578 -0.15039 h 24.9044 v -24.84655 h 0.14986 4.95062 V 114.30854 89.25837 h -4.95062 -0.14986 V 64.411833 h -24.9044 v -0.15036 -4.18582 -0.76427 h -39.94227 v 4.17441 0.77515 0.14986 h -20.7548 v -0.003 h -9.30277 v -0.14986 -2.32595 -2.62414 H 280.8349 v 4.94906 0 0.15502 h -24.90441 v -0.15036 -4.18582 -0.76427 h -39.94227 v 4.17441 0.77515 0.14986 H 195.2334 v -0.003 h -9.30277 v -0.14986 -2.32595 -2.62414 h -24.94526 v 4.94906 h 2.44999 V 76.5286 h -2.44999 v 2.78019 87.78017 h 2.44999 v 12.27058 h -2.44999 z m 2.39985,-22.44719 v -30.00026 h 5.15009 v 30.00026 z m 0,-50.00006 V 81.86124 h 5.15009 v 30.00023 z m 5.82446,63.27211 c 0,-0.53848 0.43711,-0.97515 0.97565,-0.97515 0.5385,0 0.97467,0.43667 0.97462,0.97515 5e-5,0.53851 -0.43612,0.97462 -0.97462,0.97462 -0.53854,0 -0.97565,-0.43609 -0.97565,-0.97462 z m 0,-106.649827 c 0,-0.53854 0.43711,-0.97513 0.97565,-0.97513 0.5385,0 0.97467,0.43659 0.97462,0.97513 0,0.53848 -0.43612,0.97461 -0.97462,0.97461 -0.53854,0 -0.97565,-0.43613 -0.97565,-0.97461 z m 1.7296,92.870297 V 82.2271 l 12.90826,-12.914967 h 79.12645 l 12.91498,12.908247 v 79.12695 l -12.90826,12.91498 h -79.12695 z m 0.64596,9.97924 c 0,-1.32551 1.07384,-2.39985 2.39934,-2.39985 1.32554,0 2.40038,1.07434 2.40038,2.39985 0,1.32551 -1.07484,2.40038 -2.40038,2.40038 -1.3255,0 -2.39934,-1.07487 -2.39934,-2.40038 z m 0,-99.04976 c 0,-1.32551 1.07384,-2.39985 2.39934,-2.39985 1.32554,0 2.40038,1.07434 2.40038,2.39985 0,1.32551 -1.07484,2.39985 -2.40038,2.39985 -1.3255,0 -2.39934,-1.07434 -2.39934,-2.39985 z m 99.04926,99.04976 c 0,-1.32551 1.07434,-2.39985 2.39985,-2.39985 1.32551,0 2.40038,1.07434 2.40038,2.39985 0,1.32551 -1.07487,2.40038 -2.40038,2.40038 -1.32551,0 -2.39985,-1.07487 -2.39985,-2.40038 z m 0,-99.04976 c 0,-1.32551 1.07434,-2.39985 2.39985,-2.39985 1.32551,0 2.40038,1.07434 2.40038,2.39985 0,1.32551 -1.07487,2.39985 -2.40038,2.39985 -1.32551,0 -2.39985,-1.07434 -2.39985,-2.39985 z m 5.22502,102.85005 c 0,-0.53851 0.43661,-0.97515 0.97512,-0.97515 0.53853,0 0.97512,0.43664 0.97512,0.97515 0,0.53851 -0.43661,0.97512 -0.97512,0.97512 -0.53851,0 -0.97512,-0.43659 -0.97512,-0.97512 z m 0,-106.649827 c 0,-0.53854 0.43661,-0.97513 0.97512,-0.97513 0.53851,0 0.97512,0.43659 0.97512,0.97513 0,0.5385 -0.43661,0.97461 -0.97512,0.97461 -0.53851,0 -0.97512,-0.43611 -0.97512,-0.97461 z m 2.4851,93.377777 v -30.00026 h 5.15009 v 30.00026 z m 0,-50.00006 V 81.86124 h 5.15009 v 30.00023 z m 5.82446,63.27211 c 0,-0.53848 0.43711,-0.97515 0.97565,-0.97515 0.5385,0 0.97467,0.43667 0.97462,0.97515 5e-5,0.53851 -0.43612,0.97462 -0.97462,0.97462 -0.53854,0 -0.97565,-0.43609 -0.97565,-0.97462 z m 0,-106.649827 c 0,-0.53854 0.43711,-0.97513 0.97565,-0.97513 0.5385,0 0.97467,0.43659 0.97462,0.97513 0,0.53848 -0.43612,0.97461 -0.97462,0.97461 -0.53854,0 -0.97565,-0.43613 -0.97565,-0.97461 z m 1.7296,92.870297 V 82.2271 l 12.90827,-12.914967 h 79.12643 l 12.91497,12.908247 v 79.12695 l -12.90825,12.91498 h -79.12694 z m 0.64596,9.97924 c 0,-1.32551 1.07383,-2.39985 2.39935,-2.39985 1.32554,0 2.40036,1.07434 2.40036,2.39985 0,1.32551 -1.07482,2.40038 -2.40036,2.40038 -1.32552,0 -2.39935,-1.07487 -2.39935,-2.40038 z m 0,-99.04976 c 0,-1.32551 1.07383,-2.39985 2.39935,-2.39985 1.32554,0 2.40036,1.07434 2.40036,2.39985 0,1.32551 -1.07482,2.39985 -2.40036,2.39985 -1.32552,0 -2.39935,-1.07434 -2.39935,-2.39985 z m 99.04924,99.04976 c 0,-1.32551 1.07434,-2.39985 2.39985,-2.39985 1.32551,0 2.40038,1.07434 2.40038,2.39985 0,1.32551 -1.07487,2.40038 -2.40038,2.40038 -1.32551,0 -2.39985,-1.07487 -2.39985,-2.40038 z m 0,-99.04976 c 0,-1.32551 1.07434,-2.39985 2.39985,-2.39985 1.32551,0 2.40038,1.07434 2.40038,2.39985 0,1.32551 -1.07487,2.39985 -2.40038,2.39985 -1.32551,0 -2.39985,-1.07434 -2.39985,-2.39985 z m 5.22499,102.85005 c 0,-0.53851 0.43665,-0.97515 0.97515,-0.97515 0.53856,0 0.97512,0.43664 0.97512,0.97515 0,0.53851 -0.43661,0.97512 -0.97512,0.97512 -0.5385,0 -0.97515,-0.43659 -0.97515,-0.97512 z m 0,-106.649827 c 0,-0.53854 0.43665,-0.97513 0.97515,-0.97513 0.53851,0 0.97512,0.43659 0.97512,0.97513 0,0.5385 -0.43661,0.97461 -0.97512,0.97461 -0.5385,0 -0.97515,-0.43611 -0.97515,-0.97461 z"
       sodipodi:nodetypes="cccccccccccccccccccccccccccccccccccccccccccccccccccccccccccccccccccccccccccccccccccccccccccccccsscssssssscccccccccssssssssssssssssssssssssssssssccccccccccsssssssssscccccccccssssssssssssssssssssssssssssss" />
    <path
       id="path2481-1-3-2-4-0-7-4"
       style="display:inline;opacity:1;fill:#88aa00;fill-opacity:1;stroke:#0000ff;stroke-width:0.0574926;stroke-linejoin:miter;stroke-miterlimit:4;stroke-dasharray:none"
       d="m 32.006738,-3.6384695 h 4.41213 v -4.95009 -0.14986 h 2.64532 0.15555 2.14922 v 0.14986 4.95009 h 4.41368 v -4.95009 L 151.16792,-52.031889 h 115.68855 v 0 h 114.9594 v -12.142922 h 0.14986 4.94958 v -23.161392 h -4.95008 -0.14986 v -12.14602 H 356.9652 v 4.95009 0.14986 h -7.45072 -25.14883 -7.45072 v -0.14986 -4.95009 h -29.94959 v 4.95009 0.14986 h -7.4502 -12.65917 v -5.09995 H 242.0058 v 4.95009 0.14986 h -7.45069 -25.14886 -7.45072 v -0.14986 -4.95009 h -29.94958 v 4.95009 0.14986 h -7.45019 -25.14936 -7.45019 v -0.14986 -4.95009 h -29.94959 v 4.95009 0.14986 h -32.599582 -7.45019 v -0.14986 -4.94958 h -24.85068 v 12.14604 h -0.14986 -4.94957 v 23.161381 h 4.95008 0.14987 v 10.969873 1.17718 h -0.14987 -4.95008 v 23.16036 h 4.95008 0.14987 v 1.17615 9.79371 1.17615 h -0.14987 -4.95008 v 8.1333695 z m 16.98036,-39.8326995 a 2.3999997,2.3999997 0 0 1 0,-0.0169 v 0 a 2.3999997,2.3999997 0 0 1 2.39985,-2.38228 2.3999997,2.3999997 0 0 1 2.39985,2.39985 2.3999997,2.3999997 0 0 1 -2.39985,2.39985 2.3999997,2.3999997 0 0 1 -2.39985,-2.39985 z m 0,-39.155244 a 2.3999997,2.3999997 0 0 1 0,-0.0169 v 0 a 2.3999997,2.3999997 0 0 1 2.39985,-2.38228 2.3999997,2.3999997 0 0 1 2.39985,2.39985 2.3999997,2.3999997 0 0 1 -2.39985,2.39985 2.3999997,2.3999997 0 0 1 -2.39985,-2.39985 z m 11.45563,57.124184 18.49086,-7.6228 1.98179,4.80798 -18.49086,7.62227 z m 36.981205,-15.24508 18.490357,-7.62228 1.98178,4.80746 -18.490353,7.62227 z m 0.66611,-41.879104 a 2.3999997,2.3999997 0 0 1 0,-0.0169 v 0 a 2.3999997,2.3999997 0 0 1 2.399857,-2.38228 2.3999997,2.3999997 0 0 1 2.39985,2.39985 2.3999997,2.3999997 0 0 1 -2.39985,2.39985 2.3999997,2.3999997 0 0 1 -2.399857,-2.39985 z m 30.422937,29.082984 9.24597,-3.80958 1.98075,4.80798 -9.24595,3.80958 z m 18.43918,-3.38945 v -5.14956 h 25.00056 v 5.14956 z m 6.7655,-25.693534 a 2.3999998,2.3999998 0 0 1 0,-0.0169 v 0 a 2.3999998,2.3999998 0 0 1 2.39985,-2.38228 2.3999998,2.3999998 0 0 1 2.39985,2.39985 2.3999998,2.3999998 0 0 1 -2.39985,2.39985 2.3999998,2.3999998 0 0 1 -2.39985,-2.39985 z m 48.29264,25.689404 v -5.14233 h 39.94227 v 5.14233 z m 49.74167,-25.689404 a 2.3999998,2.3999998 0 0 1 0,-0.0169 v 0 a 2.3999998,2.3999998 0 0 1 2.39985,-2.38228 2.3999998,2.3999998 0 0 1 2.40038,2.39985 2.3999998,2.3999998 0 0 1 -2.40038,2.39985 2.3999998,2.3999998 0 0 1 -2.39985,-2.39985 z m 15.10501,25.693534 v -5.14956 h 20.05512 v 5.14956 z m 50.11272,-0.004 v -5.14234 h 39.94226 v 5.14234 z" />
    <path
       id="rect4636-8-6-8-3-5-5-2-8-6-1-9-2-5"
       style="display:inline;fill:#88aa00;fill-opacity:1;stroke:#0000ff;stroke-width:0.0501134;stroke-linejoin:miter;stroke-miterlimit:4;stroke-dasharray:none"
       d="m 174.62896,-255.4112 h 4.95009 0.14986 v 9.95183 h 32.25022 v -10.0025 h 0.14986 4.95009 v -29.95009 h -4.95009 -0.14986 v -4.58422 -1.62264 -7.63675 -2.55799 -3.64834 h 0.14986 4.95009 v -29.95012 h -4.95009 -0.14986 v -9.95185 h -32.25022 v 9.94979 h -0.14986 -4.95009 v 29.99713 h 4.95009 0.14986 v 3.60392 2.50269 0.005 7.73184 0.006 0.8573 5.24878 h -0.14986 -4.95009 z m 8.75038,-5.10357 v -19.95022 h 24.94989 v 19.95022 z m 0,-49.95252 v -19.95072 h 24.94989 v 19.95072 z" />
    <path
       id="path2481-1-3-2-4-0-7-4-8"
       style="display:inline;opacity:1;fill:#88aa00;fill-opacity:1;stroke:#0000ff;stroke-width:0.0574926;stroke-linejoin:miter;stroke-miterlimit:4;stroke-dasharray:none"
       d="m 386.38315,-46.566119 h -4.41213 v 4.95009 0.14986 h -2.64532 -0.15555 -2.14922 v -0.14986 -4.95009 h -4.41368 v 4.95009 L 267.22198,1.8272939 H 151.53342 v 0 H 36.574009 V 13.970214 h -0.14986 -4.94958 v 23.16139 h 4.95008 0.14986 v 12.14602 h 24.850167 v -4.95009 -0.14986 h 7.45072 25.14883 7.450714 v 0.14986 4.95009 h 29.9496 v -4.95009 -0.14986 h 7.45021 12.65917 v 5.09995 h 24.85018 v -4.95009 -0.14986 h 7.45069 25.14885 7.45072 v 0.14986 4.95009 h 29.9496 v -4.95009 -0.14986 h 7.45018 25.14936 7.45019 v 0.14986 4.95009 h 29.94959 v -4.95009 -0.14986 h 32.59958 7.45018 v 0.14986 4.94958 h 24.85068 v -12.14604 h 0.14986 4.94957 v -23.16138 h -4.95008 -0.14987 V 2.9998239 1.8226439 h 0.14987 4.95008 V -21.337711 h -4.95008 -0.14987 v -1.17615 -9.79371 -1.17615 h 0.14987 4.95008 v -8.133368 z m -16.98036,39.8326979 a 2.3999997,2.3999997 0 0 1 0,0.0169 v 0 a 2.3999997,2.3999997 0 0 1 -2.39985,2.382275 2.3999997,2.3999997 0 0 1 -2.39985,-2.399845 2.3999997,2.3999997 0 0 1 2.39985,-2.39985 2.3999997,2.3999997 0 0 1 2.39985,2.39985 z m 0,39.1552351 a 2.3999997,2.3999997 0 0 1 0,0.0169 v 0 a 2.3999997,2.3999997 0 0 1 -2.39985,2.38228 2.3999997,2.3999997 0 0 1 -2.39985,-2.39985 2.3999997,2.3999997 0 0 1 2.39985,-2.39985 2.3999997,2.3999997 0 0 1 2.39985,2.39985 z m -11.45563,-57.124175 -18.49085,7.6228 -1.98179,-4.80798 18.49086,-7.62227 z m -36.98119,15.2450799 -18.49035,7.622275 -1.98178,-4.807455 18.49035,-7.6222699 z m -0.66612,41.8790951 a 2.3999997,2.3999997 0 0 1 0,0.0169 v 0 a 2.3999997,2.3999997 0 0 1 -2.39985,2.38228 2.3999997,2.3999997 0 0 1 -2.39985,-2.39985 2.3999997,2.3999997 0 0 1 2.39985,-2.39985 2.3999997,2.3999997 0 0 1 2.39985,2.39985 z m -30.42292,-29.0829801 -9.24597,3.80958 -1.98075,-4.80798 9.24594,-3.80958 z m -18.43918,3.38945 V 11.877844 H 246.43719 V 6.7282839 Z m -6.76551,25.6935301 a 2.3999998,2.3999998 0 0 1 0,0.0169 v 0 a 2.3999998,2.3999998 0 0 1 -2.39985,2.38228 2.3999998,2.3999998 0 0 1 -2.39985,-2.39985 2.3999998,2.3999998 0 0 1 2.39985,-2.39985 2.3999998,2.3999998 0 0 1 2.39985,2.39985 z M 216.37959,6.7324139 V 11.874744 H 176.43733 V 6.7324139 Z M 166.63792,32.421814 a 2.3999998,2.3999998 0 0 1 0,0.0169 v 0 a 2.3999998,2.3999998 0 0 1 -2.39985,2.38228 2.3999998,2.3999998 0 0 1 -2.40038,-2.39985 2.3999998,2.3999998 0 0 1 2.40038,-2.39985 2.3999998,2.3999998 0 0 1 2.39985,2.39985 z M 151.53292,6.7282839 V 11.877844 H 131.47778 V 6.7282839 Z m -50.11275,0.004 V 11.874624 H 61.477916 V 6.7322839 Z" />
    <path
       id="path1961-0-1-8-0"
       style="display:inline;fill:#88aa00;fill-opacity:1;stroke:#0000ff;stroke-width:0.0499999;stroke-linejoin:miter;stroke-miterlimit:4;stroke-dasharray:none"
       d="m 73.754153,-345.47604 v 1.19424 3.74189 0.14986 h -14.89159 -5.05809 -14.89263 v 7.99693 h -0.14987 -2.2443 -2.70526 v 12.14654 h 4.94956 0.14987 v 3.21066 16.73955 3.21065 h -0.14987 -4.94956 v 12.14758 h 4.94956 0.14987 v 3.21066 16.73954 3.21066 h -0.14987 -4.94956 v 12.145 h 29.94907 v -4.94957 -0.14986 h 20.10007 12.19615 2.16679 10.679457 1.90117 18.04903 v 0.14986 4.94957 h 29.9501 v -12.14603 h -4.95784 -0.14986 v -3.20963 -16.74057 -3.20963 h 0.14986 4.95784 v -12.14861 h -4.95784 -0.14986 v -9.42733 -10.52235 -3.21015 h 0.14986 4.95784 v -12.14654 h -2.04742 -2.91042 -0.15036 v -7.98298 h -34.83922 v -0.14986 -3.37343 -1.57665 z m 9.02994,59.87799 h 7.95042 v 3.38223 h 4.9997 v 3.93051 h -17.94981 v 4.52272 3.93051 0.79995 h -9.45007 v -10.94972 h 9.45007 v -2.23397 h 4.99969 z m 0.99994,20.91604 h 25.050147 v 5.15059 H 83.784033 Z" />
  </g>
</svg>
