<?xml version="1.0" encoding="UTF-8" standalone="no"?>
<svg
   xmlns:dc="http://purl.org/dc/elements/1.1/"
   xmlns:cc="http://creativecommons.org/ns#"
   xmlns:rdf="http://www.w3.org/1999/02/22-rdf-syntax-ns#"
   xmlns:svg="http://www.w3.org/2000/svg"
   xmlns="http://www.w3.org/2000/svg"
   xmlns:sodipodi="http://sodipodi.sourceforge.net/DTD/sodipodi-0.dtd"
   xmlns:inkscape="http://www.inkscape.org/namespaces/inkscape"
   width="353mm"
   height="500mm"
   viewBox="0 0 353 500"
   version="1.1"
   id="svg8"
   inkscape:version="1.0.2-2 (e86c870879, 2021-01-15)"
   sodipodi:docname="Mark_I_Horizontal.svg">
  <defs
     id="defs2" />
  <sodipodi:namedview
     id="base"
     pagecolor="#ffffff"
     bordercolor="#666666"
     borderopacity="1.0"
     inkscape:pageopacity="0.0"
     inkscape:pageshadow="2"
     inkscape:zoom="0.25"
     inkscape:cx="824.42858"
     inkscape:cy="1193.6181"
     inkscape:document-units="mm"
     inkscape:current-layer="layer2"
     showgrid="false"
     showguides="true"
     inkscape:window-width="2136"
     inkscape:window-height="1083"
     inkscape:window-x="879"
     inkscape:window-y="557"
     inkscape:window-maximized="0"
     inkscape:document-rotation="0"
     inkscape:snap-object-midpoints="true"
     inkscape:snap-global="true">
    <inkscape:grid
       type="xygrid"
       id="grid19" />
  </sodipodi:namedview>
  <metadata
     id="metadata5">
    <rdf:RDF>
      <cc:Work
         rdf:about="">
        <dc:format>image/svg+xml</dc:format>
        <dc:type
           rdf:resource="http://purl.org/dc/dcmitype/StillImage" />
        <dc:title />
      </cc:Work>
    </rdf:RDF>
  </metadata>
  <g
     inkscape:label="Layer 1"
     inkscape:groupmode="layer"
     id="layer1"
     transform="translate(0,351)" />
  <g
     inkscape:groupmode="layer"
     id="layer2"
     inkscape:label="guide"
     transform="translate(0,351)"
     style="display:inline">
    <g
       id="g3451" />
    <path
       id="path2021"
       style="display:inline;fill:#6f917c;fill-opacity:1;stroke:#0000ff;stroke-width:0.0500002;stroke-linejoin:miter;stroke-miterlimit:4;stroke-dasharray:none"
       d="m 310.66801,-93.838733 v 4.950087 0.150378 h -4.41214 v 34.846966 h 4.95009 0.14986 v 0.171567 13.441039 6.509165 h -0.14986 -4.95009 V 6.1727335 h 4.94286 0.14986 v 19.9925775 4.58783 15.36237 h -0.14986 -4.94286 V 86.04693 h 4.95009 0.14986 v 5.457031 5.828056 8.836683 h -0.14986 -4.95009 v 34.84282 h 4.41214 v 0.14986 4.95009 h 4.95008 v -4.95009 -0.14986 h 4.41214 V -88.738786 h -4.41214 v -0.14986 -4.950087 z" />
    <path
       id="path2177"
       style="fill:#6f917c;stroke:#0000ff;stroke-width:0.0499946;stroke-miterlimit:4;stroke-dasharray:none"
       d="m 336.33993,-206.09703 h -4.95009 -0.14986 v -19.94969 h -4.75009 v 19.94969 h -0.14986 -4.95009 v 25.05014 h 4.95009 0.14986 v 19.9502 h 4.75009 v -19.9502 h 0.14986 4.95009 z" />
    <path
       id="path2154"
       style="fill:#6f917c;stroke:#0000ff;stroke-width:0.0499986;stroke-miterlimit:4;stroke-dasharray:none"
       d="m 272.56482,-253.40659 v 4.95006 0.15039 h -19.95019 v 44.84947 h 64.95002 v -44.84997 h -19.94969 v -0.14989 -4.95006 z m -15.02492,25.70022 a 1.7250233,1.7250234 0 0 1 1.72495,1.72498 1.7250233,1.7250234 0 0 1 -1.72495,1.72495 1.7250233,1.7250234 0 0 1 -1.72495,-1.72495 1.7250233,1.7250234 0 0 1 1.72495,-1.72498 z m 55.09998,0 a 1.7250233,1.7250234 0 0 1 1.72498,1.72498 1.7250233,1.7250234 0 0 1 -1.72498,1.72495 1.7250233,1.7250234 0 0 1 -1.72495,-1.72495 1.7250233,1.7250234 0 0 1 1.72495,-1.72498 z m -40.02495,14.20016 h 24.94992 v 5.15009 h -24.94992 z" />
    <path
       id="path1075"
       style="display:inline;fill:#6f917c;fill-opacity:1;stroke:#0000ff;stroke-width:0.0501213;stroke-miterlimit:4;stroke-dasharray:none"
       d="m 35.777662,14.746158 v 3.547057 1.403006 0.150389 H 10.927498 V 44.69625 H 10.777637 9.5616902 5.8275513 v 40.049767 h 3.2964395 1.6536462 0.149861 v 9.9999 9.950293 9.9999 H 10.777637 8.5948241 5.8275513 l 5.167e-4,24.16133 19.999296,0.002 v -2.42414 -2.52595 -0.14986 h 9.999907 9.950296 9.999906 v 0.14986 1.82417 3.12592 h 20.04994 v -3.31298 -1.63711 -0.14986 h 9.999906 9.950296 9.999905 v 0.14986 1.40301 3.54708 h 40.04975 v -3.6871 -1.26299 -0.14986 h 9.99991 9.9503 9.9999 v 0.14986 0.93535 4.01474 h 20.04994 v -3.78066 -1.16943 -0.14986 h 9.99991 9.95029 9.99991 v 0.14986 1.0759 3.87419 l 19.99878,-0.001 0.001,-24.16183 h -3.85868 -1.0914 -0.14987 v -9.9999 -9.95032 -9.9999 h 0.14987 1.21594 3.73414 V 44.696779 h -3.42873 -1.52135 -0.15038 V 19.84661 H 215.82713 V 19.69675 17.447792 14.74666 h -40.04975 v 3.213762 1.736328 0.14986 h -9.9999 v 5.29e-4 H 145.82727 V 19.69675 16.587896 14.74666 h -40.04975 v 2.601913 2.348177 0.14986 H 95.777615 85.827319 75.827413 V 19.69675 17.679302 14.74666 Z m 87.449958,19.999801 h 5.15007 v 29.950118 h -5.15007 z M 21.102588,39.19633 a 2.9750001,2.9750001 0 0 1 2.975012,2.975028 2.9750001,2.9750001 0 0 1 -2.975012,2.975001 2.9750001,2.9750001 0 0 1 -2.975012,-2.975001 2.9750001,2.9750001 0 0 1 2.975012,-2.975028 z m 55.099996,0 a 2.9750001,2.9750001 0 0 1 2.975012,2.975028 2.9750001,2.9750001 0 0 1 -2.975012,2.975001 2.9750001,2.9750001 0 0 1 -2.975015,-2.975001 2.9750001,2.9750001 0 0 1 2.975015,-2.975028 z M 36.177638,54.646541 h 24.949895 v 5.150088 H 36.177638 Z m 87.049982,30.099476 h 5.15007 v 29.950093 h -5.15007 z" />
    <path
       id="rect4636-5-2-3-6-8-2-4-9"
       style="display:inline;fill:#6f917c;fill-opacity:1;stroke:#0000ff;stroke-width:0.0498232;stroke-linejoin:miter;stroke-miterlimit:4;stroke-dasharray:none"
       d="m 241.95518,-92.270315 v -22.450325 h 0.14986 1.91772 3.03237 v -19.95848 h -4.95112 -0.14986 v -1.49706 -7.27448 -11.17865 h 0.14986 4.95112 v -9.20718 h 5.3e-4 v -10.72131 h -5.3e-4 -4.94957 -5.3e-4 -0.14934 v -13.61985 h 0.14986 v 0.003 h 4.9501 v -9.94977 h -4.95009 -0.14986 v -9.99989 h 0.14986 v -0.004 h -0.15038 -12.12071 v 0.94983 2.44996 h -5.73246 l 12.91497,12.91756 v 27.45498 51.66196 l -12.91859,12.914975 h -79.11714 l -12.91446,-12.918605 v -79.11713 l 12.91807,-12.91394 h -2.92953 v -2.45053 h 5.2e-4 v -0.9498 h -29.95062 v 0.9498 2.45049 h -2.92902 l 12.91497,12.91756 v 79.11714 l -12.9186,12.914975 H 30.055455 l -12.91447,-12.918605 v -51.43045 -27.68668 l 12.91809,-12.91394 h -5.73352 v -2.44996 0 -0.94983 h -12.12122 v 9.99992 h -0.14986 -4.95009 v 9.94976 h 4.95009 v 0 h 0.14986 v 13.61985 h -0.14986 -4.95009 v 10.50272 9.42578 h 4.94956 0.14986 v 11.1125 6.59133 2.24636 h -0.14986 -4.94956 v 19.95847 h 1.77509 3.175 0.15036 v 22.450325 z m -119.0253,-5.68338 a 0.97505252,0.97505252 0 0 1 -0.97514,-0.97513 0.97505252,0.97505252 0 0 1 0.97514,-0.97515 0.97505252,0.97505252 0 0 1 0.97513,0.97515 0.97505252,0.97505252 0 0 1 -0.97513,0.97513 z m -106.649825,0 a 0.97505252,0.97505252 0 0 1 -0.97512,-0.97513 0.97505252,0.97505252 0 0 1 0.97512,-0.97515 0.97505252,0.97505252 0 0 1 0.97515,0.97515 0.97505252,0.97505252 0 0 1 -0.97515,0.97513 z m 221.609745,-5.3e-4 a 0.97505252,0.97505252 0 0 1 -0.97514,-0.9746 0.97505252,0.97505252 0 0 1 0.97514,-0.97515 0.97505252,0.97505252 0 0 1 0.97513,0.97515 0.97505252,0.97505252 0 0 1 -0.97513,0.9746 z m -106.64982,0 a 0.97505252,0.97505252 0 0 1 -0.97515,-0.9746 0.97505252,0.97505252 0 0 1 0.97515,-0.97515 0.97505252,0.97505252 0 0 1 0.97513,0.97515 0.97505252,0.97505252 0 0 1 -0.97513,0.9746 z m -12.09281,-2.374515 a 2.4000522,2.4000522 0 0 1 -0.017,0 2.4000522,2.4000522 0 0 1 -2.40037,-2.39985 2.4000522,2.4000522 0 0 1 2.40037,-2.40038 2.4000522,2.4000522 0 0 1 2.39986,2.40038 2.4000522,2.4000522 0 0 1 -2.3828,2.39985 z m -99.049755,0 a 2.4000522,2.4000522 0 0 1 -0.0175,0 2.4000522,2.4000522 0 0 1 -2.39986,-2.39985 2.4000522,2.4000522 0 0 1 2.39986,-2.40038 2.4000522,2.4000522 0 0 1 2.40035,2.40038 2.4000522,2.4000522 0 0 1 -2.38279,2.39985 z m 214.009665,0 a 2.4000522,2.4000522 0 0 1 -0.0176,0 2.4000522,2.4000522 0 0 1 -2.39985,-2.39985 2.4000522,2.4000522 0 0 1 2.39985,-2.39988 2.4000522,2.4000522 0 0 1 2.40037,2.39988 2.4000522,2.4000522 0 0 1 -2.3828,2.39985 z m -99.04976,0 a 2.4000522,2.4000522 0 0 1 -0.0176,0 2.4000522,2.4000522 0 0 1 -2.39986,-2.39985 2.4000522,2.4000522 0 0 1 2.39986,-2.39988 2.4000522,2.4000522 0 0 1 2.40037,2.39988 2.4000522,2.4000522 0 0 1 -2.3828,2.39985 z m -5.40227,-11.86646 h -5.15006 v -30.00023 h 5.15006 z m 0,-50.00005 h -5.15006 v -29.99971 h 5.15006 z M 119.14717,-199.378 a 2.4000522,2.4000522 0 0 1 -0.017,0 2.4000522,2.4000522 0 0 1 -2.40038,-2.39984 2.4000522,2.4000522 0 0 1 2.40038,-2.40038 2.4000522,2.4000522 0 0 1 2.39985,2.40038 2.4000522,2.4000522 0 0 1 -2.3828,2.39984 z m 114.96146,0 h -5.3e-4 a 2.4000522,2.4000522 0 0 1 -0.017,0 2.4000522,2.4000522 0 0 1 -0.002,0 2.4000522,2.4000522 0 0 1 -0.0656,0 2.4000522,2.4000522 0 0 1 -0.002,0 2.4000522,2.4000522 0 0 1 -0.0651,-0.003 2.4000522,2.4000522 0 0 1 -0.002,0 2.4000522,2.4000522 0 0 1 -0.0656,-0.005 2.4000522,2.4000522 0 0 1 -0.002,0 2.4000522,2.4000522 0 0 1 -0.0651,-0.007 2.4000522,2.4000522 0 0 1 -0.002,0 2.4000522,2.4000522 0 0 1 -0.0646,-0.008 2.4000522,2.4000522 0 0 1 -0.002,0 2.4000522,2.4000522 0 0 1 -0.0651,-0.0103 2.4000522,2.4000522 0 0 1 -10e-4,0 2.4000522,2.4000522 0 0 1 -0.0646,-0.0119 2.4000522,2.4000522 0 0 1 -0.38602,-0.11057 2.4000522,2.4000522 0 0 1 -0.002,0 2.4000522,2.4000522 0 0 1 -0.12247,-0.0506 2.4000522,2.4000522 0 0 1 -0.002,0 2.4000522,2.4000522 0 0 1 -0.11937,-0.0574 2.4000522,2.4000522 0 0 1 -0.002,0 2.4000522,2.4000522 0 0 1 -1.30173,-2.13423 2.4000522,2.4000522 0 0 1 0.23461,-1.03663 2.4000522,2.4000522 0 0 1 5.3e-4,0 2.4000522,2.4000522 0 0 1 0.0295,-0.0594 2.4000522,2.4000522 0 0 1 5.3e-4,0 2.4000522,2.4000522 0 0 1 0.43149,-0.59378 2.4000522,2.4000522 0 0 1 0.0476,-0.047 2.4000522,2.4000522 0 0 1 0.0961,-0.0868 2.4000522,2.4000522 0 0 1 0.003,-0.003 2.4000522,2.4000522 0 0 1 5.3e-4,0 2.4000522,2.4000522 0 0 1 0.009,-0.007 2.4000522,2.4000522 0 0 1 0.35089,-0.24546 2.4000522,2.4000522 0 0 1 0.0243,-0.014 2.4000522,2.4000522 0 0 1 5.3e-4,0 2.4000522,2.4000522 0 0 1 0.0584,-0.0315 2.4000522,2.4000522 0 0 1 5.3e-4,0 2.4000522,2.4000522 0 0 1 0.0294,-0.0145 2.4000522,2.4000522 0 0 1 0.0589,-0.0289 2.4000522,2.4000522 0 0 1 0.0315,-0.0151 2.4000522,2.4000522 0 0 1 5.2e-4,0 2.4000522,2.4000522 0 0 1 0.061,-0.0265 2.4000522,2.4000522 0 0 1 5.3e-4,0 2.4000522,2.4000522 0 0 1 0.0615,-0.0243 2.4000522,2.4000522 0 0 1 5.3e-4,0 2.4000522,2.4000522 0 0 1 0.0393,-0.0145 2.4000522,2.4000522 0 0 1 0.045,-0.0161 2.4000522,2.4000522 0 0 1 0.0413,-0.014 2.4000522,2.4000522 0 0 1 0.74207,-0.11781 2.4000522,2.4000522 0 0 1 2.40037,2.39985 2.4000522,2.4000522 0 0 1 -0.18035,0.91416 2.4000522,2.4000522 0 0 1 -5.3e-4,0 2.4000522,2.4000522 0 0 1 -1.33842,1.31772 2.4000522,2.4000522 0 0 1 -0.0114,0.005 2.4000522,2.4000522 0 0 1 -0.001,0 2.4000522,2.4000522 0 0 1 -0.0155,0.006 2.4000522,2.4000522 0 0 1 -0.11058,0.0393 2.4000522,2.4000522 0 0 1 -0.72347,0.11735 z m -99.05131,0 a 2.4000522,2.4000522 0 0 1 -0.0176,0 2.4000522,2.4000522 0 0 1 -2.39986,-2.39984 2.4000522,2.4000522 0 0 1 2.39986,-2.39988 2.4000522,2.4000522 0 0 1 2.40037,2.39988 2.4000522,2.4000522 0 0 1 -2.3828,2.39984 z m -114.957845,0 a 2.4000522,2.4000522 0 0 1 -0.0175,0 2.4000522,2.4000522 0 0 1 -2.40038,-2.39984 2.4000522,2.4000522 0 0 1 1.46968,-2.21229 2.4000522,2.4000522 0 0 1 0.12298,-0.048 2.4000522,2.4000522 0 0 1 0.003,0 2.4000522,2.4000522 0 0 1 0.18965,-0.0589 2.4000522,2.4000522 0 0 1 0.003,0 2.4000522,2.4000522 0 0 1 0.26252,-0.0537 2.4000522,2.4000522 0 0 1 0.34933,-0.0259 2.4000522,2.4000522 0 0 1 0.003,0 2.4000522,2.4000522 0 0 1 0.0651,0 2.4000522,2.4000522 0 0 1 0.003,0 2.4000522,2.4000522 0 0 1 0.0646,0.003 2.4000522,2.4000522 0 0 1 0.003,0 2.4000522,2.4000522 0 0 1 0.0651,0.005 2.4000522,2.4000522 0 0 1 0.003,0 2.4000522,2.4000522 0 0 1 0.0651,0.007 2.4000522,2.4000522 0 0 1 0.003,0 2.4000522,2.4000522 0 0 1 0.0641,0.008 2.4000522,2.4000522 0 0 1 0.11576,0.019 2.4000522,2.4000522 0 0 1 0.0185,0.004 2.4000522,2.4000522 0 0 1 0.01,0.003 2.4000522,2.4000522 0 0 1 0.37414,0.108 2.4000522,2.4000522 0 0 1 0.003,0 2.4000522,2.4000522 0 0 1 0.24289,0.10851 2.4000522,2.4000522 0 0 1 0.003,0 2.4000522,2.4000522 0 0 1 1.30173,2.13474 2.4000522,2.4000522 0 0 1 -1.17097,2.06134 2.4000522,2.4000522 0 0 1 -0.0563,0.0331 2.4000522,2.4000522 0 0 1 -0.003,0 2.4000522,2.4000522 0 0 1 -0.0574,0.031 2.4000522,2.4000522 0 0 1 -0.003,0 2.4000522,2.4000522 0 0 1 -0.0584,0.03 2.4000522,2.4000522 0 0 1 -0.003,0 2.4000522,2.4000522 0 0 1 -0.0589,0.0279 2.4000522,2.4000522 0 0 1 -0.003,0 2.4000522,2.4000522 0 0 1 -0.06,0.0265 2.4000522,2.4000522 0 0 1 -0.003,0 2.4000522,2.4000522 0 0 1 -0.0605,0.0249 2.4000522,2.4000522 0 0 1 -0.003,0 2.4000522,2.4000522 0 0 1 -0.0615,0.0228 2.4000522,2.4000522 0 0 1 -0.003,0 2.4000522,2.4000522 0 0 1 -0.12557,0.0408 2.4000522,2.4000522 0 0 1 -0.003,0 2.4000522,2.4000522 0 0 1 -0.0631,0.0175 2.4000522,2.4000522 0 0 1 -0.003,0 2.4000522,2.4000522 0 0 1 -0.0636,0.0156 2.4000522,2.4000522 0 0 1 -0.003,0 2.4000522,2.4000522 0 0 1 -0.0641,0.014 2.4000522,2.4000522 0 0 1 -0.003,0 2.4000522,2.4000522 0 0 1 -0.0641,0.0119 2.4000522,2.4000522 0 0 1 -0.003,0 2.4000522,2.4000522 0 0 1 -0.0646,0.0103 2.4000522,2.4000522 0 0 1 -0.33332,0.0259 z m 102.830415,-5.22448 a 0.97505252,0.97505252 0 0 1 -0.97514,-0.97515 0.97505252,0.97505252 0 0 1 0.97514,-0.97515 0.97505252,0.97505252 0 0 1 0.97513,0.97515 0.97505252,0.97505252 0 0 1 -0.97513,0.97515 z m 114.96042,0 a 0.97505252,0.97505252 0 0 1 -0.0429,0 0.97505252,0.97505252 0 0 1 -5.3e-4,0 0.97505252,0.97505252 0 0 1 -0.0419,-0.003 0.97505252,0.97505252 0 0 1 -5.3e-4,0 0.97505252,0.97505252 0 0 1 -0.0419,-0.005 0.97505252,0.97505252 0 0 1 -5.3e-4,0 0.97505252,0.97505252 0 0 1 -0.0419,-0.007 0.97505252,0.97505252 0 0 1 -5.3e-4,0 0.97505252,0.97505252 0 0 1 -0.0413,-0.008 0.97505252,0.97505252 0 0 1 -5.3e-4,0 0.97505252,0.97505252 0 0 1 -0.0408,-0.0103 0.97505252,0.97505252 0 0 1 -5.2e-4,0 0.97505252,0.97505252 0 0 1 -0.0408,-0.0119 0.97505252,0.97505252 0 0 1 -5.3e-4,0 0.97505252,0.97505252 0 0 1 -0.0398,-0.014 0.97505252,0.97505252 0 0 1 -5.3e-4,0 0.97505252,0.97505252 0 0 1 -0.0393,-0.0156 0.97505252,0.97505252 0 0 1 -5.3e-4,0 0.97505252,0.97505252 0 0 1 -0.0382,-0.0169 0.97505252,0.97505252 0 0 1 -5.3e-4,0 0.97505252,0.97505252 0 0 1 -0.0377,-0.019 0.97505252,0.97505252 0 0 1 -5.3e-4,0 0.97505252,0.97505252 0 0 1 -0.0372,-0.0206 0.97505252,0.97505252 0 0 1 -5.3e-4,0 0.97505252,0.97505252 0 0 1 -0.0357,-0.0222 0.97505252,0.97505252 0 0 1 -5.3e-4,0 0.97505252,0.97505252 0 0 1 -0.0351,-0.0238 0.97505252,0.97505252 0 0 1 -5.3e-4,0 0.97505252,0.97505252 0 0 1 -0.0336,-0.0254 0.97505252,0.97505252 0 0 1 -5.2e-4,0 0.97505252,0.97505252 0 0 1 -0.0331,-0.0269 0.97505252,0.97505252 0 0 1 -5.3e-4,0 0.97505252,0.97505252 0 0 1 -0.0315,-0.0279 0.97505252,0.97505252 0 0 1 -5.3e-4,0 0.97505252,0.97505252 0 0 1 -0.03,-0.03 0.97505252,0.97505252 0 0 1 -0.28371,-0.68728 0.97505252,0.97505252 0 0 1 0.0455,-0.29456 0.97505252,0.97505252 0 0 1 0.0134,-0.0398 0.97505252,0.97505252 0 0 1 5.3e-4,0 0.97505252,0.97505252 0 0 1 0.015,-0.0393 0.97505252,0.97505252 0 0 1 5.3e-4,0 0.97505252,0.97505252 0 0 1 0.0165,-0.0383 0.97505252,0.97505252 0 0 1 5.3e-4,0 0.97505252,0.97505252 0 0 1 0.0186,-0.0377 0.97505252,0.97505252 0 0 1 5.3e-4,0 0.97505252,0.97505252 0 0 1 0.0202,-0.0372 0.97505252,0.97505252 0 0 1 5.3e-4,0 0.97505252,0.97505252 0 0 1 0.0217,-0.0357 0.97505252,0.97505252 0 0 1 5.3e-4,0 0.97505252,0.97505252 0 0 1 0.0233,-0.0352 0.97505252,0.97505252 0 0 1 5.3e-4,0 0.97505252,0.97505252 0 0 1 0.0248,-0.0341 0.97505252,0.97505252 0 0 1 5.3e-4,0 0.97505252,0.97505252 0 0 1 0.0263,-0.0325 0.97505252,0.97505252 0 0 1 5.3e-4,0 0.97505252,0.97505252 0 0 1 0.0274,-0.0315 0.97505252,0.97505252 0 0 1 5.3e-4,0 0.97505252,0.97505252 0 0 1 0.0294,-0.03 0.97505252,0.97505252 0 0 1 5.3e-4,0 0.97505252,0.97505252 0 0 1 0.0305,-0.029 0.97505252,0.97505252 0 0 1 5.3e-4,0 0.97505252,0.97505252 0 0 1 0.0315,-0.0279 0.97505252,0.97505252 0 0 1 5.3e-4,0 0.97505252,0.97505252 0 0 1 0.0326,-0.0259 0.97505252,0.97505252 0 0 1 5.3e-4,0 0.97505252,0.97505252 0 0 1 0.0341,-0.0249 0.97505252,0.97505252 0 0 1 5.3e-4,0 0.97505252,0.97505252 0 0 1 0.0351,-0.0228 0.97505252,0.97505252 0 0 1 5.3e-4,0 0.97505252,0.97505252 0 0 1 0.0362,-0.0217 0.97505252,0.97505252 0 0 1 5.3e-4,0 0.97505252,0.97505252 0 0 1 0.0372,-0.0196 0.97505252,0.97505252 0 0 1 5.3e-4,0 0.97505252,0.97505252 0 0 1 0.0377,-0.0185 0.97505252,0.97505252 0 0 1 5.3e-4,0 0.97505252,0.97505252 0 0 1 0.0388,-0.0164 0.97505252,0.97505252 0 0 1 5.3e-4,0 0.97505252,0.97505252 0 0 1 0.0393,-0.0145 0.97505252,0.97505252 0 0 1 5.2e-4,0 0.97505252,0.97505252 0 0 1 0.0398,-0.013 0.97505252,0.97505252 0 0 1 0.28887,-0.0439 0.97505252,0.97505252 0 0 1 0.97513,0.97512 0.97505252,0.97505252 0 0 1 -0.0455,0.29406 0.97505252,0.97505252 0 0 1 -0.0134,0.0403 0.97505252,0.97505252 0 0 1 -5.2e-4,0 0.97505252,0.97505252 0 0 1 -0.015,0.0393 0.97505252,0.97505252 0 0 1 -5.3e-4,0 0.97505252,0.97505252 0 0 1 -0.0165,0.0382 0.97505252,0.97505252 0 0 1 -5.2e-4,0 0.97505252,0.97505252 0 0 1 -0.0186,0.0377 0.97505252,0.97505252 0 0 1 -5.3e-4,0 0.97505252,0.97505252 0 0 1 -0.0202,0.0372 0.97505252,0.97505252 0 0 1 -5.2e-4,0 0.97505252,0.97505252 0 0 1 -0.0217,0.0356 0.97505252,0.97505252 0 0 1 -5.3e-4,0 0.97505252,0.97505252 0 0 1 -0.0233,0.0351 0.97505252,0.97505252 0 0 1 -5.3e-4,0 0.97505252,0.97505252 0 0 1 -0.0248,0.0336 0.97505252,0.97505252 0 0 1 -5.3e-4,0 0.97505252,0.97505252 0 0 1 -0.0264,0.0331 0.97505252,0.97505252 0 0 1 -5.3e-4,0 0.97505252,0.97505252 0 0 1 -0.0574,0.062 0.97505252,0.97505252 0 0 1 -0.002,0.003 0.97505252,0.97505252 0 0 1 -0.03,0.0284 0.97505252,0.97505252 0 0 1 -0.0646,0.0542 0.97505252,0.97505252 0 0 1 -0.001,0 0.97505252,0.97505252 0 0 1 -0.0693,0.048 0.97505252,0.97505252 0 0 1 -0.001,0 0.97505252,0.97505252 0 0 1 -0.0625,0.0362 0.97505252,0.97505252 0 0 1 -0.0109,0.006 0.97505252,0.97505252 0 0 1 -5.3e-4,0 0.97505252,0.97505252 0 0 1 -0.0129,0.006 0.97505252,0.97505252 0 0 1 -0.0951,0.0413 0.97505252,0.97505252 0 0 1 -0.009,0.003 0.97505252,0.97505252 0 0 1 -0.001,0 0.97505252,0.97505252 0 0 1 -0.0393,0.013 0.97505252,0.97505252 0 0 1 -0.001,0 0.97505252,0.97505252 0 0 1 -0.0176,0.005 0.97505252,0.97505252 0 0 1 -0.0434,0.0114 0.97505252,0.97505252 0 0 1 -0.0207,0.005 0.97505252,0.97505252 0 0 1 -0.0264,0.005 0.97505252,0.97505252 0 0 1 -0.17983,0.0169 z m -106.65033,0 a 0.97505252,0.97505252 0 0 1 -0.97514,-0.97465 0.97505252,0.97505252 0 0 1 0.97514,-0.97512 0.97505252,0.97505252 0 0 1 0.97513,0.97512 0.97505252,0.97505252 0 0 1 -0.97513,0.97465 z m -114.938735,0 a 0.97505252,0.97505252 0 0 1 -0.0196,0 0.97505252,0.97505252 0 0 1 -0.97512,-0.97465 0.97505252,0.97505252 0 0 1 0.76893,-0.95289 0.97505252,0.97505252 0 0 1 0.20463,-0.0222 0.97505252,0.97505252 0 0 1 0.0445,0 0.97505252,0.97505252 0 0 1 0.0408,0.003 0.97505252,0.97505252 0 0 1 0.003,0 0.97505252,0.97505252 0 0 1 0.0408,0.005 0.97505252,0.97505252 0 0 1 0.003,0 0.97505252,0.97505252 0 0 1 0.0408,0.007 0.97505252,0.97505252 0 0 1 0.003,0 0.97505252,0.97505252 0 0 1 0.0403,0.008 0.97505252,0.97505252 0 0 1 0.0827,0.0222 0.97505252,0.97505252 0 0 1 0.68059,0.92964 0.97505252,0.97505252 0 0 1 -0.34986,0.74877 0.97505252,0.97505252 0 0 1 -0.0667,0.0511 0.97505252,0.97505252 0 0 1 -0.0713,0.045 0.97505252,0.97505252 0 0 1 -0.0749,0.0388 0.97505252,0.97505252 0 0 1 -0.0382,0.0164 0.97505252,0.97505252 0 0 1 -0.009,0.003 0.97505252,0.97505252 0 0 1 -0.031,0.0119 0.97505252,0.97505252 0 0 1 -0.0631,0.0201 0.97505252,0.97505252 0 0 1 -0.0175,0.005 0.97505252,0.97505252 0 0 1 -0.0206,0.005 0.97505252,0.97505252 0 0 1 -0.0362,0.008 0.97505252,0.97505252 0 0 1 -0.16949,0.0185 z" />
    <path
       id="path1916"
       style="display:inline;fill:#6f917c;fill-opacity:1;stroke:#0000ff;stroke-width:0.188308;stroke-linejoin:miter;stroke-miterlimit:4;stroke-dasharray:none"
       d="M 1240.041 987.98242 L 1240.041 1015.6504 L 1230.7812 1015.6504 L 1230.7812 1347.416 L 1240.041 1347.416 L 1240.041 1460.6133 L 1230.7812 1460.6133 L 1230.7812 1792.377 L 1240.0391 1792.377 L 1240.0391 1820.0449 L 1264.5801 1820.0449 L 1264.5801 1706.5 L 1264.5801 1687.791 L 1245.9004 1687.791 L 1245.334 1687.791 L 1245.334 1619.8867 L 1245.334 1612.3887 L 1245.334 1479.4844 L 1245.9004 1479.4844 L 1264.5801 1479.4844 L 1264.5801 1328.5195 L 1245.9004 1328.5195 L 1245.334 1328.5195 L 1245.334 1273.752 L 1245.332 1273.752 L 1245.332 1120.2148 L 1245.9004 1120.2148 L 1264.5801 1120.2148 L 1264.5801 987.98242 L 1240.041 987.98242 z "
       transform="matrix(0.26458333,0,0,0.26458333,0,-351)" />
    <path
       id="path2088"
       style="display:inline;fill:#6f917c;fill-opacity:1;stroke:#0000ff;stroke-width:0.217295;stroke-linejoin:miter;stroke-miterlimit:4;stroke-dasharray:none"
       d="M 997.64453 957.69531 L 997.64453 970.57227 L 997.64453 976.4043 L 997.64453 976.97266 L 989.70312 976.97266 L 970.26758 976.97266 L 951.73242 976.97266 L 951.71875 1845.3145 L 970.26953 1845.3145 L 989.70508 1845.3145 L 997.63086 1845.3145 L 997.63086 1845.8809 L 997.63086 1852.2441 L 997.63086 1864.5898 L 1085.166 1864.5898 L 1085.166 1851.1836 L 1085.166 1845.8809 L 1085.166 1845.3145 L 1111.8242 1845.3145 L 1111.8242 1788.9961 L 1112.3906 1788.9961 L 1116.5664 1788.9961 L 1131.0723 1788.9961 L 1131.0859 1675.8105 L 1112.3926 1675.7988 L 1111.8262 1675.7988 L 1111.8262 1637.5918 L 1111.8262 1611.168 L 1111.8262 1600.0195 L 1112.3926 1600.0195 L 1131.0723 1600.0195 L 1131.0723 1486.8223 L 1112.3926 1486.8223 L 1111.8262 1486.8223 L 1111.8262 1442.498 L 1111.8262 1411.4199 L 1111.8262 1335.4531 L 1112.3926 1335.4531 L 1121.0547 1335.4531 L 1131.0723 1335.4531 L 1131.0723 1222.2559 L 1112.3789 1222.2441 L 1111.8125 1222.2441 L 1111.8125 1163.9902 L 1111.8281 1163.9902 L 1111.8281 1146.5039 L 1112.3945 1146.5039 L 1131.0879 1146.4941 L 1131.0762 1070.8945 L 1131.0762 1033.2832 L 1123.834 1033.293 L 1123.834 1033.3086 L 1112.3965 1033.3086 L 1111.8301 1033.3086 L 1111.8301 976.96875 L 1085.1816 976.96875 L 1085.1816 976.40234 L 1085.1816 967.40234 L 1085.1816 957.69531 L 997.64453 957.69531 z M 970.26758 995.68164 L 989.70312 995.68164 L 989.70312 1127.3535 L 970.26758 1127.3535 L 970.26758 995.68164 z M 970.26758 1335.6582 L 989.70312 1335.6582 L 989.70312 1486.625 L 970.26758 1486.625 L 970.26758 1335.6582 z M 970.26953 1694.9297 L 989.70508 1694.9297 L 989.70508 1826.6055 L 970.26953 1826.6055 L 970.26953 1694.9297 z "
       transform="matrix(0.26458333,0,0,0.26458333,0,-351)" />
    <text
       xml:space="preserve"
       style="font-style:normal;font-variant:normal;font-weight:normal;font-stretch:normal;font-size:50.8px;line-height:1.25;font-family:sans-serif;-inkscape-font-specification:'sans-serif, Normal';font-variant-ligatures:normal;font-variant-caps:normal;font-variant-numeric:normal;font-variant-east-asian:normal;fill:#000000;fill-opacity:1;stroke:none;stroke-width:0.264583"
       x="133.93771"
       y="-283.2135"
       id="text848"><tspan
         sodipodi:role="line"
         id="tspan846"
         x="133.93771"
         y="-283.2135"
         style="font-style:normal;font-variant:normal;font-weight:normal;font-stretch:normal;font-size:50.8px;font-family:sans-serif;-inkscape-font-specification:'sans-serif, Normal';font-variant-ligatures:normal;font-variant-caps:normal;font-variant-numeric:normal;font-variant-east-asian:normal;stroke-width:0.264583">B5</tspan></text>
    <path
       id="path2481-1-9-5-0"
       style="display:inline;fill:#6f917c;fill-opacity:1;stroke:#0000ff;stroke-width:0.0574926;stroke-linejoin:miter;stroke-miterlimit:4;stroke-dasharray:none"
       d="m 97.353998,-256.29462 v 4.22197 0.7276 0.14986 h 12.146022 v 24.85068 h -3.26596 -1.6836 -0.14986 v 20.09955 h -5.3e-4 v 19.9502 h 0.14986 2.24483 2.70526 v 29.95011 h -4.71858 -0.23151 -0.14986 v 24.16133 l -7.042472,0.0108 v -4.66897 -0.28112 -0.14986 h -3.21013 -16.740059 -3.210137 v 0.14986 0.94258 4.00751 l -12.147576,-0.0108 v -4.9501 l -43.443363,-105.3853 h -4.95007 v -4.41368 h 3.29642 1.65365 0.14986 v -2.29702 -1.44745 -1.20561 h -0.14986 -0.52917 -4.4209 v -4.41214 h 4.95007 8.13337 v 3.75946 1.19063 0.14986 h 2.67994 4.83483 4.63124 v -0.14986 -1.28985 -3.66024 h 23.160358 v 4.05712 0.89297 0.14986 h 2.283566 4.735116 5.127863 v -0.14986 -1.55443 -3.39566 z m -4.69275,16.98036 a 2.3999996,2.3999996 0 0 0 -0.0176,0 2.3999996,2.3999996 0 0 0 -2.39985,2.39985 2.3999996,2.3999996 0 0 0 2.39985,2.39986 2.3999996,2.3999996 0 0 0 2.39985,-2.39986 2.3999996,2.3999996 0 0 0 -2.38228,-2.39985 z m -39.155239,0 a 2.3999996,2.3999996 0 0 0 -0.01757,0 2.3999996,2.3999996 0 0 0 -2.39985,2.39985 2.3999996,2.3999996 0 0 0 2.39985,2.39986 2.3999996,2.3999996 0 0 0 2.39985,-2.39986 2.3999996,2.3999996 0 0 0 -2.382282,-2.39985 z m -17.985976,11.45563 -4.80745,1.98179 7.62227,18.49086 4.807983,-1.98179 z m 15.245078,36.98121 -4.807479,1.98179 7.622275,18.49034 4.80748,-1.98179 z m 41.896137,0.66611 a 2.3999997,2.3999997 0 0 0 -0.0176,0 2.3999997,2.3999997 0 0 0 -2.39985,2.39985 2.3999997,2.3999997 0 0 0 2.39985,2.39985 2.3999997,2.3999997 0 0 0 2.39985,-2.39985 2.3999997,2.3999997 0 0 0 -2.38228,-2.39985 z m -29.10004,30.42294 -4.807956,1.98076 3.809577,9.24595 4.807982,-1.98076 z" />
    <path
       id="path2081-4-2-2-6-9"
       style="display:inline;fill:#6f917c;fill-opacity:1;stroke:#0000ff;stroke-width:0.049938;stroke-linejoin:miter;stroke-miterlimit:4;stroke-dasharray:none"
       d="m 257.09711,-105.16886 v -10.02472 c -1.6999,-6e-5 -3.39955,-5.3e-4 -5.09945,-5.3e-4 v -29.95011 h 4.94956 0.14989 v -5.09995 0 -14.94999 h -0.14986 -4.95009 v -29.95009 h 4.95009 0.14986 v -5.29529 h 32.25125 0.14986 4.79507 l 2.17869,5.2896 0.13848,-0.0574 4.57594,-1.88722 11.41688,27.68926 -4.57647,1.8867 -0.13849,0.0574 5.6932,13.82292 0.007,-0.003 1.94252,4.71599 0.13848,-0.0574 4.57647,-1.88671 2.34662,5.71232 9.07026,21.97592 -4.57648,1.88723 v 5.3e-4 l -0.13848,0.0568 6.08645,14.7774 0.003,1.28984 z m 9.65676,-19.12907 h 29.95012 v -29.9496 h -29.95012 z"
       sodipodi:nodetypes="cccccccccccccccccccccccccccccccccccccccccc" />
    <path
       id="path1961-0"
       style="display:inline;fill:#6f917c;fill-opacity:1;stroke:#0000ff;stroke-width:0.188976;stroke-linejoin:miter;stroke-miterlimit:4;stroke-dasharray:none"
       d="M 172.86719 1000.0449 L 172.86719 1004.5586 L 172.86719 1018.7012 L 172.86719 1019.2676 L 116.58203 1019.2676 L 97.464844 1019.2676 L 41.179688 1019.2676 L 41.179688 1049.4941 L 40.613281 1049.4941 L 32.128906 1049.4941 L 21.904297 1049.4941 L 21.904297 1095.4004 L 40.613281 1095.4004 L 41.179688 1095.4004 L 41.179688 1107.5352 L 41.179688 1170.8027 L 41.179688 1182.9375 L 40.613281 1182.9375 L 21.904297 1182.9375 L 21.904297 1228.8496 L 40.611328 1228.8496 L 41.177734 1228.8496 L 41.177734 1240.9844 L 41.177734 1304.252 L 41.177734 1316.3867 L 40.611328 1316.3867 L 21.904297 1316.3867 L 21.904297 1362.2891 L 135.09961 1362.2891 L 135.09961 1343.582 L 135.09961 1343.0156 L 211.06836 1343.0156 L 267.42383 1343.0156 L 286.4707 1343.0156 L 286.4707 1343.582 L 286.4707 1362.2891 L 399.66797 1362.2891 L 399.66797 1343.582 L 399.66797 1343.0156 L 475.63477 1343.0156 L 499.82031 1343.0156 L 551.03711 1343.0156 L 551.03711 1343.582 L 551.03711 1362.2891 L 664.23438 1362.2891 L 664.23438 1343.582 L 664.23438 1343.0156 L 740.20117 1343.0156 L 747.38672 1343.0156 L 815.60352 1343.0156 L 815.60352 1343.582 L 815.60352 1362.2891 L 928.80078 1362.2891 L 928.80078 1316.3828 L 910.0625 1316.3828 L 909.49609 1316.3828 L 909.49609 1304.252 L 909.49609 1240.9805 L 909.49609 1228.8496 L 910.0625 1228.8496 L 928.80078 1228.8496 L 928.80078 1182.9355 L 910.0625 1182.9355 L 909.49609 1182.9355 L 909.49609 1147.3027 L 909.49609 1107.5332 L 909.49609 1095.4004 L 910.0625 1095.4004 L 928.80078 1095.4004 L 928.80078 1049.4941 L 921.0625 1049.4941 L 910.0625 1049.4941 L 909.49414 1049.4941 L 909.49414 1019.3203 L 777.81836 1019.3203 L 777.81836 1018.7539 L 777.81836 1006.0039 L 777.81836 1000.0449 L 701.76758 1000.0449 L 701.76758 1005.5039 L 701.76758 1018.7539 L 701.76758 1019.3203 L 626.20703 1019.3203 L 614.36523 1019.3203 L 550.80469 1019.3203 L 550.80469 1018.7539 L 550.80469 1009.3848 L 550.80469 1000.0449 L 399.83984 1000.0449 L 399.83984 1018.7012 L 399.83984 1019.2676 L 324.2793 1019.2676 L 306.75977 1019.2676 L 248.87695 1019.2676 L 248.87695 1018.7012 L 248.87695 1000.6699 L 248.87695 1000.0449 L 172.86719 1000.0449 z M 132.64453 1226.3535 L 162.69336 1226.3535 L 162.69336 1239.1367 L 181.58984 1239.1367 L 181.58984 1253.9922 L 113.74805 1253.9922 L 113.74805 1271.0859 L 113.74805 1285.9414 L 113.74805 1288.9648 L 78.03125 1288.9648 L 78.03125 1247.5801 L 113.74805 1247.5801 L 113.74805 1239.1367 L 132.64453 1239.1367 L 132.64453 1226.3535 z M 136.42383 1305.4082 L 231.10156 1305.4082 L 231.10156 1324.875 L 136.42383 1324.875 L 136.42383 1305.4082 z "
       transform="matrix(0.26458333,0,0,0.26458333,0,-351)" />
    <path
       id="path2481-1-9-5-0-1"
       style="display:inline;fill:#6f917c;fill-opacity:1;stroke:#0000ff;stroke-width:0.0574926;stroke-linejoin:miter;stroke-miterlimit:4;stroke-dasharray:none"
       d="m 155.65128,-253.45028 v 4.22197 0.7276 0.14986 h -12.14601 v 24.85068 h 3.26596 1.6836 0.14986 v 20.09955 h 5.3e-4 v 19.9502 h -0.14986 -2.24483 -2.70526 v 29.95011 h 4.71858 0.23151 0.14986 v 24.16133 l 7.04246,0.0108 v -4.66897 -0.28112 -0.14986 h 3.21014 16.74005 3.21014 v 0.14986 0.94258 4.00751 l 12.14758,-0.0108 v -4.9501 l 43.44336,-105.3853 h 4.95007 v -4.41368 h -3.29642 -1.65365 -0.14986 v -2.29702 -1.44745 -1.20561 h 0.14986 0.52917 4.4209 v -4.41214 h -4.95007 -8.13337 v 3.75946 1.19063 0.14986 h -2.67994 -4.83483 -4.63124 v -0.14986 -1.28985 -3.66024 h -23.16036 v 4.05712 0.89297 0.14986 h -2.28356 -4.73512 -5.12786 v -0.14986 -1.55443 -3.39566 z m 4.69276,16.98036 a 2.3999996,2.3999996 0 0 1 0.0176,0 2.3999996,2.3999996 0 0 1 2.39985,2.39985 2.3999996,2.3999996 0 0 1 -2.39985,2.39986 2.3999996,2.3999996 0 0 1 -2.39985,-2.39986 2.3999996,2.3999996 0 0 1 2.38228,-2.39985 z m 39.15523,0 a 2.3999996,2.3999996 0 0 1 0.0176,0 2.3999996,2.3999996 0 0 1 2.39986,2.39985 2.3999996,2.3999996 0 0 1 -2.39986,2.39986 2.3999996,2.3999996 0 0 1 -2.39985,-2.39986 2.3999996,2.3999996 0 0 1 2.38229,-2.39985 z m 17.98598,11.45563 4.80745,1.98179 -7.62227,18.49086 -4.80798,-1.98179 z m -15.24508,36.98121 4.80748,1.98179 -7.62227,18.49034 -4.80748,-1.98179 z m -41.89613,0.66611 a 2.3999997,2.3999997 0 0 1 0.0176,0 2.3999997,2.3999997 0 0 1 2.39985,2.39985 2.3999997,2.3999997 0 0 1 -2.39985,2.39985 2.3999997,2.3999997 0 0 1 -2.39985,-2.39985 2.3999997,2.3999997 0 0 1 2.38228,-2.39985 z m 29.10004,30.42294 4.80795,1.98076 -3.80958,9.24595 -4.80798,-1.98076 z" />
  </g>
</svg>
