<?xml version="1.0" encoding="UTF-8" standalone="no"?>
<svg
   xmlns:dc="http://purl.org/dc/elements/1.1/"
   xmlns:cc="http://creativecommons.org/ns#"
   xmlns:rdf="http://www.w3.org/1999/02/22-rdf-syntax-ns#"
   xmlns:svg="http://www.w3.org/2000/svg"
   xmlns="http://www.w3.org/2000/svg"
   xmlns:sodipodi="http://sodipodi.sourceforge.net/DTD/sodipodi-0.dtd"
   xmlns:inkscape="http://www.inkscape.org/namespaces/inkscape"
   width="458mm"
   height="648mm"
   viewBox="0 0 458 648"
   version="1.1"
   id="svg8"
   inkscape:version="1.0.2-2 (e86c870879, 2021-01-15)"
   sodipodi:docname="Mark_III.svg">
  <defs
     id="defs2" />
  <sodipodi:namedview
     id="base"
     pagecolor="#ffffff"
     bordercolor="#666666"
     borderopacity="1.0"
     inkscape:pageopacity="0.0"
     inkscape:pageshadow="2"
     inkscape:zoom="0.32"
     inkscape:cx="309.4912"
     inkscape:cy="1247.1319"
     inkscape:document-units="mm"
     inkscape:current-layer="layer2"
     showgrid="false"
     showguides="true"
     inkscape:window-width="1918"
     inkscape:window-height="1504"
     inkscape:window-x="0"
     inkscape:window-y="317"
     inkscape:window-maximized="0"
     inkscape:document-rotation="0"
     inkscape:snap-object-midpoints="true"
     inkscape:snap-global="false">
    <inkscape:grid
       type="xygrid"
       id="grid19" />
  </sodipodi:namedview>
  <metadata
     id="metadata5">
    <rdf:RDF>
      <cc:Work
         rdf:about="">
        <dc:format>image/svg+xml</dc:format>
        <dc:type
           rdf:resource="http://purl.org/dc/dcmitype/StillImage" />
        <dc:title />
      </cc:Work>
    </rdf:RDF>
  </metadata>
  <g
     inkscape:label="Layer 1"
     inkscape:groupmode="layer"
     id="layer1"
     transform="translate(0,351)" />
  <g
     inkscape:groupmode="layer"
     id="layer2"
     inkscape:label="guide"
     transform="translate(0,351)"
     style="display:inline">
    <path
       id="path1396"
       style="display:inline;fill:#a02c5a;fill-opacity:1;stroke:#0000ff;stroke-width:0.0498232;stroke-linejoin:miter;stroke-miterlimit:4;stroke-dasharray:none"
       d="m 40.865217,-233.23061 v 4.95062 0.14986 h -24.84809 v 24.90441 h -0.14986 -4.95009 v 39.94226 h 0.092 4.85758 0.14986 v 20.75532 h -0.003 v 9.30228 h -0.14986 -2.58383 -2.36626 l 5.3e-4,24.94526 h 4.95112 v -2.44946 h 12.27057 v 2.44946 h 87.779123 v -2.44999 h 29.95012 v 2.44999 h 87.77964 v -2.44999 h 12.27059 v 2.44999 h 4.94956 v -24.94526 h -2.62464 -2.32545 -0.14986 v -9.30228 h -0.003 v -20.75532 h 0.14986 0.77515 4.17441 v -39.94226 h -0.7643 -4.18579 -0.15036 v -24.90441 h -24.84655 v -0.14986 -4.95062 h -40.04976 v 4.95009 0.14986 h -9.19478 -11.56054 -9.19478 v -0.14986 -4.95009 h -40.06267 v 4.95009 0.14986 h -9.1948 -11.560533 -9.19479 v -0.14986 -4.95009 z m -20.78529,8.12562 c 0.5385,0 0.97462,0.43662 0.97462,0.97512 0,0.53851 -0.43611,0.97515 -0.97462,0.97515 -0.53851,0 -0.97513,-0.43664 -0.97513,-0.97515 0,-0.5385 0.43663,-0.97512 0.97513,-0.97512 z m 106.649803,0 c 0.53853,0 0.97514,0.43662 0.97514,0.97512 0,0.53851 -0.43661,0.97515 -0.97514,0.97515 -0.53819,0 -0.97513,-0.43664 -0.97513,-0.97515 0,-0.5385 0.43694,-0.97512 0.97513,-0.97512 z m 8.31011,0 c 0.53848,0 0.97459,0.43662 0.97459,0.97512 0,0.53851 -0.43611,0.97515 -0.97459,0.97515 -0.53853,0 -0.97515,-0.43664 -0.97515,-0.97515 0,-0.5385 0.43662,-0.97512 0.97515,-0.97512 z m 106.64981,0 c 0.5385,0 0.97512,0.43662 0.97512,0.97512 0,0.53851 -0.43659,0.97515 -0.97512,0.97515 -0.53851,0 -0.97515,-0.43664 -0.97515,-0.97515 0,-0.53853 0.43664,-0.97512 0.97515,-0.97512 z m -207.820383,1.9208 h 79.126943 l 12.91497,12.90825 v 79.12695 l -12.90825,12.91497 H 33.875987 l -12.91498,-12.90825 v -79.12695 z m 114.907183,0 h 79.12695 l 12.91497,12.90825 v 79.12695 l -12.90825,12.91497 h -79.12695 l -12.91497,-12.90825 v -79.12695 z m -124.896753,0.45423 c 1.32551,0 2.39985,1.07487 2.39985,2.40038 0,1.32551 -1.07434,2.39985 -2.39985,2.39985 -1.32551,0 -2.39986,-1.07434 -2.39986,-2.39985 0,-1.32551 1.07434,-2.40038 2.39986,-2.40038 z m 99.049763,0 c 1.32554,0 2.40035,1.07487 2.40035,2.40038 0,1.32551 -1.07484,2.39985 -2.40035,2.39985 -1.32551,0 -2.39985,-1.07434 -2.39985,-2.39985 0,-1.32551 1.07434,-2.40038 2.39985,-2.40038 z m 15.91014,0 c 1.32553,0 2.39985,1.07487 2.39985,2.40038 0,1.32551 -1.07434,2.39985 -2.39985,2.39985 -1.32551,0 -2.39985,-1.07434 -2.39985,-2.39985 0,-1.32551 1.07434,-2.40038 2.39985,-2.40038 z m 99.04976,0 c 1.32551,0 2.40038,1.07487 2.40038,2.40038 0,1.32551 -1.07487,2.39985 -2.40038,2.39985 -1.32551,0 -2.39985,-1.07434 -2.39985,-2.39985 0,-1.32551 1.07434,-2.40038 2.39985,-2.40038 z m -109.57523,9.47436 h 5.15059 v 30.00023 h -5.15059 z m 0,50.00006 h 5.15059 v 30.00023 h -5.15059 z m -104.434433,39.57537 c 1.32551,0 2.39985,1.07484 2.39985,2.40035 0,1.32551 -1.07434,2.39985 -2.39985,2.39985 -1.32551,0 -2.39986,-1.07434 -2.39986,-2.39985 0,-1.32551 1.07435,-2.40035 2.39986,-2.40035 z m 99.049763,0 c 1.32551,0 2.40035,1.07484 2.40035,2.40035 0,1.32551 -1.07484,2.39985 -2.40035,2.39985 -1.32551,0 -2.39985,-1.07434 -2.39985,-2.39985 0,-1.32551 1.07434,-2.40035 2.39985,-2.40035 z m 15.91014,0 c 1.32551,0 2.39985,1.07484 2.39985,2.40035 0,1.32551 -1.07434,2.39985 -2.39985,2.39985 -1.32551,0 -2.39985,-1.07434 -2.39985,-2.39985 0,-1.32551 1.07434,-2.40035 2.39985,-2.40035 z m 99.04976,0 c 1.32551,0 2.40038,1.07484 2.40038,2.40035 0,1.32551 -1.07487,2.39985 -2.40038,2.39985 -1.32551,0 -2.39985,-1.07434 -2.39985,-2.39985 0,-1.32551 1.07434,-2.40035 2.39985,-2.40035 z m -217.809433,5.22499 c 0.5385,0 0.97461,0.43661 0.97462,0.97512 0,0.53851 -0.43611,0.97515 -0.97462,0.97515 -0.53851,0 -0.97513,-0.43664 -0.97513,-0.97515 0,-0.53851 0.43663,-0.97515 0.97513,-0.97512 z m 106.649803,0 c 0.53853,0 0.97461,0.43661 0.97461,0.97512 0,0.53851 -0.43608,0.97515 -0.97461,0.97515 -0.53819,0 -0.97513,-0.43664 -0.97513,-0.97515 0,-0.53851 0.43694,-0.97512 0.97513,-0.97512 z m 8.31011,0 c 0.53848,0 0.97459,0.43661 0.97459,0.97512 0,0.53851 -0.43611,0.97515 -0.97459,0.97515 -0.53853,0 -0.97515,-0.43664 -0.97515,-0.97515 0,-0.53851 0.43662,-0.97515 0.97515,-0.97512 z m 106.64981,0 c 0.5385,-3e-5 0.97462,0.43661 0.97462,0.97512 0,0.53851 -0.43609,0.97515 -0.97462,0.97515 -0.53848,0 -0.97515,-0.43664 -0.97515,-0.97515 0,-0.53851 0.43667,-0.97515 0.97515,-0.97512 z m -210.800053,2.62464 h 29.99972 v 5.15009 h -29.99972 z m 49.99954,0 h 30.000223 v 5.15009 H 80.889137 Z m 70.000383,0 h 30.00023 v 5.15009 h -30.00023 z m 50.00003,0 h 30.00023 v 5.15009 h -30.00023 z" />
    <g
       id="g3451" />
    <path
       id="path1787"
       style="display:inline;fill:#a02c5a;fill-opacity:1;stroke:#0000ff;stroke-width:0.0501213;stroke-miterlimit:4;stroke-dasharray:none"
       d="m 39.994474,50.504294 v 4.95008 0.14986 H 15.144312 v 24.85017 H 14.99445 10.044365 v 40.049746 h 4.950085 0.149862 v 9.19479 11.56053 9.19479 H 14.99445 10.044365 v 40.04975 h 4.950085 0.149862 v 9.19479 11.56053 9.19479 H 14.99445 10.044365 v 40.04975 h 4.950085 0.149862 v 24.85017 h 24.850162 v 0.14986 4.95009 h 40.036832 v -4.95009 -0.14986 h 9.194789 11.560525 9.19479 v 0.14986 4.95009 h 40.06267 v -4.95009 -0.14986 h 9.1953 11.56002 9.19531 v 0.14986 4.95009 h 40.04923 v -4.95009 -0.14986 h 24.85016 v -24.85017 h 0.14986 4.95009 v -40.04975 h -4.95009 -0.14986 v -9.19479 -11.56053 -9.19479 h 0.14986 4.95009 v -40.04975 h -4.95009 -0.14986 v -9.19479 -11.56053 -9.19479 h 0.14986 4.95009 V 80.454404 h -4.95009 -0.14986 v -24.85017 h -24.85016 v -0.14986 -4.95008 h -40.04975 v 4.95008 0.14986 h -9.19479 -11.56053 -9.19479 v -0.14986 -4.95008 h -40.04975 v 4.95008 0.14986 h -9.19479 -11.560528 -9.194787 v -0.14986 -4.95008 z m 87.449956,19.99981 h 5.15007 v 29.950106 h -5.15007 z m -102.125028,4.45038 a 2.9750001,2.9750001 0 0 1 2.975012,2.97501 2.9750001,2.9750001 0 0 1 -2.975012,2.97501 2.9750001,2.9750001 0 0 1 -2.975012,-2.97501 2.9750001,2.9750001 0 0 1 2.975012,-2.97501 z m 55.099995,0 a 2.9750001,2.9750001 0 0 1 2.975012,2.97501 2.9750001,2.9750001 0 0 1 -2.975012,2.97501 2.9750001,2.9750001 0 0 1 -2.975012,-2.97501 2.9750001,2.9750001 0 0 1 2.975012,-2.97501 z M 40.39445,90.404694 h 24.949899 v 5.15008 H 40.39445 Z m 87.04998,30.099456 h 5.15007 v 29.95011 h -5.15007 z m -97.400252,47.39969 h 29.950108 v 5.15059 H 30.044178 Z m 50.000047,0 h 29.950105 v 5.15059 H 80.044225 Z m 69.999855,0 h 29.95011 v 5.15059 h -29.95011 z m 50.00005,0 h 29.95011 v 5.15059 h -29.95011 z m -72.5997,22.60017 h 5.15007 v 29.95011 h -5.15007 z m 0,50.00005 h 5.15007 v 29.95011 h -5.15007 z" />
    <path
       id="path1640-5-2"
       style="display:inline;fill:#a02c5a;fill-opacity:1;stroke:#0000ff;stroke-width:0.0574926;stroke-linejoin:miter;stroke-miterlimit:4;stroke-dasharray:none"
       d="m 249.81472,-102.21999 h -29.95734 v 4.952651 0.14986 h -19.27428 -1.48105 -19.27427 v -0.14986 -4.952651 h -29.95735 v 4.952651 0.14986 h -19.30009 -1.45521 -19.30012 v -0.14986 -4.952651 H 79.864389 v 0.30178 4.650871 0.14986 h -20.75532 v 0 h -19.29443 v -0.14986 -3.617351 -1.33324 H 9.8645293 v 12.141393 h 4.9500797 0.14987 v 2.40501 18.35031 2.40502 h -0.14987 -4.9500797 v 12.14757 H 249.81472 v -12.14345 h -4.95008 -0.14987 v -2.40502 -18.35031 -2.40501 h 0.14987 4.95008 z M 219.861,-64.816067 v 5.14233 h -40.04252 v -5.14233 z m -69.99987,0 v 5.14233 h -40.0425 v -5.14233 z m -70.000361,0 v 5.14233 h -40.04251 v -5.14233 z" />
    <path
       style="display:inline;fill:#a02c5a;fill-opacity:1;stroke:#0000ff;stroke-width:0.0574927;stroke-linejoin:miter;stroke-miterlimit:4;stroke-dasharray:none"
       d="m -71.348135,0.29795881 h 0.007 V -4.6445492 h -0.007 z"
       id="path1640-5" />
    <text
       xml:space="preserve"
       style="font-style:normal;font-variant:normal;font-weight:normal;font-stretch:normal;font-size:50.8px;line-height:1.25;font-family:sans-serif;-inkscape-font-specification:'sans-serif, Normal';font-variant-ligatures:normal;font-variant-caps:normal;font-variant-numeric:normal;font-variant-east-asian:normal;fill:#000000;fill-opacity:1;stroke:none;stroke-width:0.264583"
       x="353.16446"
       y="-273.47717"
       id="text848"><tspan
         sodipodi:role="line"
         id="tspan846"
         x="353.16446"
         y="-273.47717"
         style="font-style:normal;font-variant:normal;font-weight:normal;font-stretch:normal;font-size:50.8px;font-family:sans-serif;-inkscape-font-specification:'sans-serif, Normal';font-variant-ligatures:normal;font-variant-caps:normal;font-variant-numeric:normal;font-variant-east-asian:normal;fill:#000000;stroke-width:0.264583">B5</tspan></text>
    <path
       id="rect4636-5-2-3-6-8-2-4-9-6"
       style="display:inline;fill:#a02c5a;fill-opacity:1;stroke:#0000ff;stroke-width:0.0498232;stroke-linejoin:miter;stroke-miterlimit:4;stroke-dasharray:none"
       d="m 262.34612,19.990155 h 22.45033 v 0.14986 1.91772 3.03237 h 19.95848 v -4.95112 -0.14986 h 1.49706 7.27448 11.17865 v 0.14986 4.95112 h 9.20718 v 5.3e-4 h 10.72131 v -5.3e-4 -4.94957 -5.3e-4 -0.14934 h 13.61985 v 0.14986 h -0.003 v 4.9501 h 9.94977 v -4.95009 -0.14986 h 9.99989 v 0.14986 h 0.004 V 19.990155 7.8694451 h -0.94983 -2.44996 v -5.73246 L 361.88677,15.051955 H 334.43179 282.76983 L 269.85485,2.1333651 V -76.983775 l 12.91861,-12.91446 h 79.11713 l 12.91394,12.91807 v -2.92953 h 2.45053 v 5.2e-4 h 0.9498 v -29.950615 h -0.9498 -2.45049 v -2.92902 l -12.91756,12.914965 h -79.11714 l -12.91498,-12.918595 v -79.11712 l 12.91861,-12.91447 h 51.43045 27.68668 l 12.91394,12.91809 v -5.73352 h 2.44996 v 0 h 0.94983 v -12.12122 h -9.99992 v -0.14986 -4.9501 h -9.94976 v 4.9501 0 0.14986 h -13.61985 v -0.14986 -4.9501 h -10.50272 -9.42578 v 4.94957 0.14985 h -11.1125 -6.59133 -2.24636 v -0.14985 -4.94957 h -19.95847 v 1.7751 3.175 0.15036 h -22.45033 z m 5.68338,-119.0253 a 0.97505252,0.97505252 0 0 1 0.97513,-0.975135 0.97505252,0.97505252 0 0 1 0.97515,0.975135 0.97505252,0.97505252 0 0 1 -0.97515,0.97513 0.97505252,0.97505252 0 0 1 -0.97513,-0.97513 z m 0,-106.649815 a 0.97505252,0.97505252 0 0 1 0.97513,-0.97512 0.97505252,0.97505252 0 0 1 0.97515,0.97512 0.97505252,0.97505252 0 0 1 -0.97515,0.97514 0.97505252,0.97505252 0 0 1 -0.97513,-0.97514 z m 5.3e-4,221.609735 a 0.97505252,0.97505252 0 0 1 0.9746,-0.97514 0.97505252,0.97505252 0 0 1 0.97515,0.97514 0.97505252,0.97505252 0 0 1 -0.97515,0.97513 0.97505252,0.97505252 0 0 1 -0.9746,-0.97513 z m 0,-106.64982 a 0.97505252,0.97505252 0 0 1 0.9746,-0.97515 0.97505252,0.97505252 0 0 1 0.97515,0.97515 0.97505252,0.97505252 0 0 1 -0.97515,0.97513 0.97505252,0.97505252 0 0 1 -0.9746,-0.97513 z m 2.37452,-12.092805 a 2.4000522,2.4000522 0 0 1 0,-0.017 2.4000522,2.4000522 0 0 1 2.39985,-2.40037 2.4000522,2.4000522 0 0 1 2.40038,2.40037 2.4000522,2.4000522 0 0 1 -2.40038,2.39986 2.4000522,2.4000522 0 0 1 -2.39985,-2.3828 z m 0,-99.04975 a 2.4000522,2.4000522 0 0 1 0,-0.0175 2.4000522,2.4000522 0 0 1 2.39985,-2.39986 2.4000522,2.4000522 0 0 1 2.40038,2.39986 2.4000522,2.4000522 0 0 1 -2.40038,2.40035 2.4000522,2.4000522 0 0 1 -2.39985,-2.38279 z m 0,214.009655 a 2.4000522,2.4000522 0 0 1 0,-0.0176 2.4000522,2.4000522 0 0 1 2.39985,-2.3998499 2.4000522,2.4000522 0 0 1 2.39988,2.3998499 2.4000522,2.4000522 0 0 1 -2.39988,2.40037 2.4000522,2.4000522 0 0 1 -2.39985,-2.3828 z m 0,-99.04976 a 2.4000522,2.4000522 0 0 1 0,-0.0176 2.4000522,2.4000522 0 0 1 2.39985,-2.39986 2.4000522,2.4000522 0 0 1 2.39988,2.39986 2.4000522,2.4000522 0 0 1 -2.39988,2.40037 2.4000522,2.4000522 0 0 1 -2.39985,-2.3828 z m 11.86646,-5.40227 v -5.15006 h 30.00023 v 5.15006 z m 50.00005,0 v -5.15006 h 29.99971 v 5.15006 z m 37.18275,-10.507875 a 2.4000522,2.4000522 0 0 1 0,-0.017 2.4000522,2.4000522 0 0 1 2.39984,-2.40038 2.4000522,2.4000522 0 0 1 2.40038,2.40038 2.4000522,2.4000522 0 0 1 -2.40038,2.39985 2.4000522,2.4000522 0 0 1 -2.39984,-2.3828 z m 0,114.961455 v -5.3e-4 a 2.4000522,2.4000522 0 0 1 0,-0.017 2.4000522,2.4000522 0 0 1 0,-0.002 2.4000522,2.4000522 0 0 1 0,-0.0656 2.4000522,2.4000522 0 0 1 0,-0.002 2.4000522,2.4000522 0 0 1 0.003,-0.0651 2.4000522,2.4000522 0 0 1 0,-0.002 2.4000522,2.4000522 0 0 1 0.005,-0.0656 2.4000522,2.4000522 0 0 1 0,-0.002 2.4000522,2.4000522 0 0 1 0.007,-0.0651 2.4000522,2.4000522 0 0 1 0,-0.002 2.4000522,2.4000522 0 0 1 0.008,-0.0646 2.4000522,2.4000522 0 0 1 0,-0.002 2.4000522,2.4000522 0 0 1 0.0103,-0.0651 2.4000522,2.4000522 0 0 1 0,-10e-4 2.4000522,2.4000522 0 0 1 0.0119,-0.0646 2.4000522,2.4000522 0 0 1 0.11057,-0.38602 2.4000522,2.4000522 0 0 1 0,-0.002 2.4000522,2.4000522 0 0 1 0.0506,-0.12247 2.4000522,2.4000522 0 0 1 0,-0.002 2.4000522,2.4000522 0 0 1 0.0574,-0.11937 2.4000522,2.4000522 0 0 1 0,-0.002 2.4000522,2.4000522 0 0 1 2.13423,-1.3017299 2.4000522,2.4000522 0 0 1 1.03663,0.23461 2.4000522,2.4000522 0 0 1 0,5.3e-4 2.4000522,2.4000522 0 0 1 0.0594,0.0295 2.4000522,2.4000522 0 0 1 0,5.3e-4 2.4000522,2.4000522 0 0 1 0.59378,0.4314899 2.4000522,2.4000522 0 0 1 0.047,0.0476 2.4000522,2.4000522 0 0 1 0.0868,0.0961 2.4000522,2.4000522 0 0 1 0.003,0.003 2.4000522,2.4000522 0 0 1 0,5.3e-4 2.4000522,2.4000522 0 0 1 0.007,0.009 2.4000522,2.4000522 0 0 1 0.24546,0.35089 2.4000522,2.4000522 0 0 1 0.014,0.0243 2.4000522,2.4000522 0 0 1 0,5.3e-4 2.4000522,2.4000522 0 0 1 0.0315,0.0584 2.4000522,2.4000522 0 0 1 0,5.3e-4 2.4000522,2.4000522 0 0 1 0.0145,0.0294 2.4000522,2.4000522 0 0 1 0.0289,0.0589 2.4000522,2.4000522 0 0 1 0.0151,0.0315 2.4000522,2.4000522 0 0 1 0,5.2e-4 2.4000522,2.4000522 0 0 1 0.0265,0.061 2.4000522,2.4000522 0 0 1 0,5.3e-4 2.4000522,2.4000522 0 0 1 0.0243,0.0615 2.4000522,2.4000522 0 0 1 0,5.3e-4 2.4000522,2.4000522 0 0 1 0.0145,0.0393 2.4000522,2.4000522 0 0 1 0.0161,0.045 2.4000522,2.4000522 0 0 1 0.014,0.0413 2.4000522,2.4000522 0 0 1 0.11781,0.74207 2.4000522,2.4000522 0 0 1 -2.39985,2.40037 2.4000522,2.4000522 0 0 1 -0.91416,-0.18035 2.4000522,2.4000522 0 0 1 0,-5.3e-4 2.4000522,2.4000522 0 0 1 -1.31772,-1.33842 2.4000522,2.4000522 0 0 1 -0.005,-0.0114 2.4000522,2.4000522 0 0 1 0,-10e-4 2.4000522,2.4000522 0 0 1 -0.006,-0.0155 2.4000522,2.4000522 0 0 1 -0.0393,-0.11058 2.4000522,2.4000522 0 0 1 -0.11735,-0.72347 z m 0,-99.05131 a 2.4000522,2.4000522 0 0 1 0,-0.0176 2.4000522,2.4000522 0 0 1 2.39984,-2.39986 2.4000522,2.4000522 0 0 1 2.39988,2.39986 2.4000522,2.4000522 0 0 1 -2.39988,2.40037 2.4000522,2.4000522 0 0 1 -2.39984,-2.3828 z m 0,-114.957845 a 2.4000522,2.4000522 0 0 1 0,-0.0175 2.4000522,2.4000522 0 0 1 2.39984,-2.40038 2.4000522,2.4000522 0 0 1 2.21229,1.46968 2.4000522,2.4000522 0 0 1 0.048,0.12297 2.4000522,2.4000522 0 0 1 0,0.003 2.4000522,2.4000522 0 0 1 0.0589,0.18965 2.4000522,2.4000522 0 0 1 0,0.003 2.4000522,2.4000522 0 0 1 0.0537,0.26252 2.4000522,2.4000522 0 0 1 0.0259,0.34933 2.4000522,2.4000522 0 0 1 0,0.003 2.4000522,2.4000522 0 0 1 0,0.0651 2.4000522,2.4000522 0 0 1 0,0.003 2.4000522,2.4000522 0 0 1 -0.003,0.0646 2.4000522,2.4000522 0 0 1 0,0.003 2.4000522,2.4000522 0 0 1 -0.005,0.0651 2.4000522,2.4000522 0 0 1 0,0.003 2.4000522,2.4000522 0 0 1 -0.007,0.0651 2.4000522,2.4000522 0 0 1 0,0.003 2.4000522,2.4000522 0 0 1 -0.008,0.0641 2.4000522,2.4000522 0 0 1 -0.019,0.11577 2.4000522,2.4000522 0 0 1 -0.004,0.0185 2.4000522,2.4000522 0 0 1 -0.003,0.01 2.4000522,2.4000522 0 0 1 -0.108,0.37414 2.4000522,2.4000522 0 0 1 0,0.003 2.4000522,2.4000522 0 0 1 -0.10851,0.24289 2.4000522,2.4000522 0 0 1 0,0.003 2.4000522,2.4000522 0 0 1 -2.13474,1.30174 2.4000522,2.4000522 0 0 1 -2.06134,-1.17097 2.4000522,2.4000522 0 0 1 -0.0331,-0.0563 2.4000522,2.4000522 0 0 1 0,-0.003 2.4000522,2.4000522 0 0 1 -0.031,-0.0574 2.4000522,2.4000522 0 0 1 0,-0.003 2.4000522,2.4000522 0 0 1 -0.03,-0.0584 2.4000522,2.4000522 0 0 1 0,-0.003 2.4000522,2.4000522 0 0 1 -0.0279,-0.0589 2.4000522,2.4000522 0 0 1 0,-0.003 2.4000522,2.4000522 0 0 1 -0.0265,-0.06 2.4000522,2.4000522 0 0 1 0,-0.003 2.4000522,2.4000522 0 0 1 -0.0249,-0.0605 2.4000522,2.4000522 0 0 1 0,-0.003 2.4000522,2.4000522 0 0 1 -0.0228,-0.0615 2.4000522,2.4000522 0 0 1 0,-0.003 2.4000522,2.4000522 0 0 1 -0.0408,-0.12557 2.4000522,2.4000522 0 0 1 0,-0.003 2.4000522,2.4000522 0 0 1 -0.0175,-0.0631 2.4000522,2.4000522 0 0 1 0,-0.003 2.4000522,2.4000522 0 0 1 -0.0156,-0.0636 2.4000522,2.4000522 0 0 1 0,-0.003 2.4000522,2.4000522 0 0 1 -0.014,-0.0641 2.4000522,2.4000522 0 0 1 0,-0.003 2.4000522,2.4000522 0 0 1 -0.0119,-0.0641 2.4000522,2.4000522 0 0 1 0,-0.003 2.4000522,2.4000522 0 0 1 -0.0103,-0.0646 2.4000522,2.4000522 0 0 1 -0.0259,-0.33333 z m 5.22448,102.830415 a 0.97505252,0.97505252 0 0 1 0.97515,-0.975135 0.97505252,0.97505252 0 0 1 0.97515,0.975135 0.97505252,0.97505252 0 0 1 -0.97515,0.97513 0.97505252,0.97505252 0 0 1 -0.97515,-0.97513 z m 0,114.96042 a 0.97505252,0.97505252 0 0 1 0,-0.0429 0.97505252,0.97505252 0 0 1 0,-5.3e-4 0.97505252,0.97505252 0 0 1 0.003,-0.0419 0.97505252,0.97505252 0 0 1 0,-5.3e-4 0.97505252,0.97505252 0 0 1 0.005,-0.0419 0.97505252,0.97505252 0 0 1 0,-5.3e-4 0.97505252,0.97505252 0 0 1 0.007,-0.0419 0.97505252,0.97505252 0 0 1 0,-5.3e-4 0.97505252,0.97505252 0 0 1 0.008,-0.0413 0.97505252,0.97505252 0 0 1 0,-5.3e-4 0.97505252,0.97505252 0 0 1 0.0103,-0.0408 0.97505252,0.97505252 0 0 1 0,-5.2e-4 0.97505252,0.97505252 0 0 1 0.0119,-0.0408 0.97505252,0.97505252 0 0 1 0,-5.3e-4 0.97505252,0.97505252 0 0 1 0.014,-0.0398 0.97505252,0.97505252 0 0 1 0,-5.3e-4 0.97505252,0.97505252 0 0 1 0.0156,-0.0393 0.97505252,0.97505252 0 0 1 0,-5.3e-4 0.97505252,0.97505252 0 0 1 0.0169,-0.0382 0.97505252,0.97505252 0 0 1 0,-5.3e-4 0.97505252,0.97505252 0 0 1 0.019,-0.0377 0.97505252,0.97505252 0 0 1 0,-5.3e-4 0.97505252,0.97505252 0 0 1 0.0206,-0.0372 0.97505252,0.97505252 0 0 1 0,-5.3e-4 0.97505252,0.97505252 0 0 1 0.0222,-0.0357 0.97505252,0.97505252 0 0 1 0,-5.3e-4 0.97505252,0.97505252 0 0 1 0.0238,-0.0351 0.97505252,0.97505252 0 0 1 0,-5.3e-4 0.97505252,0.97505252 0 0 1 0.0254,-0.0336 0.97505252,0.97505252 0 0 1 0,-5.2e-4 0.97505252,0.97505252 0 0 1 0.0269,-0.0331 0.97505252,0.97505252 0 0 1 0,-5.3e-4 0.97505252,0.97505252 0 0 1 0.0279,-0.0315 0.97505252,0.97505252 0 0 1 0,-5.3e-4 0.97505252,0.97505252 0 0 1 0.03,-0.03 0.97505252,0.97505252 0 0 1 0.68728,-0.28371 0.97505252,0.97505252 0 0 1 0.29456,0.0455 0.97505252,0.97505252 0 0 1 0.0398,0.0134 0.97505252,0.97505252 0 0 1 0,5.3e-4 0.97505252,0.97505252 0 0 1 0.0393,0.015 0.97505252,0.97505252 0 0 1 0,5.3e-4 0.97505252,0.97505252 0 0 1 0.0383,0.0165 0.97505252,0.97505252 0 0 1 0,5.3e-4 0.97505252,0.97505252 0 0 1 0.0377,0.0186 0.97505252,0.97505252 0 0 1 0,5.3e-4 0.97505252,0.97505252 0 0 1 0.0372,0.0202 0.97505252,0.97505252 0 0 1 0,5.3e-4 0.97505252,0.97505252 0 0 1 0.0357,0.0217 0.97505252,0.97505252 0 0 1 0,5.3e-4 0.97505252,0.97505252 0 0 1 0.0352,0.0233 0.97505252,0.97505252 0 0 1 0,5.3e-4 0.97505252,0.97505252 0 0 1 0.0341,0.0248 0.97505252,0.97505252 0 0 1 0,5.3e-4 0.97505252,0.97505252 0 0 1 0.0325,0.0263 0.97505252,0.97505252 0 0 1 0,5.3e-4 0.97505252,0.97505252 0 0 1 0.0315,0.0274 0.97505252,0.97505252 0 0 1 0,5.3e-4 0.97505252,0.97505252 0 0 1 0.03,0.0294 0.97505252,0.97505252 0 0 1 0,5.3e-4 0.97505252,0.97505252 0 0 1 0.029,0.0305 0.97505252,0.97505252 0 0 1 0,5.3e-4 0.97505252,0.97505252 0 0 1 0.0279,0.0315 0.97505252,0.97505252 0 0 1 0,5.3e-4 0.97505252,0.97505252 0 0 1 0.0259,0.0326 0.97505252,0.97505252 0 0 1 0,5.3e-4 0.97505252,0.97505252 0 0 1 0.0249,0.0341 0.97505252,0.97505252 0 0 1 0,5.3e-4 0.97505252,0.97505252 0 0 1 0.0228,0.0351 0.97505252,0.97505252 0 0 1 0,5.3e-4 0.97505252,0.97505252 0 0 1 0.0217,0.0362 0.97505252,0.97505252 0 0 1 0,5.3e-4 0.97505252,0.97505252 0 0 1 0.0196,0.0372 0.97505252,0.97505252 0 0 1 0,5.3e-4 0.97505252,0.97505252 0 0 1 0.0185,0.0377 0.97505252,0.97505252 0 0 1 0,5.3e-4 0.97505252,0.97505252 0 0 1 0.0164,0.0388 0.97505252,0.97505252 0 0 1 0,5.3e-4 0.97505252,0.97505252 0 0 1 0.0145,0.0393 0.97505252,0.97505252 0 0 1 0,5.2e-4 0.97505252,0.97505252 0 0 1 0.013,0.0398 0.97505252,0.97505252 0 0 1 0.0439,0.28887 0.97505252,0.97505252 0 0 1 -0.97512,0.97513 0.97505252,0.97505252 0 0 1 -0.29406,-0.0455 0.97505252,0.97505252 0 0 1 -0.0403,-0.0134 0.97505252,0.97505252 0 0 1 0,-5.2e-4 0.97505252,0.97505252 0 0 1 -0.0393,-0.015 0.97505252,0.97505252 0 0 1 0,-5.3e-4 0.97505252,0.97505252 0 0 1 -0.0382,-0.0165 0.97505252,0.97505252 0 0 1 0,-5.2e-4 0.97505252,0.97505252 0 0 1 -0.0377,-0.0186 0.97505252,0.97505252 0 0 1 0,-5.3e-4 0.97505252,0.97505252 0 0 1 -0.0372,-0.0202 0.97505252,0.97505252 0 0 1 0,-5.2e-4 0.97505252,0.97505252 0 0 1 -0.0356,-0.0217 0.97505252,0.97505252 0 0 1 0,-5.3e-4 0.97505252,0.97505252 0 0 1 -0.0351,-0.0233 0.97505252,0.97505252 0 0 1 0,-5.3e-4 0.97505252,0.97505252 0 0 1 -0.0336,-0.0248 0.97505252,0.97505252 0 0 1 0,-5.3e-4 0.97505252,0.97505252 0 0 1 -0.0331,-0.0264 0.97505252,0.97505252 0 0 1 0,-5.3e-4 0.97505252,0.97505252 0 0 1 -0.062,-0.0574 0.97505252,0.97505252 0 0 1 -0.003,-0.002 0.97505252,0.97505252 0 0 1 -0.0284,-0.03 0.97505252,0.97505252 0 0 1 -0.0542,-0.0646 0.97505252,0.97505252 0 0 1 0,-10e-4 0.97505252,0.97505252 0 0 1 -0.048,-0.0693 0.97505252,0.97505252 0 0 1 0,-10e-4 0.97505252,0.97505252 0 0 1 -0.0362,-0.0625 0.97505252,0.97505252 0 0 1 -0.006,-0.0109 0.97505252,0.97505252 0 0 1 0,-5.3e-4 0.97505252,0.97505252 0 0 1 -0.006,-0.0129 0.97505252,0.97505252 0 0 1 -0.0413,-0.0951 0.97505252,0.97505252 0 0 1 -0.003,-0.009 0.97505252,0.97505252 0 0 1 0,-10e-4 0.97505252,0.97505252 0 0 1 -0.013,-0.0393 0.97505252,0.97505252 0 0 1 0,-0.001 0.97505252,0.97505252 0 0 1 -0.005,-0.0176 0.97505252,0.97505252 0 0 1 -0.0114,-0.0434 0.97505252,0.97505252 0 0 1 -0.005,-0.0207 0.97505252,0.97505252 0 0 1 -0.005,-0.0264 0.97505252,0.97505252 0 0 1 -0.0169,-0.17983 z m 0,-106.65033 a 0.97505252,0.97505252 0 0 1 0.97465,-0.97514 0.97505252,0.97505252 0 0 1 0.97512,0.97514 0.97505252,0.97505252 0 0 1 -0.97512,0.97513 0.97505252,0.97505252 0 0 1 -0.97465,-0.97513 z m 0,-114.938735 a 0.97505252,0.97505252 0 0 1 0,-0.0196 0.97505252,0.97505252 0 0 1 0.97465,-0.97512 0.97505252,0.97505252 0 0 1 0.95289,0.76893 0.97505252,0.97505252 0 0 1 0.0222,0.20462 0.97505252,0.97505252 0 0 1 0,0.0445 0.97505252,0.97505252 0 0 1 -0.003,0.0408 0.97505252,0.97505252 0 0 1 0,0.003 0.97505252,0.97505252 0 0 1 -0.005,0.0408 0.97505252,0.97505252 0 0 1 0,0.003 0.97505252,0.97505252 0 0 1 -0.007,0.0408 0.97505252,0.97505252 0 0 1 0,0.003 0.97505252,0.97505252 0 0 1 -0.008,0.0403 0.97505252,0.97505252 0 0 1 -0.0222,0.0827 0.97505252,0.97505252 0 0 1 -0.92964,0.68059 0.97505252,0.97505252 0 0 1 -0.74877,-0.34985 0.97505252,0.97505252 0 0 1 -0.0511,-0.0667 0.97505252,0.97505252 0 0 1 -0.045,-0.0713 0.97505252,0.97505252 0 0 1 -0.0388,-0.0749 0.97505252,0.97505252 0 0 1 -0.0164,-0.0382 0.97505252,0.97505252 0 0 1 -0.003,-0.009 0.97505252,0.97505252 0 0 1 -0.0119,-0.031 0.97505252,0.97505252 0 0 1 -0.0201,-0.0631 0.97505252,0.97505252 0 0 1 -0.005,-0.0175 0.97505252,0.97505252 0 0 1 -0.005,-0.0206 0.97505252,0.97505252 0 0 1 -0.008,-0.0362 0.97505252,0.97505252 0 0 1 -0.0185,-0.16949 z" />
    <path
       id="path2154-1"
       style="display:inline;fill:#a02c5a;stroke:#0000ff;stroke-width:0.0499986;stroke-miterlimit:4;stroke-dasharray:none"
       d="m 311.03823,-180.05585 v 4.95006 0.15039 h -19.95019 v 44.84947 h 64.95002 v -44.84997 h -19.94969 v -0.14989 -4.95006 z m -15.02492,25.70022 a 1.7250233,1.7250234 0 0 1 1.72495,1.72498 1.7250233,1.7250234 0 0 1 -1.72495,1.72495 1.7250233,1.7250234 0 0 1 -1.72495,-1.72495 1.7250233,1.7250234 0 0 1 1.72495,-1.72498 z m 55.09998,0 a 1.7250233,1.7250234 0 0 1 1.72498,1.72498 1.7250233,1.7250234 0 0 1 -1.72498,1.72495 1.7250233,1.7250234 0 0 1 -1.72495,-1.72495 1.7250233,1.7250234 0 0 1 1.72495,-1.72498 z m -40.02495,14.20016 h 24.94992 v 5.15009 h -24.94992 z" />
    <path
       id="path2177-7"
       style="display:inline;fill:#a02c5a;stroke:#0000ff;stroke-width:0.0499946;stroke-miterlimit:4;stroke-dasharray:none"
       d="m 325.87606,-50.98871 h -4.95009 -0.14986 V -70.9384 h -4.75009 v 19.94969 h -0.14986 -4.95009 v 25.05014 h 4.95009 0.14986 v 19.9502004 h 4.75009 V -25.93857 h 0.14986 4.95009 z" />
    <path
       id="path2021-7"
       style="display:inline;fill:#a02c5a;fill-opacity:1;stroke:#0000ff;stroke-width:0.0500002;stroke-linejoin:miter;stroke-miterlimit:4;stroke-dasharray:none"
       d="m 390.38877,-212.85686 v 4.95008 0.15038 h -4.41214 v 34.84697 h 4.95009 0.14986 v 0.17157 13.44103 6.50917 h -0.14986 -4.95009 v 39.94226 h 4.94286 0.14986 v 19.992583 4.58783 15.36237 h -0.14986 -4.94286 v 39.93142 h 4.95009 0.14986 v 5.45703 5.82806 8.83668 h -0.14986 -4.95009 v 34.84282 h 4.41214 v 0.14986 4.95009 h 4.95008 v -4.95009 -0.14986 h 4.41214 V -207.75692 h -4.41214 v -0.14986 -4.95008 z" />
    <path
       id="path2081-4-2-2-6"
       style="display:inline;fill:#a02c5a;fill-opacity:1;stroke:#0000ff;stroke-width:0.049938;stroke-linejoin:miter;stroke-miterlimit:4;stroke-dasharray:none"
       d="m 321.13387,-238.91558 h -29.95011 v -4.94957 -0.14986 h -5.09994 v -5.3e-4 h -14.95 v 0.14986 4.95009 h -29.95011 v -4.95009 -0.14986 h -25.09975 -4.79918 -10.15081 v 0.14986 4.95009 h -29.95476 v -4.95009 -0.14986 h -5.0953 -9.8547 -5.09529 v 0.14986 4.95009 h -29.95527 v -4.95009 -0.14986 h -9.92341 v -32.25126 h 9.92547 v -0.14986 -4.94957 h 30.04986 v 4.94957 0.14986 h 5.0002 9.94979 5.0002 v -0.14986 -4.94957 h 29.99972 v 4.94957 0.14986 h 17.42529 v 16.10032 h 5.15007 v -16.10031 h 12.13259 v -0.14986 -4.79505 l 5.2896,-2.17868 -0.0574,-0.13849 -1.88722,-4.57595 27.68926,-11.41688 1.88671,4.57647 0.0574,0.13849 13.82293,-5.69319 -0.003,-0.007 4.71599,-1.94252 -0.0574,-0.13849 -1.8867,-4.57647 5.71231,-2.34662 21.97592,-9.07025 1.88722,4.57647 h 5.3e-4 l 0.0568,0.13849 14.77739,-6.08645 1.28984,-0.003 v 75.94055 H 321.1339 c -7e-5,1.69988 -3e-5,3.39976 -3e-5,5.09964 z m -9.10383,-14.75622 v -29.95009 h -29.9496 v 29.95011 z m -159.7241,3.50573 v -19.94968 h -29.95008 v 19.94968 z"
       sodipodi:nodetypes="cccccccccccccccccccccccccccccccccccccccccccccccccccccccccccccccccccccccccccccccccc" />
    <path
       id="rect4636-8-6-8-3-5-5-2-8-6-1-9-2"
       style="display:inline;fill:#a02c5a;fill-opacity:1;stroke:#0000ff;stroke-width:0.0501134;stroke-linejoin:miter;stroke-miterlimit:4;stroke-dasharray:none"
       d="m 398.05273,69.480394 h -4.95009 -0.14986 v -9.95186 h -32.25023 v 9.95031 h -0.14986 -4.95009 v 29.99714 h 4.95009 0.14986 v 6.106586 7.737 6.10661 h -0.14986 -4.95009 v 30.10463 h 4.95009 0.14986 v 17.37463 h 16.09979 v 5.15009 h -16.09979 v 17.42527 h -0.14986 -4.95009 v 29.99973 h 4.95009 0.14986 v 6.10608 7.73753 6.10608 h -0.14986 -4.95009 v 30.05037 h 4.95009 0.14986 v 9.95185 h 32.25023 v -10.0025 h 0.14986 l 4.95009,5e-4 v -29.95009 h -4.95009 -0.14986 v -6.20686 -7.63675 -6.20686 h 0.14986 4.95009 v -29.94805 h -4.95009 -0.14986 v -12.58216 -1.26143 -26.20822 h 0.14986 l 4.95009,5e-4 v -29.95009 h -4.95009 -0.14986 v -6.20633 -7.63727 -6.206326 h 0.14986 4.95009 z m -8.74986,4.99453 v 19.9502 h -24.94989 v -19.9502 z m 0,169.951886 v 19.9502 h -24.94989 v -19.9502 z" />
    <path
       id="path2481-1-3-2-4-0-7"
       style="display:inline;fill:#a02c5a;fill-opacity:1;stroke:#0000ff;stroke-width:0.0574926;stroke-linejoin:miter;stroke-miterlimit:4;stroke-dasharray:none"
       d="m 271.75166,42.934325 v 4.94956 0.14987 h -12.14602 v 24.85068 h 4.94956 0.14986 v 7.45019 32.599555 h -0.14986 -4.95009 v 29.94959 l 4.95009,5.3e-4 h 0.14986 v 7.45019 25.14937 7.45019 h -0.14986 -4.95009 v 29.9496 h 4.95009 0.14986 v 7.4507 25.14886 7.45072 h -0.14986 -4.95009 v 24.85017 h 12.14604 v 0.14986 4.95009 h 23.16136 v -4.94959 -0.14986 h 12.14295 V 162.09552 L 350.4988,56.710225 h 4.95009 v -4.41368 h -4.95009 -0.14986 v -2.14923 -0.15554 -2.64532 h 0.14986 4.95009 v -4.41213 h -4.94906 -8.13334 v 4.95008 0.14986 h -1.17616 -9.79373 -1.17616 v -0.14986 -4.95008 h -23.16032 v 4.95008 0.14986 h -1.17721 -10.96987 v -0.14986 -4.95008 z m 4.69222,16.98036 a 2.3999997,2.3999997 0 0 1 0.0175,0 2.3999997,2.3999997 0 0 1 2.39985,2.39985 2.3999997,2.3999997 0 0 1 -2.39985,2.39985 2.3999997,2.3999997 0 0 1 -2.39985,-2.39985 2.3999997,2.3999997 0 0 1 2.38229,-2.39985 z m 39.15524,0 a 2.3999997,2.3999997 0 0 1 0.0175,0 2.3999997,2.3999997 0 0 1 2.39985,2.39985 2.3999997,2.3999997 0 0 1 -2.39985,2.39985 2.3999997,2.3999997 0 0 1 -2.39985,-2.39985 2.3999997,2.3999997 0 0 1 2.38228,-2.39985 z m 17.98598,11.45563 4.80745,1.98179 -7.62228,18.49086 -4.80795,-1.98179 z m -15.24506,36.981195 4.80746,1.98179 -7.62228,18.49035 -4.80745,-1.98179 z m -41.89616,0.66611 a 2.3999997,2.3999997 0 0 1 0.0175,0 2.3999997,2.3999997 0 0 1 2.39985,2.39986 2.3999997,2.3999997 0 0 1 -2.39985,2.39985 2.3999997,2.3999997 0 0 1 -2.39985,-2.39985 2.3999997,2.3999997 0 0 1 2.38229,-2.39986 z m 29.10004,30.42295 4.80798,1.98076 -3.8096,9.24594 -4.80796,-1.98075 z m -8.539,18.43918 h 5.14953 v 25.00055 h -5.14953 z m -20.56104,6.76548 a 2.3999998,2.3999998 0 0 1 0.0175,0 2.3999998,2.3999998 0 0 1 2.39985,2.39986 2.3999998,2.3999998 0 0 1 -2.39985,2.39985 2.3999998,2.3999998 0 0 1 -2.39985,-2.39985 2.3999998,2.3999998 0 0 1 2.38229,-2.39986 z m 20.56413,48.29266 h 5.14231 v 39.94228 h -5.14231 z m -20.56413,49.74168 a 2.3999998,2.3999998 0 0 1 0.0175,0 2.3999998,2.3999998 0 0 1 2.39985,2.39985 2.3999998,2.3999998 0 0 1 -2.39985,2.40038 2.3999998,2.3999998 0 0 1 -2.39985,-2.40038 2.3999998,2.3999998 0 0 1 2.38229,-2.39985 z" />
    <path
       id="path2481-1-3-2-4-0-7-4"
       style="display:inline;fill:#a02c5a;fill-opacity:1;stroke:#0000ff;stroke-width:0.0574926;stroke-linejoin:miter;stroke-miterlimit:4;stroke-dasharray:none"
       d="m 15.664413,-330.64874 h 4.94957 0.14986 v -12.14603 h 24.85068 v 4.94957 0.14985 h 7.4502 32.59955 v -0.14985 -4.95009 h 29.949587 l 5.4e-4,4.95009 v 0.14985 h 7.45019 25.14937 7.45019 v -0.14985 -4.95009 h 29.9496 v 4.95009 0.14985 h 7.4507 25.14886 7.45072 v -0.14985 -4.95009 h 24.85017 v 12.14603 h 0.14986 4.95009 v 23.16136 h -4.94959 -0.14986 v 12.14295 H 134.82562 l -105.385297,43.44334 v 4.95009 h -4.41368 v -4.95009 -0.14986 h -2.14923 -0.15553 -2.64533 v 0.14986 4.95009 h -4.41213 v -4.94906 -8.13334 h 4.95009 0.14985 v -1.17615 -9.79373 -1.17616 h -0.14985 -4.95009 v -23.16032 h 4.95009 0.14985 v -1.17721 -10.96987 h -0.14985 -4.95009 z m 16.98037,4.69222 a 2.3999997,2.3999997 0 0 0 0,0.0175 2.3999997,2.3999997 0 0 0 2.39984,2.39985 2.3999997,2.3999997 0 0 0 2.39985,-2.39985 2.3999997,2.3999997 0 0 0 -2.39985,-2.39986 2.3999997,2.3999997 0 0 0 -2.39984,2.3823 z m 0,39.15524 a 2.3999997,2.3999997 0 0 0 0,0.0175 2.3999997,2.3999997 0 0 0 2.39984,2.39985 2.3999997,2.3999997 0 0 0 2.39985,-2.39985 2.3999997,2.3999997 0 0 0 -2.39985,-2.39986 2.3999997,2.3999997 0 0 0 -2.39984,2.38228 z m 11.45562,17.98598 1.98179,4.80745 18.49086,-7.62228 -1.98179,-4.80795 z m 36.9812,-15.24507 1.98179,4.80746 18.490347,-7.62228 -1.981787,-4.80745 z m 0.66611,-41.89616 a 2.3999997,2.3999997 0 0 0 0,0.0175 2.3999997,2.3999997 0 0 0 2.39986,2.39985 2.3999997,2.3999997 0 0 0 2.39985,-2.39985 2.3999997,2.3999997 0 0 0 -2.39985,-2.39985 2.3999997,2.3999997 0 0 0 -2.39986,2.38229 z m 30.422947,29.10004 1.98076,4.80798 9.24594,-3.8096 -1.98075,-4.80796 z m 18.43919,-8.539 v 5.14953 h 25.00054 v -5.14953 z m 6.76548,-20.56104 a 2.3999998,2.3999998 0 0 0 0,0.0175 2.3999998,2.3999998 0 0 0 2.39986,2.39985 2.3999998,2.3999998 0 0 0 2.39985,-2.39985 2.3999998,2.3999998 0 0 0 -2.39985,-2.39985 2.3999998,2.3999998 0 0 0 -2.39986,2.38229 z m 48.29266,20.56413 v 5.14231 h 39.94228 v -5.14231 z m 49.74168,-20.56413 a 2.3999998,2.3999998 0 0 0 0,0.0175 2.3999998,2.3999998 0 0 0 2.39985,2.39985 2.3999998,2.3999998 0 0 0 2.40038,-2.39985 2.3999998,2.3999998 0 0 0 -2.40038,-2.39985 2.3999998,2.3999998 0 0 0 -2.39985,2.38229 z" />
    <path
       id="path1961-0-0"
       style="display:inline;fill:#a02c5a;fill-opacity:1;stroke:#0000ff;stroke-width:0.0499999;stroke-linejoin:miter;stroke-miterlimit:4;stroke-dasharray:none"
       d="m 51.018856,-49.175793 v 1.19425 3.741896 0.14986 h -14.89212 -5.05809 -14.89211 v 7.997428 h -0.14986 -2.24483 -2.70526 v 12.146042 h 4.95009 0.14986 v 3.210665 16.7395257 3.21066598 h -0.14986 -4.95009 V 11.362116 h 4.94957 0.14986 v 3.210666 16.739552 3.210639 h -0.14986 -4.94957 v 12.145011 h 29.94959 v -4.949588 -0.14986 h 20.10007 14.91072 5.03948 v 0.14986 4.949588 h 29.950114 v -4.949588 -0.14986 h 20.09955 6.39909 13.55111 v 0.14986 4.949588 h 29.95011 v -4.949588 -0.14986 h 20.09955 1.90117 18.04903 v 0.14986 4.949588 h 29.95011 V 34.521941 h -4.95784 -0.14986 V 31.312334 14.57175 11.362116 h 0.14986 4.95784 V -0.78598932 h -4.95784 -0.14986 v -9.42784468 -10.522347 -3.210136 h 0.14986 4.95784 v -12.146042 h -2.04742 -2.91042 -0.15038 v -7.983485 h -34.83921 v -0.14986 -3.373437 -1.576652 h -20.12177 v 1.44436 3.505729 0.14986 h -19.99206 -3.13314 -16.81706 v -0.14986 -2.478907 -2.471182 h -39.94278 v 4.936146 0.14986 h -19.992064 -4.63538 -15.31483 v -0.14986 -4.770782 -0.165364 z M 40.376606,10.70169 h 7.95042 v 3.382221 h 4.99969 v 3.930518 h -17.9498 v 4.522708 3.930517 0.799942 h -9.45007 V 16.317894 h 9.45007 v -2.233983 h 4.99969 z m 0.99994,20.916555 h 25.05015 v 5.150591 h -25.05015 z" />
  </g>
</svg>
