%TF.GenerationSoftware,KiCad,Pcbnew,10.0.6*%
%TF.CreationDate,2026-09-23T18:16:21+08:00*%
%TF.ProjectId,Abort_Module,41626f72-745f-44d6-9f64-756c652e6b69,1.7*%
%TF.SameCoordinates,Original*%
%TF.FileFunction,Legend,Bot*%
%TF.FilePolarity,Positive*%
%FSLAX46Y46*%
G04 Gerber Fmt 4.6, Leading zero omitted, Abs format (unit mm)*
G04 Created by KiCad (PCBNEW 10.0.6) date 2026-09-23 18:16:21*
%MOMM*%
%LPD*%
G01*
G04 APERTURE LIST*
%ADD10C,1.000000*%
%ADD11C,0.254000*%
%ADD12C,0.180000*%
G04 APERTURE END LIST*
D10*
X147918100Y-117500000D02*
G75*
G02*
X144081700Y-117500000I-1918200J0D01*
G01*
X144081700Y-117500000D02*
G75*
G02*
X147918100Y-117500000I1918200J0D01*
G01*
X155917800Y-117500200D02*
G75*
G02*
X152081400Y-117500200I-1918200J0D01*
G01*
X152081400Y-117500200D02*
G75*
G02*
X155917800Y-117500200I1918200J0D01*
G01*
X163918100Y-84999900D02*
G75*
G02*
X160081700Y-84999900I-1918200J0D01*
G01*
X160081700Y-84999900D02*
G75*
G02*
X163918100Y-84999900I1918200J0D01*
G01*
X163918100Y-91999900D02*
G75*
G02*
X160081700Y-91999900I-1918200J0D01*
G01*
X160081700Y-91999900D02*
G75*
G02*
X163918100Y-91999900I1918200J0D01*
G01*
D11*
X169599900Y-123599900D02*
X169601100Y-123599000D01*
X169601100Y-123599000D02*
X169601100Y-127599500D01*
X169601100Y-127599500D02*
X173848000Y-127599500D01*
X173848000Y-123601600D02*
X169599900Y-123599900D01*
X173848000Y-127599500D02*
X173848000Y-123601600D01*
D12*
X172495512Y-125379473D02*
X172798845Y-124946140D01*
X173015512Y-125379473D02*
X173015512Y-124469473D01*
X173015512Y-124469473D02*
X172668845Y-124469473D01*
X172668845Y-124469473D02*
X172582179Y-124512806D01*
X172582179Y-124512806D02*
X172538845Y-124556140D01*
X172538845Y-124556140D02*
X172495512Y-124642806D01*
X172495512Y-124642806D02*
X172495512Y-124772806D01*
X172495512Y-124772806D02*
X172538845Y-124859473D01*
X172538845Y-124859473D02*
X172582179Y-124902806D01*
X172582179Y-124902806D02*
X172668845Y-124946140D01*
X172668845Y-124946140D02*
X173015512Y-124946140D01*
X172105512Y-124902806D02*
X171802179Y-124902806D01*
X171672179Y-125379473D02*
X172105512Y-125379473D01*
X172105512Y-125379473D02*
X172105512Y-124469473D01*
X172105512Y-124469473D02*
X171672179Y-124469473D01*
X171282179Y-125379473D02*
X171282179Y-124469473D01*
X171282179Y-124469473D02*
X171065512Y-124469473D01*
X171065512Y-124469473D02*
X170935512Y-124512806D01*
X170935512Y-124512806D02*
X170848846Y-124599473D01*
X170848846Y-124599473D02*
X170805512Y-124686140D01*
X170805512Y-124686140D02*
X170762179Y-124859473D01*
X170762179Y-124859473D02*
X170762179Y-124989473D01*
X170762179Y-124989473D02*
X170805512Y-125162806D01*
X170805512Y-125162806D02*
X170848846Y-125249473D01*
X170848846Y-125249473D02*
X170935512Y-125336140D01*
X170935512Y-125336140D02*
X171065512Y-125379473D01*
X171065512Y-125379473D02*
X171282179Y-125379473D01*
X173015512Y-127129473D02*
X173015512Y-126219473D01*
X173015512Y-126219473D02*
X172798845Y-126219473D01*
X172798845Y-126219473D02*
X172668845Y-126262806D01*
X172668845Y-126262806D02*
X172582179Y-126349473D01*
X172582179Y-126349473D02*
X172538845Y-126436140D01*
X172538845Y-126436140D02*
X172495512Y-126609473D01*
X172495512Y-126609473D02*
X172495512Y-126739473D01*
X172495512Y-126739473D02*
X172538845Y-126912806D01*
X172538845Y-126912806D02*
X172582179Y-126999473D01*
X172582179Y-126999473D02*
X172668845Y-127086140D01*
X172668845Y-127086140D02*
X172798845Y-127129473D01*
X172798845Y-127129473D02*
X173015512Y-127129473D01*
X172105512Y-127042806D02*
X172062179Y-127086140D01*
X172062179Y-127086140D02*
X172105512Y-127129473D01*
X172105512Y-127129473D02*
X172148845Y-127086140D01*
X172148845Y-127086140D02*
X172105512Y-127042806D01*
X172105512Y-127042806D02*
X172105512Y-127129473D01*
X172105512Y-126566140D02*
X172062179Y-126609473D01*
X172062179Y-126609473D02*
X172105512Y-126652806D01*
X172105512Y-126652806D02*
X172148845Y-126609473D01*
X172148845Y-126609473D02*
X172105512Y-126566140D01*
X172105512Y-126566140D02*
X172105512Y-126652806D01*
X170588846Y-126522806D02*
X170588846Y-127129473D01*
X170805513Y-126176140D02*
X171022179Y-126826140D01*
X171022179Y-126826140D02*
X170458846Y-126826140D01*
M02*
