%TF.GenerationSoftware,KiCad,Pcbnew,10.0.6*%
%TF.CreationDate,2026-09-23T18:16:21+08:00*%
%TF.ProjectId,Abort_Module,41626f72-745f-44d6-9f64-756c652e6b69,1.7*%
%TF.SameCoordinates,Original*%
%TF.FileFunction,Copper,L1,Top*%
%TF.FilePolarity,Positive*%
%FSLAX46Y46*%
G04 Gerber Fmt 4.6, Leading zero omitted, Abs format (unit mm)*
G04 Created by KiCad (PCBNEW 10.0.6) date 2026-09-23 18:16:21*
%MOMM*%
%LPD*%
G01*
G04 APERTURE LIST*
%TA.AperFunction,Conductor*%
%ADD10C,0.762000*%
%TD*%
%TA.AperFunction,ComponentPad*%
%ADD11R,1.400000X1.400000*%
%TD*%
%TA.AperFunction,ComponentPad*%
%ADD12R,1.524000X1.524000*%
%TD*%
%TA.AperFunction,ComponentPad*%
%ADD13R,1.000000X0.999900*%
%TD*%
%TA.AperFunction,ComponentPad*%
%ADD14R,1.000000X1.000000*%
%TD*%
%TA.AperFunction,ComponentPad*%
%ADD15R,1.800000X1.800000*%
%TD*%
%TA.AperFunction,ComponentPad*%
%ADD16R,1.300000X1.300000*%
%TD*%
%TA.AperFunction,ViaPad*%
%ADD17C,0.609600*%
%TD*%
%TA.AperFunction,Conductor*%
%ADD18C,0.381000*%
%TD*%
%TA.AperFunction,Conductor*%
%ADD19C,0.254000*%
%TD*%
G04 APERTURE END LIST*
%TO.N,GUARD3*%
D10*
X158999900Y-127999800D02*
G75*
G02*
X140999900Y-127999800I-9000000J0D01*
G01*
X140999900Y-127999800D02*
G75*
G02*
X158999900Y-127999800I9000000J0D01*
G01*
%TD*%
D11*
%TO.P,TP_LIGHT,1*%
%TO.N,LIGHT*%
X125999700Y-88999900D03*
%TD*%
%TO.P,TP_ARMED,1*%
%TO.N,ARMED*%
X161999900Y-91999900D03*
%TD*%
D12*
%TO.P,C1,1*%
%TO.N,GND*%
X129743600Y-120249000D03*
%TO.P,C1,2*%
%TO.N,+5V*%
X129743600Y-125249000D03*
%TD*%
D13*
%TO.P,WP94,1*%
%TO.N,N/C*%
X183614300Y-122500050D03*
%TD*%
D12*
%TO.P,C-MAIN,1*%
%TO.N,+5V*%
X189210000Y-112500000D03*
%TO.P,C-MAIN,2*%
%TO.N,GND*%
X191750000Y-112500000D03*
%TD*%
D14*
%TO.P,WP85,1*%
%TO.N,N/C*%
X183614300Y-134500050D03*
%TD*%
%TO.P,WP84,1*%
%TO.N,N/C*%
X183614300Y-132500050D03*
%TD*%
D15*
%TO.P,U1,1*%
%TO.N,RESET*%
X126560500Y-117941000D03*
%TO.P,U1,2*%
%TO.N,N/C*%
X124020500Y-117941000D03*
%TO.P,U1,3*%
%TO.N,STAGE*%
X121480500Y-117941000D03*
%TO.P,U1,4*%
%TO.N,GND*%
X118940500Y-117941000D03*
%TO.P,U1,5*%
%TO.N,SDA*%
X118940500Y-125561000D03*
%TO.P,U1,6*%
%TO.N,(CLOCK(Y))*%
X121480500Y-125561000D03*
%TO.P,U1,7*%
%TO.N,SCL*%
X124020500Y-125561000D03*
%TO.P,U1,8*%
%TO.N,+5V*%
X126560500Y-125561000D03*
%TD*%
D16*
%TO.P,WP86,1*%
%TO.N,SDA*%
X181614300Y-136499950D03*
%TD*%
D12*
%TO.P,R2,1*%
%TO.N,ARMED*%
X140588700Y-88825900D03*
%TO.P,R2,2*%
%TO.N,LIGHT*%
X130428700Y-88825900D03*
%TD*%
D11*
%TO.P,TP_STAGE,1*%
%TO.N,STAGE*%
X145999900Y-117500000D03*
%TD*%
%TO.P,WP100,1*%
%TO.N,ARMED*%
X153999700Y-117500300D03*
%TD*%
D16*
%TO.P,WP88,1*%
%TO.N,RESET*%
X181614300Y-132499950D03*
%TD*%
D14*
%TO.P,WP99,1*%
%TO.N,N/C*%
X183614300Y-136500050D03*
%TD*%
D16*
%TO.P,WP92,1*%
%TO.N,+5V*%
X181614300Y-124500050D03*
%TD*%
D14*
%TO.P,WP91,1*%
%TO.N,N/C*%
X181614300Y-126500050D03*
%TD*%
%TO.P,WP89,1*%
%TO.N,N/C*%
X181614300Y-130499950D03*
%TD*%
D13*
%TO.P,WP96,1*%
%TO.N,N/C*%
X183614300Y-126500050D03*
%TD*%
D14*
%TO.P,WP90,1*%
%TO.N,N/C*%
X181614300Y-128500050D03*
%TD*%
%TO.P,WP98,1*%
%TO.N,N/C*%
X183614300Y-130500050D03*
%TD*%
D13*
%TO.P,WP97,1*%
%TO.N,N/C*%
X183614300Y-128500050D03*
%TD*%
D12*
%TO.P,R1,1*%
%TO.N,STAGE*%
X145911300Y-112173900D03*
%TO.P,R1,2*%
%TO.N,GND*%
X156071300Y-112173900D03*
%TD*%
D11*
%TO.P,TP_+5V,1*%
%TO.N,+5V*%
X161999900Y-84999900D03*
%TD*%
D16*
%TO.P,WP93,1*%
%TO.N,GND*%
X181614300Y-122500050D03*
%TD*%
%TO.P,WP87,1*%
%TO.N,SCL*%
X181614300Y-134499950D03*
%TD*%
D11*
%TO.P,TP_GND,1*%
%TO.N,GND*%
X123000000Y-88999900D03*
%TD*%
D13*
%TO.P,WP95,1*%
%TO.N,N/C*%
X183614300Y-124500050D03*
%TD*%
D17*
%TO.N,RESET*%
X129999900Y-136500000D03*
%TO.N,GUARD3*%
X140999900Y-127999800D03*
%TO.N,GUARD1*%
X100499900Y-104999900D03*
X100499900Y-95002500D03*
%TO.N,GUARD2*%
X199499400Y-95001200D03*
X199499400Y-104998900D03*
%TD*%
%TO.N,LIGHT*%
D18*
X126173700Y-88825900D02*
X125999700Y-88999900D01*
X130428700Y-88825900D02*
X126173700Y-88825900D01*
%TO.N,ARMED*%
X154000400Y-107500500D02*
X161998900Y-99499500D01*
X161998900Y-91998900D02*
X160500300Y-90500300D01*
X161998900Y-99499500D02*
X161998900Y-91998900D01*
X142263100Y-90500300D02*
X140589200Y-88826400D01*
X160500300Y-90500300D02*
X142263100Y-90500300D01*
X154000400Y-117500500D02*
X154000400Y-107500500D01*
%TO.N,RESET*%
D19*
X131998900Y-138501200D02*
X129999900Y-136499700D01*
X172999600Y-138501200D02*
X131998900Y-138501200D01*
X181615300Y-132498750D02*
X181221600Y-132498750D01*
X172999600Y-138501200D02*
X179000850Y-132499950D01*
X179000850Y-132499950D02*
X181614300Y-132499950D01*
%TO.N,STAGE*%
X141499900Y-117499800D02*
X145999900Y-117499800D01*
X121480400Y-116019200D02*
X123499900Y-113999800D01*
X123499900Y-113999800D02*
X138000000Y-113999800D01*
X146000000Y-117499900D02*
X146000000Y-112262500D01*
X146000000Y-112262500D02*
X145911100Y-112173800D01*
X138000000Y-113999800D02*
X141499900Y-117499800D01*
X121480400Y-117940900D02*
X121480400Y-116019200D01*
%TO.N,SDA*%
X123251200Y-133251000D02*
X118940800Y-128940700D01*
X118940800Y-128940700D02*
X118940800Y-125559900D01*
X129499600Y-139499400D02*
X123251200Y-133251000D01*
X176393000Y-139499400D02*
X179392450Y-136499950D01*
X179392450Y-136499950D02*
X181614300Y-136499950D01*
X176393000Y-139499400D02*
X129499600Y-139499400D01*
%TO.N,SCL*%
X181614200Y-134499850D02*
X181221800Y-134499850D01*
X129770000Y-138999700D02*
X125769900Y-134999700D01*
X124020400Y-133250200D02*
X124020400Y-125560900D01*
X125769900Y-134999700D02*
X124020400Y-133250200D01*
X178999550Y-134499950D02*
X181614300Y-134499950D01*
X174499800Y-138999700D02*
X129770000Y-138999700D01*
X174499800Y-138999700D02*
X178999550Y-134499950D01*
%TO.N,GUARD1*%
D10*
X103001800Y-95002500D02*
X100500000Y-95002500D01*
X102999300Y-105000000D02*
X105498600Y-102500600D01*
X105498600Y-97499300D02*
X103001800Y-95002500D01*
X105498600Y-102500600D02*
X105498600Y-97499300D01*
X100500000Y-105000000D02*
X102999300Y-105000000D01*
%TO.N,GUARD2*%
X196997500Y-95001200D02*
X199499300Y-95001200D01*
X199499300Y-104998700D02*
X197000000Y-104998700D01*
X197000000Y-104998700D02*
X194500700Y-102499400D01*
X194500700Y-102499400D02*
X194500700Y-97498100D01*
X194500700Y-97498100D02*
X196997500Y-95001200D01*
%TD*%
%TA.AperFunction,Conductor*%
%TO.N,+5V*%
G36*
X189808418Y-50553502D02*
G01*
X189829392Y-50570404D01*
X199226292Y-59967209D01*
X199462495Y-60203409D01*
X199496520Y-60265721D01*
X199499400Y-60292505D01*
X199499400Y-94239700D01*
X199479398Y-94307821D01*
X199425742Y-94354314D01*
X199373400Y-94365700D01*
X197066310Y-94365700D01*
X197066289Y-94365699D01*
X197060078Y-94365699D01*
X196997487Y-94365700D01*
X196934902Y-94365700D01*
X196934899Y-94365700D01*
X196934896Y-94365701D01*
X196928366Y-94367000D01*
X196874028Y-94377808D01*
X196874029Y-94377809D01*
X196812125Y-94390123D01*
X196765624Y-94409383D01*
X196765625Y-94409384D01*
X196696484Y-94438024D01*
X196696483Y-94438025D01*
X196696469Y-94438031D01*
X196696458Y-94438038D01*
X196696455Y-94438040D01*
X196643806Y-94473218D01*
X196643807Y-94473219D01*
X196592391Y-94507575D01*
X196592389Y-94507577D01*
X196592379Y-94507585D01*
X196546318Y-94553649D01*
X196503875Y-94596092D01*
X196503872Y-94596095D01*
X196503867Y-94596099D01*
X194056785Y-97043281D01*
X194007074Y-97092992D01*
X194007059Y-97093012D01*
X193979588Y-97134124D01*
X193979589Y-97134125D01*
X193979588Y-97134127D01*
X193937527Y-97197078D01*
X193937523Y-97197085D01*
X193937520Y-97197090D01*
X193937484Y-97197166D01*
X193937225Y-97197803D01*
X193912865Y-97256617D01*
X193912863Y-97256621D01*
X193889620Y-97312732D01*
X193889618Y-97312743D01*
X193877304Y-97374654D01*
X193877304Y-97374655D01*
X193865199Y-97435512D01*
X193865200Y-97498113D01*
X193865200Y-102561993D01*
X193872590Y-102599143D01*
X193889622Y-102684769D01*
X193937527Y-102800422D01*
X194007075Y-102904508D01*
X196594892Y-105492325D01*
X196698978Y-105561873D01*
X196814631Y-105609778D01*
X196937409Y-105634200D01*
X197062591Y-105634200D01*
X199373400Y-105634200D01*
X199441521Y-105654202D01*
X199488014Y-105707858D01*
X199499400Y-105760200D01*
X199499400Y-139773491D01*
X199479398Y-139841612D01*
X199462495Y-139862587D01*
X198759078Y-140565990D01*
X194692488Y-144632498D01*
X194692486Y-144632500D01*
X194649237Y-144675748D01*
X194599303Y-144725682D01*
X194599301Y-144725684D01*
X189829591Y-149495395D01*
X189767279Y-149529421D01*
X189740496Y-149532300D01*
X110259410Y-149532300D01*
X110191289Y-149512298D01*
X110170338Y-149495419D01*
X105351653Y-144679240D01*
X105351606Y-144679193D01*
X100537281Y-139862362D01*
X100503273Y-139800041D01*
X100500400Y-139773290D01*
X100500400Y-124635930D01*
X117786000Y-124635930D01*
X117786000Y-126486063D01*
X117786001Y-126486073D01*
X117800765Y-126560300D01*
X117857016Y-126644484D01*
X117941197Y-126700733D01*
X117941199Y-126700734D01*
X118015433Y-126715500D01*
X118433300Y-126715499D01*
X118501420Y-126735501D01*
X118547914Y-126789156D01*
X118559300Y-126841499D01*
X118559300Y-128882744D01*
X118559299Y-128882762D01*
X118559299Y-128990930D01*
X118559300Y-128990932D01*
X118585298Y-129087954D01*
X118586218Y-129089546D01*
X118586228Y-129089564D01*
X118635521Y-129174943D01*
X118635529Y-129174953D01*
X118710941Y-129250365D01*
X118710963Y-129250385D01*
X121056083Y-131595450D01*
X122953852Y-133493175D01*
X129194324Y-139733647D01*
X129265353Y-139804676D01*
X129265354Y-139804677D01*
X129265356Y-139804678D01*
X129352341Y-139854899D01*
X129352343Y-139854899D01*
X129352346Y-139854901D01*
X129449375Y-139880900D01*
X129449377Y-139880900D01*
X176443223Y-139880900D01*
X176443225Y-139880900D01*
X176540254Y-139854901D01*
X176540257Y-139854899D01*
X176540258Y-139854899D01*
X176591244Y-139825462D01*
X176627247Y-139804676D01*
X176698276Y-139733647D01*
X179513568Y-136918355D01*
X179575880Y-136884329D01*
X179602663Y-136881450D01*
X180583801Y-136881450D01*
X180651922Y-136901452D01*
X180698415Y-136955108D01*
X180709801Y-137007450D01*
X180709801Y-137175022D01*
X180724565Y-137249250D01*
X180780816Y-137333434D01*
X180864997Y-137389683D01*
X180864999Y-137389684D01*
X180939233Y-137404450D01*
X182289366Y-137404449D01*
X182289369Y-137404448D01*
X182289373Y-137404448D01*
X182338626Y-137394651D01*
X182363601Y-137389684D01*
X182447784Y-137333434D01*
X182504034Y-137249251D01*
X182518800Y-137175017D01*
X182518799Y-135974980D01*
X182859800Y-135974980D01*
X182859800Y-137025113D01*
X182859801Y-137025123D01*
X182874565Y-137099350D01*
X182930816Y-137183534D01*
X183014997Y-137239783D01*
X183014999Y-137239784D01*
X183089233Y-137254550D01*
X184139366Y-137254549D01*
X184139369Y-137254548D01*
X184139373Y-137254548D01*
X184188626Y-137244751D01*
X184213601Y-137239784D01*
X184297784Y-137183534D01*
X184354034Y-137099351D01*
X184368800Y-137025117D01*
X184368799Y-135974984D01*
X184368798Y-135974980D01*
X184368798Y-135974976D01*
X184354034Y-135900749D01*
X184306435Y-135829513D01*
X184297784Y-135816566D01*
X184297783Y-135816565D01*
X184213602Y-135760316D01*
X184139367Y-135745550D01*
X183089236Y-135745550D01*
X183089226Y-135745551D01*
X183014999Y-135760315D01*
X182930815Y-135816566D01*
X182874566Y-135900747D01*
X182859800Y-135974980D01*
X182518799Y-135974980D01*
X182518799Y-135824884D01*
X182518798Y-135824880D01*
X182518798Y-135824876D01*
X182504034Y-135750649D01*
X182500627Y-135745550D01*
X182447784Y-135666466D01*
X182447783Y-135666465D01*
X182355367Y-135604713D01*
X182309840Y-135550236D01*
X182300993Y-135479793D01*
X182331634Y-135415749D01*
X182355368Y-135395184D01*
X182363598Y-135389684D01*
X182363601Y-135389684D01*
X182447784Y-135333434D01*
X182504034Y-135249251D01*
X182518800Y-135175017D01*
X182518799Y-133974980D01*
X182859800Y-133974980D01*
X182859800Y-135025113D01*
X182859801Y-135025123D01*
X182874565Y-135099350D01*
X182930816Y-135183534D01*
X183014997Y-135239783D01*
X183014999Y-135239784D01*
X183089233Y-135254550D01*
X184139366Y-135254549D01*
X184139369Y-135254548D01*
X184139373Y-135254548D01*
X184188626Y-135244751D01*
X184213601Y-135239784D01*
X184297784Y-135183534D01*
X184354034Y-135099351D01*
X184368800Y-135025117D01*
X184368799Y-133974984D01*
X184368798Y-133974980D01*
X184368798Y-133974976D01*
X184354034Y-133900749D01*
X184303339Y-133824880D01*
X184297784Y-133816566D01*
X184297783Y-133816565D01*
X184213602Y-133760316D01*
X184139367Y-133745550D01*
X183089236Y-133745550D01*
X183089226Y-133745551D01*
X183014999Y-133760315D01*
X182930815Y-133816566D01*
X182874566Y-133900747D01*
X182859800Y-133974980D01*
X182518799Y-133974980D01*
X182518799Y-133824884D01*
X182518798Y-133824880D01*
X182518798Y-133824876D01*
X182504034Y-133750649D01*
X182452241Y-133673136D01*
X182447784Y-133666466D01*
X182447783Y-133666465D01*
X182355367Y-133604713D01*
X182309840Y-133550236D01*
X182300993Y-133479793D01*
X182331634Y-133415749D01*
X182355368Y-133395184D01*
X182363598Y-133389684D01*
X182363601Y-133389684D01*
X182447784Y-133333434D01*
X182504034Y-133249251D01*
X182518800Y-133175017D01*
X182518799Y-131974980D01*
X182859800Y-131974980D01*
X182859800Y-133025113D01*
X182859801Y-133025123D01*
X182874565Y-133099350D01*
X182930816Y-133183534D01*
X183014997Y-133239783D01*
X183014999Y-133239784D01*
X183089233Y-133254550D01*
X184139366Y-133254549D01*
X184139369Y-133254548D01*
X184139373Y-133254548D01*
X184188626Y-133244751D01*
X184213601Y-133239784D01*
X184297784Y-133183534D01*
X184354034Y-133099351D01*
X184368800Y-133025117D01*
X184368799Y-131974984D01*
X184368798Y-131974980D01*
X184368798Y-131974976D01*
X184354034Y-131900749D01*
X184303339Y-131824880D01*
X184297784Y-131816566D01*
X184297783Y-131816565D01*
X184213602Y-131760316D01*
X184139367Y-131745550D01*
X183089236Y-131745550D01*
X183089226Y-131745551D01*
X183014999Y-131760315D01*
X182930815Y-131816566D01*
X182874566Y-131900747D01*
X182859800Y-131974980D01*
X182518799Y-131974980D01*
X182518799Y-131824884D01*
X182518798Y-131824880D01*
X182518798Y-131824876D01*
X182504034Y-131750649D01*
X182500627Y-131745550D01*
X182447784Y-131666466D01*
X182370818Y-131615038D01*
X182363602Y-131610216D01*
X182289367Y-131595450D01*
X180939236Y-131595450D01*
X180939226Y-131595451D01*
X180864999Y-131610215D01*
X180780815Y-131666466D01*
X180724566Y-131750647D01*
X180709800Y-131824880D01*
X180709800Y-131992450D01*
X180689798Y-132060571D01*
X180636142Y-132107064D01*
X180583800Y-132118450D01*
X178950625Y-132118450D01*
X178891240Y-132134362D01*
X178853591Y-132144450D01*
X178766606Y-132194671D01*
X178766596Y-132194679D01*
X172878482Y-138082795D01*
X172816170Y-138116821D01*
X172789387Y-138119700D01*
X132209299Y-138119700D01*
X132141178Y-138099698D01*
X132120148Y-138082740D01*
X130596049Y-136556734D01*
X130562063Y-136494400D01*
X130559200Y-136467694D01*
X130559200Y-136426368D01*
X130541369Y-136359822D01*
X130521084Y-136284118D01*
X130469446Y-136194679D01*
X130447453Y-136156585D01*
X130447445Y-136156575D01*
X130343324Y-136052454D01*
X130343314Y-136052446D01*
X130215782Y-135978816D01*
X130201451Y-135974976D01*
X130073533Y-135940700D01*
X129926267Y-135940700D01*
X129831434Y-135966110D01*
X129784017Y-135978816D01*
X129656485Y-136052446D01*
X129656475Y-136052454D01*
X129552354Y-136156575D01*
X129552346Y-136156585D01*
X129478716Y-136284117D01*
X129440600Y-136426368D01*
X129440600Y-136573631D01*
X129440599Y-136573631D01*
X129478716Y-136715882D01*
X129552346Y-136843414D01*
X129552354Y-136843424D01*
X129656475Y-136947545D01*
X129656480Y-136947549D01*
X129656482Y-136947551D01*
X129784018Y-137021184D01*
X129926267Y-137059300D01*
X129967378Y-137059300D01*
X130035499Y-137079302D01*
X130056528Y-137096259D01*
X131075815Y-138116821D01*
X131361797Y-138403160D01*
X131395783Y-138465494D01*
X131390674Y-138536306D01*
X131348092Y-138593115D01*
X131281556Y-138617885D01*
X131272646Y-138618200D01*
X129980210Y-138618200D01*
X129912089Y-138598198D01*
X129891116Y-138581297D01*
X129426628Y-138116821D01*
X126037212Y-134727489D01*
X126037212Y-134727488D01*
X126037210Y-134727487D01*
X124438805Y-133129082D01*
X124404779Y-133066770D01*
X124401900Y-133039987D01*
X124401900Y-127708644D01*
X140364400Y-127708644D01*
X140364400Y-128290955D01*
X140399559Y-128872210D01*
X140469746Y-129450251D01*
X140469747Y-129450258D01*
X140565906Y-129974983D01*
X140574712Y-130023032D01*
X140673520Y-130423910D01*
X140714069Y-130588424D01*
X140887306Y-131144363D01*
X141093796Y-131688831D01*
X141093802Y-131688844D01*
X141332777Y-132219826D01*
X141332796Y-132219865D01*
X141603392Y-132735442D01*
X141904639Y-133233765D01*
X141904647Y-133233778D01*
X142235424Y-133712992D01*
X142323086Y-133824884D01*
X142594554Y-134171386D01*
X142594558Y-134171391D01*
X142594560Y-134171393D01*
X142594561Y-134171394D01*
X142980688Y-134607243D01*
X142980709Y-134607265D01*
X143392434Y-135018990D01*
X143392456Y-135019011D01*
X143747368Y-135333434D01*
X143828314Y-135405146D01*
X144161862Y-135666465D01*
X144286707Y-135764275D01*
X144704200Y-136052449D01*
X144765927Y-136095056D01*
X144847633Y-136144449D01*
X145264257Y-136396307D01*
X145779834Y-136666903D01*
X145779853Y-136666912D01*
X145779864Y-136666918D01*
X145779873Y-136666922D01*
X146310855Y-136905897D01*
X146310868Y-136905903D01*
X146420690Y-136947553D01*
X146855338Y-137112394D01*
X147411280Y-137285632D01*
X147976668Y-137424988D01*
X148549438Y-137529952D01*
X148774644Y-137557296D01*
X149127489Y-137600140D01*
X149127494Y-137600140D01*
X149127500Y-137600141D01*
X149619758Y-137629917D01*
X149708745Y-137635300D01*
X149708746Y-137635300D01*
X150291055Y-137635300D01*
X150368227Y-137630631D01*
X150872300Y-137600141D01*
X150872306Y-137600140D01*
X150872310Y-137600140D01*
X151097506Y-137572796D01*
X151450362Y-137529952D01*
X152023132Y-137424988D01*
X152588520Y-137285632D01*
X153144462Y-137112394D01*
X153688929Y-136905904D01*
X154219936Y-136666918D01*
X154397680Y-136573631D01*
X154735542Y-136396307D01*
X154795896Y-136359822D01*
X155233873Y-136095056D01*
X155622785Y-135826609D01*
X155713092Y-135764275D01*
X155713096Y-135764271D01*
X155713103Y-135764267D01*
X156171486Y-135405146D01*
X156607350Y-135019005D01*
X157019105Y-134607250D01*
X157405246Y-134171386D01*
X157764367Y-133713003D01*
X157791886Y-133673136D01*
X157905282Y-133508851D01*
X158095156Y-133233773D01*
X158396406Y-132735444D01*
X158564343Y-132415467D01*
X158667003Y-132219865D01*
X158667005Y-132219859D01*
X158667018Y-132219836D01*
X158906004Y-131688829D01*
X159112494Y-131144362D01*
X159285732Y-130588420D01*
X159425088Y-130023032D01*
X159433912Y-129974880D01*
X180859800Y-129974880D01*
X180859800Y-131025013D01*
X180859801Y-131025023D01*
X180874565Y-131099250D01*
X180930816Y-131183434D01*
X181014997Y-131239683D01*
X181014999Y-131239684D01*
X181089233Y-131254450D01*
X182139366Y-131254449D01*
X182139369Y-131254448D01*
X182139373Y-131254448D01*
X182188626Y-131244651D01*
X182213601Y-131239684D01*
X182297784Y-131183434D01*
X182354034Y-131099251D01*
X182368800Y-131025017D01*
X182368799Y-129974980D01*
X182859800Y-129974980D01*
X182859800Y-131025113D01*
X182859801Y-131025123D01*
X182874565Y-131099350D01*
X182930816Y-131183534D01*
X183014997Y-131239783D01*
X183014999Y-131239784D01*
X183089233Y-131254550D01*
X184139366Y-131254549D01*
X184139369Y-131254548D01*
X184139373Y-131254548D01*
X184188626Y-131244751D01*
X184213601Y-131239784D01*
X184297784Y-131183534D01*
X184354034Y-131099351D01*
X184368800Y-131025117D01*
X184368799Y-129974984D01*
X184368798Y-129974980D01*
X184368798Y-129974976D01*
X184354034Y-129900749D01*
X184297783Y-129816565D01*
X184213602Y-129760316D01*
X184139367Y-129745550D01*
X183089236Y-129745550D01*
X183089226Y-129745551D01*
X183014999Y-129760315D01*
X182930815Y-129816566D01*
X182874566Y-129900747D01*
X182859800Y-129974980D01*
X182368799Y-129974980D01*
X182368799Y-129974884D01*
X182368798Y-129974880D01*
X182368798Y-129974876D01*
X182354034Y-129900649D01*
X182324329Y-129856193D01*
X182297784Y-129816466D01*
X182297783Y-129816465D01*
X182213602Y-129760216D01*
X182139367Y-129745450D01*
X181089236Y-129745450D01*
X181089226Y-129745451D01*
X181014999Y-129760215D01*
X180930815Y-129816466D01*
X180874566Y-129900647D01*
X180859800Y-129974880D01*
X159433912Y-129974880D01*
X159530052Y-129450262D01*
X159581679Y-129025073D01*
X159600240Y-128872210D01*
X159603172Y-128823751D01*
X159635400Y-128290954D01*
X159635400Y-127974980D01*
X180859800Y-127974980D01*
X180859800Y-129025113D01*
X180859801Y-129025123D01*
X180874565Y-129099350D01*
X180930816Y-129183534D01*
X181014997Y-129239783D01*
X181014999Y-129239784D01*
X181089233Y-129254550D01*
X182139366Y-129254549D01*
X182139369Y-129254548D01*
X182139373Y-129254548D01*
X182188626Y-129244751D01*
X182213601Y-129239784D01*
X182297784Y-129183534D01*
X182354034Y-129099351D01*
X182368800Y-129025117D01*
X182368799Y-127975030D01*
X182859800Y-127975030D01*
X182859800Y-129025063D01*
X182859801Y-129025073D01*
X182874565Y-129099300D01*
X182930816Y-129183484D01*
X183014997Y-129239733D01*
X183014999Y-129239734D01*
X183089233Y-129254500D01*
X184139366Y-129254499D01*
X184139369Y-129254498D01*
X184139373Y-129254498D01*
X184188626Y-129244701D01*
X184213601Y-129239734D01*
X184297784Y-129183484D01*
X184354034Y-129099301D01*
X184368800Y-129025067D01*
X184368799Y-127975034D01*
X184368798Y-127975030D01*
X184368798Y-127975026D01*
X184354034Y-127900799D01*
X184297783Y-127816615D01*
X184213602Y-127760366D01*
X184139367Y-127745600D01*
X183089236Y-127745600D01*
X183089226Y-127745601D01*
X183014999Y-127760365D01*
X182930815Y-127816616D01*
X182874566Y-127900797D01*
X182859800Y-127975030D01*
X182368799Y-127975030D01*
X182368799Y-127974984D01*
X182368798Y-127974980D01*
X182368798Y-127974976D01*
X182354034Y-127900749D01*
X182297817Y-127816616D01*
X182297784Y-127816566D01*
X182297783Y-127816565D01*
X182213602Y-127760316D01*
X182139367Y-127745550D01*
X181089236Y-127745550D01*
X181089226Y-127745551D01*
X181014999Y-127760315D01*
X180930815Y-127816566D01*
X180874566Y-127900747D01*
X180859800Y-127974980D01*
X159635400Y-127974980D01*
X159635400Y-127708646D01*
X159600241Y-127127400D01*
X159596835Y-127099352D01*
X159548435Y-126700734D01*
X159530052Y-126549338D01*
X159425088Y-125976568D01*
X159424697Y-125974980D01*
X180859800Y-125974980D01*
X180859800Y-127025113D01*
X180859801Y-127025123D01*
X180874565Y-127099350D01*
X180930816Y-127183534D01*
X181014997Y-127239783D01*
X181014999Y-127239784D01*
X181089233Y-127254550D01*
X182139366Y-127254549D01*
X182139369Y-127254548D01*
X182139373Y-127254548D01*
X182206989Y-127241099D01*
X182213601Y-127239784D01*
X182297784Y-127183534D01*
X182354034Y-127099351D01*
X182368800Y-127025117D01*
X182368799Y-125975030D01*
X182859800Y-125975030D01*
X182859800Y-127025063D01*
X182859801Y-127025073D01*
X182874565Y-127099300D01*
X182930816Y-127183484D01*
X183014997Y-127239733D01*
X183014999Y-127239734D01*
X183089233Y-127254500D01*
X184139366Y-127254499D01*
X184139369Y-127254498D01*
X184139373Y-127254498D01*
X184188626Y-127244701D01*
X184213601Y-127239734D01*
X184297784Y-127183484D01*
X184354034Y-127099301D01*
X184368800Y-127025067D01*
X184368799Y-125975034D01*
X184368798Y-125975030D01*
X184368798Y-125975026D01*
X184354034Y-125900799D01*
X184297783Y-125816615D01*
X184213602Y-125760366D01*
X184139367Y-125745600D01*
X183089236Y-125745600D01*
X183089226Y-125745601D01*
X183014999Y-125760365D01*
X182930815Y-125816616D01*
X182874566Y-125900797D01*
X182859800Y-125975030D01*
X182368799Y-125975030D01*
X182368799Y-125974984D01*
X182368798Y-125974980D01*
X182368798Y-125974976D01*
X182354034Y-125900749D01*
X182297817Y-125816616D01*
X182297784Y-125816566D01*
X182297783Y-125816565D01*
X182213602Y-125760316D01*
X182139367Y-125745550D01*
X181089236Y-125745550D01*
X181089226Y-125745551D01*
X181014999Y-125760315D01*
X180930815Y-125816566D01*
X180874566Y-125900747D01*
X180859800Y-125974980D01*
X159424697Y-125974980D01*
X159285732Y-125411180D01*
X159112494Y-124855238D01*
X158906004Y-124310771D01*
X158842819Y-124170380D01*
X158775389Y-124020555D01*
X158754900Y-123975030D01*
X182859800Y-123975030D01*
X182859800Y-125025063D01*
X182859801Y-125025073D01*
X182874565Y-125099300D01*
X182930816Y-125183484D01*
X183014997Y-125239733D01*
X183014999Y-125239734D01*
X183089233Y-125254500D01*
X184139366Y-125254499D01*
X184139369Y-125254498D01*
X184139373Y-125254498D01*
X184188626Y-125244701D01*
X184213601Y-125239734D01*
X184297784Y-125183484D01*
X184354034Y-125099301D01*
X184368800Y-125025067D01*
X184368799Y-123975034D01*
X184368798Y-123975030D01*
X184368798Y-123975026D01*
X184354034Y-123900799D01*
X184297783Y-123816615D01*
X184213602Y-123760366D01*
X184139367Y-123745600D01*
X183089236Y-123745600D01*
X183089226Y-123745601D01*
X183014999Y-123760365D01*
X182930815Y-123816616D01*
X182874566Y-123900797D01*
X182859800Y-123975030D01*
X158754900Y-123975030D01*
X158667022Y-123779773D01*
X158667003Y-123779734D01*
X158396407Y-123264157D01*
X158095160Y-122765834D01*
X158095152Y-122765821D01*
X157764375Y-122286607D01*
X157662181Y-122156167D01*
X157458743Y-121896498D01*
X157458743Y-121896497D01*
X157405252Y-121828221D01*
X157405238Y-121828205D01*
X157402381Y-121824980D01*
X180709800Y-121824980D01*
X180709800Y-123175113D01*
X180709801Y-123175123D01*
X180724565Y-123249350D01*
X180780816Y-123333534D01*
X180864997Y-123389783D01*
X180864999Y-123389784D01*
X180939233Y-123404550D01*
X182289366Y-123404549D01*
X182289369Y-123404548D01*
X182289373Y-123404548D01*
X182338626Y-123394751D01*
X182363601Y-123389784D01*
X182447784Y-123333534D01*
X182504034Y-123249351D01*
X182518800Y-123175117D01*
X182518799Y-121975030D01*
X182859800Y-121975030D01*
X182859800Y-123025063D01*
X182859801Y-123025073D01*
X182874565Y-123099300D01*
X182930816Y-123183484D01*
X183014997Y-123239733D01*
X183014999Y-123239734D01*
X183089233Y-123254500D01*
X184139366Y-123254499D01*
X184139369Y-123254498D01*
X184139373Y-123254498D01*
X184188626Y-123244701D01*
X184213601Y-123239734D01*
X184297784Y-123183484D01*
X184354034Y-123099301D01*
X184368800Y-123025067D01*
X184368799Y-121975034D01*
X184368798Y-121975030D01*
X184368798Y-121975026D01*
X184354034Y-121900799D01*
X184305538Y-121828221D01*
X184297784Y-121816616D01*
X184297783Y-121816615D01*
X184213602Y-121760366D01*
X184139367Y-121745600D01*
X183089236Y-121745600D01*
X183089226Y-121745601D01*
X183014999Y-121760365D01*
X182930815Y-121816616D01*
X182874566Y-121900797D01*
X182859800Y-121975030D01*
X182518799Y-121975030D01*
X182518799Y-121824984D01*
X182518798Y-121824980D01*
X182518798Y-121824976D01*
X182504034Y-121750749D01*
X182500594Y-121745601D01*
X182447784Y-121666566D01*
X182447783Y-121666565D01*
X182363602Y-121610316D01*
X182289367Y-121595550D01*
X180939236Y-121595550D01*
X180939226Y-121595551D01*
X180864999Y-121610315D01*
X180780815Y-121666566D01*
X180724566Y-121750747D01*
X180709800Y-121824980D01*
X157402381Y-121824980D01*
X157019111Y-121392356D01*
X157019090Y-121392334D01*
X156607365Y-120980609D01*
X156607343Y-120980588D01*
X156171494Y-120594461D01*
X156171493Y-120594460D01*
X156171491Y-120594458D01*
X156171486Y-120594454D01*
X155713103Y-120235333D01*
X155713092Y-120235324D01*
X155233878Y-119904547D01*
X155233865Y-119904539D01*
X154735542Y-119603292D01*
X154219965Y-119332696D01*
X154219926Y-119332677D01*
X153688944Y-119093702D01*
X153688931Y-119093696D01*
X153144463Y-118887206D01*
X152588524Y-118713969D01*
X152588520Y-118713968D01*
X152023132Y-118574612D01*
X152023128Y-118574611D01*
X152023123Y-118574610D01*
X151450358Y-118469647D01*
X151450351Y-118469646D01*
X150872310Y-118399459D01*
X150291055Y-118364300D01*
X150291054Y-118364300D01*
X149708746Y-118364300D01*
X149708745Y-118364300D01*
X149127489Y-118399459D01*
X148549448Y-118469646D01*
X148549441Y-118469647D01*
X147976676Y-118574610D01*
X147411275Y-118713969D01*
X146855336Y-118887206D01*
X146310868Y-119093696D01*
X146310855Y-119093702D01*
X145779873Y-119332677D01*
X145779834Y-119332696D01*
X145264257Y-119603292D01*
X144765934Y-119904539D01*
X144765921Y-119904547D01*
X144286707Y-120235324D01*
X143828306Y-120594460D01*
X143828305Y-120594461D01*
X143392456Y-120980588D01*
X143392434Y-120980609D01*
X142980709Y-121392334D01*
X142980688Y-121392356D01*
X142594561Y-121828205D01*
X142594560Y-121828206D01*
X142235424Y-122286607D01*
X141904647Y-122765821D01*
X141904639Y-122765834D01*
X141603392Y-123264157D01*
X141332796Y-123779734D01*
X141332777Y-123779773D01*
X141093802Y-124310755D01*
X141093796Y-124310768D01*
X140887306Y-124855236D01*
X140714069Y-125411175D01*
X140574710Y-125976576D01*
X140469747Y-126549341D01*
X140469746Y-126549348D01*
X140399559Y-127127389D01*
X140364400Y-127708644D01*
X124401900Y-127708644D01*
X124401900Y-126841499D01*
X124421902Y-126773378D01*
X124475558Y-126726885D01*
X124527900Y-126715499D01*
X124945564Y-126715499D01*
X124945566Y-126715499D01*
X124945569Y-126715498D01*
X124945572Y-126715498D01*
X124982163Y-126708219D01*
X125019801Y-126700734D01*
X125103984Y-126644484D01*
X125160234Y-126560301D01*
X125175000Y-126486067D01*
X125174999Y-124635934D01*
X125174998Y-124635930D01*
X125174998Y-124635926D01*
X125160234Y-124561699D01*
X125103983Y-124477515D01*
X125019802Y-124421266D01*
X124945567Y-124406500D01*
X123095436Y-124406500D01*
X123095426Y-124406501D01*
X123021199Y-124421265D01*
X122937015Y-124477516D01*
X122880766Y-124561696D01*
X122874078Y-124595319D01*
X122841169Y-124658229D01*
X122779473Y-124693359D01*
X122708579Y-124689558D01*
X122650993Y-124648032D01*
X122626920Y-124595315D01*
X122620234Y-124561699D01*
X122563983Y-124477515D01*
X122479802Y-124421266D01*
X122405567Y-124406500D01*
X120555436Y-124406500D01*
X120555426Y-124406501D01*
X120481199Y-124421265D01*
X120397015Y-124477516D01*
X120340766Y-124561696D01*
X120334078Y-124595319D01*
X120301169Y-124658229D01*
X120239473Y-124693359D01*
X120168579Y-124689558D01*
X120110993Y-124648032D01*
X120086920Y-124595315D01*
X120080234Y-124561699D01*
X120023983Y-124477515D01*
X119939802Y-124421266D01*
X119865567Y-124406500D01*
X118015436Y-124406500D01*
X118015426Y-124406501D01*
X117941199Y-124421265D01*
X117857015Y-124477516D01*
X117800766Y-124561697D01*
X117786000Y-124635930D01*
X100500400Y-124635930D01*
X100500400Y-119461930D01*
X128727100Y-119461930D01*
X128727100Y-121036063D01*
X128727101Y-121036073D01*
X128741865Y-121110300D01*
X128798116Y-121194484D01*
X128882297Y-121250733D01*
X128882299Y-121250734D01*
X128956533Y-121265500D01*
X130530666Y-121265499D01*
X130530669Y-121265498D01*
X130530673Y-121265498D01*
X130579926Y-121255701D01*
X130604901Y-121250734D01*
X130689084Y-121194484D01*
X130745334Y-121110301D01*
X130760100Y-121036067D01*
X130760099Y-119461934D01*
X130760098Y-119461930D01*
X130760098Y-119461926D01*
X130745334Y-119387699D01*
X130745333Y-119387697D01*
X130689084Y-119303516D01*
X130689083Y-119303515D01*
X130604902Y-119247266D01*
X130530667Y-119232500D01*
X128956536Y-119232500D01*
X128956526Y-119232501D01*
X128882299Y-119247265D01*
X128798115Y-119303516D01*
X128741866Y-119387697D01*
X128727100Y-119461930D01*
X100500400Y-119461930D01*
X100500400Y-117015930D01*
X117786000Y-117015930D01*
X117786000Y-118866063D01*
X117786001Y-118866073D01*
X117800765Y-118940300D01*
X117857016Y-119024484D01*
X117941197Y-119080733D01*
X117941199Y-119080734D01*
X118015433Y-119095500D01*
X119865566Y-119095499D01*
X119865569Y-119095498D01*
X119865573Y-119095498D01*
X119914826Y-119085701D01*
X119939801Y-119080734D01*
X120023984Y-119024484D01*
X120080234Y-118940301D01*
X120086921Y-118906682D01*
X120119828Y-118843773D01*
X120181522Y-118808640D01*
X120252417Y-118812440D01*
X120310004Y-118853965D01*
X120334079Y-118906682D01*
X120340766Y-118940301D01*
X120397016Y-119024484D01*
X120481197Y-119080733D01*
X120481199Y-119080734D01*
X120555433Y-119095500D01*
X122405566Y-119095499D01*
X122405569Y-119095498D01*
X122405573Y-119095498D01*
X122454826Y-119085701D01*
X122479801Y-119080734D01*
X122563984Y-119024484D01*
X122620234Y-118940301D01*
X122626921Y-118906682D01*
X122659828Y-118843773D01*
X122721522Y-118808640D01*
X122792417Y-118812440D01*
X122850004Y-118853965D01*
X122874079Y-118906682D01*
X122880766Y-118940301D01*
X122937016Y-119024484D01*
X123021197Y-119080733D01*
X123021199Y-119080734D01*
X123095433Y-119095500D01*
X124945566Y-119095499D01*
X124945569Y-119095498D01*
X124945573Y-119095498D01*
X124994826Y-119085701D01*
X125019801Y-119080734D01*
X125103984Y-119024484D01*
X125160234Y-118940301D01*
X125166921Y-118906682D01*
X125199828Y-118843773D01*
X125261522Y-118808640D01*
X125332417Y-118812440D01*
X125390004Y-118853965D01*
X125414079Y-118906682D01*
X125420766Y-118940301D01*
X125477016Y-119024484D01*
X125561197Y-119080733D01*
X125561199Y-119080734D01*
X125635433Y-119095500D01*
X127485566Y-119095499D01*
X127485569Y-119095498D01*
X127485573Y-119095498D01*
X127534826Y-119085701D01*
X127559801Y-119080734D01*
X127643984Y-119024484D01*
X127700234Y-118940301D01*
X127715000Y-118866067D01*
X127714999Y-117015934D01*
X127714998Y-117015930D01*
X127714998Y-117015926D01*
X127700234Y-116941699D01*
X127643983Y-116857515D01*
X127559802Y-116801266D01*
X127485567Y-116786500D01*
X125635436Y-116786500D01*
X125635426Y-116786501D01*
X125561199Y-116801265D01*
X125477015Y-116857516D01*
X125420766Y-116941696D01*
X125414078Y-116975319D01*
X125381169Y-117038229D01*
X125319473Y-117073359D01*
X125248579Y-117069558D01*
X125190993Y-117028032D01*
X125166920Y-116975315D01*
X125160234Y-116941699D01*
X125103983Y-116857515D01*
X125019802Y-116801266D01*
X124945567Y-116786500D01*
X123095436Y-116786500D01*
X123095426Y-116786501D01*
X123021199Y-116801265D01*
X122937015Y-116857516D01*
X122880766Y-116941696D01*
X122874078Y-116975319D01*
X122841169Y-117038229D01*
X122779473Y-117073359D01*
X122708579Y-117069558D01*
X122650993Y-117028032D01*
X122626920Y-116975315D01*
X122620234Y-116941699D01*
X122563983Y-116857515D01*
X122479802Y-116801266D01*
X122405569Y-116786500D01*
X122405567Y-116786500D01*
X121987900Y-116786500D01*
X121919779Y-116766498D01*
X121873286Y-116712842D01*
X121861900Y-116660500D01*
X121861900Y-116229419D01*
X121881902Y-116161298D01*
X121898803Y-116140325D01*
X123621013Y-114418201D01*
X123683326Y-114384179D01*
X123710106Y-114381300D01*
X137789783Y-114381300D01*
X137857904Y-114401302D01*
X137878880Y-114418206D01*
X141189154Y-117728575D01*
X141189179Y-117728603D01*
X141265646Y-117805070D01*
X141265651Y-117805074D01*
X141265653Y-117805076D01*
X141310727Y-117831099D01*
X141310729Y-117831101D01*
X141352640Y-117855299D01*
X141352642Y-117855300D01*
X141449667Y-117881299D01*
X141449669Y-117881300D01*
X141449670Y-117881300D01*
X141550120Y-117881301D01*
X141550124Y-117881300D01*
X144919401Y-117881300D01*
X144987522Y-117901302D01*
X145034015Y-117954958D01*
X145045401Y-118007300D01*
X145045401Y-118225072D01*
X145060165Y-118299300D01*
X145116416Y-118383484D01*
X145200597Y-118439733D01*
X145200599Y-118439734D01*
X145274833Y-118454500D01*
X146724966Y-118454499D01*
X146724969Y-118454498D01*
X146724973Y-118454498D01*
X146774226Y-118444701D01*
X146799201Y-118439734D01*
X146883384Y-118383484D01*
X146939634Y-118299301D01*
X146954400Y-118225067D01*
X146954399Y-116774934D01*
X146954398Y-116774930D01*
X146954398Y-116774926D01*
X146939634Y-116700699D01*
X146939633Y-116700697D01*
X146883384Y-116616516D01*
X146883383Y-116616515D01*
X146799202Y-116560266D01*
X146724969Y-116545500D01*
X146724967Y-116545500D01*
X146507500Y-116545500D01*
X146439379Y-116525498D01*
X146392886Y-116471842D01*
X146381500Y-116419500D01*
X146381500Y-113316399D01*
X146401502Y-113248278D01*
X146455158Y-113201785D01*
X146507500Y-113190399D01*
X146698364Y-113190399D01*
X146698366Y-113190399D01*
X146698369Y-113190398D01*
X146698372Y-113190398D01*
X146734963Y-113183119D01*
X146772601Y-113175634D01*
X146856784Y-113119384D01*
X146913034Y-113035201D01*
X146927800Y-112960967D01*
X146927799Y-111386834D01*
X146927798Y-111386830D01*
X146927798Y-111386826D01*
X146913034Y-111312599D01*
X146856783Y-111228415D01*
X146772602Y-111172166D01*
X146698367Y-111157400D01*
X145124236Y-111157400D01*
X145124226Y-111157401D01*
X145049999Y-111172165D01*
X144965815Y-111228416D01*
X144909566Y-111312597D01*
X144894800Y-111386830D01*
X144894800Y-112960963D01*
X144894801Y-112960973D01*
X144909565Y-113035200D01*
X144965816Y-113119384D01*
X145049997Y-113175633D01*
X145049999Y-113175634D01*
X145124233Y-113190400D01*
X145492500Y-113190399D01*
X145560620Y-113210401D01*
X145607113Y-113264056D01*
X145618500Y-113316399D01*
X145618500Y-116419500D01*
X145598498Y-116487621D01*
X145544842Y-116534114D01*
X145492501Y-116545500D01*
X145274836Y-116545500D01*
X145274826Y-116545501D01*
X145200599Y-116560265D01*
X145116415Y-116616516D01*
X145060166Y-116700697D01*
X145045400Y-116774930D01*
X145045400Y-116992300D01*
X145025398Y-117060421D01*
X144971742Y-117106914D01*
X144919400Y-117118300D01*
X141710117Y-117118300D01*
X141641996Y-117098298D01*
X141621020Y-117081394D01*
X141326135Y-116786501D01*
X138923882Y-114384179D01*
X138312462Y-113772741D01*
X138312445Y-113772721D01*
X138234253Y-113694529D01*
X138234246Y-113694523D01*
X138160713Y-113652069D01*
X138160713Y-113652068D01*
X138147266Y-113644305D01*
X138147253Y-113644298D01*
X138111743Y-113634784D01*
X138111739Y-113634783D01*
X138050228Y-113618299D01*
X137942062Y-113618299D01*
X137942046Y-113618300D01*
X123516653Y-113618300D01*
X123512187Y-113618299D01*
X123449685Y-113618298D01*
X123449684Y-113618298D01*
X123449671Y-113618298D01*
X123449623Y-113618304D01*
X123448711Y-113618557D01*
X123416721Y-113627129D01*
X123416719Y-113627130D01*
X123352659Y-113644294D01*
X123352648Y-113644297D01*
X123323593Y-113661071D01*
X123303750Y-113672528D01*
X123291053Y-113679858D01*
X123265663Y-113694516D01*
X123265661Y-113694517D01*
X123265661Y-113694518D01*
X123265657Y-113694521D01*
X123265653Y-113694524D01*
X123265645Y-113694530D01*
X123225069Y-113735106D01*
X123225068Y-113735108D01*
X121248620Y-115711456D01*
X121248617Y-115711460D01*
X121246158Y-115713920D01*
X121246153Y-115713924D01*
X121195426Y-115764650D01*
X121175130Y-115784946D01*
X121175128Y-115784948D01*
X121175125Y-115784951D01*
X121175123Y-115784953D01*
X121147630Y-115832573D01*
X121124902Y-115871938D01*
X121124900Y-115871943D01*
X121124899Y-115871946D01*
X121116121Y-115904704D01*
X121116121Y-115904705D01*
X121116120Y-115904704D01*
X121098902Y-115968959D01*
X121098900Y-115968968D01*
X121098900Y-116002451D01*
X121098898Y-116078179D01*
X121098900Y-116078208D01*
X121098900Y-116660500D01*
X121078898Y-116728621D01*
X121025242Y-116775114D01*
X120972900Y-116786500D01*
X120555436Y-116786500D01*
X120555426Y-116786501D01*
X120481199Y-116801265D01*
X120397015Y-116857516D01*
X120340766Y-116941696D01*
X120334078Y-116975319D01*
X120301169Y-117038229D01*
X120239473Y-117073359D01*
X120168579Y-117069558D01*
X120110993Y-117028032D01*
X120086920Y-116975315D01*
X120080234Y-116941699D01*
X120023983Y-116857515D01*
X119939802Y-116801266D01*
X119865567Y-116786500D01*
X118015436Y-116786500D01*
X118015426Y-116786501D01*
X117941199Y-116801265D01*
X117857015Y-116857516D01*
X117800766Y-116941697D01*
X117786000Y-117015930D01*
X100500400Y-117015930D01*
X100500400Y-105761500D01*
X100520402Y-105693379D01*
X100574058Y-105646886D01*
X100626400Y-105635500D01*
X102936717Y-105635500D01*
X102936722Y-105635501D01*
X102999313Y-105635500D01*
X103061891Y-105635500D01*
X103061893Y-105635500D01*
X103061902Y-105635499D01*
X103061904Y-105635499D01*
X103122770Y-105623390D01*
X103184669Y-105611078D01*
X103184671Y-105611076D01*
X103184881Y-105611035D01*
X103186759Y-105610296D01*
X103189484Y-105609277D01*
X103192020Y-105608033D01*
X103231175Y-105591814D01*
X103296225Y-105564870D01*
X103299907Y-105563495D01*
X103300204Y-105563361D01*
X103301991Y-105562237D01*
X103304787Y-105560190D01*
X103352994Y-105527978D01*
X103400789Y-105496042D01*
X103403995Y-105494059D01*
X103405700Y-105492400D01*
X103409120Y-105489161D01*
X103410729Y-105487304D01*
X103427350Y-105470682D01*
X103454181Y-105443852D01*
X103498372Y-105399661D01*
X103498383Y-105399647D01*
X105942465Y-102955467D01*
X105942466Y-102955467D01*
X105965659Y-102932273D01*
X105985914Y-102912018D01*
X105987768Y-102910411D01*
X105991005Y-102906993D01*
X105992667Y-102905284D01*
X105994649Y-102902081D01*
X106019711Y-102864572D01*
X106059916Y-102804400D01*
X106061705Y-102801876D01*
X106061730Y-102801829D01*
X106062574Y-102799691D01*
X106082203Y-102752298D01*
X106082205Y-102752295D01*
X106089815Y-102733920D01*
X106109678Y-102685969D01*
X106109679Y-102685962D01*
X106109682Y-102685956D01*
X106126948Y-102599143D01*
X106134100Y-102563191D01*
X106134100Y-102563188D01*
X106134102Y-102563178D01*
X106134100Y-102479723D01*
X106134100Y-97436709D01*
X106109678Y-97313931D01*
X106061773Y-97198278D01*
X105992225Y-97094192D01*
X105903708Y-97005675D01*
X103406908Y-94508875D01*
X103302822Y-94439327D01*
X103187169Y-94391422D01*
X103180649Y-94390125D01*
X103064393Y-94367000D01*
X103064391Y-94367000D01*
X100626400Y-94367000D01*
X100558279Y-94346998D01*
X100511786Y-94293342D01*
X100500400Y-94241000D01*
X100500400Y-88274830D01*
X122045500Y-88274830D01*
X122045500Y-89724963D01*
X122045501Y-89724973D01*
X122060265Y-89799200D01*
X122116516Y-89883384D01*
X122200697Y-89939633D01*
X122200699Y-89939634D01*
X122274933Y-89954400D01*
X123725066Y-89954399D01*
X123725069Y-89954398D01*
X123725073Y-89954398D01*
X123774326Y-89944601D01*
X123799301Y-89939634D01*
X123883484Y-89883384D01*
X123939734Y-89799201D01*
X123954500Y-89724967D01*
X123954499Y-88274834D01*
X123954499Y-88274833D01*
X123954499Y-88274831D01*
X123954499Y-88274830D01*
X125045200Y-88274830D01*
X125045200Y-89724963D01*
X125045201Y-89724973D01*
X125059965Y-89799200D01*
X125116216Y-89883384D01*
X125200397Y-89939633D01*
X125200399Y-89939634D01*
X125274633Y-89954400D01*
X126724766Y-89954399D01*
X126724769Y-89954398D01*
X126724773Y-89954398D01*
X126774026Y-89944601D01*
X126799001Y-89939634D01*
X126883184Y-89883384D01*
X126939434Y-89799201D01*
X126954200Y-89724967D01*
X126954200Y-89396900D01*
X126974202Y-89328779D01*
X127027858Y-89282286D01*
X127080200Y-89270900D01*
X129286201Y-89270900D01*
X129354322Y-89290902D01*
X129400815Y-89344558D01*
X129412201Y-89396900D01*
X129412201Y-89612972D01*
X129426965Y-89687200D01*
X129483216Y-89771384D01*
X129567397Y-89827633D01*
X129567399Y-89827634D01*
X129641633Y-89842400D01*
X131215766Y-89842399D01*
X131215769Y-89842398D01*
X131215773Y-89842398D01*
X131265026Y-89832601D01*
X131290001Y-89827634D01*
X131374184Y-89771384D01*
X131430434Y-89687201D01*
X131445200Y-89612967D01*
X131445199Y-88038834D01*
X131445199Y-88038833D01*
X131445199Y-88038831D01*
X131445199Y-88038830D01*
X139572200Y-88038830D01*
X139572200Y-89612963D01*
X139572201Y-89612973D01*
X139586965Y-89687200D01*
X139643216Y-89771384D01*
X139727397Y-89827633D01*
X139727399Y-89827634D01*
X139801633Y-89842400D01*
X140923684Y-89842399D01*
X140991805Y-89862401D01*
X141012779Y-89879304D01*
X141907011Y-90773536D01*
X141989864Y-90856389D01*
X142091336Y-90914974D01*
X142091342Y-90914975D01*
X142091343Y-90914976D01*
X142147923Y-90930137D01*
X142147924Y-90930137D01*
X142163087Y-90934199D01*
X142204514Y-90945300D01*
X142204515Y-90945300D01*
X160263785Y-90945300D01*
X160331906Y-90965302D01*
X160352880Y-90982205D01*
X161008495Y-91637820D01*
X161042521Y-91700132D01*
X161045400Y-91726915D01*
X161045400Y-92724963D01*
X161045401Y-92724973D01*
X161060165Y-92799200D01*
X161116416Y-92883384D01*
X161200597Y-92939633D01*
X161200599Y-92939634D01*
X161274833Y-92954400D01*
X161427900Y-92954399D01*
X161496020Y-92974401D01*
X161542513Y-93028056D01*
X161553900Y-93080399D01*
X161553900Y-99263035D01*
X161533898Y-99331156D01*
X161517009Y-99352117D01*
X153685871Y-107185703D01*
X153644285Y-107227289D01*
X153615389Y-107277356D01*
X153615381Y-107277370D01*
X153603250Y-107298381D01*
X153585709Y-107328764D01*
X153570474Y-107385657D01*
X153570469Y-107385673D01*
X153555399Y-107441917D01*
X153555391Y-107441979D01*
X153555400Y-107499326D01*
X153555400Y-116419800D01*
X153535398Y-116487921D01*
X153481742Y-116534414D01*
X153429401Y-116545800D01*
X153274636Y-116545800D01*
X153274626Y-116545801D01*
X153200399Y-116560565D01*
X153116215Y-116616816D01*
X153059966Y-116700997D01*
X153045200Y-116775230D01*
X153045200Y-118225363D01*
X153045201Y-118225373D01*
X153059965Y-118299600D01*
X153116216Y-118383784D01*
X153200397Y-118440033D01*
X153200399Y-118440034D01*
X153274633Y-118454800D01*
X154724766Y-118454799D01*
X154724769Y-118454798D01*
X154724773Y-118454798D01*
X154774026Y-118445001D01*
X154799001Y-118440034D01*
X154883184Y-118383784D01*
X154939434Y-118299601D01*
X154954200Y-118225367D01*
X154954199Y-116775234D01*
X154954198Y-116775230D01*
X154954198Y-116775226D01*
X154939434Y-116700999D01*
X154883183Y-116616815D01*
X154799002Y-116560566D01*
X154724769Y-116545800D01*
X154724767Y-116545800D01*
X154571400Y-116545800D01*
X154503279Y-116525798D01*
X154456786Y-116472142D01*
X154445400Y-116419800D01*
X154445400Y-111386830D01*
X155054800Y-111386830D01*
X155054800Y-112960963D01*
X155054801Y-112960973D01*
X155069565Y-113035200D01*
X155125816Y-113119384D01*
X155209997Y-113175633D01*
X155209999Y-113175634D01*
X155284233Y-113190400D01*
X156858366Y-113190399D01*
X156858369Y-113190398D01*
X156858373Y-113190398D01*
X156907626Y-113180601D01*
X156932601Y-113175634D01*
X157016784Y-113119384D01*
X157073034Y-113035201D01*
X157087800Y-112960967D01*
X157087799Y-111386834D01*
X157087798Y-111386830D01*
X157087798Y-111386826D01*
X157073034Y-111312599D01*
X157016783Y-111228415D01*
X156932602Y-111172166D01*
X156858367Y-111157400D01*
X155284236Y-111157400D01*
X155284226Y-111157401D01*
X155209999Y-111172165D01*
X155125815Y-111228416D01*
X155069566Y-111312597D01*
X155054800Y-111386830D01*
X154445400Y-111386830D01*
X154445400Y-107736963D01*
X154465402Y-107668842D01*
X154482291Y-107647881D01*
X154596702Y-107533435D01*
X162313440Y-99814284D01*
X162354464Y-99773261D01*
X162355021Y-99772714D01*
X162355025Y-99772709D01*
X162355454Y-99771947D01*
X162373182Y-99741231D01*
X162385609Y-99719701D01*
X162385611Y-99719695D01*
X162413425Y-99671521D01*
X162413582Y-99671254D01*
X162413590Y-99671237D01*
X162413599Y-99671201D01*
X162413601Y-99671199D01*
X162423455Y-99634398D01*
X162430068Y-99609708D01*
X162430072Y-99609694D01*
X162436786Y-99584634D01*
X162443900Y-99558085D01*
X162443900Y-99558080D01*
X162443908Y-99558018D01*
X162443909Y-99558016D01*
X162443900Y-99499430D01*
X162443900Y-93080399D01*
X162463902Y-93012278D01*
X162517558Y-92965785D01*
X162569900Y-92954399D01*
X162724964Y-92954399D01*
X162724966Y-92954399D01*
X162724969Y-92954398D01*
X162724972Y-92954398D01*
X162761563Y-92947119D01*
X162799201Y-92939634D01*
X162883384Y-92883384D01*
X162939634Y-92799201D01*
X162954400Y-92724967D01*
X162954399Y-91274834D01*
X162954398Y-91274831D01*
X162954398Y-91274826D01*
X162939634Y-91200599D01*
X162883383Y-91116415D01*
X162799202Y-91060166D01*
X162724969Y-91045400D01*
X162724967Y-91045400D01*
X161726915Y-91045400D01*
X161658794Y-91025398D01*
X161637820Y-91008495D01*
X160773537Y-90144212D01*
X160773532Y-90144208D01*
X160672068Y-90085628D01*
X160672066Y-90085627D01*
X160672064Y-90085626D01*
X160615474Y-90070463D01*
X160615473Y-90070462D01*
X160615472Y-90070462D01*
X160558889Y-90055300D01*
X160558886Y-90055300D01*
X160558885Y-90055300D01*
X142499615Y-90055300D01*
X142431494Y-90035298D01*
X142410520Y-90018395D01*
X141642104Y-89249979D01*
X141608078Y-89187667D01*
X141605199Y-89160884D01*
X141605199Y-88038836D01*
X141605198Y-88038827D01*
X141590434Y-87964599D01*
X141534183Y-87880415D01*
X141450002Y-87824166D01*
X141375767Y-87809400D01*
X139801636Y-87809400D01*
X139801626Y-87809401D01*
X139727399Y-87824165D01*
X139643215Y-87880416D01*
X139586966Y-87964597D01*
X139572200Y-88038830D01*
X131445199Y-88038830D01*
X131430434Y-87964599D01*
X131374183Y-87880415D01*
X131290002Y-87824166D01*
X131215767Y-87809400D01*
X129641636Y-87809400D01*
X129641626Y-87809401D01*
X129567399Y-87824165D01*
X129483215Y-87880416D01*
X129426966Y-87964597D01*
X129412200Y-88038830D01*
X129412200Y-88254900D01*
X129392198Y-88323021D01*
X129338542Y-88369514D01*
X129286200Y-88380900D01*
X127078703Y-88380900D01*
X127010582Y-88360898D01*
X126964089Y-88307242D01*
X126955124Y-88279481D01*
X126947626Y-88241788D01*
X126939434Y-88200599D01*
X126883184Y-88116416D01*
X126883183Y-88116415D01*
X126799002Y-88060166D01*
X126724767Y-88045400D01*
X125274636Y-88045400D01*
X125274626Y-88045401D01*
X125200399Y-88060165D01*
X125116215Y-88116416D01*
X125059966Y-88200597D01*
X125045200Y-88274830D01*
X123954499Y-88274830D01*
X123939734Y-88200599D01*
X123883483Y-88116415D01*
X123799302Y-88060166D01*
X123725067Y-88045400D01*
X122274936Y-88045400D01*
X122274926Y-88045401D01*
X122200699Y-88060165D01*
X122116515Y-88116416D01*
X122060266Y-88200597D01*
X122045500Y-88274830D01*
X100500400Y-88274830D01*
X100500400Y-67934033D01*
X165501500Y-67934033D01*
X165501500Y-87933983D01*
X165501500Y-114934233D01*
X165501500Y-115066017D01*
X165526467Y-115159198D01*
X165535607Y-115193308D01*
X165535610Y-115193315D01*
X165601497Y-115307435D01*
X165601505Y-115307445D01*
X165694679Y-115400619D01*
X165694684Y-115400623D01*
X165694686Y-115400625D01*
X165808814Y-115466517D01*
X165936108Y-115500625D01*
X165936110Y-115500625D01*
X173565890Y-115500625D01*
X173565892Y-115500625D01*
X173693186Y-115466517D01*
X173807314Y-115400625D01*
X173900500Y-115307439D01*
X173966392Y-115193311D01*
X174000500Y-115066017D01*
X174000500Y-111712930D01*
X190733500Y-111712930D01*
X190733500Y-113287063D01*
X190733501Y-113287073D01*
X190748265Y-113361300D01*
X190804516Y-113445484D01*
X190888697Y-113501733D01*
X190888699Y-113501734D01*
X190962933Y-113516500D01*
X192537066Y-113516499D01*
X192537069Y-113516498D01*
X192537073Y-113516498D01*
X192586326Y-113506701D01*
X192611301Y-113501734D01*
X192695484Y-113445484D01*
X192751734Y-113361301D01*
X192766500Y-113287067D01*
X192766499Y-111712934D01*
X192766498Y-111712930D01*
X192766498Y-111712926D01*
X192751734Y-111638699D01*
X192695483Y-111554515D01*
X192611302Y-111498266D01*
X192537067Y-111483500D01*
X190962936Y-111483500D01*
X190962926Y-111483501D01*
X190888699Y-111498265D01*
X190804515Y-111554516D01*
X190748266Y-111638697D01*
X190733500Y-111712930D01*
X174000500Y-111712930D01*
X174000500Y-108626325D01*
X174020502Y-108558204D01*
X174074158Y-108511711D01*
X174126500Y-108500325D01*
X186067790Y-108500325D01*
X186067792Y-108500325D01*
X186195086Y-108466217D01*
X186309214Y-108400325D01*
X186402400Y-108307139D01*
X186468292Y-108193011D01*
X186502400Y-108065717D01*
X186502400Y-67934033D01*
X186468292Y-67806739D01*
X186402400Y-67692611D01*
X186402398Y-67692609D01*
X186402394Y-67692604D01*
X186309220Y-67599430D01*
X186309210Y-67599422D01*
X186195090Y-67533535D01*
X186195087Y-67533534D01*
X186195086Y-67533533D01*
X186195084Y-67533532D01*
X186195083Y-67533532D01*
X186160973Y-67524392D01*
X186067792Y-67499425D01*
X166067892Y-67499425D01*
X165936108Y-67499425D01*
X165867894Y-67517702D01*
X165808816Y-67533532D01*
X165808809Y-67533535D01*
X165694689Y-67599422D01*
X165694679Y-67599430D01*
X165601505Y-67692604D01*
X165601497Y-67692614D01*
X165535610Y-67806734D01*
X165535608Y-67806739D01*
X165501500Y-67934033D01*
X100500400Y-67934033D01*
X100500400Y-60292604D01*
X100520402Y-60224483D01*
X100537305Y-60203509D01*
X110170409Y-50570405D01*
X110232721Y-50536379D01*
X110259504Y-50533500D01*
X189740297Y-50533500D01*
X189808418Y-50553502D01*
G37*
%TD.AperFunction*%
%TD*%
M02*
