<?xml version="1.0" encoding="UTF-8" standalone="no"?>
<!-- Created with Inkscape (http://www.inkscape.org/) -->

<svg
   width="50.243259mm"
   height="8.0834379mm"
   viewBox="0 0 50.243259 8.0834379"
   version="1.1"
   id="svg1"
   xmlns="http://www.w3.org/2000/svg"
   xmlns:svg="http://www.w3.org/2000/svg">
  <defs
     id="defs1">
    <marker
       style="overflow:visible"
       id="Stop-4"
       refX="0"
       refY="0"
       orient="auto"
       markerWidth="1"
       markerHeight="1"
       viewBox="0 0 1 1"
       preserveAspectRatio="xMidYMid">
      <path
         style="fill:none;stroke:context-stroke;stroke-width:1"
         d="M 0,4 V -4"
         id="path23-6" />
    </marker>
    <marker
       style="overflow:visible"
       id="marker2-9"
       refX="0"
       refY="0"
       orient="auto"
       markerWidth="1"
       markerHeight="1"
       viewBox="0 0 1 1"
       preserveAspectRatio="xMidYMid">
      <path
         style="fill:none;stroke:context-stroke;stroke-width:1"
         d="M 0,4 V -4"
         id="path2-2" />
    </marker>
    <rect
       x="119.53935"
       y="517.00769"
       width="146.4357"
       height="86.068336"
       id="rect1-2" />
    <marker
       style="overflow:visible"
       id="Stop-4-8"
       refX="0"
       refY="0"
       orient="auto"
       markerWidth="1"
       markerHeight="1"
       viewBox="0 0 1 1"
       preserveAspectRatio="xMidYMid">
      <path
         style="fill:none;stroke:context-stroke;stroke-width:1"
         d="M 0,4 V -4"
         id="path23-6-9" />
    </marker>
    <marker
       style="overflow:visible"
       id="marker2-9-3"
       refX="0"
       refY="0"
       orient="auto"
       markerWidth="1"
       markerHeight="1"
       viewBox="0 0 1 1"
       preserveAspectRatio="xMidYMid">
      <path
         style="fill:none;stroke:context-stroke;stroke-width:1"
         d="M 0,4 V -4"
         id="path2-2-6" />
    </marker>
    <rect
       x="119.53935"
       y="517.00769"
       width="146.4357"
       height="86.068336"
       id="rect1-2-8" />
    <marker
       style="overflow:visible"
       id="Stop-4-85"
       refX="0"
       refY="0"
       orient="auto"
       markerWidth="1"
       markerHeight="1"
       viewBox="0 0 1 1"
       preserveAspectRatio="xMidYMid">
      <path
         style="fill:none;stroke:context-stroke;stroke-width:1"
         d="M 0,4 V -4"
         id="path23-6-0" />
    </marker>
    <marker
       style="overflow:visible"
       id="marker2-9-6"
       refX="0"
       refY="0"
       orient="auto"
       markerWidth="1"
       markerHeight="1"
       viewBox="0 0 1 1"
       preserveAspectRatio="xMidYMid">
      <path
         style="fill:none;stroke:context-stroke;stroke-width:1"
         d="M 0,4 V -4"
         id="path2-2-4" />
    </marker>
    <rect
       x="119.53935"
       y="517.00769"
       width="146.4357"
       height="86.068336"
       id="rect1-2-6" />
  </defs>
  <g
     id="layer1"
     transform="translate(-78.1763,-235.29633)">
    <g
       id="g1"
       transform="translate(34.100541,19.314583)">
      <path
         style="fill:#80b3ff;fill-rule:evenodd;stroke:#ac9393;stroke-width:0.3;stroke-dasharray:0.15, 0.15;stroke-dashoffset:0;marker-start:url(#Stop-4);marker-end:url(#marker2-9)"
         d="m 172.67464,211.5005 v 58.65565"
         id="path1-93-7" />
      <text
         xml:space="preserve"
         transform="matrix(0,0.26458333,-0.26458333,0,313.83749,201.87517)"
         id="text1-5"
         style="font-style:normal;font-variant:normal;font-weight:normal;font-stretch:normal;font-size:13.3333px;font-family:Sans;-inkscape-font-specification:'Sans, Normal';font-variant-ligatures:normal;font-variant-caps:normal;font-variant-numeric:normal;font-variant-east-asian:normal;writing-mode:lr-tb;direction:ltr;white-space:pre;shape-inside:url(#rect1-2);display:inline;fill:#ac9393;fill-rule:evenodd;stroke:none;stroke-width:1.88976;stroke-dasharray:none"><tspan
           x="119.53906"
           y="528.80466"
           id="tspan1">95.8mm</tspan></text>
      <path
         style="fill:#f9f9f9;fill-rule:evenodd;stroke:#ac9393;stroke-width:0.3;stroke-dasharray:0.15, 0.15"
         d="m 171.47464,270.15615 h 2.4"
         id="path1-1-4-4" />
      <path
         style="fill:#f9f9f9;fill-rule:evenodd;stroke:#ac9393;stroke-width:0.3;stroke-dasharray:0.15, 0.15"
         d="m 171.47464,211.5005 h 2.4"
         id="path1-1-89-8" />
      <path
         style="fill:#80b3ff;fill-rule:evenodd;stroke:#ac9393;stroke-width:0.3;stroke-dasharray:0.15, 0.15;stroke-dashoffset:0;marker-start:url(#Stop-4-85);marker-end:url(#marker2-9-6)"
         d="m 20.201302,241.02953 v 29.32783"
         id="path1-93-7-8" />
      <text
         xml:space="preserve"
         transform="matrix(0,0.26458333,-0.26458333,0,155.88181,216.76526)"
         id="text1-5-6"
         style="font-style:normal;font-variant:normal;font-weight:normal;font-stretch:normal;font-size:13.3333px;font-family:Sans;-inkscape-font-specification:'Sans, Normal';font-variant-ligatures:normal;font-variant-caps:normal;font-variant-numeric:normal;font-variant-east-asian:normal;writing-mode:lr-tb;direction:ltr;white-space:pre;shape-inside:url(#rect1-2-6);display:inline;fill:#ac9393;fill-rule:evenodd;stroke:none;stroke-width:1.88976;stroke-dasharray:none"><tspan
           x="119.53906"
           y="528.80466"
           id="tspan2">47.5mm</tspan></text>
      <path
         style="fill:#f9f9f9;fill-rule:evenodd;stroke:#ac9393;stroke-width:0.3;stroke-dasharray:0.15, 0.15"
         d="m 19.001302,270.28235 h 2.4"
         id="path1-1-4-4-8" />
      <path
         style="fill:#f9f9f9;fill-rule:evenodd;stroke:#ac9393;stroke-width:0.3;stroke-dasharray:0.15, 0.15"
         d="m 19.001302,241.02953 h 2.4"
         id="path1-1-89-8-4" />
      <path
         style="fill:#80b3ff;fill-rule:evenodd;stroke:#ac9393;stroke-width:0.3;stroke-dasharray:0.15, 0.15;stroke-dashoffset:0;marker-start:url(#Stop-4-8);marker-end:url(#marker2-9-3)"
         d="M 23.3466,274.70828 H 170.20619"
         id="path1-93-7-1" />
      <text
         xml:space="preserve"
         transform="matrix(0.26458333,0,0,0.26458333,58.365838,139.93428)"
         id="text1-5-0"
         style="font-style:normal;font-variant:normal;font-weight:normal;font-stretch:normal;font-size:13.3333px;font-family:Sans;-inkscape-font-specification:'Sans, Normal';font-variant-ligatures:normal;font-variant-caps:normal;font-variant-numeric:normal;font-variant-east-asian:normal;writing-mode:lr-tb;direction:ltr;white-space:pre;shape-inside:url(#rect1-2-8);display:inline;fill:#ac9393;fill-rule:evenodd;stroke:none;stroke-width:1.88976;stroke-dasharray:none"><tspan
           x="119.53906"
           y="528.80466"
           id="tspan3">240mm</tspan></text>
      <path
         style="fill:#f9f9f9;fill-rule:evenodd;stroke:#ac9393;stroke-width:0.3;stroke-dasharray:0.15, 0.15"
         d="m 170.20619,275.90828 v -2.4"
         id="path1-1-4-4-5" />
      <path
         style="fill:#f9f9f9;fill-rule:evenodd;stroke:#ac9393;stroke-width:0.3;stroke-dasharray:0.15, 0.15"
         d="m 23.3466,275.90828 v -2.4"
         id="path1-1-89-8-1" />
      <path
         id="path2481-1-3-2-4-0-7-4-9"
         style="display:inline;fill:#4d4d4d;fill-opacity:1;stroke:#000000;stroke-width:0.5;stroke-linejoin:miter;stroke-miterlimit:4;stroke-dasharray:none"
         d="m 170.32767,262.79531 h -3.03901 -0.092 v 7.45798 h -15.25815 v -3.03917 -0.0921 h -4.57437 -20.01592 v 0.0921 3.03948 h -18.38884 l -3.4e-4,-3.03948 v -0.0921 h -4.57436 -15.441548 -4.57437 v 0.0921 3.03948 H 65.979898 v -3.03948 -0.0921 h -4.57468 -15.441233 -4.574692 v 0.0921 3.03948 h -15.25784 v -7.45797 h -0.09201 -3.039317 v -14.22168 h 3.039009 0.09201 v -7.45608 h 71.032331 l 64.705874,-26.67533 v -3.03949 h 2.70997 v 3.03949 0.0921 h 1.31961 0.0955 1.62422 v -0.0921 -3.03949 h 2.70901 v 3.03885 4.99408 h -3.03932 -0.092 v 0.72219 6.0136 0.7222 h 0.092 3.03932 V 241.115 h -3.03932 -0.092 v 0.72284 6.73578 h 0.092 3.03932 z m -10.42584,-2.88115 a 1.4735838,1.4736621 0 0 0 0,-0.0109 1.4735838,1.4736621 0 0 0 -1.47349,-1.47356 1.4735838,1.4736621 0 0 0 -1.47349,1.47356 1.4735838,1.4736621 0 0 0 1.47349,1.47358 1.4735838,1.4736621 0 0 0 1.47349,-1.46279 z m 0,-24.04233 a 1.4735838,1.4736621 0 0 0 0,-0.0109 1.4735838,1.4736621 0 0 0 -1.47349,-1.47357 1.4735838,1.4736621 0 0 0 -1.47349,1.47357 1.4735838,1.4736621 0 0 0 1.47349,1.47358 1.4735838,1.4736621 0 0 0 1.47349,-1.46278 z m -7.03368,-11.04385 -1.2168,-2.9519 -11.35327,4.68028 1.21681,2.9522 z m -22.70621,9.36086 -1.2168,-2.9519 -11.35295,4.68027 1.2168,2.9519 z m -0.40898,25.72533 a 1.4735838,1.4736621 0 0 0 0,-0.0109 1.4735838,1.4736621 0 0 0 -1.4735,-1.47358 1.4735838,1.4736621 0 0 0 -1.47349,1.47358 1.4735838,1.4736621 0 0 0 1.47349,1.47356 1.4735838,1.4736621 0 0 0 1.4735,-1.46279 z m -18.67949,-17.86818 -1.21617,-2.95222 -5.67695,2.33919 1.21617,2.95222 z m -11.321548,5.24317 v -3.16194 H 84.401767 v 3.16194 z m -4.153958,12.62501 a 1.4735839,1.4736622 0 0 0 0,-0.0109 1.4735839,1.4736622 0 0 0 -1.4735,-1.47358 1.4735839,1.4736622 0 0 0 -1.473488,1.47358 1.4735839,1.4736622 0 0 0 1.473488,1.47356 1.4735839,1.4736622 0 0 0 1.4735,-1.46279 z m -29.651369,-12.6269 v -3.15752 H 41.422301 v 3.15752 z m -30.54106,12.6269 a 1.4735839,1.4736622 0 0 0 0,-0.0109 1.4735839,1.4736622 0 0 0 -1.473492,-1.47358 1.4735839,1.4736622 0 0 0 -1.473817,1.47358 1.4735839,1.4736622 0 0 0 1.473817,1.47356 1.4735839,1.4736622 0 0 0 1.473492,-1.46279 z" />
    </g>
    <g
       id="g12">
      <g
         id="g11"
         transform="translate(0,-0.52512536)">
        <path
           style="opacity:1;fill:#e6e6e6;fill-rule:evenodd;stroke:#808000;stroke-width:0.2;stroke-dasharray:none"
           d="m 79.582825,242.11616 v 1.78871"
           id="path7" />
        <path
           style="fill:#e6e6e6;fill-rule:evenodd;stroke:#808000;stroke-width:0.2;stroke-dasharray:none"
           d="m 84.51625,242.11616 v 1.78871"
           id="path7-3" />
        <path
           id="rect6"
           style="opacity:1;fill:#e6e6e6;fill-rule:evenodd;stroke:#333333;stroke-width:0.2;stroke-dasharray:none"
           d="m 78.276302,235.92144 v 5.55625 1.27693 h 0.827108 l 0.958829,-1.27693 h 3.96875 l 0.970522,1.27693 h 0.815416 v -1.27693 -5.55625 z" />
      </g>
      <g
         id="g10"
         transform="translate(0.05328508,-0.25432036)">
        <g
           id="g8"
           transform="translate(71.4625,-27.77128)">
          <path
             style="fill:#e6e6e6;fill-rule:evenodd;stroke:#808000;stroke-width:0.2;stroke-dasharray:none"
             d="m 21.101302,269.34583 v 1.78871"
             id="path7-3-6" />
          <path
             style="fill:#e6e6e6;fill-rule:evenodd;stroke:#808000;stroke-width:0.2;stroke-dasharray:none"
             d="m 23.842679,269.34583 v 1.78871"
             id="path7-3-2" />
          <path
             style="fill:#e6e6e6;fill-rule:evenodd;stroke:#808000;stroke-width:0.2;stroke-dasharray:none"
             d="m 26.584057,269.34583 v 1.78871"
             id="path7-3-5" />
          <path
             style="fill:#e6e6e6;fill-rule:evenodd;stroke:#808000;stroke-width:0.2;stroke-dasharray:none"
             d="m 27.954745,269.34583 v 1.78871"
             id="path7-3-9" />
          <path
             style="fill:#e6e6e6;fill-rule:evenodd;stroke:#808000;stroke-width:0.2;stroke-dasharray:none"
             d="m 29.325434,269.34583 v 1.78871"
             id="path7-3-29" />
          <path
             style="fill:#e6e6e6;fill-rule:evenodd;stroke:#808000;stroke-width:0.2;stroke-dasharray:none"
             d="m 22.471991,269.34583 v 1.78871"
             id="path7-3-7" />
          <path
             style="fill:#e6e6e6;fill-rule:evenodd;stroke:#808000;stroke-width:0.2;stroke-dasharray:none"
             d="m 25.213368,269.34583 v 1.78871"
             id="path7-3-3" />
          <path
             style="fill:#e6e6e6;fill-rule:evenodd;stroke:#808000;stroke-width:0.2;stroke-dasharray:none"
             d="m 30.696123,269.34583 v 1.78871"
             id="path7-3-32" />
          <path
             style="fill:#e6e6e6;fill-rule:evenodd;stroke:#808000;stroke-width:0.2;stroke-dasharray:none"
             d="m 32.066811,269.34583 v 1.78871"
             id="path7-3-54" />
          <path
             style="fill:#e6e6e6;fill-rule:evenodd;stroke:#808000;stroke-width:0.2;stroke-dasharray:none"
             d="m 33.4375,269.34583 v 1.78871"
             id="path7-3-93" />
        </g>
        <path
           id="rect7"
           style="opacity:1;fill:#e6e6e6;fill-rule:evenodd;stroke:#333333;stroke-width:0.2;stroke-dasharray:none"
           d="m 90.353601,235.92144 v 6.83318 h 0.952396 l 0.56224,-1.05833 h 13.727333 l 0.5457,1.05833 h 0.96893 v -6.83318 z" />
      </g>
      <g
         id="g9"
         transform="rotate(-90,51.705711,213.98164)">
        <rect
           style="opacity:1;fill:#484537;fill-rule:evenodd;stroke:#333333;stroke-width:0.2;stroke-dasharray:none"
           id="rect8"
           width="7.640625"
           height="16.566116"
           x="-30.169634"
           y="-290.59549"
           transform="scale(-1)" />
        <rect
           style="fill:#e6e6e6;fill-rule:evenodd;stroke:#333333;stroke-width:0.2;stroke-dasharray:none"
           id="rect8-5"
           width="1.0890832"
           height="3.4184332"
           x="274.37643"
           y="-28.058538"
           transform="rotate(90)" />
        <rect
           style="fill:#e6e6e6;fill-rule:evenodd;stroke:#333333;stroke-width:0.2;stroke-dasharray:none"
           id="rect8-5-2"
           width="1.0890832"
           height="3.4184332"
           x="275.8576"
           y="-28.058538"
           transform="rotate(90)" />
        <rect
           style="fill:#e6e6e6;fill-rule:evenodd;stroke:#333333;stroke-width:0.2;stroke-dasharray:none"
           id="rect8-5-6"
           width="1.0890832"
           height="3.4184332"
           x="277.33878"
           y="-28.058538"
           transform="rotate(90)" />
        <rect
           style="fill:#e6e6e6;fill-rule:evenodd;stroke:#333333;stroke-width:0.2;stroke-dasharray:none"
           id="rect8-5-9"
           width="1.0890832"
           height="3.4184332"
           x="278.81995"
           y="-28.058538"
           transform="rotate(90)" />
        <rect
           style="fill:#e6e6e6;fill-rule:evenodd;stroke:#333333;stroke-width:0.2;stroke-dasharray:none"
           id="rect8-5-7"
           width="1.0890832"
           height="3.4184332"
           x="280.30112"
           y="-28.058538"
           transform="rotate(90)" />
        <rect
           style="fill:#e6e6e6;fill-rule:evenodd;stroke:#333333;stroke-width:0.2;stroke-dasharray:none"
           id="rect8-5-77"
           width="1.0890832"
           height="3.4184332"
           x="281.78229"
           y="-28.058538"
           transform="rotate(90)" />
        <rect
           style="fill:#e6e6e6;fill-rule:evenodd;stroke:#333333;stroke-width:0.2;stroke-dasharray:none"
           id="rect8-5-5"
           width="1.0890832"
           height="3.4184332"
           x="283.26343"
           y="-28.058538"
           transform="rotate(90)" />
        <rect
           style="fill:#e6e6e6;fill-rule:evenodd;stroke:#333333;stroke-width:0.2;stroke-dasharray:none"
           id="rect8-5-8"
           width="1.0890832"
           height="3.4184332"
           x="284.7446"
           y="-28.058538"
           transform="rotate(90)" />
        <rect
           style="fill:#e6e6e6;fill-rule:evenodd;stroke:#333333;stroke-width:0.2;stroke-dasharray:none"
           id="rect8-5-90"
           width="1.0890832"
           height="3.4184332"
           x="287.70694"
           y="-28.058538"
           transform="rotate(90)" />
        <rect
           style="fill:#e6e6e6;fill-rule:evenodd;stroke:#333333;stroke-width:0.2;stroke-dasharray:none"
           id="rect8-5-96"
           width="1.0890832"
           height="3.4184332"
           x="286.22577"
           y="-28.058538"
           transform="rotate(90)" />
        <rect
           style="fill:#e6e6e6;fill-rule:evenodd;stroke:#333333;stroke-width:0.2;stroke-dasharray:none"
           id="rect8-5-1"
           width="1.0890832"
           height="3.4184332"
           x="289.18811"
           y="-28.058538"
           transform="rotate(90)" />
      </g>
    </g>
  </g>
</svg>
