%TF.GenerationSoftware,KiCad,Pcbnew,10.0.6*%
%TF.CreationDate,2026-09-23T18:24:45+08:00*%
%TF.ProjectId,Rotation_Throttle_Module,526f7461-7469-46f6-9e5f-5468726f7474,1.7*%
%TF.SameCoordinates,Original*%
%TF.FileFunction,Copper,L2,Bot*%
%TF.FilePolarity,Positive*%
%FSLAX46Y46*%
G04 Gerber Fmt 4.6, Leading zero omitted, Abs format (unit mm)*
G04 Created by KiCad (PCBNEW 10.0.6) date 2026-09-23 18:24:45*
%MOMM*%
%LPD*%
G01*
G04 APERTURE LIST*
%TA.AperFunction,ComponentPad*%
%ADD10R,1.300000X1.300000*%
%TD*%
%TA.AperFunction,ComponentPad*%
%ADD11R,1.000000X1.000000*%
%TD*%
%TA.AperFunction,ComponentPad*%
%ADD12R,1.600200X1.600200*%
%TD*%
%TA.AperFunction,ComponentPad*%
%ADD13R,1.524000X1.524000*%
%TD*%
%TA.AperFunction,ComponentPad*%
%ADD14R,3.000000X3.000000*%
%TD*%
%TA.AperFunction,ViaPad*%
%ADD15C,0.609600*%
%TD*%
%TA.AperFunction,Conductor*%
%ADD16C,0.254000*%
%TD*%
%TA.AperFunction,Conductor*%
%ADD17C,0.400000*%
%TD*%
%TA.AperFunction,Conductor*%
%ADD18C,0.762000*%
%TD*%
G04 APERTURE END LIST*
D10*
%TO.P,WP56,1*%
%TO.N,SCL*%
X132500100Y-70499800D03*
%TD*%
%TO.P,WP62,1*%
%TO.N,GND*%
X120500400Y-70499800D03*
%TD*%
D11*
%TO.P,WP58,1*%
%TO.N,N/C*%
X128500300Y-70499800D03*
%TD*%
D12*
%TO.P,TP_SDA,7*%
%TO.N,SDA*%
X135599900Y-126399900D03*
%TD*%
D10*
%TO.P,WP55,1*%
%TO.N,SDA*%
X134500300Y-70499800D03*
%TD*%
D13*
%TO.P,TP_+5V,1*%
%TO.N,+5V*%
X151999900Y-121500000D03*
%TD*%
D14*
%TO.P,TP_THROTTLE,1*%
%TO.N,THROTTLE*%
X103199900Y-140999800D03*
%TD*%
D13*
%TO.P,C1,1*%
%TO.N,GND*%
X116343900Y-120349200D03*
%TO.P,C1,2*%
%TO.N,+5V*%
X116343900Y-125349100D03*
%TD*%
%TO.P,TP_AXIS1,1*%
%TO.N,AXIS1*%
X166000100Y-64000000D03*
%TD*%
%TO.P,TP_LOCK,1*%
%TO.N,LOCK*%
X178500000Y-154999800D03*
%TD*%
D11*
%TO.P,WP63,1*%
%TO.N,N/C*%
X120500400Y-68499800D03*
%TD*%
D13*
%TO.P,R1,1*%
%TO.N,GND*%
X191076000Y-140161400D03*
%TO.P,R1,2*%
%TO.N,LOCK*%
X191076000Y-150321400D03*
%TD*%
%TO.P,TP_AXIS2,1*%
%TO.N,AXIS2*%
X132250100Y-97999900D03*
%TD*%
%TO.P,TP_GND,1*%
%TO.N,GND*%
X152999900Y-69000000D03*
%TD*%
%TO.P,TP_GND,1*%
%TO.N,GND*%
X183000100Y-122000100D03*
%TD*%
%TO.P,R3,1*%
%TO.N,GND*%
X155338700Y-128075800D03*
%TO.P,R3,2*%
%TO.N,CRUISE*%
X145178700Y-128075800D03*
%TD*%
D12*
%TO.P,TP_AXIS1,12*%
%TO.N,AXIS1*%
X125439900Y-118800000D03*
%TD*%
D11*
%TO.P,WP68,1*%
%TO.N,N/C*%
X124500400Y-68499600D03*
%TD*%
%TO.P,WP64,1*%
%TO.N,N/C*%
X122500100Y-68499800D03*
%TD*%
D12*
%TO.P,TP_CRUISE,8*%
%TO.N,CRUISE*%
X135599900Y-118800000D03*
%TD*%
%TO.P,TP_LOCK,3*%
%TO.N,LOCK*%
X125439900Y-126399900D03*
%TD*%
%TO.P,TP_PCONT,5*%
%TO.N,PCONT*%
X130519900Y-126399900D03*
%TD*%
D13*
%TO.P,TP_PCONT,1*%
%TO.N,PCONT*%
X178500000Y-135500000D03*
%TD*%
%TO.P,C-MAIN,1*%
%TO.N,+5V*%
X109500100Y-74770100D03*
%TO.P,C-MAIN,2*%
%TO.N,GND*%
X109500100Y-72230100D03*
%TD*%
D12*
%TO.P,TP_THROTTLE,6*%
%TO.N,THROTTLE*%
X133059900Y-126399900D03*
%TD*%
D13*
%TO.P,TP_+5V,1*%
%TO.N,+5V*%
X111000000Y-100999900D03*
%TD*%
D11*
%TO.P,WP69,1*%
%TO.N,N/C*%
X130500300Y-68499600D03*
%TD*%
D13*
%TO.P,TP_CRUISE,1*%
%TO.N,CRUISE*%
X111000000Y-108999900D03*
%TD*%
D14*
%TO.P,TP_THROTTLEPOWER,1*%
%TO.N,THROTTLEPOWER*%
X103199900Y-136199700D03*
%TD*%
D13*
%TO.P,TP_+5V,1*%
%TO.N,+5V*%
X137250100Y-85000000D03*
%TD*%
D11*
%TO.P,WP60,1*%
%TO.N,N/C*%
X124500400Y-70499800D03*
%TD*%
%TO.P,WP65,1*%
%TO.N,N/C*%
X134500300Y-68499800D03*
%TD*%
D13*
%TO.P,TP_CRUISE,1*%
%TO.N,CRUISE*%
X161000100Y-121500000D03*
%TD*%
%TO.P,R4,1*%
%TO.N,GND*%
X124838700Y-96075800D03*
%TO.P,R4,2*%
%TO.N,RESETTRIM*%
X114678700Y-96075800D03*
%TD*%
D10*
%TO.P,WP61,1*%
%TO.N,+5V*%
X122500100Y-70499800D03*
%TD*%
D12*
%TO.P,TP_RESETTRIM,2*%
%TO.N,RESETTRIM*%
X122899900Y-126399900D03*
%TD*%
D11*
%TO.P,WP66,1*%
%TO.N,N/C*%
X128500400Y-68499600D03*
%TD*%
D13*
%TO.P,TP_AXIS3,1*%
%TO.N,AXIS3*%
X179000100Y-122000100D03*
%TD*%
D12*
%TO.P,TP_AXIS2,11*%
%TO.N,AXIS2*%
X127979900Y-118800000D03*
%TD*%
D14*
%TO.P,TP_GND,1*%
%TO.N,GND*%
X103199900Y-146199700D03*
%TD*%
D12*
%TO.P,TP_SCL,9*%
%TO.N,SCL*%
X133059900Y-118800000D03*
%TD*%
D13*
%TO.P,TP_RESETTRIM,1*%
%TO.N,RESETTRIM*%
X111000000Y-90999900D03*
%TD*%
D10*
%TO.P,WP57,1*%
%TO.N,RESET*%
X130500300Y-70499800D03*
%TD*%
D13*
%TO.P,TP_GND,1*%
%TO.N,GND*%
X137250100Y-110999900D03*
%TD*%
D11*
%TO.P,WP59,1*%
%TO.N,N/C*%
X126500400Y-70499800D03*
%TD*%
D13*
%TO.P,TP_THROTTLEPOWER,1*%
%TO.N,THROTTLEPOWER*%
X142500000Y-150000100D03*
%TD*%
D11*
%TO.P,WP54,1*%
%TO.N,N/C*%
X132500100Y-68499800D03*
%TD*%
D12*
%TO.P,TP_RESET,4*%
%TO.N,RESET*%
X127979900Y-126399900D03*
%TD*%
%TO.P,TP_AREF,13*%
%TO.N,AREF*%
X122899900Y-118800000D03*
%TD*%
D13*
%TO.P,TP_+5V,1*%
%TO.N,+5V*%
X111000000Y-83000000D03*
%TD*%
%TO.P,TP_+5V,1*%
%TO.N,+5V*%
X175000100Y-122000100D03*
%TD*%
%TO.P,TP_+5V,1*%
%TO.N,+5V*%
X185500000Y-144749900D03*
%TD*%
%TO.P,R2,1*%
%TO.N,GND*%
X168161200Y-131424100D03*
%TO.P,R2,2*%
%TO.N,PCONT*%
X178321200Y-131424100D03*
%TD*%
D12*
%TO.P,TP_+5V,1*%
%TO.N,+5V*%
X120359900Y-126399900D03*
%TD*%
D11*
%TO.P,WP67,1*%
%TO.N,N/C*%
X126500400Y-68499600D03*
%TD*%
D12*
%TO.P,TP_AXIS3,10*%
%TO.N,AXIS3*%
X130519900Y-118800000D03*
%TD*%
%TO.P,TP_GND,14*%
%TO.N,GND*%
X120359900Y-118800000D03*
%TD*%
D13*
%TO.P,TP_+5V,1*%
%TO.N,+5V*%
X142500000Y-145500000D03*
%TD*%
%TO.P,TP_+5V,1*%
%TO.N,+5V*%
X179000100Y-69000000D03*
%TD*%
D15*
%TO.N,SCL*%
X132500100Y-74800100D03*
%TO.N,SDA*%
X134500300Y-74800100D03*
%TO.N,CRUISE*%
X128599900Y-113599800D03*
%TO.N,RESETTRIM*%
X118199900Y-119399900D03*
%TO.N,RESET*%
X130500300Y-74800100D03*
%TO.N,S$43552*%
X104546100Y-143634100D03*
X100522500Y-143631000D03*
X104308100Y-149639900D03*
%TO.N,S$43687*%
X104472400Y-132569300D03*
X104000000Y-131800000D03*
%TO.N,S$43570*%
X100477800Y-132989200D03*
X105385800Y-130282300D03*
%TO.N,GUARD1*%
X100599900Y-115197500D03*
X100599900Y-105199800D03*
%TO.N,GUARD2*%
X199399900Y-114999900D03*
X199399900Y-105002500D03*
%TD*%
%TO.N,SCL*%
D16*
X132500100Y-91099800D02*
X129799900Y-93799900D01*
X129799900Y-93799900D02*
X129799900Y-115539900D01*
X129799900Y-115539900D02*
X133059900Y-118799900D01*
X132500100Y-74800000D02*
X132500100Y-91099800D01*
%TO.N,SDA*%
X134500800Y-74800600D02*
X132999700Y-76301700D01*
X132999700Y-76301700D02*
X132999700Y-91198800D01*
X132999700Y-91198800D02*
X130398700Y-93799800D01*
X130398700Y-93799800D02*
X130398700Y-112600900D01*
X134201100Y-125001100D02*
X135600600Y-126400700D01*
X134201100Y-116400700D02*
X134201100Y-125001100D01*
X130398700Y-112600900D02*
X134201100Y-116400700D01*
%TO.N,THROTTLE*%
D17*
X128879900Y-131000600D02*
X133060700Y-126819800D01*
X103799200Y-131000600D02*
X128879900Y-131000600D01*
X133060700Y-126819800D02*
X133060700Y-126400700D01*
X103199900Y-140999800D02*
X101000000Y-138799900D01*
X101000000Y-138799900D02*
X101000000Y-133799800D01*
X101000000Y-133799800D02*
X103799200Y-131000600D01*
%TO.N,CRUISE*%
D16*
X111000000Y-108999900D02*
X111000000Y-110799900D01*
X113800000Y-113599900D02*
X128599900Y-113599900D01*
X111000000Y-110799900D02*
X113800000Y-113599900D01*
%TO.N,RESETTRIM*%
X118199100Y-121699100D02*
X122900600Y-126400700D01*
X118199100Y-119400400D02*
X118199100Y-121699100D01*
%TO.N,RESET*%
X129199800Y-125001100D02*
X127980600Y-126220300D01*
X129199800Y-93401000D02*
X129199800Y-125001100D01*
X130500300Y-74800600D02*
X131800800Y-76098500D01*
X131800800Y-76098500D02*
X131800800Y-90800000D01*
X131800800Y-90800000D02*
X129199800Y-93401000D01*
X127980600Y-126220300D02*
X127980600Y-126400700D01*
%TO.N,S$43552*%
X104579500Y-143631500D02*
X104572000Y-143642200D01*
X104622800Y-143616800D02*
X100522500Y-143605600D01*
X104546100Y-143634100D02*
X104579500Y-143631500D01*
X104572000Y-143642200D02*
X104622800Y-143616800D01*
X100522500Y-143605600D02*
X100522500Y-143631000D01*
%TO.N,S$43687*%
X104472400Y-132272400D02*
X104000000Y-131800000D01*
X104472400Y-132569300D02*
X104472400Y-132272400D01*
%TO.N,S$43570*%
X103184700Y-130282300D02*
X100477800Y-132989200D01*
X105385800Y-130282300D02*
X103184700Y-130282300D01*
%TO.N,GUARD1*%
D18*
X105598700Y-107699300D02*
X105598700Y-112700500D01*
X100600000Y-105199900D02*
X103099400Y-105199900D01*
X103101900Y-115197400D02*
X100600000Y-115197400D01*
X103099400Y-105199900D02*
X105598700Y-107699300D01*
X105598700Y-112700500D02*
X103101900Y-115197400D01*
%TO.N,GUARD2*%
X196897900Y-105002600D02*
X199399800Y-105002600D01*
X194401000Y-107499400D02*
X196897900Y-105002600D01*
X199399800Y-114999900D02*
X196900500Y-114999900D01*
X194401000Y-112500600D02*
X194401000Y-107499400D01*
X196900500Y-114999900D02*
X194401000Y-112500600D01*
%TD*%
%TA.AperFunction,Conductor*%
%TO.N,GND*%
G36*
X189808418Y-60520502D02*
G01*
X189829392Y-60537404D01*
X192504941Y-63212926D01*
X199237567Y-69945484D01*
X199462495Y-70170409D01*
X199496520Y-70232721D01*
X199499400Y-70259505D01*
X199499400Y-104241100D01*
X199479398Y-104309221D01*
X199425742Y-104355714D01*
X199373400Y-104367100D01*
X196897913Y-104367100D01*
X196835322Y-104367099D01*
X196835321Y-104367099D01*
X196835310Y-104367099D01*
X196786559Y-104376796D01*
X196774454Y-104379204D01*
X196743389Y-104385382D01*
X196712539Y-104391518D01*
X196687452Y-104401909D01*
X196666047Y-104410775D01*
X196666045Y-104410775D01*
X196596903Y-104439414D01*
X196596880Y-104439425D01*
X196596875Y-104439428D01*
X196596860Y-104439438D01*
X196544226Y-104474605D01*
X196544227Y-104474606D01*
X196492804Y-104508965D01*
X196492798Y-104508969D01*
X196492791Y-104508975D01*
X196492775Y-104508990D01*
X196446819Y-104554947D01*
X196446818Y-104554949D01*
X193995896Y-107005771D01*
X193995895Y-107005772D01*
X193995894Y-107005771D01*
X193957102Y-107044563D01*
X193957102Y-107044564D01*
X193907383Y-107094282D01*
X193907380Y-107094285D01*
X193907377Y-107094289D01*
X193907373Y-107094294D01*
X193879423Y-107136125D01*
X193879422Y-107136126D01*
X193837837Y-107198359D01*
X193837833Y-107198365D01*
X193837825Y-107198383D01*
X193837824Y-107198384D01*
X193809184Y-107267525D01*
X193789923Y-107314025D01*
X193778132Y-107373300D01*
X193777609Y-107375929D01*
X193765501Y-107436796D01*
X193765500Y-107436803D01*
X193765500Y-107436809D01*
X193765500Y-107499285D01*
X193765500Y-107533408D01*
X193765499Y-107568189D01*
X193765500Y-107568210D01*
X193765500Y-112432162D01*
X193765497Y-112432228D01*
X193765497Y-112438032D01*
X193765497Y-112438034D01*
X193765499Y-112479710D01*
X193765500Y-112513143D01*
X193765500Y-112563206D01*
X193765501Y-112563212D01*
X193779468Y-112633419D01*
X193779468Y-112633420D01*
X193789924Y-112685981D01*
X193814105Y-112744353D01*
X193814107Y-112744357D01*
X193837831Y-112801633D01*
X193873026Y-112854302D01*
X193873027Y-112854305D01*
X193907382Y-112905720D01*
X193957159Y-112955492D01*
X193957164Y-112955497D01*
X194000260Y-112998594D01*
X194000307Y-112998637D01*
X195354793Y-114353014D01*
X196445642Y-115443775D01*
X196495390Y-115493523D01*
X196495407Y-115493537D01*
X196495410Y-115493539D01*
X196495412Y-115493541D01*
X196536632Y-115521081D01*
X196536635Y-115521084D01*
X196536636Y-115521083D01*
X196536637Y-115521084D01*
X196598539Y-115562446D01*
X196599506Y-115563107D01*
X196599513Y-115563110D01*
X196600891Y-115563661D01*
X196652329Y-115584964D01*
X196652336Y-115584967D01*
X196713255Y-115610201D01*
X196715215Y-115611052D01*
X196715230Y-115611056D01*
X196717736Y-115611498D01*
X196767727Y-115621440D01*
X196837909Y-115635400D01*
X196837913Y-115635400D01*
X196837923Y-115635401D01*
X196837928Y-115635400D01*
X196837934Y-115635402D01*
X196888006Y-115635400D01*
X196888008Y-115635400D01*
X199373400Y-115635400D01*
X199441521Y-115655402D01*
X199488014Y-115709058D01*
X199499400Y-115761400D01*
X199499400Y-149740495D01*
X199479398Y-149808616D01*
X199462495Y-149829590D01*
X194642657Y-154649427D01*
X194642657Y-154649428D01*
X193505190Y-155786873D01*
X189829594Y-159462396D01*
X189767281Y-159496421D01*
X189740499Y-159499300D01*
X110259410Y-159499300D01*
X110191289Y-159479298D01*
X110170338Y-159462419D01*
X105353487Y-154648072D01*
X105353461Y-154648046D01*
X105001072Y-154295636D01*
X104918171Y-154212730D01*
X177483500Y-154212730D01*
X177483500Y-155786863D01*
X177483501Y-155786873D01*
X177498265Y-155861100D01*
X177554516Y-155945284D01*
X177638697Y-156001533D01*
X177638699Y-156001534D01*
X177712933Y-156016300D01*
X179287066Y-156016299D01*
X179287069Y-156016298D01*
X179287073Y-156016298D01*
X179336326Y-156006501D01*
X179361301Y-156001534D01*
X179445484Y-155945284D01*
X179501734Y-155861101D01*
X179516500Y-155786867D01*
X179516499Y-154212734D01*
X179516498Y-154212730D01*
X179516498Y-154212726D01*
X179501734Y-154138499D01*
X179445483Y-154054315D01*
X179361302Y-153998066D01*
X179287067Y-153983300D01*
X177712936Y-153983300D01*
X177712926Y-153983301D01*
X177638699Y-153998065D01*
X177554515Y-154054316D01*
X177498266Y-154138497D01*
X177483500Y-154212730D01*
X104918171Y-154212730D01*
X103262850Y-152557310D01*
X100537399Y-149831696D01*
X100503377Y-149769385D01*
X100500498Y-149742613D01*
X100500485Y-144312609D01*
X100520487Y-144244491D01*
X100574142Y-144197997D01*
X100593874Y-144190904D01*
X100596128Y-144190300D01*
X100596133Y-144190300D01*
X100738382Y-144152184D01*
X100865918Y-144078551D01*
X100919135Y-144025332D01*
X100981447Y-143991308D01*
X101008573Y-143988428D01*
X104065967Y-143996779D01*
X104134030Y-144016968D01*
X104154710Y-144033679D01*
X104202682Y-144081651D01*
X104330218Y-144155284D01*
X104426013Y-144180952D01*
X104486634Y-144217902D01*
X104517655Y-144281763D01*
X104519400Y-144302658D01*
X104519400Y-148955048D01*
X104499398Y-149023169D01*
X104445742Y-149069662D01*
X104389992Y-149078021D01*
X104389992Y-149080600D01*
X104381733Y-149080600D01*
X104234467Y-149080600D01*
X104148687Y-149103585D01*
X104092217Y-149118716D01*
X103964685Y-149192346D01*
X103964675Y-149192354D01*
X103860554Y-149296475D01*
X103860546Y-149296485D01*
X103786916Y-149424017D01*
X103777248Y-149460099D01*
X103761979Y-149517085D01*
X103748800Y-149566268D01*
X103748800Y-149713531D01*
X103748799Y-149713531D01*
X103786916Y-149855782D01*
X103860546Y-149983314D01*
X103860554Y-149983324D01*
X103964675Y-150087445D01*
X103964680Y-150087449D01*
X103964682Y-150087451D01*
X104092218Y-150161084D01*
X104234467Y-150199200D01*
X104234469Y-150199200D01*
X104381730Y-150199200D01*
X104381733Y-150199200D01*
X104464463Y-150177032D01*
X104535438Y-150178722D01*
X104594234Y-150218516D01*
X104606191Y-150235738D01*
X104615178Y-150251304D01*
X104615179Y-150251304D01*
X104619400Y-150258614D01*
X104665990Y-150305204D01*
X104712583Y-150351798D01*
X104826711Y-150417691D01*
X104826713Y-150417691D01*
X104826714Y-150417692D01*
X104851681Y-150424381D01*
X104954005Y-150451800D01*
X119358839Y-150451894D01*
X119366383Y-150452123D01*
X119673260Y-150470686D01*
X119693324Y-150471900D01*
X119693325Y-150471900D01*
X120267476Y-150471900D01*
X120327603Y-150468262D01*
X120840577Y-150437233D01*
X120840585Y-150437232D01*
X120840587Y-150437232D01*
X121062629Y-150410270D01*
X121410540Y-150368027D01*
X121975285Y-150264534D01*
X122532751Y-150127131D01*
X123080904Y-149956320D01*
X123617743Y-149752723D01*
X124141310Y-149517085D01*
X124649695Y-149250264D01*
X124711288Y-149213030D01*
X141483500Y-149213030D01*
X141483500Y-150787163D01*
X141483501Y-150787173D01*
X141498265Y-150861400D01*
X141554516Y-150945584D01*
X141638697Y-151001833D01*
X141638699Y-151001834D01*
X141712933Y-151016600D01*
X143287066Y-151016599D01*
X143287069Y-151016598D01*
X143287073Y-151016598D01*
X143336326Y-151006801D01*
X143361301Y-151001834D01*
X143445484Y-150945584D01*
X143501734Y-150861401D01*
X143516500Y-150787167D01*
X143516499Y-149213034D01*
X143516498Y-149213030D01*
X143516498Y-149213026D01*
X143501734Y-149138799D01*
X143461123Y-149078021D01*
X143445484Y-149054616D01*
X143445483Y-149054615D01*
X143361302Y-148998366D01*
X143287067Y-148983600D01*
X141712936Y-148983600D01*
X141712926Y-148983601D01*
X141638699Y-148998365D01*
X141554515Y-149054616D01*
X141498266Y-149138797D01*
X141483500Y-149213030D01*
X124711288Y-149213030D01*
X124867302Y-149118716D01*
X124899892Y-149099015D01*
X125090811Y-148983600D01*
X125141041Y-148953235D01*
X125613557Y-148627081D01*
X126065518Y-148272992D01*
X126495275Y-147892260D01*
X126901260Y-147486275D01*
X127281992Y-147056518D01*
X127636081Y-146604557D01*
X127962235Y-146132041D01*
X128259264Y-145640695D01*
X128526085Y-145132310D01*
X128714832Y-144712930D01*
X141483500Y-144712930D01*
X141483500Y-146287063D01*
X141483501Y-146287073D01*
X141498265Y-146361300D01*
X141554516Y-146445484D01*
X141638697Y-146501733D01*
X141638699Y-146501734D01*
X141712933Y-146516500D01*
X143287066Y-146516499D01*
X143287069Y-146516498D01*
X143287073Y-146516498D01*
X143336326Y-146506701D01*
X143361301Y-146501734D01*
X143445484Y-146445484D01*
X143501734Y-146361301D01*
X143516500Y-146287067D01*
X143516499Y-144712934D01*
X143516498Y-144712930D01*
X143516498Y-144712926D01*
X143501734Y-144638699D01*
X143445483Y-144554515D01*
X143361302Y-144498266D01*
X143287067Y-144483500D01*
X141712936Y-144483500D01*
X141712926Y-144483501D01*
X141638699Y-144498265D01*
X141554515Y-144554516D01*
X141498266Y-144638697D01*
X141483500Y-144712930D01*
X128714832Y-144712930D01*
X128761723Y-144608743D01*
X128965320Y-144071904D01*
X129136131Y-143523751D01*
X129273534Y-142966285D01*
X129377027Y-142401540D01*
X129446233Y-141831577D01*
X129480900Y-141258475D01*
X129480900Y-140684325D01*
X129446233Y-140111223D01*
X129377027Y-139541260D01*
X129273534Y-138976515D01*
X129136131Y-138419049D01*
X129062921Y-138184108D01*
X144999500Y-138184108D01*
X144999500Y-152184108D01*
X144999500Y-152315892D01*
X145024467Y-152409073D01*
X145033607Y-152443183D01*
X145033610Y-152443190D01*
X145099497Y-152557310D01*
X145099505Y-152557320D01*
X145192679Y-152650494D01*
X145192684Y-152650498D01*
X145192686Y-152650500D01*
X145192687Y-152650501D01*
X145192689Y-152650502D01*
X145193382Y-152650902D01*
X145306814Y-152716392D01*
X145434108Y-152750500D01*
X145434110Y-152750500D01*
X154565890Y-152750500D01*
X154565892Y-152750500D01*
X154693186Y-152716392D01*
X154807314Y-152650500D01*
X154900500Y-152557314D01*
X154966392Y-152443186D01*
X155000500Y-152315892D01*
X155000500Y-138184408D01*
X173499600Y-138184408D01*
X173499600Y-152184508D01*
X173499600Y-152316292D01*
X173524567Y-152409473D01*
X173533707Y-152443583D01*
X173533710Y-152443590D01*
X173599597Y-152557710D01*
X173599605Y-152557720D01*
X173692779Y-152650894D01*
X173692784Y-152650898D01*
X173692786Y-152650900D01*
X173806914Y-152716792D01*
X173934208Y-152750900D01*
X173934210Y-152750900D01*
X183065890Y-152750900D01*
X183065892Y-152750900D01*
X183193186Y-152716792D01*
X183307314Y-152650900D01*
X183400500Y-152557714D01*
X183466392Y-152443586D01*
X183500500Y-152316292D01*
X183500500Y-149534330D01*
X190059500Y-149534330D01*
X190059500Y-151108463D01*
X190059501Y-151108473D01*
X190074265Y-151182700D01*
X190130516Y-151266884D01*
X190214697Y-151323133D01*
X190214699Y-151323134D01*
X190288933Y-151337900D01*
X191863066Y-151337899D01*
X191863069Y-151337898D01*
X191863073Y-151337898D01*
X191912326Y-151328101D01*
X191937301Y-151323134D01*
X192021484Y-151266884D01*
X192077734Y-151182701D01*
X192092500Y-151108467D01*
X192092499Y-149534334D01*
X192092498Y-149534330D01*
X192092498Y-149534326D01*
X192077734Y-149460099D01*
X192071565Y-149450866D01*
X192021484Y-149375916D01*
X192021483Y-149375915D01*
X191937302Y-149319666D01*
X191863067Y-149304900D01*
X190288936Y-149304900D01*
X190288926Y-149304901D01*
X190214699Y-149319665D01*
X190130515Y-149375916D01*
X190074266Y-149460097D01*
X190059500Y-149534330D01*
X183500500Y-149534330D01*
X183500500Y-143962830D01*
X184483500Y-143962830D01*
X184483500Y-145536963D01*
X184483501Y-145536973D01*
X184498265Y-145611200D01*
X184554516Y-145695384D01*
X184638697Y-145751633D01*
X184638699Y-145751634D01*
X184712933Y-145766400D01*
X186287066Y-145766399D01*
X186287069Y-145766398D01*
X186287073Y-145766398D01*
X186336326Y-145756601D01*
X186361301Y-145751634D01*
X186445484Y-145695384D01*
X186501734Y-145611201D01*
X186516500Y-145536967D01*
X186516499Y-143962834D01*
X186516498Y-143962830D01*
X186516498Y-143962826D01*
X186501734Y-143888599D01*
X186445483Y-143804415D01*
X186361302Y-143748166D01*
X186287067Y-143733400D01*
X184712936Y-143733400D01*
X184712926Y-143733401D01*
X184638699Y-143748165D01*
X184554515Y-143804416D01*
X184498266Y-143888597D01*
X184483500Y-143962830D01*
X183500500Y-143962830D01*
X183500500Y-138184408D01*
X183466392Y-138057114D01*
X183446815Y-138023206D01*
X183400502Y-137942989D01*
X183400494Y-137942979D01*
X183307320Y-137849805D01*
X183307310Y-137849797D01*
X183193190Y-137783910D01*
X183193187Y-137783909D01*
X183193186Y-137783908D01*
X183193184Y-137783907D01*
X183193183Y-137783907D01*
X183159073Y-137774767D01*
X183065892Y-137749800D01*
X174065992Y-137749800D01*
X173934208Y-137749800D01*
X173865994Y-137768077D01*
X173806916Y-137783907D01*
X173806909Y-137783910D01*
X173692789Y-137849797D01*
X173692779Y-137849805D01*
X173599605Y-137942979D01*
X173599597Y-137942989D01*
X173533710Y-138057109D01*
X173533707Y-138057116D01*
X173527522Y-138080199D01*
X173499600Y-138184408D01*
X155000500Y-138184408D01*
X155000500Y-138184108D01*
X154966392Y-138056814D01*
X154900500Y-137942686D01*
X154900498Y-137942684D01*
X154900494Y-137942679D01*
X154807320Y-137849505D01*
X154807310Y-137849497D01*
X154693190Y-137783610D01*
X154693187Y-137783609D01*
X154693186Y-137783608D01*
X154693184Y-137783607D01*
X154693183Y-137783607D01*
X154644314Y-137770513D01*
X154565892Y-137749500D01*
X145565892Y-137749500D01*
X145434108Y-137749500D01*
X145365894Y-137767777D01*
X145306816Y-137783607D01*
X145306809Y-137783610D01*
X145192689Y-137849497D01*
X145192679Y-137849505D01*
X145099505Y-137942679D01*
X145099497Y-137942689D01*
X145033610Y-138056809D01*
X145033607Y-138056816D01*
X145033527Y-138057116D01*
X144999500Y-138184108D01*
X129062921Y-138184108D01*
X128965320Y-137870896D01*
X128761723Y-137334057D01*
X128526085Y-136810490D01*
X128526082Y-136810484D01*
X128259265Y-136302106D01*
X127962240Y-135810767D01*
X127962231Y-135810753D01*
X127636083Y-135338246D01*
X127281992Y-134886282D01*
X127128418Y-134712933D01*
X127128415Y-134712930D01*
X177483500Y-134712930D01*
X177483500Y-136287063D01*
X177483501Y-136287073D01*
X177498265Y-136361300D01*
X177554516Y-136445484D01*
X177638697Y-136501733D01*
X177638699Y-136501734D01*
X177712933Y-136516500D01*
X179287066Y-136516499D01*
X179287069Y-136516498D01*
X179287073Y-136516498D01*
X179336326Y-136506701D01*
X179361301Y-136501734D01*
X179445484Y-136445484D01*
X179501734Y-136361301D01*
X179516500Y-136287067D01*
X179516499Y-134712934D01*
X179516498Y-134712930D01*
X179516498Y-134712926D01*
X179501734Y-134638699D01*
X179445483Y-134554515D01*
X179361302Y-134498266D01*
X179287067Y-134483500D01*
X177712936Y-134483500D01*
X177712926Y-134483501D01*
X177638699Y-134498265D01*
X177554515Y-134554516D01*
X177498266Y-134638697D01*
X177483500Y-134712930D01*
X127128415Y-134712930D01*
X126901266Y-134456531D01*
X126901245Y-134456509D01*
X126495284Y-134050548D01*
X126406766Y-133972128D01*
X126065518Y-133669808D01*
X125613557Y-133315719D01*
X125486380Y-133227935D01*
X125141046Y-132989568D01*
X125141032Y-132989559D01*
X124649693Y-132692534D01*
X124141315Y-132425717D01*
X124141313Y-132425716D01*
X123617761Y-132190085D01*
X123617757Y-132190083D01*
X123617743Y-132190077D01*
X123617729Y-132190071D01*
X123617713Y-132190065D01*
X123080905Y-131986480D01*
X122532755Y-131815670D01*
X122532751Y-131815669D01*
X122077412Y-131703438D01*
X122016060Y-131667715D01*
X121983759Y-131604492D01*
X121990766Y-131533843D01*
X122034857Y-131478197D01*
X122102034Y-131455222D01*
X122107568Y-131455100D01*
X128820060Y-131455100D01*
X128820064Y-131455101D01*
X128939736Y-131455101D01*
X129030902Y-131430672D01*
X129039922Y-131428255D01*
X129039924Y-131428255D01*
X129042583Y-131427542D01*
X129055331Y-131424127D01*
X129158970Y-131364291D01*
X129243591Y-131279670D01*
X129253958Y-131269303D01*
X129253965Y-131269293D01*
X129886228Y-130637030D01*
X177304700Y-130637030D01*
X177304700Y-132211163D01*
X177304701Y-132211173D01*
X177319465Y-132285400D01*
X177375716Y-132369584D01*
X177459897Y-132425833D01*
X177459899Y-132425834D01*
X177534133Y-132440600D01*
X179108266Y-132440599D01*
X179108269Y-132440598D01*
X179108273Y-132440598D01*
X179157526Y-132430801D01*
X179182501Y-132425834D01*
X179266684Y-132369584D01*
X179322934Y-132285401D01*
X179337700Y-132211167D01*
X179337699Y-130637034D01*
X179337698Y-130637030D01*
X179337698Y-130637026D01*
X179322934Y-130562799D01*
X179311776Y-130546100D01*
X179266684Y-130478616D01*
X179266683Y-130478615D01*
X179182502Y-130422366D01*
X179108267Y-130407600D01*
X177534136Y-130407600D01*
X177534126Y-130407601D01*
X177459899Y-130422365D01*
X177375715Y-130478616D01*
X177319466Y-130562797D01*
X177304700Y-130637030D01*
X129886228Y-130637030D01*
X133031855Y-127491404D01*
X133094167Y-127457378D01*
X133120950Y-127454499D01*
X133885064Y-127454499D01*
X133885066Y-127454499D01*
X133885069Y-127454498D01*
X133885072Y-127454498D01*
X133921663Y-127447219D01*
X133959301Y-127439734D01*
X134043484Y-127383484D01*
X134099734Y-127299301D01*
X134114500Y-127225067D01*
X134114499Y-125758239D01*
X134134501Y-125690119D01*
X134188157Y-125643626D01*
X134258431Y-125633522D01*
X134323011Y-125663015D01*
X134329587Y-125669138D01*
X134508399Y-125847962D01*
X134542421Y-125910275D01*
X134545300Y-125937054D01*
X134545300Y-127225063D01*
X134545301Y-127225073D01*
X134560065Y-127299300D01*
X134616316Y-127383484D01*
X134700497Y-127439733D01*
X134700499Y-127439734D01*
X134774733Y-127454500D01*
X136425066Y-127454499D01*
X136425069Y-127454498D01*
X136425073Y-127454498D01*
X136474326Y-127444701D01*
X136499301Y-127439734D01*
X136583484Y-127383484D01*
X136639734Y-127299301D01*
X136641837Y-127288730D01*
X144162200Y-127288730D01*
X144162200Y-128862863D01*
X144162201Y-128862873D01*
X144176965Y-128937100D01*
X144233216Y-129021284D01*
X144317397Y-129077533D01*
X144317399Y-129077534D01*
X144391633Y-129092300D01*
X145965766Y-129092299D01*
X145965769Y-129092298D01*
X145965773Y-129092298D01*
X146015026Y-129082501D01*
X146040001Y-129077534D01*
X146124184Y-129021284D01*
X146180434Y-128937101D01*
X146195200Y-128862867D01*
X146195199Y-127288734D01*
X146195198Y-127288730D01*
X146195198Y-127288726D01*
X146180434Y-127214499D01*
X146124183Y-127130315D01*
X146040002Y-127074066D01*
X145965767Y-127059300D01*
X144391636Y-127059300D01*
X144391626Y-127059301D01*
X144317399Y-127074065D01*
X144233215Y-127130316D01*
X144176966Y-127214497D01*
X144162200Y-127288730D01*
X136641837Y-127288730D01*
X136654500Y-127225067D01*
X136654499Y-125574734D01*
X136654498Y-125574731D01*
X136654498Y-125574726D01*
X136639734Y-125500499D01*
X136613513Y-125461257D01*
X136583484Y-125416316D01*
X136583483Y-125416315D01*
X136499302Y-125360066D01*
X136425069Y-125345300D01*
X136425067Y-125345300D01*
X135136973Y-125345300D01*
X135068852Y-125325298D01*
X135047874Y-125308392D01*
X134619501Y-124879988D01*
X134585479Y-124817675D01*
X134582600Y-124790896D01*
X134582600Y-119969914D01*
X134602602Y-119901793D01*
X134656258Y-119855300D01*
X134726532Y-119845196D01*
X134733181Y-119846334D01*
X134774733Y-119854600D01*
X136425066Y-119854599D01*
X136425069Y-119854598D01*
X136425073Y-119854598D01*
X136474326Y-119844801D01*
X136499301Y-119839834D01*
X136583484Y-119783584D01*
X136639734Y-119699401D01*
X136654500Y-119625167D01*
X136654499Y-117974834D01*
X136654498Y-117974831D01*
X136654498Y-117974826D01*
X136639734Y-117900599D01*
X136583483Y-117816415D01*
X136499302Y-117760166D01*
X136425067Y-117745400D01*
X134774736Y-117745400D01*
X134774731Y-117745401D01*
X134733178Y-117753666D01*
X134662465Y-117747336D01*
X134606398Y-117703780D01*
X134582780Y-117636827D01*
X134582600Y-117630086D01*
X134582600Y-116459227D01*
X134582619Y-116458924D01*
X134582616Y-116450796D01*
X134582617Y-116450794D01*
X134582600Y-116400569D01*
X134582600Y-116350475D01*
X134582583Y-116350411D01*
X134582583Y-116350344D01*
X134569375Y-116301122D01*
X134556601Y-116253446D01*
X134556568Y-116253389D01*
X134556551Y-116253325D01*
X134531747Y-116210398D01*
X134506376Y-116166453D01*
X134506327Y-116166404D01*
X134506295Y-116166348D01*
X134471201Y-116131278D01*
X134471203Y-116131275D01*
X134471173Y-116131250D01*
X134435347Y-116095424D01*
X134435346Y-116095423D01*
X134429630Y-116089707D01*
X134429395Y-116089501D01*
X130817135Y-112479710D01*
X130783089Y-112417409D01*
X130780200Y-112390584D01*
X130780200Y-97212830D01*
X131233600Y-97212830D01*
X131233600Y-98786963D01*
X131233601Y-98786973D01*
X131248365Y-98861200D01*
X131304616Y-98945384D01*
X131388797Y-99001633D01*
X131388799Y-99001634D01*
X131463033Y-99016400D01*
X133037166Y-99016399D01*
X133037169Y-99016398D01*
X133037173Y-99016398D01*
X133086426Y-99006601D01*
X133111401Y-99001634D01*
X133195584Y-98945384D01*
X133251834Y-98861201D01*
X133266600Y-98786967D01*
X133266599Y-97212834D01*
X133266598Y-97212830D01*
X133266598Y-97212826D01*
X133251834Y-97138599D01*
X133251833Y-97138597D01*
X133195584Y-97054416D01*
X133195583Y-97054415D01*
X133111402Y-96998166D01*
X133037167Y-96983400D01*
X131463036Y-96983400D01*
X131463026Y-96983401D01*
X131388799Y-96998165D01*
X131304615Y-97054416D01*
X131248366Y-97138597D01*
X131233600Y-97212830D01*
X130780200Y-97212830D01*
X130780200Y-94010011D01*
X130800202Y-93941890D01*
X130817100Y-93920921D01*
X133223570Y-91514450D01*
X133223580Y-91514443D01*
X133304970Y-91433053D01*
X133304976Y-91433047D01*
X133355201Y-91346054D01*
X133381200Y-91249025D01*
X133381200Y-87933908D01*
X134749500Y-87933908D01*
X134749500Y-107933908D01*
X134749500Y-108065692D01*
X134761262Y-108109588D01*
X134783607Y-108192983D01*
X134783610Y-108192990D01*
X134849497Y-108307110D01*
X134849505Y-108307120D01*
X134942679Y-108400294D01*
X134942684Y-108400298D01*
X134942686Y-108400300D01*
X134942687Y-108400301D01*
X134942689Y-108400302D01*
X134968003Y-108414917D01*
X135056814Y-108466192D01*
X135184108Y-108500300D01*
X141372546Y-108500300D01*
X141440667Y-108520302D01*
X141487160Y-108573958D01*
X141498546Y-108626271D01*
X141500829Y-118445586D01*
X141500900Y-118749675D01*
X141500900Y-118816092D01*
X141500914Y-118816147D01*
X141500915Y-118816208D01*
X141517680Y-118878716D01*
X141535008Y-118943386D01*
X141535037Y-118943437D01*
X141535053Y-118943494D01*
X141568057Y-119000629D01*
X141600900Y-119057514D01*
X141600940Y-119057554D01*
X141600971Y-119057607D01*
X141647575Y-119104189D01*
X141694086Y-119150700D01*
X141694138Y-119150730D01*
X141694179Y-119150771D01*
X141751171Y-119183658D01*
X141789820Y-119205972D01*
X141808216Y-119216594D01*
X141808324Y-119216638D01*
X141871933Y-119233666D01*
X141871932Y-119233666D01*
X141871963Y-119233673D01*
X141935485Y-119250694D01*
X141935508Y-119250700D01*
X141935511Y-119250700D01*
X141935623Y-119250715D01*
X141935623Y-119250714D01*
X141935624Y-119250715D01*
X141999390Y-119250700D01*
X149332800Y-119250700D01*
X149400921Y-119270702D01*
X149447414Y-119324358D01*
X149458800Y-119376700D01*
X149458800Y-119687608D01*
X149458800Y-119819392D01*
X149473593Y-119874601D01*
X149492907Y-119946683D01*
X149492910Y-119946690D01*
X149558797Y-120060810D01*
X149558805Y-120060820D01*
X149651979Y-120153994D01*
X149651984Y-120153998D01*
X149651986Y-120154000D01*
X149766114Y-120219892D01*
X149893408Y-120254000D01*
X149893410Y-120254000D01*
X151094865Y-120254000D01*
X151162986Y-120274002D01*
X151209479Y-120327658D01*
X151219583Y-120397932D01*
X151190089Y-120462512D01*
X151143081Y-120496410D01*
X151138597Y-120498267D01*
X151054415Y-120554516D01*
X150998166Y-120638697D01*
X150983400Y-120712930D01*
X150983400Y-122287063D01*
X150983401Y-122287073D01*
X150998165Y-122361300D01*
X151054416Y-122445484D01*
X151138597Y-122501733D01*
X151138599Y-122501734D01*
X151212833Y-122516500D01*
X152786966Y-122516499D01*
X152786969Y-122516498D01*
X152786973Y-122516498D01*
X152836226Y-122506701D01*
X152861201Y-122501734D01*
X152945384Y-122445484D01*
X153001634Y-122361301D01*
X153016400Y-122287067D01*
X153016399Y-120712934D01*
X153016399Y-120712933D01*
X153016399Y-120712931D01*
X153016399Y-120712930D01*
X159983600Y-120712930D01*
X159983600Y-122287063D01*
X159983601Y-122287073D01*
X159998365Y-122361300D01*
X160054616Y-122445484D01*
X160138797Y-122501733D01*
X160138799Y-122501734D01*
X160213033Y-122516500D01*
X161787166Y-122516499D01*
X161787169Y-122516498D01*
X161787173Y-122516498D01*
X161836426Y-122506701D01*
X161861401Y-122501734D01*
X161945584Y-122445484D01*
X162001834Y-122361301D01*
X162016600Y-122287067D01*
X162016599Y-121213030D01*
X173983600Y-121213030D01*
X173983600Y-122787163D01*
X173983601Y-122787173D01*
X173998365Y-122861400D01*
X174054616Y-122945584D01*
X174138797Y-123001833D01*
X174138799Y-123001834D01*
X174213033Y-123016600D01*
X175787166Y-123016599D01*
X175787169Y-123016598D01*
X175787173Y-123016598D01*
X175836426Y-123006801D01*
X175861401Y-123001834D01*
X175945584Y-122945584D01*
X176001834Y-122861401D01*
X176016600Y-122787167D01*
X176016599Y-121213034D01*
X176016599Y-121213033D01*
X176016599Y-121213031D01*
X176016599Y-121213030D01*
X177983600Y-121213030D01*
X177983600Y-122787163D01*
X177983601Y-122787173D01*
X177998365Y-122861400D01*
X178054616Y-122945584D01*
X178138797Y-123001833D01*
X178138799Y-123001834D01*
X178213033Y-123016600D01*
X179787166Y-123016599D01*
X179787169Y-123016598D01*
X179787173Y-123016598D01*
X179836426Y-123006801D01*
X179861401Y-123001834D01*
X179945584Y-122945584D01*
X180001834Y-122861401D01*
X180016600Y-122787167D01*
X180016599Y-121213034D01*
X180016598Y-121213031D01*
X180016598Y-121213026D01*
X180001834Y-121138799D01*
X179945583Y-121054615D01*
X179861402Y-120998366D01*
X179787167Y-120983600D01*
X178213036Y-120983600D01*
X178213026Y-120983601D01*
X178138799Y-120998365D01*
X178054615Y-121054616D01*
X177998366Y-121138797D01*
X177983600Y-121213030D01*
X176016599Y-121213030D01*
X176001834Y-121138799D01*
X175945583Y-121054615D01*
X175861402Y-120998366D01*
X175787167Y-120983600D01*
X174213036Y-120983600D01*
X174213026Y-120983601D01*
X174138799Y-120998365D01*
X174054615Y-121054616D01*
X173998366Y-121138797D01*
X173983600Y-121213030D01*
X162016599Y-121213030D01*
X162016599Y-120712934D01*
X162016598Y-120712931D01*
X162016598Y-120712926D01*
X162001834Y-120638699D01*
X161945583Y-120554515D01*
X161861402Y-120498266D01*
X161787167Y-120483500D01*
X160213036Y-120483500D01*
X160213026Y-120483501D01*
X160138799Y-120498265D01*
X160054615Y-120554516D01*
X159998366Y-120638697D01*
X159983600Y-120712930D01*
X153016399Y-120712930D01*
X153001634Y-120638699D01*
X152945383Y-120554515D01*
X152861204Y-120498267D01*
X152856720Y-120496410D01*
X152801438Y-120451862D01*
X152779016Y-120384499D01*
X152796573Y-120315708D01*
X152848534Y-120267328D01*
X152904936Y-120254000D01*
X158318290Y-120254000D01*
X158318292Y-120254000D01*
X158445586Y-120219892D01*
X158559714Y-120154000D01*
X158652900Y-120060814D01*
X158718792Y-119946686D01*
X158752900Y-119819392D01*
X158752900Y-119379340D01*
X158772902Y-119311219D01*
X158826558Y-119264726D01*
X158878887Y-119253340D01*
X187002146Y-119250700D01*
X187065992Y-119250700D01*
X187066014Y-119250694D01*
X187066039Y-119250694D01*
X187131589Y-119233123D01*
X187193286Y-119216592D01*
X187193306Y-119216580D01*
X187193330Y-119216574D01*
X187249706Y-119184018D01*
X187307414Y-119150700D01*
X187307432Y-119150681D01*
X187307451Y-119150671D01*
X187352938Y-119105176D01*
X187400600Y-119057514D01*
X187400612Y-119057492D01*
X187400629Y-119057476D01*
X187432788Y-119001761D01*
X187466248Y-118943806D01*
X187466509Y-118943364D01*
X187466671Y-118942741D01*
X187483821Y-118878715D01*
X187483821Y-118878711D01*
X187500600Y-118816092D01*
X187500600Y-118816082D01*
X187500604Y-118816051D01*
X187500606Y-118816045D01*
X187500600Y-118749675D01*
X187500600Y-73750423D01*
X187500603Y-73684531D01*
X187500601Y-73684526D01*
X187500602Y-73684517D01*
X187484429Y-73624157D01*
X187484102Y-73622938D01*
X187484102Y-73622930D01*
X187484100Y-73622931D01*
X187467528Y-73561068D01*
X187466677Y-73557426D01*
X187466658Y-73557379D01*
X187465192Y-73554963D01*
X187435922Y-73504266D01*
X187434724Y-73502191D01*
X187401027Y-73443819D01*
X187400637Y-73443131D01*
X187400612Y-73443098D01*
X187400600Y-73443086D01*
X187354024Y-73396510D01*
X187354023Y-73396508D01*
X187354023Y-73396509D01*
X187307432Y-73349914D01*
X187307429Y-73349912D01*
X187307421Y-73349904D01*
X187246273Y-73314600D01*
X187246268Y-73314597D01*
X187194051Y-73284446D01*
X187193349Y-73284033D01*
X187193293Y-73284010D01*
X187127612Y-73266411D01*
X187127612Y-73266409D01*
X187127606Y-73266409D01*
X187066004Y-73249900D01*
X187065992Y-73249900D01*
X187000011Y-73249900D01*
X176625694Y-73249427D01*
X176557574Y-73229422D01*
X176511084Y-73175764D01*
X176499700Y-73123427D01*
X176499700Y-68212930D01*
X177983600Y-68212930D01*
X177983600Y-69787063D01*
X177983601Y-69787066D01*
X177998365Y-69861300D01*
X178054616Y-69945484D01*
X178138797Y-70001733D01*
X178138799Y-70001734D01*
X178213033Y-70016500D01*
X179787166Y-70016499D01*
X179787169Y-70016498D01*
X179787173Y-70016498D01*
X179836426Y-70006701D01*
X179861401Y-70001734D01*
X179945584Y-69945484D01*
X180001834Y-69861301D01*
X180016600Y-69787067D01*
X180016599Y-68212934D01*
X180016598Y-68212930D01*
X180016598Y-68212926D01*
X180001834Y-68138699D01*
X179945583Y-68054515D01*
X179861402Y-67998266D01*
X179787167Y-67983500D01*
X178213036Y-67983500D01*
X178213026Y-67983501D01*
X178138799Y-67998265D01*
X178054615Y-68054516D01*
X177998366Y-68138697D01*
X177983600Y-68212930D01*
X176499700Y-68212930D01*
X176499700Y-66933209D01*
X176499700Y-66933208D01*
X176465592Y-66805914D01*
X176399700Y-66691786D01*
X176399698Y-66691784D01*
X176399694Y-66691779D01*
X176306520Y-66598605D01*
X176306510Y-66598597D01*
X176192390Y-66532710D01*
X176192387Y-66532709D01*
X176192386Y-66532708D01*
X176192384Y-66532707D01*
X176192383Y-66532707D01*
X176158273Y-66523567D01*
X176065092Y-66498600D01*
X156065192Y-66498600D01*
X155933408Y-66498600D01*
X155865194Y-66516877D01*
X155806116Y-66532707D01*
X155806109Y-66532710D01*
X155691989Y-66598597D01*
X155691979Y-66598605D01*
X155598805Y-66691779D01*
X155598797Y-66691789D01*
X155532910Y-66805909D01*
X155532907Y-66805916D01*
X155498800Y-66933209D01*
X155498800Y-73123422D01*
X155478798Y-73191543D01*
X155425142Y-73238036D01*
X155372804Y-73249422D01*
X142072399Y-73249892D01*
X142072354Y-73249890D01*
X142017854Y-73249894D01*
X142017852Y-73249894D01*
X142006921Y-73249895D01*
X141932890Y-73249898D01*
X141932878Y-73249900D01*
X141932869Y-73249901D01*
X141872448Y-73266095D01*
X141805597Y-73284011D01*
X141805587Y-73284016D01*
X141805578Y-73284019D01*
X141798099Y-73288337D01*
X141798096Y-73288338D01*
X141760520Y-73310036D01*
X141760514Y-73310041D01*
X141750496Y-73315826D01*
X141691472Y-73349907D01*
X141691464Y-73349914D01*
X141691455Y-73349920D01*
X141644854Y-73396527D01*
X141598289Y-73443096D01*
X141598283Y-73443105D01*
X141598276Y-73443113D01*
X141592010Y-73453966D01*
X141592010Y-73453967D01*
X141564173Y-73502190D01*
X141564172Y-73502191D01*
X141532397Y-73557232D01*
X141532397Y-73557234D01*
X141532370Y-73557299D01*
X141532174Y-73558059D01*
X141514469Y-73624155D01*
X141514469Y-73624156D01*
X141498295Y-73684531D01*
X141498299Y-73748617D01*
X141498299Y-73748619D01*
X141498301Y-73824672D01*
X141498305Y-73824727D01*
X141499351Y-87373290D01*
X141479354Y-87441413D01*
X141425702Y-87487910D01*
X141373351Y-87499300D01*
X135315892Y-87499300D01*
X135184108Y-87499300D01*
X135115894Y-87517577D01*
X135056816Y-87533407D01*
X135056809Y-87533410D01*
X134942689Y-87599297D01*
X134942679Y-87599305D01*
X134849505Y-87692479D01*
X134849497Y-87692489D01*
X134783610Y-87806609D01*
X134783608Y-87806614D01*
X134749500Y-87933908D01*
X133381200Y-87933908D01*
X133381200Y-84212930D01*
X136233600Y-84212930D01*
X136233600Y-85787063D01*
X136233601Y-85787073D01*
X136248365Y-85861300D01*
X136304616Y-85945484D01*
X136388797Y-86001733D01*
X136388799Y-86001734D01*
X136463033Y-86016500D01*
X138037166Y-86016499D01*
X138037169Y-86016498D01*
X138037173Y-86016498D01*
X138086426Y-86006701D01*
X138111401Y-86001734D01*
X138195584Y-85945484D01*
X138251834Y-85861301D01*
X138266600Y-85787067D01*
X138266599Y-84212934D01*
X138266598Y-84212930D01*
X138266598Y-84212926D01*
X138251834Y-84138699D01*
X138195583Y-84054515D01*
X138111402Y-83998266D01*
X138037167Y-83983500D01*
X136463036Y-83983500D01*
X136463026Y-83983501D01*
X136388799Y-83998265D01*
X136304615Y-84054516D01*
X136248366Y-84138697D01*
X136233600Y-84212930D01*
X133381200Y-84212930D01*
X133381200Y-76511913D01*
X133401202Y-76443792D01*
X133418105Y-76422818D01*
X134444618Y-75396305D01*
X134506930Y-75362279D01*
X134533713Y-75359400D01*
X134573931Y-75359400D01*
X134573933Y-75359400D01*
X134716182Y-75321284D01*
X134843718Y-75247651D01*
X134947851Y-75143518D01*
X135021484Y-75015982D01*
X135059600Y-74873733D01*
X135059600Y-74726467D01*
X135021484Y-74584218D01*
X134947851Y-74456682D01*
X134947849Y-74456680D01*
X134947845Y-74456675D01*
X134843724Y-74352554D01*
X134843714Y-74352546D01*
X134716182Y-74278916D01*
X134573933Y-74240800D01*
X134426667Y-74240800D01*
X134346571Y-74262262D01*
X134284417Y-74278916D01*
X134156885Y-74352546D01*
X134156875Y-74352554D01*
X134052754Y-74456675D01*
X134052746Y-74456685D01*
X133979116Y-74584217D01*
X133941000Y-74726468D01*
X133941000Y-74768687D01*
X133920998Y-74836808D01*
X133904095Y-74857782D01*
X133096695Y-75665182D01*
X133034383Y-75699208D01*
X132963568Y-75694143D01*
X132906732Y-75651596D01*
X132881921Y-75585076D01*
X132881600Y-75576087D01*
X132881600Y-75261759D01*
X132901602Y-75193638D01*
X132918501Y-75172667D01*
X132947651Y-75143518D01*
X133021284Y-75015982D01*
X133059400Y-74873733D01*
X133059400Y-74726467D01*
X133021284Y-74584218D01*
X132947651Y-74456682D01*
X132947649Y-74456680D01*
X132947645Y-74456675D01*
X132843524Y-74352554D01*
X132843514Y-74352546D01*
X132715982Y-74278916D01*
X132573733Y-74240800D01*
X132426467Y-74240800D01*
X132346371Y-74262262D01*
X132284217Y-74278916D01*
X132156685Y-74352546D01*
X132156675Y-74352554D01*
X132052554Y-74456675D01*
X132052546Y-74456685D01*
X131978916Y-74584217D01*
X131940800Y-74726468D01*
X131940800Y-74873731D01*
X131940799Y-74873731D01*
X131978916Y-75015982D01*
X132052546Y-75143514D01*
X132052548Y-75143517D01*
X132052549Y-75143518D01*
X132081695Y-75172664D01*
X132115720Y-75234974D01*
X132118600Y-75261759D01*
X132118600Y-75572920D01*
X132098598Y-75641041D01*
X132044942Y-75687534D01*
X131974668Y-75697638D01*
X131910088Y-75668144D01*
X131903594Y-75662105D01*
X131096594Y-74856718D01*
X131062506Y-74794439D01*
X131059600Y-74767533D01*
X131059600Y-74726468D01*
X131059600Y-74726467D01*
X131021484Y-74584218D01*
X130947851Y-74456682D01*
X130947849Y-74456680D01*
X130947845Y-74456675D01*
X130843724Y-74352554D01*
X130843714Y-74352546D01*
X130716182Y-74278916D01*
X130573933Y-74240800D01*
X130426667Y-74240800D01*
X130346571Y-74262262D01*
X130284417Y-74278916D01*
X130156885Y-74352546D01*
X130156875Y-74352554D01*
X130052754Y-74456675D01*
X130052746Y-74456685D01*
X129979116Y-74584217D01*
X129941000Y-74726468D01*
X129941000Y-74873731D01*
X129940999Y-74873731D01*
X129979116Y-75015982D01*
X130052746Y-75143514D01*
X130052754Y-75143524D01*
X130156875Y-75247645D01*
X130156880Y-75247649D01*
X130156882Y-75247651D01*
X130284418Y-75321284D01*
X130426667Y-75359400D01*
X130468040Y-75359400D01*
X130536161Y-75379402D01*
X130557044Y-75396214D01*
X131382307Y-76219826D01*
X131416394Y-76282103D01*
X131419300Y-76309009D01*
X131419300Y-90589786D01*
X131399298Y-90657907D01*
X131382395Y-90678881D01*
X128947830Y-93113445D01*
X128947828Y-93113448D01*
X128894529Y-93166746D01*
X128894521Y-93166756D01*
X128844300Y-93253741D01*
X128818300Y-93350776D01*
X128818300Y-112915883D01*
X128798298Y-112984004D01*
X128744642Y-113030497D01*
X128681792Y-113039916D01*
X128681792Y-113040500D01*
X128677900Y-113040500D01*
X128675858Y-113040806D01*
X128673533Y-113040500D01*
X128526267Y-113040500D01*
X128431434Y-113065910D01*
X128384017Y-113078616D01*
X128256485Y-113152246D01*
X128256475Y-113152254D01*
X128227235Y-113181495D01*
X128164923Y-113215521D01*
X128138140Y-113218400D01*
X114010213Y-113218400D01*
X113942092Y-113198398D01*
X113921118Y-113181495D01*
X113705218Y-112965595D01*
X113671192Y-112903283D01*
X113676257Y-112832468D01*
X113718804Y-112775632D01*
X113785324Y-112750821D01*
X113794313Y-112750500D01*
X126440990Y-112750500D01*
X126440992Y-112750500D01*
X126568286Y-112716392D01*
X126682414Y-112650500D01*
X126775600Y-112557314D01*
X126841492Y-112443186D01*
X126875600Y-112315892D01*
X126875600Y-98251038D01*
X126875605Y-98185146D01*
X126875600Y-98185127D01*
X126875600Y-98185108D01*
X126858834Y-98122536D01*
X126841507Y-98057850D01*
X126841497Y-98057832D01*
X126841492Y-98057814D01*
X126809445Y-98002307D01*
X126775624Y-97943717D01*
X126775609Y-97943702D01*
X126775600Y-97943686D01*
X126729034Y-97897120D01*
X126682445Y-97850524D01*
X126682444Y-97850523D01*
X126682439Y-97850518D01*
X126682419Y-97850503D01*
X126680664Y-97849490D01*
X126623859Y-97816693D01*
X126623860Y-97816691D01*
X126623852Y-97816689D01*
X126568322Y-97784623D01*
X126568321Y-97784622D01*
X126568306Y-97784614D01*
X126568288Y-97784609D01*
X126568286Y-97784608D01*
X126503637Y-97767285D01*
X126475399Y-97759716D01*
X126441012Y-97750500D01*
X126440992Y-97750500D01*
X126376021Y-97750500D01*
X113449042Y-97749505D01*
X113448956Y-97749500D01*
X113440892Y-97749500D01*
X113374155Y-97749500D01*
X113309146Y-97749494D01*
X113309110Y-97749499D01*
X113257814Y-97763242D01*
X113257807Y-97763244D01*
X113246536Y-97766265D01*
X113181850Y-97783593D01*
X113181832Y-97783602D01*
X113181814Y-97783608D01*
X113126307Y-97815654D01*
X113067717Y-97849476D01*
X113067702Y-97849490D01*
X113067686Y-97849500D01*
X113021120Y-97896065D01*
X112974524Y-97942655D01*
X112974514Y-97942671D01*
X112974500Y-97942686D01*
X112940693Y-98001240D01*
X112908623Y-98056778D01*
X112908617Y-98056796D01*
X112908608Y-98056814D01*
X112891285Y-98121462D01*
X112888265Y-98132729D01*
X112888263Y-98132734D01*
X112874500Y-98184088D01*
X112874500Y-98249972D01*
X112874494Y-98324350D01*
X112874500Y-98324439D01*
X112874500Y-111830687D01*
X112854498Y-111898808D01*
X112800842Y-111945301D01*
X112730568Y-111955405D01*
X112665988Y-111925911D01*
X112659405Y-111919782D01*
X111418405Y-110678782D01*
X111384379Y-110616470D01*
X111381500Y-110589687D01*
X111381500Y-110142399D01*
X111401502Y-110074278D01*
X111455158Y-110027785D01*
X111507500Y-110016399D01*
X111787064Y-110016399D01*
X111787066Y-110016399D01*
X111787069Y-110016398D01*
X111787072Y-110016398D01*
X111823663Y-110009119D01*
X111861301Y-110001634D01*
X111945484Y-109945384D01*
X112001734Y-109861201D01*
X112016500Y-109786967D01*
X112016499Y-108212834D01*
X112016498Y-108212830D01*
X112016498Y-108212826D01*
X112001734Y-108138599D01*
X111959356Y-108075177D01*
X111945484Y-108054416D01*
X111945483Y-108054415D01*
X111861302Y-107998166D01*
X111787067Y-107983400D01*
X110212936Y-107983400D01*
X110212926Y-107983401D01*
X110138699Y-107998165D01*
X110054515Y-108054416D01*
X109998266Y-108138597D01*
X109983500Y-108212830D01*
X109983500Y-109786963D01*
X109983501Y-109786973D01*
X109998265Y-109861200D01*
X110054516Y-109945384D01*
X110138697Y-110001633D01*
X110138699Y-110001634D01*
X110212933Y-110016400D01*
X110492501Y-110016399D01*
X110560620Y-110036401D01*
X110607113Y-110090056D01*
X110618500Y-110142399D01*
X110618500Y-110850123D01*
X110618499Y-110850123D01*
X110622791Y-110866139D01*
X110642501Y-110939698D01*
X110644500Y-110947156D01*
X110646264Y-110950211D01*
X110673253Y-110996958D01*
X110694724Y-111034147D01*
X110694726Y-111034149D01*
X110694729Y-111034153D01*
X113494724Y-113834147D01*
X113565753Y-113905176D01*
X113565754Y-113905177D01*
X113565756Y-113905178D01*
X113652741Y-113955399D01*
X113652743Y-113955399D01*
X113652746Y-113955401D01*
X113749775Y-113981400D01*
X113850225Y-113981400D01*
X128138340Y-113981400D01*
X128206461Y-114001402D01*
X128227435Y-114018305D01*
X128256475Y-114047345D01*
X128256480Y-114047349D01*
X128256482Y-114047351D01*
X128384018Y-114120984D01*
X128526267Y-114159100D01*
X128526269Y-114159100D01*
X128673531Y-114159100D01*
X128673533Y-114159100D01*
X128673534Y-114159099D01*
X128675847Y-114158795D01*
X128677804Y-114159100D01*
X128681792Y-114159100D01*
X128681792Y-114159721D01*
X128745996Y-114169730D01*
X128799097Y-114216855D01*
X128818300Y-114283716D01*
X128818300Y-117619400D01*
X128798298Y-117687521D01*
X128744642Y-117734014D01*
X128692300Y-117745400D01*
X127154736Y-117745400D01*
X127154726Y-117745401D01*
X127080499Y-117760165D01*
X126996315Y-117816416D01*
X126940066Y-117900597D01*
X126925300Y-117974830D01*
X126925300Y-119625163D01*
X126925301Y-119625173D01*
X126940065Y-119699400D01*
X126996316Y-119783584D01*
X127080497Y-119839833D01*
X127080499Y-119839834D01*
X127154733Y-119854600D01*
X128692300Y-119854599D01*
X128760421Y-119874601D01*
X128806914Y-119928257D01*
X128818300Y-119980599D01*
X128818300Y-124790885D01*
X128798298Y-124859006D01*
X128781395Y-124879980D01*
X128352980Y-125308395D01*
X128290668Y-125342421D01*
X128263885Y-125345300D01*
X127154736Y-125345300D01*
X127154726Y-125345301D01*
X127080499Y-125360065D01*
X126996315Y-125416316D01*
X126940066Y-125500497D01*
X126925300Y-125574730D01*
X126925300Y-127225063D01*
X126925301Y-127225073D01*
X126940065Y-127299300D01*
X126996316Y-127383484D01*
X127080497Y-127439733D01*
X127080499Y-127439734D01*
X127154733Y-127454500D01*
X128805066Y-127454499D01*
X128805069Y-127454498D01*
X128805073Y-127454498D01*
X128854326Y-127444701D01*
X128879301Y-127439734D01*
X128963484Y-127383484D01*
X129019734Y-127299301D01*
X129034500Y-127225067D01*
X129034499Y-125758113D01*
X129054501Y-125689993D01*
X129071404Y-125669019D01*
X129250205Y-125490218D01*
X129312517Y-125456192D01*
X129383332Y-125461257D01*
X129440168Y-125503804D01*
X129464979Y-125570324D01*
X129465300Y-125579313D01*
X129465300Y-127225063D01*
X129465301Y-127225073D01*
X129480065Y-127299300D01*
X129536316Y-127383484D01*
X129620497Y-127439733D01*
X129620499Y-127439734D01*
X129694733Y-127454500D01*
X131345066Y-127454499D01*
X131345069Y-127454498D01*
X131345073Y-127454498D01*
X131365986Y-127450338D01*
X131419301Y-127439734D01*
X131503484Y-127383484D01*
X131559734Y-127299301D01*
X131574500Y-127225067D01*
X131574499Y-125574734D01*
X131574498Y-125574731D01*
X131574498Y-125574726D01*
X131559734Y-125500499D01*
X131533513Y-125461257D01*
X131503484Y-125416316D01*
X131503483Y-125416315D01*
X131419302Y-125360066D01*
X131345067Y-125345300D01*
X129694736Y-125345300D01*
X129694724Y-125345302D01*
X129681492Y-125347934D01*
X129610778Y-125341605D01*
X129554712Y-125298050D01*
X129531093Y-125231097D01*
X129547422Y-125162003D01*
X129547584Y-125161719D01*
X129555301Y-125148354D01*
X129581300Y-125051325D01*
X129581300Y-119980599D01*
X129601302Y-119912478D01*
X129654958Y-119865985D01*
X129707295Y-119854599D01*
X131345066Y-119854599D01*
X131345069Y-119854598D01*
X131345073Y-119854598D01*
X131394326Y-119844801D01*
X131419301Y-119839834D01*
X131503484Y-119783584D01*
X131559734Y-119699401D01*
X131574500Y-119625167D01*
X131574499Y-118158211D01*
X131594501Y-118090091D01*
X131648157Y-118043598D01*
X131718431Y-118033494D01*
X131783011Y-118062987D01*
X131789594Y-118069117D01*
X131968395Y-118247918D01*
X132002421Y-118310230D01*
X132005300Y-118337013D01*
X132005300Y-119625163D01*
X132005301Y-119625173D01*
X132020065Y-119699400D01*
X132076316Y-119783584D01*
X132160497Y-119839833D01*
X132160499Y-119839834D01*
X132234733Y-119854600D01*
X133693600Y-119854599D01*
X133761721Y-119874601D01*
X133808214Y-119928257D01*
X133819600Y-119980599D01*
X133819600Y-124984347D01*
X133819598Y-125051326D01*
X133819603Y-125051366D01*
X133819839Y-125052217D01*
X133830978Y-125093788D01*
X133830979Y-125093793D01*
X133845594Y-125148347D01*
X133850188Y-125156303D01*
X133866924Y-125225298D01*
X133843702Y-125292390D01*
X133787894Y-125336275D01*
X133741067Y-125345300D01*
X132234736Y-125345300D01*
X132234726Y-125345301D01*
X132160499Y-125360065D01*
X132076315Y-125416316D01*
X132020066Y-125500497D01*
X132005300Y-125574730D01*
X132005300Y-127180248D01*
X131985298Y-127248369D01*
X131968395Y-127269343D01*
X131655993Y-127581745D01*
X128728545Y-130509195D01*
X128666233Y-130543220D01*
X128639450Y-130546100D01*
X106058351Y-130546100D01*
X105990230Y-130526098D01*
X105943737Y-130472442D01*
X105933633Y-130402168D01*
X105936641Y-130387499D01*
X105945100Y-130355933D01*
X105945100Y-130208667D01*
X105906984Y-130066418D01*
X105833351Y-129938882D01*
X105833349Y-129938880D01*
X105833345Y-129938875D01*
X105729224Y-129834754D01*
X105729214Y-129834746D01*
X105601682Y-129761116D01*
X105459433Y-129723000D01*
X105312167Y-129723000D01*
X105217334Y-129748410D01*
X105169917Y-129761116D01*
X105042385Y-129834746D01*
X105042375Y-129834754D01*
X105013235Y-129863895D01*
X104950923Y-129897921D01*
X104924140Y-129900800D01*
X103242659Y-129900800D01*
X103242643Y-129900799D01*
X103234925Y-129900799D01*
X103134475Y-129900799D01*
X103085961Y-129913798D01*
X103037445Y-129926798D01*
X102950456Y-129977021D01*
X102950446Y-129977029D01*
X100715548Y-132211927D01*
X100653236Y-132245953D01*
X100582420Y-132240888D01*
X100525585Y-132198341D01*
X100500774Y-132131821D01*
X100500453Y-132122832D01*
X100500452Y-131574773D01*
X100500434Y-124562030D01*
X115327400Y-124562030D01*
X115327400Y-126136163D01*
X115327401Y-126136173D01*
X115342165Y-126210400D01*
X115398416Y-126294584D01*
X115482597Y-126350833D01*
X115482599Y-126350834D01*
X115556833Y-126365600D01*
X117130966Y-126365599D01*
X117130969Y-126365598D01*
X117130973Y-126365598D01*
X117180226Y-126355801D01*
X117205201Y-126350834D01*
X117289384Y-126294584D01*
X117345634Y-126210401D01*
X117360400Y-126136167D01*
X117360399Y-124562034D01*
X117360398Y-124562030D01*
X117360398Y-124562026D01*
X117345634Y-124487799D01*
X117289383Y-124403615D01*
X117205202Y-124347366D01*
X117130967Y-124332600D01*
X115556836Y-124332600D01*
X115556826Y-124332601D01*
X115482599Y-124347365D01*
X115398415Y-124403616D01*
X115342166Y-124487797D01*
X115327400Y-124562030D01*
X100500434Y-124562030D01*
X100500420Y-119473531D01*
X117640599Y-119473531D01*
X117678716Y-119615782D01*
X117752346Y-119743314D01*
X117752348Y-119743317D01*
X117752349Y-119743318D01*
X117780695Y-119771664D01*
X117814720Y-119833974D01*
X117817600Y-119860759D01*
X117817600Y-121648872D01*
X117817599Y-121749319D01*
X117817599Y-121749320D01*
X117843597Y-121846352D01*
X117893821Y-121933343D01*
X117893823Y-121933346D01*
X117893824Y-121933347D01*
X117941074Y-121980597D01*
X121090615Y-125130205D01*
X121124640Y-125192518D01*
X121119574Y-125263334D01*
X121077027Y-125320169D01*
X121010506Y-125344979D01*
X121001519Y-125345300D01*
X119534736Y-125345300D01*
X119534726Y-125345301D01*
X119460499Y-125360065D01*
X119376315Y-125416316D01*
X119320066Y-125500497D01*
X119305300Y-125574730D01*
X119305300Y-127225063D01*
X119305301Y-127225073D01*
X119320065Y-127299300D01*
X119376316Y-127383484D01*
X119460497Y-127439733D01*
X119460499Y-127439734D01*
X119534733Y-127454500D01*
X121185066Y-127454499D01*
X121185069Y-127454498D01*
X121185073Y-127454498D01*
X121234326Y-127444701D01*
X121259301Y-127439734D01*
X121343484Y-127383484D01*
X121399734Y-127299301D01*
X121414500Y-127225067D01*
X121414499Y-125758289D01*
X121434501Y-125690169D01*
X121488157Y-125643676D01*
X121558431Y-125633572D01*
X121623011Y-125663065D01*
X121629595Y-125669196D01*
X121808396Y-125848001D01*
X121842421Y-125910313D01*
X121845300Y-125937095D01*
X121845300Y-127225063D01*
X121845301Y-127225073D01*
X121860065Y-127299300D01*
X121916316Y-127383484D01*
X122000497Y-127439733D01*
X122000499Y-127439734D01*
X122074733Y-127454500D01*
X123725066Y-127454499D01*
X123725069Y-127454498D01*
X123725073Y-127454498D01*
X123774326Y-127444701D01*
X123799301Y-127439734D01*
X123883484Y-127383484D01*
X123939734Y-127299301D01*
X123954500Y-127225067D01*
X123954499Y-125574734D01*
X123954499Y-125574733D01*
X123954499Y-125574731D01*
X123954499Y-125574730D01*
X124385300Y-125574730D01*
X124385300Y-127225063D01*
X124385301Y-127225073D01*
X124400065Y-127299300D01*
X124456316Y-127383484D01*
X124540497Y-127439733D01*
X124540499Y-127439734D01*
X124614733Y-127454500D01*
X126265066Y-127454499D01*
X126265069Y-127454498D01*
X126265073Y-127454498D01*
X126314326Y-127444701D01*
X126339301Y-127439734D01*
X126423484Y-127383484D01*
X126479734Y-127299301D01*
X126494500Y-127225067D01*
X126494499Y-125574734D01*
X126494498Y-125574731D01*
X126494498Y-125574726D01*
X126479734Y-125500499D01*
X126453513Y-125461257D01*
X126423484Y-125416316D01*
X126423483Y-125416315D01*
X126339302Y-125360066D01*
X126265067Y-125345300D01*
X124614736Y-125345300D01*
X124614726Y-125345301D01*
X124540499Y-125360065D01*
X124456315Y-125416316D01*
X124400066Y-125500497D01*
X124385300Y-125574730D01*
X123954499Y-125574730D01*
X123939734Y-125500499D01*
X123913513Y-125461257D01*
X123883484Y-125416316D01*
X123883483Y-125416315D01*
X123799302Y-125360066D01*
X123725069Y-125345300D01*
X123725067Y-125345300D01*
X122436931Y-125345300D01*
X122368810Y-125325298D01*
X122347835Y-125308394D01*
X118617504Y-121577983D01*
X118583479Y-121515671D01*
X118580600Y-121488889D01*
X118580600Y-119862359D01*
X118600602Y-119794238D01*
X118617501Y-119773267D01*
X118647451Y-119743318D01*
X118721084Y-119615782D01*
X118759200Y-119473533D01*
X118759200Y-119326267D01*
X118721084Y-119184018D01*
X118674995Y-119104189D01*
X118647453Y-119056485D01*
X118647445Y-119056475D01*
X118543324Y-118952354D01*
X118543314Y-118952346D01*
X118415782Y-118878716D01*
X118415733Y-118878703D01*
X118273533Y-118840600D01*
X118126267Y-118840600D01*
X118031434Y-118866010D01*
X117984017Y-118878716D01*
X117856485Y-118952346D01*
X117856475Y-118952354D01*
X117752354Y-119056475D01*
X117752346Y-119056485D01*
X117678716Y-119184017D01*
X117640600Y-119326268D01*
X117640600Y-119473531D01*
X117640599Y-119473531D01*
X100500420Y-119473531D01*
X100500416Y-117974830D01*
X121845300Y-117974830D01*
X121845300Y-119625163D01*
X121845301Y-119625173D01*
X121860065Y-119699400D01*
X121916316Y-119783584D01*
X122000497Y-119839833D01*
X122000499Y-119839834D01*
X122074733Y-119854600D01*
X123725066Y-119854599D01*
X123725069Y-119854598D01*
X123725073Y-119854598D01*
X123774326Y-119844801D01*
X123799301Y-119839834D01*
X123883484Y-119783584D01*
X123939734Y-119699401D01*
X123954500Y-119625167D01*
X123954499Y-117974834D01*
X123954499Y-117974833D01*
X123954499Y-117974831D01*
X123954499Y-117974830D01*
X124385300Y-117974830D01*
X124385300Y-119625163D01*
X124385301Y-119625173D01*
X124400065Y-119699400D01*
X124456316Y-119783584D01*
X124540497Y-119839833D01*
X124540499Y-119839834D01*
X124614733Y-119854600D01*
X126265066Y-119854599D01*
X126265069Y-119854598D01*
X126265073Y-119854598D01*
X126314326Y-119844801D01*
X126339301Y-119839834D01*
X126423484Y-119783584D01*
X126479734Y-119699401D01*
X126494500Y-119625167D01*
X126494499Y-117974834D01*
X126494498Y-117974831D01*
X126494498Y-117974826D01*
X126479734Y-117900599D01*
X126423483Y-117816415D01*
X126339302Y-117760166D01*
X126265067Y-117745400D01*
X124614736Y-117745400D01*
X124614726Y-117745401D01*
X124540499Y-117760165D01*
X124456315Y-117816416D01*
X124400066Y-117900597D01*
X124385300Y-117974830D01*
X123954499Y-117974830D01*
X123939734Y-117900599D01*
X123883483Y-117816415D01*
X123799302Y-117760166D01*
X123725067Y-117745400D01*
X122074736Y-117745400D01*
X122074726Y-117745401D01*
X122000499Y-117760165D01*
X121916315Y-117816416D01*
X121860066Y-117900597D01*
X121845300Y-117974830D01*
X100500416Y-117974830D01*
X100500411Y-115958898D01*
X100520413Y-115890780D01*
X100574068Y-115844286D01*
X100626411Y-115832900D01*
X103039317Y-115832900D01*
X103039322Y-115832901D01*
X103101913Y-115832900D01*
X103164491Y-115832900D01*
X103164493Y-115832900D01*
X103164502Y-115832899D01*
X103164504Y-115832899D01*
X103225370Y-115820790D01*
X103287269Y-115808478D01*
X103287271Y-115808476D01*
X103287481Y-115808435D01*
X103289359Y-115807696D01*
X103292084Y-115806677D01*
X103294620Y-115805433D01*
X103333775Y-115789214D01*
X103398825Y-115762270D01*
X103402505Y-115760896D01*
X103402801Y-115760763D01*
X103404598Y-115759632D01*
X103407385Y-115757591D01*
X103465613Y-115718684D01*
X103503375Y-115693451D01*
X103506594Y-115691460D01*
X103508309Y-115689792D01*
X103511717Y-115686564D01*
X103513325Y-115684708D01*
X103562636Y-115635397D01*
X103595525Y-115602508D01*
X103595526Y-115602505D01*
X103600977Y-115597055D01*
X103600983Y-115597046D01*
X106045684Y-113152249D01*
X106086016Y-113111916D01*
X106087869Y-113110310D01*
X106091105Y-113106893D01*
X106092767Y-113105184D01*
X106094747Y-113101983D01*
X106126692Y-113054173D01*
X106158890Y-113005986D01*
X106160942Y-113003183D01*
X106162067Y-113001394D01*
X106162201Y-113001096D01*
X106163578Y-112997408D01*
X106164897Y-112994225D01*
X106190524Y-112932352D01*
X106206736Y-112893212D01*
X106207978Y-112890678D01*
X106209000Y-112887947D01*
X106209741Y-112886064D01*
X106226531Y-112801648D01*
X106226531Y-112801642D01*
X106226535Y-112801622D01*
X106234200Y-112763091D01*
X106234200Y-112763083D01*
X106234201Y-112763078D01*
X106234200Y-112685969D01*
X106234200Y-107720176D01*
X106234202Y-107636722D01*
X106234200Y-107636711D01*
X106234200Y-107636709D01*
X106226745Y-107599229D01*
X106225460Y-107592767D01*
X106210153Y-107515808D01*
X106209837Y-107514080D01*
X106209818Y-107514017D01*
X106209534Y-107513342D01*
X106177828Y-107436795D01*
X106177827Y-107436794D01*
X106161874Y-107398278D01*
X106119812Y-107335328D01*
X106119812Y-107335327D01*
X106119810Y-107335326D01*
X106092333Y-107294202D01*
X106092329Y-107294198D01*
X106092325Y-107294192D01*
X106042567Y-107244434D01*
X104691467Y-105893279D01*
X103596192Y-104797960D01*
X103596162Y-104797928D01*
X103550484Y-104752251D01*
X103550482Y-104752248D01*
X103550482Y-104752249D01*
X103504518Y-104706283D01*
X103504517Y-104706282D01*
X103504513Y-104706278D01*
X103433880Y-104659083D01*
X103433879Y-104659082D01*
X103400433Y-104636733D01*
X103400427Y-104636730D01*
X103400422Y-104636727D01*
X103384759Y-104630239D01*
X103331274Y-104608084D01*
X103331273Y-104608084D01*
X103285374Y-104589071D01*
X103284812Y-104588834D01*
X103284782Y-104588824D01*
X103238560Y-104579630D01*
X103222870Y-104576509D01*
X103222868Y-104576508D01*
X103222867Y-104576508D01*
X103192022Y-104570372D01*
X103162004Y-104564401D01*
X103161998Y-104564400D01*
X103161997Y-104564400D01*
X103161996Y-104564400D01*
X103161991Y-104564400D01*
X103099413Y-104564400D01*
X103036822Y-104564399D01*
X103036821Y-104564399D01*
X103030610Y-104564399D01*
X103030590Y-104564400D01*
X100626400Y-104564400D01*
X100558279Y-104544398D01*
X100511786Y-104490742D01*
X100500400Y-104438400D01*
X100500400Y-100212830D01*
X109983500Y-100212830D01*
X109983500Y-101786963D01*
X109983501Y-101786973D01*
X109998265Y-101861200D01*
X110054516Y-101945384D01*
X110138697Y-102001633D01*
X110138699Y-102001634D01*
X110212933Y-102016400D01*
X111787066Y-102016399D01*
X111787069Y-102016398D01*
X111787073Y-102016398D01*
X111836326Y-102006601D01*
X111861301Y-102001634D01*
X111945484Y-101945384D01*
X112001734Y-101861201D01*
X112016500Y-101786967D01*
X112016499Y-100212834D01*
X112016498Y-100212830D01*
X112016498Y-100212826D01*
X112001734Y-100138599D01*
X111945483Y-100054415D01*
X111861302Y-99998166D01*
X111787067Y-99983400D01*
X110212936Y-99983400D01*
X110212926Y-99983401D01*
X110138699Y-99998165D01*
X110054515Y-100054416D01*
X109998266Y-100138597D01*
X109983500Y-100212830D01*
X100500400Y-100212830D01*
X100500400Y-95288730D01*
X113662200Y-95288730D01*
X113662200Y-96862863D01*
X113662201Y-96862873D01*
X113676965Y-96937100D01*
X113733216Y-97021284D01*
X113817397Y-97077533D01*
X113817399Y-97077534D01*
X113891633Y-97092300D01*
X115465766Y-97092299D01*
X115465769Y-97092298D01*
X115465773Y-97092298D01*
X115515026Y-97082501D01*
X115540001Y-97077534D01*
X115624184Y-97021284D01*
X115680434Y-96937101D01*
X115695200Y-96862867D01*
X115695199Y-95288734D01*
X115695198Y-95288730D01*
X115695198Y-95288726D01*
X115680434Y-95214499D01*
X115624183Y-95130315D01*
X115540002Y-95074066D01*
X115465767Y-95059300D01*
X113891636Y-95059300D01*
X113891626Y-95059301D01*
X113817399Y-95074065D01*
X113733215Y-95130316D01*
X113676966Y-95214497D01*
X113662200Y-95288730D01*
X100500400Y-95288730D01*
X100500400Y-90212830D01*
X109983500Y-90212830D01*
X109983500Y-91786963D01*
X109983501Y-91786973D01*
X109998265Y-91861200D01*
X110054516Y-91945384D01*
X110138697Y-92001633D01*
X110138699Y-92001634D01*
X110212933Y-92016400D01*
X111787066Y-92016399D01*
X111787069Y-92016398D01*
X111787073Y-92016398D01*
X111836326Y-92006601D01*
X111861301Y-92001634D01*
X111945484Y-91945384D01*
X112001734Y-91861201D01*
X112016500Y-91786967D01*
X112016499Y-90212834D01*
X112016498Y-90212830D01*
X112016498Y-90212826D01*
X112001734Y-90138599D01*
X111945483Y-90054415D01*
X111861302Y-89998166D01*
X111787067Y-89983400D01*
X110212936Y-89983400D01*
X110212926Y-89983401D01*
X110138699Y-89998165D01*
X110054515Y-90054416D01*
X109998266Y-90138597D01*
X109983500Y-90212830D01*
X100500400Y-90212830D01*
X100500400Y-82212930D01*
X109983500Y-82212930D01*
X109983500Y-83787063D01*
X109983501Y-83787073D01*
X109998265Y-83861300D01*
X110054516Y-83945484D01*
X110138697Y-84001733D01*
X110138699Y-84001734D01*
X110212933Y-84016500D01*
X111787066Y-84016499D01*
X111787069Y-84016498D01*
X111787073Y-84016498D01*
X111836326Y-84006701D01*
X111861301Y-84001734D01*
X111945484Y-83945484D01*
X112001734Y-83861301D01*
X112016500Y-83787067D01*
X112016499Y-82212934D01*
X112016498Y-82212930D01*
X112016498Y-82212926D01*
X112001734Y-82138699D01*
X111945483Y-82054515D01*
X111861302Y-81998266D01*
X111787067Y-81983500D01*
X110212936Y-81983500D01*
X110212926Y-81983501D01*
X110138699Y-81998265D01*
X110054515Y-82054516D01*
X109998266Y-82138697D01*
X109983500Y-82212930D01*
X100500400Y-82212930D01*
X100500400Y-79934108D01*
X112874600Y-79934108D01*
X112874600Y-93934208D01*
X112874600Y-94065992D01*
X112899567Y-94159173D01*
X112908707Y-94193283D01*
X112908710Y-94193290D01*
X112974597Y-94307410D01*
X112974605Y-94307420D01*
X113067779Y-94400594D01*
X113067784Y-94400598D01*
X113067786Y-94400600D01*
X113181914Y-94466492D01*
X113309208Y-94500600D01*
X113309210Y-94500600D01*
X126440990Y-94500600D01*
X126440992Y-94500600D01*
X126568286Y-94466492D01*
X126682414Y-94400600D01*
X126775600Y-94307414D01*
X126841492Y-94193286D01*
X126875600Y-94065992D01*
X126875600Y-79934108D01*
X126841492Y-79806814D01*
X126775600Y-79692686D01*
X126775598Y-79692684D01*
X126775594Y-79692679D01*
X126682420Y-79599505D01*
X126682410Y-79599497D01*
X126568290Y-79533610D01*
X126568287Y-79533609D01*
X126568286Y-79533608D01*
X126568284Y-79533607D01*
X126568283Y-79533607D01*
X126534173Y-79524467D01*
X126440992Y-79499500D01*
X113440992Y-79499500D01*
X113309208Y-79499500D01*
X113240994Y-79517777D01*
X113181916Y-79533607D01*
X113181909Y-79533610D01*
X113067789Y-79599497D01*
X113067779Y-79599505D01*
X112974605Y-79692679D01*
X112974597Y-79692689D01*
X112908710Y-79806809D01*
X112908708Y-79806814D01*
X112874600Y-79934108D01*
X100500400Y-79934108D01*
X100500400Y-73983030D01*
X108483600Y-73983030D01*
X108483600Y-75557163D01*
X108483601Y-75557173D01*
X108498365Y-75631400D01*
X108554616Y-75715584D01*
X108638797Y-75771833D01*
X108638799Y-75771834D01*
X108713033Y-75786600D01*
X110287166Y-75786599D01*
X110287169Y-75786598D01*
X110287173Y-75786598D01*
X110336426Y-75776801D01*
X110361401Y-75771834D01*
X110445584Y-75715584D01*
X110501834Y-75631401D01*
X110516600Y-75557167D01*
X110516599Y-73983034D01*
X110516598Y-73983030D01*
X110516598Y-73983026D01*
X110501834Y-73908799D01*
X110445583Y-73824615D01*
X110361402Y-73768366D01*
X110287167Y-73753600D01*
X108713036Y-73753600D01*
X108713026Y-73753601D01*
X108638799Y-73768365D01*
X108554615Y-73824616D01*
X108498366Y-73908797D01*
X108483600Y-73983030D01*
X100500400Y-73983030D01*
X100500400Y-70259604D01*
X100520402Y-70191483D01*
X100537305Y-70170509D01*
X100883084Y-69824730D01*
X121595600Y-69824730D01*
X121595600Y-71174863D01*
X121595601Y-71174873D01*
X121610365Y-71249100D01*
X121666616Y-71333284D01*
X121750797Y-71389533D01*
X121750799Y-71389534D01*
X121825033Y-71404300D01*
X123175166Y-71404299D01*
X123175169Y-71404298D01*
X123175173Y-71404298D01*
X123224426Y-71394501D01*
X123249401Y-71389534D01*
X123333584Y-71333284D01*
X123389834Y-71249101D01*
X123404600Y-71174867D01*
X123404599Y-69974730D01*
X123745900Y-69974730D01*
X123745900Y-71024863D01*
X123745901Y-71024873D01*
X123760665Y-71099100D01*
X123816916Y-71183284D01*
X123901097Y-71239533D01*
X123901099Y-71239534D01*
X123975333Y-71254300D01*
X125025466Y-71254299D01*
X125025469Y-71254298D01*
X125025473Y-71254298D01*
X125074726Y-71244501D01*
X125099701Y-71239534D01*
X125183884Y-71183284D01*
X125240134Y-71099101D01*
X125254900Y-71024867D01*
X125254899Y-69974734D01*
X125254899Y-69974733D01*
X125254899Y-69974731D01*
X125254899Y-69974730D01*
X125745900Y-69974730D01*
X125745900Y-71024863D01*
X125745901Y-71024873D01*
X125760665Y-71099100D01*
X125816916Y-71183284D01*
X125901097Y-71239533D01*
X125901099Y-71239534D01*
X125975333Y-71254300D01*
X127025466Y-71254299D01*
X127025469Y-71254298D01*
X127025473Y-71254298D01*
X127074726Y-71244501D01*
X127099701Y-71239534D01*
X127183884Y-71183284D01*
X127240134Y-71099101D01*
X127254900Y-71024867D01*
X127254899Y-69974734D01*
X127254899Y-69974733D01*
X127254899Y-69974731D01*
X127254899Y-69974730D01*
X127745800Y-69974730D01*
X127745800Y-71024863D01*
X127745801Y-71024873D01*
X127760565Y-71099100D01*
X127816816Y-71183284D01*
X127900997Y-71239533D01*
X127900999Y-71239534D01*
X127975233Y-71254300D01*
X129025366Y-71254299D01*
X129025369Y-71254298D01*
X129025373Y-71254298D01*
X129074626Y-71244501D01*
X129099601Y-71239534D01*
X129183784Y-71183284D01*
X129240034Y-71099101D01*
X129254800Y-71024867D01*
X129254799Y-69974734D01*
X129254798Y-69974731D01*
X129254798Y-69974726D01*
X129240034Y-69900500D01*
X129240034Y-69900499D01*
X129189406Y-69824730D01*
X129595800Y-69824730D01*
X129595800Y-71174863D01*
X129595801Y-71174873D01*
X129610565Y-71249100D01*
X129666816Y-71333284D01*
X129750997Y-71389533D01*
X129750999Y-71389534D01*
X129825233Y-71404300D01*
X131175366Y-71404299D01*
X131175369Y-71404298D01*
X131175373Y-71404298D01*
X131224626Y-71394501D01*
X131249601Y-71389534D01*
X131333784Y-71333284D01*
X131390034Y-71249101D01*
X131390033Y-71249101D01*
X131395435Y-71241018D01*
X131449912Y-71195490D01*
X131520356Y-71186643D01*
X131584400Y-71217284D01*
X131604965Y-71241018D01*
X131666616Y-71333284D01*
X131750797Y-71389533D01*
X131750799Y-71389534D01*
X131825033Y-71404300D01*
X133175166Y-71404299D01*
X133175169Y-71404298D01*
X133175173Y-71404298D01*
X133224426Y-71394501D01*
X133249401Y-71389534D01*
X133333584Y-71333284D01*
X133389834Y-71249101D01*
X133389834Y-71249099D01*
X133395435Y-71240718D01*
X133449913Y-71195191D01*
X133520356Y-71186344D01*
X133584400Y-71216985D01*
X133604965Y-71240718D01*
X133610565Y-71249100D01*
X133610566Y-71249101D01*
X133666816Y-71333284D01*
X133666817Y-71333285D01*
X133750997Y-71389533D01*
X133750999Y-71389534D01*
X133825233Y-71404300D01*
X135175366Y-71404299D01*
X135175369Y-71404298D01*
X135175373Y-71404298D01*
X135224626Y-71394501D01*
X135249601Y-71389534D01*
X135333784Y-71333284D01*
X135390034Y-71249101D01*
X135404800Y-71174867D01*
X135404799Y-69824734D01*
X135404798Y-69824730D01*
X135404798Y-69824726D01*
X135390034Y-69750499D01*
X135351471Y-69692786D01*
X135333784Y-69666316D01*
X135333783Y-69666315D01*
X135249602Y-69610066D01*
X135175367Y-69595300D01*
X133825236Y-69595300D01*
X133825226Y-69595301D01*
X133750999Y-69610065D01*
X133666816Y-69666315D01*
X133604963Y-69758882D01*
X133550485Y-69804409D01*
X133480042Y-69813255D01*
X133415998Y-69782613D01*
X133395434Y-69758880D01*
X133351271Y-69692786D01*
X133333584Y-69666316D01*
X133333583Y-69666315D01*
X133249402Y-69610066D01*
X133175167Y-69595300D01*
X131825036Y-69595300D01*
X131825026Y-69595301D01*
X131750799Y-69610065D01*
X131666616Y-69666315D01*
X131604963Y-69758583D01*
X131550485Y-69804109D01*
X131480042Y-69812956D01*
X131415998Y-69782314D01*
X131395434Y-69758581D01*
X131390034Y-69750499D01*
X131333784Y-69666316D01*
X131333783Y-69666315D01*
X131249602Y-69610066D01*
X131175367Y-69595300D01*
X129825236Y-69595300D01*
X129825226Y-69595301D01*
X129750999Y-69610065D01*
X129666815Y-69666316D01*
X129610566Y-69750497D01*
X129595800Y-69824730D01*
X129189406Y-69824730D01*
X129183784Y-69816316D01*
X129179203Y-69813255D01*
X129099602Y-69760066D01*
X129025367Y-69745300D01*
X127975236Y-69745300D01*
X127975226Y-69745301D01*
X127900999Y-69760065D01*
X127816815Y-69816316D01*
X127760566Y-69900497D01*
X127745800Y-69974730D01*
X127254899Y-69974730D01*
X127240134Y-69900499D01*
X127183883Y-69816315D01*
X127099702Y-69760066D01*
X127025467Y-69745300D01*
X125975336Y-69745300D01*
X125975326Y-69745301D01*
X125901099Y-69760065D01*
X125816915Y-69816316D01*
X125760666Y-69900497D01*
X125745900Y-69974730D01*
X125254899Y-69974730D01*
X125240134Y-69900499D01*
X125183883Y-69816315D01*
X125099702Y-69760066D01*
X125025467Y-69745300D01*
X123975336Y-69745300D01*
X123975326Y-69745301D01*
X123901099Y-69760065D01*
X123816915Y-69816316D01*
X123760666Y-69900497D01*
X123745900Y-69974730D01*
X123404599Y-69974730D01*
X123404599Y-69824734D01*
X123404598Y-69824730D01*
X123404598Y-69824726D01*
X123389834Y-69750499D01*
X123351271Y-69692786D01*
X123333584Y-69666316D01*
X123333583Y-69666315D01*
X123249402Y-69610066D01*
X123175167Y-69595300D01*
X121825036Y-69595300D01*
X121825026Y-69595301D01*
X121750799Y-69610065D01*
X121666615Y-69666316D01*
X121610366Y-69750497D01*
X121595600Y-69824730D01*
X100883084Y-69824730D01*
X102733084Y-67974730D01*
X119745900Y-67974730D01*
X119745900Y-69024863D01*
X119745901Y-69024873D01*
X119760665Y-69099100D01*
X119816916Y-69183284D01*
X119901097Y-69239533D01*
X119901099Y-69239534D01*
X119975333Y-69254300D01*
X121025466Y-69254299D01*
X121025469Y-69254298D01*
X121025473Y-69254298D01*
X121074726Y-69244501D01*
X121099701Y-69239534D01*
X121183884Y-69183284D01*
X121240134Y-69099101D01*
X121254900Y-69024867D01*
X121254899Y-67974734D01*
X121254899Y-67974733D01*
X121254899Y-67974731D01*
X121254899Y-67974730D01*
X121745600Y-67974730D01*
X121745600Y-69024863D01*
X121745601Y-69024873D01*
X121760365Y-69099100D01*
X121816616Y-69183284D01*
X121900797Y-69239533D01*
X121900799Y-69239534D01*
X121975033Y-69254300D01*
X123025166Y-69254299D01*
X123025169Y-69254298D01*
X123025173Y-69254298D01*
X123074426Y-69244501D01*
X123099401Y-69239534D01*
X123183584Y-69183284D01*
X123239834Y-69099101D01*
X123254600Y-69024867D01*
X123254599Y-67974734D01*
X123254598Y-67974732D01*
X123254598Y-67974727D01*
X123254559Y-67974530D01*
X123745900Y-67974530D01*
X123745900Y-69024663D01*
X123745901Y-69024673D01*
X123760665Y-69098900D01*
X123816916Y-69183084D01*
X123901097Y-69239333D01*
X123901099Y-69239334D01*
X123975333Y-69254100D01*
X125025466Y-69254099D01*
X125025469Y-69254098D01*
X125025473Y-69254098D01*
X125074726Y-69244301D01*
X125099701Y-69239334D01*
X125183884Y-69183084D01*
X125240134Y-69098901D01*
X125254900Y-69024667D01*
X125254899Y-67974534D01*
X125254899Y-67974533D01*
X125254899Y-67974531D01*
X125254899Y-67974530D01*
X125745900Y-67974530D01*
X125745900Y-69024663D01*
X125745901Y-69024673D01*
X125760665Y-69098900D01*
X125816916Y-69183084D01*
X125901097Y-69239333D01*
X125901099Y-69239334D01*
X125975333Y-69254100D01*
X127025466Y-69254099D01*
X127025469Y-69254098D01*
X127025473Y-69254098D01*
X127074726Y-69244301D01*
X127099701Y-69239334D01*
X127183884Y-69183084D01*
X127240134Y-69098901D01*
X127254900Y-69024667D01*
X127254899Y-67974534D01*
X127254899Y-67974533D01*
X127254899Y-67974531D01*
X127254899Y-67974530D01*
X127745900Y-67974530D01*
X127745900Y-69024663D01*
X127745901Y-69024673D01*
X127760665Y-69098900D01*
X127816916Y-69183084D01*
X127901097Y-69239333D01*
X127901099Y-69239334D01*
X127975333Y-69254100D01*
X129025466Y-69254099D01*
X129025469Y-69254098D01*
X129025473Y-69254098D01*
X129074726Y-69244301D01*
X129099701Y-69239334D01*
X129183884Y-69183084D01*
X129240134Y-69098901D01*
X129254900Y-69024667D01*
X129254899Y-67974534D01*
X129254899Y-67974533D01*
X129254899Y-67974531D01*
X129254899Y-67974530D01*
X129745800Y-67974530D01*
X129745800Y-69024663D01*
X129745801Y-69024673D01*
X129760565Y-69098900D01*
X129816816Y-69183084D01*
X129900997Y-69239333D01*
X129900999Y-69239334D01*
X129975233Y-69254100D01*
X131025366Y-69254099D01*
X131025369Y-69254098D01*
X131025373Y-69254098D01*
X131074626Y-69244301D01*
X131099601Y-69239334D01*
X131183784Y-69183084D01*
X131240034Y-69098901D01*
X131254800Y-69024667D01*
X131254799Y-67974730D01*
X131745600Y-67974730D01*
X131745600Y-69024863D01*
X131745601Y-69024873D01*
X131760365Y-69099100D01*
X131816616Y-69183284D01*
X131900797Y-69239533D01*
X131900799Y-69239534D01*
X131975033Y-69254300D01*
X133025166Y-69254299D01*
X133025169Y-69254298D01*
X133025173Y-69254298D01*
X133074426Y-69244501D01*
X133099401Y-69239534D01*
X133183584Y-69183284D01*
X133239834Y-69099101D01*
X133254600Y-69024867D01*
X133254599Y-67974734D01*
X133254599Y-67974733D01*
X133254599Y-67974731D01*
X133254599Y-67974730D01*
X133745800Y-67974730D01*
X133745800Y-69024863D01*
X133745801Y-69024873D01*
X133760565Y-69099100D01*
X133816816Y-69183284D01*
X133900997Y-69239533D01*
X133900999Y-69239534D01*
X133975233Y-69254300D01*
X135025366Y-69254299D01*
X135025369Y-69254298D01*
X135025373Y-69254298D01*
X135074626Y-69244501D01*
X135099601Y-69239534D01*
X135183784Y-69183284D01*
X135240034Y-69099101D01*
X135254800Y-69024867D01*
X135254799Y-67974734D01*
X135254798Y-67974731D01*
X135254798Y-67974726D01*
X135240034Y-67900499D01*
X135183783Y-67816315D01*
X135099602Y-67760066D01*
X135025367Y-67745300D01*
X133975236Y-67745300D01*
X133975226Y-67745301D01*
X133900999Y-67760065D01*
X133816815Y-67816316D01*
X133760566Y-67900497D01*
X133745800Y-67974730D01*
X133254599Y-67974730D01*
X133239834Y-67900499D01*
X133183583Y-67816315D01*
X133099402Y-67760066D01*
X133025167Y-67745300D01*
X131975036Y-67745300D01*
X131975026Y-67745301D01*
X131900799Y-67760065D01*
X131816615Y-67816316D01*
X131760366Y-67900497D01*
X131745600Y-67974730D01*
X131254799Y-67974730D01*
X131254799Y-67974534D01*
X131254798Y-67974531D01*
X131254798Y-67974526D01*
X131240034Y-67900299D01*
X131240033Y-67900297D01*
X131183784Y-67816116D01*
X131183783Y-67816115D01*
X131099602Y-67759866D01*
X131025367Y-67745100D01*
X129975236Y-67745100D01*
X129975226Y-67745101D01*
X129900999Y-67759865D01*
X129816815Y-67816116D01*
X129760566Y-67900297D01*
X129745800Y-67974530D01*
X129254899Y-67974530D01*
X129240134Y-67900299D01*
X129240133Y-67900297D01*
X129183884Y-67816116D01*
X129183883Y-67816115D01*
X129099702Y-67759866D01*
X129025467Y-67745100D01*
X127975336Y-67745100D01*
X127975326Y-67745101D01*
X127901099Y-67759865D01*
X127816915Y-67816116D01*
X127760666Y-67900297D01*
X127745900Y-67974530D01*
X127254899Y-67974530D01*
X127240134Y-67900299D01*
X127240133Y-67900297D01*
X127183884Y-67816116D01*
X127183883Y-67816115D01*
X127099702Y-67759866D01*
X127025467Y-67745100D01*
X125975336Y-67745100D01*
X125975326Y-67745101D01*
X125901099Y-67759865D01*
X125816915Y-67816116D01*
X125760666Y-67900297D01*
X125745900Y-67974530D01*
X125254899Y-67974530D01*
X125240134Y-67900299D01*
X125240133Y-67900297D01*
X125183884Y-67816116D01*
X125183883Y-67816115D01*
X125099702Y-67759866D01*
X125025467Y-67745100D01*
X123975336Y-67745100D01*
X123975326Y-67745101D01*
X123901099Y-67759865D01*
X123816915Y-67816116D01*
X123760666Y-67900297D01*
X123745900Y-67974530D01*
X123254559Y-67974530D01*
X123239834Y-67900499D01*
X123183583Y-67816315D01*
X123099402Y-67760066D01*
X123025167Y-67745300D01*
X121975036Y-67745300D01*
X121975026Y-67745301D01*
X121900799Y-67760065D01*
X121816615Y-67816316D01*
X121760366Y-67900497D01*
X121745600Y-67974730D01*
X121254899Y-67974730D01*
X121240134Y-67900499D01*
X121183883Y-67816315D01*
X121099702Y-67760066D01*
X121025467Y-67745300D01*
X119975336Y-67745300D01*
X119975326Y-67745301D01*
X119901099Y-67760065D01*
X119816915Y-67816316D01*
X119760666Y-67900497D01*
X119745900Y-67974730D01*
X102733084Y-67974730D01*
X107494884Y-63212930D01*
X164983600Y-63212930D01*
X164983600Y-64787063D01*
X164983601Y-64787073D01*
X164998365Y-64861300D01*
X165054616Y-64945484D01*
X165138797Y-65001733D01*
X165138799Y-65001734D01*
X165213033Y-65016500D01*
X166787166Y-65016499D01*
X166787169Y-65016498D01*
X166787173Y-65016498D01*
X166836426Y-65006701D01*
X166861401Y-65001734D01*
X166945584Y-64945484D01*
X167001834Y-64861301D01*
X167016600Y-64787067D01*
X167016599Y-63212934D01*
X167016598Y-63212930D01*
X167016598Y-63212926D01*
X167001834Y-63138699D01*
X166945583Y-63054515D01*
X166861402Y-62998266D01*
X166787167Y-62983500D01*
X165213036Y-62983500D01*
X165213026Y-62983501D01*
X165138799Y-62998265D01*
X165054615Y-63054516D01*
X164998366Y-63138697D01*
X164983600Y-63212930D01*
X107494884Y-63212930D01*
X110170409Y-60537405D01*
X110232721Y-60503379D01*
X110259504Y-60500500D01*
X189740297Y-60500500D01*
X189808418Y-60520502D01*
G37*
%TD.AperFunction*%
%TD*%
M02*
