%TF.GenerationSoftware,KiCad,Pcbnew,10.0.6*%
%TF.CreationDate,2026-09-23T18:23:31+08:00*%
%TF.ProjectId,Navigation_Module,4e617669-6761-4746-996f-6e5f4d6f6475,1.7*%
%TF.SameCoordinates,Original*%
%TF.FileFunction,Soldermask,Top*%
%TF.FilePolarity,Negative*%
%FSLAX46Y46*%
G04 Gerber Fmt 4.6, Leading zero omitted, Abs format (unit mm)*
G04 Created by KiCad (PCBNEW 10.0.6) date 2026-09-23 18:23:31*
%MOMM*%
%LPD*%
G01*
G04 APERTURE LIST*
G04 Aperture macros list*
%AMRoundRect*
0 Rectangle with rounded corners*
0 $1 Rounding radius*
0 $2 $3 $4 $5 $6 $7 $8 $9 X,Y pos of 4 corners*
0 Add a 4 corners polygon primitive as box body*
4,1,4,$2,$3,$4,$5,$6,$7,$8,$9,$2,$3,0*
0 Add four circle primitives for the rounded corners*
1,1,$1+$1,$2,$3*
1,1,$1+$1,$4,$5*
1,1,$1+$1,$6,$7*
1,1,$1+$1,$8,$9*
0 Add four rect primitives between the rounded corners*
20,1,$1+$1,$2,$3,$4,$5,0*
20,1,$1+$1,$4,$5,$6,$7,0*
20,1,$1+$1,$6,$7,$8,$9,0*
20,1,$1+$1,$8,$9,$2,$3,0*%
G04 Aperture macros list end*
%ADD10RoundRect,0.050800X-0.900000X0.900000X-0.900000X-0.900000X0.900000X-0.900000X0.900000X0.900000X0*%
%ADD11RoundRect,0.101600X-0.650000X0.650000X-0.650000X-0.650000X0.650000X-0.650000X0.650000X0.650000X0*%
%ADD12RoundRect,0.101600X-0.762000X0.762000X-0.762000X-0.762000X0.762000X-0.762000X0.762000X0.762000X0*%
%ADD13RoundRect,0.101600X-0.762000X-0.762000X0.762000X-0.762000X0.762000X0.762000X-0.762000X0.762000X0*%
%ADD14RoundRect,0.101600X-0.500000X0.500000X-0.500000X-0.500000X0.500000X-0.500000X0.500000X0.500000X0*%
%ADD15RoundRect,0.101600X0.762000X-0.762000X0.762000X0.762000X-0.762000X0.762000X-0.762000X-0.762000X0*%
%ADD16RoundRect,0.101600X0.762000X0.762000X-0.762000X0.762000X-0.762000X-0.762000X0.762000X-0.762000X0*%
%ADD17RoundRect,0.050800X-0.800000X0.800000X-0.800000X-0.800000X0.800000X-0.800000X0.800000X0.800000X0*%
G04 APERTURE END LIST*
D10*
%TO.C,U1*%
X126010200Y-141989900D03*
X123470200Y-141989900D03*
X120930200Y-141989900D03*
X118390200Y-141989900D03*
X118390200Y-149609900D03*
X120930200Y-149609900D03*
X123470200Y-149609900D03*
X126010200Y-149609900D03*
%TD*%
D11*
%TO.C,WP25*%
X150600200Y-73400000D03*
%TD*%
D12*
%TO.C,R4*%
X144388800Y-111826100D03*
X134228800Y-111826100D03*
%TD*%
D13*
%TO.C,TP_+5V*%
X150999900Y-115750000D03*
%TD*%
%TO.C,TP_+5V*%
X130999900Y-115750000D03*
%TD*%
D12*
%TO.C,R11*%
X184388900Y-72425900D03*
X174228900Y-72425900D03*
%TD*%
%TO.C,TP_GND*%
X184200000Y-113800000D03*
%TD*%
D13*
%TO.C,TP_+5V*%
X111500100Y-87999900D03*
%TD*%
D14*
%TO.C,WP31*%
X156600100Y-71400000D03*
%TD*%
D13*
%TO.C,TP_+5V*%
X111500100Y-115750000D03*
%TD*%
D11*
%TO.C,WP21*%
X158600100Y-73400000D03*
%TD*%
D12*
%TO.C,R3*%
X144488800Y-84126200D03*
X134328800Y-84126200D03*
%TD*%
D15*
%TO.C,TP_N7*%
X164200300Y-107199800D03*
%TD*%
D14*
%TO.C,WP27*%
X148600100Y-71400000D03*
%TD*%
D12*
%TO.C,R6*%
X164288900Y-111826100D03*
X154128900Y-111826100D03*
%TD*%
D13*
%TO.C,TP_N5*%
X159000100Y-87999900D03*
%TD*%
D12*
%TO.C,R1*%
X124888900Y-84126200D03*
X114728900Y-84126200D03*
%TD*%
D16*
%TO.C,R10*%
X191973900Y-116888900D03*
X191973900Y-106728900D03*
%TD*%
D14*
%TO.C,WP29*%
X152599800Y-71400000D03*
%TD*%
%TO.C,WP30*%
X154600100Y-71400000D03*
%TD*%
D13*
%TO.C,TP_+5V*%
X150999900Y-87999900D03*
%TD*%
D12*
%TO.C,R2*%
X124888900Y-111826100D03*
X114728900Y-111826100D03*
%TD*%
%TO.C,R5*%
X164288900Y-84126200D03*
X154128900Y-84126200D03*
%TD*%
D16*
%TO.C,TP_LIGHT1*%
X180299800Y-77000000D03*
%TD*%
D12*
%TO.C,TP_LIGHT2*%
X180200000Y-113800000D03*
%TD*%
D14*
%TO.C,WP23*%
X154600100Y-73400000D03*
%TD*%
%TO.C,WP24*%
X152599800Y-73400000D03*
%TD*%
D11*
%TO.C,WP20*%
X160600100Y-73400000D03*
%TD*%
D16*
%TO.C,C1*%
X129343300Y-143549500D03*
X129343300Y-148549400D03*
%TD*%
D17*
%TO.C,U2*%
X152690500Y-142301600D03*
X150150500Y-142301600D03*
X147610500Y-142301600D03*
X145070500Y-142301600D03*
X142530500Y-142301600D03*
X139990500Y-142301600D03*
X137450500Y-142301600D03*
X134910500Y-142301600D03*
X134910500Y-149921600D03*
X137450500Y-149921600D03*
X139990500Y-149921600D03*
X142530500Y-149921600D03*
X145070500Y-149921600D03*
X147610500Y-149921600D03*
X150150500Y-149921600D03*
X152690500Y-149921600D03*
%TD*%
D15*
%TO.C,TP_GND*%
X184300100Y-77000000D03*
%TD*%
D13*
%TO.C,TP_N1*%
X119500100Y-87999900D03*
%TD*%
%TO.C,TP_N3*%
X138999900Y-87999900D03*
%TD*%
%TO.C,TP_+5V*%
X130999900Y-87999900D03*
%TD*%
D14*
%TO.C,WP17*%
X158600100Y-71400000D03*
%TD*%
D15*
%TO.C,TP_+5V*%
X164200300Y-134400200D03*
%TD*%
%TO.C,TP_N8*%
X164200300Y-142400100D03*
%TD*%
D13*
%TO.C,TP_N6*%
X159000100Y-115750000D03*
%TD*%
D15*
%TO.C,C-MAIN*%
X138300100Y-74869900D03*
X138300100Y-72329900D03*
%TD*%
D14*
%TO.C,WP28*%
X150600100Y-71400000D03*
%TD*%
D16*
%TO.C,C2*%
X156343500Y-143649500D03*
X156343500Y-148649500D03*
%TD*%
D12*
%TO.C,R8*%
X175888800Y-148126000D03*
X165728800Y-148126000D03*
%TD*%
D14*
%TO.C,WP22*%
X156600100Y-73400000D03*
%TD*%
D13*
%TO.C,TP_N2*%
X119500100Y-115750000D03*
%TD*%
D14*
%TO.C,WP32*%
X162599800Y-71400000D03*
%TD*%
D11*
%TO.C,WP26*%
X148600200Y-73400000D03*
%TD*%
D13*
%TO.C,TP_N4*%
X138999900Y-115750000D03*
%TD*%
D11*
%TO.C,WP19*%
X162599900Y-73400000D03*
%TD*%
D15*
%TO.C,TP_+5V*%
X164200300Y-99199800D03*
%TD*%
D14*
%TO.C,WP18*%
X160600100Y-71400000D03*
%TD*%
D16*
%TO.C,R7*%
X168074000Y-116488800D03*
X168074000Y-106328800D03*
%TD*%
M02*
