%TF.GenerationSoftware,KiCad,Pcbnew,10.0.6*%
%TF.CreationDate,2026-09-23T18:23:31+08:00*%
%TF.ProjectId,Navigation_Module,4e617669-6761-4746-996f-6e5f4d6f6475,1.7*%
%TF.SameCoordinates,Original*%
%TF.FileFunction,Legend,Top*%
%TF.FilePolarity,Positive*%
%FSLAX46Y46*%
G04 Gerber Fmt 4.6, Leading zero omitted, Abs format (unit mm)*
G04 Created by KiCad (PCBNEW 10.0.6) date 2026-09-23 18:23:31*
%MOMM*%
%LPD*%
G01*
G04 APERTURE LIST*
%ADD10C,0.254000*%
%ADD11C,0.080000*%
%ADD12C,0.150000*%
%ADD13C,0.200000*%
%ADD14C,0.152400*%
%ADD15C,0.177800*%
G04 APERTURE END LIST*
D10*
X116549300Y-138862500D02*
X116549300Y-150861400D01*
X116549300Y-150861400D02*
X116549300Y-151610700D01*
X116549300Y-151610700D02*
X117550100Y-151610700D01*
X117550100Y-151610700D02*
X158550700Y-151610700D01*
X143600100Y-69399900D02*
X167600000Y-69399900D01*
X143600100Y-75399900D02*
X143600100Y-69399900D01*
X154600100Y-69399900D02*
X154600100Y-70399900D01*
X154600100Y-70399900D02*
X156599900Y-70399900D01*
X156599900Y-70399900D02*
X156599900Y-69399900D01*
X158550700Y-138862500D02*
X116549300Y-138862500D01*
X158550700Y-151610700D02*
X158550700Y-138862500D01*
X167600000Y-69399900D02*
X167600000Y-75399900D01*
X167600000Y-75399900D02*
X143600100Y-75399900D01*
D11*
X164378921Y-139389173D02*
X164622731Y-139389173D01*
X165018921Y-139389173D02*
X165262731Y-139389173D01*
X165658921Y-139389173D02*
X165902731Y-139389173D01*
X165378921Y-99139273D02*
X165622731Y-99139273D01*
X166018921Y-99139273D02*
X166262731Y-99139273D01*
X166658921Y-99139273D02*
X166902731Y-99139273D01*
X165378921Y-134389173D02*
X165622731Y-134389173D01*
X166018921Y-134389173D02*
X166262731Y-134389173D01*
X166658921Y-134389173D02*
X166902731Y-134389173D01*
X164390826Y-103389173D02*
X164672731Y-103389173D01*
X165130826Y-103389173D02*
X165412731Y-103389173D01*
X165870826Y-103389173D02*
X166152731Y-103389173D01*
X166640726Y-103389173D02*
X166922631Y-103389173D01*
X167380726Y-103389173D02*
X167662631Y-103389173D01*
X168120726Y-103389173D02*
X168402631Y-103389173D01*
X168860726Y-103389173D02*
X169142631Y-103389173D01*
X166640726Y-139389173D02*
X166922631Y-139389173D01*
X167380726Y-139389173D02*
X167662631Y-139389173D01*
X168120726Y-139389173D02*
X168402631Y-139389173D01*
X173890626Y-70889173D02*
X174172531Y-70889173D01*
X174630626Y-70889173D02*
X174912531Y-70889173D01*
X175370626Y-70889173D02*
X175652531Y-70889173D01*
X176110626Y-70889173D02*
X176392531Y-70889173D01*
X176850626Y-70889173D02*
X177132531Y-70889173D01*
X177590626Y-70889173D02*
X177872531Y-70889173D01*
X178330626Y-70889173D02*
X178612531Y-70889173D01*
X179070626Y-70889173D02*
X179352531Y-70889173D01*
X179810626Y-70889173D02*
X180092531Y-70889173D01*
X180550626Y-70889173D02*
X180832531Y-70889173D01*
X181290626Y-70889173D02*
X181572531Y-70889173D01*
X182030626Y-70889173D02*
X182312531Y-70889173D01*
X182770626Y-70889173D02*
X183052531Y-70889173D01*
X183510626Y-70889173D02*
X183792531Y-70889173D01*
X184250626Y-70889173D02*
X184532531Y-70889173D01*
X184990626Y-70889173D02*
X185272531Y-70889173D01*
X173890626Y-74139073D02*
X174172531Y-74139073D01*
X174630626Y-74139073D02*
X174912531Y-74139073D01*
X175370626Y-74139073D02*
X175652531Y-74139073D01*
X176110626Y-74139073D02*
X176392531Y-74139073D01*
X176850626Y-74139073D02*
X177132531Y-74139073D01*
X177590626Y-74139073D02*
X177872531Y-74139073D01*
X178330626Y-74139073D02*
X178612531Y-74139073D01*
X179070626Y-74139073D02*
X179352531Y-74139073D01*
X179810626Y-74139073D02*
X180092531Y-74139073D01*
X180550626Y-74139073D02*
X180832531Y-74139073D01*
X181290626Y-74139073D02*
X181572531Y-74139073D01*
X182030626Y-74139073D02*
X182312531Y-74139073D01*
X182770626Y-74139073D02*
X183052531Y-74139073D01*
X183510626Y-74139073D02*
X183792531Y-74139073D01*
X184250626Y-74139073D02*
X184532531Y-74139073D01*
X184990626Y-74139073D02*
X185272531Y-74139073D01*
X191390726Y-104889073D02*
X191672631Y-104889073D01*
X192130726Y-104889073D02*
X192412631Y-104889073D01*
X192870726Y-104889073D02*
X193152631Y-104889073D01*
X191390726Y-118889273D02*
X191672631Y-118889273D01*
X192130726Y-118889273D02*
X192412631Y-118889273D01*
X192870726Y-118889273D02*
X193152631Y-118889273D01*
X111360726Y-89140626D02*
X111360726Y-89422531D01*
X111360726Y-89880626D02*
X111360726Y-90162531D01*
X111360726Y-90620626D02*
X111360726Y-90902531D01*
X111360726Y-116890726D02*
X111360726Y-117172631D01*
X111360726Y-117630726D02*
X111360726Y-117912631D01*
X111360726Y-118370726D02*
X111360726Y-118652631D01*
X119360726Y-89140626D02*
X119360726Y-89422531D01*
X119360726Y-89880626D02*
X119360726Y-90162531D01*
X119360726Y-90620626D02*
X119360726Y-90902531D01*
X119360726Y-116890726D02*
X119360726Y-117172631D01*
X119360726Y-117630726D02*
X119360726Y-117912631D01*
X119360726Y-118370726D02*
X119360726Y-118652631D01*
X130860826Y-89140626D02*
X130860826Y-89422531D01*
X130860826Y-89880626D02*
X130860826Y-90162531D01*
X130860826Y-90620626D02*
X130860826Y-90902531D01*
X130860826Y-116890726D02*
X130860826Y-117172631D01*
X130860826Y-117630726D02*
X130860826Y-117912631D01*
X130860826Y-118370726D02*
X130860826Y-118652631D01*
X138860826Y-89140626D02*
X138860826Y-89422531D01*
X138860826Y-89880626D02*
X138860826Y-90162531D01*
X138860826Y-90620626D02*
X138860826Y-90902531D01*
X138860826Y-116890726D02*
X138860826Y-117172631D01*
X138860826Y-117630726D02*
X138860826Y-117912631D01*
X138860826Y-118370726D02*
X138860826Y-118652631D01*
X150860826Y-89140626D02*
X150860826Y-89422531D01*
X150860826Y-89880626D02*
X150860826Y-90162531D01*
X150860826Y-90620626D02*
X150860826Y-90902531D01*
X150860826Y-116890726D02*
X150860826Y-117172631D01*
X150860826Y-117630726D02*
X150860826Y-117912631D01*
X150860826Y-118370726D02*
X150860826Y-118652631D01*
X158860726Y-89140626D02*
X158860726Y-89422531D01*
X158860726Y-89880626D02*
X158860726Y-90162531D01*
X158860726Y-90620626D02*
X158860726Y-90902531D01*
X158860726Y-116890726D02*
X158860726Y-117172631D01*
X158860726Y-117630726D02*
X158860726Y-117912631D01*
X158860726Y-118370726D02*
X158860726Y-118652631D01*
X164110926Y-103640726D02*
X164110926Y-103922631D01*
X164110926Y-104380726D02*
X164110926Y-104662631D01*
X164110926Y-105120726D02*
X164110926Y-105402631D01*
X164110926Y-105860726D02*
X164110926Y-106142631D01*
X164110926Y-139640726D02*
X164110926Y-139922631D01*
X164110926Y-140380726D02*
X164110926Y-140662631D01*
X164110926Y-141120726D02*
X164110926Y-141402631D01*
X172360826Y-71640826D02*
X172360826Y-71922731D01*
X172360826Y-72380826D02*
X172360826Y-72662731D01*
X172360826Y-73120826D02*
X172360826Y-73402731D01*
X180110926Y-78140726D02*
X180110926Y-78422631D01*
X180110926Y-78880726D02*
X180110926Y-79162631D01*
X180110926Y-79620726D02*
X180110926Y-79902631D01*
X180110926Y-115140626D02*
X180110926Y-115422531D01*
X180110926Y-115880626D02*
X180110926Y-116162531D01*
X180110926Y-116620626D02*
X180110926Y-116902531D01*
X184110926Y-115140626D02*
X184110926Y-115422531D01*
X184110926Y-115880626D02*
X184110926Y-116162531D01*
X184110926Y-116620626D02*
X184110926Y-116902531D01*
X184360826Y-78140726D02*
X184360826Y-78422631D01*
X184360826Y-78880726D02*
X184360826Y-79162631D01*
X184360826Y-79620726D02*
X184360826Y-79902631D01*
X184360826Y-80360726D02*
X184360826Y-80642631D01*
X186110926Y-71640826D02*
X186110926Y-71922731D01*
X186110926Y-72380826D02*
X186110926Y-72662731D01*
X186110926Y-73120826D02*
X186110926Y-73402731D01*
X190360826Y-106390826D02*
X190360826Y-106672731D01*
X190360826Y-107130826D02*
X190360826Y-107412731D01*
X190360826Y-107870826D02*
X190360826Y-108152731D01*
X190360826Y-108610826D02*
X190360826Y-108892731D01*
X190360826Y-109350826D02*
X190360826Y-109632731D01*
X190360826Y-110090826D02*
X190360826Y-110372731D01*
X190360826Y-110830826D02*
X190360826Y-111112731D01*
X190360826Y-111570826D02*
X190360826Y-111852731D01*
X190360826Y-112310826D02*
X190360826Y-112592731D01*
X190360826Y-113050826D02*
X190360826Y-113332731D01*
X190360826Y-113790826D02*
X190360826Y-114072731D01*
X190360826Y-114530826D02*
X190360826Y-114812731D01*
X190360826Y-115270826D02*
X190360826Y-115552731D01*
X190360826Y-116010826D02*
X190360826Y-116292731D01*
X190360826Y-116750826D02*
X190360826Y-117032731D01*
X190360826Y-117490826D02*
X190360826Y-117772731D01*
X193610726Y-106390826D02*
X193610726Y-106672731D01*
X193610726Y-107130826D02*
X193610726Y-107412731D01*
X193610726Y-107870826D02*
X193610726Y-108152731D01*
X193610726Y-108610826D02*
X193610726Y-108892731D01*
X193610726Y-109350826D02*
X193610726Y-109632731D01*
X193610726Y-110090826D02*
X193610726Y-110372731D01*
X193610726Y-110830826D02*
X193610726Y-111112731D01*
X193610726Y-111570826D02*
X193610726Y-111852731D01*
X193610726Y-112310826D02*
X193610726Y-112592731D01*
X193610726Y-113050826D02*
X193610726Y-113332731D01*
X193610726Y-113790826D02*
X193610726Y-114072731D01*
X193610726Y-114530826D02*
X193610726Y-114812731D01*
X193610726Y-115270826D02*
X193610726Y-115552731D01*
X193610726Y-116010826D02*
X193610726Y-116292731D01*
X193610726Y-116750826D02*
X193610726Y-117032731D01*
X193610726Y-117490826D02*
X193610726Y-117772731D01*
D12*
X109539060Y-107030195D02*
X109539060Y-106230195D01*
X109539060Y-106230195D02*
X109805726Y-106801623D01*
X109805726Y-106801623D02*
X110072393Y-106230195D01*
X110072393Y-106230195D02*
X110072393Y-107030195D01*
X110415250Y-106801623D02*
X110796203Y-106801623D01*
X110339060Y-107030195D02*
X110605727Y-106230195D01*
X110605727Y-106230195D02*
X110872393Y-107030195D01*
X111139060Y-107030195D02*
X111139060Y-106230195D01*
X111139060Y-106230195D02*
X111443822Y-106230195D01*
X111443822Y-106230195D02*
X111520012Y-106268290D01*
X111520012Y-106268290D02*
X111558107Y-106306385D01*
X111558107Y-106306385D02*
X111596203Y-106382576D01*
X111596203Y-106382576D02*
X111596203Y-106496861D01*
X111596203Y-106496861D02*
X111558107Y-106573052D01*
X111558107Y-106573052D02*
X111520012Y-106611147D01*
X111520012Y-106611147D02*
X111443822Y-106649242D01*
X111443822Y-106649242D02*
X111139060Y-106649242D01*
X113005727Y-107030195D02*
X112739060Y-106649242D01*
X112548584Y-107030195D02*
X112548584Y-106230195D01*
X112548584Y-106230195D02*
X112853346Y-106230195D01*
X112853346Y-106230195D02*
X112929536Y-106268290D01*
X112929536Y-106268290D02*
X112967631Y-106306385D01*
X112967631Y-106306385D02*
X113005727Y-106382576D01*
X113005727Y-106382576D02*
X113005727Y-106496861D01*
X113005727Y-106496861D02*
X112967631Y-106573052D01*
X112967631Y-106573052D02*
X112929536Y-106611147D01*
X112929536Y-106611147D02*
X112853346Y-106649242D01*
X112853346Y-106649242D02*
X112548584Y-106649242D01*
X113348584Y-106611147D02*
X113615250Y-106611147D01*
X113729536Y-107030195D02*
X113348584Y-107030195D01*
X113348584Y-107030195D02*
X113348584Y-106230195D01*
X113348584Y-106230195D02*
X113729536Y-106230195D01*
X113958108Y-106230195D02*
X114415251Y-106230195D01*
X114186679Y-107030195D02*
X114186679Y-106230195D01*
X114681918Y-106230195D02*
X114681918Y-106877814D01*
X114681918Y-106877814D02*
X114720013Y-106954004D01*
X114720013Y-106954004D02*
X114758108Y-106992100D01*
X114758108Y-106992100D02*
X114834299Y-107030195D01*
X114834299Y-107030195D02*
X114986680Y-107030195D01*
X114986680Y-107030195D02*
X115062870Y-106992100D01*
X115062870Y-106992100D02*
X115100965Y-106954004D01*
X115100965Y-106954004D02*
X115139061Y-106877814D01*
X115139061Y-106877814D02*
X115139061Y-106230195D01*
X115977156Y-107030195D02*
X115710489Y-106649242D01*
X115520013Y-107030195D02*
X115520013Y-106230195D01*
X115520013Y-106230195D02*
X115824775Y-106230195D01*
X115824775Y-106230195D02*
X115900965Y-106268290D01*
X115900965Y-106268290D02*
X115939060Y-106306385D01*
X115939060Y-106306385D02*
X115977156Y-106382576D01*
X115977156Y-106382576D02*
X115977156Y-106496861D01*
X115977156Y-106496861D02*
X115939060Y-106573052D01*
X115939060Y-106573052D02*
X115900965Y-106611147D01*
X115900965Y-106611147D02*
X115824775Y-106649242D01*
X115824775Y-106649242D02*
X115520013Y-106649242D01*
X116320013Y-107030195D02*
X116320013Y-106230195D01*
X116320013Y-106230195D02*
X116777156Y-107030195D01*
X116777156Y-107030195D02*
X116777156Y-106230195D01*
X109996203Y-134454104D02*
X109958107Y-134492200D01*
X109958107Y-134492200D02*
X109843822Y-134530295D01*
X109843822Y-134530295D02*
X109767631Y-134530295D01*
X109767631Y-134530295D02*
X109653345Y-134492200D01*
X109653345Y-134492200D02*
X109577155Y-134416009D01*
X109577155Y-134416009D02*
X109539060Y-134339819D01*
X109539060Y-134339819D02*
X109500964Y-134187438D01*
X109500964Y-134187438D02*
X109500964Y-134073152D01*
X109500964Y-134073152D02*
X109539060Y-133920771D01*
X109539060Y-133920771D02*
X109577155Y-133844580D01*
X109577155Y-133844580D02*
X109653345Y-133768390D01*
X109653345Y-133768390D02*
X109767631Y-133730295D01*
X109767631Y-133730295D02*
X109843822Y-133730295D01*
X109843822Y-133730295D02*
X109958107Y-133768390D01*
X109958107Y-133768390D02*
X109996203Y-133806485D01*
X110491441Y-134149342D02*
X110491441Y-134530295D01*
X110224774Y-133730295D02*
X110491441Y-134149342D01*
X110491441Y-134149342D02*
X110758107Y-133730295D01*
X111481917Y-134454104D02*
X111443821Y-134492200D01*
X111443821Y-134492200D02*
X111329536Y-134530295D01*
X111329536Y-134530295D02*
X111253345Y-134530295D01*
X111253345Y-134530295D02*
X111139059Y-134492200D01*
X111139059Y-134492200D02*
X111062869Y-134416009D01*
X111062869Y-134416009D02*
X111024774Y-134339819D01*
X111024774Y-134339819D02*
X110986678Y-134187438D01*
X110986678Y-134187438D02*
X110986678Y-134073152D01*
X110986678Y-134073152D02*
X111024774Y-133920771D01*
X111024774Y-133920771D02*
X111062869Y-133844580D01*
X111062869Y-133844580D02*
X111139059Y-133768390D01*
X111139059Y-133768390D02*
X111253345Y-133730295D01*
X111253345Y-133730295D02*
X111329536Y-133730295D01*
X111329536Y-133730295D02*
X111443821Y-133768390D01*
X111443821Y-133768390D02*
X111481917Y-133806485D01*
X112205726Y-134530295D02*
X111824774Y-134530295D01*
X111824774Y-134530295D02*
X111824774Y-133730295D01*
X112472393Y-134111247D02*
X112739059Y-134111247D01*
X112853345Y-134530295D02*
X112472393Y-134530295D01*
X112472393Y-134530295D02*
X112472393Y-133730295D01*
X112472393Y-133730295D02*
X112853345Y-133730295D01*
X113767631Y-134492200D02*
X113881917Y-134530295D01*
X113881917Y-134530295D02*
X114072393Y-134530295D01*
X114072393Y-134530295D02*
X114148584Y-134492200D01*
X114148584Y-134492200D02*
X114186679Y-134454104D01*
X114186679Y-134454104D02*
X114224774Y-134377914D01*
X114224774Y-134377914D02*
X114224774Y-134301723D01*
X114224774Y-134301723D02*
X114186679Y-134225533D01*
X114186679Y-134225533D02*
X114148584Y-134187438D01*
X114148584Y-134187438D02*
X114072393Y-134149342D01*
X114072393Y-134149342D02*
X113920012Y-134111247D01*
X113920012Y-134111247D02*
X113843822Y-134073152D01*
X113843822Y-134073152D02*
X113805727Y-134035057D01*
X113805727Y-134035057D02*
X113767631Y-133958866D01*
X113767631Y-133958866D02*
X113767631Y-133882676D01*
X113767631Y-133882676D02*
X113805727Y-133806485D01*
X113805727Y-133806485D02*
X113843822Y-133768390D01*
X113843822Y-133768390D02*
X113920012Y-133730295D01*
X113920012Y-133730295D02*
X114110489Y-133730295D01*
X114110489Y-133730295D02*
X114224774Y-133768390D01*
X114567632Y-134530295D02*
X114567632Y-133730295D01*
X114567632Y-134111247D02*
X115024775Y-134111247D01*
X115024775Y-134530295D02*
X115024775Y-133730295D01*
X115405727Y-134530295D02*
X115405727Y-133730295D01*
X115786679Y-134530295D02*
X115786679Y-133730295D01*
X115786679Y-133730295D02*
X116091441Y-133730295D01*
X116091441Y-133730295D02*
X116167631Y-133768390D01*
X116167631Y-133768390D02*
X116205726Y-133806485D01*
X116205726Y-133806485D02*
X116243822Y-133882676D01*
X116243822Y-133882676D02*
X116243822Y-133996961D01*
X116243822Y-133996961D02*
X116205726Y-134073152D01*
X116205726Y-134073152D02*
X116167631Y-134111247D01*
X116167631Y-134111247D02*
X116091441Y-134149342D01*
X116091441Y-134149342D02*
X115786679Y-134149342D01*
X117196203Y-134225533D02*
X117805727Y-134225533D01*
X129496303Y-106954004D02*
X129458207Y-106992100D01*
X129458207Y-106992100D02*
X129343922Y-107030195D01*
X129343922Y-107030195D02*
X129267731Y-107030195D01*
X129267731Y-107030195D02*
X129153445Y-106992100D01*
X129153445Y-106992100D02*
X129077255Y-106915909D01*
X129077255Y-106915909D02*
X129039160Y-106839719D01*
X129039160Y-106839719D02*
X129001064Y-106687338D01*
X129001064Y-106687338D02*
X129001064Y-106573052D01*
X129001064Y-106573052D02*
X129039160Y-106420671D01*
X129039160Y-106420671D02*
X129077255Y-106344480D01*
X129077255Y-106344480D02*
X129153445Y-106268290D01*
X129153445Y-106268290D02*
X129267731Y-106230195D01*
X129267731Y-106230195D02*
X129343922Y-106230195D01*
X129343922Y-106230195D02*
X129458207Y-106268290D01*
X129458207Y-106268290D02*
X129496303Y-106306385D01*
X129991541Y-106649242D02*
X129991541Y-107030195D01*
X129724874Y-106230195D02*
X129991541Y-106649242D01*
X129991541Y-106649242D02*
X130258207Y-106230195D01*
X130982017Y-106954004D02*
X130943921Y-106992100D01*
X130943921Y-106992100D02*
X130829636Y-107030195D01*
X130829636Y-107030195D02*
X130753445Y-107030195D01*
X130753445Y-107030195D02*
X130639159Y-106992100D01*
X130639159Y-106992100D02*
X130562969Y-106915909D01*
X130562969Y-106915909D02*
X130524874Y-106839719D01*
X130524874Y-106839719D02*
X130486778Y-106687338D01*
X130486778Y-106687338D02*
X130486778Y-106573052D01*
X130486778Y-106573052D02*
X130524874Y-106420671D01*
X130524874Y-106420671D02*
X130562969Y-106344480D01*
X130562969Y-106344480D02*
X130639159Y-106268290D01*
X130639159Y-106268290D02*
X130753445Y-106230195D01*
X130753445Y-106230195D02*
X130829636Y-106230195D01*
X130829636Y-106230195D02*
X130943921Y-106268290D01*
X130943921Y-106268290D02*
X130982017Y-106306385D01*
X131705826Y-107030195D02*
X131324874Y-107030195D01*
X131324874Y-107030195D02*
X131324874Y-106230195D01*
X131972493Y-106611147D02*
X132239159Y-106611147D01*
X132353445Y-107030195D02*
X131972493Y-107030195D01*
X131972493Y-107030195D02*
X131972493Y-106230195D01*
X131972493Y-106230195D02*
X132353445Y-106230195D01*
X133305827Y-107030195D02*
X133305827Y-106230195D01*
X133305827Y-106230195D02*
X133572493Y-106801623D01*
X133572493Y-106801623D02*
X133839160Y-106230195D01*
X133839160Y-106230195D02*
X133839160Y-107030195D01*
X134182017Y-106801623D02*
X134562970Y-106801623D01*
X134105827Y-107030195D02*
X134372494Y-106230195D01*
X134372494Y-106230195D02*
X134639160Y-107030195D01*
X134905827Y-107030195D02*
X134905827Y-106230195D01*
X134905827Y-106230195D02*
X135210589Y-106230195D01*
X135210589Y-106230195D02*
X135286779Y-106268290D01*
X135286779Y-106268290D02*
X135324874Y-106306385D01*
X135324874Y-106306385D02*
X135362970Y-106382576D01*
X135362970Y-106382576D02*
X135362970Y-106496861D01*
X135362970Y-106496861D02*
X135324874Y-106573052D01*
X135324874Y-106573052D02*
X135286779Y-106611147D01*
X135286779Y-106611147D02*
X135210589Y-106649242D01*
X135210589Y-106649242D02*
X134905827Y-106649242D01*
X136315351Y-106725433D02*
X136924875Y-106725433D01*
X129496303Y-134454104D02*
X129458207Y-134492200D01*
X129458207Y-134492200D02*
X129343922Y-134530295D01*
X129343922Y-134530295D02*
X129267731Y-134530295D01*
X129267731Y-134530295D02*
X129153445Y-134492200D01*
X129153445Y-134492200D02*
X129077255Y-134416009D01*
X129077255Y-134416009D02*
X129039160Y-134339819D01*
X129039160Y-134339819D02*
X129001064Y-134187438D01*
X129001064Y-134187438D02*
X129001064Y-134073152D01*
X129001064Y-134073152D02*
X129039160Y-133920771D01*
X129039160Y-133920771D02*
X129077255Y-133844580D01*
X129077255Y-133844580D02*
X129153445Y-133768390D01*
X129153445Y-133768390D02*
X129267731Y-133730295D01*
X129267731Y-133730295D02*
X129343922Y-133730295D01*
X129343922Y-133730295D02*
X129458207Y-133768390D01*
X129458207Y-133768390D02*
X129496303Y-133806485D01*
X129991541Y-134149342D02*
X129991541Y-134530295D01*
X129724874Y-133730295D02*
X129991541Y-134149342D01*
X129991541Y-134149342D02*
X130258207Y-133730295D01*
X130982017Y-134454104D02*
X130943921Y-134492200D01*
X130943921Y-134492200D02*
X130829636Y-134530295D01*
X130829636Y-134530295D02*
X130753445Y-134530295D01*
X130753445Y-134530295D02*
X130639159Y-134492200D01*
X130639159Y-134492200D02*
X130562969Y-134416009D01*
X130562969Y-134416009D02*
X130524874Y-134339819D01*
X130524874Y-134339819D02*
X130486778Y-134187438D01*
X130486778Y-134187438D02*
X130486778Y-134073152D01*
X130486778Y-134073152D02*
X130524874Y-133920771D01*
X130524874Y-133920771D02*
X130562969Y-133844580D01*
X130562969Y-133844580D02*
X130639159Y-133768390D01*
X130639159Y-133768390D02*
X130753445Y-133730295D01*
X130753445Y-133730295D02*
X130829636Y-133730295D01*
X130829636Y-133730295D02*
X130943921Y-133768390D01*
X130943921Y-133768390D02*
X130982017Y-133806485D01*
X131705826Y-134530295D02*
X131324874Y-134530295D01*
X131324874Y-134530295D02*
X131324874Y-133730295D01*
X131972493Y-134111247D02*
X132239159Y-134111247D01*
X132353445Y-134530295D02*
X131972493Y-134530295D01*
X131972493Y-134530295D02*
X131972493Y-133730295D01*
X131972493Y-133730295D02*
X132353445Y-133730295D01*
X133267731Y-134492200D02*
X133382017Y-134530295D01*
X133382017Y-134530295D02*
X133572493Y-134530295D01*
X133572493Y-134530295D02*
X133648684Y-134492200D01*
X133648684Y-134492200D02*
X133686779Y-134454104D01*
X133686779Y-134454104D02*
X133724874Y-134377914D01*
X133724874Y-134377914D02*
X133724874Y-134301723D01*
X133724874Y-134301723D02*
X133686779Y-134225533D01*
X133686779Y-134225533D02*
X133648684Y-134187438D01*
X133648684Y-134187438D02*
X133572493Y-134149342D01*
X133572493Y-134149342D02*
X133420112Y-134111247D01*
X133420112Y-134111247D02*
X133343922Y-134073152D01*
X133343922Y-134073152D02*
X133305827Y-134035057D01*
X133305827Y-134035057D02*
X133267731Y-133958866D01*
X133267731Y-133958866D02*
X133267731Y-133882676D01*
X133267731Y-133882676D02*
X133305827Y-133806485D01*
X133305827Y-133806485D02*
X133343922Y-133768390D01*
X133343922Y-133768390D02*
X133420112Y-133730295D01*
X133420112Y-133730295D02*
X133610589Y-133730295D01*
X133610589Y-133730295D02*
X133724874Y-133768390D01*
X134067732Y-134530295D02*
X134067732Y-133730295D01*
X134067732Y-134111247D02*
X134524875Y-134111247D01*
X134524875Y-134530295D02*
X134524875Y-133730295D01*
X134905827Y-134530295D02*
X134905827Y-133730295D01*
X135286779Y-134530295D02*
X135286779Y-133730295D01*
X135286779Y-133730295D02*
X135591541Y-133730295D01*
X135591541Y-133730295D02*
X135667731Y-133768390D01*
X135667731Y-133768390D02*
X135705826Y-133806485D01*
X135705826Y-133806485D02*
X135743922Y-133882676D01*
X135743922Y-133882676D02*
X135743922Y-133996961D01*
X135743922Y-133996961D02*
X135705826Y-134073152D01*
X135705826Y-134073152D02*
X135667731Y-134111247D01*
X135667731Y-134111247D02*
X135591541Y-134149342D01*
X135591541Y-134149342D02*
X135286779Y-134149342D01*
X136696303Y-134225533D02*
X137305827Y-134225533D01*
X137001065Y-134530295D02*
X137001065Y-133920771D01*
X132296703Y-140565804D02*
X132258607Y-140603900D01*
X132258607Y-140603900D02*
X132144322Y-140641995D01*
X132144322Y-140641995D02*
X132068131Y-140641995D01*
X132068131Y-140641995D02*
X131953845Y-140603900D01*
X131953845Y-140603900D02*
X131877655Y-140527709D01*
X131877655Y-140527709D02*
X131839560Y-140451519D01*
X131839560Y-140451519D02*
X131801464Y-140299138D01*
X131801464Y-140299138D02*
X131801464Y-140184852D01*
X131801464Y-140184852D02*
X131839560Y-140032471D01*
X131839560Y-140032471D02*
X131877655Y-139956280D01*
X131877655Y-139956280D02*
X131953845Y-139880090D01*
X131953845Y-139880090D02*
X132068131Y-139841995D01*
X132068131Y-139841995D02*
X132144322Y-139841995D01*
X132144322Y-139841995D02*
X132258607Y-139880090D01*
X132258607Y-139880090D02*
X132296703Y-139918185D01*
X132791941Y-139841995D02*
X132944322Y-139841995D01*
X132944322Y-139841995D02*
X133020512Y-139880090D01*
X133020512Y-139880090D02*
X133096703Y-139956280D01*
X133096703Y-139956280D02*
X133134798Y-140108661D01*
X133134798Y-140108661D02*
X133134798Y-140375328D01*
X133134798Y-140375328D02*
X133096703Y-140527709D01*
X133096703Y-140527709D02*
X133020512Y-140603900D01*
X133020512Y-140603900D02*
X132944322Y-140641995D01*
X132944322Y-140641995D02*
X132791941Y-140641995D01*
X132791941Y-140641995D02*
X132715750Y-140603900D01*
X132715750Y-140603900D02*
X132639560Y-140527709D01*
X132639560Y-140527709D02*
X132601464Y-140375328D01*
X132601464Y-140375328D02*
X132601464Y-140108661D01*
X132601464Y-140108661D02*
X132639560Y-139956280D01*
X132639560Y-139956280D02*
X132715750Y-139880090D01*
X132715750Y-139880090D02*
X132791941Y-139841995D01*
X133477655Y-140641995D02*
X133477655Y-139841995D01*
X133477655Y-139841995D02*
X133934798Y-140641995D01*
X133934798Y-140641995D02*
X133934798Y-139841995D01*
X134201464Y-139841995D02*
X134658607Y-139841995D01*
X134430035Y-140641995D02*
X134430035Y-139841995D01*
X135382417Y-140641995D02*
X135115750Y-140261042D01*
X134925274Y-140641995D02*
X134925274Y-139841995D01*
X134925274Y-139841995D02*
X135230036Y-139841995D01*
X135230036Y-139841995D02*
X135306226Y-139880090D01*
X135306226Y-139880090D02*
X135344321Y-139918185D01*
X135344321Y-139918185D02*
X135382417Y-139994376D01*
X135382417Y-139994376D02*
X135382417Y-140108661D01*
X135382417Y-140108661D02*
X135344321Y-140184852D01*
X135344321Y-140184852D02*
X135306226Y-140222947D01*
X135306226Y-140222947D02*
X135230036Y-140261042D01*
X135230036Y-140261042D02*
X134925274Y-140261042D01*
X135877655Y-139841995D02*
X136030036Y-139841995D01*
X136030036Y-139841995D02*
X136106226Y-139880090D01*
X136106226Y-139880090D02*
X136182417Y-139956280D01*
X136182417Y-139956280D02*
X136220512Y-140108661D01*
X136220512Y-140108661D02*
X136220512Y-140375328D01*
X136220512Y-140375328D02*
X136182417Y-140527709D01*
X136182417Y-140527709D02*
X136106226Y-140603900D01*
X136106226Y-140603900D02*
X136030036Y-140641995D01*
X136030036Y-140641995D02*
X135877655Y-140641995D01*
X135877655Y-140641995D02*
X135801464Y-140603900D01*
X135801464Y-140603900D02*
X135725274Y-140527709D01*
X135725274Y-140527709D02*
X135687178Y-140375328D01*
X135687178Y-140375328D02*
X135687178Y-140108661D01*
X135687178Y-140108661D02*
X135725274Y-139956280D01*
X135725274Y-139956280D02*
X135801464Y-139880090D01*
X135801464Y-139880090D02*
X135877655Y-139841995D01*
X136944321Y-140641995D02*
X136563369Y-140641995D01*
X136563369Y-140641995D02*
X136563369Y-139841995D01*
X138201464Y-140641995D02*
X137820512Y-140641995D01*
X137820512Y-140641995D02*
X137820512Y-139841995D01*
X138620512Y-139841995D02*
X138772893Y-139841995D01*
X138772893Y-139841995D02*
X138849083Y-139880090D01*
X138849083Y-139880090D02*
X138925274Y-139956280D01*
X138925274Y-139956280D02*
X138963369Y-140108661D01*
X138963369Y-140108661D02*
X138963369Y-140375328D01*
X138963369Y-140375328D02*
X138925274Y-140527709D01*
X138925274Y-140527709D02*
X138849083Y-140603900D01*
X138849083Y-140603900D02*
X138772893Y-140641995D01*
X138772893Y-140641995D02*
X138620512Y-140641995D01*
X138620512Y-140641995D02*
X138544321Y-140603900D01*
X138544321Y-140603900D02*
X138468131Y-140527709D01*
X138468131Y-140527709D02*
X138430035Y-140375328D01*
X138430035Y-140375328D02*
X138430035Y-140108661D01*
X138430035Y-140108661D02*
X138468131Y-139956280D01*
X138468131Y-139956280D02*
X138544321Y-139880090D01*
X138544321Y-139880090D02*
X138620512Y-139841995D01*
X139725273Y-139880090D02*
X139649083Y-139841995D01*
X139649083Y-139841995D02*
X139534797Y-139841995D01*
X139534797Y-139841995D02*
X139420511Y-139880090D01*
X139420511Y-139880090D02*
X139344321Y-139956280D01*
X139344321Y-139956280D02*
X139306226Y-140032471D01*
X139306226Y-140032471D02*
X139268130Y-140184852D01*
X139268130Y-140184852D02*
X139268130Y-140299138D01*
X139268130Y-140299138D02*
X139306226Y-140451519D01*
X139306226Y-140451519D02*
X139344321Y-140527709D01*
X139344321Y-140527709D02*
X139420511Y-140603900D01*
X139420511Y-140603900D02*
X139534797Y-140641995D01*
X139534797Y-140641995D02*
X139610988Y-140641995D01*
X139610988Y-140641995D02*
X139725273Y-140603900D01*
X139725273Y-140603900D02*
X139763369Y-140565804D01*
X139763369Y-140565804D02*
X139763369Y-140299138D01*
X139763369Y-140299138D02*
X139610988Y-140299138D01*
X140106226Y-140641995D02*
X140106226Y-139841995D01*
X140944321Y-140565804D02*
X140906225Y-140603900D01*
X140906225Y-140603900D02*
X140791940Y-140641995D01*
X140791940Y-140641995D02*
X140715749Y-140641995D01*
X140715749Y-140641995D02*
X140601463Y-140603900D01*
X140601463Y-140603900D02*
X140525273Y-140527709D01*
X140525273Y-140527709D02*
X140487178Y-140451519D01*
X140487178Y-140451519D02*
X140449082Y-140299138D01*
X140449082Y-140299138D02*
X140449082Y-140184852D01*
X140449082Y-140184852D02*
X140487178Y-140032471D01*
X140487178Y-140032471D02*
X140525273Y-139956280D01*
X140525273Y-139956280D02*
X140601463Y-139880090D01*
X140601463Y-139880090D02*
X140715749Y-139841995D01*
X140715749Y-139841995D02*
X140791940Y-139841995D01*
X140791940Y-139841995D02*
X140906225Y-139880090D01*
X140906225Y-139880090D02*
X140944321Y-139918185D01*
X148996403Y-106954004D02*
X148958307Y-106992100D01*
X148958307Y-106992100D02*
X148844022Y-107030195D01*
X148844022Y-107030195D02*
X148767831Y-107030195D01*
X148767831Y-107030195D02*
X148653545Y-106992100D01*
X148653545Y-106992100D02*
X148577355Y-106915909D01*
X148577355Y-106915909D02*
X148539260Y-106839719D01*
X148539260Y-106839719D02*
X148501164Y-106687338D01*
X148501164Y-106687338D02*
X148501164Y-106573052D01*
X148501164Y-106573052D02*
X148539260Y-106420671D01*
X148539260Y-106420671D02*
X148577355Y-106344480D01*
X148577355Y-106344480D02*
X148653545Y-106268290D01*
X148653545Y-106268290D02*
X148767831Y-106230195D01*
X148767831Y-106230195D02*
X148844022Y-106230195D01*
X148844022Y-106230195D02*
X148958307Y-106268290D01*
X148958307Y-106268290D02*
X148996403Y-106306385D01*
X149491641Y-106649242D02*
X149491641Y-107030195D01*
X149224974Y-106230195D02*
X149491641Y-106649242D01*
X149491641Y-106649242D02*
X149758307Y-106230195D01*
X150482117Y-106954004D02*
X150444021Y-106992100D01*
X150444021Y-106992100D02*
X150329736Y-107030195D01*
X150329736Y-107030195D02*
X150253545Y-107030195D01*
X150253545Y-107030195D02*
X150139259Y-106992100D01*
X150139259Y-106992100D02*
X150063069Y-106915909D01*
X150063069Y-106915909D02*
X150024974Y-106839719D01*
X150024974Y-106839719D02*
X149986878Y-106687338D01*
X149986878Y-106687338D02*
X149986878Y-106573052D01*
X149986878Y-106573052D02*
X150024974Y-106420671D01*
X150024974Y-106420671D02*
X150063069Y-106344480D01*
X150063069Y-106344480D02*
X150139259Y-106268290D01*
X150139259Y-106268290D02*
X150253545Y-106230195D01*
X150253545Y-106230195D02*
X150329736Y-106230195D01*
X150329736Y-106230195D02*
X150444021Y-106268290D01*
X150444021Y-106268290D02*
X150482117Y-106306385D01*
X151205926Y-107030195D02*
X150824974Y-107030195D01*
X150824974Y-107030195D02*
X150824974Y-106230195D01*
X151472593Y-106611147D02*
X151739259Y-106611147D01*
X151853545Y-107030195D02*
X151472593Y-107030195D01*
X151472593Y-107030195D02*
X151472593Y-106230195D01*
X151472593Y-106230195D02*
X151853545Y-106230195D01*
X152805927Y-107030195D02*
X152805927Y-106230195D01*
X152805927Y-106230195D02*
X153072593Y-106801623D01*
X153072593Y-106801623D02*
X153339260Y-106230195D01*
X153339260Y-106230195D02*
X153339260Y-107030195D01*
X153682117Y-106801623D02*
X154063070Y-106801623D01*
X153605927Y-107030195D02*
X153872594Y-106230195D01*
X153872594Y-106230195D02*
X154139260Y-107030195D01*
X154405927Y-107030195D02*
X154405927Y-106230195D01*
X154405927Y-106230195D02*
X154710689Y-106230195D01*
X154710689Y-106230195D02*
X154786879Y-106268290D01*
X154786879Y-106268290D02*
X154824974Y-106306385D01*
X154824974Y-106306385D02*
X154863070Y-106382576D01*
X154863070Y-106382576D02*
X154863070Y-106496861D01*
X154863070Y-106496861D02*
X154824974Y-106573052D01*
X154824974Y-106573052D02*
X154786879Y-106611147D01*
X154786879Y-106611147D02*
X154710689Y-106649242D01*
X154710689Y-106649242D02*
X154405927Y-106649242D01*
X155815451Y-106725433D02*
X156424975Y-106725433D01*
X156120213Y-107030195D02*
X156120213Y-106420671D01*
X148996403Y-134454104D02*
X148958307Y-134492200D01*
X148958307Y-134492200D02*
X148844022Y-134530295D01*
X148844022Y-134530295D02*
X148767831Y-134530295D01*
X148767831Y-134530295D02*
X148653545Y-134492200D01*
X148653545Y-134492200D02*
X148577355Y-134416009D01*
X148577355Y-134416009D02*
X148539260Y-134339819D01*
X148539260Y-134339819D02*
X148501164Y-134187438D01*
X148501164Y-134187438D02*
X148501164Y-134073152D01*
X148501164Y-134073152D02*
X148539260Y-133920771D01*
X148539260Y-133920771D02*
X148577355Y-133844580D01*
X148577355Y-133844580D02*
X148653545Y-133768390D01*
X148653545Y-133768390D02*
X148767831Y-133730295D01*
X148767831Y-133730295D02*
X148844022Y-133730295D01*
X148844022Y-133730295D02*
X148958307Y-133768390D01*
X148958307Y-133768390D02*
X148996403Y-133806485D01*
X149491641Y-134149342D02*
X149491641Y-134530295D01*
X149224974Y-133730295D02*
X149491641Y-134149342D01*
X149491641Y-134149342D02*
X149758307Y-133730295D01*
X150482117Y-134454104D02*
X150444021Y-134492200D01*
X150444021Y-134492200D02*
X150329736Y-134530295D01*
X150329736Y-134530295D02*
X150253545Y-134530295D01*
X150253545Y-134530295D02*
X150139259Y-134492200D01*
X150139259Y-134492200D02*
X150063069Y-134416009D01*
X150063069Y-134416009D02*
X150024974Y-134339819D01*
X150024974Y-134339819D02*
X149986878Y-134187438D01*
X149986878Y-134187438D02*
X149986878Y-134073152D01*
X149986878Y-134073152D02*
X150024974Y-133920771D01*
X150024974Y-133920771D02*
X150063069Y-133844580D01*
X150063069Y-133844580D02*
X150139259Y-133768390D01*
X150139259Y-133768390D02*
X150253545Y-133730295D01*
X150253545Y-133730295D02*
X150329736Y-133730295D01*
X150329736Y-133730295D02*
X150444021Y-133768390D01*
X150444021Y-133768390D02*
X150482117Y-133806485D01*
X151205926Y-134530295D02*
X150824974Y-134530295D01*
X150824974Y-134530295D02*
X150824974Y-133730295D01*
X151472593Y-134111247D02*
X151739259Y-134111247D01*
X151853545Y-134530295D02*
X151472593Y-134530295D01*
X151472593Y-134530295D02*
X151472593Y-133730295D01*
X151472593Y-133730295D02*
X151853545Y-133730295D01*
X152805927Y-134530295D02*
X152805927Y-133730295D01*
X152805927Y-133730295D02*
X153263070Y-134530295D01*
X153263070Y-134530295D02*
X153263070Y-133730295D01*
X153605926Y-134301723D02*
X153986879Y-134301723D01*
X153529736Y-134530295D02*
X153796403Y-133730295D01*
X153796403Y-133730295D02*
X154063069Y-134530295D01*
X154215450Y-133730295D02*
X154482117Y-134530295D01*
X154482117Y-134530295D02*
X154748783Y-133730295D01*
X163289260Y-101530295D02*
X163289260Y-100730295D01*
X163289260Y-100730295D02*
X163555926Y-101301723D01*
X163555926Y-101301723D02*
X163822593Y-100730295D01*
X163822593Y-100730295D02*
X163822593Y-101530295D01*
X164165450Y-101301723D02*
X164546403Y-101301723D01*
X164089260Y-101530295D02*
X164355927Y-100730295D01*
X164355927Y-100730295D02*
X164622593Y-101530295D01*
X164889260Y-101530295D02*
X164889260Y-100730295D01*
X164889260Y-100730295D02*
X165194022Y-100730295D01*
X165194022Y-100730295D02*
X165270212Y-100768390D01*
X165270212Y-100768390D02*
X165308307Y-100806485D01*
X165308307Y-100806485D02*
X165346403Y-100882676D01*
X165346403Y-100882676D02*
X165346403Y-100996961D01*
X165346403Y-100996961D02*
X165308307Y-101073152D01*
X165308307Y-101073152D02*
X165270212Y-101111247D01*
X165270212Y-101111247D02*
X165194022Y-101149342D01*
X165194022Y-101149342D02*
X164889260Y-101149342D01*
X163289260Y-136780195D02*
X163289260Y-135980195D01*
X163289260Y-135980195D02*
X163746403Y-136780195D01*
X163746403Y-136780195D02*
X163746403Y-135980195D01*
X164089259Y-136551623D02*
X164470212Y-136551623D01*
X164013069Y-136780195D02*
X164279736Y-135980195D01*
X164279736Y-135980195D02*
X164546402Y-136780195D01*
X164698783Y-135980195D02*
X164965450Y-136780195D01*
X164965450Y-136780195D02*
X165232116Y-135980195D01*
X175920112Y-77530395D02*
X175539160Y-77530395D01*
X175539160Y-77530395D02*
X175539160Y-76730395D01*
X176186779Y-77530395D02*
X176186779Y-76730395D01*
X176986778Y-76768490D02*
X176910588Y-76730395D01*
X176910588Y-76730395D02*
X176796302Y-76730395D01*
X176796302Y-76730395D02*
X176682016Y-76768490D01*
X176682016Y-76768490D02*
X176605826Y-76844680D01*
X176605826Y-76844680D02*
X176567731Y-76920871D01*
X176567731Y-76920871D02*
X176529635Y-77073252D01*
X176529635Y-77073252D02*
X176529635Y-77187538D01*
X176529635Y-77187538D02*
X176567731Y-77339919D01*
X176567731Y-77339919D02*
X176605826Y-77416109D01*
X176605826Y-77416109D02*
X176682016Y-77492300D01*
X176682016Y-77492300D02*
X176796302Y-77530395D01*
X176796302Y-77530395D02*
X176872493Y-77530395D01*
X176872493Y-77530395D02*
X176986778Y-77492300D01*
X176986778Y-77492300D02*
X177024874Y-77454204D01*
X177024874Y-77454204D02*
X177024874Y-77187538D01*
X177024874Y-77187538D02*
X176872493Y-77187538D01*
X177367731Y-77530395D02*
X177367731Y-76730395D01*
X177367731Y-77111347D02*
X177824874Y-77111347D01*
X177824874Y-77530395D02*
X177824874Y-76730395D01*
X178091540Y-76730395D02*
X178548683Y-76730395D01*
X178320111Y-77530395D02*
X178320111Y-76730395D01*
X175920112Y-114280395D02*
X175539160Y-114280395D01*
X175539160Y-114280395D02*
X175539160Y-113480395D01*
X176186779Y-114280395D02*
X176186779Y-113480395D01*
X176986778Y-113518490D02*
X176910588Y-113480395D01*
X176910588Y-113480395D02*
X176796302Y-113480395D01*
X176796302Y-113480395D02*
X176682016Y-113518490D01*
X176682016Y-113518490D02*
X176605826Y-113594680D01*
X176605826Y-113594680D02*
X176567731Y-113670871D01*
X176567731Y-113670871D02*
X176529635Y-113823252D01*
X176529635Y-113823252D02*
X176529635Y-113937538D01*
X176529635Y-113937538D02*
X176567731Y-114089919D01*
X176567731Y-114089919D02*
X176605826Y-114166109D01*
X176605826Y-114166109D02*
X176682016Y-114242300D01*
X176682016Y-114242300D02*
X176796302Y-114280395D01*
X176796302Y-114280395D02*
X176872493Y-114280395D01*
X176872493Y-114280395D02*
X176986778Y-114242300D01*
X176986778Y-114242300D02*
X177024874Y-114204204D01*
X177024874Y-114204204D02*
X177024874Y-113937538D01*
X177024874Y-113937538D02*
X176872493Y-113937538D01*
X177367731Y-114280395D02*
X177367731Y-113480395D01*
X177367731Y-113861347D02*
X177824874Y-113861347D01*
X177824874Y-114280395D02*
X177824874Y-113480395D01*
X178091540Y-113480395D02*
X178548683Y-113480395D01*
X178320111Y-114280395D02*
X178320111Y-113480395D01*
X180039060Y-112225533D02*
X180648584Y-112225533D01*
X180343822Y-112530295D02*
X180343822Y-111920771D01*
X183467632Y-112225533D02*
X184077156Y-112225533D01*
X180289260Y-75475533D02*
X180898784Y-75475533D01*
X180594022Y-75780295D02*
X180594022Y-75170771D01*
X183717832Y-75475533D02*
X184327356Y-75475533D01*
X116111347Y-72444173D02*
X116149442Y-72329887D01*
X116149442Y-72329887D02*
X116187538Y-72291792D01*
X116187538Y-72291792D02*
X116263728Y-72253696D01*
X116263728Y-72253696D02*
X116378014Y-72253696D01*
X116378014Y-72253696D02*
X116454204Y-72291792D01*
X116454204Y-72291792D02*
X116492300Y-72329887D01*
X116492300Y-72329887D02*
X116530395Y-72406077D01*
X116530395Y-72406077D02*
X116530395Y-72710839D01*
X116530395Y-72710839D02*
X115730395Y-72710839D01*
X115730395Y-72710839D02*
X115730395Y-72444173D01*
X115730395Y-72444173D02*
X115768490Y-72367982D01*
X115768490Y-72367982D02*
X115806585Y-72329887D01*
X115806585Y-72329887D02*
X115882776Y-72291792D01*
X115882776Y-72291792D02*
X115958966Y-72291792D01*
X115958966Y-72291792D02*
X116035157Y-72329887D01*
X116035157Y-72329887D02*
X116073252Y-72367982D01*
X116073252Y-72367982D02*
X116111347Y-72444173D01*
X116111347Y-72444173D02*
X116111347Y-72710839D01*
X116530395Y-71910839D02*
X115730395Y-71910839D01*
X116530395Y-71148935D02*
X116530395Y-71529887D01*
X116530395Y-71529887D02*
X115730395Y-71529887D01*
X116530395Y-70501316D02*
X116530395Y-70882268D01*
X116530395Y-70882268D02*
X115730395Y-70882268D01*
X117730395Y-72036930D02*
X118530395Y-71846454D01*
X118530395Y-71846454D02*
X117958966Y-71694073D01*
X117958966Y-71694073D02*
X118530395Y-71541692D01*
X118530395Y-71541692D02*
X117730395Y-71351216D01*
X117730395Y-71046453D02*
X118378014Y-71046453D01*
X118378014Y-71046453D02*
X118454204Y-71008358D01*
X118454204Y-71008358D02*
X118492300Y-70970263D01*
X118492300Y-70970263D02*
X118530395Y-70894072D01*
X118530395Y-70894072D02*
X118530395Y-70741691D01*
X118530395Y-70741691D02*
X118492300Y-70665501D01*
X118492300Y-70665501D02*
X118454204Y-70627406D01*
X118454204Y-70627406D02*
X118378014Y-70589310D01*
X118378014Y-70589310D02*
X117730395Y-70589310D01*
X117730395Y-70284549D02*
X117730395Y-69751215D01*
X117730395Y-69751215D02*
X118530395Y-70284549D01*
X118530395Y-70284549D02*
X118530395Y-69751215D01*
X120280195Y-70960739D02*
X119480195Y-70960739D01*
X119861147Y-70960739D02*
X119861147Y-70503596D01*
X120280195Y-70503596D02*
X119480195Y-70503596D01*
X119861147Y-70122644D02*
X119861147Y-69855978D01*
X120280195Y-69741692D02*
X120280195Y-70122644D01*
X120280195Y-70122644D02*
X119480195Y-70122644D01*
X119480195Y-70122644D02*
X119480195Y-69741692D01*
X120280195Y-68941691D02*
X119899242Y-69208358D01*
X120280195Y-69398834D02*
X119480195Y-69398834D01*
X119480195Y-69398834D02*
X119480195Y-69094072D01*
X119480195Y-69094072D02*
X119518290Y-69017882D01*
X119518290Y-69017882D02*
X119556385Y-68979787D01*
X119556385Y-68979787D02*
X119632576Y-68941691D01*
X119632576Y-68941691D02*
X119746861Y-68941691D01*
X119746861Y-68941691D02*
X119823052Y-68979787D01*
X119823052Y-68979787D02*
X119861147Y-69017882D01*
X119861147Y-69017882D02*
X119899242Y-69094072D01*
X119899242Y-69094072D02*
X119899242Y-69398834D01*
X119861147Y-68598834D02*
X119861147Y-68332168D01*
X120280195Y-68217882D02*
X120280195Y-68598834D01*
X120280195Y-68598834D02*
X119480195Y-68598834D01*
X119480195Y-68598834D02*
X119480195Y-68217882D01*
X119272017Y-146770933D02*
X119705350Y-146770933D01*
X119185350Y-147030933D02*
X119488684Y-146120933D01*
X119488684Y-146120933D02*
X119792017Y-147030933D01*
X119965350Y-146120933D02*
X120485350Y-146120933D01*
X120225350Y-147030933D02*
X120225350Y-146120933D01*
X120658683Y-146120933D02*
X121178683Y-146120933D01*
X120918683Y-147030933D02*
X120918683Y-146120933D01*
X121482016Y-147030933D02*
X121482016Y-146120933D01*
X121915349Y-147030933D02*
X121915349Y-146120933D01*
X121915349Y-146120933D02*
X122435349Y-147030933D01*
X122435349Y-147030933D02*
X122435349Y-146120933D01*
X123042016Y-146597600D02*
X123042016Y-147030933D01*
X122738682Y-146120933D02*
X123042016Y-146597600D01*
X123042016Y-146597600D02*
X123345349Y-146120933D01*
X123605349Y-146207600D02*
X123648682Y-146164266D01*
X123648682Y-146164266D02*
X123735349Y-146120933D01*
X123735349Y-146120933D02*
X123952016Y-146120933D01*
X123952016Y-146120933D02*
X124038682Y-146164266D01*
X124038682Y-146164266D02*
X124082016Y-146207600D01*
X124082016Y-146207600D02*
X124125349Y-146294266D01*
X124125349Y-146294266D02*
X124125349Y-146380933D01*
X124125349Y-146380933D02*
X124082016Y-146510933D01*
X124082016Y-146510933D02*
X123562016Y-147030933D01*
X123562016Y-147030933D02*
X124125349Y-147030933D01*
X124948683Y-146120933D02*
X124515349Y-146120933D01*
X124515349Y-146120933D02*
X124472016Y-146554266D01*
X124472016Y-146554266D02*
X124515349Y-146510933D01*
X124515349Y-146510933D02*
X124602016Y-146467600D01*
X124602016Y-146467600D02*
X124818683Y-146467600D01*
X124818683Y-146467600D02*
X124905349Y-146510933D01*
X124905349Y-146510933D02*
X124948683Y-146554266D01*
X124948683Y-146554266D02*
X124992016Y-146640933D01*
X124992016Y-146640933D02*
X124992016Y-146857600D01*
X124992016Y-146857600D02*
X124948683Y-146944266D01*
X124948683Y-146944266D02*
X124905349Y-146987600D01*
X124905349Y-146987600D02*
X124818683Y-147030933D01*
X124818683Y-147030933D02*
X124602016Y-147030933D01*
X124602016Y-147030933D02*
X124515349Y-146987600D01*
X124515349Y-146987600D02*
X124472016Y-146944266D01*
X140978684Y-146621133D02*
X141585350Y-146621133D01*
X141585350Y-146621133D02*
X141195350Y-147531133D01*
X142322017Y-146924466D02*
X142322017Y-147531133D01*
X142105351Y-146577800D02*
X141888684Y-147227800D01*
X141888684Y-147227800D02*
X142452017Y-147227800D01*
X142798684Y-147531133D02*
X142798684Y-146621133D01*
X142798684Y-147054466D02*
X143318684Y-147054466D01*
X143318684Y-147531133D02*
X143318684Y-146621133D01*
X144272017Y-147444466D02*
X144228684Y-147487800D01*
X144228684Y-147487800D02*
X144098684Y-147531133D01*
X144098684Y-147531133D02*
X144012017Y-147531133D01*
X144012017Y-147531133D02*
X143882017Y-147487800D01*
X143882017Y-147487800D02*
X143795351Y-147401133D01*
X143795351Y-147401133D02*
X143752017Y-147314466D01*
X143752017Y-147314466D02*
X143708684Y-147141133D01*
X143708684Y-147141133D02*
X143708684Y-147011133D01*
X143708684Y-147011133D02*
X143752017Y-146837800D01*
X143752017Y-146837800D02*
X143795351Y-146751133D01*
X143795351Y-146751133D02*
X143882017Y-146664466D01*
X143882017Y-146664466D02*
X144012017Y-146621133D01*
X144012017Y-146621133D02*
X144098684Y-146621133D01*
X144098684Y-146621133D02*
X144228684Y-146664466D01*
X144228684Y-146664466D02*
X144272017Y-146707800D01*
X145138684Y-147531133D02*
X144618684Y-147531133D01*
X144878684Y-147531133D02*
X144878684Y-146621133D01*
X144878684Y-146621133D02*
X144792017Y-146751133D01*
X144792017Y-146751133D02*
X144705351Y-146837800D01*
X144705351Y-146837800D02*
X144618684Y-146881133D01*
X145918684Y-146621133D02*
X145745351Y-146621133D01*
X145745351Y-146621133D02*
X145658684Y-146664466D01*
X145658684Y-146664466D02*
X145615351Y-146707800D01*
X145615351Y-146707800D02*
X145528684Y-146837800D01*
X145528684Y-146837800D02*
X145485351Y-147011133D01*
X145485351Y-147011133D02*
X145485351Y-147357800D01*
X145485351Y-147357800D02*
X145528684Y-147444466D01*
X145528684Y-147444466D02*
X145572018Y-147487800D01*
X145572018Y-147487800D02*
X145658684Y-147531133D01*
X145658684Y-147531133D02*
X145832018Y-147531133D01*
X145832018Y-147531133D02*
X145918684Y-147487800D01*
X145918684Y-147487800D02*
X145962018Y-147444466D01*
X145962018Y-147444466D02*
X146005351Y-147357800D01*
X146005351Y-147357800D02*
X146005351Y-147141133D01*
X146005351Y-147141133D02*
X145962018Y-147054466D01*
X145962018Y-147054466D02*
X145918684Y-147011133D01*
X145918684Y-147011133D02*
X145832018Y-146967800D01*
X145832018Y-146967800D02*
X145658684Y-146967800D01*
X145658684Y-146967800D02*
X145572018Y-147011133D01*
X145572018Y-147011133D02*
X145528684Y-147054466D01*
X145528684Y-147054466D02*
X145485351Y-147141133D01*
X146828685Y-146621133D02*
X146395351Y-146621133D01*
X146395351Y-146621133D02*
X146352018Y-147054466D01*
X146352018Y-147054466D02*
X146395351Y-147011133D01*
X146395351Y-147011133D02*
X146482018Y-146967800D01*
X146482018Y-146967800D02*
X146698685Y-146967800D01*
X146698685Y-146967800D02*
X146785351Y-147011133D01*
X146785351Y-147011133D02*
X146828685Y-147054466D01*
X146828685Y-147054466D02*
X146872018Y-147141133D01*
X146872018Y-147141133D02*
X146872018Y-147357800D01*
X146872018Y-147357800D02*
X146828685Y-147444466D01*
X146828685Y-147444466D02*
X146785351Y-147487800D01*
X146785351Y-147487800D02*
X146698685Y-147531133D01*
X146698685Y-147531133D02*
X146482018Y-147531133D01*
X146482018Y-147531133D02*
X146395351Y-147487800D01*
X146395351Y-147487800D02*
X146352018Y-147444466D01*
D13*
X100951504Y-71172054D02*
X102171504Y-71172054D01*
X102171504Y-71172054D02*
X100951504Y-71869197D01*
X100951504Y-71869197D02*
X102171504Y-71869197D01*
X101300076Y-72392053D02*
X101300076Y-72973006D01*
X100951504Y-72275863D02*
X102171504Y-72682530D01*
X102171504Y-72682530D02*
X100951504Y-73089196D01*
X102171504Y-73321577D02*
X100951504Y-73728244D01*
X100951504Y-73728244D02*
X102171504Y-74134910D01*
X100951504Y-74541577D02*
X102171504Y-74541577D01*
X102113409Y-75761576D02*
X102171504Y-75645386D01*
X102171504Y-75645386D02*
X102171504Y-75471100D01*
X102171504Y-75471100D02*
X102113409Y-75296814D01*
X102113409Y-75296814D02*
X101997219Y-75180624D01*
X101997219Y-75180624D02*
X101881028Y-75122529D01*
X101881028Y-75122529D02*
X101648647Y-75064433D01*
X101648647Y-75064433D02*
X101474361Y-75064433D01*
X101474361Y-75064433D02*
X101241980Y-75122529D01*
X101241980Y-75122529D02*
X101125790Y-75180624D01*
X101125790Y-75180624D02*
X101009600Y-75296814D01*
X101009600Y-75296814D02*
X100951504Y-75471100D01*
X100951504Y-75471100D02*
X100951504Y-75587291D01*
X100951504Y-75587291D02*
X101009600Y-75761576D01*
X101009600Y-75761576D02*
X101067695Y-75819672D01*
X101067695Y-75819672D02*
X101474361Y-75819672D01*
X101474361Y-75819672D02*
X101474361Y-75587291D01*
X101300076Y-76284433D02*
X101300076Y-76865386D01*
X100951504Y-76168243D02*
X102171504Y-76574910D01*
X102171504Y-76574910D02*
X100951504Y-76981576D01*
X102171504Y-77213957D02*
X102171504Y-77911100D01*
X100951504Y-77562528D02*
X102171504Y-77562528D01*
X100951504Y-78317767D02*
X102171504Y-78317767D01*
X102171504Y-79131100D02*
X102171504Y-79363481D01*
X102171504Y-79363481D02*
X102113409Y-79479671D01*
X102113409Y-79479671D02*
X101997219Y-79595862D01*
X101997219Y-79595862D02*
X101764838Y-79653957D01*
X101764838Y-79653957D02*
X101358171Y-79653957D01*
X101358171Y-79653957D02*
X101125790Y-79595862D01*
X101125790Y-79595862D02*
X101009600Y-79479671D01*
X101009600Y-79479671D02*
X100951504Y-79363481D01*
X100951504Y-79363481D02*
X100951504Y-79131100D01*
X100951504Y-79131100D02*
X101009600Y-79014909D01*
X101009600Y-79014909D02*
X101125790Y-78898719D01*
X101125790Y-78898719D02*
X101358171Y-78840623D01*
X101358171Y-78840623D02*
X101764838Y-78840623D01*
X101764838Y-78840623D02*
X101997219Y-78898719D01*
X101997219Y-78898719D02*
X102113409Y-79014909D01*
X102113409Y-79014909D02*
X102171504Y-79131100D01*
X100951504Y-80176814D02*
X102171504Y-80176814D01*
X102171504Y-80176814D02*
X100951504Y-80873957D01*
X100951504Y-80873957D02*
X102171504Y-80873957D01*
X100951504Y-82384433D02*
X102171504Y-82384433D01*
X102171504Y-82384433D02*
X101300076Y-82791099D01*
X101300076Y-82791099D02*
X102171504Y-83197766D01*
X102171504Y-83197766D02*
X100951504Y-83197766D01*
X102171504Y-84011100D02*
X102171504Y-84243481D01*
X102171504Y-84243481D02*
X102113409Y-84359671D01*
X102113409Y-84359671D02*
X101997219Y-84475862D01*
X101997219Y-84475862D02*
X101764838Y-84533957D01*
X101764838Y-84533957D02*
X101358171Y-84533957D01*
X101358171Y-84533957D02*
X101125790Y-84475862D01*
X101125790Y-84475862D02*
X101009600Y-84359671D01*
X101009600Y-84359671D02*
X100951504Y-84243481D01*
X100951504Y-84243481D02*
X100951504Y-84011100D01*
X100951504Y-84011100D02*
X101009600Y-83894909D01*
X101009600Y-83894909D02*
X101125790Y-83778719D01*
X101125790Y-83778719D02*
X101358171Y-83720623D01*
X101358171Y-83720623D02*
X101764838Y-83720623D01*
X101764838Y-83720623D02*
X101997219Y-83778719D01*
X101997219Y-83778719D02*
X102113409Y-83894909D01*
X102113409Y-83894909D02*
X102171504Y-84011100D01*
X100951504Y-85056814D02*
X102171504Y-85056814D01*
X102171504Y-85056814D02*
X102171504Y-85347290D01*
X102171504Y-85347290D02*
X102113409Y-85521576D01*
X102113409Y-85521576D02*
X101997219Y-85637766D01*
X101997219Y-85637766D02*
X101881028Y-85695861D01*
X101881028Y-85695861D02*
X101648647Y-85753957D01*
X101648647Y-85753957D02*
X101474361Y-85753957D01*
X101474361Y-85753957D02*
X101241980Y-85695861D01*
X101241980Y-85695861D02*
X101125790Y-85637766D01*
X101125790Y-85637766D02*
X101009600Y-85521576D01*
X101009600Y-85521576D02*
X100951504Y-85347290D01*
X100951504Y-85347290D02*
X100951504Y-85056814D01*
X102171504Y-86276814D02*
X101183885Y-86276814D01*
X101183885Y-86276814D02*
X101067695Y-86334909D01*
X101067695Y-86334909D02*
X101009600Y-86393004D01*
X101009600Y-86393004D02*
X100951504Y-86509195D01*
X100951504Y-86509195D02*
X100951504Y-86741576D01*
X100951504Y-86741576D02*
X101009600Y-86857766D01*
X101009600Y-86857766D02*
X101067695Y-86915861D01*
X101067695Y-86915861D02*
X101183885Y-86973957D01*
X101183885Y-86973957D02*
X102171504Y-86973957D01*
X100951504Y-88135861D02*
X100951504Y-87554909D01*
X100951504Y-87554909D02*
X102171504Y-87554909D01*
X101590552Y-88542528D02*
X101590552Y-88949194D01*
X100951504Y-89123480D02*
X100951504Y-88542528D01*
X100951504Y-88542528D02*
X102171504Y-88542528D01*
X102171504Y-88542528D02*
X102171504Y-89123480D01*
X101764838Y-90459671D02*
X100951504Y-90750147D01*
X100951504Y-90750147D02*
X101764838Y-91040624D01*
X100951504Y-92144433D02*
X100951504Y-91447290D01*
X100951504Y-91795862D02*
X102171504Y-91795862D01*
X102171504Y-91795862D02*
X101997219Y-91679671D01*
X101997219Y-91679671D02*
X101881028Y-91563481D01*
X101881028Y-91563481D02*
X101822933Y-91447290D01*
X101067695Y-92667291D02*
X101009600Y-92725386D01*
X101009600Y-92725386D02*
X100951504Y-92667291D01*
X100951504Y-92667291D02*
X101009600Y-92609195D01*
X101009600Y-92609195D02*
X101067695Y-92667291D01*
X101067695Y-92667291D02*
X100951504Y-92667291D01*
X101648647Y-93422528D02*
X101706742Y-93306338D01*
X101706742Y-93306338D02*
X101764838Y-93248243D01*
X101764838Y-93248243D02*
X101881028Y-93190147D01*
X101881028Y-93190147D02*
X101939123Y-93190147D01*
X101939123Y-93190147D02*
X102055314Y-93248243D01*
X102055314Y-93248243D02*
X102113409Y-93306338D01*
X102113409Y-93306338D02*
X102171504Y-93422528D01*
X102171504Y-93422528D02*
X102171504Y-93654909D01*
X102171504Y-93654909D02*
X102113409Y-93771100D01*
X102113409Y-93771100D02*
X102055314Y-93829195D01*
X102055314Y-93829195D02*
X101939123Y-93887290D01*
X101939123Y-93887290D02*
X101881028Y-93887290D01*
X101881028Y-93887290D02*
X101764838Y-93829195D01*
X101764838Y-93829195D02*
X101706742Y-93771100D01*
X101706742Y-93771100D02*
X101648647Y-93654909D01*
X101648647Y-93654909D02*
X101648647Y-93422528D01*
X101648647Y-93422528D02*
X101590552Y-93306338D01*
X101590552Y-93306338D02*
X101532457Y-93248243D01*
X101532457Y-93248243D02*
X101416266Y-93190147D01*
X101416266Y-93190147D02*
X101183885Y-93190147D01*
X101183885Y-93190147D02*
X101067695Y-93248243D01*
X101067695Y-93248243D02*
X101009600Y-93306338D01*
X101009600Y-93306338D02*
X100951504Y-93422528D01*
X100951504Y-93422528D02*
X100951504Y-93654909D01*
X100951504Y-93654909D02*
X101009600Y-93771100D01*
X101009600Y-93771100D02*
X101067695Y-93829195D01*
X101067695Y-93829195D02*
X101183885Y-93887290D01*
X101183885Y-93887290D02*
X101416266Y-93887290D01*
X101416266Y-93887290D02*
X101532457Y-93829195D01*
X101532457Y-93829195D02*
X101590552Y-93771100D01*
X101590552Y-93771100D02*
X101648647Y-93654909D01*
X110769673Y-157441719D02*
X110769673Y-158761242D01*
X110769673Y-158761242D02*
X110847292Y-158916480D01*
X110847292Y-158916480D02*
X110924911Y-158994100D01*
X110924911Y-158994100D02*
X111080149Y-159071719D01*
X111080149Y-159071719D02*
X111390625Y-159071719D01*
X111390625Y-159071719D02*
X111545863Y-158994100D01*
X111545863Y-158994100D02*
X111623482Y-158916480D01*
X111623482Y-158916480D02*
X111701101Y-158761242D01*
X111701101Y-158761242D02*
X111701101Y-157441719D01*
X112477292Y-159071719D02*
X112477292Y-157441719D01*
X112477292Y-157441719D02*
X113408720Y-159071719D01*
X113408720Y-159071719D02*
X113408720Y-157441719D01*
X113952054Y-157441719D02*
X114883482Y-157441719D01*
X114417768Y-159071719D02*
X114417768Y-157441719D01*
X115426816Y-159071719D02*
X115426816Y-157441719D01*
X115970149Y-157441719D02*
X116901577Y-157441719D01*
X116435863Y-159071719D02*
X116435863Y-157441719D01*
X118221101Y-159071719D02*
X117444911Y-159071719D01*
X117444911Y-159071719D02*
X117444911Y-157441719D01*
X118764435Y-158217909D02*
X119307768Y-158217909D01*
X119540625Y-159071719D02*
X118764435Y-159071719D01*
X118764435Y-159071719D02*
X118764435Y-157441719D01*
X118764435Y-157441719D02*
X119540625Y-157441719D01*
X120239197Y-159071719D02*
X120239197Y-157441719D01*
X120239197Y-157441719D02*
X120627292Y-157441719D01*
X120627292Y-157441719D02*
X120860149Y-157519338D01*
X120860149Y-157519338D02*
X121015387Y-157674576D01*
X121015387Y-157674576D02*
X121093006Y-157829814D01*
X121093006Y-157829814D02*
X121170625Y-158140290D01*
X121170625Y-158140290D02*
X121170625Y-158373147D01*
X121170625Y-158373147D02*
X121093006Y-158683623D01*
X121093006Y-158683623D02*
X121015387Y-158838861D01*
X121015387Y-158838861D02*
X120860149Y-158994100D01*
X120860149Y-158994100D02*
X120627292Y-159071719D01*
X120627292Y-159071719D02*
X120239197Y-159071719D01*
X123033483Y-158994100D02*
X123266340Y-159071719D01*
X123266340Y-159071719D02*
X123654435Y-159071719D01*
X123654435Y-159071719D02*
X123809673Y-158994100D01*
X123809673Y-158994100D02*
X123887292Y-158916480D01*
X123887292Y-158916480D02*
X123964911Y-158761242D01*
X123964911Y-158761242D02*
X123964911Y-158606004D01*
X123964911Y-158606004D02*
X123887292Y-158450766D01*
X123887292Y-158450766D02*
X123809673Y-158373147D01*
X123809673Y-158373147D02*
X123654435Y-158295528D01*
X123654435Y-158295528D02*
X123343959Y-158217909D01*
X123343959Y-158217909D02*
X123188721Y-158140290D01*
X123188721Y-158140290D02*
X123111102Y-158062671D01*
X123111102Y-158062671D02*
X123033483Y-157907433D01*
X123033483Y-157907433D02*
X123033483Y-157752195D01*
X123033483Y-157752195D02*
X123111102Y-157596957D01*
X123111102Y-157596957D02*
X123188721Y-157519338D01*
X123188721Y-157519338D02*
X123343959Y-157441719D01*
X123343959Y-157441719D02*
X123732054Y-157441719D01*
X123732054Y-157441719D02*
X123964911Y-157519338D01*
X124663483Y-159071719D02*
X124663483Y-157441719D01*
X124663483Y-157441719D02*
X125284435Y-157441719D01*
X125284435Y-157441719D02*
X125439673Y-157519338D01*
X125439673Y-157519338D02*
X125517292Y-157596957D01*
X125517292Y-157596957D02*
X125594911Y-157752195D01*
X125594911Y-157752195D02*
X125594911Y-157985052D01*
X125594911Y-157985052D02*
X125517292Y-158140290D01*
X125517292Y-158140290D02*
X125439673Y-158217909D01*
X125439673Y-158217909D02*
X125284435Y-158295528D01*
X125284435Y-158295528D02*
X124663483Y-158295528D01*
X126215864Y-158606004D02*
X126992054Y-158606004D01*
X126060626Y-159071719D02*
X126603959Y-157441719D01*
X126603959Y-157441719D02*
X127147292Y-159071719D01*
X128622054Y-158916480D02*
X128544435Y-158994100D01*
X128544435Y-158994100D02*
X128311578Y-159071719D01*
X128311578Y-159071719D02*
X128156340Y-159071719D01*
X128156340Y-159071719D02*
X127923483Y-158994100D01*
X127923483Y-158994100D02*
X127768245Y-158838861D01*
X127768245Y-158838861D02*
X127690626Y-158683623D01*
X127690626Y-158683623D02*
X127613007Y-158373147D01*
X127613007Y-158373147D02*
X127613007Y-158140290D01*
X127613007Y-158140290D02*
X127690626Y-157829814D01*
X127690626Y-157829814D02*
X127768245Y-157674576D01*
X127768245Y-157674576D02*
X127923483Y-157519338D01*
X127923483Y-157519338D02*
X128156340Y-157441719D01*
X128156340Y-157441719D02*
X128311578Y-157441719D01*
X128311578Y-157441719D02*
X128544435Y-157519338D01*
X128544435Y-157519338D02*
X128622054Y-157596957D01*
X129320626Y-158217909D02*
X129863959Y-158217909D01*
X130096816Y-159071719D02*
X129320626Y-159071719D01*
X129320626Y-159071719D02*
X129320626Y-157441719D01*
X129320626Y-157441719D02*
X130096816Y-157441719D01*
X132968721Y-158916480D02*
X132891102Y-158994100D01*
X132891102Y-158994100D02*
X132658245Y-159071719D01*
X132658245Y-159071719D02*
X132503007Y-159071719D01*
X132503007Y-159071719D02*
X132270150Y-158994100D01*
X132270150Y-158994100D02*
X132114912Y-158838861D01*
X132114912Y-158838861D02*
X132037293Y-158683623D01*
X132037293Y-158683623D02*
X131959674Y-158373147D01*
X131959674Y-158373147D02*
X131959674Y-158140290D01*
X131959674Y-158140290D02*
X132037293Y-157829814D01*
X132037293Y-157829814D02*
X132114912Y-157674576D01*
X132114912Y-157674576D02*
X132270150Y-157519338D01*
X132270150Y-157519338D02*
X132503007Y-157441719D01*
X132503007Y-157441719D02*
X132658245Y-157441719D01*
X132658245Y-157441719D02*
X132891102Y-157519338D01*
X132891102Y-157519338D02*
X132968721Y-157596957D01*
X134598721Y-159071719D02*
X134055388Y-158295528D01*
X133667293Y-159071719D02*
X133667293Y-157441719D01*
X133667293Y-157441719D02*
X134288245Y-157441719D01*
X134288245Y-157441719D02*
X134443483Y-157519338D01*
X134443483Y-157519338D02*
X134521102Y-157596957D01*
X134521102Y-157596957D02*
X134598721Y-157752195D01*
X134598721Y-157752195D02*
X134598721Y-157985052D01*
X134598721Y-157985052D02*
X134521102Y-158140290D01*
X134521102Y-158140290D02*
X134443483Y-158217909D01*
X134443483Y-158217909D02*
X134288245Y-158295528D01*
X134288245Y-158295528D02*
X133667293Y-158295528D01*
X135219674Y-158606004D02*
X135995864Y-158606004D01*
X135064436Y-159071719D02*
X135607769Y-157441719D01*
X135607769Y-157441719D02*
X136151102Y-159071719D01*
X137237769Y-158217909D02*
X136694436Y-158217909D01*
X136694436Y-159071719D02*
X136694436Y-157441719D01*
X136694436Y-157441719D02*
X137470626Y-157441719D01*
X137858722Y-157441719D02*
X138790150Y-157441719D01*
X138324436Y-159071719D02*
X138324436Y-157441719D01*
X146269673Y-68447219D02*
X146269673Y-66817219D01*
X146269673Y-66817219D02*
X146657768Y-66817219D01*
X146657768Y-66817219D02*
X146890625Y-66894838D01*
X146890625Y-66894838D02*
X147045863Y-67050076D01*
X147045863Y-67050076D02*
X147123482Y-67205314D01*
X147123482Y-67205314D02*
X147201101Y-67515790D01*
X147201101Y-67515790D02*
X147201101Y-67748647D01*
X147201101Y-67748647D02*
X147123482Y-68059123D01*
X147123482Y-68059123D02*
X147045863Y-68214361D01*
X147045863Y-68214361D02*
X146890625Y-68369600D01*
X146890625Y-68369600D02*
X146657768Y-68447219D01*
X146657768Y-68447219D02*
X146269673Y-68447219D01*
X147822054Y-67981504D02*
X148598244Y-67981504D01*
X147666816Y-68447219D02*
X148210149Y-66817219D01*
X148210149Y-66817219D02*
X148753482Y-68447219D01*
X149063959Y-66817219D02*
X149995387Y-66817219D01*
X149529673Y-68447219D02*
X149529673Y-66817219D01*
X150461102Y-67981504D02*
X151237292Y-67981504D01*
X150305864Y-68447219D02*
X150849197Y-66817219D01*
X150849197Y-66817219D02*
X151392530Y-68447219D01*
X153721102Y-67593409D02*
X153953959Y-67671028D01*
X153953959Y-67671028D02*
X154031578Y-67748647D01*
X154031578Y-67748647D02*
X154109197Y-67903885D01*
X154109197Y-67903885D02*
X154109197Y-68136742D01*
X154109197Y-68136742D02*
X154031578Y-68291980D01*
X154031578Y-68291980D02*
X153953959Y-68369600D01*
X153953959Y-68369600D02*
X153798721Y-68447219D01*
X153798721Y-68447219D02*
X153177769Y-68447219D01*
X153177769Y-68447219D02*
X153177769Y-66817219D01*
X153177769Y-66817219D02*
X153721102Y-66817219D01*
X153721102Y-66817219D02*
X153876340Y-66894838D01*
X153876340Y-66894838D02*
X153953959Y-66972457D01*
X153953959Y-66972457D02*
X154031578Y-67127695D01*
X154031578Y-67127695D02*
X154031578Y-67282933D01*
X154031578Y-67282933D02*
X153953959Y-67438171D01*
X153953959Y-67438171D02*
X153876340Y-67515790D01*
X153876340Y-67515790D02*
X153721102Y-67593409D01*
X153721102Y-67593409D02*
X153177769Y-67593409D01*
X154807769Y-66817219D02*
X154807769Y-68136742D01*
X154807769Y-68136742D02*
X154885388Y-68291980D01*
X154885388Y-68291980D02*
X154963007Y-68369600D01*
X154963007Y-68369600D02*
X155118245Y-68447219D01*
X155118245Y-68447219D02*
X155428721Y-68447219D01*
X155428721Y-68447219D02*
X155583959Y-68369600D01*
X155583959Y-68369600D02*
X155661578Y-68291980D01*
X155661578Y-68291980D02*
X155739197Y-68136742D01*
X155739197Y-68136742D02*
X155739197Y-66817219D01*
X156437769Y-68369600D02*
X156670626Y-68447219D01*
X156670626Y-68447219D02*
X157058721Y-68447219D01*
X157058721Y-68447219D02*
X157213959Y-68369600D01*
X157213959Y-68369600D02*
X157291578Y-68291980D01*
X157291578Y-68291980D02*
X157369197Y-68136742D01*
X157369197Y-68136742D02*
X157369197Y-67981504D01*
X157369197Y-67981504D02*
X157291578Y-67826266D01*
X157291578Y-67826266D02*
X157213959Y-67748647D01*
X157213959Y-67748647D02*
X157058721Y-67671028D01*
X157058721Y-67671028D02*
X156748245Y-67593409D01*
X156748245Y-67593409D02*
X156593007Y-67515790D01*
X156593007Y-67515790D02*
X156515388Y-67438171D01*
X156515388Y-67438171D02*
X156437769Y-67282933D01*
X156437769Y-67282933D02*
X156437769Y-67127695D01*
X156437769Y-67127695D02*
X156515388Y-66972457D01*
X156515388Y-66972457D02*
X156593007Y-66894838D01*
X156593007Y-66894838D02*
X156748245Y-66817219D01*
X156748245Y-66817219D02*
X157136340Y-66817219D01*
X157136340Y-66817219D02*
X157369197Y-66894838D01*
X160241102Y-68291980D02*
X160163483Y-68369600D01*
X160163483Y-68369600D02*
X159930626Y-68447219D01*
X159930626Y-68447219D02*
X159775388Y-68447219D01*
X159775388Y-68447219D02*
X159542531Y-68369600D01*
X159542531Y-68369600D02*
X159387293Y-68214361D01*
X159387293Y-68214361D02*
X159309674Y-68059123D01*
X159309674Y-68059123D02*
X159232055Y-67748647D01*
X159232055Y-67748647D02*
X159232055Y-67515790D01*
X159232055Y-67515790D02*
X159309674Y-67205314D01*
X159309674Y-67205314D02*
X159387293Y-67050076D01*
X159387293Y-67050076D02*
X159542531Y-66894838D01*
X159542531Y-66894838D02*
X159775388Y-66817219D01*
X159775388Y-66817219D02*
X159930626Y-66817219D01*
X159930626Y-66817219D02*
X160163483Y-66894838D01*
X160163483Y-66894838D02*
X160241102Y-66972457D01*
X161250150Y-66817219D02*
X161560626Y-66817219D01*
X161560626Y-66817219D02*
X161715864Y-66894838D01*
X161715864Y-66894838D02*
X161871102Y-67050076D01*
X161871102Y-67050076D02*
X161948721Y-67360552D01*
X161948721Y-67360552D02*
X161948721Y-67903885D01*
X161948721Y-67903885D02*
X161871102Y-68214361D01*
X161871102Y-68214361D02*
X161715864Y-68369600D01*
X161715864Y-68369600D02*
X161560626Y-68447219D01*
X161560626Y-68447219D02*
X161250150Y-68447219D01*
X161250150Y-68447219D02*
X161094912Y-68369600D01*
X161094912Y-68369600D02*
X160939674Y-68214361D01*
X160939674Y-68214361D02*
X160862055Y-67903885D01*
X160862055Y-67903885D02*
X160862055Y-67360552D01*
X160862055Y-67360552D02*
X160939674Y-67050076D01*
X160939674Y-67050076D02*
X161094912Y-66894838D01*
X161094912Y-66894838D02*
X161250150Y-66817219D01*
X162647293Y-68447219D02*
X162647293Y-66817219D01*
X162647293Y-66817219D02*
X163578721Y-68447219D01*
X163578721Y-68447219D02*
X163578721Y-66817219D01*
X164354912Y-68447219D02*
X164354912Y-66817219D01*
X164354912Y-66817219D02*
X165286340Y-68447219D01*
X165286340Y-68447219D02*
X165286340Y-66817219D01*
X175201101Y-158916480D02*
X175123482Y-158994100D01*
X175123482Y-158994100D02*
X174890625Y-159071719D01*
X174890625Y-159071719D02*
X174735387Y-159071719D01*
X174735387Y-159071719D02*
X174502530Y-158994100D01*
X174502530Y-158994100D02*
X174347292Y-158838861D01*
X174347292Y-158838861D02*
X174269673Y-158683623D01*
X174269673Y-158683623D02*
X174192054Y-158373147D01*
X174192054Y-158373147D02*
X174192054Y-158140290D01*
X174192054Y-158140290D02*
X174269673Y-157829814D01*
X174269673Y-157829814D02*
X174347292Y-157674576D01*
X174347292Y-157674576D02*
X174502530Y-157519338D01*
X174502530Y-157519338D02*
X174735387Y-157441719D01*
X174735387Y-157441719D02*
X174890625Y-157441719D01*
X174890625Y-157441719D02*
X175123482Y-157519338D01*
X175123482Y-157519338D02*
X175201101Y-157596957D01*
X176210149Y-157441719D02*
X176520625Y-157441719D01*
X176520625Y-157441719D02*
X176675863Y-157519338D01*
X176675863Y-157519338D02*
X176831101Y-157674576D01*
X176831101Y-157674576D02*
X176908720Y-157985052D01*
X176908720Y-157985052D02*
X176908720Y-158528385D01*
X176908720Y-158528385D02*
X176831101Y-158838861D01*
X176831101Y-158838861D02*
X176675863Y-158994100D01*
X176675863Y-158994100D02*
X176520625Y-159071719D01*
X176520625Y-159071719D02*
X176210149Y-159071719D01*
X176210149Y-159071719D02*
X176054911Y-158994100D01*
X176054911Y-158994100D02*
X175899673Y-158838861D01*
X175899673Y-158838861D02*
X175822054Y-158528385D01*
X175822054Y-158528385D02*
X175822054Y-157985052D01*
X175822054Y-157985052D02*
X175899673Y-157674576D01*
X175899673Y-157674576D02*
X176054911Y-157519338D01*
X176054911Y-157519338D02*
X176210149Y-157441719D01*
X177607292Y-159071719D02*
X177607292Y-157441719D01*
X177607292Y-157441719D02*
X177995387Y-157441719D01*
X177995387Y-157441719D02*
X178228244Y-157519338D01*
X178228244Y-157519338D02*
X178383482Y-157674576D01*
X178383482Y-157674576D02*
X178461101Y-157829814D01*
X178461101Y-157829814D02*
X178538720Y-158140290D01*
X178538720Y-158140290D02*
X178538720Y-158373147D01*
X178538720Y-158373147D02*
X178461101Y-158683623D01*
X178461101Y-158683623D02*
X178383482Y-158838861D01*
X178383482Y-158838861D02*
X178228244Y-158994100D01*
X178228244Y-158994100D02*
X177995387Y-159071719D01*
X177995387Y-159071719D02*
X177607292Y-159071719D01*
X179159673Y-158606004D02*
X179935863Y-158606004D01*
X179004435Y-159071719D02*
X179547768Y-157441719D01*
X179547768Y-157441719D02*
X180091101Y-159071719D01*
X180634435Y-159071719D02*
X180634435Y-157441719D01*
X180634435Y-157441719D02*
X181255387Y-157441719D01*
X181255387Y-157441719D02*
X181410625Y-157519338D01*
X181410625Y-157519338D02*
X181488244Y-157596957D01*
X181488244Y-157596957D02*
X181565863Y-157752195D01*
X181565863Y-157752195D02*
X181565863Y-157985052D01*
X181565863Y-157985052D02*
X181488244Y-158140290D01*
X181488244Y-158140290D02*
X181410625Y-158217909D01*
X181410625Y-158217909D02*
X181255387Y-158295528D01*
X181255387Y-158295528D02*
X180634435Y-158295528D01*
X182574911Y-157441719D02*
X182885387Y-157441719D01*
X182885387Y-157441719D02*
X183040625Y-157519338D01*
X183040625Y-157519338D02*
X183195863Y-157674576D01*
X183195863Y-157674576D02*
X183273482Y-157985052D01*
X183273482Y-157985052D02*
X183273482Y-158528385D01*
X183273482Y-158528385D02*
X183195863Y-158838861D01*
X183195863Y-158838861D02*
X183040625Y-158994100D01*
X183040625Y-158994100D02*
X182885387Y-159071719D01*
X182885387Y-159071719D02*
X182574911Y-159071719D01*
X182574911Y-159071719D02*
X182419673Y-158994100D01*
X182419673Y-158994100D02*
X182264435Y-158838861D01*
X182264435Y-158838861D02*
X182186816Y-158528385D01*
X182186816Y-158528385D02*
X182186816Y-157985052D01*
X182186816Y-157985052D02*
X182264435Y-157674576D01*
X182264435Y-157674576D02*
X182419673Y-157519338D01*
X182419673Y-157519338D02*
X182574911Y-157441719D01*
X183972054Y-159071719D02*
X183972054Y-157441719D01*
X183972054Y-157441719D02*
X184593006Y-157441719D01*
X184593006Y-157441719D02*
X184748244Y-157519338D01*
X184748244Y-157519338D02*
X184825863Y-157596957D01*
X184825863Y-157596957D02*
X184903482Y-157752195D01*
X184903482Y-157752195D02*
X184903482Y-157985052D01*
X184903482Y-157985052D02*
X184825863Y-158140290D01*
X184825863Y-158140290D02*
X184748244Y-158217909D01*
X184748244Y-158217909D02*
X184593006Y-158295528D01*
X184593006Y-158295528D02*
X183972054Y-158295528D01*
X185602054Y-159071719D02*
X185602054Y-157441719D01*
X186533482Y-159071719D02*
X185834911Y-158140290D01*
X186533482Y-157441719D02*
X185602054Y-158373147D01*
X187154435Y-158994100D02*
X187387292Y-159071719D01*
X187387292Y-159071719D02*
X187775387Y-159071719D01*
X187775387Y-159071719D02*
X187930625Y-158994100D01*
X187930625Y-158994100D02*
X188008244Y-158916480D01*
X188008244Y-158916480D02*
X188085863Y-158761242D01*
X188085863Y-158761242D02*
X188085863Y-158606004D01*
X188085863Y-158606004D02*
X188008244Y-158450766D01*
X188008244Y-158450766D02*
X187930625Y-158373147D01*
X187930625Y-158373147D02*
X187775387Y-158295528D01*
X187775387Y-158295528D02*
X187464911Y-158217909D01*
X187464911Y-158217909D02*
X187309673Y-158140290D01*
X187309673Y-158140290D02*
X187232054Y-158062671D01*
X187232054Y-158062671D02*
X187154435Y-157907433D01*
X187154435Y-157907433D02*
X187154435Y-157752195D01*
X187154435Y-157752195D02*
X187232054Y-157596957D01*
X187232054Y-157596957D02*
X187309673Y-157519338D01*
X187309673Y-157519338D02*
X187464911Y-157441719D01*
X187464911Y-157441719D02*
X187853006Y-157441719D01*
X187853006Y-157441719D02*
X188085863Y-157519338D01*
X188784435Y-159071719D02*
X188784435Y-157441719D01*
X188784435Y-157441719D02*
X189405387Y-157441719D01*
X189405387Y-157441719D02*
X189560625Y-157519338D01*
X189560625Y-157519338D02*
X189638244Y-157596957D01*
X189638244Y-157596957D02*
X189715863Y-157752195D01*
X189715863Y-157752195D02*
X189715863Y-157985052D01*
X189715863Y-157985052D02*
X189638244Y-158140290D01*
X189638244Y-158140290D02*
X189560625Y-158217909D01*
X189560625Y-158217909D02*
X189405387Y-158295528D01*
X189405387Y-158295528D02*
X188784435Y-158295528D01*
D14*
X121517877Y-144521117D02*
X121517877Y-145261346D01*
X121517877Y-145261346D02*
X121561420Y-145348432D01*
X121561420Y-145348432D02*
X121604963Y-145391975D01*
X121604963Y-145391975D02*
X121692048Y-145435517D01*
X121692048Y-145435517D02*
X121866220Y-145435517D01*
X121866220Y-145435517D02*
X121953305Y-145391975D01*
X121953305Y-145391975D02*
X121996848Y-145348432D01*
X121996848Y-145348432D02*
X122040391Y-145261346D01*
X122040391Y-145261346D02*
X122040391Y-144521117D01*
X122954791Y-145435517D02*
X122432277Y-145435517D01*
X122693534Y-145435517D02*
X122693534Y-144521117D01*
X122693534Y-144521117D02*
X122606448Y-144651746D01*
X122606448Y-144651746D02*
X122519363Y-144738832D01*
X122519363Y-144738832D02*
X122432277Y-144782375D01*
D15*
X136457301Y-112198696D02*
X136152501Y-111763268D01*
X135934787Y-112198696D02*
X135934787Y-111284296D01*
X135934787Y-111284296D02*
X136283130Y-111284296D01*
X136283130Y-111284296D02*
X136370215Y-111327839D01*
X136370215Y-111327839D02*
X136413758Y-111371382D01*
X136413758Y-111371382D02*
X136457301Y-111458468D01*
X136457301Y-111458468D02*
X136457301Y-111589096D01*
X136457301Y-111589096D02*
X136413758Y-111676182D01*
X136413758Y-111676182D02*
X136370215Y-111719725D01*
X136370215Y-111719725D02*
X136283130Y-111763268D01*
X136283130Y-111763268D02*
X135934787Y-111763268D01*
X137241073Y-111589096D02*
X137241073Y-112198696D01*
X137023358Y-111240754D02*
X136805644Y-111893896D01*
X136805644Y-111893896D02*
X137371701Y-111893896D01*
X138684587Y-111850354D02*
X139381273Y-111850354D01*
X140992358Y-112198696D02*
X140469844Y-112198696D01*
X140731101Y-112198696D02*
X140731101Y-111284296D01*
X140731101Y-111284296D02*
X140644015Y-111414925D01*
X140644015Y-111414925D02*
X140556930Y-111502011D01*
X140556930Y-111502011D02*
X140469844Y-111545554D01*
X141558415Y-111284296D02*
X141645501Y-111284296D01*
X141645501Y-111284296D02*
X141732587Y-111327839D01*
X141732587Y-111327839D02*
X141776130Y-111371382D01*
X141776130Y-111371382D02*
X141819672Y-111458468D01*
X141819672Y-111458468D02*
X141863215Y-111632639D01*
X141863215Y-111632639D02*
X141863215Y-111850354D01*
X141863215Y-111850354D02*
X141819672Y-112024525D01*
X141819672Y-112024525D02*
X141776130Y-112111611D01*
X141776130Y-112111611D02*
X141732587Y-112155154D01*
X141732587Y-112155154D02*
X141645501Y-112198696D01*
X141645501Y-112198696D02*
X141558415Y-112198696D01*
X141558415Y-112198696D02*
X141471330Y-112155154D01*
X141471330Y-112155154D02*
X141427787Y-112111611D01*
X141427787Y-112111611D02*
X141384244Y-112024525D01*
X141384244Y-112024525D02*
X141340701Y-111850354D01*
X141340701Y-111850354D02*
X141340701Y-111632639D01*
X141340701Y-111632639D02*
X141384244Y-111458468D01*
X141384244Y-111458468D02*
X141427787Y-111371382D01*
X141427787Y-111371382D02*
X141471330Y-111327839D01*
X141471330Y-111327839D02*
X141558415Y-111284296D01*
X142255101Y-112198696D02*
X142255101Y-111284296D01*
X142777615Y-112198696D02*
X142385729Y-111676182D01*
X142777615Y-111284296D02*
X142255101Y-111806811D01*
X176357201Y-72948696D02*
X176052401Y-72513268D01*
X175834687Y-72948696D02*
X175834687Y-72034296D01*
X175834687Y-72034296D02*
X176183030Y-72034296D01*
X176183030Y-72034296D02*
X176270115Y-72077839D01*
X176270115Y-72077839D02*
X176313658Y-72121382D01*
X176313658Y-72121382D02*
X176357201Y-72208468D01*
X176357201Y-72208468D02*
X176357201Y-72339096D01*
X176357201Y-72339096D02*
X176313658Y-72426182D01*
X176313658Y-72426182D02*
X176270115Y-72469725D01*
X176270115Y-72469725D02*
X176183030Y-72513268D01*
X176183030Y-72513268D02*
X175834687Y-72513268D01*
X177228058Y-72948696D02*
X176705544Y-72948696D01*
X176966801Y-72948696D02*
X176966801Y-72034296D01*
X176966801Y-72034296D02*
X176879715Y-72164925D01*
X176879715Y-72164925D02*
X176792630Y-72252011D01*
X176792630Y-72252011D02*
X176705544Y-72295554D01*
X178098915Y-72948696D02*
X177576401Y-72948696D01*
X177837658Y-72948696D02*
X177837658Y-72034296D01*
X177837658Y-72034296D02*
X177750572Y-72164925D01*
X177750572Y-72164925D02*
X177663487Y-72252011D01*
X177663487Y-72252011D02*
X177576401Y-72295554D01*
X178584687Y-72600354D02*
X179281373Y-72600354D01*
X180892458Y-72948696D02*
X180369944Y-72948696D01*
X180631201Y-72948696D02*
X180631201Y-72034296D01*
X180631201Y-72034296D02*
X180544115Y-72164925D01*
X180544115Y-72164925D02*
X180457030Y-72252011D01*
X180457030Y-72252011D02*
X180369944Y-72295554D01*
X181284344Y-72861611D02*
X181327887Y-72905154D01*
X181327887Y-72905154D02*
X181284344Y-72948696D01*
X181284344Y-72948696D02*
X181240801Y-72905154D01*
X181240801Y-72905154D02*
X181284344Y-72861611D01*
X181284344Y-72861611D02*
X181284344Y-72948696D01*
X182155201Y-72034296D02*
X181719773Y-72034296D01*
X181719773Y-72034296D02*
X181676230Y-72469725D01*
X181676230Y-72469725D02*
X181719773Y-72426182D01*
X181719773Y-72426182D02*
X181806859Y-72382639D01*
X181806859Y-72382639D02*
X182024573Y-72382639D01*
X182024573Y-72382639D02*
X182111659Y-72426182D01*
X182111659Y-72426182D02*
X182155201Y-72469725D01*
X182155201Y-72469725D02*
X182198744Y-72556811D01*
X182198744Y-72556811D02*
X182198744Y-72774525D01*
X182198744Y-72774525D02*
X182155201Y-72861611D01*
X182155201Y-72861611D02*
X182111659Y-72905154D01*
X182111659Y-72905154D02*
X182024573Y-72948696D01*
X182024573Y-72948696D02*
X181806859Y-72948696D01*
X181806859Y-72948696D02*
X181719773Y-72905154D01*
X181719773Y-72905154D02*
X181676230Y-72861611D01*
X182590630Y-72948696D02*
X182590630Y-72034296D01*
X183113144Y-72948696D02*
X182721258Y-72426182D01*
X183113144Y-72034296D02*
X182590630Y-72556811D01*
X136557401Y-84498796D02*
X136252601Y-84063368D01*
X136034887Y-84498796D02*
X136034887Y-83584396D01*
X136034887Y-83584396D02*
X136383230Y-83584396D01*
X136383230Y-83584396D02*
X136470315Y-83627939D01*
X136470315Y-83627939D02*
X136513858Y-83671482D01*
X136513858Y-83671482D02*
X136557401Y-83758568D01*
X136557401Y-83758568D02*
X136557401Y-83889196D01*
X136557401Y-83889196D02*
X136513858Y-83976282D01*
X136513858Y-83976282D02*
X136470315Y-84019825D01*
X136470315Y-84019825D02*
X136383230Y-84063368D01*
X136383230Y-84063368D02*
X136034887Y-84063368D01*
X136862201Y-83584396D02*
X137428258Y-83584396D01*
X137428258Y-83584396D02*
X137123458Y-83932739D01*
X137123458Y-83932739D02*
X137254087Y-83932739D01*
X137254087Y-83932739D02*
X137341173Y-83976282D01*
X137341173Y-83976282D02*
X137384715Y-84019825D01*
X137384715Y-84019825D02*
X137428258Y-84106911D01*
X137428258Y-84106911D02*
X137428258Y-84324625D01*
X137428258Y-84324625D02*
X137384715Y-84411711D01*
X137384715Y-84411711D02*
X137341173Y-84455254D01*
X137341173Y-84455254D02*
X137254087Y-84498796D01*
X137254087Y-84498796D02*
X136992830Y-84498796D01*
X136992830Y-84498796D02*
X136905744Y-84455254D01*
X136905744Y-84455254D02*
X136862201Y-84411711D01*
X138784587Y-84150354D02*
X139481273Y-84150354D01*
X141092358Y-84498696D02*
X140569844Y-84498696D01*
X140831101Y-84498696D02*
X140831101Y-83584296D01*
X140831101Y-83584296D02*
X140744015Y-83714925D01*
X140744015Y-83714925D02*
X140656930Y-83802011D01*
X140656930Y-83802011D02*
X140569844Y-83845554D01*
X141658415Y-83584296D02*
X141745501Y-83584296D01*
X141745501Y-83584296D02*
X141832587Y-83627839D01*
X141832587Y-83627839D02*
X141876130Y-83671382D01*
X141876130Y-83671382D02*
X141919672Y-83758468D01*
X141919672Y-83758468D02*
X141963215Y-83932639D01*
X141963215Y-83932639D02*
X141963215Y-84150354D01*
X141963215Y-84150354D02*
X141919672Y-84324525D01*
X141919672Y-84324525D02*
X141876130Y-84411611D01*
X141876130Y-84411611D02*
X141832587Y-84455154D01*
X141832587Y-84455154D02*
X141745501Y-84498696D01*
X141745501Y-84498696D02*
X141658415Y-84498696D01*
X141658415Y-84498696D02*
X141571330Y-84455154D01*
X141571330Y-84455154D02*
X141527787Y-84411611D01*
X141527787Y-84411611D02*
X141484244Y-84324525D01*
X141484244Y-84324525D02*
X141440701Y-84150354D01*
X141440701Y-84150354D02*
X141440701Y-83932639D01*
X141440701Y-83932639D02*
X141484244Y-83758468D01*
X141484244Y-83758468D02*
X141527787Y-83671382D01*
X141527787Y-83671382D02*
X141571330Y-83627839D01*
X141571330Y-83627839D02*
X141658415Y-83584296D01*
X142355101Y-84498696D02*
X142355101Y-83584296D01*
X142877615Y-84498696D02*
X142485729Y-83976182D01*
X142877615Y-83584296D02*
X142355101Y-84106811D01*
X156357201Y-112198696D02*
X156052401Y-111763268D01*
X155834687Y-112198696D02*
X155834687Y-111284296D01*
X155834687Y-111284296D02*
X156183030Y-111284296D01*
X156183030Y-111284296D02*
X156270115Y-111327839D01*
X156270115Y-111327839D02*
X156313658Y-111371382D01*
X156313658Y-111371382D02*
X156357201Y-111458468D01*
X156357201Y-111458468D02*
X156357201Y-111589096D01*
X156357201Y-111589096D02*
X156313658Y-111676182D01*
X156313658Y-111676182D02*
X156270115Y-111719725D01*
X156270115Y-111719725D02*
X156183030Y-111763268D01*
X156183030Y-111763268D02*
X155834687Y-111763268D01*
X157140973Y-111284296D02*
X156966801Y-111284296D01*
X156966801Y-111284296D02*
X156879715Y-111327839D01*
X156879715Y-111327839D02*
X156836173Y-111371382D01*
X156836173Y-111371382D02*
X156749087Y-111502011D01*
X156749087Y-111502011D02*
X156705544Y-111676182D01*
X156705544Y-111676182D02*
X156705544Y-112024525D01*
X156705544Y-112024525D02*
X156749087Y-112111611D01*
X156749087Y-112111611D02*
X156792630Y-112155154D01*
X156792630Y-112155154D02*
X156879715Y-112198696D01*
X156879715Y-112198696D02*
X157053887Y-112198696D01*
X157053887Y-112198696D02*
X157140973Y-112155154D01*
X157140973Y-112155154D02*
X157184515Y-112111611D01*
X157184515Y-112111611D02*
X157228058Y-112024525D01*
X157228058Y-112024525D02*
X157228058Y-111806811D01*
X157228058Y-111806811D02*
X157184515Y-111719725D01*
X157184515Y-111719725D02*
X157140973Y-111676182D01*
X157140973Y-111676182D02*
X157053887Y-111632639D01*
X157053887Y-111632639D02*
X156879715Y-111632639D01*
X156879715Y-111632639D02*
X156792630Y-111676182D01*
X156792630Y-111676182D02*
X156749087Y-111719725D01*
X156749087Y-111719725D02*
X156705544Y-111806811D01*
X158584687Y-111850354D02*
X159281373Y-111850354D01*
X160892458Y-112198696D02*
X160369944Y-112198696D01*
X160631201Y-112198696D02*
X160631201Y-111284296D01*
X160631201Y-111284296D02*
X160544115Y-111414925D01*
X160544115Y-111414925D02*
X160457030Y-111502011D01*
X160457030Y-111502011D02*
X160369944Y-111545554D01*
X161458515Y-111284296D02*
X161545601Y-111284296D01*
X161545601Y-111284296D02*
X161632687Y-111327839D01*
X161632687Y-111327839D02*
X161676230Y-111371382D01*
X161676230Y-111371382D02*
X161719772Y-111458468D01*
X161719772Y-111458468D02*
X161763315Y-111632639D01*
X161763315Y-111632639D02*
X161763315Y-111850354D01*
X161763315Y-111850354D02*
X161719772Y-112024525D01*
X161719772Y-112024525D02*
X161676230Y-112111611D01*
X161676230Y-112111611D02*
X161632687Y-112155154D01*
X161632687Y-112155154D02*
X161545601Y-112198696D01*
X161545601Y-112198696D02*
X161458515Y-112198696D01*
X161458515Y-112198696D02*
X161371430Y-112155154D01*
X161371430Y-112155154D02*
X161327887Y-112111611D01*
X161327887Y-112111611D02*
X161284344Y-112024525D01*
X161284344Y-112024525D02*
X161240801Y-111850354D01*
X161240801Y-111850354D02*
X161240801Y-111632639D01*
X161240801Y-111632639D02*
X161284344Y-111458468D01*
X161284344Y-111458468D02*
X161327887Y-111371382D01*
X161327887Y-111371382D02*
X161371430Y-111327839D01*
X161371430Y-111327839D02*
X161458515Y-111284296D01*
X162155201Y-112198696D02*
X162155201Y-111284296D01*
X162677715Y-112198696D02*
X162285829Y-111676182D01*
X162677715Y-111284296D02*
X162155201Y-111806811D01*
X116957301Y-84498796D02*
X116652501Y-84063368D01*
X116434787Y-84498796D02*
X116434787Y-83584396D01*
X116434787Y-83584396D02*
X116783130Y-83584396D01*
X116783130Y-83584396D02*
X116870215Y-83627939D01*
X116870215Y-83627939D02*
X116913758Y-83671482D01*
X116913758Y-83671482D02*
X116957301Y-83758568D01*
X116957301Y-83758568D02*
X116957301Y-83889196D01*
X116957301Y-83889196D02*
X116913758Y-83976282D01*
X116913758Y-83976282D02*
X116870215Y-84019825D01*
X116870215Y-84019825D02*
X116783130Y-84063368D01*
X116783130Y-84063368D02*
X116434787Y-84063368D01*
X117828158Y-84498796D02*
X117305644Y-84498796D01*
X117566901Y-84498796D02*
X117566901Y-83584396D01*
X117566901Y-83584396D02*
X117479815Y-83715025D01*
X117479815Y-83715025D02*
X117392730Y-83802111D01*
X117392730Y-83802111D02*
X117305644Y-83845654D01*
X119184687Y-84150354D02*
X119881373Y-84150354D01*
X121492458Y-84498696D02*
X120969944Y-84498696D01*
X121231201Y-84498696D02*
X121231201Y-83584296D01*
X121231201Y-83584296D02*
X121144115Y-83714925D01*
X121144115Y-83714925D02*
X121057030Y-83802011D01*
X121057030Y-83802011D02*
X120969944Y-83845554D01*
X122058515Y-83584296D02*
X122145601Y-83584296D01*
X122145601Y-83584296D02*
X122232687Y-83627839D01*
X122232687Y-83627839D02*
X122276230Y-83671382D01*
X122276230Y-83671382D02*
X122319772Y-83758468D01*
X122319772Y-83758468D02*
X122363315Y-83932639D01*
X122363315Y-83932639D02*
X122363315Y-84150354D01*
X122363315Y-84150354D02*
X122319772Y-84324525D01*
X122319772Y-84324525D02*
X122276230Y-84411611D01*
X122276230Y-84411611D02*
X122232687Y-84455154D01*
X122232687Y-84455154D02*
X122145601Y-84498696D01*
X122145601Y-84498696D02*
X122058515Y-84498696D01*
X122058515Y-84498696D02*
X121971430Y-84455154D01*
X121971430Y-84455154D02*
X121927887Y-84411611D01*
X121927887Y-84411611D02*
X121884344Y-84324525D01*
X121884344Y-84324525D02*
X121840801Y-84150354D01*
X121840801Y-84150354D02*
X121840801Y-83932639D01*
X121840801Y-83932639D02*
X121884344Y-83758468D01*
X121884344Y-83758468D02*
X121927887Y-83671382D01*
X121927887Y-83671382D02*
X121971430Y-83627839D01*
X121971430Y-83627839D02*
X122058515Y-83584296D01*
X122755201Y-84498696D02*
X122755201Y-83584296D01*
X123277715Y-84498696D02*
X122885829Y-83976182D01*
X123277715Y-83584296D02*
X122755201Y-84106811D01*
X192448696Y-114892798D02*
X192013268Y-115197598D01*
X192448696Y-115415312D02*
X191534296Y-115415312D01*
X191534296Y-115415312D02*
X191534296Y-115066969D01*
X191534296Y-115066969D02*
X191577839Y-114979884D01*
X191577839Y-114979884D02*
X191621382Y-114936341D01*
X191621382Y-114936341D02*
X191708468Y-114892798D01*
X191708468Y-114892798D02*
X191839096Y-114892798D01*
X191839096Y-114892798D02*
X191926182Y-114936341D01*
X191926182Y-114936341D02*
X191969725Y-114979884D01*
X191969725Y-114979884D02*
X192013268Y-115066969D01*
X192013268Y-115066969D02*
X192013268Y-115415312D01*
X192448696Y-114021941D02*
X192448696Y-114544455D01*
X192448696Y-114283198D02*
X191534296Y-114283198D01*
X191534296Y-114283198D02*
X191664925Y-114370284D01*
X191664925Y-114370284D02*
X191752011Y-114457369D01*
X191752011Y-114457369D02*
X191795554Y-114544455D01*
X191534296Y-113455884D02*
X191534296Y-113368798D01*
X191534296Y-113368798D02*
X191577839Y-113281712D01*
X191577839Y-113281712D02*
X191621382Y-113238170D01*
X191621382Y-113238170D02*
X191708468Y-113194627D01*
X191708468Y-113194627D02*
X191882639Y-113151084D01*
X191882639Y-113151084D02*
X192100354Y-113151084D01*
X192100354Y-113151084D02*
X192274525Y-113194627D01*
X192274525Y-113194627D02*
X192361611Y-113238170D01*
X192361611Y-113238170D02*
X192405154Y-113281712D01*
X192405154Y-113281712D02*
X192448696Y-113368798D01*
X192448696Y-113368798D02*
X192448696Y-113455884D01*
X192448696Y-113455884D02*
X192405154Y-113542970D01*
X192405154Y-113542970D02*
X192361611Y-113586512D01*
X192361611Y-113586512D02*
X192274525Y-113630055D01*
X192274525Y-113630055D02*
X192100354Y-113673598D01*
X192100354Y-113673598D02*
X191882639Y-113673598D01*
X191882639Y-113673598D02*
X191708468Y-113630055D01*
X191708468Y-113630055D02*
X191621382Y-113586512D01*
X191621382Y-113586512D02*
X191577839Y-113542970D01*
X191577839Y-113542970D02*
X191534296Y-113455884D01*
X192100354Y-112415312D02*
X192100354Y-111718627D01*
X192448696Y-110107541D02*
X192448696Y-110630055D01*
X192448696Y-110368798D02*
X191534296Y-110368798D01*
X191534296Y-110368798D02*
X191664925Y-110455884D01*
X191664925Y-110455884D02*
X191752011Y-110542969D01*
X191752011Y-110542969D02*
X191795554Y-110630055D01*
X192361611Y-109715655D02*
X192405154Y-109672112D01*
X192405154Y-109672112D02*
X192448696Y-109715655D01*
X192448696Y-109715655D02*
X192405154Y-109759198D01*
X192405154Y-109759198D02*
X192361611Y-109715655D01*
X192361611Y-109715655D02*
X192448696Y-109715655D01*
X191534296Y-108844798D02*
X191534296Y-109280226D01*
X191534296Y-109280226D02*
X191969725Y-109323769D01*
X191969725Y-109323769D02*
X191926182Y-109280226D01*
X191926182Y-109280226D02*
X191882639Y-109193141D01*
X191882639Y-109193141D02*
X191882639Y-108975426D01*
X191882639Y-108975426D02*
X191926182Y-108888341D01*
X191926182Y-108888341D02*
X191969725Y-108844798D01*
X191969725Y-108844798D02*
X192056811Y-108801255D01*
X192056811Y-108801255D02*
X192274525Y-108801255D01*
X192274525Y-108801255D02*
X192361611Y-108844798D01*
X192361611Y-108844798D02*
X192405154Y-108888341D01*
X192405154Y-108888341D02*
X192448696Y-108975426D01*
X192448696Y-108975426D02*
X192448696Y-109193141D01*
X192448696Y-109193141D02*
X192405154Y-109280226D01*
X192405154Y-109280226D02*
X192361611Y-109323769D01*
X192448696Y-108409369D02*
X191534296Y-108409369D01*
X192448696Y-107886855D02*
X191926182Y-108278741D01*
X191534296Y-107886855D02*
X192056811Y-108409369D01*
X116957301Y-112198696D02*
X116652501Y-111763268D01*
X116434787Y-112198696D02*
X116434787Y-111284296D01*
X116434787Y-111284296D02*
X116783130Y-111284296D01*
X116783130Y-111284296D02*
X116870215Y-111327839D01*
X116870215Y-111327839D02*
X116913758Y-111371382D01*
X116913758Y-111371382D02*
X116957301Y-111458468D01*
X116957301Y-111458468D02*
X116957301Y-111589096D01*
X116957301Y-111589096D02*
X116913758Y-111676182D01*
X116913758Y-111676182D02*
X116870215Y-111719725D01*
X116870215Y-111719725D02*
X116783130Y-111763268D01*
X116783130Y-111763268D02*
X116434787Y-111763268D01*
X117305644Y-111371382D02*
X117349187Y-111327839D01*
X117349187Y-111327839D02*
X117436273Y-111284296D01*
X117436273Y-111284296D02*
X117653987Y-111284296D01*
X117653987Y-111284296D02*
X117741073Y-111327839D01*
X117741073Y-111327839D02*
X117784615Y-111371382D01*
X117784615Y-111371382D02*
X117828158Y-111458468D01*
X117828158Y-111458468D02*
X117828158Y-111545554D01*
X117828158Y-111545554D02*
X117784615Y-111676182D01*
X117784615Y-111676182D02*
X117262101Y-112198696D01*
X117262101Y-112198696D02*
X117828158Y-112198696D01*
X119184687Y-111850354D02*
X119881373Y-111850354D01*
X121492458Y-112198696D02*
X120969944Y-112198696D01*
X121231201Y-112198696D02*
X121231201Y-111284296D01*
X121231201Y-111284296D02*
X121144115Y-111414925D01*
X121144115Y-111414925D02*
X121057030Y-111502011D01*
X121057030Y-111502011D02*
X120969944Y-111545554D01*
X122058515Y-111284296D02*
X122145601Y-111284296D01*
X122145601Y-111284296D02*
X122232687Y-111327839D01*
X122232687Y-111327839D02*
X122276230Y-111371382D01*
X122276230Y-111371382D02*
X122319772Y-111458468D01*
X122319772Y-111458468D02*
X122363315Y-111632639D01*
X122363315Y-111632639D02*
X122363315Y-111850354D01*
X122363315Y-111850354D02*
X122319772Y-112024525D01*
X122319772Y-112024525D02*
X122276230Y-112111611D01*
X122276230Y-112111611D02*
X122232687Y-112155154D01*
X122232687Y-112155154D02*
X122145601Y-112198696D01*
X122145601Y-112198696D02*
X122058515Y-112198696D01*
X122058515Y-112198696D02*
X121971430Y-112155154D01*
X121971430Y-112155154D02*
X121927887Y-112111611D01*
X121927887Y-112111611D02*
X121884344Y-112024525D01*
X121884344Y-112024525D02*
X121840801Y-111850354D01*
X121840801Y-111850354D02*
X121840801Y-111632639D01*
X121840801Y-111632639D02*
X121884344Y-111458468D01*
X121884344Y-111458468D02*
X121927887Y-111371382D01*
X121927887Y-111371382D02*
X121971430Y-111327839D01*
X121971430Y-111327839D02*
X122058515Y-111284296D01*
X122755201Y-112198696D02*
X122755201Y-111284296D01*
X123277715Y-112198696D02*
X122885829Y-111676182D01*
X123277715Y-111284296D02*
X122755201Y-111806811D01*
X156357201Y-84498796D02*
X156052401Y-84063368D01*
X155834687Y-84498796D02*
X155834687Y-83584396D01*
X155834687Y-83584396D02*
X156183030Y-83584396D01*
X156183030Y-83584396D02*
X156270115Y-83627939D01*
X156270115Y-83627939D02*
X156313658Y-83671482D01*
X156313658Y-83671482D02*
X156357201Y-83758568D01*
X156357201Y-83758568D02*
X156357201Y-83889196D01*
X156357201Y-83889196D02*
X156313658Y-83976282D01*
X156313658Y-83976282D02*
X156270115Y-84019825D01*
X156270115Y-84019825D02*
X156183030Y-84063368D01*
X156183030Y-84063368D02*
X155834687Y-84063368D01*
X157184515Y-83584396D02*
X156749087Y-83584396D01*
X156749087Y-83584396D02*
X156705544Y-84019825D01*
X156705544Y-84019825D02*
X156749087Y-83976282D01*
X156749087Y-83976282D02*
X156836173Y-83932739D01*
X156836173Y-83932739D02*
X157053887Y-83932739D01*
X157053887Y-83932739D02*
X157140973Y-83976282D01*
X157140973Y-83976282D02*
X157184515Y-84019825D01*
X157184515Y-84019825D02*
X157228058Y-84106911D01*
X157228058Y-84106911D02*
X157228058Y-84324625D01*
X157228058Y-84324625D02*
X157184515Y-84411711D01*
X157184515Y-84411711D02*
X157140973Y-84455254D01*
X157140973Y-84455254D02*
X157053887Y-84498796D01*
X157053887Y-84498796D02*
X156836173Y-84498796D01*
X156836173Y-84498796D02*
X156749087Y-84455254D01*
X156749087Y-84455254D02*
X156705544Y-84411711D01*
X158584687Y-84150354D02*
X159281373Y-84150354D01*
X160892458Y-84498696D02*
X160369944Y-84498696D01*
X160631201Y-84498696D02*
X160631201Y-83584296D01*
X160631201Y-83584296D02*
X160544115Y-83714925D01*
X160544115Y-83714925D02*
X160457030Y-83802011D01*
X160457030Y-83802011D02*
X160369944Y-83845554D01*
X161458515Y-83584296D02*
X161545601Y-83584296D01*
X161545601Y-83584296D02*
X161632687Y-83627839D01*
X161632687Y-83627839D02*
X161676230Y-83671382D01*
X161676230Y-83671382D02*
X161719772Y-83758468D01*
X161719772Y-83758468D02*
X161763315Y-83932639D01*
X161763315Y-83932639D02*
X161763315Y-84150354D01*
X161763315Y-84150354D02*
X161719772Y-84324525D01*
X161719772Y-84324525D02*
X161676230Y-84411611D01*
X161676230Y-84411611D02*
X161632687Y-84455154D01*
X161632687Y-84455154D02*
X161545601Y-84498696D01*
X161545601Y-84498696D02*
X161458515Y-84498696D01*
X161458515Y-84498696D02*
X161371430Y-84455154D01*
X161371430Y-84455154D02*
X161327887Y-84411611D01*
X161327887Y-84411611D02*
X161284344Y-84324525D01*
X161284344Y-84324525D02*
X161240801Y-84150354D01*
X161240801Y-84150354D02*
X161240801Y-83932639D01*
X161240801Y-83932639D02*
X161284344Y-83758468D01*
X161284344Y-83758468D02*
X161327887Y-83671382D01*
X161327887Y-83671382D02*
X161371430Y-83627839D01*
X161371430Y-83627839D02*
X161458515Y-83584296D01*
X162155201Y-84498696D02*
X162155201Y-83584296D01*
X162677715Y-84498696D02*
X162285829Y-83976182D01*
X162677715Y-83584296D02*
X162155201Y-84106811D01*
X129306701Y-146685611D02*
X129263158Y-146729154D01*
X129263158Y-146729154D02*
X129132530Y-146772696D01*
X129132530Y-146772696D02*
X129045444Y-146772696D01*
X129045444Y-146772696D02*
X128914815Y-146729154D01*
X128914815Y-146729154D02*
X128827730Y-146642068D01*
X128827730Y-146642068D02*
X128784187Y-146554982D01*
X128784187Y-146554982D02*
X128740644Y-146380811D01*
X128740644Y-146380811D02*
X128740644Y-146250182D01*
X128740644Y-146250182D02*
X128784187Y-146076011D01*
X128784187Y-146076011D02*
X128827730Y-145988925D01*
X128827730Y-145988925D02*
X128914815Y-145901839D01*
X128914815Y-145901839D02*
X129045444Y-145858296D01*
X129045444Y-145858296D02*
X129132530Y-145858296D01*
X129132530Y-145858296D02*
X129263158Y-145901839D01*
X129263158Y-145901839D02*
X129306701Y-145945382D01*
X130177558Y-146772696D02*
X129655044Y-146772696D01*
X129916301Y-146772696D02*
X129916301Y-145858296D01*
X129916301Y-145858296D02*
X129829215Y-145988925D01*
X129829215Y-145988925D02*
X129742130Y-146076011D01*
X129742130Y-146076011D02*
X129655044Y-146119554D01*
D14*
X143317877Y-144871117D02*
X143317877Y-145611346D01*
X143317877Y-145611346D02*
X143361420Y-145698432D01*
X143361420Y-145698432D02*
X143404963Y-145741975D01*
X143404963Y-145741975D02*
X143492048Y-145785517D01*
X143492048Y-145785517D02*
X143666220Y-145785517D01*
X143666220Y-145785517D02*
X143753305Y-145741975D01*
X143753305Y-145741975D02*
X143796848Y-145698432D01*
X143796848Y-145698432D02*
X143840391Y-145611346D01*
X143840391Y-145611346D02*
X143840391Y-144871117D01*
X144232277Y-144958203D02*
X144275820Y-144914660D01*
X144275820Y-144914660D02*
X144362906Y-144871117D01*
X144362906Y-144871117D02*
X144580620Y-144871117D01*
X144580620Y-144871117D02*
X144667706Y-144914660D01*
X144667706Y-144914660D02*
X144711248Y-144958203D01*
X144711248Y-144958203D02*
X144754791Y-145045289D01*
X144754791Y-145045289D02*
X144754791Y-145132375D01*
X144754791Y-145132375D02*
X144711248Y-145263003D01*
X144711248Y-145263003D02*
X144188734Y-145785517D01*
X144188734Y-145785517D02*
X144754791Y-145785517D01*
X136590491Y-69362932D02*
X136546948Y-69406475D01*
X136546948Y-69406475D02*
X136416320Y-69450017D01*
X136416320Y-69450017D02*
X136329234Y-69450017D01*
X136329234Y-69450017D02*
X136198605Y-69406475D01*
X136198605Y-69406475D02*
X136111520Y-69319389D01*
X136111520Y-69319389D02*
X136067977Y-69232303D01*
X136067977Y-69232303D02*
X136024434Y-69058132D01*
X136024434Y-69058132D02*
X136024434Y-68927503D01*
X136024434Y-68927503D02*
X136067977Y-68753332D01*
X136067977Y-68753332D02*
X136111520Y-68666246D01*
X136111520Y-68666246D02*
X136198605Y-68579160D01*
X136198605Y-68579160D02*
X136329234Y-68535617D01*
X136329234Y-68535617D02*
X136416320Y-68535617D01*
X136416320Y-68535617D02*
X136546948Y-68579160D01*
X136546948Y-68579160D02*
X136590491Y-68622703D01*
X136982377Y-69101675D02*
X137679063Y-69101675D01*
X138114491Y-69450017D02*
X138114491Y-68535617D01*
X138114491Y-68535617D02*
X138419291Y-69188760D01*
X138419291Y-69188760D02*
X138724091Y-68535617D01*
X138724091Y-68535617D02*
X138724091Y-69450017D01*
X139115977Y-69188760D02*
X139551406Y-69188760D01*
X139028891Y-69450017D02*
X139333691Y-68535617D01*
X139333691Y-68535617D02*
X139638491Y-69450017D01*
X139943291Y-69450017D02*
X139943291Y-68535617D01*
X140378720Y-69450017D02*
X140378720Y-68535617D01*
X140378720Y-68535617D02*
X140901234Y-69450017D01*
X140901234Y-69450017D02*
X140901234Y-68535617D01*
D15*
X156157501Y-146808811D02*
X156113958Y-146852354D01*
X156113958Y-146852354D02*
X155983330Y-146895896D01*
X155983330Y-146895896D02*
X155896244Y-146895896D01*
X155896244Y-146895896D02*
X155765615Y-146852354D01*
X155765615Y-146852354D02*
X155678530Y-146765268D01*
X155678530Y-146765268D02*
X155634987Y-146678182D01*
X155634987Y-146678182D02*
X155591444Y-146504011D01*
X155591444Y-146504011D02*
X155591444Y-146373382D01*
X155591444Y-146373382D02*
X155634987Y-146199211D01*
X155634987Y-146199211D02*
X155678530Y-146112125D01*
X155678530Y-146112125D02*
X155765615Y-146025039D01*
X155765615Y-146025039D02*
X155896244Y-145981496D01*
X155896244Y-145981496D02*
X155983330Y-145981496D01*
X155983330Y-145981496D02*
X156113958Y-146025039D01*
X156113958Y-146025039D02*
X156157501Y-146068582D01*
X156505844Y-146068582D02*
X156549387Y-146025039D01*
X156549387Y-146025039D02*
X156636473Y-145981496D01*
X156636473Y-145981496D02*
X156854187Y-145981496D01*
X156854187Y-145981496D02*
X156941273Y-146025039D01*
X156941273Y-146025039D02*
X156984815Y-146068582D01*
X156984815Y-146068582D02*
X157028358Y-146155668D01*
X157028358Y-146155668D02*
X157028358Y-146242754D01*
X157028358Y-146242754D02*
X156984815Y-146373382D01*
X156984815Y-146373382D02*
X156462301Y-146895896D01*
X156462301Y-146895896D02*
X157028358Y-146895896D01*
X167957401Y-148498896D02*
X167652601Y-148063468D01*
X167434887Y-148498896D02*
X167434887Y-147584496D01*
X167434887Y-147584496D02*
X167783230Y-147584496D01*
X167783230Y-147584496D02*
X167870315Y-147628039D01*
X167870315Y-147628039D02*
X167913858Y-147671582D01*
X167913858Y-147671582D02*
X167957401Y-147758668D01*
X167957401Y-147758668D02*
X167957401Y-147889296D01*
X167957401Y-147889296D02*
X167913858Y-147976382D01*
X167913858Y-147976382D02*
X167870315Y-148019925D01*
X167870315Y-148019925D02*
X167783230Y-148063468D01*
X167783230Y-148063468D02*
X167434887Y-148063468D01*
X168479915Y-147976382D02*
X168392830Y-147932839D01*
X168392830Y-147932839D02*
X168349287Y-147889296D01*
X168349287Y-147889296D02*
X168305744Y-147802211D01*
X168305744Y-147802211D02*
X168305744Y-147758668D01*
X168305744Y-147758668D02*
X168349287Y-147671582D01*
X168349287Y-147671582D02*
X168392830Y-147628039D01*
X168392830Y-147628039D02*
X168479915Y-147584496D01*
X168479915Y-147584496D02*
X168654087Y-147584496D01*
X168654087Y-147584496D02*
X168741173Y-147628039D01*
X168741173Y-147628039D02*
X168784715Y-147671582D01*
X168784715Y-147671582D02*
X168828258Y-147758668D01*
X168828258Y-147758668D02*
X168828258Y-147802211D01*
X168828258Y-147802211D02*
X168784715Y-147889296D01*
X168784715Y-147889296D02*
X168741173Y-147932839D01*
X168741173Y-147932839D02*
X168654087Y-147976382D01*
X168654087Y-147976382D02*
X168479915Y-147976382D01*
X168479915Y-147976382D02*
X168392830Y-148019925D01*
X168392830Y-148019925D02*
X168349287Y-148063468D01*
X168349287Y-148063468D02*
X168305744Y-148150554D01*
X168305744Y-148150554D02*
X168305744Y-148324725D01*
X168305744Y-148324725D02*
X168349287Y-148411811D01*
X168349287Y-148411811D02*
X168392830Y-148455354D01*
X168392830Y-148455354D02*
X168479915Y-148498896D01*
X168479915Y-148498896D02*
X168654087Y-148498896D01*
X168654087Y-148498896D02*
X168741173Y-148455354D01*
X168741173Y-148455354D02*
X168784715Y-148411811D01*
X168784715Y-148411811D02*
X168828258Y-148324725D01*
X168828258Y-148324725D02*
X168828258Y-148150554D01*
X168828258Y-148150554D02*
X168784715Y-148063468D01*
X168784715Y-148063468D02*
X168741173Y-148019925D01*
X168741173Y-148019925D02*
X168654087Y-147976382D01*
X170184587Y-148150154D02*
X170881273Y-148150154D01*
X172492358Y-148498496D02*
X171969844Y-148498496D01*
X172231101Y-148498496D02*
X172231101Y-147584096D01*
X172231101Y-147584096D02*
X172144015Y-147714725D01*
X172144015Y-147714725D02*
X172056930Y-147801811D01*
X172056930Y-147801811D02*
X171969844Y-147845354D01*
X173058415Y-147584096D02*
X173145501Y-147584096D01*
X173145501Y-147584096D02*
X173232587Y-147627639D01*
X173232587Y-147627639D02*
X173276130Y-147671182D01*
X173276130Y-147671182D02*
X173319672Y-147758268D01*
X173319672Y-147758268D02*
X173363215Y-147932439D01*
X173363215Y-147932439D02*
X173363215Y-148150154D01*
X173363215Y-148150154D02*
X173319672Y-148324325D01*
X173319672Y-148324325D02*
X173276130Y-148411411D01*
X173276130Y-148411411D02*
X173232587Y-148454954D01*
X173232587Y-148454954D02*
X173145501Y-148498496D01*
X173145501Y-148498496D02*
X173058415Y-148498496D01*
X173058415Y-148498496D02*
X172971330Y-148454954D01*
X172971330Y-148454954D02*
X172927787Y-148411411D01*
X172927787Y-148411411D02*
X172884244Y-148324325D01*
X172884244Y-148324325D02*
X172840701Y-148150154D01*
X172840701Y-148150154D02*
X172840701Y-147932439D01*
X172840701Y-147932439D02*
X172884244Y-147758268D01*
X172884244Y-147758268D02*
X172927787Y-147671182D01*
X172927787Y-147671182D02*
X172971330Y-147627639D01*
X172971330Y-147627639D02*
X173058415Y-147584096D01*
X173755101Y-148498496D02*
X173755101Y-147584096D01*
X174277615Y-148498496D02*
X173885729Y-147975982D01*
X174277615Y-147584096D02*
X173755101Y-148106611D01*
X168448696Y-114392798D02*
X168013268Y-114697598D01*
X168448696Y-114915312D02*
X167534296Y-114915312D01*
X167534296Y-114915312D02*
X167534296Y-114566969D01*
X167534296Y-114566969D02*
X167577839Y-114479884D01*
X167577839Y-114479884D02*
X167621382Y-114436341D01*
X167621382Y-114436341D02*
X167708468Y-114392798D01*
X167708468Y-114392798D02*
X167839096Y-114392798D01*
X167839096Y-114392798D02*
X167926182Y-114436341D01*
X167926182Y-114436341D02*
X167969725Y-114479884D01*
X167969725Y-114479884D02*
X168013268Y-114566969D01*
X168013268Y-114566969D02*
X168013268Y-114915312D01*
X167534296Y-114087998D02*
X167534296Y-113478398D01*
X167534296Y-113478398D02*
X168448696Y-113870284D01*
X168100354Y-112165312D02*
X168100354Y-111468627D01*
X168448696Y-109857541D02*
X168448696Y-110380055D01*
X168448696Y-110118798D02*
X167534296Y-110118798D01*
X167534296Y-110118798D02*
X167664925Y-110205884D01*
X167664925Y-110205884D02*
X167752011Y-110292969D01*
X167752011Y-110292969D02*
X167795554Y-110380055D01*
X167534296Y-109291484D02*
X167534296Y-109204398D01*
X167534296Y-109204398D02*
X167577839Y-109117312D01*
X167577839Y-109117312D02*
X167621382Y-109073770D01*
X167621382Y-109073770D02*
X167708468Y-109030227D01*
X167708468Y-109030227D02*
X167882639Y-108986684D01*
X167882639Y-108986684D02*
X168100354Y-108986684D01*
X168100354Y-108986684D02*
X168274525Y-109030227D01*
X168274525Y-109030227D02*
X168361611Y-109073770D01*
X168361611Y-109073770D02*
X168405154Y-109117312D01*
X168405154Y-109117312D02*
X168448696Y-109204398D01*
X168448696Y-109204398D02*
X168448696Y-109291484D01*
X168448696Y-109291484D02*
X168405154Y-109378570D01*
X168405154Y-109378570D02*
X168361611Y-109422112D01*
X168361611Y-109422112D02*
X168274525Y-109465655D01*
X168274525Y-109465655D02*
X168100354Y-109509198D01*
X168100354Y-109509198D02*
X167882639Y-109509198D01*
X167882639Y-109509198D02*
X167708468Y-109465655D01*
X167708468Y-109465655D02*
X167621382Y-109422112D01*
X167621382Y-109422112D02*
X167577839Y-109378570D01*
X167577839Y-109378570D02*
X167534296Y-109291484D01*
X168448696Y-108594798D02*
X167534296Y-108594798D01*
X168448696Y-108072284D02*
X167926182Y-108464170D01*
X167534296Y-108072284D02*
X168056811Y-108594798D01*
%TO.C,U1*%
D10*
X117500000Y-148913300D02*
X117500000Y-142686300D01*
X120231200Y-148721600D02*
X119088800Y-148721600D01*
X120233200Y-142879600D02*
X119086800Y-142879600D01*
X122771200Y-148721600D02*
X121628800Y-148721600D01*
X122773200Y-142879600D02*
X121626800Y-142879600D01*
X125311200Y-148721600D02*
X124168800Y-148721600D01*
X125313200Y-142879600D02*
X124166800Y-142879600D01*
X126900000Y-144784600D02*
X126900000Y-142686300D01*
X126900000Y-146816600D02*
X126900000Y-148913300D01*
X126900000Y-146816600D02*
G75*
G02*
X126900000Y-144784600I0J1016000D01*
G01*
%TO.C,R4*%
X132800200Y-110537500D02*
X132800200Y-113039400D01*
X132800200Y-113039400D02*
X145799900Y-113039400D01*
X145799900Y-110537500D02*
X132800200Y-110537500D01*
X145799900Y-112787900D02*
X145799900Y-110537500D01*
X145799900Y-113039400D02*
X145799900Y-112787900D01*
%TO.C,R11*%
X172800200Y-71137400D02*
X172800200Y-73639400D01*
X172800200Y-73639400D02*
X185799900Y-73639400D01*
X185799900Y-71137400D02*
X172800200Y-71137400D01*
X185799900Y-73387900D02*
X185799900Y-71137400D01*
X185799900Y-73639400D02*
X185799900Y-73387900D01*
%TO.C,R3*%
X132900200Y-82837500D02*
X132900200Y-85339400D01*
X132900200Y-85339400D02*
X145899900Y-85339400D01*
X145899900Y-82837500D02*
X132900200Y-82837500D01*
X145899900Y-85087900D02*
X145899900Y-82837500D01*
X145899900Y-85339400D02*
X145899900Y-85087900D01*
%TO.C,R6*%
X152700200Y-110537500D02*
X152700200Y-113039400D01*
X152700200Y-113039400D02*
X165699900Y-113039400D01*
X165699900Y-110537500D02*
X152700200Y-110537500D01*
X165699900Y-112787900D02*
X165699900Y-110537500D01*
X165699900Y-113039400D02*
X165699900Y-112787900D01*
%TO.C,R1*%
X113300200Y-82837500D02*
X113300200Y-85339400D01*
X113300200Y-85339400D02*
X126299900Y-85339400D01*
X126299900Y-82837500D02*
X113300200Y-82837500D01*
X126299900Y-85087900D02*
X126299900Y-82837500D01*
X126299900Y-85339400D02*
X126299900Y-85087900D01*
%TO.C,R10*%
X190760600Y-105300200D02*
X190760600Y-118299900D01*
X190760600Y-118299900D02*
X191012100Y-118299900D01*
X191012100Y-118299900D02*
X193262500Y-118299900D01*
X193262500Y-105300200D02*
X190760600Y-105300200D01*
X193262500Y-118299900D02*
X193262500Y-105300200D01*
%TO.C,R2*%
X113300200Y-110537500D02*
X113300200Y-113039400D01*
X113300200Y-113039400D02*
X126299900Y-113039400D01*
X126299900Y-110537500D02*
X113300200Y-110537500D01*
X126299900Y-112787900D02*
X126299900Y-110537500D01*
X126299900Y-113039400D02*
X126299900Y-112787900D01*
%TO.C,R5*%
X152700200Y-82837500D02*
X152700200Y-85339400D01*
X152700200Y-85339400D02*
X165699900Y-85339400D01*
X165699900Y-82837500D02*
X152700200Y-82837500D01*
X165699900Y-85087900D02*
X165699900Y-82837500D01*
X165699900Y-85339400D02*
X165699900Y-85087900D01*
%TO.C,C1*%
X128050500Y-142262300D02*
X128050500Y-142511300D01*
X128050500Y-142511300D02*
X128050500Y-149760400D01*
X128050500Y-149760400D02*
X130549800Y-149760400D01*
X130549800Y-142262300D02*
X128050500Y-142262300D01*
X130549800Y-149760400D02*
X130549800Y-142262300D01*
%TO.C,U2*%
X133800400Y-142911600D02*
X133800400Y-149311400D01*
X134079700Y-142911600D02*
X133800400Y-142911600D01*
X134081100Y-149309600D02*
X133800400Y-149309600D01*
X136619700Y-142911600D02*
X135741100Y-142911600D01*
X136621100Y-149309600D02*
X135739700Y-149309600D01*
X139159700Y-142911600D02*
X138281100Y-142911600D01*
X139161100Y-149309600D02*
X138279700Y-149309600D01*
X141699700Y-142911600D02*
X140821100Y-142911600D01*
X141701100Y-149309600D02*
X140819700Y-149309600D01*
X144239700Y-142911600D02*
X143361100Y-142911600D01*
X144241100Y-149309600D02*
X143359700Y-149309600D01*
X146779700Y-142911600D02*
X145901100Y-142911600D01*
X146781100Y-149309600D02*
X145899700Y-149309600D01*
X149319700Y-142911600D02*
X148441100Y-142911600D01*
X149321100Y-149309600D02*
X148439700Y-149309600D01*
X151859700Y-142911600D02*
X150981100Y-142911600D01*
X151861100Y-149309600D02*
X150979700Y-149309600D01*
X153800400Y-142911600D02*
X153521100Y-142911600D01*
X153800400Y-142911600D02*
X153800400Y-145111500D01*
X153800400Y-147109700D02*
X153800400Y-149309600D01*
X153800400Y-149309600D02*
X153519700Y-149309600D01*
X153800400Y-147111500D02*
G75*
G02*
X153750300Y-145111501I-24999J1000001D01*
G01*
X152950100Y-143911900D02*
G75*
G02*
X152350100Y-143911900I-300000J0D01*
G01*
X152350100Y-143911900D02*
G75*
G02*
X152950100Y-143911900I300000J0D01*
G01*
%TO.C,C-MAIN*%
X136268000Y-74870000D02*
X137284000Y-74870000D01*
X136776000Y-75378000D02*
X136776000Y-74362000D01*
X141449700Y-73599700D02*
G75*
G02*
X135150500Y-73599700I-3149600J0D01*
G01*
X135150500Y-73599700D02*
G75*
G02*
X141449700Y-73599700I3149600J0D01*
G01*
%TO.C,C2*%
X155050600Y-142362500D02*
X155050600Y-142611500D01*
X155050600Y-142611500D02*
X155050600Y-149860600D01*
X155050600Y-149860600D02*
X157549900Y-149860600D01*
X157549900Y-142362500D02*
X155050600Y-142362500D01*
X157549900Y-149860600D02*
X157549900Y-142362500D01*
%TO.C,R8*%
X164300100Y-146837500D02*
X164300100Y-149339400D01*
X164300100Y-149339400D02*
X177299900Y-149339400D01*
X177299900Y-146837500D02*
X164300100Y-146837500D01*
X177299900Y-149087900D02*
X177299900Y-146837500D01*
X177299900Y-149339400D02*
X177299900Y-149087900D01*
%TO.C,R7*%
X166860600Y-104900200D02*
X166860600Y-117899900D01*
X166860600Y-117899900D02*
X167112100Y-117899900D01*
X167112100Y-117899900D02*
X169362500Y-117899900D01*
X169362500Y-104900200D02*
X166860600Y-104900200D01*
X169362500Y-117899900D02*
X169362500Y-104900200D01*
%TD*%
M02*
