%TF.GenerationSoftware,KiCad,Pcbnew,10.0.6*%
%TF.CreationDate,2026-09-23T18:23:31+08:00*%
%TF.ProjectId,Navigation_Module,4e617669-6761-4746-996f-6e5f4d6f6475,1.7*%
%TF.SameCoordinates,Original*%
%TF.FileFunction,Copper,L1,Top*%
%TF.FilePolarity,Positive*%
%FSLAX46Y46*%
G04 Gerber Fmt 4.6, Leading zero omitted, Abs format (unit mm)*
G04 Created by KiCad (PCBNEW 10.0.6) date 2026-09-23 18:23:31*
%MOMM*%
%LPD*%
G01*
G04 APERTURE LIST*
%TA.AperFunction,ComponentPad*%
%ADD10R,1.800000X1.800000*%
%TD*%
%TA.AperFunction,ComponentPad*%
%ADD11R,1.300000X1.300000*%
%TD*%
%TA.AperFunction,ComponentPad*%
%ADD12R,1.524000X1.524000*%
%TD*%
%TA.AperFunction,ComponentPad*%
%ADD13R,1.000000X1.000000*%
%TD*%
%TA.AperFunction,ComponentPad*%
%ADD14R,1.600000X1.600000*%
%TD*%
%TA.AperFunction,ViaPad*%
%ADD15C,0.609600*%
%TD*%
%TA.AperFunction,Conductor*%
%ADD16C,0.254000*%
%TD*%
%TA.AperFunction,Conductor*%
%ADD17C,0.762000*%
%TD*%
G04 APERTURE END LIST*
D10*
%TO.P,U1,1*%
%TO.N,RESET*%
X126010200Y-141989900D03*
%TO.P,U1,2*%
%TO.N,DATA(P)*%
X123470200Y-141989900D03*
%TO.P,U1,3*%
%TO.N,LATCH(G)*%
X120930200Y-141989900D03*
%TO.P,U1,4*%
%TO.N,GND*%
X118390200Y-141989900D03*
%TO.P,U1,5*%
%TO.N,SDA*%
X118390200Y-149609900D03*
%TO.P,U1,6*%
%TO.N,CLOCK(Y)*%
X120930200Y-149609900D03*
%TO.P,U1,7*%
%TO.N,SCL*%
X123470200Y-149609900D03*
%TO.P,U1,8*%
%TO.N,+5V*%
X126010200Y-149609900D03*
%TD*%
D11*
%TO.P,WP25,1*%
%TO.N,+5V*%
X150600200Y-73400000D03*
%TD*%
D12*
%TO.P,R4,1*%
%TO.N,GND*%
X144388800Y-111826100D03*
%TO.P,R4,2*%
%TO.N,N4*%
X134228800Y-111826100D03*
%TD*%
%TO.P,TP_+5V,*%
%TO.N,+5V*%
X150999900Y-115750000D03*
%TD*%
%TO.P,TP_+5V,*%
%TO.N,+5V*%
X130999900Y-115750000D03*
%TD*%
%TO.P,R11,1*%
%TO.N,LIGHT1*%
X184388900Y-72425900D03*
%TO.P,R11,2*%
%TO.N,+5V*%
X174228900Y-72425900D03*
%TD*%
%TO.P,TP_GND,*%
%TO.N,GND*%
X184200000Y-113800000D03*
%TD*%
%TO.P,TP_+5V,*%
%TO.N,+5V*%
X111500100Y-87999900D03*
%TD*%
D13*
%TO.P,WP31,1*%
%TO.N,N/C*%
X156600100Y-71400000D03*
%TD*%
D12*
%TO.P,TP_+5V,*%
%TO.N,+5V*%
X111500100Y-115750000D03*
%TD*%
D11*
%TO.P,WP21,1*%
%TO.N,RESET*%
X158600100Y-73400000D03*
%TD*%
D12*
%TO.P,R3,1*%
%TO.N,GND*%
X144488800Y-84126200D03*
%TO.P,R3,2*%
%TO.N,N3*%
X134328800Y-84126200D03*
%TD*%
%TO.P,TP_N7,*%
%TO.N,N7*%
X164200300Y-107199800D03*
%TD*%
D13*
%TO.P,WP27,1*%
%TO.N,N/C*%
X148600100Y-71400000D03*
%TD*%
D12*
%TO.P,R6,1*%
%TO.N,GND*%
X164288900Y-111826100D03*
%TO.P,R6,2*%
%TO.N,N6*%
X154128900Y-111826100D03*
%TD*%
%TO.P,TP_N5,*%
%TO.N,N5*%
X159000100Y-87999900D03*
%TD*%
%TO.P,R1,1*%
%TO.N,GND*%
X124888900Y-84126200D03*
%TO.P,R1,2*%
%TO.N,N1*%
X114728900Y-84126200D03*
%TD*%
%TO.P,R10,1*%
%TO.N,+5V*%
X191973900Y-116888900D03*
%TO.P,R10,2*%
%TO.N,LIGHT2*%
X191973900Y-106728900D03*
%TD*%
D13*
%TO.P,WP29,1*%
%TO.N,N/C*%
X152599800Y-71400000D03*
%TD*%
%TO.P,WP30,1*%
%TO.N,N/C*%
X154600100Y-71400000D03*
%TD*%
D12*
%TO.P,TP_+5V,*%
%TO.N,+5V*%
X150999900Y-87999900D03*
%TD*%
%TO.P,R2,1*%
%TO.N,GND*%
X124888900Y-111826100D03*
%TO.P,R2,2*%
%TO.N,N2*%
X114728900Y-111826100D03*
%TD*%
%TO.P,R5,1*%
%TO.N,GND*%
X164288900Y-84126200D03*
%TO.P,R5,2*%
%TO.N,N5*%
X154128900Y-84126200D03*
%TD*%
%TO.P,TP_LIGHT1,*%
%TO.N,LIGHT1*%
X180299800Y-77000000D03*
%TD*%
%TO.P,TP_LIGHT2,*%
%TO.N,LIGHT2*%
X180200000Y-113800000D03*
%TD*%
D13*
%TO.P,WP23,1*%
%TO.N,N/C*%
X154600100Y-73400000D03*
%TD*%
%TO.P,WP24,1*%
%TO.N,N/C*%
X152599800Y-73400000D03*
%TD*%
D11*
%TO.P,WP20,1*%
%TO.N,SCL*%
X160600100Y-73400000D03*
%TD*%
D12*
%TO.P,C1,1*%
%TO.N,GND*%
X129343300Y-143549500D03*
%TO.P,C1,2*%
%TO.N,+5V*%
X129343300Y-148549400D03*
%TD*%
D14*
%TO.P,U2,1*%
%TO.N,LATCH(G)*%
X152690500Y-142301600D03*
%TO.P,U2,2*%
%TO.N,CLOCK(Y)*%
X150150500Y-142301600D03*
%TO.P,U2,3*%
%TO.N,N5*%
X147610500Y-142301600D03*
%TO.P,U2,4*%
%TO.N,N6*%
X145070500Y-142301600D03*
%TO.P,U2,5*%
%TO.N,N7*%
X142530500Y-142301600D03*
%TO.P,U2,6*%
%TO.N,N8*%
X139990500Y-142301600D03*
%TO.P,U2,7*%
%TO.N,N/C*%
X137450500Y-142301600D03*
%TO.P,U2,8*%
%TO.N,GND*%
X134910500Y-142301600D03*
%TO.P,U2,9*%
%TO.N,DATA(P)*%
X134910500Y-149921600D03*
%TO.P,U2,10*%
%TO.N,N/C*%
X137450500Y-149921600D03*
%TO.P,U2,11*%
%TO.N,N1*%
X139990500Y-149921600D03*
%TO.P,U2,12*%
%TO.N,N2*%
X142530500Y-149921600D03*
%TO.P,U2,13*%
%TO.N,N3*%
X145070500Y-149921600D03*
%TO.P,U2,14*%
%TO.N,N4*%
X147610500Y-149921600D03*
%TO.P,U2,15*%
%TO.N,GND*%
X150150500Y-149921600D03*
%TO.P,U2,16*%
%TO.N,+5V*%
X152690500Y-149921600D03*
%TD*%
D12*
%TO.P,TP_GND,*%
%TO.N,GND*%
X184300100Y-77000000D03*
%TD*%
%TO.P,TP_N1,*%
%TO.N,N1*%
X119500100Y-87999900D03*
%TD*%
%TO.P,TP_N3,*%
%TO.N,N3*%
X138999900Y-87999900D03*
%TD*%
%TO.P,TP_+5V,*%
%TO.N,+5V*%
X130999900Y-87999900D03*
%TD*%
D13*
%TO.P,WP17,1*%
%TO.N,N/C*%
X158600100Y-71400000D03*
%TD*%
D12*
%TO.P,TP_+5V,*%
%TO.N,+5V*%
X164200300Y-134400200D03*
%TD*%
%TO.P,TP_N8,*%
%TO.N,N8*%
X164200300Y-142400100D03*
%TD*%
%TO.P,TP_N6,*%
%TO.N,N6*%
X159000100Y-115750000D03*
%TD*%
%TO.P,C-MAIN,1*%
%TO.N,+5V*%
X138300100Y-74869900D03*
%TO.P,C-MAIN,2*%
%TO.N,GND*%
X138300100Y-72329900D03*
%TD*%
D13*
%TO.P,WP28,1*%
%TO.N,N/C*%
X150600100Y-71400000D03*
%TD*%
D12*
%TO.P,C2,1*%
%TO.N,GND*%
X156343500Y-143649500D03*
%TO.P,C2,2*%
%TO.N,+5V*%
X156343500Y-148649500D03*
%TD*%
%TO.P,R8,1*%
%TO.N,GND*%
X175888800Y-148126000D03*
%TO.P,R8,2*%
%TO.N,N8*%
X165728800Y-148126000D03*
%TD*%
D13*
%TO.P,WP22,1*%
%TO.N,N/C*%
X156600100Y-73400000D03*
%TD*%
D12*
%TO.P,TP_N2,*%
%TO.N,N2*%
X119500100Y-115750000D03*
%TD*%
D13*
%TO.P,WP32,1*%
%TO.N,N/C*%
X162599800Y-71400000D03*
%TD*%
D11*
%TO.P,WP26,1*%
%TO.N,GND*%
X148600200Y-73400000D03*
%TD*%
D12*
%TO.P,TP_N4,*%
%TO.N,N4*%
X138999900Y-115750000D03*
%TD*%
D11*
%TO.P,WP19,1*%
%TO.N,SDA*%
X162599900Y-73400000D03*
%TD*%
D12*
%TO.P,TP_+5V,*%
%TO.N,+5V*%
X164200300Y-99199800D03*
%TD*%
D13*
%TO.P,WP18,1*%
%TO.N,N/C*%
X160600100Y-71400000D03*
%TD*%
D12*
%TO.P,R7,1*%
%TO.N,GND*%
X168074000Y-116488800D03*
%TO.P,R7,2*%
%TO.N,N7*%
X168074000Y-106328800D03*
%TD*%
D15*
%TO.N,SDA*%
X121500100Y-73000000D03*
%TO.N,CLOCK(Y)*%
X124400000Y-145199700D03*
%TO.N,SCL*%
X122199900Y-73949900D03*
%TO.N,N4*%
X144699900Y-120000100D03*
%TO.N,N7*%
X142500000Y-135500000D03*
%TO.N,N6*%
X145100000Y-135800000D03*
%TO.N,N2*%
X125400000Y-122800000D03*
%TO.N,N8*%
X148000200Y-144200000D03*
%TO.N,GUARD1*%
X100500100Y-104999900D03*
X100500100Y-114997600D03*
%TO.N,GUARD2*%
X199499400Y-115248800D03*
X199499400Y-105251400D03*
%TD*%
%TO.N,RESET*%
D16*
X115999500Y-75001200D02*
X125499100Y-75001200D01*
X108001000Y-134500700D02*
X108001000Y-82999700D01*
X133500100Y-67000200D02*
X154500800Y-67000200D01*
X157500500Y-72301200D02*
X158600300Y-73401000D01*
X125499100Y-75001200D02*
X133500100Y-67000200D01*
X111399500Y-137899300D02*
X108001000Y-134500700D01*
X108001000Y-82999700D02*
X115999500Y-75001200D01*
X157500500Y-70000000D02*
X157500500Y-72301200D01*
X154500800Y-67000200D02*
X157500500Y-70000000D01*
X126009600Y-141409500D02*
X122499300Y-137899300D01*
X126009600Y-141988700D02*
X126009600Y-141409500D01*
X122499300Y-137899300D02*
X111399500Y-137899300D01*
%TO.N,DATA(P)*%
X123469600Y-141988700D02*
X123469600Y-142270600D01*
X128001000Y-146799400D02*
X131788100Y-146799400D01*
X131788100Y-146799400D02*
X134909800Y-149921100D01*
X123469600Y-142270600D02*
X128001000Y-146799400D01*
%TO.N,SDA*%
X133000000Y-65500000D02*
X125500100Y-73000000D01*
X161600100Y-72400400D02*
X161600100Y-70600000D01*
X162599700Y-73400000D02*
X161600100Y-72400400D01*
X156500000Y-65500000D02*
X133000000Y-65500000D01*
X161600100Y-70600000D02*
X156500000Y-65500000D01*
X125500100Y-73000000D02*
X121500100Y-73000000D01*
%TO.N,CLOCK(Y)*%
X120930100Y-148669600D02*
X124400000Y-145199700D01*
X120930100Y-149609900D02*
X120930100Y-148669600D01*
%TO.N,SCL*%
X133299400Y-66200100D02*
X125549900Y-73949700D01*
X125549900Y-73949700D02*
X122199600Y-73949700D01*
X159601100Y-70701000D02*
X155100200Y-66200100D01*
X159601100Y-72400300D02*
X159601100Y-70701000D01*
X160599300Y-73401000D02*
X159601100Y-72400300D01*
X155100200Y-66200100D02*
X133299400Y-66200100D01*
%TO.N,N4*%
X146400700Y-121699100D02*
X144698900Y-119999900D01*
X146400700Y-148712000D02*
X146400700Y-121699100D01*
X135076000Y-111826100D02*
X134228900Y-111826100D01*
X147609800Y-149921100D02*
X146400700Y-148712000D01*
X138999900Y-115750000D02*
X135076000Y-111826100D01*
%TO.N,LIGHT1*%
X184388900Y-72910900D02*
X184388900Y-72426000D01*
X180299800Y-77000000D02*
X184388900Y-72910900D01*
%TO.N,N3*%
X142999700Y-90899100D02*
X140099000Y-88001000D01*
X143799800Y-148651100D02*
X143799800Y-132499200D01*
X138999900Y-87999900D02*
X135126000Y-84126100D01*
X140099000Y-88001000D02*
X138999200Y-88001000D01*
X142999700Y-131699100D02*
X142999700Y-90899100D01*
X135126000Y-84126100D02*
X134328900Y-84126100D01*
X145069800Y-149921100D02*
X143799800Y-148651100D01*
X143799800Y-132499200D02*
X142999700Y-131699100D01*
%TO.N,N7*%
X142500000Y-142271100D02*
X142500000Y-135500100D01*
X142530400Y-142301500D02*
X142500000Y-142271100D01*
X164200200Y-107199800D02*
X165071200Y-106328800D01*
X165071200Y-106328800D02*
X168074000Y-106328800D01*
%TO.N,N6*%
X145070400Y-142301500D02*
X145100000Y-142271800D01*
X159000100Y-115750000D02*
X155076200Y-111826100D01*
X145100000Y-142271800D02*
X145100000Y-135800100D01*
X155076200Y-111826100D02*
X154128900Y-111826100D01*
%TO.N,N5*%
X154112200Y-135801200D02*
X160200500Y-135801200D01*
X162699900Y-133299300D02*
X162699900Y-90599400D01*
X155126300Y-84126100D02*
X154128900Y-84126100D01*
X162699900Y-90599400D02*
X160098900Y-88001000D01*
X159000100Y-87999900D02*
X155126300Y-84126100D01*
X160098900Y-88001000D02*
X158999100Y-88001000D01*
X147609800Y-142301100D02*
X154112200Y-135801200D01*
X160200500Y-135801200D02*
X162699900Y-133299300D01*
%TO.N,N1*%
X139989800Y-149291200D02*
X137899300Y-147200700D01*
X115626200Y-84126100D02*
X114728900Y-84126100D01*
X139989800Y-149921100D02*
X139989800Y-149291200D01*
X119500100Y-87999900D02*
X115626200Y-84126100D01*
X121000700Y-88001000D02*
X119499600Y-88001000D01*
X131800800Y-141000600D02*
X123599100Y-132798900D01*
X123599100Y-90599400D02*
X121000700Y-88001000D01*
X131800800Y-143901300D02*
X131800800Y-141000600D01*
X123599100Y-132798900D02*
X123599100Y-90599400D01*
X135100300Y-147200700D02*
X131800800Y-143901300D01*
X137899300Y-147200700D02*
X135100300Y-147200700D01*
%TO.N,LIGHT2*%
X187271100Y-106728900D02*
X180200000Y-113800000D01*
X191973900Y-106728900D02*
X187271100Y-106728900D01*
%TO.N,N2*%
X115576200Y-111826100D02*
X114728900Y-111826100D01*
X138609000Y-146000100D02*
X136100000Y-146000100D01*
X133000000Y-140100000D02*
X125400000Y-132500100D01*
X125400000Y-132500100D02*
X125400000Y-122800000D01*
X133000000Y-142900000D02*
X133000000Y-140100000D01*
X136100000Y-146000100D02*
X133000000Y-142900000D01*
X119500100Y-115750000D02*
X115576200Y-111826100D01*
X142530400Y-149921500D02*
X138609000Y-146000100D01*
%TO.N,N8*%
X164200200Y-142400100D02*
X165728800Y-143928700D01*
X165728800Y-143928700D02*
X165728800Y-148126100D01*
X149200100Y-145400100D02*
X158200000Y-145400100D01*
X158200000Y-145400100D02*
X161200000Y-142400100D01*
X161200000Y-142400100D02*
X164200300Y-142400100D01*
X148000000Y-144200000D02*
X149200100Y-145400100D01*
%TO.N,GUARD1*%
D17*
X105498600Y-112498100D02*
X105498600Y-107496800D01*
X105498600Y-107496800D02*
X103001800Y-105000000D01*
X100500000Y-114997500D02*
X102999300Y-114997500D01*
X103001800Y-105000000D02*
X100500000Y-105000000D01*
X102999300Y-114997500D02*
X105498600Y-112498100D01*
%TO.N,GUARD2*%
X194500800Y-112749300D02*
X194500800Y-107748100D01*
X196997500Y-105251300D02*
X199499300Y-105251300D01*
X197000100Y-115248700D02*
X194500800Y-112749300D01*
X194500800Y-107748100D02*
X196997500Y-105251300D01*
X199499300Y-115248700D02*
X197000100Y-115248700D01*
%TD*%
%TA.AperFunction,Conductor*%
%TO.N,+5V*%
G36*
X189808418Y-60520502D02*
G01*
X189829392Y-60537404D01*
X199241864Y-69949781D01*
X199462495Y-70170409D01*
X199496520Y-70232721D01*
X199499400Y-70259505D01*
X199499400Y-104489800D01*
X199479398Y-104557921D01*
X199425742Y-104604414D01*
X199373400Y-104615800D01*
X197066319Y-104615800D01*
X197066278Y-104615798D01*
X197060078Y-104615798D01*
X196976624Y-104615800D01*
X196934909Y-104615800D01*
X196934903Y-104615800D01*
X196934897Y-104615801D01*
X196934892Y-104615802D01*
X196849753Y-104632737D01*
X196849754Y-104632738D01*
X196812119Y-104640224D01*
X196745368Y-104667875D01*
X196696488Y-104688122D01*
X196696469Y-104688131D01*
X196696458Y-104688138D01*
X196696455Y-104688140D01*
X196643806Y-104723318D01*
X196643807Y-104723319D01*
X196592391Y-104757675D01*
X196592389Y-104757677D01*
X196592379Y-104757685D01*
X196546218Y-104803849D01*
X196503875Y-104846192D01*
X196503872Y-104846195D01*
X196503867Y-104846199D01*
X194068453Y-107281714D01*
X194068451Y-107281715D01*
X194007190Y-107342975D01*
X194007175Y-107342991D01*
X194007169Y-107342998D01*
X194007165Y-107343004D01*
X194007159Y-107343012D01*
X193979688Y-107384124D01*
X193979689Y-107384125D01*
X193946225Y-107434210D01*
X193937627Y-107447078D01*
X193937623Y-107447085D01*
X193937620Y-107447090D01*
X193937585Y-107447163D01*
X193937325Y-107447804D01*
X193913603Y-107505076D01*
X193909090Y-107515972D01*
X193889719Y-107562737D01*
X193889718Y-107562743D01*
X193877404Y-107624654D01*
X193877404Y-107624655D01*
X193865299Y-107685512D01*
X193865300Y-107730634D01*
X193865300Y-112749289D01*
X193865299Y-112811879D01*
X193865300Y-112811891D01*
X193873778Y-112854512D01*
X193873778Y-112854515D01*
X193889720Y-112934670D01*
X193889725Y-112934688D01*
X193889983Y-112935301D01*
X193912964Y-112990781D01*
X193922140Y-113012934D01*
X193937622Y-113050313D01*
X193937628Y-113050325D01*
X193961179Y-113085570D01*
X193976951Y-113109175D01*
X193976952Y-113109178D01*
X193976953Y-113109178D01*
X194007170Y-113154403D01*
X194007174Y-113154407D01*
X194007175Y-113154408D01*
X194057415Y-113204648D01*
X196503309Y-115650640D01*
X196503330Y-115650663D01*
X196506474Y-115653807D01*
X196506475Y-115653808D01*
X196569857Y-115717190D01*
X196569859Y-115717193D01*
X196594976Y-115742312D01*
X196594985Y-115742319D01*
X196594988Y-115742321D01*
X196594992Y-115742325D01*
X196656949Y-115783723D01*
X196656951Y-115783725D01*
X196656952Y-115783725D01*
X196699079Y-115811875D01*
X196699095Y-115811884D01*
X196699628Y-115812101D01*
X196747965Y-115832122D01*
X196747967Y-115832124D01*
X196747968Y-115832124D01*
X196803337Y-115855060D01*
X196803385Y-115855085D01*
X196811189Y-115858313D01*
X196811261Y-115858343D01*
X196815248Y-115859994D01*
X196816567Y-115860295D01*
X196820003Y-115860826D01*
X196852354Y-115867261D01*
X196852358Y-115867261D01*
X196852359Y-115867262D01*
X196937502Y-115884200D01*
X196979224Y-115884200D01*
X197062678Y-115884202D01*
X197062683Y-115884200D01*
X197068878Y-115884201D01*
X197068919Y-115884200D01*
X199373400Y-115884200D01*
X199441521Y-115904202D01*
X199488014Y-115957858D01*
X199499400Y-116010200D01*
X199499400Y-149740386D01*
X199479398Y-149808507D01*
X199462518Y-149829459D01*
X194648229Y-154646156D01*
X194648184Y-154646201D01*
X189829460Y-159462518D01*
X189767139Y-159496527D01*
X189740387Y-159499400D01*
X110259401Y-159499400D01*
X110191280Y-159479398D01*
X110170306Y-159462496D01*
X105353906Y-154646192D01*
X105353905Y-154646191D01*
X100537404Y-149829592D01*
X100503379Y-149767279D01*
X100500500Y-149740497D01*
X100500500Y-148684830D01*
X117235700Y-148684830D01*
X117235700Y-150534963D01*
X117235701Y-150534973D01*
X117250465Y-150609200D01*
X117306716Y-150693384D01*
X117390897Y-150749633D01*
X117390899Y-150749634D01*
X117465133Y-150764400D01*
X119315266Y-150764399D01*
X119315269Y-150764398D01*
X119315273Y-150764398D01*
X119364526Y-150754601D01*
X119389501Y-150749634D01*
X119473684Y-150693384D01*
X119529934Y-150609201D01*
X119536621Y-150575582D01*
X119569528Y-150512673D01*
X119631222Y-150477540D01*
X119702117Y-150481340D01*
X119759704Y-150522865D01*
X119783779Y-150575582D01*
X119790466Y-150609201D01*
X119846716Y-150693384D01*
X119930897Y-150749633D01*
X119930899Y-150749634D01*
X120005133Y-150764400D01*
X121855266Y-150764399D01*
X121855269Y-150764398D01*
X121855273Y-150764398D01*
X121904526Y-150754601D01*
X121929501Y-150749634D01*
X122013684Y-150693384D01*
X122069934Y-150609201D01*
X122076621Y-150575582D01*
X122109528Y-150512673D01*
X122171222Y-150477540D01*
X122242117Y-150481340D01*
X122299704Y-150522865D01*
X122323779Y-150575582D01*
X122330466Y-150609201D01*
X122386716Y-150693384D01*
X122470897Y-150749633D01*
X122470899Y-150749634D01*
X122545133Y-150764400D01*
X124395266Y-150764399D01*
X124395269Y-150764398D01*
X124395273Y-150764398D01*
X124444526Y-150754601D01*
X124469501Y-150749634D01*
X124553684Y-150693384D01*
X124609934Y-150609201D01*
X124624700Y-150534967D01*
X124624699Y-148684834D01*
X124624698Y-148684830D01*
X124624698Y-148684826D01*
X124609934Y-148610599D01*
X124572100Y-148553977D01*
X124553684Y-148526416D01*
X124516825Y-148501787D01*
X124469502Y-148470166D01*
X124395267Y-148455400D01*
X122545136Y-148455400D01*
X122545126Y-148455401D01*
X122470899Y-148470165D01*
X122386715Y-148526416D01*
X122330466Y-148610596D01*
X122323778Y-148644219D01*
X122290869Y-148707129D01*
X122229173Y-148742259D01*
X122158279Y-148738458D01*
X122100693Y-148696932D01*
X122076620Y-148644215D01*
X122069934Y-148610599D01*
X122032100Y-148553977D01*
X122013684Y-148526416D01*
X122013683Y-148526415D01*
X121929500Y-148470164D01*
X121919555Y-148466045D01*
X121864274Y-148421497D01*
X121841854Y-148354133D01*
X121859413Y-148285342D01*
X121878675Y-148260546D01*
X124343318Y-145795905D01*
X124405630Y-145761879D01*
X124432413Y-145759000D01*
X124473631Y-145759000D01*
X124473633Y-145759000D01*
X124615882Y-145720884D01*
X124743418Y-145647251D01*
X124847551Y-145543118D01*
X124921184Y-145415582D01*
X124959300Y-145273333D01*
X124959300Y-145126067D01*
X124921184Y-144983818D01*
X124876121Y-144905766D01*
X124847553Y-144856285D01*
X124847545Y-144856275D01*
X124743424Y-144752154D01*
X124743414Y-144752146D01*
X124615882Y-144678516D01*
X124569172Y-144666000D01*
X124473633Y-144640400D01*
X124326367Y-144640400D01*
X124231534Y-144665810D01*
X124184117Y-144678516D01*
X124056585Y-144752146D01*
X124056575Y-144752154D01*
X123952454Y-144856275D01*
X123952446Y-144856285D01*
X123878816Y-144983817D01*
X123840700Y-145126068D01*
X123840700Y-145167287D01*
X123820698Y-145235408D01*
X123803795Y-145256382D01*
X120695853Y-148364324D01*
X120641681Y-148418496D01*
X120579368Y-148452521D01*
X120552586Y-148455400D01*
X120005136Y-148455400D01*
X120005126Y-148455401D01*
X119930899Y-148470165D01*
X119846715Y-148526416D01*
X119790466Y-148610596D01*
X119783778Y-148644219D01*
X119750869Y-148707129D01*
X119689173Y-148742259D01*
X119618279Y-148738458D01*
X119560693Y-148696932D01*
X119536620Y-148644215D01*
X119529934Y-148610599D01*
X119492100Y-148553977D01*
X119473684Y-148526416D01*
X119436825Y-148501787D01*
X119389502Y-148470166D01*
X119315267Y-148455400D01*
X117465136Y-148455400D01*
X117465126Y-148455401D01*
X117390899Y-148470165D01*
X117306715Y-148526416D01*
X117250466Y-148610597D01*
X117235700Y-148684830D01*
X100500500Y-148684830D01*
X100500500Y-134551116D01*
X107619499Y-134551116D01*
X107619555Y-134551502D01*
X107620474Y-134554560D01*
X107627398Y-134580402D01*
X107645495Y-134647948D01*
X107645504Y-134647964D01*
X107695721Y-134734943D01*
X107695723Y-134734946D01*
X107695724Y-134734947D01*
X107763090Y-134802313D01*
X111089819Y-138129141D01*
X111089831Y-138129154D01*
X111094223Y-138133546D01*
X111094224Y-138133547D01*
X111131562Y-138170885D01*
X111131563Y-138170887D01*
X111131564Y-138170887D01*
X111165388Y-138204712D01*
X111165698Y-138204942D01*
X111168489Y-138206444D01*
X111195285Y-138221914D01*
X111195287Y-138221916D01*
X111195288Y-138221916D01*
X111252242Y-138254800D01*
X111349267Y-138280799D01*
X111349269Y-138280800D01*
X111349270Y-138280800D01*
X111449720Y-138280801D01*
X111449724Y-138280800D01*
X122289091Y-138280800D01*
X122357212Y-138300802D01*
X122378185Y-138317703D01*
X124869717Y-140809166D01*
X124903743Y-140871478D01*
X124898679Y-140942294D01*
X124885389Y-140968264D01*
X124870466Y-140990597D01*
X124863778Y-141024219D01*
X124830869Y-141087129D01*
X124769173Y-141122259D01*
X124698279Y-141118458D01*
X124640693Y-141076932D01*
X124616620Y-141024215D01*
X124609934Y-140990599D01*
X124595010Y-140968264D01*
X124553684Y-140906416D01*
X124553683Y-140906415D01*
X124469502Y-140850166D01*
X124395267Y-140835400D01*
X122545136Y-140835400D01*
X122545126Y-140835401D01*
X122470899Y-140850165D01*
X122386715Y-140906416D01*
X122330466Y-140990596D01*
X122323778Y-141024219D01*
X122290869Y-141087129D01*
X122229173Y-141122259D01*
X122158279Y-141118458D01*
X122100693Y-141076932D01*
X122076620Y-141024215D01*
X122069934Y-140990599D01*
X122055010Y-140968264D01*
X122013684Y-140906416D01*
X122013683Y-140906415D01*
X121929502Y-140850166D01*
X121855267Y-140835400D01*
X120005136Y-140835400D01*
X120005126Y-140835401D01*
X119930899Y-140850165D01*
X119846715Y-140906416D01*
X119790466Y-140990596D01*
X119783778Y-141024219D01*
X119750869Y-141087129D01*
X119689173Y-141122259D01*
X119618279Y-141118458D01*
X119560693Y-141076932D01*
X119536620Y-141024215D01*
X119529934Y-140990599D01*
X119515010Y-140968264D01*
X119473684Y-140906416D01*
X119473683Y-140906415D01*
X119389502Y-140850166D01*
X119315267Y-140835400D01*
X117465136Y-140835400D01*
X117465126Y-140835401D01*
X117390899Y-140850165D01*
X117306715Y-140906416D01*
X117250466Y-140990597D01*
X117235700Y-141064830D01*
X117235700Y-142914963D01*
X117235701Y-142914973D01*
X117250465Y-142989200D01*
X117306716Y-143073384D01*
X117390897Y-143129633D01*
X117390899Y-143129634D01*
X117465133Y-143144400D01*
X119315266Y-143144399D01*
X119315269Y-143144398D01*
X119315273Y-143144398D01*
X119366313Y-143134246D01*
X119389501Y-143129634D01*
X119473684Y-143073384D01*
X119529934Y-142989201D01*
X119536621Y-142955582D01*
X119569528Y-142892673D01*
X119631222Y-142857540D01*
X119702117Y-142861340D01*
X119759704Y-142902865D01*
X119783779Y-142955582D01*
X119790466Y-142989201D01*
X119846716Y-143073384D01*
X119930897Y-143129633D01*
X119930899Y-143129634D01*
X120005133Y-143144400D01*
X121855266Y-143144399D01*
X121855269Y-143144398D01*
X121855273Y-143144398D01*
X121906313Y-143134246D01*
X121929501Y-143129634D01*
X122013684Y-143073384D01*
X122069934Y-142989201D01*
X122076621Y-142955582D01*
X122109528Y-142892673D01*
X122171222Y-142857540D01*
X122242117Y-142861340D01*
X122299704Y-142902865D01*
X122323779Y-142955582D01*
X122330466Y-142989201D01*
X122386716Y-143073384D01*
X122470897Y-143129633D01*
X122470899Y-143129634D01*
X122545133Y-143144400D01*
X123752054Y-143144399D01*
X123820175Y-143164401D01*
X123841124Y-143181278D01*
X127730230Y-147068153D01*
X127730229Y-147068153D01*
X127730243Y-147068166D01*
X127766753Y-147104676D01*
X127766802Y-147104704D01*
X127766841Y-147104743D01*
X127809981Y-147129633D01*
X127853746Y-147154901D01*
X127853799Y-147154915D01*
X127853849Y-147154944D01*
X127904323Y-147168453D01*
X127950775Y-147180900D01*
X127950828Y-147180900D01*
X127950884Y-147180915D01*
X128002841Y-147180900D01*
X131577887Y-147180900D01*
X131646008Y-147200902D01*
X131666982Y-147217805D01*
X133819095Y-149369917D01*
X133853120Y-149432229D01*
X133856000Y-149459012D01*
X133856000Y-150746663D01*
X133856001Y-150746673D01*
X133870765Y-150820900D01*
X133927016Y-150905084D01*
X134011197Y-150961333D01*
X134011199Y-150961334D01*
X134085433Y-150976100D01*
X135735566Y-150976099D01*
X135735569Y-150976098D01*
X135735573Y-150976098D01*
X135784826Y-150966301D01*
X135809801Y-150961334D01*
X135893984Y-150905084D01*
X135950234Y-150820901D01*
X135965000Y-150746667D01*
X135964999Y-149096534D01*
X135964999Y-149096533D01*
X135964999Y-149096531D01*
X135964999Y-149096530D01*
X136396000Y-149096530D01*
X136396000Y-150746663D01*
X136396001Y-150746673D01*
X136410765Y-150820900D01*
X136467016Y-150905084D01*
X136551197Y-150961333D01*
X136551199Y-150961334D01*
X136625433Y-150976100D01*
X138275566Y-150976099D01*
X138275569Y-150976098D01*
X138275573Y-150976098D01*
X138324826Y-150966301D01*
X138349801Y-150961334D01*
X138433984Y-150905084D01*
X138490234Y-150820901D01*
X138505000Y-150746667D01*
X138504999Y-149096534D01*
X138504998Y-149096531D01*
X138504998Y-149096526D01*
X138490234Y-149022299D01*
X138466848Y-148987300D01*
X138433984Y-148938116D01*
X138433983Y-148938115D01*
X138349802Y-148881866D01*
X138275567Y-148867100D01*
X136625436Y-148867100D01*
X136625426Y-148867101D01*
X136551199Y-148881865D01*
X136467015Y-148938116D01*
X136410766Y-149022297D01*
X136396000Y-149096530D01*
X135964999Y-149096530D01*
X135950234Y-149022299D01*
X135926848Y-148987300D01*
X135893984Y-148938116D01*
X135893983Y-148938115D01*
X135809802Y-148881866D01*
X135735569Y-148867100D01*
X135735567Y-148867100D01*
X134447513Y-148867100D01*
X134379392Y-148847098D01*
X134358418Y-148830195D01*
X132022353Y-146494129D01*
X132022343Y-146494121D01*
X131935358Y-146443900D01*
X131923892Y-146440827D01*
X131838325Y-146417900D01*
X131838323Y-146417900D01*
X128211128Y-146417900D01*
X128143007Y-146397898D01*
X128122058Y-146381021D01*
X125141159Y-143401833D01*
X125098821Y-143359519D01*
X125064779Y-143297218D01*
X125069824Y-143226400D01*
X125112354Y-143169552D01*
X125178867Y-143144723D01*
X125187865Y-143144399D01*
X126935266Y-143144399D01*
X126935269Y-143144398D01*
X126935273Y-143144398D01*
X126986313Y-143134246D01*
X127009501Y-143129634D01*
X127093684Y-143073384D01*
X127149934Y-142989201D01*
X127164700Y-142914967D01*
X127164700Y-142762430D01*
X128326800Y-142762430D01*
X128326800Y-144336563D01*
X128326801Y-144336573D01*
X128341565Y-144410800D01*
X128397816Y-144494984D01*
X128481997Y-144551233D01*
X128481999Y-144551234D01*
X128556233Y-144566000D01*
X130130366Y-144565999D01*
X130130369Y-144565998D01*
X130130373Y-144565998D01*
X130179626Y-144556201D01*
X130204601Y-144551234D01*
X130288784Y-144494984D01*
X130345034Y-144410801D01*
X130359800Y-144336567D01*
X130359799Y-142762434D01*
X130359798Y-142762430D01*
X130359798Y-142762426D01*
X130345034Y-142688199D01*
X130318017Y-142647766D01*
X130288784Y-142604016D01*
X130288783Y-142604015D01*
X130204602Y-142547766D01*
X130130367Y-142533000D01*
X128556236Y-142533000D01*
X128556226Y-142533001D01*
X128481999Y-142547765D01*
X128397815Y-142604016D01*
X128341566Y-142688197D01*
X128326800Y-142762430D01*
X127164700Y-142762430D01*
X127164699Y-141960721D01*
X127164699Y-141064836D01*
X127164698Y-141064826D01*
X127149934Y-140990599D01*
X127135010Y-140968264D01*
X127093684Y-140906416D01*
X127093683Y-140906415D01*
X127009502Y-140850166D01*
X126935269Y-140835400D01*
X126935267Y-140835400D01*
X126027203Y-140835400D01*
X125959082Y-140815398D01*
X125938109Y-140798497D01*
X122803766Y-137664243D01*
X122803764Y-137664241D01*
X122733547Y-137594024D01*
X122733546Y-137594023D01*
X122733543Y-137594021D01*
X122646564Y-137543804D01*
X122646552Y-137543798D01*
X122646547Y-137543795D01*
X122568552Y-137522898D01*
X122568552Y-137522897D01*
X122549522Y-137517799D01*
X122549520Y-137517799D01*
X122449069Y-137517800D01*
X111609717Y-137517800D01*
X111541596Y-137497798D01*
X111520620Y-137480894D01*
X108419403Y-134379585D01*
X108385379Y-134317272D01*
X108382500Y-134290491D01*
X108382500Y-118685146D01*
X108749494Y-118685146D01*
X108749500Y-118749961D01*
X108749500Y-118751038D01*
X108749500Y-132684008D01*
X108749500Y-132815792D01*
X108774467Y-132908973D01*
X108783607Y-132943083D01*
X108783610Y-132943090D01*
X108849497Y-133057210D01*
X108849505Y-133057220D01*
X108942679Y-133150394D01*
X108942684Y-133150398D01*
X108942686Y-133150400D01*
X109056814Y-133216292D01*
X109184108Y-133250400D01*
X109184110Y-133250400D01*
X122315990Y-133250400D01*
X122315992Y-133250400D01*
X122443286Y-133216292D01*
X122557414Y-133150400D01*
X122650600Y-133057214D01*
X122716492Y-132943086D01*
X122750600Y-132815792D01*
X122750600Y-118824438D01*
X122750605Y-118824350D01*
X122750604Y-118815856D01*
X122750605Y-118815854D01*
X122750600Y-118749962D01*
X122750600Y-118684108D01*
X122750598Y-118684101D01*
X122750595Y-118684078D01*
X122750595Y-118684070D01*
X122733814Y-118621462D01*
X122716492Y-118556814D01*
X122716482Y-118556796D01*
X122716477Y-118556778D01*
X122684406Y-118501240D01*
X122650600Y-118442686D01*
X122650585Y-118442671D01*
X122650576Y-118442655D01*
X122603979Y-118396065D01*
X122557414Y-118349500D01*
X122557413Y-118349499D01*
X122557409Y-118349495D01*
X122557388Y-118349479D01*
X122498611Y-118315550D01*
X122498612Y-118315547D01*
X122498601Y-118315544D01*
X122443270Y-118283597D01*
X122380175Y-118266697D01*
X122380167Y-118266692D01*
X122380167Y-118266695D01*
X122315982Y-118249497D01*
X122315958Y-118249494D01*
X122250944Y-118249500D01*
X122176538Y-118249500D01*
X122176446Y-118249505D01*
X109249079Y-118250500D01*
X109184089Y-118250500D01*
X109132733Y-118264263D01*
X109132727Y-118264265D01*
X109121462Y-118267285D01*
X109056814Y-118284608D01*
X109056796Y-118284617D01*
X109056778Y-118284623D01*
X109003221Y-118315550D01*
X108942686Y-118350500D01*
X108942671Y-118350514D01*
X108942655Y-118350524D01*
X108896065Y-118397120D01*
X108849500Y-118443686D01*
X108849490Y-118443702D01*
X108849476Y-118443717D01*
X108815654Y-118502307D01*
X108783608Y-118557814D01*
X108783602Y-118557832D01*
X108783593Y-118557850D01*
X108766265Y-118622536D01*
X108763245Y-118633803D01*
X108763244Y-118633808D01*
X108749499Y-118685110D01*
X108749494Y-118685146D01*
X108382500Y-118685146D01*
X108382500Y-111039030D01*
X113712400Y-111039030D01*
X113712400Y-112613163D01*
X113712401Y-112613173D01*
X113727165Y-112687400D01*
X113783416Y-112771584D01*
X113867597Y-112827833D01*
X113867599Y-112827834D01*
X113941833Y-112842600D01*
X115515966Y-112842599D01*
X115515969Y-112842598D01*
X115515973Y-112842598D01*
X115585922Y-112828685D01*
X115590201Y-112827834D01*
X115674384Y-112771584D01*
X115712366Y-112714739D01*
X115766842Y-112669213D01*
X115837285Y-112660365D01*
X115901329Y-112691006D01*
X115906225Y-112695648D01*
X118446695Y-115236118D01*
X118480721Y-115298430D01*
X118483600Y-115325213D01*
X118483600Y-116537063D01*
X118483601Y-116537073D01*
X118498365Y-116611300D01*
X118554616Y-116695484D01*
X118638797Y-116751733D01*
X118638799Y-116751734D01*
X118713033Y-116766500D01*
X120287166Y-116766499D01*
X120287169Y-116766498D01*
X120287173Y-116766498D01*
X120336426Y-116756701D01*
X120361401Y-116751734D01*
X120445584Y-116695484D01*
X120501834Y-116611301D01*
X120516600Y-116537067D01*
X120516599Y-114962934D01*
X120516598Y-114962931D01*
X120516598Y-114962926D01*
X120501834Y-114888699D01*
X120445584Y-114804516D01*
X120445583Y-114804515D01*
X120361402Y-114748266D01*
X120287169Y-114733500D01*
X120287167Y-114733500D01*
X119075313Y-114733500D01*
X119007192Y-114713498D01*
X118986218Y-114696595D01*
X115810454Y-111520830D01*
X115810450Y-111520827D01*
X115810447Y-111520824D01*
X115810442Y-111520821D01*
X115810438Y-111520818D01*
X115808391Y-111519636D01*
X115807010Y-111518188D01*
X115803898Y-111515800D01*
X115804270Y-111515314D01*
X115759401Y-111468250D01*
X115745399Y-111410522D01*
X115745399Y-111039036D01*
X115745398Y-111039027D01*
X115730634Y-110964799D01*
X115721921Y-110951759D01*
X115674384Y-110880616D01*
X115674383Y-110880615D01*
X115590202Y-110824366D01*
X115515967Y-110809600D01*
X113941836Y-110809600D01*
X113941826Y-110809601D01*
X113867599Y-110824365D01*
X113783415Y-110880616D01*
X113727166Y-110964797D01*
X113712400Y-111039030D01*
X108382500Y-111039030D01*
X108382500Y-91185244D01*
X108749393Y-91185244D01*
X108749400Y-91249958D01*
X108749400Y-91251142D01*
X108749400Y-105184008D01*
X108749400Y-105315792D01*
X108752421Y-105327065D01*
X108783507Y-105443083D01*
X108783510Y-105443090D01*
X108849397Y-105557210D01*
X108849405Y-105557220D01*
X108942579Y-105650394D01*
X108942584Y-105650398D01*
X108942586Y-105650400D01*
X108942587Y-105650401D01*
X108942589Y-105650402D01*
X109017028Y-105693379D01*
X109056714Y-105716292D01*
X109184008Y-105750400D01*
X109184010Y-105750400D01*
X122315990Y-105750400D01*
X122315992Y-105750400D01*
X122443286Y-105716292D01*
X122557414Y-105650400D01*
X122650600Y-105557214D01*
X122716492Y-105443086D01*
X122750600Y-105315792D01*
X122750600Y-91324293D01*
X122750606Y-91324188D01*
X122750605Y-91315852D01*
X122750606Y-91315850D01*
X122750600Y-91249958D01*
X122750600Y-91184108D01*
X122750598Y-91184101D01*
X122750594Y-91184070D01*
X122750594Y-91184066D01*
X122734002Y-91122166D01*
X122716864Y-91058203D01*
X122716509Y-91056799D01*
X122716508Y-91056797D01*
X122715820Y-91055639D01*
X122683149Y-90999063D01*
X122683143Y-90999053D01*
X122651195Y-90943717D01*
X122650915Y-90943233D01*
X122650615Y-90942702D01*
X122650586Y-90942664D01*
X122612270Y-90904355D01*
X122612271Y-90904355D01*
X122603977Y-90896063D01*
X122557414Y-90849500D01*
X122557395Y-90849489D01*
X122557380Y-90849474D01*
X122503381Y-90818304D01*
X122443286Y-90783608D01*
X122443263Y-90783601D01*
X122443246Y-90783592D01*
X122430756Y-90780246D01*
X122430754Y-90780245D01*
X122379434Y-90766499D01*
X122379427Y-90766495D01*
X122379427Y-90766497D01*
X122324747Y-90751846D01*
X122315992Y-90749500D01*
X122315991Y-90749500D01*
X122315980Y-90749497D01*
X122315956Y-90749493D01*
X122245094Y-90749500D01*
X122176539Y-90749500D01*
X122176447Y-90749505D01*
X109254822Y-90750600D01*
X109184008Y-90750600D01*
X109183985Y-90750605D01*
X109183966Y-90750606D01*
X109122066Y-90767197D01*
X109056714Y-90784708D01*
X109056696Y-90784718D01*
X109056675Y-90784724D01*
X108998964Y-90818050D01*
X108942586Y-90850600D01*
X108942570Y-90850615D01*
X108942552Y-90850626D01*
X108933532Y-90859647D01*
X108933531Y-90859648D01*
X108895963Y-90897223D01*
X108895955Y-90897230D01*
X108858428Y-90934756D01*
X108858426Y-90934759D01*
X108849400Y-90943786D01*
X108849389Y-90943804D01*
X108849374Y-90943820D01*
X108816807Y-91000236D01*
X108783508Y-91057914D01*
X108783502Y-91057935D01*
X108783492Y-91057953D01*
X108765975Y-91123347D01*
X108762968Y-91134567D01*
X108762967Y-91134571D01*
X108749396Y-91185221D01*
X108749393Y-91185244D01*
X108382500Y-91185244D01*
X108382500Y-83339130D01*
X113712400Y-83339130D01*
X113712400Y-84913263D01*
X113712401Y-84913273D01*
X113727165Y-84987500D01*
X113783416Y-85071684D01*
X113867597Y-85127933D01*
X113867599Y-85127934D01*
X113941833Y-85142700D01*
X115515966Y-85142699D01*
X115515969Y-85142698D01*
X115515973Y-85142698D01*
X115565226Y-85132901D01*
X115590201Y-85127934D01*
X115674384Y-85071684D01*
X115730634Y-84987501D01*
X115730634Y-84987500D01*
X115732438Y-84984801D01*
X115786915Y-84939273D01*
X115857359Y-84930426D01*
X115921402Y-84961067D01*
X115926297Y-84965706D01*
X116103294Y-85142698D01*
X118446695Y-87486038D01*
X118480720Y-87548348D01*
X118483600Y-87575133D01*
X118483600Y-88786963D01*
X118483601Y-88786973D01*
X118498365Y-88861200D01*
X118554616Y-88945384D01*
X118638797Y-89001633D01*
X118638799Y-89001634D01*
X118713033Y-89016400D01*
X120287166Y-89016399D01*
X120287169Y-89016398D01*
X120287173Y-89016398D01*
X120336426Y-89006601D01*
X120361401Y-89001634D01*
X120445584Y-88945384D01*
X120501834Y-88861201D01*
X120516600Y-88786967D01*
X120516600Y-88508500D01*
X120536602Y-88440379D01*
X120590258Y-88393886D01*
X120642600Y-88382500D01*
X120790487Y-88382500D01*
X120858608Y-88402502D01*
X120879582Y-88419405D01*
X123180695Y-90720517D01*
X123214720Y-90782829D01*
X123217600Y-90809612D01*
X123217600Y-132849123D01*
X123217599Y-132849123D01*
X123243598Y-132946152D01*
X123243601Y-132946159D01*
X123251644Y-132960089D01*
X123293821Y-133033143D01*
X123293829Y-133033153D01*
X131382395Y-141121717D01*
X131416421Y-141184029D01*
X131419300Y-141210812D01*
X131419300Y-143843346D01*
X131419299Y-143843364D01*
X131419299Y-143951530D01*
X131430915Y-143994874D01*
X131430914Y-143994874D01*
X131430915Y-143994876D01*
X131445297Y-144048550D01*
X131445298Y-144048553D01*
X131445299Y-144048554D01*
X131495524Y-144135547D01*
X131495526Y-144135549D01*
X131495529Y-144135553D01*
X131575587Y-144215611D01*
X131575610Y-144215630D01*
X133119027Y-145759000D01*
X134795024Y-147434947D01*
X134866053Y-147505976D01*
X134953046Y-147556201D01*
X134953049Y-147556201D01*
X134953053Y-147556204D01*
X135016034Y-147573078D01*
X135016037Y-147573080D01*
X135016037Y-147573079D01*
X135050075Y-147582200D01*
X135050077Y-147582200D01*
X135050081Y-147582201D01*
X135150531Y-147582200D01*
X137689087Y-147582200D01*
X137757208Y-147602202D01*
X137778182Y-147619105D01*
X138970016Y-148810939D01*
X139004042Y-148873251D01*
X138998977Y-148944066D01*
X138985686Y-148970036D01*
X138950766Y-149022297D01*
X138936000Y-149096530D01*
X138936000Y-150746663D01*
X138936001Y-150746673D01*
X138950765Y-150820900D01*
X139007016Y-150905084D01*
X139091197Y-150961333D01*
X139091199Y-150961334D01*
X139165433Y-150976100D01*
X140815566Y-150976099D01*
X140815569Y-150976098D01*
X140815573Y-150976098D01*
X140864826Y-150966301D01*
X140889801Y-150961334D01*
X140973984Y-150905084D01*
X141030234Y-150820901D01*
X141045000Y-150746667D01*
X141044999Y-149279811D01*
X141065001Y-149211691D01*
X141118657Y-149165198D01*
X141188931Y-149155094D01*
X141253511Y-149184587D01*
X141260094Y-149190717D01*
X141439095Y-149369718D01*
X141473121Y-149432030D01*
X141476000Y-149458813D01*
X141476000Y-150746663D01*
X141476001Y-150746673D01*
X141490765Y-150820900D01*
X141547016Y-150905084D01*
X141631197Y-150961333D01*
X141631199Y-150961334D01*
X141705433Y-150976100D01*
X143355566Y-150976099D01*
X143355569Y-150976098D01*
X143355573Y-150976098D01*
X143404826Y-150966301D01*
X143429801Y-150961334D01*
X143513984Y-150905084D01*
X143570234Y-150820901D01*
X143585000Y-150746667D01*
X143584999Y-149280011D01*
X143605001Y-149211891D01*
X143658657Y-149165398D01*
X143728931Y-149155294D01*
X143793511Y-149184787D01*
X143800094Y-149190917D01*
X143979095Y-149369918D01*
X144013121Y-149432230D01*
X144016000Y-149459013D01*
X144016000Y-150746663D01*
X144016001Y-150746673D01*
X144030765Y-150820900D01*
X144087016Y-150905084D01*
X144171197Y-150961333D01*
X144171199Y-150961334D01*
X144245433Y-150976100D01*
X145895566Y-150976099D01*
X145895569Y-150976098D01*
X145895573Y-150976098D01*
X145944826Y-150966301D01*
X145969801Y-150961334D01*
X146053984Y-150905084D01*
X146110234Y-150820901D01*
X146125000Y-150746667D01*
X146124999Y-149280011D01*
X146145001Y-149211891D01*
X146198657Y-149165398D01*
X146268931Y-149155294D01*
X146333511Y-149184787D01*
X146340094Y-149190917D01*
X146519095Y-149369918D01*
X146553121Y-149432230D01*
X146556000Y-149459013D01*
X146556000Y-150746663D01*
X146556001Y-150746673D01*
X146570765Y-150820900D01*
X146627016Y-150905084D01*
X146711197Y-150961333D01*
X146711199Y-150961334D01*
X146785433Y-150976100D01*
X148435566Y-150976099D01*
X148435569Y-150976098D01*
X148435573Y-150976098D01*
X148484826Y-150966301D01*
X148509801Y-150961334D01*
X148593984Y-150905084D01*
X148650234Y-150820901D01*
X148665000Y-150746667D01*
X148664999Y-149096534D01*
X148664999Y-149096533D01*
X148664999Y-149096531D01*
X148664999Y-149096530D01*
X149096000Y-149096530D01*
X149096000Y-150746663D01*
X149096001Y-150746673D01*
X149110765Y-150820900D01*
X149167016Y-150905084D01*
X149251197Y-150961333D01*
X149251199Y-150961334D01*
X149325433Y-150976100D01*
X150975566Y-150976099D01*
X150975569Y-150976098D01*
X150975573Y-150976098D01*
X151024826Y-150966301D01*
X151049801Y-150961334D01*
X151133984Y-150905084D01*
X151190234Y-150820901D01*
X151205000Y-150746667D01*
X151204999Y-149096534D01*
X151204998Y-149096531D01*
X151204998Y-149096526D01*
X151190234Y-149022299D01*
X151166848Y-148987300D01*
X151133984Y-148938116D01*
X151133983Y-148938115D01*
X151049802Y-148881866D01*
X150975567Y-148867100D01*
X149325436Y-148867100D01*
X149325426Y-148867101D01*
X149251199Y-148881865D01*
X149167015Y-148938116D01*
X149110766Y-149022297D01*
X149096000Y-149096530D01*
X148664999Y-149096530D01*
X148650234Y-149022299D01*
X148626848Y-148987300D01*
X148593984Y-148938116D01*
X148593983Y-148938115D01*
X148509802Y-148881866D01*
X148435569Y-148867100D01*
X148435567Y-148867100D01*
X147147513Y-148867100D01*
X147079392Y-148847098D01*
X147058418Y-148830195D01*
X146819105Y-148590882D01*
X146785079Y-148528570D01*
X146782200Y-148501787D01*
X146782200Y-144273631D01*
X147440899Y-144273631D01*
X147479016Y-144415882D01*
X147552646Y-144543414D01*
X147552654Y-144543424D01*
X147656775Y-144647545D01*
X147656780Y-144647549D01*
X147656782Y-144647551D01*
X147656783Y-144647552D01*
X147656785Y-144647553D01*
X147706266Y-144676121D01*
X147784318Y-144721184D01*
X147926567Y-144759300D01*
X147967587Y-144759300D01*
X148035708Y-144779302D01*
X148056677Y-144796200D01*
X148965853Y-145705376D01*
X148965854Y-145705377D01*
X148965856Y-145705378D01*
X149052842Y-145755599D01*
X149052847Y-145755602D01*
X149149875Y-145781601D01*
X149149877Y-145781601D01*
X149258043Y-145781601D01*
X149258059Y-145781600D01*
X158250223Y-145781600D01*
X158250225Y-145781600D01*
X158347254Y-145755601D01*
X158347257Y-145755599D01*
X158347258Y-145755599D01*
X158407388Y-145720883D01*
X158434247Y-145705376D01*
X158505276Y-145634347D01*
X161321118Y-142818505D01*
X161383430Y-142784479D01*
X161410213Y-142781600D01*
X163057801Y-142781600D01*
X163125922Y-142801602D01*
X163172415Y-142855258D01*
X163183801Y-142907600D01*
X163183801Y-143187166D01*
X163198565Y-143261400D01*
X163254816Y-143345584D01*
X163338997Y-143401833D01*
X163338999Y-143401834D01*
X163413233Y-143416600D01*
X164624986Y-143416599D01*
X164693107Y-143436601D01*
X164714081Y-143453504D01*
X165310395Y-144049818D01*
X165344421Y-144112130D01*
X165347300Y-144138913D01*
X165347300Y-146983500D01*
X165327298Y-147051621D01*
X165273642Y-147098114D01*
X165221300Y-147109500D01*
X164941736Y-147109500D01*
X164941726Y-147109501D01*
X164867499Y-147124265D01*
X164783315Y-147180516D01*
X164727066Y-147264697D01*
X164712300Y-147338930D01*
X164712300Y-148913063D01*
X164712301Y-148913073D01*
X164727065Y-148987300D01*
X164783316Y-149071484D01*
X164867497Y-149127733D01*
X164867499Y-149127734D01*
X164941733Y-149142500D01*
X166515866Y-149142499D01*
X166515869Y-149142498D01*
X166515873Y-149142498D01*
X166565126Y-149132701D01*
X166590101Y-149127734D01*
X166674284Y-149071484D01*
X166730534Y-148987301D01*
X166745300Y-148913067D01*
X166745299Y-147338934D01*
X166745299Y-147338933D01*
X166745299Y-147338931D01*
X166745299Y-147338930D01*
X174872300Y-147338930D01*
X174872300Y-148913063D01*
X174872301Y-148913073D01*
X174887065Y-148987300D01*
X174943316Y-149071484D01*
X175027497Y-149127733D01*
X175027499Y-149127734D01*
X175101733Y-149142500D01*
X176675866Y-149142499D01*
X176675869Y-149142498D01*
X176675873Y-149142498D01*
X176725126Y-149132701D01*
X176750101Y-149127734D01*
X176834284Y-149071484D01*
X176890534Y-148987301D01*
X176905300Y-148913067D01*
X176905299Y-147338934D01*
X176905298Y-147338931D01*
X176905298Y-147338926D01*
X176890534Y-147264699D01*
X176859200Y-147217805D01*
X176834284Y-147180516D01*
X176816231Y-147168453D01*
X176750102Y-147124266D01*
X176675867Y-147109500D01*
X175101736Y-147109500D01*
X175101726Y-147109501D01*
X175027499Y-147124265D01*
X174943315Y-147180516D01*
X174887066Y-147264697D01*
X174872300Y-147338930D01*
X166745299Y-147338930D01*
X166730534Y-147264699D01*
X166699200Y-147217805D01*
X166674284Y-147180516D01*
X166656231Y-147168453D01*
X166590102Y-147124266D01*
X166515869Y-147109500D01*
X166515867Y-147109500D01*
X166236300Y-147109500D01*
X166168179Y-147089498D01*
X166121686Y-147035842D01*
X166110300Y-146983500D01*
X166110300Y-143878476D01*
X166110300Y-143878475D01*
X166087424Y-143793100D01*
X166084302Y-143781447D01*
X166059189Y-143737950D01*
X166034078Y-143694456D01*
X166034070Y-143694446D01*
X165253704Y-142914080D01*
X165219678Y-142851768D01*
X165216799Y-142824985D01*
X165216799Y-141613036D01*
X165216798Y-141613027D01*
X165202034Y-141538799D01*
X165196180Y-141530038D01*
X165145784Y-141454616D01*
X165145783Y-141454615D01*
X165061602Y-141398366D01*
X164987367Y-141383600D01*
X163413236Y-141383600D01*
X163413226Y-141383601D01*
X163338999Y-141398365D01*
X163254815Y-141454616D01*
X163198566Y-141538797D01*
X163183800Y-141613030D01*
X163183800Y-141892600D01*
X163163798Y-141960721D01*
X163110142Y-142007214D01*
X163057800Y-142018600D01*
X161257959Y-142018600D01*
X161257943Y-142018599D01*
X161250225Y-142018599D01*
X161149775Y-142018599D01*
X161101261Y-142031598D01*
X161052745Y-142044598D01*
X160965756Y-142094821D01*
X160965746Y-142094829D01*
X158078882Y-144981695D01*
X158016570Y-145015721D01*
X157989787Y-145018600D01*
X149410313Y-145018600D01*
X149342192Y-144998598D01*
X149321218Y-144981695D01*
X148596405Y-144256882D01*
X148562379Y-144194570D01*
X148559500Y-144167787D01*
X148559500Y-144126368D01*
X148538988Y-144049818D01*
X148521384Y-143984118D01*
X148460391Y-143878475D01*
X148447753Y-143856585D01*
X148447745Y-143856575D01*
X148343624Y-143752454D01*
X148343614Y-143752446D01*
X148216082Y-143678816D01*
X148073833Y-143640700D01*
X147926567Y-143640700D01*
X147831734Y-143666110D01*
X147784317Y-143678816D01*
X147656785Y-143752446D01*
X147656775Y-143752454D01*
X147552654Y-143856575D01*
X147552646Y-143856585D01*
X147479016Y-143984117D01*
X147440900Y-144126368D01*
X147440900Y-144273631D01*
X147440899Y-144273631D01*
X146782200Y-144273631D01*
X146782200Y-143482099D01*
X146802202Y-143413978D01*
X146855858Y-143367485D01*
X146908195Y-143356099D01*
X148435566Y-143356099D01*
X148435569Y-143356098D01*
X148435573Y-143356098D01*
X148499700Y-143343343D01*
X148509801Y-143341334D01*
X148593984Y-143285084D01*
X148650234Y-143200901D01*
X148665000Y-143126667D01*
X148664999Y-141837929D01*
X148685001Y-141769809D01*
X148701920Y-141748818D01*
X148880923Y-141569883D01*
X148943240Y-141535871D01*
X149014055Y-141540950D01*
X149070883Y-141583507D01*
X149095681Y-141650032D01*
X149096000Y-141658997D01*
X149096000Y-143126663D01*
X149096001Y-143126673D01*
X149110765Y-143200900D01*
X149167016Y-143285084D01*
X149251197Y-143341333D01*
X149251199Y-143341334D01*
X149325433Y-143356100D01*
X150975566Y-143356099D01*
X150975569Y-143356098D01*
X150975573Y-143356098D01*
X151039700Y-143343343D01*
X151049801Y-143341334D01*
X151133984Y-143285084D01*
X151190234Y-143200901D01*
X151205000Y-143126667D01*
X151204999Y-141476534D01*
X151204999Y-141476533D01*
X151204999Y-141476531D01*
X151204999Y-141476530D01*
X151636000Y-141476530D01*
X151636000Y-143126663D01*
X151636001Y-143126673D01*
X151650765Y-143200900D01*
X151707016Y-143285084D01*
X151791197Y-143341333D01*
X151791199Y-143341334D01*
X151865433Y-143356100D01*
X153515566Y-143356099D01*
X153515569Y-143356098D01*
X153515573Y-143356098D01*
X153579700Y-143343343D01*
X153589801Y-143341334D01*
X153673984Y-143285084D01*
X153730234Y-143200901D01*
X153745000Y-143126667D01*
X153745000Y-142862430D01*
X155327000Y-142862430D01*
X155327000Y-144436563D01*
X155327001Y-144436573D01*
X155341765Y-144510800D01*
X155398016Y-144594984D01*
X155482197Y-144651233D01*
X155482199Y-144651234D01*
X155556433Y-144666000D01*
X157130566Y-144665999D01*
X157130569Y-144665998D01*
X157130573Y-144665998D01*
X157179826Y-144656201D01*
X157204801Y-144651234D01*
X157288984Y-144594984D01*
X157345234Y-144510801D01*
X157360000Y-144436567D01*
X157359999Y-142862434D01*
X157359998Y-142862430D01*
X157359998Y-142862426D01*
X157345234Y-142788199D01*
X157288983Y-142704015D01*
X157204802Y-142647766D01*
X157130567Y-142633000D01*
X155556436Y-142633000D01*
X155556426Y-142633001D01*
X155482199Y-142647765D01*
X155398015Y-142704016D01*
X155341766Y-142788197D01*
X155327000Y-142862430D01*
X153745000Y-142862430D01*
X153744999Y-141476534D01*
X153744998Y-141476531D01*
X153744998Y-141476526D01*
X153730234Y-141402299D01*
X153717740Y-141383601D01*
X153673984Y-141318116D01*
X153673983Y-141318115D01*
X153589802Y-141261866D01*
X153515567Y-141247100D01*
X151865436Y-141247100D01*
X151865426Y-141247101D01*
X151791199Y-141261865D01*
X151707015Y-141318116D01*
X151650766Y-141402297D01*
X151636000Y-141476530D01*
X151204999Y-141476530D01*
X151190234Y-141402299D01*
X151177740Y-141383601D01*
X151133984Y-141318116D01*
X151133983Y-141318115D01*
X151049802Y-141261866D01*
X150975569Y-141247100D01*
X149508104Y-141247100D01*
X149439983Y-141227098D01*
X149393490Y-141173442D01*
X149383386Y-141103168D01*
X149412880Y-141038588D01*
X149419013Y-141031999D01*
X154138202Y-136314626D01*
X154233278Y-136219587D01*
X154295596Y-136185574D01*
X154322356Y-136182700D01*
X160142009Y-136182700D01*
X160142448Y-136182728D01*
X160150462Y-136182724D01*
X160150466Y-136182725D01*
X160200662Y-136182700D01*
X160200692Y-136182700D01*
X160250719Y-136182700D01*
X160250725Y-136182700D01*
X160250731Y-136182698D01*
X160250904Y-136182675D01*
X160250916Y-136182675D01*
X160299931Y-136169515D01*
X160299992Y-136169516D01*
X160299988Y-136169500D01*
X160305239Y-136168092D01*
X160347754Y-136156701D01*
X160347759Y-136156698D01*
X160347763Y-136156697D01*
X160347925Y-136156629D01*
X160347931Y-136156628D01*
X160386209Y-136134501D01*
X160391377Y-136131515D01*
X160391378Y-136131517D01*
X160391413Y-136131493D01*
X160434747Y-136106476D01*
X160434752Y-136106471D01*
X160434893Y-136106364D01*
X160434896Y-136106360D01*
X160434899Y-136106359D01*
X160452836Y-136088402D01*
X160469845Y-136071378D01*
X160469890Y-136071332D01*
X160505776Y-136035447D01*
X160505777Y-136035444D01*
X160511537Y-136029685D01*
X160511829Y-136029350D01*
X162969256Y-133569465D01*
X162969300Y-133569423D01*
X162987238Y-133551484D01*
X163005176Y-133533547D01*
X163005177Y-133533544D01*
X163005288Y-133533400D01*
X163005289Y-133533397D01*
X163005293Y-133533394D01*
X163021292Y-133505648D01*
X163030092Y-133490391D01*
X163030094Y-133490392D01*
X163030113Y-133490352D01*
X163055401Y-133446554D01*
X163055402Y-133446547D01*
X163055407Y-133446540D01*
X163055473Y-133446380D01*
X163055473Y-133446377D01*
X163055475Y-133446375D01*
X163068667Y-133397041D01*
X163081400Y-133349525D01*
X163081400Y-133349524D01*
X163081422Y-133349345D01*
X163081426Y-133349334D01*
X163081400Y-133297100D01*
X163081400Y-130120277D01*
X165249400Y-130120277D01*
X165249400Y-130879722D01*
X165285180Y-131562428D01*
X165289145Y-131638086D01*
X165354724Y-132262038D01*
X165368526Y-132393353D01*
X165487323Y-133143410D01*
X165645217Y-133886240D01*
X165841769Y-134619782D01*
X166076436Y-135342012D01*
X166076451Y-135342054D01*
X166348590Y-136050999D01*
X166348591Y-136051003D01*
X166657475Y-136744766D01*
X167002252Y-137421428D01*
X167381956Y-138079093D01*
X167512946Y-138280800D01*
X167795121Y-138715312D01*
X167795560Y-138715987D01*
X167795580Y-138716016D01*
X168241918Y-139330347D01*
X168241925Y-139330355D01*
X168241936Y-139330371D01*
X168577024Y-139744171D01*
X168675473Y-139865746D01*
X168719853Y-139920550D01*
X169023715Y-140258023D01*
X169228005Y-140484909D01*
X169228019Y-140484924D01*
X169764975Y-141021880D01*
X169764990Y-141021894D01*
X169764993Y-141021897D01*
X170329350Y-141530047D01*
X170919529Y-142007964D01*
X170919547Y-142007977D01*
X170919552Y-142007981D01*
X171411064Y-142365086D01*
X171533911Y-142454339D01*
X172170812Y-142867947D01*
X172526639Y-143073384D01*
X172791670Y-143226400D01*
X172828487Y-143247656D01*
X173505134Y-143592425D01*
X173843947Y-143743274D01*
X174198896Y-143901308D01*
X174198898Y-143901308D01*
X174414622Y-143984117D01*
X174817878Y-144138913D01*
X174907874Y-144173459D01*
X175051042Y-144219977D01*
X175630117Y-144408130D01*
X175630121Y-144408131D01*
X175630124Y-144408132D01*
X176363665Y-144604684D01*
X177106488Y-144762576D01*
X177856556Y-144881375D01*
X178611814Y-144960755D01*
X179370177Y-145000499D01*
X179370178Y-145000500D01*
X179370191Y-145000500D01*
X180129622Y-145000500D01*
X180129622Y-145000499D01*
X180887986Y-144960755D01*
X181643244Y-144881375D01*
X182393312Y-144762576D01*
X183136135Y-144604684D01*
X183869676Y-144408132D01*
X184591926Y-144173459D01*
X185300903Y-143901308D01*
X185994666Y-143592425D01*
X186671313Y-143247656D01*
X187328988Y-142867947D01*
X187965889Y-142454339D01*
X188580271Y-142007964D01*
X189170450Y-141530047D01*
X189734807Y-141021897D01*
X190271797Y-140484907D01*
X190779947Y-139920550D01*
X191257864Y-139330371D01*
X191704239Y-138715989D01*
X192117847Y-138079088D01*
X192497556Y-137421413D01*
X192842325Y-136744766D01*
X193151208Y-136051003D01*
X193423359Y-135342026D01*
X193658032Y-134619776D01*
X193854584Y-133886235D01*
X194012476Y-133143412D01*
X194131275Y-132393344D01*
X194210655Y-131638086D01*
X194250399Y-130879722D01*
X194250400Y-130879722D01*
X194250400Y-130120278D01*
X194250399Y-130120277D01*
X194210655Y-129361914D01*
X194131275Y-128606656D01*
X194012476Y-127856588D01*
X193854584Y-127113765D01*
X193658032Y-126380224D01*
X193423359Y-125657974D01*
X193151208Y-124948997D01*
X192842325Y-124255234D01*
X192497556Y-123578587D01*
X192117847Y-122920912D01*
X191704239Y-122284011D01*
X191412642Y-121882663D01*
X191257881Y-121669652D01*
X191257877Y-121669647D01*
X191257864Y-121669629D01*
X190779947Y-121079450D01*
X190271797Y-120515093D01*
X190271794Y-120515090D01*
X190271780Y-120515075D01*
X189734824Y-119978119D01*
X189734809Y-119978105D01*
X189677460Y-119926468D01*
X189262179Y-119552546D01*
X189170459Y-119469961D01*
X189170438Y-119469943D01*
X188914683Y-119262837D01*
X188580271Y-118992036D01*
X188580255Y-118992025D01*
X188580247Y-118992018D01*
X187965916Y-118545680D01*
X187965899Y-118545668D01*
X187965889Y-118545661D01*
X187563902Y-118284608D01*
X187328993Y-118132056D01*
X186671328Y-117752352D01*
X186671318Y-117752347D01*
X186671313Y-117752344D01*
X185994666Y-117407575D01*
X185300903Y-117098691D01*
X185300899Y-117098690D01*
X184591954Y-116826551D01*
X184591912Y-116826536D01*
X183869682Y-116591869D01*
X183136140Y-116395317D01*
X182393310Y-116237423D01*
X181643253Y-116118626D01*
X181643245Y-116118625D01*
X181643244Y-116118625D01*
X180887986Y-116039245D01*
X180887977Y-116039244D01*
X180887972Y-116039244D01*
X180129622Y-115999500D01*
X180129609Y-115999500D01*
X179370191Y-115999500D01*
X179370178Y-115999500D01*
X178611827Y-116039244D01*
X178611820Y-116039244D01*
X178611814Y-116039245D01*
X177948893Y-116108920D01*
X177856546Y-116118626D01*
X177106489Y-116237423D01*
X176363659Y-116395317D01*
X175630117Y-116591869D01*
X174907887Y-116826536D01*
X174907845Y-116826551D01*
X174198900Y-117098690D01*
X174198896Y-117098691D01*
X173505133Y-117407575D01*
X172828471Y-117752352D01*
X172170806Y-118132056D01*
X171533912Y-118545660D01*
X171533883Y-118545680D01*
X170919552Y-118992018D01*
X170919514Y-118992048D01*
X170329361Y-119469943D01*
X170329340Y-119469961D01*
X169764990Y-119978105D01*
X169764975Y-119978119D01*
X169228019Y-120515075D01*
X169228005Y-120515090D01*
X168719861Y-121079440D01*
X168719843Y-121079461D01*
X168241948Y-121669614D01*
X168241918Y-121669652D01*
X167795580Y-122283983D01*
X167795560Y-122284012D01*
X167381956Y-122920906D01*
X167002252Y-123578571D01*
X166657475Y-124255233D01*
X166348591Y-124948996D01*
X166348590Y-124949000D01*
X166076451Y-125657945D01*
X166076436Y-125657987D01*
X165841769Y-126380217D01*
X165645217Y-127113759D01*
X165487323Y-127856589D01*
X165368526Y-128606646D01*
X165368525Y-128606656D01*
X165354380Y-128741243D01*
X165289144Y-129361927D01*
X165249400Y-130120277D01*
X163081400Y-130120277D01*
X163081400Y-115701730D01*
X167057500Y-115701730D01*
X167057500Y-117275863D01*
X167057501Y-117275873D01*
X167072265Y-117350100D01*
X167128516Y-117434284D01*
X167212697Y-117490533D01*
X167212699Y-117490534D01*
X167286933Y-117505300D01*
X168861066Y-117505299D01*
X168861069Y-117505298D01*
X168861073Y-117505298D01*
X168910326Y-117495501D01*
X168935301Y-117490534D01*
X169019484Y-117434284D01*
X169075734Y-117350101D01*
X169090500Y-117275867D01*
X169090499Y-115701734D01*
X169090498Y-115701730D01*
X169090498Y-115701726D01*
X169075734Y-115627499D01*
X169063091Y-115608578D01*
X169019484Y-115543316D01*
X168982770Y-115518784D01*
X168935302Y-115487066D01*
X168861067Y-115472300D01*
X167286936Y-115472300D01*
X167286926Y-115472301D01*
X167212699Y-115487065D01*
X167128515Y-115543316D01*
X167072266Y-115627497D01*
X167057500Y-115701730D01*
X163081400Y-115701730D01*
X163081400Y-112794816D01*
X163101402Y-112726695D01*
X163155058Y-112680202D01*
X163225332Y-112670098D01*
X163289912Y-112699592D01*
X163312165Y-112724814D01*
X163343416Y-112771584D01*
X163427597Y-112827833D01*
X163427599Y-112827834D01*
X163501833Y-112842600D01*
X165075966Y-112842599D01*
X165075969Y-112842598D01*
X165075973Y-112842598D01*
X165145922Y-112828685D01*
X165150201Y-112827834D01*
X165234384Y-112771584D01*
X165290634Y-112687401D01*
X165305400Y-112613167D01*
X165305399Y-111039034D01*
X165305398Y-111039031D01*
X165305398Y-111039026D01*
X165290634Y-110964799D01*
X165281921Y-110951759D01*
X165234384Y-110880616D01*
X165234383Y-110880615D01*
X165150202Y-110824366D01*
X165075967Y-110809600D01*
X163501836Y-110809600D01*
X163501826Y-110809601D01*
X163427599Y-110824365D01*
X163343415Y-110880616D01*
X163312164Y-110927386D01*
X163257687Y-110972913D01*
X163187244Y-110981760D01*
X163123200Y-110951118D01*
X163085889Y-110890716D01*
X163081400Y-110857383D01*
X163081400Y-108265140D01*
X163101402Y-108197019D01*
X163155058Y-108150526D01*
X163225332Y-108140422D01*
X163277400Y-108160374D01*
X163338999Y-108201534D01*
X163413233Y-108216300D01*
X164987366Y-108216299D01*
X164987369Y-108216298D01*
X164987373Y-108216298D01*
X165036626Y-108206501D01*
X165061601Y-108201534D01*
X165145784Y-108145284D01*
X165202034Y-108061101D01*
X165216800Y-107986867D01*
X165216799Y-106836299D01*
X165236801Y-106768179D01*
X165290457Y-106721686D01*
X165342799Y-106710300D01*
X166931501Y-106710300D01*
X166999622Y-106730302D01*
X167046115Y-106783958D01*
X167057501Y-106836300D01*
X167057501Y-107115872D01*
X167072265Y-107190100D01*
X167128516Y-107274284D01*
X167212697Y-107330533D01*
X167212699Y-107330534D01*
X167286933Y-107345300D01*
X168861066Y-107345299D01*
X168861069Y-107345298D01*
X168861073Y-107345298D01*
X168910326Y-107335501D01*
X168935301Y-107330534D01*
X169019484Y-107274284D01*
X169075734Y-107190101D01*
X169090500Y-107115867D01*
X169090499Y-105541734D01*
X169090498Y-105541730D01*
X169090498Y-105541726D01*
X169075734Y-105467499D01*
X169059424Y-105443090D01*
X169019484Y-105383316D01*
X169019483Y-105383315D01*
X168935302Y-105327066D01*
X168861067Y-105312300D01*
X167286936Y-105312300D01*
X167286926Y-105312301D01*
X167212699Y-105327065D01*
X167128515Y-105383316D01*
X167072266Y-105467497D01*
X167057500Y-105541730D01*
X167057500Y-105821300D01*
X167037498Y-105889421D01*
X166983842Y-105935914D01*
X166931500Y-105947300D01*
X165020975Y-105947300D01*
X164971869Y-105960458D01*
X164923948Y-105973298D01*
X164923943Y-105973300D01*
X164892104Y-105991683D01*
X164892103Y-105991682D01*
X164836957Y-106023521D01*
X164836951Y-106023526D01*
X164714080Y-106146396D01*
X164651767Y-106180421D01*
X164624985Y-106183300D01*
X163413236Y-106183300D01*
X163413226Y-106183301D01*
X163338999Y-106198065D01*
X163277402Y-106239224D01*
X163209649Y-106260439D01*
X163141182Y-106241656D01*
X163093739Y-106188839D01*
X163081400Y-106134459D01*
X163081400Y-93370277D01*
X165249400Y-93370277D01*
X165249400Y-94129722D01*
X165285180Y-94812428D01*
X165289145Y-94888086D01*
X165354724Y-95512038D01*
X165368526Y-95643353D01*
X165487323Y-96393410D01*
X165645217Y-97136240D01*
X165841769Y-97869782D01*
X166076436Y-98592012D01*
X166076451Y-98592054D01*
X166348590Y-99300999D01*
X166348591Y-99301003D01*
X166657475Y-99994766D01*
X167002252Y-100671428D01*
X167381956Y-101329093D01*
X167427269Y-101398869D01*
X167795121Y-101965312D01*
X167795560Y-101965987D01*
X167795580Y-101966016D01*
X168241918Y-102580347D01*
X168241925Y-102580355D01*
X168241936Y-102580371D01*
X168577024Y-102994171D01*
X168719843Y-103170538D01*
X168719861Y-103170559D01*
X169228005Y-103734909D01*
X169228019Y-103734924D01*
X169764975Y-104271880D01*
X169764990Y-104271894D01*
X169764993Y-104271897D01*
X170329350Y-104780047D01*
X170919529Y-105257964D01*
X170919547Y-105257977D01*
X170919552Y-105257981D01*
X171518825Y-105693379D01*
X171533911Y-105704339D01*
X172170812Y-106117947D01*
X172440657Y-106273742D01*
X172823285Y-106494653D01*
X172828487Y-106497656D01*
X173505134Y-106842425D01*
X173866185Y-107003175D01*
X174198896Y-107151308D01*
X174198898Y-107151308D01*
X174420569Y-107236400D01*
X174805410Y-107384127D01*
X174907874Y-107423459D01*
X175159066Y-107505076D01*
X175630117Y-107658130D01*
X175630121Y-107658131D01*
X175630124Y-107658132D01*
X176363665Y-107854684D01*
X177106488Y-108012576D01*
X177856556Y-108131375D01*
X178611814Y-108210755D01*
X179370177Y-108250499D01*
X179370178Y-108250500D01*
X179370191Y-108250500D01*
X180129622Y-108250500D01*
X180129622Y-108250499D01*
X180887986Y-108210755D01*
X181643244Y-108131375D01*
X182393312Y-108012576D01*
X183136135Y-107854684D01*
X183869676Y-107658132D01*
X184591926Y-107423459D01*
X185300903Y-107151308D01*
X185994666Y-106842425D01*
X186556831Y-106555987D01*
X186626605Y-106542884D01*
X186692389Y-106569584D01*
X186733296Y-106627611D01*
X186736337Y-106698543D01*
X186703126Y-106757350D01*
X180713880Y-112746595D01*
X180651568Y-112780621D01*
X180624785Y-112783500D01*
X179412936Y-112783500D01*
X179412926Y-112783501D01*
X179338699Y-112798265D01*
X179254515Y-112854516D01*
X179198266Y-112938697D01*
X179183500Y-113012930D01*
X179183500Y-114587063D01*
X179183501Y-114587073D01*
X179198265Y-114661300D01*
X179254516Y-114745484D01*
X179338697Y-114801733D01*
X179338699Y-114801734D01*
X179412933Y-114816500D01*
X180987066Y-114816499D01*
X180987069Y-114816498D01*
X180987073Y-114816498D01*
X181036326Y-114806701D01*
X181061301Y-114801734D01*
X181145484Y-114745484D01*
X181201734Y-114661301D01*
X181216500Y-114587067D01*
X181216499Y-113375211D01*
X181236501Y-113307091D01*
X181253399Y-113286122D01*
X181526591Y-113012930D01*
X183183500Y-113012930D01*
X183183500Y-114587063D01*
X183183501Y-114587073D01*
X183198265Y-114661300D01*
X183254516Y-114745484D01*
X183338697Y-114801733D01*
X183338699Y-114801734D01*
X183412933Y-114816500D01*
X184987066Y-114816499D01*
X184987069Y-114816498D01*
X184987073Y-114816498D01*
X185036326Y-114806701D01*
X185061301Y-114801734D01*
X185145484Y-114745484D01*
X185201734Y-114661301D01*
X185216500Y-114587067D01*
X185216499Y-113012934D01*
X185216498Y-113012930D01*
X185216498Y-113012926D01*
X185201734Y-112938699D01*
X185182242Y-112909527D01*
X185145484Y-112854516D01*
X185145483Y-112854515D01*
X185061302Y-112798266D01*
X184987067Y-112783500D01*
X183412936Y-112783500D01*
X183412926Y-112783501D01*
X183338699Y-112798265D01*
X183254515Y-112854516D01*
X183198266Y-112938697D01*
X183183500Y-113012930D01*
X181526591Y-113012930D01*
X187392217Y-107147305D01*
X187454529Y-107113279D01*
X187481312Y-107110400D01*
X190831401Y-107110400D01*
X190899522Y-107130402D01*
X190946015Y-107184058D01*
X190957401Y-107236400D01*
X190957401Y-107515972D01*
X190972165Y-107590200D01*
X191028416Y-107674384D01*
X191112597Y-107730633D01*
X191112599Y-107730634D01*
X191186833Y-107745400D01*
X192760966Y-107745399D01*
X192760969Y-107745398D01*
X192760973Y-107745398D01*
X192810226Y-107735601D01*
X192835201Y-107730634D01*
X192919384Y-107674384D01*
X192975634Y-107590201D01*
X192990400Y-107515967D01*
X192990399Y-105941834D01*
X192990398Y-105941830D01*
X192990398Y-105941826D01*
X192975634Y-105867599D01*
X192975633Y-105867597D01*
X192919384Y-105783416D01*
X192869973Y-105750400D01*
X192835202Y-105727166D01*
X192760967Y-105712400D01*
X191186836Y-105712400D01*
X191186826Y-105712401D01*
X191112599Y-105727165D01*
X191028415Y-105783416D01*
X190972166Y-105867597D01*
X190957400Y-105941830D01*
X190957400Y-106221400D01*
X190937398Y-106289521D01*
X190883742Y-106336014D01*
X190831400Y-106347400D01*
X187401030Y-106347400D01*
X187332909Y-106327398D01*
X187286416Y-106273742D01*
X187276312Y-106203468D01*
X187305806Y-106138888D01*
X187332404Y-106115728D01*
X187965889Y-105704339D01*
X188580271Y-105257964D01*
X189170450Y-104780047D01*
X189734807Y-104271897D01*
X190271797Y-103734907D01*
X190779947Y-103170550D01*
X191257864Y-102580371D01*
X191704239Y-101965989D01*
X192117847Y-101329088D01*
X192497556Y-100671413D01*
X192842325Y-99994766D01*
X193151208Y-99301003D01*
X193423359Y-98592026D01*
X193658032Y-97869776D01*
X193854584Y-97136235D01*
X194012476Y-96393412D01*
X194131275Y-95643344D01*
X194210655Y-94888086D01*
X194250399Y-94129722D01*
X194250400Y-94129722D01*
X194250400Y-93370278D01*
X194250399Y-93370277D01*
X194210655Y-92611914D01*
X194131275Y-91856656D01*
X194012476Y-91106588D01*
X193854584Y-90363765D01*
X193658032Y-89630224D01*
X193423359Y-88907974D01*
X193376909Y-88786969D01*
X193151209Y-88199000D01*
X193151208Y-88198996D01*
X192943103Y-87731585D01*
X192842325Y-87505234D01*
X192497556Y-86828587D01*
X192117847Y-86170912D01*
X191704239Y-85534011D01*
X191419933Y-85142698D01*
X191257881Y-84919652D01*
X191257877Y-84919647D01*
X191257864Y-84919629D01*
X190779947Y-84329450D01*
X190271797Y-83765093D01*
X190271794Y-83765090D01*
X190271780Y-83765075D01*
X189734824Y-83228119D01*
X189734809Y-83228105D01*
X189619706Y-83124466D01*
X189170450Y-82719953D01*
X189138924Y-82694424D01*
X188994071Y-82577124D01*
X188580271Y-82242036D01*
X188580255Y-82242025D01*
X188580247Y-82242018D01*
X187965916Y-81795680D01*
X187965899Y-81795668D01*
X187965889Y-81795661D01*
X187328988Y-81382053D01*
X187151231Y-81279425D01*
X186671328Y-81002352D01*
X186671318Y-81002347D01*
X186671313Y-81002344D01*
X185994666Y-80657575D01*
X185300903Y-80348691D01*
X185300899Y-80348690D01*
X184591954Y-80076551D01*
X184591912Y-80076536D01*
X183869682Y-79841869D01*
X183136140Y-79645317D01*
X182393310Y-79487423D01*
X181643253Y-79368626D01*
X181643245Y-79368625D01*
X181643244Y-79368625D01*
X180887986Y-79289245D01*
X180887977Y-79289244D01*
X180887972Y-79289244D01*
X180129622Y-79249500D01*
X180129609Y-79249500D01*
X179370191Y-79249500D01*
X179370178Y-79249500D01*
X178611827Y-79289244D01*
X178611820Y-79289244D01*
X178611814Y-79289245D01*
X177948893Y-79358920D01*
X177856546Y-79368626D01*
X177106489Y-79487423D01*
X176363659Y-79645317D01*
X175630117Y-79841869D01*
X174907887Y-80076536D01*
X174907845Y-80076551D01*
X174198900Y-80348690D01*
X174198896Y-80348691D01*
X173505133Y-80657575D01*
X172828471Y-81002352D01*
X172170806Y-81382056D01*
X171533912Y-81795660D01*
X171533883Y-81795680D01*
X170919552Y-82242018D01*
X170919514Y-82242048D01*
X170329361Y-82719943D01*
X170329340Y-82719961D01*
X169764990Y-83228105D01*
X169764975Y-83228119D01*
X169228019Y-83765075D01*
X169228005Y-83765090D01*
X168719861Y-84329440D01*
X168719843Y-84329461D01*
X168241948Y-84919614D01*
X168241918Y-84919652D01*
X167795580Y-85533983D01*
X167795560Y-85534012D01*
X167381956Y-86170906D01*
X167002252Y-86828571D01*
X166657475Y-87505233D01*
X166348591Y-88198996D01*
X166348590Y-88199000D01*
X166076451Y-88907945D01*
X166076436Y-88907987D01*
X165841769Y-89630217D01*
X165645217Y-90363759D01*
X165487323Y-91106589D01*
X165368526Y-91856646D01*
X165368525Y-91856656D01*
X165354380Y-91991243D01*
X165289144Y-92611927D01*
X165249400Y-93370277D01*
X163081400Y-93370277D01*
X163081400Y-90657892D01*
X163081428Y-90657452D01*
X163081424Y-90649437D01*
X163081425Y-90649434D01*
X163081400Y-90598604D01*
X163081400Y-90549175D01*
X163081399Y-90549173D01*
X163081397Y-90549154D01*
X163081375Y-90548987D01*
X163081374Y-90548980D01*
X163068448Y-90500839D01*
X163068432Y-90500777D01*
X163055402Y-90452149D01*
X163055376Y-90452087D01*
X163055328Y-90451971D01*
X163055327Y-90451969D01*
X163030833Y-90409593D01*
X163005176Y-90365153D01*
X163005171Y-90365148D01*
X163005060Y-90365003D01*
X163005058Y-90365000D01*
X162970044Y-90330021D01*
X162970048Y-90330016D01*
X162970002Y-90329979D01*
X162934147Y-90294124D01*
X162934146Y-90294123D01*
X162928581Y-90288558D01*
X162928238Y-90288257D01*
X162555543Y-89915935D01*
X160369008Y-87731585D01*
X160369012Y-87731580D01*
X160368966Y-87731543D01*
X160333147Y-87695724D01*
X160332996Y-87695608D01*
X160289992Y-87670808D01*
X160289939Y-87670778D01*
X160246140Y-87645491D01*
X160245987Y-87645428D01*
X160197587Y-87632485D01*
X160197527Y-87632469D01*
X160149125Y-87619500D01*
X160148934Y-87619474D01*
X160142660Y-87619478D01*
X160074529Y-87599509D01*
X160028011Y-87545875D01*
X160016599Y-87493478D01*
X160016599Y-87212836D01*
X160016598Y-87212827D01*
X160001834Y-87138599D01*
X159945583Y-87054415D01*
X159861402Y-86998166D01*
X159787169Y-86983400D01*
X159787167Y-86983400D01*
X158575313Y-86983400D01*
X158507192Y-86963398D01*
X158486218Y-86946495D01*
X155360551Y-83820827D01*
X155360548Y-83820825D01*
X155360547Y-83820824D01*
X155360542Y-83820821D01*
X155290643Y-83780465D01*
X155273555Y-83770599D01*
X155238785Y-83761282D01*
X155178163Y-83724329D01*
X155147143Y-83660468D01*
X155145399Y-83639576D01*
X155145399Y-83339131D01*
X155145399Y-83339130D01*
X163272400Y-83339130D01*
X163272400Y-84913263D01*
X163272401Y-84913273D01*
X163287165Y-84987500D01*
X163343416Y-85071684D01*
X163427597Y-85127933D01*
X163427599Y-85127934D01*
X163501833Y-85142700D01*
X165075966Y-85142699D01*
X165075969Y-85142698D01*
X165075973Y-85142698D01*
X165125226Y-85132901D01*
X165150201Y-85127934D01*
X165234384Y-85071684D01*
X165290634Y-84987501D01*
X165305400Y-84913267D01*
X165305399Y-83339134D01*
X165305398Y-83339131D01*
X165305398Y-83339126D01*
X165290634Y-83264899D01*
X165234383Y-83180715D01*
X165150202Y-83124466D01*
X165075967Y-83109700D01*
X163501836Y-83109700D01*
X163501826Y-83109701D01*
X163427599Y-83124465D01*
X163343415Y-83180716D01*
X163287166Y-83264897D01*
X163272400Y-83339130D01*
X155145399Y-83339130D01*
X155130634Y-83264899D01*
X155074383Y-83180715D01*
X154990202Y-83124466D01*
X154915967Y-83109700D01*
X153341836Y-83109700D01*
X153341826Y-83109701D01*
X153267599Y-83124465D01*
X153183415Y-83180716D01*
X153127166Y-83264897D01*
X153112400Y-83339130D01*
X153112400Y-84913263D01*
X153112401Y-84913273D01*
X153127165Y-84987500D01*
X153183416Y-85071684D01*
X153267597Y-85127933D01*
X153267599Y-85127934D01*
X153341833Y-85142700D01*
X154915966Y-85142699D01*
X154915969Y-85142698D01*
X154915973Y-85142698D01*
X154965226Y-85132901D01*
X154990201Y-85127934D01*
X155074384Y-85071684D01*
X155108203Y-85021071D01*
X155130634Y-84987502D01*
X155137329Y-84953842D01*
X155170235Y-84890931D01*
X155231930Y-84855799D01*
X155302824Y-84859598D01*
X155350003Y-84889326D01*
X157946695Y-87486017D01*
X157980720Y-87548329D01*
X157983600Y-87575112D01*
X157983600Y-88786963D01*
X157983601Y-88786973D01*
X157998365Y-88861200D01*
X158054616Y-88945384D01*
X158138797Y-89001633D01*
X158138799Y-89001634D01*
X158213033Y-89016400D01*
X159787166Y-89016399D01*
X159787169Y-89016398D01*
X159787173Y-89016398D01*
X159836426Y-89006601D01*
X159861401Y-89001634D01*
X159945584Y-88945384D01*
X160001834Y-88861201D01*
X160016600Y-88786967D01*
X160016599Y-88762010D01*
X160036599Y-88693893D01*
X160090253Y-88647398D01*
X160160527Y-88637292D01*
X160225108Y-88666783D01*
X160231651Y-88672870D01*
X162281452Y-90720622D01*
X162315507Y-90782915D01*
X162318400Y-90809760D01*
X162318400Y-133089234D01*
X162298398Y-133157355D01*
X162281540Y-133178285D01*
X160079278Y-135382751D01*
X160016983Y-135416807D01*
X159990138Y-135419700D01*
X154114917Y-135419700D01*
X154114905Y-135419699D01*
X154066603Y-135419690D01*
X154066600Y-135419690D01*
X154062048Y-135419690D01*
X154062011Y-135419700D01*
X154061975Y-135419700D01*
X154015205Y-135432231D01*
X153965016Y-135445670D01*
X153964982Y-135445689D01*
X153964946Y-135445699D01*
X153920584Y-135471310D01*
X153878012Y-135495879D01*
X153877986Y-135495904D01*
X153877953Y-135495924D01*
X153870468Y-135503408D01*
X153870467Y-135503409D01*
X153841594Y-135532282D01*
X148161480Y-141210213D01*
X148099162Y-141244226D01*
X148072402Y-141247100D01*
X146908200Y-141247100D01*
X146840079Y-141227098D01*
X146793586Y-141173442D01*
X146782200Y-141121100D01*
X146782200Y-121757591D01*
X146782244Y-121756911D01*
X146782238Y-121749037D01*
X146782239Y-121749034D01*
X146782200Y-121698156D01*
X146782200Y-121648875D01*
X146782162Y-121648587D01*
X146782162Y-121648583D01*
X146769010Y-121599650D01*
X146769012Y-121599549D01*
X146768985Y-121599557D01*
X146756201Y-121551846D01*
X146756091Y-121551583D01*
X146756089Y-121551575D01*
X146730948Y-121508106D01*
X146705976Y-121464853D01*
X146705973Y-121464850D01*
X146705966Y-121464841D01*
X146705799Y-121464623D01*
X146705797Y-121464620D01*
X146670457Y-121429334D01*
X146670464Y-121429326D01*
X146670390Y-121429267D01*
X146634947Y-121393824D01*
X146634946Y-121393823D01*
X146629485Y-121388362D01*
X146628970Y-121387910D01*
X145296173Y-120057149D01*
X145262100Y-119994862D01*
X145259200Y-119967985D01*
X145259200Y-119926468D01*
X145259200Y-119926467D01*
X145221084Y-119784218D01*
X145147451Y-119656682D01*
X145147449Y-119656680D01*
X145147445Y-119656675D01*
X145043324Y-119552554D01*
X145043314Y-119552546D01*
X144915782Y-119478916D01*
X144773533Y-119440800D01*
X144626267Y-119440800D01*
X144531434Y-119466210D01*
X144484017Y-119478916D01*
X144356485Y-119552546D01*
X144356475Y-119552554D01*
X144252354Y-119656675D01*
X144252346Y-119656685D01*
X144178716Y-119784217D01*
X144140600Y-119926468D01*
X144140600Y-120073731D01*
X144140599Y-120073731D01*
X144178716Y-120215982D01*
X144252346Y-120343514D01*
X144252354Y-120343524D01*
X144356475Y-120447645D01*
X144356480Y-120447649D01*
X144356482Y-120447651D01*
X144484018Y-120521284D01*
X144626267Y-120559400D01*
X144667185Y-120559400D01*
X144735306Y-120579402D01*
X144756212Y-120596236D01*
X145240156Y-121079440D01*
X145982227Y-121820377D01*
X146016300Y-121882663D01*
X146019200Y-121909540D01*
X146019200Y-141121100D01*
X145999198Y-141189221D01*
X145945542Y-141235714D01*
X145893200Y-141247100D01*
X145607500Y-141247100D01*
X145539379Y-141227098D01*
X145492886Y-141173442D01*
X145481500Y-141121100D01*
X145481500Y-136261659D01*
X145501502Y-136193538D01*
X145518401Y-136172567D01*
X145547551Y-136143418D01*
X145621184Y-136015882D01*
X145659300Y-135873633D01*
X145659300Y-135726367D01*
X145621184Y-135584118D01*
X145547551Y-135456582D01*
X145547549Y-135456580D01*
X145547545Y-135456575D01*
X145443424Y-135352454D01*
X145443414Y-135352446D01*
X145315882Y-135278816D01*
X145173633Y-135240700D01*
X145026367Y-135240700D01*
X144931534Y-135266110D01*
X144884117Y-135278816D01*
X144756585Y-135352446D01*
X144756575Y-135352454D01*
X144652454Y-135456575D01*
X144652446Y-135456585D01*
X144578816Y-135584117D01*
X144578816Y-135584118D01*
X144543510Y-135715882D01*
X144540700Y-135726368D01*
X144540700Y-135873631D01*
X144540699Y-135873631D01*
X144578816Y-136015882D01*
X144652446Y-136143414D01*
X144652448Y-136143417D01*
X144652449Y-136143418D01*
X144681595Y-136172564D01*
X144715620Y-136234874D01*
X144718500Y-136261659D01*
X144718500Y-141121100D01*
X144698498Y-141189221D01*
X144644842Y-141235714D01*
X144592500Y-141247100D01*
X144307300Y-141247100D01*
X144239179Y-141227098D01*
X144192686Y-141173442D01*
X144181300Y-141121100D01*
X144181300Y-132448976D01*
X144166396Y-132393353D01*
X144155301Y-132351946D01*
X144155299Y-132351943D01*
X144155299Y-132351941D01*
X144105078Y-132264956D01*
X144105070Y-132264946D01*
X144029663Y-132189539D01*
X144029640Y-132189518D01*
X143418104Y-131577981D01*
X143384079Y-131515669D01*
X143381200Y-131488886D01*
X143381200Y-118685146D01*
X147749494Y-118685146D01*
X147749500Y-118749961D01*
X147749500Y-118751038D01*
X147749500Y-132684008D01*
X147749500Y-132815792D01*
X147774467Y-132908973D01*
X147783607Y-132943083D01*
X147783610Y-132943090D01*
X147849497Y-133057210D01*
X147849505Y-133057220D01*
X147942679Y-133150394D01*
X147942684Y-133150398D01*
X147942686Y-133150400D01*
X148056814Y-133216292D01*
X148184108Y-133250400D01*
X148184110Y-133250400D01*
X161316090Y-133250400D01*
X161316092Y-133250400D01*
X161443386Y-133216292D01*
X161557514Y-133150400D01*
X161650700Y-133057214D01*
X161716592Y-132943086D01*
X161750700Y-132815792D01*
X161750700Y-118824438D01*
X161750705Y-118824350D01*
X161750704Y-118815856D01*
X161750705Y-118815854D01*
X161750700Y-118749962D01*
X161750700Y-118684108D01*
X161750698Y-118684101D01*
X161750695Y-118684078D01*
X161750695Y-118684070D01*
X161733914Y-118621462D01*
X161716592Y-118556814D01*
X161716582Y-118556796D01*
X161716577Y-118556778D01*
X161684506Y-118501240D01*
X161650700Y-118442686D01*
X161650685Y-118442671D01*
X161650676Y-118442655D01*
X161604079Y-118396065D01*
X161557514Y-118349500D01*
X161557513Y-118349499D01*
X161557509Y-118349495D01*
X161557488Y-118349479D01*
X161498711Y-118315550D01*
X161498712Y-118315547D01*
X161498701Y-118315544D01*
X161443370Y-118283597D01*
X161380275Y-118266697D01*
X161380267Y-118266692D01*
X161380267Y-118266695D01*
X161316082Y-118249497D01*
X161316058Y-118249494D01*
X161251043Y-118249500D01*
X161176638Y-118249500D01*
X161176546Y-118249505D01*
X148249080Y-118250500D01*
X148184089Y-118250500D01*
X148132733Y-118264263D01*
X148132727Y-118264265D01*
X148121462Y-118267285D01*
X148056814Y-118284608D01*
X148056796Y-118284617D01*
X148056778Y-118284623D01*
X148003221Y-118315550D01*
X147942686Y-118350500D01*
X147942671Y-118350514D01*
X147942655Y-118350524D01*
X147896065Y-118397120D01*
X147849500Y-118443686D01*
X147849490Y-118443702D01*
X147849476Y-118443717D01*
X147815654Y-118502307D01*
X147783608Y-118557814D01*
X147783602Y-118557832D01*
X147783593Y-118557850D01*
X147766265Y-118622536D01*
X147763245Y-118633803D01*
X147763244Y-118633808D01*
X147749499Y-118685110D01*
X147749494Y-118685146D01*
X143381200Y-118685146D01*
X143381200Y-112952264D01*
X143401202Y-112884143D01*
X143454858Y-112837650D01*
X143525132Y-112827546D01*
X143531741Y-112828677D01*
X143601733Y-112842600D01*
X145175866Y-112842599D01*
X145175869Y-112842598D01*
X145175873Y-112842598D01*
X145245822Y-112828685D01*
X145250101Y-112827834D01*
X145334284Y-112771584D01*
X145390534Y-112687401D01*
X145405300Y-112613167D01*
X145405299Y-111039034D01*
X145405299Y-111039033D01*
X145405299Y-111039031D01*
X145405299Y-111039030D01*
X153112400Y-111039030D01*
X153112400Y-112613163D01*
X153112401Y-112613173D01*
X153127165Y-112687400D01*
X153183416Y-112771584D01*
X153267597Y-112827833D01*
X153267599Y-112827834D01*
X153341833Y-112842600D01*
X154915966Y-112842599D01*
X154915969Y-112842598D01*
X154915973Y-112842598D01*
X154985922Y-112828685D01*
X154990201Y-112827834D01*
X155074384Y-112771584D01*
X155112366Y-112714741D01*
X155130634Y-112687402D01*
X155135383Y-112675937D01*
X155138598Y-112677269D01*
X155161884Y-112632725D01*
X155223570Y-112597577D01*
X155294466Y-112601358D01*
X155341674Y-112631097D01*
X157946695Y-115236118D01*
X157980721Y-115298430D01*
X157983600Y-115325213D01*
X157983600Y-116537063D01*
X157983601Y-116537073D01*
X157998365Y-116611300D01*
X158054616Y-116695484D01*
X158138797Y-116751733D01*
X158138799Y-116751734D01*
X158213033Y-116766500D01*
X159787166Y-116766499D01*
X159787169Y-116766498D01*
X159787173Y-116766498D01*
X159836426Y-116756701D01*
X159861401Y-116751734D01*
X159945584Y-116695484D01*
X160001834Y-116611301D01*
X160016600Y-116537067D01*
X160016599Y-114962934D01*
X160016598Y-114962931D01*
X160016598Y-114962926D01*
X160001834Y-114888699D01*
X159945584Y-114804516D01*
X159945583Y-114804515D01*
X159861402Y-114748266D01*
X159787169Y-114733500D01*
X159787167Y-114733500D01*
X158575313Y-114733500D01*
X158507192Y-114713498D01*
X158486218Y-114696595D01*
X155310454Y-111520830D01*
X155310449Y-111520826D01*
X155310447Y-111520824D01*
X155310437Y-111520818D01*
X155294181Y-111511432D01*
X155294179Y-111511432D01*
X155245399Y-111483269D01*
X155223446Y-111470594D01*
X155223175Y-111470482D01*
X155222981Y-111470326D01*
X155216301Y-111466469D01*
X155216902Y-111465426D01*
X155167896Y-111425931D01*
X155145479Y-111358567D01*
X155145399Y-111354076D01*
X155145399Y-111039036D01*
X155145398Y-111039027D01*
X155130634Y-110964799D01*
X155121921Y-110951759D01*
X155074384Y-110880616D01*
X155074383Y-110880615D01*
X154990202Y-110824366D01*
X154915967Y-110809600D01*
X153341836Y-110809600D01*
X153341826Y-110809601D01*
X153267599Y-110824365D01*
X153183415Y-110880616D01*
X153127166Y-110964797D01*
X153112400Y-111039030D01*
X145405299Y-111039030D01*
X145390534Y-110964799D01*
X145381821Y-110951759D01*
X145334284Y-110880616D01*
X145334283Y-110880615D01*
X145250102Y-110824366D01*
X145175867Y-110809600D01*
X143601736Y-110809600D01*
X143601724Y-110809602D01*
X143531779Y-110823514D01*
X143461065Y-110817185D01*
X143404999Y-110773630D01*
X143381381Y-110706677D01*
X143381200Y-110699935D01*
X143381200Y-91185146D01*
X147749494Y-91185146D01*
X147749500Y-91249958D01*
X147749500Y-91251038D01*
X147749500Y-105184008D01*
X147749500Y-105315792D01*
X147752521Y-105327065D01*
X147783607Y-105443083D01*
X147783610Y-105443090D01*
X147849497Y-105557210D01*
X147849505Y-105557220D01*
X147942679Y-105650394D01*
X147942684Y-105650398D01*
X147942686Y-105650400D01*
X147942687Y-105650401D01*
X147942689Y-105650402D01*
X148017128Y-105693379D01*
X148056814Y-105716292D01*
X148184108Y-105750400D01*
X148184110Y-105750400D01*
X161315990Y-105750400D01*
X161315992Y-105750400D01*
X161443286Y-105716292D01*
X161557414Y-105650400D01*
X161650600Y-105557214D01*
X161716492Y-105443086D01*
X161750600Y-105315792D01*
X161750600Y-91324438D01*
X161750605Y-91324350D01*
X161750604Y-91315856D01*
X161750605Y-91315854D01*
X161750600Y-91249962D01*
X161750600Y-91184108D01*
X161750598Y-91184101D01*
X161750595Y-91184078D01*
X161750595Y-91184070D01*
X161733814Y-91121462D01*
X161716492Y-91056814D01*
X161716482Y-91056796D01*
X161716477Y-91056778D01*
X161684406Y-91001240D01*
X161650600Y-90942686D01*
X161650585Y-90942671D01*
X161650576Y-90942655D01*
X161603979Y-90896065D01*
X161557414Y-90849500D01*
X161557413Y-90849499D01*
X161557407Y-90849493D01*
X161557388Y-90849478D01*
X161498792Y-90815654D01*
X161498785Y-90815650D01*
X161443266Y-90783596D01*
X161380175Y-90766697D01*
X161380167Y-90766692D01*
X161380167Y-90766695D01*
X161315982Y-90749497D01*
X161315958Y-90749494D01*
X161250944Y-90749500D01*
X161176538Y-90749500D01*
X161176446Y-90749505D01*
X148249079Y-90750500D01*
X148184089Y-90750500D01*
X148132734Y-90764263D01*
X148132729Y-90764265D01*
X148121462Y-90767285D01*
X148056814Y-90784608D01*
X148056796Y-90784617D01*
X148056778Y-90784623D01*
X148001240Y-90816693D01*
X147942686Y-90850500D01*
X147942671Y-90850514D01*
X147942655Y-90850524D01*
X147896065Y-90897120D01*
X147849500Y-90943686D01*
X147849490Y-90943702D01*
X147849476Y-90943717D01*
X147815654Y-91002307D01*
X147783608Y-91057814D01*
X147783602Y-91057832D01*
X147783593Y-91057850D01*
X147766265Y-91122536D01*
X147763245Y-91133803D01*
X147763244Y-91133808D01*
X147749499Y-91185110D01*
X147749494Y-91185146D01*
X143381200Y-91185146D01*
X143381200Y-90957651D01*
X143381226Y-90957245D01*
X143381222Y-90949155D01*
X143381223Y-90949154D01*
X143381200Y-90897812D01*
X143381200Y-90848875D01*
X143381199Y-90848871D01*
X143381178Y-90848716D01*
X143381178Y-90848704D01*
X143368113Y-90800036D01*
X143355201Y-90751846D01*
X143355198Y-90751841D01*
X143355196Y-90751833D01*
X143355140Y-90751698D01*
X143355135Y-90751690D01*
X143355135Y-90751688D01*
X143330814Y-90709606D01*
X143304976Y-90664853D01*
X143304974Y-90664851D01*
X143304973Y-90664849D01*
X143304872Y-90664718D01*
X143270276Y-90630153D01*
X143270280Y-90630148D01*
X143270237Y-90630114D01*
X143233947Y-90593824D01*
X143233946Y-90593823D01*
X143228286Y-90588163D01*
X143227975Y-90587890D01*
X140368820Y-87731297D01*
X140368823Y-87731293D01*
X140368783Y-87731260D01*
X140333247Y-87695724D01*
X140333246Y-87695723D01*
X140333243Y-87695720D01*
X140333214Y-87695698D01*
X140333137Y-87695640D01*
X140333112Y-87695621D01*
X140333110Y-87695619D01*
X140290464Y-87671023D01*
X140246254Y-87645499D01*
X140246250Y-87645498D01*
X140246235Y-87645489D01*
X140246111Y-87645437D01*
X140197529Y-87632442D01*
X140197479Y-87632429D01*
X140149216Y-87619497D01*
X140149053Y-87619476D01*
X140142450Y-87619479D01*
X140074321Y-87599504D01*
X140027807Y-87545868D01*
X140016399Y-87493479D01*
X140016399Y-87212836D01*
X140016398Y-87212827D01*
X140001634Y-87138599D01*
X139945383Y-87054415D01*
X139861202Y-86998166D01*
X139786969Y-86983400D01*
X139786967Y-86983400D01*
X138575094Y-86983400D01*
X138506973Y-86963398D01*
X138486000Y-86946497D01*
X135996995Y-84457557D01*
X135398918Y-83859495D01*
X135382201Y-83842778D01*
X135348178Y-83780465D01*
X135345299Y-83753685D01*
X135345299Y-83339131D01*
X135345299Y-83339130D01*
X143472300Y-83339130D01*
X143472300Y-84913263D01*
X143472301Y-84913273D01*
X143487065Y-84987500D01*
X143543316Y-85071684D01*
X143627497Y-85127933D01*
X143627499Y-85127934D01*
X143701733Y-85142700D01*
X145275866Y-85142699D01*
X145275869Y-85142698D01*
X145275873Y-85142698D01*
X145325126Y-85132901D01*
X145350101Y-85127934D01*
X145434284Y-85071684D01*
X145490534Y-84987501D01*
X145505300Y-84913267D01*
X145505299Y-83339134D01*
X145505298Y-83339131D01*
X145505298Y-83339126D01*
X145490534Y-83264899D01*
X145434283Y-83180715D01*
X145350102Y-83124466D01*
X145275867Y-83109700D01*
X143701736Y-83109700D01*
X143701726Y-83109701D01*
X143627499Y-83124465D01*
X143543315Y-83180716D01*
X143487066Y-83264897D01*
X143472300Y-83339130D01*
X135345299Y-83339130D01*
X135330534Y-83264899D01*
X135274283Y-83180715D01*
X135190102Y-83124466D01*
X135115867Y-83109700D01*
X133541736Y-83109700D01*
X133541726Y-83109701D01*
X133467499Y-83124465D01*
X133383315Y-83180716D01*
X133327066Y-83264897D01*
X133312300Y-83339130D01*
X133312300Y-84913263D01*
X133312301Y-84913273D01*
X133327065Y-84987500D01*
X133383316Y-85071684D01*
X133467497Y-85127933D01*
X133467499Y-85127934D01*
X133541733Y-85142700D01*
X135115866Y-85142699D01*
X135115869Y-85142698D01*
X135115873Y-85142698D01*
X135165126Y-85132901D01*
X135190101Y-85127934D01*
X135274284Y-85071684D01*
X135292244Y-85044804D01*
X135346721Y-84999277D01*
X135417164Y-84990429D01*
X135481208Y-85021071D01*
X135486096Y-85025704D01*
X137289011Y-86828571D01*
X137946494Y-87486037D01*
X137980520Y-87548349D01*
X137983400Y-87575134D01*
X137983400Y-88786963D01*
X137983401Y-88786973D01*
X137998165Y-88861200D01*
X138054416Y-88945384D01*
X138138597Y-89001633D01*
X138138599Y-89001634D01*
X138212833Y-89016400D01*
X139786966Y-89016399D01*
X139786969Y-89016398D01*
X139786973Y-89016398D01*
X139836226Y-89006601D01*
X139861201Y-89001634D01*
X139945384Y-88945384D01*
X140001634Y-88861201D01*
X140016400Y-88786967D01*
X140016399Y-88761753D01*
X140036399Y-88693636D01*
X140090053Y-88647141D01*
X140160327Y-88637035D01*
X140224908Y-88666526D01*
X140231454Y-88672618D01*
X141664504Y-90104383D01*
X142210239Y-90649628D01*
X142215248Y-90654632D01*
X142581257Y-91020313D01*
X142615309Y-91082608D01*
X142618200Y-91109446D01*
X142618200Y-131749323D01*
X142618199Y-131749323D01*
X142644200Y-131846358D01*
X142694421Y-131933343D01*
X142694423Y-131933345D01*
X142694424Y-131933347D01*
X143050961Y-132289884D01*
X143381395Y-132620317D01*
X143415420Y-132682630D01*
X143418300Y-132709413D01*
X143418300Y-141121100D01*
X143398298Y-141189221D01*
X143344642Y-141235714D01*
X143292300Y-141247100D01*
X143007500Y-141247100D01*
X142939379Y-141227098D01*
X142892886Y-141173442D01*
X142881500Y-141121100D01*
X142881500Y-135961659D01*
X142901502Y-135893538D01*
X142918401Y-135872567D01*
X142947551Y-135843418D01*
X143021184Y-135715882D01*
X143059300Y-135573633D01*
X143059300Y-135426367D01*
X143021184Y-135284118D01*
X142947551Y-135156582D01*
X142947549Y-135156580D01*
X142947545Y-135156575D01*
X142843424Y-135052454D01*
X142843414Y-135052446D01*
X142715882Y-134978816D01*
X142573633Y-134940700D01*
X142426367Y-134940700D01*
X142331534Y-134966110D01*
X142284117Y-134978816D01*
X142156585Y-135052446D01*
X142156575Y-135052454D01*
X142052454Y-135156575D01*
X142052446Y-135156585D01*
X141978816Y-135284117D01*
X141978816Y-135284118D01*
X141942487Y-135419700D01*
X141940700Y-135426368D01*
X141940700Y-135573631D01*
X141940699Y-135573631D01*
X141978816Y-135715882D01*
X142052446Y-135843414D01*
X142052448Y-135843417D01*
X142052449Y-135843418D01*
X142081595Y-135872564D01*
X142115620Y-135934874D01*
X142118500Y-135961659D01*
X142118500Y-141121100D01*
X142098498Y-141189221D01*
X142044842Y-141235714D01*
X141992500Y-141247100D01*
X141705436Y-141247100D01*
X141705426Y-141247101D01*
X141631199Y-141261865D01*
X141547015Y-141318116D01*
X141490766Y-141402297D01*
X141476000Y-141476530D01*
X141476000Y-143126663D01*
X141476001Y-143126673D01*
X141490765Y-143200900D01*
X141547016Y-143285084D01*
X141631197Y-143341333D01*
X141631199Y-143341334D01*
X141705433Y-143356100D01*
X143292300Y-143356099D01*
X143360421Y-143376101D01*
X143406914Y-143429757D01*
X143418300Y-143482099D01*
X143418300Y-148701323D01*
X143418299Y-148701323D01*
X143420220Y-148708489D01*
X143418530Y-148779465D01*
X143378736Y-148838261D01*
X143313471Y-148866209D01*
X143298513Y-148867100D01*
X142067713Y-148867100D01*
X141999592Y-148847098D01*
X141978618Y-148830195D01*
X138843253Y-145694829D01*
X138843243Y-145694821D01*
X138756258Y-145644600D01*
X138717993Y-145634347D01*
X138659225Y-145618600D01*
X138659223Y-145618600D01*
X136310219Y-145618600D01*
X136242098Y-145598598D01*
X136221122Y-145581694D01*
X136055015Y-145415582D01*
X135658046Y-145018600D01*
X134210687Y-143571193D01*
X134176663Y-143508880D01*
X134181729Y-143438065D01*
X134224277Y-143381230D01*
X134290797Y-143356420D01*
X134299759Y-143356099D01*
X135735566Y-143356099D01*
X135735569Y-143356098D01*
X135735573Y-143356098D01*
X135799700Y-143343343D01*
X135809801Y-143341334D01*
X135893984Y-143285084D01*
X135950234Y-143200901D01*
X135965000Y-143126667D01*
X135964999Y-141476534D01*
X135964999Y-141476533D01*
X135964999Y-141476531D01*
X135964999Y-141476530D01*
X136396000Y-141476530D01*
X136396000Y-143126663D01*
X136396001Y-143126673D01*
X136410765Y-143200900D01*
X136467016Y-143285084D01*
X136551197Y-143341333D01*
X136551199Y-143341334D01*
X136625433Y-143356100D01*
X138275566Y-143356099D01*
X138275569Y-143356098D01*
X138275573Y-143356098D01*
X138339700Y-143343343D01*
X138349801Y-143341334D01*
X138433984Y-143285084D01*
X138490234Y-143200901D01*
X138505000Y-143126667D01*
X138504999Y-141476534D01*
X138504999Y-141476533D01*
X138504999Y-141476531D01*
X138504999Y-141476530D01*
X138936000Y-141476530D01*
X138936000Y-143126663D01*
X138936001Y-143126673D01*
X138950765Y-143200900D01*
X139007016Y-143285084D01*
X139091197Y-143341333D01*
X139091199Y-143341334D01*
X139165433Y-143356100D01*
X140815566Y-143356099D01*
X140815569Y-143356098D01*
X140815573Y-143356098D01*
X140879700Y-143343343D01*
X140889801Y-143341334D01*
X140973984Y-143285084D01*
X141030234Y-143200901D01*
X141045000Y-143126667D01*
X141044999Y-141476534D01*
X141044998Y-141476531D01*
X141044998Y-141476526D01*
X141030234Y-141402299D01*
X141017740Y-141383601D01*
X140973984Y-141318116D01*
X140973983Y-141318115D01*
X140889802Y-141261866D01*
X140815567Y-141247100D01*
X139165436Y-141247100D01*
X139165426Y-141247101D01*
X139091199Y-141261865D01*
X139007015Y-141318116D01*
X138950766Y-141402297D01*
X138936000Y-141476530D01*
X138504999Y-141476530D01*
X138490234Y-141402299D01*
X138477740Y-141383601D01*
X138433984Y-141318116D01*
X138433983Y-141318115D01*
X138349802Y-141261866D01*
X138275567Y-141247100D01*
X136625436Y-141247100D01*
X136625426Y-141247101D01*
X136551199Y-141261865D01*
X136467015Y-141318116D01*
X136410766Y-141402297D01*
X136396000Y-141476530D01*
X135964999Y-141476530D01*
X135950234Y-141402299D01*
X135937740Y-141383601D01*
X135893984Y-141318116D01*
X135893983Y-141318115D01*
X135809802Y-141261866D01*
X135735567Y-141247100D01*
X134085436Y-141247100D01*
X134085426Y-141247101D01*
X134011199Y-141261865D01*
X133927015Y-141318116D01*
X133870766Y-141402297D01*
X133856000Y-141476530D01*
X133856000Y-142912298D01*
X133835998Y-142980419D01*
X133782342Y-143026912D01*
X133712068Y-143037016D01*
X133647488Y-143007522D01*
X133640911Y-143001400D01*
X133418403Y-142778884D01*
X133384379Y-142716571D01*
X133381500Y-142689790D01*
X133381500Y-140049771D01*
X133367892Y-139998991D01*
X133367891Y-139998988D01*
X133355501Y-139952746D01*
X133355499Y-139952743D01*
X133355499Y-139952741D01*
X133305278Y-139865756D01*
X133305270Y-139865746D01*
X133229864Y-139790340D01*
X133229841Y-139790319D01*
X125818405Y-132378980D01*
X125784380Y-132316668D01*
X125781500Y-132289884D01*
X125781500Y-123261659D01*
X125801502Y-123193538D01*
X125818401Y-123172567D01*
X125847551Y-123143418D01*
X125921184Y-123015882D01*
X125959300Y-122873633D01*
X125959300Y-122726367D01*
X125921184Y-122584118D01*
X125847551Y-122456582D01*
X125847549Y-122456580D01*
X125847545Y-122456575D01*
X125743424Y-122352454D01*
X125743414Y-122352446D01*
X125615882Y-122278816D01*
X125473633Y-122240700D01*
X125326367Y-122240700D01*
X125231534Y-122266110D01*
X125184117Y-122278816D01*
X125056585Y-122352446D01*
X125056575Y-122352454D01*
X124952454Y-122456575D01*
X124952446Y-122456585D01*
X124878816Y-122584117D01*
X124840700Y-122726368D01*
X124840700Y-122873631D01*
X124840699Y-122873631D01*
X124878816Y-123015882D01*
X124952446Y-123143414D01*
X124952448Y-123143417D01*
X124952449Y-123143418D01*
X124981595Y-123172564D01*
X125015620Y-123234874D01*
X125018500Y-123261659D01*
X125018500Y-132442142D01*
X125018499Y-132442160D01*
X125018499Y-132550326D01*
X125018500Y-132550332D01*
X125044496Y-132647348D01*
X125044501Y-132647360D01*
X125064880Y-132682656D01*
X125064882Y-132682659D01*
X125094721Y-132734343D01*
X125094729Y-132734353D01*
X125172926Y-132812550D01*
X125172938Y-132812560D01*
X125850722Y-133490335D01*
X132410249Y-140049775D01*
X132581595Y-140221118D01*
X132615620Y-140283430D01*
X132618500Y-140310214D01*
X132618500Y-142849770D01*
X132618499Y-142950416D01*
X132618556Y-142950805D01*
X132619472Y-142953855D01*
X132623859Y-142970226D01*
X132623860Y-142970231D01*
X132644246Y-143046319D01*
X132644559Y-143047527D01*
X132644656Y-143047753D01*
X132646511Y-143050740D01*
X132694723Y-143134246D01*
X132694724Y-143134247D01*
X132747643Y-143187166D01*
X135787537Y-146227158D01*
X135787550Y-146227173D01*
X135794723Y-146234346D01*
X135794724Y-146234347D01*
X135834960Y-146274583D01*
X135834961Y-146274585D01*
X135834962Y-146274585D01*
X135865885Y-146305510D01*
X135866199Y-146305743D01*
X135869003Y-146307252D01*
X135933823Y-146344676D01*
X135949254Y-146353585D01*
X135952312Y-146355484D01*
X135952744Y-146355599D01*
X135952746Y-146355601D01*
X135988248Y-146365112D01*
X135988255Y-146365117D01*
X135988256Y-146365115D01*
X136049769Y-146381600D01*
X136150219Y-146381601D01*
X136150223Y-146381600D01*
X138398787Y-146381600D01*
X138466908Y-146401602D01*
X138487882Y-146418505D01*
X140721382Y-148652005D01*
X140755408Y-148714317D01*
X140750343Y-148785132D01*
X140707796Y-148841968D01*
X140641276Y-148866779D01*
X140632287Y-148867100D01*
X140157412Y-148867100D01*
X140089291Y-148847098D01*
X140068321Y-148830199D01*
X138133547Y-146895424D01*
X138133545Y-146895423D01*
X138133543Y-146895421D01*
X138046558Y-146845200D01*
X138035092Y-146842127D01*
X137949525Y-146819200D01*
X137949523Y-146819200D01*
X135310509Y-146819200D01*
X135242388Y-146799198D01*
X135221415Y-146782297D01*
X132219206Y-143780178D01*
X132185180Y-143717866D01*
X132182300Y-143691081D01*
X132182300Y-140950376D01*
X132182300Y-140950375D01*
X132156301Y-140853346D01*
X132156299Y-140853343D01*
X132156299Y-140853341D01*
X132106078Y-140766356D01*
X132106070Y-140766346D01*
X132030658Y-140690934D01*
X132030635Y-140690913D01*
X124017505Y-132677782D01*
X123983479Y-132615470D01*
X123980600Y-132588687D01*
X123980600Y-118685142D01*
X128249594Y-118685142D01*
X128249600Y-118749961D01*
X128249600Y-118751038D01*
X128249600Y-132684008D01*
X128249600Y-132815792D01*
X128274567Y-132908973D01*
X128283707Y-132943083D01*
X128283710Y-132943090D01*
X128349597Y-133057210D01*
X128349605Y-133057220D01*
X128442779Y-133150394D01*
X128442784Y-133150398D01*
X128442786Y-133150400D01*
X128556914Y-133216292D01*
X128684208Y-133250400D01*
X128684210Y-133250400D01*
X141815990Y-133250400D01*
X141815992Y-133250400D01*
X141943286Y-133216292D01*
X142057414Y-133150400D01*
X142150600Y-133057214D01*
X142216492Y-132943086D01*
X142250600Y-132815792D01*
X142250600Y-118824438D01*
X142250605Y-118824349D01*
X142250604Y-118815855D01*
X142250605Y-118815853D01*
X142250600Y-118749961D01*
X142250600Y-118684108D01*
X142250598Y-118684101D01*
X142250595Y-118684078D01*
X142250595Y-118684070D01*
X142233814Y-118621462D01*
X142216492Y-118556814D01*
X142216482Y-118556796D01*
X142216477Y-118556778D01*
X142184406Y-118501240D01*
X142150600Y-118442686D01*
X142150585Y-118442671D01*
X142150576Y-118442655D01*
X142103979Y-118396065D01*
X142057414Y-118349500D01*
X142057413Y-118349499D01*
X142057409Y-118349495D01*
X142057388Y-118349479D01*
X141998611Y-118315550D01*
X141998612Y-118315547D01*
X141998601Y-118315544D01*
X141943270Y-118283597D01*
X141880175Y-118266697D01*
X141880167Y-118266692D01*
X141880167Y-118266695D01*
X141815982Y-118249497D01*
X141815958Y-118249494D01*
X141750944Y-118249500D01*
X141676538Y-118249500D01*
X141676446Y-118249505D01*
X128749179Y-118250500D01*
X128684189Y-118250500D01*
X128632833Y-118264263D01*
X128632827Y-118264265D01*
X128621562Y-118267285D01*
X128556914Y-118284608D01*
X128556896Y-118284617D01*
X128556878Y-118284623D01*
X128503321Y-118315550D01*
X128442786Y-118350500D01*
X128442771Y-118350514D01*
X128442755Y-118350524D01*
X128396165Y-118397120D01*
X128349600Y-118443686D01*
X128349590Y-118443702D01*
X128349576Y-118443717D01*
X128315754Y-118502307D01*
X128309938Y-118512380D01*
X128309937Y-118512382D01*
X128283697Y-118557831D01*
X128266797Y-118620924D01*
X128266795Y-118620931D01*
X128249598Y-118685114D01*
X128249594Y-118685142D01*
X123980600Y-118685142D01*
X123980600Y-112968599D01*
X124000602Y-112900478D01*
X124054258Y-112853985D01*
X124106595Y-112842599D01*
X125675966Y-112842599D01*
X125675969Y-112842598D01*
X125675973Y-112842598D01*
X125745922Y-112828685D01*
X125750201Y-112827834D01*
X125834384Y-112771584D01*
X125890634Y-112687401D01*
X125905400Y-112613167D01*
X125905399Y-111039034D01*
X125905399Y-111039033D01*
X125905399Y-111039031D01*
X125905399Y-111039030D01*
X133212300Y-111039030D01*
X133212300Y-112613163D01*
X133212301Y-112613173D01*
X133227065Y-112687400D01*
X133283316Y-112771584D01*
X133367497Y-112827833D01*
X133367499Y-112827834D01*
X133441733Y-112842600D01*
X135015866Y-112842599D01*
X135015869Y-112842598D01*
X135015873Y-112842598D01*
X135085822Y-112828685D01*
X135090101Y-112827834D01*
X135174284Y-112771584D01*
X135212226Y-112714799D01*
X135266702Y-112669273D01*
X135337145Y-112660425D01*
X135401189Y-112691066D01*
X135406085Y-112695708D01*
X137946495Y-115236118D01*
X137980521Y-115298430D01*
X137983400Y-115325213D01*
X137983400Y-116537063D01*
X137983401Y-116537073D01*
X137998165Y-116611300D01*
X138054416Y-116695484D01*
X138138597Y-116751733D01*
X138138599Y-116751734D01*
X138212833Y-116766500D01*
X139786966Y-116766499D01*
X139786969Y-116766498D01*
X139786973Y-116766498D01*
X139836226Y-116756701D01*
X139861201Y-116751734D01*
X139945384Y-116695484D01*
X140001634Y-116611301D01*
X140016400Y-116537067D01*
X140016399Y-114962934D01*
X140016398Y-114962931D01*
X140016398Y-114962926D01*
X140001634Y-114888699D01*
X139945384Y-114804516D01*
X139945383Y-114804515D01*
X139861202Y-114748266D01*
X139786969Y-114733500D01*
X139786967Y-114733500D01*
X138575113Y-114733500D01*
X138506992Y-114713498D01*
X138486018Y-114696595D01*
X135310254Y-111520830D01*
X135310249Y-111520826D01*
X135310247Y-111520824D01*
X135308292Y-111519695D01*
X135306977Y-111518316D01*
X135303698Y-111515800D01*
X135304090Y-111515288D01*
X135259302Y-111468310D01*
X135245299Y-111410580D01*
X135245299Y-111039036D01*
X135245298Y-111039027D01*
X135230534Y-110964799D01*
X135221821Y-110951759D01*
X135174284Y-110880616D01*
X135174283Y-110880615D01*
X135090102Y-110824366D01*
X135015867Y-110809600D01*
X133441736Y-110809600D01*
X133441726Y-110809601D01*
X133367499Y-110824365D01*
X133283315Y-110880616D01*
X133227066Y-110964797D01*
X133212300Y-111039030D01*
X125905399Y-111039030D01*
X125890634Y-110964799D01*
X125881921Y-110951759D01*
X125834384Y-110880616D01*
X125834383Y-110880615D01*
X125750202Y-110824366D01*
X125675969Y-110809600D01*
X124106600Y-110809600D01*
X124038479Y-110789598D01*
X123991986Y-110735942D01*
X123980600Y-110683600D01*
X123980600Y-91185142D01*
X128249494Y-91185142D01*
X128249500Y-91249958D01*
X128249500Y-91251038D01*
X128249500Y-105184008D01*
X128249500Y-105315792D01*
X128252521Y-105327065D01*
X128283607Y-105443083D01*
X128283610Y-105443090D01*
X128349497Y-105557210D01*
X128349505Y-105557220D01*
X128442679Y-105650394D01*
X128442684Y-105650398D01*
X128442686Y-105650400D01*
X128442687Y-105650401D01*
X128442689Y-105650402D01*
X128517128Y-105693379D01*
X128556814Y-105716292D01*
X128684108Y-105750400D01*
X128684110Y-105750400D01*
X141815890Y-105750400D01*
X141815892Y-105750400D01*
X141943186Y-105716292D01*
X142057314Y-105650400D01*
X142150500Y-105557214D01*
X142216392Y-105443086D01*
X142250500Y-105315792D01*
X142250500Y-91324438D01*
X142250505Y-91324349D01*
X142250504Y-91315855D01*
X142250505Y-91315853D01*
X142250500Y-91249961D01*
X142250500Y-91184108D01*
X142250498Y-91184101D01*
X142250495Y-91184078D01*
X142250495Y-91184070D01*
X142233714Y-91121462D01*
X142216392Y-91056814D01*
X142216389Y-91056809D01*
X142216385Y-91056793D01*
X142216377Y-91056780D01*
X142216377Y-91056778D01*
X142184306Y-91001240D01*
X142157547Y-90954891D01*
X142155244Y-90950902D01*
X142155242Y-90950900D01*
X142150500Y-90942686D01*
X142150485Y-90942671D01*
X142150476Y-90942655D01*
X142103879Y-90896065D01*
X142057314Y-90849500D01*
X142057297Y-90849490D01*
X142057283Y-90849476D01*
X142048857Y-90844612D01*
X142048855Y-90844610D01*
X141998693Y-90815654D01*
X141998685Y-90815650D01*
X141943166Y-90783596D01*
X141880075Y-90766697D01*
X141880067Y-90766692D01*
X141880067Y-90766695D01*
X141815882Y-90749497D01*
X141815858Y-90749494D01*
X141750844Y-90749500D01*
X141676438Y-90749500D01*
X141676346Y-90749505D01*
X128749079Y-90750500D01*
X128684089Y-90750500D01*
X128632734Y-90764263D01*
X128632729Y-90764265D01*
X128621462Y-90767285D01*
X128556814Y-90784608D01*
X128556796Y-90784617D01*
X128556778Y-90784623D01*
X128501240Y-90816693D01*
X128442686Y-90850500D01*
X128442671Y-90850514D01*
X128442655Y-90850524D01*
X128396065Y-90897120D01*
X128349500Y-90943686D01*
X128349490Y-90943702D01*
X128349476Y-90943717D01*
X128317527Y-90999063D01*
X128315657Y-91002302D01*
X128315654Y-91002307D01*
X128283597Y-91057831D01*
X128266697Y-91120924D01*
X128266695Y-91120931D01*
X128249498Y-91185114D01*
X128249494Y-91185142D01*
X123980600Y-91185142D01*
X123980600Y-90659788D01*
X123980601Y-90659775D01*
X123980601Y-90549176D01*
X123980576Y-90549081D01*
X123954602Y-90452147D01*
X123954567Y-90452087D01*
X123933374Y-90415380D01*
X123933371Y-90415375D01*
X123904378Y-90365156D01*
X123904377Y-90365155D01*
X123904376Y-90365153D01*
X123833347Y-90294124D01*
X123833346Y-90294123D01*
X123828946Y-90289723D01*
X123828935Y-90289713D01*
X121234950Y-87695726D01*
X121234940Y-87695720D01*
X121234744Y-87695607D01*
X121192163Y-87671023D01*
X121147958Y-87645501D01*
X121147955Y-87645500D01*
X121147954Y-87645499D01*
X121147952Y-87645498D01*
X121147951Y-87645498D01*
X121099385Y-87632485D01*
X121050925Y-87619500D01*
X121050923Y-87619500D01*
X120642599Y-87619500D01*
X120574478Y-87599498D01*
X120527985Y-87545842D01*
X120516599Y-87493500D01*
X120516599Y-87212836D01*
X120516598Y-87212827D01*
X120501834Y-87138599D01*
X120445583Y-87054415D01*
X120361402Y-86998166D01*
X120287169Y-86983400D01*
X120287167Y-86983400D01*
X119075294Y-86983400D01*
X119007173Y-86963398D01*
X118986200Y-86946497D01*
X116497195Y-84457557D01*
X115899118Y-83859495D01*
X115899118Y-83859494D01*
X115899115Y-83859492D01*
X115860447Y-83820823D01*
X115832557Y-83804721D01*
X115832556Y-83804721D01*
X115808399Y-83790774D01*
X115759406Y-83739392D01*
X115745399Y-83681655D01*
X115745399Y-83339131D01*
X115745399Y-83339130D01*
X123872400Y-83339130D01*
X123872400Y-84913263D01*
X123872401Y-84913273D01*
X123887165Y-84987500D01*
X123943416Y-85071684D01*
X124027597Y-85127933D01*
X124027599Y-85127934D01*
X124101833Y-85142700D01*
X125675966Y-85142699D01*
X125675969Y-85142698D01*
X125675973Y-85142698D01*
X125725226Y-85132901D01*
X125750201Y-85127934D01*
X125834384Y-85071684D01*
X125890634Y-84987501D01*
X125905400Y-84913267D01*
X125905399Y-83339134D01*
X125905398Y-83339131D01*
X125905398Y-83339126D01*
X125890634Y-83264899D01*
X125834383Y-83180715D01*
X125750202Y-83124466D01*
X125675967Y-83109700D01*
X124101836Y-83109700D01*
X124101826Y-83109701D01*
X124027599Y-83124465D01*
X123943415Y-83180716D01*
X123887166Y-83264897D01*
X123872400Y-83339130D01*
X115745399Y-83339130D01*
X115730634Y-83264899D01*
X115674383Y-83180715D01*
X115590202Y-83124466D01*
X115515967Y-83109700D01*
X113941836Y-83109700D01*
X113941826Y-83109701D01*
X113867599Y-83124465D01*
X113783415Y-83180716D01*
X113727166Y-83264897D01*
X113712400Y-83339130D01*
X108382500Y-83339130D01*
X108382500Y-83209913D01*
X108402502Y-83141792D01*
X108419405Y-83120818D01*
X115327293Y-76212930D01*
X179283300Y-76212930D01*
X179283300Y-77787063D01*
X179283301Y-77787073D01*
X179298065Y-77861300D01*
X179354316Y-77945484D01*
X179438497Y-78001733D01*
X179438499Y-78001734D01*
X179512733Y-78016500D01*
X181086866Y-78016499D01*
X181086869Y-78016498D01*
X181086873Y-78016498D01*
X181136126Y-78006701D01*
X181161101Y-78001734D01*
X181245284Y-77945484D01*
X181301534Y-77861301D01*
X181316300Y-77787067D01*
X181316299Y-76575211D01*
X181336301Y-76507091D01*
X181353199Y-76486122D01*
X181626391Y-76212930D01*
X183283600Y-76212930D01*
X183283600Y-77787063D01*
X183283601Y-77787073D01*
X183298365Y-77861300D01*
X183354616Y-77945484D01*
X183438797Y-78001733D01*
X183438799Y-78001734D01*
X183513033Y-78016500D01*
X185087166Y-78016499D01*
X185087169Y-78016498D01*
X185087173Y-78016498D01*
X185136426Y-78006701D01*
X185161401Y-78001734D01*
X185245584Y-77945484D01*
X185301834Y-77861301D01*
X185316600Y-77787067D01*
X185316599Y-76212934D01*
X185316598Y-76212930D01*
X185316598Y-76212926D01*
X185301834Y-76138699D01*
X185245583Y-76054515D01*
X185161402Y-75998266D01*
X185087167Y-75983500D01*
X183513036Y-75983500D01*
X183513026Y-75983501D01*
X183438799Y-75998265D01*
X183354615Y-76054516D01*
X183298366Y-76138697D01*
X183283600Y-76212930D01*
X181626391Y-76212930D01*
X184360018Y-73479304D01*
X184422330Y-73445278D01*
X184449113Y-73442399D01*
X185175964Y-73442399D01*
X185175966Y-73442399D01*
X185175969Y-73442398D01*
X185175972Y-73442398D01*
X185212563Y-73435119D01*
X185250201Y-73427634D01*
X185334384Y-73371384D01*
X185390634Y-73287201D01*
X185405400Y-73212967D01*
X185405399Y-71638834D01*
X185405398Y-71638830D01*
X185405398Y-71638826D01*
X185390634Y-71564599D01*
X185376088Y-71542830D01*
X185334384Y-71480416D01*
X185316696Y-71468597D01*
X185250202Y-71424166D01*
X185175967Y-71409400D01*
X183601836Y-71409400D01*
X183601826Y-71409401D01*
X183527599Y-71424165D01*
X183443415Y-71480416D01*
X183387166Y-71564597D01*
X183372400Y-71638830D01*
X183372400Y-73212963D01*
X183372402Y-73212975D01*
X183388280Y-73292805D01*
X183381951Y-73363518D01*
X183353796Y-73406479D01*
X180813680Y-75946595D01*
X180751368Y-75980621D01*
X180724585Y-75983500D01*
X179512736Y-75983500D01*
X179512726Y-75983501D01*
X179438499Y-75998265D01*
X179354315Y-76054516D01*
X179298066Y-76138697D01*
X179283300Y-76212930D01*
X115327293Y-76212930D01*
X116120618Y-75419605D01*
X116182930Y-75385579D01*
X116209713Y-75382700D01*
X125549323Y-75382700D01*
X125549325Y-75382700D01*
X125646354Y-75356701D01*
X125646357Y-75356699D01*
X125646358Y-75356699D01*
X125689850Y-75331588D01*
X125733347Y-75306476D01*
X125804376Y-75235447D01*
X129496993Y-71542830D01*
X137283600Y-71542830D01*
X137283600Y-73116963D01*
X137283601Y-73116973D01*
X137298365Y-73191200D01*
X137354616Y-73275384D01*
X137438797Y-73331633D01*
X137438799Y-73331634D01*
X137513033Y-73346400D01*
X139087166Y-73346399D01*
X139087169Y-73346398D01*
X139087173Y-73346398D01*
X139136426Y-73336601D01*
X139161401Y-73331634D01*
X139245584Y-73275384D01*
X139301834Y-73191201D01*
X139316600Y-73116967D01*
X139316600Y-72724930D01*
X147695700Y-72724930D01*
X147695700Y-74075063D01*
X147695701Y-74075073D01*
X147710465Y-74149300D01*
X147766716Y-74233484D01*
X147850897Y-74289733D01*
X147850899Y-74289734D01*
X147925133Y-74304500D01*
X149275266Y-74304499D01*
X149275269Y-74304498D01*
X149275273Y-74304498D01*
X149331481Y-74293318D01*
X149349501Y-74289734D01*
X149433684Y-74233484D01*
X149489934Y-74149301D01*
X149504700Y-74075067D01*
X149504699Y-72874930D01*
X151845300Y-72874930D01*
X151845300Y-73925063D01*
X151845301Y-73925073D01*
X151860065Y-73999300D01*
X151916316Y-74083484D01*
X152000497Y-74139733D01*
X152000499Y-74139734D01*
X152074733Y-74154500D01*
X153124866Y-74154499D01*
X153124869Y-74154498D01*
X153124873Y-74154498D01*
X153174126Y-74144701D01*
X153199101Y-74139734D01*
X153283284Y-74083484D01*
X153339534Y-73999301D01*
X153354300Y-73925067D01*
X153354299Y-72874934D01*
X153354299Y-72874933D01*
X153354299Y-72874931D01*
X153354299Y-72874930D01*
X153845600Y-72874930D01*
X153845600Y-73925063D01*
X153845601Y-73925073D01*
X153860365Y-73999300D01*
X153916616Y-74083484D01*
X154000797Y-74139733D01*
X154000799Y-74139734D01*
X154075033Y-74154500D01*
X155125166Y-74154499D01*
X155125169Y-74154498D01*
X155125173Y-74154498D01*
X155174426Y-74144701D01*
X155199401Y-74139734D01*
X155283584Y-74083484D01*
X155339834Y-73999301D01*
X155354600Y-73925067D01*
X155354599Y-72874934D01*
X155354598Y-72874931D01*
X155354598Y-72874926D01*
X155339834Y-72800699D01*
X155283583Y-72716515D01*
X155199402Y-72660266D01*
X155125167Y-72645500D01*
X154075036Y-72645500D01*
X154075026Y-72645501D01*
X154000799Y-72660265D01*
X153916615Y-72716516D01*
X153860366Y-72800697D01*
X153845600Y-72874930D01*
X153354299Y-72874930D01*
X153339534Y-72800699D01*
X153283283Y-72716515D01*
X153199102Y-72660266D01*
X153124867Y-72645500D01*
X152074736Y-72645500D01*
X152074726Y-72645501D01*
X152000499Y-72660265D01*
X151916315Y-72716516D01*
X151860066Y-72800697D01*
X151845300Y-72874930D01*
X149504699Y-72874930D01*
X149504699Y-72724934D01*
X149504698Y-72724930D01*
X149504698Y-72724926D01*
X149489934Y-72650699D01*
X149451105Y-72592588D01*
X149433684Y-72566516D01*
X149433683Y-72566515D01*
X149349502Y-72510266D01*
X149275267Y-72495500D01*
X147925136Y-72495500D01*
X147925126Y-72495501D01*
X147850899Y-72510265D01*
X147766715Y-72566516D01*
X147710466Y-72650697D01*
X147695700Y-72724930D01*
X139316600Y-72724930D01*
X139316599Y-72307282D01*
X139316599Y-71542836D01*
X139316598Y-71542826D01*
X139301834Y-71468599D01*
X139272144Y-71424165D01*
X139245584Y-71384416D01*
X139245583Y-71384415D01*
X139161402Y-71328166D01*
X139087167Y-71313400D01*
X137513036Y-71313400D01*
X137513026Y-71313401D01*
X137438799Y-71328165D01*
X137354615Y-71384416D01*
X137298366Y-71468597D01*
X137283600Y-71542830D01*
X129496993Y-71542830D01*
X130164893Y-70874930D01*
X147845600Y-70874930D01*
X147845600Y-71925063D01*
X147845601Y-71925073D01*
X147860365Y-71999300D01*
X147916616Y-72083484D01*
X148000797Y-72139733D01*
X148000799Y-72139734D01*
X148075033Y-72154500D01*
X149125166Y-72154499D01*
X149125169Y-72154498D01*
X149125173Y-72154498D01*
X149182090Y-72143177D01*
X149199401Y-72139734D01*
X149283584Y-72083484D01*
X149339834Y-71999301D01*
X149354600Y-71925067D01*
X149354599Y-70874934D01*
X149354599Y-70874933D01*
X149354599Y-70874931D01*
X149354599Y-70874930D01*
X149845600Y-70874930D01*
X149845600Y-71925063D01*
X149845601Y-71925073D01*
X149860365Y-71999300D01*
X149916616Y-72083484D01*
X150000797Y-72139733D01*
X150000799Y-72139734D01*
X150075033Y-72154500D01*
X151125166Y-72154499D01*
X151125169Y-72154498D01*
X151125173Y-72154498D01*
X151182090Y-72143177D01*
X151199401Y-72139734D01*
X151283584Y-72083484D01*
X151339834Y-71999301D01*
X151354600Y-71925067D01*
X151354599Y-70874934D01*
X151354599Y-70874933D01*
X151354599Y-70874931D01*
X151354599Y-70874930D01*
X151845300Y-70874930D01*
X151845300Y-71925063D01*
X151845301Y-71925073D01*
X151860065Y-71999300D01*
X151916316Y-72083484D01*
X152000497Y-72139733D01*
X152000499Y-72139734D01*
X152074733Y-72154500D01*
X153124866Y-72154499D01*
X153124869Y-72154498D01*
X153124873Y-72154498D01*
X153181790Y-72143177D01*
X153199101Y-72139734D01*
X153283284Y-72083484D01*
X153339534Y-71999301D01*
X153354300Y-71925067D01*
X153354299Y-70874934D01*
X153354299Y-70874933D01*
X153354299Y-70874931D01*
X153354299Y-70874930D01*
X153845600Y-70874930D01*
X153845600Y-71925063D01*
X153845601Y-71925073D01*
X153860365Y-71999300D01*
X153916616Y-72083484D01*
X154000797Y-72139733D01*
X154000799Y-72139734D01*
X154075033Y-72154500D01*
X155125166Y-72154499D01*
X155125169Y-72154498D01*
X155125173Y-72154498D01*
X155182090Y-72143177D01*
X155199401Y-72139734D01*
X155283584Y-72083484D01*
X155339834Y-71999301D01*
X155354600Y-71925067D01*
X155354599Y-70874934D01*
X155354598Y-70874931D01*
X155354598Y-70874926D01*
X155339834Y-70800699D01*
X155283583Y-70716515D01*
X155199402Y-70660266D01*
X155125167Y-70645500D01*
X154075036Y-70645500D01*
X154075026Y-70645501D01*
X154000799Y-70660265D01*
X153916615Y-70716516D01*
X153860366Y-70800697D01*
X153845600Y-70874930D01*
X153354299Y-70874930D01*
X153339534Y-70800699D01*
X153283283Y-70716515D01*
X153199102Y-70660266D01*
X153124867Y-70645500D01*
X152074736Y-70645500D01*
X152074726Y-70645501D01*
X152000499Y-70660265D01*
X151916315Y-70716516D01*
X151860066Y-70800697D01*
X151845300Y-70874930D01*
X151354599Y-70874930D01*
X151339834Y-70800699D01*
X151283583Y-70716515D01*
X151199402Y-70660266D01*
X151125167Y-70645500D01*
X150075036Y-70645500D01*
X150075026Y-70645501D01*
X150000799Y-70660265D01*
X149916615Y-70716516D01*
X149860366Y-70800697D01*
X149845600Y-70874930D01*
X149354599Y-70874930D01*
X149339834Y-70800699D01*
X149283583Y-70716515D01*
X149199402Y-70660266D01*
X149125167Y-70645500D01*
X148075036Y-70645500D01*
X148075026Y-70645501D01*
X148000799Y-70660265D01*
X147916615Y-70716516D01*
X147860366Y-70800697D01*
X147845600Y-70874930D01*
X130164893Y-70874930D01*
X133621218Y-67418605D01*
X133683530Y-67384579D01*
X133710313Y-67381700D01*
X154290581Y-67381700D01*
X154358702Y-67401702D01*
X154379676Y-67418605D01*
X157082097Y-70121115D01*
X157116121Y-70183427D01*
X157119000Y-70210208D01*
X157119000Y-70519500D01*
X157098998Y-70587621D01*
X157045342Y-70634114D01*
X156993000Y-70645500D01*
X156075036Y-70645500D01*
X156075026Y-70645501D01*
X156000799Y-70660265D01*
X155916615Y-70716516D01*
X155860366Y-70800697D01*
X155845600Y-70874930D01*
X155845600Y-71925063D01*
X155845601Y-71925073D01*
X155860365Y-71999300D01*
X155916616Y-72083484D01*
X156000797Y-72139733D01*
X156000799Y-72139734D01*
X156075033Y-72154500D01*
X156993000Y-72154499D01*
X157061121Y-72174501D01*
X157107614Y-72228157D01*
X157119000Y-72280499D01*
X157119000Y-72351423D01*
X157118999Y-72351423D01*
X157144999Y-72448455D01*
X157149645Y-72456501D01*
X157166382Y-72525496D01*
X157143161Y-72592588D01*
X157087354Y-72636475D01*
X157040525Y-72645500D01*
X156075036Y-72645500D01*
X156075026Y-72645501D01*
X156000799Y-72660265D01*
X155916615Y-72716516D01*
X155860366Y-72800697D01*
X155845600Y-72874930D01*
X155845600Y-73925063D01*
X155845601Y-73925073D01*
X155860365Y-73999300D01*
X155916616Y-74083484D01*
X156000797Y-74139733D01*
X156000799Y-74139734D01*
X156075033Y-74154500D01*
X157125166Y-74154499D01*
X157125169Y-74154498D01*
X157125173Y-74154498D01*
X157174426Y-74144701D01*
X157199401Y-74139734D01*
X157283584Y-74083484D01*
X157339834Y-73999301D01*
X157354600Y-73925067D01*
X157354599Y-72999011D01*
X157374601Y-72930891D01*
X157428257Y-72884398D01*
X157498531Y-72874294D01*
X157563111Y-72903787D01*
X157569694Y-72909917D01*
X157658695Y-72998918D01*
X157692721Y-73061230D01*
X157695600Y-73088013D01*
X157695600Y-74075063D01*
X157695601Y-74075073D01*
X157710365Y-74149300D01*
X157766616Y-74233484D01*
X157850797Y-74289733D01*
X157850799Y-74289734D01*
X157925033Y-74304500D01*
X159275166Y-74304499D01*
X159275169Y-74304498D01*
X159275173Y-74304498D01*
X159331381Y-74293318D01*
X159349401Y-74289734D01*
X159433584Y-74233484D01*
X159489834Y-74149301D01*
X159489834Y-74149300D01*
X159495335Y-74141068D01*
X159549812Y-74095540D01*
X159620255Y-74086693D01*
X159684299Y-74117334D01*
X159704865Y-74141068D01*
X159710365Y-74149300D01*
X159710366Y-74149301D01*
X159766615Y-74233483D01*
X159766616Y-74233484D01*
X159850797Y-74289733D01*
X159850799Y-74289734D01*
X159925033Y-74304500D01*
X161275166Y-74304499D01*
X161275169Y-74304498D01*
X161275173Y-74304498D01*
X161331381Y-74293318D01*
X161349401Y-74289734D01*
X161433584Y-74233484D01*
X161489834Y-74149301D01*
X161489833Y-74149301D01*
X161495235Y-74141218D01*
X161549712Y-74095690D01*
X161620156Y-74086843D01*
X161684200Y-74117484D01*
X161704765Y-74141218D01*
X161766416Y-74233484D01*
X161850597Y-74289733D01*
X161850599Y-74289734D01*
X161924833Y-74304500D01*
X163274966Y-74304499D01*
X163274969Y-74304498D01*
X163274973Y-74304498D01*
X163331181Y-74293318D01*
X163349201Y-74289734D01*
X163433384Y-74233484D01*
X163489634Y-74149301D01*
X163504400Y-74075067D01*
X163504399Y-72724934D01*
X163504398Y-72724930D01*
X163504398Y-72724926D01*
X163489634Y-72650699D01*
X163450805Y-72592588D01*
X163433384Y-72566516D01*
X163433383Y-72566515D01*
X163349202Y-72510266D01*
X163274969Y-72495500D01*
X163274967Y-72495500D01*
X162286913Y-72495500D01*
X162218792Y-72475498D01*
X162197818Y-72458595D01*
X162108817Y-72369594D01*
X162074791Y-72307282D01*
X162079856Y-72236467D01*
X162122403Y-72179631D01*
X162188923Y-72154820D01*
X162197887Y-72154499D01*
X163124866Y-72154499D01*
X163124869Y-72154498D01*
X163124873Y-72154498D01*
X163181790Y-72143177D01*
X163199101Y-72139734D01*
X163283284Y-72083484D01*
X163339534Y-71999301D01*
X163354300Y-71925067D01*
X163354299Y-70874934D01*
X163354298Y-70874931D01*
X163354298Y-70874926D01*
X163339534Y-70800699D01*
X163283283Y-70716515D01*
X163199102Y-70660266D01*
X163124869Y-70645500D01*
X162103934Y-70645500D01*
X162035813Y-70625498D01*
X161989320Y-70571842D01*
X161982228Y-70552114D01*
X161959354Y-70466754D01*
X161959352Y-70466747D01*
X161955601Y-70452747D01*
X161955599Y-70452742D01*
X161905378Y-70365756D01*
X161905370Y-70365746D01*
X161827179Y-70287555D01*
X161827157Y-70287536D01*
X156785446Y-65245923D01*
X156785443Y-65245920D01*
X156734247Y-65194724D01*
X156734246Y-65194723D01*
X156734243Y-65194721D01*
X156647252Y-65144497D01*
X156589032Y-65128898D01*
X156550221Y-65118499D01*
X156550219Y-65118499D01*
X156449771Y-65118500D01*
X133057957Y-65118500D01*
X133057940Y-65118499D01*
X132949774Y-65118499D01*
X132949768Y-65118500D01*
X132898990Y-65132107D01*
X132875868Y-65138303D01*
X132852746Y-65144498D01*
X132765754Y-65194723D01*
X132765751Y-65194725D01*
X132730238Y-65230239D01*
X132694724Y-65265753D01*
X132694722Y-65265755D01*
X132694719Y-65265757D01*
X128114338Y-69846201D01*
X125394060Y-72566516D01*
X125378981Y-72581595D01*
X125316669Y-72615620D01*
X125289885Y-72618500D01*
X121961760Y-72618500D01*
X121893639Y-72598498D01*
X121872665Y-72581595D01*
X121843524Y-72552454D01*
X121843514Y-72552446D01*
X121715982Y-72478816D01*
X121703599Y-72475498D01*
X121573733Y-72440700D01*
X121426467Y-72440700D01*
X121359683Y-72458595D01*
X121284217Y-72478816D01*
X121156685Y-72552446D01*
X121156675Y-72552454D01*
X121052554Y-72656575D01*
X121052546Y-72656585D01*
X120978916Y-72784117D01*
X120974473Y-72800699D01*
X120946851Y-72903787D01*
X120940800Y-72926368D01*
X120940800Y-73073631D01*
X120940799Y-73073631D01*
X120978916Y-73215882D01*
X121052546Y-73343414D01*
X121052554Y-73343424D01*
X121156675Y-73447545D01*
X121156680Y-73447549D01*
X121156682Y-73447551D01*
X121284218Y-73521184D01*
X121426467Y-73559300D01*
X121426469Y-73559300D01*
X121562514Y-73559300D01*
X121630635Y-73579302D01*
X121677128Y-73632958D01*
X121687232Y-73703232D01*
X121678924Y-73733516D01*
X121678716Y-73734016D01*
X121640600Y-73876268D01*
X121640600Y-74023531D01*
X121640599Y-74023531D01*
X121678716Y-74165782D01*
X121752346Y-74293314D01*
X121752354Y-74293324D01*
X121862321Y-74403291D01*
X121860182Y-74405429D01*
X121893515Y-74451090D01*
X121897728Y-74521962D01*
X121862956Y-74583860D01*
X121800239Y-74617134D01*
X121774938Y-74619700D01*
X115949275Y-74619700D01*
X115889890Y-74635612D01*
X115852241Y-74645700D01*
X115765256Y-74695921D01*
X115765246Y-74695929D01*
X109655616Y-80805561D01*
X107766753Y-82694424D01*
X107741234Y-82719943D01*
X107695725Y-82765451D01*
X107695721Y-82765456D01*
X107645500Y-82852441D01*
X107619500Y-82949476D01*
X107619500Y-134450470D01*
X107619499Y-134551116D01*
X100500500Y-134551116D01*
X100500500Y-115759000D01*
X100520502Y-115690879D01*
X100574158Y-115644386D01*
X100626500Y-115633000D01*
X102936717Y-115633000D01*
X102936722Y-115633001D01*
X102999313Y-115633000D01*
X103061891Y-115633000D01*
X103061893Y-115633000D01*
X103061902Y-115632999D01*
X103061904Y-115632999D01*
X103122770Y-115620890D01*
X103184669Y-115608578D01*
X103184671Y-115608576D01*
X103184881Y-115608535D01*
X103186759Y-115607796D01*
X103189484Y-115606777D01*
X103192020Y-115605533D01*
X103231175Y-115589314D01*
X103296225Y-115562370D01*
X103299905Y-115560996D01*
X103300201Y-115560863D01*
X103301998Y-115559732D01*
X103304785Y-115557691D01*
X103363013Y-115518784D01*
X103400775Y-115493551D01*
X103403993Y-115491561D01*
X103405693Y-115489907D01*
X103409116Y-115486665D01*
X103410728Y-115484805D01*
X103461464Y-115434069D01*
X103492925Y-115402608D01*
X103492926Y-115402605D01*
X103498377Y-115397155D01*
X103498383Y-115397146D01*
X105942465Y-112952966D01*
X105942467Y-112952966D01*
X105985906Y-112909527D01*
X105987774Y-112907906D01*
X105991022Y-112904477D01*
X105992666Y-112902786D01*
X105994653Y-112899575D01*
X106024760Y-112854516D01*
X106059895Y-112801931D01*
X106061703Y-112799379D01*
X106061730Y-112799329D01*
X106062574Y-112797191D01*
X106082203Y-112749798D01*
X106082205Y-112749795D01*
X106097310Y-112713325D01*
X106107982Y-112687563D01*
X106109614Y-112683988D01*
X106109743Y-112683646D01*
X106110343Y-112680135D01*
X106126949Y-112596642D01*
X106126949Y-112596636D01*
X106134075Y-112560815D01*
X106134100Y-112560691D01*
X106134100Y-112560688D01*
X106134102Y-112560678D01*
X106134100Y-112456801D01*
X106134100Y-107434209D01*
X106109678Y-107311431D01*
X106061773Y-107195778D01*
X105992225Y-107091692D01*
X105903708Y-107003175D01*
X103406908Y-104506375D01*
X103302822Y-104436827D01*
X103187169Y-104388922D01*
X103064393Y-104364500D01*
X103064391Y-104364500D01*
X100626500Y-104364500D01*
X100558379Y-104344498D01*
X100511886Y-104290842D01*
X100500500Y-104238500D01*
X100500500Y-70259504D01*
X100520502Y-70191383D01*
X100537405Y-70170409D01*
X110170409Y-60537405D01*
X110232721Y-60503379D01*
X110259504Y-60500500D01*
X189740297Y-60500500D01*
X189808418Y-60520502D01*
G37*
%TD.AperFunction*%
%TD*%
M02*
