M48
; DRILL file KiCad 10.0.6 date 2026-09-22T18:33:46
; FORMAT={-:-/ absolute / metric / decimal}
; #@! TF.CreationDate,2026-09-22T18:33:46+08:00
; #@! TF.GenerationSoftware,Kicad,Pcbnew,10.0.6
; #@! TF.FileFunction,Plated,1,2,PTH
FMAT,2
METRIC
; #@! TA.AperFunction,Plated,PTH,ViaDrill
T1C0.305
; #@! TA.AperFunction,Plated,PTH,ComponentDrill
T2C0.670
; #@! TA.AperFunction,Plated,PTH,ComponentDrill
T3C0.914
; #@! TA.AperFunction,Plated,PTH,ComponentDrill
T4C1.000
; #@! TA.AperFunction,Plated,PTH,ComponentDrill
T5C1.100
%
G90
G05
T1
X100.5Y-105.0
X100.5Y-114.998
X121.5Y-73.0
X122.2Y-73.95
X124.4Y-145.2
X125.4Y-122.8
X142.5Y-135.5
X144.7Y-120.0
X145.1Y-135.8
X148.0Y-144.2
X199.499Y-105.251
X199.499Y-115.249
T2
X148.6Y-71.4
X148.6Y-73.4
X150.6Y-71.4
X150.6Y-73.4
X152.6Y-71.4
X152.6Y-73.4
X154.6Y-71.4
X154.6Y-73.4
X156.6Y-71.4
X156.6Y-73.4
X158.6Y-71.4
X158.6Y-73.4
X160.6Y-71.4
X160.6Y-73.4
X162.6Y-71.4
X162.6Y-73.4
T3
X111.5Y-88.0
X111.5Y-115.75
X114.729Y-84.126
X114.729Y-111.826
X119.5Y-88.0
X119.5Y-115.75
X124.889Y-84.126
X124.889Y-111.826
X129.343Y-143.549
X129.343Y-148.549
X131.0Y-88.0
X131.0Y-115.75
X134.229Y-111.826
X134.329Y-84.126
X138.3Y-72.33
X138.3Y-74.87
X139.0Y-88.0
X139.0Y-115.75
X144.389Y-111.826
X144.489Y-84.126
X151.0Y-88.0
X151.0Y-115.75
X154.129Y-84.126
X154.129Y-111.826
X156.344Y-143.649
X156.344Y-148.649
X159.0Y-88.0
X159.0Y-115.75
X164.2Y-99.2
X164.2Y-107.2
X164.2Y-134.4
X164.2Y-142.4
X164.289Y-84.126
X164.289Y-111.826
X165.729Y-148.126
X168.074Y-106.329
X168.074Y-116.489
X174.229Y-72.426
X175.889Y-148.126
X180.2Y-113.8
X180.3Y-77.0
X184.2Y-113.8
X184.3Y-77.0
X184.389Y-72.426
X191.974Y-106.729
X191.974Y-116.889
T4
X134.91Y-142.302
X134.91Y-149.922
X137.451Y-142.302
X137.451Y-149.922
X139.99Y-142.302
X139.99Y-149.922
X142.53Y-142.302
X142.53Y-149.922
X145.07Y-142.302
X145.07Y-149.922
X147.611Y-142.302
X147.611Y-149.922
X150.15Y-142.302
X150.15Y-149.922
X152.69Y-142.302
X152.69Y-149.922
T5
X118.39Y-141.99
X118.39Y-149.61
X120.93Y-141.99
X120.93Y-149.61
X123.47Y-141.99
X123.47Y-149.61
X126.01Y-141.99
X126.01Y-149.61
M30
