%TF.GenerationSoftware,KiCad,Pcbnew,10.0.6*%
%TF.CreationDate,2026-09-23T18:23:31+08:00*%
%TF.ProjectId,Navigation_Module,4e617669-6761-4746-996f-6e5f4d6f6475,1.7*%
%TF.SameCoordinates,Original*%
%TF.FileFunction,Legend,Bot*%
%TF.FilePolarity,Positive*%
%FSLAX46Y46*%
G04 Gerber Fmt 4.6, Leading zero omitted, Abs format (unit mm)*
G04 Created by KiCad (PCBNEW 10.0.6) date 2026-09-23 18:23:31*
%MOMM*%
%LPD*%
G01*
G04 APERTURE LIST*
%ADD10C,1.000000*%
%ADD11C,0.254000*%
%ADD12C,0.180000*%
G04 APERTURE END LIST*
D10*
X113418300Y-87999900D02*
G75*
G02*
X109581900Y-87999900I-1918200J0D01*
G01*
X109581900Y-87999900D02*
G75*
G02*
X113418300Y-87999900I1918200J0D01*
G01*
X113418300Y-115750000D02*
G75*
G02*
X109581900Y-115750000I-1918200J0D01*
G01*
X109581900Y-115750000D02*
G75*
G02*
X113418300Y-115750000I1918200J0D01*
G01*
D11*
X112100000Y-84650500D02*
X118600000Y-84650500D01*
X112100000Y-112250400D02*
X118600000Y-112250400D01*
D10*
X121418300Y-87999900D02*
G75*
G02*
X117581900Y-87999900I-1918200J0D01*
G01*
X117581900Y-87999900D02*
G75*
G02*
X121418300Y-87999900I1918200J0D01*
G01*
X121418300Y-115750000D02*
G75*
G02*
X117581900Y-115750000I-1918200J0D01*
G01*
X117581900Y-115750000D02*
G75*
G02*
X121418300Y-115750000I1918200J0D01*
G01*
D11*
X127399000Y-62199600D02*
X127399000Y-69799300D01*
X127399000Y-69799300D02*
X134650700Y-69799300D01*
D10*
X132918100Y-87999900D02*
G75*
G02*
X129081700Y-87999900I-1918200J0D01*
G01*
X129081700Y-87999900D02*
G75*
G02*
X132918100Y-87999900I1918200J0D01*
G01*
X132918100Y-115750000D02*
G75*
G02*
X129081700Y-115750000I-1918200J0D01*
G01*
X129081700Y-115750000D02*
G75*
G02*
X132918100Y-115750000I1918200J0D01*
G01*
D11*
X131700000Y-84650500D02*
X138199900Y-84650500D01*
X131700000Y-112450400D02*
X138199900Y-112450400D01*
X134650700Y-62199600D02*
X127399000Y-62199600D01*
X134650700Y-69799300D02*
X134650700Y-62199600D01*
D10*
X140918100Y-87999900D02*
G75*
G02*
X137081700Y-87999900I-1918200J0D01*
G01*
X137081700Y-87999900D02*
G75*
G02*
X140918100Y-87999900I1918200J0D01*
G01*
X140918100Y-115750000D02*
G75*
G02*
X137081700Y-115750000I-1918200J0D01*
G01*
X137081700Y-115750000D02*
G75*
G02*
X140918100Y-115750000I1918200J0D01*
G01*
X152918100Y-87999900D02*
G75*
G02*
X149081700Y-87999900I-1918200J0D01*
G01*
X149081700Y-87999900D02*
G75*
G02*
X152918100Y-87999900I1918200J0D01*
G01*
X152918100Y-115750000D02*
G75*
G02*
X149081700Y-115750000I-1918200J0D01*
G01*
X149081700Y-115750000D02*
G75*
G02*
X152918100Y-115750000I1918200J0D01*
G01*
D11*
X151699900Y-84650500D02*
X158199900Y-84650500D01*
X151699900Y-112450400D02*
X158199900Y-112450400D01*
D10*
X160918300Y-87999900D02*
G75*
G02*
X157081900Y-87999900I-1918200J0D01*
G01*
X157081900Y-87999900D02*
G75*
G02*
X160918300Y-87999900I1918200J0D01*
G01*
X160918300Y-115750000D02*
G75*
G02*
X157081900Y-115750000I-1918200J0D01*
G01*
X157081900Y-115750000D02*
G75*
G02*
X160918300Y-115750000I1918200J0D01*
G01*
X166118500Y-99199800D02*
G75*
G02*
X162282100Y-99199800I-1918200J0D01*
G01*
X162282100Y-99199800D02*
G75*
G02*
X166118500Y-99199800I1918200J0D01*
G01*
X166118500Y-107199800D02*
G75*
G02*
X162282100Y-107199800I-1918200J0D01*
G01*
X162282100Y-107199800D02*
G75*
G02*
X166118500Y-107199800I1918200J0D01*
G01*
X166118500Y-134400200D02*
G75*
G02*
X162282100Y-134400200I-1918200J0D01*
G01*
X162282100Y-134400200D02*
G75*
G02*
X166118500Y-134400200I1918200J0D01*
G01*
X166118500Y-142400100D02*
G75*
G02*
X162282100Y-142400100I-1918200J0D01*
G01*
X162282100Y-142400100D02*
G75*
G02*
X166118500Y-142400100I1918200J0D01*
G01*
X182118200Y-113800000D02*
G75*
G02*
X178281800Y-113800000I-1918200J0D01*
G01*
X178281800Y-113800000D02*
G75*
G02*
X182118200Y-113800000I1918200J0D01*
G01*
X182218000Y-77000000D02*
G75*
G02*
X178381600Y-77000000I-1918200J0D01*
G01*
X178381600Y-77000000D02*
G75*
G02*
X182218000Y-77000000I1918200J0D01*
G01*
X186118200Y-113800000D02*
G75*
G02*
X182281800Y-113800000I-1918200J0D01*
G01*
X182281800Y-113800000D02*
G75*
G02*
X186118200Y-113800000I1918200J0D01*
G01*
X186218300Y-77000000D02*
G75*
G02*
X182381900Y-77000000I-1918200J0D01*
G01*
X182381900Y-77000000D02*
G75*
G02*
X186218300Y-77000000I1918200J0D01*
G01*
D12*
X111508345Y-84969373D02*
X111075012Y-84969373D01*
X111595012Y-85229373D02*
X111291679Y-84319373D01*
X111291679Y-84319373D02*
X110988345Y-85229373D01*
X111508345Y-112569573D02*
X111075012Y-112569573D01*
X111595012Y-112829573D02*
X111291679Y-111919573D01*
X111291679Y-111919573D02*
X110988345Y-112829573D01*
X119161679Y-84752706D02*
X119031679Y-84796040D01*
X119031679Y-84796040D02*
X118988345Y-84839373D01*
X118988345Y-84839373D02*
X118945012Y-84926040D01*
X118945012Y-84926040D02*
X118945012Y-85056040D01*
X118945012Y-85056040D02*
X118988345Y-85142706D01*
X118988345Y-85142706D02*
X119031679Y-85186040D01*
X119031679Y-85186040D02*
X119118345Y-85229373D01*
X119118345Y-85229373D02*
X119465012Y-85229373D01*
X119465012Y-85229373D02*
X119465012Y-84319373D01*
X119465012Y-84319373D02*
X119161679Y-84319373D01*
X119161679Y-84319373D02*
X119075012Y-84362706D01*
X119075012Y-84362706D02*
X119031679Y-84406040D01*
X119031679Y-84406040D02*
X118988345Y-84492706D01*
X118988345Y-84492706D02*
X118988345Y-84579373D01*
X118988345Y-84579373D02*
X119031679Y-84666040D01*
X119031679Y-84666040D02*
X119075012Y-84709373D01*
X119075012Y-84709373D02*
X119161679Y-84752706D01*
X119161679Y-84752706D02*
X119465012Y-84752706D01*
X119161679Y-112352906D02*
X119031679Y-112396240D01*
X119031679Y-112396240D02*
X118988345Y-112439573D01*
X118988345Y-112439573D02*
X118945012Y-112526240D01*
X118945012Y-112526240D02*
X118945012Y-112656240D01*
X118945012Y-112656240D02*
X118988345Y-112742906D01*
X118988345Y-112742906D02*
X119031679Y-112786240D01*
X119031679Y-112786240D02*
X119118345Y-112829573D01*
X119118345Y-112829573D02*
X119465012Y-112829573D01*
X119465012Y-112829573D02*
X119465012Y-111919573D01*
X119465012Y-111919573D02*
X119161679Y-111919573D01*
X119161679Y-111919573D02*
X119075012Y-111962906D01*
X119075012Y-111962906D02*
X119031679Y-112006240D01*
X119031679Y-112006240D02*
X118988345Y-112092906D01*
X118988345Y-112092906D02*
X118988345Y-112179573D01*
X118988345Y-112179573D02*
X119031679Y-112266240D01*
X119031679Y-112266240D02*
X119075012Y-112309573D01*
X119075012Y-112309573D02*
X119161679Y-112352906D01*
X119161679Y-112352906D02*
X119465012Y-112352906D01*
X131108245Y-84969373D02*
X130674912Y-84969373D01*
X131194912Y-85229373D02*
X130891579Y-84319373D01*
X130891579Y-84319373D02*
X130588245Y-85229373D01*
X131108245Y-112769473D02*
X130674912Y-112769473D01*
X131194912Y-113029473D02*
X130891579Y-112119473D01*
X130891579Y-112119473D02*
X130588245Y-113029473D01*
X133641379Y-63069573D02*
X133468045Y-63069573D01*
X133468045Y-63069573D02*
X133381379Y-63112906D01*
X133381379Y-63112906D02*
X133294712Y-63199573D01*
X133294712Y-63199573D02*
X133251379Y-63372906D01*
X133251379Y-63372906D02*
X133251379Y-63676240D01*
X133251379Y-63676240D02*
X133294712Y-63849573D01*
X133294712Y-63849573D02*
X133381379Y-63936240D01*
X133381379Y-63936240D02*
X133468045Y-63979573D01*
X133468045Y-63979573D02*
X133641379Y-63979573D01*
X133641379Y-63979573D02*
X133728045Y-63936240D01*
X133728045Y-63936240D02*
X133814712Y-63849573D01*
X133814712Y-63849573D02*
X133858045Y-63676240D01*
X133858045Y-63676240D02*
X133858045Y-63372906D01*
X133858045Y-63372906D02*
X133814712Y-63199573D01*
X133814712Y-63199573D02*
X133728045Y-63112906D01*
X133728045Y-63112906D02*
X133641379Y-63069573D01*
X132341379Y-63979573D02*
X132644712Y-63546240D01*
X132861379Y-63979573D02*
X132861379Y-63069573D01*
X132861379Y-63069573D02*
X132514712Y-63069573D01*
X132514712Y-63069573D02*
X132428046Y-63112906D01*
X132428046Y-63112906D02*
X132384712Y-63156240D01*
X132384712Y-63156240D02*
X132341379Y-63242906D01*
X132341379Y-63242906D02*
X132341379Y-63372906D01*
X132341379Y-63372906D02*
X132384712Y-63459573D01*
X132384712Y-63459573D02*
X132428046Y-63502906D01*
X132428046Y-63502906D02*
X132514712Y-63546240D01*
X132514712Y-63546240D02*
X132861379Y-63546240D01*
X131994712Y-63719573D02*
X131561379Y-63719573D01*
X132081379Y-63979573D02*
X131778046Y-63069573D01*
X131778046Y-63069573D02*
X131474712Y-63979573D01*
X131171379Y-63979573D02*
X131171379Y-63069573D01*
X131171379Y-63069573D02*
X130651379Y-63979573D01*
X130651379Y-63979573D02*
X130651379Y-63069573D01*
X129741379Y-63112906D02*
X129828046Y-63069573D01*
X129828046Y-63069573D02*
X129958046Y-63069573D01*
X129958046Y-63069573D02*
X130088046Y-63112906D01*
X130088046Y-63112906D02*
X130174713Y-63199573D01*
X130174713Y-63199573D02*
X130218046Y-63286240D01*
X130218046Y-63286240D02*
X130261379Y-63459573D01*
X130261379Y-63459573D02*
X130261379Y-63589573D01*
X130261379Y-63589573D02*
X130218046Y-63762906D01*
X130218046Y-63762906D02*
X130174713Y-63849573D01*
X130174713Y-63849573D02*
X130088046Y-63936240D01*
X130088046Y-63936240D02*
X129958046Y-63979573D01*
X129958046Y-63979573D02*
X129871379Y-63979573D01*
X129871379Y-63979573D02*
X129741379Y-63936240D01*
X129741379Y-63936240D02*
X129698046Y-63892906D01*
X129698046Y-63892906D02*
X129698046Y-63589573D01*
X129698046Y-63589573D02*
X129871379Y-63589573D01*
X129308046Y-63502906D02*
X129004713Y-63502906D01*
X128874713Y-63979573D02*
X129308046Y-63979573D01*
X129308046Y-63979573D02*
X129308046Y-63069573D01*
X129308046Y-63069573D02*
X128874713Y-63069573D01*
X133858045Y-65469573D02*
X133424712Y-65469573D01*
X133944712Y-65729573D02*
X133641379Y-64819573D01*
X133641379Y-64819573D02*
X133338045Y-65729573D01*
X133034712Y-65642906D02*
X132991379Y-65686240D01*
X132991379Y-65686240D02*
X133034712Y-65729573D01*
X133034712Y-65729573D02*
X133078045Y-65686240D01*
X133078045Y-65686240D02*
X133034712Y-65642906D01*
X133034712Y-65642906D02*
X133034712Y-65729573D01*
X133034712Y-65166240D02*
X132991379Y-65209573D01*
X132991379Y-65209573D02*
X133034712Y-65252906D01*
X133034712Y-65252906D02*
X133078045Y-65209573D01*
X133078045Y-65209573D02*
X133034712Y-65166240D01*
X133034712Y-65166240D02*
X133034712Y-65252906D01*
X131518046Y-64819573D02*
X131691379Y-64819573D01*
X131691379Y-64819573D02*
X131778046Y-64862906D01*
X131778046Y-64862906D02*
X131821379Y-64906240D01*
X131821379Y-64906240D02*
X131908046Y-65036240D01*
X131908046Y-65036240D02*
X131951379Y-65209573D01*
X131951379Y-65209573D02*
X131951379Y-65556240D01*
X131951379Y-65556240D02*
X131908046Y-65642906D01*
X131908046Y-65642906D02*
X131864713Y-65686240D01*
X131864713Y-65686240D02*
X131778046Y-65729573D01*
X131778046Y-65729573D02*
X131604713Y-65729573D01*
X131604713Y-65729573D02*
X131518046Y-65686240D01*
X131518046Y-65686240D02*
X131474713Y-65642906D01*
X131474713Y-65642906D02*
X131431379Y-65556240D01*
X131431379Y-65556240D02*
X131431379Y-65339573D01*
X131431379Y-65339573D02*
X131474713Y-65252906D01*
X131474713Y-65252906D02*
X131518046Y-65209573D01*
X131518046Y-65209573D02*
X131604713Y-65166240D01*
X131604713Y-65166240D02*
X131778046Y-65166240D01*
X131778046Y-65166240D02*
X131864713Y-65209573D01*
X131864713Y-65209573D02*
X131908046Y-65252906D01*
X131908046Y-65252906D02*
X131951379Y-65339573D01*
X133511379Y-67002706D02*
X133381379Y-67046040D01*
X133381379Y-67046040D02*
X133338045Y-67089373D01*
X133338045Y-67089373D02*
X133294712Y-67176040D01*
X133294712Y-67176040D02*
X133294712Y-67306040D01*
X133294712Y-67306040D02*
X133338045Y-67392706D01*
X133338045Y-67392706D02*
X133381379Y-67436040D01*
X133381379Y-67436040D02*
X133468045Y-67479373D01*
X133468045Y-67479373D02*
X133814712Y-67479373D01*
X133814712Y-67479373D02*
X133814712Y-66569373D01*
X133814712Y-66569373D02*
X133511379Y-66569373D01*
X133511379Y-66569373D02*
X133424712Y-66612706D01*
X133424712Y-66612706D02*
X133381379Y-66656040D01*
X133381379Y-66656040D02*
X133338045Y-66742706D01*
X133338045Y-66742706D02*
X133338045Y-66829373D01*
X133338045Y-66829373D02*
X133381379Y-66916040D01*
X133381379Y-66916040D02*
X133424712Y-66959373D01*
X133424712Y-66959373D02*
X133511379Y-67002706D01*
X133511379Y-67002706D02*
X133814712Y-67002706D01*
X132904712Y-67392706D02*
X132861379Y-67436040D01*
X132861379Y-67436040D02*
X132904712Y-67479373D01*
X132904712Y-67479373D02*
X132948045Y-67436040D01*
X132948045Y-67436040D02*
X132904712Y-67392706D01*
X132904712Y-67392706D02*
X132904712Y-67479373D01*
X132904712Y-66916040D02*
X132861379Y-66959373D01*
X132861379Y-66959373D02*
X132904712Y-67002706D01*
X132904712Y-67002706D02*
X132948045Y-66959373D01*
X132948045Y-66959373D02*
X132904712Y-66916040D01*
X132904712Y-66916040D02*
X132904712Y-67002706D01*
X131301379Y-67479373D02*
X131821379Y-67479373D01*
X131561379Y-67479373D02*
X131561379Y-66569373D01*
X131561379Y-66569373D02*
X131648046Y-66699373D01*
X131648046Y-66699373D02*
X131734713Y-66786040D01*
X131734713Y-66786040D02*
X131821379Y-66829373D01*
X130738046Y-66569373D02*
X130651379Y-66569373D01*
X130651379Y-66569373D02*
X130564712Y-66612706D01*
X130564712Y-66612706D02*
X130521379Y-66656040D01*
X130521379Y-66656040D02*
X130478046Y-66742706D01*
X130478046Y-66742706D02*
X130434712Y-66916040D01*
X130434712Y-66916040D02*
X130434712Y-67132706D01*
X130434712Y-67132706D02*
X130478046Y-67306040D01*
X130478046Y-67306040D02*
X130521379Y-67392706D01*
X130521379Y-67392706D02*
X130564712Y-67436040D01*
X130564712Y-67436040D02*
X130651379Y-67479373D01*
X130651379Y-67479373D02*
X130738046Y-67479373D01*
X130738046Y-67479373D02*
X130824712Y-67436040D01*
X130824712Y-67436040D02*
X130868046Y-67392706D01*
X130868046Y-67392706D02*
X130911379Y-67306040D01*
X130911379Y-67306040D02*
X130954712Y-67132706D01*
X130954712Y-67132706D02*
X130954712Y-66916040D01*
X130954712Y-66916040D02*
X130911379Y-66742706D01*
X130911379Y-66742706D02*
X130868046Y-66656040D01*
X130868046Y-66656040D02*
X130824712Y-66612706D01*
X130824712Y-66612706D02*
X130738046Y-66569373D01*
X133294712Y-69142806D02*
X133338045Y-69186140D01*
X133338045Y-69186140D02*
X133468045Y-69229473D01*
X133468045Y-69229473D02*
X133554712Y-69229473D01*
X133554712Y-69229473D02*
X133684712Y-69186140D01*
X133684712Y-69186140D02*
X133771379Y-69099473D01*
X133771379Y-69099473D02*
X133814712Y-69012806D01*
X133814712Y-69012806D02*
X133858045Y-68839473D01*
X133858045Y-68839473D02*
X133858045Y-68709473D01*
X133858045Y-68709473D02*
X133814712Y-68536140D01*
X133814712Y-68536140D02*
X133771379Y-68449473D01*
X133771379Y-68449473D02*
X133684712Y-68362806D01*
X133684712Y-68362806D02*
X133554712Y-68319473D01*
X133554712Y-68319473D02*
X133468045Y-68319473D01*
X133468045Y-68319473D02*
X133338045Y-68362806D01*
X133338045Y-68362806D02*
X133294712Y-68406140D01*
X132904712Y-69142806D02*
X132861379Y-69186140D01*
X132861379Y-69186140D02*
X132904712Y-69229473D01*
X132904712Y-69229473D02*
X132948045Y-69186140D01*
X132948045Y-69186140D02*
X132904712Y-69142806D01*
X132904712Y-69142806D02*
X132904712Y-69229473D01*
X132904712Y-68666140D02*
X132861379Y-68709473D01*
X132861379Y-68709473D02*
X132904712Y-68752806D01*
X132904712Y-68752806D02*
X132948045Y-68709473D01*
X132948045Y-68709473D02*
X132904712Y-68666140D01*
X132904712Y-68666140D02*
X132904712Y-68752806D01*
X131388046Y-68622806D02*
X131388046Y-69229473D01*
X131604713Y-68276140D02*
X131821379Y-68926140D01*
X131821379Y-68926140D02*
X131258046Y-68926140D01*
X138761579Y-84752706D02*
X138631579Y-84796040D01*
X138631579Y-84796040D02*
X138588245Y-84839373D01*
X138588245Y-84839373D02*
X138544912Y-84926040D01*
X138544912Y-84926040D02*
X138544912Y-85056040D01*
X138544912Y-85056040D02*
X138588245Y-85142706D01*
X138588245Y-85142706D02*
X138631579Y-85186040D01*
X138631579Y-85186040D02*
X138718245Y-85229373D01*
X138718245Y-85229373D02*
X139064912Y-85229373D01*
X139064912Y-85229373D02*
X139064912Y-84319373D01*
X139064912Y-84319373D02*
X138761579Y-84319373D01*
X138761579Y-84319373D02*
X138674912Y-84362706D01*
X138674912Y-84362706D02*
X138631579Y-84406040D01*
X138631579Y-84406040D02*
X138588245Y-84492706D01*
X138588245Y-84492706D02*
X138588245Y-84579373D01*
X138588245Y-84579373D02*
X138631579Y-84666040D01*
X138631579Y-84666040D02*
X138674912Y-84709373D01*
X138674912Y-84709373D02*
X138761579Y-84752706D01*
X138761579Y-84752706D02*
X139064912Y-84752706D01*
X138761579Y-112552806D02*
X138631579Y-112596140D01*
X138631579Y-112596140D02*
X138588245Y-112639473D01*
X138588245Y-112639473D02*
X138544912Y-112726140D01*
X138544912Y-112726140D02*
X138544912Y-112856140D01*
X138544912Y-112856140D02*
X138588245Y-112942806D01*
X138588245Y-112942806D02*
X138631579Y-112986140D01*
X138631579Y-112986140D02*
X138718245Y-113029473D01*
X138718245Y-113029473D02*
X139064912Y-113029473D01*
X139064912Y-113029473D02*
X139064912Y-112119473D01*
X139064912Y-112119473D02*
X138761579Y-112119473D01*
X138761579Y-112119473D02*
X138674912Y-112162806D01*
X138674912Y-112162806D02*
X138631579Y-112206140D01*
X138631579Y-112206140D02*
X138588245Y-112292806D01*
X138588245Y-112292806D02*
X138588245Y-112379473D01*
X138588245Y-112379473D02*
X138631579Y-112466140D01*
X138631579Y-112466140D02*
X138674912Y-112509473D01*
X138674912Y-112509473D02*
X138761579Y-112552806D01*
X138761579Y-112552806D02*
X139064912Y-112552806D01*
X151108145Y-84969373D02*
X150674812Y-84969373D01*
X151194812Y-85229373D02*
X150891479Y-84319373D01*
X150891479Y-84319373D02*
X150588145Y-85229373D01*
X151108145Y-112769473D02*
X150674812Y-112769473D01*
X151194812Y-113029473D02*
X150891479Y-112119473D01*
X150891479Y-112119473D02*
X150588145Y-113029473D01*
X158761479Y-84752706D02*
X158631479Y-84796040D01*
X158631479Y-84796040D02*
X158588145Y-84839373D01*
X158588145Y-84839373D02*
X158544812Y-84926040D01*
X158544812Y-84926040D02*
X158544812Y-85056040D01*
X158544812Y-85056040D02*
X158588145Y-85142706D01*
X158588145Y-85142706D02*
X158631479Y-85186040D01*
X158631479Y-85186040D02*
X158718145Y-85229373D01*
X158718145Y-85229373D02*
X159064812Y-85229373D01*
X159064812Y-85229373D02*
X159064812Y-84319373D01*
X159064812Y-84319373D02*
X158761479Y-84319373D01*
X158761479Y-84319373D02*
X158674812Y-84362706D01*
X158674812Y-84362706D02*
X158631479Y-84406040D01*
X158631479Y-84406040D02*
X158588145Y-84492706D01*
X158588145Y-84492706D02*
X158588145Y-84579373D01*
X158588145Y-84579373D02*
X158631479Y-84666040D01*
X158631479Y-84666040D02*
X158674812Y-84709373D01*
X158674812Y-84709373D02*
X158761479Y-84752706D01*
X158761479Y-84752706D02*
X159064812Y-84752706D01*
X158761479Y-112552806D02*
X158631479Y-112596140D01*
X158631479Y-112596140D02*
X158588145Y-112639473D01*
X158588145Y-112639473D02*
X158544812Y-112726140D01*
X158544812Y-112726140D02*
X158544812Y-112856140D01*
X158544812Y-112856140D02*
X158588145Y-112942806D01*
X158588145Y-112942806D02*
X158631479Y-112986140D01*
X158631479Y-112986140D02*
X158718145Y-113029473D01*
X158718145Y-113029473D02*
X159064812Y-113029473D01*
X159064812Y-113029473D02*
X159064812Y-112119473D01*
X159064812Y-112119473D02*
X158761479Y-112119473D01*
X158761479Y-112119473D02*
X158674812Y-112162806D01*
X158674812Y-112162806D02*
X158631479Y-112206140D01*
X158631479Y-112206140D02*
X158588145Y-112292806D01*
X158588145Y-112292806D02*
X158588145Y-112379473D01*
X158588145Y-112379473D02*
X158631479Y-112466140D01*
X158631479Y-112466140D02*
X158674812Y-112509473D01*
X158674812Y-112509473D02*
X158761479Y-112552806D01*
X158761479Y-112552806D02*
X159064812Y-112552806D01*
X163744712Y-96342906D02*
X163788045Y-96386240D01*
X163788045Y-96386240D02*
X163918045Y-96429573D01*
X163918045Y-96429573D02*
X164004712Y-96429573D01*
X164004712Y-96429573D02*
X164134712Y-96386240D01*
X164134712Y-96386240D02*
X164221379Y-96299573D01*
X164221379Y-96299573D02*
X164264712Y-96212906D01*
X164264712Y-96212906D02*
X164308045Y-96039573D01*
X164308045Y-96039573D02*
X164308045Y-95909573D01*
X164308045Y-95909573D02*
X164264712Y-95736240D01*
X164264712Y-95736240D02*
X164221379Y-95649573D01*
X164221379Y-95649573D02*
X164134712Y-95562906D01*
X164134712Y-95562906D02*
X164004712Y-95519573D01*
X164004712Y-95519573D02*
X163918045Y-95519573D01*
X163918045Y-95519573D02*
X163788045Y-95562906D01*
X163788045Y-95562906D02*
X163744712Y-95606240D01*
X163744712Y-104342906D02*
X163788045Y-104386240D01*
X163788045Y-104386240D02*
X163918045Y-104429573D01*
X163918045Y-104429573D02*
X164004712Y-104429573D01*
X164004712Y-104429573D02*
X164134712Y-104386240D01*
X164134712Y-104386240D02*
X164221379Y-104299573D01*
X164221379Y-104299573D02*
X164264712Y-104212906D01*
X164264712Y-104212906D02*
X164308045Y-104039573D01*
X164308045Y-104039573D02*
X164308045Y-103909573D01*
X164308045Y-103909573D02*
X164264712Y-103736240D01*
X164264712Y-103736240D02*
X164221379Y-103649573D01*
X164221379Y-103649573D02*
X164134712Y-103562906D01*
X164134712Y-103562906D02*
X164004712Y-103519573D01*
X164004712Y-103519573D02*
X163918045Y-103519573D01*
X163918045Y-103519573D02*
X163788045Y-103562906D01*
X163788045Y-103562906D02*
X163744712Y-103606240D01*
X163744712Y-131542706D02*
X163788045Y-131586040D01*
X163788045Y-131586040D02*
X163918045Y-131629373D01*
X163918045Y-131629373D02*
X164004712Y-131629373D01*
X164004712Y-131629373D02*
X164134712Y-131586040D01*
X164134712Y-131586040D02*
X164221379Y-131499373D01*
X164221379Y-131499373D02*
X164264712Y-131412706D01*
X164264712Y-131412706D02*
X164308045Y-131239373D01*
X164308045Y-131239373D02*
X164308045Y-131109373D01*
X164308045Y-131109373D02*
X164264712Y-130936040D01*
X164264712Y-130936040D02*
X164221379Y-130849373D01*
X164221379Y-130849373D02*
X164134712Y-130762706D01*
X164134712Y-130762706D02*
X164004712Y-130719373D01*
X164004712Y-130719373D02*
X163918045Y-130719373D01*
X163918045Y-130719373D02*
X163788045Y-130762706D01*
X163788045Y-130762706D02*
X163744712Y-130806040D01*
X163744712Y-139542706D02*
X163788045Y-139586040D01*
X163788045Y-139586040D02*
X163918045Y-139629373D01*
X163918045Y-139629373D02*
X164004712Y-139629373D01*
X164004712Y-139629373D02*
X164134712Y-139586040D01*
X164134712Y-139586040D02*
X164221379Y-139499373D01*
X164221379Y-139499373D02*
X164264712Y-139412706D01*
X164264712Y-139412706D02*
X164308045Y-139239373D01*
X164308045Y-139239373D02*
X164308045Y-139109373D01*
X164308045Y-139109373D02*
X164264712Y-138936040D01*
X164264712Y-138936040D02*
X164221379Y-138849373D01*
X164221379Y-138849373D02*
X164134712Y-138762706D01*
X164134712Y-138762706D02*
X164004712Y-138719373D01*
X164004712Y-138719373D02*
X163918045Y-138719373D01*
X163918045Y-138719373D02*
X163788045Y-138762706D01*
X163788045Y-138762706D02*
X163744712Y-138806040D01*
X176561279Y-113952806D02*
X176431279Y-113996140D01*
X176431279Y-113996140D02*
X176387945Y-114039473D01*
X176387945Y-114039473D02*
X176344612Y-114126140D01*
X176344612Y-114126140D02*
X176344612Y-114256140D01*
X176344612Y-114256140D02*
X176387945Y-114342806D01*
X176387945Y-114342806D02*
X176431279Y-114386140D01*
X176431279Y-114386140D02*
X176517945Y-114429473D01*
X176517945Y-114429473D02*
X176864612Y-114429473D01*
X176864612Y-114429473D02*
X176864612Y-113519473D01*
X176864612Y-113519473D02*
X176561279Y-113519473D01*
X176561279Y-113519473D02*
X176474612Y-113562806D01*
X176474612Y-113562806D02*
X176431279Y-113606140D01*
X176431279Y-113606140D02*
X176387945Y-113692806D01*
X176387945Y-113692806D02*
X176387945Y-113779473D01*
X176387945Y-113779473D02*
X176431279Y-113866140D01*
X176431279Y-113866140D02*
X176474612Y-113909473D01*
X176474612Y-113909473D02*
X176561279Y-113952806D01*
X176561279Y-113952806D02*
X176864612Y-113952806D01*
X176761479Y-77152806D02*
X176631479Y-77196140D01*
X176631479Y-77196140D02*
X176588145Y-77239473D01*
X176588145Y-77239473D02*
X176544812Y-77326140D01*
X176544812Y-77326140D02*
X176544812Y-77456140D01*
X176544812Y-77456140D02*
X176588145Y-77542806D01*
X176588145Y-77542806D02*
X176631479Y-77586140D01*
X176631479Y-77586140D02*
X176718145Y-77629473D01*
X176718145Y-77629473D02*
X177064812Y-77629473D01*
X177064812Y-77629473D02*
X177064812Y-76719473D01*
X177064812Y-76719473D02*
X176761479Y-76719473D01*
X176761479Y-76719473D02*
X176674812Y-76762806D01*
X176674812Y-76762806D02*
X176631479Y-76806140D01*
X176631479Y-76806140D02*
X176588145Y-76892806D01*
X176588145Y-76892806D02*
X176588145Y-76979473D01*
X176588145Y-76979473D02*
X176631479Y-77066140D01*
X176631479Y-77066140D02*
X176674812Y-77109473D01*
X176674812Y-77109473D02*
X176761479Y-77152806D01*
X176761479Y-77152806D02*
X177064812Y-77152806D01*
X187161479Y-77152806D02*
X187031479Y-77196140D01*
X187031479Y-77196140D02*
X186988145Y-77239473D01*
X186988145Y-77239473D02*
X186944812Y-77326140D01*
X186944812Y-77326140D02*
X186944812Y-77456140D01*
X186944812Y-77456140D02*
X186988145Y-77542806D01*
X186988145Y-77542806D02*
X187031479Y-77586140D01*
X187031479Y-77586140D02*
X187118145Y-77629473D01*
X187118145Y-77629473D02*
X187464812Y-77629473D01*
X187464812Y-77629473D02*
X187464812Y-76719473D01*
X187464812Y-76719473D02*
X187161479Y-76719473D01*
X187161479Y-76719473D02*
X187074812Y-76762806D01*
X187074812Y-76762806D02*
X187031479Y-76806140D01*
X187031479Y-76806140D02*
X186988145Y-76892806D01*
X186988145Y-76892806D02*
X186988145Y-76979473D01*
X186988145Y-76979473D02*
X187031479Y-77066140D01*
X187031479Y-77066140D02*
X187074812Y-77109473D01*
X187074812Y-77109473D02*
X187161479Y-77152806D01*
X187161479Y-77152806D02*
X187464812Y-77152806D01*
X187161479Y-113952806D02*
X187031479Y-113996140D01*
X187031479Y-113996140D02*
X186988145Y-114039473D01*
X186988145Y-114039473D02*
X186944812Y-114126140D01*
X186944812Y-114126140D02*
X186944812Y-114256140D01*
X186944812Y-114256140D02*
X186988145Y-114342806D01*
X186988145Y-114342806D02*
X187031479Y-114386140D01*
X187031479Y-114386140D02*
X187118145Y-114429473D01*
X187118145Y-114429473D02*
X187464812Y-114429473D01*
X187464812Y-114429473D02*
X187464812Y-113519473D01*
X187464812Y-113519473D02*
X187161479Y-113519473D01*
X187161479Y-113519473D02*
X187074812Y-113562806D01*
X187074812Y-113562806D02*
X187031479Y-113606140D01*
X187031479Y-113606140D02*
X186988145Y-113692806D01*
X186988145Y-113692806D02*
X186988145Y-113779473D01*
X186988145Y-113779473D02*
X187031479Y-113866140D01*
X187031479Y-113866140D02*
X187074812Y-113909473D01*
X187074812Y-113909473D02*
X187161479Y-113952806D01*
X187161479Y-113952806D02*
X187464812Y-113952806D01*
M02*
