M48
; DRILL file KiCad 10.0.6 date 2026-09-23T14:42:07
; FORMAT={-:-/ absolute / metric / decimal}
; #@! TF.CreationDate,2026-09-23T14:42:07+08:00
; #@! TF.GenerationSoftware,Kicad,Pcbnew,10.0.6
; #@! TF.FileFunction,Plated,1,2,PTH
FMAT,2
METRIC
; #@! TA.AperFunction,Plated,PTH,ViaDrill
T1C0.305
; #@! TA.AperFunction,Plated,PTH,ComponentDrill
T2C0.670
; #@! TA.AperFunction,Plated,PTH,ComponentDrill
T3C0.914
; #@! TA.AperFunction,Plated,PTH,ComponentDrill
T4C0.914
; #@! TA.AperFunction,Plated,PTH,ComponentDrill
T5C1.100
%
G90
G05
T1
X100.577Y-105.107
X100.577Y-115.105
X109.0Y-133.5
X131.2Y-87.3
X137.5Y-113.0
X148.5Y-96.5
X161.0Y-77.0
X199.5Y-105.25
X199.5Y-115.247
T2
X120.5Y-68.5
X120.5Y-70.5
X122.5Y-68.5
X122.5Y-70.5
X124.5Y-68.5
X124.5Y-70.5
X126.5Y-68.5
X126.5Y-70.5
X128.5Y-70.5
X128.5Y-68.5
X130.5Y-68.5
X130.5Y-70.5
X132.5Y-68.5
X132.5Y-70.5
X134.5Y-68.5
X134.5Y-70.5
T3
X111.0Y-83.0
X111.0Y-91.0
X111.0Y-101.0
X111.0Y-109.0
X114.3Y-131.65
X114.3Y-151.15
X121.3Y-140.9
T4
X109.5Y-72.23
X109.5Y-74.77
X114.797Y-115.881
X119.429Y-131.326
X124.957Y-115.881
X127.25Y-138.0
X127.25Y-145.0
X129.589Y-131.326
X135.054Y-92.35
X135.054Y-97.35
T5
X138.499Y-91.1
X138.499Y-98.72
X141.04Y-91.1
X141.04Y-98.72
X143.579Y-91.1
X143.579Y-98.72
X146.119Y-91.1
X146.119Y-98.72
X149.024Y-116.1
X149.024Y-121.18
X149.024Y-126.26
X154.075Y-116.02
X154.075Y-121.12
X154.075Y-126.2
M30
