%TF.GenerationSoftware,KiCad,Pcbnew,10.0.6*%
%TF.CreationDate,2026-09-23T18:12:16+08:00*%
%TF.ProjectId,Throttle_Module,5468726f-7474-46c6-955f-4d6f64756c65,1.7*%
%TF.SameCoordinates,Original*%
%TF.FileFunction,Legend,Top*%
%TF.FilePolarity,Positive*%
%FSLAX46Y46*%
G04 Gerber Fmt 4.6, Leading zero omitted, Abs format (unit mm)*
G04 Created by KiCad (PCBNEW 10.0.6) date 2026-09-23 18:12:16*
%MOMM*%
%LPD*%
G01*
G04 APERTURE LIST*
%ADD10C,0.254000*%
%ADD11C,0.080000*%
%ADD12C,0.150000*%
%ADD13C,0.180000*%
%ADD14C,0.152400*%
%ADD15C,0.200000*%
%ADD16C,0.177800*%
G04 APERTURE END LIST*
D10*
X115500000Y-66500200D02*
X139500100Y-66500200D01*
X115500000Y-72500100D02*
X115500000Y-66500200D01*
X126000000Y-137748500D02*
X126000000Y-136499800D01*
X126000000Y-143553400D02*
X128462900Y-143553400D01*
X126000000Y-146249900D02*
X126000000Y-137748500D01*
X126000000Y-146249900D02*
X128462900Y-146249900D01*
X126212300Y-146251100D02*
X128462900Y-146251100D01*
X126500100Y-66500200D02*
X126500100Y-67500200D01*
X126500100Y-67500200D02*
X128500000Y-67500200D01*
X128462900Y-136499600D02*
X126000000Y-136499800D01*
X128462900Y-137749600D02*
X128462900Y-136499600D01*
X128462900Y-146251100D02*
X128462900Y-137749600D01*
X128500000Y-67500200D02*
X128500000Y-66500200D01*
X132999700Y-101000700D02*
X148000900Y-101000700D01*
X132999900Y-87499900D02*
X132999700Y-101000700D01*
X132999900Y-87499900D02*
X132999900Y-87499900D01*
X139500100Y-66500200D02*
X139500100Y-72500100D01*
X139500100Y-72500100D02*
X115500000Y-72500100D01*
X146974600Y-113999900D02*
X146974600Y-127999900D01*
X146974600Y-127999900D02*
X155974600Y-127999900D01*
X148000900Y-87500600D02*
X132999900Y-87499900D01*
X148000900Y-101000700D02*
X148000900Y-87500600D01*
X153750500Y-64251400D02*
X153750500Y-73751400D01*
X153750500Y-73751400D02*
X187937900Y-73751400D01*
G36*
X154624700Y-66750300D02*
G01*
X161249800Y-66750300D01*
X161249800Y-71375100D01*
X154624700Y-71375100D01*
X154624700Y-66750300D01*
G37*
X155974600Y-113999900D02*
X146974600Y-113999900D01*
X155974600Y-127999900D02*
X155974600Y-113999900D01*
G36*
X163124800Y-66750300D02*
G01*
X169749900Y-66750300D01*
X169749900Y-71375100D01*
X163124800Y-71375100D01*
X163124800Y-66750300D01*
G37*
X165100200Y-83500100D02*
X175199200Y-83500100D01*
X165100200Y-147500500D02*
X165099900Y-83500000D01*
G36*
X171624700Y-66750000D02*
G01*
X178249800Y-66750000D01*
X178249800Y-71374800D01*
X171624700Y-71374800D01*
X171624700Y-66750000D01*
G37*
X175199200Y-83500100D02*
X175199200Y-147500500D01*
X175199200Y-147500500D02*
X165100200Y-147500500D01*
G36*
X180374700Y-66750000D02*
G01*
X186999800Y-66750000D01*
X186999800Y-71374800D01*
X180374700Y-71374800D01*
X180374700Y-66750000D01*
G37*
X187937900Y-64251400D02*
X153750500Y-64251400D01*
X187937900Y-73751400D02*
X187937900Y-64251400D01*
D11*
X112128821Y-83139073D02*
X112372631Y-83139073D01*
X112768821Y-83139073D02*
X113012631Y-83139073D01*
X113408821Y-83139073D02*
X113652631Y-83139073D01*
X112129521Y-91139573D02*
X112373331Y-91139573D01*
X112769521Y-91139573D02*
X113013331Y-91139573D01*
X113409521Y-91139573D02*
X113653331Y-91139573D01*
X112129521Y-101139573D02*
X112373331Y-101139573D01*
X112769521Y-101139573D02*
X113013331Y-101139573D01*
X113409521Y-101139573D02*
X113653331Y-101139573D01*
X126628921Y-146889773D02*
X126872731Y-146889773D01*
X127268921Y-146889773D02*
X127512731Y-146889773D01*
X127908921Y-146889773D02*
X128152731Y-146889773D01*
X114439573Y-150021378D02*
X114439573Y-149777569D01*
X114439573Y-149381378D02*
X114439573Y-149137569D01*
X114439573Y-148741378D02*
X114439573Y-148497569D01*
X112141226Y-109139473D02*
X112423131Y-109139473D01*
X112881226Y-109139473D02*
X113163131Y-109139473D01*
X113621226Y-109139473D02*
X113903131Y-109139473D01*
X126640826Y-136139473D02*
X126922731Y-136139473D01*
X127380826Y-136139473D02*
X127662731Y-136139473D01*
X128120826Y-136139473D02*
X128402731Y-136139473D01*
X120158973Y-140761626D02*
X119877069Y-140761626D01*
X119418973Y-140761626D02*
X119137069Y-140761626D01*
X118678973Y-140761626D02*
X118397069Y-140761626D01*
X114160826Y-132789326D02*
X114160826Y-133071231D01*
X114160826Y-133529326D02*
X114160826Y-133811231D01*
X114160826Y-134269326D02*
X114160826Y-134551231D01*
X125360726Y-136891626D02*
X125360726Y-137173531D01*
X125360726Y-137631626D02*
X125360726Y-137913531D01*
X125360726Y-138371626D02*
X125360726Y-138653531D01*
X125360726Y-139111626D02*
X125360726Y-139393531D01*
X125360726Y-139851626D02*
X125360726Y-140133531D01*
X125360726Y-140591626D02*
X125360726Y-140873531D01*
X125360726Y-141331626D02*
X125360726Y-141613531D01*
X125360726Y-142071626D02*
X125360726Y-142353531D01*
X125360726Y-142811626D02*
X125360726Y-143093531D01*
X125360726Y-143551626D02*
X125360726Y-143833531D01*
X125360726Y-144291626D02*
X125360726Y-144573531D01*
X125360726Y-145031626D02*
X125360726Y-145313531D01*
X125360726Y-145771626D02*
X125360726Y-146053531D01*
X128861126Y-136892126D02*
X128861126Y-137174031D01*
X128861126Y-137632126D02*
X128861126Y-137914031D01*
X128861126Y-138372126D02*
X128861126Y-138654031D01*
X128861126Y-139112126D02*
X128861126Y-139394031D01*
X128861126Y-139852126D02*
X128861126Y-140134031D01*
X128861126Y-140592126D02*
X128861126Y-140874031D01*
X128861126Y-141332126D02*
X128861126Y-141614031D01*
X128861126Y-142072126D02*
X128861126Y-142354031D01*
X128861126Y-142812126D02*
X128861126Y-143094031D01*
X128861126Y-143552126D02*
X128861126Y-143834031D01*
X128861126Y-144292126D02*
X128861126Y-144574031D01*
X128861126Y-145032126D02*
X128861126Y-145314031D01*
X128861126Y-145772126D02*
X128861126Y-146054031D01*
D12*
X112754245Y-155740595D02*
X112754245Y-155931071D01*
X112563769Y-155854880D02*
X112754245Y-155931071D01*
X112754245Y-155931071D02*
X112944722Y-155854880D01*
X112639960Y-156083452D02*
X112754245Y-155931071D01*
X112754245Y-155931071D02*
X112868531Y-156083452D01*
X113173293Y-155740595D02*
X113363769Y-156540595D01*
X113363769Y-156540595D02*
X113516150Y-155969166D01*
X113516150Y-155969166D02*
X113668531Y-156540595D01*
X113668531Y-156540595D02*
X113859008Y-155740595D01*
X114125674Y-156312023D02*
X114506627Y-156312023D01*
X114049484Y-156540595D02*
X114316151Y-155740595D01*
X114316151Y-155740595D02*
X114582817Y-156540595D01*
X115306627Y-156540595D02*
X115039960Y-156159642D01*
X114849484Y-156540595D02*
X114849484Y-155740595D01*
X114849484Y-155740595D02*
X115154246Y-155740595D01*
X115154246Y-155740595D02*
X115230436Y-155778690D01*
X115230436Y-155778690D02*
X115268531Y-155816785D01*
X115268531Y-155816785D02*
X115306627Y-155892976D01*
X115306627Y-155892976D02*
X115306627Y-156007261D01*
X115306627Y-156007261D02*
X115268531Y-156083452D01*
X115268531Y-156083452D02*
X115230436Y-156121547D01*
X115230436Y-156121547D02*
X115154246Y-156159642D01*
X115154246Y-156159642D02*
X114849484Y-156159642D01*
X115649484Y-156540595D02*
X115649484Y-155740595D01*
X115649484Y-155740595D02*
X116106627Y-156540595D01*
X116106627Y-156540595D02*
X116106627Y-155740595D01*
X116487579Y-156540595D02*
X116487579Y-155740595D01*
X116868531Y-156540595D02*
X116868531Y-155740595D01*
X116868531Y-155740595D02*
X117325674Y-156540595D01*
X117325674Y-156540595D02*
X117325674Y-155740595D01*
X118125673Y-155778690D02*
X118049483Y-155740595D01*
X118049483Y-155740595D02*
X117935197Y-155740595D01*
X117935197Y-155740595D02*
X117820911Y-155778690D01*
X117820911Y-155778690D02*
X117744721Y-155854880D01*
X117744721Y-155854880D02*
X117706626Y-155931071D01*
X117706626Y-155931071D02*
X117668530Y-156083452D01*
X117668530Y-156083452D02*
X117668530Y-156197738D01*
X117668530Y-156197738D02*
X117706626Y-156350119D01*
X117706626Y-156350119D02*
X117744721Y-156426309D01*
X117744721Y-156426309D02*
X117820911Y-156502500D01*
X117820911Y-156502500D02*
X117935197Y-156540595D01*
X117935197Y-156540595D02*
X118011388Y-156540595D01*
X118011388Y-156540595D02*
X118125673Y-156502500D01*
X118125673Y-156502500D02*
X118163769Y-156464404D01*
X118163769Y-156464404D02*
X118163769Y-156197738D01*
X118163769Y-156197738D02*
X118011388Y-156197738D01*
X118506626Y-156464404D02*
X118544721Y-156502500D01*
X118544721Y-156502500D02*
X118506626Y-156540595D01*
X118506626Y-156540595D02*
X118468530Y-156502500D01*
X118468530Y-156502500D02*
X118506626Y-156464404D01*
X118506626Y-156464404D02*
X118506626Y-156540595D01*
X118506626Y-156045357D02*
X118544721Y-156083452D01*
X118544721Y-156083452D02*
X118506626Y-156121547D01*
X118506626Y-156121547D02*
X118468530Y-156083452D01*
X118468530Y-156083452D02*
X118506626Y-156045357D01*
X118506626Y-156045357D02*
X118506626Y-156121547D01*
X119497102Y-156540595D02*
X119497102Y-155740595D01*
X119497102Y-155740595D02*
X119687578Y-155740595D01*
X119687578Y-155740595D02*
X119801864Y-155778690D01*
X119801864Y-155778690D02*
X119878054Y-155854880D01*
X119878054Y-155854880D02*
X119916149Y-155931071D01*
X119916149Y-155931071D02*
X119954245Y-156083452D01*
X119954245Y-156083452D02*
X119954245Y-156197738D01*
X119954245Y-156197738D02*
X119916149Y-156350119D01*
X119916149Y-156350119D02*
X119878054Y-156426309D01*
X119878054Y-156426309D02*
X119801864Y-156502500D01*
X119801864Y-156502500D02*
X119687578Y-156540595D01*
X119687578Y-156540595D02*
X119497102Y-156540595D01*
X120297102Y-156540595D02*
X120297102Y-156007261D01*
X120297102Y-155740595D02*
X120259006Y-155778690D01*
X120259006Y-155778690D02*
X120297102Y-155816785D01*
X120297102Y-155816785D02*
X120335197Y-155778690D01*
X120335197Y-155778690D02*
X120297102Y-155740595D01*
X120297102Y-155740595D02*
X120297102Y-155816785D01*
X120639958Y-156502500D02*
X120716149Y-156540595D01*
X120716149Y-156540595D02*
X120868530Y-156540595D01*
X120868530Y-156540595D02*
X120944720Y-156502500D01*
X120944720Y-156502500D02*
X120982816Y-156426309D01*
X120982816Y-156426309D02*
X120982816Y-156388214D01*
X120982816Y-156388214D02*
X120944720Y-156312023D01*
X120944720Y-156312023D02*
X120868530Y-156273928D01*
X120868530Y-156273928D02*
X120754244Y-156273928D01*
X120754244Y-156273928D02*
X120678054Y-156235833D01*
X120678054Y-156235833D02*
X120639958Y-156159642D01*
X120639958Y-156159642D02*
X120639958Y-156121547D01*
X120639958Y-156121547D02*
X120678054Y-156045357D01*
X120678054Y-156045357D02*
X120754244Y-156007261D01*
X120754244Y-156007261D02*
X120868530Y-156007261D01*
X120868530Y-156007261D02*
X120944720Y-156045357D01*
X121668530Y-156540595D02*
X121668530Y-156121547D01*
X121668530Y-156121547D02*
X121630435Y-156045357D01*
X121630435Y-156045357D02*
X121554244Y-156007261D01*
X121554244Y-156007261D02*
X121401863Y-156007261D01*
X121401863Y-156007261D02*
X121325673Y-156045357D01*
X121668530Y-156502500D02*
X121592339Y-156540595D01*
X121592339Y-156540595D02*
X121401863Y-156540595D01*
X121401863Y-156540595D02*
X121325673Y-156502500D01*
X121325673Y-156502500D02*
X121287577Y-156426309D01*
X121287577Y-156426309D02*
X121287577Y-156350119D01*
X121287577Y-156350119D02*
X121325673Y-156273928D01*
X121325673Y-156273928D02*
X121401863Y-156235833D01*
X121401863Y-156235833D02*
X121592339Y-156235833D01*
X121592339Y-156235833D02*
X121668530Y-156197738D01*
X122049483Y-156540595D02*
X122049483Y-155740595D01*
X122049483Y-156045357D02*
X122125673Y-156007261D01*
X122125673Y-156007261D02*
X122278054Y-156007261D01*
X122278054Y-156007261D02*
X122354245Y-156045357D01*
X122354245Y-156045357D02*
X122392340Y-156083452D01*
X122392340Y-156083452D02*
X122430435Y-156159642D01*
X122430435Y-156159642D02*
X122430435Y-156388214D01*
X122430435Y-156388214D02*
X122392340Y-156464404D01*
X122392340Y-156464404D02*
X122354245Y-156502500D01*
X122354245Y-156502500D02*
X122278054Y-156540595D01*
X122278054Y-156540595D02*
X122125673Y-156540595D01*
X122125673Y-156540595D02*
X122049483Y-156502500D01*
X122887578Y-156540595D02*
X122811388Y-156502500D01*
X122811388Y-156502500D02*
X122773293Y-156426309D01*
X122773293Y-156426309D02*
X122773293Y-155740595D01*
X123192341Y-156540595D02*
X123192341Y-156007261D01*
X123192341Y-155740595D02*
X123154245Y-155778690D01*
X123154245Y-155778690D02*
X123192341Y-155816785D01*
X123192341Y-155816785D02*
X123230436Y-155778690D01*
X123230436Y-155778690D02*
X123192341Y-155740595D01*
X123192341Y-155740595D02*
X123192341Y-155816785D01*
X123573293Y-156007261D02*
X123573293Y-156540595D01*
X123573293Y-156083452D02*
X123611388Y-156045357D01*
X123611388Y-156045357D02*
X123687578Y-156007261D01*
X123687578Y-156007261D02*
X123801864Y-156007261D01*
X123801864Y-156007261D02*
X123878055Y-156045357D01*
X123878055Y-156045357D02*
X123916150Y-156121547D01*
X123916150Y-156121547D02*
X123916150Y-156540595D01*
X124639960Y-156007261D02*
X124639960Y-156654880D01*
X124639960Y-156654880D02*
X124601865Y-156731071D01*
X124601865Y-156731071D02*
X124563769Y-156769166D01*
X124563769Y-156769166D02*
X124487579Y-156807261D01*
X124487579Y-156807261D02*
X124373293Y-156807261D01*
X124373293Y-156807261D02*
X124297103Y-156769166D01*
X124639960Y-156502500D02*
X124563769Y-156540595D01*
X124563769Y-156540595D02*
X124411388Y-156540595D01*
X124411388Y-156540595D02*
X124335198Y-156502500D01*
X124335198Y-156502500D02*
X124297103Y-156464404D01*
X124297103Y-156464404D02*
X124259007Y-156388214D01*
X124259007Y-156388214D02*
X124259007Y-156159642D01*
X124259007Y-156159642D02*
X124297103Y-156083452D01*
X124297103Y-156083452D02*
X124335198Y-156045357D01*
X124335198Y-156045357D02*
X124411388Y-156007261D01*
X124411388Y-156007261D02*
X124563769Y-156007261D01*
X124563769Y-156007261D02*
X124639960Y-156045357D01*
X125516151Y-156007261D02*
X125820913Y-156007261D01*
X125630437Y-155740595D02*
X125630437Y-156426309D01*
X125630437Y-156426309D02*
X125668532Y-156502500D01*
X125668532Y-156502500D02*
X125744722Y-156540595D01*
X125744722Y-156540595D02*
X125820913Y-156540595D01*
X126087580Y-156540595D02*
X126087580Y-155740595D01*
X126430437Y-156540595D02*
X126430437Y-156121547D01*
X126430437Y-156121547D02*
X126392342Y-156045357D01*
X126392342Y-156045357D02*
X126316151Y-156007261D01*
X126316151Y-156007261D02*
X126201865Y-156007261D01*
X126201865Y-156007261D02*
X126125675Y-156045357D01*
X126125675Y-156045357D02*
X126087580Y-156083452D01*
X126811390Y-156540595D02*
X126811390Y-156007261D01*
X126811390Y-156159642D02*
X126849485Y-156083452D01*
X126849485Y-156083452D02*
X126887580Y-156045357D01*
X126887580Y-156045357D02*
X126963771Y-156007261D01*
X126963771Y-156007261D02*
X127039961Y-156007261D01*
X127420913Y-156540595D02*
X127344723Y-156502500D01*
X127344723Y-156502500D02*
X127306628Y-156464404D01*
X127306628Y-156464404D02*
X127268532Y-156388214D01*
X127268532Y-156388214D02*
X127268532Y-156159642D01*
X127268532Y-156159642D02*
X127306628Y-156083452D01*
X127306628Y-156083452D02*
X127344723Y-156045357D01*
X127344723Y-156045357D02*
X127420913Y-156007261D01*
X127420913Y-156007261D02*
X127535199Y-156007261D01*
X127535199Y-156007261D02*
X127611390Y-156045357D01*
X127611390Y-156045357D02*
X127649485Y-156083452D01*
X127649485Y-156083452D02*
X127687580Y-156159642D01*
X127687580Y-156159642D02*
X127687580Y-156388214D01*
X127687580Y-156388214D02*
X127649485Y-156464404D01*
X127649485Y-156464404D02*
X127611390Y-156502500D01*
X127611390Y-156502500D02*
X127535199Y-156540595D01*
X127535199Y-156540595D02*
X127420913Y-156540595D01*
X127916152Y-156007261D02*
X128220914Y-156007261D01*
X128030438Y-155740595D02*
X128030438Y-156426309D01*
X128030438Y-156426309D02*
X128068533Y-156502500D01*
X128068533Y-156502500D02*
X128144723Y-156540595D01*
X128144723Y-156540595D02*
X128220914Y-156540595D01*
X128373295Y-156007261D02*
X128678057Y-156007261D01*
X128487581Y-155740595D02*
X128487581Y-156426309D01*
X128487581Y-156426309D02*
X128525676Y-156502500D01*
X128525676Y-156502500D02*
X128601866Y-156540595D01*
X128601866Y-156540595D02*
X128678057Y-156540595D01*
X129059009Y-156540595D02*
X128982819Y-156502500D01*
X128982819Y-156502500D02*
X128944724Y-156426309D01*
X128944724Y-156426309D02*
X128944724Y-155740595D01*
X129668534Y-156502500D02*
X129592343Y-156540595D01*
X129592343Y-156540595D02*
X129439962Y-156540595D01*
X129439962Y-156540595D02*
X129363772Y-156502500D01*
X129363772Y-156502500D02*
X129325676Y-156426309D01*
X129325676Y-156426309D02*
X129325676Y-156121547D01*
X129325676Y-156121547D02*
X129363772Y-156045357D01*
X129363772Y-156045357D02*
X129439962Y-156007261D01*
X129439962Y-156007261D02*
X129592343Y-156007261D01*
X129592343Y-156007261D02*
X129668534Y-156045357D01*
X129668534Y-156045357D02*
X129706629Y-156121547D01*
X129706629Y-156121547D02*
X129706629Y-156197738D01*
X129706629Y-156197738D02*
X129325676Y-156273928D01*
X130659010Y-156540595D02*
X130659010Y-156007261D01*
X130659010Y-155740595D02*
X130620914Y-155778690D01*
X130620914Y-155778690D02*
X130659010Y-155816785D01*
X130659010Y-155816785D02*
X130697105Y-155778690D01*
X130697105Y-155778690D02*
X130659010Y-155740595D01*
X130659010Y-155740595D02*
X130659010Y-155816785D01*
X131001866Y-156502500D02*
X131078057Y-156540595D01*
X131078057Y-156540595D02*
X131230438Y-156540595D01*
X131230438Y-156540595D02*
X131306628Y-156502500D01*
X131306628Y-156502500D02*
X131344724Y-156426309D01*
X131344724Y-156426309D02*
X131344724Y-156388214D01*
X131344724Y-156388214D02*
X131306628Y-156312023D01*
X131306628Y-156312023D02*
X131230438Y-156273928D01*
X131230438Y-156273928D02*
X131116152Y-156273928D01*
X131116152Y-156273928D02*
X131039962Y-156235833D01*
X131039962Y-156235833D02*
X131001866Y-156159642D01*
X131001866Y-156159642D02*
X131001866Y-156121547D01*
X131001866Y-156121547D02*
X131039962Y-156045357D01*
X131039962Y-156045357D02*
X131116152Y-156007261D01*
X131116152Y-156007261D02*
X131230438Y-156007261D01*
X131230438Y-156007261D02*
X131306628Y-156045357D01*
X132297105Y-156540595D02*
X132297105Y-155740595D01*
X132373295Y-156235833D02*
X132601867Y-156540595D01*
X132601867Y-156007261D02*
X132297105Y-156312023D01*
X132944724Y-156007261D02*
X132944724Y-156540595D01*
X132944724Y-156083452D02*
X132982819Y-156045357D01*
X132982819Y-156045357D02*
X133059009Y-156007261D01*
X133059009Y-156007261D02*
X133173295Y-156007261D01*
X133173295Y-156007261D02*
X133249486Y-156045357D01*
X133249486Y-156045357D02*
X133287581Y-156121547D01*
X133287581Y-156121547D02*
X133287581Y-156540595D01*
X133782819Y-156540595D02*
X133706629Y-156502500D01*
X133706629Y-156502500D02*
X133668534Y-156464404D01*
X133668534Y-156464404D02*
X133630438Y-156388214D01*
X133630438Y-156388214D02*
X133630438Y-156159642D01*
X133630438Y-156159642D02*
X133668534Y-156083452D01*
X133668534Y-156083452D02*
X133706629Y-156045357D01*
X133706629Y-156045357D02*
X133782819Y-156007261D01*
X133782819Y-156007261D02*
X133897105Y-156007261D01*
X133897105Y-156007261D02*
X133973296Y-156045357D01*
X133973296Y-156045357D02*
X134011391Y-156083452D01*
X134011391Y-156083452D02*
X134049486Y-156159642D01*
X134049486Y-156159642D02*
X134049486Y-156388214D01*
X134049486Y-156388214D02*
X134011391Y-156464404D01*
X134011391Y-156464404D02*
X133973296Y-156502500D01*
X133973296Y-156502500D02*
X133897105Y-156540595D01*
X133897105Y-156540595D02*
X133782819Y-156540595D01*
X134316153Y-156007261D02*
X134468534Y-156540595D01*
X134468534Y-156540595D02*
X134620915Y-156159642D01*
X134620915Y-156159642D02*
X134773296Y-156540595D01*
X134773296Y-156540595D02*
X134925677Y-156007261D01*
X135230439Y-156007261D02*
X135230439Y-156540595D01*
X135230439Y-156083452D02*
X135268534Y-156045357D01*
X135268534Y-156045357D02*
X135344724Y-156007261D01*
X135344724Y-156007261D02*
X135459010Y-156007261D01*
X135459010Y-156007261D02*
X135535201Y-156045357D01*
X135535201Y-156045357D02*
X135573296Y-156121547D01*
X135573296Y-156121547D02*
X135573296Y-156540595D01*
X136449487Y-156007261D02*
X136754249Y-156007261D01*
X136563773Y-155740595D02*
X136563773Y-156426309D01*
X136563773Y-156426309D02*
X136601868Y-156502500D01*
X136601868Y-156502500D02*
X136678058Y-156540595D01*
X136678058Y-156540595D02*
X136754249Y-156540595D01*
X137135201Y-156540595D02*
X137059011Y-156502500D01*
X137059011Y-156502500D02*
X137020916Y-156464404D01*
X137020916Y-156464404D02*
X136982820Y-156388214D01*
X136982820Y-156388214D02*
X136982820Y-156159642D01*
X136982820Y-156159642D02*
X137020916Y-156083452D01*
X137020916Y-156083452D02*
X137059011Y-156045357D01*
X137059011Y-156045357D02*
X137135201Y-156007261D01*
X137135201Y-156007261D02*
X137249487Y-156007261D01*
X137249487Y-156007261D02*
X137325678Y-156045357D01*
X137325678Y-156045357D02*
X137363773Y-156083452D01*
X137363773Y-156083452D02*
X137401868Y-156159642D01*
X137401868Y-156159642D02*
X137401868Y-156388214D01*
X137401868Y-156388214D02*
X137363773Y-156464404D01*
X137363773Y-156464404D02*
X137325678Y-156502500D01*
X137325678Y-156502500D02*
X137249487Y-156540595D01*
X137249487Y-156540595D02*
X137135201Y-156540595D01*
X119025274Y-157257461D02*
X119330036Y-157257461D01*
X119139560Y-156990795D02*
X119139560Y-157676509D01*
X119139560Y-157676509D02*
X119177655Y-157752700D01*
X119177655Y-157752700D02*
X119253845Y-157790795D01*
X119253845Y-157790795D02*
X119330036Y-157790795D01*
X119596703Y-157790795D02*
X119596703Y-156990795D01*
X119939560Y-157790795D02*
X119939560Y-157371747D01*
X119939560Y-157371747D02*
X119901465Y-157295557D01*
X119901465Y-157295557D02*
X119825274Y-157257461D01*
X119825274Y-157257461D02*
X119710988Y-157257461D01*
X119710988Y-157257461D02*
X119634798Y-157295557D01*
X119634798Y-157295557D02*
X119596703Y-157333652D01*
X120625275Y-157752700D02*
X120549084Y-157790795D01*
X120549084Y-157790795D02*
X120396703Y-157790795D01*
X120396703Y-157790795D02*
X120320513Y-157752700D01*
X120320513Y-157752700D02*
X120282417Y-157676509D01*
X120282417Y-157676509D02*
X120282417Y-157371747D01*
X120282417Y-157371747D02*
X120320513Y-157295557D01*
X120320513Y-157295557D02*
X120396703Y-157257461D01*
X120396703Y-157257461D02*
X120549084Y-157257461D01*
X120549084Y-157257461D02*
X120625275Y-157295557D01*
X120625275Y-157295557D02*
X120663370Y-157371747D01*
X120663370Y-157371747D02*
X120663370Y-157447938D01*
X120663370Y-157447938D02*
X120282417Y-157524128D01*
X121577655Y-157752700D02*
X121691941Y-157790795D01*
X121691941Y-157790795D02*
X121882417Y-157790795D01*
X121882417Y-157790795D02*
X121958608Y-157752700D01*
X121958608Y-157752700D02*
X121996703Y-157714604D01*
X121996703Y-157714604D02*
X122034798Y-157638414D01*
X122034798Y-157638414D02*
X122034798Y-157562223D01*
X122034798Y-157562223D02*
X121996703Y-157486033D01*
X121996703Y-157486033D02*
X121958608Y-157447938D01*
X121958608Y-157447938D02*
X121882417Y-157409842D01*
X121882417Y-157409842D02*
X121730036Y-157371747D01*
X121730036Y-157371747D02*
X121653846Y-157333652D01*
X121653846Y-157333652D02*
X121615751Y-157295557D01*
X121615751Y-157295557D02*
X121577655Y-157219366D01*
X121577655Y-157219366D02*
X121577655Y-157143176D01*
X121577655Y-157143176D02*
X121615751Y-157066985D01*
X121615751Y-157066985D02*
X121653846Y-157028890D01*
X121653846Y-157028890D02*
X121730036Y-156990795D01*
X121730036Y-156990795D02*
X121920513Y-156990795D01*
X121920513Y-156990795D02*
X122034798Y-157028890D01*
X122263370Y-157257461D02*
X122568132Y-157257461D01*
X122377656Y-156990795D02*
X122377656Y-157676509D01*
X122377656Y-157676509D02*
X122415751Y-157752700D01*
X122415751Y-157752700D02*
X122491941Y-157790795D01*
X122491941Y-157790795D02*
X122568132Y-157790795D01*
X123177656Y-157790795D02*
X123177656Y-157371747D01*
X123177656Y-157371747D02*
X123139561Y-157295557D01*
X123139561Y-157295557D02*
X123063370Y-157257461D01*
X123063370Y-157257461D02*
X122910989Y-157257461D01*
X122910989Y-157257461D02*
X122834799Y-157295557D01*
X123177656Y-157752700D02*
X123101465Y-157790795D01*
X123101465Y-157790795D02*
X122910989Y-157790795D01*
X122910989Y-157790795D02*
X122834799Y-157752700D01*
X122834799Y-157752700D02*
X122796703Y-157676509D01*
X122796703Y-157676509D02*
X122796703Y-157600319D01*
X122796703Y-157600319D02*
X122834799Y-157524128D01*
X122834799Y-157524128D02*
X122910989Y-157486033D01*
X122910989Y-157486033D02*
X123101465Y-157486033D01*
X123101465Y-157486033D02*
X123177656Y-157447938D01*
X123444323Y-157257461D02*
X123749085Y-157257461D01*
X123558609Y-156990795D02*
X123558609Y-157676509D01*
X123558609Y-157676509D02*
X123596704Y-157752700D01*
X123596704Y-157752700D02*
X123672894Y-157790795D01*
X123672894Y-157790795D02*
X123749085Y-157790795D01*
X124320514Y-157752700D02*
X124244323Y-157790795D01*
X124244323Y-157790795D02*
X124091942Y-157790795D01*
X124091942Y-157790795D02*
X124015752Y-157752700D01*
X124015752Y-157752700D02*
X123977656Y-157676509D01*
X123977656Y-157676509D02*
X123977656Y-157371747D01*
X123977656Y-157371747D02*
X124015752Y-157295557D01*
X124015752Y-157295557D02*
X124091942Y-157257461D01*
X124091942Y-157257461D02*
X124244323Y-157257461D01*
X124244323Y-157257461D02*
X124320514Y-157295557D01*
X124320514Y-157295557D02*
X124358609Y-157371747D01*
X124358609Y-157371747D02*
X124358609Y-157447938D01*
X124358609Y-157447938D02*
X123977656Y-157524128D01*
X125425275Y-157790795D02*
X125349085Y-157752700D01*
X125349085Y-157752700D02*
X125310990Y-157714604D01*
X125310990Y-157714604D02*
X125272894Y-157638414D01*
X125272894Y-157638414D02*
X125272894Y-157409842D01*
X125272894Y-157409842D02*
X125310990Y-157333652D01*
X125310990Y-157333652D02*
X125349085Y-157295557D01*
X125349085Y-157295557D02*
X125425275Y-157257461D01*
X125425275Y-157257461D02*
X125539561Y-157257461D01*
X125539561Y-157257461D02*
X125615752Y-157295557D01*
X125615752Y-157295557D02*
X125653847Y-157333652D01*
X125653847Y-157333652D02*
X125691942Y-157409842D01*
X125691942Y-157409842D02*
X125691942Y-157638414D01*
X125691942Y-157638414D02*
X125653847Y-157714604D01*
X125653847Y-157714604D02*
X125615752Y-157752700D01*
X125615752Y-157752700D02*
X125539561Y-157790795D01*
X125539561Y-157790795D02*
X125425275Y-157790795D01*
X125920514Y-157257461D02*
X126225276Y-157257461D01*
X126034800Y-157790795D02*
X126034800Y-157105080D01*
X126034800Y-157105080D02*
X126072895Y-157028890D01*
X126072895Y-157028890D02*
X126149085Y-156990795D01*
X126149085Y-156990795D02*
X126225276Y-156990795D01*
X127101467Y-157790795D02*
X127101467Y-156990795D01*
X127558610Y-157790795D02*
X127215752Y-157333652D01*
X127558610Y-156990795D02*
X127101467Y-157447938D01*
X128244324Y-157790795D02*
X128244324Y-157371747D01*
X128244324Y-157371747D02*
X128206229Y-157295557D01*
X128206229Y-157295557D02*
X128130038Y-157257461D01*
X128130038Y-157257461D02*
X127977657Y-157257461D01*
X127977657Y-157257461D02*
X127901467Y-157295557D01*
X128244324Y-157752700D02*
X128168133Y-157790795D01*
X128168133Y-157790795D02*
X127977657Y-157790795D01*
X127977657Y-157790795D02*
X127901467Y-157752700D01*
X127901467Y-157752700D02*
X127863371Y-157676509D01*
X127863371Y-157676509D02*
X127863371Y-157600319D01*
X127863371Y-157600319D02*
X127901467Y-157524128D01*
X127901467Y-157524128D02*
X127977657Y-157486033D01*
X127977657Y-157486033D02*
X128168133Y-157486033D01*
X128168133Y-157486033D02*
X128244324Y-157447938D01*
X128739562Y-157790795D02*
X128663372Y-157752700D01*
X128663372Y-157752700D02*
X128625277Y-157676509D01*
X128625277Y-157676509D02*
X128625277Y-156990795D01*
X129044325Y-157790795D02*
X129044325Y-157257461D01*
X129044325Y-156990795D02*
X129006229Y-157028890D01*
X129006229Y-157028890D02*
X129044325Y-157066985D01*
X129044325Y-157066985D02*
X129082420Y-157028890D01*
X129082420Y-157028890D02*
X129044325Y-156990795D01*
X129044325Y-156990795D02*
X129044325Y-157066985D01*
X129310991Y-157257461D02*
X129615753Y-157257461D01*
X129425277Y-157790795D02*
X129425277Y-157105080D01*
X129425277Y-157105080D02*
X129463372Y-157028890D01*
X129463372Y-157028890D02*
X129539562Y-156990795D01*
X129539562Y-156990795D02*
X129615753Y-156990795D01*
X129996705Y-157790795D02*
X129920515Y-157752700D01*
X129920515Y-157752700D02*
X129882420Y-157714604D01*
X129882420Y-157714604D02*
X129844324Y-157638414D01*
X129844324Y-157638414D02*
X129844324Y-157409842D01*
X129844324Y-157409842D02*
X129882420Y-157333652D01*
X129882420Y-157333652D02*
X129920515Y-157295557D01*
X129920515Y-157295557D02*
X129996705Y-157257461D01*
X129996705Y-157257461D02*
X130110991Y-157257461D01*
X130110991Y-157257461D02*
X130187182Y-157295557D01*
X130187182Y-157295557D02*
X130225277Y-157333652D01*
X130225277Y-157333652D02*
X130263372Y-157409842D01*
X130263372Y-157409842D02*
X130263372Y-157638414D01*
X130263372Y-157638414D02*
X130225277Y-157714604D01*
X130225277Y-157714604D02*
X130187182Y-157752700D01*
X130187182Y-157752700D02*
X130110991Y-157790795D01*
X130110991Y-157790795D02*
X129996705Y-157790795D01*
X130606230Y-157790795D02*
X130606230Y-157257461D01*
X130606230Y-157409842D02*
X130644325Y-157333652D01*
X130644325Y-157333652D02*
X130682420Y-157295557D01*
X130682420Y-157295557D02*
X130758611Y-157257461D01*
X130758611Y-157257461D02*
X130834801Y-157257461D01*
X131101468Y-157257461D02*
X131101468Y-157790795D01*
X131101468Y-157333652D02*
X131139563Y-157295557D01*
X131139563Y-157295557D02*
X131215753Y-157257461D01*
X131215753Y-157257461D02*
X131330039Y-157257461D01*
X131330039Y-157257461D02*
X131406230Y-157295557D01*
X131406230Y-157295557D02*
X131444325Y-157371747D01*
X131444325Y-157371747D02*
X131444325Y-157790795D01*
X131825278Y-157790795D02*
X131825278Y-157257461D01*
X131825278Y-156990795D02*
X131787182Y-157028890D01*
X131787182Y-157028890D02*
X131825278Y-157066985D01*
X131825278Y-157066985D02*
X131863373Y-157028890D01*
X131863373Y-157028890D02*
X131825278Y-156990795D01*
X131825278Y-156990795D02*
X131825278Y-157066985D01*
X132549087Y-157790795D02*
X132549087Y-157371747D01*
X132549087Y-157371747D02*
X132510992Y-157295557D01*
X132510992Y-157295557D02*
X132434801Y-157257461D01*
X132434801Y-157257461D02*
X132282420Y-157257461D01*
X132282420Y-157257461D02*
X132206230Y-157295557D01*
X132549087Y-157752700D02*
X132472896Y-157790795D01*
X132472896Y-157790795D02*
X132282420Y-157790795D01*
X132282420Y-157790795D02*
X132206230Y-157752700D01*
X132206230Y-157752700D02*
X132168134Y-157676509D01*
X132168134Y-157676509D02*
X132168134Y-157600319D01*
X132168134Y-157600319D02*
X132206230Y-157524128D01*
X132206230Y-157524128D02*
X132282420Y-157486033D01*
X132282420Y-157486033D02*
X132472896Y-157486033D01*
X132472896Y-157486033D02*
X132549087Y-157447938D01*
X133425278Y-157257461D02*
X133730040Y-157257461D01*
X133539564Y-156990795D02*
X133539564Y-157676509D01*
X133539564Y-157676509D02*
X133577659Y-157752700D01*
X133577659Y-157752700D02*
X133653849Y-157790795D01*
X133653849Y-157790795D02*
X133730040Y-157790795D01*
X134110992Y-157790795D02*
X134034802Y-157752700D01*
X134034802Y-157752700D02*
X133996707Y-157714604D01*
X133996707Y-157714604D02*
X133958611Y-157638414D01*
X133958611Y-157638414D02*
X133958611Y-157409842D01*
X133958611Y-157409842D02*
X133996707Y-157333652D01*
X133996707Y-157333652D02*
X134034802Y-157295557D01*
X134034802Y-157295557D02*
X134110992Y-157257461D01*
X134110992Y-157257461D02*
X134225278Y-157257461D01*
X134225278Y-157257461D02*
X134301469Y-157295557D01*
X134301469Y-157295557D02*
X134339564Y-157333652D01*
X134339564Y-157333652D02*
X134377659Y-157409842D01*
X134377659Y-157409842D02*
X134377659Y-157638414D01*
X134377659Y-157638414D02*
X134339564Y-157714604D01*
X134339564Y-157714604D02*
X134301469Y-157752700D01*
X134301469Y-157752700D02*
X134225278Y-157790795D01*
X134225278Y-157790795D02*
X134110992Y-157790795D01*
X135330041Y-157257461D02*
X135330041Y-157790795D01*
X135330041Y-157333652D02*
X135368136Y-157295557D01*
X135368136Y-157295557D02*
X135444326Y-157257461D01*
X135444326Y-157257461D02*
X135558612Y-157257461D01*
X135558612Y-157257461D02*
X135634803Y-157295557D01*
X135634803Y-157295557D02*
X135672898Y-157371747D01*
X135672898Y-157371747D02*
X135672898Y-157790795D01*
X136358613Y-157752700D02*
X136282422Y-157790795D01*
X136282422Y-157790795D02*
X136130041Y-157790795D01*
X136130041Y-157790795D02*
X136053851Y-157752700D01*
X136053851Y-157752700D02*
X136015755Y-157676509D01*
X136015755Y-157676509D02*
X136015755Y-157371747D01*
X136015755Y-157371747D02*
X136053851Y-157295557D01*
X136053851Y-157295557D02*
X136130041Y-157257461D01*
X136130041Y-157257461D02*
X136282422Y-157257461D01*
X136282422Y-157257461D02*
X136358613Y-157295557D01*
X136358613Y-157295557D02*
X136396708Y-157371747D01*
X136396708Y-157371747D02*
X136396708Y-157447938D01*
X136396708Y-157447938D02*
X136015755Y-157524128D01*
X137082422Y-157257461D02*
X137082422Y-157905080D01*
X137082422Y-157905080D02*
X137044327Y-157981271D01*
X137044327Y-157981271D02*
X137006231Y-158019366D01*
X137006231Y-158019366D02*
X136930041Y-158057461D01*
X136930041Y-158057461D02*
X136815755Y-158057461D01*
X136815755Y-158057461D02*
X136739565Y-158019366D01*
X137082422Y-157752700D02*
X137006231Y-157790795D01*
X137006231Y-157790795D02*
X136853850Y-157790795D01*
X136853850Y-157790795D02*
X136777660Y-157752700D01*
X136777660Y-157752700D02*
X136739565Y-157714604D01*
X136739565Y-157714604D02*
X136701469Y-157638414D01*
X136701469Y-157638414D02*
X136701469Y-157409842D01*
X136701469Y-157409842D02*
X136739565Y-157333652D01*
X136739565Y-157333652D02*
X136777660Y-157295557D01*
X136777660Y-157295557D02*
X136853850Y-157257461D01*
X136853850Y-157257461D02*
X137006231Y-157257461D01*
X137006231Y-157257461D02*
X137082422Y-157295557D01*
X137806232Y-157790795D02*
X137806232Y-157371747D01*
X137806232Y-157371747D02*
X137768137Y-157295557D01*
X137768137Y-157295557D02*
X137691946Y-157257461D01*
X137691946Y-157257461D02*
X137539565Y-157257461D01*
X137539565Y-157257461D02*
X137463375Y-157295557D01*
X137806232Y-157752700D02*
X137730041Y-157790795D01*
X137730041Y-157790795D02*
X137539565Y-157790795D01*
X137539565Y-157790795D02*
X137463375Y-157752700D01*
X137463375Y-157752700D02*
X137425279Y-157676509D01*
X137425279Y-157676509D02*
X137425279Y-157600319D01*
X137425279Y-157600319D02*
X137463375Y-157524128D01*
X137463375Y-157524128D02*
X137539565Y-157486033D01*
X137539565Y-157486033D02*
X137730041Y-157486033D01*
X137730041Y-157486033D02*
X137806232Y-157447938D01*
X138072899Y-157257461D02*
X138377661Y-157257461D01*
X138187185Y-156990795D02*
X138187185Y-157676509D01*
X138187185Y-157676509D02*
X138225280Y-157752700D01*
X138225280Y-157752700D02*
X138301470Y-157790795D01*
X138301470Y-157790795D02*
X138377661Y-157790795D01*
X138644328Y-157790795D02*
X138644328Y-157257461D01*
X138644328Y-156990795D02*
X138606232Y-157028890D01*
X138606232Y-157028890D02*
X138644328Y-157066985D01*
X138644328Y-157066985D02*
X138682423Y-157028890D01*
X138682423Y-157028890D02*
X138644328Y-156990795D01*
X138644328Y-156990795D02*
X138644328Y-157066985D01*
X138949089Y-157257461D02*
X139139565Y-157790795D01*
X139139565Y-157790795D02*
X139330042Y-157257461D01*
X139939566Y-157752700D02*
X139863375Y-157790795D01*
X139863375Y-157790795D02*
X139710994Y-157790795D01*
X139710994Y-157790795D02*
X139634804Y-157752700D01*
X139634804Y-157752700D02*
X139596708Y-157676509D01*
X139596708Y-157676509D02*
X139596708Y-157371747D01*
X139596708Y-157371747D02*
X139634804Y-157295557D01*
X139634804Y-157295557D02*
X139710994Y-157257461D01*
X139710994Y-157257461D02*
X139863375Y-157257461D01*
X139863375Y-157257461D02*
X139939566Y-157295557D01*
X139939566Y-157295557D02*
X139977661Y-157371747D01*
X139977661Y-157371747D02*
X139977661Y-157447938D01*
X139977661Y-157447938D02*
X139596708Y-157524128D01*
X140434803Y-157790795D02*
X140358613Y-157752700D01*
X140358613Y-157752700D02*
X140320518Y-157676509D01*
X140320518Y-157676509D02*
X140320518Y-156990795D01*
X140663375Y-157257461D02*
X140853851Y-157790795D01*
X141044328Y-157257461D02*
X140853851Y-157790795D01*
X140853851Y-157790795D02*
X140777661Y-157981271D01*
X140777661Y-157981271D02*
X140739566Y-158019366D01*
X140739566Y-158019366D02*
X140663375Y-158057461D01*
X119482417Y-159040795D02*
X119482417Y-158621747D01*
X119482417Y-158621747D02*
X119444322Y-158545557D01*
X119444322Y-158545557D02*
X119368131Y-158507461D01*
X119368131Y-158507461D02*
X119215750Y-158507461D01*
X119215750Y-158507461D02*
X119139560Y-158545557D01*
X119482417Y-159002700D02*
X119406226Y-159040795D01*
X119406226Y-159040795D02*
X119215750Y-159040795D01*
X119215750Y-159040795D02*
X119139560Y-159002700D01*
X119139560Y-159002700D02*
X119101464Y-158926509D01*
X119101464Y-158926509D02*
X119101464Y-158850319D01*
X119101464Y-158850319D02*
X119139560Y-158774128D01*
X119139560Y-158774128D02*
X119215750Y-158736033D01*
X119215750Y-158736033D02*
X119406226Y-158736033D01*
X119406226Y-158736033D02*
X119482417Y-158697938D01*
X119749084Y-158507461D02*
X120053846Y-158507461D01*
X119863370Y-159040795D02*
X119863370Y-158355080D01*
X119863370Y-158355080D02*
X119901465Y-158278890D01*
X119901465Y-158278890D02*
X119977655Y-158240795D01*
X119977655Y-158240795D02*
X120053846Y-158240795D01*
X120206227Y-158507461D02*
X120510989Y-158507461D01*
X120320513Y-159040795D02*
X120320513Y-158355080D01*
X120320513Y-158355080D02*
X120358608Y-158278890D01*
X120358608Y-158278890D02*
X120434798Y-158240795D01*
X120434798Y-158240795D02*
X120510989Y-158240795D01*
X121082418Y-159002700D02*
X121006227Y-159040795D01*
X121006227Y-159040795D02*
X120853846Y-159040795D01*
X120853846Y-159040795D02*
X120777656Y-159002700D01*
X120777656Y-159002700D02*
X120739560Y-158926509D01*
X120739560Y-158926509D02*
X120739560Y-158621747D01*
X120739560Y-158621747D02*
X120777656Y-158545557D01*
X120777656Y-158545557D02*
X120853846Y-158507461D01*
X120853846Y-158507461D02*
X121006227Y-158507461D01*
X121006227Y-158507461D02*
X121082418Y-158545557D01*
X121082418Y-158545557D02*
X121120513Y-158621747D01*
X121120513Y-158621747D02*
X121120513Y-158697938D01*
X121120513Y-158697938D02*
X120739560Y-158774128D01*
X121806227Y-159002700D02*
X121730036Y-159040795D01*
X121730036Y-159040795D02*
X121577655Y-159040795D01*
X121577655Y-159040795D02*
X121501465Y-159002700D01*
X121501465Y-159002700D02*
X121463370Y-158964604D01*
X121463370Y-158964604D02*
X121425274Y-158888414D01*
X121425274Y-158888414D02*
X121425274Y-158659842D01*
X121425274Y-158659842D02*
X121463370Y-158583652D01*
X121463370Y-158583652D02*
X121501465Y-158545557D01*
X121501465Y-158545557D02*
X121577655Y-158507461D01*
X121577655Y-158507461D02*
X121730036Y-158507461D01*
X121730036Y-158507461D02*
X121806227Y-158545557D01*
X122034798Y-158507461D02*
X122339560Y-158507461D01*
X122149084Y-158240795D02*
X122149084Y-158926509D01*
X122149084Y-158926509D02*
X122187179Y-159002700D01*
X122187179Y-159002700D02*
X122263369Y-159040795D01*
X122263369Y-159040795D02*
X122339560Y-159040795D01*
X123330036Y-159040795D02*
X123253846Y-159002700D01*
X123253846Y-159002700D02*
X123215751Y-158926509D01*
X123215751Y-158926509D02*
X123215751Y-158240795D01*
X123939561Y-159002700D02*
X123863370Y-159040795D01*
X123863370Y-159040795D02*
X123710989Y-159040795D01*
X123710989Y-159040795D02*
X123634799Y-159002700D01*
X123634799Y-159002700D02*
X123596703Y-158926509D01*
X123596703Y-158926509D02*
X123596703Y-158621747D01*
X123596703Y-158621747D02*
X123634799Y-158545557D01*
X123634799Y-158545557D02*
X123710989Y-158507461D01*
X123710989Y-158507461D02*
X123863370Y-158507461D01*
X123863370Y-158507461D02*
X123939561Y-158545557D01*
X123939561Y-158545557D02*
X123977656Y-158621747D01*
X123977656Y-158621747D02*
X123977656Y-158697938D01*
X123977656Y-158697938D02*
X123596703Y-158774128D01*
X124244322Y-158507461D02*
X124434798Y-159040795D01*
X124434798Y-159040795D02*
X124625275Y-158507461D01*
X125234799Y-159002700D02*
X125158608Y-159040795D01*
X125158608Y-159040795D02*
X125006227Y-159040795D01*
X125006227Y-159040795D02*
X124930037Y-159002700D01*
X124930037Y-159002700D02*
X124891941Y-158926509D01*
X124891941Y-158926509D02*
X124891941Y-158621747D01*
X124891941Y-158621747D02*
X124930037Y-158545557D01*
X124930037Y-158545557D02*
X125006227Y-158507461D01*
X125006227Y-158507461D02*
X125158608Y-158507461D01*
X125158608Y-158507461D02*
X125234799Y-158545557D01*
X125234799Y-158545557D02*
X125272894Y-158621747D01*
X125272894Y-158621747D02*
X125272894Y-158697938D01*
X125272894Y-158697938D02*
X124891941Y-158774128D01*
X125730036Y-159040795D02*
X125653846Y-159002700D01*
X125653846Y-159002700D02*
X125615751Y-158926509D01*
X125615751Y-158926509D02*
X125615751Y-158240795D01*
X125996703Y-159002700D02*
X126072894Y-159040795D01*
X126072894Y-159040795D02*
X126225275Y-159040795D01*
X126225275Y-159040795D02*
X126301465Y-159002700D01*
X126301465Y-159002700D02*
X126339561Y-158926509D01*
X126339561Y-158926509D02*
X126339561Y-158888414D01*
X126339561Y-158888414D02*
X126301465Y-158812223D01*
X126301465Y-158812223D02*
X126225275Y-158774128D01*
X126225275Y-158774128D02*
X126110989Y-158774128D01*
X126110989Y-158774128D02*
X126034799Y-158736033D01*
X126034799Y-158736033D02*
X125996703Y-158659842D01*
X125996703Y-158659842D02*
X125996703Y-158621747D01*
X125996703Y-158621747D02*
X126034799Y-158545557D01*
X126034799Y-158545557D02*
X126110989Y-158507461D01*
X126110989Y-158507461D02*
X126225275Y-158507461D01*
X126225275Y-158507461D02*
X126301465Y-158545557D01*
X127406227Y-159040795D02*
X127330037Y-159002700D01*
X127330037Y-159002700D02*
X127291942Y-158964604D01*
X127291942Y-158964604D02*
X127253846Y-158888414D01*
X127253846Y-158888414D02*
X127253846Y-158659842D01*
X127253846Y-158659842D02*
X127291942Y-158583652D01*
X127291942Y-158583652D02*
X127330037Y-158545557D01*
X127330037Y-158545557D02*
X127406227Y-158507461D01*
X127406227Y-158507461D02*
X127520513Y-158507461D01*
X127520513Y-158507461D02*
X127596704Y-158545557D01*
X127596704Y-158545557D02*
X127634799Y-158583652D01*
X127634799Y-158583652D02*
X127672894Y-158659842D01*
X127672894Y-158659842D02*
X127672894Y-158888414D01*
X127672894Y-158888414D02*
X127634799Y-158964604D01*
X127634799Y-158964604D02*
X127596704Y-159002700D01*
X127596704Y-159002700D02*
X127520513Y-159040795D01*
X127520513Y-159040795D02*
X127406227Y-159040795D01*
X127901466Y-158507461D02*
X128206228Y-158507461D01*
X128015752Y-159040795D02*
X128015752Y-158355080D01*
X128015752Y-158355080D02*
X128053847Y-158278890D01*
X128053847Y-158278890D02*
X128130037Y-158240795D01*
X128130037Y-158240795D02*
X128206228Y-158240795D01*
X128968133Y-158507461D02*
X129272895Y-158507461D01*
X129082419Y-159040795D02*
X129082419Y-158355080D01*
X129082419Y-158355080D02*
X129120514Y-158278890D01*
X129120514Y-158278890D02*
X129196704Y-158240795D01*
X129196704Y-158240795D02*
X129272895Y-158240795D01*
X129882419Y-158507461D02*
X129882419Y-159040795D01*
X129539562Y-158507461D02*
X129539562Y-158926509D01*
X129539562Y-158926509D02*
X129577657Y-159002700D01*
X129577657Y-159002700D02*
X129653847Y-159040795D01*
X129653847Y-159040795D02*
X129768133Y-159040795D01*
X129768133Y-159040795D02*
X129844324Y-159002700D01*
X129844324Y-159002700D02*
X129882419Y-158964604D01*
X130263372Y-158507461D02*
X130263372Y-159040795D01*
X130263372Y-158583652D02*
X130301467Y-158545557D01*
X130301467Y-158545557D02*
X130377657Y-158507461D01*
X130377657Y-158507461D02*
X130491943Y-158507461D01*
X130491943Y-158507461D02*
X130568134Y-158545557D01*
X130568134Y-158545557D02*
X130606229Y-158621747D01*
X130606229Y-158621747D02*
X130606229Y-159040795D01*
X130987182Y-158964604D02*
X131025277Y-159002700D01*
X131025277Y-159002700D02*
X130987182Y-159040795D01*
X130987182Y-159040795D02*
X130949086Y-159002700D01*
X130949086Y-159002700D02*
X130987182Y-158964604D01*
X130987182Y-158964604D02*
X130987182Y-159040795D01*
X131977658Y-158240795D02*
X131977658Y-158888414D01*
X131977658Y-158888414D02*
X132015753Y-158964604D01*
X132015753Y-158964604D02*
X132053848Y-159002700D01*
X132053848Y-159002700D02*
X132130039Y-159040795D01*
X132130039Y-159040795D02*
X132282420Y-159040795D01*
X132282420Y-159040795D02*
X132358610Y-159002700D01*
X132358610Y-159002700D02*
X132396705Y-158964604D01*
X132396705Y-158964604D02*
X132434801Y-158888414D01*
X132434801Y-158888414D02*
X132434801Y-158240795D01*
X132777657Y-159002700D02*
X132853848Y-159040795D01*
X132853848Y-159040795D02*
X133006229Y-159040795D01*
X133006229Y-159040795D02*
X133082419Y-159002700D01*
X133082419Y-159002700D02*
X133120515Y-158926509D01*
X133120515Y-158926509D02*
X133120515Y-158888414D01*
X133120515Y-158888414D02*
X133082419Y-158812223D01*
X133082419Y-158812223D02*
X133006229Y-158774128D01*
X133006229Y-158774128D02*
X132891943Y-158774128D01*
X132891943Y-158774128D02*
X132815753Y-158736033D01*
X132815753Y-158736033D02*
X132777657Y-158659842D01*
X132777657Y-158659842D02*
X132777657Y-158621747D01*
X132777657Y-158621747D02*
X132815753Y-158545557D01*
X132815753Y-158545557D02*
X132891943Y-158507461D01*
X132891943Y-158507461D02*
X133006229Y-158507461D01*
X133006229Y-158507461D02*
X133082419Y-158545557D01*
X133768134Y-159002700D02*
X133691943Y-159040795D01*
X133691943Y-159040795D02*
X133539562Y-159040795D01*
X133539562Y-159040795D02*
X133463372Y-159002700D01*
X133463372Y-159002700D02*
X133425276Y-158926509D01*
X133425276Y-158926509D02*
X133425276Y-158621747D01*
X133425276Y-158621747D02*
X133463372Y-158545557D01*
X133463372Y-158545557D02*
X133539562Y-158507461D01*
X133539562Y-158507461D02*
X133691943Y-158507461D01*
X133691943Y-158507461D02*
X133768134Y-158545557D01*
X133768134Y-158545557D02*
X133806229Y-158621747D01*
X133806229Y-158621747D02*
X133806229Y-158697938D01*
X133806229Y-158697938D02*
X133425276Y-158774128D01*
X135101467Y-159040795D02*
X135101467Y-158621747D01*
X135101467Y-158621747D02*
X135063372Y-158545557D01*
X135063372Y-158545557D02*
X134987181Y-158507461D01*
X134987181Y-158507461D02*
X134834800Y-158507461D01*
X134834800Y-158507461D02*
X134758610Y-158545557D01*
X135101467Y-159002700D02*
X135025276Y-159040795D01*
X135025276Y-159040795D02*
X134834800Y-159040795D01*
X134834800Y-159040795D02*
X134758610Y-159002700D01*
X134758610Y-159002700D02*
X134720514Y-158926509D01*
X134720514Y-158926509D02*
X134720514Y-158850319D01*
X134720514Y-158850319D02*
X134758610Y-158774128D01*
X134758610Y-158774128D02*
X134834800Y-158736033D01*
X134834800Y-158736033D02*
X135025276Y-158736033D01*
X135025276Y-158736033D02*
X135101467Y-158697938D01*
X135368134Y-158507461D02*
X135672896Y-158507461D01*
X135482420Y-158240795D02*
X135482420Y-158926509D01*
X135482420Y-158926509D02*
X135520515Y-159002700D01*
X135520515Y-159002700D02*
X135596705Y-159040795D01*
X135596705Y-159040795D02*
X135672896Y-159040795D01*
X136472896Y-158507461D02*
X136663372Y-159040795D01*
X136853849Y-158507461D02*
X136663372Y-159040795D01*
X136663372Y-159040795D02*
X136587182Y-159231271D01*
X136587182Y-159231271D02*
X136549087Y-159269366D01*
X136549087Y-159269366D02*
X136472896Y-159307461D01*
X137272896Y-159040795D02*
X137196706Y-159002700D01*
X137196706Y-159002700D02*
X137158611Y-158964604D01*
X137158611Y-158964604D02*
X137120515Y-158888414D01*
X137120515Y-158888414D02*
X137120515Y-158659842D01*
X137120515Y-158659842D02*
X137158611Y-158583652D01*
X137158611Y-158583652D02*
X137196706Y-158545557D01*
X137196706Y-158545557D02*
X137272896Y-158507461D01*
X137272896Y-158507461D02*
X137387182Y-158507461D01*
X137387182Y-158507461D02*
X137463373Y-158545557D01*
X137463373Y-158545557D02*
X137501468Y-158583652D01*
X137501468Y-158583652D02*
X137539563Y-158659842D01*
X137539563Y-158659842D02*
X137539563Y-158888414D01*
X137539563Y-158888414D02*
X137501468Y-158964604D01*
X137501468Y-158964604D02*
X137463373Y-159002700D01*
X137463373Y-159002700D02*
X137387182Y-159040795D01*
X137387182Y-159040795D02*
X137272896Y-159040795D01*
X138225278Y-158507461D02*
X138225278Y-159040795D01*
X137882421Y-158507461D02*
X137882421Y-158926509D01*
X137882421Y-158926509D02*
X137920516Y-159002700D01*
X137920516Y-159002700D02*
X137996706Y-159040795D01*
X137996706Y-159040795D02*
X138110992Y-159040795D01*
X138110992Y-159040795D02*
X138187183Y-159002700D01*
X138187183Y-159002700D02*
X138225278Y-158964604D01*
X138606231Y-159040795D02*
X138606231Y-158507461D01*
X138606231Y-158659842D02*
X138644326Y-158583652D01*
X138644326Y-158583652D02*
X138682421Y-158545557D01*
X138682421Y-158545557D02*
X138758612Y-158507461D01*
X138758612Y-158507461D02*
X138834802Y-158507461D01*
X139825278Y-159040795D02*
X139749088Y-159002700D01*
X139749088Y-159002700D02*
X139710993Y-158964604D01*
X139710993Y-158964604D02*
X139672897Y-158888414D01*
X139672897Y-158888414D02*
X139672897Y-158659842D01*
X139672897Y-158659842D02*
X139710993Y-158583652D01*
X139710993Y-158583652D02*
X139749088Y-158545557D01*
X139749088Y-158545557D02*
X139825278Y-158507461D01*
X139825278Y-158507461D02*
X139939564Y-158507461D01*
X139939564Y-158507461D02*
X140015755Y-158545557D01*
X140015755Y-158545557D02*
X140053850Y-158583652D01*
X140053850Y-158583652D02*
X140091945Y-158659842D01*
X140091945Y-158659842D02*
X140091945Y-158888414D01*
X140091945Y-158888414D02*
X140053850Y-158964604D01*
X140053850Y-158964604D02*
X140015755Y-159002700D01*
X140015755Y-159002700D02*
X139939564Y-159040795D01*
X139939564Y-159040795D02*
X139825278Y-159040795D01*
X140358612Y-158507461D02*
X140510993Y-159040795D01*
X140510993Y-159040795D02*
X140663374Y-158659842D01*
X140663374Y-158659842D02*
X140815755Y-159040795D01*
X140815755Y-159040795D02*
X140968136Y-158507461D01*
X141272898Y-158507461D02*
X141272898Y-159040795D01*
X141272898Y-158583652D02*
X141310993Y-158545557D01*
X141310993Y-158545557D02*
X141387183Y-158507461D01*
X141387183Y-158507461D02*
X141501469Y-158507461D01*
X141501469Y-158507461D02*
X141577660Y-158545557D01*
X141577660Y-158545557D02*
X141615755Y-158621747D01*
X141615755Y-158621747D02*
X141615755Y-159040795D01*
X142606232Y-159040795D02*
X142606232Y-158507461D01*
X142606232Y-158659842D02*
X142644327Y-158583652D01*
X142644327Y-158583652D02*
X142682422Y-158545557D01*
X142682422Y-158545557D02*
X142758613Y-158507461D01*
X142758613Y-158507461D02*
X142834803Y-158507461D01*
X143101470Y-159040795D02*
X143101470Y-158507461D01*
X143101470Y-158240795D02*
X143063374Y-158278890D01*
X143063374Y-158278890D02*
X143101470Y-158316985D01*
X143101470Y-158316985D02*
X143139565Y-158278890D01*
X143139565Y-158278890D02*
X143101470Y-158240795D01*
X143101470Y-158240795D02*
X143101470Y-158316985D01*
X143444326Y-159002700D02*
X143520517Y-159040795D01*
X143520517Y-159040795D02*
X143672898Y-159040795D01*
X143672898Y-159040795D02*
X143749088Y-159002700D01*
X143749088Y-159002700D02*
X143787184Y-158926509D01*
X143787184Y-158926509D02*
X143787184Y-158888414D01*
X143787184Y-158888414D02*
X143749088Y-158812223D01*
X143749088Y-158812223D02*
X143672898Y-158774128D01*
X143672898Y-158774128D02*
X143558612Y-158774128D01*
X143558612Y-158774128D02*
X143482422Y-158736033D01*
X143482422Y-158736033D02*
X143444326Y-158659842D01*
X143444326Y-158659842D02*
X143444326Y-158621747D01*
X143444326Y-158621747D02*
X143482422Y-158545557D01*
X143482422Y-158545557D02*
X143558612Y-158507461D01*
X143558612Y-158507461D02*
X143672898Y-158507461D01*
X143672898Y-158507461D02*
X143749088Y-158545557D01*
X144130041Y-159040795D02*
X144130041Y-158240795D01*
X144206231Y-158736033D02*
X144434803Y-159040795D01*
X144434803Y-158507461D02*
X144130041Y-158812223D01*
X144777660Y-158964604D02*
X144815755Y-159002700D01*
X144815755Y-159002700D02*
X144777660Y-159040795D01*
X144777660Y-159040795D02*
X144739564Y-159002700D01*
X144739564Y-159002700D02*
X144777660Y-158964604D01*
X144777660Y-158964604D02*
X144777660Y-159040795D01*
X138246303Y-89004104D02*
X138208207Y-89042200D01*
X138208207Y-89042200D02*
X138093922Y-89080295D01*
X138093922Y-89080295D02*
X138017731Y-89080295D01*
X138017731Y-89080295D02*
X137903445Y-89042200D01*
X137903445Y-89042200D02*
X137827255Y-88966009D01*
X137827255Y-88966009D02*
X137789160Y-88889819D01*
X137789160Y-88889819D02*
X137751064Y-88737438D01*
X137751064Y-88737438D02*
X137751064Y-88623152D01*
X137751064Y-88623152D02*
X137789160Y-88470771D01*
X137789160Y-88470771D02*
X137827255Y-88394580D01*
X137827255Y-88394580D02*
X137903445Y-88318390D01*
X137903445Y-88318390D02*
X138017731Y-88280295D01*
X138017731Y-88280295D02*
X138093922Y-88280295D01*
X138093922Y-88280295D02*
X138208207Y-88318390D01*
X138208207Y-88318390D02*
X138246303Y-88356485D01*
X138741541Y-88280295D02*
X138893922Y-88280295D01*
X138893922Y-88280295D02*
X138970112Y-88318390D01*
X138970112Y-88318390D02*
X139046303Y-88394580D01*
X139046303Y-88394580D02*
X139084398Y-88546961D01*
X139084398Y-88546961D02*
X139084398Y-88813628D01*
X139084398Y-88813628D02*
X139046303Y-88966009D01*
X139046303Y-88966009D02*
X138970112Y-89042200D01*
X138970112Y-89042200D02*
X138893922Y-89080295D01*
X138893922Y-89080295D02*
X138741541Y-89080295D01*
X138741541Y-89080295D02*
X138665350Y-89042200D01*
X138665350Y-89042200D02*
X138589160Y-88966009D01*
X138589160Y-88966009D02*
X138551064Y-88813628D01*
X138551064Y-88813628D02*
X138551064Y-88546961D01*
X138551064Y-88546961D02*
X138589160Y-88394580D01*
X138589160Y-88394580D02*
X138665350Y-88318390D01*
X138665350Y-88318390D02*
X138741541Y-88280295D01*
X139427255Y-89080295D02*
X139427255Y-88280295D01*
X139427255Y-88280295D02*
X139884398Y-89080295D01*
X139884398Y-89080295D02*
X139884398Y-88280295D01*
X140151064Y-88280295D02*
X140608207Y-88280295D01*
X140379635Y-89080295D02*
X140379635Y-88280295D01*
X141332017Y-89080295D02*
X141065350Y-88699342D01*
X140874874Y-89080295D02*
X140874874Y-88280295D01*
X140874874Y-88280295D02*
X141179636Y-88280295D01*
X141179636Y-88280295D02*
X141255826Y-88318390D01*
X141255826Y-88318390D02*
X141293921Y-88356485D01*
X141293921Y-88356485D02*
X141332017Y-88432676D01*
X141332017Y-88432676D02*
X141332017Y-88546961D01*
X141332017Y-88546961D02*
X141293921Y-88623152D01*
X141293921Y-88623152D02*
X141255826Y-88661247D01*
X141255826Y-88661247D02*
X141179636Y-88699342D01*
X141179636Y-88699342D02*
X140874874Y-88699342D01*
X141827255Y-88280295D02*
X141979636Y-88280295D01*
X141979636Y-88280295D02*
X142055826Y-88318390D01*
X142055826Y-88318390D02*
X142132017Y-88394580D01*
X142132017Y-88394580D02*
X142170112Y-88546961D01*
X142170112Y-88546961D02*
X142170112Y-88813628D01*
X142170112Y-88813628D02*
X142132017Y-88966009D01*
X142132017Y-88966009D02*
X142055826Y-89042200D01*
X142055826Y-89042200D02*
X141979636Y-89080295D01*
X141979636Y-89080295D02*
X141827255Y-89080295D01*
X141827255Y-89080295D02*
X141751064Y-89042200D01*
X141751064Y-89042200D02*
X141674874Y-88966009D01*
X141674874Y-88966009D02*
X141636778Y-88813628D01*
X141636778Y-88813628D02*
X141636778Y-88546961D01*
X141636778Y-88546961D02*
X141674874Y-88394580D01*
X141674874Y-88394580D02*
X141751064Y-88318390D01*
X141751064Y-88318390D02*
X141827255Y-88280295D01*
X142893921Y-89080295D02*
X142512969Y-89080295D01*
X142512969Y-89080295D02*
X142512969Y-88280295D01*
X113815950Y-79532033D02*
X113815950Y-78622033D01*
X113815950Y-78622033D02*
X114119284Y-79272033D01*
X114119284Y-79272033D02*
X114422617Y-78622033D01*
X114422617Y-78622033D02*
X114422617Y-79532033D01*
X114812617Y-79272033D02*
X115245950Y-79272033D01*
X114725950Y-79532033D02*
X115029284Y-78622033D01*
X115029284Y-78622033D02*
X115332617Y-79532033D01*
X115549284Y-78622033D02*
X116155950Y-79532033D01*
X116155950Y-78622033D02*
X115549284Y-79532033D01*
X117195950Y-79532033D02*
X117195950Y-78622033D01*
X117195950Y-79055366D02*
X117715950Y-79055366D01*
X117715950Y-79532033D02*
X117715950Y-78622033D01*
X118322617Y-78622033D02*
X118495950Y-78622033D01*
X118495950Y-78622033D02*
X118582617Y-78665366D01*
X118582617Y-78665366D02*
X118669283Y-78752033D01*
X118669283Y-78752033D02*
X118712617Y-78925366D01*
X118712617Y-78925366D02*
X118712617Y-79228700D01*
X118712617Y-79228700D02*
X118669283Y-79402033D01*
X118669283Y-79402033D02*
X118582617Y-79488700D01*
X118582617Y-79488700D02*
X118495950Y-79532033D01*
X118495950Y-79532033D02*
X118322617Y-79532033D01*
X118322617Y-79532033D02*
X118235950Y-79488700D01*
X118235950Y-79488700D02*
X118149283Y-79402033D01*
X118149283Y-79402033D02*
X118105950Y-79228700D01*
X118105950Y-79228700D02*
X118105950Y-78925366D01*
X118105950Y-78925366D02*
X118149283Y-78752033D01*
X118149283Y-78752033D02*
X118235950Y-78665366D01*
X118235950Y-78665366D02*
X118322617Y-78622033D01*
X119535950Y-79532033D02*
X119102616Y-79532033D01*
X119102616Y-79532033D02*
X119102616Y-78622033D01*
X119839283Y-79532033D02*
X119839283Y-78622033D01*
X119839283Y-78622033D02*
X120055950Y-78622033D01*
X120055950Y-78622033D02*
X120185950Y-78665366D01*
X120185950Y-78665366D02*
X120272617Y-78752033D01*
X120272617Y-78752033D02*
X120315950Y-78838700D01*
X120315950Y-78838700D02*
X120359283Y-79012033D01*
X120359283Y-79012033D02*
X120359283Y-79142033D01*
X120359283Y-79142033D02*
X120315950Y-79315366D01*
X120315950Y-79315366D02*
X120272617Y-79402033D01*
X120272617Y-79402033D02*
X120185950Y-79488700D01*
X120185950Y-79488700D02*
X120055950Y-79532033D01*
X120055950Y-79532033D02*
X119839283Y-79532033D01*
X113815950Y-114033833D02*
X113815950Y-113123833D01*
X113815950Y-113123833D02*
X114119284Y-113773833D01*
X114119284Y-113773833D02*
X114422617Y-113123833D01*
X114422617Y-113123833D02*
X114422617Y-114033833D01*
X114855950Y-114033833D02*
X114855950Y-113123833D01*
X115289283Y-114033833D02*
X115289283Y-113123833D01*
X115289283Y-113123833D02*
X115809283Y-114033833D01*
X115809283Y-114033833D02*
X115809283Y-113123833D01*
X116935949Y-114033833D02*
X116935949Y-113123833D01*
X116935949Y-113557166D02*
X117455949Y-113557166D01*
X117455949Y-114033833D02*
X117455949Y-113123833D01*
X118062616Y-113123833D02*
X118235949Y-113123833D01*
X118235949Y-113123833D02*
X118322616Y-113167166D01*
X118322616Y-113167166D02*
X118409282Y-113253833D01*
X118409282Y-113253833D02*
X118452616Y-113427166D01*
X118452616Y-113427166D02*
X118452616Y-113730500D01*
X118452616Y-113730500D02*
X118409282Y-113903833D01*
X118409282Y-113903833D02*
X118322616Y-113990500D01*
X118322616Y-113990500D02*
X118235949Y-114033833D01*
X118235949Y-114033833D02*
X118062616Y-114033833D01*
X118062616Y-114033833D02*
X117975949Y-113990500D01*
X117975949Y-113990500D02*
X117889282Y-113903833D01*
X117889282Y-113903833D02*
X117845949Y-113730500D01*
X117845949Y-113730500D02*
X117845949Y-113427166D01*
X117845949Y-113427166D02*
X117889282Y-113253833D01*
X117889282Y-113253833D02*
X117975949Y-113167166D01*
X117975949Y-113167166D02*
X118062616Y-113123833D01*
X119275949Y-114033833D02*
X118842615Y-114033833D01*
X118842615Y-114033833D02*
X118842615Y-113123833D01*
X119579282Y-114033833D02*
X119579282Y-113123833D01*
X119579282Y-113123833D02*
X119795949Y-113123833D01*
X119795949Y-113123833D02*
X119925949Y-113167166D01*
X119925949Y-113167166D02*
X120012616Y-113253833D01*
X120012616Y-113253833D02*
X120055949Y-113340500D01*
X120055949Y-113340500D02*
X120099282Y-113513833D01*
X120099282Y-113513833D02*
X120099282Y-113643833D01*
X120099282Y-113643833D02*
X120055949Y-113817166D01*
X120055949Y-113817166D02*
X120012616Y-113903833D01*
X120012616Y-113903833D02*
X119925949Y-113990500D01*
X119925949Y-113990500D02*
X119795949Y-114033833D01*
X119795949Y-114033833D02*
X119579282Y-114033833D01*
X156565950Y-66282533D02*
X156565950Y-65372533D01*
X156565950Y-65372533D02*
X156869284Y-66022533D01*
X156869284Y-66022533D02*
X157172617Y-65372533D01*
X157172617Y-65372533D02*
X157172617Y-66282533D01*
X157605950Y-66282533D02*
X157605950Y-65372533D01*
X158039283Y-66282533D02*
X158039283Y-65372533D01*
X158039283Y-65372533D02*
X158559283Y-66282533D01*
X158559283Y-66282533D02*
X158559283Y-65372533D01*
X165065750Y-66282533D02*
X165065750Y-65372533D01*
X165065750Y-65372533D02*
X165369084Y-66022533D01*
X165369084Y-66022533D02*
X165672417Y-65372533D01*
X165672417Y-65372533D02*
X165672417Y-66282533D01*
X166062417Y-66022533D02*
X166495750Y-66022533D01*
X165975750Y-66282533D02*
X166279084Y-65372533D01*
X166279084Y-65372533D02*
X166582417Y-66282533D01*
X166799084Y-65372533D02*
X167405750Y-66282533D01*
X167405750Y-65372533D02*
X166799084Y-66282533D01*
X167335350Y-73258366D02*
X167292017Y-73301700D01*
X167292017Y-73301700D02*
X167162017Y-73345033D01*
X167162017Y-73345033D02*
X167075350Y-73345033D01*
X167075350Y-73345033D02*
X166945350Y-73301700D01*
X166945350Y-73301700D02*
X166858684Y-73215033D01*
X166858684Y-73215033D02*
X166815350Y-73128366D01*
X166815350Y-73128366D02*
X166772017Y-72955033D01*
X166772017Y-72955033D02*
X166772017Y-72825033D01*
X166772017Y-72825033D02*
X166815350Y-72651700D01*
X166815350Y-72651700D02*
X166858684Y-72565033D01*
X166858684Y-72565033D02*
X166945350Y-72478366D01*
X166945350Y-72478366D02*
X167075350Y-72435033D01*
X167075350Y-72435033D02*
X167162017Y-72435033D01*
X167162017Y-72435033D02*
X167292017Y-72478366D01*
X167292017Y-72478366D02*
X167335350Y-72521700D01*
X167682017Y-73085033D02*
X168115350Y-73085033D01*
X167595350Y-73345033D02*
X167898684Y-72435033D01*
X167898684Y-72435033D02*
X168202017Y-73345033D01*
X168938684Y-73345033D02*
X168505350Y-73345033D01*
X168505350Y-73345033D02*
X168505350Y-72435033D01*
X169242017Y-73345033D02*
X169242017Y-72435033D01*
X169978684Y-72868366D02*
X170108684Y-72911700D01*
X170108684Y-72911700D02*
X170152017Y-72955033D01*
X170152017Y-72955033D02*
X170195350Y-73041700D01*
X170195350Y-73041700D02*
X170195350Y-73171700D01*
X170195350Y-73171700D02*
X170152017Y-73258366D01*
X170152017Y-73258366D02*
X170108684Y-73301700D01*
X170108684Y-73301700D02*
X170022017Y-73345033D01*
X170022017Y-73345033D02*
X169675350Y-73345033D01*
X169675350Y-73345033D02*
X169675350Y-72435033D01*
X169675350Y-72435033D02*
X169978684Y-72435033D01*
X169978684Y-72435033D02*
X170065350Y-72478366D01*
X170065350Y-72478366D02*
X170108684Y-72521700D01*
X170108684Y-72521700D02*
X170152017Y-72608366D01*
X170152017Y-72608366D02*
X170152017Y-72695033D01*
X170152017Y-72695033D02*
X170108684Y-72781700D01*
X170108684Y-72781700D02*
X170065350Y-72825033D01*
X170065350Y-72825033D02*
X169978684Y-72868366D01*
X169978684Y-72868366D02*
X169675350Y-72868366D01*
X171105350Y-73345033D02*
X170802017Y-72911700D01*
X170585350Y-73345033D02*
X170585350Y-72435033D01*
X170585350Y-72435033D02*
X170932017Y-72435033D01*
X170932017Y-72435033D02*
X171018684Y-72478366D01*
X171018684Y-72478366D02*
X171062017Y-72521700D01*
X171062017Y-72521700D02*
X171105350Y-72608366D01*
X171105350Y-72608366D02*
X171105350Y-72738366D01*
X171105350Y-72738366D02*
X171062017Y-72825033D01*
X171062017Y-72825033D02*
X171018684Y-72868366D01*
X171018684Y-72868366D02*
X170932017Y-72911700D01*
X170932017Y-72911700D02*
X170585350Y-72911700D01*
X171452017Y-73085033D02*
X171885350Y-73085033D01*
X171365350Y-73345033D02*
X171668684Y-72435033D01*
X171668684Y-72435033D02*
X171972017Y-73345033D01*
X172145350Y-72435033D02*
X172665350Y-72435033D01*
X172405350Y-73345033D02*
X172405350Y-72435033D01*
X172968683Y-73345033D02*
X172968683Y-72435033D01*
X173575350Y-72435033D02*
X173748683Y-72435033D01*
X173748683Y-72435033D02*
X173835350Y-72478366D01*
X173835350Y-72478366D02*
X173922016Y-72565033D01*
X173922016Y-72565033D02*
X173965350Y-72738366D01*
X173965350Y-72738366D02*
X173965350Y-73041700D01*
X173965350Y-73041700D02*
X173922016Y-73215033D01*
X173922016Y-73215033D02*
X173835350Y-73301700D01*
X173835350Y-73301700D02*
X173748683Y-73345033D01*
X173748683Y-73345033D02*
X173575350Y-73345033D01*
X173575350Y-73345033D02*
X173488683Y-73301700D01*
X173488683Y-73301700D02*
X173402016Y-73215033D01*
X173402016Y-73215033D02*
X173358683Y-73041700D01*
X173358683Y-73041700D02*
X173358683Y-72738366D01*
X173358683Y-72738366D02*
X173402016Y-72565033D01*
X173402016Y-72565033D02*
X173488683Y-72478366D01*
X173488683Y-72478366D02*
X173575350Y-72435033D01*
X174355349Y-73345033D02*
X174355349Y-72435033D01*
X174355349Y-72435033D02*
X174875349Y-73345033D01*
X174875349Y-73345033D02*
X174875349Y-72435033D01*
X173253250Y-66345033D02*
X173253250Y-65435033D01*
X173253250Y-65435033D02*
X173599917Y-65435033D01*
X173599917Y-65435033D02*
X173686584Y-65478366D01*
X173686584Y-65478366D02*
X173729917Y-65521700D01*
X173729917Y-65521700D02*
X173773250Y-65608366D01*
X173773250Y-65608366D02*
X173773250Y-65738366D01*
X173773250Y-65738366D02*
X173729917Y-65825033D01*
X173729917Y-65825033D02*
X173686584Y-65868366D01*
X173686584Y-65868366D02*
X173599917Y-65911700D01*
X173599917Y-65911700D02*
X173253250Y-65911700D01*
X174163250Y-66345033D02*
X174163250Y-65435033D01*
X174163250Y-65435033D02*
X174466584Y-66085033D01*
X174466584Y-66085033D02*
X174769917Y-65435033D01*
X174769917Y-65435033D02*
X174769917Y-66345033D01*
X175203250Y-66345033D02*
X175203250Y-65435033D01*
X175636583Y-66345033D02*
X175636583Y-65435033D01*
X175636583Y-65435033D02*
X176156583Y-66345033D01*
X176156583Y-66345033D02*
X176156583Y-65435033D01*
X182004050Y-66345033D02*
X182004050Y-65435033D01*
X182004050Y-65435033D02*
X182350717Y-65435033D01*
X182350717Y-65435033D02*
X182437384Y-65478366D01*
X182437384Y-65478366D02*
X182480717Y-65521700D01*
X182480717Y-65521700D02*
X182524050Y-65608366D01*
X182524050Y-65608366D02*
X182524050Y-65738366D01*
X182524050Y-65738366D02*
X182480717Y-65825033D01*
X182480717Y-65825033D02*
X182437384Y-65868366D01*
X182437384Y-65868366D02*
X182350717Y-65911700D01*
X182350717Y-65911700D02*
X182004050Y-65911700D01*
X182914050Y-66345033D02*
X182914050Y-65435033D01*
X182914050Y-65435033D02*
X183217384Y-66085033D01*
X183217384Y-66085033D02*
X183520717Y-65435033D01*
X183520717Y-65435033D02*
X183520717Y-66345033D01*
X183910717Y-66085033D02*
X184344050Y-66085033D01*
X183824050Y-66345033D02*
X184127384Y-65435033D01*
X184127384Y-65435033D02*
X184430717Y-66345033D01*
X184647384Y-65435033D02*
X185254050Y-66345033D01*
X185254050Y-65435033D02*
X184647384Y-66345033D01*
X108018666Y-134965150D02*
X108928666Y-134965150D01*
X108928666Y-134965150D02*
X108278666Y-135268484D01*
X108278666Y-135268484D02*
X108928666Y-135571817D01*
X108928666Y-135571817D02*
X108018666Y-135571817D01*
X108928666Y-136178484D02*
X108928666Y-136351817D01*
X108928666Y-136351817D02*
X108885333Y-136438484D01*
X108885333Y-136438484D02*
X108798666Y-136525150D01*
X108798666Y-136525150D02*
X108625333Y-136568484D01*
X108625333Y-136568484D02*
X108322000Y-136568484D01*
X108322000Y-136568484D02*
X108148666Y-136525150D01*
X108148666Y-136525150D02*
X108062000Y-136438484D01*
X108062000Y-136438484D02*
X108018666Y-136351817D01*
X108018666Y-136351817D02*
X108018666Y-136178484D01*
X108018666Y-136178484D02*
X108062000Y-136091817D01*
X108062000Y-136091817D02*
X108148666Y-136005150D01*
X108148666Y-136005150D02*
X108322000Y-135961817D01*
X108322000Y-135961817D02*
X108625333Y-135961817D01*
X108625333Y-135961817D02*
X108798666Y-136005150D01*
X108798666Y-136005150D02*
X108885333Y-136091817D01*
X108885333Y-136091817D02*
X108928666Y-136178484D01*
X108018666Y-136958483D02*
X108928666Y-136958483D01*
X108928666Y-136958483D02*
X108928666Y-137175150D01*
X108928666Y-137175150D02*
X108885333Y-137305150D01*
X108885333Y-137305150D02*
X108798666Y-137391817D01*
X108798666Y-137391817D02*
X108712000Y-137435150D01*
X108712000Y-137435150D02*
X108538666Y-137478483D01*
X108538666Y-137478483D02*
X108408666Y-137478483D01*
X108408666Y-137478483D02*
X108235333Y-137435150D01*
X108235333Y-137435150D02*
X108148666Y-137391817D01*
X108148666Y-137391817D02*
X108062000Y-137305150D01*
X108062000Y-137305150D02*
X108018666Y-137175150D01*
X108018666Y-137175150D02*
X108018666Y-136958483D01*
X108495333Y-137868483D02*
X108495333Y-138171817D01*
X108018666Y-138301817D02*
X108018666Y-137868483D01*
X108018666Y-137868483D02*
X108928666Y-137868483D01*
X108928666Y-137868483D02*
X108928666Y-138301817D01*
X145853366Y-117185250D02*
X145853366Y-117705250D01*
X144943366Y-117445250D02*
X145853366Y-117445250D01*
X144943366Y-118008583D02*
X145853366Y-118008583D01*
X145420033Y-118008583D02*
X145420033Y-118528583D01*
X144943366Y-118528583D02*
X145853366Y-118528583D01*
X144943366Y-119481916D02*
X145376700Y-119178583D01*
X144943366Y-118961916D02*
X145853366Y-118961916D01*
X145853366Y-118961916D02*
X145853366Y-119308583D01*
X145853366Y-119308583D02*
X145810033Y-119395250D01*
X145810033Y-119395250D02*
X145766700Y-119438583D01*
X145766700Y-119438583D02*
X145680033Y-119481916D01*
X145680033Y-119481916D02*
X145550033Y-119481916D01*
X145550033Y-119481916D02*
X145463366Y-119438583D01*
X145463366Y-119438583D02*
X145420033Y-119395250D01*
X145420033Y-119395250D02*
X145376700Y-119308583D01*
X145376700Y-119308583D02*
X145376700Y-118961916D01*
X145853366Y-120045250D02*
X145853366Y-120218583D01*
X145853366Y-120218583D02*
X145810033Y-120305250D01*
X145810033Y-120305250D02*
X145723366Y-120391916D01*
X145723366Y-120391916D02*
X145550033Y-120435250D01*
X145550033Y-120435250D02*
X145246700Y-120435250D01*
X145246700Y-120435250D02*
X145073366Y-120391916D01*
X145073366Y-120391916D02*
X144986700Y-120305250D01*
X144986700Y-120305250D02*
X144943366Y-120218583D01*
X144943366Y-120218583D02*
X144943366Y-120045250D01*
X144943366Y-120045250D02*
X144986700Y-119958583D01*
X144986700Y-119958583D02*
X145073366Y-119871916D01*
X145073366Y-119871916D02*
X145246700Y-119828583D01*
X145246700Y-119828583D02*
X145550033Y-119828583D01*
X145550033Y-119828583D02*
X145723366Y-119871916D01*
X145723366Y-119871916D02*
X145810033Y-119958583D01*
X145810033Y-119958583D02*
X145853366Y-120045250D01*
X145853366Y-120695249D02*
X145853366Y-121215249D01*
X144943366Y-120955249D02*
X145853366Y-120955249D01*
X145853366Y-121388582D02*
X145853366Y-121908582D01*
X144943366Y-121648582D02*
X145853366Y-121648582D01*
X144943366Y-122645249D02*
X144943366Y-122211915D01*
X144943366Y-122211915D02*
X145853366Y-122211915D01*
X145420033Y-122948582D02*
X145420033Y-123251916D01*
X144943366Y-123381916D02*
X144943366Y-122948582D01*
X144943366Y-122948582D02*
X145853366Y-122948582D01*
X145853366Y-122948582D02*
X145853366Y-123381916D01*
X143954984Y-117618584D02*
X143911651Y-117748584D01*
X143911651Y-117748584D02*
X143868317Y-117791917D01*
X143868317Y-117791917D02*
X143781651Y-117835250D01*
X143781651Y-117835250D02*
X143651651Y-117835250D01*
X143651651Y-117835250D02*
X143564984Y-117791917D01*
X143564984Y-117791917D02*
X143521651Y-117748584D01*
X143521651Y-117748584D02*
X143478317Y-117661917D01*
X143478317Y-117661917D02*
X143478317Y-117315250D01*
X143478317Y-117315250D02*
X144388317Y-117315250D01*
X144388317Y-117315250D02*
X144388317Y-117618584D01*
X144388317Y-117618584D02*
X144344984Y-117705250D01*
X144344984Y-117705250D02*
X144301651Y-117748584D01*
X144301651Y-117748584D02*
X144214984Y-117791917D01*
X144214984Y-117791917D02*
X144128317Y-117791917D01*
X144128317Y-117791917D02*
X144041651Y-117748584D01*
X144041651Y-117748584D02*
X143998317Y-117705250D01*
X143998317Y-117705250D02*
X143954984Y-117618584D01*
X143954984Y-117618584D02*
X143954984Y-117315250D01*
X143478317Y-118701917D02*
X143478317Y-118181917D01*
X143478317Y-118441917D02*
X144388317Y-118441917D01*
X144388317Y-118441917D02*
X144258317Y-118355250D01*
X144258317Y-118355250D02*
X144171651Y-118268584D01*
X144171651Y-118268584D02*
X144128317Y-118181917D01*
X144388317Y-119265251D02*
X144388317Y-119351917D01*
X144388317Y-119351917D02*
X144344984Y-119438584D01*
X144344984Y-119438584D02*
X144301651Y-119481917D01*
X144301651Y-119481917D02*
X144214984Y-119525251D01*
X144214984Y-119525251D02*
X144041651Y-119568584D01*
X144041651Y-119568584D02*
X143824984Y-119568584D01*
X143824984Y-119568584D02*
X143651651Y-119525251D01*
X143651651Y-119525251D02*
X143564984Y-119481917D01*
X143564984Y-119481917D02*
X143521651Y-119438584D01*
X143521651Y-119438584D02*
X143478317Y-119351917D01*
X143478317Y-119351917D02*
X143478317Y-119265251D01*
X143478317Y-119265251D02*
X143521651Y-119178584D01*
X143521651Y-119178584D02*
X143564984Y-119135251D01*
X143564984Y-119135251D02*
X143651651Y-119091917D01*
X143651651Y-119091917D02*
X143824984Y-119048584D01*
X143824984Y-119048584D02*
X144041651Y-119048584D01*
X144041651Y-119048584D02*
X144214984Y-119091917D01*
X144214984Y-119091917D02*
X144301651Y-119135251D01*
X144301651Y-119135251D02*
X144344984Y-119178584D01*
X144344984Y-119178584D02*
X144388317Y-119265251D01*
X143478317Y-119958584D02*
X144388317Y-119958584D01*
X143478317Y-120478584D02*
X143998317Y-120088584D01*
X144388317Y-120478584D02*
X143868317Y-119958584D01*
X143478317Y-121561917D02*
X144388317Y-121561917D01*
X144388317Y-121561917D02*
X144388317Y-121778584D01*
X144388317Y-121778584D02*
X144344984Y-121908584D01*
X144344984Y-121908584D02*
X144258317Y-121995251D01*
X144258317Y-121995251D02*
X144171651Y-122038584D01*
X144171651Y-122038584D02*
X143998317Y-122081917D01*
X143998317Y-122081917D02*
X143868317Y-122081917D01*
X143868317Y-122081917D02*
X143694984Y-122038584D01*
X143694984Y-122038584D02*
X143608317Y-121995251D01*
X143608317Y-121995251D02*
X143521651Y-121908584D01*
X143521651Y-121908584D02*
X143478317Y-121778584D01*
X143478317Y-121778584D02*
X143478317Y-121561917D01*
X144388317Y-122471917D02*
X143651651Y-122471917D01*
X143651651Y-122471917D02*
X143564984Y-122515251D01*
X143564984Y-122515251D02*
X143521651Y-122558584D01*
X143521651Y-122558584D02*
X143478317Y-122645251D01*
X143478317Y-122645251D02*
X143478317Y-122818584D01*
X143478317Y-122818584D02*
X143521651Y-122905251D01*
X143521651Y-122905251D02*
X143564984Y-122948584D01*
X143564984Y-122948584D02*
X143651651Y-122991917D01*
X143651651Y-122991917D02*
X144388317Y-122991917D01*
X143738317Y-123381917D02*
X143738317Y-123815250D01*
X143478317Y-123295250D02*
X144388317Y-123598584D01*
X144388317Y-123598584D02*
X143478317Y-123901917D01*
X143478317Y-124638584D02*
X143478317Y-124205250D01*
X143478317Y-124205250D02*
X144388317Y-124205250D01*
D13*
X126720426Y-140584887D02*
X127630426Y-140584887D01*
X127630426Y-140584887D02*
X127630426Y-140801554D01*
X127630426Y-140801554D02*
X127587093Y-140931554D01*
X127587093Y-140931554D02*
X127500426Y-141018221D01*
X127500426Y-141018221D02*
X127413760Y-141061554D01*
X127413760Y-141061554D02*
X127240426Y-141104887D01*
X127240426Y-141104887D02*
X127110426Y-141104887D01*
X127110426Y-141104887D02*
X126937093Y-141061554D01*
X126937093Y-141061554D02*
X126850426Y-141018221D01*
X126850426Y-141018221D02*
X126763760Y-140931554D01*
X126763760Y-140931554D02*
X126720426Y-140801554D01*
X126720426Y-140801554D02*
X126720426Y-140584887D01*
X126720426Y-141971554D02*
X126720426Y-141451554D01*
X126720426Y-141711554D02*
X127630426Y-141711554D01*
X127630426Y-141711554D02*
X127500426Y-141624887D01*
X127500426Y-141624887D02*
X127413760Y-141538221D01*
X127413760Y-141538221D02*
X127370426Y-141451554D01*
D14*
X139524434Y-95938760D02*
X139959863Y-95938760D01*
X139437348Y-96200017D02*
X139742148Y-95285617D01*
X139742148Y-95285617D02*
X140046948Y-96200017D01*
X140221119Y-95285617D02*
X140743634Y-95285617D01*
X140482376Y-96200017D02*
X140482376Y-95285617D01*
X140917805Y-95285617D02*
X141440320Y-95285617D01*
X141179062Y-96200017D02*
X141179062Y-95285617D01*
X141745120Y-96200017D02*
X141745120Y-95285617D01*
X142180549Y-96200017D02*
X142180549Y-95285617D01*
X142180549Y-95285617D02*
X142703063Y-96200017D01*
X142703063Y-96200017D02*
X142703063Y-95285617D01*
X143312663Y-95764589D02*
X143312663Y-96200017D01*
X143007863Y-95285617D02*
X143312663Y-95764589D01*
X143312663Y-95764589D02*
X143617463Y-95285617D01*
X143878720Y-95372703D02*
X143922263Y-95329160D01*
X143922263Y-95329160D02*
X144009349Y-95285617D01*
X144009349Y-95285617D02*
X144227063Y-95285617D01*
X144227063Y-95285617D02*
X144314149Y-95329160D01*
X144314149Y-95329160D02*
X144357691Y-95372703D01*
X144357691Y-95372703D02*
X144401234Y-95459789D01*
X144401234Y-95459789D02*
X144401234Y-95546875D01*
X144401234Y-95546875D02*
X144357691Y-95677503D01*
X144357691Y-95677503D02*
X143835177Y-96200017D01*
X143835177Y-96200017D02*
X144401234Y-96200017D01*
X145228548Y-95285617D02*
X144793120Y-95285617D01*
X144793120Y-95285617D02*
X144749577Y-95721046D01*
X144749577Y-95721046D02*
X144793120Y-95677503D01*
X144793120Y-95677503D02*
X144880206Y-95633960D01*
X144880206Y-95633960D02*
X145097920Y-95633960D01*
X145097920Y-95633960D02*
X145185006Y-95677503D01*
X145185006Y-95677503D02*
X145228548Y-95721046D01*
X145228548Y-95721046D02*
X145272091Y-95808132D01*
X145272091Y-95808132D02*
X145272091Y-96025846D01*
X145272091Y-96025846D02*
X145228548Y-96112932D01*
X145228548Y-96112932D02*
X145185006Y-96156475D01*
X145185006Y-96156475D02*
X145097920Y-96200017D01*
X145097920Y-96200017D02*
X144880206Y-96200017D01*
X144880206Y-96200017D02*
X144793120Y-96156475D01*
X144793120Y-96156475D02*
X144749577Y-96112932D01*
D15*
X102171504Y-70747868D02*
X102171504Y-71445011D01*
X100951504Y-71096439D02*
X102171504Y-71096439D01*
X100951504Y-71851678D02*
X102171504Y-71851678D01*
X101590552Y-71851678D02*
X101590552Y-72548821D01*
X100951504Y-72548821D02*
X102171504Y-72548821D01*
X100951504Y-73826916D02*
X101532457Y-73420249D01*
X100951504Y-73129773D02*
X102171504Y-73129773D01*
X102171504Y-73129773D02*
X102171504Y-73594535D01*
X102171504Y-73594535D02*
X102113409Y-73710725D01*
X102113409Y-73710725D02*
X102055314Y-73768820D01*
X102055314Y-73768820D02*
X101939123Y-73826916D01*
X101939123Y-73826916D02*
X101764838Y-73826916D01*
X101764838Y-73826916D02*
X101648647Y-73768820D01*
X101648647Y-73768820D02*
X101590552Y-73710725D01*
X101590552Y-73710725D02*
X101532457Y-73594535D01*
X101532457Y-73594535D02*
X101532457Y-73129773D01*
X102171504Y-74582154D02*
X102171504Y-74814535D01*
X102171504Y-74814535D02*
X102113409Y-74930725D01*
X102113409Y-74930725D02*
X101997219Y-75046916D01*
X101997219Y-75046916D02*
X101764838Y-75105011D01*
X101764838Y-75105011D02*
X101358171Y-75105011D01*
X101358171Y-75105011D02*
X101125790Y-75046916D01*
X101125790Y-75046916D02*
X101009600Y-74930725D01*
X101009600Y-74930725D02*
X100951504Y-74814535D01*
X100951504Y-74814535D02*
X100951504Y-74582154D01*
X100951504Y-74582154D02*
X101009600Y-74465963D01*
X101009600Y-74465963D02*
X101125790Y-74349773D01*
X101125790Y-74349773D02*
X101358171Y-74291677D01*
X101358171Y-74291677D02*
X101764838Y-74291677D01*
X101764838Y-74291677D02*
X101997219Y-74349773D01*
X101997219Y-74349773D02*
X102113409Y-74465963D01*
X102113409Y-74465963D02*
X102171504Y-74582154D01*
X102171504Y-75453582D02*
X102171504Y-76150725D01*
X100951504Y-75802153D02*
X102171504Y-75802153D01*
X102171504Y-76383106D02*
X102171504Y-77080249D01*
X100951504Y-76731677D02*
X102171504Y-76731677D01*
X100951504Y-78067868D02*
X100951504Y-77486916D01*
X100951504Y-77486916D02*
X102171504Y-77486916D01*
X101590552Y-78474535D02*
X101590552Y-78881201D01*
X100951504Y-79055487D02*
X100951504Y-78474535D01*
X100951504Y-78474535D02*
X102171504Y-78474535D01*
X102171504Y-78474535D02*
X102171504Y-79055487D01*
X100951504Y-80507869D02*
X102171504Y-80507869D01*
X102171504Y-80507869D02*
X101300076Y-80914535D01*
X101300076Y-80914535D02*
X102171504Y-81321202D01*
X102171504Y-81321202D02*
X100951504Y-81321202D01*
X102171504Y-82134536D02*
X102171504Y-82366917D01*
X102171504Y-82366917D02*
X102113409Y-82483107D01*
X102113409Y-82483107D02*
X101997219Y-82599298D01*
X101997219Y-82599298D02*
X101764838Y-82657393D01*
X101764838Y-82657393D02*
X101358171Y-82657393D01*
X101358171Y-82657393D02*
X101125790Y-82599298D01*
X101125790Y-82599298D02*
X101009600Y-82483107D01*
X101009600Y-82483107D02*
X100951504Y-82366917D01*
X100951504Y-82366917D02*
X100951504Y-82134536D01*
X100951504Y-82134536D02*
X101009600Y-82018345D01*
X101009600Y-82018345D02*
X101125790Y-81902155D01*
X101125790Y-81902155D02*
X101358171Y-81844059D01*
X101358171Y-81844059D02*
X101764838Y-81844059D01*
X101764838Y-81844059D02*
X101997219Y-81902155D01*
X101997219Y-81902155D02*
X102113409Y-82018345D01*
X102113409Y-82018345D02*
X102171504Y-82134536D01*
X100951504Y-83180250D02*
X102171504Y-83180250D01*
X102171504Y-83180250D02*
X102171504Y-83470726D01*
X102171504Y-83470726D02*
X102113409Y-83645012D01*
X102113409Y-83645012D02*
X101997219Y-83761202D01*
X101997219Y-83761202D02*
X101881028Y-83819297D01*
X101881028Y-83819297D02*
X101648647Y-83877393D01*
X101648647Y-83877393D02*
X101474361Y-83877393D01*
X101474361Y-83877393D02*
X101241980Y-83819297D01*
X101241980Y-83819297D02*
X101125790Y-83761202D01*
X101125790Y-83761202D02*
X101009600Y-83645012D01*
X101009600Y-83645012D02*
X100951504Y-83470726D01*
X100951504Y-83470726D02*
X100951504Y-83180250D01*
X102171504Y-84400250D02*
X101183885Y-84400250D01*
X101183885Y-84400250D02*
X101067695Y-84458345D01*
X101067695Y-84458345D02*
X101009600Y-84516440D01*
X101009600Y-84516440D02*
X100951504Y-84632631D01*
X100951504Y-84632631D02*
X100951504Y-84865012D01*
X100951504Y-84865012D02*
X101009600Y-84981202D01*
X101009600Y-84981202D02*
X101067695Y-85039297D01*
X101067695Y-85039297D02*
X101183885Y-85097393D01*
X101183885Y-85097393D02*
X102171504Y-85097393D01*
X100951504Y-86259297D02*
X100951504Y-85678345D01*
X100951504Y-85678345D02*
X102171504Y-85678345D01*
X101590552Y-86665964D02*
X101590552Y-87072630D01*
X100951504Y-87246916D02*
X100951504Y-86665964D01*
X100951504Y-86665964D02*
X102171504Y-86665964D01*
X102171504Y-86665964D02*
X102171504Y-87246916D01*
X101764838Y-88583107D02*
X100951504Y-88873583D01*
X100951504Y-88873583D02*
X101764838Y-89164060D01*
X100951504Y-90267869D02*
X100951504Y-89570726D01*
X100951504Y-89919298D02*
X102171504Y-89919298D01*
X102171504Y-89919298D02*
X101997219Y-89803107D01*
X101997219Y-89803107D02*
X101881028Y-89686917D01*
X101881028Y-89686917D02*
X101822933Y-89570726D01*
X101067695Y-90790727D02*
X101009600Y-90848822D01*
X101009600Y-90848822D02*
X100951504Y-90790727D01*
X100951504Y-90790727D02*
X101009600Y-90732631D01*
X101009600Y-90732631D02*
X101067695Y-90790727D01*
X101067695Y-90790727D02*
X100951504Y-90790727D01*
X101648647Y-91545964D02*
X101706742Y-91429774D01*
X101706742Y-91429774D02*
X101764838Y-91371679D01*
X101764838Y-91371679D02*
X101881028Y-91313583D01*
X101881028Y-91313583D02*
X101939123Y-91313583D01*
X101939123Y-91313583D02*
X102055314Y-91371679D01*
X102055314Y-91371679D02*
X102113409Y-91429774D01*
X102113409Y-91429774D02*
X102171504Y-91545964D01*
X102171504Y-91545964D02*
X102171504Y-91778345D01*
X102171504Y-91778345D02*
X102113409Y-91894536D01*
X102113409Y-91894536D02*
X102055314Y-91952631D01*
X102055314Y-91952631D02*
X101939123Y-92010726D01*
X101939123Y-92010726D02*
X101881028Y-92010726D01*
X101881028Y-92010726D02*
X101764838Y-91952631D01*
X101764838Y-91952631D02*
X101706742Y-91894536D01*
X101706742Y-91894536D02*
X101648647Y-91778345D01*
X101648647Y-91778345D02*
X101648647Y-91545964D01*
X101648647Y-91545964D02*
X101590552Y-91429774D01*
X101590552Y-91429774D02*
X101532457Y-91371679D01*
X101532457Y-91371679D02*
X101416266Y-91313583D01*
X101416266Y-91313583D02*
X101183885Y-91313583D01*
X101183885Y-91313583D02*
X101067695Y-91371679D01*
X101067695Y-91371679D02*
X101009600Y-91429774D01*
X101009600Y-91429774D02*
X100951504Y-91545964D01*
X100951504Y-91545964D02*
X100951504Y-91778345D01*
X100951504Y-91778345D02*
X101009600Y-91894536D01*
X101009600Y-91894536D02*
X101067695Y-91952631D01*
X101067695Y-91952631D02*
X101183885Y-92010726D01*
X101183885Y-92010726D02*
X101416266Y-92010726D01*
X101416266Y-92010726D02*
X101532457Y-91952631D01*
X101532457Y-91952631D02*
X101590552Y-91894536D01*
X101590552Y-91894536D02*
X101648647Y-91778345D01*
X118269673Y-65697219D02*
X118269673Y-64067219D01*
X118269673Y-64067219D02*
X118657768Y-64067219D01*
X118657768Y-64067219D02*
X118890625Y-64144838D01*
X118890625Y-64144838D02*
X119045863Y-64300076D01*
X119045863Y-64300076D02*
X119123482Y-64455314D01*
X119123482Y-64455314D02*
X119201101Y-64765790D01*
X119201101Y-64765790D02*
X119201101Y-64998647D01*
X119201101Y-64998647D02*
X119123482Y-65309123D01*
X119123482Y-65309123D02*
X119045863Y-65464361D01*
X119045863Y-65464361D02*
X118890625Y-65619600D01*
X118890625Y-65619600D02*
X118657768Y-65697219D01*
X118657768Y-65697219D02*
X118269673Y-65697219D01*
X119822054Y-65231504D02*
X120598244Y-65231504D01*
X119666816Y-65697219D02*
X120210149Y-64067219D01*
X120210149Y-64067219D02*
X120753482Y-65697219D01*
X121063959Y-64067219D02*
X121995387Y-64067219D01*
X121529673Y-65697219D02*
X121529673Y-64067219D01*
X122461102Y-65231504D02*
X123237292Y-65231504D01*
X122305864Y-65697219D02*
X122849197Y-64067219D01*
X122849197Y-64067219D02*
X123392530Y-65697219D01*
X125721102Y-64843409D02*
X125953959Y-64921028D01*
X125953959Y-64921028D02*
X126031578Y-64998647D01*
X126031578Y-64998647D02*
X126109197Y-65153885D01*
X126109197Y-65153885D02*
X126109197Y-65386742D01*
X126109197Y-65386742D02*
X126031578Y-65541980D01*
X126031578Y-65541980D02*
X125953959Y-65619600D01*
X125953959Y-65619600D02*
X125798721Y-65697219D01*
X125798721Y-65697219D02*
X125177769Y-65697219D01*
X125177769Y-65697219D02*
X125177769Y-64067219D01*
X125177769Y-64067219D02*
X125721102Y-64067219D01*
X125721102Y-64067219D02*
X125876340Y-64144838D01*
X125876340Y-64144838D02*
X125953959Y-64222457D01*
X125953959Y-64222457D02*
X126031578Y-64377695D01*
X126031578Y-64377695D02*
X126031578Y-64532933D01*
X126031578Y-64532933D02*
X125953959Y-64688171D01*
X125953959Y-64688171D02*
X125876340Y-64765790D01*
X125876340Y-64765790D02*
X125721102Y-64843409D01*
X125721102Y-64843409D02*
X125177769Y-64843409D01*
X126807769Y-64067219D02*
X126807769Y-65386742D01*
X126807769Y-65386742D02*
X126885388Y-65541980D01*
X126885388Y-65541980D02*
X126963007Y-65619600D01*
X126963007Y-65619600D02*
X127118245Y-65697219D01*
X127118245Y-65697219D02*
X127428721Y-65697219D01*
X127428721Y-65697219D02*
X127583959Y-65619600D01*
X127583959Y-65619600D02*
X127661578Y-65541980D01*
X127661578Y-65541980D02*
X127739197Y-65386742D01*
X127739197Y-65386742D02*
X127739197Y-64067219D01*
X128437769Y-65619600D02*
X128670626Y-65697219D01*
X128670626Y-65697219D02*
X129058721Y-65697219D01*
X129058721Y-65697219D02*
X129213959Y-65619600D01*
X129213959Y-65619600D02*
X129291578Y-65541980D01*
X129291578Y-65541980D02*
X129369197Y-65386742D01*
X129369197Y-65386742D02*
X129369197Y-65231504D01*
X129369197Y-65231504D02*
X129291578Y-65076266D01*
X129291578Y-65076266D02*
X129213959Y-64998647D01*
X129213959Y-64998647D02*
X129058721Y-64921028D01*
X129058721Y-64921028D02*
X128748245Y-64843409D01*
X128748245Y-64843409D02*
X128593007Y-64765790D01*
X128593007Y-64765790D02*
X128515388Y-64688171D01*
X128515388Y-64688171D02*
X128437769Y-64532933D01*
X128437769Y-64532933D02*
X128437769Y-64377695D01*
X128437769Y-64377695D02*
X128515388Y-64222457D01*
X128515388Y-64222457D02*
X128593007Y-64144838D01*
X128593007Y-64144838D02*
X128748245Y-64067219D01*
X128748245Y-64067219D02*
X129136340Y-64067219D01*
X129136340Y-64067219D02*
X129369197Y-64144838D01*
X132241102Y-65541980D02*
X132163483Y-65619600D01*
X132163483Y-65619600D02*
X131930626Y-65697219D01*
X131930626Y-65697219D02*
X131775388Y-65697219D01*
X131775388Y-65697219D02*
X131542531Y-65619600D01*
X131542531Y-65619600D02*
X131387293Y-65464361D01*
X131387293Y-65464361D02*
X131309674Y-65309123D01*
X131309674Y-65309123D02*
X131232055Y-64998647D01*
X131232055Y-64998647D02*
X131232055Y-64765790D01*
X131232055Y-64765790D02*
X131309674Y-64455314D01*
X131309674Y-64455314D02*
X131387293Y-64300076D01*
X131387293Y-64300076D02*
X131542531Y-64144838D01*
X131542531Y-64144838D02*
X131775388Y-64067219D01*
X131775388Y-64067219D02*
X131930626Y-64067219D01*
X131930626Y-64067219D02*
X132163483Y-64144838D01*
X132163483Y-64144838D02*
X132241102Y-64222457D01*
X133250150Y-64067219D02*
X133560626Y-64067219D01*
X133560626Y-64067219D02*
X133715864Y-64144838D01*
X133715864Y-64144838D02*
X133871102Y-64300076D01*
X133871102Y-64300076D02*
X133948721Y-64610552D01*
X133948721Y-64610552D02*
X133948721Y-65153885D01*
X133948721Y-65153885D02*
X133871102Y-65464361D01*
X133871102Y-65464361D02*
X133715864Y-65619600D01*
X133715864Y-65619600D02*
X133560626Y-65697219D01*
X133560626Y-65697219D02*
X133250150Y-65697219D01*
X133250150Y-65697219D02*
X133094912Y-65619600D01*
X133094912Y-65619600D02*
X132939674Y-65464361D01*
X132939674Y-65464361D02*
X132862055Y-65153885D01*
X132862055Y-65153885D02*
X132862055Y-64610552D01*
X132862055Y-64610552D02*
X132939674Y-64300076D01*
X132939674Y-64300076D02*
X133094912Y-64144838D01*
X133094912Y-64144838D02*
X133250150Y-64067219D01*
X134647293Y-65697219D02*
X134647293Y-64067219D01*
X134647293Y-64067219D02*
X135578721Y-65697219D01*
X135578721Y-65697219D02*
X135578721Y-64067219D01*
X136354912Y-65697219D02*
X136354912Y-64067219D01*
X136354912Y-64067219D02*
X137286340Y-65697219D01*
X137286340Y-65697219D02*
X137286340Y-64067219D01*
X198932780Y-70769673D02*
X197613257Y-70769673D01*
X197613257Y-70769673D02*
X197458019Y-70847292D01*
X197458019Y-70847292D02*
X197380400Y-70924911D01*
X197380400Y-70924911D02*
X197302780Y-71080149D01*
X197302780Y-71080149D02*
X197302780Y-71390625D01*
X197302780Y-71390625D02*
X197380400Y-71545863D01*
X197380400Y-71545863D02*
X197458019Y-71623482D01*
X197458019Y-71623482D02*
X197613257Y-71701101D01*
X197613257Y-71701101D02*
X198932780Y-71701101D01*
X197302780Y-72477292D02*
X198932780Y-72477292D01*
X198932780Y-72477292D02*
X197302780Y-73408720D01*
X197302780Y-73408720D02*
X198932780Y-73408720D01*
X198932780Y-73952054D02*
X198932780Y-74883482D01*
X197302780Y-74417768D02*
X198932780Y-74417768D01*
X197302780Y-75426816D02*
X198932780Y-75426816D01*
X198932780Y-75970149D02*
X198932780Y-76901577D01*
X197302780Y-76435863D02*
X198932780Y-76435863D01*
X197302780Y-78221101D02*
X197302780Y-77444911D01*
X197302780Y-77444911D02*
X198932780Y-77444911D01*
X198156590Y-78764435D02*
X198156590Y-79307768D01*
X197302780Y-79540625D02*
X197302780Y-78764435D01*
X197302780Y-78764435D02*
X198932780Y-78764435D01*
X198932780Y-78764435D02*
X198932780Y-79540625D01*
X197302780Y-80239197D02*
X198932780Y-80239197D01*
X198932780Y-80239197D02*
X198932780Y-80627292D01*
X198932780Y-80627292D02*
X198855161Y-80860149D01*
X198855161Y-80860149D02*
X198699923Y-81015387D01*
X198699923Y-81015387D02*
X198544685Y-81093006D01*
X198544685Y-81093006D02*
X198234209Y-81170625D01*
X198234209Y-81170625D02*
X198001352Y-81170625D01*
X198001352Y-81170625D02*
X197690876Y-81093006D01*
X197690876Y-81093006D02*
X197535638Y-81015387D01*
X197535638Y-81015387D02*
X197380400Y-80860149D01*
X197380400Y-80860149D02*
X197302780Y-80627292D01*
X197302780Y-80627292D02*
X197302780Y-80239197D01*
X197380400Y-83033483D02*
X197302780Y-83266340D01*
X197302780Y-83266340D02*
X197302780Y-83654435D01*
X197302780Y-83654435D02*
X197380400Y-83809673D01*
X197380400Y-83809673D02*
X197458019Y-83887292D01*
X197458019Y-83887292D02*
X197613257Y-83964911D01*
X197613257Y-83964911D02*
X197768495Y-83964911D01*
X197768495Y-83964911D02*
X197923733Y-83887292D01*
X197923733Y-83887292D02*
X198001352Y-83809673D01*
X198001352Y-83809673D02*
X198078971Y-83654435D01*
X198078971Y-83654435D02*
X198156590Y-83343959D01*
X198156590Y-83343959D02*
X198234209Y-83188721D01*
X198234209Y-83188721D02*
X198311828Y-83111102D01*
X198311828Y-83111102D02*
X198467066Y-83033483D01*
X198467066Y-83033483D02*
X198622304Y-83033483D01*
X198622304Y-83033483D02*
X198777542Y-83111102D01*
X198777542Y-83111102D02*
X198855161Y-83188721D01*
X198855161Y-83188721D02*
X198932780Y-83343959D01*
X198932780Y-83343959D02*
X198932780Y-83732054D01*
X198932780Y-83732054D02*
X198855161Y-83964911D01*
X197302780Y-84663483D02*
X198932780Y-84663483D01*
X198932780Y-84663483D02*
X198932780Y-85284435D01*
X198932780Y-85284435D02*
X198855161Y-85439673D01*
X198855161Y-85439673D02*
X198777542Y-85517292D01*
X198777542Y-85517292D02*
X198622304Y-85594911D01*
X198622304Y-85594911D02*
X198389447Y-85594911D01*
X198389447Y-85594911D02*
X198234209Y-85517292D01*
X198234209Y-85517292D02*
X198156590Y-85439673D01*
X198156590Y-85439673D02*
X198078971Y-85284435D01*
X198078971Y-85284435D02*
X198078971Y-84663483D01*
X197768495Y-86215864D02*
X197768495Y-86992054D01*
X197302780Y-86060626D02*
X198932780Y-86603959D01*
X198932780Y-86603959D02*
X197302780Y-87147292D01*
X197458019Y-88622054D02*
X197380400Y-88544435D01*
X197380400Y-88544435D02*
X197302780Y-88311578D01*
X197302780Y-88311578D02*
X197302780Y-88156340D01*
X197302780Y-88156340D02*
X197380400Y-87923483D01*
X197380400Y-87923483D02*
X197535638Y-87768245D01*
X197535638Y-87768245D02*
X197690876Y-87690626D01*
X197690876Y-87690626D02*
X198001352Y-87613007D01*
X198001352Y-87613007D02*
X198234209Y-87613007D01*
X198234209Y-87613007D02*
X198544685Y-87690626D01*
X198544685Y-87690626D02*
X198699923Y-87768245D01*
X198699923Y-87768245D02*
X198855161Y-87923483D01*
X198855161Y-87923483D02*
X198932780Y-88156340D01*
X198932780Y-88156340D02*
X198932780Y-88311578D01*
X198932780Y-88311578D02*
X198855161Y-88544435D01*
X198855161Y-88544435D02*
X198777542Y-88622054D01*
X198156590Y-89320626D02*
X198156590Y-89863959D01*
X197302780Y-90096816D02*
X197302780Y-89320626D01*
X197302780Y-89320626D02*
X198932780Y-89320626D01*
X198932780Y-89320626D02*
X198932780Y-90096816D01*
X197458019Y-92968721D02*
X197380400Y-92891102D01*
X197380400Y-92891102D02*
X197302780Y-92658245D01*
X197302780Y-92658245D02*
X197302780Y-92503007D01*
X197302780Y-92503007D02*
X197380400Y-92270150D01*
X197380400Y-92270150D02*
X197535638Y-92114912D01*
X197535638Y-92114912D02*
X197690876Y-92037293D01*
X197690876Y-92037293D02*
X198001352Y-91959674D01*
X198001352Y-91959674D02*
X198234209Y-91959674D01*
X198234209Y-91959674D02*
X198544685Y-92037293D01*
X198544685Y-92037293D02*
X198699923Y-92114912D01*
X198699923Y-92114912D02*
X198855161Y-92270150D01*
X198855161Y-92270150D02*
X198932780Y-92503007D01*
X198932780Y-92503007D02*
X198932780Y-92658245D01*
X198932780Y-92658245D02*
X198855161Y-92891102D01*
X198855161Y-92891102D02*
X198777542Y-92968721D01*
X197302780Y-94598721D02*
X198078971Y-94055388D01*
X197302780Y-93667293D02*
X198932780Y-93667293D01*
X198932780Y-93667293D02*
X198932780Y-94288245D01*
X198932780Y-94288245D02*
X198855161Y-94443483D01*
X198855161Y-94443483D02*
X198777542Y-94521102D01*
X198777542Y-94521102D02*
X198622304Y-94598721D01*
X198622304Y-94598721D02*
X198389447Y-94598721D01*
X198389447Y-94598721D02*
X198234209Y-94521102D01*
X198234209Y-94521102D02*
X198156590Y-94443483D01*
X198156590Y-94443483D02*
X198078971Y-94288245D01*
X198078971Y-94288245D02*
X198078971Y-93667293D01*
X197768495Y-95219674D02*
X197768495Y-95995864D01*
X197302780Y-95064436D02*
X198932780Y-95607769D01*
X198932780Y-95607769D02*
X197302780Y-96151102D01*
X198156590Y-97237769D02*
X198156590Y-96694436D01*
X197302780Y-96694436D02*
X198932780Y-96694436D01*
X198932780Y-96694436D02*
X198932780Y-97470626D01*
X198932780Y-97858722D02*
X198932780Y-98790150D01*
X197302780Y-98324436D02*
X198932780Y-98324436D01*
X197458019Y-134701101D02*
X197380400Y-134623482D01*
X197380400Y-134623482D02*
X197302780Y-134390625D01*
X197302780Y-134390625D02*
X197302780Y-134235387D01*
X197302780Y-134235387D02*
X197380400Y-134002530D01*
X197380400Y-134002530D02*
X197535638Y-133847292D01*
X197535638Y-133847292D02*
X197690876Y-133769673D01*
X197690876Y-133769673D02*
X198001352Y-133692054D01*
X198001352Y-133692054D02*
X198234209Y-133692054D01*
X198234209Y-133692054D02*
X198544685Y-133769673D01*
X198544685Y-133769673D02*
X198699923Y-133847292D01*
X198699923Y-133847292D02*
X198855161Y-134002530D01*
X198855161Y-134002530D02*
X198932780Y-134235387D01*
X198932780Y-134235387D02*
X198932780Y-134390625D01*
X198932780Y-134390625D02*
X198855161Y-134623482D01*
X198855161Y-134623482D02*
X198777542Y-134701101D01*
X198932780Y-135710149D02*
X198932780Y-136020625D01*
X198932780Y-136020625D02*
X198855161Y-136175863D01*
X198855161Y-136175863D02*
X198699923Y-136331101D01*
X198699923Y-136331101D02*
X198389447Y-136408720D01*
X198389447Y-136408720D02*
X197846114Y-136408720D01*
X197846114Y-136408720D02*
X197535638Y-136331101D01*
X197535638Y-136331101D02*
X197380400Y-136175863D01*
X197380400Y-136175863D02*
X197302780Y-136020625D01*
X197302780Y-136020625D02*
X197302780Y-135710149D01*
X197302780Y-135710149D02*
X197380400Y-135554911D01*
X197380400Y-135554911D02*
X197535638Y-135399673D01*
X197535638Y-135399673D02*
X197846114Y-135322054D01*
X197846114Y-135322054D02*
X198389447Y-135322054D01*
X198389447Y-135322054D02*
X198699923Y-135399673D01*
X198699923Y-135399673D02*
X198855161Y-135554911D01*
X198855161Y-135554911D02*
X198932780Y-135710149D01*
X197302780Y-137107292D02*
X198932780Y-137107292D01*
X198932780Y-137107292D02*
X198932780Y-137495387D01*
X198932780Y-137495387D02*
X198855161Y-137728244D01*
X198855161Y-137728244D02*
X198699923Y-137883482D01*
X198699923Y-137883482D02*
X198544685Y-137961101D01*
X198544685Y-137961101D02*
X198234209Y-138038720D01*
X198234209Y-138038720D02*
X198001352Y-138038720D01*
X198001352Y-138038720D02*
X197690876Y-137961101D01*
X197690876Y-137961101D02*
X197535638Y-137883482D01*
X197535638Y-137883482D02*
X197380400Y-137728244D01*
X197380400Y-137728244D02*
X197302780Y-137495387D01*
X197302780Y-137495387D02*
X197302780Y-137107292D01*
X197768495Y-138659673D02*
X197768495Y-139435863D01*
X197302780Y-138504435D02*
X198932780Y-139047768D01*
X198932780Y-139047768D02*
X197302780Y-139591101D01*
X197302780Y-140134435D02*
X198932780Y-140134435D01*
X198932780Y-140134435D02*
X198932780Y-140755387D01*
X198932780Y-140755387D02*
X198855161Y-140910625D01*
X198855161Y-140910625D02*
X198777542Y-140988244D01*
X198777542Y-140988244D02*
X198622304Y-141065863D01*
X198622304Y-141065863D02*
X198389447Y-141065863D01*
X198389447Y-141065863D02*
X198234209Y-140988244D01*
X198234209Y-140988244D02*
X198156590Y-140910625D01*
X198156590Y-140910625D02*
X198078971Y-140755387D01*
X198078971Y-140755387D02*
X198078971Y-140134435D01*
X198932780Y-142074911D02*
X198932780Y-142385387D01*
X198932780Y-142385387D02*
X198855161Y-142540625D01*
X198855161Y-142540625D02*
X198699923Y-142695863D01*
X198699923Y-142695863D02*
X198389447Y-142773482D01*
X198389447Y-142773482D02*
X197846114Y-142773482D01*
X197846114Y-142773482D02*
X197535638Y-142695863D01*
X197535638Y-142695863D02*
X197380400Y-142540625D01*
X197380400Y-142540625D02*
X197302780Y-142385387D01*
X197302780Y-142385387D02*
X197302780Y-142074911D01*
X197302780Y-142074911D02*
X197380400Y-141919673D01*
X197380400Y-141919673D02*
X197535638Y-141764435D01*
X197535638Y-141764435D02*
X197846114Y-141686816D01*
X197846114Y-141686816D02*
X198389447Y-141686816D01*
X198389447Y-141686816D02*
X198699923Y-141764435D01*
X198699923Y-141764435D02*
X198855161Y-141919673D01*
X198855161Y-141919673D02*
X198932780Y-142074911D01*
X197302780Y-143472054D02*
X198932780Y-143472054D01*
X198932780Y-143472054D02*
X198932780Y-144093006D01*
X198932780Y-144093006D02*
X198855161Y-144248244D01*
X198855161Y-144248244D02*
X198777542Y-144325863D01*
X198777542Y-144325863D02*
X198622304Y-144403482D01*
X198622304Y-144403482D02*
X198389447Y-144403482D01*
X198389447Y-144403482D02*
X198234209Y-144325863D01*
X198234209Y-144325863D02*
X198156590Y-144248244D01*
X198156590Y-144248244D02*
X198078971Y-144093006D01*
X198078971Y-144093006D02*
X198078971Y-143472054D01*
X197302780Y-145102054D02*
X198932780Y-145102054D01*
X197302780Y-146033482D02*
X198234209Y-145334911D01*
X198932780Y-146033482D02*
X198001352Y-145102054D01*
X197380400Y-146654435D02*
X197302780Y-146887292D01*
X197302780Y-146887292D02*
X197302780Y-147275387D01*
X197302780Y-147275387D02*
X197380400Y-147430625D01*
X197380400Y-147430625D02*
X197458019Y-147508244D01*
X197458019Y-147508244D02*
X197613257Y-147585863D01*
X197613257Y-147585863D02*
X197768495Y-147585863D01*
X197768495Y-147585863D02*
X197923733Y-147508244D01*
X197923733Y-147508244D02*
X198001352Y-147430625D01*
X198001352Y-147430625D02*
X198078971Y-147275387D01*
X198078971Y-147275387D02*
X198156590Y-146964911D01*
X198156590Y-146964911D02*
X198234209Y-146809673D01*
X198234209Y-146809673D02*
X198311828Y-146732054D01*
X198311828Y-146732054D02*
X198467066Y-146654435D01*
X198467066Y-146654435D02*
X198622304Y-146654435D01*
X198622304Y-146654435D02*
X198777542Y-146732054D01*
X198777542Y-146732054D02*
X198855161Y-146809673D01*
X198855161Y-146809673D02*
X198932780Y-146964911D01*
X198932780Y-146964911D02*
X198932780Y-147353006D01*
X198932780Y-147353006D02*
X198855161Y-147585863D01*
X197302780Y-148284435D02*
X198932780Y-148284435D01*
X198932780Y-148284435D02*
X198932780Y-148905387D01*
X198932780Y-148905387D02*
X198855161Y-149060625D01*
X198855161Y-149060625D02*
X198777542Y-149138244D01*
X198777542Y-149138244D02*
X198622304Y-149215863D01*
X198622304Y-149215863D02*
X198389447Y-149215863D01*
X198389447Y-149215863D02*
X198234209Y-149138244D01*
X198234209Y-149138244D02*
X198156590Y-149060625D01*
X198156590Y-149060625D02*
X198078971Y-148905387D01*
X198078971Y-148905387D02*
X198078971Y-148284435D01*
D16*
X121857201Y-131698696D02*
X121552401Y-131263268D01*
X121334687Y-131698696D02*
X121334687Y-130784296D01*
X121334687Y-130784296D02*
X121683030Y-130784296D01*
X121683030Y-130784296D02*
X121770115Y-130827839D01*
X121770115Y-130827839D02*
X121813658Y-130871382D01*
X121813658Y-130871382D02*
X121857201Y-130958468D01*
X121857201Y-130958468D02*
X121857201Y-131089096D01*
X121857201Y-131089096D02*
X121813658Y-131176182D01*
X121813658Y-131176182D02*
X121770115Y-131219725D01*
X121770115Y-131219725D02*
X121683030Y-131263268D01*
X121683030Y-131263268D02*
X121334687Y-131263268D01*
X122640973Y-131089096D02*
X122640973Y-131698696D01*
X122423258Y-130740754D02*
X122205544Y-131393896D01*
X122205544Y-131393896D02*
X122771601Y-131393896D01*
X123834687Y-131350354D02*
X124531373Y-131350354D01*
X126142458Y-131698696D02*
X125619944Y-131698696D01*
X125881201Y-131698696D02*
X125881201Y-130784296D01*
X125881201Y-130784296D02*
X125794115Y-130914925D01*
X125794115Y-130914925D02*
X125707030Y-131002011D01*
X125707030Y-131002011D02*
X125619944Y-131045554D01*
X126708515Y-130784296D02*
X126795601Y-130784296D01*
X126795601Y-130784296D02*
X126882687Y-130827839D01*
X126882687Y-130827839D02*
X126926230Y-130871382D01*
X126926230Y-130871382D02*
X126969772Y-130958468D01*
X126969772Y-130958468D02*
X127013315Y-131132639D01*
X127013315Y-131132639D02*
X127013315Y-131350354D01*
X127013315Y-131350354D02*
X126969772Y-131524525D01*
X126969772Y-131524525D02*
X126926230Y-131611611D01*
X126926230Y-131611611D02*
X126882687Y-131655154D01*
X126882687Y-131655154D02*
X126795601Y-131698696D01*
X126795601Y-131698696D02*
X126708515Y-131698696D01*
X126708515Y-131698696D02*
X126621430Y-131655154D01*
X126621430Y-131655154D02*
X126577887Y-131611611D01*
X126577887Y-131611611D02*
X126534344Y-131524525D01*
X126534344Y-131524525D02*
X126490801Y-131350354D01*
X126490801Y-131350354D02*
X126490801Y-131132639D01*
X126490801Y-131132639D02*
X126534344Y-130958468D01*
X126534344Y-130958468D02*
X126577887Y-130871382D01*
X126577887Y-130871382D02*
X126621430Y-130827839D01*
X126621430Y-130827839D02*
X126708515Y-130784296D01*
X127405201Y-131698696D02*
X127405201Y-130784296D01*
X127927715Y-131698696D02*
X127535829Y-131176182D01*
X127927715Y-130784296D02*
X127405201Y-131306811D01*
X117107201Y-116448696D02*
X116802401Y-116013268D01*
X116584687Y-116448696D02*
X116584687Y-115534296D01*
X116584687Y-115534296D02*
X116933030Y-115534296D01*
X116933030Y-115534296D02*
X117020115Y-115577839D01*
X117020115Y-115577839D02*
X117063658Y-115621382D01*
X117063658Y-115621382D02*
X117107201Y-115708468D01*
X117107201Y-115708468D02*
X117107201Y-115839096D01*
X117107201Y-115839096D02*
X117063658Y-115926182D01*
X117063658Y-115926182D02*
X117020115Y-115969725D01*
X117020115Y-115969725D02*
X116933030Y-116013268D01*
X116933030Y-116013268D02*
X116584687Y-116013268D01*
X117412001Y-115534296D02*
X117978058Y-115534296D01*
X117978058Y-115534296D02*
X117673258Y-115882639D01*
X117673258Y-115882639D02*
X117803887Y-115882639D01*
X117803887Y-115882639D02*
X117890973Y-115926182D01*
X117890973Y-115926182D02*
X117934515Y-115969725D01*
X117934515Y-115969725D02*
X117978058Y-116056811D01*
X117978058Y-116056811D02*
X117978058Y-116274525D01*
X117978058Y-116274525D02*
X117934515Y-116361611D01*
X117934515Y-116361611D02*
X117890973Y-116405154D01*
X117890973Y-116405154D02*
X117803887Y-116448696D01*
X117803887Y-116448696D02*
X117542630Y-116448696D01*
X117542630Y-116448696D02*
X117455544Y-116405154D01*
X117455544Y-116405154D02*
X117412001Y-116361611D01*
X119084687Y-116100354D02*
X119781373Y-116100354D01*
X121392458Y-116448696D02*
X120869944Y-116448696D01*
X121131201Y-116448696D02*
X121131201Y-115534296D01*
X121131201Y-115534296D02*
X121044115Y-115664925D01*
X121044115Y-115664925D02*
X120957030Y-115752011D01*
X120957030Y-115752011D02*
X120869944Y-115795554D01*
X121958515Y-115534296D02*
X122045601Y-115534296D01*
X122045601Y-115534296D02*
X122132687Y-115577839D01*
X122132687Y-115577839D02*
X122176230Y-115621382D01*
X122176230Y-115621382D02*
X122219772Y-115708468D01*
X122219772Y-115708468D02*
X122263315Y-115882639D01*
X122263315Y-115882639D02*
X122263315Y-116100354D01*
X122263315Y-116100354D02*
X122219772Y-116274525D01*
X122219772Y-116274525D02*
X122176230Y-116361611D01*
X122176230Y-116361611D02*
X122132687Y-116405154D01*
X122132687Y-116405154D02*
X122045601Y-116448696D01*
X122045601Y-116448696D02*
X121958515Y-116448696D01*
X121958515Y-116448696D02*
X121871430Y-116405154D01*
X121871430Y-116405154D02*
X121827887Y-116361611D01*
X121827887Y-116361611D02*
X121784344Y-116274525D01*
X121784344Y-116274525D02*
X121740801Y-116100354D01*
X121740801Y-116100354D02*
X121740801Y-115882639D01*
X121740801Y-115882639D02*
X121784344Y-115708468D01*
X121784344Y-115708468D02*
X121827887Y-115621382D01*
X121827887Y-115621382D02*
X121871430Y-115577839D01*
X121871430Y-115577839D02*
X121958515Y-115534296D01*
X122655201Y-116448696D02*
X122655201Y-115534296D01*
X123177715Y-116448696D02*
X122785829Y-115926182D01*
X123177715Y-115534296D02*
X122655201Y-116056811D01*
X135107201Y-95298211D02*
X135063658Y-95341754D01*
X135063658Y-95341754D02*
X134933030Y-95385296D01*
X134933030Y-95385296D02*
X134845944Y-95385296D01*
X134845944Y-95385296D02*
X134715315Y-95341754D01*
X134715315Y-95341754D02*
X134628230Y-95254668D01*
X134628230Y-95254668D02*
X134584687Y-95167582D01*
X134584687Y-95167582D02*
X134541144Y-94993411D01*
X134541144Y-94993411D02*
X134541144Y-94862782D01*
X134541144Y-94862782D02*
X134584687Y-94688611D01*
X134584687Y-94688611D02*
X134628230Y-94601525D01*
X134628230Y-94601525D02*
X134715315Y-94514439D01*
X134715315Y-94514439D02*
X134845944Y-94470896D01*
X134845944Y-94470896D02*
X134933030Y-94470896D01*
X134933030Y-94470896D02*
X135063658Y-94514439D01*
X135063658Y-94514439D02*
X135107201Y-94557982D01*
X135978058Y-95385296D02*
X135455544Y-95385296D01*
X135716801Y-95385296D02*
X135716801Y-94470896D01*
X135716801Y-94470896D02*
X135629715Y-94601525D01*
X135629715Y-94601525D02*
X135542630Y-94688611D01*
X135542630Y-94688611D02*
X135455544Y-94732154D01*
D14*
X141567977Y-93535617D02*
X141567977Y-94275846D01*
X141567977Y-94275846D02*
X141611520Y-94362932D01*
X141611520Y-94362932D02*
X141655063Y-94406475D01*
X141655063Y-94406475D02*
X141742148Y-94450017D01*
X141742148Y-94450017D02*
X141916320Y-94450017D01*
X141916320Y-94450017D02*
X142003405Y-94406475D01*
X142003405Y-94406475D02*
X142046948Y-94362932D01*
X142046948Y-94362932D02*
X142090491Y-94275846D01*
X142090491Y-94275846D02*
X142090491Y-93535617D01*
X143004891Y-94450017D02*
X142482377Y-94450017D01*
X142743634Y-94450017D02*
X142743634Y-93535617D01*
X142743634Y-93535617D02*
X142656548Y-93666246D01*
X142656548Y-93666246D02*
X142569463Y-93753332D01*
X142569463Y-93753332D02*
X142482377Y-93796875D01*
X107840491Y-69362932D02*
X107796948Y-69406475D01*
X107796948Y-69406475D02*
X107666320Y-69450017D01*
X107666320Y-69450017D02*
X107579234Y-69450017D01*
X107579234Y-69450017D02*
X107448605Y-69406475D01*
X107448605Y-69406475D02*
X107361520Y-69319389D01*
X107361520Y-69319389D02*
X107317977Y-69232303D01*
X107317977Y-69232303D02*
X107274434Y-69058132D01*
X107274434Y-69058132D02*
X107274434Y-68927503D01*
X107274434Y-68927503D02*
X107317977Y-68753332D01*
X107317977Y-68753332D02*
X107361520Y-68666246D01*
X107361520Y-68666246D02*
X107448605Y-68579160D01*
X107448605Y-68579160D02*
X107579234Y-68535617D01*
X107579234Y-68535617D02*
X107666320Y-68535617D01*
X107666320Y-68535617D02*
X107796948Y-68579160D01*
X107796948Y-68579160D02*
X107840491Y-68622703D01*
X108232377Y-69101675D02*
X108929063Y-69101675D01*
X109364491Y-69450017D02*
X109364491Y-68535617D01*
X109364491Y-68535617D02*
X109669291Y-69188760D01*
X109669291Y-69188760D02*
X109974091Y-68535617D01*
X109974091Y-68535617D02*
X109974091Y-69450017D01*
X110365977Y-69188760D02*
X110801406Y-69188760D01*
X110278891Y-69450017D02*
X110583691Y-68535617D01*
X110583691Y-68535617D02*
X110888491Y-69450017D01*
X111193291Y-69450017D02*
X111193291Y-68535617D01*
X111628720Y-69450017D02*
X111628720Y-68535617D01*
X111628720Y-68535617D02*
X112151234Y-69450017D01*
X112151234Y-69450017D02*
X112151234Y-68535617D01*
%TO.C,R4*%
D10*
X118000200Y-130037400D02*
X118000200Y-132539300D01*
X118000200Y-132539300D02*
X130999900Y-132539300D01*
X130999900Y-130037400D02*
X118000200Y-130037400D01*
X130999900Y-132287800D02*
X130999900Y-130037400D01*
X130999900Y-132539300D02*
X130999900Y-132287800D01*
%TO.C,R3*%
X113368300Y-114592900D02*
X113368300Y-117094800D01*
X113368300Y-117094800D02*
X126368000Y-117094800D01*
X126368000Y-114592900D02*
X113368300Y-114592900D01*
X126368000Y-116843300D02*
X126368000Y-114592900D01*
X126368000Y-117094800D02*
X126368000Y-116843300D01*
%TO.C,C1*%
X133847800Y-91138800D02*
X133847800Y-98636900D01*
X133847800Y-98636900D02*
X136347100Y-98636900D01*
X136347100Y-91138800D02*
X133847800Y-91138800D01*
X136347100Y-98387900D02*
X136347100Y-91138800D01*
X136347100Y-98636900D02*
X136347100Y-98387900D01*
%TO.C,U1*%
X137609700Y-93893200D02*
X137609700Y-91796500D01*
X137609700Y-95925200D02*
X137609700Y-98023500D01*
X139196500Y-97830200D02*
X140342900Y-97830200D01*
X139198500Y-91988200D02*
X140340900Y-91988200D01*
X141736500Y-97830200D02*
X142882900Y-97830200D01*
X141738500Y-91988200D02*
X142880900Y-91988200D01*
X144276500Y-97830200D02*
X145422900Y-97830200D01*
X144278500Y-91988200D02*
X145420900Y-91988200D01*
X147009700Y-91796500D02*
X147009700Y-98023500D01*
X137609700Y-93893200D02*
G75*
G02*
X137609700Y-95925200I0J-1016000D01*
G01*
%TO.C,C-MAIN*%
X107468000Y-74770000D02*
X108484000Y-74770000D01*
X107976000Y-75278000D02*
X107976000Y-74262000D01*
X112650000Y-73500100D02*
G75*
G02*
X106350800Y-73500100I-3149600J0D01*
G01*
X106350800Y-73500100D02*
G75*
G02*
X112650000Y-73500100I3149600J0D01*
G01*
%TD*%
M02*
