%TF.GenerationSoftware,KiCad,Pcbnew,10.0.6*%
%TF.CreationDate,2026-09-23T18:12:16+08:00*%
%TF.ProjectId,Throttle_Module,5468726f-7474-46c6-955f-4d6f64756c65,1.7*%
%TF.SameCoordinates,Original*%
%TF.FileFunction,Copper,L2,Bot*%
%TF.FilePolarity,Positive*%
%FSLAX46Y46*%
G04 Gerber Fmt 4.6, Leading zero omitted, Abs format (unit mm)*
G04 Created by KiCad (PCBNEW 10.0.6) date 2026-09-23 18:12:16*
%MOMM*%
%LPD*%
G01*
G04 APERTURE LIST*
%TA.AperFunction,ComponentPad*%
%ADD10R,1.300000X1.300000*%
%TD*%
%TA.AperFunction,ComponentPad*%
%ADD11R,1.800000X1.800000*%
%TD*%
%TA.AperFunction,ComponentPad*%
%ADD12R,1.000000X1.000000*%
%TD*%
%TA.AperFunction,ComponentPad*%
%ADD13R,1.524000X1.524000*%
%TD*%
%TA.AperFunction,ViaPad*%
%ADD14C,0.609600*%
%TD*%
%TA.AperFunction,Conductor*%
%ADD15C,0.254000*%
%TD*%
%TA.AperFunction,Conductor*%
%ADD16C,0.762000*%
%TD*%
G04 APERTURE END LIST*
D10*
%TO.P,WP61,1*%
%TO.N,+5V*%
X122500100Y-70499900D03*
%TD*%
%TO.P,WP55,1*%
%TO.N,SDA*%
X134500300Y-70499900D03*
%TD*%
D11*
%TO.P,TP_Pad_gge22046,7*%
%TO.N,N/C*%
X154074600Y-121119800D03*
%TD*%
D10*
%TO.P,WP56,1*%
%TO.N,SCL*%
X132500100Y-70499900D03*
%TD*%
D12*
%TO.P,WP69,1*%
%TO.N,N/C*%
X130500300Y-68499600D03*
%TD*%
%TO.P,WP60,1*%
%TO.N,N/C*%
X124500400Y-70499900D03*
%TD*%
%TO.P,WP66,1*%
%TO.N,N/C*%
X128500400Y-68499600D03*
%TD*%
D13*
%TO.P,TP_PCONT,5*%
%TO.N,PCONT*%
X127249900Y-137999800D03*
%TD*%
D11*
%TO.P,TP_THROTTLE,2*%
%TO.N,THROTTLE*%
X149024500Y-121179700D03*
%TD*%
D13*
%TO.P,TP_THROTTLE,1*%
%TO.N,THROTTLE*%
X111000000Y-90999900D03*
%TD*%
D12*
%TO.P,WP59,1*%
%TO.N,N/C*%
X126500400Y-70499900D03*
%TD*%
%TO.P,WP65,1*%
%TO.N,N/C*%
X134500300Y-68499900D03*
%TD*%
%TO.P,WP54,1*%
%TO.N,N/C*%
X132500100Y-68499900D03*
%TD*%
D13*
%TO.P,TP_POWER,1*%
%TO.N,POWER*%
X114299900Y-151149700D03*
%TD*%
D12*
%TO.P,WP64,1*%
%TO.N,N/C*%
X122500100Y-68499900D03*
%TD*%
D11*
%TO.P,TP_GND,3*%
%TO.N,GND*%
X149024500Y-116100000D03*
%TD*%
D12*
%TO.P,WP67,1*%
%TO.N,N/C*%
X126500400Y-68499600D03*
%TD*%
D13*
%TO.P,TP_+5V,1*%
%TO.N,+5V*%
X111000000Y-100999900D03*
%TD*%
D11*
%TO.P,TP_POWER,4*%
%TO.N,POWER*%
X149024500Y-126259700D03*
%TD*%
D13*
%TO.P,TP_PCONT,1*%
%TO.N,PCONT*%
X114299900Y-131649800D03*
%TD*%
%TO.P,TP_+5V,1*%
%TO.N,+5V*%
X111000000Y-83000000D03*
%TD*%
%TO.P,R4,1*%
%TO.N,GND*%
X129588800Y-131325800D03*
%TO.P,R4,2*%
%TO.N,PCONT*%
X119428800Y-131325800D03*
%TD*%
D12*
%TO.P,WP68,1*%
%TO.N,N/C*%
X124500400Y-68499600D03*
%TD*%
D11*
%TO.P,TP_Pad_gge22247,5*%
%TO.N,N/C*%
X154074600Y-116020000D03*
%TD*%
D13*
%TO.P,R3,1*%
%TO.N,GND*%
X124956800Y-115881200D03*
%TO.P,R3,2*%
%TO.N,MINHOLD*%
X114796800Y-115881200D03*
%TD*%
D12*
%TO.P,WP58,1*%
%TO.N,N/C*%
X128500300Y-70499900D03*
%TD*%
D11*
%TO.P,TP_Pad_gge22136,5*%
%TO.N,N/C*%
X154074600Y-126199800D03*
%TD*%
D13*
%TO.P,TP_+5V,1*%
%TO.N,+5V*%
X121299900Y-140899800D03*
%TD*%
%TO.P,C1,1*%
%TO.N,GND*%
X135053800Y-97350200D03*
%TO.P,C1,2*%
%TO.N,+5V*%
X135053800Y-92350200D03*
%TD*%
D10*
%TO.P,WP62,1*%
%TO.N,GND*%
X120500400Y-70499900D03*
%TD*%
D12*
%TO.P,WP63,1*%
%TO.N,N/C*%
X120500400Y-68499900D03*
%TD*%
D13*
%TO.P,TP_POWER,4*%
%TO.N,POWER*%
X127249900Y-144999800D03*
%TD*%
D11*
%TO.P,U1,1*%
%TO.N,RESET*%
X138499500Y-98719700D03*
%TO.P,U1,2*%
%TO.N,MINHOLD*%
X141039500Y-98719700D03*
%TO.P,U1,3*%
%TO.N,THROTTLE*%
X143579500Y-98719700D03*
%TO.P,U1,4*%
%TO.N,GND*%
X146119500Y-98719700D03*
%TO.P,U1,5*%
%TO.N,SDA*%
X146119500Y-91099700D03*
%TO.P,U1,6*%
%TO.N,PCONT*%
X143579500Y-91099700D03*
%TO.P,U1,7*%
%TO.N,SCL*%
X141039500Y-91099700D03*
%TO.P,U1,8*%
%TO.N,+5V*%
X138499500Y-91099700D03*
%TD*%
D13*
%TO.P,C-MAIN,1*%
%TO.N,+5V*%
X109500100Y-74770100D03*
%TO.P,C-MAIN,2*%
%TO.N,GND*%
X109500100Y-72230100D03*
%TD*%
%TO.P,TP_MINHOLD,1*%
%TO.N,MINHOLD*%
X111000000Y-108999900D03*
%TD*%
D10*
%TO.P,WP57,1*%
%TO.N,RESET*%
X130500300Y-70499900D03*
%TD*%
D14*
%TO.N,PCONT*%
X137500100Y-112999900D03*
X148500000Y-96500100D03*
%TO.N,RESET*%
X131199800Y-87299900D03*
%TO.N,GUARD2*%
X199499900Y-105249800D03*
X199499900Y-115247300D03*
%TO.N,GUARD1*%
X100576800Y-105107100D03*
X100576800Y-115104500D03*
%TO.N,S$23454*%
X109000000Y-133500000D03*
%TO.N,S$23420*%
X160999900Y-77000000D03*
%TD*%
%TO.N,SDA*%
D15*
X146119700Y-82119200D02*
X134500300Y-70499800D01*
X146119700Y-91099900D02*
X146119700Y-82119200D01*
%TO.N,SCL*%
X141039700Y-79039400D02*
X132500100Y-70499800D01*
X141039700Y-91099900D02*
X141039700Y-79039400D01*
%TO.N,PCONT*%
X148500000Y-102000000D02*
X148500000Y-96500000D01*
X137500100Y-112999900D02*
X148500000Y-102000000D01*
%TO.N,RESET*%
X133449300Y-100701000D02*
X131198800Y-98450500D01*
X131198800Y-98450500D02*
X131198800Y-87299900D01*
X138498800Y-98719800D02*
X138498800Y-98750200D01*
X138498800Y-98750200D02*
X136550600Y-100701000D01*
X136550600Y-100701000D02*
X133449300Y-100701000D01*
%TO.N,GUARD2*%
D16*
X194501300Y-112748100D02*
X194501300Y-107746800D01*
X199499800Y-115247500D02*
X197000600Y-115247500D01*
X197000600Y-115247500D02*
X194501300Y-112748100D01*
X194501300Y-107746800D02*
X196998000Y-105250000D01*
X196998000Y-105250000D02*
X199499800Y-105250000D01*
%TO.N,GUARD1*%
X103083700Y-105110800D02*
X100581900Y-105110800D01*
X105580600Y-112608800D02*
X105580600Y-107607500D01*
X105580600Y-107607500D02*
X103083700Y-105110800D01*
X100581900Y-115108100D02*
X103081300Y-115108100D01*
X103081300Y-115108100D02*
X105580600Y-112608800D01*
%TO.N,S$23454*%
D15*
X109000000Y-133499900D02*
X119500000Y-133499900D01*
X109000000Y-148999800D02*
X109000000Y-133499900D01*
X119500000Y-133499900D02*
X119500000Y-148999800D01*
X119500000Y-148999800D02*
X109000000Y-148999800D01*
%TO.N,S$23420*%
X153748200Y-109750800D02*
X160999900Y-109722700D01*
X160999900Y-109722700D02*
X160999900Y-146026400D01*
X153999500Y-145998600D02*
X153999500Y-153999100D01*
X187499600Y-153999100D02*
X187499600Y-77000000D01*
X153999500Y-153999100D02*
X187499600Y-153999100D01*
X187499600Y-77000000D02*
X160999900Y-77000000D01*
X160999900Y-77000000D02*
X153748200Y-77000000D01*
X153748200Y-77000000D02*
X153748200Y-109750800D01*
X160999900Y-146026400D02*
X153999500Y-145998600D01*
%TD*%
%TA.AperFunction,Conductor*%
%TO.N,GND*%
G36*
X189808418Y-60520502D02*
G01*
X189829392Y-60537404D01*
X199226292Y-69934209D01*
X199462495Y-70170409D01*
X199496520Y-70232721D01*
X199499400Y-70259505D01*
X199499400Y-104488500D01*
X199479398Y-104556621D01*
X199425742Y-104603114D01*
X199373400Y-104614500D01*
X197066819Y-104614500D01*
X197066778Y-104614498D01*
X197060578Y-104614498D01*
X196977124Y-104614500D01*
X196935409Y-104614500D01*
X196935403Y-104614500D01*
X196935397Y-104614501D01*
X196935392Y-104614502D01*
X196850253Y-104631437D01*
X196850254Y-104631438D01*
X196812619Y-104638924D01*
X196745868Y-104666575D01*
X196696988Y-104686822D01*
X196696969Y-104686831D01*
X196696958Y-104686838D01*
X196696955Y-104686840D01*
X196644306Y-104722018D01*
X196644307Y-104722019D01*
X196592891Y-104756375D01*
X196592889Y-104756377D01*
X196592879Y-104756385D01*
X196547018Y-104802249D01*
X196547017Y-104802249D01*
X196504376Y-104844891D01*
X196504371Y-104844894D01*
X196504372Y-104844895D01*
X194057383Y-107291983D01*
X194007674Y-107341692D01*
X194007659Y-107341712D01*
X193980188Y-107382824D01*
X193980189Y-107382825D01*
X193953944Y-107422106D01*
X193938127Y-107445778D01*
X193938123Y-107445785D01*
X193938120Y-107445790D01*
X193938081Y-107445872D01*
X193937842Y-107446460D01*
X193915504Y-107500395D01*
X193915502Y-107500400D01*
X193890218Y-107561439D01*
X193884082Y-107592289D01*
X193877904Y-107623354D01*
X193877904Y-107623355D01*
X193865799Y-107684212D01*
X193865799Y-107684221D01*
X193865799Y-107684222D01*
X193865800Y-107746813D01*
X193865800Y-112745321D01*
X193865799Y-112810678D01*
X193865800Y-112810683D01*
X193865800Y-112810691D01*
X193874146Y-112852647D01*
X193890218Y-112933457D01*
X193890221Y-112933464D01*
X193890222Y-112933469D01*
X193895550Y-112946331D01*
X193901269Y-112960140D01*
X193901270Y-112960142D01*
X193923538Y-113013903D01*
X193938121Y-113049110D01*
X193938123Y-113049114D01*
X193938127Y-113049122D01*
X193954437Y-113073531D01*
X193973742Y-113102423D01*
X193973742Y-113102424D01*
X194007672Y-113153205D01*
X194007674Y-113153207D01*
X194007675Y-113153208D01*
X194057915Y-113203448D01*
X196503809Y-115649440D01*
X196503830Y-115649463D01*
X196506974Y-115652607D01*
X196506975Y-115652608D01*
X196570357Y-115715990D01*
X196570359Y-115715993D01*
X196595476Y-115741112D01*
X196595485Y-115741119D01*
X196595488Y-115741121D01*
X196595492Y-115741125D01*
X196657449Y-115782523D01*
X196657451Y-115782525D01*
X196657452Y-115782525D01*
X196685818Y-115801480D01*
X196699579Y-115810675D01*
X196699595Y-115810684D01*
X196700128Y-115810901D01*
X196748465Y-115830922D01*
X196748467Y-115830924D01*
X196748468Y-115830924D01*
X196803837Y-115853860D01*
X196803885Y-115853885D01*
X196811689Y-115857113D01*
X196811761Y-115857143D01*
X196815748Y-115858794D01*
X196817067Y-115859095D01*
X196820503Y-115859626D01*
X196852854Y-115866061D01*
X196852858Y-115866061D01*
X196852859Y-115866062D01*
X196938002Y-115883000D01*
X196979724Y-115883000D01*
X197063178Y-115883002D01*
X197063183Y-115883000D01*
X197069378Y-115883001D01*
X197069419Y-115883000D01*
X199373400Y-115883000D01*
X199441521Y-115903002D01*
X199488014Y-115956658D01*
X199499400Y-116009000D01*
X199499400Y-149740491D01*
X199479398Y-149808612D01*
X199462495Y-149829587D01*
X196978436Y-152313596D01*
X194692488Y-154599498D01*
X194692486Y-154599500D01*
X194649237Y-154642748D01*
X194599303Y-154692682D01*
X194599301Y-154692684D01*
X189829591Y-159462395D01*
X189767279Y-159496421D01*
X189740496Y-159499300D01*
X110259410Y-159499300D01*
X110191289Y-159479298D01*
X110170338Y-159462419D01*
X105352583Y-154647169D01*
X105352556Y-154647142D01*
X104311701Y-153606214D01*
X101068347Y-150362633D01*
X113283400Y-150362633D01*
X113283400Y-151936763D01*
X113283401Y-151936773D01*
X113298165Y-152011000D01*
X113354416Y-152095184D01*
X113438597Y-152151433D01*
X113438599Y-152151434D01*
X113512833Y-152166200D01*
X115086966Y-152166199D01*
X115086969Y-152166198D01*
X115086973Y-152166198D01*
X115136226Y-152156401D01*
X115161201Y-152151434D01*
X115245384Y-152095184D01*
X115301634Y-152011001D01*
X115316400Y-151936767D01*
X115316399Y-150362634D01*
X115316398Y-150362628D01*
X115316398Y-150362626D01*
X115301634Y-150288399D01*
X115245383Y-150204215D01*
X115161202Y-150147966D01*
X115086967Y-150133200D01*
X113512836Y-150133200D01*
X113512826Y-150133201D01*
X113438599Y-150147965D01*
X113354415Y-150204216D01*
X113298166Y-150288397D01*
X113283401Y-150362628D01*
X113283400Y-150362633D01*
X101068347Y-150362633D01*
X100537398Y-149831647D01*
X100503377Y-149769335D01*
X100500498Y-149742564D01*
X100500456Y-133573631D01*
X108440699Y-133573631D01*
X108478816Y-133715882D01*
X108552446Y-133843414D01*
X108552448Y-133843417D01*
X108552449Y-133843418D01*
X108581595Y-133872564D01*
X108615620Y-133934874D01*
X108618500Y-133961659D01*
X108618500Y-149050023D01*
X108618499Y-149050023D01*
X108644500Y-149147058D01*
X108694721Y-149234043D01*
X108694729Y-149234053D01*
X108765746Y-149305070D01*
X108765751Y-149305074D01*
X108765753Y-149305076D01*
X108765754Y-149305077D01*
X108765756Y-149305078D01*
X108852741Y-149355299D01*
X108852743Y-149355299D01*
X108852746Y-149355301D01*
X108949775Y-149381300D01*
X108949777Y-149381300D01*
X119550223Y-149381300D01*
X119550225Y-149381300D01*
X119647254Y-149355301D01*
X119647257Y-149355299D01*
X119647258Y-149355299D01*
X119690750Y-149330188D01*
X119734247Y-149305076D01*
X119805276Y-149234047D01*
X119855501Y-149147054D01*
X119881500Y-149050025D01*
X119881500Y-144212730D01*
X126233400Y-144212730D01*
X126233400Y-145786863D01*
X126233401Y-145786873D01*
X126248165Y-145861100D01*
X126304416Y-145945284D01*
X126388597Y-146001533D01*
X126388599Y-146001534D01*
X126462833Y-146016300D01*
X128036966Y-146016299D01*
X128036969Y-146016298D01*
X128036973Y-146016298D01*
X128086226Y-146006501D01*
X128111201Y-146001534D01*
X128195384Y-145945284D01*
X128251634Y-145861101D01*
X128266400Y-145786867D01*
X128266399Y-144212734D01*
X128266398Y-144212730D01*
X128266398Y-144212726D01*
X128251634Y-144138499D01*
X128195383Y-144054315D01*
X128111202Y-143998066D01*
X128036967Y-143983300D01*
X126462836Y-143983300D01*
X126462826Y-143983301D01*
X126388599Y-143998065D01*
X126304415Y-144054316D01*
X126248166Y-144138497D01*
X126233400Y-144212730D01*
X119881500Y-144212730D01*
X119881500Y-140112730D01*
X120283400Y-140112730D01*
X120283400Y-141686863D01*
X120283401Y-141686873D01*
X120298165Y-141761100D01*
X120354416Y-141845284D01*
X120438597Y-141901533D01*
X120438599Y-141901534D01*
X120512833Y-141916300D01*
X122086966Y-141916299D01*
X122086969Y-141916298D01*
X122086973Y-141916298D01*
X122136226Y-141906501D01*
X122161201Y-141901534D01*
X122245384Y-141845284D01*
X122301634Y-141761101D01*
X122316400Y-141686867D01*
X122316399Y-140112734D01*
X122316398Y-140112730D01*
X122316398Y-140112726D01*
X122301634Y-140038499D01*
X122245383Y-139954315D01*
X122161202Y-139898066D01*
X122086967Y-139883300D01*
X120512836Y-139883300D01*
X120512826Y-139883301D01*
X120438599Y-139898065D01*
X120354415Y-139954316D01*
X120298166Y-140038497D01*
X120283400Y-140112730D01*
X119881500Y-140112730D01*
X119881500Y-137212730D01*
X126233400Y-137212730D01*
X126233400Y-138786863D01*
X126233401Y-138786873D01*
X126248165Y-138861100D01*
X126304416Y-138945284D01*
X126388597Y-139001533D01*
X126388599Y-139001534D01*
X126462833Y-139016300D01*
X128036966Y-139016299D01*
X128036969Y-139016298D01*
X128036973Y-139016298D01*
X128086226Y-139006501D01*
X128111201Y-139001534D01*
X128195384Y-138945284D01*
X128251634Y-138861101D01*
X128266400Y-138786867D01*
X128266399Y-137212734D01*
X128266398Y-137212730D01*
X128266398Y-137212726D01*
X128251634Y-137138499D01*
X128195383Y-137054315D01*
X128111202Y-136998066D01*
X128036967Y-136983300D01*
X126462836Y-136983300D01*
X126462826Y-136983301D01*
X126388599Y-136998065D01*
X126304415Y-137054316D01*
X126248166Y-137138497D01*
X126233400Y-137212730D01*
X119881500Y-137212730D01*
X119881500Y-133449675D01*
X119855501Y-133352646D01*
X119855499Y-133352643D01*
X119855499Y-133352641D01*
X119805278Y-133265656D01*
X119805270Y-133265646D01*
X119734253Y-133194629D01*
X119734243Y-133194621D01*
X119647258Y-133144400D01*
X119635792Y-133141327D01*
X119550225Y-133118400D01*
X119550223Y-133118400D01*
X109461560Y-133118400D01*
X109393439Y-133098398D01*
X109372465Y-133081495D01*
X109343424Y-133052454D01*
X109343414Y-133052446D01*
X109215882Y-132978816D01*
X109073633Y-132940700D01*
X108926367Y-132940700D01*
X108831534Y-132966110D01*
X108784117Y-132978816D01*
X108656585Y-133052446D01*
X108656575Y-133052454D01*
X108552454Y-133156575D01*
X108552446Y-133156585D01*
X108478816Y-133284117D01*
X108440700Y-133426368D01*
X108440700Y-133573631D01*
X108440699Y-133573631D01*
X100500456Y-133573631D01*
X100500449Y-130862730D01*
X113283400Y-130862730D01*
X113283400Y-132436863D01*
X113283401Y-132436873D01*
X113298165Y-132511100D01*
X113354416Y-132595284D01*
X113438597Y-132651533D01*
X113438599Y-132651534D01*
X113512833Y-132666300D01*
X115086966Y-132666299D01*
X115086969Y-132666298D01*
X115086973Y-132666298D01*
X115136226Y-132656501D01*
X115161201Y-132651534D01*
X115245384Y-132595284D01*
X115301634Y-132511101D01*
X115316400Y-132436867D01*
X115316399Y-130862734D01*
X115316398Y-130862730D01*
X115316398Y-130862726D01*
X115301634Y-130788499D01*
X115245383Y-130704315D01*
X115161202Y-130648066D01*
X115086967Y-130633300D01*
X113512836Y-130633300D01*
X113512826Y-130633301D01*
X113438599Y-130648065D01*
X113354415Y-130704316D01*
X113298166Y-130788497D01*
X113283400Y-130862730D01*
X100500449Y-130862730D01*
X100500448Y-130538730D01*
X118412300Y-130538730D01*
X118412300Y-132112863D01*
X118412301Y-132112873D01*
X118427065Y-132187100D01*
X118483316Y-132271284D01*
X118567497Y-132327533D01*
X118567499Y-132327534D01*
X118641733Y-132342300D01*
X120215866Y-132342299D01*
X120215869Y-132342298D01*
X120215873Y-132342298D01*
X120265126Y-132332501D01*
X120290101Y-132327534D01*
X120374284Y-132271284D01*
X120430534Y-132187101D01*
X120445300Y-132112867D01*
X120445299Y-130538734D01*
X120445298Y-130538730D01*
X120445298Y-130538726D01*
X120430534Y-130464499D01*
X120374283Y-130380315D01*
X120290102Y-130324066D01*
X120215867Y-130309300D01*
X118641736Y-130309300D01*
X118641726Y-130309301D01*
X118567499Y-130324065D01*
X118483315Y-130380316D01*
X118427066Y-130464497D01*
X118412300Y-130538730D01*
X100500448Y-130538730D01*
X100500434Y-125334630D01*
X147870000Y-125334630D01*
X147870000Y-127184763D01*
X147870001Y-127184773D01*
X147884765Y-127259000D01*
X147941016Y-127343184D01*
X148025197Y-127399433D01*
X148025199Y-127399434D01*
X148099433Y-127414200D01*
X149949566Y-127414199D01*
X149949569Y-127414198D01*
X149949573Y-127414198D01*
X149998826Y-127404401D01*
X150023801Y-127399434D01*
X150107984Y-127343184D01*
X150164234Y-127259001D01*
X150179000Y-127184767D01*
X150178999Y-125334634D01*
X150178998Y-125334630D01*
X150178998Y-125334626D01*
X150170743Y-125293123D01*
X150167085Y-125274730D01*
X152920100Y-125274730D01*
X152920100Y-127124863D01*
X152920101Y-127124873D01*
X152934865Y-127199100D01*
X152991116Y-127283284D01*
X153075297Y-127339533D01*
X153075299Y-127339534D01*
X153149533Y-127354300D01*
X154999666Y-127354299D01*
X154999669Y-127354298D01*
X154999673Y-127354298D01*
X155048926Y-127344501D01*
X155073901Y-127339534D01*
X155158084Y-127283284D01*
X155214334Y-127199101D01*
X155229100Y-127124867D01*
X155229099Y-125274734D01*
X155229098Y-125274730D01*
X155229098Y-125274726D01*
X155214334Y-125200499D01*
X155198108Y-125176215D01*
X155158084Y-125116316D01*
X155145085Y-125107630D01*
X155073902Y-125060066D01*
X154999667Y-125045300D01*
X153149536Y-125045300D01*
X153149526Y-125045301D01*
X153075299Y-125060065D01*
X152991115Y-125116316D01*
X152934866Y-125200497D01*
X152920100Y-125274730D01*
X150167085Y-125274730D01*
X150164234Y-125260399D01*
X150164233Y-125260397D01*
X150107984Y-125176216D01*
X150107983Y-125176215D01*
X150023802Y-125119966D01*
X149949567Y-125105200D01*
X148099436Y-125105200D01*
X148099426Y-125105201D01*
X148025199Y-125119965D01*
X147941015Y-125176216D01*
X147884766Y-125260397D01*
X147870000Y-125334630D01*
X100500434Y-125334630D01*
X100500421Y-120254630D01*
X147870000Y-120254630D01*
X147870000Y-122104763D01*
X147870001Y-122104773D01*
X147884765Y-122179000D01*
X147941016Y-122263184D01*
X148025197Y-122319433D01*
X148025199Y-122319434D01*
X148099433Y-122334200D01*
X149949566Y-122334199D01*
X149949569Y-122334198D01*
X149949573Y-122334198D01*
X149998826Y-122324401D01*
X150023801Y-122319434D01*
X150107984Y-122263184D01*
X150164234Y-122179001D01*
X150179000Y-122104767D01*
X150178999Y-120254634D01*
X150178998Y-120254630D01*
X150178998Y-120254626D01*
X150170743Y-120213123D01*
X150167085Y-120194730D01*
X152920100Y-120194730D01*
X152920100Y-122044863D01*
X152920101Y-122044873D01*
X152934865Y-122119100D01*
X152991116Y-122203284D01*
X153075297Y-122259533D01*
X153075299Y-122259534D01*
X153149533Y-122274300D01*
X154999666Y-122274299D01*
X154999669Y-122274298D01*
X154999673Y-122274298D01*
X155048926Y-122264501D01*
X155073901Y-122259534D01*
X155158084Y-122203284D01*
X155214334Y-122119101D01*
X155229100Y-122044867D01*
X155229099Y-120194734D01*
X155229098Y-120194730D01*
X155229098Y-120194726D01*
X155214334Y-120120499D01*
X155158083Y-120036315D01*
X155073902Y-119980066D01*
X154999667Y-119965300D01*
X153149536Y-119965300D01*
X153149526Y-119965301D01*
X153075299Y-119980065D01*
X152991115Y-120036316D01*
X152934866Y-120120497D01*
X152920100Y-120194730D01*
X150167085Y-120194730D01*
X150164234Y-120180399D01*
X150164233Y-120180397D01*
X150107984Y-120096216D01*
X150107983Y-120096215D01*
X150023802Y-120039966D01*
X149949567Y-120025200D01*
X148099436Y-120025200D01*
X148099426Y-120025201D01*
X148025199Y-120039965D01*
X147941015Y-120096216D01*
X147884766Y-120180397D01*
X147870000Y-120254630D01*
X100500421Y-120254630D01*
X100500410Y-115869598D01*
X100520412Y-115801480D01*
X100574067Y-115754987D01*
X100626410Y-115743600D01*
X103143890Y-115743600D01*
X103143891Y-115743600D01*
X103266669Y-115719178D01*
X103382322Y-115671273D01*
X103486408Y-115601725D01*
X103994003Y-115094130D01*
X113780300Y-115094130D01*
X113780300Y-116668263D01*
X113780301Y-116668273D01*
X113795065Y-116742500D01*
X113851316Y-116826684D01*
X113935497Y-116882933D01*
X113935499Y-116882934D01*
X114009733Y-116897700D01*
X115583866Y-116897699D01*
X115583869Y-116897698D01*
X115583873Y-116897698D01*
X115633126Y-116887901D01*
X115658101Y-116882934D01*
X115742284Y-116826684D01*
X115798534Y-116742501D01*
X115813300Y-116668267D01*
X115813299Y-115094930D01*
X152920100Y-115094930D01*
X152920100Y-116945063D01*
X152920101Y-116945073D01*
X152934865Y-117019300D01*
X152991116Y-117103484D01*
X153075297Y-117159733D01*
X153075299Y-117159734D01*
X153149533Y-117174500D01*
X154999666Y-117174499D01*
X154999669Y-117174498D01*
X154999673Y-117174498D01*
X155048926Y-117164701D01*
X155073901Y-117159734D01*
X155158084Y-117103484D01*
X155214334Y-117019301D01*
X155229100Y-116945067D01*
X155229099Y-115094934D01*
X155229098Y-115094930D01*
X155229098Y-115094926D01*
X155214334Y-115020699D01*
X155158083Y-114936515D01*
X155073902Y-114880266D01*
X154999667Y-114865500D01*
X153149536Y-114865500D01*
X153149526Y-114865501D01*
X153075299Y-114880265D01*
X152991115Y-114936516D01*
X152934866Y-115020697D01*
X152920100Y-115094930D01*
X115813299Y-115094930D01*
X115813299Y-115094134D01*
X115813298Y-115094130D01*
X115813298Y-115094126D01*
X115798534Y-115019899D01*
X115784468Y-114998848D01*
X115742284Y-114935716D01*
X115742283Y-114935715D01*
X115658102Y-114879466D01*
X115583867Y-114864700D01*
X114009736Y-114864700D01*
X114009726Y-114864701D01*
X113935499Y-114879465D01*
X113851315Y-114935716D01*
X113795066Y-115019897D01*
X113780300Y-115094130D01*
X103994003Y-115094130D01*
X106014602Y-113073531D01*
X136940799Y-113073531D01*
X136978916Y-113215782D01*
X137052546Y-113343314D01*
X137052554Y-113343324D01*
X137156675Y-113447445D01*
X137156680Y-113447449D01*
X137156682Y-113447451D01*
X137284218Y-113521084D01*
X137426467Y-113559200D01*
X137426469Y-113559200D01*
X137573731Y-113559200D01*
X137573733Y-113559200D01*
X137715982Y-113521084D01*
X137843518Y-113447451D01*
X137947651Y-113343318D01*
X138021284Y-113215782D01*
X138059400Y-113073533D01*
X138059400Y-113032313D01*
X138079402Y-112964192D01*
X138096305Y-112943218D01*
X141343590Y-109695933D01*
X153366484Y-109695933D01*
X153366699Y-109751373D01*
X153366700Y-109751861D01*
X153366700Y-109801054D01*
X153366782Y-109801659D01*
X153366845Y-109802129D01*
X153366891Y-109802483D01*
X153374129Y-109829083D01*
X153378511Y-109845186D01*
X153379784Y-109849861D01*
X153379911Y-109850333D01*
X153392703Y-109898074D01*
X153392851Y-109898426D01*
X153393051Y-109898907D01*
X153393255Y-109899401D01*
X153418068Y-109941997D01*
X153418312Y-109942418D01*
X153442935Y-109985066D01*
X153443190Y-109985396D01*
X153443493Y-109985790D01*
X153443813Y-109986206D01*
X153443832Y-109986225D01*
X153443834Y-109986228D01*
X153478903Y-110021026D01*
X153513953Y-110056076D01*
X153513965Y-110056088D01*
X153514371Y-110056397D01*
X153514725Y-110056668D01*
X153515122Y-110056972D01*
X153557865Y-110081429D01*
X153558162Y-110081599D01*
X153600721Y-110106171D01*
X153600962Y-110106310D01*
X153601527Y-110106542D01*
X153601913Y-110106701D01*
X153602309Y-110106865D01*
X153615112Y-110110242D01*
X153650189Y-110119495D01*
X153697975Y-110132300D01*
X153697976Y-110132300D01*
X153697995Y-110132305D01*
X153698524Y-110132373D01*
X153699039Y-110132439D01*
X153699441Y-110132492D01*
X153699453Y-110132491D01*
X153699454Y-110132492D01*
X153748745Y-110132301D01*
X153749233Y-110132300D01*
X153804584Y-110132300D01*
X153807952Y-110132070D01*
X160491912Y-110106171D01*
X160560110Y-110125909D01*
X160606810Y-110179384D01*
X160618400Y-110232170D01*
X160618400Y-145516879D01*
X160598398Y-145585000D01*
X160544742Y-145631493D01*
X160491900Y-145642878D01*
X154059248Y-145617333D01*
X154055776Y-145617100D01*
X154049725Y-145617100D01*
X154000395Y-145617100D01*
X153999896Y-145617099D01*
X153999633Y-145617097D01*
X153950759Y-145616903D01*
X153950149Y-145616984D01*
X153949696Y-145617043D01*
X153949295Y-145617094D01*
X153901850Y-145629806D01*
X153901374Y-145629933D01*
X153853630Y-145642524D01*
X153853210Y-145642699D01*
X153852660Y-145642926D01*
X153852268Y-145643086D01*
X153809701Y-145667661D01*
X153809272Y-145667907D01*
X153766446Y-145692407D01*
X153766086Y-145692684D01*
X153765639Y-145693025D01*
X153765274Y-145693302D01*
X153730465Y-145728110D01*
X153730117Y-145728456D01*
X153695129Y-145763169D01*
X153694770Y-145763639D01*
X153694410Y-145764106D01*
X153694237Y-145764328D01*
X153669565Y-145807060D01*
X153669318Y-145807487D01*
X153644571Y-145849962D01*
X153644381Y-145850422D01*
X153644130Y-145851024D01*
X153644003Y-145851325D01*
X153631233Y-145898984D01*
X153631103Y-145899466D01*
X153618194Y-145946886D01*
X153618161Y-145947144D01*
X153618075Y-145947792D01*
X153618000Y-145948342D01*
X153618000Y-145997595D01*
X153617999Y-145998095D01*
X153617779Y-146053391D01*
X153618000Y-146056857D01*
X153618000Y-154049323D01*
X153617999Y-154049323D01*
X153644000Y-154146358D01*
X153694221Y-154233343D01*
X153694229Y-154233353D01*
X153765246Y-154304370D01*
X153765251Y-154304374D01*
X153765253Y-154304376D01*
X153765254Y-154304377D01*
X153765256Y-154304378D01*
X153852241Y-154354599D01*
X153852243Y-154354599D01*
X153852246Y-154354601D01*
X153949275Y-154380600D01*
X153949277Y-154380600D01*
X187549823Y-154380600D01*
X187549825Y-154380600D01*
X187646854Y-154354601D01*
X187646857Y-154354599D01*
X187646858Y-154354599D01*
X187690350Y-154329488D01*
X187733847Y-154304376D01*
X187804876Y-154233347D01*
X187855101Y-154146354D01*
X187881100Y-154049325D01*
X187881100Y-76949775D01*
X187855101Y-76852746D01*
X187855099Y-76852743D01*
X187855099Y-76852741D01*
X187804878Y-76765756D01*
X187804870Y-76765746D01*
X187733853Y-76694729D01*
X187733843Y-76694721D01*
X187646858Y-76644500D01*
X187635392Y-76641427D01*
X187549825Y-76618500D01*
X187549823Y-76618500D01*
X161461560Y-76618500D01*
X161393439Y-76598498D01*
X161372465Y-76581595D01*
X161343324Y-76552454D01*
X161343314Y-76552446D01*
X161215782Y-76478816D01*
X161073533Y-76440700D01*
X160926267Y-76440700D01*
X160831434Y-76466110D01*
X160784017Y-76478816D01*
X160656485Y-76552446D01*
X160656475Y-76552454D01*
X160627335Y-76581595D01*
X160565023Y-76615621D01*
X160538240Y-76618500D01*
X153798425Y-76618500D01*
X153697975Y-76618500D01*
X153638590Y-76634412D01*
X153600941Y-76644500D01*
X153513956Y-76694721D01*
X153513946Y-76694729D01*
X153442929Y-76765746D01*
X153442921Y-76765756D01*
X153392700Y-76852741D01*
X153366700Y-76949776D01*
X153366700Y-109692539D01*
X153366484Y-109695933D01*
X141343590Y-109695933D01*
X148805270Y-102234253D01*
X148805276Y-102234247D01*
X148855502Y-102147253D01*
X148881501Y-102050225D01*
X148881501Y-101949775D01*
X148881501Y-101942058D01*
X148881500Y-101942040D01*
X148881500Y-96961759D01*
X148901502Y-96893638D01*
X148918401Y-96872667D01*
X148947551Y-96843518D01*
X149021184Y-96715982D01*
X149059300Y-96573733D01*
X149059300Y-96426467D01*
X149021184Y-96284218D01*
X148947551Y-96156682D01*
X148947549Y-96156680D01*
X148947545Y-96156675D01*
X148843424Y-96052554D01*
X148843414Y-96052546D01*
X148715882Y-95978916D01*
X148573633Y-95940800D01*
X148426367Y-95940800D01*
X148331534Y-95966210D01*
X148284117Y-95978916D01*
X148156585Y-96052546D01*
X148156575Y-96052554D01*
X148052454Y-96156675D01*
X148052446Y-96156685D01*
X147978816Y-96284217D01*
X147940700Y-96426468D01*
X147940700Y-96573731D01*
X147940699Y-96573731D01*
X147978816Y-96715982D01*
X148052446Y-96843514D01*
X148052448Y-96843517D01*
X148052449Y-96843518D01*
X148081595Y-96872664D01*
X148115620Y-96934974D01*
X148118500Y-96961759D01*
X148118500Y-101789787D01*
X148098498Y-101857908D01*
X148081595Y-101878882D01*
X137556782Y-112403695D01*
X137494470Y-112437721D01*
X137467687Y-112440600D01*
X137426467Y-112440600D01*
X137356063Y-112459465D01*
X137284217Y-112478716D01*
X137156685Y-112552346D01*
X137156675Y-112552354D01*
X137052554Y-112656475D01*
X137052546Y-112656485D01*
X136978916Y-112784017D01*
X136971772Y-112810678D01*
X136945207Y-112909822D01*
X136940800Y-112926268D01*
X136940800Y-113073531D01*
X136940799Y-113073531D01*
X106014602Y-113073531D01*
X106074225Y-113013908D01*
X106143773Y-112909822D01*
X106191678Y-112794169D01*
X106216100Y-112671391D01*
X106216100Y-112546209D01*
X106216100Y-108212830D01*
X109983500Y-108212830D01*
X109983500Y-109786963D01*
X109983501Y-109786973D01*
X109998265Y-109861200D01*
X110054516Y-109945384D01*
X110138697Y-110001633D01*
X110138699Y-110001634D01*
X110212933Y-110016400D01*
X111787066Y-110016399D01*
X111787069Y-110016398D01*
X111787073Y-110016398D01*
X111836326Y-110006601D01*
X111861301Y-110001634D01*
X111945484Y-109945384D01*
X112001734Y-109861201D01*
X112016500Y-109786967D01*
X112016499Y-108212834D01*
X112016498Y-108212830D01*
X112016498Y-108212826D01*
X112001734Y-108138599D01*
X111971308Y-108093064D01*
X111945484Y-108054416D01*
X111934923Y-108047359D01*
X111861302Y-107998166D01*
X111787067Y-107983400D01*
X110212936Y-107983400D01*
X110212926Y-107983401D01*
X110138699Y-107998165D01*
X110054515Y-108054416D01*
X109998266Y-108138597D01*
X109983500Y-108212830D01*
X106216100Y-108212830D01*
X106216100Y-107676304D01*
X106216101Y-107676263D01*
X106216100Y-107670070D01*
X106216102Y-107670065D01*
X106216100Y-107619992D01*
X106216100Y-107544909D01*
X106216100Y-107544902D01*
X106216099Y-107544894D01*
X106205893Y-107493596D01*
X106205892Y-107493589D01*
X106191680Y-107422137D01*
X106191671Y-107422108D01*
X106168299Y-107365690D01*
X106168298Y-107365686D01*
X106144353Y-107307879D01*
X106143795Y-107306484D01*
X106143794Y-107306481D01*
X106143122Y-107305499D01*
X106108157Y-107253175D01*
X106074225Y-107202392D01*
X106074221Y-107202388D01*
X106074209Y-107202374D01*
X106074208Y-107202372D01*
X106036738Y-107164905D01*
X105985708Y-107113875D01*
X105985707Y-107113874D01*
X105981727Y-107109894D01*
X105981682Y-107109854D01*
X103538747Y-104667114D01*
X103488808Y-104617175D01*
X103488807Y-104617174D01*
X103488799Y-104617166D01*
X103467766Y-104603114D01*
X103443088Y-104586626D01*
X103443085Y-104586622D01*
X103443085Y-104586624D01*
X103384722Y-104547627D01*
X103384719Y-104547625D01*
X103384712Y-104547621D01*
X103384701Y-104547616D01*
X103384699Y-104547615D01*
X103325462Y-104523080D01*
X103325461Y-104523079D01*
X103325461Y-104523080D01*
X103269063Y-104499719D01*
X103269047Y-104499714D01*
X103194709Y-104484930D01*
X103194709Y-104484929D01*
X103194706Y-104484929D01*
X103146291Y-104475299D01*
X103146272Y-104475297D01*
X103146266Y-104475297D01*
X103071157Y-104475300D01*
X100626400Y-104475300D01*
X100558279Y-104455298D01*
X100511786Y-104401642D01*
X100500400Y-104349300D01*
X100500400Y-100212830D01*
X109983500Y-100212830D01*
X109983500Y-101786963D01*
X109983501Y-101786973D01*
X109998265Y-101861200D01*
X110054516Y-101945384D01*
X110138697Y-102001633D01*
X110138699Y-102001634D01*
X110212933Y-102016400D01*
X111787066Y-102016399D01*
X111787069Y-102016398D01*
X111787073Y-102016398D01*
X111836326Y-102006601D01*
X111861301Y-102001634D01*
X111945484Y-101945384D01*
X112001734Y-101861201D01*
X112016500Y-101786967D01*
X112016499Y-100212834D01*
X112016498Y-100212830D01*
X112016498Y-100212826D01*
X112001734Y-100138599D01*
X111945483Y-100054415D01*
X111861302Y-99998166D01*
X111787067Y-99983400D01*
X110212936Y-99983400D01*
X110212926Y-99983401D01*
X110138699Y-99998165D01*
X110054515Y-100054416D01*
X109998266Y-100138597D01*
X109983500Y-100212830D01*
X100500400Y-100212830D01*
X100500400Y-98324350D01*
X112874394Y-98324350D01*
X112874400Y-98324439D01*
X112874400Y-112184008D01*
X112874400Y-112315792D01*
X112886647Y-112361498D01*
X112908507Y-112443083D01*
X112908510Y-112443090D01*
X112974397Y-112557210D01*
X112974405Y-112557220D01*
X113067579Y-112650394D01*
X113067584Y-112650398D01*
X113067586Y-112650400D01*
X113067587Y-112650401D01*
X113067589Y-112650402D01*
X113103940Y-112671389D01*
X113181714Y-112716292D01*
X113309008Y-112750400D01*
X113309010Y-112750400D01*
X126440990Y-112750400D01*
X126440992Y-112750400D01*
X126568286Y-112716292D01*
X126682414Y-112650400D01*
X126775600Y-112557214D01*
X126841492Y-112443086D01*
X126875600Y-112315792D01*
X126875600Y-98251038D01*
X126875605Y-98185146D01*
X126875600Y-98185127D01*
X126875600Y-98185108D01*
X126858834Y-98122536D01*
X126841507Y-98057850D01*
X126841497Y-98057832D01*
X126841492Y-98057814D01*
X126809445Y-98002307D01*
X126775624Y-97943717D01*
X126775609Y-97943702D01*
X126775600Y-97943686D01*
X126729034Y-97897120D01*
X126682445Y-97850524D01*
X126682444Y-97850523D01*
X126682439Y-97850518D01*
X126682419Y-97850503D01*
X126680664Y-97849490D01*
X126623859Y-97816693D01*
X126623860Y-97816691D01*
X126623852Y-97816689D01*
X126568322Y-97784623D01*
X126568321Y-97784622D01*
X126568306Y-97784614D01*
X126568288Y-97784609D01*
X126568286Y-97784608D01*
X126503637Y-97767285D01*
X126454126Y-97754015D01*
X126441012Y-97750500D01*
X126440992Y-97750500D01*
X126376020Y-97750500D01*
X113448942Y-97749505D01*
X113448856Y-97749500D01*
X113440792Y-97749500D01*
X113374056Y-97749500D01*
X113309046Y-97749494D01*
X113309010Y-97749499D01*
X113257714Y-97763242D01*
X113257707Y-97763244D01*
X113246436Y-97766265D01*
X113181750Y-97783593D01*
X113181732Y-97783602D01*
X113181714Y-97783608D01*
X113126207Y-97815654D01*
X113067617Y-97849476D01*
X113067602Y-97849490D01*
X113067586Y-97849500D01*
X113021020Y-97896065D01*
X112974424Y-97942655D01*
X112974414Y-97942671D01*
X112974400Y-97942686D01*
X112940593Y-98001240D01*
X112908523Y-98056778D01*
X112908517Y-98056796D01*
X112908508Y-98056814D01*
X112891185Y-98121462D01*
X112888165Y-98132729D01*
X112888163Y-98132734D01*
X112874400Y-98184088D01*
X112874400Y-98249972D01*
X112874394Y-98324350D01*
X100500400Y-98324350D01*
X100500400Y-90212830D01*
X109983500Y-90212830D01*
X109983500Y-91786963D01*
X109983501Y-91786973D01*
X109998265Y-91861200D01*
X110054516Y-91945384D01*
X110138697Y-92001633D01*
X110138699Y-92001634D01*
X110212933Y-92016400D01*
X111787066Y-92016399D01*
X111787069Y-92016398D01*
X111787073Y-92016398D01*
X111836326Y-92006601D01*
X111861301Y-92001634D01*
X111945484Y-91945384D01*
X112001734Y-91861201D01*
X112016500Y-91786967D01*
X112016499Y-90212834D01*
X112016498Y-90212830D01*
X112016498Y-90212826D01*
X112001734Y-90138599D01*
X111945483Y-90054415D01*
X111861302Y-89998166D01*
X111787067Y-89983400D01*
X110212936Y-89983400D01*
X110212926Y-89983401D01*
X110138699Y-89998165D01*
X110054515Y-90054416D01*
X109998266Y-90138597D01*
X109983500Y-90212830D01*
X100500400Y-90212830D01*
X100500400Y-82212930D01*
X109983500Y-82212930D01*
X109983500Y-83787063D01*
X109983501Y-83787073D01*
X109998265Y-83861300D01*
X110054516Y-83945484D01*
X110138697Y-84001733D01*
X110138699Y-84001734D01*
X110212933Y-84016500D01*
X111787066Y-84016499D01*
X111787069Y-84016498D01*
X111787073Y-84016498D01*
X111836326Y-84006701D01*
X111861301Y-84001734D01*
X111945484Y-83945484D01*
X112001734Y-83861301D01*
X112016500Y-83787067D01*
X112016499Y-82212934D01*
X112016498Y-82212930D01*
X112016498Y-82212926D01*
X112001734Y-82138699D01*
X111945483Y-82054515D01*
X111861302Y-81998266D01*
X111787067Y-81983500D01*
X110212936Y-81983500D01*
X110212926Y-81983501D01*
X110138699Y-81998265D01*
X110054515Y-82054516D01*
X109998266Y-82138697D01*
X109983500Y-82212930D01*
X100500400Y-82212930D01*
X100500400Y-79934008D01*
X112874600Y-79934008D01*
X112874600Y-93934208D01*
X112874600Y-94065992D01*
X112899567Y-94159173D01*
X112908707Y-94193283D01*
X112908710Y-94193290D01*
X112974597Y-94307410D01*
X112974605Y-94307420D01*
X113067779Y-94400594D01*
X113067784Y-94400598D01*
X113067786Y-94400600D01*
X113181914Y-94466492D01*
X113309208Y-94500600D01*
X113309210Y-94500600D01*
X126440990Y-94500600D01*
X126440992Y-94500600D01*
X126568286Y-94466492D01*
X126682414Y-94400600D01*
X126775600Y-94307414D01*
X126841492Y-94193286D01*
X126875600Y-94065992D01*
X126875600Y-87373531D01*
X130640499Y-87373531D01*
X130678616Y-87515782D01*
X130752246Y-87643314D01*
X130752248Y-87643317D01*
X130752249Y-87643318D01*
X130780395Y-87671464D01*
X130814420Y-87733774D01*
X130817300Y-87760559D01*
X130817300Y-98500723D01*
X130817299Y-98500723D01*
X130817300Y-98500725D01*
X130843299Y-98597754D01*
X130873738Y-98650476D01*
X130893524Y-98684747D01*
X130893527Y-98684750D01*
X130893530Y-98684754D01*
X133215046Y-101006270D01*
X133215051Y-101006274D01*
X133215053Y-101006276D01*
X133215054Y-101006277D01*
X133215056Y-101006278D01*
X133302045Y-101056501D01*
X133302047Y-101056502D01*
X133399075Y-101082501D01*
X133399077Y-101082501D01*
X133507243Y-101082501D01*
X133507259Y-101082500D01*
X136492143Y-101082500D01*
X136492736Y-101082538D01*
X136500624Y-101082532D01*
X136500629Y-101082534D01*
X136551573Y-101082500D01*
X136551605Y-101082500D01*
X136600826Y-101082500D01*
X136601075Y-101082467D01*
X136601079Y-101082467D01*
X136649704Y-101069402D01*
X136649796Y-101069404D01*
X136649790Y-101069379D01*
X136697854Y-101056501D01*
X136697859Y-101056497D01*
X136697919Y-101056474D01*
X136698083Y-101056404D01*
X136698090Y-101056403D01*
X136725094Y-101040787D01*
X136740710Y-101031758D01*
X136740712Y-101031761D01*
X136740774Y-101031720D01*
X136784847Y-101006276D01*
X136784856Y-101006266D01*
X136785047Y-101006120D01*
X136785050Y-101006119D01*
X136785052Y-101006117D01*
X136819466Y-100971657D01*
X136819527Y-100971595D01*
X136855876Y-100935247D01*
X136855877Y-100935244D01*
X136861499Y-100929623D01*
X136861890Y-100929175D01*
X137878545Y-99911162D01*
X137940835Y-99877096D01*
X137967700Y-99874199D01*
X139424564Y-99874199D01*
X139424566Y-99874199D01*
X139424569Y-99874198D01*
X139424572Y-99874198D01*
X139461163Y-99866919D01*
X139498801Y-99859434D01*
X139582984Y-99803184D01*
X139639234Y-99719001D01*
X139645921Y-99685382D01*
X139678828Y-99622473D01*
X139740522Y-99587340D01*
X139811417Y-99591140D01*
X139869004Y-99632665D01*
X139893079Y-99685382D01*
X139899766Y-99719001D01*
X139956016Y-99803184D01*
X140040197Y-99859433D01*
X140040199Y-99859434D01*
X140114433Y-99874200D01*
X141964566Y-99874199D01*
X141964569Y-99874198D01*
X141964573Y-99874198D01*
X142013826Y-99864401D01*
X142038801Y-99859434D01*
X142122984Y-99803184D01*
X142179234Y-99719001D01*
X142185921Y-99685382D01*
X142218828Y-99622473D01*
X142280522Y-99587340D01*
X142351417Y-99591140D01*
X142409004Y-99632665D01*
X142433079Y-99685382D01*
X142439766Y-99719001D01*
X142496016Y-99803184D01*
X142580197Y-99859433D01*
X142580199Y-99859434D01*
X142654433Y-99874200D01*
X144504566Y-99874199D01*
X144504569Y-99874198D01*
X144504573Y-99874198D01*
X144553826Y-99864401D01*
X144578801Y-99859434D01*
X144662984Y-99803184D01*
X144719234Y-99719001D01*
X144734000Y-99644767D01*
X144733999Y-97794634D01*
X144733998Y-97794630D01*
X144733998Y-97794626D01*
X144719234Y-97720399D01*
X144662983Y-97636215D01*
X144578802Y-97579966D01*
X144504567Y-97565200D01*
X142654436Y-97565200D01*
X142654426Y-97565201D01*
X142580199Y-97579965D01*
X142496015Y-97636216D01*
X142439766Y-97720396D01*
X142433078Y-97754019D01*
X142400169Y-97816929D01*
X142338473Y-97852059D01*
X142267579Y-97848258D01*
X142209993Y-97806732D01*
X142185920Y-97754015D01*
X142179234Y-97720399D01*
X142122983Y-97636215D01*
X142038802Y-97579966D01*
X141964567Y-97565200D01*
X140114436Y-97565200D01*
X140114426Y-97565201D01*
X140040199Y-97579965D01*
X139956015Y-97636216D01*
X139899766Y-97720396D01*
X139893078Y-97754019D01*
X139860169Y-97816929D01*
X139798473Y-97852059D01*
X139727579Y-97848258D01*
X139669993Y-97806732D01*
X139645920Y-97754015D01*
X139639234Y-97720399D01*
X139582983Y-97636215D01*
X139498802Y-97579966D01*
X139424567Y-97565200D01*
X137574436Y-97565200D01*
X137574426Y-97565201D01*
X137500199Y-97579965D01*
X137416015Y-97636216D01*
X137359766Y-97720397D01*
X137345000Y-97794630D01*
X137345000Y-99313514D01*
X137324998Y-99381635D01*
X137308155Y-99402550D01*
X137025701Y-99685382D01*
X136728080Y-99983401D01*
X136429344Y-100282536D01*
X136367054Y-100316603D01*
X136340189Y-100319500D01*
X133659513Y-100319500D01*
X133591392Y-100299498D01*
X133570418Y-100282595D01*
X131617205Y-98329382D01*
X131583179Y-98267070D01*
X131580300Y-98240287D01*
X131580300Y-91563130D01*
X134037300Y-91563130D01*
X134037300Y-93137263D01*
X134037301Y-93137273D01*
X134052065Y-93211500D01*
X134108316Y-93295684D01*
X134192497Y-93351933D01*
X134192499Y-93351934D01*
X134266733Y-93366700D01*
X135840866Y-93366699D01*
X135840869Y-93366698D01*
X135840873Y-93366698D01*
X135890126Y-93356901D01*
X135915101Y-93351934D01*
X135999284Y-93295684D01*
X136055534Y-93211501D01*
X136070300Y-93137267D01*
X136070299Y-91563134D01*
X136070298Y-91563130D01*
X136070298Y-91563126D01*
X136055534Y-91488899D01*
X135999283Y-91404715D01*
X135915102Y-91348466D01*
X135840867Y-91333700D01*
X134266736Y-91333700D01*
X134266726Y-91333701D01*
X134192499Y-91348465D01*
X134108315Y-91404716D01*
X134052066Y-91488897D01*
X134037300Y-91563130D01*
X131580300Y-91563130D01*
X131580300Y-87762559D01*
X131600302Y-87694438D01*
X131617201Y-87673467D01*
X131647351Y-87643318D01*
X131720984Y-87515782D01*
X131759100Y-87373533D01*
X131759100Y-87226267D01*
X131720984Y-87084018D01*
X131647351Y-86956482D01*
X131647349Y-86956480D01*
X131647345Y-86956475D01*
X131543224Y-86852354D01*
X131543214Y-86852346D01*
X131415682Y-86778716D01*
X131273433Y-86740600D01*
X131126167Y-86740600D01*
X131031334Y-86766010D01*
X130983917Y-86778716D01*
X130856385Y-86852346D01*
X130856375Y-86852354D01*
X130752254Y-86956475D01*
X130752246Y-86956485D01*
X130678616Y-87084017D01*
X130640500Y-87226268D01*
X130640500Y-87373531D01*
X130640499Y-87373531D01*
X126875600Y-87373531D01*
X126875600Y-79934008D01*
X126841492Y-79806714D01*
X126775600Y-79692586D01*
X126775598Y-79692584D01*
X126775594Y-79692579D01*
X126682420Y-79599405D01*
X126682410Y-79599397D01*
X126568290Y-79533510D01*
X126568287Y-79533509D01*
X126568286Y-79533508D01*
X126568284Y-79533507D01*
X126568283Y-79533507D01*
X126534173Y-79524367D01*
X126440992Y-79499400D01*
X113440992Y-79499400D01*
X113309208Y-79499400D01*
X113240994Y-79517677D01*
X113181916Y-79533507D01*
X113181909Y-79533510D01*
X113067789Y-79599397D01*
X113067779Y-79599405D01*
X112974605Y-79692579D01*
X112974597Y-79692589D01*
X112908710Y-79806709D01*
X112908708Y-79806714D01*
X112874600Y-79934008D01*
X100500400Y-79934008D01*
X100500400Y-73983030D01*
X108483600Y-73983030D01*
X108483600Y-75557163D01*
X108483601Y-75557173D01*
X108498365Y-75631400D01*
X108554616Y-75715584D01*
X108638797Y-75771833D01*
X108638799Y-75771834D01*
X108713033Y-75786600D01*
X110287166Y-75786599D01*
X110287169Y-75786598D01*
X110287173Y-75786598D01*
X110336426Y-75776801D01*
X110361401Y-75771834D01*
X110445584Y-75715584D01*
X110501834Y-75631401D01*
X110516600Y-75557167D01*
X110516599Y-73983034D01*
X110516598Y-73983030D01*
X110516598Y-73983026D01*
X110501834Y-73908799D01*
X110445583Y-73824615D01*
X110361402Y-73768366D01*
X110287167Y-73753600D01*
X108713036Y-73753600D01*
X108713026Y-73753601D01*
X108638799Y-73768365D01*
X108554615Y-73824616D01*
X108498366Y-73908797D01*
X108483600Y-73983030D01*
X100500400Y-73983030D01*
X100500400Y-70259604D01*
X100520402Y-70191483D01*
X100537305Y-70170509D01*
X100882984Y-69824830D01*
X121595600Y-69824830D01*
X121595600Y-71174963D01*
X121595601Y-71174973D01*
X121610365Y-71249200D01*
X121666616Y-71333384D01*
X121750797Y-71389633D01*
X121750799Y-71389634D01*
X121825033Y-71404400D01*
X123175166Y-71404399D01*
X123175169Y-71404398D01*
X123175173Y-71404398D01*
X123224426Y-71394601D01*
X123249401Y-71389634D01*
X123333584Y-71333384D01*
X123389834Y-71249201D01*
X123404600Y-71174967D01*
X123404599Y-69974830D01*
X123745900Y-69974830D01*
X123745900Y-71024963D01*
X123745901Y-71024973D01*
X123760665Y-71099200D01*
X123816916Y-71183384D01*
X123901097Y-71239633D01*
X123901099Y-71239634D01*
X123975333Y-71254400D01*
X125025466Y-71254399D01*
X125025469Y-71254398D01*
X125025473Y-71254398D01*
X125074726Y-71244601D01*
X125099701Y-71239634D01*
X125183884Y-71183384D01*
X125240134Y-71099201D01*
X125254900Y-71024967D01*
X125254899Y-69974834D01*
X125254899Y-69974833D01*
X125254899Y-69974831D01*
X125254899Y-69974830D01*
X125745900Y-69974830D01*
X125745900Y-71024963D01*
X125745901Y-71024973D01*
X125760665Y-71099200D01*
X125816916Y-71183384D01*
X125901097Y-71239633D01*
X125901099Y-71239634D01*
X125975333Y-71254400D01*
X127025466Y-71254399D01*
X127025469Y-71254398D01*
X127025473Y-71254398D01*
X127074726Y-71244601D01*
X127099701Y-71239634D01*
X127183884Y-71183384D01*
X127240134Y-71099201D01*
X127254900Y-71024967D01*
X127254899Y-69974834D01*
X127254899Y-69974833D01*
X127254899Y-69974831D01*
X127254899Y-69974830D01*
X127745800Y-69974830D01*
X127745800Y-71024963D01*
X127745801Y-71024973D01*
X127760565Y-71099200D01*
X127816816Y-71183384D01*
X127900997Y-71239633D01*
X127900999Y-71239634D01*
X127975233Y-71254400D01*
X129025366Y-71254399D01*
X129025369Y-71254398D01*
X129025373Y-71254398D01*
X129074626Y-71244601D01*
X129099601Y-71239634D01*
X129183784Y-71183384D01*
X129240034Y-71099201D01*
X129254800Y-71024967D01*
X129254799Y-69974834D01*
X129254798Y-69974831D01*
X129254798Y-69974826D01*
X129240034Y-69900600D01*
X129240034Y-69900599D01*
X129189406Y-69824830D01*
X129595800Y-69824830D01*
X129595800Y-71174963D01*
X129595801Y-71174973D01*
X129610565Y-71249200D01*
X129666816Y-71333384D01*
X129750997Y-71389633D01*
X129750999Y-71389634D01*
X129825233Y-71404400D01*
X131175366Y-71404399D01*
X131175369Y-71404398D01*
X131175373Y-71404398D01*
X131224626Y-71394601D01*
X131249601Y-71389634D01*
X131333784Y-71333384D01*
X131390034Y-71249201D01*
X131390033Y-71249201D01*
X131395435Y-71241118D01*
X131449912Y-71195590D01*
X131520356Y-71186743D01*
X131584400Y-71217384D01*
X131604965Y-71241118D01*
X131666616Y-71333384D01*
X131750797Y-71389633D01*
X131750799Y-71389634D01*
X131825033Y-71404400D01*
X132812986Y-71404399D01*
X132881107Y-71424401D01*
X132902081Y-71441304D01*
X140621295Y-79160518D01*
X140655321Y-79222830D01*
X140658200Y-79249613D01*
X140658200Y-89819200D01*
X140638198Y-89887321D01*
X140584542Y-89933814D01*
X140532200Y-89945200D01*
X140114436Y-89945200D01*
X140114426Y-89945201D01*
X140040199Y-89959965D01*
X139956015Y-90016216D01*
X139899766Y-90100396D01*
X139893078Y-90134019D01*
X139860169Y-90196929D01*
X139798473Y-90232059D01*
X139727579Y-90228258D01*
X139669993Y-90186732D01*
X139645920Y-90134015D01*
X139639234Y-90100399D01*
X139582983Y-90016215D01*
X139498802Y-89959966D01*
X139424567Y-89945200D01*
X137574436Y-89945200D01*
X137574426Y-89945201D01*
X137500199Y-89959965D01*
X137416015Y-90016216D01*
X137359766Y-90100397D01*
X137345000Y-90174630D01*
X137345000Y-92024763D01*
X137345001Y-92024773D01*
X137359765Y-92099000D01*
X137416016Y-92183184D01*
X137500197Y-92239433D01*
X137500199Y-92239434D01*
X137574433Y-92254200D01*
X139424566Y-92254199D01*
X139424569Y-92254198D01*
X139424573Y-92254198D01*
X139473826Y-92244401D01*
X139498801Y-92239434D01*
X139582984Y-92183184D01*
X139639234Y-92099001D01*
X139645921Y-92065382D01*
X139678828Y-92002473D01*
X139740522Y-91967340D01*
X139811417Y-91971140D01*
X139869004Y-92012665D01*
X139893079Y-92065382D01*
X139899766Y-92099001D01*
X139956016Y-92183184D01*
X140040197Y-92239433D01*
X140040199Y-92239434D01*
X140114433Y-92254200D01*
X141964566Y-92254199D01*
X141964569Y-92254198D01*
X141964573Y-92254198D01*
X142013826Y-92244401D01*
X142038801Y-92239434D01*
X142122984Y-92183184D01*
X142179234Y-92099001D01*
X142185921Y-92065382D01*
X142218828Y-92002473D01*
X142280522Y-91967340D01*
X142351417Y-91971140D01*
X142409004Y-92012665D01*
X142433079Y-92065382D01*
X142439766Y-92099001D01*
X142496016Y-92183184D01*
X142580197Y-92239433D01*
X142580199Y-92239434D01*
X142654433Y-92254200D01*
X144504566Y-92254199D01*
X144504569Y-92254198D01*
X144504573Y-92254198D01*
X144553826Y-92244401D01*
X144578801Y-92239434D01*
X144662984Y-92183184D01*
X144719234Y-92099001D01*
X144725921Y-92065382D01*
X144758828Y-92002473D01*
X144820522Y-91967340D01*
X144891417Y-91971140D01*
X144949004Y-92012665D01*
X144973079Y-92065382D01*
X144979766Y-92099001D01*
X145036016Y-92183184D01*
X145120197Y-92239433D01*
X145120199Y-92239434D01*
X145194433Y-92254200D01*
X147044566Y-92254199D01*
X147044569Y-92254198D01*
X147044573Y-92254198D01*
X147093826Y-92244401D01*
X147118801Y-92239434D01*
X147202984Y-92183184D01*
X147259234Y-92099001D01*
X147274000Y-92024767D01*
X147273999Y-90174634D01*
X147273998Y-90174630D01*
X147273998Y-90174626D01*
X147259234Y-90100399D01*
X147202983Y-90016215D01*
X147118802Y-89959966D01*
X147044569Y-89945200D01*
X147044567Y-89945200D01*
X146627200Y-89945200D01*
X146559079Y-89925198D01*
X146512586Y-89871542D01*
X146501200Y-89819200D01*
X146501200Y-82068976D01*
X146501200Y-82068975D01*
X146475201Y-81971946D01*
X146475199Y-81971943D01*
X146475199Y-81971941D01*
X146424978Y-81884956D01*
X146424974Y-81884951D01*
X146407436Y-81867413D01*
X146353947Y-81813924D01*
X135441704Y-70901681D01*
X135407678Y-70839369D01*
X135404799Y-70812586D01*
X135404799Y-69824832D01*
X135404798Y-69824827D01*
X135390034Y-69750599D01*
X135351337Y-69692686D01*
X135333784Y-69666416D01*
X135333783Y-69666415D01*
X135249602Y-69610166D01*
X135175367Y-69595400D01*
X133825236Y-69595400D01*
X133825226Y-69595401D01*
X133750999Y-69610165D01*
X133666816Y-69666415D01*
X133604963Y-69758982D01*
X133550485Y-69804509D01*
X133480042Y-69813355D01*
X133415998Y-69782713D01*
X133395434Y-69758980D01*
X133351137Y-69692686D01*
X133333584Y-69666416D01*
X133333583Y-69666415D01*
X133249402Y-69610166D01*
X133175167Y-69595400D01*
X131825036Y-69595400D01*
X131825026Y-69595401D01*
X131750799Y-69610165D01*
X131666616Y-69666415D01*
X131604963Y-69758683D01*
X131550485Y-69804209D01*
X131480042Y-69813056D01*
X131415998Y-69782414D01*
X131395434Y-69758681D01*
X131390034Y-69750599D01*
X131333784Y-69666416D01*
X131333783Y-69666415D01*
X131249602Y-69610166D01*
X131175367Y-69595400D01*
X129825236Y-69595400D01*
X129825226Y-69595401D01*
X129750999Y-69610165D01*
X129666815Y-69666416D01*
X129610566Y-69750597D01*
X129595800Y-69824830D01*
X129189406Y-69824830D01*
X129183784Y-69816416D01*
X129179203Y-69813355D01*
X129099602Y-69760166D01*
X129025367Y-69745400D01*
X127975236Y-69745400D01*
X127975226Y-69745401D01*
X127900999Y-69760165D01*
X127816815Y-69816416D01*
X127760566Y-69900597D01*
X127745800Y-69974830D01*
X127254899Y-69974830D01*
X127240134Y-69900599D01*
X127183883Y-69816415D01*
X127099702Y-69760166D01*
X127025467Y-69745400D01*
X125975336Y-69745400D01*
X125975326Y-69745401D01*
X125901099Y-69760165D01*
X125816915Y-69816416D01*
X125760666Y-69900597D01*
X125745900Y-69974830D01*
X125254899Y-69974830D01*
X125240134Y-69900599D01*
X125183883Y-69816415D01*
X125099702Y-69760166D01*
X125025467Y-69745400D01*
X123975336Y-69745400D01*
X123975326Y-69745401D01*
X123901099Y-69760165D01*
X123816915Y-69816416D01*
X123760666Y-69900597D01*
X123745900Y-69974830D01*
X123404599Y-69974830D01*
X123404599Y-69824834D01*
X123404599Y-69824832D01*
X123404598Y-69824826D01*
X123389834Y-69750599D01*
X123351137Y-69692686D01*
X123333584Y-69666416D01*
X123333583Y-69666415D01*
X123249402Y-69610166D01*
X123175167Y-69595400D01*
X121825036Y-69595400D01*
X121825026Y-69595401D01*
X121750799Y-69610165D01*
X121666615Y-69666416D01*
X121610366Y-69750597D01*
X121595600Y-69824830D01*
X100882984Y-69824830D01*
X102732984Y-67974830D01*
X119745900Y-67974830D01*
X119745900Y-69024963D01*
X119745901Y-69024973D01*
X119760665Y-69099200D01*
X119816916Y-69183384D01*
X119901097Y-69239633D01*
X119901099Y-69239634D01*
X119975333Y-69254400D01*
X121025466Y-69254399D01*
X121025469Y-69254398D01*
X121025473Y-69254398D01*
X121074726Y-69244601D01*
X121099701Y-69239634D01*
X121183884Y-69183384D01*
X121240134Y-69099201D01*
X121254900Y-69024967D01*
X121254899Y-67974834D01*
X121254899Y-67974833D01*
X121254899Y-67974831D01*
X121254899Y-67974830D01*
X121745600Y-67974830D01*
X121745600Y-69024963D01*
X121745601Y-69024973D01*
X121760365Y-69099200D01*
X121816616Y-69183384D01*
X121900797Y-69239633D01*
X121900799Y-69239634D01*
X121975033Y-69254400D01*
X123025166Y-69254399D01*
X123025169Y-69254398D01*
X123025173Y-69254398D01*
X123074426Y-69244601D01*
X123099401Y-69239634D01*
X123183584Y-69183384D01*
X123239834Y-69099201D01*
X123254600Y-69024967D01*
X123254599Y-67974834D01*
X123254599Y-67974833D01*
X123254598Y-67974828D01*
X123254539Y-67974530D01*
X123745900Y-67974530D01*
X123745900Y-69024663D01*
X123745901Y-69024673D01*
X123760665Y-69098900D01*
X123816916Y-69183084D01*
X123901097Y-69239333D01*
X123901099Y-69239334D01*
X123975333Y-69254100D01*
X125025466Y-69254099D01*
X125025469Y-69254098D01*
X125025473Y-69254098D01*
X125074726Y-69244301D01*
X125099701Y-69239334D01*
X125183884Y-69183084D01*
X125240134Y-69098901D01*
X125254900Y-69024667D01*
X125254899Y-67974534D01*
X125254899Y-67974533D01*
X125254899Y-67974531D01*
X125254899Y-67974530D01*
X125745900Y-67974530D01*
X125745900Y-69024663D01*
X125745901Y-69024673D01*
X125760665Y-69098900D01*
X125816916Y-69183084D01*
X125901097Y-69239333D01*
X125901099Y-69239334D01*
X125975333Y-69254100D01*
X127025466Y-69254099D01*
X127025469Y-69254098D01*
X127025473Y-69254098D01*
X127074726Y-69244301D01*
X127099701Y-69239334D01*
X127183884Y-69183084D01*
X127240134Y-69098901D01*
X127254900Y-69024667D01*
X127254899Y-67974534D01*
X127254899Y-67974533D01*
X127254899Y-67974531D01*
X127254899Y-67974530D01*
X127745900Y-67974530D01*
X127745900Y-69024663D01*
X127745901Y-69024673D01*
X127760665Y-69098900D01*
X127816916Y-69183084D01*
X127901097Y-69239333D01*
X127901099Y-69239334D01*
X127975333Y-69254100D01*
X129025466Y-69254099D01*
X129025469Y-69254098D01*
X129025473Y-69254098D01*
X129074726Y-69244301D01*
X129099701Y-69239334D01*
X129183884Y-69183084D01*
X129240134Y-69098901D01*
X129254900Y-69024667D01*
X129254899Y-67974534D01*
X129254899Y-67974533D01*
X129254899Y-67974531D01*
X129254899Y-67974530D01*
X129745800Y-67974530D01*
X129745800Y-69024663D01*
X129745801Y-69024673D01*
X129760565Y-69098900D01*
X129816816Y-69183084D01*
X129900997Y-69239333D01*
X129900999Y-69239334D01*
X129975233Y-69254100D01*
X131025366Y-69254099D01*
X131025369Y-69254098D01*
X131025373Y-69254098D01*
X131074626Y-69244301D01*
X131099601Y-69239334D01*
X131183784Y-69183084D01*
X131240034Y-69098901D01*
X131254800Y-69024667D01*
X131254799Y-67974830D01*
X131745600Y-67974830D01*
X131745600Y-69024963D01*
X131745601Y-69024973D01*
X131760365Y-69099200D01*
X131816616Y-69183384D01*
X131900797Y-69239633D01*
X131900799Y-69239634D01*
X131975033Y-69254400D01*
X133025166Y-69254399D01*
X133025169Y-69254398D01*
X133025173Y-69254398D01*
X133074426Y-69244601D01*
X133099401Y-69239634D01*
X133183584Y-69183384D01*
X133239834Y-69099201D01*
X133254600Y-69024967D01*
X133254599Y-67974834D01*
X133254599Y-67974833D01*
X133254599Y-67974831D01*
X133254599Y-67974830D01*
X133745800Y-67974830D01*
X133745800Y-69024963D01*
X133745801Y-69024973D01*
X133760565Y-69099200D01*
X133816816Y-69183384D01*
X133900997Y-69239633D01*
X133900999Y-69239634D01*
X133975233Y-69254400D01*
X135025366Y-69254399D01*
X135025369Y-69254398D01*
X135025373Y-69254398D01*
X135074626Y-69244601D01*
X135099601Y-69239634D01*
X135183784Y-69183384D01*
X135240034Y-69099201D01*
X135254800Y-69024967D01*
X135254799Y-67974834D01*
X135254798Y-67974831D01*
X135254798Y-67974826D01*
X135240034Y-67900599D01*
X135183783Y-67816415D01*
X135099602Y-67760166D01*
X135025367Y-67745400D01*
X133975236Y-67745400D01*
X133975226Y-67745401D01*
X133900999Y-67760165D01*
X133816815Y-67816416D01*
X133760566Y-67900597D01*
X133745800Y-67974830D01*
X133254599Y-67974830D01*
X133239834Y-67900599D01*
X133183583Y-67816415D01*
X133099402Y-67760166D01*
X133025167Y-67745400D01*
X131975036Y-67745400D01*
X131975026Y-67745401D01*
X131900799Y-67760165D01*
X131816615Y-67816416D01*
X131760366Y-67900597D01*
X131745600Y-67974830D01*
X131254799Y-67974830D01*
X131254799Y-67974534D01*
X131254798Y-67974531D01*
X131254798Y-67974526D01*
X131240034Y-67900299D01*
X131183984Y-67816416D01*
X131183784Y-67816116D01*
X131183783Y-67816115D01*
X131099602Y-67759866D01*
X131025367Y-67745100D01*
X129975236Y-67745100D01*
X129975226Y-67745101D01*
X129900999Y-67759865D01*
X129816815Y-67816116D01*
X129760566Y-67900297D01*
X129745800Y-67974530D01*
X129254899Y-67974530D01*
X129240134Y-67900299D01*
X129184084Y-67816416D01*
X129183884Y-67816116D01*
X129183883Y-67816115D01*
X129099702Y-67759866D01*
X129025467Y-67745100D01*
X127975336Y-67745100D01*
X127975326Y-67745101D01*
X127901099Y-67759865D01*
X127816915Y-67816116D01*
X127760666Y-67900297D01*
X127745900Y-67974530D01*
X127254899Y-67974530D01*
X127240134Y-67900299D01*
X127184084Y-67816416D01*
X127183884Y-67816116D01*
X127183883Y-67816115D01*
X127099702Y-67759866D01*
X127025467Y-67745100D01*
X125975336Y-67745100D01*
X125975326Y-67745101D01*
X125901099Y-67759865D01*
X125816915Y-67816116D01*
X125760666Y-67900297D01*
X125745900Y-67974530D01*
X125254899Y-67974530D01*
X125240134Y-67900299D01*
X125184084Y-67816416D01*
X125183884Y-67816116D01*
X125183883Y-67816115D01*
X125099702Y-67759866D01*
X125025467Y-67745100D01*
X123975336Y-67745100D01*
X123975326Y-67745101D01*
X123901099Y-67759865D01*
X123816915Y-67816116D01*
X123760666Y-67900297D01*
X123745900Y-67974530D01*
X123254539Y-67974530D01*
X123239834Y-67900599D01*
X123183583Y-67816415D01*
X123099402Y-67760166D01*
X123025167Y-67745400D01*
X121975036Y-67745400D01*
X121975026Y-67745401D01*
X121900799Y-67760165D01*
X121816615Y-67816416D01*
X121760366Y-67900597D01*
X121745600Y-67974830D01*
X121254899Y-67974830D01*
X121240134Y-67900599D01*
X121183883Y-67816415D01*
X121099702Y-67760166D01*
X121025467Y-67745400D01*
X119975336Y-67745400D01*
X119975326Y-67745401D01*
X119901099Y-67760165D01*
X119816915Y-67816416D01*
X119760666Y-67900597D01*
X119745900Y-67974830D01*
X102732984Y-67974830D01*
X110170409Y-60537405D01*
X110232721Y-60503379D01*
X110259504Y-60500500D01*
X189740297Y-60500500D01*
X189808418Y-60520502D01*
G37*
%TD.AperFunction*%
%TD*%
M02*
