%TF.GenerationSoftware,KiCad,Pcbnew,10.0.6*%
%TF.CreationDate,2026-09-23T18:12:16+08:00*%
%TF.ProjectId,Throttle_Module,5468726f-7474-46c6-955f-4d6f64756c65,1.7*%
%TF.SameCoordinates,Original*%
%TF.FileFunction,Profile,NP*%
%FSLAX46Y46*%
G04 Gerber Fmt 4.6, Leading zero omitted, Abs format (unit mm)*
G04 Created by KiCad (PCBNEW 10.0.6) date 2026-09-23 18:12:16*
%MOMM*%
%LPD*%
G01*
G04 APERTURE LIST*
%TA.AperFunction,Profile*%
%ADD10C,0.254000*%
%TD*%
G04 APERTURE END LIST*
D10*
X99999900Y-70000100D02*
X99999900Y-108557100D01*
X99999900Y-70000100D02*
X110000000Y-60000000D01*
X99999902Y-112345338D02*
X100000000Y-150002050D01*
X99999902Y-112345338D02*
X100002000Y-111097600D01*
X100000000Y-150002050D02*
X104998700Y-155001100D01*
X100001700Y-108512900D02*
X100001700Y-108865413D01*
X100002000Y-111097600D02*
X100166600Y-111233500D01*
X100102000Y-108782100D02*
X100001700Y-108865413D01*
X100166600Y-111233500D02*
X100337000Y-111331800D01*
X100243000Y-108672400D02*
X100102000Y-108782100D01*
X100337000Y-111331800D02*
X100672200Y-111446100D01*
X100540000Y-108542100D02*
X100243000Y-108672400D01*
X100672200Y-111446100D02*
X101096300Y-111484200D01*
X100845000Y-108475400D02*
X100540000Y-108542100D01*
X101096300Y-111484200D02*
X101557600Y-111377100D01*
X101200600Y-108476700D02*
X100845000Y-108475400D01*
X101499200Y-108563200D02*
X101200600Y-108476700D01*
X101515500Y-108563200D02*
X101499200Y-108563200D01*
X101557600Y-111377100D02*
X101970200Y-111133700D01*
X101705700Y-108659000D02*
X101515500Y-108563200D01*
X101970200Y-111133700D02*
X102140400Y-110956800D01*
X101988000Y-108834300D02*
X101705700Y-108659000D01*
X102128200Y-108995000D02*
X101988000Y-108834300D01*
X102140400Y-110956800D02*
X102292000Y-110749100D01*
X102194700Y-109071200D02*
X102128200Y-108995000D01*
X102239300Y-109145600D02*
X102194700Y-109071200D01*
X102255800Y-109148800D02*
X102239300Y-109145600D01*
X102292000Y-110749100D02*
X102377300Y-110595200D01*
X102343600Y-109317800D02*
X102255800Y-109148800D01*
X102365700Y-110620600D02*
X102456000Y-110366600D01*
X102377300Y-110595200D02*
X102408500Y-110493600D01*
X102416500Y-109503000D02*
X102343600Y-109317800D01*
X102456000Y-110366600D02*
X102496000Y-110112600D01*
X102480700Y-109731600D02*
X102429800Y-109531000D01*
X102485500Y-109723300D02*
X102416500Y-109503000D01*
X102496000Y-109920300D02*
X102480700Y-109731600D01*
X102496000Y-110112600D02*
X102496000Y-109920300D01*
X102503200Y-110024400D02*
X102485500Y-109723300D01*
X104998700Y-155001100D02*
X110000000Y-159999800D01*
X109800100Y-134400300D02*
X118800100Y-134400300D01*
X109800100Y-148400400D02*
X109800100Y-134400300D01*
X110000000Y-159999800D02*
X190000000Y-159999800D01*
X113374900Y-98250000D02*
X126375100Y-98251000D01*
X113374900Y-112249900D02*
X113374900Y-98250000D01*
X113375100Y-79999900D02*
X126375100Y-79999900D01*
X113375100Y-94000100D02*
X113375100Y-79999900D01*
X118800100Y-134400300D02*
X118800100Y-148400400D01*
X118800100Y-148400400D02*
X109800100Y-148400400D01*
X126375100Y-79999900D02*
X126375100Y-94000100D01*
X126375100Y-94000100D02*
X113375100Y-94000100D01*
X126375100Y-98251000D02*
X126375100Y-112249900D01*
X126375100Y-112249900D02*
X113374900Y-112249900D01*
X159999900Y-80000000D02*
G75*
G02*
X155999900Y-80000000I-2000000J0D01*
G01*
X155999900Y-80000000D02*
G75*
G02*
X159999900Y-80000000I2000000J0D01*
G01*
X159999900Y-104999900D02*
G75*
G02*
X155999900Y-104999900I-2000000J0D01*
G01*
X155999900Y-104999900D02*
G75*
G02*
X159999900Y-104999900I2000000J0D01*
G01*
X159999900Y-149999800D02*
G75*
G02*
X155999900Y-149999800I-2000000J0D01*
G01*
X155999900Y-149999800D02*
G75*
G02*
X159999900Y-149999800I2000000J0D01*
G01*
X164249300Y-83500100D02*
X175999300Y-83500100D01*
X164249300Y-147500500D02*
X164249900Y-83500000D01*
X164249900Y-83500000D02*
X164249300Y-83500100D01*
X175999300Y-83500100D02*
X175999300Y-147500500D01*
X175999300Y-147500500D02*
X164249300Y-147500500D01*
X184999800Y-80000000D02*
G75*
G02*
X180999800Y-80000000I-2000000J0D01*
G01*
X180999800Y-80000000D02*
G75*
G02*
X184999800Y-80000000I2000000J0D01*
G01*
X184999800Y-104999900D02*
G75*
G02*
X180999800Y-104999900I-2000000J0D01*
G01*
X180999800Y-104999900D02*
G75*
G02*
X184999800Y-104999900I2000000J0D01*
G01*
X184999800Y-124999900D02*
G75*
G02*
X180999800Y-124999900I-2000000J0D01*
G01*
X180999800Y-124999900D02*
G75*
G02*
X184999800Y-124999900I2000000J0D01*
G01*
X184999800Y-149999800D02*
G75*
G02*
X180999800Y-149999800I-2000000J0D01*
G01*
X180999800Y-149999800D02*
G75*
G02*
X184999800Y-149999800I2000000J0D01*
G01*
X189999800Y-60000000D02*
X110000000Y-60000000D01*
X194999800Y-155000000D02*
X190000000Y-159999800D01*
X197499900Y-109900000D02*
X197517700Y-110201000D01*
X197506800Y-109811700D02*
X197506800Y-110004000D01*
X197506800Y-110004000D02*
X197522300Y-110192700D01*
X197517700Y-110201000D02*
X197586500Y-110421300D01*
X197522300Y-110192700D02*
X197573100Y-110393400D01*
X197547100Y-109557700D02*
X197506800Y-109811700D01*
X197586500Y-110421300D02*
X197659600Y-110606600D01*
X197608806Y-109383938D02*
X197547100Y-109557700D01*
X197608806Y-109383938D02*
X197594400Y-109430700D01*
X197659600Y-110606600D02*
X197747300Y-110775500D01*
X197711000Y-109175200D02*
X197625700Y-109329100D01*
X197747300Y-110775500D02*
X197763600Y-110778700D01*
X197763600Y-110778700D02*
X197808300Y-110853100D01*
X197808300Y-110853100D02*
X197874700Y-110929300D01*
X197862500Y-108967600D02*
X197711000Y-109175200D01*
X197874700Y-110929300D02*
X198014800Y-111090000D01*
X198014800Y-111090000D02*
X198297300Y-111265300D01*
X198032800Y-108790700D02*
X197862500Y-108967600D01*
X198297300Y-111265300D02*
X198487500Y-111361100D01*
X198445300Y-108547200D02*
X198032800Y-108790700D01*
X198487500Y-111361100D02*
X198503900Y-111361100D01*
X198503900Y-111361100D02*
X198802600Y-111447800D01*
X198802600Y-111447800D02*
X199157800Y-111448900D01*
X198906600Y-108440100D02*
X198445300Y-108547200D01*
X199157800Y-111448900D02*
X199462900Y-111382200D01*
X199330700Y-108478200D02*
X198906600Y-108440100D01*
X199462900Y-111382200D02*
X199760000Y-111251900D01*
X199665800Y-108592500D02*
X199330700Y-108478200D01*
X199760000Y-111251900D02*
X199901100Y-111142200D01*
X199836500Y-108690900D02*
X199665800Y-108592500D01*
X199901100Y-111142200D02*
X200001300Y-111058811D01*
X199999900Y-70000000D02*
X189999800Y-60000000D01*
X199999900Y-108564800D02*
X199999900Y-70000000D01*
X199999900Y-150000000D02*
X194999800Y-155000000D01*
X199999900Y-150000000D02*
X199999900Y-111447900D01*
X200001000Y-108826800D02*
X199836500Y-108690900D01*
X200001300Y-111411400D02*
X200001300Y-111058811D01*
X200001378Y-108557100D02*
X200001000Y-108826800D01*
X200004900Y-108557100D02*
X200001378Y-108557100D01*
M02*
