M48
; DRILL file KiCad 10.0.6 date 2026-09-23T17:32:01
; FORMAT={-:-/ absolute / metric / decimal}
; #@! TF.CreationDate,2026-09-23T17:32:01+08:00
; #@! TF.GenerationSoftware,Kicad,Pcbnew,10.0.6
; #@! TF.FileFunction,Plated,1,2,PTH
FMAT,2
METRIC
; #@! TA.AperFunction,Plated,PTH,ViaDrill
T1C0.305
; #@! TA.AperFunction,Plated,PTH,ComponentDrill
T2C0.670
; #@! TA.AperFunction,Plated,PTH,ComponentDrill
T3C0.889
; #@! TA.AperFunction,Plated,PTH,ComponentDrill
T4C0.890
; #@! TA.AperFunction,Plated,PTH,ComponentDrill
T5C0.914
; #@! TA.AperFunction,Plated,PTH,ComponentDrill
T6C0.914
%
G90
G05
T1
X100.6Y-105.2
X100.6Y-115.197
X119.0Y-122.8
X127.4Y-77.2
X128.0Y-85.0
X129.2Y-122.8
X129.4Y-77.2
X131.4Y-77.2
X199.4Y-105.203
X199.4Y-115.2
T2
X117.502Y-67.75
X117.502Y-69.75
X119.501Y-67.75
X119.501Y-69.75
X121.502Y-67.75
X121.502Y-69.75
X123.502Y-67.75
X123.502Y-69.75
X125.502Y-67.75
X125.502Y-69.75
X127.502Y-67.75
X127.502Y-69.75
X129.502Y-67.75
X129.502Y-69.75
X131.502Y-67.75
X131.502Y-69.75
T3
X152.0Y-121.5
X161.0Y-121.5
X175.0Y-122.0
X179.0Y-122.0
X183.0Y-122.0
T4
X118.96Y-120.4
X118.96Y-128.0
X121.5Y-120.4
X121.5Y-128.0
X124.04Y-120.4
X124.04Y-128.0
X126.58Y-120.4
X126.58Y-128.0
X129.12Y-120.4
X129.12Y-128.0
X131.66Y-120.4
X131.66Y-128.0
X134.2Y-120.4
X134.2Y-128.0
T5
X110.5Y-141.504
X110.5Y-149.504
X111.0Y-83.0
X111.0Y-91.0
X111.0Y-101.0
X111.0Y-109.0
X132.25Y-98.0
X137.25Y-85.0
X137.25Y-111.0
X143.252Y-143.254
X143.252Y-151.254
X153.0Y-69.0
X166.0Y-64.0
X172.254Y-143.504
X172.254Y-151.504
X179.0Y-69.0
T6
X105.826Y-83.913
X105.826Y-94.073
X107.5Y-72.981
X107.5Y-75.521
X114.144Y-121.949
X114.144Y-126.949
X114.412Y-135.428
X124.572Y-135.428
X144.414Y-128.927
X146.914Y-135.428
X154.574Y-128.927
X157.074Y-135.428
X175.665Y-135.428
X185.825Y-135.428
M30
