%TF.GenerationSoftware,KiCad,Pcbnew,10.0.6*%
%TF.CreationDate,2026-09-23T18:07:57+08:00*%
%TF.ProjectId,Rotation_Module,526f7461-7469-46f6-9e5f-4d6f64756c65,1.7*%
%TF.SameCoordinates,Original*%
%TF.FileFunction,Legend,Top*%
%TF.FilePolarity,Positive*%
%FSLAX46Y46*%
G04 Gerber Fmt 4.6, Leading zero omitted, Abs format (unit mm)*
G04 Created by KiCad (PCBNEW 10.0.6) date 2026-09-23 18:07:57*
%MOMM*%
%LPD*%
G01*
G04 APERTURE LIST*
%ADD10C,0.254000*%
%ADD11C,0.080000*%
%ADD12C,0.150000*%
%ADD13C,0.200000*%
%ADD14C,0.177800*%
%ADD15C,0.152400*%
G04 APERTURE END LIST*
D10*
X108498800Y-113251100D02*
X108498800Y-126748700D01*
X108498800Y-126748700D02*
X134749700Y-126748700D01*
X114650000Y-117699900D02*
X114650000Y-120034900D01*
X114650000Y-117699900D02*
X116129200Y-117699900D01*
X114650000Y-120034900D02*
G75*
G02*
X114648800Y-121965100I-600J-965100D01*
G01*
X114650000Y-124299900D02*
X114650000Y-121965100D01*
X114650000Y-124299900D02*
X115621700Y-124299900D01*
X114928100Y-125673500D02*
G75*
G02*
X114674100Y-125673500I-127000J0D01*
G01*
X114674100Y-125673500D02*
G75*
G02*
X114928100Y-125673500I127000J0D01*
G01*
X117130700Y-117699900D02*
X118669200Y-117699900D01*
X117638200Y-124299900D02*
X118669200Y-124299900D01*
X119670700Y-117699900D02*
X121209200Y-117699900D01*
X119670700Y-124299900D02*
X121209200Y-124299900D01*
X122210700Y-117699900D02*
X123749200Y-117699900D01*
X122210700Y-124299900D02*
X123749200Y-124299900D01*
X124750700Y-117699900D02*
X126289200Y-117699900D01*
X124750700Y-124299900D02*
X126289200Y-124299900D01*
X127290700Y-117699900D02*
X128829200Y-117699900D01*
X127290700Y-124299900D02*
X128829200Y-124299900D01*
X129830700Y-117699900D02*
X131369200Y-117699900D01*
X129830700Y-124299900D02*
X131369200Y-124299900D01*
X130202600Y-133091200D02*
X136202500Y-133091200D01*
X130202600Y-157091200D02*
X130202600Y-133091200D01*
X132370700Y-117699900D02*
X133850000Y-117699900D01*
X132370700Y-124299900D02*
X133850000Y-124299900D01*
X133850000Y-117699900D02*
X133850000Y-124299900D01*
X134749700Y-113251100D02*
X108498800Y-113251100D01*
X134749700Y-126748700D02*
X134749700Y-113251100D01*
X135202500Y-144091100D02*
X135202500Y-146091100D01*
X135202500Y-146091100D02*
X136202500Y-146091100D01*
X136202500Y-133091200D02*
X136202500Y-157091200D01*
X136202500Y-144091100D02*
X135202500Y-144091100D01*
X136202500Y-157091200D02*
X130202600Y-157091200D01*
X193500100Y-84250000D02*
X193500100Y-86499900D01*
D11*
X111879621Y-141634973D02*
X112123431Y-141634973D01*
X112519621Y-141634973D02*
X112763431Y-141634973D01*
X113159621Y-141634973D02*
X113403431Y-141634973D01*
X112129321Y-109139773D02*
X112373131Y-109139773D01*
X112769321Y-109139773D02*
X113013131Y-109139773D01*
X113409321Y-109139773D02*
X113653131Y-109139773D01*
X112129521Y-91139773D02*
X112373331Y-91139773D01*
X112769521Y-91139773D02*
X113013331Y-91139773D01*
X113409521Y-91139773D02*
X113653331Y-91139773D01*
X112129521Y-101139573D02*
X112373331Y-101139573D01*
X112769521Y-101139573D02*
X113013331Y-101139573D01*
X113409521Y-101139573D02*
X113653331Y-101139573D01*
X133378921Y-98140273D02*
X133622731Y-98140273D01*
X134018921Y-98140273D02*
X134262731Y-98140273D01*
X134658921Y-98140273D02*
X134902731Y-98140273D01*
X144123621Y-143352273D02*
X144367431Y-143352273D01*
X144763621Y-143352273D02*
X145007431Y-143352273D01*
X145403621Y-143352273D02*
X145647431Y-143352273D01*
X153128721Y-121639073D02*
X153372531Y-121639073D01*
X153768721Y-121639073D02*
X154012531Y-121639073D01*
X154128721Y-69139873D02*
X154372531Y-69139873D01*
X154768721Y-69139873D02*
X155012531Y-69139873D01*
X155408721Y-69139873D02*
X155652531Y-69139873D01*
X176378821Y-69140073D02*
X176622631Y-69140073D01*
X177018821Y-69140073D02*
X177262631Y-69140073D01*
X177658821Y-69140073D02*
X177902631Y-69140073D01*
X137389773Y-109871578D02*
X137389773Y-109627769D01*
X137389773Y-109231578D02*
X137389773Y-108987769D01*
X137389773Y-108591578D02*
X137389773Y-108347769D01*
X177870978Y-121860726D02*
X177627169Y-121860726D01*
X177230978Y-121860726D02*
X176987169Y-121860726D01*
X176590978Y-121860726D02*
X176347169Y-121860726D01*
X181621078Y-121860726D02*
X181377269Y-121860726D01*
X180981078Y-121860726D02*
X180737269Y-121860726D01*
X180341078Y-121860726D02*
X180097269Y-121860726D01*
X137110726Y-86128721D02*
X137110726Y-86372531D01*
X137110726Y-86768721D02*
X137110726Y-87012531D01*
X137110726Y-87408721D02*
X137110726Y-87652531D01*
X165860726Y-65129321D02*
X165860726Y-65373131D01*
X165860726Y-65769321D02*
X165860726Y-66013131D01*
X165860726Y-66409321D02*
X165860726Y-66653131D01*
X178610826Y-152128621D02*
X178610826Y-152372431D01*
X178610826Y-152768621D02*
X178610826Y-153012431D01*
X178610826Y-153408621D02*
X178610826Y-153652431D01*
X111891526Y-149635273D02*
X112173431Y-149635273D01*
X112631526Y-149635273D02*
X112913431Y-149635273D01*
X113371526Y-149635273D02*
X113653431Y-149635273D01*
X112140726Y-83139073D02*
X112422631Y-83139073D01*
X112880726Y-83139073D02*
X113162631Y-83139073D01*
X113620726Y-83139073D02*
X113902631Y-83139073D01*
X144135526Y-151353573D02*
X144417431Y-151353573D01*
X144875526Y-151353573D02*
X145157431Y-151353573D01*
X145615526Y-151353573D02*
X145897431Y-151353573D01*
X159140626Y-121639073D02*
X159422531Y-121639073D01*
X159880626Y-121639073D02*
X160162531Y-121639073D01*
X184859573Y-144361126D02*
X184577669Y-144361126D01*
X184119573Y-144361126D02*
X183837669Y-144361126D01*
X183379573Y-144361126D02*
X183097669Y-144361126D01*
X178610826Y-137140326D02*
X178610826Y-137422231D01*
X178610826Y-137880326D02*
X178610826Y-138162231D01*
X178610826Y-138620326D02*
X178610826Y-138902231D01*
D12*
X109245895Y-117746303D02*
X109207800Y-117708207D01*
X109207800Y-117708207D02*
X109169704Y-117593922D01*
X109169704Y-117593922D02*
X109169704Y-117517731D01*
X109169704Y-117517731D02*
X109207800Y-117403445D01*
X109207800Y-117403445D02*
X109283990Y-117327255D01*
X109283990Y-117327255D02*
X109360180Y-117289160D01*
X109360180Y-117289160D02*
X109512561Y-117251064D01*
X109512561Y-117251064D02*
X109626847Y-117251064D01*
X109626847Y-117251064D02*
X109779228Y-117289160D01*
X109779228Y-117289160D02*
X109855419Y-117327255D01*
X109855419Y-117327255D02*
X109931609Y-117403445D01*
X109931609Y-117403445D02*
X109969704Y-117517731D01*
X109969704Y-117517731D02*
X109969704Y-117593922D01*
X109969704Y-117593922D02*
X109931609Y-117708207D01*
X109931609Y-117708207D02*
X109893514Y-117746303D01*
X109969704Y-118241541D02*
X109969704Y-118393922D01*
X109969704Y-118393922D02*
X109931609Y-118470112D01*
X109931609Y-118470112D02*
X109855419Y-118546303D01*
X109855419Y-118546303D02*
X109703038Y-118584398D01*
X109703038Y-118584398D02*
X109436371Y-118584398D01*
X109436371Y-118584398D02*
X109283990Y-118546303D01*
X109283990Y-118546303D02*
X109207800Y-118470112D01*
X109207800Y-118470112D02*
X109169704Y-118393922D01*
X109169704Y-118393922D02*
X109169704Y-118241541D01*
X109169704Y-118241541D02*
X109207800Y-118165350D01*
X109207800Y-118165350D02*
X109283990Y-118089160D01*
X109283990Y-118089160D02*
X109436371Y-118051064D01*
X109436371Y-118051064D02*
X109703038Y-118051064D01*
X109703038Y-118051064D02*
X109855419Y-118089160D01*
X109855419Y-118089160D02*
X109931609Y-118165350D01*
X109931609Y-118165350D02*
X109969704Y-118241541D01*
X109169704Y-118927255D02*
X109969704Y-118927255D01*
X109969704Y-118927255D02*
X109169704Y-119384398D01*
X109169704Y-119384398D02*
X109969704Y-119384398D01*
X109969704Y-119651064D02*
X109969704Y-120108207D01*
X109169704Y-119879635D02*
X109969704Y-119879635D01*
X109169704Y-120832017D02*
X109550657Y-120565350D01*
X109169704Y-120374874D02*
X109969704Y-120374874D01*
X109969704Y-120374874D02*
X109969704Y-120679636D01*
X109969704Y-120679636D02*
X109931609Y-120755826D01*
X109931609Y-120755826D02*
X109893514Y-120793921D01*
X109893514Y-120793921D02*
X109817323Y-120832017D01*
X109817323Y-120832017D02*
X109703038Y-120832017D01*
X109703038Y-120832017D02*
X109626847Y-120793921D01*
X109626847Y-120793921D02*
X109588752Y-120755826D01*
X109588752Y-120755826D02*
X109550657Y-120679636D01*
X109550657Y-120679636D02*
X109550657Y-120374874D01*
X109969704Y-121327255D02*
X109969704Y-121479636D01*
X109969704Y-121479636D02*
X109931609Y-121555826D01*
X109931609Y-121555826D02*
X109855419Y-121632017D01*
X109855419Y-121632017D02*
X109703038Y-121670112D01*
X109703038Y-121670112D02*
X109436371Y-121670112D01*
X109436371Y-121670112D02*
X109283990Y-121632017D01*
X109283990Y-121632017D02*
X109207800Y-121555826D01*
X109207800Y-121555826D02*
X109169704Y-121479636D01*
X109169704Y-121479636D02*
X109169704Y-121327255D01*
X109169704Y-121327255D02*
X109207800Y-121251064D01*
X109207800Y-121251064D02*
X109283990Y-121174874D01*
X109283990Y-121174874D02*
X109436371Y-121136778D01*
X109436371Y-121136778D02*
X109703038Y-121136778D01*
X109703038Y-121136778D02*
X109855419Y-121174874D01*
X109855419Y-121174874D02*
X109931609Y-121251064D01*
X109931609Y-121251064D02*
X109969704Y-121327255D01*
X109169704Y-122393921D02*
X109169704Y-122012969D01*
X109169704Y-122012969D02*
X109969704Y-122012969D01*
X192343138Y-86174774D02*
X192343138Y-86479536D01*
X191809804Y-86289060D02*
X192495519Y-86289060D01*
X192495519Y-86289060D02*
X192571709Y-86327155D01*
X192571709Y-86327155D02*
X192609804Y-86403345D01*
X192609804Y-86403345D02*
X192609804Y-86479536D01*
X192597900Y-79251064D02*
X192559804Y-79327255D01*
X192559804Y-79327255D02*
X192559804Y-79479636D01*
X192559804Y-79479636D02*
X192597900Y-79555826D01*
X192597900Y-79555826D02*
X192674090Y-79593922D01*
X192674090Y-79593922D02*
X192712185Y-79593922D01*
X192712185Y-79593922D02*
X192788376Y-79555826D01*
X192788376Y-79555826D02*
X192826471Y-79479636D01*
X192826471Y-79479636D02*
X192826471Y-79365350D01*
X192826471Y-79365350D02*
X192864566Y-79289160D01*
X192864566Y-79289160D02*
X192940757Y-79251064D01*
X192940757Y-79251064D02*
X192978852Y-79251064D01*
X192978852Y-79251064D02*
X193055042Y-79289160D01*
X193055042Y-79289160D02*
X193093138Y-79365350D01*
X193093138Y-79365350D02*
X193093138Y-79479636D01*
X193093138Y-79479636D02*
X193055042Y-79555826D01*
X193093138Y-79936779D02*
X192293138Y-79936779D01*
X193055042Y-79936779D02*
X193093138Y-80012969D01*
X193093138Y-80012969D02*
X193093138Y-80165350D01*
X193093138Y-80165350D02*
X193055042Y-80241541D01*
X193055042Y-80241541D02*
X193016947Y-80279636D01*
X193016947Y-80279636D02*
X192940757Y-80317731D01*
X192940757Y-80317731D02*
X192712185Y-80317731D01*
X192712185Y-80317731D02*
X192635995Y-80279636D01*
X192635995Y-80279636D02*
X192597900Y-80241541D01*
X192597900Y-80241541D02*
X192559804Y-80165350D01*
X192559804Y-80165350D02*
X192559804Y-80012969D01*
X192559804Y-80012969D02*
X192597900Y-79936779D01*
X193359804Y-81941641D02*
X193359804Y-82017831D01*
X193359804Y-82017831D02*
X193321709Y-82094022D01*
X193321709Y-82094022D02*
X193283614Y-82132117D01*
X193283614Y-82132117D02*
X193207423Y-82170212D01*
X193207423Y-82170212D02*
X193055042Y-82208307D01*
X193055042Y-82208307D02*
X192864566Y-82208307D01*
X192864566Y-82208307D02*
X192712185Y-82170212D01*
X192712185Y-82170212D02*
X192635995Y-82132117D01*
X192635995Y-82132117D02*
X192597900Y-82094022D01*
X192597900Y-82094022D02*
X192559804Y-82017831D01*
X192559804Y-82017831D02*
X192559804Y-81941641D01*
X192559804Y-81941641D02*
X192597900Y-81865450D01*
X192597900Y-81865450D02*
X192635995Y-81827355D01*
X192635995Y-81827355D02*
X192712185Y-81789260D01*
X192712185Y-81789260D02*
X192864566Y-81751164D01*
X192864566Y-81751164D02*
X193055042Y-81751164D01*
X193055042Y-81751164D02*
X193207423Y-81789260D01*
X193207423Y-81789260D02*
X193283614Y-81827355D01*
X193283614Y-81827355D02*
X193321709Y-81865450D01*
X193321709Y-81865450D02*
X193359804Y-81941641D01*
X193609804Y-87941641D02*
X193609804Y-88094022D01*
X193609804Y-88094022D02*
X193571709Y-88170212D01*
X193571709Y-88170212D02*
X193495519Y-88246403D01*
X193495519Y-88246403D02*
X193343138Y-88284498D01*
X193343138Y-88284498D02*
X193076471Y-88284498D01*
X193076471Y-88284498D02*
X192924090Y-88246403D01*
X192924090Y-88246403D02*
X192847900Y-88170212D01*
X192847900Y-88170212D02*
X192809804Y-88094022D01*
X192809804Y-88094022D02*
X192809804Y-87941641D01*
X192809804Y-87941641D02*
X192847900Y-87865450D01*
X192847900Y-87865450D02*
X192924090Y-87789260D01*
X192924090Y-87789260D02*
X193076471Y-87751164D01*
X193076471Y-87751164D02*
X193343138Y-87751164D01*
X193343138Y-87751164D02*
X193495519Y-87789260D01*
X193495519Y-87789260D02*
X193571709Y-87865450D01*
X193571709Y-87865450D02*
X193609804Y-87941641D01*
X192809804Y-89084498D02*
X193190757Y-88817831D01*
X192809804Y-88627355D02*
X193609804Y-88627355D01*
X193609804Y-88627355D02*
X193609804Y-88932117D01*
X193609804Y-88932117D02*
X193571709Y-89008307D01*
X193571709Y-89008307D02*
X193533614Y-89046402D01*
X193533614Y-89046402D02*
X193457423Y-89084498D01*
X193457423Y-89084498D02*
X193343138Y-89084498D01*
X193343138Y-89084498D02*
X193266947Y-89046402D01*
X193266947Y-89046402D02*
X193228852Y-89008307D01*
X193228852Y-89008307D02*
X193190757Y-88932117D01*
X193190757Y-88932117D02*
X193190757Y-88627355D01*
X193571709Y-90455926D02*
X193609804Y-90379736D01*
X193609804Y-90379736D02*
X193609804Y-90265450D01*
X193609804Y-90265450D02*
X193571709Y-90151164D01*
X193571709Y-90151164D02*
X193495519Y-90074974D01*
X193495519Y-90074974D02*
X193419328Y-90036879D01*
X193419328Y-90036879D02*
X193266947Y-89998783D01*
X193266947Y-89998783D02*
X193152661Y-89998783D01*
X193152661Y-89998783D02*
X193000280Y-90036879D01*
X193000280Y-90036879D02*
X192924090Y-90074974D01*
X192924090Y-90074974D02*
X192847900Y-90151164D01*
X192847900Y-90151164D02*
X192809804Y-90265450D01*
X192809804Y-90265450D02*
X192809804Y-90341641D01*
X192809804Y-90341641D02*
X192847900Y-90455926D01*
X192847900Y-90455926D02*
X192885995Y-90494022D01*
X192885995Y-90494022D02*
X193152661Y-90494022D01*
X193152661Y-90494022D02*
X193152661Y-90341641D01*
X193228852Y-90836879D02*
X193228852Y-91103545D01*
X192809804Y-91217831D02*
X192809804Y-90836879D01*
X192809804Y-90836879D02*
X193609804Y-90836879D01*
X193609804Y-90836879D02*
X193609804Y-91217831D01*
X193609804Y-91446403D02*
X193609804Y-91903546D01*
X192809804Y-91674974D02*
X193609804Y-91674974D01*
X193609804Y-92932118D02*
X193609804Y-93084499D01*
X193609804Y-93084499D02*
X193571709Y-93160689D01*
X193571709Y-93160689D02*
X193495519Y-93236880D01*
X193495519Y-93236880D02*
X193343138Y-93274975D01*
X193343138Y-93274975D02*
X193076471Y-93274975D01*
X193076471Y-93274975D02*
X192924090Y-93236880D01*
X192924090Y-93236880D02*
X192847900Y-93160689D01*
X192847900Y-93160689D02*
X192809804Y-93084499D01*
X192809804Y-93084499D02*
X192809804Y-92932118D01*
X192809804Y-92932118D02*
X192847900Y-92855927D01*
X192847900Y-92855927D02*
X192924090Y-92779737D01*
X192924090Y-92779737D02*
X193076471Y-92741641D01*
X193076471Y-92741641D02*
X193343138Y-92741641D01*
X193343138Y-92741641D02*
X193495519Y-92779737D01*
X193495519Y-92779737D02*
X193571709Y-92855927D01*
X193571709Y-92855927D02*
X193609804Y-92932118D01*
X193609804Y-93617832D02*
X192962185Y-93617832D01*
X192962185Y-93617832D02*
X192885995Y-93655927D01*
X192885995Y-93655927D02*
X192847900Y-93694022D01*
X192847900Y-93694022D02*
X192809804Y-93770213D01*
X192809804Y-93770213D02*
X192809804Y-93922594D01*
X192809804Y-93922594D02*
X192847900Y-93998784D01*
X192847900Y-93998784D02*
X192885995Y-94036879D01*
X192885995Y-94036879D02*
X192962185Y-94074975D01*
X192962185Y-94074975D02*
X193609804Y-94074975D01*
X193609804Y-94341641D02*
X193609804Y-94798784D01*
X192809804Y-94570212D02*
X193609804Y-94570212D01*
X193038376Y-95636879D02*
X193038376Y-96017832D01*
X192809804Y-95560689D02*
X193609804Y-95827356D01*
X193609804Y-95827356D02*
X192809804Y-96094022D01*
X192809804Y-96360689D02*
X193609804Y-96360689D01*
X193609804Y-96360689D02*
X192809804Y-96817832D01*
X192809804Y-96817832D02*
X193609804Y-96817832D01*
X192809804Y-97198784D02*
X193609804Y-97198784D01*
X193609804Y-97198784D02*
X193609804Y-97389260D01*
X193609804Y-97389260D02*
X193571709Y-97503546D01*
X193571709Y-97503546D02*
X193495519Y-97579736D01*
X193495519Y-97579736D02*
X193419328Y-97617831D01*
X193419328Y-97617831D02*
X193266947Y-97655927D01*
X193266947Y-97655927D02*
X193152661Y-97655927D01*
X193152661Y-97655927D02*
X193000280Y-97617831D01*
X193000280Y-97617831D02*
X192924090Y-97579736D01*
X192924090Y-97579736D02*
X192847900Y-97503546D01*
X192847900Y-97503546D02*
X192809804Y-97389260D01*
X192809804Y-97389260D02*
X192809804Y-97198784D01*
X192809804Y-98608308D02*
X193609804Y-98608308D01*
X193609804Y-98608308D02*
X193609804Y-98913070D01*
X193609804Y-98913070D02*
X193571709Y-98989260D01*
X193571709Y-98989260D02*
X193533614Y-99027355D01*
X193533614Y-99027355D02*
X193457423Y-99065451D01*
X193457423Y-99065451D02*
X193343138Y-99065451D01*
X193343138Y-99065451D02*
X193266947Y-99027355D01*
X193266947Y-99027355D02*
X193228852Y-98989260D01*
X193228852Y-98989260D02*
X193190757Y-98913070D01*
X193190757Y-98913070D02*
X193190757Y-98608308D01*
X193609804Y-99408308D02*
X192962185Y-99408308D01*
X192962185Y-99408308D02*
X192885995Y-99446403D01*
X192885995Y-99446403D02*
X192847900Y-99484498D01*
X192847900Y-99484498D02*
X192809804Y-99560689D01*
X192809804Y-99560689D02*
X192809804Y-99713070D01*
X192809804Y-99713070D02*
X192847900Y-99789260D01*
X192847900Y-99789260D02*
X192885995Y-99827355D01*
X192885995Y-99827355D02*
X192962185Y-99865451D01*
X192962185Y-99865451D02*
X193609804Y-99865451D01*
X192847900Y-100208307D02*
X192809804Y-100322593D01*
X192809804Y-100322593D02*
X192809804Y-100513069D01*
X192809804Y-100513069D02*
X192847900Y-100589260D01*
X192847900Y-100589260D02*
X192885995Y-100627355D01*
X192885995Y-100627355D02*
X192962185Y-100665450D01*
X192962185Y-100665450D02*
X193038376Y-100665450D01*
X193038376Y-100665450D02*
X193114566Y-100627355D01*
X193114566Y-100627355D02*
X193152661Y-100589260D01*
X193152661Y-100589260D02*
X193190757Y-100513069D01*
X193190757Y-100513069D02*
X193228852Y-100360688D01*
X193228852Y-100360688D02*
X193266947Y-100284498D01*
X193266947Y-100284498D02*
X193305042Y-100246403D01*
X193305042Y-100246403D02*
X193381233Y-100208307D01*
X193381233Y-100208307D02*
X193457423Y-100208307D01*
X193457423Y-100208307D02*
X193533614Y-100246403D01*
X193533614Y-100246403D02*
X193571709Y-100284498D01*
X193571709Y-100284498D02*
X193609804Y-100360688D01*
X193609804Y-100360688D02*
X193609804Y-100551165D01*
X193609804Y-100551165D02*
X193571709Y-100665450D01*
X192809804Y-101008308D02*
X193609804Y-101008308D01*
X193228852Y-101008308D02*
X193228852Y-101465451D01*
X192809804Y-101465451D02*
X193609804Y-101465451D01*
X194359804Y-86441441D02*
X194359804Y-86517631D01*
X194359804Y-86517631D02*
X194321709Y-86593822D01*
X194321709Y-86593822D02*
X194283614Y-86631917D01*
X194283614Y-86631917D02*
X194207423Y-86670012D01*
X194207423Y-86670012D02*
X194055042Y-86708107D01*
X194055042Y-86708107D02*
X193864566Y-86708107D01*
X193864566Y-86708107D02*
X193712185Y-86670012D01*
X193712185Y-86670012D02*
X193635995Y-86631917D01*
X193635995Y-86631917D02*
X193597900Y-86593822D01*
X193597900Y-86593822D02*
X193559804Y-86517631D01*
X193559804Y-86517631D02*
X193559804Y-86441441D01*
X193559804Y-86441441D02*
X193597900Y-86365250D01*
X193597900Y-86365250D02*
X193635995Y-86327155D01*
X193635995Y-86327155D02*
X193712185Y-86289060D01*
X193712185Y-86289060D02*
X193864566Y-86250964D01*
X193864566Y-86250964D02*
X194055042Y-86250964D01*
X194055042Y-86250964D02*
X194207423Y-86289060D01*
X194207423Y-86289060D02*
X194283614Y-86327155D01*
X194283614Y-86327155D02*
X194321709Y-86365250D01*
X194321709Y-86365250D02*
X194359804Y-86441441D01*
X119335350Y-79445533D02*
X119032017Y-79012200D01*
X118815350Y-79445533D02*
X118815350Y-78535533D01*
X118815350Y-78535533D02*
X119162017Y-78535533D01*
X119162017Y-78535533D02*
X119248684Y-78578866D01*
X119248684Y-78578866D02*
X119292017Y-78622200D01*
X119292017Y-78622200D02*
X119335350Y-78708866D01*
X119335350Y-78708866D02*
X119335350Y-78838866D01*
X119335350Y-78838866D02*
X119292017Y-78925533D01*
X119292017Y-78925533D02*
X119248684Y-78968866D01*
X119248684Y-78968866D02*
X119162017Y-79012200D01*
X119162017Y-79012200D02*
X118815350Y-79012200D01*
X119725350Y-78968866D02*
X120028684Y-78968866D01*
X120158684Y-79445533D02*
X119725350Y-79445533D01*
X119725350Y-79445533D02*
X119725350Y-78535533D01*
X119725350Y-78535533D02*
X120158684Y-78535533D01*
X120505350Y-79402200D02*
X120635350Y-79445533D01*
X120635350Y-79445533D02*
X120852017Y-79445533D01*
X120852017Y-79445533D02*
X120938683Y-79402200D01*
X120938683Y-79402200D02*
X120982017Y-79358866D01*
X120982017Y-79358866D02*
X121025350Y-79272200D01*
X121025350Y-79272200D02*
X121025350Y-79185533D01*
X121025350Y-79185533D02*
X120982017Y-79098866D01*
X120982017Y-79098866D02*
X120938683Y-79055533D01*
X120938683Y-79055533D02*
X120852017Y-79012200D01*
X120852017Y-79012200D02*
X120678683Y-78968866D01*
X120678683Y-78968866D02*
X120592017Y-78925533D01*
X120592017Y-78925533D02*
X120548683Y-78882200D01*
X120548683Y-78882200D02*
X120505350Y-78795533D01*
X120505350Y-78795533D02*
X120505350Y-78708866D01*
X120505350Y-78708866D02*
X120548683Y-78622200D01*
X120548683Y-78622200D02*
X120592017Y-78578866D01*
X120592017Y-78578866D02*
X120678683Y-78535533D01*
X120678683Y-78535533D02*
X120895350Y-78535533D01*
X120895350Y-78535533D02*
X121025350Y-78578866D01*
X121415350Y-78968866D02*
X121718684Y-78968866D01*
X121848684Y-79445533D02*
X121415350Y-79445533D01*
X121415350Y-79445533D02*
X121415350Y-78535533D01*
X121415350Y-78535533D02*
X121848684Y-78535533D01*
X122108683Y-78535533D02*
X122628683Y-78535533D01*
X122368683Y-79445533D02*
X122368683Y-78535533D01*
X123495349Y-78535533D02*
X124015349Y-78535533D01*
X123755349Y-79445533D02*
X123755349Y-78535533D01*
X124838682Y-79445533D02*
X124535349Y-79012200D01*
X124318682Y-79445533D02*
X124318682Y-78535533D01*
X124318682Y-78535533D02*
X124665349Y-78535533D01*
X124665349Y-78535533D02*
X124752016Y-78578866D01*
X124752016Y-78578866D02*
X124795349Y-78622200D01*
X124795349Y-78622200D02*
X124838682Y-78708866D01*
X124838682Y-78708866D02*
X124838682Y-78838866D01*
X124838682Y-78838866D02*
X124795349Y-78925533D01*
X124795349Y-78925533D02*
X124752016Y-78968866D01*
X124752016Y-78968866D02*
X124665349Y-79012200D01*
X124665349Y-79012200D02*
X124318682Y-79012200D01*
X125228682Y-79445533D02*
X125228682Y-78535533D01*
X125662015Y-79445533D02*
X125662015Y-78535533D01*
X125662015Y-78535533D02*
X125965349Y-79185533D01*
X125965349Y-79185533D02*
X126268682Y-78535533D01*
X126268682Y-78535533D02*
X126268682Y-79445533D01*
X121522017Y-121771033D02*
X121955350Y-121771033D01*
X121435350Y-122031033D02*
X121738684Y-121121033D01*
X121738684Y-121121033D02*
X122042017Y-122031033D01*
X122215350Y-121121033D02*
X122735350Y-121121033D01*
X122475350Y-122031033D02*
X122475350Y-121121033D01*
X122908683Y-121121033D02*
X123428683Y-121121033D01*
X123168683Y-122031033D02*
X123168683Y-121121033D01*
X123732016Y-122031033D02*
X123732016Y-121121033D01*
X124165349Y-122031033D02*
X124165349Y-121121033D01*
X124165349Y-121121033D02*
X124685349Y-122031033D01*
X124685349Y-122031033D02*
X124685349Y-121121033D01*
X125292016Y-121597700D02*
X125292016Y-122031033D01*
X124988682Y-121121033D02*
X125292016Y-121597700D01*
X125292016Y-121597700D02*
X125595349Y-121121033D01*
X125855349Y-121207700D02*
X125898682Y-121164366D01*
X125898682Y-121164366D02*
X125985349Y-121121033D01*
X125985349Y-121121033D02*
X126202016Y-121121033D01*
X126202016Y-121121033D02*
X126288682Y-121164366D01*
X126288682Y-121164366D02*
X126332016Y-121207700D01*
X126332016Y-121207700D02*
X126375349Y-121294366D01*
X126375349Y-121294366D02*
X126375349Y-121381033D01*
X126375349Y-121381033D02*
X126332016Y-121511033D01*
X126332016Y-121511033D02*
X125812016Y-122031033D01*
X125812016Y-122031033D02*
X126375349Y-122031033D01*
X127155349Y-121424366D02*
X127155349Y-122031033D01*
X126938683Y-121077700D02*
X126722016Y-121727700D01*
X126722016Y-121727700D02*
X127285349Y-121727700D01*
X123435350Y-96785533D02*
X123955350Y-96785533D01*
X123695350Y-97695533D02*
X123695350Y-96785533D01*
X124778683Y-97695533D02*
X124475350Y-97262200D01*
X124258683Y-97695533D02*
X124258683Y-96785533D01*
X124258683Y-96785533D02*
X124605350Y-96785533D01*
X124605350Y-96785533D02*
X124692017Y-96828866D01*
X124692017Y-96828866D02*
X124735350Y-96872200D01*
X124735350Y-96872200D02*
X124778683Y-96958866D01*
X124778683Y-96958866D02*
X124778683Y-97088866D01*
X124778683Y-97088866D02*
X124735350Y-97175533D01*
X124735350Y-97175533D02*
X124692017Y-97218866D01*
X124692017Y-97218866D02*
X124605350Y-97262200D01*
X124605350Y-97262200D02*
X124258683Y-97262200D01*
X125168683Y-97695533D02*
X125168683Y-96785533D01*
X125602016Y-97695533D02*
X125602016Y-96785533D01*
X125602016Y-96785533D02*
X125905350Y-97435533D01*
X125905350Y-97435533D02*
X126208683Y-96785533D01*
X126208683Y-96785533D02*
X126208683Y-97695533D01*
X123815450Y-119370933D02*
X123815450Y-120107600D01*
X123815450Y-120107600D02*
X123858784Y-120194266D01*
X123858784Y-120194266D02*
X123902117Y-120237600D01*
X123902117Y-120237600D02*
X123988784Y-120280933D01*
X123988784Y-120280933D02*
X124162117Y-120280933D01*
X124162117Y-120280933D02*
X124248784Y-120237600D01*
X124248784Y-120237600D02*
X124292117Y-120194266D01*
X124292117Y-120194266D02*
X124335450Y-120107600D01*
X124335450Y-120107600D02*
X124335450Y-119370933D01*
X125245450Y-120280933D02*
X124725450Y-120280933D01*
X124985450Y-120280933D02*
X124985450Y-119370933D01*
X124985450Y-119370933D02*
X124898783Y-119500933D01*
X124898783Y-119500933D02*
X124812117Y-119587600D01*
X124812117Y-119587600D02*
X124725450Y-119630933D01*
X151988684Y-123347700D02*
X151988684Y-123781033D01*
X151685350Y-122871033D02*
X151988684Y-123347700D01*
X151988684Y-123347700D02*
X152292017Y-122871033D01*
X154935350Y-121370933D02*
X155455350Y-121370933D01*
X155195350Y-122280933D02*
X155195350Y-121370933D01*
X156278683Y-122280933D02*
X155975350Y-121847600D01*
X155758683Y-122280933D02*
X155758683Y-121370933D01*
X155758683Y-121370933D02*
X156105350Y-121370933D01*
X156105350Y-121370933D02*
X156192017Y-121414266D01*
X156192017Y-121414266D02*
X156235350Y-121457600D01*
X156235350Y-121457600D02*
X156278683Y-121544266D01*
X156278683Y-121544266D02*
X156278683Y-121674266D01*
X156278683Y-121674266D02*
X156235350Y-121760933D01*
X156235350Y-121760933D02*
X156192017Y-121804266D01*
X156192017Y-121804266D02*
X156105350Y-121847600D01*
X156105350Y-121847600D02*
X155758683Y-121847600D01*
X156668683Y-122280933D02*
X156668683Y-121370933D01*
X157102016Y-122280933D02*
X157102016Y-121370933D01*
X157102016Y-121370933D02*
X157405350Y-122020933D01*
X157405350Y-122020933D02*
X157708683Y-121370933D01*
X157708683Y-121370933D02*
X157708683Y-122280933D01*
X156522017Y-66185533D02*
X156955350Y-66185533D01*
X156435350Y-66445533D02*
X156738684Y-65535533D01*
X156738684Y-65535533D02*
X157042017Y-66445533D01*
X157258684Y-65535533D02*
X157865350Y-66445533D01*
X157865350Y-65535533D02*
X157258684Y-66445533D01*
X158212017Y-66445533D02*
X158212017Y-65535533D01*
X158602017Y-66402200D02*
X158732017Y-66445533D01*
X158732017Y-66445533D02*
X158948684Y-66445533D01*
X158948684Y-66445533D02*
X159035350Y-66402200D01*
X159035350Y-66402200D02*
X159078684Y-66358866D01*
X159078684Y-66358866D02*
X159122017Y-66272200D01*
X159122017Y-66272200D02*
X159122017Y-66185533D01*
X159122017Y-66185533D02*
X159078684Y-66098866D01*
X159078684Y-66098866D02*
X159035350Y-66055533D01*
X159035350Y-66055533D02*
X158948684Y-66012200D01*
X158948684Y-66012200D02*
X158775350Y-65968866D01*
X158775350Y-65968866D02*
X158688684Y-65925533D01*
X158688684Y-65925533D02*
X158645350Y-65882200D01*
X158645350Y-65882200D02*
X158602017Y-65795533D01*
X158602017Y-65795533D02*
X158602017Y-65708866D01*
X158602017Y-65708866D02*
X158645350Y-65622200D01*
X158645350Y-65622200D02*
X158688684Y-65578866D01*
X158688684Y-65578866D02*
X158775350Y-65535533D01*
X158775350Y-65535533D02*
X158992017Y-65535533D01*
X158992017Y-65535533D02*
X159122017Y-65578866D01*
X160682017Y-66445533D02*
X160162017Y-66445533D01*
X160422017Y-66445533D02*
X160422017Y-65535533D01*
X160422017Y-65535533D02*
X160335350Y-65665533D01*
X160335350Y-65665533D02*
X160248684Y-65752200D01*
X160248684Y-65752200D02*
X160162017Y-65795533D01*
X159728684Y-132121033D02*
X160335350Y-132121033D01*
X160335350Y-132121033D02*
X159945350Y-133031033D01*
X161072017Y-132424366D02*
X161072017Y-133031033D01*
X160855351Y-132077700D02*
X160638684Y-132727700D01*
X160638684Y-132727700D02*
X161202017Y-132727700D01*
X161548684Y-133031033D02*
X161548684Y-132121033D01*
X161548684Y-132554366D02*
X162068684Y-132554366D01*
X162068684Y-133031033D02*
X162068684Y-132121033D01*
X163022017Y-132944366D02*
X162978684Y-132987700D01*
X162978684Y-132987700D02*
X162848684Y-133031033D01*
X162848684Y-133031033D02*
X162762017Y-133031033D01*
X162762017Y-133031033D02*
X162632017Y-132987700D01*
X162632017Y-132987700D02*
X162545351Y-132901033D01*
X162545351Y-132901033D02*
X162502017Y-132814366D01*
X162502017Y-132814366D02*
X162458684Y-132641033D01*
X162458684Y-132641033D02*
X162458684Y-132511033D01*
X162458684Y-132511033D02*
X162502017Y-132337700D01*
X162502017Y-132337700D02*
X162545351Y-132251033D01*
X162545351Y-132251033D02*
X162632017Y-132164366D01*
X162632017Y-132164366D02*
X162762017Y-132121033D01*
X162762017Y-132121033D02*
X162848684Y-132121033D01*
X162848684Y-132121033D02*
X162978684Y-132164366D01*
X162978684Y-132164366D02*
X163022017Y-132207700D01*
X163888684Y-133031033D02*
X163368684Y-133031033D01*
X163628684Y-133031033D02*
X163628684Y-132121033D01*
X163628684Y-132121033D02*
X163542017Y-132251033D01*
X163542017Y-132251033D02*
X163455351Y-132337700D01*
X163455351Y-132337700D02*
X163368684Y-132381033D01*
X164668684Y-132121033D02*
X164495351Y-132121033D01*
X164495351Y-132121033D02*
X164408684Y-132164366D01*
X164408684Y-132164366D02*
X164365351Y-132207700D01*
X164365351Y-132207700D02*
X164278684Y-132337700D01*
X164278684Y-132337700D02*
X164235351Y-132511033D01*
X164235351Y-132511033D02*
X164235351Y-132857700D01*
X164235351Y-132857700D02*
X164278684Y-132944366D01*
X164278684Y-132944366D02*
X164322018Y-132987700D01*
X164322018Y-132987700D02*
X164408684Y-133031033D01*
X164408684Y-133031033D02*
X164582018Y-133031033D01*
X164582018Y-133031033D02*
X164668684Y-132987700D01*
X164668684Y-132987700D02*
X164712018Y-132944366D01*
X164712018Y-132944366D02*
X164755351Y-132857700D01*
X164755351Y-132857700D02*
X164755351Y-132641033D01*
X164755351Y-132641033D02*
X164712018Y-132554366D01*
X164712018Y-132554366D02*
X164668684Y-132511033D01*
X164668684Y-132511033D02*
X164582018Y-132467700D01*
X164582018Y-132467700D02*
X164408684Y-132467700D01*
X164408684Y-132467700D02*
X164322018Y-132511033D01*
X164322018Y-132511033D02*
X164278684Y-132554366D01*
X164278684Y-132554366D02*
X164235351Y-132641033D01*
X165578685Y-132121033D02*
X165145351Y-132121033D01*
X165145351Y-132121033D02*
X165102018Y-132554366D01*
X165102018Y-132554366D02*
X165145351Y-132511033D01*
X165145351Y-132511033D02*
X165232018Y-132467700D01*
X165232018Y-132467700D02*
X165448685Y-132467700D01*
X165448685Y-132467700D02*
X165535351Y-132511033D01*
X165535351Y-132511033D02*
X165578685Y-132554366D01*
X165578685Y-132554366D02*
X165622018Y-132641033D01*
X165622018Y-132641033D02*
X165622018Y-132857700D01*
X165622018Y-132857700D02*
X165578685Y-132944366D01*
X165578685Y-132944366D02*
X165535351Y-132987700D01*
X165535351Y-132987700D02*
X165448685Y-133031033D01*
X165448685Y-133031033D02*
X165232018Y-133031033D01*
X165232018Y-133031033D02*
X165145351Y-132987700D01*
X165145351Y-132987700D02*
X165102018Y-132944366D01*
X160988684Y-119762200D02*
X160988684Y-120195533D01*
X160685350Y-119285533D02*
X160988684Y-119762200D01*
X160988684Y-119762200D02*
X161292017Y-119285533D01*
X174728684Y-123370933D02*
X174945350Y-124280933D01*
X174945350Y-124280933D02*
X175118684Y-123630933D01*
X175118684Y-123630933D02*
X175292017Y-124280933D01*
X175292017Y-124280933D02*
X175508684Y-123370933D01*
X177272017Y-120435533D02*
X177705350Y-120435533D01*
X177185350Y-120695533D02*
X177488684Y-119785533D01*
X177488684Y-119785533D02*
X177792017Y-120695533D01*
X178008684Y-119785533D02*
X178615350Y-120695533D01*
X178615350Y-119785533D02*
X178008684Y-120695533D01*
X178962017Y-120695533D02*
X178962017Y-119785533D01*
X179352017Y-120652200D02*
X179482017Y-120695533D01*
X179482017Y-120695533D02*
X179698684Y-120695533D01*
X179698684Y-120695533D02*
X179785350Y-120652200D01*
X179785350Y-120652200D02*
X179828684Y-120608866D01*
X179828684Y-120608866D02*
X179872017Y-120522200D01*
X179872017Y-120522200D02*
X179872017Y-120435533D01*
X179872017Y-120435533D02*
X179828684Y-120348866D01*
X179828684Y-120348866D02*
X179785350Y-120305533D01*
X179785350Y-120305533D02*
X179698684Y-120262200D01*
X179698684Y-120262200D02*
X179525350Y-120218866D01*
X179525350Y-120218866D02*
X179438684Y-120175533D01*
X179438684Y-120175533D02*
X179395350Y-120132200D01*
X179395350Y-120132200D02*
X179352017Y-120045533D01*
X179352017Y-120045533D02*
X179352017Y-119958866D01*
X179352017Y-119958866D02*
X179395350Y-119872200D01*
X179395350Y-119872200D02*
X179438684Y-119828866D01*
X179438684Y-119828866D02*
X179525350Y-119785533D01*
X179525350Y-119785533D02*
X179742017Y-119785533D01*
X179742017Y-119785533D02*
X179872017Y-119828866D01*
X180868684Y-119785533D02*
X181432017Y-119785533D01*
X181432017Y-119785533D02*
X181128684Y-120132200D01*
X181128684Y-120132200D02*
X181258684Y-120132200D01*
X181258684Y-120132200D02*
X181345350Y-120175533D01*
X181345350Y-120175533D02*
X181388684Y-120218866D01*
X181388684Y-120218866D02*
X181432017Y-120305533D01*
X181432017Y-120305533D02*
X181432017Y-120522200D01*
X181432017Y-120522200D02*
X181388684Y-120608866D01*
X181388684Y-120608866D02*
X181345350Y-120652200D01*
X181345350Y-120652200D02*
X181258684Y-120695533D01*
X181258684Y-120695533D02*
X180998684Y-120695533D01*
X180998684Y-120695533D02*
X180912017Y-120652200D01*
X180912017Y-120652200D02*
X180868684Y-120608866D01*
X179118684Y-123805066D02*
X179248684Y-123848400D01*
X179248684Y-123848400D02*
X179292017Y-123891733D01*
X179292017Y-123891733D02*
X179335350Y-123978400D01*
X179335350Y-123978400D02*
X179335350Y-124108400D01*
X179335350Y-124108400D02*
X179292017Y-124195066D01*
X179292017Y-124195066D02*
X179248684Y-124238400D01*
X179248684Y-124238400D02*
X179162017Y-124281733D01*
X179162017Y-124281733D02*
X178815350Y-124281733D01*
X178815350Y-124281733D02*
X178815350Y-123371733D01*
X178815350Y-123371733D02*
X179118684Y-123371733D01*
X179118684Y-123371733D02*
X179205350Y-123415066D01*
X179205350Y-123415066D02*
X179248684Y-123458400D01*
X179248684Y-123458400D02*
X179292017Y-123545066D01*
X179292017Y-123545066D02*
X179292017Y-123631733D01*
X179292017Y-123631733D02*
X179248684Y-123718400D01*
X179248684Y-123718400D02*
X179205350Y-123761733D01*
X179205350Y-123761733D02*
X179118684Y-123805066D01*
X179118684Y-123805066D02*
X178815350Y-123805066D01*
X183585250Y-124281233D02*
X183281917Y-123847900D01*
X183065250Y-124281233D02*
X183065250Y-123371233D01*
X183065250Y-123371233D02*
X183411917Y-123371233D01*
X183411917Y-123371233D02*
X183498584Y-123414566D01*
X183498584Y-123414566D02*
X183541917Y-123457900D01*
X183541917Y-123457900D02*
X183585250Y-123544566D01*
X183585250Y-123544566D02*
X183585250Y-123674566D01*
X183585250Y-123674566D02*
X183541917Y-123761233D01*
X183541917Y-123761233D02*
X183498584Y-123804566D01*
X183498584Y-123804566D02*
X183411917Y-123847900D01*
X183411917Y-123847900D02*
X183065250Y-123847900D01*
X127054466Y-148998684D02*
X127054466Y-148565350D01*
X127054466Y-148565350D02*
X127964466Y-148565350D01*
X127054466Y-149302017D02*
X127964466Y-149302017D01*
X127921133Y-150212017D02*
X127964466Y-150125350D01*
X127964466Y-150125350D02*
X127964466Y-149995350D01*
X127964466Y-149995350D02*
X127921133Y-149865350D01*
X127921133Y-149865350D02*
X127834466Y-149778684D01*
X127834466Y-149778684D02*
X127747800Y-149735350D01*
X127747800Y-149735350D02*
X127574466Y-149692017D01*
X127574466Y-149692017D02*
X127444466Y-149692017D01*
X127444466Y-149692017D02*
X127271133Y-149735350D01*
X127271133Y-149735350D02*
X127184466Y-149778684D01*
X127184466Y-149778684D02*
X127097800Y-149865350D01*
X127097800Y-149865350D02*
X127054466Y-149995350D01*
X127054466Y-149995350D02*
X127054466Y-150082017D01*
X127054466Y-150082017D02*
X127097800Y-150212017D01*
X127097800Y-150212017D02*
X127141133Y-150255350D01*
X127141133Y-150255350D02*
X127444466Y-150255350D01*
X127444466Y-150255350D02*
X127444466Y-150082017D01*
X127054466Y-150645350D02*
X127964466Y-150645350D01*
X127531133Y-150645350D02*
X127531133Y-151165350D01*
X127054466Y-151165350D02*
X127964466Y-151165350D01*
X127964466Y-151468683D02*
X127964466Y-151988683D01*
X127054466Y-151728683D02*
X127964466Y-151728683D01*
X134064466Y-103022017D02*
X134064466Y-103455350D01*
X133804466Y-102935350D02*
X134714466Y-103238684D01*
X134714466Y-103238684D02*
X133804466Y-103542017D01*
X134714466Y-103758684D02*
X133804466Y-104365350D01*
X134714466Y-104365350D02*
X133804466Y-103758684D01*
X133804466Y-104712017D02*
X134714466Y-104712017D01*
X133847800Y-105102017D02*
X133804466Y-105232017D01*
X133804466Y-105232017D02*
X133804466Y-105448684D01*
X133804466Y-105448684D02*
X133847800Y-105535350D01*
X133847800Y-105535350D02*
X133891133Y-105578684D01*
X133891133Y-105578684D02*
X133977800Y-105622017D01*
X133977800Y-105622017D02*
X134064466Y-105622017D01*
X134064466Y-105622017D02*
X134151133Y-105578684D01*
X134151133Y-105578684D02*
X134194466Y-105535350D01*
X134194466Y-105535350D02*
X134237800Y-105448684D01*
X134237800Y-105448684D02*
X134281133Y-105275350D01*
X134281133Y-105275350D02*
X134324466Y-105188684D01*
X134324466Y-105188684D02*
X134367800Y-105145350D01*
X134367800Y-105145350D02*
X134454466Y-105102017D01*
X134454466Y-105102017D02*
X134541133Y-105102017D01*
X134541133Y-105102017D02*
X134627800Y-105145350D01*
X134627800Y-105145350D02*
X134671133Y-105188684D01*
X134671133Y-105188684D02*
X134714466Y-105275350D01*
X134714466Y-105275350D02*
X134714466Y-105492017D01*
X134714466Y-105492017D02*
X134671133Y-105622017D01*
X134627800Y-106662017D02*
X134671133Y-106705350D01*
X134671133Y-106705350D02*
X134714466Y-106792017D01*
X134714466Y-106792017D02*
X134714466Y-107008684D01*
X134714466Y-107008684D02*
X134671133Y-107095350D01*
X134671133Y-107095350D02*
X134627800Y-107138684D01*
X134627800Y-107138684D02*
X134541133Y-107182017D01*
X134541133Y-107182017D02*
X134454466Y-107182017D01*
X134454466Y-107182017D02*
X134324466Y-107138684D01*
X134324466Y-107138684D02*
X133804466Y-106618684D01*
X133804466Y-106618684D02*
X133804466Y-107182017D01*
X155921133Y-149292017D02*
X155964466Y-149205350D01*
X155964466Y-149205350D02*
X155964466Y-149075350D01*
X155964466Y-149075350D02*
X155921133Y-148945350D01*
X155921133Y-148945350D02*
X155834466Y-148858684D01*
X155834466Y-148858684D02*
X155747800Y-148815350D01*
X155747800Y-148815350D02*
X155574466Y-148772017D01*
X155574466Y-148772017D02*
X155444466Y-148772017D01*
X155444466Y-148772017D02*
X155271133Y-148815350D01*
X155271133Y-148815350D02*
X155184466Y-148858684D01*
X155184466Y-148858684D02*
X155097800Y-148945350D01*
X155097800Y-148945350D02*
X155054466Y-149075350D01*
X155054466Y-149075350D02*
X155054466Y-149162017D01*
X155054466Y-149162017D02*
X155097800Y-149292017D01*
X155097800Y-149292017D02*
X155141133Y-149335350D01*
X155141133Y-149335350D02*
X155444466Y-149335350D01*
X155444466Y-149335350D02*
X155444466Y-149162017D01*
X155531133Y-149725350D02*
X155531133Y-150028684D01*
X155054466Y-150158684D02*
X155054466Y-149725350D01*
X155054466Y-149725350D02*
X155964466Y-149725350D01*
X155964466Y-149725350D02*
X155964466Y-150158684D01*
X155314466Y-150505350D02*
X155314466Y-150938683D01*
X155054466Y-150418683D02*
X155964466Y-150722017D01*
X155964466Y-150722017D02*
X155054466Y-151025350D01*
X155054466Y-151848683D02*
X155487800Y-151545350D01*
X155054466Y-151328683D02*
X155964466Y-151328683D01*
X155964466Y-151328683D02*
X155964466Y-151675350D01*
X155964466Y-151675350D02*
X155921133Y-151762017D01*
X155921133Y-151762017D02*
X155877800Y-151805350D01*
X155877800Y-151805350D02*
X155791133Y-151848683D01*
X155791133Y-151848683D02*
X155661133Y-151848683D01*
X155661133Y-151848683D02*
X155574466Y-151805350D01*
X155574466Y-151805350D02*
X155531133Y-151762017D01*
X155531133Y-151762017D02*
X155487800Y-151675350D01*
X155487800Y-151675350D02*
X155487800Y-151328683D01*
X183804466Y-148565350D02*
X184714466Y-148565350D01*
X184714466Y-148565350D02*
X184064466Y-148868684D01*
X184064466Y-148868684D02*
X184714466Y-149172017D01*
X184714466Y-149172017D02*
X183804466Y-149172017D01*
X184714466Y-149778684D02*
X184714466Y-149952017D01*
X184714466Y-149952017D02*
X184671133Y-150038684D01*
X184671133Y-150038684D02*
X184584466Y-150125350D01*
X184584466Y-150125350D02*
X184411133Y-150168684D01*
X184411133Y-150168684D02*
X184107800Y-150168684D01*
X184107800Y-150168684D02*
X183934466Y-150125350D01*
X183934466Y-150125350D02*
X183847800Y-150038684D01*
X183847800Y-150038684D02*
X183804466Y-149952017D01*
X183804466Y-149952017D02*
X183804466Y-149778684D01*
X183804466Y-149778684D02*
X183847800Y-149692017D01*
X183847800Y-149692017D02*
X183934466Y-149605350D01*
X183934466Y-149605350D02*
X184107800Y-149562017D01*
X184107800Y-149562017D02*
X184411133Y-149562017D01*
X184411133Y-149562017D02*
X184584466Y-149605350D01*
X184584466Y-149605350D02*
X184671133Y-149692017D01*
X184671133Y-149692017D02*
X184714466Y-149778684D01*
X183804466Y-150558683D02*
X184714466Y-150558683D01*
X184714466Y-150558683D02*
X184714466Y-150775350D01*
X184714466Y-150775350D02*
X184671133Y-150905350D01*
X184671133Y-150905350D02*
X184584466Y-150992017D01*
X184584466Y-150992017D02*
X184497800Y-151035350D01*
X184497800Y-151035350D02*
X184324466Y-151078683D01*
X184324466Y-151078683D02*
X184194466Y-151078683D01*
X184194466Y-151078683D02*
X184021133Y-151035350D01*
X184021133Y-151035350D02*
X183934466Y-150992017D01*
X183934466Y-150992017D02*
X183847800Y-150905350D01*
X183847800Y-150905350D02*
X183804466Y-150775350D01*
X183804466Y-150775350D02*
X183804466Y-150558683D01*
X184281133Y-151468683D02*
X184281133Y-151772017D01*
X183804466Y-151902017D02*
X183804466Y-151468683D01*
X183804466Y-151468683D02*
X184714466Y-151468683D01*
X184714466Y-151468683D02*
X184714466Y-151902017D01*
X192218866Y-84815450D02*
X192825533Y-84815450D01*
X192738866Y-84815450D02*
X192782200Y-84858784D01*
X192782200Y-84858784D02*
X192825533Y-84945450D01*
X192825533Y-84945450D02*
X192825533Y-85075450D01*
X192825533Y-85075450D02*
X192782200Y-85162117D01*
X192782200Y-85162117D02*
X192695533Y-85205450D01*
X192695533Y-85205450D02*
X192218866Y-85205450D01*
X192695533Y-85205450D02*
X192782200Y-85248784D01*
X192782200Y-85248784D02*
X192825533Y-85335450D01*
X192825533Y-85335450D02*
X192825533Y-85465450D01*
X192825533Y-85465450D02*
X192782200Y-85552117D01*
X192782200Y-85552117D02*
X192695533Y-85595450D01*
X192695533Y-85595450D02*
X192218866Y-85595450D01*
X192718966Y-75705350D02*
X193628966Y-75705350D01*
X192762300Y-75705350D02*
X192718966Y-75618684D01*
X192718966Y-75618684D02*
X192718966Y-75445350D01*
X192718966Y-75445350D02*
X192762300Y-75358684D01*
X192762300Y-75358684D02*
X192805633Y-75315350D01*
X192805633Y-75315350D02*
X192892300Y-75272017D01*
X192892300Y-75272017D02*
X193152300Y-75272017D01*
X193152300Y-75272017D02*
X193238966Y-75315350D01*
X193238966Y-75315350D02*
X193282300Y-75358684D01*
X193282300Y-75358684D02*
X193325633Y-75445350D01*
X193325633Y-75445350D02*
X193325633Y-75618684D01*
X193325633Y-75618684D02*
X193282300Y-75705350D01*
X193628966Y-76008683D02*
X192718966Y-76312017D01*
X192718966Y-76312017D02*
X193628966Y-76615350D01*
X193195633Y-76918683D02*
X193195633Y-77612017D01*
X192935633Y-77612017D02*
X192935633Y-76918683D01*
X192968966Y-79065350D02*
X193878966Y-79065350D01*
X193575633Y-81205450D02*
X192838966Y-81205450D01*
X192838966Y-81205450D02*
X192752300Y-81162117D01*
X192752300Y-81162117D02*
X192708966Y-81118784D01*
X192708966Y-81118784D02*
X192665633Y-81032117D01*
X192665633Y-81032117D02*
X192665633Y-80902117D01*
X192665633Y-80902117D02*
X192708966Y-80815450D01*
X193012300Y-81205450D02*
X192968966Y-81118784D01*
X192968966Y-81118784D02*
X192968966Y-80945450D01*
X192968966Y-80945450D02*
X193012300Y-80858784D01*
X193012300Y-80858784D02*
X193055633Y-80815450D01*
X193055633Y-80815450D02*
X193142300Y-80772117D01*
X193142300Y-80772117D02*
X193402300Y-80772117D01*
X193402300Y-80772117D02*
X193488966Y-80815450D01*
X193488966Y-80815450D02*
X193532300Y-80858784D01*
X193532300Y-80858784D02*
X193575633Y-80945450D01*
X193575633Y-80945450D02*
X193575633Y-81118784D01*
X193575633Y-81118784D02*
X193532300Y-81205450D01*
X192968966Y-83195350D02*
X193012300Y-83108684D01*
X193012300Y-83108684D02*
X193098966Y-83065350D01*
X193098966Y-83065350D02*
X193878966Y-83065350D01*
X193575633Y-83542017D02*
X192968966Y-83542017D01*
X193488966Y-83542017D02*
X193532300Y-83585351D01*
X193532300Y-83585351D02*
X193575633Y-83672017D01*
X193575633Y-83672017D02*
X193575633Y-83802017D01*
X193575633Y-83802017D02*
X193532300Y-83888684D01*
X193532300Y-83888684D02*
X193445633Y-83932017D01*
X193445633Y-83932017D02*
X192968966Y-83932017D01*
X193968966Y-84815450D02*
X194575633Y-84815450D01*
X194488966Y-84815450D02*
X194532300Y-84858784D01*
X194532300Y-84858784D02*
X194575633Y-84945450D01*
X194575633Y-84945450D02*
X194575633Y-85075450D01*
X194575633Y-85075450D02*
X194532300Y-85162117D01*
X194532300Y-85162117D02*
X194445633Y-85205450D01*
X194445633Y-85205450D02*
X193968966Y-85205450D01*
X194445633Y-85205450D02*
X194532300Y-85248784D01*
X194532300Y-85248784D02*
X194575633Y-85335450D01*
X194575633Y-85335450D02*
X194575633Y-85465450D01*
X194575633Y-85465450D02*
X194532300Y-85552117D01*
X194532300Y-85552117D02*
X194445633Y-85595450D01*
X194445633Y-85595450D02*
X193968966Y-85595450D01*
D13*
X100951504Y-71619297D02*
X101532457Y-71212630D01*
X100951504Y-70922154D02*
X102171504Y-70922154D01*
X102171504Y-70922154D02*
X102171504Y-71386916D01*
X102171504Y-71386916D02*
X102113409Y-71503106D01*
X102113409Y-71503106D02*
X102055314Y-71561201D01*
X102055314Y-71561201D02*
X101939123Y-71619297D01*
X101939123Y-71619297D02*
X101764838Y-71619297D01*
X101764838Y-71619297D02*
X101648647Y-71561201D01*
X101648647Y-71561201D02*
X101590552Y-71503106D01*
X101590552Y-71503106D02*
X101532457Y-71386916D01*
X101532457Y-71386916D02*
X101532457Y-70922154D01*
X102171504Y-72374535D02*
X102171504Y-72606916D01*
X102171504Y-72606916D02*
X102113409Y-72723106D01*
X102113409Y-72723106D02*
X101997219Y-72839297D01*
X101997219Y-72839297D02*
X101764838Y-72897392D01*
X101764838Y-72897392D02*
X101358171Y-72897392D01*
X101358171Y-72897392D02*
X101125790Y-72839297D01*
X101125790Y-72839297D02*
X101009600Y-72723106D01*
X101009600Y-72723106D02*
X100951504Y-72606916D01*
X100951504Y-72606916D02*
X100951504Y-72374535D01*
X100951504Y-72374535D02*
X101009600Y-72258344D01*
X101009600Y-72258344D02*
X101125790Y-72142154D01*
X101125790Y-72142154D02*
X101358171Y-72084058D01*
X101358171Y-72084058D02*
X101764838Y-72084058D01*
X101764838Y-72084058D02*
X101997219Y-72142154D01*
X101997219Y-72142154D02*
X102113409Y-72258344D01*
X102113409Y-72258344D02*
X102171504Y-72374535D01*
X102171504Y-73245963D02*
X102171504Y-73943106D01*
X100951504Y-73594534D02*
X102171504Y-73594534D01*
X101300076Y-74291677D02*
X101300076Y-74872630D01*
X100951504Y-74175487D02*
X102171504Y-74582154D01*
X102171504Y-74582154D02*
X100951504Y-74988820D01*
X102171504Y-75221201D02*
X102171504Y-75918344D01*
X100951504Y-75569772D02*
X102171504Y-75569772D01*
X100951504Y-76325011D02*
X102171504Y-76325011D01*
X102171504Y-77138344D02*
X102171504Y-77370725D01*
X102171504Y-77370725D02*
X102113409Y-77486915D01*
X102113409Y-77486915D02*
X101997219Y-77603106D01*
X101997219Y-77603106D02*
X101764838Y-77661201D01*
X101764838Y-77661201D02*
X101358171Y-77661201D01*
X101358171Y-77661201D02*
X101125790Y-77603106D01*
X101125790Y-77603106D02*
X101009600Y-77486915D01*
X101009600Y-77486915D02*
X100951504Y-77370725D01*
X100951504Y-77370725D02*
X100951504Y-77138344D01*
X100951504Y-77138344D02*
X101009600Y-77022153D01*
X101009600Y-77022153D02*
X101125790Y-76905963D01*
X101125790Y-76905963D02*
X101358171Y-76847867D01*
X101358171Y-76847867D02*
X101764838Y-76847867D01*
X101764838Y-76847867D02*
X101997219Y-76905963D01*
X101997219Y-76905963D02*
X102113409Y-77022153D01*
X102113409Y-77022153D02*
X102171504Y-77138344D01*
X100951504Y-78184058D02*
X102171504Y-78184058D01*
X102171504Y-78184058D02*
X100951504Y-78881201D01*
X100951504Y-78881201D02*
X102171504Y-78881201D01*
X100951504Y-80391677D02*
X102171504Y-80391677D01*
X102171504Y-80391677D02*
X101300076Y-80798343D01*
X101300076Y-80798343D02*
X102171504Y-81205010D01*
X102171504Y-81205010D02*
X100951504Y-81205010D01*
X102171504Y-82018344D02*
X102171504Y-82250725D01*
X102171504Y-82250725D02*
X102113409Y-82366915D01*
X102113409Y-82366915D02*
X101997219Y-82483106D01*
X101997219Y-82483106D02*
X101764838Y-82541201D01*
X101764838Y-82541201D02*
X101358171Y-82541201D01*
X101358171Y-82541201D02*
X101125790Y-82483106D01*
X101125790Y-82483106D02*
X101009600Y-82366915D01*
X101009600Y-82366915D02*
X100951504Y-82250725D01*
X100951504Y-82250725D02*
X100951504Y-82018344D01*
X100951504Y-82018344D02*
X101009600Y-81902153D01*
X101009600Y-81902153D02*
X101125790Y-81785963D01*
X101125790Y-81785963D02*
X101358171Y-81727867D01*
X101358171Y-81727867D02*
X101764838Y-81727867D01*
X101764838Y-81727867D02*
X101997219Y-81785963D01*
X101997219Y-81785963D02*
X102113409Y-81902153D01*
X102113409Y-81902153D02*
X102171504Y-82018344D01*
X100951504Y-83064058D02*
X102171504Y-83064058D01*
X102171504Y-83064058D02*
X102171504Y-83354534D01*
X102171504Y-83354534D02*
X102113409Y-83528820D01*
X102113409Y-83528820D02*
X101997219Y-83645010D01*
X101997219Y-83645010D02*
X101881028Y-83703105D01*
X101881028Y-83703105D02*
X101648647Y-83761201D01*
X101648647Y-83761201D02*
X101474361Y-83761201D01*
X101474361Y-83761201D02*
X101241980Y-83703105D01*
X101241980Y-83703105D02*
X101125790Y-83645010D01*
X101125790Y-83645010D02*
X101009600Y-83528820D01*
X101009600Y-83528820D02*
X100951504Y-83354534D01*
X100951504Y-83354534D02*
X100951504Y-83064058D01*
X102171504Y-84284058D02*
X101183885Y-84284058D01*
X101183885Y-84284058D02*
X101067695Y-84342153D01*
X101067695Y-84342153D02*
X101009600Y-84400248D01*
X101009600Y-84400248D02*
X100951504Y-84516439D01*
X100951504Y-84516439D02*
X100951504Y-84748820D01*
X100951504Y-84748820D02*
X101009600Y-84865010D01*
X101009600Y-84865010D02*
X101067695Y-84923105D01*
X101067695Y-84923105D02*
X101183885Y-84981201D01*
X101183885Y-84981201D02*
X102171504Y-84981201D01*
X100951504Y-86143105D02*
X100951504Y-85562153D01*
X100951504Y-85562153D02*
X102171504Y-85562153D01*
X101590552Y-86549772D02*
X101590552Y-86956438D01*
X100951504Y-87130724D02*
X100951504Y-86549772D01*
X100951504Y-86549772D02*
X102171504Y-86549772D01*
X102171504Y-86549772D02*
X102171504Y-87130724D01*
X101764838Y-88466915D02*
X100951504Y-88757391D01*
X100951504Y-88757391D02*
X101764838Y-89047868D01*
X100951504Y-90151677D02*
X100951504Y-89454534D01*
X100951504Y-89803106D02*
X102171504Y-89803106D01*
X102171504Y-89803106D02*
X101997219Y-89686915D01*
X101997219Y-89686915D02*
X101881028Y-89570725D01*
X101881028Y-89570725D02*
X101822933Y-89454534D01*
X101067695Y-90674535D02*
X101009600Y-90732630D01*
X101009600Y-90732630D02*
X100951504Y-90674535D01*
X100951504Y-90674535D02*
X101009600Y-90616439D01*
X101009600Y-90616439D02*
X101067695Y-90674535D01*
X101067695Y-90674535D02*
X100951504Y-90674535D01*
X101648647Y-91429772D02*
X101706742Y-91313582D01*
X101706742Y-91313582D02*
X101764838Y-91255487D01*
X101764838Y-91255487D02*
X101881028Y-91197391D01*
X101881028Y-91197391D02*
X101939123Y-91197391D01*
X101939123Y-91197391D02*
X102055314Y-91255487D01*
X102055314Y-91255487D02*
X102113409Y-91313582D01*
X102113409Y-91313582D02*
X102171504Y-91429772D01*
X102171504Y-91429772D02*
X102171504Y-91662153D01*
X102171504Y-91662153D02*
X102113409Y-91778344D01*
X102113409Y-91778344D02*
X102055314Y-91836439D01*
X102055314Y-91836439D02*
X101939123Y-91894534D01*
X101939123Y-91894534D02*
X101881028Y-91894534D01*
X101881028Y-91894534D02*
X101764838Y-91836439D01*
X101764838Y-91836439D02*
X101706742Y-91778344D01*
X101706742Y-91778344D02*
X101648647Y-91662153D01*
X101648647Y-91662153D02*
X101648647Y-91429772D01*
X101648647Y-91429772D02*
X101590552Y-91313582D01*
X101590552Y-91313582D02*
X101532457Y-91255487D01*
X101532457Y-91255487D02*
X101416266Y-91197391D01*
X101416266Y-91197391D02*
X101183885Y-91197391D01*
X101183885Y-91197391D02*
X101067695Y-91255487D01*
X101067695Y-91255487D02*
X101009600Y-91313582D01*
X101009600Y-91313582D02*
X100951504Y-91429772D01*
X100951504Y-91429772D02*
X100951504Y-91662153D01*
X100951504Y-91662153D02*
X101009600Y-91778344D01*
X101009600Y-91778344D02*
X101067695Y-91836439D01*
X101067695Y-91836439D02*
X101183885Y-91894534D01*
X101183885Y-91894534D02*
X101416266Y-91894534D01*
X101416266Y-91894534D02*
X101532457Y-91836439D01*
X101532457Y-91836439D02*
X101590552Y-91778344D01*
X101590552Y-91778344D02*
X101648647Y-91662153D01*
X111019673Y-60817219D02*
X111019673Y-62136742D01*
X111019673Y-62136742D02*
X111097292Y-62291980D01*
X111097292Y-62291980D02*
X111174911Y-62369600D01*
X111174911Y-62369600D02*
X111330149Y-62447219D01*
X111330149Y-62447219D02*
X111640625Y-62447219D01*
X111640625Y-62447219D02*
X111795863Y-62369600D01*
X111795863Y-62369600D02*
X111873482Y-62291980D01*
X111873482Y-62291980D02*
X111951101Y-62136742D01*
X111951101Y-62136742D02*
X111951101Y-60817219D01*
X112727292Y-62447219D02*
X112727292Y-60817219D01*
X112727292Y-60817219D02*
X113658720Y-62447219D01*
X113658720Y-62447219D02*
X113658720Y-60817219D01*
X114202054Y-60817219D02*
X115133482Y-60817219D01*
X114667768Y-62447219D02*
X114667768Y-60817219D01*
X115676816Y-62447219D02*
X115676816Y-60817219D01*
X116220149Y-60817219D02*
X117151577Y-60817219D01*
X116685863Y-62447219D02*
X116685863Y-60817219D01*
X118471101Y-62447219D02*
X117694911Y-62447219D01*
X117694911Y-62447219D02*
X117694911Y-60817219D01*
X119014435Y-61593409D02*
X119557768Y-61593409D01*
X119790625Y-62447219D02*
X119014435Y-62447219D01*
X119014435Y-62447219D02*
X119014435Y-60817219D01*
X119014435Y-60817219D02*
X119790625Y-60817219D01*
X120489197Y-62447219D02*
X120489197Y-60817219D01*
X120489197Y-60817219D02*
X120877292Y-60817219D01*
X120877292Y-60817219D02*
X121110149Y-60894838D01*
X121110149Y-60894838D02*
X121265387Y-61050076D01*
X121265387Y-61050076D02*
X121343006Y-61205314D01*
X121343006Y-61205314D02*
X121420625Y-61515790D01*
X121420625Y-61515790D02*
X121420625Y-61748647D01*
X121420625Y-61748647D02*
X121343006Y-62059123D01*
X121343006Y-62059123D02*
X121265387Y-62214361D01*
X121265387Y-62214361D02*
X121110149Y-62369600D01*
X121110149Y-62369600D02*
X120877292Y-62447219D01*
X120877292Y-62447219D02*
X120489197Y-62447219D01*
X123283483Y-62369600D02*
X123516340Y-62447219D01*
X123516340Y-62447219D02*
X123904435Y-62447219D01*
X123904435Y-62447219D02*
X124059673Y-62369600D01*
X124059673Y-62369600D02*
X124137292Y-62291980D01*
X124137292Y-62291980D02*
X124214911Y-62136742D01*
X124214911Y-62136742D02*
X124214911Y-61981504D01*
X124214911Y-61981504D02*
X124137292Y-61826266D01*
X124137292Y-61826266D02*
X124059673Y-61748647D01*
X124059673Y-61748647D02*
X123904435Y-61671028D01*
X123904435Y-61671028D02*
X123593959Y-61593409D01*
X123593959Y-61593409D02*
X123438721Y-61515790D01*
X123438721Y-61515790D02*
X123361102Y-61438171D01*
X123361102Y-61438171D02*
X123283483Y-61282933D01*
X123283483Y-61282933D02*
X123283483Y-61127695D01*
X123283483Y-61127695D02*
X123361102Y-60972457D01*
X123361102Y-60972457D02*
X123438721Y-60894838D01*
X123438721Y-60894838D02*
X123593959Y-60817219D01*
X123593959Y-60817219D02*
X123982054Y-60817219D01*
X123982054Y-60817219D02*
X124214911Y-60894838D01*
X124913483Y-62447219D02*
X124913483Y-60817219D01*
X124913483Y-60817219D02*
X125534435Y-60817219D01*
X125534435Y-60817219D02*
X125689673Y-60894838D01*
X125689673Y-60894838D02*
X125767292Y-60972457D01*
X125767292Y-60972457D02*
X125844911Y-61127695D01*
X125844911Y-61127695D02*
X125844911Y-61360552D01*
X125844911Y-61360552D02*
X125767292Y-61515790D01*
X125767292Y-61515790D02*
X125689673Y-61593409D01*
X125689673Y-61593409D02*
X125534435Y-61671028D01*
X125534435Y-61671028D02*
X124913483Y-61671028D01*
X126465864Y-61981504D02*
X127242054Y-61981504D01*
X126310626Y-62447219D02*
X126853959Y-60817219D01*
X126853959Y-60817219D02*
X127397292Y-62447219D01*
X128872054Y-62291980D02*
X128794435Y-62369600D01*
X128794435Y-62369600D02*
X128561578Y-62447219D01*
X128561578Y-62447219D02*
X128406340Y-62447219D01*
X128406340Y-62447219D02*
X128173483Y-62369600D01*
X128173483Y-62369600D02*
X128018245Y-62214361D01*
X128018245Y-62214361D02*
X127940626Y-62059123D01*
X127940626Y-62059123D02*
X127863007Y-61748647D01*
X127863007Y-61748647D02*
X127863007Y-61515790D01*
X127863007Y-61515790D02*
X127940626Y-61205314D01*
X127940626Y-61205314D02*
X128018245Y-61050076D01*
X128018245Y-61050076D02*
X128173483Y-60894838D01*
X128173483Y-60894838D02*
X128406340Y-60817219D01*
X128406340Y-60817219D02*
X128561578Y-60817219D01*
X128561578Y-60817219D02*
X128794435Y-60894838D01*
X128794435Y-60894838D02*
X128872054Y-60972457D01*
X129570626Y-61593409D02*
X130113959Y-61593409D01*
X130346816Y-62447219D02*
X129570626Y-62447219D01*
X129570626Y-62447219D02*
X129570626Y-60817219D01*
X129570626Y-60817219D02*
X130346816Y-60817219D01*
X133218721Y-62291980D02*
X133141102Y-62369600D01*
X133141102Y-62369600D02*
X132908245Y-62447219D01*
X132908245Y-62447219D02*
X132753007Y-62447219D01*
X132753007Y-62447219D02*
X132520150Y-62369600D01*
X132520150Y-62369600D02*
X132364912Y-62214361D01*
X132364912Y-62214361D02*
X132287293Y-62059123D01*
X132287293Y-62059123D02*
X132209674Y-61748647D01*
X132209674Y-61748647D02*
X132209674Y-61515790D01*
X132209674Y-61515790D02*
X132287293Y-61205314D01*
X132287293Y-61205314D02*
X132364912Y-61050076D01*
X132364912Y-61050076D02*
X132520150Y-60894838D01*
X132520150Y-60894838D02*
X132753007Y-60817219D01*
X132753007Y-60817219D02*
X132908245Y-60817219D01*
X132908245Y-60817219D02*
X133141102Y-60894838D01*
X133141102Y-60894838D02*
X133218721Y-60972457D01*
X134848721Y-62447219D02*
X134305388Y-61671028D01*
X133917293Y-62447219D02*
X133917293Y-60817219D01*
X133917293Y-60817219D02*
X134538245Y-60817219D01*
X134538245Y-60817219D02*
X134693483Y-60894838D01*
X134693483Y-60894838D02*
X134771102Y-60972457D01*
X134771102Y-60972457D02*
X134848721Y-61127695D01*
X134848721Y-61127695D02*
X134848721Y-61360552D01*
X134848721Y-61360552D02*
X134771102Y-61515790D01*
X134771102Y-61515790D02*
X134693483Y-61593409D01*
X134693483Y-61593409D02*
X134538245Y-61671028D01*
X134538245Y-61671028D02*
X133917293Y-61671028D01*
X135469674Y-61981504D02*
X136245864Y-61981504D01*
X135314436Y-62447219D02*
X135857769Y-60817219D01*
X135857769Y-60817219D02*
X136401102Y-62447219D01*
X137487769Y-61593409D02*
X136944436Y-61593409D01*
X136944436Y-62447219D02*
X136944436Y-60817219D01*
X136944436Y-60817219D02*
X137720626Y-60817219D01*
X138108722Y-60817219D02*
X139040150Y-60817219D01*
X138574436Y-62447219D02*
X138574436Y-60817219D01*
X174701101Y-62291980D02*
X174623482Y-62369600D01*
X174623482Y-62369600D02*
X174390625Y-62447219D01*
X174390625Y-62447219D02*
X174235387Y-62447219D01*
X174235387Y-62447219D02*
X174002530Y-62369600D01*
X174002530Y-62369600D02*
X173847292Y-62214361D01*
X173847292Y-62214361D02*
X173769673Y-62059123D01*
X173769673Y-62059123D02*
X173692054Y-61748647D01*
X173692054Y-61748647D02*
X173692054Y-61515790D01*
X173692054Y-61515790D02*
X173769673Y-61205314D01*
X173769673Y-61205314D02*
X173847292Y-61050076D01*
X173847292Y-61050076D02*
X174002530Y-60894838D01*
X174002530Y-60894838D02*
X174235387Y-60817219D01*
X174235387Y-60817219D02*
X174390625Y-60817219D01*
X174390625Y-60817219D02*
X174623482Y-60894838D01*
X174623482Y-60894838D02*
X174701101Y-60972457D01*
X175710149Y-60817219D02*
X176020625Y-60817219D01*
X176020625Y-60817219D02*
X176175863Y-60894838D01*
X176175863Y-60894838D02*
X176331101Y-61050076D01*
X176331101Y-61050076D02*
X176408720Y-61360552D01*
X176408720Y-61360552D02*
X176408720Y-61903885D01*
X176408720Y-61903885D02*
X176331101Y-62214361D01*
X176331101Y-62214361D02*
X176175863Y-62369600D01*
X176175863Y-62369600D02*
X176020625Y-62447219D01*
X176020625Y-62447219D02*
X175710149Y-62447219D01*
X175710149Y-62447219D02*
X175554911Y-62369600D01*
X175554911Y-62369600D02*
X175399673Y-62214361D01*
X175399673Y-62214361D02*
X175322054Y-61903885D01*
X175322054Y-61903885D02*
X175322054Y-61360552D01*
X175322054Y-61360552D02*
X175399673Y-61050076D01*
X175399673Y-61050076D02*
X175554911Y-60894838D01*
X175554911Y-60894838D02*
X175710149Y-60817219D01*
X177107292Y-62447219D02*
X177107292Y-60817219D01*
X177107292Y-60817219D02*
X177495387Y-60817219D01*
X177495387Y-60817219D02*
X177728244Y-60894838D01*
X177728244Y-60894838D02*
X177883482Y-61050076D01*
X177883482Y-61050076D02*
X177961101Y-61205314D01*
X177961101Y-61205314D02*
X178038720Y-61515790D01*
X178038720Y-61515790D02*
X178038720Y-61748647D01*
X178038720Y-61748647D02*
X177961101Y-62059123D01*
X177961101Y-62059123D02*
X177883482Y-62214361D01*
X177883482Y-62214361D02*
X177728244Y-62369600D01*
X177728244Y-62369600D02*
X177495387Y-62447219D01*
X177495387Y-62447219D02*
X177107292Y-62447219D01*
X178659673Y-61981504D02*
X179435863Y-61981504D01*
X178504435Y-62447219D02*
X179047768Y-60817219D01*
X179047768Y-60817219D02*
X179591101Y-62447219D01*
X180134435Y-62447219D02*
X180134435Y-60817219D01*
X180134435Y-60817219D02*
X180755387Y-60817219D01*
X180755387Y-60817219D02*
X180910625Y-60894838D01*
X180910625Y-60894838D02*
X180988244Y-60972457D01*
X180988244Y-60972457D02*
X181065863Y-61127695D01*
X181065863Y-61127695D02*
X181065863Y-61360552D01*
X181065863Y-61360552D02*
X180988244Y-61515790D01*
X180988244Y-61515790D02*
X180910625Y-61593409D01*
X180910625Y-61593409D02*
X180755387Y-61671028D01*
X180755387Y-61671028D02*
X180134435Y-61671028D01*
X182074911Y-60817219D02*
X182385387Y-60817219D01*
X182385387Y-60817219D02*
X182540625Y-60894838D01*
X182540625Y-60894838D02*
X182695863Y-61050076D01*
X182695863Y-61050076D02*
X182773482Y-61360552D01*
X182773482Y-61360552D02*
X182773482Y-61903885D01*
X182773482Y-61903885D02*
X182695863Y-62214361D01*
X182695863Y-62214361D02*
X182540625Y-62369600D01*
X182540625Y-62369600D02*
X182385387Y-62447219D01*
X182385387Y-62447219D02*
X182074911Y-62447219D01*
X182074911Y-62447219D02*
X181919673Y-62369600D01*
X181919673Y-62369600D02*
X181764435Y-62214361D01*
X181764435Y-62214361D02*
X181686816Y-61903885D01*
X181686816Y-61903885D02*
X181686816Y-61360552D01*
X181686816Y-61360552D02*
X181764435Y-61050076D01*
X181764435Y-61050076D02*
X181919673Y-60894838D01*
X181919673Y-60894838D02*
X182074911Y-60817219D01*
X183472054Y-62447219D02*
X183472054Y-60817219D01*
X183472054Y-60817219D02*
X184093006Y-60817219D01*
X184093006Y-60817219D02*
X184248244Y-60894838D01*
X184248244Y-60894838D02*
X184325863Y-60972457D01*
X184325863Y-60972457D02*
X184403482Y-61127695D01*
X184403482Y-61127695D02*
X184403482Y-61360552D01*
X184403482Y-61360552D02*
X184325863Y-61515790D01*
X184325863Y-61515790D02*
X184248244Y-61593409D01*
X184248244Y-61593409D02*
X184093006Y-61671028D01*
X184093006Y-61671028D02*
X183472054Y-61671028D01*
X185102054Y-62447219D02*
X185102054Y-60817219D01*
X186033482Y-62447219D02*
X185334911Y-61515790D01*
X186033482Y-60817219D02*
X185102054Y-61748647D01*
X186654435Y-62369600D02*
X186887292Y-62447219D01*
X186887292Y-62447219D02*
X187275387Y-62447219D01*
X187275387Y-62447219D02*
X187430625Y-62369600D01*
X187430625Y-62369600D02*
X187508244Y-62291980D01*
X187508244Y-62291980D02*
X187585863Y-62136742D01*
X187585863Y-62136742D02*
X187585863Y-61981504D01*
X187585863Y-61981504D02*
X187508244Y-61826266D01*
X187508244Y-61826266D02*
X187430625Y-61748647D01*
X187430625Y-61748647D02*
X187275387Y-61671028D01*
X187275387Y-61671028D02*
X186964911Y-61593409D01*
X186964911Y-61593409D02*
X186809673Y-61515790D01*
X186809673Y-61515790D02*
X186732054Y-61438171D01*
X186732054Y-61438171D02*
X186654435Y-61282933D01*
X186654435Y-61282933D02*
X186654435Y-61127695D01*
X186654435Y-61127695D02*
X186732054Y-60972457D01*
X186732054Y-60972457D02*
X186809673Y-60894838D01*
X186809673Y-60894838D02*
X186964911Y-60817219D01*
X186964911Y-60817219D02*
X187353006Y-60817219D01*
X187353006Y-60817219D02*
X187585863Y-60894838D01*
X188284435Y-62447219D02*
X188284435Y-60817219D01*
X188284435Y-60817219D02*
X188905387Y-60817219D01*
X188905387Y-60817219D02*
X189060625Y-60894838D01*
X189060625Y-60894838D02*
X189138244Y-60972457D01*
X189138244Y-60972457D02*
X189215863Y-61127695D01*
X189215863Y-61127695D02*
X189215863Y-61360552D01*
X189215863Y-61360552D02*
X189138244Y-61515790D01*
X189138244Y-61515790D02*
X189060625Y-61593409D01*
X189060625Y-61593409D02*
X188905387Y-61671028D01*
X188905387Y-61671028D02*
X188284435Y-61671028D01*
X137130980Y-135769673D02*
X138760980Y-135769673D01*
X138760980Y-135769673D02*
X138760980Y-136157768D01*
X138760980Y-136157768D02*
X138683361Y-136390625D01*
X138683361Y-136390625D02*
X138528123Y-136545863D01*
X138528123Y-136545863D02*
X138372885Y-136623482D01*
X138372885Y-136623482D02*
X138062409Y-136701101D01*
X138062409Y-136701101D02*
X137829552Y-136701101D01*
X137829552Y-136701101D02*
X137519076Y-136623482D01*
X137519076Y-136623482D02*
X137363838Y-136545863D01*
X137363838Y-136545863D02*
X137208600Y-136390625D01*
X137208600Y-136390625D02*
X137130980Y-136157768D01*
X137130980Y-136157768D02*
X137130980Y-135769673D01*
X137596695Y-137322054D02*
X137596695Y-138098244D01*
X137130980Y-137166816D02*
X138760980Y-137710149D01*
X138760980Y-137710149D02*
X137130980Y-138253482D01*
X138760980Y-138563959D02*
X138760980Y-139495387D01*
X137130980Y-139029673D02*
X138760980Y-139029673D01*
X137596695Y-139961102D02*
X137596695Y-140737292D01*
X137130980Y-139805864D02*
X138760980Y-140349197D01*
X138760980Y-140349197D02*
X137130980Y-140892530D01*
X137984790Y-143221102D02*
X137907171Y-143453959D01*
X137907171Y-143453959D02*
X137829552Y-143531578D01*
X137829552Y-143531578D02*
X137674314Y-143609197D01*
X137674314Y-143609197D02*
X137441457Y-143609197D01*
X137441457Y-143609197D02*
X137286219Y-143531578D01*
X137286219Y-143531578D02*
X137208600Y-143453959D01*
X137208600Y-143453959D02*
X137130980Y-143298721D01*
X137130980Y-143298721D02*
X137130980Y-142677769D01*
X137130980Y-142677769D02*
X138760980Y-142677769D01*
X138760980Y-142677769D02*
X138760980Y-143221102D01*
X138760980Y-143221102D02*
X138683361Y-143376340D01*
X138683361Y-143376340D02*
X138605742Y-143453959D01*
X138605742Y-143453959D02*
X138450504Y-143531578D01*
X138450504Y-143531578D02*
X138295266Y-143531578D01*
X138295266Y-143531578D02*
X138140028Y-143453959D01*
X138140028Y-143453959D02*
X138062409Y-143376340D01*
X138062409Y-143376340D02*
X137984790Y-143221102D01*
X137984790Y-143221102D02*
X137984790Y-142677769D01*
X138760980Y-144307769D02*
X137441457Y-144307769D01*
X137441457Y-144307769D02*
X137286219Y-144385388D01*
X137286219Y-144385388D02*
X137208600Y-144463007D01*
X137208600Y-144463007D02*
X137130980Y-144618245D01*
X137130980Y-144618245D02*
X137130980Y-144928721D01*
X137130980Y-144928721D02*
X137208600Y-145083959D01*
X137208600Y-145083959D02*
X137286219Y-145161578D01*
X137286219Y-145161578D02*
X137441457Y-145239197D01*
X137441457Y-145239197D02*
X138760980Y-145239197D01*
X137208600Y-145937769D02*
X137130980Y-146170626D01*
X137130980Y-146170626D02*
X137130980Y-146558721D01*
X137130980Y-146558721D02*
X137208600Y-146713959D01*
X137208600Y-146713959D02*
X137286219Y-146791578D01*
X137286219Y-146791578D02*
X137441457Y-146869197D01*
X137441457Y-146869197D02*
X137596695Y-146869197D01*
X137596695Y-146869197D02*
X137751933Y-146791578D01*
X137751933Y-146791578D02*
X137829552Y-146713959D01*
X137829552Y-146713959D02*
X137907171Y-146558721D01*
X137907171Y-146558721D02*
X137984790Y-146248245D01*
X137984790Y-146248245D02*
X138062409Y-146093007D01*
X138062409Y-146093007D02*
X138140028Y-146015388D01*
X138140028Y-146015388D02*
X138295266Y-145937769D01*
X138295266Y-145937769D02*
X138450504Y-145937769D01*
X138450504Y-145937769D02*
X138605742Y-146015388D01*
X138605742Y-146015388D02*
X138683361Y-146093007D01*
X138683361Y-146093007D02*
X138760980Y-146248245D01*
X138760980Y-146248245D02*
X138760980Y-146636340D01*
X138760980Y-146636340D02*
X138683361Y-146869197D01*
X137286219Y-149741102D02*
X137208600Y-149663483D01*
X137208600Y-149663483D02*
X137130980Y-149430626D01*
X137130980Y-149430626D02*
X137130980Y-149275388D01*
X137130980Y-149275388D02*
X137208600Y-149042531D01*
X137208600Y-149042531D02*
X137363838Y-148887293D01*
X137363838Y-148887293D02*
X137519076Y-148809674D01*
X137519076Y-148809674D02*
X137829552Y-148732055D01*
X137829552Y-148732055D02*
X138062409Y-148732055D01*
X138062409Y-148732055D02*
X138372885Y-148809674D01*
X138372885Y-148809674D02*
X138528123Y-148887293D01*
X138528123Y-148887293D02*
X138683361Y-149042531D01*
X138683361Y-149042531D02*
X138760980Y-149275388D01*
X138760980Y-149275388D02*
X138760980Y-149430626D01*
X138760980Y-149430626D02*
X138683361Y-149663483D01*
X138683361Y-149663483D02*
X138605742Y-149741102D01*
X138760980Y-150750150D02*
X138760980Y-151060626D01*
X138760980Y-151060626D02*
X138683361Y-151215864D01*
X138683361Y-151215864D02*
X138528123Y-151371102D01*
X138528123Y-151371102D02*
X138217647Y-151448721D01*
X138217647Y-151448721D02*
X137674314Y-151448721D01*
X137674314Y-151448721D02*
X137363838Y-151371102D01*
X137363838Y-151371102D02*
X137208600Y-151215864D01*
X137208600Y-151215864D02*
X137130980Y-151060626D01*
X137130980Y-151060626D02*
X137130980Y-150750150D01*
X137130980Y-150750150D02*
X137208600Y-150594912D01*
X137208600Y-150594912D02*
X137363838Y-150439674D01*
X137363838Y-150439674D02*
X137674314Y-150362055D01*
X137674314Y-150362055D02*
X138217647Y-150362055D01*
X138217647Y-150362055D02*
X138528123Y-150439674D01*
X138528123Y-150439674D02*
X138683361Y-150594912D01*
X138683361Y-150594912D02*
X138760980Y-150750150D01*
X137130980Y-152147293D02*
X138760980Y-152147293D01*
X138760980Y-152147293D02*
X137130980Y-153078721D01*
X137130980Y-153078721D02*
X138760980Y-153078721D01*
X137130980Y-153854912D02*
X138760980Y-153854912D01*
X138760980Y-153854912D02*
X137130980Y-154786340D01*
X137130980Y-154786340D02*
X138760980Y-154786340D01*
D14*
X116857201Y-154948696D02*
X116552401Y-154513268D01*
X116334687Y-154948696D02*
X116334687Y-154034296D01*
X116334687Y-154034296D02*
X116683030Y-154034296D01*
X116683030Y-154034296D02*
X116770115Y-154077839D01*
X116770115Y-154077839D02*
X116813658Y-154121382D01*
X116813658Y-154121382D02*
X116857201Y-154208468D01*
X116857201Y-154208468D02*
X116857201Y-154339096D01*
X116857201Y-154339096D02*
X116813658Y-154426182D01*
X116813658Y-154426182D02*
X116770115Y-154469725D01*
X116770115Y-154469725D02*
X116683030Y-154513268D01*
X116683030Y-154513268D02*
X116334687Y-154513268D01*
X117728058Y-154948696D02*
X117205544Y-154948696D01*
X117466801Y-154948696D02*
X117466801Y-154034296D01*
X117466801Y-154034296D02*
X117379715Y-154164925D01*
X117379715Y-154164925D02*
X117292630Y-154252011D01*
X117292630Y-154252011D02*
X117205544Y-154295554D01*
X118834687Y-154600354D02*
X119531373Y-154600354D01*
X121142458Y-154948696D02*
X120619944Y-154948696D01*
X120881201Y-154948696D02*
X120881201Y-154034296D01*
X120881201Y-154034296D02*
X120794115Y-154164925D01*
X120794115Y-154164925D02*
X120707030Y-154252011D01*
X120707030Y-154252011D02*
X120619944Y-154295554D01*
X121708515Y-154034296D02*
X121795601Y-154034296D01*
X121795601Y-154034296D02*
X121882687Y-154077839D01*
X121882687Y-154077839D02*
X121926230Y-154121382D01*
X121926230Y-154121382D02*
X121969772Y-154208468D01*
X121969772Y-154208468D02*
X122013315Y-154382639D01*
X122013315Y-154382639D02*
X122013315Y-154600354D01*
X122013315Y-154600354D02*
X121969772Y-154774525D01*
X121969772Y-154774525D02*
X121926230Y-154861611D01*
X121926230Y-154861611D02*
X121882687Y-154905154D01*
X121882687Y-154905154D02*
X121795601Y-154948696D01*
X121795601Y-154948696D02*
X121708515Y-154948696D01*
X121708515Y-154948696D02*
X121621430Y-154905154D01*
X121621430Y-154905154D02*
X121577887Y-154861611D01*
X121577887Y-154861611D02*
X121534344Y-154774525D01*
X121534344Y-154774525D02*
X121490801Y-154600354D01*
X121490801Y-154600354D02*
X121490801Y-154382639D01*
X121490801Y-154382639D02*
X121534344Y-154208468D01*
X121534344Y-154208468D02*
X121577887Y-154121382D01*
X121577887Y-154121382D02*
X121621430Y-154077839D01*
X121621430Y-154077839D02*
X121708515Y-154034296D01*
X122405201Y-154948696D02*
X122405201Y-154034296D01*
X122927715Y-154948696D02*
X122535829Y-154426182D01*
X122927715Y-154034296D02*
X122405201Y-154556811D01*
X181857201Y-133448696D02*
X181552401Y-133013268D01*
X181334687Y-133448696D02*
X181334687Y-132534296D01*
X181334687Y-132534296D02*
X181683030Y-132534296D01*
X181683030Y-132534296D02*
X181770115Y-132577839D01*
X181770115Y-132577839D02*
X181813658Y-132621382D01*
X181813658Y-132621382D02*
X181857201Y-132708468D01*
X181857201Y-132708468D02*
X181857201Y-132839096D01*
X181857201Y-132839096D02*
X181813658Y-132926182D01*
X181813658Y-132926182D02*
X181770115Y-132969725D01*
X181770115Y-132969725D02*
X181683030Y-133013268D01*
X181683030Y-133013268D02*
X181334687Y-133013268D01*
X182162001Y-132534296D02*
X182728058Y-132534296D01*
X182728058Y-132534296D02*
X182423258Y-132882639D01*
X182423258Y-132882639D02*
X182553887Y-132882639D01*
X182553887Y-132882639D02*
X182640973Y-132926182D01*
X182640973Y-132926182D02*
X182684515Y-132969725D01*
X182684515Y-132969725D02*
X182728058Y-133056811D01*
X182728058Y-133056811D02*
X182728058Y-133274525D01*
X182728058Y-133274525D02*
X182684515Y-133361611D01*
X182684515Y-133361611D02*
X182640973Y-133405154D01*
X182640973Y-133405154D02*
X182553887Y-133448696D01*
X182553887Y-133448696D02*
X182292630Y-133448696D01*
X182292630Y-133448696D02*
X182205544Y-133405154D01*
X182205544Y-133405154D02*
X182162001Y-133361611D01*
X183834687Y-133100354D02*
X184531373Y-133100354D01*
X186142458Y-133448696D02*
X185619944Y-133448696D01*
X185881201Y-133448696D02*
X185881201Y-132534296D01*
X185881201Y-132534296D02*
X185794115Y-132664925D01*
X185794115Y-132664925D02*
X185707030Y-132752011D01*
X185707030Y-132752011D02*
X185619944Y-132795554D01*
X186708515Y-132534296D02*
X186795601Y-132534296D01*
X186795601Y-132534296D02*
X186882687Y-132577839D01*
X186882687Y-132577839D02*
X186926230Y-132621382D01*
X186926230Y-132621382D02*
X186969772Y-132708468D01*
X186969772Y-132708468D02*
X187013315Y-132882639D01*
X187013315Y-132882639D02*
X187013315Y-133100354D01*
X187013315Y-133100354D02*
X186969772Y-133274525D01*
X186969772Y-133274525D02*
X186926230Y-133361611D01*
X186926230Y-133361611D02*
X186882687Y-133405154D01*
X186882687Y-133405154D02*
X186795601Y-133448696D01*
X186795601Y-133448696D02*
X186708515Y-133448696D01*
X186708515Y-133448696D02*
X186621430Y-133405154D01*
X186621430Y-133405154D02*
X186577887Y-133361611D01*
X186577887Y-133361611D02*
X186534344Y-133274525D01*
X186534344Y-133274525D02*
X186490801Y-133100354D01*
X186490801Y-133100354D02*
X186490801Y-132882639D01*
X186490801Y-132882639D02*
X186534344Y-132708468D01*
X186534344Y-132708468D02*
X186577887Y-132621382D01*
X186577887Y-132621382D02*
X186621430Y-132577839D01*
X186621430Y-132577839D02*
X186708515Y-132534296D01*
X187405201Y-133448696D02*
X187405201Y-132534296D01*
X187927715Y-133448696D02*
X187535829Y-132926182D01*
X187927715Y-132534296D02*
X187405201Y-133056811D01*
D15*
X123351791Y-129989732D02*
X123308248Y-130033275D01*
X123308248Y-130033275D02*
X123177620Y-130076817D01*
X123177620Y-130076817D02*
X123090534Y-130076817D01*
X123090534Y-130076817D02*
X122959905Y-130033275D01*
X122959905Y-130033275D02*
X122872820Y-129946189D01*
X122872820Y-129946189D02*
X122829277Y-129859103D01*
X122829277Y-129859103D02*
X122785734Y-129684932D01*
X122785734Y-129684932D02*
X122785734Y-129554303D01*
X122785734Y-129554303D02*
X122829277Y-129380132D01*
X122829277Y-129380132D02*
X122872820Y-129293046D01*
X122872820Y-129293046D02*
X122959905Y-129205960D01*
X122959905Y-129205960D02*
X123090534Y-129162417D01*
X123090534Y-129162417D02*
X123177620Y-129162417D01*
X123177620Y-129162417D02*
X123308248Y-129205960D01*
X123308248Y-129205960D02*
X123351791Y-129249503D01*
X123743677Y-129728475D02*
X124440363Y-129728475D01*
X124875791Y-130076817D02*
X124875791Y-129162417D01*
X124875791Y-129162417D02*
X125180591Y-129815560D01*
X125180591Y-129815560D02*
X125485391Y-129162417D01*
X125485391Y-129162417D02*
X125485391Y-130076817D01*
X125877277Y-129815560D02*
X126312706Y-129815560D01*
X125790191Y-130076817D02*
X126094991Y-129162417D01*
X126094991Y-129162417D02*
X126399791Y-130076817D01*
X126704591Y-130076817D02*
X126704591Y-129162417D01*
X127140020Y-130076817D02*
X127140020Y-129162417D01*
X127140020Y-129162417D02*
X127662534Y-130076817D01*
X127662534Y-130076817D02*
X127662534Y-129162417D01*
D14*
X112257801Y-121911811D02*
X112214258Y-121955354D01*
X112214258Y-121955354D02*
X112083630Y-121998896D01*
X112083630Y-121998896D02*
X111996544Y-121998896D01*
X111996544Y-121998896D02*
X111865915Y-121955354D01*
X111865915Y-121955354D02*
X111778830Y-121868268D01*
X111778830Y-121868268D02*
X111735287Y-121781182D01*
X111735287Y-121781182D02*
X111691744Y-121607011D01*
X111691744Y-121607011D02*
X111691744Y-121476382D01*
X111691744Y-121476382D02*
X111735287Y-121302211D01*
X111735287Y-121302211D02*
X111778830Y-121215125D01*
X111778830Y-121215125D02*
X111865915Y-121128039D01*
X111865915Y-121128039D02*
X111996544Y-121084496D01*
X111996544Y-121084496D02*
X112083630Y-121084496D01*
X112083630Y-121084496D02*
X112214258Y-121128039D01*
X112214258Y-121128039D02*
X112257801Y-121171582D01*
X113128658Y-121998896D02*
X112606144Y-121998896D01*
X112867401Y-121998896D02*
X112867401Y-121084496D01*
X112867401Y-121084496D02*
X112780315Y-121215125D01*
X112780315Y-121215125D02*
X112693230Y-121302211D01*
X112693230Y-121302211D02*
X112606144Y-121345754D01*
X190051303Y-143857201D02*
X190486731Y-143552401D01*
X190051303Y-143334687D02*
X190965703Y-143334687D01*
X190965703Y-143334687D02*
X190965703Y-143683030D01*
X190965703Y-143683030D02*
X190922160Y-143770115D01*
X190922160Y-143770115D02*
X190878617Y-143813658D01*
X190878617Y-143813658D02*
X190791531Y-143857201D01*
X190791531Y-143857201D02*
X190660903Y-143857201D01*
X190660903Y-143857201D02*
X190573817Y-143813658D01*
X190573817Y-143813658D02*
X190530274Y-143770115D01*
X190530274Y-143770115D02*
X190486731Y-143683030D01*
X190486731Y-143683030D02*
X190486731Y-143334687D01*
X190878617Y-144205544D02*
X190922160Y-144249087D01*
X190922160Y-144249087D02*
X190965703Y-144336173D01*
X190965703Y-144336173D02*
X190965703Y-144553887D01*
X190965703Y-144553887D02*
X190922160Y-144640973D01*
X190922160Y-144640973D02*
X190878617Y-144684515D01*
X190878617Y-144684515D02*
X190791531Y-144728058D01*
X190791531Y-144728058D02*
X190704446Y-144728058D01*
X190704446Y-144728058D02*
X190573817Y-144684515D01*
X190573817Y-144684515D02*
X190051303Y-144162001D01*
X190051303Y-144162001D02*
X190051303Y-144728058D01*
X190399646Y-145834687D02*
X190399646Y-146531373D01*
X190051303Y-148142458D02*
X190051303Y-147619944D01*
X190051303Y-147881201D02*
X190965703Y-147881201D01*
X190965703Y-147881201D02*
X190835074Y-147794115D01*
X190835074Y-147794115D02*
X190747988Y-147707030D01*
X190747988Y-147707030D02*
X190704446Y-147619944D01*
X190965703Y-148708515D02*
X190965703Y-148795601D01*
X190965703Y-148795601D02*
X190922160Y-148882687D01*
X190922160Y-148882687D02*
X190878617Y-148926230D01*
X190878617Y-148926230D02*
X190791531Y-148969772D01*
X190791531Y-148969772D02*
X190617360Y-149013315D01*
X190617360Y-149013315D02*
X190399646Y-149013315D01*
X190399646Y-149013315D02*
X190225474Y-148969772D01*
X190225474Y-148969772D02*
X190138388Y-148926230D01*
X190138388Y-148926230D02*
X190094846Y-148882687D01*
X190094846Y-148882687D02*
X190051303Y-148795601D01*
X190051303Y-148795601D02*
X190051303Y-148708515D01*
X190051303Y-148708515D02*
X190094846Y-148621430D01*
X190094846Y-148621430D02*
X190138388Y-148577887D01*
X190138388Y-148577887D02*
X190225474Y-148534344D01*
X190225474Y-148534344D02*
X190399646Y-148490801D01*
X190399646Y-148490801D02*
X190617360Y-148490801D01*
X190617360Y-148490801D02*
X190791531Y-148534344D01*
X190791531Y-148534344D02*
X190878617Y-148577887D01*
X190878617Y-148577887D02*
X190922160Y-148621430D01*
X190922160Y-148621430D02*
X190965703Y-148708515D01*
X190051303Y-149405201D02*
X190965703Y-149405201D01*
X190051303Y-149927715D02*
X190573817Y-149535829D01*
X190965703Y-149927715D02*
X190443188Y-149405201D01*
D15*
X122524634Y-114773760D02*
X122960063Y-114773760D01*
X122437548Y-115035017D02*
X122742348Y-114120617D01*
X122742348Y-114120617D02*
X123047148Y-115035017D01*
X123874462Y-115035017D02*
X123569662Y-114599589D01*
X123351948Y-115035017D02*
X123351948Y-114120617D01*
X123351948Y-114120617D02*
X123700291Y-114120617D01*
X123700291Y-114120617D02*
X123787376Y-114164160D01*
X123787376Y-114164160D02*
X123830919Y-114207703D01*
X123830919Y-114207703D02*
X123874462Y-114294789D01*
X123874462Y-114294789D02*
X123874462Y-114425417D01*
X123874462Y-114425417D02*
X123830919Y-114512503D01*
X123830919Y-114512503D02*
X123787376Y-114556046D01*
X123787376Y-114556046D02*
X123700291Y-114599589D01*
X123700291Y-114599589D02*
X123351948Y-114599589D01*
X124266348Y-114556046D02*
X124571148Y-114556046D01*
X124701776Y-115035017D02*
X124266348Y-115035017D01*
X124266348Y-115035017D02*
X124266348Y-114120617D01*
X124266348Y-114120617D02*
X124701776Y-114120617D01*
X125398462Y-114556046D02*
X125093662Y-114556046D01*
X125093662Y-115035017D02*
X125093662Y-114120617D01*
X125093662Y-114120617D02*
X125529090Y-114120617D01*
X162317877Y-130621217D02*
X162317877Y-131361446D01*
X162317877Y-131361446D02*
X162361420Y-131448532D01*
X162361420Y-131448532D02*
X162404963Y-131492075D01*
X162404963Y-131492075D02*
X162492048Y-131535617D01*
X162492048Y-131535617D02*
X162666220Y-131535617D01*
X162666220Y-131535617D02*
X162753305Y-131492075D01*
X162753305Y-131492075D02*
X162796848Y-131448532D01*
X162796848Y-131448532D02*
X162840391Y-131361446D01*
X162840391Y-131361446D02*
X162840391Y-130621217D01*
X163667706Y-130926017D02*
X163667706Y-131535617D01*
X163449991Y-130577675D02*
X163232277Y-131230817D01*
X163232277Y-131230817D02*
X163798334Y-131230817D01*
D14*
X163607201Y-124448696D02*
X163302401Y-124013268D01*
X163084687Y-124448696D02*
X163084687Y-123534296D01*
X163084687Y-123534296D02*
X163433030Y-123534296D01*
X163433030Y-123534296D02*
X163520115Y-123577839D01*
X163520115Y-123577839D02*
X163563658Y-123621382D01*
X163563658Y-123621382D02*
X163607201Y-123708468D01*
X163607201Y-123708468D02*
X163607201Y-123839096D01*
X163607201Y-123839096D02*
X163563658Y-123926182D01*
X163563658Y-123926182D02*
X163520115Y-123969725D01*
X163520115Y-123969725D02*
X163433030Y-124013268D01*
X163433030Y-124013268D02*
X163084687Y-124013268D01*
X164390973Y-123839096D02*
X164390973Y-124448696D01*
X164173258Y-123490754D02*
X163955544Y-124143896D01*
X163955544Y-124143896D02*
X164521601Y-124143896D01*
X165584687Y-124100354D02*
X166281373Y-124100354D01*
X167892458Y-124448696D02*
X167369944Y-124448696D01*
X167631201Y-124448696D02*
X167631201Y-123534296D01*
X167631201Y-123534296D02*
X167544115Y-123664925D01*
X167544115Y-123664925D02*
X167457030Y-123752011D01*
X167457030Y-123752011D02*
X167369944Y-123795554D01*
X168458515Y-123534296D02*
X168545601Y-123534296D01*
X168545601Y-123534296D02*
X168632687Y-123577839D01*
X168632687Y-123577839D02*
X168676230Y-123621382D01*
X168676230Y-123621382D02*
X168719772Y-123708468D01*
X168719772Y-123708468D02*
X168763315Y-123882639D01*
X168763315Y-123882639D02*
X168763315Y-124100354D01*
X168763315Y-124100354D02*
X168719772Y-124274525D01*
X168719772Y-124274525D02*
X168676230Y-124361611D01*
X168676230Y-124361611D02*
X168632687Y-124405154D01*
X168632687Y-124405154D02*
X168545601Y-124448696D01*
X168545601Y-124448696D02*
X168458515Y-124448696D01*
X168458515Y-124448696D02*
X168371430Y-124405154D01*
X168371430Y-124405154D02*
X168327887Y-124361611D01*
X168327887Y-124361611D02*
X168284344Y-124274525D01*
X168284344Y-124274525D02*
X168240801Y-124100354D01*
X168240801Y-124100354D02*
X168240801Y-123882639D01*
X168240801Y-123882639D02*
X168284344Y-123708468D01*
X168284344Y-123708468D02*
X168327887Y-123621382D01*
X168327887Y-123621382D02*
X168371430Y-123577839D01*
X168371430Y-123577839D02*
X168458515Y-123534296D01*
X169155201Y-124448696D02*
X169155201Y-123534296D01*
X169677715Y-124448696D02*
X169285829Y-123926182D01*
X169677715Y-123534296D02*
X169155201Y-124056811D01*
X149857301Y-132448011D02*
X149813758Y-132491554D01*
X149813758Y-132491554D02*
X149683130Y-132535096D01*
X149683130Y-132535096D02*
X149596044Y-132535096D01*
X149596044Y-132535096D02*
X149465415Y-132491554D01*
X149465415Y-132491554D02*
X149378330Y-132404468D01*
X149378330Y-132404468D02*
X149334787Y-132317382D01*
X149334787Y-132317382D02*
X149291244Y-132143211D01*
X149291244Y-132143211D02*
X149291244Y-132012582D01*
X149291244Y-132012582D02*
X149334787Y-131838411D01*
X149334787Y-131838411D02*
X149378330Y-131751325D01*
X149378330Y-131751325D02*
X149465415Y-131664239D01*
X149465415Y-131664239D02*
X149596044Y-131620696D01*
X149596044Y-131620696D02*
X149683130Y-131620696D01*
X149683130Y-131620696D02*
X149813758Y-131664239D01*
X149813758Y-131664239D02*
X149857301Y-131707782D01*
X150641073Y-131925496D02*
X150641073Y-132535096D01*
X150423358Y-131577154D02*
X150205644Y-132230296D01*
X150205644Y-132230296D02*
X150771701Y-132230296D01*
X116857201Y-76698696D02*
X116552401Y-76263268D01*
X116334687Y-76698696D02*
X116334687Y-75784296D01*
X116334687Y-75784296D02*
X116683030Y-75784296D01*
X116683030Y-75784296D02*
X116770115Y-75827839D01*
X116770115Y-75827839D02*
X116813658Y-75871382D01*
X116813658Y-75871382D02*
X116857201Y-75958468D01*
X116857201Y-75958468D02*
X116857201Y-76089096D01*
X116857201Y-76089096D02*
X116813658Y-76176182D01*
X116813658Y-76176182D02*
X116770115Y-76219725D01*
X116770115Y-76219725D02*
X116683030Y-76263268D01*
X116683030Y-76263268D02*
X116334687Y-76263268D01*
X117640973Y-75784296D02*
X117466801Y-75784296D01*
X117466801Y-75784296D02*
X117379715Y-75827839D01*
X117379715Y-75827839D02*
X117336173Y-75871382D01*
X117336173Y-75871382D02*
X117249087Y-76002011D01*
X117249087Y-76002011D02*
X117205544Y-76176182D01*
X117205544Y-76176182D02*
X117205544Y-76524525D01*
X117205544Y-76524525D02*
X117249087Y-76611611D01*
X117249087Y-76611611D02*
X117292630Y-76655154D01*
X117292630Y-76655154D02*
X117379715Y-76698696D01*
X117379715Y-76698696D02*
X117553887Y-76698696D01*
X117553887Y-76698696D02*
X117640973Y-76655154D01*
X117640973Y-76655154D02*
X117684515Y-76611611D01*
X117684515Y-76611611D02*
X117728058Y-76524525D01*
X117728058Y-76524525D02*
X117728058Y-76306811D01*
X117728058Y-76306811D02*
X117684515Y-76219725D01*
X117684515Y-76219725D02*
X117640973Y-76176182D01*
X117640973Y-76176182D02*
X117553887Y-76132639D01*
X117553887Y-76132639D02*
X117379715Y-76132639D01*
X117379715Y-76132639D02*
X117292630Y-76176182D01*
X117292630Y-76176182D02*
X117249087Y-76219725D01*
X117249087Y-76219725D02*
X117205544Y-76306811D01*
X118834687Y-76350354D02*
X119531373Y-76350354D01*
X121142458Y-76698696D02*
X120619944Y-76698696D01*
X120881201Y-76698696D02*
X120881201Y-75784296D01*
X120881201Y-75784296D02*
X120794115Y-75914925D01*
X120794115Y-75914925D02*
X120707030Y-76002011D01*
X120707030Y-76002011D02*
X120619944Y-76045554D01*
X121708515Y-75784296D02*
X121795601Y-75784296D01*
X121795601Y-75784296D02*
X121882687Y-75827839D01*
X121882687Y-75827839D02*
X121926230Y-75871382D01*
X121926230Y-75871382D02*
X121969772Y-75958468D01*
X121969772Y-75958468D02*
X122013315Y-76132639D01*
X122013315Y-76132639D02*
X122013315Y-76350354D01*
X122013315Y-76350354D02*
X121969772Y-76524525D01*
X121969772Y-76524525D02*
X121926230Y-76611611D01*
X121926230Y-76611611D02*
X121882687Y-76655154D01*
X121882687Y-76655154D02*
X121795601Y-76698696D01*
X121795601Y-76698696D02*
X121708515Y-76698696D01*
X121708515Y-76698696D02*
X121621430Y-76655154D01*
X121621430Y-76655154D02*
X121577887Y-76611611D01*
X121577887Y-76611611D02*
X121534344Y-76524525D01*
X121534344Y-76524525D02*
X121490801Y-76350354D01*
X121490801Y-76350354D02*
X121490801Y-76132639D01*
X121490801Y-76132639D02*
X121534344Y-75958468D01*
X121534344Y-75958468D02*
X121577887Y-75871382D01*
X121577887Y-75871382D02*
X121621430Y-75827839D01*
X121621430Y-75827839D02*
X121708515Y-75784296D01*
X122405201Y-76698696D02*
X122405201Y-75784296D01*
X122927715Y-76698696D02*
X122535829Y-76176182D01*
X122927715Y-75784296D02*
X122405201Y-76306811D01*
X146857201Y-155698696D02*
X146552401Y-155263268D01*
X146334687Y-155698696D02*
X146334687Y-154784296D01*
X146334687Y-154784296D02*
X146683030Y-154784296D01*
X146683030Y-154784296D02*
X146770115Y-154827839D01*
X146770115Y-154827839D02*
X146813658Y-154871382D01*
X146813658Y-154871382D02*
X146857201Y-154958468D01*
X146857201Y-154958468D02*
X146857201Y-155089096D01*
X146857201Y-155089096D02*
X146813658Y-155176182D01*
X146813658Y-155176182D02*
X146770115Y-155219725D01*
X146770115Y-155219725D02*
X146683030Y-155263268D01*
X146683030Y-155263268D02*
X146334687Y-155263268D01*
X147728058Y-155698696D02*
X147205544Y-155698696D01*
X147466801Y-155698696D02*
X147466801Y-154784296D01*
X147466801Y-154784296D02*
X147379715Y-154914925D01*
X147379715Y-154914925D02*
X147292630Y-155002011D01*
X147292630Y-155002011D02*
X147205544Y-155045554D01*
X148834687Y-155350354D02*
X149531373Y-155350354D01*
X151142458Y-155698696D02*
X150619944Y-155698696D01*
X150881201Y-155698696D02*
X150881201Y-154784296D01*
X150881201Y-154784296D02*
X150794115Y-154914925D01*
X150794115Y-154914925D02*
X150707030Y-155002011D01*
X150707030Y-155002011D02*
X150619944Y-155045554D01*
X151708515Y-154784296D02*
X151795601Y-154784296D01*
X151795601Y-154784296D02*
X151882687Y-154827839D01*
X151882687Y-154827839D02*
X151926230Y-154871382D01*
X151926230Y-154871382D02*
X151969772Y-154958468D01*
X151969772Y-154958468D02*
X152013315Y-155132639D01*
X152013315Y-155132639D02*
X152013315Y-155350354D01*
X152013315Y-155350354D02*
X151969772Y-155524525D01*
X151969772Y-155524525D02*
X151926230Y-155611611D01*
X151926230Y-155611611D02*
X151882687Y-155655154D01*
X151882687Y-155655154D02*
X151795601Y-155698696D01*
X151795601Y-155698696D02*
X151708515Y-155698696D01*
X151708515Y-155698696D02*
X151621430Y-155655154D01*
X151621430Y-155655154D02*
X151577887Y-155611611D01*
X151577887Y-155611611D02*
X151534344Y-155524525D01*
X151534344Y-155524525D02*
X151490801Y-155350354D01*
X151490801Y-155350354D02*
X151490801Y-155132639D01*
X151490801Y-155132639D02*
X151534344Y-154958468D01*
X151534344Y-154958468D02*
X151577887Y-154871382D01*
X151577887Y-154871382D02*
X151621430Y-154827839D01*
X151621430Y-154827839D02*
X151708515Y-154784296D01*
X152405201Y-155698696D02*
X152405201Y-154784296D01*
X152927715Y-155698696D02*
X152535829Y-155176182D01*
X152927715Y-154784296D02*
X152405201Y-155306811D01*
%TO.C,R1*%
D10*
X113133100Y-153307000D02*
X113133100Y-153558500D01*
X113133100Y-153558500D02*
X113133100Y-155808900D01*
X113133100Y-155808900D02*
X126132800Y-155808900D01*
X126132800Y-153307000D02*
X113133100Y-153307000D01*
X126132800Y-155808900D02*
X126132800Y-153307000D01*
%TO.C,R3*%
X178004300Y-131791100D02*
X178004300Y-134293000D01*
X178004300Y-134293000D02*
X191004000Y-134293000D01*
X191004000Y-131791100D02*
X178004300Y-131791100D01*
X191004000Y-134041500D02*
X191004000Y-131791100D01*
X191004000Y-134293000D02*
X191004000Y-134041500D01*
%TO.C,C-MAIN*%
X126781500Y-135823400D02*
X126781500Y-134807400D01*
X127289500Y-135315400D02*
X126273500Y-135315400D01*
X128661100Y-133791000D02*
G75*
G02*
X122361900Y-133791000I-3149600J0D01*
G01*
X122361900Y-133791000D02*
G75*
G02*
X128661100Y-133791000I3149600J0D01*
G01*
%TO.C,C1*%
X110950600Y-117462400D02*
X110950600Y-117711400D01*
X110950600Y-117711400D02*
X110950600Y-124960500D01*
X110950600Y-124960500D02*
X113449900Y-124960500D01*
X113449900Y-117462400D02*
X110950600Y-117462400D01*
X113449900Y-124960500D02*
X113449900Y-117462400D01*
%TO.C,R2*%
X189292000Y-140004300D02*
X189292000Y-153004000D01*
X189292000Y-153004000D02*
X191793900Y-153004000D01*
X191542400Y-140004300D02*
X189292000Y-140004300D01*
X191793900Y-140004300D02*
X191542400Y-140004300D01*
X191793900Y-153004000D02*
X191793900Y-140004300D01*
%TO.C,AREF*%
X118700000Y-113949900D02*
X118700000Y-115549900D01*
X119950100Y-113949900D02*
X118700000Y-113949900D01*
X119950100Y-115549900D02*
X118700000Y-115549900D01*
X120550700Y-113944700D02*
X121800600Y-113944700D01*
X120550700Y-115544800D02*
X121800600Y-115544800D01*
X121800600Y-113944700D02*
X121800600Y-115544800D01*
%TO.C,U4*%
X152701300Y-128682900D02*
X152982000Y-128682900D01*
X152701300Y-130882800D02*
X152701300Y-128682900D01*
X152701300Y-135080900D02*
X152701300Y-132881000D01*
X152701300Y-135080900D02*
X152980600Y-135080900D01*
X154640600Y-128682900D02*
X155522000Y-128682900D01*
X154642000Y-135080900D02*
X155520600Y-135080900D01*
X157180600Y-128682900D02*
X158062000Y-128682900D01*
X157182000Y-135080900D02*
X158060600Y-135080900D01*
X159720600Y-128682900D02*
X160602000Y-128682900D01*
X159722000Y-135080900D02*
X160600600Y-135080900D01*
X162260600Y-128682900D02*
X163142000Y-128682900D01*
X162262000Y-135080900D02*
X163140600Y-135080900D01*
X164800600Y-128682900D02*
X165682000Y-128682900D01*
X164802000Y-135080900D02*
X165680600Y-135080900D01*
X167340600Y-128682900D02*
X168222000Y-128682900D01*
X167342000Y-135080900D02*
X168220600Y-135080900D01*
X169880600Y-128682900D02*
X170762000Y-128682900D01*
X169882000Y-135080900D02*
X170760600Y-135080900D01*
X172420600Y-128682900D02*
X172701300Y-128682900D01*
X172422000Y-135080900D02*
X172701300Y-135080900D01*
X172701300Y-135080900D02*
X172701300Y-128681100D01*
X152701300Y-130881000D02*
G75*
G02*
X152751400Y-132880999I24999J-1000001D01*
G01*
X154151600Y-134080400D02*
G75*
G02*
X153551600Y-134080400I-300000J0D01*
G01*
X153551600Y-134080400D02*
G75*
G02*
X154151600Y-134080400I300000J0D01*
G01*
%TO.C,R4*%
X159753400Y-122790700D02*
X159753400Y-125292600D01*
X159753400Y-125292600D02*
X172753100Y-125292600D01*
X172753100Y-122790700D02*
X159753400Y-122790700D01*
X172753100Y-125041100D02*
X172753100Y-122790700D01*
X172753100Y-125292600D02*
X172753100Y-125041100D01*
%TO.C,C4*%
X148799900Y-128289300D02*
X148799900Y-135787400D01*
X148799900Y-135787400D02*
X151299200Y-135787400D01*
X151299200Y-128289300D02*
X148799900Y-128289300D01*
X151299200Y-135538500D02*
X151299200Y-128289300D01*
X151299200Y-135787400D02*
X151299200Y-135538500D01*
%TO.C,R6*%
X113251200Y-75038400D02*
X113251200Y-77540300D01*
X113251200Y-77540300D02*
X126250900Y-77540300D01*
X126250900Y-75038400D02*
X113251200Y-75038400D01*
X126250900Y-77288800D02*
X126250900Y-75038400D01*
X126250900Y-77540300D02*
X126250900Y-77288800D01*
%TO.C,R1*%
X143176300Y-154101500D02*
X143176300Y-154353000D01*
X143176300Y-154353000D02*
X143176300Y-156603400D01*
X143176300Y-156603400D02*
X156176000Y-156603400D01*
X156176000Y-154101500D02*
X143176300Y-154101500D01*
X156176000Y-156603400D02*
X156176000Y-154101500D01*
%TD*%
M02*
