%TF.GenerationSoftware,KiCad,Pcbnew,10.0.6*%
%TF.CreationDate,2026-09-23T18:07:57+08:00*%
%TF.ProjectId,Rotation_Module,526f7461-7469-46f6-9e5f-4d6f64756c65,1.7*%
%TF.SameCoordinates,Original*%
%TF.FileFunction,Soldermask,Top*%
%TF.FilePolarity,Negative*%
%FSLAX46Y46*%
G04 Gerber Fmt 4.6, Leading zero omitted, Abs format (unit mm)*
G04 Created by KiCad (PCBNEW 10.0.6) date 2026-09-23 18:07:57*
%MOMM*%
%LPD*%
G01*
G04 APERTURE LIST*
G04 Aperture macros list*
%AMRoundRect*
0 Rectangle with rounded corners*
0 $1 Rounding radius*
0 $2 $3 $4 $5 $6 $7 $8 $9 X,Y pos of 4 corners*
0 Add a 4 corners polygon primitive as box body*
4,1,4,$2,$3,$4,$5,$6,$7,$8,$9,$2,$3,0*
0 Add four circle primitives for the rounded corners*
1,1,$1+$1,$2,$3*
1,1,$1+$1,$4,$5*
1,1,$1+$1,$6,$7*
1,1,$1+$1,$8,$9*
0 Add four rect primitives between the rounded corners*
20,1,$1+$1,$2,$3,$4,$5,0*
20,1,$1+$1,$4,$5,$6,$7,0*
20,1,$1+$1,$6,$7,$8,$9,0*
20,1,$1+$1,$8,$9,$2,$3,0*%
G04 Aperture macros list end*
%ADD10RoundRect,0.101600X0.500000X0.500000X-0.500000X0.500000X-0.500000X-0.500000X0.500000X-0.500000X0*%
%ADD11RoundRect,0.101600X-0.700000X-0.700000X0.700000X-0.700000X0.700000X0.700000X-0.700000X0.700000X0*%
%ADD12RoundRect,0.101600X0.762000X-0.762000X0.762000X0.762000X-0.762000X0.762000X-0.762000X-0.762000X0*%
%ADD13RoundRect,0.101600X-0.762000X0.762000X-0.762000X-0.762000X0.762000X-0.762000X0.762000X0.762000X0*%
%ADD14RoundRect,0.050800X-0.800100X-0.800100X0.800100X-0.800100X0.800100X0.800100X-0.800100X0.800100X0*%
%ADD15RoundRect,0.101600X-0.500000X0.500000X-0.500000X-0.500000X0.500000X-0.500000X0.500000X0.500000X0*%
%ADD16RoundRect,0.101600X0.762000X0.762000X-0.762000X0.762000X-0.762000X-0.762000X0.762000X-0.762000X0*%
%ADD17RoundRect,0.101600X-0.700000X0.700000X-0.700000X-0.700000X0.700000X-0.700000X0.700000X0.700000X0*%
%ADD18RoundRect,0.101600X0.650000X0.650000X-0.650000X0.650000X-0.650000X-0.650000X0.650000X-0.650000X0*%
%ADD19RoundRect,0.101600X-0.700000X-0.699950X0.700000X-0.699950X0.700000X0.699950X-0.700000X0.699950X0*%
%ADD20RoundRect,0.101600X0.700000X0.700000X-0.700000X0.700000X-0.700000X-0.700000X0.700000X-0.700000X0*%
%ADD21RoundRect,0.101600X-0.762000X-0.762000X0.762000X-0.762000X0.762000X0.762000X-0.762000X0.762000X0*%
%ADD22RoundRect,0.050800X-0.500000X-0.550000X0.500000X-0.550000X0.500000X0.550000X-0.500000X0.550000X0*%
%ADD23RoundRect,0.101600X0.650000X0.650050X-0.650000X0.650050X-0.650000X-0.650050X0.650000X-0.650050X0*%
%ADD24RoundRect,0.050800X0.800000X-0.800000X0.800000X0.800000X-0.800000X0.800000X-0.800000X-0.800000X0*%
G04 APERTURE END LIST*
D10*
%TO.C,WP47*%
X132202700Y-142091000D03*
%TD*%
D11*
%TO.C,TP_MODE2*%
X178749900Y-154749900D03*
%TD*%
D12*
%TO.C,R1*%
X114544500Y-154520700D03*
X124704500Y-154520700D03*
%TD*%
D13*
%TO.C,R3*%
X189592900Y-133079300D03*
X179432900Y-133079300D03*
%TD*%
D14*
%TO.C,TP_CLOCK_Y_*%
X121839900Y-124749900D03*
%TD*%
%TO.C,TP_RESET*%
X124379900Y-124749900D03*
%TD*%
D15*
%TO.C,WP24*%
X134202900Y-146091000D03*
%TD*%
D13*
%TO.C,TP_GEAR*%
X142996600Y-151217800D03*
%TD*%
D16*
%TO.C,C-MAIN*%
X126781500Y-133791300D03*
X124241500Y-133791300D03*
%TD*%
D11*
%TO.C,TP_+5V*%
X175000100Y-122000100D03*
%TD*%
D17*
%TO.C,TP_TRIM*%
X111000000Y-108999900D03*
%TD*%
D18*
%TO.C,WP50*%
X132202700Y-148091000D03*
%TD*%
%TO.C,WP45*%
X132202700Y-138091000D03*
%TD*%
D16*
%TO.C,C1*%
X112243800Y-118749200D03*
X112243800Y-123749200D03*
%TD*%
D14*
%TO.C,TP_AREF*%
X119290000Y-117249800D03*
%TD*%
D19*
%TO.C,TP_+5V*%
X137250100Y-85000000D03*
%TD*%
D11*
%TO.C,TP_GND*%
X137250100Y-110999900D03*
%TD*%
D13*
%TO.C,TP_+5V*%
X110750000Y-141500000D03*
%TD*%
D10*
%TO.C,WP48*%
X132202700Y-144091000D03*
%TD*%
D14*
%TO.C,TP_Pad_gge45412*%
X129459900Y-124749900D03*
%TD*%
D13*
%TO.C,TP_+5V*%
X142996600Y-143217800D03*
%TD*%
D11*
%TO.C,TP_GND*%
X183000100Y-122000100D03*
%TD*%
D14*
%TO.C,TP_LATCH_G_*%
X119299900Y-124749900D03*
%TD*%
D20*
%TO.C,TP_TRIM*%
X161000100Y-121500000D03*
%TD*%
D10*
%TO.C,WP53*%
X134202700Y-150091000D03*
%TD*%
%TO.C,WP43*%
X134202700Y-140090800D03*
%TD*%
D21*
%TO.C,R2*%
X190580200Y-141415600D03*
X190580200Y-151575600D03*
%TD*%
D22*
%TO.C,AREF*%
X119450100Y-114750000D03*
X121050000Y-114750000D03*
%TD*%
D14*
%TO.C,TP_GND*%
X116750000Y-117249800D03*
%TD*%
D18*
%TO.C,WP51*%
X132202700Y-150091000D03*
%TD*%
D11*
%TO.C,TP_MODE1*%
X178749900Y-135999800D03*
%TD*%
D18*
%TO.C,WP52*%
X132202700Y-152091000D03*
%TD*%
D14*
%TO.C,TP_SDA*%
X131999900Y-124749900D03*
%TD*%
D15*
%TO.C,WP38*%
X134202900Y-148091000D03*
%TD*%
D14*
%TO.C,TP_AXIS3*%
X126910000Y-117249800D03*
%TD*%
D23*
%TO.C,WP46*%
X132202700Y-140090800D03*
%TD*%
D24*
%TO.C,U4*%
X153811400Y-135691000D03*
X156351400Y-135691000D03*
X158891400Y-135691000D03*
X161431400Y-135691000D03*
X163971400Y-135691000D03*
X166511400Y-135691000D03*
X169051400Y-135691000D03*
X171591400Y-135691000D03*
X171591400Y-128071000D03*
X169051400Y-128071000D03*
X166511400Y-128071000D03*
X163971400Y-128071000D03*
X161431400Y-128071000D03*
X158891400Y-128071000D03*
X156351400Y-128071000D03*
X153811400Y-128071000D03*
%TD*%
D13*
%TO.C,R4*%
X171342000Y-124079100D03*
X161182000Y-124079100D03*
%TD*%
D21*
%TO.C,C4*%
X150006000Y-134500500D03*
X150006000Y-129500800D03*
%TD*%
D14*
%TO.C,TP_DATA_P_*%
X126919900Y-124749900D03*
%TD*%
%TO.C,TP_+5V*%
X116759900Y-124749900D03*
%TD*%
D17*
%TO.C,TP_RESETTRIM*%
X111000000Y-90999900D03*
%TD*%
D11*
%TO.C,TP_+5V*%
X179000100Y-69000000D03*
%TD*%
D14*
%TO.C,TP_SCL*%
X129450000Y-117249800D03*
%TD*%
D11*
%TO.C,TP_GND*%
X152999900Y-69000000D03*
%TD*%
D14*
%TO.C,TP_AXIS2*%
X124370000Y-117249800D03*
%TD*%
D11*
%TO.C,TP_AXIS3*%
X179000100Y-122000100D03*
%TD*%
D17*
%TO.C,TP_+5V*%
X111000000Y-83000000D03*
%TD*%
D14*
%TO.C,TP_AXIS1*%
X121830000Y-117249800D03*
%TD*%
D11*
%TO.C,TP_+5V*%
X185999800Y-144500000D03*
%TD*%
D10*
%TO.C,WP49*%
X132202700Y-146091000D03*
%TD*%
D11*
%TO.C,TP_AXIS1*%
X166000100Y-64000000D03*
%TD*%
D15*
%TO.C,WP11*%
X134202900Y-142091000D03*
%TD*%
D13*
%TO.C,R6*%
X124839700Y-76326700D03*
X114679700Y-76326700D03*
%TD*%
D12*
%TO.C,R1*%
X144587700Y-155315200D03*
X154747700Y-155315200D03*
%TD*%
D15*
%TO.C,WP25*%
X134202900Y-144091000D03*
%TD*%
D10*
%TO.C,WP44*%
X134202700Y-138091000D03*
%TD*%
D20*
%TO.C,TP_+5V*%
X151999900Y-121500000D03*
%TD*%
D13*
%TO.C,TP_LIGHTS*%
X110750000Y-149499900D03*
%TD*%
D11*
%TO.C,TP_AXIS2*%
X132250100Y-97999900D03*
%TD*%
D17*
%TO.C,TP_+5V*%
X111000000Y-100999900D03*
%TD*%
D10*
%TO.C,WP39*%
X134202700Y-152091000D03*
%TD*%
D14*
%TO.C,TP_CRUISE*%
X131990000Y-117249800D03*
%TD*%
M02*
