M48
; DRILL file KiCad 10.0.6 date 2026-09-23T18:37:28
; FORMAT={-:-/ absolute / metric / decimal}
; #@! TF.CreationDate,2026-09-23T18:37:28+08:00
; #@! TF.GenerationSoftware,Kicad,Pcbnew,10.0.6
; #@! TF.FileFunction,Plated,1,2,PTH
FMAT,2
METRIC
; #@! TA.AperFunction,Plated,PTH,ViaDrill
T1C0.305
; #@! TA.AperFunction,Plated,PTH,ViaDrill
T2C0.305
; #@! TA.AperFunction,Plated,PTH,ComponentDrill
T3C0.670
; #@! TA.AperFunction,Plated,PTH,ComponentDrill
T4C0.914
; #@! TA.AperFunction,Plated,PTH,ComponentDrill
T5C1.100
%
G90
G05
T1
X106.059Y-137.449
X108.008Y-72.346
X117.5Y-78.251
X169.75Y-64.75
X191.742Y-72.096
X193.972Y-137.534
T2
X179.0Y-97.751
T3
X117.25Y-112.737
X117.25Y-114.737
X119.25Y-112.737
X119.25Y-114.737
X121.25Y-112.737
X121.25Y-114.737
X123.25Y-112.737
X123.25Y-114.737
X125.25Y-112.737
X125.25Y-114.737
X127.25Y-112.737
X127.25Y-114.737
X129.25Y-112.737
X129.25Y-114.737
X131.25Y-112.737
X131.25Y-114.737
T4
X111.5Y-121.23
X111.5Y-123.77
X116.929Y-130.576
X119.0Y-135.5
X127.0Y-135.5
X127.089Y-130.576
X134.929Y-130.576
X137.0Y-135.5
X145.0Y-135.5
X145.089Y-130.576
X148.22Y-103.63
X148.22Y-118.87
X150.76Y-103.63
X150.76Y-118.87
X153.3Y-103.63
X153.3Y-118.87
X153.329Y-130.576
X155.4Y-135.5
X155.84Y-103.63
X155.84Y-118.87
X158.38Y-103.63
X158.38Y-118.87
X160.92Y-103.63
X160.92Y-118.87
X163.4Y-135.5
X163.46Y-103.63
X163.46Y-118.87
X163.489Y-130.576
X166.0Y-103.63
X166.0Y-118.87
X168.54Y-103.63
X168.54Y-118.87
X171.08Y-103.63
X171.08Y-118.87
X171.329Y-130.576
X173.4Y-135.5
X173.62Y-103.63
X173.62Y-118.87
X176.16Y-103.63
X176.16Y-118.87
X178.7Y-103.63
X178.7Y-118.87
X181.24Y-103.63
X181.24Y-118.87
X181.4Y-135.5
X181.489Y-130.576
X183.78Y-103.63
X183.78Y-118.87
T5
X117.632Y-69.983
X120.172Y-69.983
X122.712Y-69.983
X125.252Y-69.983
X127.792Y-69.983
X130.332Y-69.983
X132.872Y-69.983
X135.412Y-69.983
X137.952Y-69.983
X140.492Y-69.983
X143.032Y-69.983
X145.572Y-69.983
X148.112Y-69.983
X150.652Y-69.983
X153.192Y-69.983
X155.732Y-69.983
X158.272Y-69.983
X160.812Y-69.983
X163.352Y-69.983
X165.892Y-69.983
M30
