%TF.GenerationSoftware,KiCad,Pcbnew,10.0.6*%
%TF.CreationDate,2026-09-23T18:38:44+08:00*%
%TF.ProjectId,Telemetry_Module,54656c65-6d65-4747-9279-5f4d6f64756c,1.7*%
%TF.SameCoordinates,Original*%
%TF.FileFunction,Copper,L2,Bot*%
%TF.FilePolarity,Positive*%
%FSLAX46Y46*%
G04 Gerber Fmt 4.6, Leading zero omitted, Abs format (unit mm)*
G04 Created by KiCad (PCBNEW 10.0.6) date 2026-09-23 18:38:44*
%MOMM*%
%LPD*%
G01*
G04 APERTURE LIST*
%TA.AperFunction,Conductor*%
%ADD10C,0.254000*%
%TD*%
%TA.AperFunction,ComponentPad*%
%ADD11R,1.700000X1.700000*%
%TD*%
%TA.AperFunction,ComponentPad*%
%ADD12R,1.000000X1.000000*%
%TD*%
%TA.AperFunction,ComponentPad*%
%ADD13R,0.999900X1.000000*%
%TD*%
%TA.AperFunction,ComponentPad*%
%ADD14R,1.300100X1.300000*%
%TD*%
%TA.AperFunction,ComponentPad*%
%ADD15R,1.524000X1.524000*%
%TD*%
%TA.AperFunction,ComponentPad*%
%ADD16R,1.300000X1.300000*%
%TD*%
%TA.AperFunction,ComponentPad*%
%ADD17O,1.524000X1.524000*%
%TD*%
%TA.AperFunction,ViaPad*%
%ADD18C,0.609600*%
%TD*%
%TA.AperFunction,ViaPad*%
%ADD19C,0.610000*%
%TD*%
G04 APERTURE END LIST*
%TO.N,S$1645*%
D10*
X105088400Y-67182800D02*
G75*
G02*
X103109000Y-69246800I920600J-2864000D01*
G01*
%TO.N,S$16481*%
X108943100Y-134649100D02*
G75*
G02*
X103174300Y-134649100I-2884400J0D01*
G01*
X103174300Y-134649100D02*
G75*
G02*
X108943100Y-134649100I2884400J0D01*
G01*
%TO.N,S$16*%
X196876100Y-134649100D02*
G75*
G02*
X191107300Y-134649100I-2884400J0D01*
G01*
X191107300Y-134649100D02*
G75*
G02*
X196876100Y-134649100I2884400J0D01*
G01*
%TO.N,S$164*%
X196805100Y-69176200D02*
G75*
G02*
X194741092Y-67196729I-2864000J-920500D01*
G01*
%TD*%
D11*
%TO.P,TP_GND,21*%
%TO.N,GND*%
X165891900Y-69983000D03*
%TD*%
D12*
%TO.P,WP14,1*%
%TO.N,N/C*%
X127249900Y-112736700D03*
%TD*%
D13*
%TO.P,WP4,1*%
%TO.N,N/C*%
X125249900Y-114736700D03*
%TD*%
D14*
%TO.P,WP3,1*%
%TO.N,RESET*%
X127249900Y-114736700D03*
%TD*%
D12*
%TO.P,WP5,1*%
%TO.N,N/C*%
X123250200Y-114736700D03*
%TD*%
D11*
%TO.P,TP_Pad_gge18922,25*%
%TO.N,N/C*%
X140491900Y-69983000D03*
%TD*%
D12*
%TO.P,WP11,1*%
%TO.N,N/C*%
X121249800Y-112736700D03*
%TD*%
%TO.P,WP6,1*%
%TO.N,N/C*%
X121249900Y-114736700D03*
%TD*%
D11*
%TO.P,TP_GND,16*%
%TO.N,GND*%
X117631900Y-69983000D03*
%TD*%
D15*
%TO.P,R2,1*%
%TO.N,T2*%
X145088800Y-130576000D03*
%TO.P,R2,2*%
%TO.N,GND*%
X134928800Y-130576000D03*
%TD*%
D16*
%TO.P,WP8,1*%
%TO.N,GND*%
X117250200Y-114736700D03*
%TD*%
D12*
%TO.P,WP10,1*%
%TO.N,N/C*%
X119250200Y-112736700D03*
%TD*%
D15*
%TO.P,TP_T2,*%
%TO.N,T2*%
X144999900Y-135500000D03*
%TD*%
D11*
%TO.P,TP_Pad_gge18982,29*%
%TO.N,N/C*%
X150651900Y-69983000D03*
%TD*%
D12*
%TO.P,WP15,1*%
%TO.N,N/C*%
X129250200Y-112736700D03*
%TD*%
D11*
%TO.P,TP_Pad_gge18733,19*%
%TO.N,N/C*%
X160811900Y-69983000D03*
%TD*%
D15*
%TO.P,R4,1*%
%TO.N,T4*%
X181488700Y-130576000D03*
%TO.P,R4,2*%
%TO.N,GND*%
X171328700Y-130576000D03*
%TD*%
D11*
%TO.P,TP_+5V,20*%
%TO.N,+5V*%
X163351900Y-69983000D03*
%TD*%
%TO.P,TP_Pad_gge18877,22*%
%TO.N,N/C*%
X132871900Y-69983000D03*
%TD*%
%TO.P,TP_R_W,17*%
%TO.N,R/W*%
X155731900Y-69983000D03*
%TD*%
%TO.P,TP_Pad_gge18847,20*%
%TO.N,N/C*%
X127791900Y-69983000D03*
%TD*%
D15*
%TO.P,TP_+5V,*%
%TO.N,+5V*%
X136999900Y-135500000D03*
%TD*%
D11*
%TO.P,TP_E,30*%
%TO.N,E*%
X153191900Y-69983000D03*
%TD*%
D12*
%TO.P,WP16,1*%
%TO.N,N/C*%
X131249900Y-112736700D03*
%TD*%
D15*
%TO.P,C-MAIN,1*%
%TO.N,+5V*%
X111500100Y-123770000D03*
%TO.P,C-MAIN,2*%
%TO.N,GND*%
X111500100Y-121230000D03*
%TD*%
D17*
%TO.P,ARDUINO NANO,1*%
%TO.N,N/C*%
X148219900Y-118870100D03*
%TO.P,ARDUINO NANO,2*%
X150759900Y-118870100D03*
%TO.P,ARDUINO NANO,3*%
X153299900Y-118870100D03*
D15*
%TO.P,ARDUINO NANO,4*%
%TO.N,GND*%
X155839900Y-118870100D03*
D17*
%TO.P,ARDUINO NANO,5*%
%TO.N,N/C*%
X158379900Y-118870100D03*
%TO.P,ARDUINO NANO,6*%
X160919900Y-118870100D03*
%TO.P,ARDUINO NANO,7*%
X163459900Y-118870100D03*
%TO.P,ARDUINO NANO,8*%
X165999900Y-118870100D03*
D15*
%TO.P,ARDUINO NANO,9*%
%TO.N,T1*%
X168539900Y-118870100D03*
%TO.P,ARDUINO NANO,10*%
%TO.N,T2*%
X171079900Y-118870100D03*
%TO.P,ARDUINO NANO,11*%
%TO.N,T3*%
X173619900Y-118870100D03*
%TO.P,ARDUINO NANO,12*%
%TO.N,T4*%
X176159900Y-118870100D03*
%TO.P,ARDUINO NANO,13*%
%TO.N,RS*%
X178699900Y-118870100D03*
%TO.P,ARDUINO NANO,14*%
%TO.N,E*%
X181239900Y-118870100D03*
D17*
%TO.P,ARDUINO NANO,15*%
%TO.N,N/C*%
X183779900Y-118870100D03*
D15*
%TO.P,ARDUINO NANO,16*%
%TO.N,R/W*%
X183779900Y-103630100D03*
%TO.P,ARDUINO NANO,17*%
%TO.N,3.3V*%
X181239900Y-103630100D03*
D17*
%TO.P,ARDUINO NANO,18*%
%TO.N,N/C*%
X178699900Y-103630100D03*
%TO.P,ARDUINO NANO,19*%
X176159900Y-103630100D03*
%TO.P,ARDUINO NANO,20*%
X173619900Y-103630100D03*
%TO.P,ARDUINO NANO,21*%
X171079900Y-103630100D03*
%TO.P,ARDUINO NANO,22*%
X168539900Y-103630100D03*
D15*
%TO.P,ARDUINO NANO,23*%
%TO.N,SDA*%
X165999900Y-103630100D03*
%TO.P,ARDUINO NANO,24*%
%TO.N,SCL*%
X163459900Y-103630100D03*
D17*
%TO.P,ARDUINO NANO,25*%
%TO.N,N/C*%
X160919900Y-103630100D03*
%TO.P,ARDUINO NANO,26*%
X158379900Y-103630100D03*
D15*
%TO.P,ARDUINO NANO,27*%
%TO.N,+5V*%
X155839900Y-103630100D03*
%TO.P,ARDUINO NANO,28*%
%TO.N,RESET*%
X153299900Y-103630100D03*
%TO.P,ARDUINO NANO,29*%
%TO.N,GND*%
X150759900Y-103630100D03*
D17*
%TO.P,ARDUINO NANO,30*%
%TO.N,N/C*%
X148219900Y-103630100D03*
%TD*%
D16*
%TO.P,WP7,1*%
%TO.N,+5V*%
X119250200Y-114736700D03*
%TD*%
D11*
%TO.P,TP_Pad_gge18937,26*%
%TO.N,N/C*%
X143031900Y-69983000D03*
%TD*%
D12*
%TO.P,WP9,1*%
%TO.N,N/C*%
X117250200Y-112736700D03*
%TD*%
D15*
%TO.P,TP_+5V,*%
%TO.N,+5V*%
X173399900Y-135500000D03*
%TD*%
D11*
%TO.P,TP_Pad_gge18892,23*%
%TO.N,N/C*%
X135411900Y-69983000D03*
%TD*%
D15*
%TO.P,TP_T3,*%
%TO.N,T3*%
X163399900Y-135500000D03*
%TD*%
%TO.P,R3,1*%
%TO.N,T3*%
X163488800Y-130576000D03*
%TO.P,R3,2*%
%TO.N,GND*%
X153328800Y-130576000D03*
%TD*%
%TO.P,TP_T1,*%
%TO.N,T1*%
X126999900Y-135500000D03*
%TD*%
%TO.P,R1,1*%
%TO.N,T1*%
X127088900Y-130576000D03*
%TO.P,R1,2*%
%TO.N,GND*%
X116928900Y-130576000D03*
%TD*%
%TO.P,TP_T4,*%
%TO.N,T4*%
X181399900Y-135500000D03*
%TD*%
D12*
%TO.P,WP12,1*%
%TO.N,N/C*%
X123250100Y-112736700D03*
%TD*%
D11*
%TO.P,TP_Pad_gge18907,24*%
%TO.N,N/C*%
X137951900Y-69983000D03*
%TD*%
D12*
%TO.P,WP13,1*%
%TO.N,N/C*%
X125249900Y-112736700D03*
%TD*%
D11*
%TO.P,TP_Pad_gge18832,19*%
%TO.N,N/C*%
X125251900Y-69983000D03*
%TD*%
D14*
%TO.P,WP2,1*%
%TO.N,SCL*%
X129250200Y-114736700D03*
%TD*%
D16*
%TO.P,WP1,1*%
%TO.N,SDA*%
X131249900Y-114736700D03*
%TD*%
D11*
%TO.P,TP_GND,21*%
%TO.N,GND*%
X130331900Y-69983000D03*
%TD*%
%TO.P,TP_Pad_gge18817,18*%
%TO.N,N/C*%
X122711900Y-69983000D03*
%TD*%
%TO.P,TP_Pad_gge18952,27*%
%TO.N,N/C*%
X145571900Y-69983000D03*
%TD*%
%TO.P,TP_RS,18*%
%TO.N,RS*%
X158271900Y-69983000D03*
%TD*%
%TO.P,TP_+5V,17*%
%TO.N,+5V*%
X120171900Y-69983000D03*
%TD*%
D15*
%TO.P,TP_+5V,*%
%TO.N,+5V*%
X119000000Y-135500000D03*
%TD*%
%TO.P,TP_+5V,*%
%TO.N,+5V*%
X155399900Y-135500000D03*
%TD*%
D11*
%TO.P,TP_Pad_gge18967,28*%
%TO.N,N/C*%
X148111900Y-69983000D03*
%TD*%
D18*
%TO.N,3.3V*%
X169749900Y-64750100D03*
D19*
%TO.N,S$1645*%
X108008100Y-72346200D03*
%TO.N,S$16481*%
X106058900Y-137449200D03*
%TO.N,S$16*%
X193972100Y-137533500D03*
%TO.N,S$164*%
X191741800Y-72096200D03*
D18*
%TO.N,S$22783*%
X117500300Y-78250700D03*
D19*
%TO.N,S$20145*%
X179000100Y-97751000D03*
%TD*%
%TO.N,T2*%
D10*
X144999900Y-135499800D02*
X144999900Y-130664700D01*
X144999900Y-130664700D02*
X145088700Y-130575900D01*
%TO.N,T4*%
X181399900Y-135499800D02*
X181399900Y-130664700D01*
X181399900Y-130664700D02*
X181488700Y-130575900D01*
%TO.N,T1*%
X127000000Y-135499800D02*
X127000000Y-130664700D01*
X127000000Y-130664700D02*
X127088800Y-130575900D01*
%TO.N,T3*%
X163399900Y-135499800D02*
X163399900Y-130664700D01*
X163399900Y-130664700D02*
X163488700Y-130575900D01*
%TO.N,RS*%
X179250500Y-66250900D02*
X162003900Y-66250900D01*
X178699400Y-113550800D02*
X194000300Y-98249900D01*
X194000300Y-98249900D02*
X194000300Y-81000700D01*
X194000300Y-81000700D02*
X179250500Y-66250900D01*
X178699400Y-118869600D02*
X178699400Y-113550800D01*
X162003900Y-66250900D02*
X158271900Y-69983000D01*
%TO.N,S$1645*%
X105088400Y-67182800D02*
X103109000Y-69162200D01*
X103109000Y-69162200D02*
X103109000Y-69246800D01*
%TO.N,S$164*%
X194741100Y-67196700D02*
X196720500Y-69176200D01*
X196720500Y-69176200D02*
X196805100Y-69176200D01*
%TO.N,S$22783*%
X117500300Y-99250500D02*
X147249900Y-99250500D01*
X117500300Y-78250500D02*
X117500300Y-99250500D01*
X147249900Y-78250500D02*
X117500300Y-78250500D01*
X147249900Y-99250500D02*
X147249900Y-78250500D01*
%TO.N,S$20145*%
X179000100Y-85501100D02*
X179000100Y-97751100D01*
X189000000Y-97751100D02*
X189000000Y-85501100D01*
X179000100Y-97751100D02*
X189000000Y-97751100D01*
X189000000Y-85501100D02*
X179000100Y-85501100D01*
%TD*%
%TA.AperFunction,Conductor*%
%TO.N,GND*%
G36*
X188808254Y-60520502D02*
G01*
X188829268Y-60537444D01*
X194881896Y-66595409D01*
X194915893Y-66657736D01*
X194910797Y-66728550D01*
X194868226Y-66785366D01*
X194801694Y-66810148D01*
X194759214Y-66805917D01*
X194669463Y-66781126D01*
X194365306Y-66731003D01*
X194315086Y-66722727D01*
X194207517Y-66716538D01*
X193956532Y-66702097D01*
X193956530Y-66702096D01*
X193715597Y-66713760D01*
X193597791Y-66719464D01*
X193597787Y-66719464D01*
X193597778Y-66719465D01*
X193242905Y-66774634D01*
X192895824Y-66866994D01*
X192560442Y-66995508D01*
X192240525Y-67158732D01*
X191939646Y-67354842D01*
X191661165Y-67581644D01*
X191661159Y-67581650D01*
X191408209Y-67836598D01*
X191408204Y-67836603D01*
X191183597Y-68116860D01*
X190989859Y-68419271D01*
X190829154Y-68740470D01*
X190703499Y-69076275D01*
X190703285Y-69076846D01*
X190613659Y-69424637D01*
X190589421Y-69589054D01*
X190561278Y-69779954D01*
X190546732Y-70138812D01*
X190570182Y-70497188D01*
X190570184Y-70497204D01*
X190631367Y-70851103D01*
X190631368Y-70851110D01*
X190724886Y-71179986D01*
X190729599Y-71196560D01*
X190863780Y-71529707D01*
X191020718Y-71824829D01*
X191032411Y-71846818D01*
X191032413Y-71846822D01*
X191160675Y-72036494D01*
X191182266Y-72104129D01*
X191182300Y-72107076D01*
X191182300Y-72169860D01*
X191209005Y-72269524D01*
X191220430Y-72312163D01*
X191294085Y-72439737D01*
X191294093Y-72439747D01*
X191398252Y-72543906D01*
X191398257Y-72543910D01*
X191398259Y-72543912D01*
X191398260Y-72543913D01*
X191398262Y-72543914D01*
X191525836Y-72617569D01*
X191525838Y-72617569D01*
X191525841Y-72617571D01*
X191668140Y-72655700D01*
X191668142Y-72655700D01*
X191676329Y-72656778D01*
X191676079Y-72658669D01*
X191734086Y-72675702D01*
X191743083Y-72682057D01*
X191982779Y-72867569D01*
X192008326Y-72887341D01*
X192313986Y-73075923D01*
X192637860Y-73231156D01*
X192976321Y-73351302D01*
X192976328Y-73351303D01*
X192976329Y-73351304D01*
X193150772Y-73393116D01*
X193325583Y-73435016D01*
X193681734Y-73481361D01*
X193841313Y-73485119D01*
X194040778Y-73489818D01*
X194040781Y-73489817D01*
X194040788Y-73489818D01*
X194040797Y-73489817D01*
X194040803Y-73489817D01*
X194216023Y-73475362D01*
X194398726Y-73460292D01*
X194575509Y-73426632D01*
X194751522Y-73393119D01*
X194751528Y-73393117D01*
X194751541Y-73393115D01*
X195095285Y-73289037D01*
X195426108Y-73149225D01*
X195558494Y-73075919D01*
X195740302Y-72975247D01*
X195768525Y-72955456D01*
X196034367Y-72769038D01*
X196304995Y-72532919D01*
X196549161Y-72269529D01*
X196764133Y-71981816D01*
X196947503Y-71673001D01*
X197097220Y-71346541D01*
X197211608Y-71006090D01*
X197289386Y-70655459D01*
X197325029Y-70339794D01*
X197329681Y-70298592D01*
X197329681Y-70298589D01*
X197329683Y-70298573D01*
X197332049Y-69939427D01*
X197296456Y-69582041D01*
X197232727Y-69275710D01*
X197238435Y-69204946D01*
X197281497Y-69148499D01*
X197348239Y-69124294D01*
X197417474Y-69140015D01*
X197445217Y-69160990D01*
X199452865Y-71170408D01*
X199462435Y-71179986D01*
X199496432Y-71242313D01*
X199499300Y-71269042D01*
X199499401Y-109497542D01*
X199499244Y-109500000D01*
X199499402Y-109572020D01*
X199499402Y-109644187D01*
X199499567Y-109646649D01*
X199502696Y-111066905D01*
X199502695Y-111067761D01*
X199501392Y-111351871D01*
X199501052Y-111356887D01*
X199501050Y-111426419D01*
X199501049Y-111426990D01*
X199500729Y-111496903D01*
X199501046Y-111501923D01*
X199499410Y-149740380D01*
X199479405Y-149808500D01*
X199462528Y-149829448D01*
X194647177Y-154647209D01*
X194647131Y-154647255D01*
X189829462Y-159462419D01*
X189767141Y-159496427D01*
X189740390Y-159499300D01*
X110259397Y-159499300D01*
X110191276Y-159479298D01*
X110170303Y-159462397D01*
X105355171Y-154647457D01*
X105355169Y-154647455D01*
X100537404Y-149829592D01*
X100503379Y-149767279D01*
X100500500Y-149740497D01*
X100500500Y-138435046D01*
X115799394Y-138435046D01*
X115799400Y-138499761D01*
X115799400Y-138500938D01*
X115799400Y-152433808D01*
X115799400Y-152565592D01*
X115824367Y-152658773D01*
X115833507Y-152692883D01*
X115833510Y-152692890D01*
X115899397Y-152807010D01*
X115899405Y-152807020D01*
X115992579Y-152900194D01*
X115992584Y-152900198D01*
X115992586Y-152900200D01*
X116106714Y-152966092D01*
X116234008Y-153000200D01*
X116234010Y-153000200D01*
X129365890Y-153000200D01*
X129365892Y-153000200D01*
X129493186Y-152966092D01*
X129607314Y-152900200D01*
X129700500Y-152807014D01*
X129766392Y-152692886D01*
X129800500Y-152565592D01*
X129800500Y-138574339D01*
X129800505Y-138574250D01*
X129800504Y-138565756D01*
X129800505Y-138565754D01*
X129800500Y-138499862D01*
X129800500Y-138434946D01*
X133999394Y-138434946D01*
X133999400Y-138499761D01*
X133999400Y-138500838D01*
X133999400Y-152433808D01*
X133999400Y-152565592D01*
X134024367Y-152658773D01*
X134033507Y-152692883D01*
X134033510Y-152692890D01*
X134099397Y-152807010D01*
X134099405Y-152807020D01*
X134192579Y-152900194D01*
X134192584Y-152900198D01*
X134192586Y-152900200D01*
X134306714Y-152966092D01*
X134434008Y-153000200D01*
X134434010Y-153000200D01*
X147565890Y-153000200D01*
X147565892Y-153000200D01*
X147693186Y-152966092D01*
X147807314Y-152900200D01*
X147900500Y-152807014D01*
X147966392Y-152692886D01*
X148000500Y-152565592D01*
X148000500Y-138574238D01*
X148000505Y-138574150D01*
X148000504Y-138565656D01*
X148000505Y-138565654D01*
X148000500Y-138499762D01*
X148000500Y-138434942D01*
X152099394Y-138434942D01*
X152099400Y-138499761D01*
X152099400Y-138500838D01*
X152099400Y-152433808D01*
X152099400Y-152565592D01*
X152124367Y-152658773D01*
X152133507Y-152692883D01*
X152133510Y-152692890D01*
X152199397Y-152807010D01*
X152199405Y-152807020D01*
X152292579Y-152900194D01*
X152292584Y-152900198D01*
X152292586Y-152900200D01*
X152406714Y-152966092D01*
X152534008Y-153000200D01*
X152534010Y-153000200D01*
X165665790Y-153000200D01*
X165665792Y-153000200D01*
X165793086Y-152966092D01*
X165907214Y-152900200D01*
X166000400Y-152807014D01*
X166066292Y-152692886D01*
X166100400Y-152565592D01*
X166100400Y-138574238D01*
X166100405Y-138574149D01*
X166100404Y-138565655D01*
X166100405Y-138565653D01*
X166100400Y-138499761D01*
X166100400Y-138434942D01*
X170199394Y-138434942D01*
X170199400Y-138499761D01*
X170199400Y-138500838D01*
X170199400Y-152433808D01*
X170199400Y-152565592D01*
X170224367Y-152658773D01*
X170233507Y-152692883D01*
X170233510Y-152692890D01*
X170299397Y-152807010D01*
X170299405Y-152807020D01*
X170392579Y-152900194D01*
X170392584Y-152900198D01*
X170392586Y-152900200D01*
X170506714Y-152966092D01*
X170634008Y-153000200D01*
X170634010Y-153000200D01*
X183765790Y-153000200D01*
X183765792Y-153000200D01*
X183893086Y-152966092D01*
X184007214Y-152900200D01*
X184100400Y-152807014D01*
X184166292Y-152692886D01*
X184200400Y-152565592D01*
X184200400Y-138574238D01*
X184200405Y-138574149D01*
X184200404Y-138565655D01*
X184200405Y-138565653D01*
X184200400Y-138499761D01*
X184200400Y-138433908D01*
X184200398Y-138433901D01*
X184200395Y-138433878D01*
X184200395Y-138433870D01*
X184183614Y-138371262D01*
X184166292Y-138306614D01*
X184166282Y-138306596D01*
X184166277Y-138306578D01*
X184134206Y-138251040D01*
X184100400Y-138192486D01*
X184100385Y-138192471D01*
X184100376Y-138192455D01*
X184053779Y-138145865D01*
X184007214Y-138099300D01*
X184007213Y-138099299D01*
X184007211Y-138099297D01*
X184007183Y-138099275D01*
X183948592Y-138065454D01*
X183948585Y-138065450D01*
X183893066Y-138033396D01*
X183829975Y-138016497D01*
X183829967Y-138016492D01*
X183829967Y-138016495D01*
X183765782Y-137999297D01*
X183765758Y-137999294D01*
X183700744Y-137999300D01*
X183626338Y-137999300D01*
X183626246Y-137999305D01*
X170698979Y-138000300D01*
X170633989Y-138000300D01*
X170582634Y-138014063D01*
X170582629Y-138014065D01*
X170571362Y-138017085D01*
X170506714Y-138034408D01*
X170506696Y-138034417D01*
X170506678Y-138034423D01*
X170451140Y-138066493D01*
X170392586Y-138100300D01*
X170392571Y-138100314D01*
X170392555Y-138100324D01*
X170345965Y-138146920D01*
X170299400Y-138193486D01*
X170299390Y-138193502D01*
X170299376Y-138193517D01*
X170292926Y-138204691D01*
X170265557Y-138252102D01*
X170265554Y-138252107D01*
X170233497Y-138307631D01*
X170216597Y-138370724D01*
X170216595Y-138370731D01*
X170199398Y-138434914D01*
X170199394Y-138434942D01*
X166100400Y-138434942D01*
X166100400Y-138433908D01*
X166100395Y-138433889D01*
X166100395Y-138433870D01*
X166083614Y-138371262D01*
X166066292Y-138306614D01*
X166066282Y-138306596D01*
X166066277Y-138306578D01*
X166034206Y-138251040D01*
X166002592Y-138196283D01*
X166000518Y-138192690D01*
X166000404Y-138192490D01*
X166000381Y-138192460D01*
X165953779Y-138145865D01*
X165953779Y-138145864D01*
X165953775Y-138145861D01*
X165907214Y-138099300D01*
X165907213Y-138099299D01*
X165907211Y-138099297D01*
X165907183Y-138099275D01*
X165848592Y-138065454D01*
X165848585Y-138065450D01*
X165793066Y-138033396D01*
X165729975Y-138016497D01*
X165729967Y-138016492D01*
X165729967Y-138016495D01*
X165665782Y-137999297D01*
X165665758Y-137999294D01*
X165600744Y-137999300D01*
X165526338Y-137999300D01*
X165526246Y-137999305D01*
X152598979Y-138000300D01*
X152533989Y-138000300D01*
X152482634Y-138014063D01*
X152482629Y-138014065D01*
X152471362Y-138017085D01*
X152406714Y-138034408D01*
X152406696Y-138034417D01*
X152406678Y-138034423D01*
X152351140Y-138066493D01*
X152292586Y-138100300D01*
X152292571Y-138100314D01*
X152292555Y-138100324D01*
X152245965Y-138146920D01*
X152199400Y-138193486D01*
X152199390Y-138193502D01*
X152199376Y-138193517D01*
X152192926Y-138204691D01*
X152165557Y-138252102D01*
X152165554Y-138252107D01*
X152133497Y-138307631D01*
X152116597Y-138370724D01*
X152116595Y-138370731D01*
X152099398Y-138434914D01*
X152099394Y-138434942D01*
X148000500Y-138434942D01*
X148000500Y-138433908D01*
X148000495Y-138433889D01*
X148000495Y-138433870D01*
X147983714Y-138371262D01*
X147966392Y-138306614D01*
X147966382Y-138306596D01*
X147966377Y-138306578D01*
X147934306Y-138251040D01*
X147902692Y-138196283D01*
X147900618Y-138192690D01*
X147900504Y-138192490D01*
X147900481Y-138192460D01*
X147853879Y-138145865D01*
X147853879Y-138145864D01*
X147853875Y-138145861D01*
X147807314Y-138099300D01*
X147807313Y-138099299D01*
X147807311Y-138099297D01*
X147807283Y-138099275D01*
X147748692Y-138065454D01*
X147748685Y-138065450D01*
X147693166Y-138033396D01*
X147630075Y-138016497D01*
X147630067Y-138016492D01*
X147630067Y-138016495D01*
X147565882Y-137999297D01*
X147565858Y-137999294D01*
X147500844Y-137999300D01*
X147426438Y-137999300D01*
X147426346Y-137999305D01*
X134498979Y-138000300D01*
X134433989Y-138000300D01*
X134382634Y-138014063D01*
X134382629Y-138014065D01*
X134371362Y-138017085D01*
X134306714Y-138034408D01*
X134306696Y-138034417D01*
X134306678Y-138034423D01*
X134251140Y-138066493D01*
X134192586Y-138100300D01*
X134192571Y-138100314D01*
X134192555Y-138100324D01*
X134145965Y-138146920D01*
X134099400Y-138193486D01*
X134099390Y-138193502D01*
X134099376Y-138193517D01*
X134065554Y-138252107D01*
X134033508Y-138307614D01*
X134033502Y-138307632D01*
X134033493Y-138307650D01*
X134016165Y-138372336D01*
X134013145Y-138383603D01*
X134013144Y-138383608D01*
X133999399Y-138434910D01*
X133999394Y-138434946D01*
X129800500Y-138434946D01*
X129800500Y-138434008D01*
X129800495Y-138433989D01*
X129800495Y-138433970D01*
X129783714Y-138371362D01*
X129766392Y-138306714D01*
X129766382Y-138306696D01*
X129766377Y-138306678D01*
X129734306Y-138251140D01*
X129707489Y-138204691D01*
X129700618Y-138192790D01*
X129700504Y-138192590D01*
X129700481Y-138192560D01*
X129653879Y-138145965D01*
X129653879Y-138145964D01*
X129653875Y-138145961D01*
X129607314Y-138099400D01*
X129607313Y-138099399D01*
X129607307Y-138099393D01*
X129607288Y-138099378D01*
X129548692Y-138065554D01*
X129548685Y-138065550D01*
X129493166Y-138033496D01*
X129430075Y-138016597D01*
X129430067Y-138016592D01*
X129430067Y-138016595D01*
X129365882Y-137999397D01*
X129365858Y-137999394D01*
X129300844Y-137999400D01*
X129226438Y-137999400D01*
X129226346Y-137999405D01*
X116298979Y-138000400D01*
X116233989Y-138000400D01*
X116182634Y-138014163D01*
X116182629Y-138014165D01*
X116171362Y-138017185D01*
X116106714Y-138034508D01*
X116106696Y-138034517D01*
X116106678Y-138034523D01*
X116051140Y-138066593D01*
X115992586Y-138100400D01*
X115992571Y-138100414D01*
X115992555Y-138100424D01*
X115945965Y-138147020D01*
X115899400Y-138193586D01*
X115899390Y-138193602D01*
X115899376Y-138193617D01*
X115865554Y-138252207D01*
X115833508Y-138307714D01*
X115833502Y-138307732D01*
X115833493Y-138307750D01*
X115816165Y-138372436D01*
X115813145Y-138383703D01*
X115813144Y-138383708D01*
X115799399Y-138435010D01*
X115799394Y-138435046D01*
X100500500Y-138435046D01*
X100500500Y-134488650D01*
X102792800Y-134488650D01*
X102792800Y-134809549D01*
X102824250Y-135128870D01*
X102824253Y-135128890D01*
X102886851Y-135443595D01*
X102979998Y-135750666D01*
X102980001Y-135750674D01*
X103102801Y-136047136D01*
X103254067Y-136330135D01*
X103432337Y-136596936D01*
X103635908Y-136844989D01*
X103635925Y-136845007D01*
X103862792Y-137071874D01*
X103862810Y-137071891D01*
X104110859Y-137275459D01*
X104377667Y-137453734D01*
X104660664Y-137604999D01*
X104957124Y-137727798D01*
X104957129Y-137727799D01*
X104957133Y-137727801D01*
X105020721Y-137747090D01*
X105264194Y-137820946D01*
X105578915Y-137883548D01*
X105578929Y-137883549D01*
X105578933Y-137883550D01*
X105612040Y-137886810D01*
X105688431Y-137894333D01*
X105739079Y-137910606D01*
X105842941Y-137970571D01*
X105985240Y-138008700D01*
X105985242Y-138008700D01*
X106132558Y-138008700D01*
X106132560Y-138008700D01*
X106274859Y-137970571D01*
X106378804Y-137910557D01*
X106429447Y-137894286D01*
X106538485Y-137883548D01*
X106853206Y-137820946D01*
X107160276Y-137727798D01*
X107456736Y-137604999D01*
X107739733Y-137453734D01*
X108006541Y-137275459D01*
X108254590Y-137071891D01*
X108481491Y-136844990D01*
X108685059Y-136596941D01*
X108863334Y-136330133D01*
X109014599Y-136047136D01*
X109137398Y-135750676D01*
X109230546Y-135443606D01*
X109293148Y-135128885D01*
X109324600Y-134809543D01*
X109324600Y-134712930D01*
X117983500Y-134712930D01*
X117983500Y-136287063D01*
X117983501Y-136287073D01*
X117998265Y-136361300D01*
X118054516Y-136445484D01*
X118138697Y-136501733D01*
X118138699Y-136501734D01*
X118212933Y-136516500D01*
X119787066Y-136516499D01*
X119787069Y-136516498D01*
X119787073Y-136516498D01*
X119836326Y-136506701D01*
X119861301Y-136501734D01*
X119945484Y-136445484D01*
X120001734Y-136361301D01*
X120016500Y-136287067D01*
X120016499Y-134712934D01*
X120016499Y-134712933D01*
X120016499Y-134712931D01*
X120016499Y-134712930D01*
X125983400Y-134712930D01*
X125983400Y-136287063D01*
X125983401Y-136287073D01*
X125998165Y-136361300D01*
X126054416Y-136445484D01*
X126138597Y-136501733D01*
X126138599Y-136501734D01*
X126212833Y-136516500D01*
X127786966Y-136516499D01*
X127786969Y-136516498D01*
X127786973Y-136516498D01*
X127836226Y-136506701D01*
X127861201Y-136501734D01*
X127945384Y-136445484D01*
X128001634Y-136361301D01*
X128016400Y-136287067D01*
X128016399Y-134712934D01*
X128016399Y-134712933D01*
X128016399Y-134712931D01*
X128016399Y-134712930D01*
X135983400Y-134712930D01*
X135983400Y-136287063D01*
X135983401Y-136287073D01*
X135998165Y-136361300D01*
X136054416Y-136445484D01*
X136138597Y-136501733D01*
X136138599Y-136501734D01*
X136212833Y-136516500D01*
X137786966Y-136516499D01*
X137786969Y-136516498D01*
X137786973Y-136516498D01*
X137836226Y-136506701D01*
X137861201Y-136501734D01*
X137945384Y-136445484D01*
X138001634Y-136361301D01*
X138016400Y-136287067D01*
X138016399Y-134712934D01*
X138016399Y-134712933D01*
X138016399Y-134712931D01*
X138016399Y-134712930D01*
X143983400Y-134712930D01*
X143983400Y-136287063D01*
X143983401Y-136287073D01*
X143998165Y-136361300D01*
X144054416Y-136445484D01*
X144138597Y-136501733D01*
X144138599Y-136501734D01*
X144212833Y-136516500D01*
X145786966Y-136516499D01*
X145786969Y-136516498D01*
X145786973Y-136516498D01*
X145836226Y-136506701D01*
X145861201Y-136501734D01*
X145945384Y-136445484D01*
X146001634Y-136361301D01*
X146016400Y-136287067D01*
X146016399Y-134712934D01*
X146016399Y-134712933D01*
X146016399Y-134712931D01*
X146016399Y-134712930D01*
X154383400Y-134712930D01*
X154383400Y-136287063D01*
X154383401Y-136287073D01*
X154398165Y-136361300D01*
X154454416Y-136445484D01*
X154538597Y-136501733D01*
X154538599Y-136501734D01*
X154612833Y-136516500D01*
X156186966Y-136516499D01*
X156186969Y-136516498D01*
X156186973Y-136516498D01*
X156236226Y-136506701D01*
X156261201Y-136501734D01*
X156345384Y-136445484D01*
X156401634Y-136361301D01*
X156416400Y-136287067D01*
X156416399Y-134712934D01*
X156416399Y-134712933D01*
X156416399Y-134712931D01*
X156416399Y-134712930D01*
X162383400Y-134712930D01*
X162383400Y-136287063D01*
X162383401Y-136287073D01*
X162398165Y-136361300D01*
X162454416Y-136445484D01*
X162538597Y-136501733D01*
X162538599Y-136501734D01*
X162612833Y-136516500D01*
X164186966Y-136516499D01*
X164186969Y-136516498D01*
X164186973Y-136516498D01*
X164236226Y-136506701D01*
X164261201Y-136501734D01*
X164345384Y-136445484D01*
X164401634Y-136361301D01*
X164416400Y-136287067D01*
X164416399Y-134712934D01*
X164416399Y-134712933D01*
X164416399Y-134712931D01*
X164416399Y-134712930D01*
X172383400Y-134712930D01*
X172383400Y-136287063D01*
X172383401Y-136287073D01*
X172398165Y-136361300D01*
X172454416Y-136445484D01*
X172538597Y-136501733D01*
X172538599Y-136501734D01*
X172612833Y-136516500D01*
X174186966Y-136516499D01*
X174186969Y-136516498D01*
X174186973Y-136516498D01*
X174236226Y-136506701D01*
X174261201Y-136501734D01*
X174345384Y-136445484D01*
X174401634Y-136361301D01*
X174416400Y-136287067D01*
X174416399Y-134712934D01*
X174416399Y-134712933D01*
X174416399Y-134712931D01*
X174416399Y-134712930D01*
X180383400Y-134712930D01*
X180383400Y-136287063D01*
X180383401Y-136287073D01*
X180398165Y-136361300D01*
X180454416Y-136445484D01*
X180538597Y-136501733D01*
X180538599Y-136501734D01*
X180612833Y-136516500D01*
X182186966Y-136516499D01*
X182186969Y-136516498D01*
X182186973Y-136516498D01*
X182236226Y-136506701D01*
X182261201Y-136501734D01*
X182345384Y-136445484D01*
X182401634Y-136361301D01*
X182416400Y-136287067D01*
X182416399Y-134712934D01*
X182416398Y-134712931D01*
X182416398Y-134712926D01*
X182401634Y-134638699D01*
X182346086Y-134555566D01*
X182345384Y-134554515D01*
X182261202Y-134498266D01*
X182212860Y-134488650D01*
X190725800Y-134488650D01*
X190725800Y-134809549D01*
X190757250Y-135128870D01*
X190757253Y-135128890D01*
X190819851Y-135443595D01*
X190912998Y-135750666D01*
X190913001Y-135750674D01*
X191035801Y-136047136D01*
X191187067Y-136330135D01*
X191365337Y-136596936D01*
X191568908Y-136844989D01*
X191568925Y-136845007D01*
X191795792Y-137071874D01*
X191795810Y-137071891D01*
X192043859Y-137275459D01*
X192310667Y-137453734D01*
X192593664Y-137604999D01*
X192890124Y-137727798D01*
X192890129Y-137727799D01*
X192890133Y-137727801D01*
X192953721Y-137747090D01*
X193197194Y-137820946D01*
X193498121Y-137880804D01*
X193561031Y-137913711D01*
X193562578Y-137915231D01*
X193628559Y-137981212D01*
X193628560Y-137981213D01*
X193628562Y-137981214D01*
X193756136Y-138054869D01*
X193756138Y-138054869D01*
X193756141Y-138054871D01*
X193898440Y-138093000D01*
X193898442Y-138093000D01*
X194045758Y-138093000D01*
X194045760Y-138093000D01*
X194188059Y-138054871D01*
X194188062Y-138054869D01*
X194188063Y-138054869D01*
X194251850Y-138018041D01*
X194315641Y-137981212D01*
X194375069Y-137921782D01*
X194437381Y-137887758D01*
X194451799Y-137885486D01*
X194471485Y-137883548D01*
X194786206Y-137820946D01*
X195093276Y-137727798D01*
X195389736Y-137604999D01*
X195672733Y-137453734D01*
X195939541Y-137275459D01*
X196187590Y-137071891D01*
X196414491Y-136844990D01*
X196618059Y-136596941D01*
X196796334Y-136330133D01*
X196947599Y-136047136D01*
X197070398Y-135750676D01*
X197163546Y-135443606D01*
X197226148Y-135128885D01*
X197257600Y-134809543D01*
X197257600Y-134488657D01*
X197226148Y-134169315D01*
X197163546Y-133854594D01*
X197087908Y-133605248D01*
X197070401Y-133547533D01*
X197070398Y-133547525D01*
X197070398Y-133547524D01*
X196947599Y-133251064D01*
X196796334Y-132968067D01*
X196618059Y-132701259D01*
X196414491Y-132453210D01*
X196414474Y-132453192D01*
X196187607Y-132226325D01*
X196187589Y-132226308D01*
X195939536Y-132022737D01*
X195672735Y-131844467D01*
X195389736Y-131693201D01*
X195093274Y-131570401D01*
X195093266Y-131570398D01*
X194865543Y-131501320D01*
X194786206Y-131477254D01*
X194786202Y-131477253D01*
X194786195Y-131477251D01*
X194471490Y-131414653D01*
X194471485Y-131414652D01*
X194471480Y-131414651D01*
X194471470Y-131414650D01*
X194152149Y-131383200D01*
X194152143Y-131383200D01*
X193831257Y-131383200D01*
X193831250Y-131383200D01*
X193511929Y-131414650D01*
X193511916Y-131414651D01*
X193511915Y-131414652D01*
X193511912Y-131414652D01*
X193511909Y-131414653D01*
X193197204Y-131477251D01*
X192890133Y-131570398D01*
X192890125Y-131570401D01*
X192593663Y-131693201D01*
X192310664Y-131844467D01*
X192043863Y-132022737D01*
X191795810Y-132226308D01*
X191795792Y-132226325D01*
X191568925Y-132453192D01*
X191568908Y-132453210D01*
X191365337Y-132701263D01*
X191187067Y-132968064D01*
X191035801Y-133251063D01*
X190913001Y-133547525D01*
X190912998Y-133547533D01*
X190819851Y-133854604D01*
X190757253Y-134169309D01*
X190757250Y-134169329D01*
X190725800Y-134488650D01*
X182212860Y-134488650D01*
X182186969Y-134483500D01*
X182186967Y-134483500D01*
X181907400Y-134483500D01*
X181839279Y-134463498D01*
X181792786Y-134409842D01*
X181781400Y-134357500D01*
X181781400Y-131718499D01*
X181801402Y-131650378D01*
X181855058Y-131603885D01*
X181907400Y-131592499D01*
X182275764Y-131592499D01*
X182275766Y-131592499D01*
X182275769Y-131592498D01*
X182275772Y-131592498D01*
X182312363Y-131585219D01*
X182350001Y-131577734D01*
X182434184Y-131521484D01*
X182490434Y-131437301D01*
X182505200Y-131363067D01*
X182505199Y-129788934D01*
X182505198Y-129788930D01*
X182505198Y-129788926D01*
X182490434Y-129714699D01*
X182434183Y-129630515D01*
X182350002Y-129574266D01*
X182275767Y-129559500D01*
X180701636Y-129559500D01*
X180701626Y-129559501D01*
X180627399Y-129574265D01*
X180543215Y-129630516D01*
X180486966Y-129714697D01*
X180472200Y-129788930D01*
X180472200Y-131363063D01*
X180472201Y-131363073D01*
X180486965Y-131437300D01*
X180543216Y-131521484D01*
X180627397Y-131577733D01*
X180627399Y-131577734D01*
X180701633Y-131592500D01*
X180892400Y-131592499D01*
X180960520Y-131612501D01*
X181007013Y-131666156D01*
X181018400Y-131718499D01*
X181018400Y-134357500D01*
X180998398Y-134425621D01*
X180944742Y-134472114D01*
X180892400Y-134483500D01*
X180612836Y-134483500D01*
X180612826Y-134483501D01*
X180538599Y-134498265D01*
X180454415Y-134554516D01*
X180398166Y-134638697D01*
X180383400Y-134712930D01*
X174416399Y-134712930D01*
X174401634Y-134638699D01*
X174347079Y-134557053D01*
X174345384Y-134554516D01*
X174319682Y-134537342D01*
X174261202Y-134498266D01*
X174186967Y-134483500D01*
X172612836Y-134483500D01*
X172612826Y-134483501D01*
X172538599Y-134498265D01*
X172454415Y-134554516D01*
X172398166Y-134638697D01*
X172383400Y-134712930D01*
X164416399Y-134712930D01*
X164401634Y-134638699D01*
X164347079Y-134557053D01*
X164345384Y-134554516D01*
X164319682Y-134537342D01*
X164261202Y-134498266D01*
X164186969Y-134483500D01*
X164186967Y-134483500D01*
X163907400Y-134483500D01*
X163839279Y-134463498D01*
X163792786Y-134409842D01*
X163781400Y-134357500D01*
X163781400Y-131718499D01*
X163801402Y-131650378D01*
X163855058Y-131603885D01*
X163907400Y-131592499D01*
X164275864Y-131592499D01*
X164275866Y-131592499D01*
X164275869Y-131592498D01*
X164275872Y-131592498D01*
X164312463Y-131585219D01*
X164350101Y-131577734D01*
X164434284Y-131521484D01*
X164490534Y-131437301D01*
X164505300Y-131363067D01*
X164505299Y-129788934D01*
X164505298Y-129788930D01*
X164505298Y-129788926D01*
X164490534Y-129714699D01*
X164434283Y-129630515D01*
X164350102Y-129574266D01*
X164275867Y-129559500D01*
X162701736Y-129559500D01*
X162701726Y-129559501D01*
X162627499Y-129574265D01*
X162543315Y-129630516D01*
X162487066Y-129714697D01*
X162472300Y-129788930D01*
X162472300Y-131363063D01*
X162472301Y-131363073D01*
X162487065Y-131437300D01*
X162543316Y-131521484D01*
X162627497Y-131577733D01*
X162627499Y-131577734D01*
X162701733Y-131592500D01*
X162892400Y-131592499D01*
X162960520Y-131612501D01*
X163007013Y-131666156D01*
X163018400Y-131718499D01*
X163018400Y-134357500D01*
X162998398Y-134425621D01*
X162944742Y-134472114D01*
X162892400Y-134483500D01*
X162612836Y-134483500D01*
X162612826Y-134483501D01*
X162538599Y-134498265D01*
X162454415Y-134554516D01*
X162398166Y-134638697D01*
X162383400Y-134712930D01*
X156416399Y-134712930D01*
X156401634Y-134638699D01*
X156347079Y-134557053D01*
X156345384Y-134554516D01*
X156319682Y-134537342D01*
X156261202Y-134498266D01*
X156186967Y-134483500D01*
X154612836Y-134483500D01*
X154612826Y-134483501D01*
X154538599Y-134498265D01*
X154454415Y-134554516D01*
X154398166Y-134638697D01*
X154383400Y-134712930D01*
X146016399Y-134712930D01*
X146001634Y-134638699D01*
X145947079Y-134557053D01*
X145945384Y-134554516D01*
X145919682Y-134537342D01*
X145861202Y-134498266D01*
X145786969Y-134483500D01*
X145786967Y-134483500D01*
X145507400Y-134483500D01*
X145439279Y-134463498D01*
X145392786Y-134409842D01*
X145381400Y-134357500D01*
X145381400Y-131718499D01*
X145401402Y-131650378D01*
X145455058Y-131603885D01*
X145507400Y-131592499D01*
X145875864Y-131592499D01*
X145875866Y-131592499D01*
X145875869Y-131592498D01*
X145875872Y-131592498D01*
X145912463Y-131585219D01*
X145950101Y-131577734D01*
X146034284Y-131521484D01*
X146090534Y-131437301D01*
X146105300Y-131363067D01*
X146105299Y-129788934D01*
X146105298Y-129788930D01*
X146105298Y-129788926D01*
X146090534Y-129714699D01*
X146034283Y-129630515D01*
X145950102Y-129574266D01*
X145875867Y-129559500D01*
X144301736Y-129559500D01*
X144301726Y-129559501D01*
X144227499Y-129574265D01*
X144143315Y-129630516D01*
X144087066Y-129714697D01*
X144072300Y-129788930D01*
X144072300Y-131363063D01*
X144072301Y-131363073D01*
X144087065Y-131437300D01*
X144143316Y-131521484D01*
X144227497Y-131577733D01*
X144227499Y-131577734D01*
X144301733Y-131592500D01*
X144492400Y-131592499D01*
X144560520Y-131612501D01*
X144607013Y-131666156D01*
X144618400Y-131718499D01*
X144618400Y-134357500D01*
X144598398Y-134425621D01*
X144544742Y-134472114D01*
X144492400Y-134483500D01*
X144212836Y-134483500D01*
X144212826Y-134483501D01*
X144138599Y-134498265D01*
X144054415Y-134554516D01*
X143998166Y-134638697D01*
X143983400Y-134712930D01*
X138016399Y-134712930D01*
X138001634Y-134638699D01*
X137947079Y-134557053D01*
X137945384Y-134554516D01*
X137919682Y-134537342D01*
X137861202Y-134498266D01*
X137786967Y-134483500D01*
X136212836Y-134483500D01*
X136212826Y-134483501D01*
X136138599Y-134498265D01*
X136054415Y-134554516D01*
X135998166Y-134638697D01*
X135983400Y-134712930D01*
X128016399Y-134712930D01*
X128001634Y-134638699D01*
X127947079Y-134557053D01*
X127945384Y-134554516D01*
X127919682Y-134537342D01*
X127861202Y-134498266D01*
X127786969Y-134483500D01*
X127786967Y-134483500D01*
X127507500Y-134483500D01*
X127439379Y-134463498D01*
X127392886Y-134409842D01*
X127381500Y-134357500D01*
X127381500Y-131718499D01*
X127401502Y-131650378D01*
X127455158Y-131603885D01*
X127507500Y-131592499D01*
X127875964Y-131592499D01*
X127875966Y-131592499D01*
X127875969Y-131592498D01*
X127875972Y-131592498D01*
X127912563Y-131585219D01*
X127950201Y-131577734D01*
X128034384Y-131521484D01*
X128090634Y-131437301D01*
X128105400Y-131363067D01*
X128105399Y-129788934D01*
X128105398Y-129788930D01*
X128105398Y-129788926D01*
X128090634Y-129714699D01*
X128034383Y-129630515D01*
X127950202Y-129574266D01*
X127875967Y-129559500D01*
X126301836Y-129559500D01*
X126301826Y-129559501D01*
X126227599Y-129574265D01*
X126143415Y-129630516D01*
X126087166Y-129714697D01*
X126072400Y-129788930D01*
X126072400Y-131363063D01*
X126072401Y-131363073D01*
X126087165Y-131437300D01*
X126143416Y-131521484D01*
X126227597Y-131577733D01*
X126227599Y-131577734D01*
X126301833Y-131592500D01*
X126492500Y-131592499D01*
X126560620Y-131612501D01*
X126607113Y-131666156D01*
X126618500Y-131718499D01*
X126618500Y-134357500D01*
X126598498Y-134425621D01*
X126544842Y-134472114D01*
X126492500Y-134483500D01*
X126212836Y-134483500D01*
X126212826Y-134483501D01*
X126138599Y-134498265D01*
X126054415Y-134554516D01*
X125998166Y-134638697D01*
X125983400Y-134712930D01*
X120016499Y-134712930D01*
X120001734Y-134638699D01*
X119947179Y-134557053D01*
X119945484Y-134554516D01*
X119919782Y-134537342D01*
X119861302Y-134498266D01*
X119787067Y-134483500D01*
X118212936Y-134483500D01*
X118212926Y-134483501D01*
X118138699Y-134498265D01*
X118054515Y-134554516D01*
X117998266Y-134638697D01*
X117983500Y-134712930D01*
X109324600Y-134712930D01*
X109324600Y-134488657D01*
X109293148Y-134169315D01*
X109230546Y-133854594D01*
X109154908Y-133605248D01*
X109137401Y-133547533D01*
X109137398Y-133547525D01*
X109137398Y-133547524D01*
X109014599Y-133251064D01*
X108863334Y-132968067D01*
X108685059Y-132701259D01*
X108481491Y-132453210D01*
X108481474Y-132453192D01*
X108254607Y-132226325D01*
X108254589Y-132226308D01*
X108006536Y-132022737D01*
X107739735Y-131844467D01*
X107456736Y-131693201D01*
X107160274Y-131570401D01*
X107160266Y-131570398D01*
X106932543Y-131501320D01*
X106853206Y-131477254D01*
X106853202Y-131477253D01*
X106853195Y-131477251D01*
X106538490Y-131414653D01*
X106538485Y-131414652D01*
X106538480Y-131414651D01*
X106538470Y-131414650D01*
X106219149Y-131383200D01*
X106219143Y-131383200D01*
X105898257Y-131383200D01*
X105898250Y-131383200D01*
X105578929Y-131414650D01*
X105578916Y-131414651D01*
X105578915Y-131414652D01*
X105578912Y-131414652D01*
X105578909Y-131414653D01*
X105264204Y-131477251D01*
X104957133Y-131570398D01*
X104957125Y-131570401D01*
X104660663Y-131693201D01*
X104377664Y-131844467D01*
X104110863Y-132022737D01*
X103862810Y-132226308D01*
X103862792Y-132226325D01*
X103635925Y-132453192D01*
X103635908Y-132453210D01*
X103432337Y-132701263D01*
X103254067Y-132968064D01*
X103102801Y-133251063D01*
X102980001Y-133547525D01*
X102979998Y-133547533D01*
X102886851Y-133854604D01*
X102824253Y-134169309D01*
X102824250Y-134169329D01*
X102792800Y-134488650D01*
X100500500Y-134488650D01*
X100500500Y-122982930D01*
X110483600Y-122982930D01*
X110483600Y-124557063D01*
X110483601Y-124557073D01*
X110498365Y-124631300D01*
X110554616Y-124715484D01*
X110638797Y-124771733D01*
X110638799Y-124771734D01*
X110713033Y-124786500D01*
X112287166Y-124786499D01*
X112287169Y-124786498D01*
X112287173Y-124786498D01*
X112336426Y-124776701D01*
X112361401Y-124771734D01*
X112445584Y-124715484D01*
X112501834Y-124631301D01*
X112516600Y-124557067D01*
X112516599Y-122982934D01*
X112516598Y-122982930D01*
X112516598Y-122982926D01*
X112501834Y-122908699D01*
X112445583Y-122824515D01*
X112361402Y-122768266D01*
X112287167Y-122753500D01*
X110713036Y-122753500D01*
X110713026Y-122753501D01*
X110638799Y-122768265D01*
X110554615Y-122824516D01*
X110498366Y-122908697D01*
X110483600Y-122982930D01*
X100500500Y-122982930D01*
X100500500Y-118769980D01*
X147203400Y-118769980D01*
X147203400Y-118970219D01*
X147242464Y-119166602D01*
X147319090Y-119351593D01*
X147430333Y-119518081D01*
X147430334Y-119518082D01*
X147430339Y-119518088D01*
X147571911Y-119659660D01*
X147571917Y-119659665D01*
X147571919Y-119659667D01*
X147738407Y-119770910D01*
X147923398Y-119847536D01*
X148119784Y-119886600D01*
X148320016Y-119886600D01*
X148516402Y-119847536D01*
X148701393Y-119770910D01*
X148867881Y-119659667D01*
X149009467Y-119518081D01*
X149120710Y-119351593D01*
X149197336Y-119166602D01*
X149236400Y-118970216D01*
X149236400Y-118769984D01*
X149236399Y-118769980D01*
X149743400Y-118769980D01*
X149743400Y-118970219D01*
X149782464Y-119166602D01*
X149859090Y-119351593D01*
X149970333Y-119518081D01*
X149970334Y-119518082D01*
X149970339Y-119518088D01*
X150111911Y-119659660D01*
X150111917Y-119659665D01*
X150111919Y-119659667D01*
X150278407Y-119770910D01*
X150463398Y-119847536D01*
X150659784Y-119886600D01*
X150860016Y-119886600D01*
X151056402Y-119847536D01*
X151241393Y-119770910D01*
X151407881Y-119659667D01*
X151549467Y-119518081D01*
X151660710Y-119351593D01*
X151737336Y-119166602D01*
X151776400Y-118970216D01*
X151776400Y-118769984D01*
X151776399Y-118769980D01*
X152283400Y-118769980D01*
X152283400Y-118970219D01*
X152322464Y-119166602D01*
X152399090Y-119351593D01*
X152510333Y-119518081D01*
X152510334Y-119518082D01*
X152510339Y-119518088D01*
X152651911Y-119659660D01*
X152651917Y-119659665D01*
X152651919Y-119659667D01*
X152818407Y-119770910D01*
X153003398Y-119847536D01*
X153199784Y-119886600D01*
X153400016Y-119886600D01*
X153596402Y-119847536D01*
X153781393Y-119770910D01*
X153947881Y-119659667D01*
X154089467Y-119518081D01*
X154200710Y-119351593D01*
X154277336Y-119166602D01*
X154316400Y-118970216D01*
X154316400Y-118769984D01*
X154316399Y-118769980D01*
X157363400Y-118769980D01*
X157363400Y-118970219D01*
X157402464Y-119166602D01*
X157479090Y-119351593D01*
X157590333Y-119518081D01*
X157590334Y-119518082D01*
X157590339Y-119518088D01*
X157731911Y-119659660D01*
X157731917Y-119659665D01*
X157731919Y-119659667D01*
X157898407Y-119770910D01*
X158083398Y-119847536D01*
X158279784Y-119886600D01*
X158480016Y-119886600D01*
X158676402Y-119847536D01*
X158861393Y-119770910D01*
X159027881Y-119659667D01*
X159169467Y-119518081D01*
X159280710Y-119351593D01*
X159357336Y-119166602D01*
X159396400Y-118970216D01*
X159396400Y-118769984D01*
X159396399Y-118769980D01*
X159903400Y-118769980D01*
X159903400Y-118970219D01*
X159942464Y-119166602D01*
X160019090Y-119351593D01*
X160130333Y-119518081D01*
X160130334Y-119518082D01*
X160130339Y-119518088D01*
X160271911Y-119659660D01*
X160271917Y-119659665D01*
X160271919Y-119659667D01*
X160438407Y-119770910D01*
X160623398Y-119847536D01*
X160819784Y-119886600D01*
X161020016Y-119886600D01*
X161216402Y-119847536D01*
X161401393Y-119770910D01*
X161567881Y-119659667D01*
X161709467Y-119518081D01*
X161820710Y-119351593D01*
X161897336Y-119166602D01*
X161936400Y-118970216D01*
X161936400Y-118769984D01*
X161936399Y-118769980D01*
X162443400Y-118769980D01*
X162443400Y-118970219D01*
X162482464Y-119166602D01*
X162559090Y-119351593D01*
X162670333Y-119518081D01*
X162670334Y-119518082D01*
X162670339Y-119518088D01*
X162811911Y-119659660D01*
X162811917Y-119659665D01*
X162811919Y-119659667D01*
X162978407Y-119770910D01*
X163163398Y-119847536D01*
X163359784Y-119886600D01*
X163560016Y-119886600D01*
X163756402Y-119847536D01*
X163941393Y-119770910D01*
X164107881Y-119659667D01*
X164249467Y-119518081D01*
X164360710Y-119351593D01*
X164437336Y-119166602D01*
X164476400Y-118970216D01*
X164476400Y-118769984D01*
X164476399Y-118769980D01*
X164983400Y-118769980D01*
X164983400Y-118970219D01*
X165022464Y-119166602D01*
X165099090Y-119351593D01*
X165210333Y-119518081D01*
X165210334Y-119518082D01*
X165210339Y-119518088D01*
X165351911Y-119659660D01*
X165351917Y-119659665D01*
X165351919Y-119659667D01*
X165518407Y-119770910D01*
X165703398Y-119847536D01*
X165899784Y-119886600D01*
X166100016Y-119886600D01*
X166296402Y-119847536D01*
X166481393Y-119770910D01*
X166647881Y-119659667D01*
X166789467Y-119518081D01*
X166900710Y-119351593D01*
X166977336Y-119166602D01*
X167016400Y-118970216D01*
X167016400Y-118769984D01*
X166977336Y-118573598D01*
X166900710Y-118388607D01*
X166789467Y-118222119D01*
X166789465Y-118222117D01*
X166789460Y-118222111D01*
X166650379Y-118083030D01*
X167523400Y-118083030D01*
X167523400Y-119657163D01*
X167523401Y-119657173D01*
X167538165Y-119731400D01*
X167594416Y-119815584D01*
X167678597Y-119871833D01*
X167678599Y-119871834D01*
X167752833Y-119886600D01*
X169326966Y-119886599D01*
X169326969Y-119886598D01*
X169326973Y-119886598D01*
X169376226Y-119876801D01*
X169401201Y-119871834D01*
X169485384Y-119815584D01*
X169541634Y-119731401D01*
X169556400Y-119657167D01*
X169556399Y-118083034D01*
X169556399Y-118083033D01*
X169556399Y-118083031D01*
X169556399Y-118083030D01*
X170063400Y-118083030D01*
X170063400Y-119657163D01*
X170063401Y-119657173D01*
X170078165Y-119731400D01*
X170134416Y-119815584D01*
X170218597Y-119871833D01*
X170218599Y-119871834D01*
X170292833Y-119886600D01*
X171866966Y-119886599D01*
X171866969Y-119886598D01*
X171866973Y-119886598D01*
X171916226Y-119876801D01*
X171941201Y-119871834D01*
X172025384Y-119815584D01*
X172081634Y-119731401D01*
X172096400Y-119657167D01*
X172096399Y-118083034D01*
X172096399Y-118083033D01*
X172096399Y-118083031D01*
X172096399Y-118083030D01*
X172603400Y-118083030D01*
X172603400Y-119657163D01*
X172603401Y-119657173D01*
X172618165Y-119731400D01*
X172674416Y-119815584D01*
X172758597Y-119871833D01*
X172758599Y-119871834D01*
X172832833Y-119886600D01*
X174406966Y-119886599D01*
X174406969Y-119886598D01*
X174406973Y-119886598D01*
X174456226Y-119876801D01*
X174481201Y-119871834D01*
X174565384Y-119815584D01*
X174621634Y-119731401D01*
X174636400Y-119657167D01*
X174636399Y-118083034D01*
X174636399Y-118083033D01*
X174636399Y-118083031D01*
X174636399Y-118083030D01*
X175143400Y-118083030D01*
X175143400Y-119657163D01*
X175143401Y-119657173D01*
X175158165Y-119731400D01*
X175214416Y-119815584D01*
X175298597Y-119871833D01*
X175298599Y-119871834D01*
X175372833Y-119886600D01*
X176946966Y-119886599D01*
X176946969Y-119886598D01*
X176946973Y-119886598D01*
X176996226Y-119876801D01*
X177021201Y-119871834D01*
X177105384Y-119815584D01*
X177161634Y-119731401D01*
X177176400Y-119657167D01*
X177176399Y-118083034D01*
X177176398Y-118083031D01*
X177176398Y-118083026D01*
X177161634Y-118008799D01*
X177161633Y-118008797D01*
X177105384Y-117924616D01*
X177057567Y-117892665D01*
X177021202Y-117868366D01*
X176946967Y-117853600D01*
X175372836Y-117853600D01*
X175372826Y-117853601D01*
X175298599Y-117868365D01*
X175214415Y-117924616D01*
X175158166Y-118008797D01*
X175143400Y-118083030D01*
X174636399Y-118083030D01*
X174621634Y-118008799D01*
X174621633Y-118008797D01*
X174565384Y-117924616D01*
X174517567Y-117892665D01*
X174481202Y-117868366D01*
X174406967Y-117853600D01*
X172832836Y-117853600D01*
X172832826Y-117853601D01*
X172758599Y-117868365D01*
X172674415Y-117924616D01*
X172618166Y-118008797D01*
X172603400Y-118083030D01*
X172096399Y-118083030D01*
X172081634Y-118008799D01*
X172081633Y-118008797D01*
X172025384Y-117924616D01*
X171977567Y-117892665D01*
X171941202Y-117868366D01*
X171866967Y-117853600D01*
X170292836Y-117853600D01*
X170292826Y-117853601D01*
X170218599Y-117868365D01*
X170134415Y-117924616D01*
X170078166Y-118008797D01*
X170063400Y-118083030D01*
X169556399Y-118083030D01*
X169541634Y-118008799D01*
X169541633Y-118008797D01*
X169485384Y-117924616D01*
X169437567Y-117892665D01*
X169401202Y-117868366D01*
X169326967Y-117853600D01*
X167752836Y-117853600D01*
X167752826Y-117853601D01*
X167678599Y-117868365D01*
X167594415Y-117924616D01*
X167538166Y-118008797D01*
X167523400Y-118083030D01*
X166650379Y-118083030D01*
X166647888Y-118080539D01*
X166647882Y-118080534D01*
X166647881Y-118080533D01*
X166481393Y-117969290D01*
X166364739Y-117920970D01*
X166296405Y-117892665D01*
X166296402Y-117892664D01*
X166100019Y-117853600D01*
X166100016Y-117853600D01*
X165899784Y-117853600D01*
X165899780Y-117853600D01*
X165703397Y-117892664D01*
X165703394Y-117892665D01*
X165518407Y-117969290D01*
X165351917Y-118080534D01*
X165351911Y-118080539D01*
X165210339Y-118222111D01*
X165210334Y-118222117D01*
X165099090Y-118388607D01*
X165022465Y-118573594D01*
X165022464Y-118573597D01*
X164983400Y-118769980D01*
X164476399Y-118769980D01*
X164437336Y-118573598D01*
X164360710Y-118388607D01*
X164249467Y-118222119D01*
X164249465Y-118222117D01*
X164249460Y-118222111D01*
X164107888Y-118080539D01*
X164107882Y-118080534D01*
X164107881Y-118080533D01*
X163941393Y-117969290D01*
X163824739Y-117920970D01*
X163756405Y-117892665D01*
X163756402Y-117892664D01*
X163560019Y-117853600D01*
X163560016Y-117853600D01*
X163359784Y-117853600D01*
X163359780Y-117853600D01*
X163163397Y-117892664D01*
X163163394Y-117892665D01*
X162978407Y-117969290D01*
X162811917Y-118080534D01*
X162811911Y-118080539D01*
X162670339Y-118222111D01*
X162670334Y-118222117D01*
X162559090Y-118388607D01*
X162482465Y-118573594D01*
X162482464Y-118573597D01*
X162443400Y-118769980D01*
X161936399Y-118769980D01*
X161897336Y-118573598D01*
X161820710Y-118388607D01*
X161709467Y-118222119D01*
X161709465Y-118222117D01*
X161709460Y-118222111D01*
X161567888Y-118080539D01*
X161567882Y-118080534D01*
X161567881Y-118080533D01*
X161401393Y-117969290D01*
X161284739Y-117920970D01*
X161216405Y-117892665D01*
X161216402Y-117892664D01*
X161020019Y-117853600D01*
X161020016Y-117853600D01*
X160819784Y-117853600D01*
X160819780Y-117853600D01*
X160623397Y-117892664D01*
X160623394Y-117892665D01*
X160438407Y-117969290D01*
X160271917Y-118080534D01*
X160271911Y-118080539D01*
X160130339Y-118222111D01*
X160130334Y-118222117D01*
X160019090Y-118388607D01*
X159942465Y-118573594D01*
X159942464Y-118573597D01*
X159903400Y-118769980D01*
X159396399Y-118769980D01*
X159357336Y-118573598D01*
X159280710Y-118388607D01*
X159169467Y-118222119D01*
X159169465Y-118222117D01*
X159169460Y-118222111D01*
X159027888Y-118080539D01*
X159027882Y-118080534D01*
X159027881Y-118080533D01*
X158861393Y-117969290D01*
X158744739Y-117920970D01*
X158676405Y-117892665D01*
X158676402Y-117892664D01*
X158480019Y-117853600D01*
X158480016Y-117853600D01*
X158279784Y-117853600D01*
X158279780Y-117853600D01*
X158083397Y-117892664D01*
X158083394Y-117892665D01*
X157898407Y-117969290D01*
X157731917Y-118080534D01*
X157731911Y-118080539D01*
X157590339Y-118222111D01*
X157590334Y-118222117D01*
X157479090Y-118388607D01*
X157402465Y-118573594D01*
X157402464Y-118573597D01*
X157363400Y-118769980D01*
X154316399Y-118769980D01*
X154277336Y-118573598D01*
X154200710Y-118388607D01*
X154089467Y-118222119D01*
X154089465Y-118222117D01*
X154089460Y-118222111D01*
X153947888Y-118080539D01*
X153947882Y-118080534D01*
X153947881Y-118080533D01*
X153781393Y-117969290D01*
X153664739Y-117920970D01*
X153596405Y-117892665D01*
X153596402Y-117892664D01*
X153400019Y-117853600D01*
X153400016Y-117853600D01*
X153199784Y-117853600D01*
X153199780Y-117853600D01*
X153003397Y-117892664D01*
X153003394Y-117892665D01*
X152818407Y-117969290D01*
X152651917Y-118080534D01*
X152651911Y-118080539D01*
X152510339Y-118222111D01*
X152510334Y-118222117D01*
X152399090Y-118388607D01*
X152322465Y-118573594D01*
X152322464Y-118573597D01*
X152283400Y-118769980D01*
X151776399Y-118769980D01*
X151737336Y-118573598D01*
X151660710Y-118388607D01*
X151549467Y-118222119D01*
X151549465Y-118222117D01*
X151549460Y-118222111D01*
X151407888Y-118080539D01*
X151407882Y-118080534D01*
X151407881Y-118080533D01*
X151241393Y-117969290D01*
X151124739Y-117920970D01*
X151056405Y-117892665D01*
X151056402Y-117892664D01*
X150860019Y-117853600D01*
X150860016Y-117853600D01*
X150659784Y-117853600D01*
X150659780Y-117853600D01*
X150463397Y-117892664D01*
X150463394Y-117892665D01*
X150278407Y-117969290D01*
X150111917Y-118080534D01*
X150111911Y-118080539D01*
X149970339Y-118222111D01*
X149970334Y-118222117D01*
X149859090Y-118388607D01*
X149782465Y-118573594D01*
X149782464Y-118573597D01*
X149743400Y-118769980D01*
X149236399Y-118769980D01*
X149197336Y-118573598D01*
X149120710Y-118388607D01*
X149009467Y-118222119D01*
X149009465Y-118222117D01*
X149009460Y-118222111D01*
X148867888Y-118080539D01*
X148867882Y-118080534D01*
X148867881Y-118080533D01*
X148701393Y-117969290D01*
X148584739Y-117920970D01*
X148516405Y-117892665D01*
X148516402Y-117892664D01*
X148320019Y-117853600D01*
X148320016Y-117853600D01*
X148119784Y-117853600D01*
X148119780Y-117853600D01*
X147923397Y-117892664D01*
X147923394Y-117892665D01*
X147738407Y-117969290D01*
X147571917Y-118080534D01*
X147571911Y-118080539D01*
X147430339Y-118222111D01*
X147430334Y-118222117D01*
X147319090Y-118388607D01*
X147242465Y-118573594D01*
X147242464Y-118573597D01*
X147203400Y-118769980D01*
X100500500Y-118769980D01*
X100500500Y-114061630D01*
X118345700Y-114061630D01*
X118345700Y-115411763D01*
X118345701Y-115411773D01*
X118360465Y-115486000D01*
X118416716Y-115570184D01*
X118500897Y-115626433D01*
X118500899Y-115626434D01*
X118575133Y-115641200D01*
X119925266Y-115641199D01*
X119925269Y-115641198D01*
X119925273Y-115641198D01*
X119974526Y-115631401D01*
X119999501Y-115626434D01*
X120083684Y-115570184D01*
X120139934Y-115486001D01*
X120154700Y-115411767D01*
X120154699Y-114211630D01*
X120495400Y-114211630D01*
X120495400Y-115261763D01*
X120495401Y-115261773D01*
X120510165Y-115336000D01*
X120566416Y-115420184D01*
X120650597Y-115476433D01*
X120650599Y-115476434D01*
X120724833Y-115491200D01*
X121774966Y-115491199D01*
X121774969Y-115491198D01*
X121774973Y-115491198D01*
X121824226Y-115481401D01*
X121849201Y-115476434D01*
X121933384Y-115420184D01*
X121989634Y-115336001D01*
X122004400Y-115261767D01*
X122004399Y-114211634D01*
X122004399Y-114211633D01*
X122004399Y-114211631D01*
X122004399Y-114211630D01*
X122495700Y-114211630D01*
X122495700Y-115261763D01*
X122495701Y-115261773D01*
X122510465Y-115336000D01*
X122566716Y-115420184D01*
X122650897Y-115476433D01*
X122650899Y-115476434D01*
X122725133Y-115491200D01*
X123775266Y-115491199D01*
X123775269Y-115491198D01*
X123775273Y-115491198D01*
X123824526Y-115481401D01*
X123849501Y-115476434D01*
X123933684Y-115420184D01*
X123989934Y-115336001D01*
X124004700Y-115261767D01*
X124004699Y-114211634D01*
X124004699Y-114211633D01*
X124004699Y-114211631D01*
X124004699Y-114211630D01*
X124495450Y-114211630D01*
X124495450Y-115261763D01*
X124495451Y-115261773D01*
X124510215Y-115336000D01*
X124566466Y-115420184D01*
X124650647Y-115476433D01*
X124650649Y-115476434D01*
X124724883Y-115491200D01*
X125774916Y-115491199D01*
X125774919Y-115491198D01*
X125774923Y-115491198D01*
X125824176Y-115481401D01*
X125849151Y-115476434D01*
X125933334Y-115420184D01*
X125989584Y-115336001D01*
X126004350Y-115261767D01*
X126004349Y-114211634D01*
X126004348Y-114211631D01*
X126004348Y-114211626D01*
X125989584Y-114137400D01*
X125989584Y-114137399D01*
X125938956Y-114061630D01*
X126345350Y-114061630D01*
X126345350Y-115411763D01*
X126345351Y-115411773D01*
X126360115Y-115486000D01*
X126416366Y-115570184D01*
X126500547Y-115626433D01*
X126500549Y-115626434D01*
X126574783Y-115641200D01*
X127925016Y-115641199D01*
X127925019Y-115641198D01*
X127925023Y-115641198D01*
X127974276Y-115631401D01*
X127999251Y-115626434D01*
X128083434Y-115570184D01*
X128139684Y-115486001D01*
X128139684Y-115485999D01*
X128145285Y-115477618D01*
X128199763Y-115432091D01*
X128270206Y-115423244D01*
X128334250Y-115453885D01*
X128354815Y-115477618D01*
X128360415Y-115486000D01*
X128360416Y-115486001D01*
X128416666Y-115570184D01*
X128416667Y-115570185D01*
X128500847Y-115626433D01*
X128500849Y-115626434D01*
X128575083Y-115641200D01*
X129925316Y-115641199D01*
X129925319Y-115641198D01*
X129925323Y-115641198D01*
X129974576Y-115631401D01*
X129999551Y-115626434D01*
X130083734Y-115570184D01*
X130139984Y-115486001D01*
X130139984Y-115486000D01*
X130145310Y-115478030D01*
X130199787Y-115432502D01*
X130270231Y-115423655D01*
X130334274Y-115454296D01*
X130354840Y-115478030D01*
X130416416Y-115570184D01*
X130500597Y-115626433D01*
X130500599Y-115626434D01*
X130574833Y-115641200D01*
X131924966Y-115641199D01*
X131924969Y-115641198D01*
X131924973Y-115641198D01*
X131974226Y-115631401D01*
X131999201Y-115626434D01*
X132083384Y-115570184D01*
X132139634Y-115486001D01*
X132154400Y-115411767D01*
X132154399Y-114061634D01*
X132154398Y-114061630D01*
X132154398Y-114061626D01*
X132139634Y-113987399D01*
X132083383Y-113903215D01*
X131999202Y-113846966D01*
X131924967Y-113832200D01*
X130574836Y-113832200D01*
X130574826Y-113832201D01*
X130500599Y-113846965D01*
X130416416Y-113903215D01*
X130354838Y-113995371D01*
X130300360Y-114040897D01*
X130229917Y-114049744D01*
X130165874Y-114019102D01*
X130145309Y-113995369D01*
X130139982Y-113987397D01*
X130083734Y-113903216D01*
X130083733Y-113903215D01*
X129999552Y-113846966D01*
X129925317Y-113832200D01*
X128575086Y-113832200D01*
X128575076Y-113832201D01*
X128500849Y-113846965D01*
X128416666Y-113903215D01*
X128354813Y-113995782D01*
X128300335Y-114041309D01*
X128229892Y-114050155D01*
X128165848Y-114019513D01*
X128145284Y-113995780D01*
X128083433Y-113903215D01*
X127999252Y-113846966D01*
X127925017Y-113832200D01*
X126574786Y-113832200D01*
X126574776Y-113832201D01*
X126500549Y-113846965D01*
X126416365Y-113903216D01*
X126360116Y-113987397D01*
X126345350Y-114061630D01*
X125938956Y-114061630D01*
X125933334Y-114053216D01*
X125928138Y-114049744D01*
X125849152Y-113996966D01*
X125774917Y-113982200D01*
X124724886Y-113982200D01*
X124724876Y-113982201D01*
X124650649Y-113996965D01*
X124566465Y-114053216D01*
X124510216Y-114137397D01*
X124495450Y-114211630D01*
X124004699Y-114211630D01*
X123989934Y-114137399D01*
X123933683Y-114053215D01*
X123849502Y-113996966D01*
X123775267Y-113982200D01*
X122725136Y-113982200D01*
X122725126Y-113982201D01*
X122650899Y-113996965D01*
X122566715Y-114053216D01*
X122510466Y-114137397D01*
X122495700Y-114211630D01*
X122004399Y-114211630D01*
X121989634Y-114137399D01*
X121933383Y-114053215D01*
X121849202Y-113996966D01*
X121774967Y-113982200D01*
X120724836Y-113982200D01*
X120724826Y-113982201D01*
X120650599Y-113996965D01*
X120566415Y-114053216D01*
X120510166Y-114137397D01*
X120495400Y-114211630D01*
X120154699Y-114211630D01*
X120154699Y-114061634D01*
X120154698Y-114061630D01*
X120154698Y-114061626D01*
X120139934Y-113987399D01*
X120083683Y-113903215D01*
X119999502Y-113846966D01*
X119925267Y-113832200D01*
X118575136Y-113832200D01*
X118575126Y-113832201D01*
X118500899Y-113846965D01*
X118416715Y-113903216D01*
X118360466Y-113987397D01*
X118345700Y-114061630D01*
X100500500Y-114061630D01*
X100500500Y-112211630D01*
X116495700Y-112211630D01*
X116495700Y-113261763D01*
X116495701Y-113261773D01*
X116510465Y-113336000D01*
X116566716Y-113420184D01*
X116650897Y-113476433D01*
X116650899Y-113476434D01*
X116725133Y-113491200D01*
X117775266Y-113491199D01*
X117775269Y-113491198D01*
X117775273Y-113491198D01*
X117824526Y-113481401D01*
X117849501Y-113476434D01*
X117933684Y-113420184D01*
X117989934Y-113336001D01*
X118004700Y-113261767D01*
X118004699Y-112211634D01*
X118004699Y-112211633D01*
X118004699Y-112211631D01*
X118004699Y-112211630D01*
X118495700Y-112211630D01*
X118495700Y-113261763D01*
X118495701Y-113261773D01*
X118510465Y-113336000D01*
X118566716Y-113420184D01*
X118650897Y-113476433D01*
X118650899Y-113476434D01*
X118725133Y-113491200D01*
X119775266Y-113491199D01*
X119775269Y-113491198D01*
X119775273Y-113491198D01*
X119824526Y-113481401D01*
X119849501Y-113476434D01*
X119933684Y-113420184D01*
X119989934Y-113336001D01*
X120004700Y-113261767D01*
X120004699Y-112211634D01*
X120004699Y-112211633D01*
X120004699Y-112211631D01*
X120004699Y-112211630D01*
X120495300Y-112211630D01*
X120495300Y-113261763D01*
X120495301Y-113261773D01*
X120510065Y-113336000D01*
X120566316Y-113420184D01*
X120650497Y-113476433D01*
X120650499Y-113476434D01*
X120724733Y-113491200D01*
X121774866Y-113491199D01*
X121774869Y-113491198D01*
X121774873Y-113491198D01*
X121824126Y-113481401D01*
X121849101Y-113476434D01*
X121933284Y-113420184D01*
X121989534Y-113336001D01*
X122004300Y-113261767D01*
X122004299Y-112211634D01*
X122004299Y-112211633D01*
X122004299Y-112211631D01*
X122004299Y-112211630D01*
X122495600Y-112211630D01*
X122495600Y-113261763D01*
X122495601Y-113261773D01*
X122510365Y-113336000D01*
X122566616Y-113420184D01*
X122650797Y-113476433D01*
X122650799Y-113476434D01*
X122725033Y-113491200D01*
X123775166Y-113491199D01*
X123775169Y-113491198D01*
X123775173Y-113491198D01*
X123824426Y-113481401D01*
X123849401Y-113476434D01*
X123933584Y-113420184D01*
X123989834Y-113336001D01*
X124004600Y-113261767D01*
X124004599Y-112211634D01*
X124004599Y-112211633D01*
X124004599Y-112211631D01*
X124004599Y-112211630D01*
X124495400Y-112211630D01*
X124495400Y-113261763D01*
X124495401Y-113261773D01*
X124510165Y-113336000D01*
X124566416Y-113420184D01*
X124650597Y-113476433D01*
X124650599Y-113476434D01*
X124724833Y-113491200D01*
X125774966Y-113491199D01*
X125774969Y-113491198D01*
X125774973Y-113491198D01*
X125824226Y-113481401D01*
X125849201Y-113476434D01*
X125933384Y-113420184D01*
X125989634Y-113336001D01*
X126004400Y-113261767D01*
X126004399Y-112211634D01*
X126004399Y-112211633D01*
X126004399Y-112211631D01*
X126004399Y-112211630D01*
X126495400Y-112211630D01*
X126495400Y-113261763D01*
X126495401Y-113261773D01*
X126510165Y-113336000D01*
X126566416Y-113420184D01*
X126650597Y-113476433D01*
X126650599Y-113476434D01*
X126724833Y-113491200D01*
X127774966Y-113491199D01*
X127774969Y-113491198D01*
X127774973Y-113491198D01*
X127824226Y-113481401D01*
X127849201Y-113476434D01*
X127933384Y-113420184D01*
X127989634Y-113336001D01*
X128004400Y-113261767D01*
X128004399Y-112211634D01*
X128004399Y-112211633D01*
X128004399Y-112211631D01*
X128004399Y-112211630D01*
X128495700Y-112211630D01*
X128495700Y-113261763D01*
X128495701Y-113261773D01*
X128510465Y-113336000D01*
X128566716Y-113420184D01*
X128650897Y-113476433D01*
X128650899Y-113476434D01*
X128725133Y-113491200D01*
X129775266Y-113491199D01*
X129775269Y-113491198D01*
X129775273Y-113491198D01*
X129824526Y-113481401D01*
X129849501Y-113476434D01*
X129933684Y-113420184D01*
X129989934Y-113336001D01*
X130004700Y-113261767D01*
X130004699Y-112211634D01*
X130004699Y-112211633D01*
X130004699Y-112211631D01*
X130004699Y-112211630D01*
X130495400Y-112211630D01*
X130495400Y-113261763D01*
X130495401Y-113261773D01*
X130510165Y-113336000D01*
X130566416Y-113420184D01*
X130650597Y-113476433D01*
X130650599Y-113476434D01*
X130724833Y-113491200D01*
X131774966Y-113491199D01*
X131774969Y-113491198D01*
X131774973Y-113491198D01*
X131824226Y-113481401D01*
X131849201Y-113476434D01*
X131933384Y-113420184D01*
X131989634Y-113336001D01*
X132004400Y-113261767D01*
X132004399Y-112211634D01*
X132004398Y-112211631D01*
X132004398Y-112211626D01*
X131989634Y-112137399D01*
X131933383Y-112053215D01*
X131849202Y-111996966D01*
X131774967Y-111982200D01*
X130724836Y-111982200D01*
X130724826Y-111982201D01*
X130650599Y-111996965D01*
X130566415Y-112053216D01*
X130510166Y-112137397D01*
X130495400Y-112211630D01*
X130004699Y-112211630D01*
X129989934Y-112137399D01*
X129933683Y-112053215D01*
X129849502Y-111996966D01*
X129775267Y-111982200D01*
X128725136Y-111982200D01*
X128725126Y-111982201D01*
X128650899Y-111996965D01*
X128566715Y-112053216D01*
X128510466Y-112137397D01*
X128495700Y-112211630D01*
X128004399Y-112211630D01*
X127989634Y-112137399D01*
X127933383Y-112053215D01*
X127849202Y-111996966D01*
X127774967Y-111982200D01*
X126724836Y-111982200D01*
X126724826Y-111982201D01*
X126650599Y-111996965D01*
X126566415Y-112053216D01*
X126510166Y-112137397D01*
X126495400Y-112211630D01*
X126004399Y-112211630D01*
X125989634Y-112137399D01*
X125933383Y-112053215D01*
X125849202Y-111996966D01*
X125774967Y-111982200D01*
X124724836Y-111982200D01*
X124724826Y-111982201D01*
X124650599Y-111996965D01*
X124566415Y-112053216D01*
X124510166Y-112137397D01*
X124495400Y-112211630D01*
X124004599Y-112211630D01*
X123989834Y-112137399D01*
X123933583Y-112053215D01*
X123849402Y-111996966D01*
X123775167Y-111982200D01*
X122725036Y-111982200D01*
X122725026Y-111982201D01*
X122650799Y-111996965D01*
X122566615Y-112053216D01*
X122510366Y-112137397D01*
X122495600Y-112211630D01*
X122004299Y-112211630D01*
X121989534Y-112137399D01*
X121933283Y-112053215D01*
X121849102Y-111996966D01*
X121774867Y-111982200D01*
X120724736Y-111982200D01*
X120724726Y-111982201D01*
X120650499Y-111996965D01*
X120566315Y-112053216D01*
X120510066Y-112137397D01*
X120495300Y-112211630D01*
X120004699Y-112211630D01*
X119989934Y-112137399D01*
X119933683Y-112053215D01*
X119849502Y-111996966D01*
X119775267Y-111982200D01*
X118725136Y-111982200D01*
X118725126Y-111982201D01*
X118650899Y-111996965D01*
X118566715Y-112053216D01*
X118510466Y-112137397D01*
X118495700Y-112211630D01*
X118004699Y-112211630D01*
X117989934Y-112137399D01*
X117933683Y-112053215D01*
X117849502Y-111996966D01*
X117775267Y-111982200D01*
X116725136Y-111982200D01*
X116725126Y-111982201D01*
X116650899Y-111996965D01*
X116566715Y-112053216D01*
X116510466Y-112137397D01*
X116495700Y-112211630D01*
X100500500Y-112211630D01*
X100500500Y-103529980D01*
X147203400Y-103529980D01*
X147203400Y-103730219D01*
X147242464Y-103926602D01*
X147319090Y-104111593D01*
X147430333Y-104278081D01*
X147430334Y-104278082D01*
X147430339Y-104278088D01*
X147571911Y-104419660D01*
X147571917Y-104419665D01*
X147571919Y-104419667D01*
X147738407Y-104530910D01*
X147923398Y-104607536D01*
X148119784Y-104646600D01*
X148320016Y-104646600D01*
X148516402Y-104607536D01*
X148701393Y-104530910D01*
X148867881Y-104419667D01*
X149009467Y-104278081D01*
X149120710Y-104111593D01*
X149197336Y-103926602D01*
X149236400Y-103730216D01*
X149236400Y-103529984D01*
X149197336Y-103333598D01*
X149120710Y-103148607D01*
X149009467Y-102982119D01*
X149009465Y-102982117D01*
X149009460Y-102982111D01*
X148870379Y-102843030D01*
X152283400Y-102843030D01*
X152283400Y-104417163D01*
X152283401Y-104417173D01*
X152298165Y-104491400D01*
X152354416Y-104575584D01*
X152438597Y-104631833D01*
X152438599Y-104631834D01*
X152512833Y-104646600D01*
X154086966Y-104646599D01*
X154086969Y-104646598D01*
X154086973Y-104646598D01*
X154136226Y-104636801D01*
X154161201Y-104631834D01*
X154245384Y-104575584D01*
X154301634Y-104491401D01*
X154316400Y-104417167D01*
X154316399Y-102843034D01*
X154316399Y-102843033D01*
X154316399Y-102843031D01*
X154316399Y-102843030D01*
X154823400Y-102843030D01*
X154823400Y-104417163D01*
X154823401Y-104417173D01*
X154838165Y-104491400D01*
X154894416Y-104575584D01*
X154978597Y-104631833D01*
X154978599Y-104631834D01*
X155052833Y-104646600D01*
X156626966Y-104646599D01*
X156626969Y-104646598D01*
X156626973Y-104646598D01*
X156676226Y-104636801D01*
X156701201Y-104631834D01*
X156785384Y-104575584D01*
X156841634Y-104491401D01*
X156856400Y-104417167D01*
X156856399Y-103529980D01*
X157363400Y-103529980D01*
X157363400Y-103730219D01*
X157402464Y-103926602D01*
X157479090Y-104111593D01*
X157590333Y-104278081D01*
X157590334Y-104278082D01*
X157590339Y-104278088D01*
X157731911Y-104419660D01*
X157731917Y-104419665D01*
X157731919Y-104419667D01*
X157898407Y-104530910D01*
X158083398Y-104607536D01*
X158279784Y-104646600D01*
X158480016Y-104646600D01*
X158676402Y-104607536D01*
X158861393Y-104530910D01*
X159027881Y-104419667D01*
X159169467Y-104278081D01*
X159280710Y-104111593D01*
X159357336Y-103926602D01*
X159396400Y-103730216D01*
X159396400Y-103529984D01*
X159396399Y-103529980D01*
X159903400Y-103529980D01*
X159903400Y-103730219D01*
X159942464Y-103926602D01*
X160019090Y-104111593D01*
X160130333Y-104278081D01*
X160130334Y-104278082D01*
X160130339Y-104278088D01*
X160271911Y-104419660D01*
X160271917Y-104419665D01*
X160271919Y-104419667D01*
X160438407Y-104530910D01*
X160623398Y-104607536D01*
X160819784Y-104646600D01*
X161020016Y-104646600D01*
X161216402Y-104607536D01*
X161401393Y-104530910D01*
X161567881Y-104419667D01*
X161709467Y-104278081D01*
X161820710Y-104111593D01*
X161897336Y-103926602D01*
X161936400Y-103730216D01*
X161936400Y-103529984D01*
X161897336Y-103333598D01*
X161820710Y-103148607D01*
X161709467Y-102982119D01*
X161709465Y-102982117D01*
X161709460Y-102982111D01*
X161570379Y-102843030D01*
X162443400Y-102843030D01*
X162443400Y-104417163D01*
X162443401Y-104417173D01*
X162458165Y-104491400D01*
X162514416Y-104575584D01*
X162598597Y-104631833D01*
X162598599Y-104631834D01*
X162672833Y-104646600D01*
X164246966Y-104646599D01*
X164246969Y-104646598D01*
X164246973Y-104646598D01*
X164296226Y-104636801D01*
X164321201Y-104631834D01*
X164405384Y-104575584D01*
X164461634Y-104491401D01*
X164476400Y-104417167D01*
X164476399Y-102843034D01*
X164476399Y-102843033D01*
X164476399Y-102843031D01*
X164476399Y-102843030D01*
X164983400Y-102843030D01*
X164983400Y-104417163D01*
X164983401Y-104417173D01*
X164998165Y-104491400D01*
X165054416Y-104575584D01*
X165138597Y-104631833D01*
X165138599Y-104631834D01*
X165212833Y-104646600D01*
X166786966Y-104646599D01*
X166786969Y-104646598D01*
X166786973Y-104646598D01*
X166836226Y-104636801D01*
X166861201Y-104631834D01*
X166945384Y-104575584D01*
X167001634Y-104491401D01*
X167016400Y-104417167D01*
X167016399Y-103529980D01*
X167523400Y-103529980D01*
X167523400Y-103730219D01*
X167562464Y-103926602D01*
X167639090Y-104111593D01*
X167750333Y-104278081D01*
X167750334Y-104278082D01*
X167750339Y-104278088D01*
X167891911Y-104419660D01*
X167891917Y-104419665D01*
X167891919Y-104419667D01*
X168058407Y-104530910D01*
X168243398Y-104607536D01*
X168439784Y-104646600D01*
X168640016Y-104646600D01*
X168836402Y-104607536D01*
X169021393Y-104530910D01*
X169187881Y-104419667D01*
X169329467Y-104278081D01*
X169440710Y-104111593D01*
X169517336Y-103926602D01*
X169556400Y-103730216D01*
X169556400Y-103529984D01*
X169556399Y-103529980D01*
X170063400Y-103529980D01*
X170063400Y-103730219D01*
X170102464Y-103926602D01*
X170179090Y-104111593D01*
X170290333Y-104278081D01*
X170290334Y-104278082D01*
X170290339Y-104278088D01*
X170431911Y-104419660D01*
X170431917Y-104419665D01*
X170431919Y-104419667D01*
X170598407Y-104530910D01*
X170783398Y-104607536D01*
X170979784Y-104646600D01*
X171180016Y-104646600D01*
X171376402Y-104607536D01*
X171561393Y-104530910D01*
X171727881Y-104419667D01*
X171869467Y-104278081D01*
X171980710Y-104111593D01*
X172057336Y-103926602D01*
X172096400Y-103730216D01*
X172096400Y-103529984D01*
X172096399Y-103529980D01*
X172603400Y-103529980D01*
X172603400Y-103730219D01*
X172642464Y-103926602D01*
X172719090Y-104111593D01*
X172830333Y-104278081D01*
X172830334Y-104278082D01*
X172830339Y-104278088D01*
X172971911Y-104419660D01*
X172971917Y-104419665D01*
X172971919Y-104419667D01*
X173138407Y-104530910D01*
X173323398Y-104607536D01*
X173519784Y-104646600D01*
X173720016Y-104646600D01*
X173916402Y-104607536D01*
X174101393Y-104530910D01*
X174267881Y-104419667D01*
X174409467Y-104278081D01*
X174520710Y-104111593D01*
X174597336Y-103926602D01*
X174636400Y-103730216D01*
X174636400Y-103529984D01*
X174636399Y-103529980D01*
X175143400Y-103529980D01*
X175143400Y-103730219D01*
X175182464Y-103926602D01*
X175259090Y-104111593D01*
X175370333Y-104278081D01*
X175370334Y-104278082D01*
X175370339Y-104278088D01*
X175511911Y-104419660D01*
X175511917Y-104419665D01*
X175511919Y-104419667D01*
X175678407Y-104530910D01*
X175863398Y-104607536D01*
X176059784Y-104646600D01*
X176260016Y-104646600D01*
X176456402Y-104607536D01*
X176641393Y-104530910D01*
X176807881Y-104419667D01*
X176949467Y-104278081D01*
X177060710Y-104111593D01*
X177137336Y-103926602D01*
X177176400Y-103730216D01*
X177176400Y-103529984D01*
X177176399Y-103529980D01*
X177683400Y-103529980D01*
X177683400Y-103730219D01*
X177722464Y-103926602D01*
X177799090Y-104111593D01*
X177910333Y-104278081D01*
X177910334Y-104278082D01*
X177910339Y-104278088D01*
X178051911Y-104419660D01*
X178051917Y-104419665D01*
X178051919Y-104419667D01*
X178218407Y-104530910D01*
X178403398Y-104607536D01*
X178599784Y-104646600D01*
X178800016Y-104646600D01*
X178996402Y-104607536D01*
X179181393Y-104530910D01*
X179347881Y-104419667D01*
X179489467Y-104278081D01*
X179600710Y-104111593D01*
X179677336Y-103926602D01*
X179716400Y-103730216D01*
X179716400Y-103529984D01*
X179677336Y-103333598D01*
X179600710Y-103148607D01*
X179489467Y-102982119D01*
X179489465Y-102982117D01*
X179489460Y-102982111D01*
X179350379Y-102843030D01*
X180223400Y-102843030D01*
X180223400Y-104417163D01*
X180223401Y-104417173D01*
X180238165Y-104491400D01*
X180294416Y-104575584D01*
X180378597Y-104631833D01*
X180378599Y-104631834D01*
X180452833Y-104646600D01*
X182026966Y-104646599D01*
X182026969Y-104646598D01*
X182026973Y-104646598D01*
X182076226Y-104636801D01*
X182101201Y-104631834D01*
X182185384Y-104575584D01*
X182241634Y-104491401D01*
X182256400Y-104417167D01*
X182256399Y-102843034D01*
X182256399Y-102843033D01*
X182256399Y-102843031D01*
X182256399Y-102843030D01*
X182763400Y-102843030D01*
X182763400Y-104417163D01*
X182763401Y-104417173D01*
X182778165Y-104491400D01*
X182834416Y-104575584D01*
X182918597Y-104631833D01*
X182918599Y-104631834D01*
X182992833Y-104646600D01*
X184566966Y-104646599D01*
X184566969Y-104646598D01*
X184566973Y-104646598D01*
X184616226Y-104636801D01*
X184641201Y-104631834D01*
X184725384Y-104575584D01*
X184781634Y-104491401D01*
X184796400Y-104417167D01*
X184796399Y-102843034D01*
X184796398Y-102843031D01*
X184796398Y-102843026D01*
X184781634Y-102768799D01*
X184781633Y-102768797D01*
X184725384Y-102684616D01*
X184677567Y-102652665D01*
X184641202Y-102628366D01*
X184566967Y-102613600D01*
X182992836Y-102613600D01*
X182992826Y-102613601D01*
X182918599Y-102628365D01*
X182834415Y-102684616D01*
X182778166Y-102768797D01*
X182763400Y-102843030D01*
X182256399Y-102843030D01*
X182241634Y-102768799D01*
X182241633Y-102768797D01*
X182185384Y-102684616D01*
X182137567Y-102652665D01*
X182101202Y-102628366D01*
X182026967Y-102613600D01*
X180452836Y-102613600D01*
X180452826Y-102613601D01*
X180378599Y-102628365D01*
X180294415Y-102684616D01*
X180238166Y-102768797D01*
X180223400Y-102843030D01*
X179350379Y-102843030D01*
X179347888Y-102840539D01*
X179347882Y-102840534D01*
X179347881Y-102840533D01*
X179181393Y-102729290D01*
X179064739Y-102680970D01*
X178996405Y-102652665D01*
X178996402Y-102652664D01*
X178800019Y-102613600D01*
X178800016Y-102613600D01*
X178599784Y-102613600D01*
X178599780Y-102613600D01*
X178403397Y-102652664D01*
X178403394Y-102652665D01*
X178218407Y-102729290D01*
X178051917Y-102840534D01*
X178051911Y-102840539D01*
X177910339Y-102982111D01*
X177910334Y-102982117D01*
X177799090Y-103148607D01*
X177722465Y-103333594D01*
X177722464Y-103333597D01*
X177683400Y-103529980D01*
X177176399Y-103529980D01*
X177137336Y-103333598D01*
X177060710Y-103148607D01*
X176949467Y-102982119D01*
X176949465Y-102982117D01*
X176949460Y-102982111D01*
X176807888Y-102840539D01*
X176807882Y-102840534D01*
X176807881Y-102840533D01*
X176641393Y-102729290D01*
X176524739Y-102680970D01*
X176456405Y-102652665D01*
X176456402Y-102652664D01*
X176260019Y-102613600D01*
X176260016Y-102613600D01*
X176059784Y-102613600D01*
X176059780Y-102613600D01*
X175863397Y-102652664D01*
X175863394Y-102652665D01*
X175678407Y-102729290D01*
X175511917Y-102840534D01*
X175511911Y-102840539D01*
X175370339Y-102982111D01*
X175370334Y-102982117D01*
X175259090Y-103148607D01*
X175182465Y-103333594D01*
X175182464Y-103333597D01*
X175143400Y-103529980D01*
X174636399Y-103529980D01*
X174597336Y-103333598D01*
X174520710Y-103148607D01*
X174409467Y-102982119D01*
X174409465Y-102982117D01*
X174409460Y-102982111D01*
X174267888Y-102840539D01*
X174267882Y-102840534D01*
X174267881Y-102840533D01*
X174101393Y-102729290D01*
X173984739Y-102680970D01*
X173916405Y-102652665D01*
X173916402Y-102652664D01*
X173720019Y-102613600D01*
X173720016Y-102613600D01*
X173519784Y-102613600D01*
X173519780Y-102613600D01*
X173323397Y-102652664D01*
X173323394Y-102652665D01*
X173138407Y-102729290D01*
X172971917Y-102840534D01*
X172971911Y-102840539D01*
X172830339Y-102982111D01*
X172830334Y-102982117D01*
X172719090Y-103148607D01*
X172642465Y-103333594D01*
X172642464Y-103333597D01*
X172603400Y-103529980D01*
X172096399Y-103529980D01*
X172057336Y-103333598D01*
X171980710Y-103148607D01*
X171869467Y-102982119D01*
X171869465Y-102982117D01*
X171869460Y-102982111D01*
X171727888Y-102840539D01*
X171727882Y-102840534D01*
X171727881Y-102840533D01*
X171561393Y-102729290D01*
X171444739Y-102680970D01*
X171376405Y-102652665D01*
X171376402Y-102652664D01*
X171180019Y-102613600D01*
X171180016Y-102613600D01*
X170979784Y-102613600D01*
X170979780Y-102613600D01*
X170783397Y-102652664D01*
X170783394Y-102652665D01*
X170598407Y-102729290D01*
X170431917Y-102840534D01*
X170431911Y-102840539D01*
X170290339Y-102982111D01*
X170290334Y-102982117D01*
X170179090Y-103148607D01*
X170102465Y-103333594D01*
X170102464Y-103333597D01*
X170063400Y-103529980D01*
X169556399Y-103529980D01*
X169517336Y-103333598D01*
X169440710Y-103148607D01*
X169329467Y-102982119D01*
X169329465Y-102982117D01*
X169329460Y-102982111D01*
X169187888Y-102840539D01*
X169187882Y-102840534D01*
X169187881Y-102840533D01*
X169021393Y-102729290D01*
X168904739Y-102680970D01*
X168836405Y-102652665D01*
X168836402Y-102652664D01*
X168640019Y-102613600D01*
X168640016Y-102613600D01*
X168439784Y-102613600D01*
X168439780Y-102613600D01*
X168243397Y-102652664D01*
X168243394Y-102652665D01*
X168058407Y-102729290D01*
X167891917Y-102840534D01*
X167891911Y-102840539D01*
X167750339Y-102982111D01*
X167750334Y-102982117D01*
X167639090Y-103148607D01*
X167562465Y-103333594D01*
X167562464Y-103333597D01*
X167523400Y-103529980D01*
X167016399Y-103529980D01*
X167016399Y-102843034D01*
X167016398Y-102843031D01*
X167016398Y-102843026D01*
X167001634Y-102768799D01*
X167001633Y-102768797D01*
X166945384Y-102684616D01*
X166897567Y-102652665D01*
X166861202Y-102628366D01*
X166786967Y-102613600D01*
X165212836Y-102613600D01*
X165212826Y-102613601D01*
X165138599Y-102628365D01*
X165054415Y-102684616D01*
X164998166Y-102768797D01*
X164983400Y-102843030D01*
X164476399Y-102843030D01*
X164461634Y-102768799D01*
X164461633Y-102768797D01*
X164405384Y-102684616D01*
X164357567Y-102652665D01*
X164321202Y-102628366D01*
X164246967Y-102613600D01*
X162672836Y-102613600D01*
X162672826Y-102613601D01*
X162598599Y-102628365D01*
X162514415Y-102684616D01*
X162458166Y-102768797D01*
X162443400Y-102843030D01*
X161570379Y-102843030D01*
X161567888Y-102840539D01*
X161567882Y-102840534D01*
X161567881Y-102840533D01*
X161401393Y-102729290D01*
X161284739Y-102680970D01*
X161216405Y-102652665D01*
X161216402Y-102652664D01*
X161020019Y-102613600D01*
X161020016Y-102613600D01*
X160819784Y-102613600D01*
X160819780Y-102613600D01*
X160623397Y-102652664D01*
X160623394Y-102652665D01*
X160438407Y-102729290D01*
X160271917Y-102840534D01*
X160271911Y-102840539D01*
X160130339Y-102982111D01*
X160130334Y-102982117D01*
X160019090Y-103148607D01*
X159942465Y-103333594D01*
X159942464Y-103333597D01*
X159903400Y-103529980D01*
X159396399Y-103529980D01*
X159357336Y-103333598D01*
X159280710Y-103148607D01*
X159169467Y-102982119D01*
X159169465Y-102982117D01*
X159169460Y-102982111D01*
X159027888Y-102840539D01*
X159027882Y-102840534D01*
X159027881Y-102840533D01*
X158861393Y-102729290D01*
X158744739Y-102680970D01*
X158676405Y-102652665D01*
X158676402Y-102652664D01*
X158480019Y-102613600D01*
X158480016Y-102613600D01*
X158279784Y-102613600D01*
X158279780Y-102613600D01*
X158083397Y-102652664D01*
X158083394Y-102652665D01*
X157898407Y-102729290D01*
X157731917Y-102840534D01*
X157731911Y-102840539D01*
X157590339Y-102982111D01*
X157590334Y-102982117D01*
X157479090Y-103148607D01*
X157402465Y-103333594D01*
X157402464Y-103333597D01*
X157363400Y-103529980D01*
X156856399Y-103529980D01*
X156856399Y-102843034D01*
X156856398Y-102843031D01*
X156856398Y-102843026D01*
X156841634Y-102768799D01*
X156841633Y-102768797D01*
X156785384Y-102684616D01*
X156737567Y-102652665D01*
X156701202Y-102628366D01*
X156626967Y-102613600D01*
X155052836Y-102613600D01*
X155052826Y-102613601D01*
X154978599Y-102628365D01*
X154894415Y-102684616D01*
X154838166Y-102768797D01*
X154823400Y-102843030D01*
X154316399Y-102843030D01*
X154301634Y-102768799D01*
X154301633Y-102768797D01*
X154245384Y-102684616D01*
X154197567Y-102652665D01*
X154161202Y-102628366D01*
X154086967Y-102613600D01*
X152512836Y-102613600D01*
X152512826Y-102613601D01*
X152438599Y-102628365D01*
X152354415Y-102684616D01*
X152298166Y-102768797D01*
X152283400Y-102843030D01*
X148870379Y-102843030D01*
X148867888Y-102840539D01*
X148867882Y-102840534D01*
X148867881Y-102840533D01*
X148701393Y-102729290D01*
X148584739Y-102680970D01*
X148516405Y-102652665D01*
X148516402Y-102652664D01*
X148320019Y-102613600D01*
X148320016Y-102613600D01*
X148119784Y-102613600D01*
X148119780Y-102613600D01*
X147923397Y-102652664D01*
X147923394Y-102652665D01*
X147738407Y-102729290D01*
X147571917Y-102840534D01*
X147571911Y-102840539D01*
X147430339Y-102982111D01*
X147430334Y-102982117D01*
X147319090Y-103148607D01*
X147242465Y-103333594D01*
X147242464Y-103333597D01*
X147203400Y-103529980D01*
X100500500Y-103529980D01*
X100500500Y-78324331D01*
X116940999Y-78324331D01*
X116979116Y-78466582D01*
X117052746Y-78594114D01*
X117052748Y-78594117D01*
X117052749Y-78594118D01*
X117081895Y-78623264D01*
X117115920Y-78685574D01*
X117118800Y-78712359D01*
X117118800Y-99300723D01*
X117118799Y-99300723D01*
X117144800Y-99397758D01*
X117195021Y-99484743D01*
X117195029Y-99484753D01*
X117266046Y-99555770D01*
X117266051Y-99555774D01*
X117266053Y-99555776D01*
X117266054Y-99555777D01*
X117266056Y-99555778D01*
X117353041Y-99605999D01*
X117353043Y-99605999D01*
X117353046Y-99606001D01*
X117450075Y-99632000D01*
X117450077Y-99632000D01*
X147300123Y-99632000D01*
X147300125Y-99632000D01*
X147397154Y-99606001D01*
X147397157Y-99605999D01*
X147397158Y-99605999D01*
X147440650Y-99580888D01*
X147484147Y-99555776D01*
X147555176Y-99484747D01*
X147605401Y-99397754D01*
X147631400Y-99300725D01*
X147631400Y-97677340D01*
X178440600Y-97677340D01*
X178440600Y-97824660D01*
X178474224Y-97950149D01*
X178478730Y-97966963D01*
X178552385Y-98094537D01*
X178552393Y-98094547D01*
X178656552Y-98198706D01*
X178656557Y-98198710D01*
X178656559Y-98198712D01*
X178656560Y-98198713D01*
X178656562Y-98198714D01*
X178784136Y-98272369D01*
X178784138Y-98272369D01*
X178784141Y-98272371D01*
X178926440Y-98310500D01*
X178926442Y-98310500D01*
X179073758Y-98310500D01*
X179073760Y-98310500D01*
X179216059Y-98272371D01*
X179216062Y-98272369D01*
X179216063Y-98272369D01*
X179279850Y-98235541D01*
X179343641Y-98198712D01*
X179343647Y-98198706D01*
X179372849Y-98169505D01*
X179435161Y-98135479D01*
X179461944Y-98132600D01*
X189050223Y-98132600D01*
X189050225Y-98132600D01*
X189147254Y-98106601D01*
X189147257Y-98106599D01*
X189147258Y-98106599D01*
X189190750Y-98081488D01*
X189234247Y-98056376D01*
X189305276Y-97985347D01*
X189355501Y-97898354D01*
X189381500Y-97801325D01*
X189381500Y-85450875D01*
X189355501Y-85353846D01*
X189355499Y-85353843D01*
X189355499Y-85353841D01*
X189305278Y-85266856D01*
X189305270Y-85266846D01*
X189234253Y-85195829D01*
X189234243Y-85195821D01*
X189147258Y-85145600D01*
X189135792Y-85142527D01*
X189050225Y-85119600D01*
X179050325Y-85119600D01*
X178949875Y-85119600D01*
X178890490Y-85135512D01*
X178852841Y-85145600D01*
X178765856Y-85195821D01*
X178765846Y-85195829D01*
X178694829Y-85266846D01*
X178694821Y-85266856D01*
X178644600Y-85353841D01*
X178618600Y-85450876D01*
X178618600Y-97289056D01*
X178598598Y-97357177D01*
X178581695Y-97378151D01*
X178552393Y-97407452D01*
X178552385Y-97407462D01*
X178478730Y-97535036D01*
X178478729Y-97535041D01*
X178440600Y-97677340D01*
X147631400Y-97677340D01*
X147631400Y-78200275D01*
X147605401Y-78103246D01*
X147605399Y-78103243D01*
X147605399Y-78103241D01*
X147555178Y-78016256D01*
X147555170Y-78016246D01*
X147484153Y-77945229D01*
X147484143Y-77945221D01*
X147397158Y-77895000D01*
X147385692Y-77891927D01*
X147300125Y-77869000D01*
X147300123Y-77869000D01*
X117961760Y-77869000D01*
X117893639Y-77848998D01*
X117872665Y-77832095D01*
X117843724Y-77803154D01*
X117843714Y-77803146D01*
X117716182Y-77729516D01*
X117573933Y-77691400D01*
X117426667Y-77691400D01*
X117331834Y-77716810D01*
X117284417Y-77729516D01*
X117156885Y-77803146D01*
X117156875Y-77803154D01*
X117052754Y-77907275D01*
X117052746Y-77907285D01*
X116979116Y-78034817D01*
X116941000Y-78177068D01*
X116941000Y-78324331D01*
X116940999Y-78324331D01*
X100500500Y-78324331D01*
X100500500Y-71259503D01*
X100520502Y-71191382D01*
X100537405Y-71170408D01*
X101500056Y-70207757D01*
X102476273Y-69231539D01*
X102538583Y-69197516D01*
X102609398Y-69202580D01*
X102666234Y-69245127D01*
X102691045Y-69311647D01*
X102689689Y-69341123D01*
X102635032Y-69672807D01*
X102635030Y-69672820D01*
X102615604Y-70010503D01*
X102614402Y-70031391D01*
X102631748Y-70389594D01*
X102631775Y-70390140D01*
X102686949Y-70745022D01*
X102686950Y-70745025D01*
X102779313Y-71092102D01*
X102779313Y-71092103D01*
X102907829Y-71427479D01*
X102907830Y-71427481D01*
X103071062Y-71747403D01*
X103244169Y-72012985D01*
X103267178Y-72048286D01*
X103267178Y-72048287D01*
X103447371Y-72269529D01*
X103493991Y-72326770D01*
X103748955Y-72579729D01*
X103918482Y-72715589D01*
X104029212Y-72804330D01*
X104331644Y-72998073D01*
X104438492Y-73051529D01*
X104652844Y-73158772D01*
X104652851Y-73158774D01*
X104652852Y-73158775D01*
X104652856Y-73158777D01*
X104878070Y-73243046D01*
X104989225Y-73284638D01*
X105337023Y-73374258D01*
X105692342Y-73426632D01*
X106051206Y-73441171D01*
X106051206Y-73441170D01*
X106051207Y-73441171D01*
X106073223Y-73439729D01*
X106409598Y-73417713D01*
X106763505Y-73356521D01*
X107108967Y-73258280D01*
X107442115Y-73124090D01*
X107759221Y-72955453D01*
X107813993Y-72918411D01*
X107881626Y-72896819D01*
X107917189Y-72901077D01*
X107934440Y-72905700D01*
X107934441Y-72905700D01*
X108081758Y-72905700D01*
X108081760Y-72905700D01*
X108224059Y-72867571D01*
X108224062Y-72867569D01*
X108224063Y-72867569D01*
X108333596Y-72804330D01*
X108351641Y-72793912D01*
X108455812Y-72689741D01*
X108512403Y-72591722D01*
X108529469Y-72562163D01*
X108529469Y-72562162D01*
X108529471Y-72562159D01*
X108567600Y-72419860D01*
X108567600Y-72322513D01*
X108587602Y-72254392D01*
X108593944Y-72245411D01*
X108799738Y-71979496D01*
X108988315Y-71673827D01*
X109143541Y-71349945D01*
X109261901Y-71016484D01*
X109263677Y-71011481D01*
X109263680Y-71011471D01*
X109280803Y-70940023D01*
X109347384Y-70662207D01*
X109393719Y-70306050D01*
X109401027Y-69995366D01*
X109402165Y-69947001D01*
X109402165Y-69946996D01*
X109402018Y-69945218D01*
X109372629Y-69589049D01*
X109305439Y-69236231D01*
X109266588Y-69107930D01*
X119067400Y-69107930D01*
X119067400Y-70858063D01*
X119067401Y-70858073D01*
X119082165Y-70932300D01*
X119138416Y-71016484D01*
X119222597Y-71072733D01*
X119222599Y-71072734D01*
X119296833Y-71087500D01*
X121046966Y-71087499D01*
X121046969Y-71087498D01*
X121046973Y-71087498D01*
X121098702Y-71077209D01*
X121121201Y-71072734D01*
X121205384Y-71016484D01*
X121261634Y-70932301D01*
X121276400Y-70858067D01*
X121276399Y-69107934D01*
X121276399Y-69107933D01*
X121276399Y-69107931D01*
X121276399Y-69107930D01*
X121607400Y-69107930D01*
X121607400Y-70858063D01*
X121607401Y-70858073D01*
X121622165Y-70932300D01*
X121678416Y-71016484D01*
X121762597Y-71072733D01*
X121762599Y-71072734D01*
X121836833Y-71087500D01*
X123586966Y-71087499D01*
X123586969Y-71087498D01*
X123586973Y-71087498D01*
X123638702Y-71077209D01*
X123661201Y-71072734D01*
X123745384Y-71016484D01*
X123801634Y-70932301D01*
X123816400Y-70858067D01*
X123816399Y-69107934D01*
X123816399Y-69107933D01*
X123816399Y-69107931D01*
X123816399Y-69107930D01*
X124147400Y-69107930D01*
X124147400Y-70858063D01*
X124147401Y-70858073D01*
X124162165Y-70932300D01*
X124218416Y-71016484D01*
X124302597Y-71072733D01*
X124302599Y-71072734D01*
X124376833Y-71087500D01*
X126126966Y-71087499D01*
X126126969Y-71087498D01*
X126126973Y-71087498D01*
X126178702Y-71077209D01*
X126201201Y-71072734D01*
X126285384Y-71016484D01*
X126341634Y-70932301D01*
X126356400Y-70858067D01*
X126356399Y-69107934D01*
X126356399Y-69107933D01*
X126356399Y-69107931D01*
X126356399Y-69107930D01*
X126687400Y-69107930D01*
X126687400Y-70858063D01*
X126687401Y-70858073D01*
X126702165Y-70932300D01*
X126758416Y-71016484D01*
X126842597Y-71072733D01*
X126842599Y-71072734D01*
X126916833Y-71087500D01*
X128666966Y-71087499D01*
X128666969Y-71087498D01*
X128666973Y-71087498D01*
X128718702Y-71077209D01*
X128741201Y-71072734D01*
X128825384Y-71016484D01*
X128881634Y-70932301D01*
X128896400Y-70858067D01*
X128896399Y-69107934D01*
X128896399Y-69107933D01*
X128896399Y-69107931D01*
X128896399Y-69107930D01*
X131767400Y-69107930D01*
X131767400Y-70858063D01*
X131767401Y-70858073D01*
X131782165Y-70932300D01*
X131838416Y-71016484D01*
X131922597Y-71072733D01*
X131922599Y-71072734D01*
X131996833Y-71087500D01*
X133746966Y-71087499D01*
X133746969Y-71087498D01*
X133746973Y-71087498D01*
X133798702Y-71077209D01*
X133821201Y-71072734D01*
X133905384Y-71016484D01*
X133961634Y-70932301D01*
X133976400Y-70858067D01*
X133976399Y-69107934D01*
X133976399Y-69107933D01*
X133976399Y-69107931D01*
X133976399Y-69107930D01*
X134307400Y-69107930D01*
X134307400Y-70858063D01*
X134307401Y-70858073D01*
X134322165Y-70932300D01*
X134378416Y-71016484D01*
X134462597Y-71072733D01*
X134462599Y-71072734D01*
X134536833Y-71087500D01*
X136286966Y-71087499D01*
X136286969Y-71087498D01*
X136286973Y-71087498D01*
X136338702Y-71077209D01*
X136361201Y-71072734D01*
X136445384Y-71016484D01*
X136501634Y-70932301D01*
X136516400Y-70858067D01*
X136516399Y-69107934D01*
X136516399Y-69107933D01*
X136516399Y-69107931D01*
X136516399Y-69107930D01*
X136847400Y-69107930D01*
X136847400Y-70858063D01*
X136847401Y-70858073D01*
X136862165Y-70932300D01*
X136918416Y-71016484D01*
X137002597Y-71072733D01*
X137002599Y-71072734D01*
X137076833Y-71087500D01*
X138826966Y-71087499D01*
X138826969Y-71087498D01*
X138826973Y-71087498D01*
X138878702Y-71077209D01*
X138901201Y-71072734D01*
X138985384Y-71016484D01*
X139041634Y-70932301D01*
X139056400Y-70858067D01*
X139056399Y-69107934D01*
X139056399Y-69107933D01*
X139056399Y-69107931D01*
X139056399Y-69107930D01*
X139387400Y-69107930D01*
X139387400Y-70858063D01*
X139387401Y-70858073D01*
X139402165Y-70932300D01*
X139458416Y-71016484D01*
X139542597Y-71072733D01*
X139542599Y-71072734D01*
X139616833Y-71087500D01*
X141366966Y-71087499D01*
X141366969Y-71087498D01*
X141366973Y-71087498D01*
X141418702Y-71077209D01*
X141441201Y-71072734D01*
X141525384Y-71016484D01*
X141581634Y-70932301D01*
X141596400Y-70858067D01*
X141596399Y-69107934D01*
X141596399Y-69107933D01*
X141596399Y-69107931D01*
X141596399Y-69107930D01*
X141927400Y-69107930D01*
X141927400Y-70858063D01*
X141927401Y-70858073D01*
X141942165Y-70932300D01*
X141998416Y-71016484D01*
X142082597Y-71072733D01*
X142082599Y-71072734D01*
X142156833Y-71087500D01*
X143906966Y-71087499D01*
X143906969Y-71087498D01*
X143906973Y-71087498D01*
X143958702Y-71077209D01*
X143981201Y-71072734D01*
X144065384Y-71016484D01*
X144121634Y-70932301D01*
X144136400Y-70858067D01*
X144136399Y-69107934D01*
X144136399Y-69107933D01*
X144136399Y-69107931D01*
X144136399Y-69107930D01*
X144467400Y-69107930D01*
X144467400Y-70858063D01*
X144467401Y-70858073D01*
X144482165Y-70932300D01*
X144538416Y-71016484D01*
X144622597Y-71072733D01*
X144622599Y-71072734D01*
X144696833Y-71087500D01*
X146446966Y-71087499D01*
X146446969Y-71087498D01*
X146446973Y-71087498D01*
X146498702Y-71077209D01*
X146521201Y-71072734D01*
X146605384Y-71016484D01*
X146661634Y-70932301D01*
X146676400Y-70858067D01*
X146676399Y-69107934D01*
X146676399Y-69107933D01*
X146676399Y-69107931D01*
X146676399Y-69107930D01*
X147007400Y-69107930D01*
X147007400Y-70858063D01*
X147007401Y-70858073D01*
X147022165Y-70932300D01*
X147078416Y-71016484D01*
X147162597Y-71072733D01*
X147162599Y-71072734D01*
X147236833Y-71087500D01*
X148986966Y-71087499D01*
X148986969Y-71087498D01*
X148986973Y-71087498D01*
X149038702Y-71077209D01*
X149061201Y-71072734D01*
X149145384Y-71016484D01*
X149201634Y-70932301D01*
X149216400Y-70858067D01*
X149216399Y-69107934D01*
X149216399Y-69107933D01*
X149216399Y-69107931D01*
X149216399Y-69107930D01*
X149547400Y-69107930D01*
X149547400Y-70858063D01*
X149547401Y-70858073D01*
X149562165Y-70932300D01*
X149618416Y-71016484D01*
X149702597Y-71072733D01*
X149702599Y-71072734D01*
X149776833Y-71087500D01*
X151526966Y-71087499D01*
X151526969Y-71087498D01*
X151526973Y-71087498D01*
X151578702Y-71077209D01*
X151601201Y-71072734D01*
X151685384Y-71016484D01*
X151741634Y-70932301D01*
X151756400Y-70858067D01*
X151756399Y-69107934D01*
X151756399Y-69107933D01*
X151756399Y-69107931D01*
X151756399Y-69107930D01*
X152087400Y-69107930D01*
X152087400Y-70858063D01*
X152087401Y-70858073D01*
X152102165Y-70932300D01*
X152158416Y-71016484D01*
X152242597Y-71072733D01*
X152242599Y-71072734D01*
X152316833Y-71087500D01*
X154066966Y-71087499D01*
X154066969Y-71087498D01*
X154066973Y-71087498D01*
X154118702Y-71077209D01*
X154141201Y-71072734D01*
X154225384Y-71016484D01*
X154281634Y-70932301D01*
X154296400Y-70858067D01*
X154296399Y-69107934D01*
X154296399Y-69107933D01*
X154296399Y-69107931D01*
X154296399Y-69107930D01*
X154627400Y-69107930D01*
X154627400Y-70858063D01*
X154627401Y-70858073D01*
X154642165Y-70932300D01*
X154698416Y-71016484D01*
X154782597Y-71072733D01*
X154782599Y-71072734D01*
X154856833Y-71087500D01*
X156606966Y-71087499D01*
X156606969Y-71087498D01*
X156606973Y-71087498D01*
X156658702Y-71077209D01*
X156681201Y-71072734D01*
X156765384Y-71016484D01*
X156821634Y-70932301D01*
X156836400Y-70858067D01*
X156836399Y-69107934D01*
X156836399Y-69107933D01*
X156836399Y-69107931D01*
X156836399Y-69107930D01*
X157167400Y-69107930D01*
X157167400Y-70858063D01*
X157167401Y-70858073D01*
X157182165Y-70932300D01*
X157238416Y-71016484D01*
X157322597Y-71072733D01*
X157322599Y-71072734D01*
X157396833Y-71087500D01*
X159146966Y-71087499D01*
X159146969Y-71087498D01*
X159146973Y-71087498D01*
X159198702Y-71077209D01*
X159221201Y-71072734D01*
X159305384Y-71016484D01*
X159361634Y-70932301D01*
X159376400Y-70858067D01*
X159376399Y-69470189D01*
X159396401Y-69402069D01*
X159413298Y-69381100D01*
X159492304Y-69302092D01*
X159554615Y-69268067D01*
X159625431Y-69273131D01*
X159682267Y-69315677D01*
X159707079Y-69382197D01*
X159707400Y-69391187D01*
X159707400Y-70858063D01*
X159707401Y-70858073D01*
X159722165Y-70932300D01*
X159778416Y-71016484D01*
X159862597Y-71072733D01*
X159862599Y-71072734D01*
X159936833Y-71087500D01*
X161686966Y-71087499D01*
X161686969Y-71087498D01*
X161686973Y-71087498D01*
X161738702Y-71077209D01*
X161761201Y-71072734D01*
X161845384Y-71016484D01*
X161901634Y-70932301D01*
X161916400Y-70858067D01*
X161916399Y-69107934D01*
X161916399Y-69107933D01*
X161916399Y-69107931D01*
X161916399Y-69107930D01*
X162247400Y-69107930D01*
X162247400Y-70858063D01*
X162247401Y-70858073D01*
X162262165Y-70932300D01*
X162318416Y-71016484D01*
X162402597Y-71072733D01*
X162402599Y-71072734D01*
X162476833Y-71087500D01*
X164226966Y-71087499D01*
X164226969Y-71087498D01*
X164226973Y-71087498D01*
X164278702Y-71077209D01*
X164301201Y-71072734D01*
X164385384Y-71016484D01*
X164441634Y-70932301D01*
X164456400Y-70858067D01*
X164456399Y-69107934D01*
X164456398Y-69107931D01*
X164456398Y-69107926D01*
X164441634Y-69033699D01*
X164423960Y-69007249D01*
X164385384Y-68949516D01*
X164385383Y-68949515D01*
X164301202Y-68893266D01*
X164226967Y-68878500D01*
X162476836Y-68878500D01*
X162476826Y-68878501D01*
X162402599Y-68893265D01*
X162318415Y-68949516D01*
X162262166Y-69033697D01*
X162247400Y-69107930D01*
X161916399Y-69107930D01*
X161901634Y-69033699D01*
X161883960Y-69007249D01*
X161845384Y-68949516D01*
X161845383Y-68949515D01*
X161761202Y-68893266D01*
X161686969Y-68878500D01*
X160220070Y-68878500D01*
X160151949Y-68858498D01*
X160105456Y-68804842D01*
X160095352Y-68734568D01*
X160124846Y-68669988D01*
X160130957Y-68663422D01*
X162125021Y-66669306D01*
X162187333Y-66635280D01*
X162214118Y-66632400D01*
X179040287Y-66632400D01*
X179108408Y-66652402D01*
X179129382Y-66669305D01*
X193581895Y-81121818D01*
X193615921Y-81184130D01*
X193618800Y-81210913D01*
X193618800Y-98039686D01*
X193598798Y-98107807D01*
X193581895Y-98128781D01*
X178447430Y-113263245D01*
X178447428Y-113263248D01*
X178394129Y-113316546D01*
X178394121Y-113316556D01*
X178343900Y-113403541D01*
X178343899Y-113403546D01*
X178320413Y-113491199D01*
X178317900Y-113500576D01*
X178317900Y-117727600D01*
X178297898Y-117795721D01*
X178244242Y-117842214D01*
X178191900Y-117853600D01*
X177912836Y-117853600D01*
X177912826Y-117853601D01*
X177838599Y-117868365D01*
X177754415Y-117924616D01*
X177698166Y-118008797D01*
X177683400Y-118083030D01*
X177683400Y-119657163D01*
X177683401Y-119657173D01*
X177698165Y-119731400D01*
X177754416Y-119815584D01*
X177838597Y-119871833D01*
X177838599Y-119871834D01*
X177912833Y-119886600D01*
X179486966Y-119886599D01*
X179486969Y-119886598D01*
X179486973Y-119886598D01*
X179536226Y-119876801D01*
X179561201Y-119871834D01*
X179645384Y-119815584D01*
X179701634Y-119731401D01*
X179716400Y-119657167D01*
X179716399Y-118083034D01*
X179716399Y-118083033D01*
X179716399Y-118083031D01*
X179716399Y-118083030D01*
X180223400Y-118083030D01*
X180223400Y-119657163D01*
X180223401Y-119657173D01*
X180238165Y-119731400D01*
X180294416Y-119815584D01*
X180378597Y-119871833D01*
X180378599Y-119871834D01*
X180452833Y-119886600D01*
X182026966Y-119886599D01*
X182026969Y-119886598D01*
X182026973Y-119886598D01*
X182076226Y-119876801D01*
X182101201Y-119871834D01*
X182185384Y-119815584D01*
X182241634Y-119731401D01*
X182256400Y-119657167D01*
X182256399Y-118769980D01*
X182763400Y-118769980D01*
X182763400Y-118970219D01*
X182802464Y-119166602D01*
X182879090Y-119351593D01*
X182990333Y-119518081D01*
X182990334Y-119518082D01*
X182990339Y-119518088D01*
X183131911Y-119659660D01*
X183131917Y-119659665D01*
X183131919Y-119659667D01*
X183298407Y-119770910D01*
X183483398Y-119847536D01*
X183679784Y-119886600D01*
X183880016Y-119886600D01*
X184076402Y-119847536D01*
X184261393Y-119770910D01*
X184427881Y-119659667D01*
X184569467Y-119518081D01*
X184680710Y-119351593D01*
X184757336Y-119166602D01*
X184796400Y-118970216D01*
X184796400Y-118769984D01*
X184757336Y-118573598D01*
X184680710Y-118388607D01*
X184569467Y-118222119D01*
X184569465Y-118222117D01*
X184569460Y-118222111D01*
X184427888Y-118080539D01*
X184427882Y-118080534D01*
X184427881Y-118080533D01*
X184261393Y-117969290D01*
X184144739Y-117920970D01*
X184076405Y-117892665D01*
X184076402Y-117892664D01*
X183880019Y-117853600D01*
X183880016Y-117853600D01*
X183679784Y-117853600D01*
X183679780Y-117853600D01*
X183483397Y-117892664D01*
X183483394Y-117892665D01*
X183298407Y-117969290D01*
X183131917Y-118080534D01*
X183131911Y-118080539D01*
X182990339Y-118222111D01*
X182990334Y-118222117D01*
X182879090Y-118388607D01*
X182802465Y-118573594D01*
X182802464Y-118573597D01*
X182763400Y-118769980D01*
X182256399Y-118769980D01*
X182256399Y-118083034D01*
X182256398Y-118083031D01*
X182256398Y-118083026D01*
X182241634Y-118008799D01*
X182241633Y-118008797D01*
X182185384Y-117924616D01*
X182137567Y-117892665D01*
X182101202Y-117868366D01*
X182026967Y-117853600D01*
X180452836Y-117853600D01*
X180452826Y-117853601D01*
X180378599Y-117868365D01*
X180294415Y-117924616D01*
X180238166Y-118008797D01*
X180223400Y-118083030D01*
X179716399Y-118083030D01*
X179701634Y-118008799D01*
X179701633Y-118008797D01*
X179645384Y-117924616D01*
X179597567Y-117892665D01*
X179561202Y-117868366D01*
X179486969Y-117853600D01*
X179486967Y-117853600D01*
X179206900Y-117853600D01*
X179138779Y-117833598D01*
X179092286Y-117779942D01*
X179080900Y-117727600D01*
X179080900Y-113761011D01*
X179100902Y-113692890D01*
X179117800Y-113671921D01*
X194224170Y-98565550D01*
X194224180Y-98565543D01*
X194305570Y-98484153D01*
X194305576Y-98484147D01*
X194355801Y-98397154D01*
X194381800Y-98300125D01*
X194381800Y-80950475D01*
X194355801Y-80853446D01*
X194355799Y-80853443D01*
X194355799Y-80853441D01*
X194305578Y-80766456D01*
X194305574Y-80766451D01*
X194234547Y-80695424D01*
X186890425Y-73351302D01*
X179484751Y-65945627D01*
X179484748Y-65945625D01*
X179484747Y-65945624D01*
X179484742Y-65945621D01*
X179411794Y-65903505D01*
X179397756Y-65895400D01*
X179397755Y-65895399D01*
X179397754Y-65895399D01*
X179300725Y-65869400D01*
X179300723Y-65869400D01*
X162061854Y-65869400D01*
X162061837Y-65869399D01*
X161953671Y-65869399D01*
X161953665Y-65869400D01*
X161869031Y-65892078D01*
X161869032Y-65892079D01*
X161858482Y-65894906D01*
X161856765Y-65895338D01*
X161856643Y-65895399D01*
X161856632Y-65895405D01*
X161811879Y-65921244D01*
X161772925Y-65943734D01*
X161770359Y-65945114D01*
X161769653Y-65945623D01*
X161769651Y-65945624D01*
X161769651Y-65945625D01*
X161769649Y-65945627D01*
X161732364Y-65982912D01*
X161732362Y-65982914D01*
X161698624Y-66016653D01*
X161698622Y-66016653D01*
X161698623Y-66016654D01*
X158873758Y-68841594D01*
X158811446Y-68875620D01*
X158784661Y-68878500D01*
X157396836Y-68878500D01*
X157396826Y-68878501D01*
X157322599Y-68893265D01*
X157238415Y-68949516D01*
X157182166Y-69033697D01*
X157167400Y-69107930D01*
X156836399Y-69107930D01*
X156821634Y-69033699D01*
X156803960Y-69007249D01*
X156765384Y-68949516D01*
X156765383Y-68949515D01*
X156681202Y-68893266D01*
X156606967Y-68878500D01*
X154856836Y-68878500D01*
X154856826Y-68878501D01*
X154782599Y-68893265D01*
X154698415Y-68949516D01*
X154642166Y-69033697D01*
X154627400Y-69107930D01*
X154296399Y-69107930D01*
X154281634Y-69033699D01*
X154263960Y-69007249D01*
X154225384Y-68949516D01*
X154225383Y-68949515D01*
X154141202Y-68893266D01*
X154066967Y-68878500D01*
X152316836Y-68878500D01*
X152316826Y-68878501D01*
X152242599Y-68893265D01*
X152158415Y-68949516D01*
X152102166Y-69033697D01*
X152087400Y-69107930D01*
X151756399Y-69107930D01*
X151741634Y-69033699D01*
X151723960Y-69007249D01*
X151685384Y-68949516D01*
X151685383Y-68949515D01*
X151601202Y-68893266D01*
X151526967Y-68878500D01*
X149776836Y-68878500D01*
X149776826Y-68878501D01*
X149702599Y-68893265D01*
X149618415Y-68949516D01*
X149562166Y-69033697D01*
X149547400Y-69107930D01*
X149216399Y-69107930D01*
X149201634Y-69033699D01*
X149183960Y-69007249D01*
X149145384Y-68949516D01*
X149145383Y-68949515D01*
X149061202Y-68893266D01*
X148986967Y-68878500D01*
X147236836Y-68878500D01*
X147236826Y-68878501D01*
X147162599Y-68893265D01*
X147078415Y-68949516D01*
X147022166Y-69033697D01*
X147007400Y-69107930D01*
X146676399Y-69107930D01*
X146661634Y-69033699D01*
X146643960Y-69007249D01*
X146605384Y-68949516D01*
X146605383Y-68949515D01*
X146521202Y-68893266D01*
X146446967Y-68878500D01*
X144696836Y-68878500D01*
X144696826Y-68878501D01*
X144622599Y-68893265D01*
X144538415Y-68949516D01*
X144482166Y-69033697D01*
X144467400Y-69107930D01*
X144136399Y-69107930D01*
X144121634Y-69033699D01*
X144103960Y-69007249D01*
X144065384Y-68949516D01*
X144065383Y-68949515D01*
X143981202Y-68893266D01*
X143906967Y-68878500D01*
X142156836Y-68878500D01*
X142156826Y-68878501D01*
X142082599Y-68893265D01*
X141998415Y-68949516D01*
X141942166Y-69033697D01*
X141927400Y-69107930D01*
X141596399Y-69107930D01*
X141581634Y-69033699D01*
X141563960Y-69007249D01*
X141525384Y-68949516D01*
X141525383Y-68949515D01*
X141441202Y-68893266D01*
X141366967Y-68878500D01*
X139616836Y-68878500D01*
X139616826Y-68878501D01*
X139542599Y-68893265D01*
X139458415Y-68949516D01*
X139402166Y-69033697D01*
X139387400Y-69107930D01*
X139056399Y-69107930D01*
X139041634Y-69033699D01*
X139023960Y-69007249D01*
X138985384Y-68949516D01*
X138985383Y-68949515D01*
X138901202Y-68893266D01*
X138826967Y-68878500D01*
X137076836Y-68878500D01*
X137076826Y-68878501D01*
X137002599Y-68893265D01*
X136918415Y-68949516D01*
X136862166Y-69033697D01*
X136847400Y-69107930D01*
X136516399Y-69107930D01*
X136501634Y-69033699D01*
X136483960Y-69007249D01*
X136445384Y-68949516D01*
X136445383Y-68949515D01*
X136361202Y-68893266D01*
X136286967Y-68878500D01*
X134536836Y-68878500D01*
X134536826Y-68878501D01*
X134462599Y-68893265D01*
X134378415Y-68949516D01*
X134322166Y-69033697D01*
X134307400Y-69107930D01*
X133976399Y-69107930D01*
X133961634Y-69033699D01*
X133943960Y-69007249D01*
X133905384Y-68949516D01*
X133905383Y-68949515D01*
X133821202Y-68893266D01*
X133746967Y-68878500D01*
X131996836Y-68878500D01*
X131996826Y-68878501D01*
X131922599Y-68893265D01*
X131838415Y-68949516D01*
X131782166Y-69033697D01*
X131767400Y-69107930D01*
X128896399Y-69107930D01*
X128881634Y-69033699D01*
X128863960Y-69007249D01*
X128825384Y-68949516D01*
X128825383Y-68949515D01*
X128741202Y-68893266D01*
X128666967Y-68878500D01*
X126916836Y-68878500D01*
X126916826Y-68878501D01*
X126842599Y-68893265D01*
X126758415Y-68949516D01*
X126702166Y-69033697D01*
X126687400Y-69107930D01*
X126356399Y-69107930D01*
X126341634Y-69033699D01*
X126323960Y-69007249D01*
X126285384Y-68949516D01*
X126285383Y-68949515D01*
X126201202Y-68893266D01*
X126126967Y-68878500D01*
X124376836Y-68878500D01*
X124376826Y-68878501D01*
X124302599Y-68893265D01*
X124218415Y-68949516D01*
X124162166Y-69033697D01*
X124147400Y-69107930D01*
X123816399Y-69107930D01*
X123801634Y-69033699D01*
X123783960Y-69007249D01*
X123745384Y-68949516D01*
X123745383Y-68949515D01*
X123661202Y-68893266D01*
X123586967Y-68878500D01*
X121836836Y-68878500D01*
X121836826Y-68878501D01*
X121762599Y-68893265D01*
X121678415Y-68949516D01*
X121622166Y-69033697D01*
X121607400Y-69107930D01*
X121276399Y-69107930D01*
X121261634Y-69033699D01*
X121243960Y-69007249D01*
X121205384Y-68949516D01*
X121205383Y-68949515D01*
X121121202Y-68893266D01*
X121046967Y-68878500D01*
X119296836Y-68878500D01*
X119296826Y-68878501D01*
X119222599Y-68893265D01*
X119138415Y-68949516D01*
X119082166Y-69033697D01*
X119067400Y-69107930D01*
X109266588Y-69107930D01*
X109266541Y-69107776D01*
X109201351Y-68892492D01*
X109201347Y-68892481D01*
X109061527Y-68561670D01*
X109061523Y-68561662D01*
X108887529Y-68247466D01*
X108887523Y-68247457D01*
X108733785Y-68028234D01*
X108681311Y-67953409D01*
X108445180Y-67682786D01*
X108181778Y-67438626D01*
X108161290Y-67423319D01*
X107894057Y-67223664D01*
X107894046Y-67223657D01*
X107585234Y-67040304D01*
X107585218Y-67040296D01*
X107282129Y-66901311D01*
X107258758Y-66890594D01*
X107258756Y-66890593D01*
X106918301Y-66776218D01*
X106918284Y-66776213D01*
X106567657Y-66698451D01*
X106250517Y-66662655D01*
X106210767Y-66658169D01*
X106195769Y-66658070D01*
X105851624Y-66655816D01*
X105851604Y-66655817D01*
X105494236Y-66691423D01*
X105460457Y-66698452D01*
X105331443Y-66725298D01*
X105304026Y-66731003D01*
X105233259Y-66725298D01*
X105176810Y-66682239D01*
X105152602Y-66615497D01*
X105168320Y-66546262D01*
X105189258Y-66518554D01*
X106884081Y-64823731D01*
X169190599Y-64823731D01*
X169228716Y-64965982D01*
X169302346Y-65093514D01*
X169302354Y-65093524D01*
X169406475Y-65197645D01*
X169406480Y-65197649D01*
X169406482Y-65197651D01*
X169534018Y-65271284D01*
X169676267Y-65309400D01*
X169676269Y-65309400D01*
X169823531Y-65309400D01*
X169823533Y-65309400D01*
X169965782Y-65271284D01*
X170093318Y-65197651D01*
X170197451Y-65093518D01*
X170271084Y-64965982D01*
X170309200Y-64823733D01*
X170309200Y-64676467D01*
X170271084Y-64534218D01*
X170197451Y-64406682D01*
X170197449Y-64406680D01*
X170197445Y-64406675D01*
X170093324Y-64302554D01*
X170093314Y-64302546D01*
X169965782Y-64228916D01*
X169823533Y-64190800D01*
X169676267Y-64190800D01*
X169581434Y-64216210D01*
X169534017Y-64228916D01*
X169406485Y-64302546D01*
X169406475Y-64302554D01*
X169302354Y-64406675D01*
X169302346Y-64406685D01*
X169228716Y-64534217D01*
X169190600Y-64676468D01*
X169190600Y-64823731D01*
X169190599Y-64823731D01*
X106884081Y-64823731D01*
X111170408Y-60537405D01*
X111232720Y-60503379D01*
X111259503Y-60500500D01*
X188740133Y-60500500D01*
X188808254Y-60520502D01*
G37*
%TD.AperFunction*%
%TD*%
M02*
