%TF.GenerationSoftware,KiCad,Pcbnew,10.0.6*%
%TF.CreationDate,2026-09-23T18:38:44+08:00*%
%TF.ProjectId,Telemetry_Module,54656c65-6d65-4747-9279-5f4d6f64756c,1.7*%
%TF.SameCoordinates,Original*%
%TF.FileFunction,Legend,Top*%
%TF.FilePolarity,Positive*%
%FSLAX46Y46*%
G04 Gerber Fmt 4.6, Leading zero omitted, Abs format (unit mm)*
G04 Created by KiCad (PCBNEW 10.0.6) date 2026-09-23 18:38:44*
%MOMM*%
%LPD*%
G01*
G04 APERTURE LIST*
%ADD10C,0.254000*%
%ADD11C,0.080000*%
%ADD12C,0.100000*%
%ADD13C,0.150000*%
%ADD14C,0.200000*%
%ADD15C,0.203200*%
%ADD16C,0.177800*%
%ADD17C,0.152400*%
G04 APERTURE END LIST*
D10*
X115999900Y-68506600D02*
X115999900Y-71506600D01*
X115999900Y-71506600D02*
X167499900Y-71506600D01*
X167499900Y-68506600D02*
X115999900Y-68506600D01*
X167499900Y-71506600D02*
X167499900Y-68506600D01*
D11*
X118860826Y-136640726D02*
X118860826Y-136922631D01*
X118860826Y-137380726D02*
X118860826Y-137662631D01*
X118860826Y-138120726D02*
X118860826Y-138402631D01*
X126860826Y-136640726D02*
X126860826Y-136922631D01*
X126860826Y-137380726D02*
X126860826Y-137662631D01*
X126860826Y-138120726D02*
X126860826Y-138402631D01*
X136860826Y-136640726D02*
X136860826Y-136922631D01*
X136860826Y-137380726D02*
X136860826Y-137662631D01*
X136860826Y-138120726D02*
X136860826Y-138402631D01*
X144860826Y-136640726D02*
X144860826Y-136922631D01*
X144860826Y-137380726D02*
X144860826Y-137662631D01*
X144860826Y-138120726D02*
X144860826Y-138402631D01*
X155260826Y-136640726D02*
X155260826Y-136922631D01*
X155260826Y-137380726D02*
X155260826Y-137662631D01*
X155260826Y-138120726D02*
X155260826Y-138402631D01*
X163260826Y-136640726D02*
X163260826Y-136922631D01*
X163260826Y-137380726D02*
X163260826Y-137662631D01*
X163260826Y-138120726D02*
X163260826Y-138402631D01*
X173260826Y-136640726D02*
X173260826Y-136922631D01*
X173260826Y-137380726D02*
X173260826Y-137662631D01*
X173260826Y-138120726D02*
X173260826Y-138402631D01*
X181260826Y-136640726D02*
X181260826Y-136922631D01*
X181260826Y-137380726D02*
X181260826Y-137662631D01*
X181260826Y-138120726D02*
X181260826Y-138402631D01*
D12*
X186993534Y-100637004D02*
X186993534Y-101437004D01*
X186536391Y-100637004D02*
X186879249Y-101094147D01*
X186536391Y-101437004D02*
X186993534Y-100979861D01*
X186041153Y-101437004D02*
X185888772Y-101437004D01*
X185888772Y-101437004D02*
X185812582Y-101398909D01*
X185812582Y-101398909D02*
X185736391Y-101322719D01*
X185736391Y-101322719D02*
X185698296Y-101170338D01*
X185698296Y-101170338D02*
X185698296Y-100903671D01*
X185698296Y-100903671D02*
X185736391Y-100751290D01*
X185736391Y-100751290D02*
X185812582Y-100675100D01*
X185812582Y-100675100D02*
X185888772Y-100637004D01*
X185888772Y-100637004D02*
X186041153Y-100637004D01*
X186041153Y-100637004D02*
X186117344Y-100675100D01*
X186117344Y-100675100D02*
X186193534Y-100751290D01*
X186193534Y-100751290D02*
X186231630Y-100903671D01*
X186231630Y-100903671D02*
X186231630Y-101170338D01*
X186231630Y-101170338D02*
X186193534Y-101322719D01*
X186193534Y-101322719D02*
X186117344Y-101398909D01*
X186117344Y-101398909D02*
X186041153Y-101437004D01*
X185203058Y-101437004D02*
X185050677Y-101437004D01*
X185050677Y-101437004D02*
X184974487Y-101398909D01*
X184974487Y-101398909D02*
X184898296Y-101322719D01*
X184898296Y-101322719D02*
X184860201Y-101170338D01*
X184860201Y-101170338D02*
X184860201Y-100903671D01*
X184860201Y-100903671D02*
X184898296Y-100751290D01*
X184898296Y-100751290D02*
X184974487Y-100675100D01*
X184974487Y-100675100D02*
X185050677Y-100637004D01*
X185050677Y-100637004D02*
X185203058Y-100637004D01*
X185203058Y-100637004D02*
X185279249Y-100675100D01*
X185279249Y-100675100D02*
X185355439Y-100751290D01*
X185355439Y-100751290D02*
X185393535Y-100903671D01*
X185393535Y-100903671D02*
X185393535Y-101170338D01*
X185393535Y-101170338D02*
X185355439Y-101322719D01*
X185355439Y-101322719D02*
X185279249Y-101398909D01*
X185279249Y-101398909D02*
X185203058Y-101437004D01*
X184098297Y-101398909D02*
X184174487Y-101437004D01*
X184174487Y-101437004D02*
X184288773Y-101437004D01*
X184288773Y-101437004D02*
X184403059Y-101398909D01*
X184403059Y-101398909D02*
X184479249Y-101322719D01*
X184479249Y-101322719D02*
X184517344Y-101246528D01*
X184517344Y-101246528D02*
X184555440Y-101094147D01*
X184555440Y-101094147D02*
X184555440Y-100979861D01*
X184555440Y-100979861D02*
X184517344Y-100827480D01*
X184517344Y-100827480D02*
X184479249Y-100751290D01*
X184479249Y-100751290D02*
X184403059Y-100675100D01*
X184403059Y-100675100D02*
X184288773Y-100637004D01*
X184288773Y-100637004D02*
X184212582Y-100637004D01*
X184212582Y-100637004D02*
X184098297Y-100675100D01*
X184098297Y-100675100D02*
X184060201Y-100713195D01*
X184060201Y-100713195D02*
X184060201Y-100979861D01*
X184060201Y-100979861D02*
X184212582Y-100979861D01*
X183336392Y-100637004D02*
X183717344Y-100637004D01*
X183717344Y-100637004D02*
X183717344Y-101437004D01*
X183069725Y-101056052D02*
X182803059Y-101056052D01*
X182688773Y-100637004D02*
X183069725Y-100637004D01*
X183069725Y-100637004D02*
X183069725Y-101437004D01*
X183069725Y-101437004D02*
X182688773Y-101437004D01*
X181736391Y-100637004D02*
X181736391Y-101437004D01*
X181736391Y-101437004D02*
X181469725Y-100865576D01*
X181469725Y-100865576D02*
X181203058Y-101437004D01*
X181203058Y-101437004D02*
X181203058Y-100637004D01*
X180860201Y-100865576D02*
X180479248Y-100865576D01*
X180936391Y-100637004D02*
X180669724Y-101437004D01*
X180669724Y-101437004D02*
X180403058Y-100637004D01*
X180136391Y-100637004D02*
X180136391Y-101437004D01*
X180136391Y-101437004D02*
X179831629Y-101437004D01*
X179831629Y-101437004D02*
X179755439Y-101398909D01*
X179755439Y-101398909D02*
X179717344Y-101360814D01*
X179717344Y-101360814D02*
X179679248Y-101284623D01*
X179679248Y-101284623D02*
X179679248Y-101170338D01*
X179679248Y-101170338D02*
X179717344Y-101094147D01*
X179717344Y-101094147D02*
X179755439Y-101056052D01*
X179755439Y-101056052D02*
X179831629Y-101017957D01*
X179831629Y-101017957D02*
X180136391Y-101017957D01*
X179374487Y-100675100D02*
X179260201Y-100637004D01*
X179260201Y-100637004D02*
X179069725Y-100637004D01*
X179069725Y-100637004D02*
X178993534Y-100675100D01*
X178993534Y-100675100D02*
X178955439Y-100713195D01*
X178955439Y-100713195D02*
X178917344Y-100789385D01*
X178917344Y-100789385D02*
X178917344Y-100865576D01*
X178917344Y-100865576D02*
X178955439Y-100941766D01*
X178955439Y-100941766D02*
X178993534Y-100979861D01*
X178993534Y-100979861D02*
X179069725Y-101017957D01*
X179069725Y-101017957D02*
X179222106Y-101056052D01*
X179222106Y-101056052D02*
X179298296Y-101094147D01*
X179298296Y-101094147D02*
X179336391Y-101132242D01*
X179336391Y-101132242D02*
X179374487Y-101208433D01*
X179374487Y-101208433D02*
X179374487Y-101284623D01*
X179374487Y-101284623D02*
X179336391Y-101360814D01*
X179336391Y-101360814D02*
X179298296Y-101398909D01*
X179298296Y-101398909D02*
X179222106Y-101437004D01*
X179222106Y-101437004D02*
X179031629Y-101437004D01*
X179031629Y-101437004D02*
X178917344Y-101398909D01*
X177964962Y-100637004D02*
X177964962Y-101437004D01*
X177964962Y-101437004D02*
X177507819Y-100637004D01*
X177507819Y-100637004D02*
X177507819Y-101437004D01*
X176974486Y-101437004D02*
X176822105Y-101437004D01*
X176822105Y-101437004D02*
X176745915Y-101398909D01*
X176745915Y-101398909D02*
X176669724Y-101322719D01*
X176669724Y-101322719D02*
X176631629Y-101170338D01*
X176631629Y-101170338D02*
X176631629Y-100903671D01*
X176631629Y-100903671D02*
X176669724Y-100751290D01*
X176669724Y-100751290D02*
X176745915Y-100675100D01*
X176745915Y-100675100D02*
X176822105Y-100637004D01*
X176822105Y-100637004D02*
X176974486Y-100637004D01*
X176974486Y-100637004D02*
X177050677Y-100675100D01*
X177050677Y-100675100D02*
X177126867Y-100751290D01*
X177126867Y-100751290D02*
X177164963Y-100903671D01*
X177164963Y-100903671D02*
X177164963Y-101170338D01*
X177164963Y-101170338D02*
X177126867Y-101322719D01*
X177126867Y-101322719D02*
X177050677Y-101398909D01*
X177050677Y-101398909D02*
X176974486Y-101437004D01*
X176403058Y-101437004D02*
X175945915Y-101437004D01*
X176174487Y-100637004D02*
X176174487Y-101437004D01*
X175107820Y-100865576D02*
X174726867Y-100865576D01*
X175184010Y-100637004D02*
X174917343Y-101437004D01*
X174917343Y-101437004D02*
X174650677Y-100637004D01*
X174498296Y-101437004D02*
X174231629Y-100637004D01*
X174231629Y-100637004D02*
X173964963Y-101437004D01*
X173736392Y-100865576D02*
X173355439Y-100865576D01*
X173812582Y-100637004D02*
X173545915Y-101437004D01*
X173545915Y-101437004D02*
X173279249Y-100637004D01*
X173012582Y-100637004D02*
X173012582Y-101437004D01*
X172250678Y-100637004D02*
X172631630Y-100637004D01*
X172631630Y-100637004D02*
X172631630Y-101437004D01*
X172022107Y-100865576D02*
X171641154Y-100865576D01*
X172098297Y-100637004D02*
X171831630Y-101437004D01*
X171831630Y-101437004D02*
X171564964Y-100637004D01*
X171031631Y-101056052D02*
X170917345Y-101017957D01*
X170917345Y-101017957D02*
X170879250Y-100979861D01*
X170879250Y-100979861D02*
X170841154Y-100903671D01*
X170841154Y-100903671D02*
X170841154Y-100789385D01*
X170841154Y-100789385D02*
X170879250Y-100713195D01*
X170879250Y-100713195D02*
X170917345Y-100675100D01*
X170917345Y-100675100D02*
X170993535Y-100637004D01*
X170993535Y-100637004D02*
X171298297Y-100637004D01*
X171298297Y-100637004D02*
X171298297Y-101437004D01*
X171298297Y-101437004D02*
X171031631Y-101437004D01*
X171031631Y-101437004D02*
X170955440Y-101398909D01*
X170955440Y-101398909D02*
X170917345Y-101360814D01*
X170917345Y-101360814D02*
X170879250Y-101284623D01*
X170879250Y-101284623D02*
X170879250Y-101208433D01*
X170879250Y-101208433D02*
X170917345Y-101132242D01*
X170917345Y-101132242D02*
X170955440Y-101094147D01*
X170955440Y-101094147D02*
X171031631Y-101056052D01*
X171031631Y-101056052D02*
X171298297Y-101056052D01*
X170117345Y-100637004D02*
X170498297Y-100637004D01*
X170498297Y-100637004D02*
X170498297Y-101437004D01*
X169850678Y-101056052D02*
X169584012Y-101056052D01*
X169469726Y-100637004D02*
X169850678Y-100637004D01*
X169850678Y-100637004D02*
X169850678Y-101437004D01*
X169850678Y-101437004D02*
X169469726Y-101437004D01*
D13*
X121455726Y-153911047D02*
X121189060Y-153911047D01*
X121189060Y-154330095D02*
X121189060Y-153530095D01*
X121189060Y-153530095D02*
X121570012Y-153530095D01*
X121874774Y-153530095D02*
X121874774Y-154177714D01*
X121874774Y-154177714D02*
X121912869Y-154253904D01*
X121912869Y-154253904D02*
X121950964Y-154292000D01*
X121950964Y-154292000D02*
X122027155Y-154330095D01*
X122027155Y-154330095D02*
X122179536Y-154330095D01*
X122179536Y-154330095D02*
X122255726Y-154292000D01*
X122255726Y-154292000D02*
X122293821Y-154253904D01*
X122293821Y-154253904D02*
X122331917Y-154177714D01*
X122331917Y-154177714D02*
X122331917Y-153530095D01*
X122712869Y-153911047D02*
X122979535Y-153911047D01*
X123093821Y-154330095D02*
X122712869Y-154330095D01*
X122712869Y-154330095D02*
X122712869Y-153530095D01*
X122712869Y-153530095D02*
X123093821Y-153530095D01*
X123817631Y-154330095D02*
X123436679Y-154330095D01*
X123436679Y-154330095D02*
X123436679Y-153530095D01*
X139241541Y-153429995D02*
X139393922Y-153429995D01*
X139393922Y-153429995D02*
X139470112Y-153468090D01*
X139470112Y-153468090D02*
X139546303Y-153544280D01*
X139546303Y-153544280D02*
X139584398Y-153696661D01*
X139584398Y-153696661D02*
X139584398Y-153963328D01*
X139584398Y-153963328D02*
X139546303Y-154115709D01*
X139546303Y-154115709D02*
X139470112Y-154191900D01*
X139470112Y-154191900D02*
X139393922Y-154229995D01*
X139393922Y-154229995D02*
X139241541Y-154229995D01*
X139241541Y-154229995D02*
X139165350Y-154191900D01*
X139165350Y-154191900D02*
X139089160Y-154115709D01*
X139089160Y-154115709D02*
X139051064Y-153963328D01*
X139051064Y-153963328D02*
X139051064Y-153696661D01*
X139051064Y-153696661D02*
X139089160Y-153544280D01*
X139089160Y-153544280D02*
X139165350Y-153468090D01*
X139165350Y-153468090D02*
X139241541Y-153429995D01*
X140384398Y-154229995D02*
X140117731Y-153849042D01*
X139927255Y-154229995D02*
X139927255Y-153429995D01*
X139927255Y-153429995D02*
X140232017Y-153429995D01*
X140232017Y-153429995D02*
X140308207Y-153468090D01*
X140308207Y-153468090D02*
X140346302Y-153506185D01*
X140346302Y-153506185D02*
X140384398Y-153582376D01*
X140384398Y-153582376D02*
X140384398Y-153696661D01*
X140384398Y-153696661D02*
X140346302Y-153772852D01*
X140346302Y-153772852D02*
X140308207Y-153810947D01*
X140308207Y-153810947D02*
X140232017Y-153849042D01*
X140232017Y-153849042D02*
X139927255Y-153849042D01*
X140993921Y-153810947D02*
X141108207Y-153849042D01*
X141108207Y-153849042D02*
X141146302Y-153887138D01*
X141146302Y-153887138D02*
X141184398Y-153963328D01*
X141184398Y-153963328D02*
X141184398Y-154077614D01*
X141184398Y-154077614D02*
X141146302Y-154153804D01*
X141146302Y-154153804D02*
X141108207Y-154191900D01*
X141108207Y-154191900D02*
X141032017Y-154229995D01*
X141032017Y-154229995D02*
X140727255Y-154229995D01*
X140727255Y-154229995D02*
X140727255Y-153429995D01*
X140727255Y-153429995D02*
X140993921Y-153429995D01*
X140993921Y-153429995D02*
X141070112Y-153468090D01*
X141070112Y-153468090D02*
X141108207Y-153506185D01*
X141108207Y-153506185D02*
X141146302Y-153582376D01*
X141146302Y-153582376D02*
X141146302Y-153658566D01*
X141146302Y-153658566D02*
X141108207Y-153734757D01*
X141108207Y-153734757D02*
X141070112Y-153772852D01*
X141070112Y-153772852D02*
X140993921Y-153810947D01*
X140993921Y-153810947D02*
X140727255Y-153810947D01*
X141527255Y-154229995D02*
X141527255Y-153429995D01*
X141793921Y-153429995D02*
X142251064Y-153429995D01*
X142022492Y-154229995D02*
X142022492Y-153429995D01*
X155888960Y-154229995D02*
X155888960Y-153429995D01*
X155888960Y-153429995D02*
X156155626Y-154001423D01*
X156155626Y-154001423D02*
X156422293Y-153429995D01*
X156422293Y-153429995D02*
X156422293Y-154229995D01*
X156765150Y-154001423D02*
X157146103Y-154001423D01*
X156688960Y-154229995D02*
X156955627Y-153429995D01*
X156955627Y-153429995D02*
X157222293Y-154229995D01*
X157488960Y-154229995D02*
X157488960Y-153429995D01*
X157488960Y-153429995D02*
X157946103Y-154229995D01*
X157946103Y-154229995D02*
X157946103Y-153429995D01*
X158327055Y-153810947D02*
X158593721Y-153810947D01*
X158708007Y-154229995D02*
X158327055Y-154229995D01*
X158327055Y-154229995D02*
X158327055Y-153429995D01*
X158327055Y-153429995D02*
X158708007Y-153429995D01*
X159050865Y-153429995D02*
X159050865Y-154077614D01*
X159050865Y-154077614D02*
X159088960Y-154153804D01*
X159088960Y-154153804D02*
X159127055Y-154191900D01*
X159127055Y-154191900D02*
X159203246Y-154229995D01*
X159203246Y-154229995D02*
X159355627Y-154229995D01*
X159355627Y-154229995D02*
X159431817Y-154191900D01*
X159431817Y-154191900D02*
X159469912Y-154153804D01*
X159469912Y-154153804D02*
X159508008Y-154077614D01*
X159508008Y-154077614D02*
X159508008Y-153429995D01*
X159774674Y-153429995D02*
X160041341Y-154229995D01*
X160041341Y-154229995D02*
X160308007Y-153429995D01*
X160574674Y-153810947D02*
X160841340Y-153810947D01*
X160955626Y-154229995D02*
X160574674Y-154229995D01*
X160574674Y-154229995D02*
X160574674Y-153429995D01*
X160574674Y-153429995D02*
X160955626Y-153429995D01*
X161755627Y-154229995D02*
X161488960Y-153849042D01*
X161298484Y-154229995D02*
X161298484Y-153429995D01*
X161298484Y-153429995D02*
X161603246Y-153429995D01*
X161603246Y-153429995D02*
X161679436Y-153468090D01*
X161679436Y-153468090D02*
X161717531Y-153506185D01*
X161717531Y-153506185D02*
X161755627Y-153582376D01*
X161755627Y-153582376D02*
X161755627Y-153696661D01*
X161755627Y-153696661D02*
X161717531Y-153772852D01*
X161717531Y-153772852D02*
X161679436Y-153810947D01*
X161679436Y-153810947D02*
X161603246Y-153849042D01*
X161603246Y-153849042D02*
X161298484Y-153849042D01*
X171751064Y-154101523D02*
X172132017Y-154101523D01*
X171674874Y-154330095D02*
X171941541Y-153530095D01*
X171941541Y-153530095D02*
X172208207Y-154330095D01*
X172855826Y-154330095D02*
X172474874Y-154330095D01*
X172474874Y-154330095D02*
X172474874Y-153530095D01*
X173008207Y-153530095D02*
X173465350Y-153530095D01*
X173236778Y-154330095D02*
X173236778Y-153530095D01*
X173732017Y-154330095D02*
X173732017Y-153530095D01*
X173998683Y-153530095D02*
X174455826Y-153530095D01*
X174227254Y-154330095D02*
X174227254Y-153530095D01*
X174722493Y-153530095D02*
X174722493Y-154177714D01*
X174722493Y-154177714D02*
X174760588Y-154253904D01*
X174760588Y-154253904D02*
X174798683Y-154292000D01*
X174798683Y-154292000D02*
X174874874Y-154330095D01*
X174874874Y-154330095D02*
X175027255Y-154330095D01*
X175027255Y-154330095D02*
X175103445Y-154292000D01*
X175103445Y-154292000D02*
X175141540Y-154253904D01*
X175141540Y-154253904D02*
X175179636Y-154177714D01*
X175179636Y-154177714D02*
X175179636Y-153530095D01*
X175560588Y-154330095D02*
X175560588Y-153530095D01*
X175560588Y-153530095D02*
X175751064Y-153530095D01*
X175751064Y-153530095D02*
X175865350Y-153568190D01*
X175865350Y-153568190D02*
X175941540Y-153644380D01*
X175941540Y-153644380D02*
X175979635Y-153720571D01*
X175979635Y-153720571D02*
X176017731Y-153872952D01*
X176017731Y-153872952D02*
X176017731Y-153987238D01*
X176017731Y-153987238D02*
X175979635Y-154139619D01*
X175979635Y-154139619D02*
X175941540Y-154215809D01*
X175941540Y-154215809D02*
X175865350Y-154292000D01*
X175865350Y-154292000D02*
X175751064Y-154330095D01*
X175751064Y-154330095D02*
X175560588Y-154330095D01*
X176360588Y-153911047D02*
X176627254Y-153911047D01*
X176741540Y-154330095D02*
X176360588Y-154330095D01*
X176360588Y-154330095D02*
X176360588Y-153530095D01*
X176360588Y-153530095D02*
X176741540Y-153530095D01*
X177655826Y-153492000D02*
X176970112Y-154520571D01*
X177808207Y-153530095D02*
X178074874Y-154330095D01*
X178074874Y-154330095D02*
X178341540Y-153530095D01*
X178608207Y-153911047D02*
X178874873Y-153911047D01*
X178989159Y-154330095D02*
X178608207Y-154330095D01*
X178608207Y-154330095D02*
X178608207Y-153530095D01*
X178608207Y-153530095D02*
X178989159Y-153530095D01*
X179712969Y-154330095D02*
X179332017Y-154330095D01*
X179332017Y-154330095D02*
X179332017Y-153530095D01*
X180132017Y-153530095D02*
X180284398Y-153530095D01*
X180284398Y-153530095D02*
X180360588Y-153568190D01*
X180360588Y-153568190D02*
X180436779Y-153644380D01*
X180436779Y-153644380D02*
X180474874Y-153796761D01*
X180474874Y-153796761D02*
X180474874Y-154063428D01*
X180474874Y-154063428D02*
X180436779Y-154215809D01*
X180436779Y-154215809D02*
X180360588Y-154292000D01*
X180360588Y-154292000D02*
X180284398Y-154330095D01*
X180284398Y-154330095D02*
X180132017Y-154330095D01*
X180132017Y-154330095D02*
X180055826Y-154292000D01*
X180055826Y-154292000D02*
X179979636Y-154215809D01*
X179979636Y-154215809D02*
X179941540Y-154063428D01*
X179941540Y-154063428D02*
X179941540Y-153796761D01*
X179941540Y-153796761D02*
X179979636Y-153644380D01*
X179979636Y-153644380D02*
X180055826Y-153568190D01*
X180055826Y-153568190D02*
X180132017Y-153530095D01*
X181274874Y-154253904D02*
X181236778Y-154292000D01*
X181236778Y-154292000D02*
X181122493Y-154330095D01*
X181122493Y-154330095D02*
X181046302Y-154330095D01*
X181046302Y-154330095D02*
X180932016Y-154292000D01*
X180932016Y-154292000D02*
X180855826Y-154215809D01*
X180855826Y-154215809D02*
X180817731Y-154139619D01*
X180817731Y-154139619D02*
X180779635Y-153987238D01*
X180779635Y-153987238D02*
X180779635Y-153872952D01*
X180779635Y-153872952D02*
X180817731Y-153720571D01*
X180817731Y-153720571D02*
X180855826Y-153644380D01*
X180855826Y-153644380D02*
X180932016Y-153568190D01*
X180932016Y-153568190D02*
X181046302Y-153530095D01*
X181046302Y-153530095D02*
X181122493Y-153530095D01*
X181122493Y-153530095D02*
X181236778Y-153568190D01*
X181236778Y-153568190D02*
X181274874Y-153606285D01*
X181617731Y-154330095D02*
X181617731Y-153530095D01*
X181884397Y-153530095D02*
X182341540Y-153530095D01*
X182112968Y-154330095D02*
X182112968Y-153530095D01*
X182760588Y-153949142D02*
X182760588Y-154330095D01*
X182493921Y-153530095D02*
X182760588Y-153949142D01*
X182760588Y-153949142D02*
X183027254Y-153530095D01*
D14*
X102171504Y-71247768D02*
X102171504Y-71944911D01*
X100951504Y-71596339D02*
X102171504Y-71596339D01*
X101590552Y-72351578D02*
X101590552Y-72758244D01*
X100951504Y-72932530D02*
X100951504Y-72351578D01*
X100951504Y-72351578D02*
X102171504Y-72351578D01*
X102171504Y-72351578D02*
X102171504Y-72932530D01*
X100951504Y-74036340D02*
X100951504Y-73455388D01*
X100951504Y-73455388D02*
X102171504Y-73455388D01*
X101590552Y-74443007D02*
X101590552Y-74849673D01*
X100951504Y-75023959D02*
X100951504Y-74443007D01*
X100951504Y-74443007D02*
X102171504Y-74443007D01*
X102171504Y-74443007D02*
X102171504Y-75023959D01*
X100951504Y-75546817D02*
X102171504Y-75546817D01*
X102171504Y-75546817D02*
X101300076Y-75953483D01*
X101300076Y-75953483D02*
X102171504Y-76360150D01*
X102171504Y-76360150D02*
X100951504Y-76360150D01*
X101590552Y-76941103D02*
X101590552Y-77347769D01*
X100951504Y-77522055D02*
X100951504Y-76941103D01*
X100951504Y-76941103D02*
X102171504Y-76941103D01*
X102171504Y-76941103D02*
X102171504Y-77522055D01*
X102171504Y-77870627D02*
X102171504Y-78567770D01*
X100951504Y-78219198D02*
X102171504Y-78219198D01*
X100951504Y-79671580D02*
X101532457Y-79264913D01*
X100951504Y-78974437D02*
X102171504Y-78974437D01*
X102171504Y-78974437D02*
X102171504Y-79439199D01*
X102171504Y-79439199D02*
X102113409Y-79555389D01*
X102113409Y-79555389D02*
X102055314Y-79613484D01*
X102055314Y-79613484D02*
X101939123Y-79671580D01*
X101939123Y-79671580D02*
X101764838Y-79671580D01*
X101764838Y-79671580D02*
X101648647Y-79613484D01*
X101648647Y-79613484D02*
X101590552Y-79555389D01*
X101590552Y-79555389D02*
X101532457Y-79439199D01*
X101532457Y-79439199D02*
X101532457Y-78974437D01*
X101532457Y-80426818D02*
X100951504Y-80426818D01*
X102171504Y-80020151D02*
X101532457Y-80426818D01*
X101532457Y-80426818D02*
X102171504Y-80833484D01*
X100951504Y-82169675D02*
X102171504Y-82169675D01*
X102171504Y-82169675D02*
X101300076Y-82576341D01*
X101300076Y-82576341D02*
X102171504Y-82983008D01*
X102171504Y-82983008D02*
X100951504Y-82983008D01*
X102171504Y-83796342D02*
X102171504Y-84028723D01*
X102171504Y-84028723D02*
X102113409Y-84144913D01*
X102113409Y-84144913D02*
X101997219Y-84261104D01*
X101997219Y-84261104D02*
X101764838Y-84319199D01*
X101764838Y-84319199D02*
X101358171Y-84319199D01*
X101358171Y-84319199D02*
X101125790Y-84261104D01*
X101125790Y-84261104D02*
X101009600Y-84144913D01*
X101009600Y-84144913D02*
X100951504Y-84028723D01*
X100951504Y-84028723D02*
X100951504Y-83796342D01*
X100951504Y-83796342D02*
X101009600Y-83680151D01*
X101009600Y-83680151D02*
X101125790Y-83563961D01*
X101125790Y-83563961D02*
X101358171Y-83505865D01*
X101358171Y-83505865D02*
X101764838Y-83505865D01*
X101764838Y-83505865D02*
X101997219Y-83563961D01*
X101997219Y-83563961D02*
X102113409Y-83680151D01*
X102113409Y-83680151D02*
X102171504Y-83796342D01*
X100951504Y-84842056D02*
X102171504Y-84842056D01*
X102171504Y-84842056D02*
X102171504Y-85132532D01*
X102171504Y-85132532D02*
X102113409Y-85306818D01*
X102113409Y-85306818D02*
X101997219Y-85423008D01*
X101997219Y-85423008D02*
X101881028Y-85481103D01*
X101881028Y-85481103D02*
X101648647Y-85539199D01*
X101648647Y-85539199D02*
X101474361Y-85539199D01*
X101474361Y-85539199D02*
X101241980Y-85481103D01*
X101241980Y-85481103D02*
X101125790Y-85423008D01*
X101125790Y-85423008D02*
X101009600Y-85306818D01*
X101009600Y-85306818D02*
X100951504Y-85132532D01*
X100951504Y-85132532D02*
X100951504Y-84842056D01*
X102171504Y-86062056D02*
X101183885Y-86062056D01*
X101183885Y-86062056D02*
X101067695Y-86120151D01*
X101067695Y-86120151D02*
X101009600Y-86178246D01*
X101009600Y-86178246D02*
X100951504Y-86294437D01*
X100951504Y-86294437D02*
X100951504Y-86526818D01*
X100951504Y-86526818D02*
X101009600Y-86643008D01*
X101009600Y-86643008D02*
X101067695Y-86701103D01*
X101067695Y-86701103D02*
X101183885Y-86759199D01*
X101183885Y-86759199D02*
X102171504Y-86759199D01*
X100951504Y-87921103D02*
X100951504Y-87340151D01*
X100951504Y-87340151D02*
X102171504Y-87340151D01*
X101590552Y-88327770D02*
X101590552Y-88734436D01*
X100951504Y-88908722D02*
X100951504Y-88327770D01*
X100951504Y-88327770D02*
X102171504Y-88327770D01*
X102171504Y-88327770D02*
X102171504Y-88908722D01*
X101764838Y-90244913D02*
X100951504Y-90535389D01*
X100951504Y-90535389D02*
X101764838Y-90825866D01*
X100951504Y-91929675D02*
X100951504Y-91232532D01*
X100951504Y-91581104D02*
X102171504Y-91581104D01*
X102171504Y-91581104D02*
X101997219Y-91464913D01*
X101997219Y-91464913D02*
X101881028Y-91348723D01*
X101881028Y-91348723D02*
X101822933Y-91232532D01*
X101067695Y-92452533D02*
X101009600Y-92510628D01*
X101009600Y-92510628D02*
X100951504Y-92452533D01*
X100951504Y-92452533D02*
X101009600Y-92394437D01*
X101009600Y-92394437D02*
X101067695Y-92452533D01*
X101067695Y-92452533D02*
X100951504Y-92452533D01*
X101648647Y-93207770D02*
X101706742Y-93091580D01*
X101706742Y-93091580D02*
X101764838Y-93033485D01*
X101764838Y-93033485D02*
X101881028Y-92975389D01*
X101881028Y-92975389D02*
X101939123Y-92975389D01*
X101939123Y-92975389D02*
X102055314Y-93033485D01*
X102055314Y-93033485D02*
X102113409Y-93091580D01*
X102113409Y-93091580D02*
X102171504Y-93207770D01*
X102171504Y-93207770D02*
X102171504Y-93440151D01*
X102171504Y-93440151D02*
X102113409Y-93556342D01*
X102113409Y-93556342D02*
X102055314Y-93614437D01*
X102055314Y-93614437D02*
X101939123Y-93672532D01*
X101939123Y-93672532D02*
X101881028Y-93672532D01*
X101881028Y-93672532D02*
X101764838Y-93614437D01*
X101764838Y-93614437D02*
X101706742Y-93556342D01*
X101706742Y-93556342D02*
X101648647Y-93440151D01*
X101648647Y-93440151D02*
X101648647Y-93207770D01*
X101648647Y-93207770D02*
X101590552Y-93091580D01*
X101590552Y-93091580D02*
X101532457Y-93033485D01*
X101532457Y-93033485D02*
X101416266Y-92975389D01*
X101416266Y-92975389D02*
X101183885Y-92975389D01*
X101183885Y-92975389D02*
X101067695Y-93033485D01*
X101067695Y-93033485D02*
X101009600Y-93091580D01*
X101009600Y-93091580D02*
X100951504Y-93207770D01*
X100951504Y-93207770D02*
X100951504Y-93440151D01*
X100951504Y-93440151D02*
X101009600Y-93556342D01*
X101009600Y-93556342D02*
X101067695Y-93614437D01*
X101067695Y-93614437D02*
X101183885Y-93672532D01*
X101183885Y-93672532D02*
X101416266Y-93672532D01*
X101416266Y-93672532D02*
X101532457Y-93614437D01*
X101532457Y-93614437D02*
X101590552Y-93556342D01*
X101590552Y-93556342D02*
X101648647Y-93440151D01*
X111019773Y-157391919D02*
X111019773Y-158711442D01*
X111019773Y-158711442D02*
X111097392Y-158866680D01*
X111097392Y-158866680D02*
X111175011Y-158944300D01*
X111175011Y-158944300D02*
X111330249Y-159021919D01*
X111330249Y-159021919D02*
X111640725Y-159021919D01*
X111640725Y-159021919D02*
X111795963Y-158944300D01*
X111795963Y-158944300D02*
X111873582Y-158866680D01*
X111873582Y-158866680D02*
X111951201Y-158711442D01*
X111951201Y-158711442D02*
X111951201Y-157391919D01*
X112727392Y-159021919D02*
X112727392Y-157391919D01*
X112727392Y-157391919D02*
X113658820Y-159021919D01*
X113658820Y-159021919D02*
X113658820Y-157391919D01*
X114202154Y-157391919D02*
X115133582Y-157391919D01*
X114667868Y-159021919D02*
X114667868Y-157391919D01*
X115676916Y-159021919D02*
X115676916Y-157391919D01*
X116220249Y-157391919D02*
X117151677Y-157391919D01*
X116685963Y-159021919D02*
X116685963Y-157391919D01*
X118471201Y-159021919D02*
X117695011Y-159021919D01*
X117695011Y-159021919D02*
X117695011Y-157391919D01*
X119014535Y-158168109D02*
X119557868Y-158168109D01*
X119790725Y-159021919D02*
X119014535Y-159021919D01*
X119014535Y-159021919D02*
X119014535Y-157391919D01*
X119014535Y-157391919D02*
X119790725Y-157391919D01*
X120489297Y-159021919D02*
X120489297Y-157391919D01*
X120489297Y-157391919D02*
X120877392Y-157391919D01*
X120877392Y-157391919D02*
X121110249Y-157469538D01*
X121110249Y-157469538D02*
X121265487Y-157624776D01*
X121265487Y-157624776D02*
X121343106Y-157780014D01*
X121343106Y-157780014D02*
X121420725Y-158090490D01*
X121420725Y-158090490D02*
X121420725Y-158323347D01*
X121420725Y-158323347D02*
X121343106Y-158633823D01*
X121343106Y-158633823D02*
X121265487Y-158789061D01*
X121265487Y-158789061D02*
X121110249Y-158944300D01*
X121110249Y-158944300D02*
X120877392Y-159021919D01*
X120877392Y-159021919D02*
X120489297Y-159021919D01*
X123283583Y-158944300D02*
X123516440Y-159021919D01*
X123516440Y-159021919D02*
X123904535Y-159021919D01*
X123904535Y-159021919D02*
X124059773Y-158944300D01*
X124059773Y-158944300D02*
X124137392Y-158866680D01*
X124137392Y-158866680D02*
X124215011Y-158711442D01*
X124215011Y-158711442D02*
X124215011Y-158556204D01*
X124215011Y-158556204D02*
X124137392Y-158400966D01*
X124137392Y-158400966D02*
X124059773Y-158323347D01*
X124059773Y-158323347D02*
X123904535Y-158245728D01*
X123904535Y-158245728D02*
X123594059Y-158168109D01*
X123594059Y-158168109D02*
X123438821Y-158090490D01*
X123438821Y-158090490D02*
X123361202Y-158012871D01*
X123361202Y-158012871D02*
X123283583Y-157857633D01*
X123283583Y-157857633D02*
X123283583Y-157702395D01*
X123283583Y-157702395D02*
X123361202Y-157547157D01*
X123361202Y-157547157D02*
X123438821Y-157469538D01*
X123438821Y-157469538D02*
X123594059Y-157391919D01*
X123594059Y-157391919D02*
X123982154Y-157391919D01*
X123982154Y-157391919D02*
X124215011Y-157469538D01*
X124913583Y-159021919D02*
X124913583Y-157391919D01*
X124913583Y-157391919D02*
X125534535Y-157391919D01*
X125534535Y-157391919D02*
X125689773Y-157469538D01*
X125689773Y-157469538D02*
X125767392Y-157547157D01*
X125767392Y-157547157D02*
X125845011Y-157702395D01*
X125845011Y-157702395D02*
X125845011Y-157935252D01*
X125845011Y-157935252D02*
X125767392Y-158090490D01*
X125767392Y-158090490D02*
X125689773Y-158168109D01*
X125689773Y-158168109D02*
X125534535Y-158245728D01*
X125534535Y-158245728D02*
X124913583Y-158245728D01*
X126465964Y-158556204D02*
X127242154Y-158556204D01*
X126310726Y-159021919D02*
X126854059Y-157391919D01*
X126854059Y-157391919D02*
X127397392Y-159021919D01*
X128872154Y-158866680D02*
X128794535Y-158944300D01*
X128794535Y-158944300D02*
X128561678Y-159021919D01*
X128561678Y-159021919D02*
X128406440Y-159021919D01*
X128406440Y-159021919D02*
X128173583Y-158944300D01*
X128173583Y-158944300D02*
X128018345Y-158789061D01*
X128018345Y-158789061D02*
X127940726Y-158633823D01*
X127940726Y-158633823D02*
X127863107Y-158323347D01*
X127863107Y-158323347D02*
X127863107Y-158090490D01*
X127863107Y-158090490D02*
X127940726Y-157780014D01*
X127940726Y-157780014D02*
X128018345Y-157624776D01*
X128018345Y-157624776D02*
X128173583Y-157469538D01*
X128173583Y-157469538D02*
X128406440Y-157391919D01*
X128406440Y-157391919D02*
X128561678Y-157391919D01*
X128561678Y-157391919D02*
X128794535Y-157469538D01*
X128794535Y-157469538D02*
X128872154Y-157547157D01*
X129570726Y-158168109D02*
X130114059Y-158168109D01*
X130346916Y-159021919D02*
X129570726Y-159021919D01*
X129570726Y-159021919D02*
X129570726Y-157391919D01*
X129570726Y-157391919D02*
X130346916Y-157391919D01*
X133218821Y-158866680D02*
X133141202Y-158944300D01*
X133141202Y-158944300D02*
X132908345Y-159021919D01*
X132908345Y-159021919D02*
X132753107Y-159021919D01*
X132753107Y-159021919D02*
X132520250Y-158944300D01*
X132520250Y-158944300D02*
X132365012Y-158789061D01*
X132365012Y-158789061D02*
X132287393Y-158633823D01*
X132287393Y-158633823D02*
X132209774Y-158323347D01*
X132209774Y-158323347D02*
X132209774Y-158090490D01*
X132209774Y-158090490D02*
X132287393Y-157780014D01*
X132287393Y-157780014D02*
X132365012Y-157624776D01*
X132365012Y-157624776D02*
X132520250Y-157469538D01*
X132520250Y-157469538D02*
X132753107Y-157391919D01*
X132753107Y-157391919D02*
X132908345Y-157391919D01*
X132908345Y-157391919D02*
X133141202Y-157469538D01*
X133141202Y-157469538D02*
X133218821Y-157547157D01*
X134848821Y-159021919D02*
X134305488Y-158245728D01*
X133917393Y-159021919D02*
X133917393Y-157391919D01*
X133917393Y-157391919D02*
X134538345Y-157391919D01*
X134538345Y-157391919D02*
X134693583Y-157469538D01*
X134693583Y-157469538D02*
X134771202Y-157547157D01*
X134771202Y-157547157D02*
X134848821Y-157702395D01*
X134848821Y-157702395D02*
X134848821Y-157935252D01*
X134848821Y-157935252D02*
X134771202Y-158090490D01*
X134771202Y-158090490D02*
X134693583Y-158168109D01*
X134693583Y-158168109D02*
X134538345Y-158245728D01*
X134538345Y-158245728D02*
X133917393Y-158245728D01*
X135469774Y-158556204D02*
X136245964Y-158556204D01*
X135314536Y-159021919D02*
X135857869Y-157391919D01*
X135857869Y-157391919D02*
X136401202Y-159021919D01*
X137487869Y-158168109D02*
X136944536Y-158168109D01*
X136944536Y-159021919D02*
X136944536Y-157391919D01*
X136944536Y-157391919D02*
X137720726Y-157391919D01*
X138108822Y-157391919D02*
X139040250Y-157391919D01*
X138574536Y-159021919D02*
X138574536Y-157391919D01*
X174701101Y-158866680D02*
X174623482Y-158944300D01*
X174623482Y-158944300D02*
X174390625Y-159021919D01*
X174390625Y-159021919D02*
X174235387Y-159021919D01*
X174235387Y-159021919D02*
X174002530Y-158944300D01*
X174002530Y-158944300D02*
X173847292Y-158789061D01*
X173847292Y-158789061D02*
X173769673Y-158633823D01*
X173769673Y-158633823D02*
X173692054Y-158323347D01*
X173692054Y-158323347D02*
X173692054Y-158090490D01*
X173692054Y-158090490D02*
X173769673Y-157780014D01*
X173769673Y-157780014D02*
X173847292Y-157624776D01*
X173847292Y-157624776D02*
X174002530Y-157469538D01*
X174002530Y-157469538D02*
X174235387Y-157391919D01*
X174235387Y-157391919D02*
X174390625Y-157391919D01*
X174390625Y-157391919D02*
X174623482Y-157469538D01*
X174623482Y-157469538D02*
X174701101Y-157547157D01*
X175710149Y-157391919D02*
X176020625Y-157391919D01*
X176020625Y-157391919D02*
X176175863Y-157469538D01*
X176175863Y-157469538D02*
X176331101Y-157624776D01*
X176331101Y-157624776D02*
X176408720Y-157935252D01*
X176408720Y-157935252D02*
X176408720Y-158478585D01*
X176408720Y-158478585D02*
X176331101Y-158789061D01*
X176331101Y-158789061D02*
X176175863Y-158944300D01*
X176175863Y-158944300D02*
X176020625Y-159021919D01*
X176020625Y-159021919D02*
X175710149Y-159021919D01*
X175710149Y-159021919D02*
X175554911Y-158944300D01*
X175554911Y-158944300D02*
X175399673Y-158789061D01*
X175399673Y-158789061D02*
X175322054Y-158478585D01*
X175322054Y-158478585D02*
X175322054Y-157935252D01*
X175322054Y-157935252D02*
X175399673Y-157624776D01*
X175399673Y-157624776D02*
X175554911Y-157469538D01*
X175554911Y-157469538D02*
X175710149Y-157391919D01*
X177107292Y-159021919D02*
X177107292Y-157391919D01*
X177107292Y-157391919D02*
X177495387Y-157391919D01*
X177495387Y-157391919D02*
X177728244Y-157469538D01*
X177728244Y-157469538D02*
X177883482Y-157624776D01*
X177883482Y-157624776D02*
X177961101Y-157780014D01*
X177961101Y-157780014D02*
X178038720Y-158090490D01*
X178038720Y-158090490D02*
X178038720Y-158323347D01*
X178038720Y-158323347D02*
X177961101Y-158633823D01*
X177961101Y-158633823D02*
X177883482Y-158789061D01*
X177883482Y-158789061D02*
X177728244Y-158944300D01*
X177728244Y-158944300D02*
X177495387Y-159021919D01*
X177495387Y-159021919D02*
X177107292Y-159021919D01*
X178659673Y-158556204D02*
X179435863Y-158556204D01*
X178504435Y-159021919D02*
X179047768Y-157391919D01*
X179047768Y-157391919D02*
X179591101Y-159021919D01*
X180134435Y-159021919D02*
X180134435Y-157391919D01*
X180134435Y-157391919D02*
X180755387Y-157391919D01*
X180755387Y-157391919D02*
X180910625Y-157469538D01*
X180910625Y-157469538D02*
X180988244Y-157547157D01*
X180988244Y-157547157D02*
X181065863Y-157702395D01*
X181065863Y-157702395D02*
X181065863Y-157935252D01*
X181065863Y-157935252D02*
X180988244Y-158090490D01*
X180988244Y-158090490D02*
X180910625Y-158168109D01*
X180910625Y-158168109D02*
X180755387Y-158245728D01*
X180755387Y-158245728D02*
X180134435Y-158245728D01*
X182074911Y-157391919D02*
X182385387Y-157391919D01*
X182385387Y-157391919D02*
X182540625Y-157469538D01*
X182540625Y-157469538D02*
X182695863Y-157624776D01*
X182695863Y-157624776D02*
X182773482Y-157935252D01*
X182773482Y-157935252D02*
X182773482Y-158478585D01*
X182773482Y-158478585D02*
X182695863Y-158789061D01*
X182695863Y-158789061D02*
X182540625Y-158944300D01*
X182540625Y-158944300D02*
X182385387Y-159021919D01*
X182385387Y-159021919D02*
X182074911Y-159021919D01*
X182074911Y-159021919D02*
X181919673Y-158944300D01*
X181919673Y-158944300D02*
X181764435Y-158789061D01*
X181764435Y-158789061D02*
X181686816Y-158478585D01*
X181686816Y-158478585D02*
X181686816Y-157935252D01*
X181686816Y-157935252D02*
X181764435Y-157624776D01*
X181764435Y-157624776D02*
X181919673Y-157469538D01*
X181919673Y-157469538D02*
X182074911Y-157391919D01*
X183472054Y-159021919D02*
X183472054Y-157391919D01*
X183472054Y-157391919D02*
X184093006Y-157391919D01*
X184093006Y-157391919D02*
X184248244Y-157469538D01*
X184248244Y-157469538D02*
X184325863Y-157547157D01*
X184325863Y-157547157D02*
X184403482Y-157702395D01*
X184403482Y-157702395D02*
X184403482Y-157935252D01*
X184403482Y-157935252D02*
X184325863Y-158090490D01*
X184325863Y-158090490D02*
X184248244Y-158168109D01*
X184248244Y-158168109D02*
X184093006Y-158245728D01*
X184093006Y-158245728D02*
X183472054Y-158245728D01*
X185102054Y-159021919D02*
X185102054Y-157391919D01*
X186033482Y-159021919D02*
X185334911Y-158090490D01*
X186033482Y-157391919D02*
X185102054Y-158323347D01*
X186654435Y-158944300D02*
X186887292Y-159021919D01*
X186887292Y-159021919D02*
X187275387Y-159021919D01*
X187275387Y-159021919D02*
X187430625Y-158944300D01*
X187430625Y-158944300D02*
X187508244Y-158866680D01*
X187508244Y-158866680D02*
X187585863Y-158711442D01*
X187585863Y-158711442D02*
X187585863Y-158556204D01*
X187585863Y-158556204D02*
X187508244Y-158400966D01*
X187508244Y-158400966D02*
X187430625Y-158323347D01*
X187430625Y-158323347D02*
X187275387Y-158245728D01*
X187275387Y-158245728D02*
X186964911Y-158168109D01*
X186964911Y-158168109D02*
X186809673Y-158090490D01*
X186809673Y-158090490D02*
X186732054Y-158012871D01*
X186732054Y-158012871D02*
X186654435Y-157857633D01*
X186654435Y-157857633D02*
X186654435Y-157702395D01*
X186654435Y-157702395D02*
X186732054Y-157547157D01*
X186732054Y-157547157D02*
X186809673Y-157469538D01*
X186809673Y-157469538D02*
X186964911Y-157391919D01*
X186964911Y-157391919D02*
X187353006Y-157391919D01*
X187353006Y-157391919D02*
X187585863Y-157469538D01*
X188284435Y-159021919D02*
X188284435Y-157391919D01*
X188284435Y-157391919D02*
X188905387Y-157391919D01*
X188905387Y-157391919D02*
X189060625Y-157469538D01*
X189060625Y-157469538D02*
X189138244Y-157547157D01*
X189138244Y-157547157D02*
X189215863Y-157702395D01*
X189215863Y-157702395D02*
X189215863Y-157935252D01*
X189215863Y-157935252D02*
X189138244Y-158090490D01*
X189138244Y-158090490D02*
X189060625Y-158168109D01*
X189060625Y-158168109D02*
X188905387Y-158245728D01*
X188905387Y-158245728D02*
X188284435Y-158245728D01*
D15*
X114770731Y-109803642D02*
X114770731Y-108178042D01*
X114770731Y-108178042D02*
X115157779Y-108178042D01*
X115157779Y-108178042D02*
X115390007Y-108255452D01*
X115390007Y-108255452D02*
X115544826Y-108410271D01*
X115544826Y-108410271D02*
X115622236Y-108565090D01*
X115622236Y-108565090D02*
X115699645Y-108874728D01*
X115699645Y-108874728D02*
X115699645Y-109106956D01*
X115699645Y-109106956D02*
X115622236Y-109416594D01*
X115622236Y-109416594D02*
X115544826Y-109571413D01*
X115544826Y-109571413D02*
X115390007Y-109726233D01*
X115390007Y-109726233D02*
X115157779Y-109803642D01*
X115157779Y-109803642D02*
X114770731Y-109803642D01*
X116318922Y-109339185D02*
X117093017Y-109339185D01*
X116164103Y-109803642D02*
X116705969Y-108178042D01*
X116705969Y-108178042D02*
X117247836Y-109803642D01*
X117557474Y-108178042D02*
X118486388Y-108178042D01*
X118021931Y-109803642D02*
X118021931Y-108178042D01*
X118950845Y-109339185D02*
X119724940Y-109339185D01*
X118796026Y-109803642D02*
X119337892Y-108178042D01*
X119337892Y-108178042D02*
X119879759Y-109803642D01*
X122202044Y-108952137D02*
X122434272Y-109029547D01*
X122434272Y-109029547D02*
X122511682Y-109106956D01*
X122511682Y-109106956D02*
X122589091Y-109261775D01*
X122589091Y-109261775D02*
X122589091Y-109494004D01*
X122589091Y-109494004D02*
X122511682Y-109648823D01*
X122511682Y-109648823D02*
X122434272Y-109726233D01*
X122434272Y-109726233D02*
X122279453Y-109803642D01*
X122279453Y-109803642D02*
X121660177Y-109803642D01*
X121660177Y-109803642D02*
X121660177Y-108178042D01*
X121660177Y-108178042D02*
X122202044Y-108178042D01*
X122202044Y-108178042D02*
X122356863Y-108255452D01*
X122356863Y-108255452D02*
X122434272Y-108332861D01*
X122434272Y-108332861D02*
X122511682Y-108487680D01*
X122511682Y-108487680D02*
X122511682Y-108642499D01*
X122511682Y-108642499D02*
X122434272Y-108797318D01*
X122434272Y-108797318D02*
X122356863Y-108874728D01*
X122356863Y-108874728D02*
X122202044Y-108952137D01*
X122202044Y-108952137D02*
X121660177Y-108952137D01*
X123285777Y-108178042D02*
X123285777Y-109494004D01*
X123285777Y-109494004D02*
X123363187Y-109648823D01*
X123363187Y-109648823D02*
X123440596Y-109726233D01*
X123440596Y-109726233D02*
X123595415Y-109803642D01*
X123595415Y-109803642D02*
X123905053Y-109803642D01*
X123905053Y-109803642D02*
X124059872Y-109726233D01*
X124059872Y-109726233D02*
X124137282Y-109648823D01*
X124137282Y-109648823D02*
X124214691Y-109494004D01*
X124214691Y-109494004D02*
X124214691Y-108178042D01*
X124911378Y-109726233D02*
X125143606Y-109803642D01*
X125143606Y-109803642D02*
X125530654Y-109803642D01*
X125530654Y-109803642D02*
X125685473Y-109726233D01*
X125685473Y-109726233D02*
X125762882Y-109648823D01*
X125762882Y-109648823D02*
X125840292Y-109494004D01*
X125840292Y-109494004D02*
X125840292Y-109339185D01*
X125840292Y-109339185D02*
X125762882Y-109184366D01*
X125762882Y-109184366D02*
X125685473Y-109106956D01*
X125685473Y-109106956D02*
X125530654Y-109029547D01*
X125530654Y-109029547D02*
X125221016Y-108952137D01*
X125221016Y-108952137D02*
X125066197Y-108874728D01*
X125066197Y-108874728D02*
X124988787Y-108797318D01*
X124988787Y-108797318D02*
X124911378Y-108642499D01*
X124911378Y-108642499D02*
X124911378Y-108487680D01*
X124911378Y-108487680D02*
X124988787Y-108332861D01*
X124988787Y-108332861D02*
X125066197Y-108255452D01*
X125066197Y-108255452D02*
X125221016Y-108178042D01*
X125221016Y-108178042D02*
X125608063Y-108178042D01*
X125608063Y-108178042D02*
X125840292Y-108255452D01*
X128704443Y-109648823D02*
X128627034Y-109726233D01*
X128627034Y-109726233D02*
X128394805Y-109803642D01*
X128394805Y-109803642D02*
X128239986Y-109803642D01*
X128239986Y-109803642D02*
X128007758Y-109726233D01*
X128007758Y-109726233D02*
X127852939Y-109571413D01*
X127852939Y-109571413D02*
X127775529Y-109416594D01*
X127775529Y-109416594D02*
X127698120Y-109106956D01*
X127698120Y-109106956D02*
X127698120Y-108874728D01*
X127698120Y-108874728D02*
X127775529Y-108565090D01*
X127775529Y-108565090D02*
X127852939Y-108410271D01*
X127852939Y-108410271D02*
X128007758Y-108255452D01*
X128007758Y-108255452D02*
X128239986Y-108178042D01*
X128239986Y-108178042D02*
X128394805Y-108178042D01*
X128394805Y-108178042D02*
X128627034Y-108255452D01*
X128627034Y-108255452D02*
X128704443Y-108332861D01*
X129710767Y-108178042D02*
X130020405Y-108178042D01*
X130020405Y-108178042D02*
X130175224Y-108255452D01*
X130175224Y-108255452D02*
X130330043Y-108410271D01*
X130330043Y-108410271D02*
X130407453Y-108719909D01*
X130407453Y-108719909D02*
X130407453Y-109261775D01*
X130407453Y-109261775D02*
X130330043Y-109571413D01*
X130330043Y-109571413D02*
X130175224Y-109726233D01*
X130175224Y-109726233D02*
X130020405Y-109803642D01*
X130020405Y-109803642D02*
X129710767Y-109803642D01*
X129710767Y-109803642D02*
X129555948Y-109726233D01*
X129555948Y-109726233D02*
X129401129Y-109571413D01*
X129401129Y-109571413D02*
X129323720Y-109261775D01*
X129323720Y-109261775D02*
X129323720Y-108719909D01*
X129323720Y-108719909D02*
X129401129Y-108410271D01*
X129401129Y-108410271D02*
X129555948Y-108255452D01*
X129555948Y-108255452D02*
X129710767Y-108178042D01*
X131104139Y-109803642D02*
X131104139Y-108178042D01*
X131104139Y-108178042D02*
X132033053Y-109803642D01*
X132033053Y-109803642D02*
X132033053Y-108178042D01*
X132807149Y-109803642D02*
X132807149Y-108178042D01*
X132807149Y-108178042D02*
X133736063Y-109803642D01*
X133736063Y-109803642D02*
X133736063Y-108178042D01*
D16*
X137357201Y-130948696D02*
X137052401Y-130513268D01*
X136834687Y-130948696D02*
X136834687Y-130034296D01*
X136834687Y-130034296D02*
X137183030Y-130034296D01*
X137183030Y-130034296D02*
X137270115Y-130077839D01*
X137270115Y-130077839D02*
X137313658Y-130121382D01*
X137313658Y-130121382D02*
X137357201Y-130208468D01*
X137357201Y-130208468D02*
X137357201Y-130339096D01*
X137357201Y-130339096D02*
X137313658Y-130426182D01*
X137313658Y-130426182D02*
X137270115Y-130469725D01*
X137270115Y-130469725D02*
X137183030Y-130513268D01*
X137183030Y-130513268D02*
X136834687Y-130513268D01*
X137705544Y-130121382D02*
X137749087Y-130077839D01*
X137749087Y-130077839D02*
X137836173Y-130034296D01*
X137836173Y-130034296D02*
X138053887Y-130034296D01*
X138053887Y-130034296D02*
X138140973Y-130077839D01*
X138140973Y-130077839D02*
X138184515Y-130121382D01*
X138184515Y-130121382D02*
X138228058Y-130208468D01*
X138228058Y-130208468D02*
X138228058Y-130295554D01*
X138228058Y-130295554D02*
X138184515Y-130426182D01*
X138184515Y-130426182D02*
X137662001Y-130948696D01*
X137662001Y-130948696D02*
X138228058Y-130948696D01*
X139334687Y-130600354D02*
X140031373Y-130600354D01*
X141642458Y-130948696D02*
X141119944Y-130948696D01*
X141381201Y-130948696D02*
X141381201Y-130034296D01*
X141381201Y-130034296D02*
X141294115Y-130164925D01*
X141294115Y-130164925D02*
X141207030Y-130252011D01*
X141207030Y-130252011D02*
X141119944Y-130295554D01*
X142208515Y-130034296D02*
X142295601Y-130034296D01*
X142295601Y-130034296D02*
X142382687Y-130077839D01*
X142382687Y-130077839D02*
X142426230Y-130121382D01*
X142426230Y-130121382D02*
X142469772Y-130208468D01*
X142469772Y-130208468D02*
X142513315Y-130382639D01*
X142513315Y-130382639D02*
X142513315Y-130600354D01*
X142513315Y-130600354D02*
X142469772Y-130774525D01*
X142469772Y-130774525D02*
X142426230Y-130861611D01*
X142426230Y-130861611D02*
X142382687Y-130905154D01*
X142382687Y-130905154D02*
X142295601Y-130948696D01*
X142295601Y-130948696D02*
X142208515Y-130948696D01*
X142208515Y-130948696D02*
X142121430Y-130905154D01*
X142121430Y-130905154D02*
X142077887Y-130861611D01*
X142077887Y-130861611D02*
X142034344Y-130774525D01*
X142034344Y-130774525D02*
X141990801Y-130600354D01*
X141990801Y-130600354D02*
X141990801Y-130382639D01*
X141990801Y-130382639D02*
X142034344Y-130208468D01*
X142034344Y-130208468D02*
X142077887Y-130121382D01*
X142077887Y-130121382D02*
X142121430Y-130077839D01*
X142121430Y-130077839D02*
X142208515Y-130034296D01*
X142905201Y-130948696D02*
X142905201Y-130034296D01*
X143427715Y-130948696D02*
X143035829Y-130426182D01*
X143427715Y-130034296D02*
X142905201Y-130556811D01*
X173857201Y-130948696D02*
X173552401Y-130513268D01*
X173334687Y-130948696D02*
X173334687Y-130034296D01*
X173334687Y-130034296D02*
X173683030Y-130034296D01*
X173683030Y-130034296D02*
X173770115Y-130077839D01*
X173770115Y-130077839D02*
X173813658Y-130121382D01*
X173813658Y-130121382D02*
X173857201Y-130208468D01*
X173857201Y-130208468D02*
X173857201Y-130339096D01*
X173857201Y-130339096D02*
X173813658Y-130426182D01*
X173813658Y-130426182D02*
X173770115Y-130469725D01*
X173770115Y-130469725D02*
X173683030Y-130513268D01*
X173683030Y-130513268D02*
X173334687Y-130513268D01*
X174640973Y-130339096D02*
X174640973Y-130948696D01*
X174423258Y-129990754D02*
X174205544Y-130643896D01*
X174205544Y-130643896D02*
X174771601Y-130643896D01*
X175834687Y-130600354D02*
X176531373Y-130600354D01*
X178142458Y-130948696D02*
X177619944Y-130948696D01*
X177881201Y-130948696D02*
X177881201Y-130034296D01*
X177881201Y-130034296D02*
X177794115Y-130164925D01*
X177794115Y-130164925D02*
X177707030Y-130252011D01*
X177707030Y-130252011D02*
X177619944Y-130295554D01*
X178708515Y-130034296D02*
X178795601Y-130034296D01*
X178795601Y-130034296D02*
X178882687Y-130077839D01*
X178882687Y-130077839D02*
X178926230Y-130121382D01*
X178926230Y-130121382D02*
X178969772Y-130208468D01*
X178969772Y-130208468D02*
X179013315Y-130382639D01*
X179013315Y-130382639D02*
X179013315Y-130600354D01*
X179013315Y-130600354D02*
X178969772Y-130774525D01*
X178969772Y-130774525D02*
X178926230Y-130861611D01*
X178926230Y-130861611D02*
X178882687Y-130905154D01*
X178882687Y-130905154D02*
X178795601Y-130948696D01*
X178795601Y-130948696D02*
X178708515Y-130948696D01*
X178708515Y-130948696D02*
X178621430Y-130905154D01*
X178621430Y-130905154D02*
X178577887Y-130861611D01*
X178577887Y-130861611D02*
X178534344Y-130774525D01*
X178534344Y-130774525D02*
X178490801Y-130600354D01*
X178490801Y-130600354D02*
X178490801Y-130382639D01*
X178490801Y-130382639D02*
X178534344Y-130208468D01*
X178534344Y-130208468D02*
X178577887Y-130121382D01*
X178577887Y-130121382D02*
X178621430Y-130077839D01*
X178621430Y-130077839D02*
X178708515Y-130034296D01*
X179405201Y-130948696D02*
X179405201Y-130034296D01*
X179927715Y-130948696D02*
X179535829Y-130426182D01*
X179927715Y-130034296D02*
X179405201Y-130556811D01*
D17*
X109590491Y-118362932D02*
X109546948Y-118406475D01*
X109546948Y-118406475D02*
X109416320Y-118450017D01*
X109416320Y-118450017D02*
X109329234Y-118450017D01*
X109329234Y-118450017D02*
X109198605Y-118406475D01*
X109198605Y-118406475D02*
X109111520Y-118319389D01*
X109111520Y-118319389D02*
X109067977Y-118232303D01*
X109067977Y-118232303D02*
X109024434Y-118058132D01*
X109024434Y-118058132D02*
X109024434Y-117927503D01*
X109024434Y-117927503D02*
X109067977Y-117753332D01*
X109067977Y-117753332D02*
X109111520Y-117666246D01*
X109111520Y-117666246D02*
X109198605Y-117579160D01*
X109198605Y-117579160D02*
X109329234Y-117535617D01*
X109329234Y-117535617D02*
X109416320Y-117535617D01*
X109416320Y-117535617D02*
X109546948Y-117579160D01*
X109546948Y-117579160D02*
X109590491Y-117622703D01*
X109982377Y-118101675D02*
X110679063Y-118101675D01*
X111114491Y-118450017D02*
X111114491Y-117535617D01*
X111114491Y-117535617D02*
X111419291Y-118188760D01*
X111419291Y-118188760D02*
X111724091Y-117535617D01*
X111724091Y-117535617D02*
X111724091Y-118450017D01*
X112115977Y-118188760D02*
X112551406Y-118188760D01*
X112028891Y-118450017D02*
X112333691Y-117535617D01*
X112333691Y-117535617D02*
X112638491Y-118450017D01*
X112943291Y-118450017D02*
X112943291Y-117535617D01*
X113378720Y-118450017D02*
X113378720Y-117535617D01*
X113378720Y-117535617D02*
X113901234Y-118450017D01*
X113901234Y-118450017D02*
X113901234Y-117535617D01*
X162024434Y-111438760D02*
X162459863Y-111438760D01*
X161937348Y-111700017D02*
X162242148Y-110785617D01*
X162242148Y-110785617D02*
X162546948Y-111700017D01*
X163374262Y-111700017D02*
X163069462Y-111264589D01*
X162851748Y-111700017D02*
X162851748Y-110785617D01*
X162851748Y-110785617D02*
X163200091Y-110785617D01*
X163200091Y-110785617D02*
X163287176Y-110829160D01*
X163287176Y-110829160D02*
X163330719Y-110872703D01*
X163330719Y-110872703D02*
X163374262Y-110959789D01*
X163374262Y-110959789D02*
X163374262Y-111090417D01*
X163374262Y-111090417D02*
X163330719Y-111177503D01*
X163330719Y-111177503D02*
X163287176Y-111221046D01*
X163287176Y-111221046D02*
X163200091Y-111264589D01*
X163200091Y-111264589D02*
X162851748Y-111264589D01*
X163766148Y-111700017D02*
X163766148Y-110785617D01*
X163766148Y-110785617D02*
X163983862Y-110785617D01*
X163983862Y-110785617D02*
X164114491Y-110829160D01*
X164114491Y-110829160D02*
X164201576Y-110916246D01*
X164201576Y-110916246D02*
X164245119Y-111003332D01*
X164245119Y-111003332D02*
X164288662Y-111177503D01*
X164288662Y-111177503D02*
X164288662Y-111308132D01*
X164288662Y-111308132D02*
X164245119Y-111482303D01*
X164245119Y-111482303D02*
X164201576Y-111569389D01*
X164201576Y-111569389D02*
X164114491Y-111656475D01*
X164114491Y-111656475D02*
X163983862Y-111700017D01*
X163983862Y-111700017D02*
X163766148Y-111700017D01*
X164680548Y-110785617D02*
X164680548Y-111525846D01*
X164680548Y-111525846D02*
X164724091Y-111612932D01*
X164724091Y-111612932D02*
X164767634Y-111656475D01*
X164767634Y-111656475D02*
X164854719Y-111700017D01*
X164854719Y-111700017D02*
X165028891Y-111700017D01*
X165028891Y-111700017D02*
X165115976Y-111656475D01*
X165115976Y-111656475D02*
X165159519Y-111612932D01*
X165159519Y-111612932D02*
X165203062Y-111525846D01*
X165203062Y-111525846D02*
X165203062Y-110785617D01*
X165638491Y-111700017D02*
X165638491Y-110785617D01*
X166073920Y-111700017D02*
X166073920Y-110785617D01*
X166073920Y-110785617D02*
X166596434Y-111700017D01*
X166596434Y-111700017D02*
X166596434Y-110785617D01*
X167206034Y-110785617D02*
X167380206Y-110785617D01*
X167380206Y-110785617D02*
X167467291Y-110829160D01*
X167467291Y-110829160D02*
X167554377Y-110916246D01*
X167554377Y-110916246D02*
X167597920Y-111090417D01*
X167597920Y-111090417D02*
X167597920Y-111395217D01*
X167597920Y-111395217D02*
X167554377Y-111569389D01*
X167554377Y-111569389D02*
X167467291Y-111656475D01*
X167467291Y-111656475D02*
X167380206Y-111700017D01*
X167380206Y-111700017D02*
X167206034Y-111700017D01*
X167206034Y-111700017D02*
X167118949Y-111656475D01*
X167118949Y-111656475D02*
X167031863Y-111569389D01*
X167031863Y-111569389D02*
X166988320Y-111395217D01*
X166988320Y-111395217D02*
X166988320Y-111090417D01*
X166988320Y-111090417D02*
X167031863Y-110916246D01*
X167031863Y-110916246D02*
X167118949Y-110829160D01*
X167118949Y-110829160D02*
X167206034Y-110785617D01*
X168686492Y-111700017D02*
X168686492Y-110785617D01*
X168686492Y-110785617D02*
X169209006Y-111700017D01*
X169209006Y-111700017D02*
X169209006Y-110785617D01*
X169600892Y-111438760D02*
X170036321Y-111438760D01*
X169513806Y-111700017D02*
X169818606Y-110785617D01*
X169818606Y-110785617D02*
X170123406Y-111700017D01*
X170428206Y-111700017D02*
X170428206Y-110785617D01*
X170428206Y-110785617D02*
X170950720Y-111700017D01*
X170950720Y-111700017D02*
X170950720Y-110785617D01*
X171560320Y-110785617D02*
X171734492Y-110785617D01*
X171734492Y-110785617D02*
X171821577Y-110829160D01*
X171821577Y-110829160D02*
X171908663Y-110916246D01*
X171908663Y-110916246D02*
X171952206Y-111090417D01*
X171952206Y-111090417D02*
X171952206Y-111395217D01*
X171952206Y-111395217D02*
X171908663Y-111569389D01*
X171908663Y-111569389D02*
X171821577Y-111656475D01*
X171821577Y-111656475D02*
X171734492Y-111700017D01*
X171734492Y-111700017D02*
X171560320Y-111700017D01*
X171560320Y-111700017D02*
X171473235Y-111656475D01*
X171473235Y-111656475D02*
X171386149Y-111569389D01*
X171386149Y-111569389D02*
X171342606Y-111395217D01*
X171342606Y-111395217D02*
X171342606Y-111090417D01*
X171342606Y-111090417D02*
X171386149Y-110916246D01*
X171386149Y-110916246D02*
X171473235Y-110829160D01*
X171473235Y-110829160D02*
X171560320Y-110785617D01*
D16*
X155857201Y-130948696D02*
X155552401Y-130513268D01*
X155334687Y-130948696D02*
X155334687Y-130034296D01*
X155334687Y-130034296D02*
X155683030Y-130034296D01*
X155683030Y-130034296D02*
X155770115Y-130077839D01*
X155770115Y-130077839D02*
X155813658Y-130121382D01*
X155813658Y-130121382D02*
X155857201Y-130208468D01*
X155857201Y-130208468D02*
X155857201Y-130339096D01*
X155857201Y-130339096D02*
X155813658Y-130426182D01*
X155813658Y-130426182D02*
X155770115Y-130469725D01*
X155770115Y-130469725D02*
X155683030Y-130513268D01*
X155683030Y-130513268D02*
X155334687Y-130513268D01*
X156162001Y-130034296D02*
X156728058Y-130034296D01*
X156728058Y-130034296D02*
X156423258Y-130382639D01*
X156423258Y-130382639D02*
X156553887Y-130382639D01*
X156553887Y-130382639D02*
X156640973Y-130426182D01*
X156640973Y-130426182D02*
X156684515Y-130469725D01*
X156684515Y-130469725D02*
X156728058Y-130556811D01*
X156728058Y-130556811D02*
X156728058Y-130774525D01*
X156728058Y-130774525D02*
X156684515Y-130861611D01*
X156684515Y-130861611D02*
X156640973Y-130905154D01*
X156640973Y-130905154D02*
X156553887Y-130948696D01*
X156553887Y-130948696D02*
X156292630Y-130948696D01*
X156292630Y-130948696D02*
X156205544Y-130905154D01*
X156205544Y-130905154D02*
X156162001Y-130861611D01*
X157834687Y-130600354D02*
X158531373Y-130600354D01*
X160142458Y-130948696D02*
X159619944Y-130948696D01*
X159881201Y-130948696D02*
X159881201Y-130034296D01*
X159881201Y-130034296D02*
X159794115Y-130164925D01*
X159794115Y-130164925D02*
X159707030Y-130252011D01*
X159707030Y-130252011D02*
X159619944Y-130295554D01*
X160708515Y-130034296D02*
X160795601Y-130034296D01*
X160795601Y-130034296D02*
X160882687Y-130077839D01*
X160882687Y-130077839D02*
X160926230Y-130121382D01*
X160926230Y-130121382D02*
X160969772Y-130208468D01*
X160969772Y-130208468D02*
X161013315Y-130382639D01*
X161013315Y-130382639D02*
X161013315Y-130600354D01*
X161013315Y-130600354D02*
X160969772Y-130774525D01*
X160969772Y-130774525D02*
X160926230Y-130861611D01*
X160926230Y-130861611D02*
X160882687Y-130905154D01*
X160882687Y-130905154D02*
X160795601Y-130948696D01*
X160795601Y-130948696D02*
X160708515Y-130948696D01*
X160708515Y-130948696D02*
X160621430Y-130905154D01*
X160621430Y-130905154D02*
X160577887Y-130861611D01*
X160577887Y-130861611D02*
X160534344Y-130774525D01*
X160534344Y-130774525D02*
X160490801Y-130600354D01*
X160490801Y-130600354D02*
X160490801Y-130382639D01*
X160490801Y-130382639D02*
X160534344Y-130208468D01*
X160534344Y-130208468D02*
X160577887Y-130121382D01*
X160577887Y-130121382D02*
X160621430Y-130077839D01*
X160621430Y-130077839D02*
X160708515Y-130034296D01*
X161405201Y-130948696D02*
X161405201Y-130034296D01*
X161927715Y-130948696D02*
X161535829Y-130426182D01*
X161927715Y-130034296D02*
X161405201Y-130556811D01*
X119357201Y-130948696D02*
X119052401Y-130513268D01*
X118834687Y-130948696D02*
X118834687Y-130034296D01*
X118834687Y-130034296D02*
X119183030Y-130034296D01*
X119183030Y-130034296D02*
X119270115Y-130077839D01*
X119270115Y-130077839D02*
X119313658Y-130121382D01*
X119313658Y-130121382D02*
X119357201Y-130208468D01*
X119357201Y-130208468D02*
X119357201Y-130339096D01*
X119357201Y-130339096D02*
X119313658Y-130426182D01*
X119313658Y-130426182D02*
X119270115Y-130469725D01*
X119270115Y-130469725D02*
X119183030Y-130513268D01*
X119183030Y-130513268D02*
X118834687Y-130513268D01*
X120228058Y-130948696D02*
X119705544Y-130948696D01*
X119966801Y-130948696D02*
X119966801Y-130034296D01*
X119966801Y-130034296D02*
X119879715Y-130164925D01*
X119879715Y-130164925D02*
X119792630Y-130252011D01*
X119792630Y-130252011D02*
X119705544Y-130295554D01*
X121334687Y-130600354D02*
X122031373Y-130600354D01*
X123642458Y-130948696D02*
X123119944Y-130948696D01*
X123381201Y-130948696D02*
X123381201Y-130034296D01*
X123381201Y-130034296D02*
X123294115Y-130164925D01*
X123294115Y-130164925D02*
X123207030Y-130252011D01*
X123207030Y-130252011D02*
X123119944Y-130295554D01*
X124208515Y-130034296D02*
X124295601Y-130034296D01*
X124295601Y-130034296D02*
X124382687Y-130077839D01*
X124382687Y-130077839D02*
X124426230Y-130121382D01*
X124426230Y-130121382D02*
X124469772Y-130208468D01*
X124469772Y-130208468D02*
X124513315Y-130382639D01*
X124513315Y-130382639D02*
X124513315Y-130600354D01*
X124513315Y-130600354D02*
X124469772Y-130774525D01*
X124469772Y-130774525D02*
X124426230Y-130861611D01*
X124426230Y-130861611D02*
X124382687Y-130905154D01*
X124382687Y-130905154D02*
X124295601Y-130948696D01*
X124295601Y-130948696D02*
X124208515Y-130948696D01*
X124208515Y-130948696D02*
X124121430Y-130905154D01*
X124121430Y-130905154D02*
X124077887Y-130861611D01*
X124077887Y-130861611D02*
X124034344Y-130774525D01*
X124034344Y-130774525D02*
X123990801Y-130600354D01*
X123990801Y-130600354D02*
X123990801Y-130382639D01*
X123990801Y-130382639D02*
X124034344Y-130208468D01*
X124034344Y-130208468D02*
X124077887Y-130121382D01*
X124077887Y-130121382D02*
X124121430Y-130077839D01*
X124121430Y-130077839D02*
X124208515Y-130034296D01*
X124905201Y-130948696D02*
X124905201Y-130034296D01*
X125427715Y-130948696D02*
X125035829Y-130426182D01*
X125427715Y-130034296D02*
X124905201Y-130556811D01*
%TO.C,NONE1*%
D10*
X112250000Y-110736800D02*
X136249900Y-110736800D01*
X112250000Y-116736600D02*
X112250000Y-110736800D01*
X123250100Y-110736800D02*
X123250100Y-111736800D01*
X123250100Y-111736800D02*
X125249800Y-111736800D01*
X125249800Y-111736800D02*
X125249800Y-110736800D01*
X136249900Y-110736800D02*
X136249900Y-116736600D01*
X136249900Y-116736600D02*
X112250000Y-116736600D01*
%TO.C,R2*%
X133500100Y-129287400D02*
X133500100Y-131789300D01*
X133500100Y-131789300D02*
X146499800Y-131789300D01*
X146499800Y-129287400D02*
X133500100Y-129287400D01*
X146499800Y-131537800D02*
X146499800Y-129287400D01*
X146499800Y-131789300D02*
X146499800Y-131537800D01*
%TO.C,R4*%
X169900000Y-129287400D02*
X169900000Y-131789300D01*
X169900000Y-131789300D02*
X182899700Y-131789300D01*
X182899700Y-129287400D02*
X169900000Y-129287400D01*
X182899700Y-131537800D02*
X182899700Y-129287400D01*
X182899700Y-131789300D02*
X182899700Y-131537800D01*
%TO.C,C-MAIN*%
X109468000Y-123769900D02*
X110484000Y-123769900D01*
X109976000Y-124277900D02*
X109976000Y-123261900D01*
X114649700Y-122500000D02*
G75*
G02*
X108350500Y-122500000I-3149600J0D01*
G01*
X108350500Y-122500000D02*
G75*
G02*
X114649700Y-122500000I3149600J0D01*
G01*
%TO.C,ARDUINO NANO*%
X144400000Y-102249900D02*
X187600100Y-102249900D01*
X144400000Y-120249900D02*
X144400000Y-102249900D01*
X187600100Y-102249900D02*
X187600100Y-120249900D01*
X187600100Y-120249900D02*
X144400000Y-120249900D01*
X147457900Y-117600100D02*
G75*
G02*
X146187900Y-117600100I-635000J0D01*
G01*
X146187900Y-117600100D02*
G75*
G02*
X147457900Y-117600100I635000J0D01*
G01*
%TO.C,R3*%
X151900100Y-129287400D02*
X151900100Y-131789300D01*
X151900100Y-131789300D02*
X164899800Y-131789300D01*
X164899800Y-129287400D02*
X151900100Y-129287400D01*
X164899800Y-131537800D02*
X164899800Y-129287400D01*
X164899800Y-131789300D02*
X164899800Y-131537800D01*
%TO.C,R1*%
X115500200Y-129287400D02*
X115500200Y-131789300D01*
X115500200Y-131789300D02*
X128499900Y-131789300D01*
X128499900Y-129287400D02*
X115500200Y-129287400D01*
X128499900Y-131537800D02*
X128499900Y-129287400D01*
X128499900Y-131789300D02*
X128499900Y-131537800D01*
%TD*%
M02*
