%TF.GenerationSoftware,KiCad,Pcbnew,10.0.6*%
%TF.CreationDate,2026-09-23T18:38:44+08:00*%
%TF.ProjectId,Telemetry_Module,54656c65-6d65-4747-9279-5f4d6f64756c,1.7*%
%TF.SameCoordinates,Original*%
%TF.FileFunction,Profile,NP*%
%FSLAX46Y46*%
G04 Gerber Fmt 4.6, Leading zero omitted, Abs format (unit mm)*
G04 Created by KiCad (PCBNEW 10.0.6) date 2026-09-23 18:38:44*
%MOMM*%
%LPD*%
G01*
G04 APERTURE LIST*
%TA.AperFunction,Profile*%
%ADD10C,0.254000*%
%TD*%
G04 APERTURE END LIST*
D10*
X100000000Y-71000000D02*
X111000000Y-60000000D01*
X100000000Y-108501900D02*
X100000000Y-71000000D01*
X100000000Y-110999900D02*
X100000000Y-108501900D01*
X100000000Y-150000000D02*
X100000000Y-111011100D01*
X100000000Y-150000000D02*
X105000000Y-155000100D01*
X105000000Y-155000100D02*
X109999900Y-159999800D01*
X107808200Y-70046200D02*
G75*
G02*
X104208000Y-70046200I-1800100J0D01*
G01*
X104208000Y-70046200D02*
G75*
G02*
X107808200Y-70046200I1800100J0D01*
G01*
X107909600Y-134599300D02*
G75*
G02*
X104309400Y-134599300I-1800100J0D01*
G01*
X104309400Y-134599300D02*
G75*
G02*
X107909600Y-134599300I1800100J0D01*
G01*
X111000000Y-60000000D02*
X188999800Y-60000000D01*
X116299900Y-138500900D02*
X116299900Y-152499700D01*
X116299900Y-152499700D02*
X129300000Y-152499700D01*
X118498800Y-79250700D02*
X146250900Y-79250700D01*
X118498800Y-92875250D02*
X118498800Y-79250700D01*
X118498800Y-98249900D02*
X118498800Y-92875250D01*
X129300000Y-138499900D02*
X116299900Y-138500900D01*
X129300000Y-152499700D02*
X129300000Y-138499900D01*
X134499900Y-138500800D02*
X134499900Y-152499700D01*
X134499900Y-152499700D02*
X147500000Y-152499700D01*
X146250900Y-79250700D02*
X146250900Y-98249900D01*
X146250900Y-98249900D02*
X118498800Y-98249900D01*
X147500000Y-138499800D02*
X134499900Y-138500800D01*
X147500000Y-152499700D02*
X147500000Y-138499800D01*
X152599900Y-138500800D02*
X152599900Y-152499700D01*
X152599900Y-152499700D02*
X165599900Y-152499700D01*
X165599900Y-138499800D02*
X152599900Y-138500800D01*
X165599900Y-152499700D02*
X165599900Y-138499800D01*
X170699900Y-138500800D02*
X170699900Y-152499700D01*
X170699900Y-152499700D02*
X183699900Y-152499700D01*
X179999800Y-86748700D02*
X188000800Y-86748700D01*
X179999800Y-93249850D02*
X179999800Y-86748700D01*
X179999800Y-96499800D02*
X179999800Y-93249850D01*
X183699900Y-138499800D02*
X170699900Y-138500800D01*
X183699900Y-152499700D02*
X183699900Y-138499800D01*
X188000800Y-86748700D02*
X188000800Y-96499800D01*
X188000800Y-96499800D02*
X179999800Y-96499800D01*
X189999800Y-159999800D02*
X109999900Y-159999800D01*
X195741200Y-70096000D02*
G75*
G02*
X192141000Y-70096000I-1800100J0D01*
G01*
X192141000Y-70096000D02*
G75*
G02*
X195741200Y-70096000I1800100J0D01*
G01*
X195792000Y-134649100D02*
G75*
G02*
X192191800Y-134649100I-1800100J0D01*
G01*
X192191800Y-134649100D02*
G75*
G02*
X195792000Y-134649100I1800100J0D01*
G01*
X195001100Y-155001100D02*
X189999800Y-159999800D01*
X199999800Y-71009700D02*
X188999800Y-60000000D01*
X199999800Y-71009700D02*
X199999903Y-109571526D01*
X199999900Y-149999800D02*
X195001100Y-155001100D01*
X200001550Y-111428050D02*
X199999900Y-149999800D01*
X200001550Y-111428050D02*
X200003200Y-111067900D01*
X200003200Y-111067900D02*
X199999903Y-109571526D01*
M02*
