%TF.GenerationSoftware,KiCad,Pcbnew,10.0.6*%
%TF.CreationDate,2026-09-23T18:20:02+08:00*%
%TF.ProjectId,Analog_Throttle_Module,416e616c-6f67-45f5-9468-726f74746c65,1.7*%
%TF.SameCoordinates,Original*%
%TF.FileFunction,Copper,L1,Top*%
%TF.FilePolarity,Positive*%
%FSLAX46Y46*%
G04 Gerber Fmt 4.6, Leading zero omitted, Abs format (unit mm)*
G04 Created by KiCad (PCBNEW 10.0.6) date 2026-09-23 18:20:02*
%MOMM*%
%LPD*%
G01*
G04 APERTURE LIST*
%TA.AperFunction,ComponentPad*%
%ADD10R,1.000000X1.000000*%
%TD*%
%TA.AperFunction,ComponentPad*%
%ADD11R,1.600200X1.600200*%
%TD*%
%TA.AperFunction,ComponentPad*%
%ADD12R,1.400000X1.400000*%
%TD*%
%TA.AperFunction,ComponentPad*%
%ADD13R,1.524000X1.524000*%
%TD*%
%TA.AperFunction,ComponentPad*%
%ADD14R,3.000000X3.000000*%
%TD*%
%TA.AperFunction,ComponentPad*%
%ADD15R,1.300000X1.300000*%
%TD*%
%TA.AperFunction,ComponentPad*%
%ADD16R,1.400000X1.399900*%
%TD*%
%TA.AperFunction,SMDPad,CuDef*%
%ADD17R,1.000000X1.100000*%
%TD*%
%TA.AperFunction,ComponentPad*%
%ADD18R,1.600000X1.600000*%
%TD*%
%TA.AperFunction,ComponentPad*%
%ADD19R,1.300000X1.300100*%
%TD*%
%TA.AperFunction,ViaPad*%
%ADD20C,0.609600*%
%TD*%
%TA.AperFunction,Conductor*%
%ADD21C,0.254000*%
%TD*%
%TA.AperFunction,Conductor*%
%ADD22C,0.762000*%
%TD*%
G04 APERTURE END LIST*
D10*
%TO.P,WP44,1*%
%TO.N,N/C*%
X143501800Y-137253800D03*
%TD*%
%TO.P,WP39,1*%
%TO.N,N/C*%
X143501800Y-151253800D03*
%TD*%
D11*
%TO.P,TP_+5V,1*%
%TO.N,+5V*%
X118960100Y-127000100D03*
%TD*%
D12*
%TO.P,TP_+5V,1*%
%TO.N,+5V*%
X151999900Y-121500000D03*
%TD*%
%TO.P,TP_RESETTRIM,1*%
%TO.N,RESETTRIM*%
X111000000Y-90999900D03*
%TD*%
%TO.P,TP_GND,1*%
%TO.N,GND*%
X137250100Y-110999900D03*
%TD*%
D13*
%TO.P,C4,1*%
%TO.N,GND*%
X151456100Y-134650600D03*
%TO.P,C4,2*%
%TO.N,+5V*%
X151456100Y-129650700D03*
%TD*%
D11*
%TO.P,TP_CRUISE,8*%
%TO.N,CRUISE*%
X134240000Y-119399900D03*
%TD*%
D14*
%TO.P,TP_THROTTLE,1*%
%TO.N,THROTTLE*%
X102700000Y-141099900D03*
%TD*%
D13*
%TO.P,R6,1*%
%TO.N,GND*%
X124839700Y-76326700D03*
%TO.P,R6,2*%
%TO.N,RESETTRIM*%
X114679700Y-76326700D03*
%TD*%
D10*
%TO.P,WP24,1*%
%TO.N,N/C*%
X143502100Y-145253800D03*
%TD*%
D11*
%TO.P,TP_AXIS2,11*%
%TO.N,AXIS2*%
X126620000Y-119399900D03*
%TD*%
D15*
%TO.P,WP51,1*%
%TO.N,SCL*%
X141501800Y-149253800D03*
%TD*%
%TO.P,WP50,1*%
%TO.N,RESET*%
X141501800Y-147253800D03*
%TD*%
D16*
%TO.P,TP_+5V,1*%
%TO.N,+5V*%
X137250100Y-85000000D03*
%TD*%
D14*
%TO.P,TP_GND,1*%
%TO.N,GND*%
X102700000Y-146299800D03*
%TD*%
D13*
%TO.P,R2,1*%
%TO.N,GND*%
X190580200Y-141415600D03*
%TO.P,R2,2*%
%TO.N,MODE2*%
X190580200Y-151575600D03*
%TD*%
D12*
%TO.P,TP_AXIS2,1*%
%TO.N,AXIS2*%
X132250100Y-97999900D03*
%TD*%
D17*
%TO.P,AREF,1*%
%TO.N,AREF*%
X121800100Y-116599800D03*
%TO.P,AREF,2*%
%TO.N,+5V*%
X123400000Y-116599800D03*
%TD*%
D12*
%TO.P,TP_AXIS3,1*%
%TO.N,AXIS3*%
X179000100Y-122000100D03*
%TD*%
%TO.P,TP_TRIM,1*%
%TO.N,TRIM*%
X161000100Y-121500000D03*
%TD*%
%TO.P,TP_GND,1*%
%TO.N,GND*%
X183000100Y-122000100D03*
%TD*%
%TO.P,TP_MODE2,1*%
%TO.N,MODE2*%
X178749900Y-154749900D03*
%TD*%
D11*
%TO.P,TP_AREF,13*%
%TO.N,AREF*%
X121540000Y-119399900D03*
%TD*%
%TO.P,TP_SDA,7*%
%TO.N,SDA*%
X134199800Y-126999900D03*
%TD*%
D10*
%TO.P,WP25,1*%
%TO.N,N/C*%
X143502100Y-143253800D03*
%TD*%
D12*
%TO.P,TP_MODE1,1*%
%TO.N,MODE1*%
X178749900Y-135999800D03*
%TD*%
%TO.P,TP_+5V,1*%
%TO.N,+5V*%
X111000000Y-83000000D03*
%TD*%
%TO.P,TP_+5V,1*%
%TO.N,+5V*%
X111000000Y-100999900D03*
%TD*%
D18*
%TO.P,U4,1*%
%TO.N,LATCH(G)*%
X154709800Y-135809900D03*
%TO.P,U4,2*%
%TO.N,CLOCK(Y)*%
X157249800Y-135809900D03*
%TO.P,U4,3*%
%TO.N,MODE2*%
X159789800Y-135809900D03*
%TO.P,U4,4*%
%TO.N,TRANS*%
X162329800Y-135809900D03*
%TO.P,U4,5*%
%TO.N,GND*%
X164869800Y-135809900D03*
%TO.P,U4,6*%
X167409800Y-135809900D03*
%TO.P,U4,7*%
%TO.N,N/C*%
X169949800Y-135809900D03*
%TO.P,U4,8*%
%TO.N,GND*%
X172489800Y-135809900D03*
%TO.P,U4,9*%
%TO.N,DATA(P)*%
X172489800Y-128189900D03*
%TO.P,U4,10*%
%TO.N,N/C*%
X169949800Y-128189900D03*
%TO.P,U4,11*%
%TO.N,TRIM*%
X167409800Y-128189900D03*
%TO.P,U4,12*%
%TO.N,RESETTRIM*%
X164869800Y-128189900D03*
%TO.P,U4,13*%
%TO.N,BRAKES*%
X162329800Y-128189900D03*
%TO.P,U4,14*%
%TO.N,MODE1*%
X159789800Y-128189900D03*
%TO.P,U4,15*%
%TO.N,GND*%
X157249800Y-128189900D03*
%TO.P,U4,16*%
%TO.N,+5V*%
X154709800Y-128189900D03*
%TD*%
D11*
%TO.P,TP_RESET,4*%
%TO.N,RESET*%
X126579800Y-126999900D03*
%TD*%
%TO.P,TP_THROTTLE,6*%
%TO.N,THROTTLE*%
X131659800Y-126999900D03*
%TD*%
%TO.P,TP_CLOCK_Y_,3*%
%TO.N,CLOCK(Y)*%
X124039800Y-126999900D03*
%TD*%
D12*
%TO.P,TP_AXIS1,1*%
%TO.N,AXIS1*%
X166000100Y-64000000D03*
%TD*%
D13*
%TO.P,C-MAIN,1*%
%TO.N,+5V*%
X146772300Y-127253400D03*
%TO.P,C-MAIN,2*%
%TO.N,GND*%
X144232300Y-127253400D03*
%TD*%
D12*
%TO.P,TP_+5V,1*%
%TO.N,+5V*%
X179000100Y-69000000D03*
%TD*%
%TO.P,TP_+5V,1*%
%TO.N,+5V*%
X157000100Y-152499900D03*
%TD*%
D11*
%TO.P,TP_DATA_P_,5*%
%TO.N,DATA(P)*%
X129119800Y-126999900D03*
%TD*%
%TO.P,TP_SCL,9*%
%TO.N,SCL*%
X131700000Y-119399900D03*
%TD*%
D15*
%TO.P,WP45,1*%
%TO.N,GND*%
X141501800Y-137253800D03*
%TD*%
%TO.P,WP52,1*%
%TO.N,SDA*%
X141501800Y-151253800D03*
%TD*%
D11*
%TO.P,TP_GND,14*%
%TO.N,GND*%
X119000000Y-119399900D03*
%TD*%
D10*
%TO.P,WP47,1*%
%TO.N,N/C*%
X141501800Y-141253800D03*
%TD*%
D13*
%TO.P,C1,1*%
%TO.N,GND*%
X114943900Y-120749200D03*
%TO.P,C1,2*%
%TO.N,+5V*%
X114943900Y-125749200D03*
%TD*%
%TO.P,R5,1*%
%TO.N,GND*%
X125089600Y-96077600D03*
%TO.P,R5,2*%
%TO.N,BRAKES*%
X114929600Y-96077600D03*
%TD*%
D10*
%TO.P,WP49,1*%
%TO.N,N/C*%
X141501800Y-145253800D03*
%TD*%
D11*
%TO.P,TP_LATCH_G_,2*%
%TO.N,LATCH(G)*%
X121499800Y-126999900D03*
%TD*%
D13*
%TO.P,R3,1*%
%TO.N,GND*%
X189592900Y-133079300D03*
%TO.P,R3,2*%
%TO.N,MODE1*%
X179432900Y-133079300D03*
%TD*%
D11*
%TO.P,TP_AXIS1,12*%
%TO.N,AXIS1*%
X124080000Y-119399900D03*
%TD*%
D13*
%TO.P,R4,1*%
%TO.N,GND*%
X171342000Y-124079100D03*
%TO.P,R4,2*%
%TO.N,TRIM*%
X161182000Y-124079100D03*
%TD*%
D12*
%TO.P,TP_+5V,1*%
%TO.N,+5V*%
X175000100Y-122000100D03*
%TD*%
%TO.P,TP_BRAKES,1*%
%TO.N,BRAKES*%
X111000000Y-108999900D03*
%TD*%
%TO.P,TP_+5V,1*%
%TO.N,+5V*%
X185999800Y-144500000D03*
%TD*%
D14*
%TO.P,TP_+5V,1*%
%TO.N,+5V*%
X102700000Y-136299800D03*
%TD*%
D10*
%TO.P,WP38,1*%
%TO.N,N/C*%
X143502100Y-147253800D03*
%TD*%
D13*
%TO.P,R1,1*%
%TO.N,GND*%
X154914300Y-155428800D03*
%TO.P,R1,2*%
%TO.N,TRANS*%
X165074300Y-155428800D03*
%TD*%
D10*
%TO.P,WP53,1*%
%TO.N,N/C*%
X143501800Y-149253800D03*
%TD*%
%TO.P,WP11,1*%
%TO.N,N/C*%
X143502100Y-141253800D03*
%TD*%
D12*
%TO.P,TP_GND,1*%
%TO.N,GND*%
X152999900Y-69000000D03*
%TD*%
D10*
%TO.P,WP48,1*%
%TO.N,N/C*%
X141501800Y-143253800D03*
%TD*%
D11*
%TO.P,TP_AXIS3,10*%
%TO.N,AXIS3*%
X129160000Y-119399900D03*
%TD*%
D10*
%TO.P,WP43,1*%
%TO.N,N/C*%
X143501800Y-139253600D03*
%TD*%
D12*
%TO.P,TP_TRANS,1*%
%TO.N,TRANS*%
X165000100Y-152499900D03*
%TD*%
D19*
%TO.P,WP46,1*%
%TO.N,+5V*%
X141501800Y-139253600D03*
%TD*%
D20*
%TO.N,RESETTRIM*%
X133999900Y-123199800D03*
X144800000Y-122199800D03*
%TO.N,LATCH(G)*%
X143800000Y-131999900D03*
%TO.N,CLOCK(Y)*%
X142999900Y-132999900D03*
%TO.N,DATA(P)*%
X146800000Y-133999900D03*
%TO.N,BRAKES*%
X131400000Y-113999900D03*
%TO.N,GUARD2*%
X199399900Y-105002700D03*
X199399900Y-114999900D03*
%TO.N,GUARD1*%
X100599900Y-114997400D03*
X100599900Y-104999900D03*
%TO.N,S$43552*%
X103808200Y-149740000D03*
X100700000Y-143699900D03*
X104046200Y-143734100D03*
%TD*%
%TO.N,RESETTRIM*%
D21*
X112400000Y-78606300D02*
X114679700Y-76326600D01*
X117200900Y-119400400D02*
X117200900Y-120398700D01*
X111000700Y-91000700D02*
X107800300Y-94201100D01*
X107800300Y-94201100D02*
X107800300Y-111198800D01*
X148999100Y-122199500D02*
X151399400Y-124599800D01*
X144800500Y-122199500D02*
X148999100Y-122199500D01*
X107800300Y-111198800D02*
X114800600Y-118199000D01*
X111000000Y-90999900D02*
X112400000Y-89599900D01*
X155798700Y-124599800D02*
X158600300Y-127398900D01*
X112400000Y-89599900D02*
X112400000Y-78606300D01*
X114800600Y-118199000D02*
X115999500Y-118199000D01*
X115999500Y-118199000D02*
X117200900Y-119400400D01*
X164869100Y-128729900D02*
X164869100Y-128188800D01*
X117200900Y-120398700D02*
X120000000Y-123200300D01*
X151399400Y-124599800D02*
X155798700Y-124599800D01*
X158600300Y-129400400D02*
X159400400Y-130200500D01*
X159400400Y-130200500D02*
X163400900Y-130200500D01*
X158600300Y-127398900D02*
X158600300Y-129400400D01*
X120000000Y-123200300D02*
X134000400Y-123200300D01*
X163400900Y-130200500D02*
X164869100Y-128729900D01*
%TO.N,THROTTLE*%
X104300200Y-129298800D02*
X100701000Y-132900500D01*
X100701000Y-132900500D02*
X100701000Y-139999800D01*
X100701000Y-139999800D02*
X101800900Y-141099700D01*
X129359900Y-129298800D02*
X104300200Y-129298800D01*
X101800900Y-141099700D02*
X102700000Y-141099700D01*
X131661100Y-127000100D02*
X129359900Y-129298800D01*
%TO.N,AXIS2*%
X126598900Y-117800200D02*
X126619200Y-119400400D01*
X129199800Y-115199300D02*
X126598900Y-117800200D01*
X129199800Y-101048900D02*
X129199800Y-115199300D01*
X132250400Y-98000900D02*
X129199800Y-101048900D01*
%TO.N,SCL*%
X135798800Y-123497500D02*
X131699200Y-119400400D01*
X135798800Y-143550800D02*
X135798800Y-123497500D01*
X141501100Y-149253100D02*
X135798800Y-143550800D01*
%TO.N,MODE2*%
X187406000Y-154749900D02*
X190580200Y-151575600D01*
X159789800Y-135809900D02*
X163379800Y-139399900D01*
X178749900Y-154749900D02*
X187406000Y-154749900D01*
X174149900Y-154749900D02*
X178749900Y-154749900D01*
X163379800Y-139399900D02*
X166599800Y-139399900D01*
X171799900Y-144599900D02*
X171799900Y-152399800D01*
X171799900Y-152399800D02*
X174149900Y-154749900D01*
X166599800Y-139399900D02*
X171799900Y-144599900D01*
%TO.N,AREF*%
X121800100Y-116599800D02*
X121800100Y-119139800D01*
X121800100Y-119139800D02*
X121540000Y-119399900D01*
%TO.N,TRIM*%
X163299100Y-124079100D02*
X167409800Y-128189900D01*
X161182000Y-121681900D02*
X161000100Y-121500000D01*
X161182000Y-124079100D02*
X161182000Y-121681900D01*
X161182000Y-124079100D02*
X163299100Y-124079100D01*
%TO.N,SDA*%
X141501100Y-151254600D02*
X134218900Y-143972400D01*
X134218900Y-143972400D02*
X134201100Y-127000100D01*
%TO.N,MODE1*%
X178749900Y-133762400D02*
X179432900Y-133079400D01*
X178749900Y-135999800D02*
X178749900Y-133762400D01*
%TO.N,LATCH(G)*%
X143800000Y-131999900D02*
X148600000Y-136799800D01*
X153719800Y-136799800D02*
X154709800Y-135809900D01*
X148600000Y-136799800D02*
X153719800Y-136799800D01*
%TO.N,CLOCK(Y)*%
X142999900Y-132999800D02*
X147799900Y-137799800D01*
X155259800Y-137799800D02*
X157249800Y-135809900D01*
X147799900Y-137799800D02*
X155259800Y-137799800D01*
%TO.N,TRANS*%
X165074300Y-155428800D02*
X165074300Y-152574100D01*
X165074300Y-152574100D02*
X165000100Y-152499900D01*
%TO.N,DATA(P)*%
X147999800Y-132799800D02*
X167879800Y-132799800D01*
X146799900Y-133999800D02*
X147999800Y-132799800D01*
X167879800Y-132799800D02*
X172489800Y-128189900D01*
%TO.N,BRAKES*%
X114721800Y-96078200D02*
X114930100Y-96078200D01*
X133599900Y-113999900D02*
X139399900Y-119799900D01*
X147600000Y-119799900D02*
X151799900Y-123999900D01*
X158139800Y-123999900D02*
X162329800Y-128189900D01*
X111000700Y-108999100D02*
X112400300Y-107599600D01*
X139399900Y-119799900D02*
X147600000Y-119799900D01*
X112400300Y-98399700D02*
X114721800Y-96078200D01*
X151799900Y-123999900D02*
X158139800Y-123999900D01*
X112400300Y-107599600D02*
X112400300Y-98399700D01*
X131400000Y-113999900D02*
X133599900Y-113999900D01*
%TO.N,AXIS1*%
X165800100Y-63800000D02*
X151599900Y-63800000D01*
X128599900Y-114879900D02*
X124080000Y-119399900D01*
X142199900Y-65800000D02*
X128599900Y-79400000D01*
X149599900Y-65800000D02*
X142199900Y-65800000D01*
X128599900Y-79400000D02*
X128599900Y-114879900D01*
X166000100Y-64000000D02*
X165800100Y-63800000D01*
X151599900Y-63800000D02*
X149599900Y-65800000D01*
%TO.N,GUARD2*%
D22*
X199399800Y-114999900D02*
X196900500Y-114999900D01*
X194401100Y-107499400D02*
X196897900Y-105002600D01*
X196900500Y-114999900D02*
X194401100Y-112500600D01*
X196897900Y-105002600D02*
X199399800Y-105002600D01*
X194401100Y-112500600D02*
X194401100Y-107499400D01*
%TO.N,GUARD1*%
X103099400Y-104999900D02*
X105598700Y-107499300D01*
X105598700Y-107499300D02*
X105598700Y-112500500D01*
X105598700Y-112500500D02*
X103101900Y-114997300D01*
X103101900Y-114997300D02*
X100600000Y-114997300D01*
X100600000Y-104999900D02*
X103099400Y-104999900D01*
%TO.N,S$43552*%
D21*
X103807500Y-149740700D02*
X100500400Y-149740700D01*
X100500400Y-149740700D02*
X100500400Y-143898700D01*
X104033500Y-143699900D02*
X100700000Y-143699900D01*
X104078800Y-143745200D02*
X104033500Y-143699900D01*
X100500400Y-143898700D02*
X100701000Y-143700600D01*
%TD*%
%TA.AperFunction,Conductor*%
%TO.N,+5V*%
G36*
X189808418Y-60520502D02*
G01*
X189829392Y-60537404D01*
X193547184Y-64255158D01*
X199246583Y-69954500D01*
X199462495Y-70170409D01*
X199496520Y-70232721D01*
X199499400Y-70259505D01*
X199499400Y-104241100D01*
X199479398Y-104309221D01*
X199425742Y-104355714D01*
X199373400Y-104367100D01*
X196835306Y-104367100D01*
X196712530Y-104391522D01*
X196712525Y-104391524D01*
X196596877Y-104439427D01*
X196492796Y-104508972D01*
X196492789Y-104508977D01*
X193907477Y-107094289D01*
X193907472Y-107094296D01*
X193837927Y-107198377D01*
X193790024Y-107314025D01*
X193790022Y-107314030D01*
X193765600Y-107436806D01*
X193765600Y-112432805D01*
X193765599Y-112432831D01*
X193765600Y-112500613D01*
X193765600Y-112563197D01*
X193777709Y-112624070D01*
X193790024Y-112685982D01*
X193790034Y-112686012D01*
X193790271Y-112686574D01*
X193809284Y-112732473D01*
X193809284Y-112732474D01*
X193816751Y-112750500D01*
X193837927Y-112801622D01*
X193837930Y-112801627D01*
X193837933Y-112801633D01*
X193873121Y-112854294D01*
X193907478Y-112905713D01*
X193907482Y-112905717D01*
X193907483Y-112905718D01*
X193957250Y-112955483D01*
X193995992Y-112994225D01*
X193999144Y-112997377D01*
X193999160Y-112997392D01*
X196429753Y-115427887D01*
X196429756Y-115427889D01*
X196435414Y-115433547D01*
X196495392Y-115493525D01*
X196495398Y-115493529D01*
X196495402Y-115493533D01*
X196532895Y-115518584D01*
X196599478Y-115563073D01*
X196599485Y-115563076D01*
X196599490Y-115563079D01*
X196648805Y-115583505D01*
X196648807Y-115583506D01*
X196714559Y-115610741D01*
X196715218Y-115611019D01*
X196715275Y-115611036D01*
X196717019Y-115611354D01*
X196801957Y-115628248D01*
X196837909Y-115635400D01*
X196837912Y-115635400D01*
X196837922Y-115635402D01*
X196921377Y-115635400D01*
X199373400Y-115635400D01*
X199441521Y-115655402D01*
X199488014Y-115709058D01*
X199499400Y-115761400D01*
X199499400Y-149740496D01*
X199479398Y-149808617D01*
X199462495Y-149829591D01*
X194650353Y-154641732D01*
X194650353Y-154641733D01*
X189829594Y-159462396D01*
X189767281Y-159496421D01*
X189740499Y-159499300D01*
X110259410Y-159499300D01*
X110191289Y-159479298D01*
X110170338Y-159462419D01*
X105430117Y-154724662D01*
X105353487Y-154648072D01*
X105353461Y-154648046D01*
X105347145Y-154641730D01*
X153897800Y-154641730D01*
X153897800Y-156215863D01*
X153897801Y-156215873D01*
X153912565Y-156290100D01*
X153968816Y-156374284D01*
X154052997Y-156430533D01*
X154052999Y-156430534D01*
X154127233Y-156445300D01*
X155701366Y-156445299D01*
X155701369Y-156445298D01*
X155701373Y-156445298D01*
X155750626Y-156435501D01*
X155775601Y-156430534D01*
X155859784Y-156374284D01*
X155916034Y-156290101D01*
X155930800Y-156215867D01*
X155930799Y-154641734D01*
X155930799Y-154641732D01*
X155930798Y-154641726D01*
X155916034Y-154567499D01*
X155859783Y-154483315D01*
X155775602Y-154427066D01*
X155701367Y-154412300D01*
X154127236Y-154412300D01*
X154127226Y-154412301D01*
X154052999Y-154427065D01*
X153968815Y-154483316D01*
X153912566Y-154567497D01*
X153897800Y-154641730D01*
X105347145Y-154641730D01*
X104179886Y-153474401D01*
X101042964Y-150337292D01*
X101008942Y-150274980D01*
X101014009Y-150204164D01*
X101056557Y-150147330D01*
X101123078Y-150122521D01*
X101132063Y-150122200D01*
X103347240Y-150122200D01*
X103415361Y-150142202D01*
X103436335Y-150159105D01*
X103464775Y-150187545D01*
X103464780Y-150187549D01*
X103464782Y-150187551D01*
X103464783Y-150187552D01*
X103464785Y-150187553D01*
X103514266Y-150216121D01*
X103592318Y-150261184D01*
X103734567Y-150299300D01*
X103734569Y-150299300D01*
X103881832Y-150299300D01*
X103881833Y-150299300D01*
X103987359Y-150271024D01*
X104058334Y-150272713D01*
X104117130Y-150312506D01*
X104129087Y-150329725D01*
X104129600Y-150330614D01*
X104163052Y-150364066D01*
X104222783Y-150423798D01*
X104336911Y-150489691D01*
X104336913Y-150489691D01*
X104336914Y-150489692D01*
X104361881Y-150496381D01*
X104464205Y-150523800D01*
X118867286Y-150523894D01*
X118874830Y-150524123D01*
X119183261Y-150542780D01*
X119203424Y-150544000D01*
X119203425Y-150544000D01*
X119777576Y-150544000D01*
X119837703Y-150540362D01*
X120350677Y-150509333D01*
X120350685Y-150509332D01*
X120350687Y-150509332D01*
X120572729Y-150482370D01*
X120920640Y-150440127D01*
X121485385Y-150336634D01*
X122042851Y-150199231D01*
X122591004Y-150028420D01*
X123127843Y-149824823D01*
X123651410Y-149589185D01*
X124159795Y-149322364D01*
X124651141Y-149025335D01*
X125123657Y-148699181D01*
X125575618Y-148345092D01*
X126005375Y-147964360D01*
X126411360Y-147558375D01*
X126792092Y-147128618D01*
X127146181Y-146676657D01*
X127472335Y-146204141D01*
X127769364Y-145712795D01*
X128036185Y-145204410D01*
X128271823Y-144680843D01*
X128475420Y-144144004D01*
X128646231Y-143595851D01*
X128783634Y-143038385D01*
X128887127Y-142473640D01*
X128929370Y-142125729D01*
X128956332Y-141903687D01*
X128956332Y-141903685D01*
X128956331Y-141903685D01*
X128956333Y-141903677D01*
X128991000Y-141330575D01*
X128991000Y-140756425D01*
X128989324Y-140728726D01*
X128976340Y-140514066D01*
X128956333Y-140183323D01*
X128887127Y-139613360D01*
X128783634Y-139048615D01*
X128646231Y-138491149D01*
X128475420Y-137942996D01*
X128271823Y-137406157D01*
X128036185Y-136882590D01*
X128026637Y-136864398D01*
X127769365Y-136374206D01*
X127472340Y-135882867D01*
X127472331Y-135882853D01*
X127216281Y-135511900D01*
X127146181Y-135410343D01*
X126792092Y-134958382D01*
X126411360Y-134528625D01*
X126411358Y-134528623D01*
X126411351Y-134528615D01*
X126005384Y-134122648D01*
X125975077Y-134095798D01*
X125575618Y-133741908D01*
X125123657Y-133387819D01*
X125059195Y-133343324D01*
X124651146Y-133061668D01*
X124651132Y-133061659D01*
X124159793Y-132764634D01*
X123651415Y-132497817D01*
X123651413Y-132497816D01*
X123127861Y-132262185D01*
X123127857Y-132262183D01*
X123127843Y-132262177D01*
X123127829Y-132262171D01*
X123127813Y-132262165D01*
X122591005Y-132058580D01*
X122042855Y-131887770D01*
X121815926Y-131831837D01*
X121485385Y-131750366D01*
X121485381Y-131750365D01*
X121485376Y-131750364D01*
X120920636Y-131646872D01*
X120920629Y-131646871D01*
X120350686Y-131577667D01*
X119777576Y-131543000D01*
X119777575Y-131543000D01*
X119687146Y-131543000D01*
X119654547Y-131538710D01*
X119596242Y-131523093D01*
X119596241Y-131523093D01*
X104528462Y-131524500D01*
X104464183Y-131524500D01*
X104398610Y-131542076D01*
X104398602Y-131542078D01*
X104349517Y-131555230D01*
X104349514Y-131555231D01*
X104336914Y-131558608D01*
X104336893Y-131558619D01*
X104336870Y-131558626D01*
X104280699Y-131591063D01*
X104222786Y-131624500D01*
X104222767Y-131624518D01*
X104222749Y-131624529D01*
X104176160Y-131671126D01*
X104129600Y-131717686D01*
X104129589Y-131717704D01*
X104129571Y-131717723D01*
X104123050Y-131729018D01*
X104123047Y-131729022D01*
X104096121Y-131775671D01*
X104096116Y-131775679D01*
X104063697Y-131831831D01*
X104047155Y-131893591D01*
X104047152Y-131893601D01*
X104029597Y-131959118D01*
X104029593Y-131959147D01*
X104029600Y-132025046D01*
X104029600Y-139219400D01*
X104009598Y-139287521D01*
X103955942Y-139334014D01*
X103903600Y-139345400D01*
X101208500Y-139345400D01*
X101140379Y-139325398D01*
X101093886Y-139271742D01*
X101082500Y-139219400D01*
X101082500Y-133110609D01*
X101102502Y-133042488D01*
X101119374Y-133021544D01*
X101124596Y-133016319D01*
X103709979Y-130429140D01*
X104421390Y-129717235D01*
X104483690Y-129683189D01*
X104510516Y-129680300D01*
X129358779Y-129680300D01*
X129358800Y-129680300D01*
X129409918Y-129680328D01*
X129410023Y-129680300D01*
X129410125Y-129680300D01*
X129457956Y-129667483D01*
X129506960Y-129654381D01*
X129507050Y-129654328D01*
X129507154Y-129654301D01*
X129551052Y-129628956D01*
X129593981Y-129604203D01*
X129594054Y-129604129D01*
X129594147Y-129604076D01*
X129612920Y-129585301D01*
X129629834Y-129568389D01*
X129629882Y-129568340D01*
X131108473Y-128091355D01*
X131170804Y-128057364D01*
X131197520Y-128054499D01*
X132484964Y-128054499D01*
X132484966Y-128054499D01*
X132484969Y-128054498D01*
X132484972Y-128054498D01*
X132555485Y-128040473D01*
X132559201Y-128039734D01*
X132643384Y-127983484D01*
X132699634Y-127899301D01*
X132714400Y-127825067D01*
X132714399Y-126174734D01*
X132714398Y-126174731D01*
X132714398Y-126174726D01*
X132699634Y-126100499D01*
X132676344Y-126065643D01*
X132643384Y-126016316D01*
X132643383Y-126016315D01*
X132559202Y-125960066D01*
X132484967Y-125945300D01*
X130834636Y-125945300D01*
X130834626Y-125945301D01*
X130760399Y-125960065D01*
X130676215Y-126016316D01*
X130619966Y-126100497D01*
X130605200Y-126174730D01*
X130605200Y-127463390D01*
X130585198Y-127531511D01*
X130568247Y-127552534D01*
X130389446Y-127731140D01*
X130327115Y-127765131D01*
X130256302Y-127760028D01*
X130199490Y-127717450D01*
X130174715Y-127650916D01*
X130174399Y-127642021D01*
X130174399Y-126174734D01*
X130174398Y-126174731D01*
X130174398Y-126174726D01*
X130159634Y-126100499D01*
X130136344Y-126065643D01*
X130103384Y-126016316D01*
X130103383Y-126016315D01*
X130019202Y-125960066D01*
X129944967Y-125945300D01*
X128294636Y-125945300D01*
X128294626Y-125945301D01*
X128220399Y-125960065D01*
X128136215Y-126016316D01*
X128079966Y-126100497D01*
X128065200Y-126174730D01*
X128065200Y-127825063D01*
X128065201Y-127825073D01*
X128079965Y-127899300D01*
X128136216Y-127983484D01*
X128220397Y-128039733D01*
X128220399Y-128039734D01*
X128294633Y-128054500D01*
X129761312Y-128054499D01*
X129829433Y-128074501D01*
X129875926Y-128128157D01*
X129886030Y-128198431D01*
X129856537Y-128263011D01*
X129850359Y-128269643D01*
X129238895Y-128880444D01*
X129176564Y-128914435D01*
X129149848Y-128917300D01*
X104358698Y-128917300D01*
X104358379Y-128917279D01*
X104298633Y-128917300D01*
X104249906Y-128917300D01*
X104199892Y-128930719D01*
X104199855Y-128930729D01*
X104176008Y-128937119D01*
X104152946Y-128943299D01*
X104152945Y-128943299D01*
X104152928Y-128943304D01*
X104152919Y-128943308D01*
X104152830Y-128943344D01*
X104109310Y-128968491D01*
X104109274Y-128968512D01*
X104065953Y-128993524D01*
X104065951Y-128993525D01*
X104065921Y-128993543D01*
X104065869Y-128993582D01*
X104031319Y-129028157D01*
X103989489Y-129069987D01*
X103989280Y-129070223D01*
X100715579Y-132346199D01*
X100653279Y-132380245D01*
X100582462Y-132375205D01*
X100525611Y-132332678D01*
X100500777Y-132266166D01*
X100500453Y-132257134D01*
X100500452Y-132025047D01*
X100500447Y-129634643D01*
X100500438Y-126174730D01*
X120445200Y-126174730D01*
X120445200Y-127825063D01*
X120445201Y-127825073D01*
X120459965Y-127899300D01*
X120516216Y-127983484D01*
X120600397Y-128039733D01*
X120600399Y-128039734D01*
X120674633Y-128054500D01*
X122324966Y-128054499D01*
X122324969Y-128054498D01*
X122324973Y-128054498D01*
X122395485Y-128040473D01*
X122399201Y-128039734D01*
X122483384Y-127983484D01*
X122539634Y-127899301D01*
X122554400Y-127825067D01*
X122554399Y-126174734D01*
X122554399Y-126174733D01*
X122554399Y-126174731D01*
X122554399Y-126174730D01*
X122985200Y-126174730D01*
X122985200Y-127825063D01*
X122985201Y-127825073D01*
X122999965Y-127899300D01*
X123056216Y-127983484D01*
X123140397Y-128039733D01*
X123140399Y-128039734D01*
X123214633Y-128054500D01*
X124864966Y-128054499D01*
X124864969Y-128054498D01*
X124864973Y-128054498D01*
X124935485Y-128040473D01*
X124939201Y-128039734D01*
X125023384Y-127983484D01*
X125079634Y-127899301D01*
X125094400Y-127825067D01*
X125094399Y-126174734D01*
X125094399Y-126174733D01*
X125094399Y-126174731D01*
X125094399Y-126174730D01*
X125525200Y-126174730D01*
X125525200Y-127825063D01*
X125525201Y-127825073D01*
X125539965Y-127899300D01*
X125596216Y-127983484D01*
X125680397Y-128039733D01*
X125680399Y-128039734D01*
X125754633Y-128054500D01*
X127404966Y-128054499D01*
X127404969Y-128054498D01*
X127404973Y-128054498D01*
X127475485Y-128040473D01*
X127479201Y-128039734D01*
X127563384Y-127983484D01*
X127619634Y-127899301D01*
X127634400Y-127825067D01*
X127634399Y-126174734D01*
X127634398Y-126174731D01*
X127634398Y-126174726D01*
X127619634Y-126100499D01*
X127596344Y-126065643D01*
X127563384Y-126016316D01*
X127563383Y-126016315D01*
X127479202Y-125960066D01*
X127404967Y-125945300D01*
X125754636Y-125945300D01*
X125754626Y-125945301D01*
X125680399Y-125960065D01*
X125596215Y-126016316D01*
X125539966Y-126100497D01*
X125525200Y-126174730D01*
X125094399Y-126174730D01*
X125079634Y-126100499D01*
X125056344Y-126065643D01*
X125023384Y-126016316D01*
X125023383Y-126016315D01*
X124939202Y-125960066D01*
X124864967Y-125945300D01*
X123214636Y-125945300D01*
X123214626Y-125945301D01*
X123140399Y-125960065D01*
X123056215Y-126016316D01*
X122999966Y-126100497D01*
X122985200Y-126174730D01*
X122554399Y-126174730D01*
X122539634Y-126100499D01*
X122516344Y-126065643D01*
X122483384Y-126016316D01*
X122483383Y-126016315D01*
X122399202Y-125960066D01*
X122324967Y-125945300D01*
X120674636Y-125945300D01*
X120674626Y-125945301D01*
X120600399Y-125960065D01*
X120516215Y-126016316D01*
X120459966Y-126100497D01*
X120445200Y-126174730D01*
X100500438Y-126174730D01*
X100500438Y-126168543D01*
X100500422Y-119962130D01*
X113927400Y-119962130D01*
X113927400Y-121536263D01*
X113927401Y-121536273D01*
X113942165Y-121610500D01*
X113998416Y-121694684D01*
X114082597Y-121750933D01*
X114082599Y-121750934D01*
X114156833Y-121765700D01*
X115730966Y-121765699D01*
X115730969Y-121765698D01*
X115730973Y-121765698D01*
X115798589Y-121752249D01*
X115805201Y-121750934D01*
X115889384Y-121694684D01*
X115945634Y-121610501D01*
X115960400Y-121536267D01*
X115960399Y-119962134D01*
X115960398Y-119962130D01*
X115960398Y-119962126D01*
X115945634Y-119887899D01*
X115929387Y-119863584D01*
X115889384Y-119803716D01*
X115889383Y-119803715D01*
X115805202Y-119747466D01*
X115730967Y-119732700D01*
X114156836Y-119732700D01*
X114156826Y-119732701D01*
X114082599Y-119747465D01*
X113998415Y-119803716D01*
X113942166Y-119887897D01*
X113927400Y-119962130D01*
X100500422Y-119962130D01*
X100500422Y-119955943D01*
X100500411Y-115758800D01*
X100520413Y-115690680D01*
X100574068Y-115644187D01*
X100626411Y-115632800D01*
X103164490Y-115632800D01*
X103164491Y-115632800D01*
X103287269Y-115608378D01*
X103402922Y-115560473D01*
X103507008Y-115490925D01*
X106092325Y-112905608D01*
X106161873Y-112801522D01*
X106209778Y-112685869D01*
X106234200Y-112563091D01*
X106234200Y-112437909D01*
X106234200Y-111140861D01*
X107418799Y-111140861D01*
X107418799Y-111249027D01*
X107431308Y-111295703D01*
X107431309Y-111295710D01*
X107444799Y-111346055D01*
X107495021Y-111433043D01*
X107495029Y-111433053D01*
X107573226Y-111511250D01*
X107573238Y-111511260D01*
X112086769Y-116024726D01*
X114495324Y-118433247D01*
X114566353Y-118504276D01*
X114653346Y-118554501D01*
X114653347Y-118554501D01*
X114653349Y-118554502D01*
X114672798Y-118559713D01*
X114672800Y-118559714D01*
X114672801Y-118559714D01*
X114750375Y-118580500D01*
X114750377Y-118580500D01*
X114850827Y-118580500D01*
X115789287Y-118580500D01*
X115857408Y-118600502D01*
X115878382Y-118617405D01*
X116782495Y-119521518D01*
X116816521Y-119583830D01*
X116819400Y-119610613D01*
X116819400Y-120397470D01*
X116819376Y-120448758D01*
X116819397Y-120448915D01*
X116832191Y-120496663D01*
X116832204Y-120496713D01*
X116845332Y-120545793D01*
X116845398Y-120545952D01*
X116845399Y-120545954D01*
X116870830Y-120590003D01*
X116870845Y-120590059D01*
X116870859Y-120590052D01*
X116895520Y-120632812D01*
X116895622Y-120632945D01*
X116895623Y-120632946D01*
X116895624Y-120632947D01*
X116931314Y-120668637D01*
X116931342Y-120668688D01*
X116931354Y-120668677D01*
X119688916Y-123428702D01*
X119689186Y-123429009D01*
X119694723Y-123434546D01*
X119694724Y-123434547D01*
X119730862Y-123470685D01*
X119730891Y-123470737D01*
X119730903Y-123470726D01*
X119765616Y-123505471D01*
X119765692Y-123505529D01*
X119765745Y-123505570D01*
X119765750Y-123505574D01*
X119810163Y-123531216D01*
X119810212Y-123531244D01*
X119852588Y-123555735D01*
X119852589Y-123555735D01*
X119852594Y-123555738D01*
X119852738Y-123555798D01*
X119852743Y-123555799D01*
X119852746Y-123555801D01*
X119883998Y-123564174D01*
X119900938Y-123568714D01*
X119900937Y-123568715D01*
X119900972Y-123568722D01*
X119949604Y-123581778D01*
X119949615Y-123581778D01*
X119949771Y-123581798D01*
X119949775Y-123581800D01*
X119949779Y-123581800D01*
X119998713Y-123581800D01*
X120050055Y-123581823D01*
X120050056Y-123581822D01*
X120058050Y-123581826D01*
X120058462Y-123581800D01*
X133538740Y-123581800D01*
X133606861Y-123601802D01*
X133627835Y-123618705D01*
X133656475Y-123647345D01*
X133656480Y-123647349D01*
X133656482Y-123647351D01*
X133784018Y-123720984D01*
X133926267Y-123759100D01*
X133926269Y-123759100D01*
X134073531Y-123759100D01*
X134073533Y-123759100D01*
X134215782Y-123720984D01*
X134343318Y-123647351D01*
X134447451Y-123543218D01*
X134521084Y-123415682D01*
X134559200Y-123273433D01*
X134559200Y-123126167D01*
X134559199Y-123126166D01*
X134558122Y-123117981D01*
X134561089Y-123117590D01*
X134562433Y-123060971D01*
X134602223Y-123002173D01*
X134667485Y-122974220D01*
X134737500Y-122985988D01*
X134771521Y-123010205D01*
X135380368Y-123618681D01*
X135414412Y-123680982D01*
X135417300Y-123707803D01*
X135417300Y-125951029D01*
X135397298Y-126019150D01*
X135343642Y-126065643D01*
X135273368Y-126075747D01*
X135208788Y-126046253D01*
X135186537Y-126021034D01*
X135183384Y-126016315D01*
X135099202Y-125960066D01*
X135024967Y-125945300D01*
X133374636Y-125945300D01*
X133374626Y-125945301D01*
X133300399Y-125960065D01*
X133216215Y-126016316D01*
X133159966Y-126100497D01*
X133145200Y-126174730D01*
X133145200Y-127825063D01*
X133145201Y-127825073D01*
X133159965Y-127899300D01*
X133216216Y-127983484D01*
X133300397Y-128039733D01*
X133300399Y-128039734D01*
X133374633Y-128054500D01*
X133694838Y-128054499D01*
X133762958Y-128074501D01*
X133809451Y-128128156D01*
X133820838Y-128180367D01*
X133837400Y-143972488D01*
X133837400Y-144022639D01*
X133837450Y-144023014D01*
X133837453Y-144023025D01*
X133850399Y-144071138D01*
X133856474Y-144093812D01*
X133863399Y-144119656D01*
X133863416Y-144119695D01*
X133863550Y-144120019D01*
X133863553Y-144120025D01*
X133863554Y-144120026D01*
X133879425Y-144147451D01*
X133888459Y-144163060D01*
X133888493Y-144163190D01*
X133888524Y-144163173D01*
X133913624Y-144206647D01*
X133913626Y-144206649D01*
X133913707Y-144206755D01*
X133913867Y-144206964D01*
X133949182Y-144242205D01*
X133949178Y-144242208D01*
X133949275Y-144242298D01*
X140560395Y-150853418D01*
X140594421Y-150915730D01*
X140597300Y-150942513D01*
X140597300Y-151928863D01*
X140597301Y-151928873D01*
X140612065Y-152003100D01*
X140668316Y-152087284D01*
X140752497Y-152143533D01*
X140752499Y-152143534D01*
X140826733Y-152158300D01*
X142176866Y-152158299D01*
X142176869Y-152158298D01*
X142176873Y-152158298D01*
X142226126Y-152148501D01*
X142251101Y-152143534D01*
X142335284Y-152087284D01*
X142391534Y-152003101D01*
X142406300Y-151928867D01*
X142406299Y-150728730D01*
X142747300Y-150728730D01*
X142747300Y-151778863D01*
X142747301Y-151778873D01*
X142762065Y-151853100D01*
X142818316Y-151937284D01*
X142902497Y-151993533D01*
X142902499Y-151993534D01*
X142976733Y-152008300D01*
X144026866Y-152008299D01*
X144026869Y-152008298D01*
X144026873Y-152008298D01*
X144076126Y-151998501D01*
X144101101Y-151993534D01*
X144185284Y-151937284D01*
X144241534Y-151853101D01*
X144256300Y-151778867D01*
X144256300Y-151774830D01*
X164045600Y-151774830D01*
X164045600Y-153224963D01*
X164045601Y-153224973D01*
X164060365Y-153299200D01*
X164116616Y-153383384D01*
X164200797Y-153439633D01*
X164200799Y-153439634D01*
X164275033Y-153454400D01*
X164566801Y-153454399D01*
X164634920Y-153474401D01*
X164681413Y-153528056D01*
X164692800Y-153580399D01*
X164692800Y-154286300D01*
X164672798Y-154354421D01*
X164619142Y-154400914D01*
X164566800Y-154412300D01*
X164287236Y-154412300D01*
X164287226Y-154412301D01*
X164212999Y-154427065D01*
X164128815Y-154483316D01*
X164072566Y-154567497D01*
X164057800Y-154641730D01*
X164057800Y-156215863D01*
X164057801Y-156215873D01*
X164072565Y-156290100D01*
X164128816Y-156374284D01*
X164212997Y-156430533D01*
X164212999Y-156430534D01*
X164287233Y-156445300D01*
X165861366Y-156445299D01*
X165861369Y-156445298D01*
X165861373Y-156445298D01*
X165910626Y-156435501D01*
X165935601Y-156430534D01*
X166019784Y-156374284D01*
X166076034Y-156290101D01*
X166090800Y-156215867D01*
X166090799Y-154641734D01*
X166090799Y-154641732D01*
X166090798Y-154641726D01*
X166076034Y-154567499D01*
X166019783Y-154483315D01*
X165935602Y-154427066D01*
X165861369Y-154412300D01*
X165861367Y-154412300D01*
X165581800Y-154412300D01*
X165513679Y-154392298D01*
X165467186Y-154338642D01*
X165455800Y-154286300D01*
X165455800Y-153580399D01*
X165475802Y-153512278D01*
X165529458Y-153465785D01*
X165581800Y-153454399D01*
X165725164Y-153454399D01*
X165725166Y-153454399D01*
X165725169Y-153454398D01*
X165725172Y-153454398D01*
X165761763Y-153447119D01*
X165799401Y-153439634D01*
X165883584Y-153383384D01*
X165939834Y-153299201D01*
X165954600Y-153224967D01*
X165954599Y-151774834D01*
X165954598Y-151774830D01*
X165954598Y-151774826D01*
X165939834Y-151700599D01*
X165923158Y-151675642D01*
X165883584Y-151616416D01*
X165883583Y-151616415D01*
X165799402Y-151560166D01*
X165725167Y-151545400D01*
X164275036Y-151545400D01*
X164275026Y-151545401D01*
X164200799Y-151560165D01*
X164116615Y-151616416D01*
X164060366Y-151700597D01*
X164045600Y-151774830D01*
X144256300Y-151774830D01*
X144256299Y-150728734D01*
X144256298Y-150728730D01*
X144256298Y-150728726D01*
X144241534Y-150654499D01*
X144241533Y-150654497D01*
X144185284Y-150570316D01*
X144168500Y-150559101D01*
X144101102Y-150514066D01*
X144026867Y-150499300D01*
X142976736Y-150499300D01*
X142976726Y-150499301D01*
X142902499Y-150514065D01*
X142818315Y-150570316D01*
X142762066Y-150654497D01*
X142747300Y-150728730D01*
X142406299Y-150728730D01*
X142406299Y-150578734D01*
X142406298Y-150578731D01*
X142406298Y-150578726D01*
X142391534Y-150504499D01*
X142348521Y-150440127D01*
X142335284Y-150420316D01*
X142335283Y-150420315D01*
X142242867Y-150358563D01*
X142197340Y-150304086D01*
X142188493Y-150233643D01*
X142219134Y-150169599D01*
X142242868Y-150149034D01*
X142251098Y-150143534D01*
X142251101Y-150143534D01*
X142335284Y-150087284D01*
X142391534Y-150003101D01*
X142406300Y-149928867D01*
X142406299Y-148728730D01*
X142747300Y-148728730D01*
X142747300Y-149778863D01*
X142747301Y-149778873D01*
X142762065Y-149853100D01*
X142818316Y-149937284D01*
X142902497Y-149993533D01*
X142902499Y-149993534D01*
X142976733Y-150008300D01*
X144026866Y-150008299D01*
X144026869Y-150008298D01*
X144026873Y-150008298D01*
X144076126Y-149998501D01*
X144101101Y-149993534D01*
X144185284Y-149937284D01*
X144241534Y-149853101D01*
X144256300Y-149778867D01*
X144256299Y-148728734D01*
X144256298Y-148728730D01*
X144256298Y-148728726D01*
X144241534Y-148654499D01*
X144185283Y-148570315D01*
X144101102Y-148514066D01*
X144026867Y-148499300D01*
X142976736Y-148499300D01*
X142976726Y-148499301D01*
X142902499Y-148514065D01*
X142818315Y-148570316D01*
X142762066Y-148654497D01*
X142747300Y-148728730D01*
X142406299Y-148728730D01*
X142406299Y-148578734D01*
X142406298Y-148578731D01*
X142406298Y-148578726D01*
X142391534Y-148504499D01*
X142335283Y-148420315D01*
X142242867Y-148358563D01*
X142197340Y-148304086D01*
X142188493Y-148233643D01*
X142219134Y-148169599D01*
X142242868Y-148149034D01*
X142251098Y-148143534D01*
X142251101Y-148143534D01*
X142335284Y-148087284D01*
X142391534Y-148003101D01*
X142406300Y-147928867D01*
X142406299Y-146728730D01*
X142747600Y-146728730D01*
X142747600Y-147778863D01*
X142747601Y-147778873D01*
X142762365Y-147853100D01*
X142818616Y-147937284D01*
X142902797Y-147993533D01*
X142902799Y-147993534D01*
X142977033Y-148008300D01*
X144027166Y-148008299D01*
X144027169Y-148008298D01*
X144027173Y-148008298D01*
X144076426Y-147998501D01*
X144101401Y-147993534D01*
X144185584Y-147937284D01*
X144241834Y-147853101D01*
X144256600Y-147778867D01*
X144256599Y-146728734D01*
X144256598Y-146728730D01*
X144256598Y-146728726D01*
X144241834Y-146654499D01*
X144185583Y-146570315D01*
X144101402Y-146514066D01*
X144027167Y-146499300D01*
X142977036Y-146499300D01*
X142977026Y-146499301D01*
X142902799Y-146514065D01*
X142818615Y-146570316D01*
X142762366Y-146654497D01*
X142747600Y-146728730D01*
X142406299Y-146728730D01*
X142406299Y-146578734D01*
X142406298Y-146578730D01*
X142406298Y-146578726D01*
X142391534Y-146504499D01*
X142388060Y-146499300D01*
X142335284Y-146420316D01*
X142335283Y-146420315D01*
X142251102Y-146364066D01*
X142176867Y-146349300D01*
X140826736Y-146349300D01*
X140826726Y-146349301D01*
X140752499Y-146364065D01*
X140668315Y-146420316D01*
X140612066Y-146504497D01*
X140597300Y-146578730D01*
X140597300Y-147505587D01*
X140577298Y-147573708D01*
X140523642Y-147620201D01*
X140453368Y-147630305D01*
X140388788Y-147600811D01*
X140382205Y-147594682D01*
X137516253Y-144728730D01*
X140747300Y-144728730D01*
X140747300Y-145778863D01*
X140747301Y-145778873D01*
X140762065Y-145853100D01*
X140818316Y-145937284D01*
X140902497Y-145993533D01*
X140902499Y-145993534D01*
X140976733Y-146008300D01*
X142026866Y-146008299D01*
X142026869Y-146008298D01*
X142026873Y-146008298D01*
X142080985Y-145997535D01*
X142101101Y-145993534D01*
X142185284Y-145937284D01*
X142241534Y-145853101D01*
X142256300Y-145778867D01*
X142256299Y-144728734D01*
X142256299Y-144728733D01*
X142256299Y-144728731D01*
X142256299Y-144728730D01*
X142747600Y-144728730D01*
X142747600Y-145778863D01*
X142747601Y-145778873D01*
X142762365Y-145853100D01*
X142818616Y-145937284D01*
X142902797Y-145993533D01*
X142902799Y-145993534D01*
X142977033Y-146008300D01*
X144027166Y-146008299D01*
X144027169Y-146008298D01*
X144027173Y-146008298D01*
X144081285Y-145997535D01*
X144101401Y-145993534D01*
X144185584Y-145937284D01*
X144241834Y-145853101D01*
X144256600Y-145778867D01*
X144256599Y-144728734D01*
X144256598Y-144728731D01*
X144256598Y-144728726D01*
X144241834Y-144654499D01*
X144238909Y-144650121D01*
X144185584Y-144570316D01*
X144185583Y-144570315D01*
X144101402Y-144514066D01*
X144027167Y-144499300D01*
X142977036Y-144499300D01*
X142977026Y-144499301D01*
X142902799Y-144514065D01*
X142818615Y-144570316D01*
X142762366Y-144654497D01*
X142747600Y-144728730D01*
X142256299Y-144728730D01*
X142241534Y-144654499D01*
X142238609Y-144650121D01*
X142185284Y-144570316D01*
X142185283Y-144570315D01*
X142101102Y-144514066D01*
X142026867Y-144499300D01*
X140976736Y-144499300D01*
X140976726Y-144499301D01*
X140902499Y-144514065D01*
X140818315Y-144570316D01*
X140762066Y-144654497D01*
X140747300Y-144728730D01*
X137516253Y-144728730D01*
X136217205Y-143429682D01*
X136183179Y-143367370D01*
X136180300Y-143340587D01*
X136180300Y-142728730D01*
X140747300Y-142728730D01*
X140747300Y-142728734D01*
X140747301Y-143778862D01*
X140747301Y-143778873D01*
X140762065Y-143853100D01*
X140818316Y-143937284D01*
X140902497Y-143993533D01*
X140902499Y-143993534D01*
X140976733Y-144008300D01*
X142026866Y-144008299D01*
X142026869Y-144008298D01*
X142026873Y-144008298D01*
X142076126Y-143998501D01*
X142101101Y-143993534D01*
X142185284Y-143937284D01*
X142241534Y-143853101D01*
X142256300Y-143778867D01*
X142256299Y-142728734D01*
X142256299Y-142728733D01*
X142256299Y-142728731D01*
X142256299Y-142728730D01*
X142747600Y-142728730D01*
X142747600Y-142728734D01*
X142747601Y-143778862D01*
X142747601Y-143778873D01*
X142762365Y-143853100D01*
X142818616Y-143937284D01*
X142902797Y-143993533D01*
X142902799Y-143993534D01*
X142977033Y-144008300D01*
X144027166Y-144008299D01*
X144027169Y-144008298D01*
X144027173Y-144008298D01*
X144076426Y-143998501D01*
X144101401Y-143993534D01*
X144185584Y-143937284D01*
X144241834Y-143853101D01*
X144256600Y-143778867D01*
X144256599Y-142728734D01*
X144256598Y-142728731D01*
X144256598Y-142728726D01*
X144241834Y-142654499D01*
X144185583Y-142570315D01*
X144101402Y-142514066D01*
X144027167Y-142499300D01*
X142977036Y-142499300D01*
X142977026Y-142499301D01*
X142902799Y-142514065D01*
X142818615Y-142570316D01*
X142762366Y-142654497D01*
X142747600Y-142728730D01*
X142256299Y-142728730D01*
X142241534Y-142654499D01*
X142185283Y-142570315D01*
X142101102Y-142514066D01*
X142026867Y-142499300D01*
X140976736Y-142499300D01*
X140976726Y-142499301D01*
X140902499Y-142514065D01*
X140818315Y-142570316D01*
X140762066Y-142654497D01*
X140747300Y-142728730D01*
X136180300Y-142728730D01*
X136180300Y-140728730D01*
X140747300Y-140728730D01*
X140747300Y-141778863D01*
X140747301Y-141778873D01*
X140762065Y-141853100D01*
X140818316Y-141937284D01*
X140902497Y-141993533D01*
X140902499Y-141993534D01*
X140976733Y-142008300D01*
X142026866Y-142008299D01*
X142026869Y-142008298D01*
X142026873Y-142008298D01*
X142076126Y-141998501D01*
X142101101Y-141993534D01*
X142185284Y-141937284D01*
X142241534Y-141853101D01*
X142256300Y-141778867D01*
X142256299Y-140728734D01*
X142256299Y-140728733D01*
X142256299Y-140728731D01*
X142256299Y-140728730D01*
X142747600Y-140728730D01*
X142747600Y-141778863D01*
X142747601Y-141778873D01*
X142762365Y-141853100D01*
X142818616Y-141937284D01*
X142902797Y-141993533D01*
X142902799Y-141993534D01*
X142977033Y-142008300D01*
X144027166Y-142008299D01*
X144027169Y-142008298D01*
X144027173Y-142008298D01*
X144076426Y-141998501D01*
X144101401Y-141993534D01*
X144185584Y-141937284D01*
X144241834Y-141853101D01*
X144256600Y-141778867D01*
X144256599Y-140733908D01*
X151149300Y-140733908D01*
X151149300Y-149733908D01*
X151149300Y-149865692D01*
X151166228Y-149928867D01*
X151183407Y-149992983D01*
X151183410Y-149992990D01*
X151249297Y-150107110D01*
X151249305Y-150107120D01*
X151342479Y-150200294D01*
X151342484Y-150200298D01*
X151342486Y-150200300D01*
X151342487Y-150200301D01*
X151342489Y-150200302D01*
X151412771Y-150240879D01*
X151456614Y-150266192D01*
X151583908Y-150300300D01*
X151583910Y-150300300D01*
X165715690Y-150300300D01*
X165715692Y-150300300D01*
X165842986Y-150266192D01*
X165957114Y-150200300D01*
X166050300Y-150107114D01*
X166116192Y-149992986D01*
X166150300Y-149865692D01*
X166150300Y-140733908D01*
X166116192Y-140606614D01*
X166071021Y-140528375D01*
X166050302Y-140492489D01*
X166050294Y-140492479D01*
X165957120Y-140399305D01*
X165957110Y-140399297D01*
X165842990Y-140333410D01*
X165842987Y-140333409D01*
X165842986Y-140333408D01*
X165842984Y-140333407D01*
X165842983Y-140333407D01*
X165808873Y-140324267D01*
X165715692Y-140299300D01*
X151715692Y-140299300D01*
X151583908Y-140299300D01*
X151515694Y-140317577D01*
X151456616Y-140333407D01*
X151456609Y-140333410D01*
X151342489Y-140399297D01*
X151342479Y-140399305D01*
X151249305Y-140492479D01*
X151249297Y-140492489D01*
X151183410Y-140606609D01*
X151183407Y-140606616D01*
X151170578Y-140654497D01*
X151149300Y-140733908D01*
X144256599Y-140733908D01*
X144256599Y-140728734D01*
X144256598Y-140728731D01*
X144256598Y-140728726D01*
X144241834Y-140654499D01*
X144224486Y-140628536D01*
X144185584Y-140570316D01*
X144185583Y-140570315D01*
X144101402Y-140514066D01*
X144027167Y-140499300D01*
X142977036Y-140499300D01*
X142977026Y-140499301D01*
X142902799Y-140514065D01*
X142818615Y-140570316D01*
X142762366Y-140654497D01*
X142747600Y-140728730D01*
X142256299Y-140728730D01*
X142241534Y-140654499D01*
X142224186Y-140628536D01*
X142185284Y-140570316D01*
X142185283Y-140570315D01*
X142101102Y-140514066D01*
X142026867Y-140499300D01*
X140976736Y-140499300D01*
X140976726Y-140499301D01*
X140902499Y-140514065D01*
X140818315Y-140570316D01*
X140762066Y-140654497D01*
X140747300Y-140728730D01*
X136180300Y-140728730D01*
X136180300Y-138728530D01*
X142747300Y-138728530D01*
X142747300Y-139778663D01*
X142747301Y-139778673D01*
X142762065Y-139852900D01*
X142818316Y-139937084D01*
X142902497Y-139993333D01*
X142902499Y-139993334D01*
X142976733Y-140008100D01*
X144026866Y-140008099D01*
X144026869Y-140008098D01*
X144026873Y-140008098D01*
X144076126Y-139998301D01*
X144101101Y-139993334D01*
X144185284Y-139937084D01*
X144241534Y-139852901D01*
X144256300Y-139778667D01*
X144256299Y-138728534D01*
X144256298Y-138728530D01*
X144256298Y-138728526D01*
X144241534Y-138654299D01*
X144185283Y-138570115D01*
X144101102Y-138513866D01*
X144026867Y-138499100D01*
X142976736Y-138499100D01*
X142976726Y-138499101D01*
X142902499Y-138513865D01*
X142818315Y-138570116D01*
X142762066Y-138654297D01*
X142747300Y-138728530D01*
X136180300Y-138728530D01*
X136180300Y-136578730D01*
X140597300Y-136578730D01*
X140597300Y-137928863D01*
X140597301Y-137928873D01*
X140612065Y-138003100D01*
X140668316Y-138087284D01*
X140752497Y-138143533D01*
X140752499Y-138143534D01*
X140826733Y-138158300D01*
X142176866Y-138158299D01*
X142176869Y-138158298D01*
X142176873Y-138158298D01*
X142226126Y-138148501D01*
X142251101Y-138143534D01*
X142335284Y-138087284D01*
X142391534Y-138003101D01*
X142406300Y-137928867D01*
X142406299Y-136728730D01*
X142747300Y-136728730D01*
X142747300Y-137778863D01*
X142747301Y-137778873D01*
X142762065Y-137853100D01*
X142818316Y-137937284D01*
X142902497Y-137993533D01*
X142902499Y-137993534D01*
X142976733Y-138008300D01*
X144026866Y-138008299D01*
X144026869Y-138008298D01*
X144026873Y-138008298D01*
X144076126Y-137998501D01*
X144101101Y-137993534D01*
X144185284Y-137937284D01*
X144241534Y-137853101D01*
X144256300Y-137778867D01*
X144256299Y-136728734D01*
X144256298Y-136728730D01*
X144256298Y-136728726D01*
X144241534Y-136654499D01*
X144190903Y-136578726D01*
X144185284Y-136570316D01*
X144184346Y-136569689D01*
X144101102Y-136514066D01*
X144026867Y-136499300D01*
X142976736Y-136499300D01*
X142976726Y-136499301D01*
X142902499Y-136514065D01*
X142818315Y-136570316D01*
X142762066Y-136654497D01*
X142747300Y-136728730D01*
X142406299Y-136728730D01*
X142406299Y-136578734D01*
X142406298Y-136578730D01*
X142406298Y-136578726D01*
X142391534Y-136504499D01*
X142388060Y-136499300D01*
X142335284Y-136420316D01*
X142332267Y-136418300D01*
X142251102Y-136364066D01*
X142176867Y-136349300D01*
X140826736Y-136349300D01*
X140826726Y-136349301D01*
X140752499Y-136364065D01*
X140668315Y-136420316D01*
X140612066Y-136504497D01*
X140597300Y-136578730D01*
X136180300Y-136578730D01*
X136180300Y-133073531D01*
X142440599Y-133073531D01*
X142478716Y-133215782D01*
X142552346Y-133343314D01*
X142552354Y-133343324D01*
X142656475Y-133447445D01*
X142656480Y-133447449D01*
X142656482Y-133447451D01*
X142784018Y-133521084D01*
X142926267Y-133559200D01*
X142967587Y-133559200D01*
X143035708Y-133579202D01*
X143056682Y-133596105D01*
X147494624Y-138034047D01*
X147565653Y-138105076D01*
X147565654Y-138105077D01*
X147565656Y-138105078D01*
X147652641Y-138155299D01*
X147652643Y-138155299D01*
X147652646Y-138155301D01*
X147749675Y-138181300D01*
X155243048Y-138181300D01*
X155243049Y-138181300D01*
X155310016Y-138181302D01*
X155310019Y-138181300D01*
X155310026Y-138181301D01*
X155310069Y-138181295D01*
X155310973Y-138181046D01*
X155333068Y-138175125D01*
X155333069Y-138175124D01*
X155333071Y-138175124D01*
X155401201Y-138156870D01*
X155406266Y-138155772D01*
X155406842Y-138155592D01*
X155409855Y-138153992D01*
X155413582Y-138151532D01*
X155455933Y-138127080D01*
X155455949Y-138127071D01*
X155486243Y-138109582D01*
X155489913Y-138107800D01*
X155490897Y-138107152D01*
X155494120Y-138105161D01*
X155496891Y-138102552D01*
X155497682Y-138101850D01*
X155500356Y-138098766D01*
X155542509Y-138056614D01*
X156697879Y-136901300D01*
X156760192Y-136867278D01*
X156786972Y-136864399D01*
X158074864Y-136864399D01*
X158074866Y-136864399D01*
X158074869Y-136864398D01*
X158074872Y-136864398D01*
X158111463Y-136857119D01*
X158149101Y-136849634D01*
X158233284Y-136793384D01*
X158289534Y-136709201D01*
X158304300Y-136634967D01*
X158304299Y-134984834D01*
X158304299Y-134984833D01*
X158304299Y-134984831D01*
X158304299Y-134984830D01*
X158735300Y-134984830D01*
X158735300Y-136634963D01*
X158735301Y-136634973D01*
X158750065Y-136709200D01*
X158806316Y-136793384D01*
X158890497Y-136849633D01*
X158890499Y-136849634D01*
X158964733Y-136864400D01*
X160252586Y-136864399D01*
X160320707Y-136884401D01*
X160341681Y-136901304D01*
X163145546Y-139705170D01*
X163145551Y-139705174D01*
X163145553Y-139705176D01*
X163232547Y-139755402D01*
X163329575Y-139781401D01*
X163329577Y-139781401D01*
X163437743Y-139781401D01*
X163437759Y-139781400D01*
X166389590Y-139781400D01*
X166457711Y-139801402D01*
X166478683Y-139818302D01*
X171381495Y-144721020D01*
X171415520Y-144783331D01*
X171418400Y-144810115D01*
X171418400Y-152399792D01*
X171418399Y-152450017D01*
X171418400Y-152450020D01*
X171418400Y-152450025D01*
X171429280Y-152490631D01*
X171444395Y-152547045D01*
X171444397Y-152547050D01*
X171444399Y-152547054D01*
X171461881Y-152577334D01*
X171494619Y-152634040D01*
X171494621Y-152634042D01*
X171494624Y-152634047D01*
X171541629Y-152681052D01*
X173839158Y-154978679D01*
X173839171Y-154978694D01*
X173844623Y-154984146D01*
X173844624Y-154984147D01*
X173892141Y-155031664D01*
X173915787Y-155055311D01*
X173916096Y-155055541D01*
X173918876Y-155057037D01*
X173949655Y-155074806D01*
X173960186Y-155080887D01*
X173960187Y-155080887D01*
X173988281Y-155097108D01*
X174002668Y-155105415D01*
X174003561Y-155105646D01*
X174017649Y-155109421D01*
X174085342Y-155127561D01*
X174099663Y-155131399D01*
X174099666Y-155131400D01*
X174099667Y-155131400D01*
X174200117Y-155131402D01*
X174200120Y-155131400D01*
X174208881Y-155131401D01*
X174208910Y-155131400D01*
X177669401Y-155131400D01*
X177737522Y-155151402D01*
X177784015Y-155205058D01*
X177795401Y-155257400D01*
X177795401Y-155474972D01*
X177810165Y-155549200D01*
X177866416Y-155633384D01*
X177950597Y-155689633D01*
X177950599Y-155689634D01*
X178024833Y-155704400D01*
X179474966Y-155704399D01*
X179474969Y-155704398D01*
X179474973Y-155704398D01*
X179524226Y-155694601D01*
X179549201Y-155689634D01*
X179633384Y-155633384D01*
X179689634Y-155549201D01*
X179704400Y-155474967D01*
X179704400Y-155257400D01*
X179724402Y-155189279D01*
X179778058Y-155142786D01*
X179830400Y-155131400D01*
X187355777Y-155131400D01*
X187355781Y-155131401D01*
X187456231Y-155131400D01*
X187517736Y-155114917D01*
X187517744Y-155114917D01*
X187517744Y-155114915D01*
X187553254Y-155105401D01*
X187553257Y-155105399D01*
X187553258Y-155105399D01*
X187559183Y-155101977D01*
X187567619Y-155097108D01*
X187567620Y-155097106D01*
X187595516Y-155081001D01*
X187629209Y-155061548D01*
X187631871Y-155060351D01*
X187638609Y-155056187D01*
X187640280Y-155055188D01*
X187641745Y-155053770D01*
X187647122Y-155048729D01*
X187649068Y-155046355D01*
X187671758Y-155023665D01*
X187671758Y-155023664D01*
X187671759Y-155023663D01*
X187711276Y-154984147D01*
X187711276Y-154984145D01*
X187721641Y-154973781D01*
X187721644Y-154973775D01*
X190066341Y-152629004D01*
X190128653Y-152594979D01*
X190155438Y-152592099D01*
X191367264Y-152592099D01*
X191367266Y-152592099D01*
X191367269Y-152592098D01*
X191367272Y-152592098D01*
X191403863Y-152584819D01*
X191441501Y-152577334D01*
X191525684Y-152521084D01*
X191581934Y-152436901D01*
X191596700Y-152362667D01*
X191596699Y-150788534D01*
X191596698Y-150788530D01*
X191596698Y-150788526D01*
X191581934Y-150714299D01*
X191525683Y-150630115D01*
X191441502Y-150573866D01*
X191367267Y-150559100D01*
X189793136Y-150559100D01*
X189793126Y-150559101D01*
X189718899Y-150573865D01*
X189634715Y-150630116D01*
X189578466Y-150714297D01*
X189563700Y-150788530D01*
X189563700Y-152000410D01*
X189543698Y-152068531D01*
X189526797Y-152089504D01*
X188971127Y-152645192D01*
X187330072Y-154286300D01*
X187284879Y-154331494D01*
X187222567Y-154365520D01*
X187195782Y-154368400D01*
X179830399Y-154368400D01*
X179762278Y-154348398D01*
X179715785Y-154294742D01*
X179704399Y-154242400D01*
X179704399Y-154024836D01*
X179704398Y-154024827D01*
X179689634Y-153950599D01*
X179633383Y-153866415D01*
X179549202Y-153810166D01*
X179474967Y-153795400D01*
X178024836Y-153795400D01*
X178024826Y-153795401D01*
X177950599Y-153810165D01*
X177866415Y-153866416D01*
X177810166Y-153950597D01*
X177795400Y-154024830D01*
X177795400Y-154242400D01*
X177775398Y-154310521D01*
X177721742Y-154357014D01*
X177669400Y-154368400D01*
X174360120Y-154368400D01*
X174291999Y-154348398D01*
X174271023Y-154331494D01*
X172218303Y-152278686D01*
X172184279Y-152216373D01*
X172181400Y-152189592D01*
X172181400Y-144650124D01*
X172181401Y-144650121D01*
X172181400Y-144549671D01*
X172155400Y-144452644D01*
X172149938Y-144443184D01*
X172105176Y-144365653D01*
X172105173Y-144365650D01*
X172105170Y-144365646D01*
X172026979Y-144287455D01*
X172026957Y-144287436D01*
X166886236Y-139146813D01*
X166886233Y-139146810D01*
X166834047Y-139094624D01*
X166834046Y-139094623D01*
X166834043Y-139094621D01*
X166747052Y-139044397D01*
X166688832Y-139028798D01*
X166650021Y-139018399D01*
X166650019Y-139018399D01*
X166549571Y-139018400D01*
X163590013Y-139018400D01*
X163521892Y-138998398D01*
X163500918Y-138981495D01*
X162703331Y-138183908D01*
X173499300Y-138183908D01*
X173499300Y-152183908D01*
X173499300Y-152315692D01*
X173521834Y-152399792D01*
X173533407Y-152442983D01*
X173533410Y-152442990D01*
X173599297Y-152557110D01*
X173599305Y-152557120D01*
X173692479Y-152650294D01*
X173692484Y-152650298D01*
X173692486Y-152650300D01*
X173806614Y-152716192D01*
X173933908Y-152750300D01*
X173933910Y-152750300D01*
X183065690Y-152750300D01*
X183065692Y-152750300D01*
X183192986Y-152716192D01*
X183307114Y-152650300D01*
X183400300Y-152557114D01*
X183466192Y-152442986D01*
X183500300Y-152315692D01*
X183500300Y-140628530D01*
X189563700Y-140628530D01*
X189563700Y-142202663D01*
X189563701Y-142202673D01*
X189578465Y-142276900D01*
X189634716Y-142361084D01*
X189718897Y-142417333D01*
X189718899Y-142417334D01*
X189793133Y-142432100D01*
X191367266Y-142432099D01*
X191367269Y-142432098D01*
X191367273Y-142432098D01*
X191416526Y-142422301D01*
X191441501Y-142417334D01*
X191525684Y-142361084D01*
X191581934Y-142276901D01*
X191596700Y-142202667D01*
X191596699Y-140628534D01*
X191596698Y-140628530D01*
X191596698Y-140628526D01*
X191581934Y-140554299D01*
X191540631Y-140492486D01*
X191525684Y-140470116D01*
X191525683Y-140470115D01*
X191441502Y-140413866D01*
X191367267Y-140399100D01*
X189793136Y-140399100D01*
X189793126Y-140399101D01*
X189718899Y-140413865D01*
X189634715Y-140470116D01*
X189578466Y-140554297D01*
X189563700Y-140628530D01*
X183500300Y-140628530D01*
X183500300Y-138183908D01*
X183466192Y-138056614D01*
X183429772Y-137993533D01*
X183400302Y-137942489D01*
X183400294Y-137942479D01*
X183307120Y-137849305D01*
X183307110Y-137849297D01*
X183192990Y-137783410D01*
X183192987Y-137783409D01*
X183192986Y-137783408D01*
X183192984Y-137783407D01*
X183192983Y-137783407D01*
X183158873Y-137774267D01*
X183065692Y-137749300D01*
X174065692Y-137749300D01*
X173933908Y-137749300D01*
X173865694Y-137767577D01*
X173806616Y-137783407D01*
X173806609Y-137783410D01*
X173692489Y-137849297D01*
X173692479Y-137849305D01*
X173599305Y-137942479D01*
X173599297Y-137942489D01*
X173533410Y-138056609D01*
X173533409Y-138056611D01*
X173533408Y-138056614D01*
X173499300Y-138183908D01*
X162703331Y-138183908D01*
X161598917Y-137079494D01*
X161564891Y-137017182D01*
X161569956Y-136946367D01*
X161612503Y-136889531D01*
X161679023Y-136864720D01*
X161687987Y-136864399D01*
X163154866Y-136864399D01*
X163154869Y-136864398D01*
X163154873Y-136864398D01*
X163204126Y-136854601D01*
X163229101Y-136849634D01*
X163313284Y-136793384D01*
X163369534Y-136709201D01*
X163384300Y-136634967D01*
X163384299Y-134984834D01*
X163384299Y-134984833D01*
X163384299Y-134984831D01*
X163384299Y-134984830D01*
X163815300Y-134984830D01*
X163815300Y-136634963D01*
X163815301Y-136634973D01*
X163830065Y-136709200D01*
X163886316Y-136793384D01*
X163970497Y-136849633D01*
X163970499Y-136849634D01*
X164044733Y-136864400D01*
X165694866Y-136864399D01*
X165694869Y-136864398D01*
X165694873Y-136864398D01*
X165744126Y-136854601D01*
X165769101Y-136849634D01*
X165853284Y-136793384D01*
X165909534Y-136709201D01*
X165924300Y-136634967D01*
X165924299Y-134984834D01*
X165924299Y-134984833D01*
X165924299Y-134984831D01*
X165924299Y-134984830D01*
X166355300Y-134984830D01*
X166355300Y-136634963D01*
X166355301Y-136634973D01*
X166370065Y-136709200D01*
X166426316Y-136793384D01*
X166510497Y-136849633D01*
X166510499Y-136849634D01*
X166584733Y-136864400D01*
X168234866Y-136864399D01*
X168234869Y-136864398D01*
X168234873Y-136864398D01*
X168284126Y-136854601D01*
X168309101Y-136849634D01*
X168393284Y-136793384D01*
X168449534Y-136709201D01*
X168464300Y-136634967D01*
X168464299Y-134984834D01*
X168464299Y-134984833D01*
X168464299Y-134984831D01*
X168464299Y-134984830D01*
X168895300Y-134984830D01*
X168895300Y-136634963D01*
X168895301Y-136634973D01*
X168910065Y-136709200D01*
X168966316Y-136793384D01*
X169050497Y-136849633D01*
X169050499Y-136849634D01*
X169124733Y-136864400D01*
X170774866Y-136864399D01*
X170774869Y-136864398D01*
X170774873Y-136864398D01*
X170824126Y-136854601D01*
X170849101Y-136849634D01*
X170933284Y-136793384D01*
X170989534Y-136709201D01*
X171004300Y-136634967D01*
X171004299Y-134984834D01*
X171004299Y-134984833D01*
X171004299Y-134984831D01*
X171004299Y-134984830D01*
X171435300Y-134984830D01*
X171435300Y-136634963D01*
X171435301Y-136634973D01*
X171450065Y-136709200D01*
X171506316Y-136793384D01*
X171590497Y-136849633D01*
X171590499Y-136849634D01*
X171664733Y-136864400D01*
X173314866Y-136864399D01*
X173314869Y-136864398D01*
X173314873Y-136864398D01*
X173364126Y-136854601D01*
X173389101Y-136849634D01*
X173473284Y-136793384D01*
X173529534Y-136709201D01*
X173544300Y-136634967D01*
X173544299Y-135274730D01*
X177795400Y-135274730D01*
X177795400Y-136724863D01*
X177795401Y-136724873D01*
X177810165Y-136799100D01*
X177866416Y-136883284D01*
X177950597Y-136939533D01*
X177950599Y-136939534D01*
X178024833Y-136954300D01*
X179474966Y-136954299D01*
X179474969Y-136954298D01*
X179474973Y-136954298D01*
X179524226Y-136944501D01*
X179549201Y-136939534D01*
X179633384Y-136883284D01*
X179689634Y-136799101D01*
X179704400Y-136724867D01*
X179704399Y-135274734D01*
X179704398Y-135274730D01*
X179704398Y-135274726D01*
X179689634Y-135200499D01*
X179633383Y-135116315D01*
X179549202Y-135060066D01*
X179474969Y-135045300D01*
X179474967Y-135045300D01*
X179257400Y-135045300D01*
X179189279Y-135025298D01*
X179142786Y-134971642D01*
X179131400Y-134919300D01*
X179131400Y-134221799D01*
X179151402Y-134153678D01*
X179205058Y-134107185D01*
X179257400Y-134095799D01*
X180219964Y-134095799D01*
X180219966Y-134095799D01*
X180219969Y-134095798D01*
X180219972Y-134095798D01*
X180256563Y-134088519D01*
X180294201Y-134081034D01*
X180378384Y-134024784D01*
X180434634Y-133940601D01*
X180449400Y-133866367D01*
X180449399Y-132292234D01*
X180449399Y-132292233D01*
X180449399Y-132292231D01*
X180449399Y-132292230D01*
X188576400Y-132292230D01*
X188576400Y-133866363D01*
X188576401Y-133866373D01*
X188591165Y-133940600D01*
X188647416Y-134024784D01*
X188731597Y-134081033D01*
X188731599Y-134081034D01*
X188805833Y-134095800D01*
X190379966Y-134095799D01*
X190379969Y-134095798D01*
X190379973Y-134095798D01*
X190429226Y-134086001D01*
X190454201Y-134081034D01*
X190538384Y-134024784D01*
X190594634Y-133940601D01*
X190609400Y-133866367D01*
X190609399Y-132292234D01*
X190609398Y-132292231D01*
X190609398Y-132292226D01*
X190594634Y-132217999D01*
X190538383Y-132133815D01*
X190454202Y-132077566D01*
X190379967Y-132062800D01*
X188805836Y-132062800D01*
X188805826Y-132062801D01*
X188731599Y-132077565D01*
X188647415Y-132133816D01*
X188591166Y-132217997D01*
X188576400Y-132292230D01*
X180449399Y-132292230D01*
X180434634Y-132217999D01*
X180378383Y-132133815D01*
X180294202Y-132077566D01*
X180219967Y-132062800D01*
X178645836Y-132062800D01*
X178645826Y-132062801D01*
X178571599Y-132077565D01*
X178487415Y-132133816D01*
X178431166Y-132217997D01*
X178416400Y-132292230D01*
X178416400Y-133543277D01*
X178399522Y-133606272D01*
X178394400Y-133615143D01*
X178394399Y-133615145D01*
X178394399Y-133615146D01*
X178370292Y-133705116D01*
X178368400Y-133712176D01*
X178368400Y-134919300D01*
X178348398Y-134987421D01*
X178294742Y-135033914D01*
X178242401Y-135045300D01*
X178024836Y-135045300D01*
X178024826Y-135045301D01*
X177950599Y-135060065D01*
X177866415Y-135116316D01*
X177810166Y-135200497D01*
X177795400Y-135274730D01*
X173544299Y-135274730D01*
X173544299Y-134984834D01*
X173544298Y-134984831D01*
X173544298Y-134984826D01*
X173529534Y-134910599D01*
X173473283Y-134826415D01*
X173389102Y-134770166D01*
X173314867Y-134755400D01*
X171664736Y-134755400D01*
X171664726Y-134755401D01*
X171590499Y-134770165D01*
X171506315Y-134826416D01*
X171450066Y-134910597D01*
X171435300Y-134984830D01*
X171004299Y-134984830D01*
X170989534Y-134910599D01*
X170933283Y-134826415D01*
X170849102Y-134770166D01*
X170774867Y-134755400D01*
X169124736Y-134755400D01*
X169124726Y-134755401D01*
X169050499Y-134770165D01*
X168966315Y-134826416D01*
X168910066Y-134910597D01*
X168895300Y-134984830D01*
X168464299Y-134984830D01*
X168449534Y-134910599D01*
X168393283Y-134826415D01*
X168309102Y-134770166D01*
X168234867Y-134755400D01*
X166584736Y-134755400D01*
X166584726Y-134755401D01*
X166510499Y-134770165D01*
X166426315Y-134826416D01*
X166370066Y-134910597D01*
X166355300Y-134984830D01*
X165924299Y-134984830D01*
X165909534Y-134910599D01*
X165853283Y-134826415D01*
X165769102Y-134770166D01*
X165694867Y-134755400D01*
X164044736Y-134755400D01*
X164044726Y-134755401D01*
X163970499Y-134770165D01*
X163886315Y-134826416D01*
X163830066Y-134910597D01*
X163815300Y-134984830D01*
X163384299Y-134984830D01*
X163369534Y-134910599D01*
X163313283Y-134826415D01*
X163229102Y-134770166D01*
X163154867Y-134755400D01*
X161504736Y-134755400D01*
X161504726Y-134755401D01*
X161430499Y-134770165D01*
X161346315Y-134826416D01*
X161290066Y-134910597D01*
X161275300Y-134984830D01*
X161275300Y-136451687D01*
X161255298Y-136519808D01*
X161201642Y-136566301D01*
X161131368Y-136576405D01*
X161066788Y-136546911D01*
X161060205Y-136540782D01*
X160881204Y-136361781D01*
X160847178Y-136299469D01*
X160844299Y-136272686D01*
X160844299Y-134984836D01*
X160844298Y-134984827D01*
X160829534Y-134910599D01*
X160773283Y-134826415D01*
X160689102Y-134770166D01*
X160614867Y-134755400D01*
X158964736Y-134755400D01*
X158964726Y-134755401D01*
X158890499Y-134770165D01*
X158806315Y-134826416D01*
X158750066Y-134910597D01*
X158735300Y-134984830D01*
X158304299Y-134984830D01*
X158289534Y-134910599D01*
X158233283Y-134826415D01*
X158149102Y-134770166D01*
X158074867Y-134755400D01*
X156424736Y-134755400D01*
X156424726Y-134755401D01*
X156350499Y-134770165D01*
X156266315Y-134826416D01*
X156210066Y-134910597D01*
X156195300Y-134984830D01*
X156195300Y-136272644D01*
X156175298Y-136340765D01*
X156158393Y-136361742D01*
X155979392Y-136540733D01*
X155917079Y-136574756D01*
X155846263Y-136569689D01*
X155789429Y-136527141D01*
X155764620Y-136460620D01*
X155764299Y-136451659D01*
X155764299Y-134984834D01*
X155764298Y-134984831D01*
X155764298Y-134984826D01*
X155749534Y-134910599D01*
X155693283Y-134826415D01*
X155609102Y-134770166D01*
X155534867Y-134755400D01*
X153884736Y-134755400D01*
X153884726Y-134755401D01*
X153810499Y-134770165D01*
X153726315Y-134826416D01*
X153670066Y-134910597D01*
X153655300Y-134984830D01*
X153655300Y-136272602D01*
X153635298Y-136340723D01*
X153618393Y-136361700D01*
X153598694Y-136381398D01*
X153536381Y-136415421D01*
X153509601Y-136418300D01*
X148810210Y-136418300D01*
X148742089Y-136398298D01*
X148721115Y-136381396D01*
X148689019Y-136349301D01*
X147033655Y-134693971D01*
X146999630Y-134631660D01*
X147004694Y-134560844D01*
X147047240Y-134504008D01*
X147059736Y-134495764D01*
X147143418Y-134447451D01*
X147247551Y-134343318D01*
X147321184Y-134215782D01*
X147359300Y-134073533D01*
X147359300Y-134032085D01*
X147368083Y-134002171D01*
X147374710Y-133971704D01*
X147378526Y-133966605D01*
X147379302Y-133963964D01*
X147396197Y-133942997D01*
X147475657Y-133863530D01*
X150439600Y-133863530D01*
X150439600Y-135437663D01*
X150439601Y-135437673D01*
X150454365Y-135511900D01*
X150510616Y-135596084D01*
X150594797Y-135652333D01*
X150594799Y-135652334D01*
X150669033Y-135667100D01*
X152243166Y-135667099D01*
X152243169Y-135667098D01*
X152243173Y-135667098D01*
X152305314Y-135654738D01*
X152317401Y-135652334D01*
X152401584Y-135596084D01*
X152457834Y-135511901D01*
X152472600Y-135437667D01*
X152472599Y-133863534D01*
X152472598Y-133863530D01*
X152472598Y-133863526D01*
X152457834Y-133789299D01*
X152406301Y-133712176D01*
X152401584Y-133705116D01*
X152401583Y-133705115D01*
X152317402Y-133648866D01*
X152243167Y-133634100D01*
X150669036Y-133634100D01*
X150669026Y-133634101D01*
X150594799Y-133648865D01*
X150510615Y-133705116D01*
X150454366Y-133789297D01*
X150439600Y-133863530D01*
X147475657Y-133863530D01*
X148120927Y-133218207D01*
X148183238Y-133184181D01*
X148210026Y-133181300D01*
X167829571Y-133181300D01*
X167930021Y-133181301D01*
X168027049Y-133155303D01*
X168027051Y-133155301D01*
X168027054Y-133155301D01*
X168114047Y-133105076D01*
X168185076Y-133034047D01*
X168202553Y-133016570D01*
X168202686Y-133016434D01*
X171937900Y-129281302D01*
X172000212Y-129247278D01*
X172026994Y-129244399D01*
X173314864Y-129244399D01*
X173314866Y-129244399D01*
X173314869Y-129244398D01*
X173314872Y-129244398D01*
X173351463Y-129237119D01*
X173389101Y-129229634D01*
X173473284Y-129173384D01*
X173529534Y-129089201D01*
X173544300Y-129014967D01*
X173544299Y-127364834D01*
X173544298Y-127364830D01*
X173544298Y-127364826D01*
X173529534Y-127290599D01*
X173473283Y-127206415D01*
X173389102Y-127150166D01*
X173314867Y-127135400D01*
X171664736Y-127135400D01*
X171664726Y-127135401D01*
X171590499Y-127150165D01*
X171506315Y-127206416D01*
X171450066Y-127290597D01*
X171435300Y-127364830D01*
X171435300Y-128652669D01*
X171415298Y-128720790D01*
X171398397Y-128741761D01*
X171308492Y-128831665D01*
X171219393Y-128920762D01*
X171157081Y-128954786D01*
X171086265Y-128949720D01*
X171029430Y-128907173D01*
X171004620Y-128840652D01*
X171004299Y-128831689D01*
X171004299Y-127364834D01*
X171004298Y-127364830D01*
X171004298Y-127364826D01*
X170989534Y-127290599D01*
X170933283Y-127206415D01*
X170849102Y-127150166D01*
X170774867Y-127135400D01*
X169124736Y-127135400D01*
X169124726Y-127135401D01*
X169050499Y-127150165D01*
X168966315Y-127206416D01*
X168910066Y-127290597D01*
X168895300Y-127364830D01*
X168895300Y-129014963D01*
X168895301Y-129014973D01*
X168910065Y-129089200D01*
X168966316Y-129173384D01*
X169050497Y-129229633D01*
X169050499Y-129229634D01*
X169124733Y-129244400D01*
X170591554Y-129244399D01*
X170659675Y-129264401D01*
X170706168Y-129318057D01*
X170716272Y-129388331D01*
X170686779Y-129452911D01*
X170680652Y-129459491D01*
X167758683Y-132381397D01*
X167696373Y-132415421D01*
X167669591Y-132418300D01*
X148058427Y-132418300D01*
X148058382Y-132418297D01*
X148050010Y-132418297D01*
X148050009Y-132418297D01*
X147974671Y-132418300D01*
X147949563Y-132418300D01*
X147949559Y-132418300D01*
X147949559Y-132418301D01*
X147883165Y-132436094D01*
X147852549Y-132444298D01*
X147852538Y-132444301D01*
X147852521Y-132444309D01*
X147813454Y-132466867D01*
X147813453Y-132466868D01*
X147765554Y-132494523D01*
X147765545Y-132494530D01*
X147741562Y-132518514D01*
X147690139Y-132569938D01*
X147690116Y-132569964D01*
X146856459Y-133403692D01*
X146794148Y-133437719D01*
X146767360Y-133440600D01*
X146726367Y-133440600D01*
X146631534Y-133466010D01*
X146584117Y-133478716D01*
X146456585Y-133552346D01*
X146456575Y-133552354D01*
X146352454Y-133656475D01*
X146352448Y-133656482D01*
X146304136Y-133740162D01*
X146252753Y-133789155D01*
X146183039Y-133802590D01*
X146117128Y-133776203D01*
X146105922Y-133766257D01*
X146079826Y-133740162D01*
X145401310Y-133061659D01*
X144396205Y-132056575D01*
X144362180Y-131994263D01*
X144359300Y-131967479D01*
X144359300Y-131926268D01*
X144350544Y-131893591D01*
X144321184Y-131784018D01*
X144247551Y-131656482D01*
X144247549Y-131656480D01*
X144247545Y-131656475D01*
X144143424Y-131552354D01*
X144143414Y-131552346D01*
X144015882Y-131478716D01*
X143873633Y-131440600D01*
X143726367Y-131440600D01*
X143631534Y-131466010D01*
X143584117Y-131478716D01*
X143456585Y-131552346D01*
X143456575Y-131552354D01*
X143352454Y-131656475D01*
X143352446Y-131656485D01*
X143278816Y-131784017D01*
X143240700Y-131926268D01*
X143240700Y-132073531D01*
X143240699Y-132073531D01*
X143256853Y-132133815D01*
X143278816Y-132215782D01*
X143302691Y-132257134D01*
X143317844Y-132283381D01*
X143334581Y-132352376D01*
X143311360Y-132419468D01*
X143255552Y-132463355D01*
X143184877Y-132470103D01*
X143176129Y-132468091D01*
X143073533Y-132440600D01*
X142926267Y-132440600D01*
X142841345Y-132463355D01*
X142784017Y-132478716D01*
X142656485Y-132552346D01*
X142656475Y-132552354D01*
X142552354Y-132656475D01*
X142552346Y-132656485D01*
X142478716Y-132784017D01*
X142440600Y-132926268D01*
X142440600Y-133073531D01*
X142440599Y-133073531D01*
X136180300Y-133073531D01*
X136180300Y-126466330D01*
X143215800Y-126466330D01*
X143215800Y-128040463D01*
X143215801Y-128040473D01*
X143230565Y-128114700D01*
X143286816Y-128198884D01*
X143370997Y-128255133D01*
X143370999Y-128255134D01*
X143445233Y-128269900D01*
X145019366Y-128269899D01*
X145019369Y-128269898D01*
X145019373Y-128269898D01*
X145068626Y-128260101D01*
X145093601Y-128255134D01*
X145177784Y-128198884D01*
X145234034Y-128114701D01*
X145248800Y-128040467D01*
X145248799Y-126466334D01*
X145248798Y-126466330D01*
X145248798Y-126466326D01*
X145234034Y-126392099D01*
X145177783Y-126307915D01*
X145093602Y-126251666D01*
X145019367Y-126236900D01*
X143445236Y-126236900D01*
X143445226Y-126236901D01*
X143370999Y-126251665D01*
X143286815Y-126307916D01*
X143230566Y-126392097D01*
X143215800Y-126466330D01*
X136180300Y-126466330D01*
X136180300Y-123555965D01*
X136180316Y-123555706D01*
X136180313Y-123547612D01*
X136180315Y-123547608D01*
X136180300Y-123497383D01*
X136180300Y-123447275D01*
X136180299Y-123447273D01*
X136180285Y-123447168D01*
X136180285Y-123447158D01*
X136167164Y-123398252D01*
X136167165Y-123398212D01*
X136167154Y-123398215D01*
X136154301Y-123350246D01*
X136154296Y-123350238D01*
X136154258Y-123350148D01*
X136154256Y-123350138D01*
X136129801Y-123307811D01*
X136129800Y-123307809D01*
X136129782Y-123307777D01*
X136104079Y-123263259D01*
X136104076Y-123263253D01*
X136104069Y-123263246D01*
X136104047Y-123263217D01*
X136104004Y-123263160D01*
X136069561Y-123228738D01*
X136069563Y-123228735D01*
X136069537Y-123228714D01*
X136033047Y-123192224D01*
X136033046Y-123192223D01*
X136027460Y-123186637D01*
X136027249Y-123186451D01*
X133508884Y-120669622D01*
X133474840Y-120607320D01*
X133479883Y-120536503D01*
X133522412Y-120479654D01*
X133588925Y-120454823D01*
X133597927Y-120454499D01*
X135065166Y-120454499D01*
X135065169Y-120454498D01*
X135065173Y-120454498D01*
X135114426Y-120444701D01*
X135139401Y-120439734D01*
X135223584Y-120383484D01*
X135279834Y-120299301D01*
X135294600Y-120225067D01*
X135294599Y-118574734D01*
X135294598Y-118574731D01*
X135294598Y-118574726D01*
X135279834Y-118500499D01*
X135234897Y-118433247D01*
X135223584Y-118416316D01*
X135223583Y-118416315D01*
X135139402Y-118360066D01*
X135065167Y-118345300D01*
X133414836Y-118345300D01*
X133414826Y-118345301D01*
X133340599Y-118360065D01*
X133256415Y-118416316D01*
X133200166Y-118500497D01*
X133185400Y-118574730D01*
X133185400Y-120042277D01*
X133165398Y-120110398D01*
X133111742Y-120156891D01*
X133041468Y-120166995D01*
X132976888Y-120137501D01*
X132970339Y-120131407D01*
X132869470Y-120030599D01*
X132791530Y-119952706D01*
X132757487Y-119890404D01*
X132754599Y-119863584D01*
X132754599Y-118574736D01*
X132754598Y-118574727D01*
X132739834Y-118500499D01*
X132694897Y-118433247D01*
X132683584Y-118416316D01*
X132683583Y-118416315D01*
X132599402Y-118360066D01*
X132525167Y-118345300D01*
X130874836Y-118345300D01*
X130874826Y-118345301D01*
X130800599Y-118360065D01*
X130716415Y-118416316D01*
X130660166Y-118500497D01*
X130645400Y-118574730D01*
X130645400Y-120225063D01*
X130645401Y-120225073D01*
X130660165Y-120299300D01*
X130716416Y-120383484D01*
X130800597Y-120439733D01*
X130800599Y-120439734D01*
X130874833Y-120454500D01*
X132162086Y-120454499D01*
X132230207Y-120474501D01*
X132251154Y-120491376D01*
X133035283Y-121275026D01*
X134144417Y-122383484D01*
X134188954Y-122427993D01*
X134222998Y-122490295D01*
X134217955Y-122561112D01*
X134175426Y-122617961D01*
X134108913Y-122642792D01*
X134081897Y-122640220D01*
X134081719Y-122641578D01*
X134073534Y-122640500D01*
X134073533Y-122640500D01*
X133926267Y-122640500D01*
X133831434Y-122665910D01*
X133784017Y-122678616D01*
X133656485Y-122752246D01*
X133656475Y-122752254D01*
X133626835Y-122781895D01*
X133564523Y-122815921D01*
X133537740Y-122818800D01*
X120210347Y-122818800D01*
X120142226Y-122798798D01*
X120121212Y-122781856D01*
X117995297Y-120654042D01*
X117961300Y-120591714D01*
X117966396Y-120520901D01*
X118008968Y-120464084D01*
X118075499Y-120439303D01*
X118109007Y-120441406D01*
X118174833Y-120454500D01*
X119825166Y-120454499D01*
X119825169Y-120454498D01*
X119825173Y-120454498D01*
X119874426Y-120444701D01*
X119899401Y-120439734D01*
X119983584Y-120383484D01*
X120039834Y-120299301D01*
X120054600Y-120225067D01*
X120054599Y-118574734D01*
X120054599Y-118574733D01*
X120054599Y-118574731D01*
X120054599Y-118574730D01*
X120485400Y-118574730D01*
X120485400Y-120225063D01*
X120485401Y-120225073D01*
X120500165Y-120299300D01*
X120556416Y-120383484D01*
X120640597Y-120439733D01*
X120640599Y-120439734D01*
X120714833Y-120454500D01*
X122365166Y-120454499D01*
X122365169Y-120454498D01*
X122365173Y-120454498D01*
X122414426Y-120444701D01*
X122439401Y-120439734D01*
X122523584Y-120383484D01*
X122579834Y-120299301D01*
X122594600Y-120225067D01*
X122594599Y-118574734D01*
X122594599Y-118574733D01*
X122594599Y-118574731D01*
X122594599Y-118574730D01*
X123025400Y-118574730D01*
X123025400Y-120225063D01*
X123025401Y-120225073D01*
X123040165Y-120299300D01*
X123096416Y-120383484D01*
X123180597Y-120439733D01*
X123180599Y-120439734D01*
X123254833Y-120454500D01*
X124905166Y-120454499D01*
X124905169Y-120454498D01*
X124905173Y-120454498D01*
X124954426Y-120444701D01*
X124979401Y-120439734D01*
X125063584Y-120383484D01*
X125119834Y-120299301D01*
X125134600Y-120225067D01*
X125134599Y-118936993D01*
X125154601Y-118868873D01*
X125171503Y-118847900D01*
X125281054Y-118738347D01*
X125350304Y-118669094D01*
X125412615Y-118635069D01*
X125483431Y-118640133D01*
X125540267Y-118682679D01*
X125565079Y-118749199D01*
X125565400Y-118758189D01*
X125565400Y-120225063D01*
X125565401Y-120225073D01*
X125580165Y-120299300D01*
X125636416Y-120383484D01*
X125720597Y-120439733D01*
X125720599Y-120439734D01*
X125794833Y-120454500D01*
X127445166Y-120454499D01*
X127445169Y-120454498D01*
X127445173Y-120454498D01*
X127494426Y-120444701D01*
X127519401Y-120439734D01*
X127603584Y-120383484D01*
X127659834Y-120299301D01*
X127674600Y-120225067D01*
X127674599Y-118574734D01*
X127674599Y-118574733D01*
X127674599Y-118574731D01*
X127674599Y-118574730D01*
X128105400Y-118574730D01*
X128105400Y-120225063D01*
X128105401Y-120225073D01*
X128120165Y-120299300D01*
X128176416Y-120383484D01*
X128260597Y-120439733D01*
X128260599Y-120439734D01*
X128334833Y-120454500D01*
X129985166Y-120454499D01*
X129985169Y-120454498D01*
X129985173Y-120454498D01*
X130034426Y-120444701D01*
X130059401Y-120439734D01*
X130143584Y-120383484D01*
X130199834Y-120299301D01*
X130214600Y-120225067D01*
X130214599Y-118574734D01*
X130214598Y-118574731D01*
X130214598Y-118574726D01*
X130199834Y-118500499D01*
X130154897Y-118433247D01*
X130143584Y-118416316D01*
X130143583Y-118416315D01*
X130059402Y-118360066D01*
X129985167Y-118345300D01*
X128334836Y-118345300D01*
X128334826Y-118345301D01*
X128260599Y-118360065D01*
X128176415Y-118416316D01*
X128120166Y-118500497D01*
X128105400Y-118574730D01*
X127674599Y-118574730D01*
X127659834Y-118500499D01*
X127614897Y-118433247D01*
X127603584Y-118416316D01*
X127603583Y-118416315D01*
X127519402Y-118360066D01*
X127445169Y-118345300D01*
X127445167Y-118345300D01*
X127111757Y-118345300D01*
X127043636Y-118325298D01*
X126997143Y-118271642D01*
X126985767Y-118220899D01*
X126984534Y-118123729D01*
X126983082Y-118009334D01*
X127002218Y-117940969D01*
X127019969Y-117918652D01*
X129505076Y-115433547D01*
X129521553Y-115405008D01*
X129555301Y-115346554D01*
X129581300Y-115249525D01*
X129581300Y-114073531D01*
X130840699Y-114073531D01*
X130878816Y-114215782D01*
X130952446Y-114343314D01*
X130952454Y-114343324D01*
X131056575Y-114447445D01*
X131056580Y-114447449D01*
X131056582Y-114447451D01*
X131184118Y-114521084D01*
X131326367Y-114559200D01*
X131326369Y-114559200D01*
X131473631Y-114559200D01*
X131473633Y-114559200D01*
X131615882Y-114521084D01*
X131743418Y-114447451D01*
X131743424Y-114447445D01*
X131772565Y-114418305D01*
X131834877Y-114384279D01*
X131861660Y-114381400D01*
X133389687Y-114381400D01*
X133457808Y-114401402D01*
X133478782Y-114418305D01*
X139165646Y-120105170D01*
X139165651Y-120105174D01*
X139165653Y-120105176D01*
X139165654Y-120105177D01*
X139165656Y-120105178D01*
X139250222Y-120154002D01*
X139252647Y-120155402D01*
X139349675Y-120181401D01*
X139349677Y-120181401D01*
X139457843Y-120181401D01*
X139457859Y-120181400D01*
X147389783Y-120181400D01*
X147457904Y-120201402D01*
X147478880Y-120218306D01*
X148863447Y-121602906D01*
X148897471Y-121665218D01*
X148892405Y-121736034D01*
X148849858Y-121792869D01*
X148783337Y-121817679D01*
X148774350Y-121818000D01*
X145261360Y-121818000D01*
X145193239Y-121797998D01*
X145172265Y-121781095D01*
X145143424Y-121752254D01*
X145143414Y-121752246D01*
X145015882Y-121678616D01*
X144873633Y-121640500D01*
X144726367Y-121640500D01*
X144634119Y-121665218D01*
X144584117Y-121678616D01*
X144456585Y-121752246D01*
X144456575Y-121752254D01*
X144352454Y-121856375D01*
X144352446Y-121856385D01*
X144278816Y-121983917D01*
X144240700Y-122126168D01*
X144240700Y-122273431D01*
X144240699Y-122273431D01*
X144278816Y-122415682D01*
X144352446Y-122543214D01*
X144352454Y-122543224D01*
X144456575Y-122647345D01*
X144456580Y-122647349D01*
X144456582Y-122647351D01*
X144584118Y-122720984D01*
X144726367Y-122759100D01*
X144726369Y-122759100D01*
X144873631Y-122759100D01*
X144873633Y-122759100D01*
X145015882Y-122720984D01*
X145143418Y-122647351D01*
X145150549Y-122640220D01*
X145172865Y-122617905D01*
X145235177Y-122583879D01*
X145261960Y-122581000D01*
X148788887Y-122581000D01*
X148857008Y-122601002D01*
X148877982Y-122617905D01*
X151165146Y-124905070D01*
X151165151Y-124905074D01*
X151165153Y-124905076D01*
X151165154Y-124905077D01*
X151165156Y-124905078D01*
X151226339Y-124940402D01*
X151252147Y-124955302D01*
X151349175Y-124981301D01*
X151349177Y-124981301D01*
X151457343Y-124981301D01*
X151457359Y-124981300D01*
X155588619Y-124981300D01*
X155656740Y-125001302D01*
X155677674Y-125018164D01*
X157127139Y-126466336D01*
X157581474Y-126920265D01*
X157615527Y-126982562D01*
X157610493Y-127053380D01*
X157567972Y-127110234D01*
X157501463Y-127135075D01*
X157492418Y-127135400D01*
X156424736Y-127135400D01*
X156424726Y-127135401D01*
X156350499Y-127150165D01*
X156266315Y-127206416D01*
X156210066Y-127290597D01*
X156195300Y-127364830D01*
X156195300Y-129014963D01*
X156195301Y-129014973D01*
X156210065Y-129089200D01*
X156266316Y-129173384D01*
X156350497Y-129229633D01*
X156350499Y-129229634D01*
X156424733Y-129244400D01*
X158074866Y-129244399D01*
X158074868Y-129244398D01*
X158080446Y-129243849D01*
X158150200Y-129257076D01*
X158201730Y-129305915D01*
X158218800Y-129369242D01*
X158218800Y-129450623D01*
X158218799Y-129450623D01*
X158244800Y-129547658D01*
X158295021Y-129634643D01*
X158295026Y-129634649D01*
X159090718Y-130430340D01*
X159090739Y-130430363D01*
X159166146Y-130505770D01*
X159166151Y-130505774D01*
X159166153Y-130505776D01*
X159166154Y-130505777D01*
X159166156Y-130505778D01*
X159253141Y-130555999D01*
X159253143Y-130555999D01*
X159253146Y-130556001D01*
X159350175Y-130582000D01*
X163342487Y-130582000D01*
X163343220Y-130582047D01*
X163350984Y-130582040D01*
X163350986Y-130582041D01*
X163401212Y-130582000D01*
X163451125Y-130582000D01*
X163451128Y-130582000D01*
X163451434Y-130581959D01*
X163451437Y-130581959D01*
X163480551Y-130574132D01*
X163499963Y-130568914D01*
X163499967Y-130568932D01*
X163500059Y-130568887D01*
X163548154Y-130556001D01*
X163548161Y-130555996D01*
X163548435Y-130555882D01*
X163548443Y-130555881D01*
X163548450Y-130555877D01*
X163591192Y-130531153D01*
X163591284Y-130531100D01*
X163635139Y-130505781D01*
X163635141Y-130505779D01*
X163635147Y-130505776D01*
X163635153Y-130505770D01*
X163635263Y-130505686D01*
X163635391Y-130505586D01*
X163635396Y-130505584D01*
X163670190Y-130470731D01*
X163670286Y-130470678D01*
X163670265Y-130470657D01*
X163706176Y-130434747D01*
X163706177Y-130434744D01*
X163711782Y-130429140D01*
X163712258Y-130428594D01*
X164857605Y-129281375D01*
X164919889Y-129247300D01*
X164946773Y-129244399D01*
X165694864Y-129244399D01*
X165694866Y-129244399D01*
X165694869Y-129244398D01*
X165694872Y-129244398D01*
X165731463Y-129237119D01*
X165769101Y-129229634D01*
X165853284Y-129173384D01*
X165909534Y-129089201D01*
X165924300Y-129014967D01*
X165924299Y-127548087D01*
X165944301Y-127479967D01*
X165997957Y-127433474D01*
X166068231Y-127423370D01*
X166132811Y-127452863D01*
X166139384Y-127458983D01*
X166232933Y-127552534D01*
X166318397Y-127638000D01*
X166352421Y-127700312D01*
X166355300Y-127727094D01*
X166355300Y-129014963D01*
X166355301Y-129014973D01*
X166370065Y-129089200D01*
X166426316Y-129173384D01*
X166510497Y-129229633D01*
X166510499Y-129229634D01*
X166584733Y-129244400D01*
X168234866Y-129244399D01*
X168234869Y-129244398D01*
X168234873Y-129244398D01*
X168284126Y-129234601D01*
X168309101Y-129229634D01*
X168393284Y-129173384D01*
X168449534Y-129089201D01*
X168464300Y-129014967D01*
X168464299Y-127364834D01*
X168464298Y-127364830D01*
X168464298Y-127364826D01*
X168449534Y-127290599D01*
X168393283Y-127206415D01*
X168309102Y-127150166D01*
X168234869Y-127135400D01*
X168234867Y-127135400D01*
X166947034Y-127135400D01*
X166878913Y-127115398D01*
X166857937Y-127098494D01*
X163604376Y-123844853D01*
X163562227Y-123802704D01*
X163533348Y-123773824D01*
X163491120Y-123749444D01*
X163446358Y-123723600D01*
X163446349Y-123723597D01*
X163446342Y-123723595D01*
X163433966Y-123720278D01*
X163433966Y-123720279D01*
X163349332Y-123697600D01*
X163349330Y-123697599D01*
X163241162Y-123697599D01*
X163241146Y-123697600D01*
X162324499Y-123697600D01*
X162256378Y-123677598D01*
X162209885Y-123623942D01*
X162198499Y-123571600D01*
X162198499Y-123292031D01*
X162198499Y-123292030D01*
X170325500Y-123292030D01*
X170325500Y-124866163D01*
X170325501Y-124866173D01*
X170340265Y-124940400D01*
X170396516Y-125024584D01*
X170480697Y-125080833D01*
X170480699Y-125080834D01*
X170554933Y-125095600D01*
X172129066Y-125095599D01*
X172129069Y-125095598D01*
X172129073Y-125095598D01*
X172178326Y-125085801D01*
X172203301Y-125080834D01*
X172287484Y-125024584D01*
X172343734Y-124940401D01*
X172358500Y-124866167D01*
X172358499Y-123292034D01*
X172358498Y-123292031D01*
X172358498Y-123292026D01*
X172343734Y-123217799D01*
X172287483Y-123133615D01*
X172203302Y-123077366D01*
X172129067Y-123062600D01*
X170554936Y-123062600D01*
X170554926Y-123062601D01*
X170480699Y-123077365D01*
X170396515Y-123133616D01*
X170340266Y-123217797D01*
X170325500Y-123292030D01*
X162198499Y-123292030D01*
X162183734Y-123217799D01*
X162127483Y-123133615D01*
X162043302Y-123077366D01*
X161969069Y-123062600D01*
X161969067Y-123062600D01*
X161689500Y-123062600D01*
X161621379Y-123042598D01*
X161574886Y-122988942D01*
X161563500Y-122936600D01*
X161563500Y-122580499D01*
X161583502Y-122512378D01*
X161637158Y-122465885D01*
X161689500Y-122454499D01*
X161725164Y-122454499D01*
X161725166Y-122454499D01*
X161725169Y-122454498D01*
X161725172Y-122454498D01*
X161761763Y-122447219D01*
X161799401Y-122439734D01*
X161883584Y-122383484D01*
X161939834Y-122299301D01*
X161954600Y-122225067D01*
X161954599Y-121275030D01*
X178045600Y-121275030D01*
X178045600Y-122725163D01*
X178045601Y-122725173D01*
X178060365Y-122799400D01*
X178116616Y-122883584D01*
X178200797Y-122939833D01*
X178200799Y-122939834D01*
X178275033Y-122954600D01*
X179725166Y-122954599D01*
X179725169Y-122954598D01*
X179725173Y-122954598D01*
X179774426Y-122944801D01*
X179799401Y-122939834D01*
X179883584Y-122883584D01*
X179939834Y-122799401D01*
X179954600Y-122725167D01*
X179954599Y-121275034D01*
X179954599Y-121275033D01*
X179954599Y-121275031D01*
X179954599Y-121275030D01*
X182045600Y-121275030D01*
X182045600Y-122725163D01*
X182045601Y-122725173D01*
X182060365Y-122799400D01*
X182116616Y-122883584D01*
X182200797Y-122939833D01*
X182200799Y-122939834D01*
X182275033Y-122954600D01*
X183725166Y-122954599D01*
X183725169Y-122954598D01*
X183725173Y-122954598D01*
X183774426Y-122944801D01*
X183799401Y-122939834D01*
X183883584Y-122883584D01*
X183939834Y-122799401D01*
X183954600Y-122725167D01*
X183954599Y-121275034D01*
X183954598Y-121275031D01*
X183954598Y-121275026D01*
X183939834Y-121200799D01*
X183883583Y-121116615D01*
X183799402Y-121060366D01*
X183725167Y-121045600D01*
X182275036Y-121045600D01*
X182275026Y-121045601D01*
X182200799Y-121060365D01*
X182116615Y-121116616D01*
X182060366Y-121200797D01*
X182045600Y-121275030D01*
X179954599Y-121275030D01*
X179939834Y-121200799D01*
X179883583Y-121116615D01*
X179799402Y-121060366D01*
X179725167Y-121045600D01*
X178275036Y-121045600D01*
X178275026Y-121045601D01*
X178200799Y-121060365D01*
X178116615Y-121116616D01*
X178060366Y-121200797D01*
X178045600Y-121275030D01*
X161954599Y-121275030D01*
X161954599Y-120774934D01*
X161954598Y-120774930D01*
X161954598Y-120774926D01*
X161939834Y-120700699D01*
X161894563Y-120632947D01*
X161883584Y-120616516D01*
X161883583Y-120616515D01*
X161799402Y-120560266D01*
X161725167Y-120545500D01*
X160275036Y-120545500D01*
X160275026Y-120545501D01*
X160200799Y-120560265D01*
X160116615Y-120616516D01*
X160060366Y-120700697D01*
X160045600Y-120774930D01*
X160045600Y-122225063D01*
X160045601Y-122225073D01*
X160060365Y-122299300D01*
X160116616Y-122383484D01*
X160200797Y-122439733D01*
X160200799Y-122439734D01*
X160275033Y-122454500D01*
X160674500Y-122454499D01*
X160742620Y-122474501D01*
X160789114Y-122528156D01*
X160800500Y-122580499D01*
X160800500Y-122936600D01*
X160780498Y-123004721D01*
X160726842Y-123051214D01*
X160674500Y-123062600D01*
X160394936Y-123062600D01*
X160394926Y-123062601D01*
X160320699Y-123077365D01*
X160236515Y-123133616D01*
X160180266Y-123217797D01*
X160165500Y-123292030D01*
X160165500Y-124866163D01*
X160165501Y-124866173D01*
X160180265Y-124940400D01*
X160236516Y-125024584D01*
X160320697Y-125080833D01*
X160320699Y-125080834D01*
X160394933Y-125095600D01*
X161969066Y-125095599D01*
X161969069Y-125095598D01*
X161969073Y-125095598D01*
X162018326Y-125085801D01*
X162043301Y-125080834D01*
X162127484Y-125024584D01*
X162183734Y-124940401D01*
X162198500Y-124866167D01*
X162198500Y-124586600D01*
X162218502Y-124518479D01*
X162272158Y-124471986D01*
X162324500Y-124460600D01*
X163088882Y-124460600D01*
X163157003Y-124480602D01*
X163177979Y-124497506D01*
X165600720Y-126920306D01*
X165634744Y-126982618D01*
X165629678Y-127053434D01*
X165587131Y-127110269D01*
X165520610Y-127135079D01*
X165511623Y-127135400D01*
X164044736Y-127135400D01*
X164044726Y-127135401D01*
X163970499Y-127150165D01*
X163886315Y-127206416D01*
X163830066Y-127290597D01*
X163815300Y-127364830D01*
X163815300Y-129014963D01*
X163815301Y-129014973D01*
X163830066Y-129089201D01*
X163834815Y-129100667D01*
X163833424Y-129101243D01*
X163850506Y-129155793D01*
X163831724Y-129224260D01*
X163813694Y-129247066D01*
X163492897Y-129568389D01*
X163381141Y-129680328D01*
X163279612Y-129782023D01*
X163217328Y-129816099D01*
X163190444Y-129819000D01*
X159610613Y-129819000D01*
X159542492Y-129798998D01*
X159521517Y-129782095D01*
X159198917Y-129459494D01*
X159164892Y-129397182D01*
X159169957Y-129326366D01*
X159212504Y-129269531D01*
X159279024Y-129244720D01*
X159288013Y-129244399D01*
X160614864Y-129244399D01*
X160614866Y-129244399D01*
X160614869Y-129244398D01*
X160614872Y-129244398D01*
X160651463Y-129237119D01*
X160689101Y-129229634D01*
X160773284Y-129173384D01*
X160829534Y-129089201D01*
X160844300Y-129014967D01*
X160844299Y-127548111D01*
X160864301Y-127479991D01*
X160917957Y-127433498D01*
X160988231Y-127423394D01*
X161052811Y-127452887D01*
X161059394Y-127459017D01*
X161238395Y-127638018D01*
X161272421Y-127700330D01*
X161275300Y-127727113D01*
X161275300Y-129014963D01*
X161275301Y-129014973D01*
X161290065Y-129089200D01*
X161346316Y-129173384D01*
X161430497Y-129229633D01*
X161430499Y-129229634D01*
X161504733Y-129244400D01*
X163154866Y-129244399D01*
X163154869Y-129244398D01*
X163154873Y-129244398D01*
X163204126Y-129234601D01*
X163229101Y-129229634D01*
X163313284Y-129173384D01*
X163369534Y-129089201D01*
X163384300Y-129014967D01*
X163384299Y-127364834D01*
X163384298Y-127364830D01*
X163384298Y-127364826D01*
X163369534Y-127290599D01*
X163313283Y-127206415D01*
X163229102Y-127150166D01*
X163154869Y-127135400D01*
X163154867Y-127135400D01*
X161867013Y-127135400D01*
X161798892Y-127115398D01*
X161777918Y-127098495D01*
X158374053Y-123694629D01*
X158374043Y-123694621D01*
X158287058Y-123644400D01*
X158275592Y-123641327D01*
X158190025Y-123618400D01*
X158190023Y-123618400D01*
X152010117Y-123618400D01*
X151941996Y-123598398D01*
X151921020Y-123581494D01*
X147912462Y-119572841D01*
X147912445Y-119572821D01*
X147834254Y-119494630D01*
X147834250Y-119494627D01*
X147834247Y-119494624D01*
X147818995Y-119485818D01*
X147770003Y-119434436D01*
X147756567Y-119364723D01*
X147782953Y-119298812D01*
X147840786Y-119257630D01*
X147881996Y-119250700D01*
X149332800Y-119250700D01*
X149400921Y-119270702D01*
X149447414Y-119324358D01*
X149458800Y-119376700D01*
X149458800Y-119687608D01*
X149458800Y-119819392D01*
X149483767Y-119912573D01*
X149492907Y-119946683D01*
X149492910Y-119946690D01*
X149558797Y-120060810D01*
X149558805Y-120060820D01*
X149651979Y-120153994D01*
X149651984Y-120153998D01*
X149651986Y-120154000D01*
X149651987Y-120154001D01*
X149651989Y-120154002D01*
X149654414Y-120155402D01*
X149766114Y-120219892D01*
X149893408Y-120254000D01*
X149893410Y-120254000D01*
X158318290Y-120254000D01*
X158318292Y-120254000D01*
X158445586Y-120219892D01*
X158559714Y-120154000D01*
X158652900Y-120060814D01*
X158718792Y-119946686D01*
X158752900Y-119819392D01*
X158752900Y-119379340D01*
X158772902Y-119311219D01*
X158826558Y-119264726D01*
X158878887Y-119253340D01*
X187002146Y-119250700D01*
X187065992Y-119250700D01*
X187066014Y-119250694D01*
X187066039Y-119250694D01*
X187131589Y-119233123D01*
X187193286Y-119216592D01*
X187193306Y-119216580D01*
X187193330Y-119216574D01*
X187249500Y-119184136D01*
X187307414Y-119150700D01*
X187307432Y-119150681D01*
X187307451Y-119150671D01*
X187351299Y-119106814D01*
X187400600Y-119057514D01*
X187400612Y-119057492D01*
X187400629Y-119057476D01*
X187432788Y-119001761D01*
X187466492Y-118943386D01*
X187466498Y-118943362D01*
X187466510Y-118943342D01*
X187483047Y-118881598D01*
X187500600Y-118816092D01*
X187500600Y-118816067D01*
X187500606Y-118816045D01*
X187500600Y-118750153D01*
X187500600Y-73750423D01*
X187500603Y-73684531D01*
X187500601Y-73684526D01*
X187500602Y-73684517D01*
X187484429Y-73624157D01*
X187484102Y-73622938D01*
X187484102Y-73622930D01*
X187484100Y-73622931D01*
X187467528Y-73561068D01*
X187466677Y-73557426D01*
X187466658Y-73557379D01*
X187465192Y-73554963D01*
X187435922Y-73504266D01*
X187434724Y-73502191D01*
X187401027Y-73443819D01*
X187400637Y-73443131D01*
X187400612Y-73443098D01*
X187400600Y-73443086D01*
X187354024Y-73396510D01*
X187354023Y-73396508D01*
X187354023Y-73396509D01*
X187307432Y-73349914D01*
X187307429Y-73349912D01*
X187307421Y-73349904D01*
X187246273Y-73314600D01*
X187246268Y-73314597D01*
X187194051Y-73284446D01*
X187193349Y-73284033D01*
X187193293Y-73284010D01*
X187127612Y-73266411D01*
X187127612Y-73266409D01*
X187127606Y-73266409D01*
X187066004Y-73249900D01*
X187065992Y-73249900D01*
X187000011Y-73249900D01*
X176625694Y-73249427D01*
X176557574Y-73229422D01*
X176511084Y-73175764D01*
X176499700Y-73123427D01*
X176499700Y-66933209D01*
X176499700Y-66933208D01*
X176465592Y-66805914D01*
X176399700Y-66691786D01*
X176399698Y-66691784D01*
X176399694Y-66691779D01*
X176306520Y-66598605D01*
X176306510Y-66598597D01*
X176192390Y-66532710D01*
X176192387Y-66532709D01*
X176192386Y-66532708D01*
X176192384Y-66532707D01*
X176192383Y-66532707D01*
X176158273Y-66523567D01*
X176065092Y-66498600D01*
X156065192Y-66498600D01*
X155933408Y-66498600D01*
X155865194Y-66516877D01*
X155806116Y-66532707D01*
X155806109Y-66532710D01*
X155691989Y-66598597D01*
X155691979Y-66598605D01*
X155598805Y-66691779D01*
X155598797Y-66691789D01*
X155532910Y-66805909D01*
X155532907Y-66805916D01*
X155498800Y-66933209D01*
X155498800Y-73123422D01*
X155478798Y-73191543D01*
X155425142Y-73238036D01*
X155372804Y-73249422D01*
X142072399Y-73249892D01*
X142072354Y-73249890D01*
X142017854Y-73249894D01*
X142017852Y-73249894D01*
X142006921Y-73249895D01*
X141932890Y-73249898D01*
X141932878Y-73249900D01*
X141932869Y-73249901D01*
X141872448Y-73266095D01*
X141805597Y-73284011D01*
X141805587Y-73284016D01*
X141805578Y-73284019D01*
X141798099Y-73288337D01*
X141798096Y-73288338D01*
X141760520Y-73310036D01*
X141760514Y-73310041D01*
X141750496Y-73315826D01*
X141691472Y-73349907D01*
X141691464Y-73349914D01*
X141691455Y-73349920D01*
X141644854Y-73396527D01*
X141598289Y-73443096D01*
X141598283Y-73443105D01*
X141598276Y-73443113D01*
X141592010Y-73453966D01*
X141592010Y-73453967D01*
X141564173Y-73502190D01*
X141564172Y-73502191D01*
X141532397Y-73557232D01*
X141532397Y-73557234D01*
X141532370Y-73557299D01*
X141532174Y-73558059D01*
X141514469Y-73624155D01*
X141514469Y-73624156D01*
X141498295Y-73684531D01*
X141498299Y-73748617D01*
X141498299Y-73748619D01*
X141498301Y-73824672D01*
X141498305Y-73824727D01*
X141499351Y-87373290D01*
X141479354Y-87441413D01*
X141425702Y-87487910D01*
X141373351Y-87499300D01*
X135315892Y-87499300D01*
X135184108Y-87499300D01*
X135115894Y-87517577D01*
X135056816Y-87533407D01*
X135056809Y-87533410D01*
X134942689Y-87599297D01*
X134942679Y-87599305D01*
X134849505Y-87692479D01*
X134849497Y-87692489D01*
X134783610Y-87806609D01*
X134783608Y-87806614D01*
X134749500Y-87933908D01*
X134749500Y-107933908D01*
X134749500Y-108065692D01*
X134766525Y-108129229D01*
X134783607Y-108192983D01*
X134783610Y-108192990D01*
X134849497Y-108307110D01*
X134849505Y-108307120D01*
X134942679Y-108400294D01*
X134942684Y-108400298D01*
X134942686Y-108400300D01*
X134942687Y-108400301D01*
X134942689Y-108400302D01*
X134962984Y-108412019D01*
X135056814Y-108466192D01*
X135184108Y-108500300D01*
X141372546Y-108500300D01*
X141440667Y-108520302D01*
X141487160Y-108573958D01*
X141498546Y-108626271D01*
X141500169Y-115608375D01*
X141500900Y-118751689D01*
X141500900Y-118816092D01*
X141500914Y-118816147D01*
X141500915Y-118816208D01*
X141517994Y-118879890D01*
X141535008Y-118943386D01*
X141535037Y-118943437D01*
X141535053Y-118943494D01*
X141568057Y-119000629D01*
X141600900Y-119057514D01*
X141600940Y-119057554D01*
X141600971Y-119057607D01*
X141647575Y-119104189D01*
X141690498Y-119147112D01*
X141694088Y-119150702D01*
X141694172Y-119150766D01*
X141694176Y-119150768D01*
X141694179Y-119150771D01*
X141720841Y-119166156D01*
X141750493Y-119183267D01*
X141799498Y-119234639D01*
X141812949Y-119304350D01*
X141786577Y-119370266D01*
X141728754Y-119411461D01*
X141687517Y-119418400D01*
X139610113Y-119418400D01*
X139541992Y-119398398D01*
X139521018Y-119381495D01*
X133834153Y-113694629D01*
X133834143Y-113694621D01*
X133747158Y-113644400D01*
X133735692Y-113641327D01*
X133650125Y-113618400D01*
X133650123Y-113618400D01*
X131861660Y-113618400D01*
X131793539Y-113598398D01*
X131772565Y-113581495D01*
X131743424Y-113552354D01*
X131743414Y-113552346D01*
X131615882Y-113478716D01*
X131473633Y-113440600D01*
X131326367Y-113440600D01*
X131231534Y-113466010D01*
X131184117Y-113478716D01*
X131056585Y-113552346D01*
X131056575Y-113552354D01*
X130952454Y-113656475D01*
X130952446Y-113656485D01*
X130878816Y-113784017D01*
X130840700Y-113926268D01*
X130840700Y-114073531D01*
X130840699Y-114073531D01*
X129581300Y-114073531D01*
X129581300Y-110274830D01*
X136295600Y-110274830D01*
X136295600Y-111724963D01*
X136295601Y-111724973D01*
X136310365Y-111799200D01*
X136366616Y-111883384D01*
X136450797Y-111939633D01*
X136450799Y-111939634D01*
X136525033Y-111954400D01*
X137975166Y-111954399D01*
X137975169Y-111954398D01*
X137975173Y-111954398D01*
X138024426Y-111944601D01*
X138049401Y-111939634D01*
X138133584Y-111883384D01*
X138189834Y-111799201D01*
X138204600Y-111724967D01*
X138204599Y-110274834D01*
X138204598Y-110274830D01*
X138204598Y-110274826D01*
X138189834Y-110200599D01*
X138172182Y-110174181D01*
X138133584Y-110116416D01*
X138131558Y-110115062D01*
X138049402Y-110060166D01*
X137975167Y-110045400D01*
X136525036Y-110045400D01*
X136525026Y-110045401D01*
X136450799Y-110060165D01*
X136366615Y-110116416D01*
X136310366Y-110200597D01*
X136295600Y-110274830D01*
X129581300Y-110274830D01*
X129581300Y-101259239D01*
X129601302Y-101191118D01*
X129618243Y-101170106D01*
X130241936Y-100546945D01*
X131798941Y-98991266D01*
X131861267Y-98957267D01*
X131887998Y-98954399D01*
X132975164Y-98954399D01*
X132975166Y-98954399D01*
X132975169Y-98954398D01*
X132975172Y-98954398D01*
X133011763Y-98947119D01*
X133049401Y-98939634D01*
X133133584Y-98883384D01*
X133189834Y-98799201D01*
X133204600Y-98724967D01*
X133204599Y-97274834D01*
X133204598Y-97274830D01*
X133204598Y-97274826D01*
X133189834Y-97200599D01*
X133133583Y-97116415D01*
X133049402Y-97060166D01*
X132975167Y-97045400D01*
X131525036Y-97045400D01*
X131525026Y-97045401D01*
X131450799Y-97060165D01*
X131366615Y-97116416D01*
X131310366Y-97200597D01*
X131295600Y-97274830D01*
X131295600Y-98363370D01*
X131275598Y-98431491D01*
X131258657Y-98452503D01*
X129196457Y-100512946D01*
X129134131Y-100546945D01*
X129063317Y-100541850D01*
X129006500Y-100499279D01*
X128981717Y-100432748D01*
X128981400Y-100423813D01*
X128981400Y-79610212D01*
X129001402Y-79542091D01*
X129018305Y-79521117D01*
X140264492Y-68274930D01*
X152045400Y-68274930D01*
X152045400Y-69725063D01*
X152045401Y-69725073D01*
X152060165Y-69799300D01*
X152116416Y-69883484D01*
X152200597Y-69939733D01*
X152200599Y-69939734D01*
X152274833Y-69954500D01*
X153724966Y-69954499D01*
X153724969Y-69954498D01*
X153724973Y-69954498D01*
X153774226Y-69944701D01*
X153799201Y-69939734D01*
X153883384Y-69883484D01*
X153939634Y-69799301D01*
X153954400Y-69725067D01*
X153954399Y-68274934D01*
X153954398Y-68274930D01*
X153954398Y-68274926D01*
X153939634Y-68200699D01*
X153883383Y-68116515D01*
X153799202Y-68060266D01*
X153724967Y-68045500D01*
X152274836Y-68045500D01*
X152274826Y-68045501D01*
X152200599Y-68060265D01*
X152116415Y-68116516D01*
X152060166Y-68200697D01*
X152045400Y-68274930D01*
X140264492Y-68274930D01*
X142321017Y-66218405D01*
X142383329Y-66184379D01*
X142410112Y-66181500D01*
X149650123Y-66181500D01*
X149650125Y-66181500D01*
X149747154Y-66155501D01*
X149747157Y-66155499D01*
X149747158Y-66155499D01*
X149790650Y-66130388D01*
X149834147Y-66105276D01*
X149905176Y-66034247D01*
X151721018Y-64218405D01*
X151783330Y-64184379D01*
X151810113Y-64181500D01*
X164919601Y-64181500D01*
X164987722Y-64201502D01*
X165034215Y-64255158D01*
X165045601Y-64307500D01*
X165045601Y-64725072D01*
X165060365Y-64799300D01*
X165116616Y-64883484D01*
X165200797Y-64939733D01*
X165200799Y-64939734D01*
X165275033Y-64954500D01*
X166725166Y-64954499D01*
X166725169Y-64954498D01*
X166725173Y-64954498D01*
X166774426Y-64944701D01*
X166799401Y-64939734D01*
X166883584Y-64883484D01*
X166939834Y-64799301D01*
X166954600Y-64725067D01*
X166954599Y-63274934D01*
X166954598Y-63274930D01*
X166954598Y-63274926D01*
X166939834Y-63200699D01*
X166883583Y-63116515D01*
X166799402Y-63060266D01*
X166725167Y-63045500D01*
X165275036Y-63045500D01*
X165275026Y-63045501D01*
X165200799Y-63060265D01*
X165116615Y-63116516D01*
X165060366Y-63200697D01*
X165045600Y-63274930D01*
X165045600Y-63292500D01*
X165025598Y-63360621D01*
X164971942Y-63407114D01*
X164919600Y-63418500D01*
X151549675Y-63418500D01*
X151490290Y-63434412D01*
X151452641Y-63444500D01*
X151365656Y-63494721D01*
X151365646Y-63494729D01*
X149478782Y-65381595D01*
X149416470Y-65415620D01*
X149389687Y-65418500D01*
X142149675Y-65418500D01*
X142090290Y-65434412D01*
X142052641Y-65444500D01*
X141965656Y-65494721D01*
X141965651Y-65494725D01*
X141930138Y-65530239D01*
X141894624Y-65565753D01*
X141894622Y-65565755D01*
X128347930Y-79112445D01*
X128347928Y-79112448D01*
X128294629Y-79165746D01*
X128294621Y-79165756D01*
X128244400Y-79252741D01*
X128218400Y-79349776D01*
X128218400Y-114669690D01*
X128198398Y-114737811D01*
X128181496Y-114758784D01*
X124631965Y-118308394D01*
X124569654Y-118342420D01*
X124542869Y-118345300D01*
X123254836Y-118345300D01*
X123254826Y-118345301D01*
X123180599Y-118360065D01*
X123096415Y-118416316D01*
X123040166Y-118500497D01*
X123025400Y-118574730D01*
X122594599Y-118574730D01*
X122579834Y-118500499D01*
X122534897Y-118433247D01*
X122523584Y-118416316D01*
X122523583Y-118416315D01*
X122439402Y-118360066D01*
X122365169Y-118345300D01*
X122365167Y-118345300D01*
X122307600Y-118345300D01*
X122239479Y-118325298D01*
X122192986Y-118271642D01*
X122181600Y-118219300D01*
X122181600Y-117530299D01*
X122201602Y-117462178D01*
X122255258Y-117415685D01*
X122307600Y-117404299D01*
X122325164Y-117404299D01*
X122325166Y-117404299D01*
X122325169Y-117404298D01*
X122325172Y-117404298D01*
X122361763Y-117397019D01*
X122399401Y-117389534D01*
X122483584Y-117333284D01*
X122539834Y-117249101D01*
X122554600Y-117174867D01*
X122554599Y-116024734D01*
X122554598Y-116024730D01*
X122554598Y-116024726D01*
X122539834Y-115950499D01*
X122483583Y-115866315D01*
X122399402Y-115810066D01*
X122325167Y-115795300D01*
X121275036Y-115795300D01*
X121275026Y-115795301D01*
X121200799Y-115810065D01*
X121116615Y-115866316D01*
X121060366Y-115950497D01*
X121045600Y-116024730D01*
X121045600Y-117174863D01*
X121045601Y-117174873D01*
X121060365Y-117249100D01*
X121116616Y-117333284D01*
X121200797Y-117389533D01*
X121200799Y-117389534D01*
X121275033Y-117404300D01*
X121292597Y-117404299D01*
X121360716Y-117424298D01*
X121407211Y-117477952D01*
X121418600Y-117530299D01*
X121418600Y-118219300D01*
X121398598Y-118287421D01*
X121344942Y-118333914D01*
X121292600Y-118345300D01*
X120714836Y-118345300D01*
X120714826Y-118345301D01*
X120640599Y-118360065D01*
X120556415Y-118416316D01*
X120500166Y-118500497D01*
X120485400Y-118574730D01*
X120054599Y-118574730D01*
X120039834Y-118500499D01*
X119994897Y-118433247D01*
X119983584Y-118416316D01*
X119983583Y-118416315D01*
X119899402Y-118360066D01*
X119825167Y-118345300D01*
X118174836Y-118345300D01*
X118174826Y-118345301D01*
X118100599Y-118360065D01*
X118016415Y-118416316D01*
X117960166Y-118500497D01*
X117945400Y-118574730D01*
X117945400Y-120225063D01*
X117945401Y-120225073D01*
X117958437Y-120290610D01*
X117952108Y-120361324D01*
X117908553Y-120417391D01*
X117841600Y-120441009D01*
X117772507Y-120424681D01*
X117745722Y-120404245D01*
X117619264Y-120277673D01*
X117585267Y-120215346D01*
X117582400Y-120188618D01*
X117582400Y-119350176D01*
X117575482Y-119324358D01*
X117556401Y-119253146D01*
X117556399Y-119253143D01*
X117556399Y-119253141D01*
X117506178Y-119166156D01*
X117506174Y-119166151D01*
X117487135Y-119147112D01*
X117435147Y-119095124D01*
X116840511Y-118500488D01*
X116233753Y-117893729D01*
X116233743Y-117893721D01*
X116146758Y-117843500D01*
X116135292Y-117840427D01*
X116049725Y-117817500D01*
X116049723Y-117817500D01*
X115010811Y-117817500D01*
X114942690Y-117797498D01*
X114921716Y-117780596D01*
X114671415Y-117530299D01*
X110096523Y-112955471D01*
X108218705Y-111077679D01*
X108184680Y-111015367D01*
X108181800Y-110988583D01*
X108181800Y-108274830D01*
X110045500Y-108274830D01*
X110045500Y-109724963D01*
X110045501Y-109724973D01*
X110060265Y-109799200D01*
X110116516Y-109883384D01*
X110200697Y-109939633D01*
X110200699Y-109939634D01*
X110274933Y-109954400D01*
X111725066Y-109954399D01*
X111725069Y-109954398D01*
X111725073Y-109954398D01*
X111774326Y-109944601D01*
X111799301Y-109939634D01*
X111883484Y-109883384D01*
X111939734Y-109799201D01*
X111954500Y-109724967D01*
X111954499Y-108637064D01*
X111974501Y-108568944D01*
X111991404Y-108547969D01*
X112627361Y-107912057D01*
X112627383Y-107912039D01*
X112634544Y-107904877D01*
X112634547Y-107904876D01*
X112659405Y-107880017D01*
X112721713Y-107845992D01*
X112792529Y-107851055D01*
X112849366Y-107893600D01*
X112874179Y-107960119D01*
X112874500Y-107969112D01*
X112874500Y-112184108D01*
X112874500Y-112315892D01*
X112899467Y-112409073D01*
X112908607Y-112443183D01*
X112908610Y-112443190D01*
X112974497Y-112557310D01*
X112974505Y-112557320D01*
X113067679Y-112650494D01*
X113067684Y-112650498D01*
X113067686Y-112650500D01*
X113181814Y-112716392D01*
X113309108Y-112750500D01*
X113309110Y-112750500D01*
X126440990Y-112750500D01*
X126440992Y-112750500D01*
X126568286Y-112716392D01*
X126682414Y-112650500D01*
X126775600Y-112557314D01*
X126841492Y-112443186D01*
X126875600Y-112315892D01*
X126875600Y-98251038D01*
X126875605Y-98185146D01*
X126875600Y-98185127D01*
X126875600Y-98185108D01*
X126858834Y-98122536D01*
X126841507Y-98057850D01*
X126841497Y-98057832D01*
X126841492Y-98057814D01*
X126809445Y-98002307D01*
X126775624Y-97943717D01*
X126775609Y-97943702D01*
X126775600Y-97943686D01*
X126729034Y-97897120D01*
X126682445Y-97850524D01*
X126682444Y-97850523D01*
X126682439Y-97850518D01*
X126682419Y-97850503D01*
X126623859Y-97816693D01*
X126623860Y-97816691D01*
X126623852Y-97816689D01*
X126568322Y-97784623D01*
X126568303Y-97784612D01*
X126501762Y-97766783D01*
X126501762Y-97766781D01*
X126501751Y-97766780D01*
X126441012Y-97750500D01*
X126440992Y-97750500D01*
X126376021Y-97750500D01*
X113894162Y-97749539D01*
X113826043Y-97729532D01*
X113779554Y-97675872D01*
X113769456Y-97605598D01*
X113798954Y-97541019D01*
X113805049Y-97534472D01*
X114208520Y-97131001D01*
X114270830Y-97096978D01*
X114297613Y-97094099D01*
X115716664Y-97094099D01*
X115716666Y-97094099D01*
X115716669Y-97094098D01*
X115716672Y-97094098D01*
X115753263Y-97086819D01*
X115790901Y-97079334D01*
X115875084Y-97023084D01*
X115931334Y-96938901D01*
X115946100Y-96864667D01*
X115946099Y-95290534D01*
X115946099Y-95290533D01*
X115946099Y-95290531D01*
X115946099Y-95290530D01*
X124073100Y-95290530D01*
X124073100Y-96864663D01*
X124073101Y-96864673D01*
X124087865Y-96938900D01*
X124144116Y-97023084D01*
X124228297Y-97079333D01*
X124228299Y-97079334D01*
X124302533Y-97094100D01*
X125876666Y-97094099D01*
X125876669Y-97094098D01*
X125876673Y-97094098D01*
X125925926Y-97084301D01*
X125950901Y-97079334D01*
X126035084Y-97023084D01*
X126091334Y-96938901D01*
X126106100Y-96864667D01*
X126106099Y-95290534D01*
X126106098Y-95290531D01*
X126106098Y-95290526D01*
X126091334Y-95216299D01*
X126035083Y-95132115D01*
X125950902Y-95075866D01*
X125876667Y-95061100D01*
X124302536Y-95061100D01*
X124302526Y-95061101D01*
X124228299Y-95075865D01*
X124144115Y-95132116D01*
X124087866Y-95216297D01*
X124073100Y-95290530D01*
X115946099Y-95290530D01*
X115931334Y-95216299D01*
X115875083Y-95132115D01*
X115790902Y-95075866D01*
X115716667Y-95061100D01*
X114142536Y-95061100D01*
X114142526Y-95061101D01*
X114068299Y-95075865D01*
X113984115Y-95132116D01*
X113927866Y-95216297D01*
X113913100Y-95290530D01*
X113913100Y-96295186D01*
X113893098Y-96363307D01*
X113876194Y-96384281D01*
X112166053Y-98094424D01*
X112137941Y-98122536D01*
X112095025Y-98165451D01*
X112095021Y-98165456D01*
X112044800Y-98252441D01*
X112018800Y-98349476D01*
X112018800Y-107389375D01*
X111998798Y-107457496D01*
X111981892Y-107478474D01*
X111451829Y-108008499D01*
X111389516Y-108042521D01*
X111362737Y-108045400D01*
X110274936Y-108045400D01*
X110274926Y-108045401D01*
X110200699Y-108060165D01*
X110116515Y-108116416D01*
X110060266Y-108200597D01*
X110045500Y-108274830D01*
X108181800Y-108274830D01*
X108181800Y-94411312D01*
X108201802Y-94343191D01*
X108218700Y-94322222D01*
X110549618Y-91991303D01*
X110611930Y-91957278D01*
X110638713Y-91954399D01*
X111725064Y-91954399D01*
X111725066Y-91954399D01*
X111725069Y-91954398D01*
X111725072Y-91954398D01*
X111761663Y-91947119D01*
X111799301Y-91939634D01*
X111883484Y-91883384D01*
X111939734Y-91799201D01*
X111954500Y-91724967D01*
X111954499Y-90637113D01*
X111974501Y-90568993D01*
X111991404Y-90548019D01*
X112659505Y-89879918D01*
X112721817Y-89845892D01*
X112792632Y-89850957D01*
X112849468Y-89893504D01*
X112874279Y-89960024D01*
X112874600Y-89969013D01*
X112874600Y-93934208D01*
X112874600Y-94065992D01*
X112897344Y-94150875D01*
X112908707Y-94193283D01*
X112908710Y-94193290D01*
X112974597Y-94307410D01*
X112974605Y-94307420D01*
X113067779Y-94400594D01*
X113067784Y-94400598D01*
X113067786Y-94400600D01*
X113067787Y-94400601D01*
X113067789Y-94400602D01*
X113148006Y-94446915D01*
X113181914Y-94466492D01*
X113309208Y-94500600D01*
X113309210Y-94500600D01*
X126440990Y-94500600D01*
X126440992Y-94500600D01*
X126568286Y-94466492D01*
X126682414Y-94400600D01*
X126775600Y-94307414D01*
X126841492Y-94193286D01*
X126875600Y-94065992D01*
X126875600Y-79934108D01*
X126841492Y-79806814D01*
X126775600Y-79692686D01*
X126775598Y-79692684D01*
X126775594Y-79692679D01*
X126682420Y-79599505D01*
X126682410Y-79599497D01*
X126568290Y-79533610D01*
X126568287Y-79533609D01*
X126568286Y-79533608D01*
X126568284Y-79533607D01*
X126568283Y-79533607D01*
X126534173Y-79524467D01*
X126440992Y-79499500D01*
X113440992Y-79499500D01*
X113309208Y-79499500D01*
X113240994Y-79517777D01*
X113181916Y-79533607D01*
X113181909Y-79533610D01*
X113067789Y-79599497D01*
X113067779Y-79599505D01*
X112996595Y-79670690D01*
X112934283Y-79704716D01*
X112863468Y-79699651D01*
X112806632Y-79657104D01*
X112781821Y-79590584D01*
X112781500Y-79581595D01*
X112781500Y-78816512D01*
X112801502Y-78748391D01*
X112818400Y-78727422D01*
X114165718Y-77380103D01*
X114228030Y-77346078D01*
X114254813Y-77343199D01*
X115466764Y-77343199D01*
X115466766Y-77343199D01*
X115466769Y-77343198D01*
X115466772Y-77343198D01*
X115503363Y-77335919D01*
X115541001Y-77328434D01*
X115625184Y-77272184D01*
X115681434Y-77188001D01*
X115696200Y-77113767D01*
X115696199Y-75539634D01*
X115696199Y-75539633D01*
X115696199Y-75539631D01*
X115696199Y-75539630D01*
X123823200Y-75539630D01*
X123823200Y-77113763D01*
X123823201Y-77113773D01*
X123837965Y-77188000D01*
X123894216Y-77272184D01*
X123978397Y-77328433D01*
X123978399Y-77328434D01*
X124052633Y-77343200D01*
X125626766Y-77343199D01*
X125626769Y-77343198D01*
X125626773Y-77343198D01*
X125676026Y-77333401D01*
X125701001Y-77328434D01*
X125785184Y-77272184D01*
X125841434Y-77188001D01*
X125856200Y-77113767D01*
X125856199Y-75539634D01*
X125856198Y-75539631D01*
X125856198Y-75539626D01*
X125841434Y-75465399D01*
X125785183Y-75381215D01*
X125701002Y-75324966D01*
X125626767Y-75310200D01*
X124052636Y-75310200D01*
X124052626Y-75310201D01*
X123978399Y-75324965D01*
X123894215Y-75381216D01*
X123837966Y-75465397D01*
X123823200Y-75539630D01*
X115696199Y-75539630D01*
X115681434Y-75465399D01*
X115625183Y-75381215D01*
X115541002Y-75324966D01*
X115466767Y-75310200D01*
X113892636Y-75310200D01*
X113892626Y-75310201D01*
X113818399Y-75324965D01*
X113734215Y-75381216D01*
X113677966Y-75465397D01*
X113663200Y-75539630D01*
X113663200Y-76751386D01*
X113643198Y-76819507D01*
X113626294Y-76840481D01*
X112165753Y-78301024D01*
X112130239Y-78336538D01*
X112094725Y-78372051D01*
X112094721Y-78372056D01*
X112044500Y-78459041D01*
X112018500Y-78556076D01*
X112018500Y-89389685D01*
X111998498Y-89457806D01*
X111981595Y-89478780D01*
X111451880Y-90008495D01*
X111389568Y-90042521D01*
X111362785Y-90045400D01*
X110274936Y-90045400D01*
X110274926Y-90045401D01*
X110200699Y-90060165D01*
X110116515Y-90116416D01*
X110060266Y-90200597D01*
X110045500Y-90274830D01*
X110045500Y-91364186D01*
X110025498Y-91432307D01*
X110008594Y-91453281D01*
X107566053Y-93895824D01*
X107530539Y-93931338D01*
X107495025Y-93966851D01*
X107495021Y-93966856D01*
X107444800Y-94053841D01*
X107418800Y-94150876D01*
X107418800Y-111140843D01*
X107418799Y-111140861D01*
X106234200Y-111140861D01*
X106234200Y-107499315D01*
X106234202Y-107436722D01*
X106234200Y-107436711D01*
X106234200Y-107436709D01*
X106220009Y-107365364D01*
X106210152Y-107315807D01*
X106209836Y-107314077D01*
X106209819Y-107314020D01*
X106209540Y-107313357D01*
X106180850Y-107244093D01*
X106180849Y-107244091D01*
X106161915Y-107198378D01*
X106161879Y-107198290D01*
X106161876Y-107198285D01*
X106161873Y-107198278D01*
X106161873Y-107198277D01*
X106119812Y-107135328D01*
X106119812Y-107135327D01*
X106119810Y-107135326D01*
X106092333Y-107094202D01*
X106092329Y-107094198D01*
X106092325Y-107094192D01*
X106042567Y-107044434D01*
X104673193Y-105675005D01*
X103596192Y-104597960D01*
X103596162Y-104597928D01*
X103550584Y-104552351D01*
X103550582Y-104552348D01*
X103550582Y-104552349D01*
X103504518Y-104506283D01*
X103504517Y-104506282D01*
X103504513Y-104506278D01*
X103453094Y-104471921D01*
X103453093Y-104471920D01*
X103400429Y-104436730D01*
X103331274Y-104408084D01*
X103331273Y-104408084D01*
X103285374Y-104389071D01*
X103284812Y-104388834D01*
X103284782Y-104388824D01*
X103238560Y-104379630D01*
X103222870Y-104376509D01*
X103222868Y-104376508D01*
X103222867Y-104376508D01*
X103192022Y-104370372D01*
X103162004Y-104364401D01*
X103161998Y-104364400D01*
X103161997Y-104364400D01*
X103161996Y-104364400D01*
X103161991Y-104364400D01*
X103099413Y-104364400D01*
X103036822Y-104364399D01*
X103036821Y-104364399D01*
X103030610Y-104364399D01*
X103030590Y-104364400D01*
X100626400Y-104364400D01*
X100558279Y-104344398D01*
X100511786Y-104290742D01*
X100500400Y-104238400D01*
X100500400Y-70259604D01*
X100520402Y-70191483D01*
X100537305Y-70170509D01*
X110170409Y-60537405D01*
X110232721Y-60503379D01*
X110259504Y-60500500D01*
X189740297Y-60500500D01*
X189808418Y-60520502D01*
G37*
%TD.AperFunction*%
%TD*%
M02*
