%TF.GenerationSoftware,KiCad,Pcbnew,10.0.6*%
%TF.CreationDate,2026-09-23T18:20:02+08:00*%
%TF.ProjectId,Analog_Throttle_Module,416e616c-6f67-45f5-9468-726f74746c65,1.7*%
%TF.SameCoordinates,Original*%
%TF.FileFunction,Copper,L2,Bot*%
%TF.FilePolarity,Positive*%
%FSLAX46Y46*%
G04 Gerber Fmt 4.6, Leading zero omitted, Abs format (unit mm)*
G04 Created by KiCad (PCBNEW 10.0.6) date 2026-09-23 18:20:02*
%MOMM*%
%LPD*%
G01*
G04 APERTURE LIST*
%TA.AperFunction,ComponentPad*%
%ADD10R,1.000000X1.000000*%
%TD*%
%TA.AperFunction,ComponentPad*%
%ADD11R,1.600200X1.600200*%
%TD*%
%TA.AperFunction,ComponentPad*%
%ADD12R,1.400000X1.400000*%
%TD*%
%TA.AperFunction,ComponentPad*%
%ADD13R,1.524000X1.524000*%
%TD*%
%TA.AperFunction,ComponentPad*%
%ADD14R,3.000000X3.000000*%
%TD*%
%TA.AperFunction,ComponentPad*%
%ADD15R,1.300000X1.300000*%
%TD*%
%TA.AperFunction,ComponentPad*%
%ADD16R,1.400000X1.399900*%
%TD*%
%TA.AperFunction,ComponentPad*%
%ADD17R,1.600000X1.600000*%
%TD*%
%TA.AperFunction,ComponentPad*%
%ADD18R,1.300000X1.300100*%
%TD*%
%TA.AperFunction,ViaPad*%
%ADD19C,0.609600*%
%TD*%
%TA.AperFunction,Conductor*%
%ADD20C,0.254000*%
%TD*%
%TA.AperFunction,Conductor*%
%ADD21C,0.762000*%
%TD*%
G04 APERTURE END LIST*
D10*
%TO.P,WP44,1*%
%TO.N,N/C*%
X143501800Y-137253800D03*
%TD*%
%TO.P,WP39,1*%
%TO.N,N/C*%
X143501800Y-151253800D03*
%TD*%
D11*
%TO.P,TP_+5V,1*%
%TO.N,+5V*%
X118960100Y-127000100D03*
%TD*%
D12*
%TO.P,TP_+5V,1*%
%TO.N,+5V*%
X151999900Y-121500000D03*
%TD*%
%TO.P,TP_RESETTRIM,1*%
%TO.N,RESETTRIM*%
X111000000Y-90999900D03*
%TD*%
%TO.P,TP_GND,1*%
%TO.N,GND*%
X137250100Y-110999900D03*
%TD*%
D13*
%TO.P,C4,1*%
%TO.N,GND*%
X151456100Y-134650600D03*
%TO.P,C4,2*%
%TO.N,+5V*%
X151456100Y-129650700D03*
%TD*%
D11*
%TO.P,TP_CRUISE,8*%
%TO.N,CRUISE*%
X134240000Y-119399900D03*
%TD*%
D14*
%TO.P,TP_THROTTLE,1*%
%TO.N,THROTTLE*%
X102700000Y-141099900D03*
%TD*%
D13*
%TO.P,R6,1*%
%TO.N,GND*%
X124839700Y-76326700D03*
%TO.P,R6,2*%
%TO.N,RESETTRIM*%
X114679700Y-76326700D03*
%TD*%
D10*
%TO.P,WP24,1*%
%TO.N,N/C*%
X143502100Y-145253800D03*
%TD*%
D11*
%TO.P,TP_AXIS2,11*%
%TO.N,AXIS2*%
X126620000Y-119399900D03*
%TD*%
D15*
%TO.P,WP51,1*%
%TO.N,SCL*%
X141501800Y-149253800D03*
%TD*%
%TO.P,WP50,1*%
%TO.N,RESET*%
X141501800Y-147253800D03*
%TD*%
D16*
%TO.P,TP_+5V,1*%
%TO.N,+5V*%
X137250100Y-85000000D03*
%TD*%
D14*
%TO.P,TP_GND,1*%
%TO.N,GND*%
X102700000Y-146299800D03*
%TD*%
D13*
%TO.P,R2,1*%
%TO.N,GND*%
X190580200Y-141415600D03*
%TO.P,R2,2*%
%TO.N,MODE2*%
X190580200Y-151575600D03*
%TD*%
D12*
%TO.P,TP_AXIS2,1*%
%TO.N,AXIS2*%
X132250100Y-97999900D03*
%TD*%
%TO.P,TP_AXIS3,1*%
%TO.N,AXIS3*%
X179000100Y-122000100D03*
%TD*%
%TO.P,TP_TRIM,1*%
%TO.N,TRIM*%
X161000100Y-121500000D03*
%TD*%
%TO.P,TP_GND,1*%
%TO.N,GND*%
X183000100Y-122000100D03*
%TD*%
%TO.P,TP_MODE2,1*%
%TO.N,MODE2*%
X178749900Y-154749900D03*
%TD*%
D11*
%TO.P,TP_AREF,13*%
%TO.N,AREF*%
X121540000Y-119399900D03*
%TD*%
%TO.P,TP_SDA,7*%
%TO.N,SDA*%
X134199800Y-126999900D03*
%TD*%
D10*
%TO.P,WP25,1*%
%TO.N,N/C*%
X143502100Y-143253800D03*
%TD*%
D12*
%TO.P,TP_MODE1,1*%
%TO.N,MODE1*%
X178749900Y-135999800D03*
%TD*%
%TO.P,TP_+5V,1*%
%TO.N,+5V*%
X111000000Y-83000000D03*
%TD*%
%TO.P,TP_+5V,1*%
%TO.N,+5V*%
X111000000Y-100999900D03*
%TD*%
D17*
%TO.P,U4,1*%
%TO.N,LATCH(G)*%
X154709800Y-135809900D03*
%TO.P,U4,2*%
%TO.N,CLOCK(Y)*%
X157249800Y-135809900D03*
%TO.P,U4,3*%
%TO.N,MODE2*%
X159789800Y-135809900D03*
%TO.P,U4,4*%
%TO.N,TRANS*%
X162329800Y-135809900D03*
%TO.P,U4,5*%
%TO.N,GND*%
X164869800Y-135809900D03*
%TO.P,U4,6*%
X167409800Y-135809900D03*
%TO.P,U4,7*%
%TO.N,N/C*%
X169949800Y-135809900D03*
%TO.P,U4,8*%
%TO.N,GND*%
X172489800Y-135809900D03*
%TO.P,U4,9*%
%TO.N,DATA(P)*%
X172489800Y-128189900D03*
%TO.P,U4,10*%
%TO.N,N/C*%
X169949800Y-128189900D03*
%TO.P,U4,11*%
%TO.N,TRIM*%
X167409800Y-128189900D03*
%TO.P,U4,12*%
%TO.N,RESETTRIM*%
X164869800Y-128189900D03*
%TO.P,U4,13*%
%TO.N,BRAKES*%
X162329800Y-128189900D03*
%TO.P,U4,14*%
%TO.N,MODE1*%
X159789800Y-128189900D03*
%TO.P,U4,15*%
%TO.N,GND*%
X157249800Y-128189900D03*
%TO.P,U4,16*%
%TO.N,+5V*%
X154709800Y-128189900D03*
%TD*%
D11*
%TO.P,TP_RESET,4*%
%TO.N,RESET*%
X126579800Y-126999900D03*
%TD*%
%TO.P,TP_THROTTLE,6*%
%TO.N,THROTTLE*%
X131659800Y-126999900D03*
%TD*%
%TO.P,TP_CLOCK_Y_,3*%
%TO.N,CLOCK(Y)*%
X124039800Y-126999900D03*
%TD*%
D12*
%TO.P,TP_AXIS1,1*%
%TO.N,AXIS1*%
X166000100Y-64000000D03*
%TD*%
D13*
%TO.P,C-MAIN,1*%
%TO.N,+5V*%
X146772300Y-127253400D03*
%TO.P,C-MAIN,2*%
%TO.N,GND*%
X144232300Y-127253400D03*
%TD*%
D12*
%TO.P,TP_+5V,1*%
%TO.N,+5V*%
X179000100Y-69000000D03*
%TD*%
%TO.P,TP_+5V,1*%
%TO.N,+5V*%
X157000100Y-152499900D03*
%TD*%
D11*
%TO.P,TP_DATA_P_,5*%
%TO.N,DATA(P)*%
X129119800Y-126999900D03*
%TD*%
%TO.P,TP_SCL,9*%
%TO.N,SCL*%
X131700000Y-119399900D03*
%TD*%
D15*
%TO.P,WP45,1*%
%TO.N,GND*%
X141501800Y-137253800D03*
%TD*%
%TO.P,WP52,1*%
%TO.N,SDA*%
X141501800Y-151253800D03*
%TD*%
D11*
%TO.P,TP_GND,14*%
%TO.N,GND*%
X119000000Y-119399900D03*
%TD*%
D10*
%TO.P,WP47,1*%
%TO.N,N/C*%
X141501800Y-141253800D03*
%TD*%
D13*
%TO.P,C1,1*%
%TO.N,GND*%
X114943900Y-120749200D03*
%TO.P,C1,2*%
%TO.N,+5V*%
X114943900Y-125749200D03*
%TD*%
%TO.P,R5,1*%
%TO.N,GND*%
X125089600Y-96077600D03*
%TO.P,R5,2*%
%TO.N,BRAKES*%
X114929600Y-96077600D03*
%TD*%
D10*
%TO.P,WP49,1*%
%TO.N,N/C*%
X141501800Y-145253800D03*
%TD*%
D11*
%TO.P,TP_LATCH_G_,2*%
%TO.N,LATCH(G)*%
X121499800Y-126999900D03*
%TD*%
D13*
%TO.P,R3,1*%
%TO.N,GND*%
X189592900Y-133079300D03*
%TO.P,R3,2*%
%TO.N,MODE1*%
X179432900Y-133079300D03*
%TD*%
D11*
%TO.P,TP_AXIS1,12*%
%TO.N,AXIS1*%
X124080000Y-119399900D03*
%TD*%
D13*
%TO.P,R4,1*%
%TO.N,GND*%
X171342000Y-124079100D03*
%TO.P,R4,2*%
%TO.N,TRIM*%
X161182000Y-124079100D03*
%TD*%
D12*
%TO.P,TP_+5V,1*%
%TO.N,+5V*%
X175000100Y-122000100D03*
%TD*%
%TO.P,TP_BRAKES,1*%
%TO.N,BRAKES*%
X111000000Y-108999900D03*
%TD*%
%TO.P,TP_+5V,1*%
%TO.N,+5V*%
X185999800Y-144500000D03*
%TD*%
D14*
%TO.P,TP_+5V,1*%
%TO.N,+5V*%
X102700000Y-136299800D03*
%TD*%
D10*
%TO.P,WP38,1*%
%TO.N,N/C*%
X143502100Y-147253800D03*
%TD*%
D13*
%TO.P,R1,1*%
%TO.N,GND*%
X154914300Y-155428800D03*
%TO.P,R1,2*%
%TO.N,TRANS*%
X165074300Y-155428800D03*
%TD*%
D10*
%TO.P,WP53,1*%
%TO.N,N/C*%
X143501800Y-149253800D03*
%TD*%
%TO.P,WP11,1*%
%TO.N,N/C*%
X143502100Y-141253800D03*
%TD*%
D12*
%TO.P,TP_GND,1*%
%TO.N,GND*%
X152999900Y-69000000D03*
%TD*%
D10*
%TO.P,WP48,1*%
%TO.N,N/C*%
X141501800Y-143253800D03*
%TD*%
D11*
%TO.P,TP_AXIS3,10*%
%TO.N,AXIS3*%
X129160000Y-119399900D03*
%TD*%
D10*
%TO.P,WP43,1*%
%TO.N,N/C*%
X143501800Y-139253600D03*
%TD*%
D12*
%TO.P,TP_TRANS,1*%
%TO.N,TRANS*%
X165000100Y-152499900D03*
%TD*%
D18*
%TO.P,WP46,1*%
%TO.N,+5V*%
X141501800Y-139253600D03*
%TD*%
D19*
%TO.N,RESETTRIM*%
X133999900Y-123199800D03*
X144800000Y-122199800D03*
%TO.N,LATCH(G)*%
X143800000Y-131999900D03*
%TO.N,CLOCK(Y)*%
X142999900Y-132999900D03*
%TO.N,DATA(P)*%
X146800000Y-133999900D03*
%TO.N,BRAKES*%
X131400000Y-113999900D03*
%TO.N,GUARD2*%
X199399900Y-105002700D03*
X199399900Y-114999900D03*
%TO.N,GUARD1*%
X100599900Y-114997400D03*
X100599900Y-104999900D03*
%TO.N,S$43552*%
X103808200Y-149740000D03*
X100700000Y-143699900D03*
X104046200Y-143734100D03*
%TD*%
%TO.N,RESETTRIM*%
D20*
X134999900Y-122199900D02*
X144799900Y-122199900D01*
X133999900Y-123199900D02*
X134999900Y-122199900D01*
%TO.N,RESET*%
X141501100Y-147254100D02*
X126598900Y-132351900D01*
X126598900Y-132351900D02*
X126581100Y-127000100D01*
%TO.N,AXIS3*%
X145001200Y-120800000D02*
X130200600Y-120800000D01*
X150599300Y-126400700D02*
X145001200Y-120800000D01*
X130200600Y-120800000D02*
X129159200Y-119761100D01*
X178999100Y-121998900D02*
X174599800Y-126400700D01*
X174599800Y-126400700D02*
X150599300Y-126400700D01*
X129159200Y-119761100D02*
X129159200Y-119400400D01*
%TO.N,MODE1*%
X159789100Y-128389500D02*
X159789100Y-128188800D01*
X178353900Y-131998800D02*
X163400900Y-131998800D01*
X163400900Y-131998800D02*
X159789100Y-128389500D01*
X179433400Y-133078300D02*
X178353900Y-131998800D01*
%TO.N,LATCH(G)*%
X123401000Y-124599800D02*
X121501100Y-126499700D01*
X121501100Y-126499700D02*
X121501100Y-127000100D01*
X136400700Y-124599800D02*
X123401000Y-124599800D01*
X143799800Y-131998800D02*
X136400700Y-124599800D01*
%TO.N,CLOCK(Y)*%
X125400000Y-125199300D02*
X124041100Y-126560700D01*
X142999700Y-132999600D02*
X135199300Y-125199300D01*
X124041100Y-126560700D02*
X124041100Y-127000100D01*
X135199300Y-125199300D02*
X125400000Y-125199300D01*
%TO.N,TRANS*%
X165001100Y-152499200D02*
X167000100Y-150500200D01*
X167000100Y-140479900D02*
X162329100Y-135808800D01*
X167000100Y-150500200D02*
X167000100Y-140479900D01*
%TO.N,DATA(P)*%
X146799500Y-134000400D02*
X135740300Y-134000400D01*
X129121100Y-127378600D02*
X129121100Y-127000100D01*
X135740300Y-134000400D02*
X129121100Y-127378600D01*
%TO.N,BRAKES*%
X111000000Y-108999900D02*
X111000000Y-111999900D01*
X112999900Y-113999900D02*
X126999900Y-113999900D01*
X131400000Y-113999900D02*
X131400000Y-113999900D01*
X111000000Y-111999900D02*
X112999900Y-113999900D01*
X126999900Y-113999900D02*
X131400000Y-113999900D01*
%TO.N,GUARD2*%
D21*
X194401100Y-112500600D02*
X194401100Y-107499400D01*
X196900500Y-114999900D02*
X194401100Y-112500600D01*
X199399800Y-114999900D02*
X196900500Y-114999900D01*
X194401100Y-107499400D02*
X196897900Y-105002600D01*
X196897900Y-105002600D02*
X199399800Y-105002600D01*
%TO.N,GUARD1*%
X100600000Y-104999900D02*
X103099400Y-104999900D01*
X105598700Y-107499300D02*
X105598700Y-112500500D01*
X103099400Y-104999900D02*
X105598700Y-107499300D01*
X105598700Y-112500500D02*
X103101900Y-114997300D01*
X103101900Y-114997300D02*
X100600000Y-114997300D01*
%TO.N,S$43552*%
D20*
X104106000Y-143699900D02*
X100700000Y-143699900D01*
X104079600Y-143731500D02*
X104072100Y-143742200D01*
X104122900Y-143716700D02*
X104106000Y-143699900D01*
X104046200Y-143734000D02*
X104079600Y-143731500D01*
X104072100Y-143742200D02*
X104122900Y-143716700D01*
%TD*%
%TA.AperFunction,Conductor*%
%TO.N,GND*%
G36*
X189808418Y-60520502D02*
G01*
X189829392Y-60537404D01*
X199246583Y-69954500D01*
X199462495Y-70170409D01*
X199496520Y-70232721D01*
X199499400Y-70259505D01*
X199499400Y-104241100D01*
X199479398Y-104309221D01*
X199425742Y-104355714D01*
X199373400Y-104367100D01*
X196835306Y-104367100D01*
X196712530Y-104391522D01*
X196712525Y-104391524D01*
X196596877Y-104439427D01*
X196492796Y-104508972D01*
X196492789Y-104508977D01*
X193907477Y-107094289D01*
X193907472Y-107094296D01*
X193837927Y-107198377D01*
X193790024Y-107314025D01*
X193790022Y-107314030D01*
X193765600Y-107436806D01*
X193765600Y-112432805D01*
X193765599Y-112432831D01*
X193765600Y-112500613D01*
X193765600Y-112563197D01*
X193777709Y-112624070D01*
X193790024Y-112685982D01*
X193790034Y-112686012D01*
X193790271Y-112686574D01*
X193809284Y-112732473D01*
X193809284Y-112732474D01*
X193816751Y-112750500D01*
X193837927Y-112801622D01*
X193837930Y-112801627D01*
X193837933Y-112801633D01*
X193873121Y-112854294D01*
X193907478Y-112905713D01*
X193907482Y-112905717D01*
X193907483Y-112905718D01*
X193957250Y-112955483D01*
X193995992Y-112994225D01*
X193999144Y-112997377D01*
X193999160Y-112997392D01*
X195346221Y-114344398D01*
X196445634Y-115443767D01*
X196495392Y-115493525D01*
X196495398Y-115493529D01*
X196495402Y-115493533D01*
X196532895Y-115518584D01*
X196599478Y-115563073D01*
X196599480Y-115563074D01*
X196599482Y-115563075D01*
X196599486Y-115563076D01*
X196599490Y-115563079D01*
X196648805Y-115583505D01*
X196648807Y-115583506D01*
X196714559Y-115610741D01*
X196715218Y-115611019D01*
X196715275Y-115611036D01*
X196717019Y-115611354D01*
X196801957Y-115628248D01*
X196837909Y-115635400D01*
X196837912Y-115635400D01*
X196837922Y-115635402D01*
X196921377Y-115635400D01*
X199373400Y-115635400D01*
X199441521Y-115655402D01*
X199488014Y-115709058D01*
X199499400Y-115761400D01*
X199499400Y-149740496D01*
X199479398Y-149808617D01*
X199462495Y-149829591D01*
X194650353Y-154641732D01*
X194650353Y-154641733D01*
X189829594Y-159462396D01*
X189767281Y-159496421D01*
X189740499Y-159499300D01*
X110259410Y-159499300D01*
X110191289Y-159479298D01*
X110170338Y-159462419D01*
X105430117Y-154724662D01*
X105353487Y-154648072D01*
X105353461Y-154648046D01*
X105347145Y-154641730D01*
X164057800Y-154641730D01*
X164057800Y-156215863D01*
X164057801Y-156215873D01*
X164072565Y-156290100D01*
X164128816Y-156374284D01*
X164212997Y-156430533D01*
X164212999Y-156430534D01*
X164287233Y-156445300D01*
X165861366Y-156445299D01*
X165861369Y-156445298D01*
X165861373Y-156445298D01*
X165910626Y-156435501D01*
X165935601Y-156430534D01*
X166019784Y-156374284D01*
X166076034Y-156290101D01*
X166090800Y-156215867D01*
X166090799Y-154641734D01*
X166090799Y-154641732D01*
X166090798Y-154641726D01*
X166076034Y-154567499D01*
X166019783Y-154483315D01*
X165935602Y-154427066D01*
X165861367Y-154412300D01*
X164287236Y-154412300D01*
X164287226Y-154412301D01*
X164212999Y-154427065D01*
X164128815Y-154483316D01*
X164072566Y-154567497D01*
X164057800Y-154641730D01*
X105347145Y-154641730D01*
X104813183Y-154107736D01*
X104730282Y-154024830D01*
X177795400Y-154024830D01*
X177795400Y-155474963D01*
X177795401Y-155474973D01*
X177810165Y-155549200D01*
X177866416Y-155633384D01*
X177950597Y-155689633D01*
X177950599Y-155689634D01*
X178024833Y-155704400D01*
X179474966Y-155704399D01*
X179474969Y-155704398D01*
X179474973Y-155704398D01*
X179524226Y-155694601D01*
X179549201Y-155689634D01*
X179633384Y-155633384D01*
X179689634Y-155549201D01*
X179704400Y-155474967D01*
X179704399Y-154024834D01*
X179704398Y-154024830D01*
X179704398Y-154024826D01*
X179689634Y-153950599D01*
X179633383Y-153866415D01*
X179549202Y-153810166D01*
X179474967Y-153795400D01*
X178024836Y-153795400D01*
X178024826Y-153795401D01*
X177950599Y-153810165D01*
X177866415Y-153866416D01*
X177810166Y-153950597D01*
X177795400Y-154024830D01*
X104730282Y-154024830D01*
X104730278Y-154024826D01*
X100537399Y-149831696D01*
X100503377Y-149769385D01*
X100500498Y-149742612D01*
X100500484Y-144385198D01*
X100520486Y-144317080D01*
X100574141Y-144270587D01*
X100626484Y-144259200D01*
X100773631Y-144259200D01*
X100773633Y-144259200D01*
X100915882Y-144221084D01*
X101043418Y-144147451D01*
X101046865Y-144144004D01*
X101072565Y-144118305D01*
X101134877Y-144084279D01*
X101161660Y-144081400D01*
X103550341Y-144081400D01*
X103618462Y-144101402D01*
X103639431Y-144118300D01*
X103702782Y-144181651D01*
X103830318Y-144255284D01*
X103936214Y-144283659D01*
X103996833Y-144320608D01*
X104027855Y-144384469D01*
X104029600Y-144405364D01*
X104029600Y-149056478D01*
X104009598Y-149124599D01*
X103955942Y-149171092D01*
X103887157Y-149181400D01*
X103881839Y-149180700D01*
X103881833Y-149180700D01*
X103734567Y-149180700D01*
X103639734Y-149206110D01*
X103592317Y-149218816D01*
X103464785Y-149292446D01*
X103464775Y-149292454D01*
X103360654Y-149396575D01*
X103360646Y-149396585D01*
X103287016Y-149524117D01*
X103248900Y-149666368D01*
X103248900Y-149813631D01*
X103248899Y-149813631D01*
X103287016Y-149955882D01*
X103360646Y-150083414D01*
X103360654Y-150083424D01*
X103464775Y-150187545D01*
X103464780Y-150187549D01*
X103464782Y-150187551D01*
X103464783Y-150187552D01*
X103464785Y-150187553D01*
X103492429Y-150203513D01*
X103592318Y-150261184D01*
X103734567Y-150299300D01*
X103734569Y-150299300D01*
X103881832Y-150299300D01*
X103881833Y-150299300D01*
X103987359Y-150271024D01*
X104058334Y-150272713D01*
X104117130Y-150312506D01*
X104129087Y-150329725D01*
X104129600Y-150330614D01*
X104163052Y-150364066D01*
X104222783Y-150423798D01*
X104336911Y-150489691D01*
X104336913Y-150489691D01*
X104336914Y-150489692D01*
X104361881Y-150496381D01*
X104464205Y-150523800D01*
X118867286Y-150523894D01*
X118874830Y-150524123D01*
X119183261Y-150542780D01*
X119203424Y-150544000D01*
X119203425Y-150544000D01*
X119777576Y-150544000D01*
X119837703Y-150540362D01*
X120350677Y-150509333D01*
X120350685Y-150509332D01*
X120350687Y-150509332D01*
X120572729Y-150482370D01*
X120920640Y-150440127D01*
X121485385Y-150336634D01*
X122042851Y-150199231D01*
X122591004Y-150028420D01*
X123127843Y-149824823D01*
X123651410Y-149589185D01*
X124159795Y-149322364D01*
X124651141Y-149025335D01*
X125123657Y-148699181D01*
X125575618Y-148345092D01*
X126005375Y-147964360D01*
X126411360Y-147558375D01*
X126792092Y-147128618D01*
X127146181Y-146676657D01*
X127472335Y-146204141D01*
X127769364Y-145712795D01*
X128036185Y-145204410D01*
X128271823Y-144680843D01*
X128475420Y-144144004D01*
X128646231Y-143595851D01*
X128783634Y-143038385D01*
X128887127Y-142473640D01*
X128929370Y-142125729D01*
X128956332Y-141903687D01*
X128956332Y-141903685D01*
X128956331Y-141903685D01*
X128956333Y-141903677D01*
X128991000Y-141330575D01*
X128991000Y-140756425D01*
X128989324Y-140728726D01*
X128976340Y-140514066D01*
X128956333Y-140183323D01*
X128953276Y-140158150D01*
X128887128Y-139613370D01*
X128887127Y-139613363D01*
X128887127Y-139613360D01*
X128783634Y-139048615D01*
X128646231Y-138491149D01*
X128475420Y-137942996D01*
X128271823Y-137406157D01*
X128036185Y-136882590D01*
X128026637Y-136864398D01*
X127769365Y-136374206D01*
X127472340Y-135882867D01*
X127472331Y-135882853D01*
X127146183Y-135410346D01*
X127146181Y-135410343D01*
X126792092Y-134958382D01*
X126411360Y-134528625D01*
X126411358Y-134528623D01*
X126411351Y-134528615D01*
X126005384Y-134122648D01*
X125975077Y-134095798D01*
X125575618Y-133741908D01*
X125123657Y-133387819D01*
X125059195Y-133343324D01*
X124651146Y-133061668D01*
X124651132Y-133061659D01*
X124159793Y-132764634D01*
X123651415Y-132497817D01*
X123651413Y-132497816D01*
X123127861Y-132262185D01*
X123127857Y-132262183D01*
X123127843Y-132262177D01*
X123127829Y-132262171D01*
X123127813Y-132262165D01*
X122591005Y-132058580D01*
X122042855Y-131887770D01*
X121815926Y-131831837D01*
X121485385Y-131750366D01*
X121485381Y-131750365D01*
X121485376Y-131750364D01*
X120920636Y-131646872D01*
X120920629Y-131646871D01*
X120350686Y-131577667D01*
X119777576Y-131543000D01*
X119777575Y-131543000D01*
X119687146Y-131543000D01*
X119654547Y-131538710D01*
X119596242Y-131523093D01*
X119596241Y-131523093D01*
X104528462Y-131524500D01*
X104464183Y-131524500D01*
X104398610Y-131542076D01*
X104398602Y-131542078D01*
X104349517Y-131555230D01*
X104349514Y-131555231D01*
X104336914Y-131558608D01*
X104336893Y-131558619D01*
X104336870Y-131558626D01*
X104280699Y-131591063D01*
X104222786Y-131624500D01*
X104222767Y-131624518D01*
X104222749Y-131624529D01*
X104176160Y-131671126D01*
X104129600Y-131717686D01*
X104129589Y-131717704D01*
X104129571Y-131717723D01*
X104123050Y-131729018D01*
X104123047Y-131729022D01*
X104096121Y-131775671D01*
X104096116Y-131775679D01*
X104063697Y-131831831D01*
X104047155Y-131893591D01*
X104047152Y-131893601D01*
X104029597Y-131959118D01*
X104029593Y-131959147D01*
X104029600Y-132025046D01*
X104029600Y-134419300D01*
X104009598Y-134487421D01*
X103955942Y-134533914D01*
X103903600Y-134545300D01*
X101174936Y-134545300D01*
X101174926Y-134545301D01*
X101100699Y-134560065D01*
X101016515Y-134616316D01*
X100960266Y-134700497D01*
X100945500Y-134774730D01*
X100945500Y-137824863D01*
X100945501Y-137824872D01*
X100960265Y-137899100D01*
X101016516Y-137983284D01*
X101100697Y-138039533D01*
X101100699Y-138039534D01*
X101174933Y-138054300D01*
X103903600Y-138054299D01*
X103971721Y-138074301D01*
X104018214Y-138127957D01*
X104029600Y-138180299D01*
X104029600Y-139219400D01*
X104009598Y-139287521D01*
X103955942Y-139334014D01*
X103903600Y-139345400D01*
X101174936Y-139345400D01*
X101174926Y-139345401D01*
X101100699Y-139360165D01*
X101016515Y-139416416D01*
X100960266Y-139500597D01*
X100945500Y-139574830D01*
X100945500Y-142624963D01*
X100945501Y-142624972D01*
X100960265Y-142699200D01*
X101016516Y-142783384D01*
X101100697Y-142839633D01*
X101100699Y-142839634D01*
X101174933Y-142854400D01*
X103903600Y-142854399D01*
X103971721Y-142874401D01*
X104018214Y-142928057D01*
X104029600Y-142980399D01*
X104029600Y-143062835D01*
X104009598Y-143130956D01*
X103955942Y-143177449D01*
X103936218Y-143184539D01*
X103881148Y-143199295D01*
X103830316Y-143212916D01*
X103702785Y-143286546D01*
X103696230Y-143291577D01*
X103694204Y-143288937D01*
X103645523Y-143315521D01*
X103618740Y-143318400D01*
X101161660Y-143318400D01*
X101093539Y-143298398D01*
X101072565Y-143281495D01*
X101043424Y-143252354D01*
X101043414Y-143252346D01*
X100915882Y-143178716D01*
X100773633Y-143140600D01*
X100626482Y-143140600D01*
X100558361Y-143120598D01*
X100511868Y-143066942D01*
X100500482Y-143014600D01*
X100500435Y-124962130D01*
X113927400Y-124962130D01*
X113927400Y-126536263D01*
X113927401Y-126536273D01*
X113942165Y-126610500D01*
X113998416Y-126694684D01*
X114082597Y-126750933D01*
X114082599Y-126750934D01*
X114156833Y-126765700D01*
X115730966Y-126765699D01*
X115730969Y-126765698D01*
X115730973Y-126765698D01*
X115780226Y-126755901D01*
X115805201Y-126750934D01*
X115889384Y-126694684D01*
X115945634Y-126610501D01*
X115960400Y-126536267D01*
X115960400Y-126174930D01*
X117905500Y-126174930D01*
X117905500Y-127825263D01*
X117905501Y-127825273D01*
X117920265Y-127899500D01*
X117976516Y-127983684D01*
X118060697Y-128039933D01*
X118060699Y-128039934D01*
X118134933Y-128054700D01*
X119785266Y-128054699D01*
X119785269Y-128054698D01*
X119785273Y-128054698D01*
X119834526Y-128044901D01*
X119859501Y-128039934D01*
X119943684Y-127983684D01*
X119999934Y-127899501D01*
X120014700Y-127825267D01*
X120014699Y-126174934D01*
X120014659Y-126174734D01*
X120014658Y-126174730D01*
X120445200Y-126174730D01*
X120445200Y-127825063D01*
X120445201Y-127825073D01*
X120459965Y-127899300D01*
X120516216Y-127983484D01*
X120600397Y-128039733D01*
X120600399Y-128039734D01*
X120674633Y-128054500D01*
X122324966Y-128054499D01*
X122324969Y-128054498D01*
X122324973Y-128054498D01*
X122395485Y-128040473D01*
X122399201Y-128039734D01*
X122483384Y-127983484D01*
X122539634Y-127899301D01*
X122554400Y-127825067D01*
X122554399Y-126174734D01*
X122554398Y-126174731D01*
X122554398Y-126174726D01*
X122537213Y-126088327D01*
X122540466Y-126087679D01*
X122535025Y-126037129D01*
X122566797Y-125973638D01*
X122569876Y-125970445D01*
X123522119Y-125018202D01*
X123584429Y-124984179D01*
X123611212Y-124981300D01*
X124774776Y-124981300D01*
X124842897Y-125001302D01*
X124889390Y-125054958D01*
X124899494Y-125125232D01*
X124870000Y-125189812D01*
X124863958Y-125196307D01*
X124460207Y-125600802D01*
X124153259Y-125908314D01*
X124090978Y-125942396D01*
X124064082Y-125945300D01*
X123214636Y-125945300D01*
X123214626Y-125945301D01*
X123140399Y-125960065D01*
X123056215Y-126016316D01*
X122999966Y-126100497D01*
X122985200Y-126174730D01*
X122985200Y-127825063D01*
X122985201Y-127825073D01*
X122999965Y-127899300D01*
X123056216Y-127983484D01*
X123140397Y-128039733D01*
X123140399Y-128039734D01*
X123214633Y-128054500D01*
X124864966Y-128054499D01*
X124864969Y-128054498D01*
X124864973Y-128054498D01*
X124935485Y-128040473D01*
X124939201Y-128039734D01*
X125023384Y-127983484D01*
X125079634Y-127899301D01*
X125094400Y-127825067D01*
X125094399Y-126174734D01*
X125094399Y-126174733D01*
X125094399Y-126174731D01*
X125094399Y-126174730D01*
X125525200Y-126174730D01*
X125525200Y-127825063D01*
X125525201Y-127825073D01*
X125539965Y-127899300D01*
X125596216Y-127983484D01*
X125680397Y-128039733D01*
X125680399Y-128039734D01*
X125754633Y-128054500D01*
X126077522Y-128054499D01*
X126145642Y-128074501D01*
X126192135Y-128128156D01*
X126203521Y-128180080D01*
X126211031Y-130437763D01*
X126217400Y-132352581D01*
X126217400Y-132402158D01*
X126217475Y-132402712D01*
X126217546Y-132403242D01*
X126217562Y-132403371D01*
X126221933Y-132419468D01*
X126230578Y-132451307D01*
X126235615Y-132470103D01*
X126243403Y-132499170D01*
X126243567Y-132499561D01*
X126243744Y-132499987D01*
X126243881Y-132500318D01*
X126243890Y-132500334D01*
X126243891Y-132500336D01*
X126268848Y-132543233D01*
X126293624Y-132586147D01*
X126293626Y-132586149D01*
X126293637Y-132586168D01*
X126293936Y-132586555D01*
X126294216Y-132586918D01*
X126294394Y-132587151D01*
X126329584Y-132622107D01*
X126329880Y-132622403D01*
X140560395Y-146852917D01*
X140594421Y-146915229D01*
X140597300Y-146942012D01*
X140597300Y-147928863D01*
X140597301Y-147928873D01*
X140612065Y-148003100D01*
X140615539Y-148008299D01*
X140668316Y-148087284D01*
X140752499Y-148143534D01*
X140760732Y-148149035D01*
X140806259Y-148203513D01*
X140815106Y-148273956D01*
X140784465Y-148338000D01*
X140760732Y-148358565D01*
X140668314Y-148420317D01*
X140612066Y-148504497D01*
X140597300Y-148578730D01*
X140597300Y-149928863D01*
X140597301Y-149928873D01*
X140612065Y-150003100D01*
X140615539Y-150008299D01*
X140668316Y-150087284D01*
X140752499Y-150143534D01*
X140760732Y-150149035D01*
X140806259Y-150203513D01*
X140815106Y-150273956D01*
X140784465Y-150338000D01*
X140760732Y-150358565D01*
X140668314Y-150420317D01*
X140612066Y-150504497D01*
X140597300Y-150578730D01*
X140597300Y-151928863D01*
X140597301Y-151928873D01*
X140612065Y-152003100D01*
X140668316Y-152087284D01*
X140752497Y-152143533D01*
X140752499Y-152143534D01*
X140826733Y-152158300D01*
X142176866Y-152158299D01*
X142176869Y-152158298D01*
X142176873Y-152158298D01*
X142226126Y-152148501D01*
X142251101Y-152143534D01*
X142335284Y-152087284D01*
X142391534Y-152003101D01*
X142406300Y-151928867D01*
X142406299Y-150728730D01*
X142747300Y-150728730D01*
X142747300Y-151778863D01*
X142747301Y-151778873D01*
X142762065Y-151853100D01*
X142818316Y-151937284D01*
X142902497Y-151993533D01*
X142902499Y-151993534D01*
X142976733Y-152008300D01*
X144026866Y-152008299D01*
X144026869Y-152008298D01*
X144026873Y-152008298D01*
X144076126Y-151998501D01*
X144101101Y-151993534D01*
X144185284Y-151937284D01*
X144241534Y-151853101D01*
X144256300Y-151778867D01*
X144256300Y-151774830D01*
X156045600Y-151774830D01*
X156045600Y-153224963D01*
X156045601Y-153224973D01*
X156060365Y-153299200D01*
X156116616Y-153383384D01*
X156200797Y-153439633D01*
X156200799Y-153439634D01*
X156275033Y-153454400D01*
X157725166Y-153454399D01*
X157725169Y-153454398D01*
X157725173Y-153454398D01*
X157774426Y-153444601D01*
X157799401Y-153439634D01*
X157883584Y-153383384D01*
X157939834Y-153299201D01*
X157954600Y-153224967D01*
X157954599Y-151774834D01*
X157954598Y-151774830D01*
X157954598Y-151774826D01*
X157939834Y-151700599D01*
X157923158Y-151675642D01*
X157883584Y-151616416D01*
X157883583Y-151616415D01*
X157799402Y-151560166D01*
X157725167Y-151545400D01*
X156275036Y-151545400D01*
X156275026Y-151545401D01*
X156200799Y-151560165D01*
X156116615Y-151616416D01*
X156060366Y-151700597D01*
X156045600Y-151774830D01*
X144256300Y-151774830D01*
X144256299Y-150728734D01*
X144256298Y-150728730D01*
X144256298Y-150728726D01*
X144241534Y-150654499D01*
X144236826Y-150647453D01*
X144185284Y-150570316D01*
X144168500Y-150559101D01*
X144101102Y-150514066D01*
X144026867Y-150499300D01*
X142976736Y-150499300D01*
X142976726Y-150499301D01*
X142902499Y-150514065D01*
X142818315Y-150570316D01*
X142762066Y-150654497D01*
X142747300Y-150728730D01*
X142406299Y-150728730D01*
X142406299Y-150578734D01*
X142406298Y-150578730D01*
X142406298Y-150578726D01*
X142391534Y-150504499D01*
X142348521Y-150440127D01*
X142335284Y-150420316D01*
X142335283Y-150420315D01*
X142242867Y-150358563D01*
X142197340Y-150304086D01*
X142188493Y-150233643D01*
X142219134Y-150169599D01*
X142242868Y-150149034D01*
X142251098Y-150143534D01*
X142251101Y-150143534D01*
X142335284Y-150087284D01*
X142391534Y-150003101D01*
X142406300Y-149928867D01*
X142406299Y-148728730D01*
X142747300Y-148728730D01*
X142747300Y-149778863D01*
X142747301Y-149778873D01*
X142762065Y-149853100D01*
X142818316Y-149937284D01*
X142902497Y-149993533D01*
X142902499Y-149993534D01*
X142976733Y-150008300D01*
X144026866Y-150008299D01*
X144026869Y-150008298D01*
X144026873Y-150008298D01*
X144076126Y-149998501D01*
X144101101Y-149993534D01*
X144185284Y-149937284D01*
X144241534Y-149853101D01*
X144256300Y-149778867D01*
X144256299Y-148728734D01*
X144256298Y-148728730D01*
X144256298Y-148728726D01*
X144241534Y-148654499D01*
X144185283Y-148570315D01*
X144101102Y-148514066D01*
X144026867Y-148499300D01*
X142976736Y-148499300D01*
X142976726Y-148499301D01*
X142902499Y-148514065D01*
X142818315Y-148570316D01*
X142762066Y-148654497D01*
X142747300Y-148728730D01*
X142406299Y-148728730D01*
X142406299Y-148578734D01*
X142406298Y-148578730D01*
X142406298Y-148578726D01*
X142391534Y-148504499D01*
X142388060Y-148499300D01*
X142335284Y-148420316D01*
X142335283Y-148420315D01*
X142242867Y-148358563D01*
X142197340Y-148304086D01*
X142188493Y-148233643D01*
X142219134Y-148169599D01*
X142242868Y-148149034D01*
X142251098Y-148143534D01*
X142251101Y-148143534D01*
X142335284Y-148087284D01*
X142391534Y-148003101D01*
X142406300Y-147928867D01*
X142406299Y-146728730D01*
X142747600Y-146728730D01*
X142747600Y-147778863D01*
X142747601Y-147778873D01*
X142762365Y-147853100D01*
X142818616Y-147937284D01*
X142902797Y-147993533D01*
X142902799Y-147993534D01*
X142977033Y-148008300D01*
X144027166Y-148008299D01*
X144027169Y-148008298D01*
X144027173Y-148008298D01*
X144076426Y-147998501D01*
X144101401Y-147993534D01*
X144185584Y-147937284D01*
X144241834Y-147853101D01*
X144256600Y-147778867D01*
X144256599Y-146728734D01*
X144256598Y-146728730D01*
X144256598Y-146728726D01*
X144241834Y-146654499D01*
X144185583Y-146570315D01*
X144101402Y-146514066D01*
X144027167Y-146499300D01*
X142977036Y-146499300D01*
X142977026Y-146499301D01*
X142902799Y-146514065D01*
X142818615Y-146570316D01*
X142762366Y-146654497D01*
X142747600Y-146728730D01*
X142406299Y-146728730D01*
X142406299Y-146578734D01*
X142406298Y-146578731D01*
X142406298Y-146578726D01*
X142391534Y-146504499D01*
X142388060Y-146499300D01*
X142335284Y-146420316D01*
X142335283Y-146420315D01*
X142251102Y-146364066D01*
X142176869Y-146349300D01*
X142176867Y-146349300D01*
X141188012Y-146349300D01*
X141119891Y-146329298D01*
X141098917Y-146312395D01*
X141009916Y-146223394D01*
X140975890Y-146161082D01*
X140980955Y-146090267D01*
X141023502Y-146033431D01*
X141090022Y-146008620D01*
X141098986Y-146008299D01*
X142026866Y-146008299D01*
X142026869Y-146008298D01*
X142026873Y-146008298D01*
X142080985Y-145997535D01*
X142101101Y-145993534D01*
X142185284Y-145937284D01*
X142241534Y-145853101D01*
X142256300Y-145778867D01*
X142256299Y-144728734D01*
X142256299Y-144728733D01*
X142256299Y-144728731D01*
X142256299Y-144728730D01*
X142747600Y-144728730D01*
X142747600Y-145778863D01*
X142747601Y-145778873D01*
X142762365Y-145853100D01*
X142818616Y-145937284D01*
X142902797Y-145993533D01*
X142902799Y-145993534D01*
X142977033Y-146008300D01*
X144027166Y-146008299D01*
X144027169Y-146008298D01*
X144027173Y-146008298D01*
X144081285Y-145997535D01*
X144101401Y-145993534D01*
X144185584Y-145937284D01*
X144241834Y-145853101D01*
X144256600Y-145778867D01*
X144256599Y-144728734D01*
X144256598Y-144728731D01*
X144256598Y-144728726D01*
X144241834Y-144654499D01*
X144185583Y-144570315D01*
X144101402Y-144514066D01*
X144027167Y-144499300D01*
X142977036Y-144499300D01*
X142977026Y-144499301D01*
X142902799Y-144514065D01*
X142818615Y-144570316D01*
X142762366Y-144654497D01*
X142747600Y-144728730D01*
X142256299Y-144728730D01*
X142241534Y-144654499D01*
X142185283Y-144570315D01*
X142101102Y-144514066D01*
X142026867Y-144499300D01*
X140976736Y-144499300D01*
X140976726Y-144499301D01*
X140902499Y-144514065D01*
X140818315Y-144570316D01*
X140762066Y-144654497D01*
X140747300Y-144728730D01*
X140747300Y-145656588D01*
X140727298Y-145724709D01*
X140673642Y-145771202D01*
X140603368Y-145781306D01*
X140538788Y-145751812D01*
X140532205Y-145745683D01*
X137598161Y-142811638D01*
X137515253Y-142728730D01*
X140747300Y-142728730D01*
X140747300Y-143778863D01*
X140747301Y-143778873D01*
X140762065Y-143853100D01*
X140818316Y-143937284D01*
X140902497Y-143993533D01*
X140902499Y-143993534D01*
X140976733Y-144008300D01*
X142026866Y-144008299D01*
X142026869Y-144008298D01*
X142026873Y-144008298D01*
X142076126Y-143998501D01*
X142101101Y-143993534D01*
X142185284Y-143937284D01*
X142241534Y-143853101D01*
X142256300Y-143778867D01*
X142256299Y-142728734D01*
X142256299Y-142728733D01*
X142256299Y-142728731D01*
X142256299Y-142728730D01*
X142747600Y-142728730D01*
X142747600Y-143778863D01*
X142747601Y-143778873D01*
X142762365Y-143853100D01*
X142818616Y-143937284D01*
X142902797Y-143993533D01*
X142902799Y-143993534D01*
X142977033Y-144008300D01*
X144027166Y-144008299D01*
X144027169Y-144008298D01*
X144027173Y-144008298D01*
X144076426Y-143998501D01*
X144101401Y-143993534D01*
X144185584Y-143937284D01*
X144241834Y-143853101D01*
X144256600Y-143778867D01*
X144256599Y-142728734D01*
X144256598Y-142728731D01*
X144256598Y-142728726D01*
X144241834Y-142654499D01*
X144185583Y-142570315D01*
X144101402Y-142514066D01*
X144027167Y-142499300D01*
X142977036Y-142499300D01*
X142977026Y-142499301D01*
X142902799Y-142514065D01*
X142818615Y-142570316D01*
X142762366Y-142654497D01*
X142747600Y-142728730D01*
X142256299Y-142728730D01*
X142241534Y-142654499D01*
X142185283Y-142570315D01*
X142101102Y-142514066D01*
X142026867Y-142499300D01*
X140976736Y-142499300D01*
X140976726Y-142499301D01*
X140902499Y-142514065D01*
X140818315Y-142570316D01*
X140762066Y-142654497D01*
X140747300Y-142728730D01*
X137515253Y-142728730D01*
X135515253Y-140728730D01*
X140747300Y-140728730D01*
X140747300Y-141778863D01*
X140747301Y-141778873D01*
X140762065Y-141853100D01*
X140818316Y-141937284D01*
X140902497Y-141993533D01*
X140902499Y-141993534D01*
X140976733Y-142008300D01*
X142026866Y-142008299D01*
X142026869Y-142008298D01*
X142026873Y-142008298D01*
X142076126Y-141998501D01*
X142101101Y-141993534D01*
X142185284Y-141937284D01*
X142241534Y-141853101D01*
X142256300Y-141778867D01*
X142256299Y-140728734D01*
X142256299Y-140728733D01*
X142256299Y-140728731D01*
X142256299Y-140728730D01*
X142747600Y-140728730D01*
X142747600Y-141778863D01*
X142747601Y-141778873D01*
X142762365Y-141853100D01*
X142818616Y-141937284D01*
X142902797Y-141993533D01*
X142902799Y-141993534D01*
X142977033Y-142008300D01*
X144027166Y-142008299D01*
X144027169Y-142008298D01*
X144027173Y-142008298D01*
X144076426Y-141998501D01*
X144101401Y-141993534D01*
X144185584Y-141937284D01*
X144241834Y-141853101D01*
X144256600Y-141778867D01*
X144256599Y-140733908D01*
X151149300Y-140733908D01*
X151149300Y-149733908D01*
X151149300Y-149865692D01*
X151166227Y-149928866D01*
X151183407Y-149992983D01*
X151183410Y-149992990D01*
X151249297Y-150107110D01*
X151249305Y-150107120D01*
X151342479Y-150200294D01*
X151342484Y-150200298D01*
X151342486Y-150200300D01*
X151342487Y-150200301D01*
X151342489Y-150200302D01*
X151412771Y-150240879D01*
X151456614Y-150266192D01*
X151583908Y-150300300D01*
X151583910Y-150300300D01*
X165715690Y-150300300D01*
X165715692Y-150300300D01*
X165842986Y-150266192D01*
X165957114Y-150200300D01*
X166050300Y-150107114D01*
X166116192Y-149992986D01*
X166150300Y-149865692D01*
X166150300Y-140733908D01*
X166116192Y-140606614D01*
X166050300Y-140492486D01*
X166050297Y-140492483D01*
X166050294Y-140492479D01*
X165957120Y-140399305D01*
X165957110Y-140399297D01*
X165842990Y-140333410D01*
X165842987Y-140333409D01*
X165842986Y-140333408D01*
X165842984Y-140333407D01*
X165842983Y-140333407D01*
X165808873Y-140324267D01*
X165715692Y-140299300D01*
X151715692Y-140299300D01*
X151583908Y-140299300D01*
X151515694Y-140317577D01*
X151456616Y-140333407D01*
X151456609Y-140333410D01*
X151342489Y-140399297D01*
X151342479Y-140399305D01*
X151249305Y-140492479D01*
X151249299Y-140492488D01*
X151183410Y-140606609D01*
X151183408Y-140606614D01*
X151149300Y-140733908D01*
X144256599Y-140733908D01*
X144256599Y-140728734D01*
X144256598Y-140728731D01*
X144256598Y-140728726D01*
X144241834Y-140654499D01*
X144209838Y-140606614D01*
X144185584Y-140570316D01*
X144185583Y-140570315D01*
X144101402Y-140514066D01*
X144027167Y-140499300D01*
X142977036Y-140499300D01*
X142977026Y-140499301D01*
X142902799Y-140514065D01*
X142818615Y-140570316D01*
X142762366Y-140654497D01*
X142747600Y-140728730D01*
X142256299Y-140728730D01*
X142241534Y-140654499D01*
X142209538Y-140606614D01*
X142185284Y-140570316D01*
X142185283Y-140570315D01*
X142101102Y-140514066D01*
X142026867Y-140499300D01*
X140976736Y-140499300D01*
X140976726Y-140499301D01*
X140902499Y-140514065D01*
X140818315Y-140570316D01*
X140762066Y-140654497D01*
X140747300Y-140728730D01*
X135515253Y-140728730D01*
X133365003Y-138578480D01*
X140597300Y-138578480D01*
X140597300Y-139928713D01*
X140597301Y-139928723D01*
X140612065Y-140002950D01*
X140668316Y-140087134D01*
X140752497Y-140143383D01*
X140752499Y-140143384D01*
X140826733Y-140158150D01*
X142176866Y-140158149D01*
X142176869Y-140158148D01*
X142176873Y-140158148D01*
X142226126Y-140148351D01*
X142251101Y-140143384D01*
X142335284Y-140087134D01*
X142391534Y-140002951D01*
X142406300Y-139928717D01*
X142406299Y-138728530D01*
X142747300Y-138728530D01*
X142747300Y-139778663D01*
X142747301Y-139778673D01*
X142762065Y-139852900D01*
X142818316Y-139937084D01*
X142902497Y-139993333D01*
X142902499Y-139993334D01*
X142976733Y-140008100D01*
X144026866Y-140008099D01*
X144026869Y-140008098D01*
X144026873Y-140008098D01*
X144076126Y-139998301D01*
X144101101Y-139993334D01*
X144185284Y-139937084D01*
X144241534Y-139852901D01*
X144256300Y-139778667D01*
X144256299Y-138728534D01*
X144256298Y-138728530D01*
X144256298Y-138728526D01*
X144241534Y-138654299D01*
X144192022Y-138580200D01*
X144185284Y-138570116D01*
X144185283Y-138570115D01*
X144101102Y-138513866D01*
X144026867Y-138499100D01*
X142976736Y-138499100D01*
X142976726Y-138499101D01*
X142902499Y-138513865D01*
X142818315Y-138570116D01*
X142762066Y-138654297D01*
X142747300Y-138728530D01*
X142406299Y-138728530D01*
X142406299Y-138578484D01*
X142406298Y-138578480D01*
X142406298Y-138578476D01*
X142391534Y-138504249D01*
X142388094Y-138499101D01*
X142335284Y-138420066D01*
X142335283Y-138420065D01*
X142251102Y-138363816D01*
X142176867Y-138349050D01*
X140826736Y-138349050D01*
X140826726Y-138349051D01*
X140752499Y-138363815D01*
X140668315Y-138420066D01*
X140612066Y-138504247D01*
X140597300Y-138578480D01*
X133365003Y-138578480D01*
X131515253Y-136728730D01*
X142747300Y-136728730D01*
X142747300Y-137778863D01*
X142747301Y-137778873D01*
X142762065Y-137853100D01*
X142818316Y-137937284D01*
X142902497Y-137993533D01*
X142902499Y-137993534D01*
X142976733Y-138008300D01*
X144026866Y-138008299D01*
X144026869Y-138008298D01*
X144026873Y-138008298D01*
X144076126Y-137998501D01*
X144101101Y-137993534D01*
X144185284Y-137937284D01*
X144241534Y-137853101D01*
X144256300Y-137778867D01*
X144256299Y-136728734D01*
X144256298Y-136728730D01*
X144256298Y-136728726D01*
X144241534Y-136654499D01*
X144185283Y-136570315D01*
X144101102Y-136514066D01*
X144026867Y-136499300D01*
X142976736Y-136499300D01*
X142976726Y-136499301D01*
X142902499Y-136514065D01*
X142818315Y-136570316D01*
X142762066Y-136654497D01*
X142747300Y-136728730D01*
X131515253Y-136728730D01*
X129771353Y-134984830D01*
X153655300Y-134984830D01*
X153655300Y-136634963D01*
X153655301Y-136634973D01*
X153670065Y-136709200D01*
X153726316Y-136793384D01*
X153810497Y-136849633D01*
X153810499Y-136849634D01*
X153884733Y-136864400D01*
X155534866Y-136864399D01*
X155534869Y-136864398D01*
X155534873Y-136864398D01*
X155584126Y-136854601D01*
X155609101Y-136849634D01*
X155693284Y-136793384D01*
X155749534Y-136709201D01*
X155764300Y-136634967D01*
X155764299Y-134984834D01*
X155764299Y-134984833D01*
X155764299Y-134984831D01*
X155764299Y-134984830D01*
X156195300Y-134984830D01*
X156195300Y-136634963D01*
X156195301Y-136634973D01*
X156210065Y-136709200D01*
X156266316Y-136793384D01*
X156350497Y-136849633D01*
X156350499Y-136849634D01*
X156424733Y-136864400D01*
X158074866Y-136864399D01*
X158074869Y-136864398D01*
X158074873Y-136864398D01*
X158124126Y-136854601D01*
X158149101Y-136849634D01*
X158233284Y-136793384D01*
X158289534Y-136709201D01*
X158304300Y-136634967D01*
X158304299Y-134984834D01*
X158304299Y-134984833D01*
X158304299Y-134984831D01*
X158304299Y-134984830D01*
X158735300Y-134984830D01*
X158735300Y-136634963D01*
X158735301Y-136634973D01*
X158750065Y-136709200D01*
X158806316Y-136793384D01*
X158890497Y-136849633D01*
X158890499Y-136849634D01*
X158964733Y-136864400D01*
X160614866Y-136864399D01*
X160614869Y-136864398D01*
X160614873Y-136864398D01*
X160664126Y-136854601D01*
X160689101Y-136849634D01*
X160773284Y-136793384D01*
X160829534Y-136709201D01*
X160844300Y-136634967D01*
X160844299Y-134984834D01*
X160844299Y-134984833D01*
X160844299Y-134984831D01*
X160844299Y-134984830D01*
X161275300Y-134984830D01*
X161275300Y-136634963D01*
X161275301Y-136634973D01*
X161290065Y-136709200D01*
X161346316Y-136793384D01*
X161430497Y-136849633D01*
X161430499Y-136849634D01*
X161504733Y-136864400D01*
X162792967Y-136864399D01*
X162861088Y-136884401D01*
X162882063Y-136901304D01*
X164161031Y-138180299D01*
X166550998Y-140570316D01*
X166581696Y-140601014D01*
X166615721Y-140663327D01*
X166618600Y-140690109D01*
X166618600Y-150289986D01*
X166598598Y-150358107D01*
X166581695Y-150379081D01*
X165452280Y-151508495D01*
X165389968Y-151542521D01*
X165363185Y-151545400D01*
X164275036Y-151545400D01*
X164275026Y-151545401D01*
X164200799Y-151560165D01*
X164116615Y-151616416D01*
X164060366Y-151700597D01*
X164045600Y-151774830D01*
X164045600Y-153224963D01*
X164045601Y-153224973D01*
X164060365Y-153299200D01*
X164116616Y-153383384D01*
X164200797Y-153439633D01*
X164200799Y-153439634D01*
X164275033Y-153454400D01*
X165725166Y-153454399D01*
X165725169Y-153454398D01*
X165725173Y-153454398D01*
X165774426Y-153444601D01*
X165799401Y-153439634D01*
X165883584Y-153383384D01*
X165939834Y-153299201D01*
X165954600Y-153224967D01*
X165954599Y-152137412D01*
X165974601Y-152069292D01*
X165991499Y-152048322D01*
X167305376Y-150734447D01*
X167355602Y-150647453D01*
X167381600Y-150550425D01*
X167381600Y-150449975D01*
X167381600Y-140492486D01*
X167381601Y-140429679D01*
X167355603Y-140332651D01*
X167355601Y-140332648D01*
X167355601Y-140332646D01*
X167355599Y-140332642D01*
X167355484Y-140332213D01*
X167353589Y-140329161D01*
X167305376Y-140245653D01*
X167243046Y-140183323D01*
X166476155Y-139416416D01*
X165324509Y-138264745D01*
X165324507Y-138264742D01*
X165243675Y-138183908D01*
X173499300Y-138183908D01*
X173499300Y-152183908D01*
X173499300Y-152315692D01*
X173524267Y-152408873D01*
X173533407Y-152442983D01*
X173533410Y-152442990D01*
X173599297Y-152557110D01*
X173599305Y-152557120D01*
X173692479Y-152650294D01*
X173692484Y-152650298D01*
X173692486Y-152650300D01*
X173806614Y-152716192D01*
X173933908Y-152750300D01*
X173933910Y-152750300D01*
X183065690Y-152750300D01*
X183065692Y-152750300D01*
X183192986Y-152716192D01*
X183307114Y-152650300D01*
X183400300Y-152557114D01*
X183466192Y-152442986D01*
X183500300Y-152315692D01*
X183500300Y-150788530D01*
X189563700Y-150788530D01*
X189563700Y-152362663D01*
X189563701Y-152362673D01*
X189578465Y-152436900D01*
X189634716Y-152521084D01*
X189718897Y-152577333D01*
X189718899Y-152577334D01*
X189793133Y-152592100D01*
X191367266Y-152592099D01*
X191367269Y-152592098D01*
X191367273Y-152592098D01*
X191416526Y-152582301D01*
X191441501Y-152577334D01*
X191525684Y-152521084D01*
X191581934Y-152436901D01*
X191596700Y-152362667D01*
X191596699Y-150788534D01*
X191596698Y-150788530D01*
X191596698Y-150788526D01*
X191581934Y-150714299D01*
X191525683Y-150630115D01*
X191441502Y-150573866D01*
X191367267Y-150559100D01*
X189793136Y-150559100D01*
X189793126Y-150559101D01*
X189718899Y-150573865D01*
X189634715Y-150630116D01*
X189578466Y-150714297D01*
X189563700Y-150788530D01*
X183500300Y-150788530D01*
X183500300Y-143774930D01*
X185045300Y-143774930D01*
X185045300Y-145225063D01*
X185045301Y-145225073D01*
X185060065Y-145299300D01*
X185116316Y-145383484D01*
X185200497Y-145439733D01*
X185200499Y-145439734D01*
X185274733Y-145454500D01*
X186724866Y-145454499D01*
X186724869Y-145454498D01*
X186724873Y-145454498D01*
X186774126Y-145444701D01*
X186799101Y-145439734D01*
X186883284Y-145383484D01*
X186939534Y-145299301D01*
X186954300Y-145225067D01*
X186954299Y-143774934D01*
X186954298Y-143774930D01*
X186954298Y-143774926D01*
X186939534Y-143700699D01*
X186883283Y-143616515D01*
X186799102Y-143560266D01*
X186724867Y-143545500D01*
X185274736Y-143545500D01*
X185274726Y-143545501D01*
X185200499Y-143560265D01*
X185116315Y-143616516D01*
X185060066Y-143700697D01*
X185045300Y-143774930D01*
X183500300Y-143774930D01*
X183500300Y-138183908D01*
X183466192Y-138056614D01*
X183423855Y-137983284D01*
X183400302Y-137942489D01*
X183400294Y-137942479D01*
X183307120Y-137849305D01*
X183307110Y-137849297D01*
X183192990Y-137783410D01*
X183192987Y-137783409D01*
X183192986Y-137783408D01*
X183192984Y-137783407D01*
X183192983Y-137783407D01*
X183158873Y-137774267D01*
X183065692Y-137749300D01*
X174065692Y-137749300D01*
X173933908Y-137749300D01*
X173865694Y-137767577D01*
X173806616Y-137783407D01*
X173806609Y-137783410D01*
X173692489Y-137849297D01*
X173692479Y-137849305D01*
X173599305Y-137942479D01*
X173599297Y-137942489D01*
X173533410Y-138056609D01*
X173533407Y-138056616D01*
X173514292Y-138127957D01*
X173499300Y-138183908D01*
X165243675Y-138183908D01*
X163421203Y-136361397D01*
X163387178Y-136299085D01*
X163384299Y-136272303D01*
X163384299Y-134984831D01*
X163384299Y-134984830D01*
X168895300Y-134984830D01*
X168895300Y-136634963D01*
X168895301Y-136634973D01*
X168910065Y-136709200D01*
X168966316Y-136793384D01*
X169050497Y-136849633D01*
X169050499Y-136849634D01*
X169124733Y-136864400D01*
X170774866Y-136864399D01*
X170774869Y-136864398D01*
X170774873Y-136864398D01*
X170824126Y-136854601D01*
X170849101Y-136849634D01*
X170933284Y-136793384D01*
X170989534Y-136709201D01*
X171004300Y-136634967D01*
X171004299Y-135274730D01*
X177795400Y-135274730D01*
X177795400Y-136724863D01*
X177795401Y-136724873D01*
X177810165Y-136799100D01*
X177866416Y-136883284D01*
X177950597Y-136939533D01*
X177950599Y-136939534D01*
X178024833Y-136954300D01*
X179474966Y-136954299D01*
X179474969Y-136954298D01*
X179474973Y-136954298D01*
X179524226Y-136944501D01*
X179549201Y-136939534D01*
X179633384Y-136883284D01*
X179689634Y-136799101D01*
X179704400Y-136724867D01*
X179704399Y-135274734D01*
X179704398Y-135274730D01*
X179704398Y-135274726D01*
X179689634Y-135200499D01*
X179633383Y-135116315D01*
X179549202Y-135060066D01*
X179474967Y-135045300D01*
X178024836Y-135045300D01*
X178024826Y-135045301D01*
X177950599Y-135060065D01*
X177866415Y-135116316D01*
X177810166Y-135200497D01*
X177795400Y-135274730D01*
X171004299Y-135274730D01*
X171004299Y-134984834D01*
X171004298Y-134984831D01*
X171004298Y-134984826D01*
X170989534Y-134910599D01*
X170933283Y-134826415D01*
X170849102Y-134770166D01*
X170774867Y-134755400D01*
X169124736Y-134755400D01*
X169124726Y-134755401D01*
X169050499Y-134770165D01*
X168966315Y-134826416D01*
X168910066Y-134910597D01*
X168895300Y-134984830D01*
X163384299Y-134984830D01*
X163369534Y-134910599D01*
X163313283Y-134826415D01*
X163229102Y-134770166D01*
X163154867Y-134755400D01*
X161504736Y-134755400D01*
X161504726Y-134755401D01*
X161430499Y-134770165D01*
X161346315Y-134826416D01*
X161290066Y-134910597D01*
X161275300Y-134984830D01*
X160844299Y-134984830D01*
X160829534Y-134910599D01*
X160773283Y-134826415D01*
X160689102Y-134770166D01*
X160614867Y-134755400D01*
X158964736Y-134755400D01*
X158964726Y-134755401D01*
X158890499Y-134770165D01*
X158806315Y-134826416D01*
X158750066Y-134910597D01*
X158735300Y-134984830D01*
X158304299Y-134984830D01*
X158289534Y-134910599D01*
X158233283Y-134826415D01*
X158149102Y-134770166D01*
X158074867Y-134755400D01*
X156424736Y-134755400D01*
X156424726Y-134755401D01*
X156350499Y-134770165D01*
X156266315Y-134826416D01*
X156210066Y-134910597D01*
X156195300Y-134984830D01*
X155764299Y-134984830D01*
X155749534Y-134910599D01*
X155693283Y-134826415D01*
X155609102Y-134770166D01*
X155534867Y-134755400D01*
X153884736Y-134755400D01*
X153884726Y-134755401D01*
X153810499Y-134770165D01*
X153726315Y-134826416D01*
X153670066Y-134910597D01*
X153655300Y-134984830D01*
X129771353Y-134984830D01*
X127016605Y-132230082D01*
X126982579Y-132167770D01*
X126979701Y-132141406D01*
X126979489Y-132077566D01*
X126966529Y-128180916D01*
X126986304Y-128112731D01*
X127039805Y-128066060D01*
X127092528Y-128054499D01*
X127404964Y-128054499D01*
X127404966Y-128054499D01*
X127404969Y-128054498D01*
X127404972Y-128054498D01*
X127475485Y-128040473D01*
X127479201Y-128039734D01*
X127563384Y-127983484D01*
X127619634Y-127899301D01*
X127634400Y-127825067D01*
X127634399Y-126174734D01*
X127634398Y-126174731D01*
X127634398Y-126174726D01*
X127619634Y-126100499D01*
X127576555Y-126036028D01*
X127563384Y-126016316D01*
X127563380Y-126016313D01*
X127479202Y-125960066D01*
X127404967Y-125945300D01*
X125754636Y-125945300D01*
X125754626Y-125945301D01*
X125680399Y-125960065D01*
X125596215Y-126016316D01*
X125539966Y-126100497D01*
X125525200Y-126174730D01*
X125094399Y-126174730D01*
X125086086Y-126132937D01*
X125092415Y-126062223D01*
X125120488Y-126019343D01*
X125123510Y-126016316D01*
X125521310Y-125617786D01*
X125583591Y-125583704D01*
X125610487Y-125580800D01*
X134989088Y-125580800D01*
X135057209Y-125600802D01*
X135078183Y-125617704D01*
X135206629Y-125746148D01*
X135240654Y-125808460D01*
X135235590Y-125879276D01*
X135193044Y-125936112D01*
X135126524Y-125960923D01*
X135092952Y-125958823D01*
X135024967Y-125945300D01*
X133374636Y-125945300D01*
X133374626Y-125945301D01*
X133300399Y-125960065D01*
X133216215Y-126016316D01*
X133159966Y-126100497D01*
X133145200Y-126174730D01*
X133145200Y-127825063D01*
X133145201Y-127825073D01*
X133159965Y-127899300D01*
X133216216Y-127983484D01*
X133300397Y-128039733D01*
X133300399Y-128039734D01*
X133374633Y-128054500D01*
X135024966Y-128054499D01*
X135024969Y-128054498D01*
X135024973Y-128054498D01*
X135095485Y-128040473D01*
X135099201Y-128039734D01*
X135183384Y-127983484D01*
X135239634Y-127899301D01*
X135254400Y-127825067D01*
X135254399Y-126174734D01*
X135240875Y-126106739D01*
X135247203Y-126036028D01*
X135290758Y-125979961D01*
X135357710Y-125956342D01*
X135426804Y-125972669D01*
X135453549Y-125993065D01*
X138094718Y-128634200D01*
X142386841Y-132926268D01*
X142403695Y-132943121D01*
X142437720Y-133005433D01*
X142440600Y-133032217D01*
X142440600Y-133073531D01*
X142440599Y-133073531D01*
X142478716Y-133215782D01*
X142552346Y-133343314D01*
X142552354Y-133343324D01*
X142612835Y-133403805D01*
X142646861Y-133466117D01*
X142641796Y-133536932D01*
X142599249Y-133593768D01*
X142532729Y-133618579D01*
X142523740Y-133618900D01*
X135950572Y-133618900D01*
X135882451Y-133598898D01*
X135861459Y-133581978D01*
X135825280Y-133545785D01*
X131739545Y-129458444D01*
X130210457Y-127928755D01*
X130176444Y-127866436D01*
X130174406Y-127831257D01*
X130174400Y-127831257D01*
X130174399Y-127831148D01*
X130174178Y-127827316D01*
X130174397Y-127825080D01*
X130174400Y-127825067D01*
X130174399Y-126174734D01*
X130174399Y-126174733D01*
X130174399Y-126174731D01*
X130174399Y-126174730D01*
X130605200Y-126174730D01*
X130605200Y-127825063D01*
X130605201Y-127825073D01*
X130619965Y-127899300D01*
X130676216Y-127983484D01*
X130760397Y-128039733D01*
X130760399Y-128039734D01*
X130834633Y-128054500D01*
X132484966Y-128054499D01*
X132484969Y-128054498D01*
X132484973Y-128054498D01*
X132555485Y-128040473D01*
X132559201Y-128039734D01*
X132643384Y-127983484D01*
X132699634Y-127899301D01*
X132714400Y-127825067D01*
X132714399Y-126174734D01*
X132714398Y-126174731D01*
X132714398Y-126174726D01*
X132699634Y-126100499D01*
X132656555Y-126036028D01*
X132643384Y-126016316D01*
X132643380Y-126016313D01*
X132559202Y-125960066D01*
X132484967Y-125945300D01*
X130834636Y-125945300D01*
X130834626Y-125945301D01*
X130760399Y-125960065D01*
X130676215Y-126016316D01*
X130619966Y-126100497D01*
X130605200Y-126174730D01*
X130174399Y-126174730D01*
X130159634Y-126100499D01*
X130116555Y-126036028D01*
X130103384Y-126016316D01*
X130103380Y-126016313D01*
X130019202Y-125960066D01*
X129944967Y-125945300D01*
X128294636Y-125945300D01*
X128294626Y-125945301D01*
X128220399Y-125960065D01*
X128136215Y-126016316D01*
X128079966Y-126100497D01*
X128065200Y-126174730D01*
X128065200Y-127825063D01*
X128065201Y-127825073D01*
X128079965Y-127899300D01*
X128136216Y-127983484D01*
X128220397Y-128039733D01*
X128220399Y-128039734D01*
X128294633Y-128054500D01*
X129205110Y-128054499D01*
X129273231Y-128074501D01*
X129294223Y-128091421D01*
X135429121Y-134228728D01*
X135429237Y-134228860D01*
X135435023Y-134234646D01*
X135435024Y-134234647D01*
X135470334Y-134269957D01*
X135470346Y-134269980D01*
X135470352Y-134269975D01*
X135505992Y-134305629D01*
X135506048Y-134305671D01*
X135506053Y-134305676D01*
X135550489Y-134331331D01*
X135550504Y-134331346D01*
X135550507Y-134331342D01*
X135573094Y-134344387D01*
X135592977Y-134355872D01*
X135592978Y-134355872D01*
X135592990Y-134355879D01*
X135593038Y-134355899D01*
X135642465Y-134369144D01*
X135642481Y-134369147D01*
X135690000Y-134381890D01*
X135690005Y-134381890D01*
X135690069Y-134381898D01*
X135690075Y-134381900D01*
X135690080Y-134381900D01*
X135740225Y-134381900D01*
X135790450Y-134381910D01*
X135790452Y-134381909D01*
X135798667Y-134381911D01*
X135798848Y-134381900D01*
X146338840Y-134381900D01*
X146406961Y-134401902D01*
X146427935Y-134418805D01*
X146456575Y-134447445D01*
X146456580Y-134447449D01*
X146456582Y-134447451D01*
X146584118Y-134521084D01*
X146726367Y-134559200D01*
X146726369Y-134559200D01*
X146873631Y-134559200D01*
X146873633Y-134559200D01*
X147015882Y-134521084D01*
X147143418Y-134447451D01*
X147247551Y-134343318D01*
X147321184Y-134215782D01*
X147359300Y-134073533D01*
X147359300Y-133926267D01*
X147321184Y-133784018D01*
X147247551Y-133656482D01*
X147247549Y-133656480D01*
X147247545Y-133656475D01*
X147143424Y-133552354D01*
X147143414Y-133552346D01*
X147015882Y-133478716D01*
X147001894Y-133474968D01*
X146873633Y-133440600D01*
X146726367Y-133440600D01*
X146631534Y-133466010D01*
X146584117Y-133478716D01*
X146456585Y-133552346D01*
X146456575Y-133552354D01*
X146426935Y-133581995D01*
X146364623Y-133616021D01*
X146337840Y-133618900D01*
X143476060Y-133618900D01*
X143407939Y-133598898D01*
X143361446Y-133545242D01*
X143351342Y-133474968D01*
X143380836Y-133410388D01*
X143386965Y-133403805D01*
X143447445Y-133343324D01*
X143447451Y-133343318D01*
X143521084Y-133215782D01*
X143559200Y-133073533D01*
X143559200Y-132926267D01*
X143521084Y-132784018D01*
X143482054Y-132716417D01*
X143465318Y-132647423D01*
X143488539Y-132580331D01*
X143544346Y-132536444D01*
X143615021Y-132529696D01*
X143623776Y-132531710D01*
X143726367Y-132559200D01*
X143726368Y-132559200D01*
X143873631Y-132559200D01*
X143873633Y-132559200D01*
X144015882Y-132521084D01*
X144143418Y-132447451D01*
X144247551Y-132343318D01*
X144321184Y-132215782D01*
X144359300Y-132073533D01*
X144359300Y-131926267D01*
X144321184Y-131784018D01*
X144247551Y-131656482D01*
X144247549Y-131656480D01*
X144247545Y-131656475D01*
X144143424Y-131552354D01*
X144143414Y-131552346D01*
X144015882Y-131478716D01*
X143873633Y-131440600D01*
X143873631Y-131440600D01*
X143833309Y-131440600D01*
X143765188Y-131420598D01*
X143744214Y-131403696D01*
X143007708Y-130667200D01*
X141204114Y-128863630D01*
X150439600Y-128863630D01*
X150439600Y-130437763D01*
X150439601Y-130437773D01*
X150454365Y-130512000D01*
X150510616Y-130596184D01*
X150594797Y-130652433D01*
X150594799Y-130652434D01*
X150669033Y-130667200D01*
X152243166Y-130667199D01*
X152243169Y-130667198D01*
X152243173Y-130667198D01*
X152292426Y-130657401D01*
X152317401Y-130652434D01*
X152401584Y-130596184D01*
X152457834Y-130512001D01*
X152472600Y-130437767D01*
X152472599Y-128863634D01*
X152472598Y-128863630D01*
X152472598Y-128863626D01*
X152457834Y-128789399D01*
X152401583Y-128705215D01*
X152317402Y-128648966D01*
X152243167Y-128634200D01*
X150669036Y-128634200D01*
X150669026Y-128634201D01*
X150594799Y-128648965D01*
X150510615Y-128705216D01*
X150454366Y-128789397D01*
X150439600Y-128863630D01*
X141204114Y-128863630D01*
X138806781Y-126466330D01*
X145755800Y-126466330D01*
X145755800Y-128040463D01*
X145755801Y-128040473D01*
X145770565Y-128114700D01*
X145826816Y-128198884D01*
X145910997Y-128255133D01*
X145910999Y-128255134D01*
X145985233Y-128269900D01*
X147559366Y-128269899D01*
X147559369Y-128269898D01*
X147559373Y-128269898D01*
X147608626Y-128260101D01*
X147633601Y-128255134D01*
X147717784Y-128198884D01*
X147774034Y-128114701D01*
X147788800Y-128040467D01*
X147788799Y-127364830D01*
X153655300Y-127364830D01*
X153655300Y-129014963D01*
X153655301Y-129014973D01*
X153670065Y-129089200D01*
X153726316Y-129173384D01*
X153810497Y-129229633D01*
X153810499Y-129229634D01*
X153884733Y-129244400D01*
X155534866Y-129244399D01*
X155534869Y-129244398D01*
X155534873Y-129244398D01*
X155584126Y-129234601D01*
X155609101Y-129229634D01*
X155693284Y-129173384D01*
X155749534Y-129089201D01*
X155764300Y-129014967D01*
X155764299Y-127364834D01*
X155764299Y-127364833D01*
X155764299Y-127364831D01*
X155764299Y-127364830D01*
X158735300Y-127364830D01*
X158735300Y-129014963D01*
X158735301Y-129014973D01*
X158750065Y-129089200D01*
X158806316Y-129173384D01*
X158890497Y-129229633D01*
X158890499Y-129229634D01*
X158964733Y-129244400D01*
X160052716Y-129244399D01*
X160120837Y-129264401D01*
X160141781Y-129281273D01*
X163130638Y-132268061D01*
X163130637Y-132268061D01*
X163130653Y-132268076D01*
X163154803Y-132292226D01*
X163166655Y-132304078D01*
X163166758Y-132304157D01*
X163209371Y-132328738D01*
X163209406Y-132328774D01*
X163209413Y-132328763D01*
X163253658Y-132354308D01*
X163253748Y-132354345D01*
X163253766Y-132354349D01*
X163253770Y-132354352D01*
X163295459Y-132365507D01*
X163302850Y-132367485D01*
X163302849Y-132367486D01*
X163302873Y-132367491D01*
X163350675Y-132380300D01*
X163350677Y-132380300D01*
X163350803Y-132380316D01*
X163350807Y-132380318D01*
X163350810Y-132380317D01*
X163350811Y-132380318D01*
X163402467Y-132380300D01*
X178143686Y-132380300D01*
X178211807Y-132400302D01*
X178232781Y-132417204D01*
X178379495Y-132563917D01*
X178413520Y-132626229D01*
X178416400Y-132653013D01*
X178416400Y-133866363D01*
X178416401Y-133866373D01*
X178431165Y-133940600D01*
X178487416Y-134024784D01*
X178571597Y-134081033D01*
X178571599Y-134081034D01*
X178645833Y-134095800D01*
X180219966Y-134095799D01*
X180219969Y-134095798D01*
X180219973Y-134095798D01*
X180269226Y-134086001D01*
X180294201Y-134081034D01*
X180378384Y-134024784D01*
X180434634Y-133940601D01*
X180449400Y-133866367D01*
X180449399Y-132292234D01*
X180449398Y-132292231D01*
X180449398Y-132292226D01*
X180434634Y-132217999D01*
X180433152Y-132215781D01*
X180378384Y-132133816D01*
X180378383Y-132133815D01*
X180294202Y-132077566D01*
X180219969Y-132062800D01*
X180219967Y-132062800D01*
X179009613Y-132062800D01*
X178941492Y-132042798D01*
X178920522Y-132025899D01*
X178588147Y-131693524D01*
X178554848Y-131674299D01*
X178512501Y-131649850D01*
X178501156Y-131643300D01*
X178501155Y-131643299D01*
X178501154Y-131643299D01*
X178404125Y-131617300D01*
X178404123Y-131617300D01*
X163611010Y-131617300D01*
X163542889Y-131597298D01*
X163521945Y-131580426D01*
X163519184Y-131577667D01*
X161398494Y-129458444D01*
X161364448Y-129396144D01*
X161369488Y-129325326D01*
X161412015Y-129268476D01*
X161478527Y-129243642D01*
X161499911Y-129243925D01*
X161504724Y-129244398D01*
X161504733Y-129244400D01*
X163154866Y-129244399D01*
X163154869Y-129244398D01*
X163154873Y-129244398D01*
X163204126Y-129234601D01*
X163229101Y-129229634D01*
X163313284Y-129173384D01*
X163369534Y-129089201D01*
X163384300Y-129014967D01*
X163384299Y-127364834D01*
X163384299Y-127364833D01*
X163384299Y-127364831D01*
X163384299Y-127364830D01*
X163815300Y-127364830D01*
X163815300Y-129014963D01*
X163815301Y-129014973D01*
X163830065Y-129089200D01*
X163886316Y-129173384D01*
X163970497Y-129229633D01*
X163970499Y-129229634D01*
X164044733Y-129244400D01*
X165694866Y-129244399D01*
X165694869Y-129244398D01*
X165694873Y-129244398D01*
X165744126Y-129234601D01*
X165769101Y-129229634D01*
X165853284Y-129173384D01*
X165909534Y-129089201D01*
X165924300Y-129014967D01*
X165924299Y-127364834D01*
X165924299Y-127364833D01*
X165924299Y-127364831D01*
X165924299Y-127364830D01*
X166355300Y-127364830D01*
X166355300Y-129014963D01*
X166355301Y-129014973D01*
X166370065Y-129089200D01*
X166426316Y-129173384D01*
X166510497Y-129229633D01*
X166510499Y-129229634D01*
X166584733Y-129244400D01*
X168234866Y-129244399D01*
X168234869Y-129244398D01*
X168234873Y-129244398D01*
X168284126Y-129234601D01*
X168309101Y-129229634D01*
X168393284Y-129173384D01*
X168449534Y-129089201D01*
X168464300Y-129014967D01*
X168464299Y-127364834D01*
X168464299Y-127364833D01*
X168464299Y-127364831D01*
X168464299Y-127364830D01*
X168895300Y-127364830D01*
X168895300Y-129014963D01*
X168895301Y-129014973D01*
X168910065Y-129089200D01*
X168966316Y-129173384D01*
X169050497Y-129229633D01*
X169050499Y-129229634D01*
X169124733Y-129244400D01*
X170774866Y-129244399D01*
X170774869Y-129244398D01*
X170774873Y-129244398D01*
X170824126Y-129234601D01*
X170849101Y-129229634D01*
X170933284Y-129173384D01*
X170989534Y-129089201D01*
X171004300Y-129014967D01*
X171004299Y-127364834D01*
X171004299Y-127364833D01*
X171004299Y-127364831D01*
X171004299Y-127364830D01*
X171435300Y-127364830D01*
X171435300Y-129014963D01*
X171435301Y-129014973D01*
X171450065Y-129089200D01*
X171506316Y-129173384D01*
X171590497Y-129229633D01*
X171590499Y-129229634D01*
X171664733Y-129244400D01*
X173314866Y-129244399D01*
X173314869Y-129244398D01*
X173314873Y-129244398D01*
X173364126Y-129234601D01*
X173389101Y-129229634D01*
X173473284Y-129173384D01*
X173529534Y-129089201D01*
X173544300Y-129014967D01*
X173544299Y-127364834D01*
X173544298Y-127364831D01*
X173544298Y-127364826D01*
X173529534Y-127290599D01*
X173473283Y-127206415D01*
X173389102Y-127150166D01*
X173314867Y-127135400D01*
X171664736Y-127135400D01*
X171664726Y-127135401D01*
X171590499Y-127150165D01*
X171506315Y-127206416D01*
X171450066Y-127290597D01*
X171435300Y-127364830D01*
X171004299Y-127364830D01*
X170989534Y-127290599D01*
X170933283Y-127206415D01*
X170849102Y-127150166D01*
X170774867Y-127135400D01*
X169124736Y-127135400D01*
X169124726Y-127135401D01*
X169050499Y-127150165D01*
X168966315Y-127206416D01*
X168910066Y-127290597D01*
X168895300Y-127364830D01*
X168464299Y-127364830D01*
X168449534Y-127290599D01*
X168393283Y-127206415D01*
X168309102Y-127150166D01*
X168234867Y-127135400D01*
X166584736Y-127135400D01*
X166584726Y-127135401D01*
X166510499Y-127150165D01*
X166426315Y-127206416D01*
X166370066Y-127290597D01*
X166355300Y-127364830D01*
X165924299Y-127364830D01*
X165909534Y-127290599D01*
X165853283Y-127206415D01*
X165769102Y-127150166D01*
X165694867Y-127135400D01*
X164044736Y-127135400D01*
X164044726Y-127135401D01*
X163970499Y-127150165D01*
X163886315Y-127206416D01*
X163830066Y-127290597D01*
X163815300Y-127364830D01*
X163384299Y-127364830D01*
X163369534Y-127290599D01*
X163313283Y-127206415D01*
X163229102Y-127150166D01*
X163154867Y-127135400D01*
X161504736Y-127135400D01*
X161504726Y-127135401D01*
X161430499Y-127150165D01*
X161346315Y-127206416D01*
X161290066Y-127290597D01*
X161275300Y-127364830D01*
X161275300Y-129014967D01*
X161275802Y-129020057D01*
X161262570Y-129089809D01*
X161213727Y-129141335D01*
X161144781Y-129158275D01*
X161077622Y-129135251D01*
X161061343Y-129121527D01*
X160881234Y-128941542D01*
X160847188Y-128879242D01*
X160844299Y-128852416D01*
X160844299Y-127364836D01*
X160844298Y-127364827D01*
X160829534Y-127290599D01*
X160773283Y-127206415D01*
X160689102Y-127150166D01*
X160614867Y-127135400D01*
X158964736Y-127135400D01*
X158964726Y-127135401D01*
X158890499Y-127150165D01*
X158806315Y-127206416D01*
X158750066Y-127290597D01*
X158735300Y-127364830D01*
X155764299Y-127364830D01*
X155749534Y-127290599D01*
X155693283Y-127206415D01*
X155609102Y-127150166D01*
X155534867Y-127135400D01*
X153884736Y-127135400D01*
X153884726Y-127135401D01*
X153810499Y-127150165D01*
X153726315Y-127206416D01*
X153670066Y-127290597D01*
X153655300Y-127364830D01*
X147788799Y-127364830D01*
X147788799Y-127206416D01*
X147788799Y-126466336D01*
X147788798Y-126466326D01*
X147774034Y-126392099D01*
X147717783Y-126307915D01*
X147633602Y-126251666D01*
X147559367Y-126236900D01*
X145985236Y-126236900D01*
X145985226Y-126236901D01*
X145910999Y-126251665D01*
X145826815Y-126307916D01*
X145770566Y-126392097D01*
X145755800Y-126466330D01*
X138806781Y-126466330D01*
X136705976Y-124365553D01*
X136634947Y-124294524D01*
X136547954Y-124244299D01*
X136545200Y-124243561D01*
X136534950Y-124240814D01*
X136534949Y-124240814D01*
X136450923Y-124218299D01*
X136450920Y-124218299D01*
X136350472Y-124218300D01*
X123350775Y-124218300D01*
X123291390Y-124234212D01*
X123253741Y-124244300D01*
X123166756Y-124294521D01*
X123166751Y-124294525D01*
X123131238Y-124330039D01*
X123095724Y-124365553D01*
X123095722Y-124365555D01*
X121880476Y-125580800D01*
X121552880Y-125908396D01*
X121490568Y-125942421D01*
X121463785Y-125945300D01*
X120674636Y-125945300D01*
X120674626Y-125945301D01*
X120600399Y-125960065D01*
X120516215Y-126016316D01*
X120459966Y-126100497D01*
X120445200Y-126174730D01*
X120014658Y-126174730D01*
X119999934Y-126100699D01*
X119957457Y-126037129D01*
X119943684Y-126016516D01*
X119943385Y-126016316D01*
X119859502Y-125960266D01*
X119785267Y-125945500D01*
X118134936Y-125945500D01*
X118134926Y-125945501D01*
X118060699Y-125960265D01*
X117976515Y-126016516D01*
X117920266Y-126100697D01*
X117905500Y-126174930D01*
X115960400Y-126174930D01*
X115960399Y-125746148D01*
X115960399Y-124962136D01*
X115960398Y-124962126D01*
X115945634Y-124887899D01*
X115889383Y-124803715D01*
X115805202Y-124747466D01*
X115730967Y-124732700D01*
X114156836Y-124732700D01*
X114156826Y-124732701D01*
X114082599Y-124747465D01*
X113998415Y-124803716D01*
X113942166Y-124887897D01*
X113927400Y-124962130D01*
X100500435Y-124962130D01*
X100500435Y-124955943D01*
X100500427Y-121781495D01*
X100500418Y-118574730D01*
X120485400Y-118574730D01*
X120485400Y-120225063D01*
X120485401Y-120225073D01*
X120500165Y-120299300D01*
X120556416Y-120383484D01*
X120640597Y-120439733D01*
X120640599Y-120439734D01*
X120714833Y-120454500D01*
X122365166Y-120454499D01*
X122365169Y-120454498D01*
X122365173Y-120454498D01*
X122415444Y-120444499D01*
X122439401Y-120439734D01*
X122523584Y-120383484D01*
X122579834Y-120299301D01*
X122594600Y-120225067D01*
X122594599Y-118574734D01*
X122594599Y-118574733D01*
X122594599Y-118574731D01*
X122594599Y-118574730D01*
X123025400Y-118574730D01*
X123025400Y-120225063D01*
X123025401Y-120225073D01*
X123040165Y-120299300D01*
X123096416Y-120383484D01*
X123180597Y-120439733D01*
X123180599Y-120439734D01*
X123254833Y-120454500D01*
X124905166Y-120454499D01*
X124905169Y-120454498D01*
X124905173Y-120454498D01*
X124955444Y-120444499D01*
X124979401Y-120439734D01*
X125063584Y-120383484D01*
X125119834Y-120299301D01*
X125134600Y-120225067D01*
X125134599Y-118574734D01*
X125134599Y-118574733D01*
X125134599Y-118574731D01*
X125134599Y-118574730D01*
X125565400Y-118574730D01*
X125565400Y-120225063D01*
X125565401Y-120225073D01*
X125580165Y-120299300D01*
X125636416Y-120383484D01*
X125720597Y-120439733D01*
X125720599Y-120439734D01*
X125794833Y-120454500D01*
X127445166Y-120454499D01*
X127445169Y-120454498D01*
X127445173Y-120454498D01*
X127495444Y-120444499D01*
X127519401Y-120439734D01*
X127603584Y-120383484D01*
X127659834Y-120299301D01*
X127674600Y-120225067D01*
X127674599Y-118574734D01*
X127674599Y-118574733D01*
X127674599Y-118574731D01*
X127674599Y-118574730D01*
X128105400Y-118574730D01*
X128105400Y-120225063D01*
X128105401Y-120225073D01*
X128120165Y-120299300D01*
X128176416Y-120383484D01*
X128260597Y-120439733D01*
X128260599Y-120439734D01*
X128334833Y-120454500D01*
X129261994Y-120454499D01*
X129330115Y-120474501D01*
X129350982Y-120491297D01*
X129718385Y-120857818D01*
X129930886Y-121069809D01*
X129966352Y-121105275D01*
X129966719Y-121105556D01*
X129966720Y-121105557D01*
X130009937Y-121130439D01*
X130009922Y-121130463D01*
X130010066Y-121130513D01*
X130046235Y-121151395D01*
X130053344Y-121155500D01*
X130053769Y-121155676D01*
X130053771Y-121155676D01*
X130053774Y-121155678D01*
X130102146Y-121168577D01*
X130150375Y-121181500D01*
X130150384Y-121181500D01*
X130150413Y-121181504D01*
X130150586Y-121181527D01*
X130150829Y-121181558D01*
X130150833Y-121181560D01*
X130150836Y-121181559D01*
X130150837Y-121181560D01*
X130201058Y-121181500D01*
X144790918Y-121181500D01*
X144859039Y-121201502D01*
X144880034Y-121218425D01*
X145126297Y-121464803D01*
X145160308Y-121527124D01*
X145155226Y-121597938D01*
X145112666Y-121654764D01*
X145046140Y-121679559D01*
X145004570Y-121675585D01*
X144873633Y-121640500D01*
X144726367Y-121640500D01*
X144631534Y-121665910D01*
X144584117Y-121678616D01*
X144456585Y-121752246D01*
X144456575Y-121752254D01*
X144427335Y-121781495D01*
X144365023Y-121815521D01*
X144338240Y-121818400D01*
X135057859Y-121818400D01*
X135057843Y-121818399D01*
X135050125Y-121818399D01*
X134949675Y-121818399D01*
X134901161Y-121831398D01*
X134852645Y-121844398D01*
X134815879Y-121865626D01*
X134765656Y-121894621D01*
X134765651Y-121894625D01*
X134735765Y-121924512D01*
X134694624Y-121965653D01*
X134056682Y-122603595D01*
X133994370Y-122637621D01*
X133967587Y-122640500D01*
X133926267Y-122640500D01*
X133831434Y-122665910D01*
X133784017Y-122678616D01*
X133656485Y-122752246D01*
X133656475Y-122752254D01*
X133552354Y-122856375D01*
X133552346Y-122856385D01*
X133478716Y-122983917D01*
X133440600Y-123126168D01*
X133440600Y-123273431D01*
X133440599Y-123273431D01*
X133478716Y-123415682D01*
X133552346Y-123543214D01*
X133552354Y-123543224D01*
X133656475Y-123647345D01*
X133656480Y-123647349D01*
X133656482Y-123647351D01*
X133784018Y-123720984D01*
X133926267Y-123759100D01*
X133926269Y-123759100D01*
X134073531Y-123759100D01*
X134073533Y-123759100D01*
X134215782Y-123720984D01*
X134343318Y-123647351D01*
X134447451Y-123543218D01*
X134521084Y-123415682D01*
X134559200Y-123273433D01*
X134559200Y-123232312D01*
X134579202Y-123164191D01*
X134596105Y-123143217D01*
X135121017Y-122618305D01*
X135183329Y-122584279D01*
X135210112Y-122581400D01*
X144338440Y-122581400D01*
X144406561Y-122601402D01*
X144427535Y-122618305D01*
X144456575Y-122647345D01*
X144456580Y-122647349D01*
X144456582Y-122647351D01*
X144584118Y-122720984D01*
X144726367Y-122759100D01*
X144726369Y-122759100D01*
X144873631Y-122759100D01*
X144873633Y-122759100D01*
X145015882Y-122720984D01*
X145143418Y-122647351D01*
X145247551Y-122543218D01*
X145321184Y-122415682D01*
X145359300Y-122273433D01*
X145359300Y-122126167D01*
X145324284Y-121995487D01*
X145325974Y-121924512D01*
X145365768Y-121865716D01*
X145431032Y-121837768D01*
X145501046Y-121849541D01*
X145535105Y-121873800D01*
X150287680Y-126628583D01*
X150288272Y-126629175D01*
X150288416Y-126629339D01*
X150294023Y-126634946D01*
X150294024Y-126634947D01*
X150330512Y-126671435D01*
X150330526Y-126671462D01*
X150330533Y-126671456D01*
X150364983Y-126705922D01*
X150365052Y-126705975D01*
X150365053Y-126705976D01*
X150408189Y-126730880D01*
X150408186Y-126730884D01*
X150408214Y-126730894D01*
X150449345Y-126754654D01*
X150452003Y-126756190D01*
X150452015Y-126756195D01*
X150452307Y-126756271D01*
X150497836Y-126768469D01*
X150497863Y-126768486D01*
X150497866Y-126768478D01*
X150508677Y-126771377D01*
X150548987Y-126782189D01*
X150548994Y-126782189D01*
X150549072Y-126782200D01*
X150597028Y-126782200D01*
X150649437Y-126782212D01*
X150649439Y-126782211D01*
X150657528Y-126782213D01*
X150657743Y-126782200D01*
X174541325Y-126782200D01*
X174541583Y-126782216D01*
X174549678Y-126782213D01*
X174549683Y-126782215D01*
X174601640Y-126782200D01*
X174650025Y-126782200D01*
X174650031Y-126782198D01*
X174650119Y-126782186D01*
X174650133Y-126782186D01*
X174688208Y-126771971D01*
X174699828Y-126768855D01*
X174699864Y-126768845D01*
X174701267Y-126768469D01*
X174747054Y-126756201D01*
X174747055Y-126756200D01*
X174747097Y-126756189D01*
X174747115Y-126756182D01*
X174747151Y-126756160D01*
X174747154Y-126756160D01*
X174790596Y-126731061D01*
X174834047Y-126705976D01*
X174834052Y-126705970D01*
X174834072Y-126705959D01*
X174834111Y-126705930D01*
X174834129Y-126705911D01*
X174834134Y-126705909D01*
X174869319Y-126670703D01*
X174905076Y-126634947D01*
X174905077Y-126634944D01*
X174911244Y-126628778D01*
X174911403Y-126628593D01*
X178546403Y-122991529D01*
X178608706Y-122957486D01*
X178635524Y-122954599D01*
X179725164Y-122954599D01*
X179725166Y-122954599D01*
X179725169Y-122954598D01*
X179725172Y-122954598D01*
X179761763Y-122947319D01*
X179799401Y-122939834D01*
X179883584Y-122883584D01*
X179939834Y-122799401D01*
X179954600Y-122725167D01*
X179954599Y-121275034D01*
X179954598Y-121275030D01*
X179954598Y-121275026D01*
X179939834Y-121200799D01*
X179909683Y-121155676D01*
X179883584Y-121116616D01*
X179883583Y-121116615D01*
X179799402Y-121060366D01*
X179725167Y-121045600D01*
X178275036Y-121045600D01*
X178275026Y-121045601D01*
X178200799Y-121060365D01*
X178116615Y-121116616D01*
X178060366Y-121200797D01*
X178045600Y-121275030D01*
X178045600Y-122361094D01*
X178025598Y-122429215D01*
X178008721Y-122450164D01*
X174478623Y-125982270D01*
X174416320Y-126016313D01*
X174389502Y-126019200D01*
X150809582Y-126019200D01*
X150741461Y-125999198D01*
X150720466Y-125982275D01*
X150711833Y-125973638D01*
X148031471Y-123292030D01*
X160165500Y-123292030D01*
X160165500Y-124866163D01*
X160165501Y-124866173D01*
X160180265Y-124940400D01*
X160236516Y-125024584D01*
X160320697Y-125080833D01*
X160320699Y-125080834D01*
X160394933Y-125095600D01*
X161969066Y-125095599D01*
X161969069Y-125095598D01*
X161969073Y-125095598D01*
X162018326Y-125085801D01*
X162043301Y-125080834D01*
X162127484Y-125024584D01*
X162183734Y-124940401D01*
X162198500Y-124866167D01*
X162198499Y-123292034D01*
X162198498Y-123292030D01*
X162198498Y-123292026D01*
X162183734Y-123217799D01*
X162127483Y-123133615D01*
X162043302Y-123077366D01*
X161969067Y-123062600D01*
X160394936Y-123062600D01*
X160394926Y-123062601D01*
X160320699Y-123077365D01*
X160236515Y-123133616D01*
X160180266Y-123217797D01*
X160165500Y-123292030D01*
X148031471Y-123292030D01*
X145515540Y-120774930D01*
X151045400Y-120774930D01*
X151045400Y-122225063D01*
X151045401Y-122225073D01*
X151060165Y-122299300D01*
X151116416Y-122383484D01*
X151200597Y-122439733D01*
X151200599Y-122439734D01*
X151274833Y-122454500D01*
X152724966Y-122454499D01*
X152724969Y-122454498D01*
X152724973Y-122454498D01*
X152774226Y-122444701D01*
X152799201Y-122439734D01*
X152883384Y-122383484D01*
X152939634Y-122299301D01*
X152954400Y-122225067D01*
X152954399Y-120774934D01*
X152954399Y-120774933D01*
X152954399Y-120774931D01*
X152954399Y-120774930D01*
X160045600Y-120774930D01*
X160045600Y-122225063D01*
X160045601Y-122225073D01*
X160060365Y-122299300D01*
X160116616Y-122383484D01*
X160200797Y-122439733D01*
X160200799Y-122439734D01*
X160275033Y-122454500D01*
X161725166Y-122454499D01*
X161725169Y-122454498D01*
X161725173Y-122454498D01*
X161774426Y-122444701D01*
X161799401Y-122439734D01*
X161883584Y-122383484D01*
X161939834Y-122299301D01*
X161954600Y-122225067D01*
X161954599Y-121275030D01*
X174045600Y-121275030D01*
X174045600Y-122725163D01*
X174045601Y-122725173D01*
X174060365Y-122799400D01*
X174116616Y-122883584D01*
X174200797Y-122939833D01*
X174200799Y-122939834D01*
X174275033Y-122954600D01*
X175725166Y-122954599D01*
X175725169Y-122954598D01*
X175725173Y-122954598D01*
X175774426Y-122944801D01*
X175799401Y-122939834D01*
X175883584Y-122883584D01*
X175939834Y-122799401D01*
X175954600Y-122725167D01*
X175954599Y-121275034D01*
X175954598Y-121275030D01*
X175954598Y-121275026D01*
X175939834Y-121200799D01*
X175909683Y-121155676D01*
X175883584Y-121116616D01*
X175883583Y-121116615D01*
X175799402Y-121060366D01*
X175725167Y-121045600D01*
X174275036Y-121045600D01*
X174275026Y-121045601D01*
X174200799Y-121060365D01*
X174116615Y-121116616D01*
X174060366Y-121200797D01*
X174045600Y-121275030D01*
X161954599Y-121275030D01*
X161954599Y-120774934D01*
X161954598Y-120774931D01*
X161954598Y-120774926D01*
X161939834Y-120700699D01*
X161883583Y-120616515D01*
X161799402Y-120560266D01*
X161725167Y-120545500D01*
X160275036Y-120545500D01*
X160275026Y-120545501D01*
X160200799Y-120560265D01*
X160116615Y-120616516D01*
X160060366Y-120700697D01*
X160045600Y-120774930D01*
X152954399Y-120774930D01*
X152939634Y-120700699D01*
X152883383Y-120616515D01*
X152799202Y-120560266D01*
X152724967Y-120545500D01*
X151274836Y-120545500D01*
X151274826Y-120545501D01*
X151200599Y-120560265D01*
X151116415Y-120616516D01*
X151060166Y-120700697D01*
X151045400Y-120774930D01*
X145515540Y-120774930D01*
X145312397Y-120571693D01*
X145312260Y-120571537D01*
X145300988Y-120560265D01*
X145269986Y-120529263D01*
X145269973Y-120529239D01*
X145269968Y-120529245D01*
X145269952Y-120529229D01*
X145235518Y-120494779D01*
X145235515Y-120494777D01*
X145235509Y-120494771D01*
X145235450Y-120494725D01*
X145190005Y-120468488D01*
X145189980Y-120468474D01*
X145148535Y-120444533D01*
X145148532Y-120444532D01*
X145148494Y-120444510D01*
X145148454Y-120444499D01*
X145101114Y-120431814D01*
X145101089Y-120431798D01*
X145101087Y-120431806D01*
X145076445Y-120425197D01*
X145051474Y-120418500D01*
X145051425Y-120418500D01*
X145003472Y-120418500D01*
X144942971Y-120418486D01*
X144942757Y-120418500D01*
X135409656Y-120418500D01*
X135341535Y-120398498D01*
X135295042Y-120344842D01*
X135284938Y-120274568D01*
X135286077Y-120267920D01*
X135294599Y-120225074D01*
X135294599Y-120225072D01*
X135294600Y-120225067D01*
X135294599Y-118574734D01*
X135294598Y-118574731D01*
X135294598Y-118574726D01*
X135279834Y-118500499D01*
X135223583Y-118416315D01*
X135139402Y-118360066D01*
X135065167Y-118345300D01*
X133414836Y-118345300D01*
X133414826Y-118345301D01*
X133340599Y-118360065D01*
X133256415Y-118416316D01*
X133200166Y-118500497D01*
X133185400Y-118574730D01*
X133185400Y-120225063D01*
X133185402Y-120225075D01*
X133193924Y-120267921D01*
X133187595Y-120338634D01*
X133144040Y-120394701D01*
X133077087Y-120418319D01*
X133070345Y-120418500D01*
X132869656Y-120418500D01*
X132801535Y-120398498D01*
X132755042Y-120344842D01*
X132744938Y-120274568D01*
X132746077Y-120267920D01*
X132754599Y-120225074D01*
X132754599Y-120225072D01*
X132754600Y-120225067D01*
X132754599Y-118574734D01*
X132754598Y-118574731D01*
X132754598Y-118574726D01*
X132739834Y-118500499D01*
X132683583Y-118416315D01*
X132599402Y-118360066D01*
X132525167Y-118345300D01*
X130874836Y-118345300D01*
X130874826Y-118345301D01*
X130800599Y-118360065D01*
X130716415Y-118416316D01*
X130660166Y-118500497D01*
X130645400Y-118574730D01*
X130645400Y-120225063D01*
X130645402Y-120225075D01*
X130653924Y-120267921D01*
X130647595Y-120338634D01*
X130604040Y-120394701D01*
X130537087Y-120418319D01*
X130530345Y-120418500D01*
X130410457Y-120418500D01*
X130342336Y-120398498D01*
X130321469Y-120381703D01*
X130251611Y-120312013D01*
X130217511Y-120249741D01*
X130214599Y-120222819D01*
X130214599Y-118574734D01*
X130214598Y-118574731D01*
X130214598Y-118574726D01*
X130199834Y-118500499D01*
X130143583Y-118416315D01*
X130059402Y-118360066D01*
X129985167Y-118345300D01*
X128334836Y-118345300D01*
X128334826Y-118345301D01*
X128260599Y-118360065D01*
X128176415Y-118416316D01*
X128120166Y-118500497D01*
X128105400Y-118574730D01*
X127674599Y-118574730D01*
X127659834Y-118500499D01*
X127603583Y-118416315D01*
X127519402Y-118360066D01*
X127445167Y-118345300D01*
X125794836Y-118345300D01*
X125794826Y-118345301D01*
X125720599Y-118360065D01*
X125636415Y-118416316D01*
X125580166Y-118500497D01*
X125565400Y-118574730D01*
X125134599Y-118574730D01*
X125119834Y-118500499D01*
X125063583Y-118416315D01*
X124979402Y-118360066D01*
X124905167Y-118345300D01*
X123254836Y-118345300D01*
X123254826Y-118345301D01*
X123180599Y-118360065D01*
X123096415Y-118416316D01*
X123040166Y-118500497D01*
X123025400Y-118574730D01*
X122594599Y-118574730D01*
X122579834Y-118500499D01*
X122523583Y-118416315D01*
X122439402Y-118360066D01*
X122365167Y-118345300D01*
X120714836Y-118345300D01*
X120714826Y-118345301D01*
X120640599Y-118360065D01*
X120556415Y-118416316D01*
X120500166Y-118500497D01*
X120485400Y-118574730D01*
X100500418Y-118574730D01*
X100500411Y-115758799D01*
X100520413Y-115690680D01*
X100574068Y-115644186D01*
X100626411Y-115632800D01*
X103164490Y-115632800D01*
X103164491Y-115632800D01*
X103287269Y-115608378D01*
X103402922Y-115560473D01*
X103507008Y-115490925D01*
X106092325Y-112905608D01*
X106161873Y-112801522D01*
X106209778Y-112685869D01*
X106234200Y-112563091D01*
X106234200Y-112437909D01*
X106234200Y-108274830D01*
X110045500Y-108274830D01*
X110045500Y-109724963D01*
X110045501Y-109724973D01*
X110060265Y-109799200D01*
X110116516Y-109883384D01*
X110200697Y-109939633D01*
X110200699Y-109939634D01*
X110274933Y-109954400D01*
X110492500Y-109954399D01*
X110560620Y-109974401D01*
X110607113Y-110028056D01*
X110618500Y-110080399D01*
X110618500Y-111971376D01*
X110618498Y-112050128D01*
X110618504Y-112050173D01*
X110618759Y-112051094D01*
X110624674Y-112073167D01*
X110624675Y-112073171D01*
X110644496Y-112147149D01*
X110672728Y-112196050D01*
X110694721Y-112234145D01*
X110734539Y-112273962D01*
X110734541Y-112273967D01*
X110734543Y-112273966D01*
X112691457Y-114230979D01*
X112691473Y-114230996D01*
X112694623Y-114234146D01*
X112694624Y-114234147D01*
X112725816Y-114265339D01*
X112725817Y-114265341D01*
X112725818Y-114265341D01*
X112725819Y-114265342D01*
X112765645Y-114305170D01*
X112765649Y-114305172D01*
X112765653Y-114305176D01*
X112825724Y-114339857D01*
X112852638Y-114355397D01*
X112852640Y-114355397D01*
X112852646Y-114355401D01*
X112903578Y-114369048D01*
X112949665Y-114381399D01*
X112949671Y-114381399D01*
X112949675Y-114381400D01*
X112965446Y-114381400D01*
X112999890Y-114381400D01*
X113050115Y-114381401D01*
X113050119Y-114381400D01*
X126949675Y-114381400D01*
X130938340Y-114381400D01*
X131006461Y-114401402D01*
X131027435Y-114418305D01*
X131056575Y-114447445D01*
X131056580Y-114447449D01*
X131056582Y-114447451D01*
X131184118Y-114521084D01*
X131326367Y-114559200D01*
X131326369Y-114559200D01*
X131473631Y-114559200D01*
X131473633Y-114559200D01*
X131615882Y-114521084D01*
X131743418Y-114447451D01*
X131847551Y-114343318D01*
X131921184Y-114215782D01*
X131959300Y-114073533D01*
X131959300Y-113926267D01*
X131921184Y-113784018D01*
X131847551Y-113656482D01*
X131847549Y-113656480D01*
X131847545Y-113656475D01*
X131743424Y-113552354D01*
X131743414Y-113552346D01*
X131615882Y-113478716D01*
X131473633Y-113440600D01*
X131326367Y-113440600D01*
X131231534Y-113466010D01*
X131184117Y-113478716D01*
X131056585Y-113552346D01*
X131056575Y-113552354D01*
X131027435Y-113581495D01*
X130965123Y-113615521D01*
X130938340Y-113618400D01*
X113210120Y-113618400D01*
X113141999Y-113598398D01*
X113121022Y-113581493D01*
X111418402Y-111878786D01*
X111384379Y-111816473D01*
X111381500Y-111789693D01*
X111381500Y-110080399D01*
X111401502Y-110012278D01*
X111455158Y-109965785D01*
X111507500Y-109954399D01*
X111725064Y-109954399D01*
X111725066Y-109954399D01*
X111725069Y-109954398D01*
X111725072Y-109954398D01*
X111761663Y-109947119D01*
X111799301Y-109939634D01*
X111883484Y-109883384D01*
X111939734Y-109799201D01*
X111954500Y-109724967D01*
X111954499Y-108274834D01*
X111954498Y-108274830D01*
X111954498Y-108274826D01*
X111939734Y-108200599D01*
X111900393Y-108141722D01*
X111883484Y-108116416D01*
X111873366Y-108109655D01*
X111799302Y-108060166D01*
X111725067Y-108045400D01*
X110274936Y-108045400D01*
X110274926Y-108045401D01*
X110200699Y-108060165D01*
X110116515Y-108116416D01*
X110060266Y-108200597D01*
X110045500Y-108274830D01*
X106234200Y-108274830D01*
X106234200Y-107499315D01*
X106234202Y-107436722D01*
X106234200Y-107436711D01*
X106234200Y-107436709D01*
X106227048Y-107400757D01*
X106209782Y-107313944D01*
X106209779Y-107313937D01*
X106209778Y-107313931D01*
X106182305Y-107247605D01*
X106161879Y-107198290D01*
X106161876Y-107198285D01*
X106161873Y-107198278D01*
X106119812Y-107135328D01*
X106119812Y-107135327D01*
X106119810Y-107135326D01*
X106092333Y-107094202D01*
X106092329Y-107094198D01*
X106092325Y-107094192D01*
X106042567Y-107044434D01*
X104673193Y-105675005D01*
X103596192Y-104597960D01*
X103596162Y-104597928D01*
X103550584Y-104552351D01*
X103550582Y-104552348D01*
X103550582Y-104552349D01*
X103504518Y-104506283D01*
X103504517Y-104506282D01*
X103504513Y-104506278D01*
X103453094Y-104471921D01*
X103453093Y-104471920D01*
X103400429Y-104436730D01*
X103331274Y-104408084D01*
X103331273Y-104408084D01*
X103285374Y-104389071D01*
X103284812Y-104388834D01*
X103284782Y-104388824D01*
X103238560Y-104379630D01*
X103222870Y-104376509D01*
X103222868Y-104376508D01*
X103222867Y-104376508D01*
X103192022Y-104370372D01*
X103162004Y-104364401D01*
X103161998Y-104364400D01*
X103161997Y-104364400D01*
X103161996Y-104364400D01*
X103161991Y-104364400D01*
X103099413Y-104364400D01*
X103036822Y-104364399D01*
X103036821Y-104364399D01*
X103030610Y-104364399D01*
X103030590Y-104364400D01*
X100626400Y-104364400D01*
X100558279Y-104344398D01*
X100511786Y-104290742D01*
X100500400Y-104238400D01*
X100500400Y-100274830D01*
X110045500Y-100274830D01*
X110045500Y-101724963D01*
X110045501Y-101724973D01*
X110060265Y-101799200D01*
X110116516Y-101883384D01*
X110200697Y-101939633D01*
X110200699Y-101939634D01*
X110274933Y-101954400D01*
X111725066Y-101954399D01*
X111725069Y-101954398D01*
X111725073Y-101954398D01*
X111774326Y-101944601D01*
X111799301Y-101939634D01*
X111883484Y-101883384D01*
X111939734Y-101799201D01*
X111954500Y-101724967D01*
X111954499Y-100274834D01*
X111954498Y-100274830D01*
X111954498Y-100274826D01*
X111939734Y-100200599D01*
X111883483Y-100116415D01*
X111799302Y-100060166D01*
X111725067Y-100045400D01*
X110274936Y-100045400D01*
X110274926Y-100045401D01*
X110200699Y-100060165D01*
X110116515Y-100116416D01*
X110060266Y-100200597D01*
X110045500Y-100274830D01*
X100500400Y-100274830D01*
X100500400Y-98324350D01*
X112874494Y-98324350D01*
X112874500Y-98324439D01*
X112874500Y-112184108D01*
X112874500Y-112315892D01*
X112899467Y-112409073D01*
X112908607Y-112443183D01*
X112908610Y-112443190D01*
X112974497Y-112557310D01*
X112974505Y-112557320D01*
X113067679Y-112650494D01*
X113067684Y-112650498D01*
X113067686Y-112650500D01*
X113181814Y-112716392D01*
X113309108Y-112750500D01*
X113309110Y-112750500D01*
X126440990Y-112750500D01*
X126440992Y-112750500D01*
X126568286Y-112716392D01*
X126682414Y-112650500D01*
X126775600Y-112557314D01*
X126841492Y-112443186D01*
X126875600Y-112315892D01*
X126875600Y-98251038D01*
X126875605Y-98185146D01*
X126875600Y-98185127D01*
X126875600Y-98185108D01*
X126858834Y-98122536D01*
X126841507Y-98057850D01*
X126841497Y-98057832D01*
X126841492Y-98057814D01*
X126809445Y-98002307D01*
X126775624Y-97943717D01*
X126775609Y-97943702D01*
X126775600Y-97943686D01*
X126729034Y-97897120D01*
X126682445Y-97850524D01*
X126682444Y-97850523D01*
X126682439Y-97850518D01*
X126682419Y-97850503D01*
X126680664Y-97849490D01*
X126623859Y-97816693D01*
X126623860Y-97816691D01*
X126623852Y-97816689D01*
X126568322Y-97784623D01*
X126568321Y-97784622D01*
X126568306Y-97784614D01*
X126568288Y-97784609D01*
X126568286Y-97784608D01*
X126503637Y-97767285D01*
X126475399Y-97759716D01*
X126441012Y-97750500D01*
X126440992Y-97750500D01*
X126376021Y-97750500D01*
X113449042Y-97749505D01*
X113448956Y-97749500D01*
X113440892Y-97749500D01*
X113374155Y-97749500D01*
X113309146Y-97749494D01*
X113309110Y-97749499D01*
X113257814Y-97763242D01*
X113257807Y-97763244D01*
X113246536Y-97766265D01*
X113181850Y-97783593D01*
X113181832Y-97783602D01*
X113181814Y-97783608D01*
X113126307Y-97815654D01*
X113067717Y-97849476D01*
X113067702Y-97849490D01*
X113067686Y-97849500D01*
X113021120Y-97896065D01*
X112974524Y-97942655D01*
X112974514Y-97942671D01*
X112974500Y-97942686D01*
X112940693Y-98001240D01*
X112908623Y-98056778D01*
X112908617Y-98056796D01*
X112908608Y-98056814D01*
X112891285Y-98121462D01*
X112888265Y-98132729D01*
X112888263Y-98132734D01*
X112874500Y-98184088D01*
X112874500Y-98249972D01*
X112874494Y-98324350D01*
X100500400Y-98324350D01*
X100500400Y-97274830D01*
X131295600Y-97274830D01*
X131295600Y-98724963D01*
X131295601Y-98724973D01*
X131310365Y-98799200D01*
X131366616Y-98883384D01*
X131450797Y-98939633D01*
X131450799Y-98939634D01*
X131525033Y-98954400D01*
X132975166Y-98954399D01*
X132975169Y-98954398D01*
X132975173Y-98954398D01*
X133024426Y-98944601D01*
X133049401Y-98939634D01*
X133133584Y-98883384D01*
X133189834Y-98799201D01*
X133204600Y-98724967D01*
X133204599Y-97274834D01*
X133204598Y-97274830D01*
X133204598Y-97274826D01*
X133189834Y-97200599D01*
X133133583Y-97116415D01*
X133049402Y-97060166D01*
X132975167Y-97045400D01*
X131525036Y-97045400D01*
X131525026Y-97045401D01*
X131450799Y-97060165D01*
X131366615Y-97116416D01*
X131310366Y-97200597D01*
X131295600Y-97274830D01*
X100500400Y-97274830D01*
X100500400Y-95290530D01*
X113913100Y-95290530D01*
X113913100Y-96864663D01*
X113913101Y-96864673D01*
X113927865Y-96938900D01*
X113984116Y-97023084D01*
X114068297Y-97079333D01*
X114068299Y-97079334D01*
X114142533Y-97094100D01*
X115716666Y-97094099D01*
X115716669Y-97094098D01*
X115716673Y-97094098D01*
X115765926Y-97084301D01*
X115790901Y-97079334D01*
X115875084Y-97023084D01*
X115931334Y-96938901D01*
X115946100Y-96864667D01*
X115946099Y-95290534D01*
X115946098Y-95290530D01*
X115946098Y-95290526D01*
X115931334Y-95216299D01*
X115875083Y-95132115D01*
X115790902Y-95075866D01*
X115716667Y-95061100D01*
X114142536Y-95061100D01*
X114142526Y-95061101D01*
X114068299Y-95075865D01*
X113984115Y-95132116D01*
X113927866Y-95216297D01*
X113913100Y-95290530D01*
X100500400Y-95290530D01*
X100500400Y-90274830D01*
X110045500Y-90274830D01*
X110045500Y-91724963D01*
X110045501Y-91724973D01*
X110060265Y-91799200D01*
X110116516Y-91883384D01*
X110200697Y-91939633D01*
X110200699Y-91939634D01*
X110274933Y-91954400D01*
X111725066Y-91954399D01*
X111725069Y-91954398D01*
X111725073Y-91954398D01*
X111774326Y-91944601D01*
X111799301Y-91939634D01*
X111883484Y-91883384D01*
X111939734Y-91799201D01*
X111954500Y-91724967D01*
X111954499Y-90274834D01*
X111954498Y-90274830D01*
X111954498Y-90274826D01*
X111939734Y-90200599D01*
X111883483Y-90116415D01*
X111799302Y-90060166D01*
X111725067Y-90045400D01*
X110274936Y-90045400D01*
X110274926Y-90045401D01*
X110200699Y-90060165D01*
X110116515Y-90116416D01*
X110060266Y-90200597D01*
X110045500Y-90274830D01*
X100500400Y-90274830D01*
X100500400Y-82274930D01*
X110045500Y-82274930D01*
X110045500Y-83725063D01*
X110045501Y-83725073D01*
X110060265Y-83799300D01*
X110116516Y-83883484D01*
X110200697Y-83939733D01*
X110200699Y-83939734D01*
X110274933Y-83954500D01*
X111725066Y-83954499D01*
X111725069Y-83954498D01*
X111725073Y-83954498D01*
X111774326Y-83944701D01*
X111799301Y-83939734D01*
X111883484Y-83883484D01*
X111939734Y-83799301D01*
X111954500Y-83725067D01*
X111954499Y-82274934D01*
X111954498Y-82274930D01*
X111954498Y-82274926D01*
X111939734Y-82200699D01*
X111883483Y-82116515D01*
X111799302Y-82060266D01*
X111725067Y-82045500D01*
X110274936Y-82045500D01*
X110274926Y-82045501D01*
X110200699Y-82060265D01*
X110116515Y-82116516D01*
X110060266Y-82200697D01*
X110045500Y-82274930D01*
X100500400Y-82274930D01*
X100500400Y-79934108D01*
X112874600Y-79934108D01*
X112874600Y-93934208D01*
X112874600Y-94065992D01*
X112899567Y-94159173D01*
X112908707Y-94193283D01*
X112908710Y-94193290D01*
X112974597Y-94307410D01*
X112974605Y-94307420D01*
X113067779Y-94400594D01*
X113067784Y-94400598D01*
X113067786Y-94400600D01*
X113181914Y-94466492D01*
X113309208Y-94500600D01*
X113309210Y-94500600D01*
X126440990Y-94500600D01*
X126440992Y-94500600D01*
X126568286Y-94466492D01*
X126682414Y-94400600D01*
X126775600Y-94307414D01*
X126841492Y-94193286D01*
X126875600Y-94065992D01*
X126875600Y-87933908D01*
X134749500Y-87933908D01*
X134749500Y-107933908D01*
X134749500Y-108065692D01*
X134766525Y-108129229D01*
X134783607Y-108192983D01*
X134783610Y-108192990D01*
X134849497Y-108307110D01*
X134849505Y-108307120D01*
X134942679Y-108400294D01*
X134942684Y-108400298D01*
X134942686Y-108400300D01*
X134942687Y-108400301D01*
X134942689Y-108400302D01*
X134962984Y-108412019D01*
X135056814Y-108466192D01*
X135184108Y-108500300D01*
X141372546Y-108500300D01*
X141440667Y-108520302D01*
X141487160Y-108573958D01*
X141498546Y-108626271D01*
X141500169Y-115608375D01*
X141500900Y-118751689D01*
X141500900Y-118816092D01*
X141500914Y-118816147D01*
X141500915Y-118816208D01*
X141517994Y-118879890D01*
X141535008Y-118943386D01*
X141535037Y-118943437D01*
X141535053Y-118943494D01*
X141568057Y-119000629D01*
X141600900Y-119057514D01*
X141600940Y-119057554D01*
X141600971Y-119057607D01*
X141647575Y-119104189D01*
X141690498Y-119147112D01*
X141694088Y-119150702D01*
X141694172Y-119150766D01*
X141694176Y-119150768D01*
X141694179Y-119150771D01*
X141733748Y-119173604D01*
X141751172Y-119183659D01*
X141751169Y-119183663D01*
X141751195Y-119183672D01*
X141774602Y-119197186D01*
X141808216Y-119216594D01*
X141808324Y-119216638D01*
X141871933Y-119233666D01*
X141871932Y-119233666D01*
X141871963Y-119233673D01*
X141935485Y-119250694D01*
X141935508Y-119250700D01*
X141935511Y-119250700D01*
X141935623Y-119250715D01*
X141935623Y-119250714D01*
X141935624Y-119250715D01*
X141999390Y-119250700D01*
X149332800Y-119250700D01*
X149400921Y-119270702D01*
X149447414Y-119324358D01*
X149458800Y-119376700D01*
X149458800Y-119687608D01*
X149458800Y-119819392D01*
X149483767Y-119912573D01*
X149492907Y-119946683D01*
X149492910Y-119946690D01*
X149558797Y-120060810D01*
X149558805Y-120060820D01*
X149651979Y-120153994D01*
X149651984Y-120153998D01*
X149651986Y-120154000D01*
X149766114Y-120219892D01*
X149893408Y-120254000D01*
X149893410Y-120254000D01*
X158318290Y-120254000D01*
X158318292Y-120254000D01*
X158445586Y-120219892D01*
X158559714Y-120154000D01*
X158652900Y-120060814D01*
X158718792Y-119946686D01*
X158752900Y-119819392D01*
X158752900Y-119379340D01*
X158772902Y-119311219D01*
X158826558Y-119264726D01*
X158878887Y-119253340D01*
X187002146Y-119250700D01*
X187065992Y-119250700D01*
X187066014Y-119250694D01*
X187066039Y-119250694D01*
X187131589Y-119233123D01*
X187193286Y-119216592D01*
X187193306Y-119216580D01*
X187193330Y-119216574D01*
X187249500Y-119184136D01*
X187307414Y-119150700D01*
X187307432Y-119150681D01*
X187307451Y-119150671D01*
X187351299Y-119106814D01*
X187400600Y-119057514D01*
X187400612Y-119057492D01*
X187400629Y-119057476D01*
X187432788Y-119001761D01*
X187466492Y-118943386D01*
X187466498Y-118943362D01*
X187466510Y-118943342D01*
X187483047Y-118881598D01*
X187500600Y-118816092D01*
X187500600Y-118816067D01*
X187500606Y-118816045D01*
X187500600Y-118750153D01*
X187500600Y-73750423D01*
X187500603Y-73684531D01*
X187500601Y-73684526D01*
X187500602Y-73684517D01*
X187484429Y-73624157D01*
X187484102Y-73622938D01*
X187484102Y-73622930D01*
X187484100Y-73622931D01*
X187467528Y-73561068D01*
X187466677Y-73557426D01*
X187466658Y-73557379D01*
X187465192Y-73554963D01*
X187435922Y-73504266D01*
X187434724Y-73502191D01*
X187401027Y-73443819D01*
X187400637Y-73443131D01*
X187400612Y-73443098D01*
X187400600Y-73443086D01*
X187354024Y-73396510D01*
X187354023Y-73396508D01*
X187354023Y-73396509D01*
X187307432Y-73349914D01*
X187307429Y-73349912D01*
X187307421Y-73349904D01*
X187246273Y-73314600D01*
X187246268Y-73314597D01*
X187194051Y-73284446D01*
X187193349Y-73284033D01*
X187193293Y-73284010D01*
X187127612Y-73266411D01*
X187127612Y-73266409D01*
X187127606Y-73266409D01*
X187066004Y-73249900D01*
X187065992Y-73249900D01*
X187000011Y-73249900D01*
X176625694Y-73249427D01*
X176557574Y-73229422D01*
X176511084Y-73175764D01*
X176499700Y-73123427D01*
X176499700Y-68274930D01*
X178045600Y-68274930D01*
X178045600Y-69725063D01*
X178045601Y-69725073D01*
X178060365Y-69799300D01*
X178116616Y-69883484D01*
X178200797Y-69939733D01*
X178200799Y-69939734D01*
X178275033Y-69954500D01*
X179725166Y-69954499D01*
X179725169Y-69954498D01*
X179725173Y-69954498D01*
X179774426Y-69944701D01*
X179799401Y-69939734D01*
X179883584Y-69883484D01*
X179939834Y-69799301D01*
X179954600Y-69725067D01*
X179954599Y-68274934D01*
X179954598Y-68274930D01*
X179954598Y-68274926D01*
X179939834Y-68200699D01*
X179883583Y-68116515D01*
X179799402Y-68060266D01*
X179725167Y-68045500D01*
X178275036Y-68045500D01*
X178275026Y-68045501D01*
X178200799Y-68060265D01*
X178116615Y-68116516D01*
X178060366Y-68200697D01*
X178045600Y-68274930D01*
X176499700Y-68274930D01*
X176499700Y-66933209D01*
X176499700Y-66933208D01*
X176465592Y-66805914D01*
X176399700Y-66691786D01*
X176399698Y-66691784D01*
X176399694Y-66691779D01*
X176306520Y-66598605D01*
X176306510Y-66598597D01*
X176192390Y-66532710D01*
X176192387Y-66532709D01*
X176192386Y-66532708D01*
X176192384Y-66532707D01*
X176192383Y-66532707D01*
X176158273Y-66523567D01*
X176065092Y-66498600D01*
X156065192Y-66498600D01*
X155933408Y-66498600D01*
X155865194Y-66516877D01*
X155806116Y-66532707D01*
X155806109Y-66532710D01*
X155691989Y-66598597D01*
X155691979Y-66598605D01*
X155598805Y-66691779D01*
X155598797Y-66691789D01*
X155532910Y-66805909D01*
X155532907Y-66805916D01*
X155498800Y-66933209D01*
X155498800Y-73123422D01*
X155478798Y-73191543D01*
X155425142Y-73238036D01*
X155372804Y-73249422D01*
X142072399Y-73249892D01*
X142072354Y-73249890D01*
X142017854Y-73249894D01*
X142017852Y-73249894D01*
X142006921Y-73249895D01*
X141932890Y-73249898D01*
X141932878Y-73249900D01*
X141932869Y-73249901D01*
X141872448Y-73266095D01*
X141805597Y-73284011D01*
X141805587Y-73284016D01*
X141805578Y-73284019D01*
X141798099Y-73288337D01*
X141798096Y-73288338D01*
X141760520Y-73310036D01*
X141760514Y-73310041D01*
X141750496Y-73315826D01*
X141691472Y-73349907D01*
X141691464Y-73349914D01*
X141691455Y-73349920D01*
X141644854Y-73396527D01*
X141598289Y-73443096D01*
X141598283Y-73443105D01*
X141598276Y-73443113D01*
X141592010Y-73453966D01*
X141592010Y-73453967D01*
X141564173Y-73502190D01*
X141564172Y-73502191D01*
X141532397Y-73557232D01*
X141532397Y-73557234D01*
X141532370Y-73557299D01*
X141532174Y-73558059D01*
X141514469Y-73624155D01*
X141514469Y-73624156D01*
X141498295Y-73684531D01*
X141498299Y-73748617D01*
X141498299Y-73748619D01*
X141498301Y-73824672D01*
X141498305Y-73824727D01*
X141499351Y-87373290D01*
X141479354Y-87441413D01*
X141425702Y-87487910D01*
X141373351Y-87499300D01*
X135315892Y-87499300D01*
X135184108Y-87499300D01*
X135115894Y-87517577D01*
X135056816Y-87533407D01*
X135056809Y-87533410D01*
X134942689Y-87599297D01*
X134942679Y-87599305D01*
X134849505Y-87692479D01*
X134849497Y-87692489D01*
X134783610Y-87806609D01*
X134783608Y-87806614D01*
X134749500Y-87933908D01*
X126875600Y-87933908D01*
X126875600Y-84274980D01*
X136295600Y-84274980D01*
X136295600Y-85725013D01*
X136295601Y-85725023D01*
X136310365Y-85799250D01*
X136366616Y-85883434D01*
X136450797Y-85939683D01*
X136450799Y-85939684D01*
X136525033Y-85954450D01*
X137975166Y-85954449D01*
X137975169Y-85954448D01*
X137975173Y-85954448D01*
X138024426Y-85944651D01*
X138049401Y-85939684D01*
X138133584Y-85883434D01*
X138189834Y-85799251D01*
X138204600Y-85725017D01*
X138204599Y-84274984D01*
X138204598Y-84274980D01*
X138204598Y-84274976D01*
X138189834Y-84200749D01*
X138133583Y-84116565D01*
X138049402Y-84060316D01*
X137975167Y-84045550D01*
X136525036Y-84045550D01*
X136525026Y-84045551D01*
X136450799Y-84060315D01*
X136366615Y-84116566D01*
X136310366Y-84200747D01*
X136295600Y-84274980D01*
X126875600Y-84274980D01*
X126875600Y-79934108D01*
X126841492Y-79806814D01*
X126775600Y-79692686D01*
X126775598Y-79692684D01*
X126775594Y-79692679D01*
X126682420Y-79599505D01*
X126682410Y-79599497D01*
X126568290Y-79533610D01*
X126568287Y-79533609D01*
X126568286Y-79533608D01*
X126568284Y-79533607D01*
X126568283Y-79533607D01*
X126534173Y-79524467D01*
X126440992Y-79499500D01*
X113440992Y-79499500D01*
X113309208Y-79499500D01*
X113240994Y-79517777D01*
X113181916Y-79533607D01*
X113181909Y-79533610D01*
X113067789Y-79599497D01*
X113067779Y-79599505D01*
X112974605Y-79692679D01*
X112974597Y-79692689D01*
X112908710Y-79806809D01*
X112908708Y-79806814D01*
X112874600Y-79934108D01*
X100500400Y-79934108D01*
X100500400Y-75539630D01*
X113663200Y-75539630D01*
X113663200Y-77113763D01*
X113663201Y-77113773D01*
X113677965Y-77188000D01*
X113734216Y-77272184D01*
X113818397Y-77328433D01*
X113818399Y-77328434D01*
X113892633Y-77343200D01*
X115466766Y-77343199D01*
X115466769Y-77343198D01*
X115466773Y-77343198D01*
X115516026Y-77333401D01*
X115541001Y-77328434D01*
X115625184Y-77272184D01*
X115681434Y-77188001D01*
X115696200Y-77113767D01*
X115696199Y-75539634D01*
X115696198Y-75539630D01*
X115696198Y-75539626D01*
X115681434Y-75465399D01*
X115625183Y-75381215D01*
X115541002Y-75324966D01*
X115466767Y-75310200D01*
X113892636Y-75310200D01*
X113892626Y-75310201D01*
X113818399Y-75324965D01*
X113734215Y-75381216D01*
X113677966Y-75465397D01*
X113663200Y-75539630D01*
X100500400Y-75539630D01*
X100500400Y-70259604D01*
X100520402Y-70191483D01*
X100537305Y-70170509D01*
X107432884Y-63274930D01*
X165045600Y-63274930D01*
X165045600Y-64725063D01*
X165045601Y-64725073D01*
X165060365Y-64799300D01*
X165116616Y-64883484D01*
X165200797Y-64939733D01*
X165200799Y-64939734D01*
X165275033Y-64954500D01*
X166725166Y-64954499D01*
X166725169Y-64954498D01*
X166725173Y-64954498D01*
X166774426Y-64944701D01*
X166799401Y-64939734D01*
X166883584Y-64883484D01*
X166939834Y-64799301D01*
X166954600Y-64725067D01*
X166954599Y-63274934D01*
X166954598Y-63274930D01*
X166954598Y-63274926D01*
X166939834Y-63200699D01*
X166883583Y-63116515D01*
X166799402Y-63060266D01*
X166725167Y-63045500D01*
X165275036Y-63045500D01*
X165275026Y-63045501D01*
X165200799Y-63060265D01*
X165116615Y-63116516D01*
X165060366Y-63200697D01*
X165045600Y-63274930D01*
X107432884Y-63274930D01*
X110170409Y-60537405D01*
X110232721Y-60503379D01*
X110259504Y-60500500D01*
X189740297Y-60500500D01*
X189808418Y-60520502D01*
G37*
%TD.AperFunction*%
%TD*%
M02*
