%TF.GenerationSoftware,KiCad,Pcbnew,10.0.6*%
%TF.CreationDate,2026-09-23T18:20:02+08:00*%
%TF.ProjectId,Analog_Throttle_Module,416e616c-6f67-45f5-9468-726f74746c65,1.7*%
%TF.SameCoordinates,Original*%
%TF.FileFunction,Soldermask,Bot*%
%TF.FilePolarity,Negative*%
%FSLAX46Y46*%
G04 Gerber Fmt 4.6, Leading zero omitted, Abs format (unit mm)*
G04 Created by KiCad (PCBNEW 10.0.6) date 2026-09-23 18:20:02*
%MOMM*%
%LPD*%
G01*
G04 APERTURE LIST*
G04 Aperture macros list*
%AMRoundRect*
0 Rectangle with rounded corners*
0 $1 Rounding radius*
0 $2 $3 $4 $5 $6 $7 $8 $9 X,Y pos of 4 corners*
0 Add a 4 corners polygon primitive as box body*
4,1,4,$2,$3,$4,$5,$6,$7,$8,$9,$2,$3,0*
0 Add four circle primitives for the rounded corners*
1,1,$1+$1,$2,$3*
1,1,$1+$1,$4,$5*
1,1,$1+$1,$6,$7*
1,1,$1+$1,$8,$9*
0 Add four rect primitives between the rounded corners*
20,1,$1+$1,$2,$3,$4,$5,0*
20,1,$1+$1,$4,$5,$6,$7,0*
20,1,$1+$1,$6,$7,$8,$9,0*
20,1,$1+$1,$8,$9,$2,$3,0*%
G04 Aperture macros list end*
%ADD10RoundRect,0.101600X0.500000X0.500000X-0.500000X0.500000X-0.500000X-0.500000X0.500000X-0.500000X0*%
%ADD11RoundRect,0.050800X-0.800100X-0.800100X0.800100X-0.800100X0.800100X0.800100X-0.800100X0.800100X0*%
%ADD12RoundRect,0.101600X0.700000X0.700000X-0.700000X0.700000X-0.700000X-0.700000X0.700000X-0.700000X0*%
%ADD13RoundRect,0.101600X-0.700000X0.700000X-0.700000X-0.700000X0.700000X-0.700000X0.700000X0.700000X0*%
%ADD14RoundRect,0.101600X-0.700000X-0.700000X0.700000X-0.700000X0.700000X0.700000X-0.700000X0.700000X0*%
%ADD15RoundRect,0.101600X-0.762000X-0.762000X0.762000X-0.762000X0.762000X0.762000X-0.762000X0.762000X0*%
%ADD16RoundRect,0.101600X-1.500000X-1.500000X1.500000X-1.500000X1.500000X1.500000X-1.500000X1.500000X0*%
%ADD17RoundRect,0.101600X-0.762000X0.762000X-0.762000X-0.762000X0.762000X-0.762000X0.762000X0.762000X0*%
%ADD18RoundRect,0.101600X-0.500000X0.500000X-0.500000X-0.500000X0.500000X-0.500000X0.500000X0.500000X0*%
%ADD19RoundRect,0.101600X0.650000X0.650000X-0.650000X0.650000X-0.650000X-0.650000X0.650000X-0.650000X0*%
%ADD20RoundRect,0.101600X-0.700000X-0.699950X0.700000X-0.699950X0.700000X0.699950X-0.700000X0.699950X0*%
%ADD21RoundRect,0.050800X0.800000X-0.800000X0.800000X0.800000X-0.800000X0.800000X-0.800000X-0.800000X0*%
%ADD22RoundRect,0.101600X0.762000X0.762000X-0.762000X0.762000X-0.762000X-0.762000X0.762000X-0.762000X0*%
%ADD23RoundRect,0.101600X0.762000X-0.762000X0.762000X0.762000X-0.762000X0.762000X-0.762000X-0.762000X0*%
%ADD24RoundRect,0.101600X0.650000X0.650050X-0.650000X0.650050X-0.650000X-0.650050X0.650000X-0.650050X0*%
G04 APERTURE END LIST*
D10*
%TO.C,WP44*%
X143501800Y-137253800D03*
%TD*%
%TO.C,WP39*%
X143501800Y-151253800D03*
%TD*%
D11*
%TO.C,TP_+5V*%
X118960100Y-127000100D03*
%TD*%
D12*
%TO.C,TP_+5V*%
X151999900Y-121500000D03*
%TD*%
D13*
%TO.C,TP_RESETTRIM*%
X111000000Y-90999900D03*
%TD*%
D14*
%TO.C,TP_GND*%
X137250100Y-110999900D03*
%TD*%
D15*
%TO.C,C4*%
X151456100Y-134650600D03*
X151456100Y-129650700D03*
%TD*%
D11*
%TO.C,TP_CRUISE*%
X134240000Y-119399900D03*
%TD*%
D16*
%TO.C,TP_THROTTLE*%
X102700000Y-141099900D03*
%TD*%
D17*
%TO.C,R6*%
X124839700Y-76326700D03*
X114679700Y-76326700D03*
%TD*%
D18*
%TO.C,WP24*%
X143502100Y-145253800D03*
%TD*%
D11*
%TO.C,TP_AXIS2*%
X126620000Y-119399900D03*
%TD*%
D19*
%TO.C,WP51*%
X141501800Y-149253800D03*
%TD*%
%TO.C,WP50*%
X141501800Y-147253800D03*
%TD*%
D20*
%TO.C,TP_+5V*%
X137250100Y-85000000D03*
%TD*%
D16*
%TO.C,TP_GND*%
X102700000Y-146299800D03*
%TD*%
D15*
%TO.C,R2*%
X190580200Y-141415600D03*
X190580200Y-151575600D03*
%TD*%
D14*
%TO.C,TP_AXIS2*%
X132250100Y-97999900D03*
%TD*%
%TO.C,TP_AXIS3*%
X179000100Y-122000100D03*
%TD*%
D12*
%TO.C,TP_TRIM*%
X161000100Y-121500000D03*
%TD*%
D14*
%TO.C,TP_GND*%
X183000100Y-122000100D03*
%TD*%
%TO.C,TP_MODE2*%
X178749900Y-154749900D03*
%TD*%
D11*
%TO.C,TP_AREF*%
X121540000Y-119399900D03*
%TD*%
%TO.C,TP_SDA*%
X134199800Y-126999900D03*
%TD*%
D18*
%TO.C,WP25*%
X143502100Y-143253800D03*
%TD*%
D14*
%TO.C,TP_MODE1*%
X178749900Y-135999800D03*
%TD*%
D13*
%TO.C,TP_+5V*%
X111000000Y-83000000D03*
%TD*%
%TO.C,TP_+5V*%
X111000000Y-100999900D03*
%TD*%
D21*
%TO.C,U4*%
X154709800Y-135809900D03*
X157249800Y-135809900D03*
X159789800Y-135809900D03*
X162329800Y-135809900D03*
X164869800Y-135809900D03*
X167409800Y-135809900D03*
X169949800Y-135809900D03*
X172489800Y-135809900D03*
X172489800Y-128189900D03*
X169949800Y-128189900D03*
X167409800Y-128189900D03*
X164869800Y-128189900D03*
X162329800Y-128189900D03*
X159789800Y-128189900D03*
X157249800Y-128189900D03*
X154709800Y-128189900D03*
%TD*%
D11*
%TO.C,TP_RESET*%
X126579800Y-126999900D03*
%TD*%
%TO.C,TP_THROTTLE*%
X131659800Y-126999900D03*
%TD*%
%TO.C,TP_CLOCK_Y_*%
X124039800Y-126999900D03*
%TD*%
D14*
%TO.C,TP_AXIS1*%
X166000100Y-64000000D03*
%TD*%
D22*
%TO.C,C-MAIN*%
X146772300Y-127253400D03*
X144232300Y-127253400D03*
%TD*%
D14*
%TO.C,TP_+5V*%
X179000100Y-69000000D03*
%TD*%
%TO.C,TP_+5V*%
X157000100Y-152499900D03*
%TD*%
D11*
%TO.C,TP_DATA_P_*%
X129119800Y-126999900D03*
%TD*%
%TO.C,TP_SCL*%
X131700000Y-119399900D03*
%TD*%
D19*
%TO.C,WP45*%
X141501800Y-137253800D03*
%TD*%
%TO.C,WP52*%
X141501800Y-151253800D03*
%TD*%
D11*
%TO.C,TP_GND*%
X119000000Y-119399900D03*
%TD*%
D10*
%TO.C,WP47*%
X141501800Y-141253800D03*
%TD*%
D22*
%TO.C,C1*%
X114943900Y-120749200D03*
X114943900Y-125749200D03*
%TD*%
D17*
%TO.C,R5*%
X125089600Y-96077600D03*
X114929600Y-96077600D03*
%TD*%
D10*
%TO.C,WP49*%
X141501800Y-145253800D03*
%TD*%
D11*
%TO.C,TP_LATCH_G_*%
X121499800Y-126999900D03*
%TD*%
D17*
%TO.C,R3*%
X189592900Y-133079300D03*
X179432900Y-133079300D03*
%TD*%
D11*
%TO.C,TP_AXIS1*%
X124080000Y-119399900D03*
%TD*%
D17*
%TO.C,R4*%
X171342000Y-124079100D03*
X161182000Y-124079100D03*
%TD*%
D14*
%TO.C,TP_+5V*%
X175000100Y-122000100D03*
%TD*%
D13*
%TO.C,TP_BRAKES*%
X111000000Y-108999900D03*
%TD*%
D14*
%TO.C,TP_+5V*%
X185999800Y-144500000D03*
%TD*%
D16*
%TO.C,TP_+5V*%
X102700000Y-136299800D03*
%TD*%
D18*
%TO.C,WP38*%
X143502100Y-147253800D03*
%TD*%
D23*
%TO.C,R1*%
X154914300Y-155428800D03*
X165074300Y-155428800D03*
%TD*%
D10*
%TO.C,WP53*%
X143501800Y-149253800D03*
%TD*%
D18*
%TO.C,WP11*%
X143502100Y-141253800D03*
%TD*%
D14*
%TO.C,TP_GND*%
X152999900Y-69000000D03*
%TD*%
D10*
%TO.C,WP48*%
X141501800Y-143253800D03*
%TD*%
D11*
%TO.C,TP_AXIS3*%
X129160000Y-119399900D03*
%TD*%
D10*
%TO.C,WP43*%
X143501800Y-139253600D03*
%TD*%
D14*
%TO.C,TP_TRANS*%
X165000100Y-152499900D03*
%TD*%
D24*
%TO.C,WP46*%
X141501800Y-139253600D03*
%TD*%
M02*
