%TF.GenerationSoftware,KiCad,Pcbnew,10.0.6*%
%TF.CreationDate,2026-09-23T18:20:02+08:00*%
%TF.ProjectId,Analog_Throttle_Module,416e616c-6f67-45f5-9468-726f74746c65,1.7*%
%TF.SameCoordinates,Original*%
%TF.FileFunction,Legend,Top*%
%TF.FilePolarity,Positive*%
%FSLAX46Y46*%
G04 Gerber Fmt 4.6, Leading zero omitted, Abs format (unit mm)*
G04 Created by KiCad (PCBNEW 10.0.6) date 2026-09-23 18:20:02*
%MOMM*%
%LPD*%
G01*
G04 APERTURE LIST*
%ADD10C,0.254000*%
%ADD11C,0.080000*%
%ADD12C,0.150000*%
%ADD13C,0.200000*%
%ADD14C,0.177800*%
%ADD15C,0.152400*%
G04 APERTURE END LIST*
D10*
X111000000Y-114999900D02*
X111000000Y-129199900D01*
X111000000Y-129199900D02*
X136999900Y-129199900D01*
X116999900Y-119899900D02*
X116999900Y-122234900D01*
X116999900Y-119899900D02*
X118479200Y-119899900D01*
X116999900Y-122234900D02*
G75*
G02*
X116998700Y-124165100I-600J-965100D01*
G01*
X116999900Y-126499900D02*
X116999900Y-124165100D01*
X116999900Y-126499900D02*
X117971700Y-126499900D01*
X117278100Y-127873400D02*
G75*
G02*
X117024100Y-127873400I-127000J0D01*
G01*
X117024100Y-127873400D02*
G75*
G02*
X117278100Y-127873400I127000J0D01*
G01*
X119480700Y-119899900D02*
X121019200Y-119899900D01*
X119988200Y-126499900D02*
X121019200Y-126499900D01*
X122020700Y-119899900D02*
X123559200Y-119899900D01*
X122020700Y-126499900D02*
X123559200Y-126499900D01*
X124560700Y-119899900D02*
X126099200Y-119899900D01*
X124560700Y-126499900D02*
X126099200Y-126499900D01*
X127100700Y-119899900D02*
X128639200Y-119899900D01*
X127100700Y-126499900D02*
X128639200Y-126499900D01*
X129640700Y-119899900D02*
X131179200Y-119899900D01*
X129640700Y-126499900D02*
X131179200Y-126499900D01*
X132180700Y-119899900D02*
X133719200Y-119899900D01*
X132180700Y-126499900D02*
X133719200Y-126499900D01*
X134720700Y-119899900D02*
X136200000Y-119899900D01*
X134720700Y-126499900D02*
X136200000Y-126499900D01*
X136200000Y-119899900D02*
X136200000Y-126499900D01*
X136999900Y-114999900D02*
X111000000Y-114999900D01*
X136999900Y-129199900D02*
X136999900Y-114999900D01*
X139501900Y-132253900D02*
X145501700Y-132253900D01*
X139501900Y-156253900D02*
X139501900Y-132253900D01*
X144501700Y-143253900D02*
X144501700Y-145253800D01*
X144501700Y-145253800D02*
X145501700Y-145253800D01*
X145501700Y-132253900D02*
X145501700Y-156253900D01*
X145501700Y-143253900D02*
X144501700Y-143253900D01*
X145501700Y-156253900D02*
X139501900Y-156253900D01*
X193500100Y-84250000D02*
X193500100Y-86499900D01*
D11*
X102879421Y-135489273D02*
X103123231Y-135489273D01*
X103519421Y-135489273D02*
X103763231Y-135489273D01*
X104159421Y-135489273D02*
X104403231Y-135489273D01*
X102879421Y-147238973D02*
X103123231Y-147238973D01*
X103519421Y-147238973D02*
X103763231Y-147238973D01*
X104159421Y-147238973D02*
X104403231Y-147238973D01*
X102879621Y-141239273D02*
X103123431Y-141239273D01*
X103519621Y-141239273D02*
X103763431Y-141239273D01*
X104159621Y-141239273D02*
X104403431Y-141239273D01*
X112129321Y-109139773D02*
X112373131Y-109139773D01*
X112769321Y-109139773D02*
X113013131Y-109139773D01*
X113409321Y-109139773D02*
X113653131Y-109139773D01*
X133378921Y-98140273D02*
X133622731Y-98140273D01*
X134018921Y-98140273D02*
X134262731Y-98140273D01*
X134658921Y-98140273D02*
X134902731Y-98140273D01*
X153128721Y-121639073D02*
X153372531Y-121639073D01*
X153768721Y-121639073D02*
X154012531Y-121639073D01*
X154128721Y-69139873D02*
X154372531Y-69139873D01*
X154768721Y-69139873D02*
X155012531Y-69139873D01*
X155408721Y-69139873D02*
X155652531Y-69139873D01*
X176378821Y-69140073D02*
X176622631Y-69140073D01*
X177018821Y-69140073D02*
X177262631Y-69140073D01*
X177658821Y-69140073D02*
X177902631Y-69140073D01*
X137389773Y-109871578D02*
X137389773Y-109627769D01*
X137389773Y-109231578D02*
X137389773Y-108987769D01*
X137389773Y-108591578D02*
X137389773Y-108347769D01*
X177870978Y-121860726D02*
X177627169Y-121860726D01*
X177230978Y-121860726D02*
X176987169Y-121860726D01*
X176590978Y-121860726D02*
X176347169Y-121860726D01*
X181621078Y-121860726D02*
X181377269Y-121860726D01*
X180981078Y-121860726D02*
X180737269Y-121860726D01*
X180341078Y-121860726D02*
X180097269Y-121860726D01*
X137110726Y-86128721D02*
X137110726Y-86372531D01*
X137110726Y-86768721D02*
X137110726Y-87012531D01*
X137110726Y-87408721D02*
X137110726Y-87652531D01*
X165860726Y-65129321D02*
X165860726Y-65373131D01*
X165860726Y-65769321D02*
X165860726Y-66013131D01*
X165860726Y-66409321D02*
X165860726Y-66653131D01*
X178610826Y-152128621D02*
X178610826Y-152372431D01*
X178610826Y-152768621D02*
X178610826Y-153012431D01*
X178610826Y-153408621D02*
X178610826Y-153652431D01*
X112140726Y-83139073D02*
X112422631Y-83139073D01*
X112880726Y-83139073D02*
X113162631Y-83139073D01*
X113620726Y-83139073D02*
X113902631Y-83139073D01*
X112141426Y-91139773D02*
X112423331Y-91139773D01*
X112881426Y-91139773D02*
X113163331Y-91139773D01*
X113621426Y-91139773D02*
X113903331Y-91139773D01*
X112141426Y-101139573D02*
X112423331Y-101139573D01*
X112881426Y-101139573D02*
X113163331Y-101139573D01*
X113621426Y-101139573D02*
X113903331Y-101139573D01*
X159140626Y-121639073D02*
X159422531Y-121639073D01*
X159880626Y-121639073D02*
X160162531Y-121639073D01*
X157138973Y-151359173D02*
X157138973Y-151077269D01*
X157138973Y-150619173D02*
X157138973Y-150337269D01*
X157138973Y-149879173D02*
X157138973Y-149597269D01*
X165138973Y-151359173D02*
X165138973Y-151077269D01*
X165138973Y-150619173D02*
X165138973Y-150337269D01*
X165138973Y-149879173D02*
X165138973Y-149597269D01*
X184859573Y-144361126D02*
X184577669Y-144361126D01*
X184119573Y-144361126D02*
X183837669Y-144361126D01*
X183379573Y-144361126D02*
X183097669Y-144361126D01*
X178610826Y-137140326D02*
X178610826Y-137422231D01*
X178610826Y-137880326D02*
X178610826Y-138162231D01*
X178610826Y-138620326D02*
X178610826Y-138902231D01*
D12*
X111745895Y-120246303D02*
X111707800Y-120208207D01*
X111707800Y-120208207D02*
X111669704Y-120093922D01*
X111669704Y-120093922D02*
X111669704Y-120017731D01*
X111669704Y-120017731D02*
X111707800Y-119903445D01*
X111707800Y-119903445D02*
X111783990Y-119827255D01*
X111783990Y-119827255D02*
X111860180Y-119789160D01*
X111860180Y-119789160D02*
X112012561Y-119751064D01*
X112012561Y-119751064D02*
X112126847Y-119751064D01*
X112126847Y-119751064D02*
X112279228Y-119789160D01*
X112279228Y-119789160D02*
X112355419Y-119827255D01*
X112355419Y-119827255D02*
X112431609Y-119903445D01*
X112431609Y-119903445D02*
X112469704Y-120017731D01*
X112469704Y-120017731D02*
X112469704Y-120093922D01*
X112469704Y-120093922D02*
X112431609Y-120208207D01*
X112431609Y-120208207D02*
X112393514Y-120246303D01*
X112469704Y-120741541D02*
X112469704Y-120893922D01*
X112469704Y-120893922D02*
X112431609Y-120970112D01*
X112431609Y-120970112D02*
X112355419Y-121046303D01*
X112355419Y-121046303D02*
X112203038Y-121084398D01*
X112203038Y-121084398D02*
X111936371Y-121084398D01*
X111936371Y-121084398D02*
X111783990Y-121046303D01*
X111783990Y-121046303D02*
X111707800Y-120970112D01*
X111707800Y-120970112D02*
X111669704Y-120893922D01*
X111669704Y-120893922D02*
X111669704Y-120741541D01*
X111669704Y-120741541D02*
X111707800Y-120665350D01*
X111707800Y-120665350D02*
X111783990Y-120589160D01*
X111783990Y-120589160D02*
X111936371Y-120551064D01*
X111936371Y-120551064D02*
X112203038Y-120551064D01*
X112203038Y-120551064D02*
X112355419Y-120589160D01*
X112355419Y-120589160D02*
X112431609Y-120665350D01*
X112431609Y-120665350D02*
X112469704Y-120741541D01*
X111669704Y-121427255D02*
X112469704Y-121427255D01*
X112469704Y-121427255D02*
X111669704Y-121884398D01*
X111669704Y-121884398D02*
X112469704Y-121884398D01*
X112469704Y-122151064D02*
X112469704Y-122608207D01*
X111669704Y-122379635D02*
X112469704Y-122379635D01*
X111669704Y-123332017D02*
X112050657Y-123065350D01*
X111669704Y-122874874D02*
X112469704Y-122874874D01*
X112469704Y-122874874D02*
X112469704Y-123179636D01*
X112469704Y-123179636D02*
X112431609Y-123255826D01*
X112431609Y-123255826D02*
X112393514Y-123293921D01*
X112393514Y-123293921D02*
X112317323Y-123332017D01*
X112317323Y-123332017D02*
X112203038Y-123332017D01*
X112203038Y-123332017D02*
X112126847Y-123293921D01*
X112126847Y-123293921D02*
X112088752Y-123255826D01*
X112088752Y-123255826D02*
X112050657Y-123179636D01*
X112050657Y-123179636D02*
X112050657Y-122874874D01*
X112469704Y-123827255D02*
X112469704Y-123979636D01*
X112469704Y-123979636D02*
X112431609Y-124055826D01*
X112431609Y-124055826D02*
X112355419Y-124132017D01*
X112355419Y-124132017D02*
X112203038Y-124170112D01*
X112203038Y-124170112D02*
X111936371Y-124170112D01*
X111936371Y-124170112D02*
X111783990Y-124132017D01*
X111783990Y-124132017D02*
X111707800Y-124055826D01*
X111707800Y-124055826D02*
X111669704Y-123979636D01*
X111669704Y-123979636D02*
X111669704Y-123827255D01*
X111669704Y-123827255D02*
X111707800Y-123751064D01*
X111707800Y-123751064D02*
X111783990Y-123674874D01*
X111783990Y-123674874D02*
X111936371Y-123636778D01*
X111936371Y-123636778D02*
X112203038Y-123636778D01*
X112203038Y-123636778D02*
X112355419Y-123674874D01*
X112355419Y-123674874D02*
X112431609Y-123751064D01*
X112431609Y-123751064D02*
X112469704Y-123827255D01*
X111669704Y-124893921D02*
X111669704Y-124512969D01*
X111669704Y-124512969D02*
X112469704Y-124512969D01*
X192343138Y-86174774D02*
X192343138Y-86479536D01*
X191809804Y-86289060D02*
X192495519Y-86289060D01*
X192495519Y-86289060D02*
X192571709Y-86327155D01*
X192571709Y-86327155D02*
X192609804Y-86403345D01*
X192609804Y-86403345D02*
X192609804Y-86479536D01*
X192597900Y-79251064D02*
X192559804Y-79327255D01*
X192559804Y-79327255D02*
X192559804Y-79479636D01*
X192559804Y-79479636D02*
X192597900Y-79555826D01*
X192597900Y-79555826D02*
X192674090Y-79593922D01*
X192674090Y-79593922D02*
X192712185Y-79593922D01*
X192712185Y-79593922D02*
X192788376Y-79555826D01*
X192788376Y-79555826D02*
X192826471Y-79479636D01*
X192826471Y-79479636D02*
X192826471Y-79365350D01*
X192826471Y-79365350D02*
X192864566Y-79289160D01*
X192864566Y-79289160D02*
X192940757Y-79251064D01*
X192940757Y-79251064D02*
X192978852Y-79251064D01*
X192978852Y-79251064D02*
X193055042Y-79289160D01*
X193055042Y-79289160D02*
X193093138Y-79365350D01*
X193093138Y-79365350D02*
X193093138Y-79479636D01*
X193093138Y-79479636D02*
X193055042Y-79555826D01*
X193093138Y-79936779D02*
X192293138Y-79936779D01*
X193055042Y-79936779D02*
X193093138Y-80012969D01*
X193093138Y-80012969D02*
X193093138Y-80165350D01*
X193093138Y-80165350D02*
X193055042Y-80241541D01*
X193055042Y-80241541D02*
X193016947Y-80279636D01*
X193016947Y-80279636D02*
X192940757Y-80317731D01*
X192940757Y-80317731D02*
X192712185Y-80317731D01*
X192712185Y-80317731D02*
X192635995Y-80279636D01*
X192635995Y-80279636D02*
X192597900Y-80241541D01*
X192597900Y-80241541D02*
X192559804Y-80165350D01*
X192559804Y-80165350D02*
X192559804Y-80012969D01*
X192559804Y-80012969D02*
X192597900Y-79936779D01*
X193359804Y-81941641D02*
X193359804Y-82017831D01*
X193359804Y-82017831D02*
X193321709Y-82094022D01*
X193321709Y-82094022D02*
X193283614Y-82132117D01*
X193283614Y-82132117D02*
X193207423Y-82170212D01*
X193207423Y-82170212D02*
X193055042Y-82208307D01*
X193055042Y-82208307D02*
X192864566Y-82208307D01*
X192864566Y-82208307D02*
X192712185Y-82170212D01*
X192712185Y-82170212D02*
X192635995Y-82132117D01*
X192635995Y-82132117D02*
X192597900Y-82094022D01*
X192597900Y-82094022D02*
X192559804Y-82017831D01*
X192559804Y-82017831D02*
X192559804Y-81941641D01*
X192559804Y-81941641D02*
X192597900Y-81865450D01*
X192597900Y-81865450D02*
X192635995Y-81827355D01*
X192635995Y-81827355D02*
X192712185Y-81789260D01*
X192712185Y-81789260D02*
X192864566Y-81751164D01*
X192864566Y-81751164D02*
X193055042Y-81751164D01*
X193055042Y-81751164D02*
X193207423Y-81789260D01*
X193207423Y-81789260D02*
X193283614Y-81827355D01*
X193283614Y-81827355D02*
X193321709Y-81865450D01*
X193321709Y-81865450D02*
X193359804Y-81941641D01*
X193609804Y-87941641D02*
X193609804Y-88094022D01*
X193609804Y-88094022D02*
X193571709Y-88170212D01*
X193571709Y-88170212D02*
X193495519Y-88246403D01*
X193495519Y-88246403D02*
X193343138Y-88284498D01*
X193343138Y-88284498D02*
X193076471Y-88284498D01*
X193076471Y-88284498D02*
X192924090Y-88246403D01*
X192924090Y-88246403D02*
X192847900Y-88170212D01*
X192847900Y-88170212D02*
X192809804Y-88094022D01*
X192809804Y-88094022D02*
X192809804Y-87941641D01*
X192809804Y-87941641D02*
X192847900Y-87865450D01*
X192847900Y-87865450D02*
X192924090Y-87789260D01*
X192924090Y-87789260D02*
X193076471Y-87751164D01*
X193076471Y-87751164D02*
X193343138Y-87751164D01*
X193343138Y-87751164D02*
X193495519Y-87789260D01*
X193495519Y-87789260D02*
X193571709Y-87865450D01*
X193571709Y-87865450D02*
X193609804Y-87941641D01*
X192809804Y-89084498D02*
X193190757Y-88817831D01*
X192809804Y-88627355D02*
X193609804Y-88627355D01*
X193609804Y-88627355D02*
X193609804Y-88932117D01*
X193609804Y-88932117D02*
X193571709Y-89008307D01*
X193571709Y-89008307D02*
X193533614Y-89046402D01*
X193533614Y-89046402D02*
X193457423Y-89084498D01*
X193457423Y-89084498D02*
X193343138Y-89084498D01*
X193343138Y-89084498D02*
X193266947Y-89046402D01*
X193266947Y-89046402D02*
X193228852Y-89008307D01*
X193228852Y-89008307D02*
X193190757Y-88932117D01*
X193190757Y-88932117D02*
X193190757Y-88627355D01*
X193571709Y-90455926D02*
X193609804Y-90379736D01*
X193609804Y-90379736D02*
X193609804Y-90265450D01*
X193609804Y-90265450D02*
X193571709Y-90151164D01*
X193571709Y-90151164D02*
X193495519Y-90074974D01*
X193495519Y-90074974D02*
X193419328Y-90036879D01*
X193419328Y-90036879D02*
X193266947Y-89998783D01*
X193266947Y-89998783D02*
X193152661Y-89998783D01*
X193152661Y-89998783D02*
X193000280Y-90036879D01*
X193000280Y-90036879D02*
X192924090Y-90074974D01*
X192924090Y-90074974D02*
X192847900Y-90151164D01*
X192847900Y-90151164D02*
X192809804Y-90265450D01*
X192809804Y-90265450D02*
X192809804Y-90341641D01*
X192809804Y-90341641D02*
X192847900Y-90455926D01*
X192847900Y-90455926D02*
X192885995Y-90494022D01*
X192885995Y-90494022D02*
X193152661Y-90494022D01*
X193152661Y-90494022D02*
X193152661Y-90341641D01*
X193228852Y-90836879D02*
X193228852Y-91103545D01*
X192809804Y-91217831D02*
X192809804Y-90836879D01*
X192809804Y-90836879D02*
X193609804Y-90836879D01*
X193609804Y-90836879D02*
X193609804Y-91217831D01*
X193609804Y-91446403D02*
X193609804Y-91903546D01*
X192809804Y-91674974D02*
X193609804Y-91674974D01*
X193609804Y-92932118D02*
X193609804Y-93084499D01*
X193609804Y-93084499D02*
X193571709Y-93160689D01*
X193571709Y-93160689D02*
X193495519Y-93236880D01*
X193495519Y-93236880D02*
X193343138Y-93274975D01*
X193343138Y-93274975D02*
X193076471Y-93274975D01*
X193076471Y-93274975D02*
X192924090Y-93236880D01*
X192924090Y-93236880D02*
X192847900Y-93160689D01*
X192847900Y-93160689D02*
X192809804Y-93084499D01*
X192809804Y-93084499D02*
X192809804Y-92932118D01*
X192809804Y-92932118D02*
X192847900Y-92855927D01*
X192847900Y-92855927D02*
X192924090Y-92779737D01*
X192924090Y-92779737D02*
X193076471Y-92741641D01*
X193076471Y-92741641D02*
X193343138Y-92741641D01*
X193343138Y-92741641D02*
X193495519Y-92779737D01*
X193495519Y-92779737D02*
X193571709Y-92855927D01*
X193571709Y-92855927D02*
X193609804Y-92932118D01*
X193609804Y-93617832D02*
X192962185Y-93617832D01*
X192962185Y-93617832D02*
X192885995Y-93655927D01*
X192885995Y-93655927D02*
X192847900Y-93694022D01*
X192847900Y-93694022D02*
X192809804Y-93770213D01*
X192809804Y-93770213D02*
X192809804Y-93922594D01*
X192809804Y-93922594D02*
X192847900Y-93998784D01*
X192847900Y-93998784D02*
X192885995Y-94036879D01*
X192885995Y-94036879D02*
X192962185Y-94074975D01*
X192962185Y-94074975D02*
X193609804Y-94074975D01*
X193609804Y-94341641D02*
X193609804Y-94798784D01*
X192809804Y-94570212D02*
X193609804Y-94570212D01*
X193038376Y-95636879D02*
X193038376Y-96017832D01*
X192809804Y-95560689D02*
X193609804Y-95827356D01*
X193609804Y-95827356D02*
X192809804Y-96094022D01*
X192809804Y-96360689D02*
X193609804Y-96360689D01*
X193609804Y-96360689D02*
X192809804Y-96817832D01*
X192809804Y-96817832D02*
X193609804Y-96817832D01*
X192809804Y-97198784D02*
X193609804Y-97198784D01*
X193609804Y-97198784D02*
X193609804Y-97389260D01*
X193609804Y-97389260D02*
X193571709Y-97503546D01*
X193571709Y-97503546D02*
X193495519Y-97579736D01*
X193495519Y-97579736D02*
X193419328Y-97617831D01*
X193419328Y-97617831D02*
X193266947Y-97655927D01*
X193266947Y-97655927D02*
X193152661Y-97655927D01*
X193152661Y-97655927D02*
X193000280Y-97617831D01*
X193000280Y-97617831D02*
X192924090Y-97579736D01*
X192924090Y-97579736D02*
X192847900Y-97503546D01*
X192847900Y-97503546D02*
X192809804Y-97389260D01*
X192809804Y-97389260D02*
X192809804Y-97198784D01*
X192809804Y-98608308D02*
X193609804Y-98608308D01*
X193609804Y-98608308D02*
X193609804Y-98913070D01*
X193609804Y-98913070D02*
X193571709Y-98989260D01*
X193571709Y-98989260D02*
X193533614Y-99027355D01*
X193533614Y-99027355D02*
X193457423Y-99065451D01*
X193457423Y-99065451D02*
X193343138Y-99065451D01*
X193343138Y-99065451D02*
X193266947Y-99027355D01*
X193266947Y-99027355D02*
X193228852Y-98989260D01*
X193228852Y-98989260D02*
X193190757Y-98913070D01*
X193190757Y-98913070D02*
X193190757Y-98608308D01*
X193609804Y-99408308D02*
X192962185Y-99408308D01*
X192962185Y-99408308D02*
X192885995Y-99446403D01*
X192885995Y-99446403D02*
X192847900Y-99484498D01*
X192847900Y-99484498D02*
X192809804Y-99560689D01*
X192809804Y-99560689D02*
X192809804Y-99713070D01*
X192809804Y-99713070D02*
X192847900Y-99789260D01*
X192847900Y-99789260D02*
X192885995Y-99827355D01*
X192885995Y-99827355D02*
X192962185Y-99865451D01*
X192962185Y-99865451D02*
X193609804Y-99865451D01*
X192847900Y-100208307D02*
X192809804Y-100322593D01*
X192809804Y-100322593D02*
X192809804Y-100513069D01*
X192809804Y-100513069D02*
X192847900Y-100589260D01*
X192847900Y-100589260D02*
X192885995Y-100627355D01*
X192885995Y-100627355D02*
X192962185Y-100665450D01*
X192962185Y-100665450D02*
X193038376Y-100665450D01*
X193038376Y-100665450D02*
X193114566Y-100627355D01*
X193114566Y-100627355D02*
X193152661Y-100589260D01*
X193152661Y-100589260D02*
X193190757Y-100513069D01*
X193190757Y-100513069D02*
X193228852Y-100360688D01*
X193228852Y-100360688D02*
X193266947Y-100284498D01*
X193266947Y-100284498D02*
X193305042Y-100246403D01*
X193305042Y-100246403D02*
X193381233Y-100208307D01*
X193381233Y-100208307D02*
X193457423Y-100208307D01*
X193457423Y-100208307D02*
X193533614Y-100246403D01*
X193533614Y-100246403D02*
X193571709Y-100284498D01*
X193571709Y-100284498D02*
X193609804Y-100360688D01*
X193609804Y-100360688D02*
X193609804Y-100551165D01*
X193609804Y-100551165D02*
X193571709Y-100665450D01*
X192809804Y-101008308D02*
X193609804Y-101008308D01*
X193228852Y-101008308D02*
X193228852Y-101465451D01*
X192809804Y-101465451D02*
X193609804Y-101465451D01*
X194359804Y-86441441D02*
X194359804Y-86517631D01*
X194359804Y-86517631D02*
X194321709Y-86593822D01*
X194321709Y-86593822D02*
X194283614Y-86631917D01*
X194283614Y-86631917D02*
X194207423Y-86670012D01*
X194207423Y-86670012D02*
X194055042Y-86708107D01*
X194055042Y-86708107D02*
X193864566Y-86708107D01*
X193864566Y-86708107D02*
X193712185Y-86670012D01*
X193712185Y-86670012D02*
X193635995Y-86631917D01*
X193635995Y-86631917D02*
X193597900Y-86593822D01*
X193597900Y-86593822D02*
X193559804Y-86517631D01*
X193559804Y-86517631D02*
X193559804Y-86441441D01*
X193559804Y-86441441D02*
X193597900Y-86365250D01*
X193597900Y-86365250D02*
X193635995Y-86327155D01*
X193635995Y-86327155D02*
X193712185Y-86289060D01*
X193712185Y-86289060D02*
X193864566Y-86250964D01*
X193864566Y-86250964D02*
X194055042Y-86250964D01*
X194055042Y-86250964D02*
X194207423Y-86289060D01*
X194207423Y-86289060D02*
X194283614Y-86327155D01*
X194283614Y-86327155D02*
X194321709Y-86365250D01*
X194321709Y-86365250D02*
X194359804Y-86441441D01*
X112715650Y-151044533D02*
X113235650Y-151044533D01*
X112975650Y-151954533D02*
X112975650Y-151044533D01*
X113538983Y-151954533D02*
X113538983Y-151044533D01*
X113538983Y-151477866D02*
X114058983Y-151477866D01*
X114058983Y-151954533D02*
X114058983Y-151044533D01*
X115012316Y-151954533D02*
X114708983Y-151521200D01*
X114492316Y-151954533D02*
X114492316Y-151044533D01*
X114492316Y-151044533D02*
X114838983Y-151044533D01*
X114838983Y-151044533D02*
X114925650Y-151087866D01*
X114925650Y-151087866D02*
X114968983Y-151131200D01*
X114968983Y-151131200D02*
X115012316Y-151217866D01*
X115012316Y-151217866D02*
X115012316Y-151347866D01*
X115012316Y-151347866D02*
X114968983Y-151434533D01*
X114968983Y-151434533D02*
X114925650Y-151477866D01*
X114925650Y-151477866D02*
X114838983Y-151521200D01*
X114838983Y-151521200D02*
X114492316Y-151521200D01*
X115575650Y-151044533D02*
X115748983Y-151044533D01*
X115748983Y-151044533D02*
X115835650Y-151087866D01*
X115835650Y-151087866D02*
X115922316Y-151174533D01*
X115922316Y-151174533D02*
X115965650Y-151347866D01*
X115965650Y-151347866D02*
X115965650Y-151651200D01*
X115965650Y-151651200D02*
X115922316Y-151824533D01*
X115922316Y-151824533D02*
X115835650Y-151911200D01*
X115835650Y-151911200D02*
X115748983Y-151954533D01*
X115748983Y-151954533D02*
X115575650Y-151954533D01*
X115575650Y-151954533D02*
X115488983Y-151911200D01*
X115488983Y-151911200D02*
X115402316Y-151824533D01*
X115402316Y-151824533D02*
X115358983Y-151651200D01*
X115358983Y-151651200D02*
X115358983Y-151347866D01*
X115358983Y-151347866D02*
X115402316Y-151174533D01*
X115402316Y-151174533D02*
X115488983Y-151087866D01*
X115488983Y-151087866D02*
X115575650Y-151044533D01*
X116225649Y-151044533D02*
X116745649Y-151044533D01*
X116485649Y-151954533D02*
X116485649Y-151044533D01*
X116918982Y-151044533D02*
X117438982Y-151044533D01*
X117178982Y-151954533D02*
X117178982Y-151044533D01*
X118175649Y-151954533D02*
X117742315Y-151954533D01*
X117742315Y-151954533D02*
X117742315Y-151044533D01*
X118478982Y-151477866D02*
X118782316Y-151477866D01*
X118912316Y-151954533D02*
X118478982Y-151954533D01*
X118478982Y-151954533D02*
X118478982Y-151044533D01*
X118478982Y-151044533D02*
X118912316Y-151044533D01*
X119335350Y-79195533D02*
X119032017Y-78762200D01*
X118815350Y-79195533D02*
X118815350Y-78285533D01*
X118815350Y-78285533D02*
X119162017Y-78285533D01*
X119162017Y-78285533D02*
X119248684Y-78328866D01*
X119248684Y-78328866D02*
X119292017Y-78372200D01*
X119292017Y-78372200D02*
X119335350Y-78458866D01*
X119335350Y-78458866D02*
X119335350Y-78588866D01*
X119335350Y-78588866D02*
X119292017Y-78675533D01*
X119292017Y-78675533D02*
X119248684Y-78718866D01*
X119248684Y-78718866D02*
X119162017Y-78762200D01*
X119162017Y-78762200D02*
X118815350Y-78762200D01*
X119725350Y-78718866D02*
X120028684Y-78718866D01*
X120158684Y-79195533D02*
X119725350Y-79195533D01*
X119725350Y-79195533D02*
X119725350Y-78285533D01*
X119725350Y-78285533D02*
X120158684Y-78285533D01*
X120505350Y-79152200D02*
X120635350Y-79195533D01*
X120635350Y-79195533D02*
X120852017Y-79195533D01*
X120852017Y-79195533D02*
X120938683Y-79152200D01*
X120938683Y-79152200D02*
X120982017Y-79108866D01*
X120982017Y-79108866D02*
X121025350Y-79022200D01*
X121025350Y-79022200D02*
X121025350Y-78935533D01*
X121025350Y-78935533D02*
X120982017Y-78848866D01*
X120982017Y-78848866D02*
X120938683Y-78805533D01*
X120938683Y-78805533D02*
X120852017Y-78762200D01*
X120852017Y-78762200D02*
X120678683Y-78718866D01*
X120678683Y-78718866D02*
X120592017Y-78675533D01*
X120592017Y-78675533D02*
X120548683Y-78632200D01*
X120548683Y-78632200D02*
X120505350Y-78545533D01*
X120505350Y-78545533D02*
X120505350Y-78458866D01*
X120505350Y-78458866D02*
X120548683Y-78372200D01*
X120548683Y-78372200D02*
X120592017Y-78328866D01*
X120592017Y-78328866D02*
X120678683Y-78285533D01*
X120678683Y-78285533D02*
X120895350Y-78285533D01*
X120895350Y-78285533D02*
X121025350Y-78328866D01*
X121415350Y-78718866D02*
X121718684Y-78718866D01*
X121848684Y-79195533D02*
X121415350Y-79195533D01*
X121415350Y-79195533D02*
X121415350Y-78285533D01*
X121415350Y-78285533D02*
X121848684Y-78285533D01*
X122108683Y-78285533D02*
X122628683Y-78285533D01*
X122368683Y-79195533D02*
X122368683Y-78285533D01*
X123495349Y-78285533D02*
X124015349Y-78285533D01*
X123755349Y-79195533D02*
X123755349Y-78285533D01*
X124838682Y-79195533D02*
X124535349Y-78762200D01*
X124318682Y-79195533D02*
X124318682Y-78285533D01*
X124318682Y-78285533D02*
X124665349Y-78285533D01*
X124665349Y-78285533D02*
X124752016Y-78328866D01*
X124752016Y-78328866D02*
X124795349Y-78372200D01*
X124795349Y-78372200D02*
X124838682Y-78458866D01*
X124838682Y-78458866D02*
X124838682Y-78588866D01*
X124838682Y-78588866D02*
X124795349Y-78675533D01*
X124795349Y-78675533D02*
X124752016Y-78718866D01*
X124752016Y-78718866D02*
X124665349Y-78762200D01*
X124665349Y-78762200D02*
X124318682Y-78762200D01*
X125228682Y-79195533D02*
X125228682Y-78285533D01*
X125662015Y-79195533D02*
X125662015Y-78285533D01*
X125662015Y-78285533D02*
X125965349Y-78935533D01*
X125965349Y-78935533D02*
X126268682Y-78285533D01*
X126268682Y-78285533D02*
X126268682Y-79195533D01*
X121868684Y-113718866D02*
X121998684Y-113762200D01*
X121998684Y-113762200D02*
X122042017Y-113805533D01*
X122042017Y-113805533D02*
X122085350Y-113892200D01*
X122085350Y-113892200D02*
X122085350Y-114022200D01*
X122085350Y-114022200D02*
X122042017Y-114108866D01*
X122042017Y-114108866D02*
X121998684Y-114152200D01*
X121998684Y-114152200D02*
X121912017Y-114195533D01*
X121912017Y-114195533D02*
X121565350Y-114195533D01*
X121565350Y-114195533D02*
X121565350Y-113285533D01*
X121565350Y-113285533D02*
X121868684Y-113285533D01*
X121868684Y-113285533D02*
X121955350Y-113328866D01*
X121955350Y-113328866D02*
X121998684Y-113372200D01*
X121998684Y-113372200D02*
X122042017Y-113458866D01*
X122042017Y-113458866D02*
X122042017Y-113545533D01*
X122042017Y-113545533D02*
X121998684Y-113632200D01*
X121998684Y-113632200D02*
X121955350Y-113675533D01*
X121955350Y-113675533D02*
X121868684Y-113718866D01*
X121868684Y-113718866D02*
X121565350Y-113718866D01*
X122995350Y-114195533D02*
X122692017Y-113762200D01*
X122475350Y-114195533D02*
X122475350Y-113285533D01*
X122475350Y-113285533D02*
X122822017Y-113285533D01*
X122822017Y-113285533D02*
X122908684Y-113328866D01*
X122908684Y-113328866D02*
X122952017Y-113372200D01*
X122952017Y-113372200D02*
X122995350Y-113458866D01*
X122995350Y-113458866D02*
X122995350Y-113588866D01*
X122995350Y-113588866D02*
X122952017Y-113675533D01*
X122952017Y-113675533D02*
X122908684Y-113718866D01*
X122908684Y-113718866D02*
X122822017Y-113762200D01*
X122822017Y-113762200D02*
X122475350Y-113762200D01*
X123342017Y-113935533D02*
X123775350Y-113935533D01*
X123255350Y-114195533D02*
X123558684Y-113285533D01*
X123558684Y-113285533D02*
X123862017Y-114195533D01*
X124165350Y-114195533D02*
X124165350Y-113285533D01*
X124685350Y-114195533D02*
X124295350Y-113675533D01*
X124685350Y-113285533D02*
X124165350Y-113805533D01*
X125075350Y-113718866D02*
X125378684Y-113718866D01*
X125508684Y-114195533D02*
X125075350Y-114195533D01*
X125075350Y-114195533D02*
X125075350Y-113285533D01*
X125075350Y-113285533D02*
X125508684Y-113285533D01*
X125855350Y-114152200D02*
X125985350Y-114195533D01*
X125985350Y-114195533D02*
X126202017Y-114195533D01*
X126202017Y-114195533D02*
X126288683Y-114152200D01*
X126288683Y-114152200D02*
X126332017Y-114108866D01*
X126332017Y-114108866D02*
X126375350Y-114022200D01*
X126375350Y-114022200D02*
X126375350Y-113935533D01*
X126375350Y-113935533D02*
X126332017Y-113848866D01*
X126332017Y-113848866D02*
X126288683Y-113805533D01*
X126288683Y-113805533D02*
X126202017Y-113762200D01*
X126202017Y-113762200D02*
X126028683Y-113718866D01*
X126028683Y-113718866D02*
X125942017Y-113675533D01*
X125942017Y-113675533D02*
X125898683Y-113632200D01*
X125898683Y-113632200D02*
X125855350Y-113545533D01*
X125855350Y-113545533D02*
X125855350Y-113458866D01*
X125855350Y-113458866D02*
X125898683Y-113372200D01*
X125898683Y-113372200D02*
X125942017Y-113328866D01*
X125942017Y-113328866D02*
X126028683Y-113285533D01*
X126028683Y-113285533D02*
X126245350Y-113285533D01*
X126245350Y-113285533D02*
X126375350Y-113328866D01*
X124022017Y-123771033D02*
X124455350Y-123771033D01*
X123935350Y-124031033D02*
X124238684Y-123121033D01*
X124238684Y-123121033D02*
X124542017Y-124031033D01*
X124715350Y-123121033D02*
X125235350Y-123121033D01*
X124975350Y-124031033D02*
X124975350Y-123121033D01*
X125408683Y-123121033D02*
X125928683Y-123121033D01*
X125668683Y-124031033D02*
X125668683Y-123121033D01*
X126232016Y-124031033D02*
X126232016Y-123121033D01*
X126665349Y-124031033D02*
X126665349Y-123121033D01*
X126665349Y-123121033D02*
X127185349Y-124031033D01*
X127185349Y-124031033D02*
X127185349Y-123121033D01*
X127792016Y-123597700D02*
X127792016Y-124031033D01*
X127488682Y-123121033D02*
X127792016Y-123597700D01*
X127792016Y-123597700D02*
X128095349Y-123121033D01*
X128355349Y-123207700D02*
X128398682Y-123164366D01*
X128398682Y-123164366D02*
X128485349Y-123121033D01*
X128485349Y-123121033D02*
X128702016Y-123121033D01*
X128702016Y-123121033D02*
X128788682Y-123164366D01*
X128788682Y-123164366D02*
X128832016Y-123207700D01*
X128832016Y-123207700D02*
X128875349Y-123294366D01*
X128875349Y-123294366D02*
X128875349Y-123381033D01*
X128875349Y-123381033D02*
X128832016Y-123511033D01*
X128832016Y-123511033D02*
X128312016Y-124031033D01*
X128312016Y-124031033D02*
X128875349Y-124031033D01*
X129655349Y-123424366D02*
X129655349Y-124031033D01*
X129438683Y-123077700D02*
X129222016Y-123727700D01*
X129222016Y-123727700D02*
X129785349Y-123727700D01*
X126315250Y-121521033D02*
X126315250Y-122257700D01*
X126315250Y-122257700D02*
X126358584Y-122344366D01*
X126358584Y-122344366D02*
X126401917Y-122387700D01*
X126401917Y-122387700D02*
X126488584Y-122431033D01*
X126488584Y-122431033D02*
X126661917Y-122431033D01*
X126661917Y-122431033D02*
X126748584Y-122387700D01*
X126748584Y-122387700D02*
X126791917Y-122344366D01*
X126791917Y-122344366D02*
X126835250Y-122257700D01*
X126835250Y-122257700D02*
X126835250Y-121521033D01*
X127745250Y-122431033D02*
X127225250Y-122431033D01*
X127485250Y-122431033D02*
X127485250Y-121521033D01*
X127485250Y-121521033D02*
X127398583Y-121651033D01*
X127398583Y-121651033D02*
X127311917Y-121737700D01*
X127311917Y-121737700D02*
X127225250Y-121781033D01*
X151988684Y-123347700D02*
X151988684Y-123781033D01*
X151685350Y-122871033D02*
X151988684Y-123347700D01*
X151988684Y-123347700D02*
X152292017Y-122871033D01*
X151815350Y-151531033D02*
X151815350Y-150621033D01*
X151815350Y-150621033D02*
X152118684Y-151271033D01*
X152118684Y-151271033D02*
X152422017Y-150621033D01*
X152422017Y-150621033D02*
X152422017Y-151531033D01*
X153028684Y-150621033D02*
X153202017Y-150621033D01*
X153202017Y-150621033D02*
X153288684Y-150664366D01*
X153288684Y-150664366D02*
X153375350Y-150751033D01*
X153375350Y-150751033D02*
X153418684Y-150924366D01*
X153418684Y-150924366D02*
X153418684Y-151227700D01*
X153418684Y-151227700D02*
X153375350Y-151401033D01*
X153375350Y-151401033D02*
X153288684Y-151487700D01*
X153288684Y-151487700D02*
X153202017Y-151531033D01*
X153202017Y-151531033D02*
X153028684Y-151531033D01*
X153028684Y-151531033D02*
X152942017Y-151487700D01*
X152942017Y-151487700D02*
X152855350Y-151401033D01*
X152855350Y-151401033D02*
X152812017Y-151227700D01*
X152812017Y-151227700D02*
X152812017Y-150924366D01*
X152812017Y-150924366D02*
X152855350Y-150751033D01*
X152855350Y-150751033D02*
X152942017Y-150664366D01*
X152942017Y-150664366D02*
X153028684Y-150621033D01*
X153808683Y-151531033D02*
X153808683Y-150621033D01*
X153808683Y-150621033D02*
X154025350Y-150621033D01*
X154025350Y-150621033D02*
X154155350Y-150664366D01*
X154155350Y-150664366D02*
X154242017Y-150751033D01*
X154242017Y-150751033D02*
X154285350Y-150837700D01*
X154285350Y-150837700D02*
X154328683Y-151011033D01*
X154328683Y-151011033D02*
X154328683Y-151141033D01*
X154328683Y-151141033D02*
X154285350Y-151314366D01*
X154285350Y-151314366D02*
X154242017Y-151401033D01*
X154242017Y-151401033D02*
X154155350Y-151487700D01*
X154155350Y-151487700D02*
X154025350Y-151531033D01*
X154025350Y-151531033D02*
X153808683Y-151531033D01*
X154718683Y-151054366D02*
X155022017Y-151054366D01*
X155152017Y-151531033D02*
X154718683Y-151531033D01*
X154718683Y-151531033D02*
X154718683Y-150621033D01*
X154718683Y-150621033D02*
X155152017Y-150621033D01*
X154935350Y-121370933D02*
X155455350Y-121370933D01*
X155195350Y-122280933D02*
X155195350Y-121370933D01*
X156278683Y-122280933D02*
X155975350Y-121847600D01*
X155758683Y-122280933D02*
X155758683Y-121370933D01*
X155758683Y-121370933D02*
X156105350Y-121370933D01*
X156105350Y-121370933D02*
X156192017Y-121414266D01*
X156192017Y-121414266D02*
X156235350Y-121457600D01*
X156235350Y-121457600D02*
X156278683Y-121544266D01*
X156278683Y-121544266D02*
X156278683Y-121674266D01*
X156278683Y-121674266D02*
X156235350Y-121760933D01*
X156235350Y-121760933D02*
X156192017Y-121804266D01*
X156192017Y-121804266D02*
X156105350Y-121847600D01*
X156105350Y-121847600D02*
X155758683Y-121847600D01*
X156668683Y-122280933D02*
X156668683Y-121370933D01*
X157102016Y-122280933D02*
X157102016Y-121370933D01*
X157102016Y-121370933D02*
X157405350Y-122020933D01*
X157405350Y-122020933D02*
X157708683Y-121370933D01*
X157708683Y-121370933D02*
X157708683Y-122280933D01*
X156522117Y-66185533D02*
X156955450Y-66185533D01*
X156435450Y-66445533D02*
X156738784Y-65535533D01*
X156738784Y-65535533D02*
X157042117Y-66445533D01*
X157258784Y-65535533D02*
X157865450Y-66445533D01*
X157865450Y-65535533D02*
X157258784Y-66445533D01*
X158212117Y-66445533D02*
X158212117Y-65535533D01*
X158602117Y-66402200D02*
X158732117Y-66445533D01*
X158732117Y-66445533D02*
X158948784Y-66445533D01*
X158948784Y-66445533D02*
X159035450Y-66402200D01*
X159035450Y-66402200D02*
X159078784Y-66358866D01*
X159078784Y-66358866D02*
X159122117Y-66272200D01*
X159122117Y-66272200D02*
X159122117Y-66185533D01*
X159122117Y-66185533D02*
X159078784Y-66098866D01*
X159078784Y-66098866D02*
X159035450Y-66055533D01*
X159035450Y-66055533D02*
X158948784Y-66012200D01*
X158948784Y-66012200D02*
X158775450Y-65968866D01*
X158775450Y-65968866D02*
X158688784Y-65925533D01*
X158688784Y-65925533D02*
X158645450Y-65882200D01*
X158645450Y-65882200D02*
X158602117Y-65795533D01*
X158602117Y-65795533D02*
X158602117Y-65708866D01*
X158602117Y-65708866D02*
X158645450Y-65622200D01*
X158645450Y-65622200D02*
X158688784Y-65578866D01*
X158688784Y-65578866D02*
X158775450Y-65535533D01*
X158775450Y-65535533D02*
X158992117Y-65535533D01*
X158992117Y-65535533D02*
X159122117Y-65578866D01*
X160682117Y-66445533D02*
X160162117Y-66445533D01*
X160422117Y-66445533D02*
X160422117Y-65535533D01*
X160422117Y-65535533D02*
X160335450Y-65665533D01*
X160335450Y-65665533D02*
X160248784Y-65752200D01*
X160248784Y-65752200D02*
X160162117Y-65795533D01*
X160228584Y-132121033D02*
X160835250Y-132121033D01*
X160835250Y-132121033D02*
X160445250Y-133031033D01*
X161571917Y-132424366D02*
X161571917Y-133031033D01*
X161355251Y-132077700D02*
X161138584Y-132727700D01*
X161138584Y-132727700D02*
X161701917Y-132727700D01*
X162048584Y-133031033D02*
X162048584Y-132121033D01*
X162048584Y-132554366D02*
X162568584Y-132554366D01*
X162568584Y-133031033D02*
X162568584Y-132121033D01*
X163521917Y-132944366D02*
X163478584Y-132987700D01*
X163478584Y-132987700D02*
X163348584Y-133031033D01*
X163348584Y-133031033D02*
X163261917Y-133031033D01*
X163261917Y-133031033D02*
X163131917Y-132987700D01*
X163131917Y-132987700D02*
X163045251Y-132901033D01*
X163045251Y-132901033D02*
X163001917Y-132814366D01*
X163001917Y-132814366D02*
X162958584Y-132641033D01*
X162958584Y-132641033D02*
X162958584Y-132511033D01*
X162958584Y-132511033D02*
X163001917Y-132337700D01*
X163001917Y-132337700D02*
X163045251Y-132251033D01*
X163045251Y-132251033D02*
X163131917Y-132164366D01*
X163131917Y-132164366D02*
X163261917Y-132121033D01*
X163261917Y-132121033D02*
X163348584Y-132121033D01*
X163348584Y-132121033D02*
X163478584Y-132164366D01*
X163478584Y-132164366D02*
X163521917Y-132207700D01*
X164388584Y-133031033D02*
X163868584Y-133031033D01*
X164128584Y-133031033D02*
X164128584Y-132121033D01*
X164128584Y-132121033D02*
X164041917Y-132251033D01*
X164041917Y-132251033D02*
X163955251Y-132337700D01*
X163955251Y-132337700D02*
X163868584Y-132381033D01*
X165168584Y-132121033D02*
X164995251Y-132121033D01*
X164995251Y-132121033D02*
X164908584Y-132164366D01*
X164908584Y-132164366D02*
X164865251Y-132207700D01*
X164865251Y-132207700D02*
X164778584Y-132337700D01*
X164778584Y-132337700D02*
X164735251Y-132511033D01*
X164735251Y-132511033D02*
X164735251Y-132857700D01*
X164735251Y-132857700D02*
X164778584Y-132944366D01*
X164778584Y-132944366D02*
X164821918Y-132987700D01*
X164821918Y-132987700D02*
X164908584Y-133031033D01*
X164908584Y-133031033D02*
X165081918Y-133031033D01*
X165081918Y-133031033D02*
X165168584Y-132987700D01*
X165168584Y-132987700D02*
X165211918Y-132944366D01*
X165211918Y-132944366D02*
X165255251Y-132857700D01*
X165255251Y-132857700D02*
X165255251Y-132641033D01*
X165255251Y-132641033D02*
X165211918Y-132554366D01*
X165211918Y-132554366D02*
X165168584Y-132511033D01*
X165168584Y-132511033D02*
X165081918Y-132467700D01*
X165081918Y-132467700D02*
X164908584Y-132467700D01*
X164908584Y-132467700D02*
X164821918Y-132511033D01*
X164821918Y-132511033D02*
X164778584Y-132554366D01*
X164778584Y-132554366D02*
X164735251Y-132641033D01*
X166078585Y-132121033D02*
X165645251Y-132121033D01*
X165645251Y-132121033D02*
X165601918Y-132554366D01*
X165601918Y-132554366D02*
X165645251Y-132511033D01*
X165645251Y-132511033D02*
X165731918Y-132467700D01*
X165731918Y-132467700D02*
X165948585Y-132467700D01*
X165948585Y-132467700D02*
X166035251Y-132511033D01*
X166035251Y-132511033D02*
X166078585Y-132554366D01*
X166078585Y-132554366D02*
X166121918Y-132641033D01*
X166121918Y-132641033D02*
X166121918Y-132857700D01*
X166121918Y-132857700D02*
X166078585Y-132944366D01*
X166078585Y-132944366D02*
X166035251Y-132987700D01*
X166035251Y-132987700D02*
X165948585Y-133031033D01*
X165948585Y-133031033D02*
X165731918Y-133031033D01*
X165731918Y-133031033D02*
X165645251Y-132987700D01*
X165645251Y-132987700D02*
X165601918Y-132944366D01*
X160988684Y-120012200D02*
X160988684Y-120445533D01*
X160685350Y-119535533D02*
X160988684Y-120012200D01*
X160988684Y-120012200D02*
X161292017Y-119535533D01*
X174728684Y-123370933D02*
X174945350Y-124280933D01*
X174945350Y-124280933D02*
X175118684Y-123630933D01*
X175118684Y-123630933D02*
X175292017Y-124280933D01*
X175292017Y-124280933D02*
X175508684Y-123370933D01*
X177022017Y-120435533D02*
X177455350Y-120435533D01*
X176935350Y-120695533D02*
X177238684Y-119785533D01*
X177238684Y-119785533D02*
X177542017Y-120695533D01*
X177758684Y-119785533D02*
X178365350Y-120695533D01*
X178365350Y-119785533D02*
X177758684Y-120695533D01*
X178712017Y-120695533D02*
X178712017Y-119785533D01*
X179102017Y-120652200D02*
X179232017Y-120695533D01*
X179232017Y-120695533D02*
X179448684Y-120695533D01*
X179448684Y-120695533D02*
X179535350Y-120652200D01*
X179535350Y-120652200D02*
X179578684Y-120608866D01*
X179578684Y-120608866D02*
X179622017Y-120522200D01*
X179622017Y-120522200D02*
X179622017Y-120435533D01*
X179622017Y-120435533D02*
X179578684Y-120348866D01*
X179578684Y-120348866D02*
X179535350Y-120305533D01*
X179535350Y-120305533D02*
X179448684Y-120262200D01*
X179448684Y-120262200D02*
X179275350Y-120218866D01*
X179275350Y-120218866D02*
X179188684Y-120175533D01*
X179188684Y-120175533D02*
X179145350Y-120132200D01*
X179145350Y-120132200D02*
X179102017Y-120045533D01*
X179102017Y-120045533D02*
X179102017Y-119958866D01*
X179102017Y-119958866D02*
X179145350Y-119872200D01*
X179145350Y-119872200D02*
X179188684Y-119828866D01*
X179188684Y-119828866D02*
X179275350Y-119785533D01*
X179275350Y-119785533D02*
X179492017Y-119785533D01*
X179492017Y-119785533D02*
X179622017Y-119828866D01*
X180618684Y-119785533D02*
X181182017Y-119785533D01*
X181182017Y-119785533D02*
X180878684Y-120132200D01*
X180878684Y-120132200D02*
X181008684Y-120132200D01*
X181008684Y-120132200D02*
X181095350Y-120175533D01*
X181095350Y-120175533D02*
X181138684Y-120218866D01*
X181138684Y-120218866D02*
X181182017Y-120305533D01*
X181182017Y-120305533D02*
X181182017Y-120522200D01*
X181182017Y-120522200D02*
X181138684Y-120608866D01*
X181138684Y-120608866D02*
X181095350Y-120652200D01*
X181095350Y-120652200D02*
X181008684Y-120695533D01*
X181008684Y-120695533D02*
X180748684Y-120695533D01*
X180748684Y-120695533D02*
X180662017Y-120652200D01*
X180662017Y-120652200D02*
X180618684Y-120608866D01*
X179118684Y-123805066D02*
X179248684Y-123848400D01*
X179248684Y-123848400D02*
X179292017Y-123891733D01*
X179292017Y-123891733D02*
X179335350Y-123978400D01*
X179335350Y-123978400D02*
X179335350Y-124108400D01*
X179335350Y-124108400D02*
X179292017Y-124195066D01*
X179292017Y-124195066D02*
X179248684Y-124238400D01*
X179248684Y-124238400D02*
X179162017Y-124281733D01*
X179162017Y-124281733D02*
X178815350Y-124281733D01*
X178815350Y-124281733D02*
X178815350Y-123371733D01*
X178815350Y-123371733D02*
X179118684Y-123371733D01*
X179118684Y-123371733D02*
X179205350Y-123415066D01*
X179205350Y-123415066D02*
X179248684Y-123458400D01*
X179248684Y-123458400D02*
X179292017Y-123545066D01*
X179292017Y-123545066D02*
X179292017Y-123631733D01*
X179292017Y-123631733D02*
X179248684Y-123718400D01*
X179248684Y-123718400D02*
X179205350Y-123761733D01*
X179205350Y-123761733D02*
X179118684Y-123805066D01*
X179118684Y-123805066D02*
X178815350Y-123805066D01*
X181685350Y-153121233D02*
X181988684Y-154031233D01*
X181988684Y-154031233D02*
X182292017Y-153121233D01*
X182595350Y-153554566D02*
X182898684Y-153554566D01*
X183028684Y-154031233D02*
X182595350Y-154031233D01*
X182595350Y-154031233D02*
X182595350Y-153121233D01*
X182595350Y-153121233D02*
X183028684Y-153121233D01*
X183418683Y-154031233D02*
X183418683Y-153121233D01*
X183418683Y-153554566D02*
X183938683Y-153554566D01*
X183938683Y-154031233D02*
X183938683Y-153121233D01*
X184372016Y-154031233D02*
X184372016Y-153121233D01*
X185325349Y-153944566D02*
X185282016Y-153987900D01*
X185282016Y-153987900D02*
X185152016Y-154031233D01*
X185152016Y-154031233D02*
X185065349Y-154031233D01*
X185065349Y-154031233D02*
X184935349Y-153987900D01*
X184935349Y-153987900D02*
X184848683Y-153901233D01*
X184848683Y-153901233D02*
X184805349Y-153814566D01*
X184805349Y-153814566D02*
X184762016Y-153641233D01*
X184762016Y-153641233D02*
X184762016Y-153511233D01*
X184762016Y-153511233D02*
X184805349Y-153337900D01*
X184805349Y-153337900D02*
X184848683Y-153251233D01*
X184848683Y-153251233D02*
X184935349Y-153164566D01*
X184935349Y-153164566D02*
X185065349Y-153121233D01*
X185065349Y-153121233D02*
X185152016Y-153121233D01*
X185152016Y-153121233D02*
X185282016Y-153164566D01*
X185282016Y-153164566D02*
X185325349Y-153207900D01*
X186148683Y-154031233D02*
X185715349Y-154031233D01*
X185715349Y-154031233D02*
X185715349Y-153121233D01*
X186452016Y-153554566D02*
X186755350Y-153554566D01*
X186885350Y-154031233D02*
X186452016Y-154031233D01*
X186452016Y-154031233D02*
X186452016Y-153121233D01*
X186452016Y-153121233D02*
X186885350Y-153121233D01*
X183585250Y-124281233D02*
X183281917Y-123847900D01*
X183065250Y-124281233D02*
X183065250Y-123371233D01*
X183065250Y-123371233D02*
X183411917Y-123371233D01*
X183411917Y-123371233D02*
X183498584Y-123414566D01*
X183498584Y-123414566D02*
X183541917Y-123457900D01*
X183541917Y-123457900D02*
X183585250Y-123544566D01*
X183585250Y-123544566D02*
X183585250Y-123674566D01*
X183585250Y-123674566D02*
X183541917Y-123761233D01*
X183541917Y-123761233D02*
X183498584Y-123804566D01*
X183498584Y-123804566D02*
X183411917Y-123847900D01*
X183411917Y-123847900D02*
X183065250Y-123847900D01*
X134064466Y-102772017D02*
X134064466Y-103205350D01*
X133804466Y-102685350D02*
X134714466Y-102988684D01*
X134714466Y-102988684D02*
X133804466Y-103292017D01*
X134714466Y-103508684D02*
X133804466Y-104115350D01*
X134714466Y-104115350D02*
X133804466Y-103508684D01*
X133804466Y-104462017D02*
X134714466Y-104462017D01*
X133847800Y-104852017D02*
X133804466Y-104982017D01*
X133804466Y-104982017D02*
X133804466Y-105198684D01*
X133804466Y-105198684D02*
X133847800Y-105285350D01*
X133847800Y-105285350D02*
X133891133Y-105328684D01*
X133891133Y-105328684D02*
X133977800Y-105372017D01*
X133977800Y-105372017D02*
X134064466Y-105372017D01*
X134064466Y-105372017D02*
X134151133Y-105328684D01*
X134151133Y-105328684D02*
X134194466Y-105285350D01*
X134194466Y-105285350D02*
X134237800Y-105198684D01*
X134237800Y-105198684D02*
X134281133Y-105025350D01*
X134281133Y-105025350D02*
X134324466Y-104938684D01*
X134324466Y-104938684D02*
X134367800Y-104895350D01*
X134367800Y-104895350D02*
X134454466Y-104852017D01*
X134454466Y-104852017D02*
X134541133Y-104852017D01*
X134541133Y-104852017D02*
X134627800Y-104895350D01*
X134627800Y-104895350D02*
X134671133Y-104938684D01*
X134671133Y-104938684D02*
X134714466Y-105025350D01*
X134714466Y-105025350D02*
X134714466Y-105242017D01*
X134714466Y-105242017D02*
X134671133Y-105372017D01*
X134627800Y-106412017D02*
X134671133Y-106455350D01*
X134671133Y-106455350D02*
X134714466Y-106542017D01*
X134714466Y-106542017D02*
X134714466Y-106758684D01*
X134714466Y-106758684D02*
X134671133Y-106845350D01*
X134671133Y-106845350D02*
X134627800Y-106888684D01*
X134627800Y-106888684D02*
X134541133Y-106932017D01*
X134541133Y-106932017D02*
X134454466Y-106932017D01*
X134454466Y-106932017D02*
X134324466Y-106888684D01*
X134324466Y-106888684D02*
X133804466Y-106368684D01*
X133804466Y-106368684D02*
X133804466Y-106932017D01*
X192218866Y-84815450D02*
X192825533Y-84815450D01*
X192738866Y-84815450D02*
X192782200Y-84858784D01*
X192782200Y-84858784D02*
X192825533Y-84945450D01*
X192825533Y-84945450D02*
X192825533Y-85075450D01*
X192825533Y-85075450D02*
X192782200Y-85162117D01*
X192782200Y-85162117D02*
X192695533Y-85205450D01*
X192695533Y-85205450D02*
X192218866Y-85205450D01*
X192695533Y-85205450D02*
X192782200Y-85248784D01*
X192782200Y-85248784D02*
X192825533Y-85335450D01*
X192825533Y-85335450D02*
X192825533Y-85465450D01*
X192825533Y-85465450D02*
X192782200Y-85552117D01*
X192782200Y-85552117D02*
X192695533Y-85595450D01*
X192695533Y-85595450D02*
X192218866Y-85595450D01*
X192718966Y-75705350D02*
X193628966Y-75705350D01*
X192762300Y-75705350D02*
X192718966Y-75618684D01*
X192718966Y-75618684D02*
X192718966Y-75445350D01*
X192718966Y-75445350D02*
X192762300Y-75358684D01*
X192762300Y-75358684D02*
X192805633Y-75315350D01*
X192805633Y-75315350D02*
X192892300Y-75272017D01*
X192892300Y-75272017D02*
X193152300Y-75272017D01*
X193152300Y-75272017D02*
X193238966Y-75315350D01*
X193238966Y-75315350D02*
X193282300Y-75358684D01*
X193282300Y-75358684D02*
X193325633Y-75445350D01*
X193325633Y-75445350D02*
X193325633Y-75618684D01*
X193325633Y-75618684D02*
X193282300Y-75705350D01*
X193628966Y-76008683D02*
X192718966Y-76312017D01*
X192718966Y-76312017D02*
X193628966Y-76615350D01*
X193195633Y-76918683D02*
X193195633Y-77612017D01*
X192935633Y-77612017D02*
X192935633Y-76918683D01*
X192968966Y-79065350D02*
X193878966Y-79065350D01*
X193575633Y-81205450D02*
X192838966Y-81205450D01*
X192838966Y-81205450D02*
X192752300Y-81162117D01*
X192752300Y-81162117D02*
X192708966Y-81118784D01*
X192708966Y-81118784D02*
X192665633Y-81032117D01*
X192665633Y-81032117D02*
X192665633Y-80902117D01*
X192665633Y-80902117D02*
X192708966Y-80815450D01*
X193012300Y-81205450D02*
X192968966Y-81118784D01*
X192968966Y-81118784D02*
X192968966Y-80945450D01*
X192968966Y-80945450D02*
X193012300Y-80858784D01*
X193012300Y-80858784D02*
X193055633Y-80815450D01*
X193055633Y-80815450D02*
X193142300Y-80772117D01*
X193142300Y-80772117D02*
X193402300Y-80772117D01*
X193402300Y-80772117D02*
X193488966Y-80815450D01*
X193488966Y-80815450D02*
X193532300Y-80858784D01*
X193532300Y-80858784D02*
X193575633Y-80945450D01*
X193575633Y-80945450D02*
X193575633Y-81118784D01*
X193575633Y-81118784D02*
X193532300Y-81205450D01*
X192968966Y-83195350D02*
X193012300Y-83108684D01*
X193012300Y-83108684D02*
X193098966Y-83065350D01*
X193098966Y-83065350D02*
X193878966Y-83065350D01*
X193575633Y-83542017D02*
X192968966Y-83542017D01*
X193488966Y-83542017D02*
X193532300Y-83585351D01*
X193532300Y-83585351D02*
X193575633Y-83672017D01*
X193575633Y-83672017D02*
X193575633Y-83802017D01*
X193575633Y-83802017D02*
X193532300Y-83888684D01*
X193532300Y-83888684D02*
X193445633Y-83932017D01*
X193445633Y-83932017D02*
X192968966Y-83932017D01*
X193968966Y-84815450D02*
X194575633Y-84815450D01*
X194488966Y-84815450D02*
X194532300Y-84858784D01*
X194532300Y-84858784D02*
X194575633Y-84945450D01*
X194575633Y-84945450D02*
X194575633Y-85075450D01*
X194575633Y-85075450D02*
X194532300Y-85162117D01*
X194532300Y-85162117D02*
X194445633Y-85205450D01*
X194445633Y-85205450D02*
X193968966Y-85205450D01*
X194445633Y-85205450D02*
X194532300Y-85248784D01*
X194532300Y-85248784D02*
X194575633Y-85335450D01*
X194575633Y-85335450D02*
X194575633Y-85465450D01*
X194575633Y-85465450D02*
X194532300Y-85552117D01*
X194532300Y-85552117D02*
X194445633Y-85595450D01*
X194445633Y-85595450D02*
X193968966Y-85595450D01*
D13*
X101330876Y-70863958D02*
X101330876Y-71444911D01*
X100982304Y-70747768D02*
X102202304Y-71154435D01*
X102202304Y-71154435D02*
X100982304Y-71561101D01*
X100982304Y-71967768D02*
X102202304Y-71967768D01*
X102202304Y-71967768D02*
X100982304Y-72664911D01*
X100982304Y-72664911D02*
X102202304Y-72664911D01*
X101330876Y-73187767D02*
X101330876Y-73768720D01*
X100982304Y-73071577D02*
X102202304Y-73478244D01*
X102202304Y-73478244D02*
X100982304Y-73884910D01*
X100982304Y-74872529D02*
X100982304Y-74291577D01*
X100982304Y-74291577D02*
X102202304Y-74291577D01*
X102202304Y-75511577D02*
X102202304Y-75743958D01*
X102202304Y-75743958D02*
X102144209Y-75860148D01*
X102144209Y-75860148D02*
X102028019Y-75976339D01*
X102028019Y-75976339D02*
X101795638Y-76034434D01*
X101795638Y-76034434D02*
X101388971Y-76034434D01*
X101388971Y-76034434D02*
X101156590Y-75976339D01*
X101156590Y-75976339D02*
X101040400Y-75860148D01*
X101040400Y-75860148D02*
X100982304Y-75743958D01*
X100982304Y-75743958D02*
X100982304Y-75511577D01*
X100982304Y-75511577D02*
X101040400Y-75395386D01*
X101040400Y-75395386D02*
X101156590Y-75279196D01*
X101156590Y-75279196D02*
X101388971Y-75221100D01*
X101388971Y-75221100D02*
X101795638Y-75221100D01*
X101795638Y-75221100D02*
X102028019Y-75279196D01*
X102028019Y-75279196D02*
X102144209Y-75395386D01*
X102144209Y-75395386D02*
X102202304Y-75511577D01*
X102144209Y-77196338D02*
X102202304Y-77080148D01*
X102202304Y-77080148D02*
X102202304Y-76905862D01*
X102202304Y-76905862D02*
X102144209Y-76731576D01*
X102144209Y-76731576D02*
X102028019Y-76615386D01*
X102028019Y-76615386D02*
X101911828Y-76557291D01*
X101911828Y-76557291D02*
X101679447Y-76499195D01*
X101679447Y-76499195D02*
X101505161Y-76499195D01*
X101505161Y-76499195D02*
X101272780Y-76557291D01*
X101272780Y-76557291D02*
X101156590Y-76615386D01*
X101156590Y-76615386D02*
X101040400Y-76731576D01*
X101040400Y-76731576D02*
X100982304Y-76905862D01*
X100982304Y-76905862D02*
X100982304Y-77022053D01*
X100982304Y-77022053D02*
X101040400Y-77196338D01*
X101040400Y-77196338D02*
X101098495Y-77254434D01*
X101098495Y-77254434D02*
X101505161Y-77254434D01*
X101505161Y-77254434D02*
X101505161Y-77022053D01*
X102202304Y-78532529D02*
X102202304Y-79229672D01*
X100982304Y-78881100D02*
X102202304Y-78881100D01*
X100982304Y-79636339D02*
X102202304Y-79636339D01*
X101621352Y-79636339D02*
X101621352Y-80333482D01*
X100982304Y-80333482D02*
X102202304Y-80333482D01*
X100982304Y-81611577D02*
X101563257Y-81204910D01*
X100982304Y-80914434D02*
X102202304Y-80914434D01*
X102202304Y-80914434D02*
X102202304Y-81379196D01*
X102202304Y-81379196D02*
X102144209Y-81495386D01*
X102144209Y-81495386D02*
X102086114Y-81553481D01*
X102086114Y-81553481D02*
X101969923Y-81611577D01*
X101969923Y-81611577D02*
X101795638Y-81611577D01*
X101795638Y-81611577D02*
X101679447Y-81553481D01*
X101679447Y-81553481D02*
X101621352Y-81495386D01*
X101621352Y-81495386D02*
X101563257Y-81379196D01*
X101563257Y-81379196D02*
X101563257Y-80914434D01*
X102202304Y-82366815D02*
X102202304Y-82599196D01*
X102202304Y-82599196D02*
X102144209Y-82715386D01*
X102144209Y-82715386D02*
X102028019Y-82831577D01*
X102028019Y-82831577D02*
X101795638Y-82889672D01*
X101795638Y-82889672D02*
X101388971Y-82889672D01*
X101388971Y-82889672D02*
X101156590Y-82831577D01*
X101156590Y-82831577D02*
X101040400Y-82715386D01*
X101040400Y-82715386D02*
X100982304Y-82599196D01*
X100982304Y-82599196D02*
X100982304Y-82366815D01*
X100982304Y-82366815D02*
X101040400Y-82250624D01*
X101040400Y-82250624D02*
X101156590Y-82134434D01*
X101156590Y-82134434D02*
X101388971Y-82076338D01*
X101388971Y-82076338D02*
X101795638Y-82076338D01*
X101795638Y-82076338D02*
X102028019Y-82134434D01*
X102028019Y-82134434D02*
X102144209Y-82250624D01*
X102144209Y-82250624D02*
X102202304Y-82366815D01*
X102202304Y-83238243D02*
X102202304Y-83935386D01*
X100982304Y-83586814D02*
X102202304Y-83586814D01*
X102202304Y-84167767D02*
X102202304Y-84864910D01*
X100982304Y-84516338D02*
X102202304Y-84516338D01*
X100982304Y-85852529D02*
X100982304Y-85271577D01*
X100982304Y-85271577D02*
X102202304Y-85271577D01*
X101621352Y-86259196D02*
X101621352Y-86665862D01*
X100982304Y-86840148D02*
X100982304Y-86259196D01*
X100982304Y-86259196D02*
X102202304Y-86259196D01*
X102202304Y-86259196D02*
X102202304Y-86840148D01*
X100982304Y-88292530D02*
X102202304Y-88292530D01*
X102202304Y-88292530D02*
X101330876Y-88699196D01*
X101330876Y-88699196D02*
X102202304Y-89105863D01*
X102202304Y-89105863D02*
X100982304Y-89105863D01*
X102202304Y-89919197D02*
X102202304Y-90151578D01*
X102202304Y-90151578D02*
X102144209Y-90267768D01*
X102144209Y-90267768D02*
X102028019Y-90383959D01*
X102028019Y-90383959D02*
X101795638Y-90442054D01*
X101795638Y-90442054D02*
X101388971Y-90442054D01*
X101388971Y-90442054D02*
X101156590Y-90383959D01*
X101156590Y-90383959D02*
X101040400Y-90267768D01*
X101040400Y-90267768D02*
X100982304Y-90151578D01*
X100982304Y-90151578D02*
X100982304Y-89919197D01*
X100982304Y-89919197D02*
X101040400Y-89803006D01*
X101040400Y-89803006D02*
X101156590Y-89686816D01*
X101156590Y-89686816D02*
X101388971Y-89628720D01*
X101388971Y-89628720D02*
X101795638Y-89628720D01*
X101795638Y-89628720D02*
X102028019Y-89686816D01*
X102028019Y-89686816D02*
X102144209Y-89803006D01*
X102144209Y-89803006D02*
X102202304Y-89919197D01*
X100982304Y-90964911D02*
X102202304Y-90964911D01*
X102202304Y-90964911D02*
X102202304Y-91255387D01*
X102202304Y-91255387D02*
X102144209Y-91429673D01*
X102144209Y-91429673D02*
X102028019Y-91545863D01*
X102028019Y-91545863D02*
X101911828Y-91603958D01*
X101911828Y-91603958D02*
X101679447Y-91662054D01*
X101679447Y-91662054D02*
X101505161Y-91662054D01*
X101505161Y-91662054D02*
X101272780Y-91603958D01*
X101272780Y-91603958D02*
X101156590Y-91545863D01*
X101156590Y-91545863D02*
X101040400Y-91429673D01*
X101040400Y-91429673D02*
X100982304Y-91255387D01*
X100982304Y-91255387D02*
X100982304Y-90964911D01*
X102202304Y-92184911D02*
X101214685Y-92184911D01*
X101214685Y-92184911D02*
X101098495Y-92243006D01*
X101098495Y-92243006D02*
X101040400Y-92301101D01*
X101040400Y-92301101D02*
X100982304Y-92417292D01*
X100982304Y-92417292D02*
X100982304Y-92649673D01*
X100982304Y-92649673D02*
X101040400Y-92765863D01*
X101040400Y-92765863D02*
X101098495Y-92823958D01*
X101098495Y-92823958D02*
X101214685Y-92882054D01*
X101214685Y-92882054D02*
X102202304Y-92882054D01*
X100982304Y-94043958D02*
X100982304Y-93463006D01*
X100982304Y-93463006D02*
X102202304Y-93463006D01*
X101621352Y-94450625D02*
X101621352Y-94857291D01*
X100982304Y-95031577D02*
X100982304Y-94450625D01*
X100982304Y-94450625D02*
X102202304Y-94450625D01*
X102202304Y-94450625D02*
X102202304Y-95031577D01*
X101795638Y-96367768D02*
X100982304Y-96658244D01*
X100982304Y-96658244D02*
X101795638Y-96948721D01*
X100982304Y-98052530D02*
X100982304Y-97355387D01*
X100982304Y-97703959D02*
X102202304Y-97703959D01*
X102202304Y-97703959D02*
X102028019Y-97587768D01*
X102028019Y-97587768D02*
X101911828Y-97471578D01*
X101911828Y-97471578D02*
X101853733Y-97355387D01*
X101098495Y-98575388D02*
X101040400Y-98633483D01*
X101040400Y-98633483D02*
X100982304Y-98575388D01*
X100982304Y-98575388D02*
X101040400Y-98517292D01*
X101040400Y-98517292D02*
X101098495Y-98575388D01*
X101098495Y-98575388D02*
X100982304Y-98575388D01*
X101679447Y-99330625D02*
X101737542Y-99214435D01*
X101737542Y-99214435D02*
X101795638Y-99156340D01*
X101795638Y-99156340D02*
X101911828Y-99098244D01*
X101911828Y-99098244D02*
X101969923Y-99098244D01*
X101969923Y-99098244D02*
X102086114Y-99156340D01*
X102086114Y-99156340D02*
X102144209Y-99214435D01*
X102144209Y-99214435D02*
X102202304Y-99330625D01*
X102202304Y-99330625D02*
X102202304Y-99563006D01*
X102202304Y-99563006D02*
X102144209Y-99679197D01*
X102144209Y-99679197D02*
X102086114Y-99737292D01*
X102086114Y-99737292D02*
X101969923Y-99795387D01*
X101969923Y-99795387D02*
X101911828Y-99795387D01*
X101911828Y-99795387D02*
X101795638Y-99737292D01*
X101795638Y-99737292D02*
X101737542Y-99679197D01*
X101737542Y-99679197D02*
X101679447Y-99563006D01*
X101679447Y-99563006D02*
X101679447Y-99330625D01*
X101679447Y-99330625D02*
X101621352Y-99214435D01*
X101621352Y-99214435D02*
X101563257Y-99156340D01*
X101563257Y-99156340D02*
X101447066Y-99098244D01*
X101447066Y-99098244D02*
X101214685Y-99098244D01*
X101214685Y-99098244D02*
X101098495Y-99156340D01*
X101098495Y-99156340D02*
X101040400Y-99214435D01*
X101040400Y-99214435D02*
X100982304Y-99330625D01*
X100982304Y-99330625D02*
X100982304Y-99563006D01*
X100982304Y-99563006D02*
X101040400Y-99679197D01*
X101040400Y-99679197D02*
X101098495Y-99737292D01*
X101098495Y-99737292D02*
X101214685Y-99795387D01*
X101214685Y-99795387D02*
X101447066Y-99795387D01*
X101447066Y-99795387D02*
X101563257Y-99737292D01*
X101563257Y-99737292D02*
X101621352Y-99679197D01*
X101621352Y-99679197D02*
X101679447Y-99563006D01*
X110769673Y-61067219D02*
X110769673Y-62386742D01*
X110769673Y-62386742D02*
X110847292Y-62541980D01*
X110847292Y-62541980D02*
X110924911Y-62619600D01*
X110924911Y-62619600D02*
X111080149Y-62697219D01*
X111080149Y-62697219D02*
X111390625Y-62697219D01*
X111390625Y-62697219D02*
X111545863Y-62619600D01*
X111545863Y-62619600D02*
X111623482Y-62541980D01*
X111623482Y-62541980D02*
X111701101Y-62386742D01*
X111701101Y-62386742D02*
X111701101Y-61067219D01*
X112477292Y-62697219D02*
X112477292Y-61067219D01*
X112477292Y-61067219D02*
X113408720Y-62697219D01*
X113408720Y-62697219D02*
X113408720Y-61067219D01*
X113952054Y-61067219D02*
X114883482Y-61067219D01*
X114417768Y-62697219D02*
X114417768Y-61067219D01*
X115426816Y-62697219D02*
X115426816Y-61067219D01*
X115970149Y-61067219D02*
X116901577Y-61067219D01*
X116435863Y-62697219D02*
X116435863Y-61067219D01*
X118221101Y-62697219D02*
X117444911Y-62697219D01*
X117444911Y-62697219D02*
X117444911Y-61067219D01*
X118764435Y-61843409D02*
X119307768Y-61843409D01*
X119540625Y-62697219D02*
X118764435Y-62697219D01*
X118764435Y-62697219D02*
X118764435Y-61067219D01*
X118764435Y-61067219D02*
X119540625Y-61067219D01*
X120239197Y-62697219D02*
X120239197Y-61067219D01*
X120239197Y-61067219D02*
X120627292Y-61067219D01*
X120627292Y-61067219D02*
X120860149Y-61144838D01*
X120860149Y-61144838D02*
X121015387Y-61300076D01*
X121015387Y-61300076D02*
X121093006Y-61455314D01*
X121093006Y-61455314D02*
X121170625Y-61765790D01*
X121170625Y-61765790D02*
X121170625Y-61998647D01*
X121170625Y-61998647D02*
X121093006Y-62309123D01*
X121093006Y-62309123D02*
X121015387Y-62464361D01*
X121015387Y-62464361D02*
X120860149Y-62619600D01*
X120860149Y-62619600D02*
X120627292Y-62697219D01*
X120627292Y-62697219D02*
X120239197Y-62697219D01*
X123033483Y-62619600D02*
X123266340Y-62697219D01*
X123266340Y-62697219D02*
X123654435Y-62697219D01*
X123654435Y-62697219D02*
X123809673Y-62619600D01*
X123809673Y-62619600D02*
X123887292Y-62541980D01*
X123887292Y-62541980D02*
X123964911Y-62386742D01*
X123964911Y-62386742D02*
X123964911Y-62231504D01*
X123964911Y-62231504D02*
X123887292Y-62076266D01*
X123887292Y-62076266D02*
X123809673Y-61998647D01*
X123809673Y-61998647D02*
X123654435Y-61921028D01*
X123654435Y-61921028D02*
X123343959Y-61843409D01*
X123343959Y-61843409D02*
X123188721Y-61765790D01*
X123188721Y-61765790D02*
X123111102Y-61688171D01*
X123111102Y-61688171D02*
X123033483Y-61532933D01*
X123033483Y-61532933D02*
X123033483Y-61377695D01*
X123033483Y-61377695D02*
X123111102Y-61222457D01*
X123111102Y-61222457D02*
X123188721Y-61144838D01*
X123188721Y-61144838D02*
X123343959Y-61067219D01*
X123343959Y-61067219D02*
X123732054Y-61067219D01*
X123732054Y-61067219D02*
X123964911Y-61144838D01*
X124663483Y-62697219D02*
X124663483Y-61067219D01*
X124663483Y-61067219D02*
X125284435Y-61067219D01*
X125284435Y-61067219D02*
X125439673Y-61144838D01*
X125439673Y-61144838D02*
X125517292Y-61222457D01*
X125517292Y-61222457D02*
X125594911Y-61377695D01*
X125594911Y-61377695D02*
X125594911Y-61610552D01*
X125594911Y-61610552D02*
X125517292Y-61765790D01*
X125517292Y-61765790D02*
X125439673Y-61843409D01*
X125439673Y-61843409D02*
X125284435Y-61921028D01*
X125284435Y-61921028D02*
X124663483Y-61921028D01*
X126215864Y-62231504D02*
X126992054Y-62231504D01*
X126060626Y-62697219D02*
X126603959Y-61067219D01*
X126603959Y-61067219D02*
X127147292Y-62697219D01*
X128622054Y-62541980D02*
X128544435Y-62619600D01*
X128544435Y-62619600D02*
X128311578Y-62697219D01*
X128311578Y-62697219D02*
X128156340Y-62697219D01*
X128156340Y-62697219D02*
X127923483Y-62619600D01*
X127923483Y-62619600D02*
X127768245Y-62464361D01*
X127768245Y-62464361D02*
X127690626Y-62309123D01*
X127690626Y-62309123D02*
X127613007Y-61998647D01*
X127613007Y-61998647D02*
X127613007Y-61765790D01*
X127613007Y-61765790D02*
X127690626Y-61455314D01*
X127690626Y-61455314D02*
X127768245Y-61300076D01*
X127768245Y-61300076D02*
X127923483Y-61144838D01*
X127923483Y-61144838D02*
X128156340Y-61067219D01*
X128156340Y-61067219D02*
X128311578Y-61067219D01*
X128311578Y-61067219D02*
X128544435Y-61144838D01*
X128544435Y-61144838D02*
X128622054Y-61222457D01*
X129320626Y-61843409D02*
X129863959Y-61843409D01*
X130096816Y-62697219D02*
X129320626Y-62697219D01*
X129320626Y-62697219D02*
X129320626Y-61067219D01*
X129320626Y-61067219D02*
X130096816Y-61067219D01*
X132968721Y-62541980D02*
X132891102Y-62619600D01*
X132891102Y-62619600D02*
X132658245Y-62697219D01*
X132658245Y-62697219D02*
X132503007Y-62697219D01*
X132503007Y-62697219D02*
X132270150Y-62619600D01*
X132270150Y-62619600D02*
X132114912Y-62464361D01*
X132114912Y-62464361D02*
X132037293Y-62309123D01*
X132037293Y-62309123D02*
X131959674Y-61998647D01*
X131959674Y-61998647D02*
X131959674Y-61765790D01*
X131959674Y-61765790D02*
X132037293Y-61455314D01*
X132037293Y-61455314D02*
X132114912Y-61300076D01*
X132114912Y-61300076D02*
X132270150Y-61144838D01*
X132270150Y-61144838D02*
X132503007Y-61067219D01*
X132503007Y-61067219D02*
X132658245Y-61067219D01*
X132658245Y-61067219D02*
X132891102Y-61144838D01*
X132891102Y-61144838D02*
X132968721Y-61222457D01*
X134598721Y-62697219D02*
X134055388Y-61921028D01*
X133667293Y-62697219D02*
X133667293Y-61067219D01*
X133667293Y-61067219D02*
X134288245Y-61067219D01*
X134288245Y-61067219D02*
X134443483Y-61144838D01*
X134443483Y-61144838D02*
X134521102Y-61222457D01*
X134521102Y-61222457D02*
X134598721Y-61377695D01*
X134598721Y-61377695D02*
X134598721Y-61610552D01*
X134598721Y-61610552D02*
X134521102Y-61765790D01*
X134521102Y-61765790D02*
X134443483Y-61843409D01*
X134443483Y-61843409D02*
X134288245Y-61921028D01*
X134288245Y-61921028D02*
X133667293Y-61921028D01*
X135219674Y-62231504D02*
X135995864Y-62231504D01*
X135064436Y-62697219D02*
X135607769Y-61067219D01*
X135607769Y-61067219D02*
X136151102Y-62697219D01*
X137237769Y-61843409D02*
X136694436Y-61843409D01*
X136694436Y-62697219D02*
X136694436Y-61067219D01*
X136694436Y-61067219D02*
X137470626Y-61067219D01*
X137858722Y-61067219D02*
X138790150Y-61067219D01*
X138324436Y-62697219D02*
X138324436Y-61067219D01*
X174701101Y-62541980D02*
X174623482Y-62619600D01*
X174623482Y-62619600D02*
X174390625Y-62697219D01*
X174390625Y-62697219D02*
X174235387Y-62697219D01*
X174235387Y-62697219D02*
X174002530Y-62619600D01*
X174002530Y-62619600D02*
X173847292Y-62464361D01*
X173847292Y-62464361D02*
X173769673Y-62309123D01*
X173769673Y-62309123D02*
X173692054Y-61998647D01*
X173692054Y-61998647D02*
X173692054Y-61765790D01*
X173692054Y-61765790D02*
X173769673Y-61455314D01*
X173769673Y-61455314D02*
X173847292Y-61300076D01*
X173847292Y-61300076D02*
X174002530Y-61144838D01*
X174002530Y-61144838D02*
X174235387Y-61067219D01*
X174235387Y-61067219D02*
X174390625Y-61067219D01*
X174390625Y-61067219D02*
X174623482Y-61144838D01*
X174623482Y-61144838D02*
X174701101Y-61222457D01*
X175710149Y-61067219D02*
X176020625Y-61067219D01*
X176020625Y-61067219D02*
X176175863Y-61144838D01*
X176175863Y-61144838D02*
X176331101Y-61300076D01*
X176331101Y-61300076D02*
X176408720Y-61610552D01*
X176408720Y-61610552D02*
X176408720Y-62153885D01*
X176408720Y-62153885D02*
X176331101Y-62464361D01*
X176331101Y-62464361D02*
X176175863Y-62619600D01*
X176175863Y-62619600D02*
X176020625Y-62697219D01*
X176020625Y-62697219D02*
X175710149Y-62697219D01*
X175710149Y-62697219D02*
X175554911Y-62619600D01*
X175554911Y-62619600D02*
X175399673Y-62464361D01*
X175399673Y-62464361D02*
X175322054Y-62153885D01*
X175322054Y-62153885D02*
X175322054Y-61610552D01*
X175322054Y-61610552D02*
X175399673Y-61300076D01*
X175399673Y-61300076D02*
X175554911Y-61144838D01*
X175554911Y-61144838D02*
X175710149Y-61067219D01*
X177107292Y-62697219D02*
X177107292Y-61067219D01*
X177107292Y-61067219D02*
X177495387Y-61067219D01*
X177495387Y-61067219D02*
X177728244Y-61144838D01*
X177728244Y-61144838D02*
X177883482Y-61300076D01*
X177883482Y-61300076D02*
X177961101Y-61455314D01*
X177961101Y-61455314D02*
X178038720Y-61765790D01*
X178038720Y-61765790D02*
X178038720Y-61998647D01*
X178038720Y-61998647D02*
X177961101Y-62309123D01*
X177961101Y-62309123D02*
X177883482Y-62464361D01*
X177883482Y-62464361D02*
X177728244Y-62619600D01*
X177728244Y-62619600D02*
X177495387Y-62697219D01*
X177495387Y-62697219D02*
X177107292Y-62697219D01*
X178659673Y-62231504D02*
X179435863Y-62231504D01*
X178504435Y-62697219D02*
X179047768Y-61067219D01*
X179047768Y-61067219D02*
X179591101Y-62697219D01*
X180134435Y-62697219D02*
X180134435Y-61067219D01*
X180134435Y-61067219D02*
X180755387Y-61067219D01*
X180755387Y-61067219D02*
X180910625Y-61144838D01*
X180910625Y-61144838D02*
X180988244Y-61222457D01*
X180988244Y-61222457D02*
X181065863Y-61377695D01*
X181065863Y-61377695D02*
X181065863Y-61610552D01*
X181065863Y-61610552D02*
X180988244Y-61765790D01*
X180988244Y-61765790D02*
X180910625Y-61843409D01*
X180910625Y-61843409D02*
X180755387Y-61921028D01*
X180755387Y-61921028D02*
X180134435Y-61921028D01*
X182074911Y-61067219D02*
X182385387Y-61067219D01*
X182385387Y-61067219D02*
X182540625Y-61144838D01*
X182540625Y-61144838D02*
X182695863Y-61300076D01*
X182695863Y-61300076D02*
X182773482Y-61610552D01*
X182773482Y-61610552D02*
X182773482Y-62153885D01*
X182773482Y-62153885D02*
X182695863Y-62464361D01*
X182695863Y-62464361D02*
X182540625Y-62619600D01*
X182540625Y-62619600D02*
X182385387Y-62697219D01*
X182385387Y-62697219D02*
X182074911Y-62697219D01*
X182074911Y-62697219D02*
X181919673Y-62619600D01*
X181919673Y-62619600D02*
X181764435Y-62464361D01*
X181764435Y-62464361D02*
X181686816Y-62153885D01*
X181686816Y-62153885D02*
X181686816Y-61610552D01*
X181686816Y-61610552D02*
X181764435Y-61300076D01*
X181764435Y-61300076D02*
X181919673Y-61144838D01*
X181919673Y-61144838D02*
X182074911Y-61067219D01*
X183472054Y-62697219D02*
X183472054Y-61067219D01*
X183472054Y-61067219D02*
X184093006Y-61067219D01*
X184093006Y-61067219D02*
X184248244Y-61144838D01*
X184248244Y-61144838D02*
X184325863Y-61222457D01*
X184325863Y-61222457D02*
X184403482Y-61377695D01*
X184403482Y-61377695D02*
X184403482Y-61610552D01*
X184403482Y-61610552D02*
X184325863Y-61765790D01*
X184325863Y-61765790D02*
X184248244Y-61843409D01*
X184248244Y-61843409D02*
X184093006Y-61921028D01*
X184093006Y-61921028D02*
X183472054Y-61921028D01*
X185102054Y-62697219D02*
X185102054Y-61067219D01*
X186033482Y-62697219D02*
X185334911Y-61765790D01*
X186033482Y-61067219D02*
X185102054Y-61998647D01*
X186654435Y-62619600D02*
X186887292Y-62697219D01*
X186887292Y-62697219D02*
X187275387Y-62697219D01*
X187275387Y-62697219D02*
X187430625Y-62619600D01*
X187430625Y-62619600D02*
X187508244Y-62541980D01*
X187508244Y-62541980D02*
X187585863Y-62386742D01*
X187585863Y-62386742D02*
X187585863Y-62231504D01*
X187585863Y-62231504D02*
X187508244Y-62076266D01*
X187508244Y-62076266D02*
X187430625Y-61998647D01*
X187430625Y-61998647D02*
X187275387Y-61921028D01*
X187275387Y-61921028D02*
X186964911Y-61843409D01*
X186964911Y-61843409D02*
X186809673Y-61765790D01*
X186809673Y-61765790D02*
X186732054Y-61688171D01*
X186732054Y-61688171D02*
X186654435Y-61532933D01*
X186654435Y-61532933D02*
X186654435Y-61377695D01*
X186654435Y-61377695D02*
X186732054Y-61222457D01*
X186732054Y-61222457D02*
X186809673Y-61144838D01*
X186809673Y-61144838D02*
X186964911Y-61067219D01*
X186964911Y-61067219D02*
X187353006Y-61067219D01*
X187353006Y-61067219D02*
X187585863Y-61144838D01*
X188284435Y-62697219D02*
X188284435Y-61067219D01*
X188284435Y-61067219D02*
X188905387Y-61067219D01*
X188905387Y-61067219D02*
X189060625Y-61144838D01*
X189060625Y-61144838D02*
X189138244Y-61222457D01*
X189138244Y-61222457D02*
X189215863Y-61377695D01*
X189215863Y-61377695D02*
X189215863Y-61610552D01*
X189215863Y-61610552D02*
X189138244Y-61765790D01*
X189138244Y-61765790D02*
X189060625Y-61843409D01*
X189060625Y-61843409D02*
X188905387Y-61921028D01*
X188905387Y-61921028D02*
X188284435Y-61921028D01*
X146430180Y-134519673D02*
X148060180Y-134519673D01*
X148060180Y-134519673D02*
X148060180Y-134907768D01*
X148060180Y-134907768D02*
X147982561Y-135140625D01*
X147982561Y-135140625D02*
X147827323Y-135295863D01*
X147827323Y-135295863D02*
X147672085Y-135373482D01*
X147672085Y-135373482D02*
X147361609Y-135451101D01*
X147361609Y-135451101D02*
X147128752Y-135451101D01*
X147128752Y-135451101D02*
X146818276Y-135373482D01*
X146818276Y-135373482D02*
X146663038Y-135295863D01*
X146663038Y-135295863D02*
X146507800Y-135140625D01*
X146507800Y-135140625D02*
X146430180Y-134907768D01*
X146430180Y-134907768D02*
X146430180Y-134519673D01*
X146895895Y-136072054D02*
X146895895Y-136848244D01*
X146430180Y-135916816D02*
X148060180Y-136460149D01*
X148060180Y-136460149D02*
X146430180Y-137003482D01*
X148060180Y-137313959D02*
X148060180Y-138245387D01*
X146430180Y-137779673D02*
X148060180Y-137779673D01*
X146895895Y-138711102D02*
X146895895Y-139487292D01*
X146430180Y-138555864D02*
X148060180Y-139099197D01*
X148060180Y-139099197D02*
X146430180Y-139642530D01*
X147283990Y-141971102D02*
X147206371Y-142203959D01*
X147206371Y-142203959D02*
X147128752Y-142281578D01*
X147128752Y-142281578D02*
X146973514Y-142359197D01*
X146973514Y-142359197D02*
X146740657Y-142359197D01*
X146740657Y-142359197D02*
X146585419Y-142281578D01*
X146585419Y-142281578D02*
X146507800Y-142203959D01*
X146507800Y-142203959D02*
X146430180Y-142048721D01*
X146430180Y-142048721D02*
X146430180Y-141427769D01*
X146430180Y-141427769D02*
X148060180Y-141427769D01*
X148060180Y-141427769D02*
X148060180Y-141971102D01*
X148060180Y-141971102D02*
X147982561Y-142126340D01*
X147982561Y-142126340D02*
X147904942Y-142203959D01*
X147904942Y-142203959D02*
X147749704Y-142281578D01*
X147749704Y-142281578D02*
X147594466Y-142281578D01*
X147594466Y-142281578D02*
X147439228Y-142203959D01*
X147439228Y-142203959D02*
X147361609Y-142126340D01*
X147361609Y-142126340D02*
X147283990Y-141971102D01*
X147283990Y-141971102D02*
X147283990Y-141427769D01*
X148060180Y-143057769D02*
X146740657Y-143057769D01*
X146740657Y-143057769D02*
X146585419Y-143135388D01*
X146585419Y-143135388D02*
X146507800Y-143213007D01*
X146507800Y-143213007D02*
X146430180Y-143368245D01*
X146430180Y-143368245D02*
X146430180Y-143678721D01*
X146430180Y-143678721D02*
X146507800Y-143833959D01*
X146507800Y-143833959D02*
X146585419Y-143911578D01*
X146585419Y-143911578D02*
X146740657Y-143989197D01*
X146740657Y-143989197D02*
X148060180Y-143989197D01*
X146507800Y-144687769D02*
X146430180Y-144920626D01*
X146430180Y-144920626D02*
X146430180Y-145308721D01*
X146430180Y-145308721D02*
X146507800Y-145463959D01*
X146507800Y-145463959D02*
X146585419Y-145541578D01*
X146585419Y-145541578D02*
X146740657Y-145619197D01*
X146740657Y-145619197D02*
X146895895Y-145619197D01*
X146895895Y-145619197D02*
X147051133Y-145541578D01*
X147051133Y-145541578D02*
X147128752Y-145463959D01*
X147128752Y-145463959D02*
X147206371Y-145308721D01*
X147206371Y-145308721D02*
X147283990Y-144998245D01*
X147283990Y-144998245D02*
X147361609Y-144843007D01*
X147361609Y-144843007D02*
X147439228Y-144765388D01*
X147439228Y-144765388D02*
X147594466Y-144687769D01*
X147594466Y-144687769D02*
X147749704Y-144687769D01*
X147749704Y-144687769D02*
X147904942Y-144765388D01*
X147904942Y-144765388D02*
X147982561Y-144843007D01*
X147982561Y-144843007D02*
X148060180Y-144998245D01*
X148060180Y-144998245D02*
X148060180Y-145386340D01*
X148060180Y-145386340D02*
X147982561Y-145619197D01*
X146585419Y-148491102D02*
X146507800Y-148413483D01*
X146507800Y-148413483D02*
X146430180Y-148180626D01*
X146430180Y-148180626D02*
X146430180Y-148025388D01*
X146430180Y-148025388D02*
X146507800Y-147792531D01*
X146507800Y-147792531D02*
X146663038Y-147637293D01*
X146663038Y-147637293D02*
X146818276Y-147559674D01*
X146818276Y-147559674D02*
X147128752Y-147482055D01*
X147128752Y-147482055D02*
X147361609Y-147482055D01*
X147361609Y-147482055D02*
X147672085Y-147559674D01*
X147672085Y-147559674D02*
X147827323Y-147637293D01*
X147827323Y-147637293D02*
X147982561Y-147792531D01*
X147982561Y-147792531D02*
X148060180Y-148025388D01*
X148060180Y-148025388D02*
X148060180Y-148180626D01*
X148060180Y-148180626D02*
X147982561Y-148413483D01*
X147982561Y-148413483D02*
X147904942Y-148491102D01*
X148060180Y-149500150D02*
X148060180Y-149810626D01*
X148060180Y-149810626D02*
X147982561Y-149965864D01*
X147982561Y-149965864D02*
X147827323Y-150121102D01*
X147827323Y-150121102D02*
X147516847Y-150198721D01*
X147516847Y-150198721D02*
X146973514Y-150198721D01*
X146973514Y-150198721D02*
X146663038Y-150121102D01*
X146663038Y-150121102D02*
X146507800Y-149965864D01*
X146507800Y-149965864D02*
X146430180Y-149810626D01*
X146430180Y-149810626D02*
X146430180Y-149500150D01*
X146430180Y-149500150D02*
X146507800Y-149344912D01*
X146507800Y-149344912D02*
X146663038Y-149189674D01*
X146663038Y-149189674D02*
X146973514Y-149112055D01*
X146973514Y-149112055D02*
X147516847Y-149112055D01*
X147516847Y-149112055D02*
X147827323Y-149189674D01*
X147827323Y-149189674D02*
X147982561Y-149344912D01*
X147982561Y-149344912D02*
X148060180Y-149500150D01*
X146430180Y-150897293D02*
X148060180Y-150897293D01*
X148060180Y-150897293D02*
X146430180Y-151828721D01*
X146430180Y-151828721D02*
X148060180Y-151828721D01*
X146430180Y-152604912D02*
X148060180Y-152604912D01*
X148060180Y-152604912D02*
X146430180Y-153536340D01*
X146430180Y-153536340D02*
X148060180Y-153536340D01*
D14*
X115139487Y-152969725D02*
X115270115Y-153013268D01*
X115270115Y-153013268D02*
X115313658Y-153056811D01*
X115313658Y-153056811D02*
X115357201Y-153143896D01*
X115357201Y-153143896D02*
X115357201Y-153274525D01*
X115357201Y-153274525D02*
X115313658Y-153361611D01*
X115313658Y-153361611D02*
X115270115Y-153405154D01*
X115270115Y-153405154D02*
X115183030Y-153448696D01*
X115183030Y-153448696D02*
X114834687Y-153448696D01*
X114834687Y-153448696D02*
X114834687Y-152534296D01*
X114834687Y-152534296D02*
X115139487Y-152534296D01*
X115139487Y-152534296D02*
X115226573Y-152577839D01*
X115226573Y-152577839D02*
X115270115Y-152621382D01*
X115270115Y-152621382D02*
X115313658Y-152708468D01*
X115313658Y-152708468D02*
X115313658Y-152795554D01*
X115313658Y-152795554D02*
X115270115Y-152882639D01*
X115270115Y-152882639D02*
X115226573Y-152926182D01*
X115226573Y-152926182D02*
X115139487Y-152969725D01*
X115139487Y-152969725D02*
X114834687Y-152969725D01*
X116228058Y-153448696D02*
X115705544Y-153448696D01*
X115966801Y-153448696D02*
X115966801Y-152534296D01*
X115966801Y-152534296D02*
X115879715Y-152664925D01*
X115879715Y-152664925D02*
X115792630Y-152752011D01*
X115792630Y-152752011D02*
X115705544Y-152795554D01*
X116794115Y-152534296D02*
X116881201Y-152534296D01*
X116881201Y-152534296D02*
X116968287Y-152577839D01*
X116968287Y-152577839D02*
X117011830Y-152621382D01*
X117011830Y-152621382D02*
X117055372Y-152708468D01*
X117055372Y-152708468D02*
X117098915Y-152882639D01*
X117098915Y-152882639D02*
X117098915Y-153100354D01*
X117098915Y-153100354D02*
X117055372Y-153274525D01*
X117055372Y-153274525D02*
X117011830Y-153361611D01*
X117011830Y-153361611D02*
X116968287Y-153405154D01*
X116968287Y-153405154D02*
X116881201Y-153448696D01*
X116881201Y-153448696D02*
X116794115Y-153448696D01*
X116794115Y-153448696D02*
X116707030Y-153405154D01*
X116707030Y-153405154D02*
X116663487Y-153361611D01*
X116663487Y-153361611D02*
X116619944Y-153274525D01*
X116619944Y-153274525D02*
X116576401Y-153100354D01*
X116576401Y-153100354D02*
X116576401Y-152882639D01*
X116576401Y-152882639D02*
X116619944Y-152708468D01*
X116619944Y-152708468D02*
X116663487Y-152621382D01*
X116663487Y-152621382D02*
X116707030Y-152577839D01*
X116707030Y-152577839D02*
X116794115Y-152534296D01*
X117490801Y-153448696D02*
X117490801Y-152534296D01*
X117577887Y-153100354D02*
X117839144Y-153448696D01*
X117839144Y-152839096D02*
X117490801Y-153187439D01*
X116627273Y-128843082D02*
X117323958Y-128843082D01*
X151306901Y-132597111D02*
X151263358Y-132640654D01*
X151263358Y-132640654D02*
X151132730Y-132684196D01*
X151132730Y-132684196D02*
X151045644Y-132684196D01*
X151045644Y-132684196D02*
X150915015Y-132640654D01*
X150915015Y-132640654D02*
X150827930Y-132553568D01*
X150827930Y-132553568D02*
X150784387Y-132466482D01*
X150784387Y-132466482D02*
X150740844Y-132292311D01*
X150740844Y-132292311D02*
X150740844Y-132161682D01*
X150740844Y-132161682D02*
X150784387Y-131987511D01*
X150784387Y-131987511D02*
X150827930Y-131900425D01*
X150827930Y-131900425D02*
X150915015Y-131813339D01*
X150915015Y-131813339D02*
X151045644Y-131769796D01*
X151045644Y-131769796D02*
X151132730Y-131769796D01*
X151132730Y-131769796D02*
X151263358Y-131813339D01*
X151263358Y-131813339D02*
X151306901Y-131856882D01*
X152090673Y-132074596D02*
X152090673Y-132684196D01*
X151872958Y-131726254D02*
X151655244Y-132379396D01*
X151655244Y-132379396D02*
X152221301Y-132379396D01*
X117107201Y-76698696D02*
X116802401Y-76263268D01*
X116584687Y-76698696D02*
X116584687Y-75784296D01*
X116584687Y-75784296D02*
X116933030Y-75784296D01*
X116933030Y-75784296D02*
X117020115Y-75827839D01*
X117020115Y-75827839D02*
X117063658Y-75871382D01*
X117063658Y-75871382D02*
X117107201Y-75958468D01*
X117107201Y-75958468D02*
X117107201Y-76089096D01*
X117107201Y-76089096D02*
X117063658Y-76176182D01*
X117063658Y-76176182D02*
X117020115Y-76219725D01*
X117020115Y-76219725D02*
X116933030Y-76263268D01*
X116933030Y-76263268D02*
X116584687Y-76263268D01*
X117890973Y-75784296D02*
X117716801Y-75784296D01*
X117716801Y-75784296D02*
X117629715Y-75827839D01*
X117629715Y-75827839D02*
X117586173Y-75871382D01*
X117586173Y-75871382D02*
X117499087Y-76002011D01*
X117499087Y-76002011D02*
X117455544Y-76176182D01*
X117455544Y-76176182D02*
X117455544Y-76524525D01*
X117455544Y-76524525D02*
X117499087Y-76611611D01*
X117499087Y-76611611D02*
X117542630Y-76655154D01*
X117542630Y-76655154D02*
X117629715Y-76698696D01*
X117629715Y-76698696D02*
X117803887Y-76698696D01*
X117803887Y-76698696D02*
X117890973Y-76655154D01*
X117890973Y-76655154D02*
X117934515Y-76611611D01*
X117934515Y-76611611D02*
X117978058Y-76524525D01*
X117978058Y-76524525D02*
X117978058Y-76306811D01*
X117978058Y-76306811D02*
X117934515Y-76219725D01*
X117934515Y-76219725D02*
X117890973Y-76176182D01*
X117890973Y-76176182D02*
X117803887Y-76132639D01*
X117803887Y-76132639D02*
X117629715Y-76132639D01*
X117629715Y-76132639D02*
X117542630Y-76176182D01*
X117542630Y-76176182D02*
X117499087Y-76219725D01*
X117499087Y-76219725D02*
X117455544Y-76306811D01*
X119334687Y-76350354D02*
X120031373Y-76350354D01*
X121642458Y-76698696D02*
X121119944Y-76698696D01*
X121381201Y-76698696D02*
X121381201Y-75784296D01*
X121381201Y-75784296D02*
X121294115Y-75914925D01*
X121294115Y-75914925D02*
X121207030Y-76002011D01*
X121207030Y-76002011D02*
X121119944Y-76045554D01*
X122208515Y-75784296D02*
X122295601Y-75784296D01*
X122295601Y-75784296D02*
X122382687Y-75827839D01*
X122382687Y-75827839D02*
X122426230Y-75871382D01*
X122426230Y-75871382D02*
X122469772Y-75958468D01*
X122469772Y-75958468D02*
X122513315Y-76132639D01*
X122513315Y-76132639D02*
X122513315Y-76350354D01*
X122513315Y-76350354D02*
X122469772Y-76524525D01*
X122469772Y-76524525D02*
X122426230Y-76611611D01*
X122426230Y-76611611D02*
X122382687Y-76655154D01*
X122382687Y-76655154D02*
X122295601Y-76698696D01*
X122295601Y-76698696D02*
X122208515Y-76698696D01*
X122208515Y-76698696D02*
X122121430Y-76655154D01*
X122121430Y-76655154D02*
X122077887Y-76611611D01*
X122077887Y-76611611D02*
X122034344Y-76524525D01*
X122034344Y-76524525D02*
X121990801Y-76350354D01*
X121990801Y-76350354D02*
X121990801Y-76132639D01*
X121990801Y-76132639D02*
X122034344Y-75958468D01*
X122034344Y-75958468D02*
X122077887Y-75871382D01*
X122077887Y-75871382D02*
X122121430Y-75827839D01*
X122121430Y-75827839D02*
X122208515Y-75784296D01*
X122905201Y-76698696D02*
X122905201Y-75784296D01*
X123427715Y-76698696D02*
X123035829Y-76176182D01*
X123427715Y-75784296D02*
X122905201Y-76306811D01*
X190051303Y-143857201D02*
X190486731Y-143552401D01*
X190051303Y-143334687D02*
X190965703Y-143334687D01*
X190965703Y-143334687D02*
X190965703Y-143683030D01*
X190965703Y-143683030D02*
X190922160Y-143770115D01*
X190922160Y-143770115D02*
X190878617Y-143813658D01*
X190878617Y-143813658D02*
X190791531Y-143857201D01*
X190791531Y-143857201D02*
X190660903Y-143857201D01*
X190660903Y-143857201D02*
X190573817Y-143813658D01*
X190573817Y-143813658D02*
X190530274Y-143770115D01*
X190530274Y-143770115D02*
X190486731Y-143683030D01*
X190486731Y-143683030D02*
X190486731Y-143334687D01*
X190878617Y-144205544D02*
X190922160Y-144249087D01*
X190922160Y-144249087D02*
X190965703Y-144336173D01*
X190965703Y-144336173D02*
X190965703Y-144553887D01*
X190965703Y-144553887D02*
X190922160Y-144640973D01*
X190922160Y-144640973D02*
X190878617Y-144684515D01*
X190878617Y-144684515D02*
X190791531Y-144728058D01*
X190791531Y-144728058D02*
X190704446Y-144728058D01*
X190704446Y-144728058D02*
X190573817Y-144684515D01*
X190573817Y-144684515D02*
X190051303Y-144162001D01*
X190051303Y-144162001D02*
X190051303Y-144728058D01*
X190399646Y-145834687D02*
X190399646Y-146531373D01*
X190051303Y-148142458D02*
X190051303Y-147619944D01*
X190051303Y-147881201D02*
X190965703Y-147881201D01*
X190965703Y-147881201D02*
X190835074Y-147794115D01*
X190835074Y-147794115D02*
X190747988Y-147707030D01*
X190747988Y-147707030D02*
X190704446Y-147619944D01*
X190965703Y-148708515D02*
X190965703Y-148795601D01*
X190965703Y-148795601D02*
X190922160Y-148882687D01*
X190922160Y-148882687D02*
X190878617Y-148926230D01*
X190878617Y-148926230D02*
X190791531Y-148969772D01*
X190791531Y-148969772D02*
X190617360Y-149013315D01*
X190617360Y-149013315D02*
X190399646Y-149013315D01*
X190399646Y-149013315D02*
X190225474Y-148969772D01*
X190225474Y-148969772D02*
X190138388Y-148926230D01*
X190138388Y-148926230D02*
X190094846Y-148882687D01*
X190094846Y-148882687D02*
X190051303Y-148795601D01*
X190051303Y-148795601D02*
X190051303Y-148708515D01*
X190051303Y-148708515D02*
X190094846Y-148621430D01*
X190094846Y-148621430D02*
X190138388Y-148577887D01*
X190138388Y-148577887D02*
X190225474Y-148534344D01*
X190225474Y-148534344D02*
X190399646Y-148490801D01*
X190399646Y-148490801D02*
X190617360Y-148490801D01*
X190617360Y-148490801D02*
X190791531Y-148534344D01*
X190791531Y-148534344D02*
X190878617Y-148577887D01*
X190878617Y-148577887D02*
X190922160Y-148621430D01*
X190922160Y-148621430D02*
X190965703Y-148708515D01*
X190051303Y-149405201D02*
X190965703Y-149405201D01*
X190051303Y-149927715D02*
X190573817Y-149535829D01*
X190965703Y-149927715D02*
X190443188Y-149405201D01*
D15*
X124874634Y-116623660D02*
X125310063Y-116623660D01*
X124787548Y-116884917D02*
X125092348Y-115970517D01*
X125092348Y-115970517D02*
X125397148Y-116884917D01*
X126224462Y-116884917D02*
X125919662Y-116449489D01*
X125701948Y-116884917D02*
X125701948Y-115970517D01*
X125701948Y-115970517D02*
X126050291Y-115970517D01*
X126050291Y-115970517D02*
X126137376Y-116014060D01*
X126137376Y-116014060D02*
X126180919Y-116057603D01*
X126180919Y-116057603D02*
X126224462Y-116144689D01*
X126224462Y-116144689D02*
X126224462Y-116275317D01*
X126224462Y-116275317D02*
X126180919Y-116362403D01*
X126180919Y-116362403D02*
X126137376Y-116405946D01*
X126137376Y-116405946D02*
X126050291Y-116449489D01*
X126050291Y-116449489D02*
X125701948Y-116449489D01*
X126616348Y-116405946D02*
X126921148Y-116405946D01*
X127051776Y-116884917D02*
X126616348Y-116884917D01*
X126616348Y-116884917D02*
X126616348Y-115970517D01*
X126616348Y-115970517D02*
X127051776Y-115970517D01*
X127748462Y-116405946D02*
X127443662Y-116405946D01*
X127443662Y-116884917D02*
X127443662Y-115970517D01*
X127443662Y-115970517D02*
X127879090Y-115970517D01*
X162917877Y-130621017D02*
X162917877Y-131361246D01*
X162917877Y-131361246D02*
X162961420Y-131448332D01*
X162961420Y-131448332D02*
X163004963Y-131491875D01*
X163004963Y-131491875D02*
X163092048Y-131535417D01*
X163092048Y-131535417D02*
X163266220Y-131535417D01*
X163266220Y-131535417D02*
X163353305Y-131491875D01*
X163353305Y-131491875D02*
X163396848Y-131448332D01*
X163396848Y-131448332D02*
X163440391Y-131361246D01*
X163440391Y-131361246D02*
X163440391Y-130621017D01*
X164267706Y-130925817D02*
X164267706Y-131535417D01*
X164049991Y-130577475D02*
X163832277Y-131230617D01*
X163832277Y-131230617D02*
X164398334Y-131230617D01*
X143590491Y-123362932D02*
X143546948Y-123406475D01*
X143546948Y-123406475D02*
X143416320Y-123450017D01*
X143416320Y-123450017D02*
X143329234Y-123450017D01*
X143329234Y-123450017D02*
X143198605Y-123406475D01*
X143198605Y-123406475D02*
X143111520Y-123319389D01*
X143111520Y-123319389D02*
X143067977Y-123232303D01*
X143067977Y-123232303D02*
X143024434Y-123058132D01*
X143024434Y-123058132D02*
X143024434Y-122927503D01*
X143024434Y-122927503D02*
X143067977Y-122753332D01*
X143067977Y-122753332D02*
X143111520Y-122666246D01*
X143111520Y-122666246D02*
X143198605Y-122579160D01*
X143198605Y-122579160D02*
X143329234Y-122535617D01*
X143329234Y-122535617D02*
X143416320Y-122535617D01*
X143416320Y-122535617D02*
X143546948Y-122579160D01*
X143546948Y-122579160D02*
X143590491Y-122622703D01*
X143982377Y-123101675D02*
X144679063Y-123101675D01*
X145114491Y-123450017D02*
X145114491Y-122535617D01*
X145114491Y-122535617D02*
X145419291Y-123188760D01*
X145419291Y-123188760D02*
X145724091Y-122535617D01*
X145724091Y-122535617D02*
X145724091Y-123450017D01*
X146115977Y-123188760D02*
X146551406Y-123188760D01*
X146028891Y-123450017D02*
X146333691Y-122535617D01*
X146333691Y-122535617D02*
X146638491Y-123450017D01*
X146943291Y-123450017D02*
X146943291Y-122535617D01*
X147378720Y-123450017D02*
X147378720Y-122535617D01*
X147378720Y-122535617D02*
X147901234Y-123450017D01*
X147901234Y-123450017D02*
X147901234Y-122535617D01*
D14*
X114857201Y-123611611D02*
X114813658Y-123655154D01*
X114813658Y-123655154D02*
X114683030Y-123698696D01*
X114683030Y-123698696D02*
X114595944Y-123698696D01*
X114595944Y-123698696D02*
X114465315Y-123655154D01*
X114465315Y-123655154D02*
X114378230Y-123568068D01*
X114378230Y-123568068D02*
X114334687Y-123480982D01*
X114334687Y-123480982D02*
X114291144Y-123306811D01*
X114291144Y-123306811D02*
X114291144Y-123176182D01*
X114291144Y-123176182D02*
X114334687Y-123002011D01*
X114334687Y-123002011D02*
X114378230Y-122914925D01*
X114378230Y-122914925D02*
X114465315Y-122827839D01*
X114465315Y-122827839D02*
X114595944Y-122784296D01*
X114595944Y-122784296D02*
X114683030Y-122784296D01*
X114683030Y-122784296D02*
X114813658Y-122827839D01*
X114813658Y-122827839D02*
X114857201Y-122871382D01*
X115728058Y-123698696D02*
X115205544Y-123698696D01*
X115466801Y-123698696D02*
X115466801Y-122784296D01*
X115466801Y-122784296D02*
X115379715Y-122914925D01*
X115379715Y-122914925D02*
X115292630Y-123002011D01*
X115292630Y-123002011D02*
X115205544Y-123045554D01*
X117357201Y-96448696D02*
X117052401Y-96013268D01*
X116834687Y-96448696D02*
X116834687Y-95534296D01*
X116834687Y-95534296D02*
X117183030Y-95534296D01*
X117183030Y-95534296D02*
X117270115Y-95577839D01*
X117270115Y-95577839D02*
X117313658Y-95621382D01*
X117313658Y-95621382D02*
X117357201Y-95708468D01*
X117357201Y-95708468D02*
X117357201Y-95839096D01*
X117357201Y-95839096D02*
X117313658Y-95926182D01*
X117313658Y-95926182D02*
X117270115Y-95969725D01*
X117270115Y-95969725D02*
X117183030Y-96013268D01*
X117183030Y-96013268D02*
X116834687Y-96013268D01*
X118184515Y-95534296D02*
X117749087Y-95534296D01*
X117749087Y-95534296D02*
X117705544Y-95969725D01*
X117705544Y-95969725D02*
X117749087Y-95926182D01*
X117749087Y-95926182D02*
X117836173Y-95882639D01*
X117836173Y-95882639D02*
X118053887Y-95882639D01*
X118053887Y-95882639D02*
X118140973Y-95926182D01*
X118140973Y-95926182D02*
X118184515Y-95969725D01*
X118184515Y-95969725D02*
X118228058Y-96056811D01*
X118228058Y-96056811D02*
X118228058Y-96274525D01*
X118228058Y-96274525D02*
X118184515Y-96361611D01*
X118184515Y-96361611D02*
X118140973Y-96405154D01*
X118140973Y-96405154D02*
X118053887Y-96448696D01*
X118053887Y-96448696D02*
X117836173Y-96448696D01*
X117836173Y-96448696D02*
X117749087Y-96405154D01*
X117749087Y-96405154D02*
X117705544Y-96361611D01*
X119334687Y-96100354D02*
X120031373Y-96100354D01*
X121642458Y-96448696D02*
X121119944Y-96448696D01*
X121381201Y-96448696D02*
X121381201Y-95534296D01*
X121381201Y-95534296D02*
X121294115Y-95664925D01*
X121294115Y-95664925D02*
X121207030Y-95752011D01*
X121207030Y-95752011D02*
X121119944Y-95795554D01*
X122208515Y-95534296D02*
X122295601Y-95534296D01*
X122295601Y-95534296D02*
X122382687Y-95577839D01*
X122382687Y-95577839D02*
X122426230Y-95621382D01*
X122426230Y-95621382D02*
X122469772Y-95708468D01*
X122469772Y-95708468D02*
X122513315Y-95882639D01*
X122513315Y-95882639D02*
X122513315Y-96100354D01*
X122513315Y-96100354D02*
X122469772Y-96274525D01*
X122469772Y-96274525D02*
X122426230Y-96361611D01*
X122426230Y-96361611D02*
X122382687Y-96405154D01*
X122382687Y-96405154D02*
X122295601Y-96448696D01*
X122295601Y-96448696D02*
X122208515Y-96448696D01*
X122208515Y-96448696D02*
X122121430Y-96405154D01*
X122121430Y-96405154D02*
X122077887Y-96361611D01*
X122077887Y-96361611D02*
X122034344Y-96274525D01*
X122034344Y-96274525D02*
X121990801Y-96100354D01*
X121990801Y-96100354D02*
X121990801Y-95882639D01*
X121990801Y-95882639D02*
X122034344Y-95708468D01*
X122034344Y-95708468D02*
X122077887Y-95621382D01*
X122077887Y-95621382D02*
X122121430Y-95577839D01*
X122121430Y-95577839D02*
X122208515Y-95534296D01*
X122905201Y-96448696D02*
X122905201Y-95534296D01*
X123427715Y-96448696D02*
X123035829Y-95926182D01*
X123427715Y-95534296D02*
X122905201Y-96056811D01*
X181857201Y-133448696D02*
X181552401Y-133013268D01*
X181334687Y-133448696D02*
X181334687Y-132534296D01*
X181334687Y-132534296D02*
X181683030Y-132534296D01*
X181683030Y-132534296D02*
X181770115Y-132577839D01*
X181770115Y-132577839D02*
X181813658Y-132621382D01*
X181813658Y-132621382D02*
X181857201Y-132708468D01*
X181857201Y-132708468D02*
X181857201Y-132839096D01*
X181857201Y-132839096D02*
X181813658Y-132926182D01*
X181813658Y-132926182D02*
X181770115Y-132969725D01*
X181770115Y-132969725D02*
X181683030Y-133013268D01*
X181683030Y-133013268D02*
X181334687Y-133013268D01*
X182162001Y-132534296D02*
X182728058Y-132534296D01*
X182728058Y-132534296D02*
X182423258Y-132882639D01*
X182423258Y-132882639D02*
X182553887Y-132882639D01*
X182553887Y-132882639D02*
X182640973Y-132926182D01*
X182640973Y-132926182D02*
X182684515Y-132969725D01*
X182684515Y-132969725D02*
X182728058Y-133056811D01*
X182728058Y-133056811D02*
X182728058Y-133274525D01*
X182728058Y-133274525D02*
X182684515Y-133361611D01*
X182684515Y-133361611D02*
X182640973Y-133405154D01*
X182640973Y-133405154D02*
X182553887Y-133448696D01*
X182553887Y-133448696D02*
X182292630Y-133448696D01*
X182292630Y-133448696D02*
X182205544Y-133405154D01*
X182205544Y-133405154D02*
X182162001Y-133361611D01*
X183834687Y-133100354D02*
X184531373Y-133100354D01*
X186142458Y-133448696D02*
X185619944Y-133448696D01*
X185881201Y-133448696D02*
X185881201Y-132534296D01*
X185881201Y-132534296D02*
X185794115Y-132664925D01*
X185794115Y-132664925D02*
X185707030Y-132752011D01*
X185707030Y-132752011D02*
X185619944Y-132795554D01*
X186708515Y-132534296D02*
X186795601Y-132534296D01*
X186795601Y-132534296D02*
X186882687Y-132577839D01*
X186882687Y-132577839D02*
X186926230Y-132621382D01*
X186926230Y-132621382D02*
X186969772Y-132708468D01*
X186969772Y-132708468D02*
X187013315Y-132882639D01*
X187013315Y-132882639D02*
X187013315Y-133100354D01*
X187013315Y-133100354D02*
X186969772Y-133274525D01*
X186969772Y-133274525D02*
X186926230Y-133361611D01*
X186926230Y-133361611D02*
X186882687Y-133405154D01*
X186882687Y-133405154D02*
X186795601Y-133448696D01*
X186795601Y-133448696D02*
X186708515Y-133448696D01*
X186708515Y-133448696D02*
X186621430Y-133405154D01*
X186621430Y-133405154D02*
X186577887Y-133361611D01*
X186577887Y-133361611D02*
X186534344Y-133274525D01*
X186534344Y-133274525D02*
X186490801Y-133100354D01*
X186490801Y-133100354D02*
X186490801Y-132882639D01*
X186490801Y-132882639D02*
X186534344Y-132708468D01*
X186534344Y-132708468D02*
X186577887Y-132621382D01*
X186577887Y-132621382D02*
X186621430Y-132577839D01*
X186621430Y-132577839D02*
X186708515Y-132534296D01*
X187405201Y-133448696D02*
X187405201Y-132534296D01*
X187927715Y-133448696D02*
X187535829Y-132926182D01*
X187927715Y-132534296D02*
X187405201Y-133056811D01*
X163857201Y-124448696D02*
X163552401Y-124013268D01*
X163334687Y-124448696D02*
X163334687Y-123534296D01*
X163334687Y-123534296D02*
X163683030Y-123534296D01*
X163683030Y-123534296D02*
X163770115Y-123577839D01*
X163770115Y-123577839D02*
X163813658Y-123621382D01*
X163813658Y-123621382D02*
X163857201Y-123708468D01*
X163857201Y-123708468D02*
X163857201Y-123839096D01*
X163857201Y-123839096D02*
X163813658Y-123926182D01*
X163813658Y-123926182D02*
X163770115Y-123969725D01*
X163770115Y-123969725D02*
X163683030Y-124013268D01*
X163683030Y-124013268D02*
X163334687Y-124013268D01*
X164640973Y-123839096D02*
X164640973Y-124448696D01*
X164423258Y-123490754D02*
X164205544Y-124143896D01*
X164205544Y-124143896D02*
X164771601Y-124143896D01*
X165834687Y-124100354D02*
X166531373Y-124100354D01*
X168142458Y-124448696D02*
X167619944Y-124448696D01*
X167881201Y-124448696D02*
X167881201Y-123534296D01*
X167881201Y-123534296D02*
X167794115Y-123664925D01*
X167794115Y-123664925D02*
X167707030Y-123752011D01*
X167707030Y-123752011D02*
X167619944Y-123795554D01*
X168708515Y-123534296D02*
X168795601Y-123534296D01*
X168795601Y-123534296D02*
X168882687Y-123577839D01*
X168882687Y-123577839D02*
X168926230Y-123621382D01*
X168926230Y-123621382D02*
X168969772Y-123708468D01*
X168969772Y-123708468D02*
X169013315Y-123882639D01*
X169013315Y-123882639D02*
X169013315Y-124100354D01*
X169013315Y-124100354D02*
X168969772Y-124274525D01*
X168969772Y-124274525D02*
X168926230Y-124361611D01*
X168926230Y-124361611D02*
X168882687Y-124405154D01*
X168882687Y-124405154D02*
X168795601Y-124448696D01*
X168795601Y-124448696D02*
X168708515Y-124448696D01*
X168708515Y-124448696D02*
X168621430Y-124405154D01*
X168621430Y-124405154D02*
X168577887Y-124361611D01*
X168577887Y-124361611D02*
X168534344Y-124274525D01*
X168534344Y-124274525D02*
X168490801Y-124100354D01*
X168490801Y-124100354D02*
X168490801Y-123882639D01*
X168490801Y-123882639D02*
X168534344Y-123708468D01*
X168534344Y-123708468D02*
X168577887Y-123621382D01*
X168577887Y-123621382D02*
X168621430Y-123577839D01*
X168621430Y-123577839D02*
X168708515Y-123534296D01*
X169405201Y-124448696D02*
X169405201Y-123534296D01*
X169927715Y-124448696D02*
X169535829Y-123926182D01*
X169927715Y-123534296D02*
X169405201Y-124056811D01*
X157607201Y-155948696D02*
X157302401Y-155513268D01*
X157084687Y-155948696D02*
X157084687Y-155034296D01*
X157084687Y-155034296D02*
X157433030Y-155034296D01*
X157433030Y-155034296D02*
X157520115Y-155077839D01*
X157520115Y-155077839D02*
X157563658Y-155121382D01*
X157563658Y-155121382D02*
X157607201Y-155208468D01*
X157607201Y-155208468D02*
X157607201Y-155339096D01*
X157607201Y-155339096D02*
X157563658Y-155426182D01*
X157563658Y-155426182D02*
X157520115Y-155469725D01*
X157520115Y-155469725D02*
X157433030Y-155513268D01*
X157433030Y-155513268D02*
X157084687Y-155513268D01*
X158478058Y-155948696D02*
X157955544Y-155948696D01*
X158216801Y-155948696D02*
X158216801Y-155034296D01*
X158216801Y-155034296D02*
X158129715Y-155164925D01*
X158129715Y-155164925D02*
X158042630Y-155252011D01*
X158042630Y-155252011D02*
X157955544Y-155295554D01*
X159584687Y-155600354D02*
X160281373Y-155600354D01*
X161892458Y-155948696D02*
X161369944Y-155948696D01*
X161631201Y-155948696D02*
X161631201Y-155034296D01*
X161631201Y-155034296D02*
X161544115Y-155164925D01*
X161544115Y-155164925D02*
X161457030Y-155252011D01*
X161457030Y-155252011D02*
X161369944Y-155295554D01*
X162458515Y-155034296D02*
X162545601Y-155034296D01*
X162545601Y-155034296D02*
X162632687Y-155077839D01*
X162632687Y-155077839D02*
X162676230Y-155121382D01*
X162676230Y-155121382D02*
X162719772Y-155208468D01*
X162719772Y-155208468D02*
X162763315Y-155382639D01*
X162763315Y-155382639D02*
X162763315Y-155600354D01*
X162763315Y-155600354D02*
X162719772Y-155774525D01*
X162719772Y-155774525D02*
X162676230Y-155861611D01*
X162676230Y-155861611D02*
X162632687Y-155905154D01*
X162632687Y-155905154D02*
X162545601Y-155948696D01*
X162545601Y-155948696D02*
X162458515Y-155948696D01*
X162458515Y-155948696D02*
X162371430Y-155905154D01*
X162371430Y-155905154D02*
X162327887Y-155861611D01*
X162327887Y-155861611D02*
X162284344Y-155774525D01*
X162284344Y-155774525D02*
X162240801Y-155600354D01*
X162240801Y-155600354D02*
X162240801Y-155382639D01*
X162240801Y-155382639D02*
X162284344Y-155208468D01*
X162284344Y-155208468D02*
X162327887Y-155121382D01*
X162327887Y-155121382D02*
X162371430Y-155077839D01*
X162371430Y-155077839D02*
X162458515Y-155034296D01*
X163155201Y-155948696D02*
X163155201Y-155034296D01*
X163677715Y-155948696D02*
X163285829Y-155426182D01*
X163677715Y-155034296D02*
X163155201Y-155556811D01*
%TO.C,C4*%
D10*
X150250000Y-128439300D02*
X150250000Y-135937400D01*
X150250000Y-135937400D02*
X152749300Y-135937400D01*
X152749300Y-128439300D02*
X150250000Y-128439300D01*
X152749300Y-135688400D02*
X152749300Y-128439300D01*
X152749300Y-135937400D02*
X152749300Y-135688400D01*
%TO.C,R6*%
X113251200Y-75038400D02*
X113251200Y-77540300D01*
X113251200Y-77540300D02*
X126250900Y-77540300D01*
X126250900Y-75038400D02*
X113251200Y-75038400D01*
X126250900Y-77288800D02*
X126250900Y-75038400D01*
X126250900Y-77540300D02*
X126250900Y-77288800D01*
%TO.C,R2*%
X189292000Y-140004300D02*
X189292000Y-153004000D01*
X189292000Y-153004000D02*
X191793900Y-153004000D01*
X191542400Y-140004300D02*
X189292000Y-140004300D01*
X191793900Y-140004300D02*
X191542400Y-140004300D01*
X191793900Y-153004000D02*
X191793900Y-140004300D01*
%TO.C,AREF*%
X121050000Y-115799900D02*
X121050000Y-117399900D01*
X122300100Y-115799900D02*
X121050000Y-115799900D01*
X122300100Y-117399900D02*
X121050000Y-117399900D01*
X122900700Y-115794700D02*
X124150600Y-115794700D01*
X122900700Y-117394800D02*
X124150600Y-117394800D01*
X124150600Y-115794700D02*
X124150600Y-117394800D01*
%TO.C,U4*%
X153599900Y-128801800D02*
X153880600Y-128801800D01*
X153599900Y-131001700D02*
X153599900Y-128801800D01*
X153599900Y-135199800D02*
X153599900Y-132999900D01*
X153599900Y-135199800D02*
X153879200Y-135199800D01*
X155539200Y-128801800D02*
X156420600Y-128801800D01*
X155540600Y-135199800D02*
X156419200Y-135199800D01*
X158079200Y-128801800D02*
X158960600Y-128801800D01*
X158080600Y-135199800D02*
X158959200Y-135199800D01*
X160619200Y-128801800D02*
X161500600Y-128801800D01*
X160620600Y-135199800D02*
X161499200Y-135199800D01*
X163159200Y-128801800D02*
X164040600Y-128801800D01*
X163160600Y-135199800D02*
X164039200Y-135199800D01*
X165699200Y-128801800D02*
X166580600Y-128801800D01*
X165700600Y-135199800D02*
X166579200Y-135199800D01*
X168239200Y-128801800D02*
X169120600Y-128801800D01*
X168240600Y-135199800D02*
X169119200Y-135199800D01*
X170779200Y-128801800D02*
X171660600Y-128801800D01*
X170780600Y-135199800D02*
X171659200Y-135199800D01*
X173319200Y-128801800D02*
X173599900Y-128801800D01*
X173320600Y-135199800D02*
X173599900Y-135199800D01*
X173599900Y-135199800D02*
X173599900Y-128800000D01*
X153599900Y-130999900D02*
G75*
G02*
X153650000Y-132999899I24999J-1000001D01*
G01*
X155050200Y-134199300D02*
G75*
G02*
X154450200Y-134199300I-300000J0D01*
G01*
X154450200Y-134199300D02*
G75*
G02*
X155050200Y-134199300I300000J0D01*
G01*
%TO.C,C-MAIN*%
X146772200Y-129285300D02*
X146772200Y-128269300D01*
X147280200Y-128777300D02*
X146264200Y-128777300D01*
X148651900Y-127252900D02*
G75*
G02*
X142352700Y-127252900I-3149600J0D01*
G01*
X142352700Y-127252900D02*
G75*
G02*
X148651900Y-127252900I3149600J0D01*
G01*
%TO.C,C1*%
X113650600Y-119462400D02*
X113650600Y-119711400D01*
X113650600Y-119711400D02*
X113650600Y-126960500D01*
X113650600Y-126960500D02*
X116149900Y-126960500D01*
X116149900Y-119462400D02*
X113650600Y-119462400D01*
X116149900Y-126960500D02*
X116149900Y-119462400D01*
%TO.C,R5*%
X113501200Y-94789300D02*
X113501200Y-97291200D01*
X113501200Y-97291200D02*
X126500900Y-97291200D01*
X126500900Y-94789300D02*
X113501200Y-94789300D01*
X126500900Y-97039700D02*
X126500900Y-94789300D01*
X126500900Y-97291200D02*
X126500900Y-97039700D01*
%TO.C,R3*%
X178004300Y-131791100D02*
X178004300Y-134293000D01*
X178004300Y-134293000D02*
X191004000Y-134293000D01*
X191004000Y-131791100D02*
X178004300Y-131791100D01*
X191004000Y-134041500D02*
X191004000Y-131791100D01*
X191004000Y-134293000D02*
X191004000Y-134041500D01*
%TO.C,R4*%
X159753400Y-122790700D02*
X159753400Y-125292600D01*
X159753400Y-125292600D02*
X172753100Y-125292600D01*
X172753100Y-122790700D02*
X159753400Y-122790700D01*
X172753100Y-125041100D02*
X172753100Y-122790700D01*
X172753100Y-125292600D02*
X172753100Y-125041100D01*
%TO.C,R1*%
X153503000Y-154215200D02*
X153503000Y-154466700D01*
X153503000Y-154466700D02*
X153503000Y-156717100D01*
X153503000Y-156717100D02*
X166502700Y-156717100D01*
X166502700Y-154215200D02*
X153503000Y-154215200D01*
X166502700Y-156717100D02*
X166502700Y-154215200D01*
%TD*%
M02*
