%TF.GenerationSoftware,KiCad,Pcbnew,10.0.6*%
%TF.CreationDate,2026-09-23T18:05:01+08:00*%
%TF.ProjectId,Octo_Hub,4f63746f-5f48-4756-922e-6b696361645f,1.7*%
%TF.SameCoordinates,Original*%
%TF.FileFunction,Copper,L1,Top*%
%TF.FilePolarity,Positive*%
%FSLAX46Y46*%
G04 Gerber Fmt 4.6, Leading zero omitted, Abs format (unit mm)*
G04 Created by KiCad (PCBNEW 10.0.6) date 2026-09-23 18:05:01*
%MOMM*%
%LPD*%
G01*
G04 APERTURE LIST*
%TA.AperFunction,NonConductor*%
%ADD10C,0.254000*%
%TD*%
%TA.AperFunction,ComponentPad*%
%ADD11R,0.999900X1.000000*%
%TD*%
%TA.AperFunction,ComponentPad*%
%ADD12R,1.300000X1.300000*%
%TD*%
%TA.AperFunction,ComponentPad*%
%ADD13R,1.000000X1.000000*%
%TD*%
%TA.AperFunction,ComponentPad*%
%ADD14R,1.300100X1.300100*%
%TD*%
%TA.AperFunction,ComponentPad*%
%ADD15R,0.899200X0.899200*%
%TD*%
%TA.AperFunction,ComponentPad*%
%ADD16O,1.524000X1.524000*%
%TD*%
%TA.AperFunction,ComponentPad*%
%ADD17R,1.524000X1.524000*%
%TD*%
%TA.AperFunction,ComponentPad*%
%ADD18R,1.300000X1.300100*%
%TD*%
%TA.AperFunction,ComponentPad*%
%ADD19R,1.300100X1.300000*%
%TD*%
%TA.AperFunction,ComponentPad*%
%ADD20R,1.000000X0.999900*%
%TD*%
%TA.AperFunction,ComponentPad*%
%ADD21R,0.899100X0.899200*%
%TD*%
%TA.AperFunction,ComponentPad*%
%ADD22R,0.899100X0.899100*%
%TD*%
%TA.AperFunction,ComponentPad*%
%ADD23O,4.800600X4.800600*%
%TD*%
%TA.AperFunction,ViaPad*%
%ADD24C,0.609600*%
%TD*%
%TA.AperFunction,ViaPad*%
%ADD25C,0.800000*%
%TD*%
%TA.AperFunction,Conductor*%
%ADD26C,0.254000*%
%TD*%
%TA.AperFunction,Conductor*%
%ADD27C,0.800000*%
%TD*%
G04 APERTURE END LIST*
D10*
X109609800Y-102500100D02*
G75*
G02*
X100390200Y-102500100I-4609800J0D01*
G01*
X100390200Y-102500100D02*
G75*
G02*
X109609800Y-102500100I4609800J0D01*
G01*
X190500000Y-102500100D02*
G75*
G02*
X182500000Y-102500100I-4000000J0D01*
G01*
X182500000Y-102500100D02*
G75*
G02*
X190500000Y-102500100I4000000J0D01*
G01*
D11*
%TO.P,WP80,1*%
%TO.N,ANALOG5*%
X151999900Y-117999900D03*
%TD*%
D12*
%TO.P,WP125,1*%
%TO.N,SCL*%
X176000100Y-110000000D03*
%TD*%
D13*
%TO.P,WP133,1*%
%TO.N,DIGITAL1*%
X166000100Y-98000000D03*
%TD*%
%TO.P,WP81,1*%
%TO.N,ANALOG3*%
X174000100Y-88000000D03*
%TD*%
D14*
%TO.P,WP42,1*%
%TO.N,GND*%
X138000000Y-100000000D03*
%TD*%
D13*
%TO.P,WP138,1*%
%TO.N,DIGITAL3*%
X170000200Y-100000000D03*
%TD*%
D15*
%TO.P,WP117,1*%
%TO.N,DIGITAL1*%
X166000100Y-108000000D03*
%TD*%
D11*
%TO.P,WP40,1*%
%TO.N,DIGITAL2*%
X142000000Y-100000000D03*
%TD*%
D16*
%TO.P,ARDUINO,1*%
%TO.N,N/C*%
X130620000Y-117240000D03*
%TO.P,ARDUINO,2*%
X130620000Y-114700000D03*
%TO.P,ARDUINO,3*%
X130620000Y-112160000D03*
D17*
%TO.P,ARDUINO,4*%
%TO.N,GND*%
X130620000Y-109620000D03*
%TO.P,ARDUINO,5*%
%TO.N,SDA*%
X130620000Y-107080000D03*
%TO.P,ARDUINO,6*%
%TO.N,SCL*%
X130620000Y-104540000D03*
D16*
%TO.P,ARDUINO,7*%
%TO.N,DIGITAL2*%
X130620000Y-102000000D03*
%TO.P,ARDUINO,8*%
%TO.N,DIGITAL3*%
X130620000Y-99460000D03*
%TO.P,ARDUINO,9*%
%TO.N,DIGITAL4*%
X130620000Y-96920000D03*
D17*
%TO.P,ARDUINO,10*%
%TO.N,RESET*%
X130620000Y-94380000D03*
D16*
%TO.P,ARDUINO,11*%
%TO.N,N/C*%
X130620000Y-91840000D03*
%TO.P,ARDUINO,12*%
X130620000Y-89300000D03*
%TO.P,ARDUINO,13*%
X130620000Y-86760000D03*
%TO.P,ARDUINO,14*%
X130620000Y-84220000D03*
%TO.P,ARDUINO,15*%
X130620000Y-81680000D03*
%TO.P,ARDUINO,16*%
X115380000Y-81680000D03*
%TO.P,ARDUINO,17*%
X115380000Y-84220000D03*
%TO.P,ARDUINO,18*%
%TO.N,AREF*%
X115380000Y-86760000D03*
%TO.P,ARDUINO,19*%
%TO.N,N/C*%
X115380000Y-89300000D03*
%TO.P,ARDUINO,20*%
X115380000Y-91840000D03*
%TO.P,ARDUINO,21*%
X115380000Y-94380000D03*
%TO.P,ARDUINO,22*%
X115380000Y-96920000D03*
D17*
%TO.P,ARDUINO,23*%
%TO.N,SDA*%
X115380000Y-99460000D03*
%TO.P,ARDUINO,24*%
%TO.N,SCL*%
X115380000Y-102000000D03*
D16*
%TO.P,ARDUINO,25*%
%TO.N,ANALOG4*%
X115380000Y-104540000D03*
%TO.P,ARDUINO,26*%
%TO.N,ANALOG5*%
X115380000Y-107080000D03*
%TO.P,ARDUINO,27*%
%TO.N,5V*%
X115380000Y-109620000D03*
%TO.P,ARDUINO,28*%
%TO.N,N/C*%
X115380000Y-112160000D03*
D17*
%TO.P,ARDUINO,29*%
%TO.N,GND*%
X115380000Y-114700000D03*
D16*
%TO.P,ARDUINO,30*%
%TO.N,N/C*%
X115380000Y-117240000D03*
%TD*%
D11*
%TO.P,WP49,1*%
%TO.N,ANALOG3*%
X148000000Y-107999900D03*
%TD*%
%TO.P,WP47,1*%
%TO.N,ANALOG2*%
X146000000Y-98000000D03*
%TD*%
D18*
%TO.P,WP108,1*%
%TO.N,RESET*%
X174000100Y-120000000D03*
%TD*%
D12*
%TO.P,WP51,1*%
%TO.N,SDA*%
X151999900Y-109999900D03*
%TD*%
D13*
%TO.P,WP95,1*%
%TO.N,ANALOG2*%
X172000100Y-88000000D03*
%TD*%
%TO.P,WP25,1*%
%TO.N,DIGITAL2*%
X141999900Y-90000000D03*
%TD*%
D19*
%TO.P,WP74,1*%
%TO.N,GND*%
X138000000Y-119999900D03*
%TD*%
D20*
%TO.P,WP98,1*%
%TO.N,ANALOG2*%
X172000200Y-118000000D03*
%TD*%
D21*
%TO.P,WP63,1*%
%TO.N,ANALOG2*%
X146000000Y-107999900D03*
%TD*%
D12*
%TO.P,WP67,1*%
%TO.N,SDA*%
X151999900Y-119999900D03*
%TD*%
D13*
%TO.P,WP43,1*%
%TO.N,DIGITAL0*%
X137999900Y-98000000D03*
%TD*%
D19*
%TO.P,WP119,1*%
%TO.N,GND*%
X164000200Y-110000000D03*
%TD*%
D22*
%TO.P,WP33,1*%
%TO.N,ANALOG3*%
X148000000Y-98000000D03*
%TD*%
D12*
%TO.P,WP30,1*%
%TO.N,SDA*%
X151999900Y-90000000D03*
%TD*%
D13*
%TO.P,WP38,1*%
%TO.N,DIGITAL4*%
X145999900Y-100000000D03*
%TD*%
%TO.P,WP93,1*%
%TO.N,ANALOG0*%
X168000200Y-88000000D03*
%TD*%
%TO.P,WP59,1*%
%TO.N,DIGITAL0*%
X137999900Y-107999900D03*
%TD*%
%TO.P,WP82,1*%
%TO.N,ANALOG4*%
X176000100Y-88000000D03*
%TD*%
D11*
%TO.P,WP72,1*%
%TO.N,DIGITAL2*%
X142000000Y-119999900D03*
%TD*%
D13*
%TO.P,WP96,1*%
%TO.N,ANALOG5*%
X178000100Y-88000000D03*
%TD*%
D20*
%TO.P,WP112,1*%
%TO.N,ANALOG3*%
X174000200Y-118000000D03*
%TD*%
D13*
%TO.P,WP26,1*%
%TO.N,DIGITAL3*%
X143999900Y-90000000D03*
%TD*%
D12*
%TO.P,WP90,1*%
%TO.N,GND*%
X164000100Y-90000000D03*
%TD*%
D11*
%TO.P,WP65,1*%
%TO.N,ANALOG3*%
X148000000Y-117999900D03*
%TD*%
D18*
%TO.P,WP37,1*%
%TO.N,RESET*%
X147999900Y-100000000D03*
%TD*%
D13*
%TO.P,WP46,1*%
%TO.N,ANALOG1*%
X143999900Y-98000000D03*
%TD*%
D19*
%TO.P,WP58,1*%
%TO.N,GND*%
X138000000Y-109999900D03*
%TD*%
D11*
%TO.P,WP20,1*%
%TO.N,ANALOG0*%
X142000000Y-88000000D03*
%TD*%
D13*
%TO.P,WP130,1*%
%TO.N,ANALOG2*%
X172000200Y-98000000D03*
%TD*%
D12*
%TO.P,WP52,1*%
%TO.N,SCL*%
X149999900Y-109999900D03*
%TD*%
D20*
%TO.P,WP99,1*%
%TO.N,ANALOG1*%
X170000100Y-118000000D03*
%TD*%
D14*
%TO.P,WP103,1*%
%TO.N,GND*%
X164000200Y-120000000D03*
%TD*%
D20*
%TO.P,WP105,1*%
%TO.N,DIGITAL2*%
X168000200Y-120000000D03*
%TD*%
D13*
%TO.P,WP137,1*%
%TO.N,DIGITAL2*%
X168000200Y-100000000D03*
%TD*%
D20*
%TO.P,WP106,1*%
%TO.N,DIGITAL3*%
X170000200Y-120000000D03*
%TD*%
D13*
%TO.P,WP131,1*%
%TO.N,ANALOG1*%
X170000100Y-98000000D03*
%TD*%
D18*
%TO.P,WP36,1*%
%TO.N,SCL*%
X149999900Y-100000000D03*
%TD*%
D12*
%TO.P,WP83,1*%
%TO.N,SDA*%
X178000100Y-90000000D03*
%TD*%
%TO.P,WP53,1*%
%TO.N,RESET*%
X147999900Y-109999900D03*
%TD*%
D13*
%TO.P,WP86,1*%
%TO.N,DIGITAL4*%
X172000100Y-90000000D03*
%TD*%
D12*
%TO.P,WP84,1*%
%TO.N,SCL*%
X176000100Y-90000000D03*
%TD*%
D13*
%TO.P,WP122,1*%
%TO.N,DIGITAL3*%
X170000200Y-110000000D03*
%TD*%
D12*
%TO.P,WP141,1*%
%TO.N,SCL*%
X176000100Y-100000000D03*
%TD*%
D11*
%TO.P,WP50,1*%
%TO.N,ANALOG4*%
X149999900Y-107999900D03*
%TD*%
D12*
%TO.P,WP68,1*%
%TO.N,SCL*%
X149999900Y-119999900D03*
%TD*%
D13*
%TO.P,WP77,1*%
%TO.N,ANALOG0*%
X141999900Y-117999900D03*
%TD*%
D20*
%TO.P,WP102,1*%
%TO.N,DIGITAL0*%
X164000100Y-118000000D03*
%TD*%
D11*
%TO.P,WP21,1*%
%TO.N,DIGITAL1*%
X140000000Y-88000000D03*
%TD*%
D13*
%TO.P,WP87,1*%
%TO.N,DIGITAL3*%
X170000100Y-90000000D03*
%TD*%
D12*
%TO.P,WP89,1*%
%TO.N,+5V*%
X166000100Y-90000000D03*
%TD*%
D13*
%TO.P,WP127,1*%
%TO.N,ANALOG4*%
X176000100Y-108000000D03*
%TD*%
%TO.P,WP139,1*%
%TO.N,DIGITAL4*%
X172000100Y-100000000D03*
%TD*%
%TO.P,WP31,1*%
%TO.N,ANALOG4*%
X149999900Y-88000000D03*
%TD*%
D20*
%TO.P,WP97,1*%
%TO.N,ANALOG5*%
X178000100Y-118000000D03*
%TD*%
D13*
%TO.P,WP128,1*%
%TO.N,ANALOG3*%
X174000200Y-108000000D03*
%TD*%
D11*
%TO.P,WP71,1*%
%TO.N,DIGITAL3*%
X144000000Y-119999900D03*
%TD*%
%TO.P,WP66,1*%
%TO.N,ANALOG4*%
X149999900Y-117999900D03*
%TD*%
D13*
%TO.P,WP88,1*%
%TO.N,DIGITAL2*%
X168000100Y-90000000D03*
%TD*%
D12*
%TO.P,WP24,1*%
%TO.N,+5V*%
X139999900Y-90000000D03*
%TD*%
D13*
%TO.P,WP62,1*%
%TO.N,ANALOG1*%
X143999900Y-107999900D03*
%TD*%
D15*
%TO.P,WP54,1*%
%TO.N,DIGITAL4*%
X145999900Y-109999900D03*
%TD*%
D13*
%TO.P,WP121,1*%
%TO.N,DIGITAL2*%
X168000200Y-110000000D03*
%TD*%
D18*
%TO.P,WP110,1*%
%TO.N,SDA*%
X178000100Y-120000000D03*
%TD*%
D20*
%TO.P,WP100,1*%
%TO.N,ANALOG0*%
X168000100Y-118000000D03*
%TD*%
D13*
%TO.P,WP27,1*%
%TO.N,DIGITAL4*%
X145999900Y-90000000D03*
%TD*%
D11*
%TO.P,WP39,1*%
%TO.N,DIGITAL3*%
X144000000Y-100000000D03*
%TD*%
D13*
%TO.P,WP129,1*%
%TO.N,ANALOG5*%
X178000100Y-98000000D03*
%TD*%
%TO.P,WP143,1*%
%TO.N,ANALOG4*%
X176000100Y-98000000D03*
%TD*%
D11*
%TO.P,WP64,1*%
%TO.N,ANALOG5*%
X151999900Y-107999900D03*
%TD*%
D18*
%TO.P,WP109,1*%
%TO.N,SCL*%
X176000100Y-120000000D03*
%TD*%
D13*
%TO.P,WP78,1*%
%TO.N,ANALOG1*%
X143999900Y-117999900D03*
%TD*%
D11*
%TO.P,WP19,1*%
%TO.N,ANALOG1*%
X144000000Y-88000000D03*
%TD*%
D14*
%TO.P,WP41,1*%
%TO.N,+5V*%
X140000000Y-100000000D03*
%TD*%
D20*
%TO.P,WP111,1*%
%TO.N,ANALOG4*%
X176000100Y-118000000D03*
%TD*%
D12*
%TO.P,WP140,1*%
%TO.N,RESET*%
X174000100Y-100000000D03*
%TD*%
%TO.P,WP142,1*%
%TO.N,SDA*%
X178000100Y-100000000D03*
%TD*%
D19*
%TO.P,WP136,1*%
%TO.N,+5V*%
X166000200Y-100000000D03*
%TD*%
D23*
%TO.P,U1,RING*%
%TO.N,GND*%
X109349500Y-83040900D03*
%TO.P,U1,RING_SW*%
%TO.N,N/C*%
X104650500Y-85961900D03*
%TO.P,U1,TIP*%
%TO.N,+5V*%
X109349500Y-88959100D03*
%TD*%
D13*
%TO.P,WP92,1*%
%TO.N,DIGITAL1*%
X166000200Y-88000000D03*
%TD*%
D14*
%TO.P,WP104,1*%
%TO.N,+5V*%
X166000200Y-120000000D03*
%TD*%
D19*
%TO.P,WP57,1*%
%TO.N,+5V*%
X140000000Y-109999900D03*
%TD*%
D13*
%TO.P,WP114,1*%
%TO.N,ANALOG2*%
X172000200Y-108000000D03*
%TD*%
D12*
%TO.P,WP28,1*%
%TO.N,RESET*%
X147999900Y-90000000D03*
%TD*%
D13*
%TO.P,WP17,1*%
%TO.N,ANALOG5*%
X151999900Y-88000000D03*
%TD*%
D15*
%TO.P,WP115,1*%
%TO.N,ANALOG1*%
X170000100Y-108000000D03*
%TD*%
D11*
%TO.P,WP79,1*%
%TO.N,ANALOG2*%
X146000000Y-117999900D03*
%TD*%
D13*
%TO.P,WP91,1*%
%TO.N,DIGITAL0*%
X164000200Y-88000000D03*
%TD*%
D19*
%TO.P,WP135,1*%
%TO.N,GND*%
X164000200Y-100000000D03*
%TD*%
D13*
%TO.P,WP60,1*%
%TO.N,DIGITAL1*%
X139999900Y-107999900D03*
%TD*%
D12*
%TO.P,WP85,1*%
%TO.N,RESET*%
X174000100Y-90000000D03*
%TD*%
D11*
%TO.P,WP22,1*%
%TO.N,DIGITAL0*%
X138000000Y-88000000D03*
%TD*%
%TO.P,WP56,1*%
%TO.N,DIGITAL2*%
X142000000Y-109999900D03*
%TD*%
D13*
%TO.P,WP44,1*%
%TO.N,DIGITAL1*%
X139999900Y-98000000D03*
%TD*%
D20*
%TO.P,WP107,1*%
%TO.N,DIGITAL4*%
X172000100Y-120000000D03*
%TD*%
D13*
%TO.P,WP76,1*%
%TO.N,DIGITAL1*%
X139999900Y-117999900D03*
%TD*%
%TO.P,WP45,1*%
%TO.N,ANALOG0*%
X141999900Y-98000000D03*
%TD*%
D12*
%TO.P,WP126,1*%
%TO.N,SDA*%
X178000100Y-110000000D03*
%TD*%
D13*
%TO.P,WP134,1*%
%TO.N,DIGITAL0*%
X164000100Y-98000000D03*
%TD*%
D11*
%TO.P,WP34,1*%
%TO.N,ANALOG4*%
X149999900Y-98000000D03*
%TD*%
%TO.P,WP48,1*%
%TO.N,ANALOG5*%
X151999900Y-98000000D03*
%TD*%
D13*
%TO.P,WP94,1*%
%TO.N,ANALOG1*%
X170000200Y-88000000D03*
%TD*%
%TO.P,WP132,1*%
%TO.N,ANALOG0*%
X168000100Y-98000000D03*
%TD*%
%TO.P,WP18,1*%
%TO.N,ANALOG2*%
X145999900Y-88000000D03*
%TD*%
%TO.P,WP61,1*%
%TO.N,ANALOG0*%
X141999900Y-107999900D03*
%TD*%
D19*
%TO.P,WP120,1*%
%TO.N,+5V*%
X166000200Y-110000000D03*
%TD*%
D20*
%TO.P,WP101,1*%
%TO.N,DIGITAL1*%
X166000100Y-118000000D03*
%TD*%
D11*
%TO.P,WP55,1*%
%TO.N,DIGITAL3*%
X144000000Y-109999900D03*
%TD*%
D12*
%TO.P,WP29,1*%
%TO.N,SCL*%
X149999900Y-90000000D03*
%TD*%
D13*
%TO.P,WP113,1*%
%TO.N,ANALOG5*%
X178000100Y-108000000D03*
%TD*%
%TO.P,WP116,1*%
%TO.N,ANALOG0*%
X168000100Y-108000000D03*
%TD*%
D12*
%TO.P,WP23,1*%
%TO.N,GND*%
X137999900Y-90000000D03*
%TD*%
D17*
%TO.P,NONE,2*%
%TO.N,+5V*%
X121997900Y-89911300D03*
%TO.P,NONE,3*%
%TO.N,SDA*%
X121997900Y-100071300D03*
%TO.P,NONE,4*%
%TO.N,+5V*%
X124537900Y-89911300D03*
%TO.P,NONE,5*%
%TO.N,SCL*%
X124537900Y-100071300D03*
%TD*%
D13*
%TO.P,WP144,1*%
%TO.N,ANALOG3*%
X174000200Y-98000000D03*
%TD*%
D19*
%TO.P,WP73,1*%
%TO.N,+5V*%
X140000000Y-119999900D03*
%TD*%
D18*
%TO.P,WP35,1*%
%TO.N,SDA*%
X151999900Y-100000000D03*
%TD*%
D13*
%TO.P,WP70,1*%
%TO.N,DIGITAL4*%
X145999900Y-119999900D03*
%TD*%
%TO.P,WP75,1*%
%TO.N,DIGITAL0*%
X137999900Y-117999900D03*
%TD*%
D12*
%TO.P,WP124,1*%
%TO.N,RESET*%
X174000100Y-110000000D03*
%TD*%
D15*
%TO.P,WP123,1*%
%TO.N,DIGITAL4*%
X172000100Y-110000000D03*
%TD*%
D13*
%TO.P,WP32,1*%
%TO.N,ANALOG3*%
X147999900Y-88000000D03*
%TD*%
D12*
%TO.P,WP69,1*%
%TO.N,RESET*%
X147999900Y-119999900D03*
%TD*%
D13*
%TO.P,WP118,1*%
%TO.N,DIGITAL0*%
X164000100Y-108000000D03*
%TD*%
D24*
%TO.N,*%
X186469000Y-98500100D03*
X109609800Y-102500100D03*
%TO.N,ANALOG5*%
X153999900Y-100000000D03*
X153999900Y-109999900D03*
X180000100Y-119999900D03*
X153999900Y-119999900D03*
X180000100Y-100000000D03*
X180000100Y-109999900D03*
%TO.N,SCL*%
X154999900Y-121999900D03*
X156500000Y-121999900D03*
%TO.N,DIGITAL1*%
X141200100Y-83599900D03*
X136100000Y-83500100D03*
%TO.N,ANALOG3*%
X151999900Y-116500100D03*
X155999900Y-118999900D03*
X157000100Y-120999900D03*
D25*
%TO.N,GND*%
X158000100Y-84000000D03*
X133999900Y-81000000D03*
D24*
%TO.N,DIGITAL3*%
X144200100Y-87000000D03*
X148000200Y-86500100D03*
%TO.N,DIGITAL2*%
X142300100Y-85000000D03*
X135999900Y-88000000D03*
X137100000Y-85000000D03*
X146000200Y-85599900D03*
%TO.N,DIGITAL4*%
X147300100Y-85899900D03*
X143500000Y-86200100D03*
%TO.N,ANALOG4*%
X126999900Y-122999900D03*
X149999900Y-122999900D03*
X154000100Y-122999900D03*
%TO.N,ANALOG2*%
X151999900Y-114999900D03*
X155999900Y-117500100D03*
X147999900Y-115500100D03*
X158000100Y-118500000D03*
%TO.N,DIGITAL0*%
X141600100Y-84400000D03*
X136600100Y-84100100D03*
%TO.N,ANALOG0*%
X134999900Y-83500100D03*
X140300100Y-83000000D03*
D25*
%TO.N,+5V*%
X154500000Y-88000000D03*
X154500000Y-84000000D03*
%TD*%
%TO.N,ANALOG5*%
D26*
X178000000Y-117999900D02*
X180000000Y-119999900D01*
X177999900Y-97999900D02*
X180000000Y-99999900D01*
X151999900Y-117999900D02*
X153999900Y-119999900D01*
X151999800Y-97999900D02*
X153999900Y-99999900D01*
X178000000Y-107999900D02*
X180000000Y-109999900D01*
X151999900Y-107999900D02*
X153999900Y-109999900D01*
%TO.N,SCL*%
X156500000Y-121999900D02*
X155000000Y-121999900D01*
%TO.N,DIGITAL1*%
X140999300Y-97000100D02*
X140999300Y-88999100D01*
X166999400Y-107000400D02*
X166999400Y-117000400D01*
X137500600Y-83500100D02*
X135999400Y-83500100D01*
X165999900Y-107999900D02*
X166999400Y-107000400D01*
X166999400Y-97000100D02*
X166999400Y-88999100D01*
X140999300Y-107000400D02*
X140999300Y-97000100D01*
X139999800Y-107999900D02*
X140999300Y-107000400D01*
X167000100Y-87000300D02*
X162499700Y-82500000D01*
X139999900Y-86200100D02*
X139939000Y-86139200D01*
X140999300Y-117000400D02*
X139999800Y-117999900D01*
X136100000Y-83500000D02*
X135600000Y-84000000D01*
X140999300Y-107000400D02*
X140999300Y-117000400D01*
X166999400Y-107000400D02*
X166999400Y-97000100D01*
X135600000Y-84348500D02*
X131998900Y-87949600D01*
X162499700Y-82500000D02*
X142300000Y-82500000D01*
X166000000Y-85999900D02*
X166000000Y-88000000D01*
X167000100Y-88999200D02*
X167000100Y-87000300D01*
X166999400Y-117000400D02*
X165999900Y-117999900D01*
X140998100Y-87000200D02*
X137500600Y-83500100D01*
X165998600Y-98000900D02*
X166999400Y-97000100D01*
X142300000Y-82500000D02*
X141200100Y-83599900D01*
X139999900Y-88001000D02*
X139999900Y-86200100D01*
X139998500Y-98000900D02*
X140999300Y-97000100D01*
X140998100Y-88999200D02*
X140998100Y-87000200D01*
X135600000Y-84000000D02*
X135600000Y-84348500D01*
%TO.N,ANALOG3*%
X148999900Y-99000000D02*
X148999900Y-100025500D01*
X147999900Y-117999900D02*
X148999900Y-116999900D01*
X147999800Y-107999900D02*
X148999900Y-109000000D01*
X173999700Y-88000900D02*
X175000400Y-88999100D01*
X175000400Y-88999100D02*
X175000400Y-121000600D01*
X175000400Y-121000600D02*
X173999700Y-121998800D01*
X175000400Y-121000600D02*
X173999600Y-121998800D01*
X148999900Y-109000000D02*
X148999900Y-109999900D01*
X154500000Y-118999900D02*
X152000000Y-116500000D01*
X173999700Y-121998800D02*
X157999000Y-121998800D01*
X175000000Y-119399700D02*
X175000000Y-119000000D01*
X155999900Y-118999900D02*
X154500000Y-118999900D01*
X173999900Y-97999900D02*
X175000000Y-99000000D01*
X175000000Y-99000000D02*
X175000000Y-100025500D01*
X173999600Y-121998800D02*
X158498800Y-121998800D01*
X147999800Y-97999900D02*
X148999900Y-99000000D01*
X175000400Y-88999100D02*
X175000400Y-121000600D01*
X173999900Y-107999900D02*
X175000000Y-109000000D01*
X148999900Y-116999900D02*
X148999900Y-89000000D01*
X157999000Y-121998800D02*
X157000100Y-120999900D01*
X148999900Y-89000000D02*
X147999900Y-88000000D01*
X173999600Y-88000900D02*
X175000400Y-88999100D01*
X175000000Y-109000000D02*
X175000000Y-109999900D01*
X175000000Y-119000000D02*
X173999900Y-117999900D01*
%TO.N,DIGITAL3*%
X147500300Y-87000000D02*
X144200100Y-87000000D01*
X148000200Y-86500100D02*
X147500300Y-87000000D01*
%TO.N,DIGITAL2*%
X146000200Y-85600000D02*
X142900100Y-85600000D01*
X137100000Y-85000000D02*
X137100000Y-86900000D01*
X142900100Y-85600000D02*
X142300100Y-85000000D01*
X137100000Y-86900000D02*
X136000000Y-88000000D01*
%TO.N,SDA*%
X118961100Y-99458900D02*
X119570700Y-100071100D01*
X152000000Y-123116400D02*
X152000000Y-119999800D01*
X120998200Y-118999200D02*
X120998200Y-103502600D01*
X130619700Y-107078900D02*
X127703800Y-107078900D01*
X178000100Y-124000300D02*
X152000000Y-124000300D01*
X127703800Y-107078900D02*
X123375600Y-102750800D01*
X125999400Y-124000400D02*
X120998200Y-118999200D01*
X115379700Y-99458900D02*
X118961100Y-99458900D01*
X151998900Y-100000000D02*
X157000100Y-105001200D01*
X122697400Y-100071100D02*
X121998900Y-100071100D01*
X120998200Y-103502600D02*
X121998900Y-102501900D01*
X178000900Y-119999900D02*
X177980500Y-123116500D01*
X177980500Y-123116500D02*
X177096600Y-124000400D01*
X123375600Y-100749300D02*
X122697400Y-100071100D01*
X177999900Y-109999900D02*
X181000000Y-112999900D01*
X151998900Y-90000000D02*
X157000100Y-94998700D01*
X180999900Y-102999600D02*
X178000100Y-99999900D01*
X151998900Y-124000400D02*
X125999400Y-124000400D01*
X178000100Y-89999900D02*
X180999900Y-92999600D01*
X119570700Y-100071100D02*
X121998900Y-100071100D01*
X151998900Y-109999900D02*
X157000100Y-115001200D01*
X180999900Y-92999600D02*
X180999900Y-121000600D01*
X151116200Y-124000300D02*
X152000000Y-123116400D01*
X180999900Y-121000600D02*
X178000100Y-124000300D01*
X157000100Y-94998700D02*
X157000100Y-118999200D01*
X121998900Y-102501900D02*
X121998900Y-100071100D01*
X157000100Y-118999200D02*
X151998900Y-124000400D01*
X123375600Y-102750800D02*
X123375600Y-100749300D01*
%TO.N,DIGITAL4*%
X146999900Y-86200100D02*
X143500000Y-86200100D01*
X147300100Y-85899900D02*
X146999900Y-86200100D01*
%TO.N,ANALOG4*%
X149999900Y-122999900D02*
X126999900Y-122999900D01*
X176000000Y-122999900D02*
X154000000Y-122999900D01*
X149999800Y-117999900D02*
X150999900Y-119000000D01*
X177000000Y-119000000D02*
X177000000Y-109000000D01*
X177000000Y-99000000D02*
X175999900Y-97999900D01*
X177000000Y-109000000D02*
X175999900Y-107999900D01*
X177000000Y-89000000D02*
X177000000Y-100557700D01*
X177000000Y-109000000D02*
X177000000Y-99000000D01*
X150999900Y-119000000D02*
X150999900Y-121999900D01*
X150999900Y-121999900D02*
X149999900Y-122999900D01*
X150999900Y-89000000D02*
X150999900Y-100557600D01*
X150999900Y-99000000D02*
X149999800Y-97999900D01*
X150999900Y-119000000D02*
X150999900Y-109000000D01*
X175999900Y-88000000D02*
X177000000Y-89000000D01*
X177000000Y-119000000D02*
X177000000Y-121999900D01*
X150999900Y-109000000D02*
X149999800Y-107999900D01*
X149999800Y-88000000D02*
X150999900Y-89000000D01*
X177000000Y-121999900D02*
X176000000Y-122999900D01*
X175999900Y-117999900D02*
X177000000Y-119000000D01*
X177000000Y-121999900D02*
X176000000Y-122999900D01*
X150999900Y-109000000D02*
X150999900Y-99000000D01*
%TO.N,ANALOG2*%
X173000000Y-89000000D02*
X171999900Y-88000000D01*
X172998900Y-118999100D02*
X172998900Y-120492600D01*
X171999900Y-97999900D02*
X173000000Y-98999900D01*
X154500000Y-117500000D02*
X152000000Y-115000000D01*
X145999800Y-107999900D02*
X146999900Y-108999900D01*
X173000000Y-98999900D02*
X173000000Y-99999900D01*
X171999900Y-117999900D02*
X173000000Y-118999900D01*
X172998900Y-120492600D02*
X172308000Y-121183400D01*
X172998900Y-120492600D02*
X172308000Y-121183400D01*
X173000000Y-108999900D02*
X173000000Y-110099800D01*
X156000000Y-117500000D02*
X154500000Y-117500000D01*
X145999900Y-117999900D02*
X146249900Y-117999900D01*
X146999900Y-98999900D02*
X146999900Y-99999900D01*
X145999800Y-97999900D02*
X146999900Y-98999900D01*
X172998900Y-118999100D02*
X172998900Y-120492600D01*
X171999900Y-107999900D02*
X173000000Y-108999900D01*
X146999900Y-108999900D02*
X146999900Y-110099800D01*
X160683400Y-121183400D02*
X158000000Y-118500000D01*
X173000000Y-118999900D02*
X173000000Y-89000000D01*
X148000900Y-115499000D02*
X147000200Y-116494700D01*
X172308000Y-121183400D02*
X160683400Y-121183400D01*
X146999900Y-89000000D02*
X145999900Y-88000000D01*
X146249900Y-117999900D02*
X146999900Y-117249900D01*
X146999900Y-117249900D02*
X146999900Y-89000000D01*
%TO.N,DIGITAL0*%
X165000400Y-87000200D02*
X161200200Y-83200000D01*
X164000400Y-88001000D02*
X164000400Y-85999500D01*
X161200200Y-83200000D02*
X142800200Y-83200000D01*
X163999900Y-97999900D02*
X165000000Y-96999900D01*
X137374900Y-84250000D02*
X136750100Y-84250000D01*
X163999600Y-118000900D02*
X165000400Y-117000100D01*
X138999900Y-116999900D02*
X137999900Y-117999900D01*
X138999900Y-89000000D02*
X138999900Y-116999900D01*
X165000400Y-117000100D02*
X165000400Y-87000200D01*
X136750100Y-84250000D02*
X136600100Y-84100100D01*
X137999900Y-88000000D02*
X137999900Y-84875000D01*
X137999900Y-84875000D02*
X137374900Y-84250000D01*
X163999900Y-107999900D02*
X165000000Y-106999900D01*
X163999600Y-118000800D02*
X165000400Y-117000100D01*
X137999900Y-88000000D02*
X138999900Y-89000000D01*
X137999800Y-97999900D02*
X138999900Y-96999900D01*
X142800200Y-83200000D02*
X141600100Y-84400000D01*
X137999800Y-107999900D02*
X138999900Y-106999900D01*
X165000400Y-87000200D02*
X163999600Y-85999400D01*
X165000400Y-117000100D02*
X165000400Y-87000200D01*
%TO.N,ANALOG0*%
X169000900Y-97000100D02*
X169000900Y-88999100D01*
X141998900Y-88001000D02*
X141998900Y-86837700D01*
X169000900Y-107000100D02*
X169000900Y-91739800D01*
X142000000Y-108000900D02*
X143000800Y-107000100D01*
X169000900Y-117000100D02*
X168000100Y-118000900D01*
X142000000Y-98000900D02*
X143000800Y-97000100D01*
X135600600Y-82900700D02*
X134998700Y-83500100D01*
X168001100Y-86836900D02*
X163064200Y-81900000D01*
X143000800Y-107000100D02*
X143000800Y-91739800D01*
X168000100Y-108000900D02*
X169000900Y-107000100D01*
X168000100Y-98000900D02*
X169000900Y-97000100D01*
X143000800Y-97000100D02*
X143000800Y-88999100D01*
X163064200Y-81900000D02*
X141400200Y-81900000D01*
X143000800Y-100718700D02*
X143000800Y-117000100D01*
X141998900Y-86837700D02*
X138061900Y-82900700D01*
X143000800Y-88999100D02*
X142000000Y-88000900D01*
X169000900Y-100718700D02*
X169000900Y-117000100D01*
X143000800Y-117000100D02*
X142000000Y-118000900D01*
X168001100Y-88000300D02*
X168001100Y-86836900D01*
X168001100Y-88000300D02*
X168001100Y-86836900D01*
X141400200Y-81900000D02*
X140300100Y-83000000D01*
X138061900Y-82900700D02*
X135600600Y-82900700D01*
X168001100Y-86836900D02*
X165164000Y-83999800D01*
X169000900Y-88999100D02*
X168000100Y-88000900D01*
%TO.N,ANALOG1*%
X163573700Y-81300500D02*
X140193000Y-81300500D01*
X170999900Y-107000100D02*
X170999900Y-91427400D01*
X169999100Y-98000900D02*
X170999900Y-97000100D01*
X139374900Y-82126800D02*
X140201200Y-81300500D01*
X170999900Y-117000100D02*
X169999100Y-118000900D01*
X169997300Y-88001000D02*
X169997300Y-87724100D01*
X143999000Y-98000900D02*
X144999800Y-97000100D01*
X170999900Y-100647600D02*
X170999900Y-117000100D01*
X170999900Y-88999100D02*
X169999100Y-88000900D01*
X143999000Y-108000900D02*
X144999800Y-107000100D01*
X144999800Y-117000100D02*
X143999000Y-118000900D01*
X144999800Y-97000100D02*
X144999800Y-88999100D01*
X144999800Y-88999100D02*
X143999000Y-88000900D01*
X169999100Y-108000900D02*
X170999900Y-107000100D01*
X144999800Y-107000100D02*
X144999800Y-91427400D01*
X143999900Y-88000000D02*
X139374900Y-83375000D01*
X144999800Y-100647600D02*
X144999800Y-117000100D01*
X169997300Y-87724100D02*
X163573700Y-81300500D01*
X139374900Y-83375000D02*
X139374900Y-82126800D01*
X170999900Y-97000100D02*
X170999900Y-88999100D01*
%TO.N,+5V*%
D27*
X154500000Y-84000000D02*
X154500000Y-88000000D01*
%TD*%
%TA.AperFunction,Conductor*%
%TO.N,GND*%
G36*
X190933821Y-80520402D02*
G01*
X190980314Y-80574058D01*
X190991700Y-80626400D01*
X190991700Y-101377472D01*
X190971698Y-101445593D01*
X190918042Y-101492086D01*
X190847768Y-101502190D01*
X190783188Y-101472696D01*
X190744804Y-101412970D01*
X190743993Y-101410083D01*
X190682692Y-101181302D01*
X190682687Y-101181287D01*
X190682686Y-101181283D01*
X190581943Y-100904499D01*
X190551834Y-100821775D01*
X190421801Y-100542919D01*
X190390143Y-100475027D01*
X190390133Y-100475009D01*
X190198847Y-100143690D01*
X190198838Y-100143676D01*
X190084326Y-99980137D01*
X189979389Y-99830271D01*
X189979384Y-99830265D01*
X189979383Y-99830262D01*
X189733458Y-99537181D01*
X189462918Y-99266641D01*
X189169837Y-99020716D01*
X189169834Y-99020715D01*
X189169832Y-99020714D01*
X189169829Y-99020711D01*
X188894834Y-98828157D01*
X188856423Y-98801261D01*
X188856409Y-98801252D01*
X188525090Y-98609966D01*
X188525072Y-98609956D01*
X188178323Y-98448265D01*
X187818806Y-98317410D01*
X187665391Y-98276303D01*
X187449234Y-98218384D01*
X187072445Y-98151946D01*
X187072441Y-98151945D01*
X187072432Y-98151944D01*
X186942098Y-98140541D01*
X186875980Y-98114678D01*
X186863992Y-98104123D01*
X186812418Y-98052549D01*
X186812415Y-98052547D01*
X186812414Y-98052546D01*
X186684882Y-97978916D01*
X186542633Y-97940800D01*
X186395367Y-97940800D01*
X186300534Y-97966210D01*
X186253117Y-97978916D01*
X186125584Y-98052547D01*
X186068066Y-98110063D01*
X186005753Y-98144086D01*
X185989957Y-98146485D01*
X185927566Y-98151944D01*
X185927555Y-98151946D01*
X185550766Y-98218384D01*
X185431469Y-98250349D01*
X185181193Y-98317410D01*
X184821676Y-98448265D01*
X184474927Y-98609956D01*
X184474909Y-98609966D01*
X184143590Y-98801252D01*
X184143576Y-98801261D01*
X183830165Y-99020715D01*
X183830162Y-99020716D01*
X183537081Y-99266641D01*
X183537072Y-99266651D01*
X183266551Y-99537172D01*
X183266541Y-99537181D01*
X183020616Y-99830262D01*
X183020615Y-99830265D01*
X182801161Y-100143676D01*
X182801152Y-100143690D01*
X182609866Y-100475009D01*
X182609856Y-100475027D01*
X182448165Y-100821776D01*
X182317314Y-101181283D01*
X182317312Y-101181287D01*
X182317308Y-101181302D01*
X182218284Y-101550866D01*
X182151846Y-101927655D01*
X182118500Y-102308800D01*
X182118500Y-102322549D01*
X182118500Y-102691400D01*
X182151846Y-103072545D01*
X182218284Y-103449334D01*
X182265010Y-103623717D01*
X182317310Y-103818906D01*
X182448165Y-104178423D01*
X182609856Y-104525172D01*
X182609866Y-104525190D01*
X182801152Y-104856509D01*
X182801161Y-104856523D01*
X182898865Y-104996059D01*
X183013361Y-105159575D01*
X183020615Y-105169934D01*
X183020616Y-105169937D01*
X183266541Y-105463018D01*
X183537081Y-105733558D01*
X183830162Y-105979483D01*
X183830165Y-105979484D01*
X183830171Y-105979489D01*
X184051571Y-106134515D01*
X184143576Y-106198938D01*
X184143590Y-106198947D01*
X184306385Y-106292936D01*
X184474921Y-106390240D01*
X184474924Y-106390241D01*
X184474927Y-106390243D01*
X184564499Y-106432011D01*
X184821675Y-106551934D01*
X185026223Y-106626383D01*
X185181193Y-106682789D01*
X185181195Y-106682789D01*
X185181202Y-106682792D01*
X185550766Y-106781816D01*
X185927555Y-106848254D01*
X186308700Y-106881600D01*
X186308707Y-106881600D01*
X186691293Y-106881600D01*
X186691300Y-106881600D01*
X187072445Y-106848254D01*
X187449234Y-106781816D01*
X187818798Y-106682792D01*
X188178325Y-106551934D01*
X188525079Y-106390240D01*
X188856421Y-106198940D01*
X189169829Y-105979489D01*
X189169835Y-105979483D01*
X189169837Y-105979483D01*
X189462918Y-105733558D01*
X189462928Y-105733549D01*
X189733449Y-105463028D01*
X189733458Y-105463018D01*
X189979383Y-105169937D01*
X189979383Y-105169935D01*
X189979389Y-105169929D01*
X190198840Y-104856521D01*
X190390140Y-104525179D01*
X190551834Y-104178425D01*
X190682692Y-103818898D01*
X190743994Y-103590113D01*
X190780945Y-103529493D01*
X190844805Y-103498472D01*
X190915300Y-103506900D01*
X190970047Y-103552103D01*
X190991664Y-103619728D01*
X190991700Y-103622727D01*
X190991700Y-124373400D01*
X190971698Y-124441521D01*
X190918042Y-124488014D01*
X190865700Y-124499400D01*
X178344699Y-124499413D01*
X178276578Y-124479411D01*
X178230085Y-124425755D01*
X178219981Y-124355481D01*
X178249474Y-124290901D01*
X178255609Y-124284313D01*
X178264448Y-124275474D01*
X178946176Y-123593768D01*
X181222032Y-121317986D01*
X181222044Y-121317978D01*
X181234145Y-121305876D01*
X181234147Y-121305876D01*
X181275065Y-121264957D01*
X181296368Y-121243655D01*
X181298736Y-121241714D01*
X181303775Y-121236340D01*
X181305185Y-121234883D01*
X181306196Y-121233192D01*
X181310355Y-121226464D01*
X181311550Y-121223806D01*
X181333124Y-121186438D01*
X181333130Y-121186428D01*
X181355399Y-121147859D01*
X181355399Y-121147858D01*
X181355399Y-121147855D01*
X181355401Y-121147854D01*
X181366575Y-121106149D01*
X181380431Y-121054442D01*
X181381342Y-121051409D01*
X181381400Y-121051019D01*
X181381400Y-120978057D01*
X181381401Y-120950381D01*
X181381400Y-120950377D01*
X181381400Y-113059159D01*
X181381500Y-113057622D01*
X181381499Y-113050121D01*
X181381501Y-113050118D01*
X181381499Y-112949668D01*
X181381499Y-112942178D01*
X181381400Y-112940666D01*
X181381400Y-103049822D01*
X181381401Y-103049819D01*
X181381400Y-102977436D01*
X181381400Y-93049822D01*
X181381401Y-93049819D01*
X181381400Y-92999593D01*
X181381400Y-92949375D01*
X181381400Y-92949371D01*
X181366575Y-92894051D01*
X181366574Y-92894046D01*
X181355284Y-92851910D01*
X181353379Y-92848843D01*
X181333130Y-92813771D01*
X181307045Y-92768591D01*
X181305542Y-92765798D01*
X181305310Y-92765485D01*
X181275066Y-92735243D01*
X181275065Y-92735242D01*
X181234147Y-92694324D01*
X181234146Y-92694323D01*
X181226973Y-92687150D01*
X181226961Y-92687140D01*
X179955454Y-91415675D01*
X178941505Y-90401759D01*
X178907479Y-90339447D01*
X178904599Y-90312662D01*
X178904599Y-89324936D01*
X178904598Y-89324927D01*
X178889834Y-89250699D01*
X178869567Y-89220368D01*
X178833584Y-89166516D01*
X178833583Y-89166515D01*
X178749402Y-89110266D01*
X178675169Y-89095500D01*
X178675167Y-89095500D01*
X177507500Y-89095500D01*
X177439379Y-89075498D01*
X177392886Y-89021842D01*
X177381500Y-88969500D01*
X177381500Y-88949765D01*
X177381498Y-88949756D01*
X177371678Y-88913116D01*
X177373364Y-88842141D01*
X177413154Y-88783343D01*
X177478417Y-88755391D01*
X177493366Y-88754499D01*
X178525166Y-88754499D01*
X178525169Y-88754498D01*
X178525173Y-88754498D01*
X178574426Y-88744701D01*
X178599401Y-88739734D01*
X178683584Y-88683484D01*
X178739834Y-88599301D01*
X178754600Y-88525067D01*
X178754599Y-87474934D01*
X178754598Y-87474927D01*
X178754598Y-87474926D01*
X178739834Y-87400699D01*
X178683583Y-87316515D01*
X178599402Y-87260266D01*
X178525167Y-87245500D01*
X177475036Y-87245500D01*
X177475026Y-87245501D01*
X177400799Y-87260265D01*
X177316615Y-87316516D01*
X177260366Y-87400697D01*
X177245600Y-87474930D01*
X177245600Y-88401911D01*
X177225598Y-88470032D01*
X177171942Y-88516525D01*
X177101668Y-88526629D01*
X177037088Y-88497135D01*
X177030517Y-88491019D01*
X176862046Y-88322564D01*
X176791508Y-88252033D01*
X176757480Y-88189722D01*
X176754599Y-88162933D01*
X176754599Y-87474936D01*
X176754598Y-87474927D01*
X176739834Y-87400699D01*
X176683583Y-87316515D01*
X176599402Y-87260266D01*
X176525167Y-87245500D01*
X175475036Y-87245500D01*
X175475026Y-87245501D01*
X175400799Y-87260265D01*
X175316615Y-87316516D01*
X175260366Y-87400697D01*
X175245600Y-87474930D01*
X175245600Y-88401185D01*
X175225598Y-88469306D01*
X175171942Y-88515799D01*
X175101668Y-88525903D01*
X175037088Y-88496409D01*
X175030616Y-88490392D01*
X174791615Y-88251987D01*
X174757512Y-88189717D01*
X174754599Y-88162780D01*
X174754599Y-87474936D01*
X174754598Y-87474927D01*
X174739834Y-87400699D01*
X174683583Y-87316515D01*
X174599402Y-87260266D01*
X174525167Y-87245500D01*
X173475036Y-87245500D01*
X173475026Y-87245501D01*
X173400799Y-87260265D01*
X173316615Y-87316516D01*
X173260366Y-87400697D01*
X173245600Y-87474930D01*
X173245600Y-88401911D01*
X173225598Y-88470032D01*
X173171942Y-88516525D01*
X173101668Y-88526629D01*
X173037088Y-88497135D01*
X173030517Y-88491019D01*
X172862046Y-88322564D01*
X172791508Y-88252033D01*
X172757480Y-88189722D01*
X172754599Y-88162933D01*
X172754599Y-87474936D01*
X172754598Y-87474927D01*
X172739834Y-87400699D01*
X172683583Y-87316515D01*
X172599402Y-87260266D01*
X172525167Y-87245500D01*
X171475036Y-87245500D01*
X171475026Y-87245501D01*
X171400799Y-87260265D01*
X171316615Y-87316516D01*
X171260366Y-87400697D01*
X171245600Y-87474930D01*
X171245600Y-88401709D01*
X171225598Y-88469830D01*
X171171942Y-88516323D01*
X171101668Y-88526427D01*
X171037088Y-88496933D01*
X171030646Y-88490945D01*
X170791718Y-88252637D01*
X170757613Y-88190370D01*
X170754699Y-88163427D01*
X170754699Y-87474936D01*
X170754698Y-87474927D01*
X170739934Y-87400699D01*
X170683683Y-87316515D01*
X170599502Y-87260266D01*
X170525269Y-87245500D01*
X170525267Y-87245500D01*
X170110413Y-87245500D01*
X170042292Y-87225498D01*
X170021318Y-87208595D01*
X163807953Y-80995229D01*
X163807943Y-80995221D01*
X163720958Y-80945000D01*
X163709492Y-80941927D01*
X163623925Y-80919000D01*
X163623923Y-80919000D01*
X140259159Y-80919000D01*
X140259143Y-80918999D01*
X140251425Y-80918999D01*
X140150975Y-80918999D01*
X140143257Y-80918999D01*
X140143241Y-80919000D01*
X140142775Y-80919000D01*
X140083390Y-80934912D01*
X140045741Y-80945000D01*
X139958756Y-80995221D01*
X139958746Y-80995229D01*
X139887727Y-81066248D01*
X139887719Y-81066258D01*
X139884812Y-81071294D01*
X139864794Y-81097381D01*
X139140653Y-81821524D01*
X139140652Y-81821524D01*
X139069629Y-81892546D01*
X139069621Y-81892556D01*
X139019400Y-81979541D01*
X138993400Y-82076576D01*
X138993400Y-82988486D01*
X138973398Y-83056607D01*
X138919742Y-83103100D01*
X138849468Y-83113204D01*
X138784888Y-83083710D01*
X138778305Y-83077581D01*
X138296155Y-82595431D01*
X138296151Y-82595428D01*
X138296147Y-82595424D01*
X138292122Y-82593100D01*
X138209154Y-82545199D01*
X138112125Y-82519200D01*
X138112123Y-82519200D01*
X135601154Y-82519200D01*
X135551169Y-82519096D01*
X135551168Y-82519096D01*
X135551159Y-82519096D01*
X135551039Y-82519112D01*
X135550812Y-82519142D01*
X135550380Y-82519198D01*
X135502348Y-82532067D01*
X135502100Y-82532134D01*
X135454069Y-82544897D01*
X135453934Y-82544954D01*
X135453553Y-82545112D01*
X135453355Y-82545193D01*
X135409992Y-82570227D01*
X135409775Y-82570352D01*
X135366989Y-82594938D01*
X135366988Y-82594938D01*
X135366967Y-82594951D01*
X135366619Y-82595219D01*
X135366358Y-82595417D01*
X135331076Y-82630700D01*
X135330892Y-82630884D01*
X135056556Y-82904081D01*
X134994173Y-82937976D01*
X134967646Y-82940800D01*
X134926267Y-82940800D01*
X134841674Y-82963467D01*
X134784017Y-82978916D01*
X134656485Y-83052546D01*
X134656475Y-83052554D01*
X134552354Y-83156675D01*
X134552346Y-83156685D01*
X134478716Y-83284217D01*
X134440600Y-83426468D01*
X134440600Y-83573731D01*
X134440599Y-83573731D01*
X134478716Y-83715982D01*
X134552346Y-83843514D01*
X134552354Y-83843524D01*
X134656475Y-83947645D01*
X134656480Y-83947649D01*
X134656482Y-83947651D01*
X134784018Y-84021284D01*
X134926267Y-84059400D01*
X134926269Y-84059400D01*
X135045387Y-84059400D01*
X135113508Y-84079402D01*
X135160001Y-84133058D01*
X135170105Y-84203332D01*
X135140611Y-84267912D01*
X135134482Y-84274495D01*
X131693630Y-87715345D01*
X131693623Y-87715355D01*
X131643399Y-87802345D01*
X131643398Y-87802348D01*
X131617400Y-87899371D01*
X131617400Y-87999828D01*
X131643398Y-88096851D01*
X131643399Y-88096854D01*
X131662799Y-88130456D01*
X131693624Y-88183847D01*
X131693627Y-88183850D01*
X131693630Y-88183854D01*
X131764645Y-88254869D01*
X131764648Y-88254871D01*
X131764653Y-88254876D01*
X131851647Y-88305101D01*
X131948675Y-88331100D01*
X132049125Y-88331100D01*
X132146153Y-88305101D01*
X132233147Y-88254876D01*
X135823873Y-84664147D01*
X135823882Y-84664141D01*
X135905270Y-84582753D01*
X135905276Y-84582747D01*
X135955501Y-84495754D01*
X135955503Y-84495744D01*
X135956342Y-84493720D01*
X135957521Y-84492256D01*
X135959631Y-84488602D01*
X135960200Y-84488930D01*
X136000882Y-84438432D01*
X136068241Y-84416000D01*
X136137036Y-84433547D01*
X136161854Y-84452824D01*
X136256675Y-84547645D01*
X136256680Y-84547649D01*
X136256682Y-84547651D01*
X136384218Y-84621284D01*
X136484784Y-84648231D01*
X136545404Y-84685180D01*
X136576425Y-84749041D01*
X136573877Y-84802546D01*
X136540700Y-84926366D01*
X136540700Y-85073631D01*
X136540699Y-85073631D01*
X136578816Y-85215882D01*
X136652446Y-85343414D01*
X136652448Y-85343417D01*
X136652449Y-85343418D01*
X136681595Y-85372564D01*
X136715620Y-85434874D01*
X136718500Y-85461659D01*
X136718500Y-86689787D01*
X136698498Y-86757908D01*
X136681595Y-86778882D01*
X136056682Y-87403795D01*
X135994370Y-87437821D01*
X135967587Y-87440700D01*
X135926267Y-87440700D01*
X135831434Y-87466110D01*
X135784017Y-87478816D01*
X135656485Y-87552446D01*
X135656475Y-87552454D01*
X135552354Y-87656575D01*
X135552346Y-87656585D01*
X135478716Y-87784117D01*
X135440600Y-87926368D01*
X135440600Y-88073631D01*
X135440599Y-88073631D01*
X135478716Y-88215882D01*
X135552346Y-88343414D01*
X135552354Y-88343424D01*
X135656475Y-88447545D01*
X135656480Y-88447549D01*
X135656482Y-88447551D01*
X135784018Y-88521184D01*
X135926267Y-88559300D01*
X135926269Y-88559300D01*
X136073531Y-88559300D01*
X136073533Y-88559300D01*
X136215782Y-88521184D01*
X136343318Y-88447551D01*
X136447451Y-88343418D01*
X136521084Y-88215882D01*
X136559200Y-88073633D01*
X136559200Y-88032513D01*
X136579202Y-87964392D01*
X136596105Y-87943418D01*
X137030455Y-87509068D01*
X137092767Y-87475042D01*
X137163582Y-87480107D01*
X137220418Y-87522654D01*
X137245229Y-87589174D01*
X137245550Y-87598163D01*
X137245550Y-88525063D01*
X137245551Y-88525073D01*
X137260315Y-88599300D01*
X137316566Y-88683484D01*
X137400747Y-88739733D01*
X137400749Y-88739734D01*
X137474983Y-88754500D01*
X138162685Y-88754499D01*
X138230806Y-88774501D01*
X138251780Y-88791403D01*
X138581495Y-89121117D01*
X138615520Y-89183430D01*
X138618400Y-89210213D01*
X138618400Y-96789671D01*
X138598398Y-96857792D01*
X138581491Y-96878771D01*
X138251628Y-97208600D01*
X138189314Y-97242622D01*
X138162537Y-97245500D01*
X137474836Y-97245500D01*
X137474826Y-97245501D01*
X137400599Y-97260265D01*
X137316415Y-97316516D01*
X137260166Y-97400697D01*
X137245400Y-97474930D01*
X137245400Y-98525063D01*
X137245401Y-98525073D01*
X137260165Y-98599300D01*
X137316416Y-98683484D01*
X137400597Y-98739733D01*
X137400599Y-98739734D01*
X137474833Y-98754500D01*
X138492400Y-98754499D01*
X138560521Y-98774501D01*
X138607014Y-98828157D01*
X138618400Y-98880499D01*
X138618400Y-106789671D01*
X138598398Y-106857792D01*
X138581491Y-106878771D01*
X138251728Y-107208500D01*
X138189414Y-107242522D01*
X138162637Y-107245400D01*
X137474836Y-107245400D01*
X137474826Y-107245401D01*
X137400599Y-107260165D01*
X137316415Y-107316416D01*
X137260166Y-107400597D01*
X137245400Y-107474830D01*
X137245400Y-108524963D01*
X137245401Y-108524973D01*
X137260165Y-108599200D01*
X137316416Y-108683384D01*
X137400597Y-108739633D01*
X137400599Y-108739634D01*
X137474833Y-108754400D01*
X138492400Y-108754399D01*
X138560521Y-108774401D01*
X138607014Y-108828057D01*
X138618400Y-108880399D01*
X138618400Y-116789687D01*
X138598398Y-116857808D01*
X138581499Y-116878777D01*
X138410152Y-117050125D01*
X138251781Y-117208496D01*
X138189469Y-117242521D01*
X138162686Y-117245400D01*
X137474836Y-117245400D01*
X137474826Y-117245401D01*
X137400599Y-117260165D01*
X137316415Y-117316416D01*
X137260166Y-117400597D01*
X137245400Y-117474830D01*
X137245400Y-118524963D01*
X137245401Y-118524973D01*
X137260165Y-118599200D01*
X137316416Y-118683384D01*
X137400597Y-118739633D01*
X137400599Y-118739634D01*
X137474833Y-118754400D01*
X138524966Y-118754399D01*
X138524969Y-118754398D01*
X138524973Y-118754398D01*
X138574226Y-118744601D01*
X138599201Y-118739634D01*
X138683384Y-118683384D01*
X138739634Y-118599201D01*
X138754400Y-118524967D01*
X138754399Y-117837112D01*
X138774401Y-117768992D01*
X138791304Y-117748018D01*
X139030305Y-117509017D01*
X139092617Y-117474991D01*
X139163432Y-117480056D01*
X139220268Y-117522603D01*
X139245079Y-117589123D01*
X139245400Y-117598112D01*
X139245400Y-118524963D01*
X139245401Y-118524973D01*
X139260165Y-118599200D01*
X139316416Y-118683384D01*
X139400597Y-118739633D01*
X139400599Y-118739634D01*
X139474833Y-118754400D01*
X140524966Y-118754399D01*
X140524969Y-118754398D01*
X140524973Y-118754398D01*
X140574226Y-118744601D01*
X140599201Y-118739634D01*
X140683384Y-118683384D01*
X140739634Y-118599201D01*
X140754400Y-118524967D01*
X140754399Y-117837012D01*
X140774401Y-117768892D01*
X140791304Y-117747918D01*
X141030305Y-117508917D01*
X141092617Y-117474891D01*
X141163432Y-117479956D01*
X141220268Y-117522503D01*
X141245079Y-117589023D01*
X141245400Y-117598012D01*
X141245400Y-118524963D01*
X141245401Y-118524973D01*
X141260165Y-118599200D01*
X141316416Y-118683384D01*
X141400597Y-118739633D01*
X141400599Y-118739634D01*
X141474833Y-118754400D01*
X142524966Y-118754399D01*
X142524969Y-118754398D01*
X142524973Y-118754398D01*
X142574226Y-118744601D01*
X142599201Y-118739634D01*
X142683384Y-118683384D01*
X142739634Y-118599201D01*
X142754400Y-118524967D01*
X142754399Y-117838212D01*
X142774401Y-117770092D01*
X142791299Y-117749122D01*
X143030306Y-117510116D01*
X143092617Y-117476092D01*
X143163433Y-117481157D01*
X143220268Y-117523704D01*
X143245079Y-117590225D01*
X143245400Y-117599213D01*
X143245400Y-118524963D01*
X143245401Y-118524973D01*
X143260165Y-118599200D01*
X143316416Y-118683384D01*
X143400597Y-118739633D01*
X143400599Y-118739634D01*
X143474833Y-118754400D01*
X144524966Y-118754399D01*
X144524969Y-118754398D01*
X144524973Y-118754398D01*
X144574226Y-118744601D01*
X144599201Y-118739634D01*
X144683384Y-118683384D01*
X144739634Y-118599201D01*
X144754400Y-118524967D01*
X144754399Y-117837212D01*
X144774401Y-117769092D01*
X144791299Y-117748122D01*
X145030456Y-117508966D01*
X145092767Y-117474942D01*
X145163583Y-117480007D01*
X145220418Y-117522554D01*
X145245229Y-117589075D01*
X145245550Y-117598063D01*
X145245550Y-118524963D01*
X145245551Y-118524973D01*
X145260315Y-118599200D01*
X145316566Y-118683384D01*
X145400747Y-118739633D01*
X145400749Y-118739634D01*
X145474983Y-118754400D01*
X146525016Y-118754399D01*
X146525019Y-118754398D01*
X146525023Y-118754398D01*
X146574276Y-118744601D01*
X146599251Y-118739634D01*
X146683434Y-118683384D01*
X146739684Y-118599201D01*
X146754450Y-118524967D01*
X146754449Y-118087061D01*
X146774451Y-118018941D01*
X146791349Y-117997972D01*
X147030457Y-117758864D01*
X147092767Y-117724840D01*
X147163582Y-117729905D01*
X147220418Y-117772452D01*
X147245229Y-117838972D01*
X147245550Y-117847961D01*
X147245550Y-118524963D01*
X147245551Y-118524973D01*
X147260315Y-118599200D01*
X147316566Y-118683384D01*
X147400747Y-118739633D01*
X147400749Y-118739634D01*
X147474983Y-118754400D01*
X148525016Y-118754399D01*
X148525019Y-118754398D01*
X148525023Y-118754398D01*
X148574276Y-118744601D01*
X148599251Y-118739634D01*
X148683434Y-118683384D01*
X148739684Y-118599201D01*
X148754450Y-118524967D01*
X148754449Y-117837062D01*
X148774451Y-117768942D01*
X148791354Y-117747968D01*
X149030355Y-117508967D01*
X149092667Y-117474941D01*
X149163482Y-117480006D01*
X149220318Y-117522553D01*
X149245129Y-117589073D01*
X149245450Y-117598062D01*
X149245450Y-118524963D01*
X149245451Y-118524973D01*
X149260215Y-118599200D01*
X149316466Y-118683384D01*
X149400647Y-118739633D01*
X149400649Y-118739634D01*
X149474883Y-118754400D01*
X150162586Y-118754399D01*
X150230707Y-118774401D01*
X150251681Y-118791304D01*
X150340682Y-118880305D01*
X150374708Y-118942617D01*
X150369643Y-119013432D01*
X150327096Y-119070268D01*
X150260576Y-119095079D01*
X150251587Y-119095400D01*
X149324836Y-119095400D01*
X149324826Y-119095401D01*
X149250599Y-119110165D01*
X149166415Y-119166416D01*
X149104663Y-119258832D01*
X149050185Y-119304359D01*
X148979742Y-119313206D01*
X148915699Y-119282564D01*
X148895134Y-119258831D01*
X148889634Y-119250600D01*
X148889634Y-119250599D01*
X148833384Y-119166416D01*
X148829134Y-119163576D01*
X148749202Y-119110166D01*
X148674967Y-119095400D01*
X147324836Y-119095400D01*
X147324826Y-119095401D01*
X147250599Y-119110165D01*
X147166415Y-119166416D01*
X147110166Y-119250597D01*
X147095400Y-119324830D01*
X147095400Y-120674963D01*
X147095401Y-120674973D01*
X147110165Y-120749200D01*
X147166416Y-120833384D01*
X147250597Y-120889633D01*
X147250599Y-120889634D01*
X147324833Y-120904400D01*
X148674966Y-120904399D01*
X148674969Y-120904398D01*
X148674973Y-120904398D01*
X148724226Y-120894601D01*
X148749201Y-120889634D01*
X148833384Y-120833384D01*
X148889634Y-120749201D01*
X148889634Y-120749200D01*
X148895135Y-120740968D01*
X148949612Y-120695440D01*
X149020055Y-120686593D01*
X149084099Y-120717234D01*
X149104665Y-120740968D01*
X149166416Y-120833384D01*
X149250597Y-120889633D01*
X149250599Y-120889634D01*
X149324833Y-120904400D01*
X150492400Y-120904399D01*
X150560521Y-120924401D01*
X150607014Y-120978057D01*
X150618400Y-121030399D01*
X150618400Y-121789687D01*
X150598398Y-121857808D01*
X150581495Y-121878782D01*
X150056582Y-122403695D01*
X149994270Y-122437721D01*
X149967487Y-122440600D01*
X149926267Y-122440600D01*
X149831434Y-122466010D01*
X149784017Y-122478716D01*
X149656485Y-122552346D01*
X149656475Y-122552354D01*
X149627335Y-122581495D01*
X149565023Y-122615521D01*
X149538240Y-122618400D01*
X127461560Y-122618400D01*
X127393439Y-122598398D01*
X127372465Y-122581495D01*
X127343324Y-122552354D01*
X127343314Y-122552346D01*
X127215782Y-122478716D01*
X127199928Y-122474468D01*
X127073533Y-122440600D01*
X126926267Y-122440600D01*
X126831434Y-122466010D01*
X126784017Y-122478716D01*
X126656485Y-122552346D01*
X126656475Y-122552354D01*
X126552354Y-122656475D01*
X126552346Y-122656485D01*
X126478716Y-122784017D01*
X126478716Y-122784018D01*
X126443431Y-122915704D01*
X126440600Y-122926268D01*
X126440600Y-123073531D01*
X126440599Y-123073531D01*
X126478716Y-123215782D01*
X126552346Y-123343314D01*
X126552354Y-123343324D01*
X126612835Y-123403805D01*
X126646861Y-123466117D01*
X126641796Y-123536932D01*
X126599249Y-123593768D01*
X126532729Y-123618579D01*
X126523740Y-123618900D01*
X126209613Y-123618900D01*
X126141492Y-123598898D01*
X126120518Y-123581995D01*
X121863353Y-119324830D01*
X139095450Y-119324830D01*
X139095450Y-120674963D01*
X139095451Y-120674973D01*
X139110215Y-120749200D01*
X139166466Y-120833384D01*
X139250647Y-120889633D01*
X139250649Y-120889634D01*
X139324883Y-120904400D01*
X140675116Y-120904399D01*
X140675119Y-120904398D01*
X140675123Y-120904398D01*
X140724376Y-120894601D01*
X140749351Y-120889634D01*
X140833534Y-120833384D01*
X140889784Y-120749201D01*
X140904550Y-120674967D01*
X140904549Y-119474830D01*
X141245550Y-119474830D01*
X141245550Y-120524963D01*
X141245551Y-120524973D01*
X141260315Y-120599200D01*
X141316566Y-120683384D01*
X141400747Y-120739633D01*
X141400749Y-120739634D01*
X141474983Y-120754400D01*
X142525016Y-120754399D01*
X142525019Y-120754398D01*
X142525023Y-120754398D01*
X142577194Y-120744021D01*
X142599251Y-120739634D01*
X142683434Y-120683384D01*
X142739684Y-120599201D01*
X142754450Y-120524967D01*
X142754449Y-119474834D01*
X142754449Y-119474833D01*
X142754449Y-119474831D01*
X142754449Y-119474830D01*
X143245550Y-119474830D01*
X143245550Y-120524963D01*
X143245551Y-120524973D01*
X143260315Y-120599200D01*
X143316566Y-120683384D01*
X143400747Y-120739633D01*
X143400749Y-120739634D01*
X143474983Y-120754400D01*
X144525016Y-120754399D01*
X144525019Y-120754398D01*
X144525023Y-120754398D01*
X144577194Y-120744021D01*
X144599251Y-120739634D01*
X144683434Y-120683384D01*
X144739684Y-120599201D01*
X144754450Y-120524967D01*
X144754449Y-119474834D01*
X144754449Y-119474833D01*
X144754449Y-119474831D01*
X144754449Y-119474830D01*
X145245400Y-119474830D01*
X145245400Y-120524963D01*
X145245401Y-120524973D01*
X145260165Y-120599200D01*
X145316416Y-120683384D01*
X145400597Y-120739633D01*
X145400599Y-120739634D01*
X145474833Y-120754400D01*
X146524966Y-120754399D01*
X146524969Y-120754398D01*
X146524973Y-120754398D01*
X146577144Y-120744021D01*
X146599201Y-120739634D01*
X146683384Y-120683384D01*
X146739634Y-120599201D01*
X146754400Y-120524967D01*
X146754399Y-119474834D01*
X146754398Y-119474831D01*
X146754398Y-119474826D01*
X146739634Y-119400599D01*
X146709433Y-119355401D01*
X146683384Y-119316416D01*
X146678580Y-119313206D01*
X146599202Y-119260166D01*
X146524967Y-119245400D01*
X145474836Y-119245400D01*
X145474826Y-119245401D01*
X145400599Y-119260165D01*
X145316415Y-119316416D01*
X145260166Y-119400597D01*
X145245400Y-119474830D01*
X144754449Y-119474830D01*
X144739684Y-119400599D01*
X144709483Y-119355401D01*
X144683434Y-119316416D01*
X144678630Y-119313206D01*
X144599252Y-119260166D01*
X144525017Y-119245400D01*
X143474986Y-119245400D01*
X143474976Y-119245401D01*
X143400749Y-119260165D01*
X143316565Y-119316416D01*
X143260316Y-119400597D01*
X143245550Y-119474830D01*
X142754449Y-119474830D01*
X142739684Y-119400599D01*
X142709483Y-119355401D01*
X142683434Y-119316416D01*
X142678630Y-119313206D01*
X142599252Y-119260166D01*
X142525017Y-119245400D01*
X141474986Y-119245400D01*
X141474976Y-119245401D01*
X141400749Y-119260165D01*
X141316565Y-119316416D01*
X141260316Y-119400597D01*
X141245550Y-119474830D01*
X140904549Y-119474830D01*
X140904549Y-119324834D01*
X140904548Y-119324830D01*
X140904548Y-119324826D01*
X140889784Y-119250599D01*
X140833567Y-119166466D01*
X140833534Y-119166416D01*
X140829284Y-119163576D01*
X140749352Y-119110166D01*
X140675117Y-119095400D01*
X139324886Y-119095400D01*
X139324876Y-119095401D01*
X139250649Y-119110165D01*
X139166465Y-119166416D01*
X139110216Y-119250597D01*
X139095450Y-119324830D01*
X121863353Y-119324830D01*
X121416605Y-118878082D01*
X121382579Y-118815770D01*
X121379700Y-118788987D01*
X121379700Y-117139880D01*
X129603500Y-117139880D01*
X129603500Y-117340119D01*
X129642564Y-117536502D01*
X129642565Y-117536505D01*
X129664360Y-117589123D01*
X129719190Y-117721493D01*
X129830433Y-117887981D01*
X129830434Y-117887982D01*
X129830439Y-117887988D01*
X129972011Y-118029560D01*
X129972017Y-118029565D01*
X129972019Y-118029567D01*
X130138507Y-118140810D01*
X130323498Y-118217436D01*
X130519884Y-118256500D01*
X130720116Y-118256500D01*
X130916502Y-118217436D01*
X131101493Y-118140810D01*
X131267981Y-118029567D01*
X131409567Y-117887981D01*
X131520810Y-117721493D01*
X131597436Y-117536502D01*
X131636500Y-117340116D01*
X131636500Y-117139884D01*
X131597436Y-116943498D01*
X131520810Y-116758507D01*
X131409567Y-116592019D01*
X131409565Y-116592017D01*
X131409560Y-116592011D01*
X131267988Y-116450439D01*
X131267982Y-116450434D01*
X131267981Y-116450433D01*
X131101493Y-116339190D01*
X130947141Y-116275255D01*
X130916505Y-116262565D01*
X130916502Y-116262564D01*
X130720119Y-116223500D01*
X130720116Y-116223500D01*
X130519884Y-116223500D01*
X130519880Y-116223500D01*
X130323497Y-116262564D01*
X130323494Y-116262565D01*
X130138507Y-116339190D01*
X129972017Y-116450434D01*
X129972011Y-116450439D01*
X129830439Y-116592011D01*
X129830434Y-116592017D01*
X129719190Y-116758507D01*
X129642565Y-116943494D01*
X129642564Y-116943497D01*
X129603500Y-117139880D01*
X121379700Y-117139880D01*
X121379700Y-114599880D01*
X129603500Y-114599880D01*
X129603500Y-114800119D01*
X129628593Y-114926267D01*
X129642564Y-114996502D01*
X129719190Y-115181493D01*
X129830433Y-115347981D01*
X129830434Y-115347982D01*
X129830439Y-115347988D01*
X129972011Y-115489560D01*
X129972017Y-115489565D01*
X129972019Y-115489567D01*
X130138507Y-115600810D01*
X130323498Y-115677436D01*
X130519884Y-115716500D01*
X130720116Y-115716500D01*
X130916502Y-115677436D01*
X131101493Y-115600810D01*
X131267981Y-115489567D01*
X131409567Y-115347981D01*
X131520810Y-115181493D01*
X131597436Y-114996502D01*
X131636500Y-114800116D01*
X131636500Y-114599884D01*
X131597436Y-114403498D01*
X131520810Y-114218507D01*
X131409567Y-114052019D01*
X131409565Y-114052017D01*
X131409560Y-114052011D01*
X131267988Y-113910439D01*
X131267982Y-113910434D01*
X131267981Y-113910433D01*
X131101493Y-113799190D01*
X130984839Y-113750870D01*
X130916505Y-113722565D01*
X130916502Y-113722564D01*
X130720119Y-113683500D01*
X130720116Y-113683500D01*
X130519884Y-113683500D01*
X130519880Y-113683500D01*
X130323497Y-113722564D01*
X130323494Y-113722565D01*
X130138507Y-113799190D01*
X129972017Y-113910434D01*
X129972011Y-113910439D01*
X129830439Y-114052011D01*
X129830434Y-114052017D01*
X129719190Y-114218507D01*
X129642565Y-114403494D01*
X129642564Y-114403497D01*
X129603500Y-114599880D01*
X121379700Y-114599880D01*
X121379700Y-112059880D01*
X129603500Y-112059880D01*
X129603500Y-112260119D01*
X129642564Y-112456502D01*
X129719190Y-112641493D01*
X129830433Y-112807981D01*
X129830434Y-112807982D01*
X129830439Y-112807988D01*
X129972011Y-112949560D01*
X129972017Y-112949565D01*
X129972019Y-112949567D01*
X130138507Y-113060810D01*
X130323498Y-113137436D01*
X130519884Y-113176500D01*
X130720116Y-113176500D01*
X130916502Y-113137436D01*
X131101493Y-113060810D01*
X131267981Y-112949567D01*
X131409567Y-112807981D01*
X131520810Y-112641493D01*
X131597436Y-112456502D01*
X131636500Y-112260116D01*
X131636500Y-112059884D01*
X131597436Y-111863498D01*
X131520810Y-111678507D01*
X131409567Y-111512019D01*
X131409565Y-111512017D01*
X131409560Y-111512011D01*
X131267988Y-111370439D01*
X131267982Y-111370434D01*
X131267981Y-111370433D01*
X131101493Y-111259190D01*
X130984839Y-111210870D01*
X130916505Y-111182565D01*
X130916502Y-111182564D01*
X130720119Y-111143500D01*
X130720116Y-111143500D01*
X130519884Y-111143500D01*
X130519880Y-111143500D01*
X130323497Y-111182564D01*
X130323494Y-111182565D01*
X130138507Y-111259190D01*
X129972017Y-111370434D01*
X129972011Y-111370439D01*
X129830439Y-111512011D01*
X129830434Y-111512017D01*
X129719190Y-111678507D01*
X129642565Y-111863494D01*
X129642564Y-111863497D01*
X129603500Y-112059880D01*
X121379700Y-112059880D01*
X121379700Y-103712812D01*
X121399702Y-103644691D01*
X121416600Y-103623721D01*
X122222771Y-102817549D01*
X122222781Y-102817542D01*
X122304170Y-102736153D01*
X122304176Y-102736147D01*
X122354401Y-102649154D01*
X122354402Y-102649153D01*
X122380401Y-102552125D01*
X122380401Y-102451675D01*
X122380401Y-102443958D01*
X122380400Y-102443940D01*
X122380400Y-101213799D01*
X122400402Y-101145678D01*
X122454058Y-101099185D01*
X122506400Y-101087799D01*
X122784964Y-101087799D01*
X122784966Y-101087799D01*
X122843522Y-101076152D01*
X122914232Y-101082480D01*
X122970300Y-101126034D01*
X122993919Y-101192986D01*
X122994100Y-101199731D01*
X122994100Y-102692844D01*
X122994099Y-102692862D01*
X122994099Y-102801029D01*
X122994100Y-102801031D01*
X123020099Y-102898054D01*
X123020100Y-102898058D01*
X123038482Y-102929897D01*
X123038483Y-102929898D01*
X123070324Y-102985047D01*
X123070327Y-102985050D01*
X123070330Y-102985054D01*
X123145741Y-103060465D01*
X123145763Y-103060485D01*
X126799103Y-106713740D01*
X127425999Y-107340622D01*
X127469553Y-107384176D01*
X127553061Y-107432389D01*
X127556117Y-107434287D01*
X127593375Y-107444269D01*
X127618860Y-107451098D01*
X127618862Y-107451099D01*
X127618863Y-107451099D01*
X127653571Y-107460399D01*
X127653579Y-107460401D01*
X127703804Y-107460400D01*
X129477501Y-107460400D01*
X129545622Y-107480402D01*
X129592115Y-107534058D01*
X129603501Y-107586400D01*
X129603501Y-107867072D01*
X129618265Y-107941300D01*
X129674516Y-108025484D01*
X129758697Y-108081733D01*
X129758699Y-108081734D01*
X129832933Y-108096500D01*
X131407066Y-108096499D01*
X131407069Y-108096498D01*
X131407073Y-108096498D01*
X131456326Y-108086701D01*
X131481301Y-108081734D01*
X131565484Y-108025484D01*
X131621734Y-107941301D01*
X131636500Y-107867067D01*
X131636499Y-106292934D01*
X131636498Y-106292930D01*
X131636498Y-106292926D01*
X131621734Y-106218699D01*
X131608530Y-106198938D01*
X131565484Y-106134516D01*
X131535141Y-106114241D01*
X131481302Y-106078266D01*
X131407067Y-106063500D01*
X129832936Y-106063500D01*
X129832926Y-106063501D01*
X129758699Y-106078265D01*
X129674515Y-106134516D01*
X129618266Y-106218697D01*
X129603500Y-106292930D01*
X129603500Y-106571400D01*
X129583498Y-106639521D01*
X129529842Y-106686014D01*
X129477500Y-106697400D01*
X127914010Y-106697400D01*
X127845889Y-106677398D01*
X127824916Y-106660496D01*
X127716351Y-106551934D01*
X124917282Y-103752930D01*
X129603500Y-103752930D01*
X129603500Y-105327063D01*
X129603501Y-105327073D01*
X129618265Y-105401300D01*
X129674516Y-105485484D01*
X129758697Y-105541733D01*
X129758699Y-105541734D01*
X129832933Y-105556500D01*
X131407066Y-105556499D01*
X131407069Y-105556498D01*
X131407073Y-105556498D01*
X131456326Y-105546701D01*
X131481301Y-105541734D01*
X131565484Y-105485484D01*
X131621734Y-105401301D01*
X131636500Y-105327067D01*
X131636499Y-103752934D01*
X131636498Y-103752930D01*
X131636498Y-103752926D01*
X131621734Y-103678699D01*
X131599010Y-103644691D01*
X131565484Y-103594516D01*
X131565483Y-103594515D01*
X131481302Y-103538266D01*
X131407067Y-103523500D01*
X129832936Y-103523500D01*
X129832926Y-103523501D01*
X129758699Y-103538265D01*
X129674515Y-103594516D01*
X129618266Y-103678697D01*
X129603500Y-103752930D01*
X124917282Y-103752930D01*
X123794006Y-102629680D01*
X123759980Y-102567369D01*
X123757100Y-102540584D01*
X123757100Y-101899880D01*
X129603500Y-101899880D01*
X129603500Y-102100119D01*
X129641606Y-102291685D01*
X129642564Y-102296502D01*
X129719190Y-102481493D01*
X129818205Y-102629680D01*
X129830434Y-102647982D01*
X129830439Y-102647988D01*
X129972011Y-102789560D01*
X129972017Y-102789565D01*
X129972019Y-102789567D01*
X130138507Y-102900810D01*
X130323498Y-102977436D01*
X130519884Y-103016500D01*
X130720116Y-103016500D01*
X130916502Y-102977436D01*
X131101493Y-102900810D01*
X131267981Y-102789567D01*
X131409567Y-102647981D01*
X131520810Y-102481493D01*
X131597436Y-102296502D01*
X131636500Y-102100116D01*
X131636500Y-101899884D01*
X131597436Y-101703498D01*
X131520810Y-101518507D01*
X131409567Y-101352019D01*
X131409565Y-101352017D01*
X131409560Y-101352011D01*
X131267988Y-101210439D01*
X131267982Y-101210434D01*
X131251964Y-101199731D01*
X131101493Y-101099190D01*
X130984839Y-101050870D01*
X130916505Y-101022565D01*
X130916502Y-101022564D01*
X130720119Y-100983500D01*
X130720116Y-100983500D01*
X130519884Y-100983500D01*
X130519880Y-100983500D01*
X130323497Y-101022564D01*
X130323494Y-101022565D01*
X130138507Y-101099190D01*
X129972017Y-101210434D01*
X129972011Y-101210439D01*
X129830439Y-101352011D01*
X129830434Y-101352017D01*
X129719190Y-101518507D01*
X129642565Y-101703494D01*
X129642564Y-101703497D01*
X129603500Y-101899880D01*
X123757100Y-101899880D01*
X123757100Y-101213799D01*
X123777102Y-101145678D01*
X123830758Y-101099185D01*
X123883100Y-101087799D01*
X125324964Y-101087799D01*
X125324966Y-101087799D01*
X125324969Y-101087798D01*
X125324972Y-101087798D01*
X125383524Y-101076152D01*
X125399201Y-101073034D01*
X125483384Y-101016784D01*
X125539634Y-100932601D01*
X125554400Y-100858367D01*
X125554399Y-99359880D01*
X129603500Y-99359880D01*
X129603500Y-99560119D01*
X129642564Y-99756502D01*
X129642565Y-99756505D01*
X129666811Y-99815040D01*
X129719190Y-99941493D01*
X129830433Y-100107981D01*
X129830434Y-100107982D01*
X129830439Y-100107988D01*
X129972011Y-100249560D01*
X129972017Y-100249565D01*
X129972019Y-100249567D01*
X130138507Y-100360810D01*
X130323498Y-100437436D01*
X130519884Y-100476500D01*
X130720116Y-100476500D01*
X130916502Y-100437436D01*
X131101493Y-100360810D01*
X131267981Y-100249567D01*
X131409567Y-100107981D01*
X131520810Y-99941493D01*
X131597436Y-99756502D01*
X131636500Y-99560116D01*
X131636500Y-99359884D01*
X131597436Y-99163498D01*
X131520810Y-98978507D01*
X131409567Y-98812019D01*
X131409565Y-98812017D01*
X131409560Y-98812011D01*
X131267988Y-98670439D01*
X131267982Y-98670434D01*
X131226442Y-98642678D01*
X131101493Y-98559190D01*
X130984839Y-98510870D01*
X130916505Y-98482565D01*
X130916502Y-98482564D01*
X130720119Y-98443500D01*
X130720116Y-98443500D01*
X130519884Y-98443500D01*
X130519880Y-98443500D01*
X130323497Y-98482564D01*
X130323494Y-98482565D01*
X130138507Y-98559190D01*
X129972017Y-98670434D01*
X129972011Y-98670439D01*
X129830439Y-98812011D01*
X129830434Y-98812017D01*
X129719190Y-98978507D01*
X129642565Y-99163494D01*
X129642564Y-99163497D01*
X129603500Y-99359880D01*
X125554399Y-99359880D01*
X125554399Y-99284234D01*
X125554398Y-99284227D01*
X125554398Y-99284226D01*
X125539634Y-99209999D01*
X125508581Y-99163526D01*
X125483384Y-99125816D01*
X125483383Y-99125815D01*
X125399202Y-99069566D01*
X125324967Y-99054800D01*
X123750836Y-99054800D01*
X123750826Y-99054801D01*
X123676599Y-99069565D01*
X123592415Y-99125816D01*
X123536166Y-99209997D01*
X123521400Y-99284230D01*
X123521400Y-100051387D01*
X123501398Y-100119508D01*
X123447742Y-100166001D01*
X123377468Y-100176105D01*
X123312888Y-100146611D01*
X123306305Y-100140482D01*
X123051304Y-99885481D01*
X123017278Y-99823169D01*
X123014399Y-99796386D01*
X123014399Y-99284236D01*
X123014398Y-99284227D01*
X122999634Y-99209999D01*
X122968581Y-99163526D01*
X122943384Y-99125816D01*
X122943383Y-99125815D01*
X122859202Y-99069566D01*
X122784967Y-99054800D01*
X121210836Y-99054800D01*
X121210826Y-99054801D01*
X121136599Y-99069565D01*
X121052415Y-99125816D01*
X120996166Y-99209997D01*
X120981400Y-99284230D01*
X120981400Y-99563600D01*
X120961398Y-99631721D01*
X120907742Y-99678214D01*
X120855400Y-99689600D01*
X119781547Y-99689600D01*
X119713426Y-99669598D01*
X119692262Y-99652506D01*
X119272610Y-99231063D01*
X119271373Y-99229650D01*
X119231345Y-99189622D01*
X119231211Y-99189378D01*
X119231157Y-99189433D01*
X119195990Y-99154117D01*
X119195839Y-99154001D01*
X119195601Y-99153818D01*
X119195358Y-99153630D01*
X119175920Y-99142408D01*
X119152356Y-99128803D01*
X119152166Y-99128604D01*
X119152128Y-99128671D01*
X119109090Y-99103702D01*
X119108887Y-99103618D01*
X119108483Y-99103450D01*
X119108371Y-99103403D01*
X119060574Y-99090595D01*
X119060320Y-99090527D01*
X119036402Y-99084064D01*
X119012137Y-99077507D01*
X119012135Y-99077506D01*
X119012128Y-99077505D01*
X119011997Y-99077488D01*
X119011340Y-99077400D01*
X119011325Y-99077400D01*
X118961677Y-99077400D01*
X118904615Y-99077279D01*
X118902746Y-99077400D01*
X116522499Y-99077400D01*
X116454378Y-99057398D01*
X116407885Y-99003742D01*
X116396499Y-98951400D01*
X116396499Y-98672936D01*
X116396498Y-98672927D01*
X116381734Y-98598699D01*
X116377107Y-98591775D01*
X116325484Y-98514516D01*
X116277667Y-98482565D01*
X116241302Y-98458266D01*
X116167067Y-98443500D01*
X114592936Y-98443500D01*
X114592926Y-98443501D01*
X114518699Y-98458265D01*
X114434515Y-98514516D01*
X114378266Y-98598697D01*
X114363500Y-98672930D01*
X114363500Y-100247063D01*
X114363501Y-100247073D01*
X114378265Y-100321300D01*
X114434516Y-100405484D01*
X114518697Y-100461733D01*
X114518699Y-100461734D01*
X114592933Y-100476500D01*
X116167066Y-100476499D01*
X116167069Y-100476498D01*
X116167073Y-100476498D01*
X116216326Y-100466701D01*
X116241301Y-100461734D01*
X116325484Y-100405484D01*
X116381734Y-100321301D01*
X116396500Y-100247067D01*
X116396500Y-99966400D01*
X116416502Y-99898279D01*
X116470158Y-99851786D01*
X116522500Y-99840400D01*
X118750253Y-99840400D01*
X118818374Y-99860402D01*
X118839538Y-99877494D01*
X119036054Y-100074848D01*
X119210031Y-100249567D01*
X119259194Y-100298939D01*
X119260441Y-100300364D01*
X119265423Y-100305346D01*
X119265424Y-100305347D01*
X119300675Y-100340598D01*
X119300808Y-100340842D01*
X119300864Y-100340787D01*
X119300865Y-100340788D01*
X119318804Y-100358804D01*
X119335811Y-100375883D01*
X119336406Y-100376339D01*
X119336449Y-100376372D01*
X119336453Y-100376376D01*
X119379846Y-100401428D01*
X119422691Y-100426287D01*
X119422694Y-100426288D01*
X119422700Y-100426291D01*
X119423230Y-100426511D01*
X119423451Y-100426603D01*
X119471421Y-100439457D01*
X119471681Y-100439526D01*
X119519663Y-100452493D01*
X119519668Y-100452493D01*
X119520471Y-100452600D01*
X119520475Y-100452600D01*
X119570123Y-100452600D01*
X119570244Y-100452600D01*
X119620113Y-100452706D01*
X119620116Y-100452705D01*
X119627184Y-100452720D01*
X119629054Y-100452600D01*
X120855401Y-100452600D01*
X120923522Y-100472602D01*
X120970015Y-100526258D01*
X120981401Y-100578600D01*
X120981401Y-100858372D01*
X120996165Y-100932600D01*
X121052416Y-101016784D01*
X121136597Y-101073033D01*
X121136599Y-101073034D01*
X121210833Y-101087800D01*
X121491401Y-101087799D01*
X121559520Y-101107801D01*
X121606013Y-101161456D01*
X121617400Y-101213799D01*
X121617400Y-102291685D01*
X121597398Y-102359806D01*
X121580495Y-102380780D01*
X120746230Y-103215045D01*
X120746228Y-103215048D01*
X120692929Y-103268346D01*
X120692921Y-103268356D01*
X120642700Y-103355341D01*
X120634257Y-103386853D01*
X120617515Y-103449336D01*
X120616700Y-103452376D01*
X120616700Y-119049423D01*
X120616699Y-119049423D01*
X120642699Y-119146455D01*
X120643149Y-119147233D01*
X120643155Y-119147255D01*
X120643160Y-119147253D01*
X120692921Y-119233443D01*
X120692929Y-119233453D01*
X125743852Y-124284376D01*
X125777878Y-124346688D01*
X125772813Y-124417503D01*
X125730266Y-124474339D01*
X125663746Y-124499150D01*
X125654757Y-124499471D01*
X100626500Y-124499498D01*
X100558379Y-124479496D01*
X100511886Y-124425840D01*
X100500500Y-124373498D01*
X100500500Y-117139880D01*
X114363500Y-117139880D01*
X114363500Y-117340119D01*
X114402564Y-117536502D01*
X114402565Y-117536505D01*
X114424360Y-117589123D01*
X114479190Y-117721493D01*
X114590433Y-117887981D01*
X114590434Y-117887982D01*
X114590439Y-117887988D01*
X114732011Y-118029560D01*
X114732017Y-118029565D01*
X114732019Y-118029567D01*
X114898507Y-118140810D01*
X115083498Y-118217436D01*
X115279884Y-118256500D01*
X115480116Y-118256500D01*
X115676502Y-118217436D01*
X115861493Y-118140810D01*
X116027981Y-118029567D01*
X116169567Y-117887981D01*
X116280810Y-117721493D01*
X116357436Y-117536502D01*
X116396500Y-117340116D01*
X116396500Y-117139884D01*
X116357436Y-116943498D01*
X116280810Y-116758507D01*
X116169567Y-116592019D01*
X116169565Y-116592017D01*
X116169560Y-116592011D01*
X116027988Y-116450439D01*
X116027982Y-116450434D01*
X116027981Y-116450433D01*
X115861493Y-116339190D01*
X115707141Y-116275255D01*
X115676505Y-116262565D01*
X115676502Y-116262564D01*
X115480119Y-116223500D01*
X115480116Y-116223500D01*
X115279884Y-116223500D01*
X115279880Y-116223500D01*
X115083497Y-116262564D01*
X115083494Y-116262565D01*
X114898507Y-116339190D01*
X114732017Y-116450434D01*
X114732011Y-116450439D01*
X114590439Y-116592011D01*
X114590434Y-116592017D01*
X114479190Y-116758507D01*
X114402565Y-116943494D01*
X114402564Y-116943497D01*
X114363500Y-117139880D01*
X100500500Y-117139880D01*
X100500500Y-112059880D01*
X114363500Y-112059880D01*
X114363500Y-112260119D01*
X114402564Y-112456502D01*
X114479190Y-112641493D01*
X114590433Y-112807981D01*
X114590434Y-112807982D01*
X114590439Y-112807988D01*
X114732011Y-112949560D01*
X114732017Y-112949565D01*
X114732019Y-112949567D01*
X114898507Y-113060810D01*
X115083498Y-113137436D01*
X115279884Y-113176500D01*
X115480116Y-113176500D01*
X115676502Y-113137436D01*
X115861493Y-113060810D01*
X116027981Y-112949567D01*
X116169567Y-112807981D01*
X116280810Y-112641493D01*
X116357436Y-112456502D01*
X116396500Y-112260116D01*
X116396500Y-112059884D01*
X116357436Y-111863498D01*
X116280810Y-111678507D01*
X116169567Y-111512019D01*
X116169565Y-111512017D01*
X116169560Y-111512011D01*
X116027988Y-111370439D01*
X116027982Y-111370434D01*
X116027981Y-111370433D01*
X115861493Y-111259190D01*
X115744839Y-111210870D01*
X115676505Y-111182565D01*
X115676502Y-111182564D01*
X115480119Y-111143500D01*
X115480116Y-111143500D01*
X115279884Y-111143500D01*
X115279880Y-111143500D01*
X115083497Y-111182564D01*
X115083494Y-111182565D01*
X114898507Y-111259190D01*
X114732017Y-111370434D01*
X114732011Y-111370439D01*
X114590439Y-111512011D01*
X114590434Y-111512017D01*
X114479190Y-111678507D01*
X114402565Y-111863494D01*
X114402564Y-111863497D01*
X114363500Y-112059880D01*
X100500500Y-112059880D01*
X100500500Y-109519880D01*
X114363500Y-109519880D01*
X114363500Y-109720119D01*
X114402564Y-109916502D01*
X114402565Y-109916505D01*
X114428917Y-109980123D01*
X114479190Y-110101493D01*
X114555555Y-110215782D01*
X114590434Y-110267982D01*
X114590439Y-110267988D01*
X114732011Y-110409560D01*
X114732017Y-110409565D01*
X114732019Y-110409567D01*
X114898507Y-110520810D01*
X115083498Y-110597436D01*
X115279884Y-110636500D01*
X115480116Y-110636500D01*
X115676502Y-110597436D01*
X115861493Y-110520810D01*
X116027981Y-110409567D01*
X116169567Y-110267981D01*
X116280810Y-110101493D01*
X116357436Y-109916502D01*
X116396500Y-109720116D01*
X116396500Y-109519884D01*
X116357436Y-109323498D01*
X116280810Y-109138507D01*
X116169567Y-108972019D01*
X116169565Y-108972017D01*
X116169560Y-108972011D01*
X116027988Y-108830439D01*
X116027982Y-108830434D01*
X116025884Y-108829032D01*
X115861493Y-108719190D01*
X115744839Y-108670870D01*
X115676505Y-108642565D01*
X115676502Y-108642564D01*
X115480119Y-108603500D01*
X115480116Y-108603500D01*
X115279884Y-108603500D01*
X115279880Y-108603500D01*
X115083497Y-108642564D01*
X115083494Y-108642565D01*
X114898507Y-108719190D01*
X114732017Y-108830434D01*
X114732011Y-108830439D01*
X114590439Y-108972011D01*
X114590434Y-108972017D01*
X114479190Y-109138507D01*
X114402565Y-109323494D01*
X114402564Y-109323497D01*
X114363500Y-109519880D01*
X100500500Y-109519880D01*
X100500500Y-105159575D01*
X100520502Y-105091454D01*
X100574158Y-105044961D01*
X100644432Y-105034857D01*
X100709012Y-105064351D01*
X100735619Y-105096575D01*
X100786359Y-105184460D01*
X100786375Y-105184486D01*
X101036359Y-105541501D01*
X101036368Y-105541514D01*
X101316521Y-105875386D01*
X101624713Y-106183578D01*
X101958585Y-106463731D01*
X101958598Y-106463740D01*
X102283545Y-106691270D01*
X102315622Y-106713730D01*
X102315634Y-106713737D01*
X102315639Y-106713740D01*
X102447526Y-106789885D01*
X102693079Y-106931655D01*
X102693082Y-106931656D01*
X102693085Y-106931658D01*
X102732795Y-106950175D01*
X103088093Y-107115853D01*
X103285274Y-107187621D01*
X103497648Y-107264919D01*
X103497650Y-107264919D01*
X103497657Y-107264922D01*
X103918656Y-107377729D01*
X104347884Y-107453413D01*
X104782075Y-107491400D01*
X104782082Y-107491400D01*
X105217918Y-107491400D01*
X105217925Y-107491400D01*
X105652116Y-107453413D01*
X106081344Y-107377729D01*
X106502343Y-107264922D01*
X106911907Y-107115853D01*
X107203502Y-106979880D01*
X114363500Y-106979880D01*
X114363500Y-107180119D01*
X114402564Y-107376502D01*
X114402565Y-107376505D01*
X114412545Y-107400599D01*
X114479190Y-107561493D01*
X114590433Y-107727981D01*
X114590434Y-107727982D01*
X114590439Y-107727988D01*
X114732011Y-107869560D01*
X114732017Y-107869565D01*
X114732019Y-107869567D01*
X114898507Y-107980810D01*
X115083498Y-108057436D01*
X115279884Y-108096500D01*
X115480116Y-108096500D01*
X115676502Y-108057436D01*
X115861493Y-107980810D01*
X116027981Y-107869567D01*
X116169567Y-107727981D01*
X116280810Y-107561493D01*
X116357436Y-107376502D01*
X116396500Y-107180116D01*
X116396500Y-106979884D01*
X116357436Y-106783498D01*
X116280810Y-106598507D01*
X116169567Y-106432019D01*
X116169565Y-106432017D01*
X116169560Y-106432011D01*
X116027988Y-106290439D01*
X116027982Y-106290434D01*
X115971913Y-106252970D01*
X115861493Y-106179190D01*
X115704693Y-106114241D01*
X115676505Y-106102565D01*
X115676502Y-106102564D01*
X115480119Y-106063500D01*
X115480116Y-106063500D01*
X115279884Y-106063500D01*
X115279880Y-106063500D01*
X115083497Y-106102564D01*
X115083494Y-106102565D01*
X114898507Y-106179190D01*
X114732017Y-106290434D01*
X114732011Y-106290439D01*
X114590439Y-106432011D01*
X114590434Y-106432017D01*
X114479190Y-106598507D01*
X114402565Y-106783494D01*
X114402564Y-106783497D01*
X114363500Y-106979880D01*
X107203502Y-106979880D01*
X107306921Y-106931655D01*
X107393619Y-106881600D01*
X107423108Y-106864575D01*
X107583744Y-106771830D01*
X107684378Y-106713730D01*
X108041406Y-106463737D01*
X108041409Y-106463734D01*
X108041414Y-106463731D01*
X108375286Y-106183578D01*
X108375296Y-106183569D01*
X108683469Y-105875396D01*
X108683478Y-105875386D01*
X108963631Y-105541514D01*
X108963637Y-105541506D01*
X109213630Y-105184478D01*
X109431555Y-104807021D01*
X109602756Y-104439880D01*
X114363500Y-104439880D01*
X114363500Y-104640119D01*
X114367716Y-104661312D01*
X114402564Y-104836502D01*
X114479190Y-105021493D01*
X114590433Y-105187981D01*
X114590434Y-105187982D01*
X114590439Y-105187988D01*
X114732011Y-105329560D01*
X114732017Y-105329565D01*
X114732019Y-105329567D01*
X114898507Y-105440810D01*
X115083498Y-105517436D01*
X115279884Y-105556500D01*
X115480116Y-105556500D01*
X115676502Y-105517436D01*
X115861493Y-105440810D01*
X116027981Y-105329567D01*
X116169567Y-105187981D01*
X116280810Y-105021493D01*
X116357436Y-104836502D01*
X116396500Y-104640116D01*
X116396500Y-104439884D01*
X116357436Y-104243498D01*
X116280810Y-104058507D01*
X116169567Y-103892019D01*
X116169565Y-103892017D01*
X116169560Y-103892011D01*
X116027988Y-103750439D01*
X116027982Y-103750434D01*
X116027981Y-103750433D01*
X115861493Y-103639190D01*
X115743018Y-103590116D01*
X115676505Y-103562565D01*
X115676502Y-103562564D01*
X115480119Y-103523500D01*
X115480116Y-103523500D01*
X115279884Y-103523500D01*
X115279880Y-103523500D01*
X115083497Y-103562564D01*
X115083494Y-103562565D01*
X114898507Y-103639190D01*
X114732017Y-103750434D01*
X114732011Y-103750439D01*
X114590439Y-103892011D01*
X114590434Y-103892017D01*
X114479190Y-104058507D01*
X114402565Y-104243494D01*
X114402564Y-104243497D01*
X114363500Y-104439880D01*
X109602756Y-104439880D01*
X109615753Y-104412007D01*
X109620635Y-104398594D01*
X109623545Y-104390600D01*
X109623545Y-104390599D01*
X109764819Y-104002451D01*
X109764818Y-104002451D01*
X109764822Y-104002443D01*
X109877629Y-103581444D01*
X109953313Y-103152216D01*
X109968938Y-102973617D01*
X109994802Y-102907500D01*
X110005364Y-102895504D01*
X110013104Y-102887764D01*
X110057351Y-102843518D01*
X110130984Y-102715982D01*
X110169100Y-102573733D01*
X110169100Y-102426467D01*
X110130984Y-102284218D01*
X110085921Y-102206166D01*
X110057353Y-102156685D01*
X110057345Y-102156675D01*
X110005364Y-102104694D01*
X109971338Y-102042382D01*
X109968938Y-102026581D01*
X109963383Y-101963087D01*
X109953313Y-101847984D01*
X109877629Y-101418756D01*
X109822478Y-101212930D01*
X114363500Y-101212930D01*
X114363500Y-102787063D01*
X114363501Y-102787073D01*
X114378265Y-102861300D01*
X114434516Y-102945484D01*
X114518697Y-103001733D01*
X114518699Y-103001734D01*
X114592933Y-103016500D01*
X116167066Y-103016499D01*
X116167069Y-103016498D01*
X116167073Y-103016498D01*
X116216326Y-103006701D01*
X116241301Y-103001734D01*
X116325484Y-102945484D01*
X116381734Y-102861301D01*
X116396500Y-102787067D01*
X116396499Y-101212934D01*
X116396498Y-101212930D01*
X116396498Y-101212926D01*
X116381734Y-101138699D01*
X116361088Y-101107801D01*
X116325484Y-101054516D01*
X116325483Y-101054515D01*
X116241302Y-100998266D01*
X116167067Y-100983500D01*
X114592936Y-100983500D01*
X114592926Y-100983501D01*
X114518699Y-100998265D01*
X114434515Y-101054516D01*
X114378266Y-101138697D01*
X114363500Y-101212930D01*
X109822478Y-101212930D01*
X109764822Y-100997757D01*
X109757706Y-100978207D01*
X109697350Y-100812378D01*
X109615753Y-100588193D01*
X109456683Y-100247066D01*
X109431558Y-100193185D01*
X109431548Y-100193167D01*
X109213640Y-99815739D01*
X109213624Y-99815713D01*
X108963640Y-99458698D01*
X108963631Y-99458685D01*
X108683478Y-99124813D01*
X108375286Y-98816621D01*
X108041414Y-98536468D01*
X108041401Y-98536459D01*
X107684386Y-98286475D01*
X107684360Y-98286459D01*
X107306932Y-98068551D01*
X107306914Y-98068541D01*
X106911905Y-97884346D01*
X106502351Y-97735280D01*
X106324402Y-97687598D01*
X106081344Y-97622471D01*
X105652116Y-97546787D01*
X105217925Y-97508800D01*
X104782075Y-97508800D01*
X104347884Y-97546787D01*
X103918656Y-97622471D01*
X103918652Y-97622472D01*
X103497648Y-97735280D01*
X103088094Y-97884346D01*
X102693085Y-98068541D01*
X102693067Y-98068551D01*
X102315639Y-98286459D01*
X102315613Y-98286475D01*
X101958598Y-98536459D01*
X101958585Y-98536468D01*
X101624713Y-98816621D01*
X101624704Y-98816631D01*
X101316531Y-99124804D01*
X101316521Y-99124813D01*
X101036368Y-99458685D01*
X101036359Y-99458698D01*
X100786375Y-99815713D01*
X100786359Y-99815739D01*
X100735619Y-99903624D01*
X100684236Y-99952617D01*
X100614523Y-99966053D01*
X100548612Y-99939667D01*
X100507430Y-99881834D01*
X100500500Y-99840624D01*
X100500500Y-96819880D01*
X114363500Y-96819880D01*
X114363500Y-97020119D01*
X114383269Y-97119500D01*
X114402564Y-97216502D01*
X114479190Y-97401493D01*
X114528263Y-97474936D01*
X114590434Y-97567982D01*
X114590439Y-97567988D01*
X114732011Y-97709560D01*
X114732017Y-97709565D01*
X114732019Y-97709567D01*
X114898507Y-97820810D01*
X115083498Y-97897436D01*
X115279884Y-97936500D01*
X115480116Y-97936500D01*
X115676502Y-97897436D01*
X115861493Y-97820810D01*
X116027981Y-97709567D01*
X116169567Y-97567981D01*
X116280810Y-97401493D01*
X116357436Y-97216502D01*
X116396500Y-97020116D01*
X116396500Y-96819884D01*
X116396499Y-96819880D01*
X129603500Y-96819880D01*
X129603500Y-97020119D01*
X129623269Y-97119500D01*
X129642564Y-97216502D01*
X129719190Y-97401493D01*
X129768263Y-97474936D01*
X129830434Y-97567982D01*
X129830439Y-97567988D01*
X129972011Y-97709560D01*
X129972017Y-97709565D01*
X129972019Y-97709567D01*
X130138507Y-97820810D01*
X130323498Y-97897436D01*
X130519884Y-97936500D01*
X130720116Y-97936500D01*
X130916502Y-97897436D01*
X131101493Y-97820810D01*
X131267981Y-97709567D01*
X131409567Y-97567981D01*
X131520810Y-97401493D01*
X131597436Y-97216502D01*
X131636500Y-97020116D01*
X131636500Y-96819884D01*
X131597436Y-96623498D01*
X131520810Y-96438507D01*
X131409567Y-96272019D01*
X131409565Y-96272017D01*
X131409560Y-96272011D01*
X131267988Y-96130439D01*
X131267982Y-96130434D01*
X131267981Y-96130433D01*
X131101493Y-96019190D01*
X130984839Y-95970870D01*
X130916505Y-95942565D01*
X130916502Y-95942564D01*
X130720119Y-95903500D01*
X130720116Y-95903500D01*
X130519884Y-95903500D01*
X130519880Y-95903500D01*
X130323497Y-95942564D01*
X130323494Y-95942565D01*
X130138507Y-96019190D01*
X129972017Y-96130434D01*
X129972011Y-96130439D01*
X129830439Y-96272011D01*
X129830434Y-96272017D01*
X129719190Y-96438507D01*
X129642565Y-96623494D01*
X129642564Y-96623497D01*
X129603500Y-96819880D01*
X116396499Y-96819880D01*
X116357436Y-96623498D01*
X116280810Y-96438507D01*
X116169567Y-96272019D01*
X116169565Y-96272017D01*
X116169560Y-96272011D01*
X116027988Y-96130439D01*
X116027982Y-96130434D01*
X116027981Y-96130433D01*
X115861493Y-96019190D01*
X115744839Y-95970870D01*
X115676505Y-95942565D01*
X115676502Y-95942564D01*
X115480119Y-95903500D01*
X115480116Y-95903500D01*
X115279884Y-95903500D01*
X115279880Y-95903500D01*
X115083497Y-95942564D01*
X115083494Y-95942565D01*
X114898507Y-96019190D01*
X114732017Y-96130434D01*
X114732011Y-96130439D01*
X114590439Y-96272011D01*
X114590434Y-96272017D01*
X114479190Y-96438507D01*
X114402565Y-96623494D01*
X114402564Y-96623497D01*
X114363500Y-96819880D01*
X100500500Y-96819880D01*
X100500500Y-94279880D01*
X114363500Y-94279880D01*
X114363500Y-94480119D01*
X114402564Y-94676502D01*
X114402565Y-94676505D01*
X114409573Y-94693424D01*
X114479190Y-94861493D01*
X114569462Y-94996595D01*
X114590434Y-95027982D01*
X114590439Y-95027988D01*
X114732011Y-95169560D01*
X114732017Y-95169565D01*
X114732019Y-95169567D01*
X114898507Y-95280810D01*
X115083498Y-95357436D01*
X115279884Y-95396500D01*
X115480116Y-95396500D01*
X115676502Y-95357436D01*
X115861493Y-95280810D01*
X116027981Y-95169567D01*
X116169567Y-95027981D01*
X116280810Y-94861493D01*
X116357436Y-94676502D01*
X116396500Y-94480116D01*
X116396500Y-94279884D01*
X116357436Y-94083498D01*
X116280810Y-93898507D01*
X116169567Y-93732019D01*
X116169565Y-93732017D01*
X116169560Y-93732011D01*
X116030479Y-93592930D01*
X129603500Y-93592930D01*
X129603500Y-95167063D01*
X129603501Y-95167073D01*
X129618265Y-95241300D01*
X129674516Y-95325484D01*
X129758697Y-95381733D01*
X129758699Y-95381734D01*
X129832933Y-95396500D01*
X131407066Y-95396499D01*
X131407069Y-95396498D01*
X131407073Y-95396498D01*
X131456326Y-95386701D01*
X131481301Y-95381734D01*
X131565484Y-95325484D01*
X131621734Y-95241301D01*
X131636500Y-95167067D01*
X131636499Y-93592934D01*
X131636498Y-93592930D01*
X131636498Y-93592926D01*
X131621734Y-93518699D01*
X131621733Y-93518697D01*
X131565484Y-93434516D01*
X131517667Y-93402565D01*
X131481302Y-93378266D01*
X131407067Y-93363500D01*
X129832936Y-93363500D01*
X129832926Y-93363501D01*
X129758699Y-93378265D01*
X129674515Y-93434516D01*
X129618266Y-93518697D01*
X129603500Y-93592930D01*
X116030479Y-93592930D01*
X116027988Y-93590439D01*
X116027982Y-93590434D01*
X116027981Y-93590433D01*
X115861493Y-93479190D01*
X115744839Y-93430870D01*
X115676505Y-93402565D01*
X115676502Y-93402564D01*
X115480119Y-93363500D01*
X115480116Y-93363500D01*
X115279884Y-93363500D01*
X115279880Y-93363500D01*
X115083497Y-93402564D01*
X115083494Y-93402565D01*
X114898507Y-93479190D01*
X114732017Y-93590434D01*
X114732011Y-93590439D01*
X114590439Y-93732011D01*
X114590434Y-93732017D01*
X114479190Y-93898507D01*
X114402565Y-94083494D01*
X114402564Y-94083497D01*
X114363500Y-94279880D01*
X100500500Y-94279880D01*
X100500500Y-91739880D01*
X114363500Y-91739880D01*
X114363500Y-91940119D01*
X114402564Y-92136502D01*
X114479190Y-92321493D01*
X114590433Y-92487981D01*
X114590434Y-92487982D01*
X114590439Y-92487988D01*
X114732011Y-92629560D01*
X114732017Y-92629565D01*
X114732019Y-92629567D01*
X114898507Y-92740810D01*
X115083498Y-92817436D01*
X115279884Y-92856500D01*
X115480116Y-92856500D01*
X115676502Y-92817436D01*
X115861493Y-92740810D01*
X116027981Y-92629567D01*
X116169567Y-92487981D01*
X116280810Y-92321493D01*
X116357436Y-92136502D01*
X116396500Y-91940116D01*
X116396500Y-91739884D01*
X116396499Y-91739880D01*
X129603500Y-91739880D01*
X129603500Y-91940119D01*
X129642564Y-92136502D01*
X129719190Y-92321493D01*
X129830433Y-92487981D01*
X129830434Y-92487982D01*
X129830439Y-92487988D01*
X129972011Y-92629560D01*
X129972017Y-92629565D01*
X129972019Y-92629567D01*
X130138507Y-92740810D01*
X130323498Y-92817436D01*
X130519884Y-92856500D01*
X130720116Y-92856500D01*
X130916502Y-92817436D01*
X131101493Y-92740810D01*
X131267981Y-92629567D01*
X131409567Y-92487981D01*
X131520810Y-92321493D01*
X131597436Y-92136502D01*
X131636500Y-91940116D01*
X131636500Y-91739884D01*
X131597436Y-91543498D01*
X131520810Y-91358507D01*
X131409567Y-91192019D01*
X131409565Y-91192017D01*
X131409560Y-91192011D01*
X131267988Y-91050439D01*
X131267982Y-91050434D01*
X131238147Y-91030499D01*
X131101493Y-90939190D01*
X130959801Y-90880499D01*
X130916505Y-90862565D01*
X130916502Y-90862564D01*
X130720119Y-90823500D01*
X130720116Y-90823500D01*
X130519884Y-90823500D01*
X130519880Y-90823500D01*
X130323497Y-90862564D01*
X130323494Y-90862565D01*
X130138507Y-90939190D01*
X129972017Y-91050434D01*
X129972011Y-91050439D01*
X129830439Y-91192011D01*
X129830434Y-91192017D01*
X129719190Y-91358507D01*
X129642565Y-91543494D01*
X129642564Y-91543497D01*
X129603500Y-91739880D01*
X116396499Y-91739880D01*
X116357436Y-91543498D01*
X116280810Y-91358507D01*
X116169567Y-91192019D01*
X116169565Y-91192017D01*
X116169560Y-91192011D01*
X116027988Y-91050439D01*
X116027982Y-91050434D01*
X115998147Y-91030499D01*
X115861493Y-90939190D01*
X115719801Y-90880499D01*
X115676505Y-90862565D01*
X115676502Y-90862564D01*
X115480119Y-90823500D01*
X115480116Y-90823500D01*
X115279884Y-90823500D01*
X115279880Y-90823500D01*
X115083497Y-90862564D01*
X115083494Y-90862565D01*
X114898507Y-90939190D01*
X114732017Y-91050434D01*
X114732011Y-91050439D01*
X114590439Y-91192011D01*
X114590434Y-91192017D01*
X114479190Y-91358507D01*
X114402565Y-91543494D01*
X114402564Y-91543497D01*
X114363500Y-91739880D01*
X100500500Y-91739880D01*
X100500500Y-88810008D01*
X106694700Y-88810008D01*
X106694700Y-89108191D01*
X106728086Y-89404499D01*
X106762629Y-89555840D01*
X106794437Y-89695201D01*
X106794439Y-89695207D01*
X106794438Y-89695207D01*
X106892913Y-89976631D01*
X106892924Y-89976658D01*
X107022293Y-90245295D01*
X107022298Y-90245304D01*
X107180940Y-90497780D01*
X107180943Y-90497784D01*
X107366845Y-90730900D01*
X107577699Y-90941754D01*
X107810815Y-91127656D01*
X107810823Y-91127662D01*
X108063300Y-91286304D01*
X108331951Y-91415680D01*
X108331967Y-91415685D01*
X108331968Y-91415686D01*
X108613392Y-91514161D01*
X108613395Y-91514161D01*
X108613399Y-91514163D01*
X108904104Y-91580514D01*
X109114211Y-91604187D01*
X109200408Y-91613900D01*
X109200410Y-91613900D01*
X109498592Y-91613900D01*
X109546641Y-91608486D01*
X109579575Y-91604774D01*
X109794896Y-91580514D01*
X110085601Y-91514163D01*
X110367049Y-91415680D01*
X110635700Y-91286304D01*
X110888177Y-91127662D01*
X110985018Y-91050434D01*
X111121300Y-90941754D01*
X111332154Y-90730900D01*
X111518056Y-90497784D01*
X111518062Y-90497777D01*
X111676704Y-90245300D01*
X111806080Y-89976649D01*
X111904563Y-89695201D01*
X111970914Y-89404496D01*
X111985674Y-89273495D01*
X111993969Y-89199880D01*
X114363500Y-89199880D01*
X114363500Y-89400119D01*
X114402564Y-89596502D01*
X114479190Y-89781493D01*
X114590433Y-89947981D01*
X114590434Y-89947982D01*
X114590439Y-89947988D01*
X114732011Y-90089560D01*
X114732017Y-90089565D01*
X114732019Y-90089567D01*
X114898507Y-90200810D01*
X115083498Y-90277436D01*
X115279884Y-90316500D01*
X115480116Y-90316500D01*
X115676502Y-90277436D01*
X115861493Y-90200810D01*
X116027981Y-90089567D01*
X116169567Y-89947981D01*
X116280810Y-89781493D01*
X116357436Y-89596502D01*
X116396500Y-89400116D01*
X116396500Y-89199884D01*
X116393227Y-89183430D01*
X116385111Y-89142624D01*
X116381452Y-89124230D01*
X120981400Y-89124230D01*
X120981400Y-90698363D01*
X120981401Y-90698373D01*
X120996165Y-90772600D01*
X121052416Y-90856784D01*
X121136597Y-90913033D01*
X121136599Y-90913034D01*
X121210833Y-90927800D01*
X122784966Y-90927799D01*
X122784969Y-90927798D01*
X122784973Y-90927798D01*
X122834226Y-90918001D01*
X122859201Y-90913034D01*
X122943384Y-90856784D01*
X122999634Y-90772601D01*
X123014400Y-90698367D01*
X123014399Y-89124234D01*
X123014399Y-89124233D01*
X123014399Y-89124231D01*
X123014399Y-89124230D01*
X123521400Y-89124230D01*
X123521400Y-90698363D01*
X123521401Y-90698373D01*
X123536165Y-90772600D01*
X123592416Y-90856784D01*
X123676597Y-90913033D01*
X123676599Y-90913034D01*
X123750833Y-90927800D01*
X125324966Y-90927799D01*
X125324969Y-90927798D01*
X125324973Y-90927798D01*
X125374226Y-90918001D01*
X125399201Y-90913034D01*
X125483384Y-90856784D01*
X125539634Y-90772601D01*
X125554400Y-90698367D01*
X125554399Y-89199880D01*
X129603500Y-89199880D01*
X129603500Y-89400119D01*
X129642564Y-89596502D01*
X129719190Y-89781493D01*
X129830433Y-89947981D01*
X129830434Y-89947982D01*
X129830439Y-89947988D01*
X129972011Y-90089560D01*
X129972017Y-90089565D01*
X129972019Y-90089567D01*
X130138507Y-90200810D01*
X130323498Y-90277436D01*
X130519884Y-90316500D01*
X130720116Y-90316500D01*
X130916502Y-90277436D01*
X131101493Y-90200810D01*
X131267981Y-90089567D01*
X131409567Y-89947981D01*
X131520810Y-89781493D01*
X131597436Y-89596502D01*
X131636500Y-89400116D01*
X131636500Y-89199884D01*
X131597436Y-89003498D01*
X131520810Y-88818507D01*
X131409567Y-88652019D01*
X131409565Y-88652017D01*
X131409560Y-88652011D01*
X131267988Y-88510439D01*
X131267982Y-88510434D01*
X131267981Y-88510433D01*
X131101493Y-88399190D01*
X130984839Y-88350870D01*
X130916505Y-88322565D01*
X130916502Y-88322564D01*
X130720119Y-88283500D01*
X130720116Y-88283500D01*
X130519884Y-88283500D01*
X130519880Y-88283500D01*
X130323497Y-88322564D01*
X130323494Y-88322565D01*
X130138507Y-88399190D01*
X129972017Y-88510434D01*
X129972011Y-88510439D01*
X129830439Y-88652011D01*
X129830434Y-88652017D01*
X129719190Y-88818507D01*
X129642565Y-89003494D01*
X129642564Y-89003497D01*
X129603500Y-89199880D01*
X125554399Y-89199880D01*
X125554399Y-89124234D01*
X125554398Y-89124231D01*
X125554398Y-89124226D01*
X125539634Y-89049999D01*
X125531363Y-89037621D01*
X125483384Y-88965816D01*
X125483383Y-88965815D01*
X125399202Y-88909566D01*
X125324967Y-88894800D01*
X123750836Y-88894800D01*
X123750826Y-88894801D01*
X123676599Y-88909565D01*
X123592415Y-88965816D01*
X123536166Y-89049997D01*
X123521400Y-89124230D01*
X123014399Y-89124230D01*
X122999634Y-89049999D01*
X122991363Y-89037621D01*
X122943384Y-88965816D01*
X122943383Y-88965815D01*
X122859202Y-88909566D01*
X122784967Y-88894800D01*
X121210836Y-88894800D01*
X121210826Y-88894801D01*
X121136599Y-88909565D01*
X121052415Y-88965816D01*
X120996166Y-89049997D01*
X120981400Y-89124230D01*
X116381452Y-89124230D01*
X116367462Y-89053903D01*
X116357436Y-89003498D01*
X116280810Y-88818507D01*
X116169567Y-88652019D01*
X116169565Y-88652017D01*
X116169560Y-88652011D01*
X116027988Y-88510439D01*
X116027982Y-88510434D01*
X116027981Y-88510433D01*
X115861493Y-88399190D01*
X115744839Y-88350870D01*
X115676505Y-88322565D01*
X115676502Y-88322564D01*
X115480119Y-88283500D01*
X115480116Y-88283500D01*
X115279884Y-88283500D01*
X115279880Y-88283500D01*
X115083497Y-88322564D01*
X115083494Y-88322565D01*
X114898507Y-88399190D01*
X114732017Y-88510434D01*
X114732011Y-88510439D01*
X114590439Y-88652011D01*
X114590434Y-88652017D01*
X114479190Y-88818507D01*
X114402565Y-89003494D01*
X114402564Y-89003497D01*
X114363500Y-89199880D01*
X111993969Y-89199880D01*
X111996256Y-89179586D01*
X111996256Y-89179585D01*
X112004300Y-89108192D01*
X112004300Y-88810008D01*
X111986778Y-88654499D01*
X111970914Y-88513704D01*
X111904563Y-88222999D01*
X111901786Y-88215064D01*
X111806086Y-87941568D01*
X111806085Y-87941567D01*
X111806080Y-87941551D01*
X111676704Y-87672900D01*
X111518062Y-87420423D01*
X111518056Y-87420415D01*
X111332154Y-87187299D01*
X111121300Y-86976445D01*
X110888184Y-86790543D01*
X110888180Y-86790540D01*
X110882029Y-86786675D01*
X110740915Y-86698007D01*
X110680237Y-86659880D01*
X114363500Y-86659880D01*
X114363500Y-86860119D01*
X114387233Y-86979431D01*
X114402564Y-87056502D01*
X114479190Y-87241493D01*
X114586104Y-87401502D01*
X114590434Y-87407982D01*
X114590439Y-87407988D01*
X114732011Y-87549560D01*
X114732017Y-87549565D01*
X114732019Y-87549567D01*
X114898507Y-87660810D01*
X115083498Y-87737436D01*
X115279884Y-87776500D01*
X115480116Y-87776500D01*
X115676502Y-87737436D01*
X115861493Y-87660810D01*
X116027981Y-87549567D01*
X116169567Y-87407981D01*
X116280810Y-87241493D01*
X116357436Y-87056502D01*
X116396500Y-86860116D01*
X116396500Y-86659884D01*
X116396499Y-86659880D01*
X129603500Y-86659880D01*
X129603500Y-86860119D01*
X129627233Y-86979431D01*
X129642564Y-87056502D01*
X129719190Y-87241493D01*
X129826104Y-87401502D01*
X129830434Y-87407982D01*
X129830439Y-87407988D01*
X129972011Y-87549560D01*
X129972017Y-87549565D01*
X129972019Y-87549567D01*
X130138507Y-87660810D01*
X130323498Y-87737436D01*
X130519884Y-87776500D01*
X130720116Y-87776500D01*
X130916502Y-87737436D01*
X131101493Y-87660810D01*
X131267981Y-87549567D01*
X131409567Y-87407981D01*
X131520810Y-87241493D01*
X131597436Y-87056502D01*
X131636500Y-86860116D01*
X131636500Y-86659884D01*
X131597436Y-86463498D01*
X131520810Y-86278507D01*
X131409567Y-86112019D01*
X131409565Y-86112017D01*
X131409560Y-86112011D01*
X131267988Y-85970439D01*
X131267982Y-85970434D01*
X131250566Y-85958797D01*
X131101493Y-85859190D01*
X130984839Y-85810870D01*
X130916505Y-85782565D01*
X130916502Y-85782564D01*
X130720119Y-85743500D01*
X130720116Y-85743500D01*
X130519884Y-85743500D01*
X130519880Y-85743500D01*
X130323497Y-85782564D01*
X130323494Y-85782565D01*
X130138507Y-85859190D01*
X129972017Y-85970434D01*
X129972011Y-85970439D01*
X129830439Y-86112011D01*
X129830434Y-86112017D01*
X129719190Y-86278507D01*
X129642565Y-86463494D01*
X129642564Y-86463497D01*
X129603500Y-86659880D01*
X116396499Y-86659880D01*
X116357436Y-86463498D01*
X116280810Y-86278507D01*
X116169567Y-86112019D01*
X116169565Y-86112017D01*
X116169560Y-86112011D01*
X116027988Y-85970439D01*
X116027982Y-85970434D01*
X116010566Y-85958797D01*
X115861493Y-85859190D01*
X115744839Y-85810870D01*
X115676505Y-85782565D01*
X115676502Y-85782564D01*
X115480119Y-85743500D01*
X115480116Y-85743500D01*
X115279884Y-85743500D01*
X115279880Y-85743500D01*
X115083497Y-85782564D01*
X115083494Y-85782565D01*
X114898507Y-85859190D01*
X114732017Y-85970434D01*
X114732011Y-85970439D01*
X114590439Y-86112011D01*
X114590434Y-86112017D01*
X114479190Y-86278507D01*
X114402565Y-86463494D01*
X114402564Y-86463497D01*
X114363500Y-86659880D01*
X110680237Y-86659880D01*
X110635704Y-86631898D01*
X110635695Y-86631893D01*
X110367058Y-86502524D01*
X110367053Y-86502522D01*
X110367049Y-86502520D01*
X110367043Y-86502517D01*
X110367031Y-86502513D01*
X110085607Y-86404038D01*
X109794899Y-86337686D01*
X109498592Y-86304300D01*
X109498590Y-86304300D01*
X109200410Y-86304300D01*
X109200408Y-86304300D01*
X108904100Y-86337686D01*
X108613392Y-86404038D01*
X108331968Y-86502513D01*
X108331941Y-86502524D01*
X108063304Y-86631893D01*
X108063295Y-86631898D01*
X107810819Y-86790540D01*
X107810815Y-86790543D01*
X107577699Y-86976445D01*
X107366845Y-87187299D01*
X107180943Y-87420415D01*
X107180940Y-87420419D01*
X107022298Y-87672895D01*
X107022293Y-87672904D01*
X106892924Y-87941541D01*
X106892913Y-87941568D01*
X106794438Y-88222992D01*
X106728086Y-88513700D01*
X106694700Y-88810008D01*
X100500500Y-88810008D01*
X100500500Y-85812808D01*
X101995700Y-85812808D01*
X101995700Y-86110991D01*
X102029086Y-86407299D01*
X102043711Y-86471373D01*
X102095437Y-86698001D01*
X102095439Y-86698007D01*
X102095438Y-86698007D01*
X102193913Y-86979431D01*
X102193924Y-86979458D01*
X102323293Y-87248095D01*
X102323298Y-87248104D01*
X102481940Y-87500580D01*
X102481943Y-87500584D01*
X102667845Y-87733700D01*
X102878699Y-87944554D01*
X103111815Y-88130456D01*
X103111823Y-88130462D01*
X103259095Y-88222999D01*
X103364295Y-88289101D01*
X103364304Y-88289106D01*
X103433780Y-88322564D01*
X103632951Y-88418480D01*
X103632967Y-88418485D01*
X103632968Y-88418486D01*
X103914392Y-88516961D01*
X103914395Y-88516961D01*
X103914399Y-88516963D01*
X104205104Y-88583314D01*
X104415211Y-88606987D01*
X104501408Y-88616700D01*
X104501410Y-88616700D01*
X104799592Y-88616700D01*
X104874843Y-88608220D01*
X105095896Y-88583314D01*
X105386601Y-88516963D01*
X105388205Y-88516402D01*
X105521585Y-88469730D01*
X105668049Y-88418480D01*
X105936700Y-88289104D01*
X106189177Y-88130462D01*
X106312002Y-88032513D01*
X106422300Y-87944554D01*
X106633154Y-87733700D01*
X106768314Y-87564213D01*
X106819062Y-87500577D01*
X106977704Y-87248100D01*
X107107080Y-86979449D01*
X107205563Y-86698001D01*
X107271914Y-86407296D01*
X107304134Y-86121340D01*
X107305300Y-86110991D01*
X107305300Y-85812808D01*
X107293244Y-85705812D01*
X107271914Y-85516504D01*
X107205563Y-85225799D01*
X107205503Y-85225628D01*
X107107086Y-84944368D01*
X107107085Y-84944367D01*
X107107080Y-84944351D01*
X106977704Y-84675700D01*
X106819062Y-84423223D01*
X106799526Y-84398725D01*
X106634871Y-84192253D01*
X106634870Y-84192252D01*
X106633151Y-84190096D01*
X106562935Y-84119880D01*
X114363500Y-84119880D01*
X114363500Y-84320119D01*
X114402564Y-84516502D01*
X114402565Y-84516505D01*
X114417454Y-84552449D01*
X114479190Y-84701493D01*
X114534398Y-84784118D01*
X114590434Y-84867982D01*
X114590439Y-84867988D01*
X114732011Y-85009560D01*
X114732017Y-85009565D01*
X114732019Y-85009567D01*
X114898507Y-85120810D01*
X115083498Y-85197436D01*
X115279884Y-85236500D01*
X115480116Y-85236500D01*
X115676502Y-85197436D01*
X115861493Y-85120810D01*
X116027981Y-85009567D01*
X116169567Y-84867981D01*
X116280810Y-84701493D01*
X116357436Y-84516502D01*
X116396500Y-84320116D01*
X116396500Y-84119884D01*
X116396499Y-84119880D01*
X129603500Y-84119880D01*
X129603500Y-84320119D01*
X129642564Y-84516502D01*
X129642565Y-84516505D01*
X129657454Y-84552449D01*
X129719190Y-84701493D01*
X129774398Y-84784118D01*
X129830434Y-84867982D01*
X129830439Y-84867988D01*
X129972011Y-85009560D01*
X129972017Y-85009565D01*
X129972019Y-85009567D01*
X130138507Y-85120810D01*
X130323498Y-85197436D01*
X130519884Y-85236500D01*
X130720116Y-85236500D01*
X130916502Y-85197436D01*
X131101493Y-85120810D01*
X131267981Y-85009567D01*
X131409567Y-84867981D01*
X131520810Y-84701493D01*
X131597436Y-84516502D01*
X131636500Y-84320116D01*
X131636500Y-84119884D01*
X131597436Y-83923498D01*
X131520810Y-83738507D01*
X131409567Y-83572019D01*
X131409565Y-83572017D01*
X131409560Y-83572011D01*
X131267988Y-83430439D01*
X131267982Y-83430434D01*
X131267981Y-83430433D01*
X131101493Y-83319190D01*
X130984839Y-83270870D01*
X130916505Y-83242565D01*
X130916502Y-83242564D01*
X130720119Y-83203500D01*
X130720116Y-83203500D01*
X130519884Y-83203500D01*
X130519880Y-83203500D01*
X130323497Y-83242564D01*
X130323494Y-83242565D01*
X130138507Y-83319190D01*
X129972017Y-83430434D01*
X129972011Y-83430439D01*
X129830439Y-83572011D01*
X129830434Y-83572017D01*
X129719190Y-83738507D01*
X129642565Y-83923494D01*
X129642564Y-83923497D01*
X129603500Y-84119880D01*
X116396499Y-84119880D01*
X116357436Y-83923498D01*
X116280810Y-83738507D01*
X116169567Y-83572019D01*
X116169565Y-83572017D01*
X116169560Y-83572011D01*
X116027988Y-83430439D01*
X116027982Y-83430434D01*
X116027981Y-83430433D01*
X115861493Y-83319190D01*
X115744839Y-83270870D01*
X115676505Y-83242565D01*
X115676502Y-83242564D01*
X115480119Y-83203500D01*
X115480116Y-83203500D01*
X115279884Y-83203500D01*
X115279880Y-83203500D01*
X115083497Y-83242564D01*
X115083494Y-83242565D01*
X114898507Y-83319190D01*
X114732017Y-83430434D01*
X114732011Y-83430439D01*
X114590439Y-83572011D01*
X114590434Y-83572017D01*
X114479190Y-83738507D01*
X114402565Y-83923494D01*
X114402564Y-83923497D01*
X114363500Y-84119880D01*
X106562935Y-84119880D01*
X106422300Y-83979245D01*
X106189184Y-83793343D01*
X106189180Y-83793340D01*
X105936704Y-83634698D01*
X105936695Y-83634693D01*
X105668058Y-83505324D01*
X105668053Y-83505322D01*
X105668049Y-83505320D01*
X105668043Y-83505317D01*
X105668031Y-83505313D01*
X105386607Y-83406838D01*
X105095899Y-83340486D01*
X104799592Y-83307100D01*
X104799590Y-83307100D01*
X104501410Y-83307100D01*
X104501408Y-83307100D01*
X104205100Y-83340486D01*
X103914392Y-83406838D01*
X103632968Y-83505313D01*
X103632941Y-83505324D01*
X103364304Y-83634693D01*
X103364295Y-83634698D01*
X103111819Y-83793340D01*
X103111815Y-83793343D01*
X102878699Y-83979245D01*
X102667845Y-84190099D01*
X102481943Y-84423215D01*
X102481940Y-84423219D01*
X102323298Y-84675695D01*
X102323293Y-84675704D01*
X102193924Y-84944341D01*
X102193913Y-84944368D01*
X102095438Y-85225792D01*
X102029086Y-85516500D01*
X101995700Y-85812808D01*
X100500500Y-85812808D01*
X100500500Y-80626498D01*
X100520502Y-80558377D01*
X100574158Y-80511884D01*
X100626496Y-80500498D01*
X114937919Y-80500483D01*
X115006040Y-80520485D01*
X115052533Y-80574141D01*
X115062637Y-80644415D01*
X115033144Y-80708995D01*
X114986138Y-80742891D01*
X114898510Y-80779189D01*
X114898505Y-80779191D01*
X114732017Y-80890434D01*
X114732011Y-80890439D01*
X114590439Y-81032011D01*
X114590434Y-81032017D01*
X114479190Y-81198507D01*
X114402565Y-81383494D01*
X114402564Y-81383497D01*
X114363500Y-81579880D01*
X114363500Y-81780119D01*
X114402564Y-81976502D01*
X114479190Y-82161493D01*
X114590433Y-82327981D01*
X114590434Y-82327982D01*
X114590439Y-82327988D01*
X114732011Y-82469560D01*
X114732017Y-82469565D01*
X114732019Y-82469567D01*
X114898507Y-82580810D01*
X115083498Y-82657436D01*
X115279884Y-82696500D01*
X115480116Y-82696500D01*
X115676502Y-82657436D01*
X115861493Y-82580810D01*
X116027981Y-82469567D01*
X116169567Y-82327981D01*
X116280810Y-82161493D01*
X116357436Y-81976502D01*
X116396500Y-81780116D01*
X116396500Y-81579884D01*
X116357436Y-81383498D01*
X116280810Y-81198507D01*
X116169567Y-81032019D01*
X116169565Y-81032017D01*
X116169560Y-81032011D01*
X116027988Y-80890439D01*
X116027982Y-80890434D01*
X116027981Y-80890433D01*
X115861493Y-80779190D01*
X115773860Y-80742891D01*
X115718579Y-80698342D01*
X115696158Y-80630979D01*
X115713716Y-80562188D01*
X115765679Y-80513809D01*
X115822076Y-80500482D01*
X130177960Y-80500466D01*
X130246080Y-80520468D01*
X130292573Y-80574124D01*
X130302677Y-80644398D01*
X130273184Y-80708978D01*
X130226178Y-80742874D01*
X130138512Y-80779187D01*
X130138507Y-80779189D01*
X129972017Y-80890434D01*
X129972011Y-80890439D01*
X129830439Y-81032011D01*
X129830434Y-81032017D01*
X129719190Y-81198507D01*
X129642565Y-81383494D01*
X129642564Y-81383497D01*
X129603500Y-81579880D01*
X129603500Y-81780119D01*
X129642564Y-81976502D01*
X129719190Y-82161493D01*
X129830433Y-82327981D01*
X129830434Y-82327982D01*
X129830439Y-82327988D01*
X129972011Y-82469560D01*
X129972017Y-82469565D01*
X129972019Y-82469567D01*
X130138507Y-82580810D01*
X130323498Y-82657436D01*
X130519884Y-82696500D01*
X130720116Y-82696500D01*
X130916502Y-82657436D01*
X131101493Y-82580810D01*
X131267981Y-82469567D01*
X131409567Y-82327981D01*
X131520810Y-82161493D01*
X131597436Y-81976502D01*
X131636500Y-81780116D01*
X131636500Y-81579884D01*
X131597436Y-81383498D01*
X131520810Y-81198507D01*
X131409567Y-81032019D01*
X131409565Y-81032017D01*
X131409560Y-81032011D01*
X131267988Y-80890439D01*
X131267982Y-80890434D01*
X131101492Y-80779189D01*
X131101488Y-80779187D01*
X131013819Y-80742873D01*
X130958538Y-80698325D01*
X130936118Y-80630961D01*
X130953677Y-80562170D01*
X131005639Y-80513792D01*
X131062035Y-80500465D01*
X190865700Y-80500400D01*
X190933821Y-80520402D01*
G37*
%TD.AperFunction*%
%TA.AperFunction,Conductor*%
G36*
X153844471Y-83601502D02*
G01*
X153890964Y-83655158D01*
X153901068Y-83725432D01*
X153892759Y-83755718D01*
X153870654Y-83809083D01*
X153870652Y-83809088D01*
X153845500Y-83935534D01*
X153845500Y-88064465D01*
X153851943Y-88096854D01*
X153870652Y-88190911D01*
X153919989Y-88310022D01*
X153934073Y-88331100D01*
X153991616Y-88417219D01*
X153991621Y-88417225D01*
X154082774Y-88508378D01*
X154082780Y-88508383D01*
X154189978Y-88580011D01*
X154309089Y-88629348D01*
X154435537Y-88654500D01*
X154435538Y-88654500D01*
X154564462Y-88654500D01*
X154564463Y-88654500D01*
X154690911Y-88629348D01*
X154810022Y-88580011D01*
X154917220Y-88508383D01*
X155008383Y-88417220D01*
X155080011Y-88310022D01*
X155129348Y-88190911D01*
X155154500Y-88064463D01*
X155154500Y-87935537D01*
X155154500Y-83935537D01*
X155129348Y-83809089D01*
X155107240Y-83755717D01*
X155099652Y-83685129D01*
X155131431Y-83621642D01*
X155192489Y-83585414D01*
X155223650Y-83581500D01*
X160989987Y-83581500D01*
X161058108Y-83601502D01*
X161079082Y-83618405D01*
X163581995Y-86121317D01*
X163616020Y-86183629D01*
X163618900Y-86210412D01*
X163618900Y-87119500D01*
X163598898Y-87187621D01*
X163545242Y-87234114D01*
X163492905Y-87245500D01*
X163475139Y-87245500D01*
X163475126Y-87245501D01*
X163400899Y-87260265D01*
X163316715Y-87316516D01*
X163260466Y-87400697D01*
X163245700Y-87474930D01*
X163245700Y-88525063D01*
X163245701Y-88525073D01*
X163260465Y-88599300D01*
X163316716Y-88683484D01*
X163400897Y-88739733D01*
X163400899Y-88739734D01*
X163475133Y-88754500D01*
X164492900Y-88754499D01*
X164561021Y-88774501D01*
X164607514Y-88828157D01*
X164618900Y-88880499D01*
X164618900Y-96789271D01*
X164598898Y-96857392D01*
X164581991Y-96878371D01*
X164251728Y-97208600D01*
X164189414Y-97242622D01*
X164162637Y-97245500D01*
X163475036Y-97245500D01*
X163475026Y-97245501D01*
X163400799Y-97260265D01*
X163316615Y-97316516D01*
X163260366Y-97400697D01*
X163245600Y-97474930D01*
X163245600Y-98525063D01*
X163245601Y-98525073D01*
X163260365Y-98599300D01*
X163316616Y-98683484D01*
X163400797Y-98739733D01*
X163400799Y-98739734D01*
X163475033Y-98754500D01*
X164492900Y-98754499D01*
X164561021Y-98774501D01*
X164607514Y-98828157D01*
X164618900Y-98880499D01*
X164618900Y-106789271D01*
X164598898Y-106857392D01*
X164581991Y-106878371D01*
X164251728Y-107208600D01*
X164189414Y-107242622D01*
X164162637Y-107245500D01*
X163475036Y-107245500D01*
X163475026Y-107245501D01*
X163400799Y-107260265D01*
X163316615Y-107316516D01*
X163260366Y-107400697D01*
X163245600Y-107474930D01*
X163245600Y-108525063D01*
X163245601Y-108525073D01*
X163260365Y-108599300D01*
X163316616Y-108683484D01*
X163400797Y-108739733D01*
X163400799Y-108739734D01*
X163475033Y-108754500D01*
X164492900Y-108754499D01*
X164561021Y-108774501D01*
X164607514Y-108828157D01*
X164618900Y-108880499D01*
X164618900Y-116789871D01*
X164598898Y-116857992D01*
X164581991Y-116878971D01*
X164252278Y-117208650D01*
X164189964Y-117242672D01*
X164163187Y-117245550D01*
X163475036Y-117245550D01*
X163475026Y-117245551D01*
X163400799Y-117260315D01*
X163316615Y-117316566D01*
X163260366Y-117400747D01*
X163245600Y-117474980D01*
X163245600Y-118525013D01*
X163245601Y-118525023D01*
X163260365Y-118599250D01*
X163316616Y-118683434D01*
X163400797Y-118739683D01*
X163400799Y-118739684D01*
X163475033Y-118754450D01*
X164525166Y-118754449D01*
X164525169Y-118754448D01*
X164525173Y-118754448D01*
X164574426Y-118744651D01*
X164599401Y-118739684D01*
X164683584Y-118683434D01*
X164739834Y-118599251D01*
X164754600Y-118525017D01*
X164754599Y-117837613D01*
X164774601Y-117769493D01*
X164791504Y-117748519D01*
X165030505Y-117509518D01*
X165092817Y-117475492D01*
X165163632Y-117480557D01*
X165220468Y-117523104D01*
X165245279Y-117589624D01*
X165245600Y-117598613D01*
X165245600Y-118525013D01*
X165245601Y-118525023D01*
X165260365Y-118599250D01*
X165316616Y-118683434D01*
X165400797Y-118739683D01*
X165400799Y-118739684D01*
X165475033Y-118754450D01*
X166525166Y-118754449D01*
X166525169Y-118754448D01*
X166525173Y-118754448D01*
X166574426Y-118744651D01*
X166599401Y-118739684D01*
X166683584Y-118683434D01*
X166739834Y-118599251D01*
X166754600Y-118525017D01*
X166754599Y-117836912D01*
X166774601Y-117768792D01*
X166791504Y-117747818D01*
X167030505Y-117508817D01*
X167092817Y-117474791D01*
X167163632Y-117479856D01*
X167220468Y-117522403D01*
X167245279Y-117588923D01*
X167245600Y-117597912D01*
X167245600Y-118525013D01*
X167245601Y-118525023D01*
X167260365Y-118599250D01*
X167316616Y-118683434D01*
X167400797Y-118739683D01*
X167400799Y-118739684D01*
X167475033Y-118754450D01*
X168525166Y-118754449D01*
X168525169Y-118754448D01*
X168525173Y-118754448D01*
X168574426Y-118744651D01*
X168599401Y-118739684D01*
X168683584Y-118683434D01*
X168739834Y-118599251D01*
X168754600Y-118525017D01*
X168754599Y-117838112D01*
X168774601Y-117769992D01*
X168791499Y-117749022D01*
X169030506Y-117510016D01*
X169092817Y-117475992D01*
X169163633Y-117481057D01*
X169220468Y-117523604D01*
X169245279Y-117590125D01*
X169245600Y-117599113D01*
X169245600Y-118525013D01*
X169245601Y-118525023D01*
X169260365Y-118599250D01*
X169316616Y-118683434D01*
X169400797Y-118739683D01*
X169400799Y-118739684D01*
X169475033Y-118754450D01*
X170525166Y-118754449D01*
X170525169Y-118754448D01*
X170525173Y-118754448D01*
X170574426Y-118744651D01*
X170599401Y-118739684D01*
X170683584Y-118683434D01*
X170739834Y-118599251D01*
X170754600Y-118525017D01*
X170754599Y-117837112D01*
X170774601Y-117768992D01*
X170791499Y-117748022D01*
X171030606Y-117508916D01*
X171092917Y-117474892D01*
X171163733Y-117479957D01*
X171220568Y-117522504D01*
X171245379Y-117589025D01*
X171245700Y-117598013D01*
X171245700Y-118525013D01*
X171245701Y-118525023D01*
X171260465Y-118599250D01*
X171316716Y-118683434D01*
X171400897Y-118739683D01*
X171400899Y-118739684D01*
X171475133Y-118754450D01*
X172162787Y-118754449D01*
X172230908Y-118774451D01*
X172251878Y-118791349D01*
X172491004Y-119030450D01*
X172525032Y-119092760D01*
X172519971Y-119163576D01*
X172477427Y-119220414D01*
X172410908Y-119245228D01*
X172401913Y-119245550D01*
X171475036Y-119245550D01*
X171475026Y-119245551D01*
X171400799Y-119260315D01*
X171316615Y-119316566D01*
X171260366Y-119400747D01*
X171245600Y-119474980D01*
X171245600Y-120525013D01*
X171245601Y-120525023D01*
X171260366Y-120599251D01*
X171260366Y-120599252D01*
X171264808Y-120605900D01*
X171286022Y-120673653D01*
X171267238Y-120742119D01*
X171214420Y-120789562D01*
X171160042Y-120801900D01*
X170840258Y-120801900D01*
X170772137Y-120781898D01*
X170725644Y-120728242D01*
X170715540Y-120657968D01*
X170735494Y-120605897D01*
X170739933Y-120599252D01*
X170739932Y-120599252D01*
X170739934Y-120599251D01*
X170754700Y-120525017D01*
X170754699Y-119474984D01*
X170754698Y-119474980D01*
X170754698Y-119474976D01*
X170739934Y-119400749D01*
X170689239Y-119324880D01*
X170683684Y-119316566D01*
X170683460Y-119316416D01*
X170599502Y-119260316D01*
X170525267Y-119245550D01*
X169475136Y-119245550D01*
X169475126Y-119245551D01*
X169400899Y-119260315D01*
X169316715Y-119316566D01*
X169260466Y-119400747D01*
X169245700Y-119474980D01*
X169245700Y-120525013D01*
X169245701Y-120525023D01*
X169260466Y-120599251D01*
X169260466Y-120599252D01*
X169264908Y-120605900D01*
X169286122Y-120673653D01*
X169267338Y-120742119D01*
X169214520Y-120789562D01*
X169160142Y-120801900D01*
X168840258Y-120801900D01*
X168772137Y-120781898D01*
X168725644Y-120728242D01*
X168715540Y-120657968D01*
X168735494Y-120605897D01*
X168739933Y-120599252D01*
X168739932Y-120599252D01*
X168739934Y-120599251D01*
X168754700Y-120525017D01*
X168754699Y-119474984D01*
X168754698Y-119474980D01*
X168754698Y-119474976D01*
X168739934Y-119400749D01*
X168689239Y-119324880D01*
X168683684Y-119316566D01*
X168683460Y-119316416D01*
X168599502Y-119260316D01*
X168525267Y-119245550D01*
X167475136Y-119245550D01*
X167475126Y-119245551D01*
X167400899Y-119260315D01*
X167316715Y-119316566D01*
X167260466Y-119400747D01*
X167245700Y-119474980D01*
X167245700Y-120525013D01*
X167245701Y-120525023D01*
X167260466Y-120599251D01*
X167260466Y-120599252D01*
X167264908Y-120605900D01*
X167286122Y-120673653D01*
X167267338Y-120742119D01*
X167214520Y-120789562D01*
X167160142Y-120801900D01*
X167030750Y-120801900D01*
X166962629Y-120781898D01*
X166916136Y-120728242D01*
X166904750Y-120675900D01*
X166904749Y-119324886D01*
X166904748Y-119324876D01*
X166889984Y-119250649D01*
X166833733Y-119166465D01*
X166749552Y-119110216D01*
X166675317Y-119095450D01*
X165325086Y-119095450D01*
X165325076Y-119095451D01*
X165250849Y-119110215D01*
X165166665Y-119166466D01*
X165110416Y-119250647D01*
X165095650Y-119324880D01*
X165095650Y-119324884D01*
X165095651Y-120675900D01*
X165075649Y-120744021D01*
X165021993Y-120790514D01*
X164969651Y-120801900D01*
X160893613Y-120801900D01*
X160825492Y-120781898D01*
X160804518Y-120764995D01*
X158596305Y-118556782D01*
X158562279Y-118494470D01*
X158559400Y-118467687D01*
X158559400Y-118426368D01*
X158559400Y-118426367D01*
X158521284Y-118284118D01*
X158466696Y-118189569D01*
X158447653Y-118156585D01*
X158447645Y-118156575D01*
X158343524Y-118052454D01*
X158343514Y-118052446D01*
X158215982Y-117978816D01*
X158073733Y-117940700D01*
X157926467Y-117940700D01*
X157831634Y-117966110D01*
X157784217Y-117978816D01*
X157656685Y-118052446D01*
X157656675Y-118052454D01*
X157596695Y-118112435D01*
X157534383Y-118146461D01*
X157463568Y-118141396D01*
X157406732Y-118098849D01*
X157381921Y-118032329D01*
X157381600Y-118023340D01*
X157381600Y-114994270D01*
X157381601Y-114950979D01*
X157381600Y-114950975D01*
X157381600Y-95057261D01*
X157381614Y-95057036D01*
X157381612Y-95048832D01*
X157381613Y-95048829D01*
X157381600Y-94996595D01*
X157381600Y-94948475D01*
X157381600Y-94948469D01*
X157381588Y-94948378D01*
X157368430Y-94899327D01*
X157368421Y-94899292D01*
X157355649Y-94851624D01*
X157355598Y-94851429D01*
X157355585Y-94851397D01*
X157355565Y-94851362D01*
X157355564Y-94851358D01*
X157331582Y-94809845D01*
X157305376Y-94764453D01*
X157305371Y-94764448D01*
X157305316Y-94764376D01*
X157271315Y-94730392D01*
X157271317Y-94730389D01*
X157271294Y-94730371D01*
X157234347Y-94693424D01*
X157234346Y-94693423D01*
X157228838Y-94687915D01*
X157228663Y-94687761D01*
X157217401Y-94676505D01*
X155903739Y-93363500D01*
X152941326Y-90402568D01*
X152907285Y-90340264D01*
X152904399Y-90313450D01*
X152904399Y-89324936D01*
X152904398Y-89324927D01*
X152889634Y-89250699D01*
X152869367Y-89220368D01*
X152833384Y-89166516D01*
X152833383Y-89166515D01*
X152749202Y-89110266D01*
X152674969Y-89095500D01*
X152674967Y-89095500D01*
X151507400Y-89095500D01*
X151439279Y-89075498D01*
X151392786Y-89021842D01*
X151381400Y-88969500D01*
X151381400Y-88949765D01*
X151381398Y-88949756D01*
X151371578Y-88913116D01*
X151373264Y-88842141D01*
X151413054Y-88783343D01*
X151478317Y-88755391D01*
X151493266Y-88754499D01*
X152524966Y-88754499D01*
X152524969Y-88754498D01*
X152524973Y-88754498D01*
X152574226Y-88744701D01*
X152599201Y-88739734D01*
X152683384Y-88683484D01*
X152739634Y-88599301D01*
X152754400Y-88525067D01*
X152754399Y-87474934D01*
X152754398Y-87474927D01*
X152754398Y-87474926D01*
X152739634Y-87400699D01*
X152683383Y-87316515D01*
X152599202Y-87260266D01*
X152524967Y-87245500D01*
X151474836Y-87245500D01*
X151474826Y-87245501D01*
X151400599Y-87260265D01*
X151316415Y-87316516D01*
X151260166Y-87400697D01*
X151245400Y-87474930D01*
X151245400Y-88401811D01*
X151225398Y-88469932D01*
X151171742Y-88516425D01*
X151101468Y-88526529D01*
X151036888Y-88497035D01*
X151030317Y-88490919D01*
X150844480Y-88305100D01*
X150791308Y-88251933D01*
X150757280Y-88189622D01*
X150754399Y-88162833D01*
X150754399Y-87474936D01*
X150754398Y-87474927D01*
X150739634Y-87400699D01*
X150683383Y-87316515D01*
X150599202Y-87260266D01*
X150524967Y-87245500D01*
X149474836Y-87245500D01*
X149474826Y-87245501D01*
X149400599Y-87260265D01*
X149316415Y-87316516D01*
X149260166Y-87400697D01*
X149245400Y-87474930D01*
X149245400Y-88401788D01*
X149225398Y-88469909D01*
X149171742Y-88516402D01*
X149101468Y-88526506D01*
X149036888Y-88497012D01*
X149030305Y-88490883D01*
X148791304Y-88251882D01*
X148757278Y-88189570D01*
X148754399Y-88162787D01*
X148754399Y-87474936D01*
X148754398Y-87474927D01*
X148739634Y-87400699D01*
X148683383Y-87316515D01*
X148599202Y-87260266D01*
X148524969Y-87245500D01*
X148524967Y-87245500D01*
X148297966Y-87245500D01*
X148229845Y-87225498D01*
X148183352Y-87171842D01*
X148173248Y-87101568D01*
X148202742Y-87036988D01*
X148234964Y-87010382D01*
X148343618Y-86947651D01*
X148447751Y-86843518D01*
X148521384Y-86715982D01*
X148559500Y-86573733D01*
X148559500Y-86426467D01*
X148521384Y-86284218D01*
X148447751Y-86156682D01*
X148447749Y-86156680D01*
X148447745Y-86156675D01*
X148343624Y-86052554D01*
X148343614Y-86052546D01*
X148216082Y-85978916D01*
X148073833Y-85940800D01*
X147984978Y-85940800D01*
X147916857Y-85920798D01*
X147870364Y-85867142D01*
X147860057Y-85831251D01*
X147859401Y-85826275D01*
X147859400Y-85826271D01*
X147859400Y-85826267D01*
X147821284Y-85684018D01*
X147747651Y-85556482D01*
X147747649Y-85556480D01*
X147747645Y-85556475D01*
X147643524Y-85452354D01*
X147643514Y-85452346D01*
X147515982Y-85378716D01*
X147493015Y-85372562D01*
X147373733Y-85340600D01*
X147226467Y-85340600D01*
X147131634Y-85366010D01*
X147084217Y-85378716D01*
X146956685Y-85452346D01*
X146956675Y-85452354D01*
X146852554Y-85556475D01*
X146852546Y-85556485D01*
X146794619Y-85656819D01*
X146743236Y-85705812D01*
X146673523Y-85719248D01*
X146607612Y-85692862D01*
X146566430Y-85635029D01*
X146559500Y-85593819D01*
X146559500Y-85526268D01*
X146542188Y-85461659D01*
X146521384Y-85384018D01*
X146447751Y-85256482D01*
X146447749Y-85256480D01*
X146447745Y-85256475D01*
X146343624Y-85152354D01*
X146343614Y-85152346D01*
X146216082Y-85078716D01*
X146197105Y-85073631D01*
X146073833Y-85040600D01*
X145926567Y-85040600D01*
X145831734Y-85066010D01*
X145784317Y-85078716D01*
X145656785Y-85152346D01*
X145656775Y-85152354D01*
X145627535Y-85181595D01*
X145565223Y-85215621D01*
X145538440Y-85218500D01*
X143110313Y-85218500D01*
X143042192Y-85198498D01*
X143021218Y-85181595D01*
X142896305Y-85056682D01*
X142862279Y-84994370D01*
X142859400Y-84967587D01*
X142859400Y-84926368D01*
X142859400Y-84926367D01*
X142821284Y-84784118D01*
X142747651Y-84656582D01*
X142747649Y-84656580D01*
X142747645Y-84656575D01*
X142643524Y-84552454D01*
X142643514Y-84552446D01*
X142515982Y-84478816D01*
X142496639Y-84473633D01*
X142373733Y-84440700D01*
X142373731Y-84440700D01*
X142367827Y-84439118D01*
X142307204Y-84402166D01*
X142276183Y-84338305D01*
X142284611Y-84267811D01*
X142311344Y-84228314D01*
X142884550Y-83655158D01*
X142921310Y-83618401D01*
X142983624Y-83584378D01*
X143010402Y-83581500D01*
X153776350Y-83581500D01*
X153844471Y-83601502D01*
G37*
%TD.AperFunction*%
%TD*%
M02*
