%TF.GenerationSoftware,KiCad,Pcbnew,10.0.6*%
%TF.CreationDate,2026-09-23T18:05:01+08:00*%
%TF.ProjectId,Octo_Hub,4f63746f-5f48-4756-922e-6b696361645f,1.7*%
%TF.SameCoordinates,Original*%
%TF.FileFunction,Legend,Top*%
%TF.FilePolarity,Positive*%
%FSLAX46Y46*%
G04 Gerber Fmt 4.6, Leading zero omitted, Abs format (unit mm)*
G04 Created by KiCad (PCBNEW 10.0.6) date 2026-09-23 18:05:01*
%MOMM*%
%LPD*%
G01*
G04 APERTURE LIST*
%ADD10C,0.254000*%
%ADD11C,0.180000*%
%ADD12C,0.150000*%
%ADD13C,0.200000*%
%ADD14C,0.152400*%
%ADD15C,0.177800*%
G04 APERTURE END LIST*
D10*
X132999900Y-86000000D02*
X156999900Y-86000000D01*
X132999900Y-92000000D02*
X132999900Y-86000000D01*
X132999900Y-95999800D02*
X156999900Y-95999800D01*
X132999900Y-101999900D02*
X132999900Y-95999800D01*
X132999900Y-105999900D02*
X156999900Y-105999900D01*
X132999900Y-111999900D02*
X132999900Y-105999900D01*
X132999900Y-115999900D02*
X156999900Y-115999900D01*
X132999900Y-121999900D02*
X132999900Y-115999900D01*
X143999900Y-86000000D02*
X143999900Y-87000000D01*
X143999900Y-87000000D02*
X145999900Y-87000000D01*
X143999900Y-95999800D02*
X143999900Y-96999900D01*
X143999900Y-96999900D02*
X145999900Y-96999900D01*
X143999900Y-105999900D02*
X143999900Y-106999900D01*
X143999900Y-106999900D02*
X145999900Y-106999900D01*
X143999900Y-115999900D02*
X143999900Y-116999900D01*
X143999900Y-116999900D02*
X145999900Y-116999900D01*
X145999900Y-87000000D02*
X145999900Y-86000000D01*
X145999900Y-96999900D02*
X145999900Y-95999800D01*
X145999900Y-106999900D02*
X145999900Y-105999900D01*
X145999900Y-116999900D02*
X145999900Y-115999900D01*
X156999900Y-86000000D02*
X156999900Y-92000000D01*
X156999900Y-92000000D02*
X132999900Y-92000000D01*
X156999900Y-95999800D02*
X156999900Y-101999900D01*
X156999900Y-101999900D02*
X132999900Y-101999900D01*
X156999900Y-105999900D02*
X156999900Y-111999900D01*
X156999900Y-111999900D02*
X132999900Y-111999900D01*
X156999900Y-115999900D02*
X156999900Y-121999900D01*
X156999900Y-121999900D02*
X132999900Y-121999900D01*
X158999100Y-85999500D02*
X182999600Y-85999500D01*
X158999100Y-91999000D02*
X158999100Y-85999500D01*
X159000000Y-95999900D02*
X183000000Y-95999900D01*
X159000000Y-101999900D02*
X159000000Y-95999900D01*
X159000000Y-105999900D02*
X183000000Y-105999900D01*
X159000000Y-111999900D02*
X159000000Y-105999900D01*
X159000000Y-115999900D02*
X183000000Y-115999900D01*
X159000000Y-121999900D02*
X159000000Y-115999900D01*
X170000000Y-86000000D02*
X170000000Y-87000000D01*
X170000000Y-87000000D02*
X172000000Y-87000000D01*
X170000000Y-95999900D02*
X170000000Y-96999900D01*
X170000000Y-96999900D02*
X172000000Y-96999900D01*
X170000000Y-105999900D02*
X170000000Y-106999900D01*
X170000000Y-106999900D02*
X172000000Y-106999900D01*
X170000000Y-115999900D02*
X170000000Y-116999900D01*
X170000000Y-116999900D02*
X172000000Y-116999900D01*
X172000000Y-87000000D02*
X172000000Y-86000000D01*
X172000000Y-96999900D02*
X172000000Y-95999900D01*
X172000000Y-106999900D02*
X172000000Y-105999900D01*
X172000000Y-116999900D02*
X172000000Y-115999900D01*
X182999600Y-85999500D02*
X182999600Y-91999000D01*
X182999600Y-91999000D02*
X158999100Y-91999000D01*
X183000000Y-95999900D02*
X183000000Y-101999900D01*
X183000000Y-101999900D02*
X159000000Y-101999900D01*
X183000000Y-105999900D02*
X183000000Y-111999900D01*
X183000000Y-111999900D02*
X159000000Y-111999900D01*
X183000000Y-115999900D02*
X183000000Y-121999900D01*
X183000000Y-121999900D02*
X159000000Y-121999900D01*
G36*
X184242100Y-110250100D02*
G01*
X188492000Y-110250100D01*
X188492000Y-124250100D01*
X184242100Y-124250100D01*
X184242100Y-110250100D01*
G37*
D11*
X105518521Y-115119473D02*
X105085187Y-115119473D01*
X105085187Y-115119473D02*
X105041854Y-115552806D01*
X105041854Y-115552806D02*
X105085187Y-115509473D01*
X105085187Y-115509473D02*
X105171854Y-115466140D01*
X105171854Y-115466140D02*
X105388521Y-115466140D01*
X105388521Y-115466140D02*
X105475187Y-115509473D01*
X105475187Y-115509473D02*
X105518521Y-115552806D01*
X105518521Y-115552806D02*
X105561854Y-115639473D01*
X105561854Y-115639473D02*
X105561854Y-115856140D01*
X105561854Y-115856140D02*
X105518521Y-115942806D01*
X105518521Y-115942806D02*
X105475187Y-115986140D01*
X105475187Y-115986140D02*
X105388521Y-116029473D01*
X105388521Y-116029473D02*
X105171854Y-116029473D01*
X105171854Y-116029473D02*
X105085187Y-115986140D01*
X105085187Y-115986140D02*
X105041854Y-115942806D01*
X105821854Y-115119473D02*
X106125188Y-116029473D01*
X106125188Y-116029473D02*
X106428521Y-115119473D01*
X107425187Y-116029473D02*
X107425187Y-115119473D01*
X107425187Y-115119473D02*
X107641854Y-115119473D01*
X107641854Y-115119473D02*
X107771854Y-115162806D01*
X107771854Y-115162806D02*
X107858521Y-115249473D01*
X107858521Y-115249473D02*
X107901854Y-115336140D01*
X107901854Y-115336140D02*
X107945187Y-115509473D01*
X107945187Y-115509473D02*
X107945187Y-115639473D01*
X107945187Y-115639473D02*
X107901854Y-115812806D01*
X107901854Y-115812806D02*
X107858521Y-115899473D01*
X107858521Y-115899473D02*
X107771854Y-115986140D01*
X107771854Y-115986140D02*
X107641854Y-116029473D01*
X107641854Y-116029473D02*
X107425187Y-116029473D01*
X108855187Y-115942806D02*
X108811854Y-115986140D01*
X108811854Y-115986140D02*
X108681854Y-116029473D01*
X108681854Y-116029473D02*
X108595187Y-116029473D01*
X108595187Y-116029473D02*
X108465187Y-115986140D01*
X108465187Y-115986140D02*
X108378521Y-115899473D01*
X108378521Y-115899473D02*
X108335187Y-115812806D01*
X108335187Y-115812806D02*
X108291854Y-115639473D01*
X108291854Y-115639473D02*
X108291854Y-115509473D01*
X108291854Y-115509473D02*
X108335187Y-115336140D01*
X108335187Y-115336140D02*
X108378521Y-115249473D01*
X108378521Y-115249473D02*
X108465187Y-115162806D01*
X108465187Y-115162806D02*
X108595187Y-115119473D01*
X108595187Y-115119473D02*
X108681854Y-115119473D01*
X108681854Y-115119473D02*
X108811854Y-115162806D01*
X108811854Y-115162806D02*
X108855187Y-115206140D01*
D12*
X101612969Y-122849242D02*
X101841541Y-122849242D01*
X101841541Y-122849242D02*
X101955826Y-122906385D01*
X101955826Y-122906385D02*
X102070112Y-123020671D01*
X102070112Y-123020671D02*
X102127255Y-123249242D01*
X102127255Y-123249242D02*
X102127255Y-123649242D01*
X102127255Y-123649242D02*
X102070112Y-123877814D01*
X102070112Y-123877814D02*
X101955826Y-123992100D01*
X101955826Y-123992100D02*
X101841541Y-124049242D01*
X101841541Y-124049242D02*
X101612969Y-124049242D01*
X101612969Y-124049242D02*
X101498684Y-123992100D01*
X101498684Y-123992100D02*
X101384398Y-123877814D01*
X101384398Y-123877814D02*
X101327255Y-123649242D01*
X101327255Y-123649242D02*
X101327255Y-123249242D01*
X101327255Y-123249242D02*
X101384398Y-123020671D01*
X101384398Y-123020671D02*
X101498684Y-122906385D01*
X101498684Y-122906385D02*
X101612969Y-122849242D01*
X103327255Y-123934957D02*
X103270112Y-123992100D01*
X103270112Y-123992100D02*
X103098684Y-124049242D01*
X103098684Y-124049242D02*
X102984398Y-124049242D01*
X102984398Y-124049242D02*
X102812969Y-123992100D01*
X102812969Y-123992100D02*
X102698684Y-123877814D01*
X102698684Y-123877814D02*
X102641541Y-123763528D01*
X102641541Y-123763528D02*
X102584398Y-123534957D01*
X102584398Y-123534957D02*
X102584398Y-123363528D01*
X102584398Y-123363528D02*
X102641541Y-123134957D01*
X102641541Y-123134957D02*
X102698684Y-123020671D01*
X102698684Y-123020671D02*
X102812969Y-122906385D01*
X102812969Y-122906385D02*
X102984398Y-122849242D01*
X102984398Y-122849242D02*
X103098684Y-122849242D01*
X103098684Y-122849242D02*
X103270112Y-122906385D01*
X103270112Y-122906385D02*
X103327255Y-122963528D01*
X103670112Y-122849242D02*
X104355827Y-122849242D01*
X104012969Y-124049242D02*
X104012969Y-122849242D01*
X104984398Y-122849242D02*
X105212970Y-122849242D01*
X105212970Y-122849242D02*
X105327255Y-122906385D01*
X105327255Y-122906385D02*
X105441541Y-123020671D01*
X105441541Y-123020671D02*
X105498684Y-123249242D01*
X105498684Y-123249242D02*
X105498684Y-123649242D01*
X105498684Y-123649242D02*
X105441541Y-123877814D01*
X105441541Y-123877814D02*
X105327255Y-123992100D01*
X105327255Y-123992100D02*
X105212970Y-124049242D01*
X105212970Y-124049242D02*
X104984398Y-124049242D01*
X104984398Y-124049242D02*
X104870113Y-123992100D01*
X104870113Y-123992100D02*
X104755827Y-123877814D01*
X104755827Y-123877814D02*
X104698684Y-123649242D01*
X104698684Y-123649242D02*
X104698684Y-123249242D01*
X104698684Y-123249242D02*
X104755827Y-123020671D01*
X104755827Y-123020671D02*
X104870113Y-122906385D01*
X104870113Y-122906385D02*
X104984398Y-122849242D01*
X106927256Y-124049242D02*
X106927256Y-122849242D01*
X106927256Y-123420671D02*
X107612970Y-123420671D01*
X107612970Y-124049242D02*
X107612970Y-122849242D01*
X108184399Y-122849242D02*
X108184399Y-123820671D01*
X108184399Y-123820671D02*
X108241542Y-123934957D01*
X108241542Y-123934957D02*
X108298685Y-123992100D01*
X108298685Y-123992100D02*
X108412970Y-124049242D01*
X108412970Y-124049242D02*
X108641542Y-124049242D01*
X108641542Y-124049242D02*
X108755827Y-123992100D01*
X108755827Y-123992100D02*
X108812970Y-123934957D01*
X108812970Y-123934957D02*
X108870113Y-123820671D01*
X108870113Y-123820671D02*
X108870113Y-122849242D01*
X109841542Y-123420671D02*
X110012970Y-123477814D01*
X110012970Y-123477814D02*
X110070113Y-123534957D01*
X110070113Y-123534957D02*
X110127256Y-123649242D01*
X110127256Y-123649242D02*
X110127256Y-123820671D01*
X110127256Y-123820671D02*
X110070113Y-123934957D01*
X110070113Y-123934957D02*
X110012970Y-123992100D01*
X110012970Y-123992100D02*
X109898685Y-124049242D01*
X109898685Y-124049242D02*
X109441542Y-124049242D01*
X109441542Y-124049242D02*
X109441542Y-122849242D01*
X109441542Y-122849242D02*
X109841542Y-122849242D01*
X109841542Y-122849242D02*
X109955828Y-122906385D01*
X109955828Y-122906385D02*
X110012970Y-122963528D01*
X110012970Y-122963528D02*
X110070113Y-123077814D01*
X110070113Y-123077814D02*
X110070113Y-123192100D01*
X110070113Y-123192100D02*
X110012970Y-123306385D01*
X110012970Y-123306385D02*
X109955828Y-123363528D01*
X109955828Y-123363528D02*
X109841542Y-123420671D01*
X109841542Y-123420671D02*
X109441542Y-123420671D01*
X111441542Y-123249242D02*
X111727256Y-124049242D01*
X111727256Y-124049242D02*
X112012971Y-123249242D01*
X113098685Y-124049242D02*
X112412971Y-124049242D01*
X112755828Y-124049242D02*
X112755828Y-122849242D01*
X112755828Y-122849242D02*
X112641542Y-123020671D01*
X112641542Y-123020671D02*
X112527257Y-123134957D01*
X112527257Y-123134957D02*
X112412971Y-123192100D01*
X113612971Y-123934957D02*
X113670114Y-123992100D01*
X113670114Y-123992100D02*
X113612971Y-124049242D01*
X113612971Y-124049242D02*
X113555828Y-123992100D01*
X113555828Y-123992100D02*
X113612971Y-123934957D01*
X113612971Y-123934957D02*
X113612971Y-124049242D01*
X114355828Y-123363528D02*
X114241543Y-123306385D01*
X114241543Y-123306385D02*
X114184400Y-123249242D01*
X114184400Y-123249242D02*
X114127257Y-123134957D01*
X114127257Y-123134957D02*
X114127257Y-123077814D01*
X114127257Y-123077814D02*
X114184400Y-122963528D01*
X114184400Y-122963528D02*
X114241543Y-122906385D01*
X114241543Y-122906385D02*
X114355828Y-122849242D01*
X114355828Y-122849242D02*
X114584400Y-122849242D01*
X114584400Y-122849242D02*
X114698686Y-122906385D01*
X114698686Y-122906385D02*
X114755828Y-122963528D01*
X114755828Y-122963528D02*
X114812971Y-123077814D01*
X114812971Y-123077814D02*
X114812971Y-123134957D01*
X114812971Y-123134957D02*
X114755828Y-123249242D01*
X114755828Y-123249242D02*
X114698686Y-123306385D01*
X114698686Y-123306385D02*
X114584400Y-123363528D01*
X114584400Y-123363528D02*
X114355828Y-123363528D01*
X114355828Y-123363528D02*
X114241543Y-123420671D01*
X114241543Y-123420671D02*
X114184400Y-123477814D01*
X114184400Y-123477814D02*
X114127257Y-123592100D01*
X114127257Y-123592100D02*
X114127257Y-123820671D01*
X114127257Y-123820671D02*
X114184400Y-123934957D01*
X114184400Y-123934957D02*
X114241543Y-123992100D01*
X114241543Y-123992100D02*
X114355828Y-124049242D01*
X114355828Y-124049242D02*
X114584400Y-124049242D01*
X114584400Y-124049242D02*
X114698686Y-123992100D01*
X114698686Y-123992100D02*
X114755828Y-123934957D01*
X114755828Y-123934957D02*
X114812971Y-123820671D01*
X114812971Y-123820671D02*
X114812971Y-123592100D01*
X114812971Y-123592100D02*
X114755828Y-123477814D01*
X114755828Y-123477814D02*
X114698686Y-123420671D01*
X114698686Y-123420671D02*
X114584400Y-123363528D01*
X185249900Y-107077255D02*
X185192757Y-107248684D01*
X185192757Y-107248684D02*
X185192757Y-107534398D01*
X185192757Y-107534398D02*
X185249900Y-107648684D01*
X185249900Y-107648684D02*
X185307042Y-107705826D01*
X185307042Y-107705826D02*
X185421328Y-107762969D01*
X185421328Y-107762969D02*
X185535614Y-107762969D01*
X185535614Y-107762969D02*
X185649900Y-107705826D01*
X185649900Y-107705826D02*
X185707042Y-107648684D01*
X185707042Y-107648684D02*
X185764185Y-107534398D01*
X185764185Y-107534398D02*
X185821328Y-107305826D01*
X185821328Y-107305826D02*
X185878471Y-107191541D01*
X185878471Y-107191541D02*
X185935614Y-107134398D01*
X185935614Y-107134398D02*
X186049900Y-107077255D01*
X186049900Y-107077255D02*
X186164185Y-107077255D01*
X186164185Y-107077255D02*
X186278471Y-107134398D01*
X186278471Y-107134398D02*
X186335614Y-107191541D01*
X186335614Y-107191541D02*
X186392757Y-107305826D01*
X186392757Y-107305826D02*
X186392757Y-107591541D01*
X186392757Y-107591541D02*
X186335614Y-107762969D01*
X185192757Y-108277255D02*
X186392757Y-108277255D01*
X186392757Y-108277255D02*
X185192757Y-108962969D01*
X185192757Y-108962969D02*
X186392757Y-108962969D01*
X185307042Y-109534398D02*
X185249900Y-109591541D01*
X185249900Y-109591541D02*
X185192757Y-109534398D01*
X185192757Y-109534398D02*
X185249900Y-109477255D01*
X185249900Y-109477255D02*
X185307042Y-109534398D01*
X185307042Y-109534398D02*
X185192757Y-109534398D01*
X185935614Y-109534398D02*
X185878471Y-109591541D01*
X185878471Y-109591541D02*
X185821328Y-109534398D01*
X185821328Y-109534398D02*
X185878471Y-109477255D01*
X185878471Y-109477255D02*
X185935614Y-109534398D01*
X185935614Y-109534398D02*
X185821328Y-109534398D01*
X190392757Y-81134498D02*
X189421328Y-81134498D01*
X189421328Y-81134498D02*
X189307042Y-81191641D01*
X189307042Y-81191641D02*
X189249900Y-81248784D01*
X189249900Y-81248784D02*
X189192757Y-81363069D01*
X189192757Y-81363069D02*
X189192757Y-81591641D01*
X189192757Y-81591641D02*
X189249900Y-81705926D01*
X189249900Y-81705926D02*
X189307042Y-81763069D01*
X189307042Y-81763069D02*
X189421328Y-81820212D01*
X189421328Y-81820212D02*
X190392757Y-81820212D01*
X189192757Y-82391641D02*
X190392757Y-82391641D01*
X190392757Y-82391641D02*
X189192757Y-83077355D01*
X189192757Y-83077355D02*
X190392757Y-83077355D01*
X190392757Y-83477355D02*
X190392757Y-84163070D01*
X189192757Y-83820212D02*
X190392757Y-83820212D01*
X189192757Y-84563070D02*
X190392757Y-84563070D01*
X190392757Y-84963070D02*
X190392757Y-85648785D01*
X189192757Y-85305927D02*
X190392757Y-85305927D01*
X189192757Y-86620213D02*
X189192757Y-86048785D01*
X189192757Y-86048785D02*
X190392757Y-86048785D01*
X189821328Y-87020214D02*
X189821328Y-87420214D01*
X189192757Y-87591642D02*
X189192757Y-87020214D01*
X189192757Y-87020214D02*
X190392757Y-87020214D01*
X190392757Y-87020214D02*
X190392757Y-87591642D01*
X189192757Y-88105928D02*
X190392757Y-88105928D01*
X190392757Y-88105928D02*
X190392757Y-88391642D01*
X190392757Y-88391642D02*
X190335614Y-88563071D01*
X190335614Y-88563071D02*
X190221328Y-88677356D01*
X190221328Y-88677356D02*
X190107042Y-88734499D01*
X190107042Y-88734499D02*
X189878471Y-88791642D01*
X189878471Y-88791642D02*
X189707042Y-88791642D01*
X189707042Y-88791642D02*
X189478471Y-88734499D01*
X189478471Y-88734499D02*
X189364185Y-88677356D01*
X189364185Y-88677356D02*
X189249900Y-88563071D01*
X189249900Y-88563071D02*
X189192757Y-88391642D01*
X189192757Y-88391642D02*
X189192757Y-88105928D01*
X189249900Y-90163071D02*
X189192757Y-90334500D01*
X189192757Y-90334500D02*
X189192757Y-90620214D01*
X189192757Y-90620214D02*
X189249900Y-90734500D01*
X189249900Y-90734500D02*
X189307042Y-90791642D01*
X189307042Y-90791642D02*
X189421328Y-90848785D01*
X189421328Y-90848785D02*
X189535614Y-90848785D01*
X189535614Y-90848785D02*
X189649900Y-90791642D01*
X189649900Y-90791642D02*
X189707042Y-90734500D01*
X189707042Y-90734500D02*
X189764185Y-90620214D01*
X189764185Y-90620214D02*
X189821328Y-90391642D01*
X189821328Y-90391642D02*
X189878471Y-90277357D01*
X189878471Y-90277357D02*
X189935614Y-90220214D01*
X189935614Y-90220214D02*
X190049900Y-90163071D01*
X190049900Y-90163071D02*
X190164185Y-90163071D01*
X190164185Y-90163071D02*
X190278471Y-90220214D01*
X190278471Y-90220214D02*
X190335614Y-90277357D01*
X190335614Y-90277357D02*
X190392757Y-90391642D01*
X190392757Y-90391642D02*
X190392757Y-90677357D01*
X190392757Y-90677357D02*
X190335614Y-90848785D01*
X189192757Y-91363071D02*
X190392757Y-91363071D01*
X190392757Y-91363071D02*
X190392757Y-91820214D01*
X190392757Y-91820214D02*
X190335614Y-91934499D01*
X190335614Y-91934499D02*
X190278471Y-91991642D01*
X190278471Y-91991642D02*
X190164185Y-92048785D01*
X190164185Y-92048785D02*
X189992757Y-92048785D01*
X189992757Y-92048785D02*
X189878471Y-91991642D01*
X189878471Y-91991642D02*
X189821328Y-91934499D01*
X189821328Y-91934499D02*
X189764185Y-91820214D01*
X189764185Y-91820214D02*
X189764185Y-91363071D01*
X189535614Y-92505928D02*
X189535614Y-93077357D01*
X189192757Y-92391642D02*
X190392757Y-92791642D01*
X190392757Y-92791642D02*
X189192757Y-93191642D01*
X189307042Y-94277356D02*
X189249900Y-94220213D01*
X189249900Y-94220213D02*
X189192757Y-94048785D01*
X189192757Y-94048785D02*
X189192757Y-93934499D01*
X189192757Y-93934499D02*
X189249900Y-93763070D01*
X189249900Y-93763070D02*
X189364185Y-93648785D01*
X189364185Y-93648785D02*
X189478471Y-93591642D01*
X189478471Y-93591642D02*
X189707042Y-93534499D01*
X189707042Y-93534499D02*
X189878471Y-93534499D01*
X189878471Y-93534499D02*
X190107042Y-93591642D01*
X190107042Y-93591642D02*
X190221328Y-93648785D01*
X190221328Y-93648785D02*
X190335614Y-93763070D01*
X190335614Y-93763070D02*
X190392757Y-93934499D01*
X190392757Y-93934499D02*
X190392757Y-94048785D01*
X190392757Y-94048785D02*
X190335614Y-94220213D01*
X190335614Y-94220213D02*
X190278471Y-94277356D01*
X189821328Y-94791642D02*
X189821328Y-95191642D01*
X189192757Y-95363070D02*
X189192757Y-94791642D01*
X189192757Y-94791642D02*
X190392757Y-94791642D01*
X190392757Y-94791642D02*
X190392757Y-95363070D01*
X189307042Y-97477356D02*
X189249900Y-97420213D01*
X189249900Y-97420213D02*
X189192757Y-97248785D01*
X189192757Y-97248785D02*
X189192757Y-97134499D01*
X189192757Y-97134499D02*
X189249900Y-96963070D01*
X189249900Y-96963070D02*
X189364185Y-96848785D01*
X189364185Y-96848785D02*
X189478471Y-96791642D01*
X189478471Y-96791642D02*
X189707042Y-96734499D01*
X189707042Y-96734499D02*
X189878471Y-96734499D01*
X189878471Y-96734499D02*
X190107042Y-96791642D01*
X190107042Y-96791642D02*
X190221328Y-96848785D01*
X190221328Y-96848785D02*
X190335614Y-96963070D01*
X190335614Y-96963070D02*
X190392757Y-97134499D01*
X190392757Y-97134499D02*
X190392757Y-97248785D01*
X190392757Y-97248785D02*
X190335614Y-97420213D01*
X190335614Y-97420213D02*
X190278471Y-97477356D01*
X189192757Y-98677356D02*
X189764185Y-98277356D01*
X189192757Y-97991642D02*
X190392757Y-97991642D01*
X190392757Y-97991642D02*
X190392757Y-98448785D01*
X190392757Y-98448785D02*
X190335614Y-98563070D01*
X190335614Y-98563070D02*
X190278471Y-98620213D01*
X190278471Y-98620213D02*
X190164185Y-98677356D01*
X190164185Y-98677356D02*
X189992757Y-98677356D01*
X189992757Y-98677356D02*
X189878471Y-98620213D01*
X189878471Y-98620213D02*
X189821328Y-98563070D01*
X189821328Y-98563070D02*
X189764185Y-98448785D01*
X189764185Y-98448785D02*
X189764185Y-97991642D01*
X189535614Y-99134499D02*
X189535614Y-99705928D01*
X189192757Y-99020213D02*
X190392757Y-99420213D01*
X190392757Y-99420213D02*
X189192757Y-99820213D01*
X189821328Y-100620213D02*
X189821328Y-100220213D01*
X189192757Y-100220213D02*
X190392757Y-100220213D01*
X190392757Y-100220213D02*
X190392757Y-100791641D01*
X190392757Y-101077355D02*
X190392757Y-101763070D01*
X189192757Y-101420212D02*
X190392757Y-101420212D01*
X189307042Y-111320212D02*
X189249900Y-111263069D01*
X189249900Y-111263069D02*
X189192757Y-111091641D01*
X189192757Y-111091641D02*
X189192757Y-110977355D01*
X189192757Y-110977355D02*
X189249900Y-110805926D01*
X189249900Y-110805926D02*
X189364185Y-110691641D01*
X189364185Y-110691641D02*
X189478471Y-110634498D01*
X189478471Y-110634498D02*
X189707042Y-110577355D01*
X189707042Y-110577355D02*
X189878471Y-110577355D01*
X189878471Y-110577355D02*
X190107042Y-110634498D01*
X190107042Y-110634498D02*
X190221328Y-110691641D01*
X190221328Y-110691641D02*
X190335614Y-110805926D01*
X190335614Y-110805926D02*
X190392757Y-110977355D01*
X190392757Y-110977355D02*
X190392757Y-111091641D01*
X190392757Y-111091641D02*
X190335614Y-111263069D01*
X190335614Y-111263069D02*
X190278471Y-111320212D01*
X190392757Y-112063069D02*
X190392757Y-112291641D01*
X190392757Y-112291641D02*
X190335614Y-112405926D01*
X190335614Y-112405926D02*
X190221328Y-112520212D01*
X190221328Y-112520212D02*
X189992757Y-112577355D01*
X189992757Y-112577355D02*
X189592757Y-112577355D01*
X189592757Y-112577355D02*
X189364185Y-112520212D01*
X189364185Y-112520212D02*
X189249900Y-112405926D01*
X189249900Y-112405926D02*
X189192757Y-112291641D01*
X189192757Y-112291641D02*
X189192757Y-112063069D01*
X189192757Y-112063069D02*
X189249900Y-111948784D01*
X189249900Y-111948784D02*
X189364185Y-111834498D01*
X189364185Y-111834498D02*
X189592757Y-111777355D01*
X189592757Y-111777355D02*
X189992757Y-111777355D01*
X189992757Y-111777355D02*
X190221328Y-111834498D01*
X190221328Y-111834498D02*
X190335614Y-111948784D01*
X190335614Y-111948784D02*
X190392757Y-112063069D01*
X189192757Y-113091641D02*
X190392757Y-113091641D01*
X190392757Y-113091641D02*
X190392757Y-113377355D01*
X190392757Y-113377355D02*
X190335614Y-113548784D01*
X190335614Y-113548784D02*
X190221328Y-113663069D01*
X190221328Y-113663069D02*
X190107042Y-113720212D01*
X190107042Y-113720212D02*
X189878471Y-113777355D01*
X189878471Y-113777355D02*
X189707042Y-113777355D01*
X189707042Y-113777355D02*
X189478471Y-113720212D01*
X189478471Y-113720212D02*
X189364185Y-113663069D01*
X189364185Y-113663069D02*
X189249900Y-113548784D01*
X189249900Y-113548784D02*
X189192757Y-113377355D01*
X189192757Y-113377355D02*
X189192757Y-113091641D01*
X189535614Y-114234498D02*
X189535614Y-114805927D01*
X189192757Y-114120212D02*
X190392757Y-114520212D01*
X190392757Y-114520212D02*
X189192757Y-114920212D01*
X189192757Y-115320212D02*
X190392757Y-115320212D01*
X190392757Y-115320212D02*
X190392757Y-115777355D01*
X190392757Y-115777355D02*
X190335614Y-115891640D01*
X190335614Y-115891640D02*
X190278471Y-115948783D01*
X190278471Y-115948783D02*
X190164185Y-116005926D01*
X190164185Y-116005926D02*
X189992757Y-116005926D01*
X189992757Y-116005926D02*
X189878471Y-115948783D01*
X189878471Y-115948783D02*
X189821328Y-115891640D01*
X189821328Y-115891640D02*
X189764185Y-115777355D01*
X189764185Y-115777355D02*
X189764185Y-115320212D01*
X190392757Y-116748783D02*
X190392757Y-116977355D01*
X190392757Y-116977355D02*
X190335614Y-117091640D01*
X190335614Y-117091640D02*
X190221328Y-117205926D01*
X190221328Y-117205926D02*
X189992757Y-117263069D01*
X189992757Y-117263069D02*
X189592757Y-117263069D01*
X189592757Y-117263069D02*
X189364185Y-117205926D01*
X189364185Y-117205926D02*
X189249900Y-117091640D01*
X189249900Y-117091640D02*
X189192757Y-116977355D01*
X189192757Y-116977355D02*
X189192757Y-116748783D01*
X189192757Y-116748783D02*
X189249900Y-116634498D01*
X189249900Y-116634498D02*
X189364185Y-116520212D01*
X189364185Y-116520212D02*
X189592757Y-116463069D01*
X189592757Y-116463069D02*
X189992757Y-116463069D01*
X189992757Y-116463069D02*
X190221328Y-116520212D01*
X190221328Y-116520212D02*
X190335614Y-116634498D01*
X190335614Y-116634498D02*
X190392757Y-116748783D01*
X189192757Y-117777355D02*
X190392757Y-117777355D01*
X190392757Y-117777355D02*
X190392757Y-118234498D01*
X190392757Y-118234498D02*
X190335614Y-118348783D01*
X190335614Y-118348783D02*
X190278471Y-118405926D01*
X190278471Y-118405926D02*
X190164185Y-118463069D01*
X190164185Y-118463069D02*
X189992757Y-118463069D01*
X189992757Y-118463069D02*
X189878471Y-118405926D01*
X189878471Y-118405926D02*
X189821328Y-118348783D01*
X189821328Y-118348783D02*
X189764185Y-118234498D01*
X189764185Y-118234498D02*
X189764185Y-117777355D01*
X189192757Y-118977355D02*
X190392757Y-118977355D01*
X189192757Y-119663069D02*
X189878471Y-119148783D01*
X190392757Y-119663069D02*
X189707042Y-118977355D01*
X189249900Y-120120212D02*
X189192757Y-120291641D01*
X189192757Y-120291641D02*
X189192757Y-120577355D01*
X189192757Y-120577355D02*
X189249900Y-120691641D01*
X189249900Y-120691641D02*
X189307042Y-120748783D01*
X189307042Y-120748783D02*
X189421328Y-120805926D01*
X189421328Y-120805926D02*
X189535614Y-120805926D01*
X189535614Y-120805926D02*
X189649900Y-120748783D01*
X189649900Y-120748783D02*
X189707042Y-120691641D01*
X189707042Y-120691641D02*
X189764185Y-120577355D01*
X189764185Y-120577355D02*
X189821328Y-120348783D01*
X189821328Y-120348783D02*
X189878471Y-120234498D01*
X189878471Y-120234498D02*
X189935614Y-120177355D01*
X189935614Y-120177355D02*
X190049900Y-120120212D01*
X190049900Y-120120212D02*
X190164185Y-120120212D01*
X190164185Y-120120212D02*
X190278471Y-120177355D01*
X190278471Y-120177355D02*
X190335614Y-120234498D01*
X190335614Y-120234498D02*
X190392757Y-120348783D01*
X190392757Y-120348783D02*
X190392757Y-120634498D01*
X190392757Y-120634498D02*
X190335614Y-120805926D01*
X189192757Y-121320212D02*
X190392757Y-121320212D01*
X190392757Y-121320212D02*
X190392757Y-121777355D01*
X190392757Y-121777355D02*
X190335614Y-121891640D01*
X190335614Y-121891640D02*
X190278471Y-121948783D01*
X190278471Y-121948783D02*
X190164185Y-122005926D01*
X190164185Y-122005926D02*
X189992757Y-122005926D01*
X189992757Y-122005926D02*
X189878471Y-121948783D01*
X189878471Y-121948783D02*
X189821328Y-121891640D01*
X189821328Y-121891640D02*
X189764185Y-121777355D01*
X189764185Y-121777355D02*
X189764185Y-121320212D01*
D13*
X135519473Y-85071619D02*
X135519473Y-83441619D01*
X135519473Y-83441619D02*
X136062806Y-84605904D01*
X136062806Y-84605904D02*
X136606139Y-83441619D01*
X136606139Y-83441619D02*
X136606139Y-85071619D01*
X137692806Y-83441619D02*
X138003282Y-83441619D01*
X138003282Y-83441619D02*
X138158520Y-83519238D01*
X138158520Y-83519238D02*
X138313758Y-83674476D01*
X138313758Y-83674476D02*
X138391377Y-83984952D01*
X138391377Y-83984952D02*
X138391377Y-84528285D01*
X138391377Y-84528285D02*
X138313758Y-84838761D01*
X138313758Y-84838761D02*
X138158520Y-84994000D01*
X138158520Y-84994000D02*
X138003282Y-85071619D01*
X138003282Y-85071619D02*
X137692806Y-85071619D01*
X137692806Y-85071619D02*
X137537568Y-84994000D01*
X137537568Y-84994000D02*
X137382330Y-84838761D01*
X137382330Y-84838761D02*
X137304711Y-84528285D01*
X137304711Y-84528285D02*
X137304711Y-83984952D01*
X137304711Y-83984952D02*
X137382330Y-83674476D01*
X137382330Y-83674476D02*
X137537568Y-83519238D01*
X137537568Y-83519238D02*
X137692806Y-83441619D01*
X139089949Y-85071619D02*
X139089949Y-83441619D01*
X139089949Y-83441619D02*
X139478044Y-83441619D01*
X139478044Y-83441619D02*
X139710901Y-83519238D01*
X139710901Y-83519238D02*
X139866139Y-83674476D01*
X139866139Y-83674476D02*
X139943758Y-83829714D01*
X139943758Y-83829714D02*
X140021377Y-84140190D01*
X140021377Y-84140190D02*
X140021377Y-84373047D01*
X140021377Y-84373047D02*
X139943758Y-84683523D01*
X139943758Y-84683523D02*
X139866139Y-84838761D01*
X139866139Y-84838761D02*
X139710901Y-84994000D01*
X139710901Y-84994000D02*
X139478044Y-85071619D01*
X139478044Y-85071619D02*
X139089949Y-85071619D01*
X140719949Y-83441619D02*
X140719949Y-84761142D01*
X140719949Y-84761142D02*
X140797568Y-84916380D01*
X140797568Y-84916380D02*
X140875187Y-84994000D01*
X140875187Y-84994000D02*
X141030425Y-85071619D01*
X141030425Y-85071619D02*
X141340901Y-85071619D01*
X141340901Y-85071619D02*
X141496139Y-84994000D01*
X141496139Y-84994000D02*
X141573758Y-84916380D01*
X141573758Y-84916380D02*
X141651377Y-84761142D01*
X141651377Y-84761142D02*
X141651377Y-83441619D01*
X143203758Y-85071619D02*
X142427568Y-85071619D01*
X142427568Y-85071619D02*
X142427568Y-83441619D01*
X143747092Y-84217809D02*
X144290425Y-84217809D01*
X144523282Y-85071619D02*
X143747092Y-85071619D01*
X143747092Y-85071619D02*
X143747092Y-83441619D01*
X143747092Y-83441619D02*
X144523282Y-83441619D01*
X147395187Y-84916380D02*
X147317568Y-84994000D01*
X147317568Y-84994000D02*
X147084711Y-85071619D01*
X147084711Y-85071619D02*
X146929473Y-85071619D01*
X146929473Y-85071619D02*
X146696616Y-84994000D01*
X146696616Y-84994000D02*
X146541378Y-84838761D01*
X146541378Y-84838761D02*
X146463759Y-84683523D01*
X146463759Y-84683523D02*
X146386140Y-84373047D01*
X146386140Y-84373047D02*
X146386140Y-84140190D01*
X146386140Y-84140190D02*
X146463759Y-83829714D01*
X146463759Y-83829714D02*
X146541378Y-83674476D01*
X146541378Y-83674476D02*
X146696616Y-83519238D01*
X146696616Y-83519238D02*
X146929473Y-83441619D01*
X146929473Y-83441619D02*
X147084711Y-83441619D01*
X147084711Y-83441619D02*
X147317568Y-83519238D01*
X147317568Y-83519238D02*
X147395187Y-83596857D01*
X148404235Y-83441619D02*
X148714711Y-83441619D01*
X148714711Y-83441619D02*
X148869949Y-83519238D01*
X148869949Y-83519238D02*
X149025187Y-83674476D01*
X149025187Y-83674476D02*
X149102806Y-83984952D01*
X149102806Y-83984952D02*
X149102806Y-84528285D01*
X149102806Y-84528285D02*
X149025187Y-84838761D01*
X149025187Y-84838761D02*
X148869949Y-84994000D01*
X148869949Y-84994000D02*
X148714711Y-85071619D01*
X148714711Y-85071619D02*
X148404235Y-85071619D01*
X148404235Y-85071619D02*
X148248997Y-84994000D01*
X148248997Y-84994000D02*
X148093759Y-84838761D01*
X148093759Y-84838761D02*
X148016140Y-84528285D01*
X148016140Y-84528285D02*
X148016140Y-83984952D01*
X148016140Y-83984952D02*
X148093759Y-83674476D01*
X148093759Y-83674476D02*
X148248997Y-83519238D01*
X148248997Y-83519238D02*
X148404235Y-83441619D01*
X149801378Y-85071619D02*
X149801378Y-83441619D01*
X149801378Y-83441619D02*
X150732806Y-85071619D01*
X150732806Y-85071619D02*
X150732806Y-83441619D01*
X151508997Y-85071619D02*
X151508997Y-83441619D01*
X151508997Y-83441619D02*
X152440425Y-85071619D01*
X152440425Y-85071619D02*
X152440425Y-83441619D01*
X154380902Y-84605904D02*
X155157092Y-84605904D01*
X154225664Y-85071619D02*
X154768997Y-83441619D01*
X154768997Y-83441619D02*
X155312330Y-85071619D01*
X135519473Y-95071619D02*
X135519473Y-93441619D01*
X135519473Y-93441619D02*
X136062806Y-94605904D01*
X136062806Y-94605904D02*
X136606139Y-93441619D01*
X136606139Y-93441619D02*
X136606139Y-95071619D01*
X137692806Y-93441619D02*
X138003282Y-93441619D01*
X138003282Y-93441619D02*
X138158520Y-93519238D01*
X138158520Y-93519238D02*
X138313758Y-93674476D01*
X138313758Y-93674476D02*
X138391377Y-93984952D01*
X138391377Y-93984952D02*
X138391377Y-94528285D01*
X138391377Y-94528285D02*
X138313758Y-94838761D01*
X138313758Y-94838761D02*
X138158520Y-94994000D01*
X138158520Y-94994000D02*
X138003282Y-95071619D01*
X138003282Y-95071619D02*
X137692806Y-95071619D01*
X137692806Y-95071619D02*
X137537568Y-94994000D01*
X137537568Y-94994000D02*
X137382330Y-94838761D01*
X137382330Y-94838761D02*
X137304711Y-94528285D01*
X137304711Y-94528285D02*
X137304711Y-93984952D01*
X137304711Y-93984952D02*
X137382330Y-93674476D01*
X137382330Y-93674476D02*
X137537568Y-93519238D01*
X137537568Y-93519238D02*
X137692806Y-93441619D01*
X139089949Y-95071619D02*
X139089949Y-93441619D01*
X139089949Y-93441619D02*
X139478044Y-93441619D01*
X139478044Y-93441619D02*
X139710901Y-93519238D01*
X139710901Y-93519238D02*
X139866139Y-93674476D01*
X139866139Y-93674476D02*
X139943758Y-93829714D01*
X139943758Y-93829714D02*
X140021377Y-94140190D01*
X140021377Y-94140190D02*
X140021377Y-94373047D01*
X140021377Y-94373047D02*
X139943758Y-94683523D01*
X139943758Y-94683523D02*
X139866139Y-94838761D01*
X139866139Y-94838761D02*
X139710901Y-94994000D01*
X139710901Y-94994000D02*
X139478044Y-95071619D01*
X139478044Y-95071619D02*
X139089949Y-95071619D01*
X140719949Y-93441619D02*
X140719949Y-94761142D01*
X140719949Y-94761142D02*
X140797568Y-94916380D01*
X140797568Y-94916380D02*
X140875187Y-94994000D01*
X140875187Y-94994000D02*
X141030425Y-95071619D01*
X141030425Y-95071619D02*
X141340901Y-95071619D01*
X141340901Y-95071619D02*
X141496139Y-94994000D01*
X141496139Y-94994000D02*
X141573758Y-94916380D01*
X141573758Y-94916380D02*
X141651377Y-94761142D01*
X141651377Y-94761142D02*
X141651377Y-93441619D01*
X143203758Y-95071619D02*
X142427568Y-95071619D01*
X142427568Y-95071619D02*
X142427568Y-93441619D01*
X143747092Y-94217809D02*
X144290425Y-94217809D01*
X144523282Y-95071619D02*
X143747092Y-95071619D01*
X143747092Y-95071619D02*
X143747092Y-93441619D01*
X143747092Y-93441619D02*
X144523282Y-93441619D01*
X147395187Y-94916380D02*
X147317568Y-94994000D01*
X147317568Y-94994000D02*
X147084711Y-95071619D01*
X147084711Y-95071619D02*
X146929473Y-95071619D01*
X146929473Y-95071619D02*
X146696616Y-94994000D01*
X146696616Y-94994000D02*
X146541378Y-94838761D01*
X146541378Y-94838761D02*
X146463759Y-94683523D01*
X146463759Y-94683523D02*
X146386140Y-94373047D01*
X146386140Y-94373047D02*
X146386140Y-94140190D01*
X146386140Y-94140190D02*
X146463759Y-93829714D01*
X146463759Y-93829714D02*
X146541378Y-93674476D01*
X146541378Y-93674476D02*
X146696616Y-93519238D01*
X146696616Y-93519238D02*
X146929473Y-93441619D01*
X146929473Y-93441619D02*
X147084711Y-93441619D01*
X147084711Y-93441619D02*
X147317568Y-93519238D01*
X147317568Y-93519238D02*
X147395187Y-93596857D01*
X148404235Y-93441619D02*
X148714711Y-93441619D01*
X148714711Y-93441619D02*
X148869949Y-93519238D01*
X148869949Y-93519238D02*
X149025187Y-93674476D01*
X149025187Y-93674476D02*
X149102806Y-93984952D01*
X149102806Y-93984952D02*
X149102806Y-94528285D01*
X149102806Y-94528285D02*
X149025187Y-94838761D01*
X149025187Y-94838761D02*
X148869949Y-94994000D01*
X148869949Y-94994000D02*
X148714711Y-95071619D01*
X148714711Y-95071619D02*
X148404235Y-95071619D01*
X148404235Y-95071619D02*
X148248997Y-94994000D01*
X148248997Y-94994000D02*
X148093759Y-94838761D01*
X148093759Y-94838761D02*
X148016140Y-94528285D01*
X148016140Y-94528285D02*
X148016140Y-93984952D01*
X148016140Y-93984952D02*
X148093759Y-93674476D01*
X148093759Y-93674476D02*
X148248997Y-93519238D01*
X148248997Y-93519238D02*
X148404235Y-93441619D01*
X149801378Y-95071619D02*
X149801378Y-93441619D01*
X149801378Y-93441619D02*
X150732806Y-95071619D01*
X150732806Y-95071619D02*
X150732806Y-93441619D01*
X151508997Y-95071619D02*
X151508997Y-93441619D01*
X151508997Y-93441619D02*
X152440425Y-95071619D01*
X152440425Y-95071619D02*
X152440425Y-93441619D01*
X155001854Y-94217809D02*
X155234711Y-94295428D01*
X155234711Y-94295428D02*
X155312330Y-94373047D01*
X155312330Y-94373047D02*
X155389949Y-94528285D01*
X155389949Y-94528285D02*
X155389949Y-94761142D01*
X155389949Y-94761142D02*
X155312330Y-94916380D01*
X155312330Y-94916380D02*
X155234711Y-94994000D01*
X155234711Y-94994000D02*
X155079473Y-95071619D01*
X155079473Y-95071619D02*
X154458521Y-95071619D01*
X154458521Y-95071619D02*
X154458521Y-93441619D01*
X154458521Y-93441619D02*
X155001854Y-93441619D01*
X155001854Y-93441619D02*
X155157092Y-93519238D01*
X155157092Y-93519238D02*
X155234711Y-93596857D01*
X155234711Y-93596857D02*
X155312330Y-93752095D01*
X155312330Y-93752095D02*
X155312330Y-93907333D01*
X155312330Y-93907333D02*
X155234711Y-94062571D01*
X155234711Y-94062571D02*
X155157092Y-94140190D01*
X155157092Y-94140190D02*
X155001854Y-94217809D01*
X155001854Y-94217809D02*
X154458521Y-94217809D01*
X135519473Y-105071619D02*
X135519473Y-103441619D01*
X135519473Y-103441619D02*
X136062806Y-104605904D01*
X136062806Y-104605904D02*
X136606139Y-103441619D01*
X136606139Y-103441619D02*
X136606139Y-105071619D01*
X137692806Y-103441619D02*
X138003282Y-103441619D01*
X138003282Y-103441619D02*
X138158520Y-103519238D01*
X138158520Y-103519238D02*
X138313758Y-103674476D01*
X138313758Y-103674476D02*
X138391377Y-103984952D01*
X138391377Y-103984952D02*
X138391377Y-104528285D01*
X138391377Y-104528285D02*
X138313758Y-104838761D01*
X138313758Y-104838761D02*
X138158520Y-104994000D01*
X138158520Y-104994000D02*
X138003282Y-105071619D01*
X138003282Y-105071619D02*
X137692806Y-105071619D01*
X137692806Y-105071619D02*
X137537568Y-104994000D01*
X137537568Y-104994000D02*
X137382330Y-104838761D01*
X137382330Y-104838761D02*
X137304711Y-104528285D01*
X137304711Y-104528285D02*
X137304711Y-103984952D01*
X137304711Y-103984952D02*
X137382330Y-103674476D01*
X137382330Y-103674476D02*
X137537568Y-103519238D01*
X137537568Y-103519238D02*
X137692806Y-103441619D01*
X139089949Y-105071619D02*
X139089949Y-103441619D01*
X139089949Y-103441619D02*
X139478044Y-103441619D01*
X139478044Y-103441619D02*
X139710901Y-103519238D01*
X139710901Y-103519238D02*
X139866139Y-103674476D01*
X139866139Y-103674476D02*
X139943758Y-103829714D01*
X139943758Y-103829714D02*
X140021377Y-104140190D01*
X140021377Y-104140190D02*
X140021377Y-104373047D01*
X140021377Y-104373047D02*
X139943758Y-104683523D01*
X139943758Y-104683523D02*
X139866139Y-104838761D01*
X139866139Y-104838761D02*
X139710901Y-104994000D01*
X139710901Y-104994000D02*
X139478044Y-105071619D01*
X139478044Y-105071619D02*
X139089949Y-105071619D01*
X140719949Y-103441619D02*
X140719949Y-104761142D01*
X140719949Y-104761142D02*
X140797568Y-104916380D01*
X140797568Y-104916380D02*
X140875187Y-104994000D01*
X140875187Y-104994000D02*
X141030425Y-105071619D01*
X141030425Y-105071619D02*
X141340901Y-105071619D01*
X141340901Y-105071619D02*
X141496139Y-104994000D01*
X141496139Y-104994000D02*
X141573758Y-104916380D01*
X141573758Y-104916380D02*
X141651377Y-104761142D01*
X141651377Y-104761142D02*
X141651377Y-103441619D01*
X143203758Y-105071619D02*
X142427568Y-105071619D01*
X142427568Y-105071619D02*
X142427568Y-103441619D01*
X143747092Y-104217809D02*
X144290425Y-104217809D01*
X144523282Y-105071619D02*
X143747092Y-105071619D01*
X143747092Y-105071619D02*
X143747092Y-103441619D01*
X143747092Y-103441619D02*
X144523282Y-103441619D01*
X147395187Y-104916380D02*
X147317568Y-104994000D01*
X147317568Y-104994000D02*
X147084711Y-105071619D01*
X147084711Y-105071619D02*
X146929473Y-105071619D01*
X146929473Y-105071619D02*
X146696616Y-104994000D01*
X146696616Y-104994000D02*
X146541378Y-104838761D01*
X146541378Y-104838761D02*
X146463759Y-104683523D01*
X146463759Y-104683523D02*
X146386140Y-104373047D01*
X146386140Y-104373047D02*
X146386140Y-104140190D01*
X146386140Y-104140190D02*
X146463759Y-103829714D01*
X146463759Y-103829714D02*
X146541378Y-103674476D01*
X146541378Y-103674476D02*
X146696616Y-103519238D01*
X146696616Y-103519238D02*
X146929473Y-103441619D01*
X146929473Y-103441619D02*
X147084711Y-103441619D01*
X147084711Y-103441619D02*
X147317568Y-103519238D01*
X147317568Y-103519238D02*
X147395187Y-103596857D01*
X148404235Y-103441619D02*
X148714711Y-103441619D01*
X148714711Y-103441619D02*
X148869949Y-103519238D01*
X148869949Y-103519238D02*
X149025187Y-103674476D01*
X149025187Y-103674476D02*
X149102806Y-103984952D01*
X149102806Y-103984952D02*
X149102806Y-104528285D01*
X149102806Y-104528285D02*
X149025187Y-104838761D01*
X149025187Y-104838761D02*
X148869949Y-104994000D01*
X148869949Y-104994000D02*
X148714711Y-105071619D01*
X148714711Y-105071619D02*
X148404235Y-105071619D01*
X148404235Y-105071619D02*
X148248997Y-104994000D01*
X148248997Y-104994000D02*
X148093759Y-104838761D01*
X148093759Y-104838761D02*
X148016140Y-104528285D01*
X148016140Y-104528285D02*
X148016140Y-103984952D01*
X148016140Y-103984952D02*
X148093759Y-103674476D01*
X148093759Y-103674476D02*
X148248997Y-103519238D01*
X148248997Y-103519238D02*
X148404235Y-103441619D01*
X149801378Y-105071619D02*
X149801378Y-103441619D01*
X149801378Y-103441619D02*
X150732806Y-105071619D01*
X150732806Y-105071619D02*
X150732806Y-103441619D01*
X151508997Y-105071619D02*
X151508997Y-103441619D01*
X151508997Y-103441619D02*
X152440425Y-105071619D01*
X152440425Y-105071619D02*
X152440425Y-103441619D01*
X155389949Y-104916380D02*
X155312330Y-104994000D01*
X155312330Y-104994000D02*
X155079473Y-105071619D01*
X155079473Y-105071619D02*
X154924235Y-105071619D01*
X154924235Y-105071619D02*
X154691378Y-104994000D01*
X154691378Y-104994000D02*
X154536140Y-104838761D01*
X154536140Y-104838761D02*
X154458521Y-104683523D01*
X154458521Y-104683523D02*
X154380902Y-104373047D01*
X154380902Y-104373047D02*
X154380902Y-104140190D01*
X154380902Y-104140190D02*
X154458521Y-103829714D01*
X154458521Y-103829714D02*
X154536140Y-103674476D01*
X154536140Y-103674476D02*
X154691378Y-103519238D01*
X154691378Y-103519238D02*
X154924235Y-103441619D01*
X154924235Y-103441619D02*
X155079473Y-103441619D01*
X155079473Y-103441619D02*
X155312330Y-103519238D01*
X155312330Y-103519238D02*
X155389949Y-103596857D01*
X135519473Y-115071519D02*
X135519473Y-113441519D01*
X135519473Y-113441519D02*
X136062806Y-114605804D01*
X136062806Y-114605804D02*
X136606139Y-113441519D01*
X136606139Y-113441519D02*
X136606139Y-115071519D01*
X137692806Y-113441519D02*
X138003282Y-113441519D01*
X138003282Y-113441519D02*
X138158520Y-113519138D01*
X138158520Y-113519138D02*
X138313758Y-113674376D01*
X138313758Y-113674376D02*
X138391377Y-113984852D01*
X138391377Y-113984852D02*
X138391377Y-114528185D01*
X138391377Y-114528185D02*
X138313758Y-114838661D01*
X138313758Y-114838661D02*
X138158520Y-114993900D01*
X138158520Y-114993900D02*
X138003282Y-115071519D01*
X138003282Y-115071519D02*
X137692806Y-115071519D01*
X137692806Y-115071519D02*
X137537568Y-114993900D01*
X137537568Y-114993900D02*
X137382330Y-114838661D01*
X137382330Y-114838661D02*
X137304711Y-114528185D01*
X137304711Y-114528185D02*
X137304711Y-113984852D01*
X137304711Y-113984852D02*
X137382330Y-113674376D01*
X137382330Y-113674376D02*
X137537568Y-113519138D01*
X137537568Y-113519138D02*
X137692806Y-113441519D01*
X139089949Y-115071519D02*
X139089949Y-113441519D01*
X139089949Y-113441519D02*
X139478044Y-113441519D01*
X139478044Y-113441519D02*
X139710901Y-113519138D01*
X139710901Y-113519138D02*
X139866139Y-113674376D01*
X139866139Y-113674376D02*
X139943758Y-113829614D01*
X139943758Y-113829614D02*
X140021377Y-114140090D01*
X140021377Y-114140090D02*
X140021377Y-114372947D01*
X140021377Y-114372947D02*
X139943758Y-114683423D01*
X139943758Y-114683423D02*
X139866139Y-114838661D01*
X139866139Y-114838661D02*
X139710901Y-114993900D01*
X139710901Y-114993900D02*
X139478044Y-115071519D01*
X139478044Y-115071519D02*
X139089949Y-115071519D01*
X140719949Y-113441519D02*
X140719949Y-114761042D01*
X140719949Y-114761042D02*
X140797568Y-114916280D01*
X140797568Y-114916280D02*
X140875187Y-114993900D01*
X140875187Y-114993900D02*
X141030425Y-115071519D01*
X141030425Y-115071519D02*
X141340901Y-115071519D01*
X141340901Y-115071519D02*
X141496139Y-114993900D01*
X141496139Y-114993900D02*
X141573758Y-114916280D01*
X141573758Y-114916280D02*
X141651377Y-114761042D01*
X141651377Y-114761042D02*
X141651377Y-113441519D01*
X143203758Y-115071519D02*
X142427568Y-115071519D01*
X142427568Y-115071519D02*
X142427568Y-113441519D01*
X143747092Y-114217709D02*
X144290425Y-114217709D01*
X144523282Y-115071519D02*
X143747092Y-115071519D01*
X143747092Y-115071519D02*
X143747092Y-113441519D01*
X143747092Y-113441519D02*
X144523282Y-113441519D01*
X147395187Y-114916280D02*
X147317568Y-114993900D01*
X147317568Y-114993900D02*
X147084711Y-115071519D01*
X147084711Y-115071519D02*
X146929473Y-115071519D01*
X146929473Y-115071519D02*
X146696616Y-114993900D01*
X146696616Y-114993900D02*
X146541378Y-114838661D01*
X146541378Y-114838661D02*
X146463759Y-114683423D01*
X146463759Y-114683423D02*
X146386140Y-114372947D01*
X146386140Y-114372947D02*
X146386140Y-114140090D01*
X146386140Y-114140090D02*
X146463759Y-113829614D01*
X146463759Y-113829614D02*
X146541378Y-113674376D01*
X146541378Y-113674376D02*
X146696616Y-113519138D01*
X146696616Y-113519138D02*
X146929473Y-113441519D01*
X146929473Y-113441519D02*
X147084711Y-113441519D01*
X147084711Y-113441519D02*
X147317568Y-113519138D01*
X147317568Y-113519138D02*
X147395187Y-113596757D01*
X148404235Y-113441519D02*
X148714711Y-113441519D01*
X148714711Y-113441519D02*
X148869949Y-113519138D01*
X148869949Y-113519138D02*
X149025187Y-113674376D01*
X149025187Y-113674376D02*
X149102806Y-113984852D01*
X149102806Y-113984852D02*
X149102806Y-114528185D01*
X149102806Y-114528185D02*
X149025187Y-114838661D01*
X149025187Y-114838661D02*
X148869949Y-114993900D01*
X148869949Y-114993900D02*
X148714711Y-115071519D01*
X148714711Y-115071519D02*
X148404235Y-115071519D01*
X148404235Y-115071519D02*
X148248997Y-114993900D01*
X148248997Y-114993900D02*
X148093759Y-114838661D01*
X148093759Y-114838661D02*
X148016140Y-114528185D01*
X148016140Y-114528185D02*
X148016140Y-113984852D01*
X148016140Y-113984852D02*
X148093759Y-113674376D01*
X148093759Y-113674376D02*
X148248997Y-113519138D01*
X148248997Y-113519138D02*
X148404235Y-113441519D01*
X149801378Y-115071519D02*
X149801378Y-113441519D01*
X149801378Y-113441519D02*
X150732806Y-115071519D01*
X150732806Y-115071519D02*
X150732806Y-113441519D01*
X151508997Y-115071519D02*
X151508997Y-113441519D01*
X151508997Y-113441519D02*
X152440425Y-115071519D01*
X152440425Y-115071519D02*
X152440425Y-113441519D01*
X154458521Y-115071519D02*
X154458521Y-113441519D01*
X154458521Y-113441519D02*
X154846616Y-113441519D01*
X154846616Y-113441519D02*
X155079473Y-113519138D01*
X155079473Y-113519138D02*
X155234711Y-113674376D01*
X155234711Y-113674376D02*
X155312330Y-113829614D01*
X155312330Y-113829614D02*
X155389949Y-114140090D01*
X155389949Y-114140090D02*
X155389949Y-114372947D01*
X155389949Y-114372947D02*
X155312330Y-114683423D01*
X155312330Y-114683423D02*
X155234711Y-114838661D01*
X155234711Y-114838661D02*
X155079473Y-114993900D01*
X155079473Y-114993900D02*
X154846616Y-115071519D01*
X154846616Y-115071519D02*
X154458521Y-115071519D01*
X161519673Y-85071619D02*
X161519673Y-83441619D01*
X161519673Y-83441619D02*
X162063006Y-84605904D01*
X162063006Y-84605904D02*
X162606339Y-83441619D01*
X162606339Y-83441619D02*
X162606339Y-85071619D01*
X163693006Y-83441619D02*
X164003482Y-83441619D01*
X164003482Y-83441619D02*
X164158720Y-83519238D01*
X164158720Y-83519238D02*
X164313958Y-83674476D01*
X164313958Y-83674476D02*
X164391577Y-83984952D01*
X164391577Y-83984952D02*
X164391577Y-84528285D01*
X164391577Y-84528285D02*
X164313958Y-84838761D01*
X164313958Y-84838761D02*
X164158720Y-84994000D01*
X164158720Y-84994000D02*
X164003482Y-85071619D01*
X164003482Y-85071619D02*
X163693006Y-85071619D01*
X163693006Y-85071619D02*
X163537768Y-84994000D01*
X163537768Y-84994000D02*
X163382530Y-84838761D01*
X163382530Y-84838761D02*
X163304911Y-84528285D01*
X163304911Y-84528285D02*
X163304911Y-83984952D01*
X163304911Y-83984952D02*
X163382530Y-83674476D01*
X163382530Y-83674476D02*
X163537768Y-83519238D01*
X163537768Y-83519238D02*
X163693006Y-83441619D01*
X165090149Y-85071619D02*
X165090149Y-83441619D01*
X165090149Y-83441619D02*
X165478244Y-83441619D01*
X165478244Y-83441619D02*
X165711101Y-83519238D01*
X165711101Y-83519238D02*
X165866339Y-83674476D01*
X165866339Y-83674476D02*
X165943958Y-83829714D01*
X165943958Y-83829714D02*
X166021577Y-84140190D01*
X166021577Y-84140190D02*
X166021577Y-84373047D01*
X166021577Y-84373047D02*
X165943958Y-84683523D01*
X165943958Y-84683523D02*
X165866339Y-84838761D01*
X165866339Y-84838761D02*
X165711101Y-84994000D01*
X165711101Y-84994000D02*
X165478244Y-85071619D01*
X165478244Y-85071619D02*
X165090149Y-85071619D01*
X166720149Y-83441619D02*
X166720149Y-84761142D01*
X166720149Y-84761142D02*
X166797768Y-84916380D01*
X166797768Y-84916380D02*
X166875387Y-84994000D01*
X166875387Y-84994000D02*
X167030625Y-85071619D01*
X167030625Y-85071619D02*
X167341101Y-85071619D01*
X167341101Y-85071619D02*
X167496339Y-84994000D01*
X167496339Y-84994000D02*
X167573958Y-84916380D01*
X167573958Y-84916380D02*
X167651577Y-84761142D01*
X167651577Y-84761142D02*
X167651577Y-83441619D01*
X169203958Y-85071619D02*
X168427768Y-85071619D01*
X168427768Y-85071619D02*
X168427768Y-83441619D01*
X169747292Y-84217809D02*
X170290625Y-84217809D01*
X170523482Y-85071619D02*
X169747292Y-85071619D01*
X169747292Y-85071619D02*
X169747292Y-83441619D01*
X169747292Y-83441619D02*
X170523482Y-83441619D01*
X173395387Y-84916380D02*
X173317768Y-84994000D01*
X173317768Y-84994000D02*
X173084911Y-85071619D01*
X173084911Y-85071619D02*
X172929673Y-85071619D01*
X172929673Y-85071619D02*
X172696816Y-84994000D01*
X172696816Y-84994000D02*
X172541578Y-84838761D01*
X172541578Y-84838761D02*
X172463959Y-84683523D01*
X172463959Y-84683523D02*
X172386340Y-84373047D01*
X172386340Y-84373047D02*
X172386340Y-84140190D01*
X172386340Y-84140190D02*
X172463959Y-83829714D01*
X172463959Y-83829714D02*
X172541578Y-83674476D01*
X172541578Y-83674476D02*
X172696816Y-83519238D01*
X172696816Y-83519238D02*
X172929673Y-83441619D01*
X172929673Y-83441619D02*
X173084911Y-83441619D01*
X173084911Y-83441619D02*
X173317768Y-83519238D01*
X173317768Y-83519238D02*
X173395387Y-83596857D01*
X174404435Y-83441619D02*
X174714911Y-83441619D01*
X174714911Y-83441619D02*
X174870149Y-83519238D01*
X174870149Y-83519238D02*
X175025387Y-83674476D01*
X175025387Y-83674476D02*
X175103006Y-83984952D01*
X175103006Y-83984952D02*
X175103006Y-84528285D01*
X175103006Y-84528285D02*
X175025387Y-84838761D01*
X175025387Y-84838761D02*
X174870149Y-84994000D01*
X174870149Y-84994000D02*
X174714911Y-85071619D01*
X174714911Y-85071619D02*
X174404435Y-85071619D01*
X174404435Y-85071619D02*
X174249197Y-84994000D01*
X174249197Y-84994000D02*
X174093959Y-84838761D01*
X174093959Y-84838761D02*
X174016340Y-84528285D01*
X174016340Y-84528285D02*
X174016340Y-83984952D01*
X174016340Y-83984952D02*
X174093959Y-83674476D01*
X174093959Y-83674476D02*
X174249197Y-83519238D01*
X174249197Y-83519238D02*
X174404435Y-83441619D01*
X175801578Y-85071619D02*
X175801578Y-83441619D01*
X175801578Y-83441619D02*
X176733006Y-85071619D01*
X176733006Y-85071619D02*
X176733006Y-83441619D01*
X177509197Y-85071619D02*
X177509197Y-83441619D01*
X177509197Y-83441619D02*
X178440625Y-85071619D01*
X178440625Y-85071619D02*
X178440625Y-83441619D01*
X180458721Y-84217809D02*
X181002054Y-84217809D01*
X181234911Y-85071619D02*
X180458721Y-85071619D01*
X180458721Y-85071619D02*
X180458721Y-83441619D01*
X180458721Y-83441619D02*
X181234911Y-83441619D01*
X161519673Y-95071619D02*
X161519673Y-93441619D01*
X161519673Y-93441619D02*
X162063006Y-94605904D01*
X162063006Y-94605904D02*
X162606339Y-93441619D01*
X162606339Y-93441619D02*
X162606339Y-95071619D01*
X163693006Y-93441619D02*
X164003482Y-93441619D01*
X164003482Y-93441619D02*
X164158720Y-93519238D01*
X164158720Y-93519238D02*
X164313958Y-93674476D01*
X164313958Y-93674476D02*
X164391577Y-93984952D01*
X164391577Y-93984952D02*
X164391577Y-94528285D01*
X164391577Y-94528285D02*
X164313958Y-94838761D01*
X164313958Y-94838761D02*
X164158720Y-94994000D01*
X164158720Y-94994000D02*
X164003482Y-95071619D01*
X164003482Y-95071619D02*
X163693006Y-95071619D01*
X163693006Y-95071619D02*
X163537768Y-94994000D01*
X163537768Y-94994000D02*
X163382530Y-94838761D01*
X163382530Y-94838761D02*
X163304911Y-94528285D01*
X163304911Y-94528285D02*
X163304911Y-93984952D01*
X163304911Y-93984952D02*
X163382530Y-93674476D01*
X163382530Y-93674476D02*
X163537768Y-93519238D01*
X163537768Y-93519238D02*
X163693006Y-93441619D01*
X165090149Y-95071619D02*
X165090149Y-93441619D01*
X165090149Y-93441619D02*
X165478244Y-93441619D01*
X165478244Y-93441619D02*
X165711101Y-93519238D01*
X165711101Y-93519238D02*
X165866339Y-93674476D01*
X165866339Y-93674476D02*
X165943958Y-93829714D01*
X165943958Y-93829714D02*
X166021577Y-94140190D01*
X166021577Y-94140190D02*
X166021577Y-94373047D01*
X166021577Y-94373047D02*
X165943958Y-94683523D01*
X165943958Y-94683523D02*
X165866339Y-94838761D01*
X165866339Y-94838761D02*
X165711101Y-94994000D01*
X165711101Y-94994000D02*
X165478244Y-95071619D01*
X165478244Y-95071619D02*
X165090149Y-95071619D01*
X166720149Y-93441619D02*
X166720149Y-94761142D01*
X166720149Y-94761142D02*
X166797768Y-94916380D01*
X166797768Y-94916380D02*
X166875387Y-94994000D01*
X166875387Y-94994000D02*
X167030625Y-95071619D01*
X167030625Y-95071619D02*
X167341101Y-95071619D01*
X167341101Y-95071619D02*
X167496339Y-94994000D01*
X167496339Y-94994000D02*
X167573958Y-94916380D01*
X167573958Y-94916380D02*
X167651577Y-94761142D01*
X167651577Y-94761142D02*
X167651577Y-93441619D01*
X169203958Y-95071619D02*
X168427768Y-95071619D01*
X168427768Y-95071619D02*
X168427768Y-93441619D01*
X169747292Y-94217809D02*
X170290625Y-94217809D01*
X170523482Y-95071619D02*
X169747292Y-95071619D01*
X169747292Y-95071619D02*
X169747292Y-93441619D01*
X169747292Y-93441619D02*
X170523482Y-93441619D01*
X173395387Y-94916380D02*
X173317768Y-94994000D01*
X173317768Y-94994000D02*
X173084911Y-95071619D01*
X173084911Y-95071619D02*
X172929673Y-95071619D01*
X172929673Y-95071619D02*
X172696816Y-94994000D01*
X172696816Y-94994000D02*
X172541578Y-94838761D01*
X172541578Y-94838761D02*
X172463959Y-94683523D01*
X172463959Y-94683523D02*
X172386340Y-94373047D01*
X172386340Y-94373047D02*
X172386340Y-94140190D01*
X172386340Y-94140190D02*
X172463959Y-93829714D01*
X172463959Y-93829714D02*
X172541578Y-93674476D01*
X172541578Y-93674476D02*
X172696816Y-93519238D01*
X172696816Y-93519238D02*
X172929673Y-93441619D01*
X172929673Y-93441619D02*
X173084911Y-93441619D01*
X173084911Y-93441619D02*
X173317768Y-93519238D01*
X173317768Y-93519238D02*
X173395387Y-93596857D01*
X174404435Y-93441619D02*
X174714911Y-93441619D01*
X174714911Y-93441619D02*
X174870149Y-93519238D01*
X174870149Y-93519238D02*
X175025387Y-93674476D01*
X175025387Y-93674476D02*
X175103006Y-93984952D01*
X175103006Y-93984952D02*
X175103006Y-94528285D01*
X175103006Y-94528285D02*
X175025387Y-94838761D01*
X175025387Y-94838761D02*
X174870149Y-94994000D01*
X174870149Y-94994000D02*
X174714911Y-95071619D01*
X174714911Y-95071619D02*
X174404435Y-95071619D01*
X174404435Y-95071619D02*
X174249197Y-94994000D01*
X174249197Y-94994000D02*
X174093959Y-94838761D01*
X174093959Y-94838761D02*
X174016340Y-94528285D01*
X174016340Y-94528285D02*
X174016340Y-93984952D01*
X174016340Y-93984952D02*
X174093959Y-93674476D01*
X174093959Y-93674476D02*
X174249197Y-93519238D01*
X174249197Y-93519238D02*
X174404435Y-93441619D01*
X175801578Y-95071619D02*
X175801578Y-93441619D01*
X175801578Y-93441619D02*
X176733006Y-95071619D01*
X176733006Y-95071619D02*
X176733006Y-93441619D01*
X177509197Y-95071619D02*
X177509197Y-93441619D01*
X177509197Y-93441619D02*
X178440625Y-95071619D01*
X178440625Y-95071619D02*
X178440625Y-93441619D01*
X181002054Y-94217809D02*
X180458721Y-94217809D01*
X180458721Y-95071619D02*
X180458721Y-93441619D01*
X180458721Y-93441619D02*
X181234911Y-93441619D01*
X161519673Y-105071619D02*
X161519673Y-103441619D01*
X161519673Y-103441619D02*
X162063006Y-104605904D01*
X162063006Y-104605904D02*
X162606339Y-103441619D01*
X162606339Y-103441619D02*
X162606339Y-105071619D01*
X163693006Y-103441619D02*
X164003482Y-103441619D01*
X164003482Y-103441619D02*
X164158720Y-103519238D01*
X164158720Y-103519238D02*
X164313958Y-103674476D01*
X164313958Y-103674476D02*
X164391577Y-103984952D01*
X164391577Y-103984952D02*
X164391577Y-104528285D01*
X164391577Y-104528285D02*
X164313958Y-104838761D01*
X164313958Y-104838761D02*
X164158720Y-104994000D01*
X164158720Y-104994000D02*
X164003482Y-105071619D01*
X164003482Y-105071619D02*
X163693006Y-105071619D01*
X163693006Y-105071619D02*
X163537768Y-104994000D01*
X163537768Y-104994000D02*
X163382530Y-104838761D01*
X163382530Y-104838761D02*
X163304911Y-104528285D01*
X163304911Y-104528285D02*
X163304911Y-103984952D01*
X163304911Y-103984952D02*
X163382530Y-103674476D01*
X163382530Y-103674476D02*
X163537768Y-103519238D01*
X163537768Y-103519238D02*
X163693006Y-103441619D01*
X165090149Y-105071619D02*
X165090149Y-103441619D01*
X165090149Y-103441619D02*
X165478244Y-103441619D01*
X165478244Y-103441619D02*
X165711101Y-103519238D01*
X165711101Y-103519238D02*
X165866339Y-103674476D01*
X165866339Y-103674476D02*
X165943958Y-103829714D01*
X165943958Y-103829714D02*
X166021577Y-104140190D01*
X166021577Y-104140190D02*
X166021577Y-104373047D01*
X166021577Y-104373047D02*
X165943958Y-104683523D01*
X165943958Y-104683523D02*
X165866339Y-104838761D01*
X165866339Y-104838761D02*
X165711101Y-104994000D01*
X165711101Y-104994000D02*
X165478244Y-105071619D01*
X165478244Y-105071619D02*
X165090149Y-105071619D01*
X166720149Y-103441619D02*
X166720149Y-104761142D01*
X166720149Y-104761142D02*
X166797768Y-104916380D01*
X166797768Y-104916380D02*
X166875387Y-104994000D01*
X166875387Y-104994000D02*
X167030625Y-105071619D01*
X167030625Y-105071619D02*
X167341101Y-105071619D01*
X167341101Y-105071619D02*
X167496339Y-104994000D01*
X167496339Y-104994000D02*
X167573958Y-104916380D01*
X167573958Y-104916380D02*
X167651577Y-104761142D01*
X167651577Y-104761142D02*
X167651577Y-103441619D01*
X169203958Y-105071619D02*
X168427768Y-105071619D01*
X168427768Y-105071619D02*
X168427768Y-103441619D01*
X169747292Y-104217809D02*
X170290625Y-104217809D01*
X170523482Y-105071619D02*
X169747292Y-105071619D01*
X169747292Y-105071619D02*
X169747292Y-103441619D01*
X169747292Y-103441619D02*
X170523482Y-103441619D01*
X173395387Y-104916380D02*
X173317768Y-104994000D01*
X173317768Y-104994000D02*
X173084911Y-105071619D01*
X173084911Y-105071619D02*
X172929673Y-105071619D01*
X172929673Y-105071619D02*
X172696816Y-104994000D01*
X172696816Y-104994000D02*
X172541578Y-104838761D01*
X172541578Y-104838761D02*
X172463959Y-104683523D01*
X172463959Y-104683523D02*
X172386340Y-104373047D01*
X172386340Y-104373047D02*
X172386340Y-104140190D01*
X172386340Y-104140190D02*
X172463959Y-103829714D01*
X172463959Y-103829714D02*
X172541578Y-103674476D01*
X172541578Y-103674476D02*
X172696816Y-103519238D01*
X172696816Y-103519238D02*
X172929673Y-103441619D01*
X172929673Y-103441619D02*
X173084911Y-103441619D01*
X173084911Y-103441619D02*
X173317768Y-103519238D01*
X173317768Y-103519238D02*
X173395387Y-103596857D01*
X174404435Y-103441619D02*
X174714911Y-103441619D01*
X174714911Y-103441619D02*
X174870149Y-103519238D01*
X174870149Y-103519238D02*
X175025387Y-103674476D01*
X175025387Y-103674476D02*
X175103006Y-103984952D01*
X175103006Y-103984952D02*
X175103006Y-104528285D01*
X175103006Y-104528285D02*
X175025387Y-104838761D01*
X175025387Y-104838761D02*
X174870149Y-104994000D01*
X174870149Y-104994000D02*
X174714911Y-105071619D01*
X174714911Y-105071619D02*
X174404435Y-105071619D01*
X174404435Y-105071619D02*
X174249197Y-104994000D01*
X174249197Y-104994000D02*
X174093959Y-104838761D01*
X174093959Y-104838761D02*
X174016340Y-104528285D01*
X174016340Y-104528285D02*
X174016340Y-103984952D01*
X174016340Y-103984952D02*
X174093959Y-103674476D01*
X174093959Y-103674476D02*
X174249197Y-103519238D01*
X174249197Y-103519238D02*
X174404435Y-103441619D01*
X175801578Y-105071619D02*
X175801578Y-103441619D01*
X175801578Y-103441619D02*
X176733006Y-105071619D01*
X176733006Y-105071619D02*
X176733006Y-103441619D01*
X177509197Y-105071619D02*
X177509197Y-103441619D01*
X177509197Y-103441619D02*
X178440625Y-105071619D01*
X178440625Y-105071619D02*
X178440625Y-103441619D01*
X181312530Y-103519238D02*
X181157292Y-103441619D01*
X181157292Y-103441619D02*
X180924435Y-103441619D01*
X180924435Y-103441619D02*
X180691578Y-103519238D01*
X180691578Y-103519238D02*
X180536340Y-103674476D01*
X180536340Y-103674476D02*
X180458721Y-103829714D01*
X180458721Y-103829714D02*
X180381102Y-104140190D01*
X180381102Y-104140190D02*
X180381102Y-104373047D01*
X180381102Y-104373047D02*
X180458721Y-104683523D01*
X180458721Y-104683523D02*
X180536340Y-104838761D01*
X180536340Y-104838761D02*
X180691578Y-104994000D01*
X180691578Y-104994000D02*
X180924435Y-105071619D01*
X180924435Y-105071619D02*
X181079673Y-105071619D01*
X181079673Y-105071619D02*
X181312530Y-104994000D01*
X181312530Y-104994000D02*
X181390149Y-104916380D01*
X181390149Y-104916380D02*
X181390149Y-104373047D01*
X181390149Y-104373047D02*
X181079673Y-104373047D01*
X161519673Y-115071519D02*
X161519673Y-113441519D01*
X161519673Y-113441519D02*
X162063006Y-114605804D01*
X162063006Y-114605804D02*
X162606339Y-113441519D01*
X162606339Y-113441519D02*
X162606339Y-115071519D01*
X163693006Y-113441519D02*
X164003482Y-113441519D01*
X164003482Y-113441519D02*
X164158720Y-113519138D01*
X164158720Y-113519138D02*
X164313958Y-113674376D01*
X164313958Y-113674376D02*
X164391577Y-113984852D01*
X164391577Y-113984852D02*
X164391577Y-114528185D01*
X164391577Y-114528185D02*
X164313958Y-114838661D01*
X164313958Y-114838661D02*
X164158720Y-114993900D01*
X164158720Y-114993900D02*
X164003482Y-115071519D01*
X164003482Y-115071519D02*
X163693006Y-115071519D01*
X163693006Y-115071519D02*
X163537768Y-114993900D01*
X163537768Y-114993900D02*
X163382530Y-114838661D01*
X163382530Y-114838661D02*
X163304911Y-114528185D01*
X163304911Y-114528185D02*
X163304911Y-113984852D01*
X163304911Y-113984852D02*
X163382530Y-113674376D01*
X163382530Y-113674376D02*
X163537768Y-113519138D01*
X163537768Y-113519138D02*
X163693006Y-113441519D01*
X165090149Y-115071519D02*
X165090149Y-113441519D01*
X165090149Y-113441519D02*
X165478244Y-113441519D01*
X165478244Y-113441519D02*
X165711101Y-113519138D01*
X165711101Y-113519138D02*
X165866339Y-113674376D01*
X165866339Y-113674376D02*
X165943958Y-113829614D01*
X165943958Y-113829614D02*
X166021577Y-114140090D01*
X166021577Y-114140090D02*
X166021577Y-114372947D01*
X166021577Y-114372947D02*
X165943958Y-114683423D01*
X165943958Y-114683423D02*
X165866339Y-114838661D01*
X165866339Y-114838661D02*
X165711101Y-114993900D01*
X165711101Y-114993900D02*
X165478244Y-115071519D01*
X165478244Y-115071519D02*
X165090149Y-115071519D01*
X166720149Y-113441519D02*
X166720149Y-114761042D01*
X166720149Y-114761042D02*
X166797768Y-114916280D01*
X166797768Y-114916280D02*
X166875387Y-114993900D01*
X166875387Y-114993900D02*
X167030625Y-115071519D01*
X167030625Y-115071519D02*
X167341101Y-115071519D01*
X167341101Y-115071519D02*
X167496339Y-114993900D01*
X167496339Y-114993900D02*
X167573958Y-114916280D01*
X167573958Y-114916280D02*
X167651577Y-114761042D01*
X167651577Y-114761042D02*
X167651577Y-113441519D01*
X169203958Y-115071519D02*
X168427768Y-115071519D01*
X168427768Y-115071519D02*
X168427768Y-113441519D01*
X169747292Y-114217709D02*
X170290625Y-114217709D01*
X170523482Y-115071519D02*
X169747292Y-115071519D01*
X169747292Y-115071519D02*
X169747292Y-113441519D01*
X169747292Y-113441519D02*
X170523482Y-113441519D01*
X173395387Y-114916280D02*
X173317768Y-114993900D01*
X173317768Y-114993900D02*
X173084911Y-115071519D01*
X173084911Y-115071519D02*
X172929673Y-115071519D01*
X172929673Y-115071519D02*
X172696816Y-114993900D01*
X172696816Y-114993900D02*
X172541578Y-114838661D01*
X172541578Y-114838661D02*
X172463959Y-114683423D01*
X172463959Y-114683423D02*
X172386340Y-114372947D01*
X172386340Y-114372947D02*
X172386340Y-114140090D01*
X172386340Y-114140090D02*
X172463959Y-113829614D01*
X172463959Y-113829614D02*
X172541578Y-113674376D01*
X172541578Y-113674376D02*
X172696816Y-113519138D01*
X172696816Y-113519138D02*
X172929673Y-113441519D01*
X172929673Y-113441519D02*
X173084911Y-113441519D01*
X173084911Y-113441519D02*
X173317768Y-113519138D01*
X173317768Y-113519138D02*
X173395387Y-113596757D01*
X174404435Y-113441519D02*
X174714911Y-113441519D01*
X174714911Y-113441519D02*
X174870149Y-113519138D01*
X174870149Y-113519138D02*
X175025387Y-113674376D01*
X175025387Y-113674376D02*
X175103006Y-113984852D01*
X175103006Y-113984852D02*
X175103006Y-114528185D01*
X175103006Y-114528185D02*
X175025387Y-114838661D01*
X175025387Y-114838661D02*
X174870149Y-114993900D01*
X174870149Y-114993900D02*
X174714911Y-115071519D01*
X174714911Y-115071519D02*
X174404435Y-115071519D01*
X174404435Y-115071519D02*
X174249197Y-114993900D01*
X174249197Y-114993900D02*
X174093959Y-114838661D01*
X174093959Y-114838661D02*
X174016340Y-114528185D01*
X174016340Y-114528185D02*
X174016340Y-113984852D01*
X174016340Y-113984852D02*
X174093959Y-113674376D01*
X174093959Y-113674376D02*
X174249197Y-113519138D01*
X174249197Y-113519138D02*
X174404435Y-113441519D01*
X175801578Y-115071519D02*
X175801578Y-113441519D01*
X175801578Y-113441519D02*
X176733006Y-115071519D01*
X176733006Y-115071519D02*
X176733006Y-113441519D01*
X177509197Y-115071519D02*
X177509197Y-113441519D01*
X177509197Y-113441519D02*
X178440625Y-115071519D01*
X178440625Y-115071519D02*
X178440625Y-113441519D01*
X180458721Y-115071519D02*
X180458721Y-113441519D01*
X180458721Y-114217709D02*
X181390149Y-114217709D01*
X181390149Y-115071519D02*
X181390149Y-113441519D01*
D14*
X120524434Y-105438760D02*
X120959863Y-105438760D01*
X120437348Y-105700017D02*
X120742148Y-104785617D01*
X120742148Y-104785617D02*
X121046948Y-105700017D01*
X121874262Y-105700017D02*
X121569462Y-105264589D01*
X121351748Y-105700017D02*
X121351748Y-104785617D01*
X121351748Y-104785617D02*
X121700091Y-104785617D01*
X121700091Y-104785617D02*
X121787176Y-104829160D01*
X121787176Y-104829160D02*
X121830719Y-104872703D01*
X121830719Y-104872703D02*
X121874262Y-104959789D01*
X121874262Y-104959789D02*
X121874262Y-105090417D01*
X121874262Y-105090417D02*
X121830719Y-105177503D01*
X121830719Y-105177503D02*
X121787176Y-105221046D01*
X121787176Y-105221046D02*
X121700091Y-105264589D01*
X121700091Y-105264589D02*
X121351748Y-105264589D01*
X122266148Y-105700017D02*
X122266148Y-104785617D01*
X122266148Y-104785617D02*
X122483862Y-104785617D01*
X122483862Y-104785617D02*
X122614491Y-104829160D01*
X122614491Y-104829160D02*
X122701576Y-104916246D01*
X122701576Y-104916246D02*
X122745119Y-105003332D01*
X122745119Y-105003332D02*
X122788662Y-105177503D01*
X122788662Y-105177503D02*
X122788662Y-105308132D01*
X122788662Y-105308132D02*
X122745119Y-105482303D01*
X122745119Y-105482303D02*
X122701576Y-105569389D01*
X122701576Y-105569389D02*
X122614491Y-105656475D01*
X122614491Y-105656475D02*
X122483862Y-105700017D01*
X122483862Y-105700017D02*
X122266148Y-105700017D01*
X123180548Y-104785617D02*
X123180548Y-105525846D01*
X123180548Y-105525846D02*
X123224091Y-105612932D01*
X123224091Y-105612932D02*
X123267634Y-105656475D01*
X123267634Y-105656475D02*
X123354719Y-105700017D01*
X123354719Y-105700017D02*
X123528891Y-105700017D01*
X123528891Y-105700017D02*
X123615976Y-105656475D01*
X123615976Y-105656475D02*
X123659519Y-105612932D01*
X123659519Y-105612932D02*
X123703062Y-105525846D01*
X123703062Y-105525846D02*
X123703062Y-104785617D01*
X124138491Y-105700017D02*
X124138491Y-104785617D01*
X124573920Y-105700017D02*
X124573920Y-104785617D01*
X124573920Y-104785617D02*
X125096434Y-105700017D01*
X125096434Y-105700017D02*
X125096434Y-104785617D01*
X125706034Y-104785617D02*
X125880206Y-104785617D01*
X125880206Y-104785617D02*
X125967291Y-104829160D01*
X125967291Y-104829160D02*
X126054377Y-104916246D01*
X126054377Y-104916246D02*
X126097920Y-105090417D01*
X126097920Y-105090417D02*
X126097920Y-105395217D01*
X126097920Y-105395217D02*
X126054377Y-105569389D01*
X126054377Y-105569389D02*
X125967291Y-105656475D01*
X125967291Y-105656475D02*
X125880206Y-105700017D01*
X125880206Y-105700017D02*
X125706034Y-105700017D01*
X125706034Y-105700017D02*
X125618949Y-105656475D01*
X125618949Y-105656475D02*
X125531863Y-105569389D01*
X125531863Y-105569389D02*
X125488320Y-105395217D01*
X125488320Y-105395217D02*
X125488320Y-105090417D01*
X125488320Y-105090417D02*
X125531863Y-104916246D01*
X125531863Y-104916246D02*
X125618949Y-104829160D01*
X125618949Y-104829160D02*
X125706034Y-104785617D01*
X108041877Y-73957917D02*
X108041877Y-74698146D01*
X108041877Y-74698146D02*
X108085420Y-74785232D01*
X108085420Y-74785232D02*
X108128963Y-74828775D01*
X108128963Y-74828775D02*
X108216048Y-74872317D01*
X108216048Y-74872317D02*
X108390220Y-74872317D01*
X108390220Y-74872317D02*
X108477305Y-74828775D01*
X108477305Y-74828775D02*
X108520848Y-74785232D01*
X108520848Y-74785232D02*
X108564391Y-74698146D01*
X108564391Y-74698146D02*
X108564391Y-73957917D01*
X109478791Y-74872317D02*
X108956277Y-74872317D01*
X109217534Y-74872317D02*
X109217534Y-73957917D01*
X109217534Y-73957917D02*
X109130448Y-74088546D01*
X109130448Y-74088546D02*
X109043363Y-74175632D01*
X109043363Y-74175632D02*
X108956277Y-74219175D01*
D15*
X121465803Y-92982401D02*
X121901231Y-92677601D01*
X121465803Y-92459887D02*
X122380203Y-92459887D01*
X122380203Y-92459887D02*
X122380203Y-92808230D01*
X122380203Y-92808230D02*
X122336660Y-92895315D01*
X122336660Y-92895315D02*
X122293117Y-92938858D01*
X122293117Y-92938858D02*
X122206031Y-92982401D01*
X122206031Y-92982401D02*
X122075403Y-92982401D01*
X122075403Y-92982401D02*
X121988317Y-92938858D01*
X121988317Y-92938858D02*
X121944774Y-92895315D01*
X121944774Y-92895315D02*
X121901231Y-92808230D01*
X121901231Y-92808230D02*
X121901231Y-92459887D01*
X122293117Y-93330744D02*
X122336660Y-93374287D01*
X122336660Y-93374287D02*
X122380203Y-93461373D01*
X122380203Y-93461373D02*
X122380203Y-93679087D01*
X122380203Y-93679087D02*
X122336660Y-93766173D01*
X122336660Y-93766173D02*
X122293117Y-93809715D01*
X122293117Y-93809715D02*
X122206031Y-93853258D01*
X122206031Y-93853258D02*
X122118946Y-93853258D01*
X122118946Y-93853258D02*
X121988317Y-93809715D01*
X121988317Y-93809715D02*
X121465803Y-93287201D01*
X121465803Y-93287201D02*
X121465803Y-93853258D01*
X121814146Y-94245144D02*
X121814146Y-94941830D01*
X122075403Y-95769144D02*
X121465803Y-95769144D01*
X122423746Y-95551429D02*
X121770603Y-95333715D01*
X121770603Y-95333715D02*
X121770603Y-95899772D01*
X121552888Y-96248115D02*
X121509346Y-96291658D01*
X121509346Y-96291658D02*
X121465803Y-96248115D01*
X121465803Y-96248115D02*
X121509346Y-96204572D01*
X121509346Y-96204572D02*
X121552888Y-96248115D01*
X121552888Y-96248115D02*
X121465803Y-96248115D01*
X122380203Y-96596458D02*
X122380203Y-97206058D01*
X122380203Y-97206058D02*
X121465803Y-96814172D01*
X121465803Y-97554401D02*
X122380203Y-97554401D01*
X121814146Y-97641487D02*
X121465803Y-97902744D01*
X122075403Y-97902744D02*
X121727060Y-97554401D01*
X123965703Y-92982401D02*
X124401131Y-92677601D01*
X123965703Y-92459887D02*
X124880103Y-92459887D01*
X124880103Y-92459887D02*
X124880103Y-92808230D01*
X124880103Y-92808230D02*
X124836560Y-92895315D01*
X124836560Y-92895315D02*
X124793017Y-92938858D01*
X124793017Y-92938858D02*
X124705931Y-92982401D01*
X124705931Y-92982401D02*
X124575303Y-92982401D01*
X124575303Y-92982401D02*
X124488217Y-92938858D01*
X124488217Y-92938858D02*
X124444674Y-92895315D01*
X124444674Y-92895315D02*
X124401131Y-92808230D01*
X124401131Y-92808230D02*
X124401131Y-92459887D01*
X123965703Y-93853258D02*
X123965703Y-93330744D01*
X123965703Y-93592001D02*
X124880103Y-93592001D01*
X124880103Y-93592001D02*
X124749474Y-93504915D01*
X124749474Y-93504915D02*
X124662388Y-93417830D01*
X124662388Y-93417830D02*
X124618846Y-93330744D01*
X124314046Y-94245144D02*
X124314046Y-94941830D01*
X124575303Y-95769144D02*
X123965703Y-95769144D01*
X124923646Y-95551429D02*
X124270503Y-95333715D01*
X124270503Y-95333715D02*
X124270503Y-95899772D01*
X124052788Y-96248115D02*
X124009246Y-96291658D01*
X124009246Y-96291658D02*
X123965703Y-96248115D01*
X123965703Y-96248115D02*
X124009246Y-96204572D01*
X124009246Y-96204572D02*
X124052788Y-96248115D01*
X124052788Y-96248115D02*
X123965703Y-96248115D01*
X124880103Y-96596458D02*
X124880103Y-97206058D01*
X124880103Y-97206058D02*
X123965703Y-96814172D01*
X123965703Y-97554401D02*
X124880103Y-97554401D01*
X124314046Y-97641487D02*
X123965703Y-97902744D01*
X124575303Y-97902744D02*
X124226960Y-97554401D01*
%TO.C,ARDUINO*%
D10*
X113999900Y-77859700D02*
X131999900Y-77859700D01*
X113999900Y-121059800D02*
X113999900Y-77859700D01*
X131999900Y-77859700D02*
X131999900Y-121059800D01*
X131999900Y-121059800D02*
X113999900Y-121059800D01*
X129985000Y-118637000D02*
G75*
G02*
X128715000Y-118637000I-635000J0D01*
G01*
X128715000Y-118637000D02*
G75*
G02*
X129985000Y-118637000I635000J0D01*
G01*
%TO.C,NONEAWD*%
X102087200Y-118578800D02*
X103087200Y-118578800D01*
X104087200Y-118578800D02*
X105629500Y-118578800D01*
X107087200Y-118578800D02*
X109837200Y-118578800D01*
X110837200Y-118578800D02*
X111837200Y-118578800D01*
X111337200Y-119078800D02*
X111337200Y-118078800D01*
X108118000Y-119609600D02*
G75*
G02*
X108118000Y-117548000I-1030700J1030800D01*
G01*
X104001500Y-118578800D02*
G75*
G02*
X101172900Y-118578800I-1414300J0D01*
G01*
X101172900Y-118578800D02*
G75*
G02*
X104001500Y-118578800I1414300J0D01*
G01*
X107646200Y-118578800D02*
G75*
G02*
X106528000Y-118578800I-559100J0D01*
G01*
X106528000Y-118578800D02*
G75*
G02*
X107646200Y-118578800I559100J0D01*
G01*
X112751600Y-118578800D02*
G75*
G02*
X109923000Y-118578800I-1414300J0D01*
G01*
X109923000Y-118578800D02*
G75*
G02*
X112751600Y-118578800I1414300J0D01*
G01*
%TO.C,U1*%
X104650500Y-75268500D02*
X113642100Y-75268500D01*
X104650500Y-89873500D02*
X104650500Y-75268500D01*
X113642100Y-75268500D02*
X113642100Y-89873500D01*
X113642100Y-89873500D02*
X104650500Y-89873500D01*
%TO.C,NONE*%
X120938800Y-88920100D02*
X120938800Y-88920100D01*
X120938800Y-88920100D02*
X120938800Y-101122200D01*
X120938800Y-101122200D02*
X125637800Y-101122200D01*
X121037900Y-88920100D02*
X120938800Y-88920100D01*
X125537800Y-88921200D02*
X121036900Y-88921200D01*
X125637800Y-88927600D02*
X125538700Y-88920100D01*
X125637800Y-88927600D02*
X125637800Y-88927600D01*
X125637800Y-101122200D02*
X125637800Y-88927600D01*
%TD*%
M02*
