%TF.GenerationSoftware,KiCad,Pcbnew,10.0.6*%
%TF.CreationDate,2026-09-23T18:23:03+08:00*%
%TF.ProjectId,Executive_Actions_Module,45786563-7574-4697-9665-5f416374696f,1.7*%
%TF.SameCoordinates,Original*%
%TF.FileFunction,Copper,L1,Top*%
%TF.FilePolarity,Positive*%
%FSLAX46Y46*%
G04 Gerber Fmt 4.6, Leading zero omitted, Abs format (unit mm)*
G04 Created by KiCad (PCBNEW 10.0.6) date 2026-09-23 18:23:03*
%MOMM*%
%LPD*%
G01*
G04 APERTURE LIST*
%TA.AperFunction,ComponentPad*%
%ADD10R,1.300000X1.300000*%
%TD*%
%TA.AperFunction,ComponentPad*%
%ADD11R,1.400000X1.400000*%
%TD*%
%TA.AperFunction,ComponentPad*%
%ADD12R,1.000000X1.000000*%
%TD*%
%TA.AperFunction,ComponentPad*%
%ADD13R,1.524000X1.524000*%
%TD*%
%TA.AperFunction,ComponentPad*%
%ADD14R,1.000000X0.999900*%
%TD*%
%TA.AperFunction,ComponentPad*%
%ADD15R,1.800000X1.800000*%
%TD*%
%TA.AperFunction,ComponentPad*%
%ADD16R,1.400000X1.399900*%
%TD*%
%TA.AperFunction,ComponentPad*%
%ADD17R,1.399900X1.400000*%
%TD*%
%TA.AperFunction,ViaPad*%
%ADD18C,0.609600*%
%TD*%
%TA.AperFunction,Conductor*%
%ADD19C,0.254000*%
%TD*%
%TA.AperFunction,Conductor*%
%ADD20C,0.381000*%
%TD*%
%TA.AperFunction,Conductor*%
%ADD21C,0.762000*%
%TD*%
G04 APERTURE END LIST*
D10*
%TO.P,WP7,1*%
%TO.N,+5V*%
X119499100Y-77999200D03*
%TD*%
D11*
%TO.P,TP_LIGHT2,1*%
%TO.N,LIGHT2*%
X137751800Y-78751500D03*
%TD*%
D12*
%TO.P,WP5,1*%
%TO.N,N/C*%
X119499100Y-81999200D03*
%TD*%
D13*
%TO.P,C-MAIN,1*%
%TO.N,+5V*%
X117980900Y-65250600D03*
%TO.P,C-MAIN,2*%
%TO.N,GND*%
X120520900Y-65250600D03*
%TD*%
D11*
%TO.P,TP_ABORT,1*%
%TO.N,ABORT*%
X161753000Y-76001500D03*
%TD*%
%TO.P,TP_STAGE,1*%
%TO.N,STAGE*%
X123000000Y-114000100D03*
%TD*%
%TO.P,WP83,1*%
%TO.N,ARMED*%
X115000200Y-113999900D03*
%TD*%
D14*
%TO.P,WP9,1*%
%TO.N,N/C*%
X121499100Y-75999100D03*
%TD*%
D12*
%TO.P,WP13,1*%
%TO.N,N/C*%
X121499100Y-83999100D03*
%TD*%
D10*
%TO.P,WP8,1*%
%TO.N,GND*%
X119499100Y-75999200D03*
%TD*%
D12*
%TO.P,WP4,1*%
%TO.N,N/C*%
X119499100Y-83999200D03*
%TD*%
D13*
%TO.P,R1,1*%
%TO.N,ABORT*%
X165329300Y-83413200D03*
%TO.P,R1,2*%
%TO.N,GND*%
X165329300Y-93573200D03*
%TD*%
D10*
%TO.P,WP2,1*%
%TO.N,SCL*%
X119499100Y-87999200D03*
%TD*%
D11*
%TO.P,TP_LIGHT,1*%
%TO.N,LIGHT*%
X151500000Y-116000100D03*
%TD*%
D12*
%TO.P,WP14,1*%
%TO.N,N/C*%
X121499100Y-85999100D03*
%TD*%
D14*
%TO.P,WP11,1*%
%TO.N,N/C*%
X121499100Y-79999100D03*
%TD*%
D10*
%TO.P,WP3,1*%
%TO.N,RESET*%
X119499100Y-85999200D03*
%TD*%
D11*
%TO.P,TP_GND,1*%
%TO.N,GND*%
X148500000Y-116000100D03*
%TD*%
D15*
%TO.P,U1,1*%
%TO.N,RESET*%
X177944200Y-85561500D03*
%TO.P,U1,2*%
%TO.N,ABORT*%
X180484200Y-85561500D03*
%TO.P,U1,3*%
%TO.N,STAGE*%
X183024200Y-85561500D03*
%TO.P,U1,4*%
%TO.N,GND*%
X185564200Y-85561500D03*
%TO.P,U1,5*%
%TO.N,SDA*%
X185564200Y-77941500D03*
%TO.P,U1,6*%
%TO.N,N/C*%
X183024200Y-77941500D03*
%TO.P,U1,7*%
%TO.N,SCL*%
X180484200Y-77941500D03*
%TO.P,U1,8*%
%TO.N,+5V*%
X177944200Y-77941500D03*
%TD*%
D13*
%TO.P,R3,1*%
%TO.N,LIGHT*%
X157664400Y-116677300D03*
%TO.P,R3,2*%
%TO.N,ARMED*%
X167824400Y-116677300D03*
%TD*%
D14*
%TO.P,WP12,1*%
%TO.N,N/C*%
X121499100Y-81999100D03*
%TD*%
D12*
%TO.P,WP15,1*%
%TO.N,N/C*%
X121499100Y-87999100D03*
%TD*%
%TO.P,WP6,1*%
%TO.N,N/C*%
X119499100Y-79999200D03*
%TD*%
D14*
%TO.P,WP10,1*%
%TO.N,N/C*%
X121499100Y-77999100D03*
%TD*%
D13*
%TO.P,C1,1*%
%TO.N,GND*%
X174759800Y-84752500D03*
%TO.P,C1,2*%
%TO.N,+5V*%
X174759800Y-79752500D03*
%TD*%
D10*
%TO.P,WP1,1*%
%TO.N,SDA*%
X119499100Y-89999200D03*
%TD*%
D16*
%TO.P,TP_GND,1*%
%TO.N,GND*%
X137751800Y-81751500D03*
%TD*%
D17*
%TO.P,WP82,1*%
%TO.N,ARMED*%
X161752900Y-84001200D03*
%TD*%
D13*
%TO.P,R4,1*%
%TO.N,STAGE*%
X127913100Y-116927200D03*
%TO.P,R4,2*%
%TO.N,GND*%
X138073100Y-116927200D03*
%TD*%
%TO.P,R2,1*%
%TO.N,LIGHT2*%
X137828000Y-86413400D03*
%TO.P,R2,2*%
%TO.N,ARMED*%
X137828000Y-96573400D03*
%TD*%
D11*
%TO.P,TP_+5V,1*%
%TO.N,+5V*%
X183500000Y-114000100D03*
%TD*%
%TO.P,TP_ARMED,1*%
%TO.N,ARMED*%
X178500000Y-114000100D03*
%TD*%
D12*
%TO.P,WP16,1*%
%TO.N,N/C*%
X121499100Y-89999100D03*
%TD*%
D18*
%TO.N,STAGE*%
X166500000Y-114000100D03*
%TO.N,RESET*%
X176194900Y-67251700D03*
%TO.N,GUARD1*%
X100500900Y-95003700D03*
X100500900Y-105001200D03*
%TO.N,GUARD2*%
X199504800Y-105252600D03*
X199504800Y-95255200D03*
%TD*%
%TO.N,LIGHT2*%
D19*
X137663100Y-86413400D02*
X137828200Y-86413400D01*
X136250900Y-85001200D02*
X137663100Y-86413400D01*
X137752000Y-78752800D02*
X136250900Y-80251400D01*
X136250900Y-80251400D02*
X136250900Y-85001200D01*
%TO.N,ABORT*%
X179503900Y-83001600D02*
X168753100Y-83001600D01*
X180484000Y-85561500D02*
X180484000Y-83981800D01*
X168753100Y-83001600D02*
X161753000Y-76001500D01*
X165740900Y-83001600D02*
X165329300Y-83413200D01*
X168753100Y-83001600D02*
X165740900Y-83001600D01*
X180484000Y-83981800D02*
X179503900Y-83001600D01*
%TO.N,STAGE*%
X123000000Y-114000100D02*
X124985900Y-114000100D01*
X124985900Y-114000100D02*
X127913000Y-116927200D01*
X123000000Y-114000000D02*
X166500000Y-114000000D01*
%TO.N,ARMED*%
D20*
X176255900Y-114000400D02*
X173578700Y-116677500D01*
X153614300Y-96573400D02*
X161752500Y-104711600D01*
X137828200Y-96573400D02*
X153614300Y-96573400D01*
X178501200Y-114000400D02*
X176499700Y-111998900D01*
X161753000Y-104711000D02*
X169040800Y-111998900D01*
X173578700Y-116677500D02*
X167825600Y-116677500D01*
X117000200Y-111998900D02*
X115001200Y-114000400D01*
X176499700Y-111998900D02*
X117000200Y-111998900D01*
X178501200Y-114000400D02*
X176255900Y-114000400D01*
X161753000Y-84001300D02*
X161753000Y-104711000D01*
%TO.N,SCL*%
D19*
X177254100Y-67251700D02*
X180485000Y-70480000D01*
X143751500Y-62250400D02*
X172252800Y-62250400D01*
X180485000Y-70480000D02*
X180485000Y-77942500D01*
X118001000Y-87002700D02*
X118001000Y-83751500D01*
X123002200Y-83002200D02*
X143751500Y-62250400D01*
X172252800Y-62250400D02*
X177254100Y-67251700D01*
X118001000Y-83751500D02*
X118750300Y-83002200D01*
X118750300Y-83002200D02*
X123002200Y-83002200D01*
X118999200Y-87998400D02*
X118001000Y-87002700D01*
X119499600Y-87998400D02*
X118999200Y-87998400D01*
%TO.N,LIGHT*%
D20*
X157664400Y-116677200D02*
X152177100Y-116677200D01*
X152177100Y-116677200D02*
X151500000Y-116000100D01*
%TO.N,RESET*%
D19*
X171694000Y-62750800D02*
X176194900Y-67251700D01*
X145001200Y-62750800D02*
X171694000Y-62750800D01*
X120500300Y-85001200D02*
X122750800Y-85001200D01*
X119499600Y-85999400D02*
X120500300Y-85001200D01*
X122750800Y-85001200D02*
X145001200Y-62750800D01*
%TO.N,SDA*%
X117251700Y-82501800D02*
X118750300Y-81000700D01*
X182504300Y-71750000D02*
X185565000Y-74810700D01*
X123251200Y-81000700D02*
X142501800Y-61750000D01*
X118750300Y-81000700D02*
X123251200Y-81000700D01*
X185565000Y-74810700D02*
X185565000Y-77942500D01*
X142501800Y-61750000D02*
X172504300Y-61750000D01*
X117251700Y-87752000D02*
X117251700Y-82501800D01*
X172504300Y-61750000D02*
X183505000Y-72750800D01*
X119499600Y-89999900D02*
X117251700Y-87752000D01*
%TO.N,GUARD1*%
D21*
X105499500Y-102501800D02*
X105499500Y-97500500D01*
X105499500Y-97500500D02*
X103002600Y-95003700D01*
X103000100Y-105001200D02*
X105499500Y-102501800D01*
X100500800Y-105001200D02*
X103000100Y-105001200D01*
X103002600Y-95003700D02*
X100500800Y-95003700D01*
%TO.N,GUARD2*%
X199504800Y-105252700D02*
X197005500Y-105252700D01*
X197003000Y-95255200D02*
X199504800Y-95255200D01*
X197005500Y-105252700D02*
X194506300Y-102753300D01*
X194506300Y-102753300D02*
X194506300Y-97752100D01*
X194506300Y-97752100D02*
X197003000Y-95255200D01*
%TD*%
%TA.AperFunction,Conductor*%
%TO.N,+5V*%
G36*
X189808417Y-50553502D02*
G01*
X189829391Y-50570404D01*
X198984822Y-59725789D01*
X199462445Y-60203409D01*
X199496470Y-60265721D01*
X199499350Y-60292505D01*
X199499358Y-66037663D01*
X199499392Y-92627716D01*
X199499395Y-94493700D01*
X199479393Y-94561821D01*
X199425737Y-94608314D01*
X199373395Y-94619700D01*
X197071804Y-94619700D01*
X197071763Y-94619698D01*
X197065566Y-94619698D01*
X197065565Y-94619698D01*
X197015500Y-94619699D01*
X197015491Y-94619700D01*
X196940397Y-94619700D01*
X196940381Y-94619702D01*
X196889097Y-94629905D01*
X196889096Y-94629906D01*
X196817626Y-94644123D01*
X196817603Y-94644131D01*
X196761190Y-94667500D01*
X196761188Y-94667500D01*
X196701966Y-94692031D01*
X196651911Y-94725480D01*
X196651907Y-94725483D01*
X196597892Y-94761575D01*
X196597889Y-94761577D01*
X196597878Y-94761585D01*
X196597876Y-94761586D01*
X196560408Y-94799058D01*
X196506238Y-94853228D01*
X196506194Y-94853275D01*
X194062617Y-97297049D01*
X194012666Y-97347000D01*
X193982125Y-97392712D01*
X193982124Y-97392714D01*
X193943120Y-97451087D01*
X193918581Y-97510336D01*
X193918580Y-97510338D01*
X193895219Y-97566737D01*
X193895216Y-97566745D01*
X193895215Y-97566747D01*
X193880430Y-97641089D01*
X193870797Y-97689524D01*
X193870800Y-97764643D01*
X193870800Y-102740761D01*
X193870797Y-102815872D01*
X193870799Y-102815891D01*
X193880429Y-102864306D01*
X193880429Y-102864309D01*
X193880430Y-102864309D01*
X193895214Y-102938647D01*
X193895219Y-102938663D01*
X193918580Y-102995061D01*
X193943115Y-103054299D01*
X193943116Y-103054301D01*
X193943121Y-103054312D01*
X193943125Y-103054319D01*
X193943127Y-103054322D01*
X193982124Y-103112685D01*
X193982127Y-103112690D01*
X194012665Y-103158398D01*
X194012674Y-103158407D01*
X194012675Y-103158408D01*
X194062419Y-103208152D01*
X194062421Y-103208155D01*
X194062422Y-103208155D01*
X196507967Y-105653897D01*
X196508017Y-105653951D01*
X196550603Y-105696536D01*
X196550606Y-105696542D01*
X196550608Y-105696541D01*
X196600372Y-105746309D01*
X196600378Y-105746313D01*
X196600390Y-105746323D01*
X196600392Y-105746325D01*
X196651791Y-105780669D01*
X196651793Y-105780671D01*
X196651794Y-105780671D01*
X196704467Y-105815869D01*
X196704492Y-105815882D01*
X196704936Y-105816062D01*
X196761747Y-105839594D01*
X196818277Y-105863012D01*
X196820196Y-105863846D01*
X196820215Y-105863852D01*
X196822747Y-105864298D01*
X196872672Y-105874228D01*
X196872676Y-105874231D01*
X196872677Y-105874230D01*
X196942894Y-105888200D01*
X196992957Y-105888200D01*
X197068066Y-105888203D01*
X197068071Y-105888201D01*
X197074254Y-105888202D01*
X197074315Y-105888200D01*
X199373300Y-105888200D01*
X199441421Y-105908202D01*
X199487914Y-105961858D01*
X199499300Y-106014200D01*
X199499300Y-139773496D01*
X199479298Y-139841617D01*
X199462395Y-139862591D01*
X189829591Y-149495395D01*
X189767279Y-149529421D01*
X189740496Y-149532300D01*
X110259410Y-149532300D01*
X110191289Y-149512298D01*
X110170338Y-149495419D01*
X105351653Y-144679240D01*
X105351606Y-144679193D01*
X100537281Y-139862362D01*
X100503273Y-139800041D01*
X100500400Y-139773290D01*
X100500400Y-123832923D01*
X109499500Y-123832923D01*
X109499500Y-124407076D01*
X109534167Y-124980185D01*
X109534167Y-124980187D01*
X109603371Y-125550129D01*
X109603372Y-125550136D01*
X109694981Y-126050035D01*
X109706866Y-126114885D01*
X109760428Y-126332196D01*
X109844270Y-126672355D01*
X110015080Y-127220505D01*
X110218665Y-127757313D01*
X110218685Y-127757361D01*
X110454316Y-128280913D01*
X110454317Y-128280915D01*
X110721134Y-128789293D01*
X111018159Y-129280632D01*
X111018168Y-129280646D01*
X111341293Y-129748773D01*
X111344319Y-129753157D01*
X111698408Y-130205118D01*
X112041008Y-130591833D01*
X112079148Y-130634884D01*
X112485115Y-131040851D01*
X112485123Y-131040858D01*
X112485125Y-131040860D01*
X112914882Y-131421592D01*
X113366843Y-131775681D01*
X113366846Y-131775683D01*
X113839353Y-132101831D01*
X113839367Y-132101840D01*
X114330706Y-132398865D01*
X114839084Y-132665682D01*
X114839090Y-132665685D01*
X115362657Y-132901323D01*
X115899496Y-133104920D01*
X116447649Y-133275731D01*
X117005115Y-133413134D01*
X117569860Y-133516627D01*
X117854841Y-133551230D01*
X118139813Y-133585832D01*
X118139816Y-133585832D01*
X118139823Y-133585833D01*
X118636830Y-133615897D01*
X118712924Y-133620500D01*
X118712925Y-133620500D01*
X119287076Y-133620500D01*
X119347203Y-133616862D01*
X119860177Y-133585833D01*
X119860185Y-133585832D01*
X119860187Y-133585832D01*
X120082229Y-133558870D01*
X120430140Y-133516627D01*
X120994885Y-133413134D01*
X121552351Y-133275731D01*
X122100504Y-133104920D01*
X122637343Y-132901323D01*
X123160910Y-132665685D01*
X123669295Y-132398864D01*
X124160641Y-132101835D01*
X124633157Y-131775681D01*
X125085118Y-131421592D01*
X125514875Y-131040860D01*
X125920860Y-130634875D01*
X126301592Y-130205118D01*
X126655681Y-129753157D01*
X126981835Y-129280641D01*
X127278864Y-128789295D01*
X127545685Y-128280910D01*
X127781323Y-127757343D01*
X127984920Y-127220504D01*
X128155731Y-126672351D01*
X128293134Y-126114885D01*
X128396627Y-125550140D01*
X128465833Y-124980177D01*
X128500500Y-124407075D01*
X128500500Y-123869973D01*
X142999300Y-123869973D01*
X142999300Y-123884457D01*
X142999300Y-124370027D01*
X143001950Y-124407075D01*
X143034974Y-124868812D01*
X143034977Y-124868839D01*
X143106136Y-125363756D01*
X143106145Y-125363806D01*
X143212430Y-125852386D01*
X143212435Y-125852407D01*
X143353317Y-126332202D01*
X143480186Y-126672351D01*
X143528066Y-126800722D01*
X143672849Y-127117753D01*
X143735800Y-127255595D01*
X143975440Y-127694464D01*
X143975447Y-127694476D01*
X144015861Y-127757361D01*
X144245796Y-128115146D01*
X144257072Y-128130209D01*
X144545458Y-128515449D01*
X144545471Y-128515465D01*
X144872933Y-128893376D01*
X144872945Y-128893389D01*
X145226510Y-129246954D01*
X145226523Y-129246966D01*
X145226524Y-129246967D01*
X145265386Y-129280641D01*
X145604434Y-129574428D01*
X145604450Y-129574441D01*
X145767433Y-129696448D01*
X146004754Y-129874104D01*
X146425426Y-130144454D01*
X146864313Y-130384104D01*
X147319178Y-130591834D01*
X147787704Y-130766585D01*
X148267502Y-130907467D01*
X148424319Y-130941580D01*
X148756093Y-131013754D01*
X148756115Y-131013757D01*
X148756129Y-131013761D01*
X148756143Y-131013763D01*
X149251060Y-131084922D01*
X149251082Y-131084924D01*
X149251093Y-131084926D01*
X149749873Y-131120600D01*
X149749880Y-131120600D01*
X150249920Y-131120600D01*
X150249927Y-131120600D01*
X150748707Y-131084926D01*
X150748720Y-131084924D01*
X150748739Y-131084922D01*
X151156578Y-131026283D01*
X151243671Y-131013761D01*
X151243689Y-131013756D01*
X151243706Y-131013754D01*
X151488660Y-130960466D01*
X151732298Y-130907467D01*
X152212096Y-130766585D01*
X152680622Y-130591834D01*
X153135487Y-130384104D01*
X153574374Y-130144454D01*
X153995046Y-129874104D01*
X154395360Y-129574433D01*
X154773276Y-129246967D01*
X155126867Y-128893376D01*
X155454333Y-128515460D01*
X155754004Y-128115146D01*
X156024354Y-127694474D01*
X156264004Y-127255587D01*
X156471734Y-126800722D01*
X156646485Y-126332196D01*
X156787367Y-125852398D01*
X156853120Y-125550136D01*
X156893654Y-125363806D01*
X156893656Y-125363789D01*
X156893661Y-125363771D01*
X156948812Y-124980187D01*
X156964822Y-124868839D01*
X156964825Y-124868812D01*
X156964826Y-124868807D01*
X157000500Y-124370027D01*
X157000500Y-123869973D01*
X156964826Y-123371193D01*
X156964824Y-123371182D01*
X156964822Y-123371160D01*
X156893663Y-122876243D01*
X156893661Y-122876229D01*
X156893657Y-122876215D01*
X156893654Y-122876193D01*
X156787369Y-122387613D01*
X156787367Y-122387602D01*
X156646485Y-121907804D01*
X156471734Y-121439278D01*
X156264004Y-120984413D01*
X156024354Y-120545526D01*
X155754004Y-120124854D01*
X155576348Y-119887533D01*
X155454341Y-119724550D01*
X155454328Y-119724534D01*
X155126866Y-119346623D01*
X155126854Y-119346610D01*
X154773289Y-118993045D01*
X154773276Y-118993033D01*
X154395365Y-118665571D01*
X154395349Y-118665558D01*
X154152662Y-118483886D01*
X153995046Y-118365896D01*
X153678961Y-118162760D01*
X153574376Y-118095547D01*
X153574364Y-118095540D01*
X153135494Y-117855900D01*
X153135495Y-117855900D01*
X153135490Y-117855898D01*
X153135487Y-117855896D01*
X152680622Y-117648166D01*
X152612570Y-117622784D01*
X152212102Y-117473417D01*
X152212099Y-117473416D01*
X152212096Y-117473415D01*
X152082342Y-117435315D01*
X151732307Y-117332535D01*
X151732286Y-117332530D01*
X151243706Y-117226245D01*
X151243656Y-117226236D01*
X151098154Y-117205316D01*
X151033573Y-117175823D01*
X150995190Y-117116097D01*
X150995190Y-117045100D01*
X151033574Y-116985374D01*
X151098155Y-116955881D01*
X151116076Y-116954599D01*
X151772983Y-116954599D01*
X151841104Y-116974601D01*
X151862078Y-116991504D01*
X151903857Y-117033283D01*
X151903862Y-117033287D01*
X151903864Y-117033289D01*
X151903865Y-117033290D01*
X151903867Y-117033291D01*
X151912195Y-117038099D01*
X152005336Y-117091874D01*
X152005342Y-117091875D01*
X152005343Y-117091876D01*
X152061923Y-117107037D01*
X152061924Y-117107037D01*
X152077087Y-117111099D01*
X152118514Y-117122200D01*
X152118515Y-117122200D01*
X156521901Y-117122200D01*
X156590022Y-117142202D01*
X156636515Y-117195858D01*
X156647901Y-117248200D01*
X156647901Y-117464372D01*
X156662665Y-117538600D01*
X156718916Y-117622784D01*
X156803097Y-117679033D01*
X156803099Y-117679034D01*
X156877333Y-117693800D01*
X158451466Y-117693799D01*
X158451469Y-117693798D01*
X158451473Y-117693798D01*
X158500726Y-117684001D01*
X158525701Y-117679034D01*
X158609884Y-117622784D01*
X158666134Y-117538601D01*
X158680900Y-117464367D01*
X158680899Y-115890234D01*
X158680898Y-115890227D01*
X158680898Y-115890226D01*
X158666134Y-115815999D01*
X158609883Y-115731815D01*
X158525702Y-115675566D01*
X158451467Y-115660800D01*
X156877336Y-115660800D01*
X156877326Y-115660801D01*
X156803099Y-115675565D01*
X156718915Y-115731816D01*
X156662666Y-115815997D01*
X156647900Y-115890230D01*
X156647900Y-116106200D01*
X156627898Y-116174321D01*
X156574242Y-116220814D01*
X156521900Y-116232200D01*
X152580500Y-116232200D01*
X152512379Y-116212198D01*
X152465886Y-116158542D01*
X152454500Y-116106200D01*
X152454499Y-115275036D01*
X152454498Y-115275026D01*
X152439734Y-115200799D01*
X152383483Y-115116615D01*
X152299302Y-115060366D01*
X152225067Y-115045600D01*
X150774936Y-115045600D01*
X150774926Y-115045601D01*
X150700699Y-115060365D01*
X150616515Y-115116616D01*
X150560266Y-115200797D01*
X150545500Y-115275030D01*
X150545500Y-116725163D01*
X150545501Y-116725173D01*
X150560265Y-116799400D01*
X150616515Y-116883582D01*
X150616516Y-116883584D01*
X150659994Y-116912635D01*
X150705522Y-116967112D01*
X150714370Y-117037555D01*
X150683729Y-117101599D01*
X150623327Y-117138910D01*
X150581003Y-117143079D01*
X150436415Y-117132738D01*
X150249927Y-117119400D01*
X149749873Y-117119400D01*
X149573526Y-117132012D01*
X149419020Y-117143063D01*
X149349645Y-117127971D01*
X149299443Y-117077769D01*
X149284352Y-117008395D01*
X149309163Y-116941875D01*
X149340024Y-116912622D01*
X149383484Y-116883584D01*
X149439734Y-116799401D01*
X149454500Y-116725167D01*
X149454499Y-115275034D01*
X149454498Y-115275030D01*
X149454498Y-115275026D01*
X149439734Y-115200799D01*
X149383483Y-115116615D01*
X149299302Y-115060366D01*
X149225067Y-115045600D01*
X147774936Y-115045600D01*
X147774926Y-115045601D01*
X147700699Y-115060365D01*
X147616515Y-115116616D01*
X147560266Y-115200797D01*
X147545500Y-115275030D01*
X147545500Y-116725163D01*
X147545501Y-116725173D01*
X147560265Y-116799400D01*
X147616516Y-116883584D01*
X147700697Y-116939833D01*
X147700699Y-116939834D01*
X147774933Y-116954600D01*
X148883716Y-116954599D01*
X148951837Y-116974601D01*
X148998330Y-117028257D01*
X149008434Y-117098531D01*
X148978941Y-117163111D01*
X148919214Y-117201495D01*
X148901648Y-117205316D01*
X148756143Y-117226236D01*
X148756093Y-117226245D01*
X148267513Y-117332530D01*
X148267492Y-117332535D01*
X147787697Y-117473417D01*
X147319193Y-117648160D01*
X147319177Y-117648166D01*
X146864304Y-117855900D01*
X146425435Y-118095540D01*
X146425423Y-118095547D01*
X146004755Y-118365895D01*
X145604450Y-118665558D01*
X145604434Y-118665571D01*
X145226523Y-118993033D01*
X145226510Y-118993045D01*
X144872945Y-119346610D01*
X144872933Y-119346623D01*
X144545471Y-119724534D01*
X144545458Y-119724550D01*
X144245795Y-120124855D01*
X143975447Y-120545523D01*
X143975440Y-120545535D01*
X143735800Y-120984404D01*
X143528066Y-121439277D01*
X143528060Y-121439293D01*
X143353317Y-121907797D01*
X143212435Y-122387592D01*
X143212430Y-122387613D01*
X143106145Y-122876193D01*
X143106136Y-122876243D01*
X143034977Y-123371160D01*
X143034974Y-123371187D01*
X143017137Y-123620583D01*
X142999300Y-123869973D01*
X128500500Y-123869973D01*
X128500500Y-123832925D01*
X128465833Y-123259823D01*
X128396627Y-122689860D01*
X128293134Y-122125115D01*
X128155731Y-121567649D01*
X127984920Y-121019496D01*
X127781323Y-120482657D01*
X127545685Y-119959090D01*
X127422581Y-119724534D01*
X127278865Y-119450706D01*
X126981840Y-118959367D01*
X126981831Y-118959353D01*
X126655683Y-118486846D01*
X126560924Y-118365895D01*
X126301592Y-118034882D01*
X125920860Y-117605125D01*
X125920858Y-117605123D01*
X125920851Y-117605115D01*
X125514884Y-117199148D01*
X125493698Y-117180379D01*
X125085118Y-116818408D01*
X124633157Y-116464319D01*
X124505980Y-116376535D01*
X124160646Y-116138168D01*
X124160632Y-116138159D01*
X123669293Y-115841134D01*
X123160915Y-115574317D01*
X123160913Y-115574316D01*
X122637361Y-115338685D01*
X122637358Y-115338684D01*
X122637343Y-115338677D01*
X122541507Y-115302331D01*
X122267495Y-115198411D01*
X122210894Y-115155553D01*
X122186450Y-115088897D01*
X122201922Y-115019607D01*
X122252399Y-114969681D01*
X122312172Y-114954599D01*
X123725066Y-114954599D01*
X123725069Y-114954598D01*
X123725073Y-114954598D01*
X123774326Y-114944801D01*
X123799301Y-114939834D01*
X123883484Y-114883584D01*
X123939734Y-114799401D01*
X123954500Y-114725167D01*
X123954500Y-114507600D01*
X123974502Y-114439479D01*
X124028158Y-114392986D01*
X124080500Y-114381600D01*
X124775687Y-114381600D01*
X124843808Y-114401602D01*
X124864782Y-114418505D01*
X126859695Y-116413417D01*
X126893720Y-116475729D01*
X126896600Y-116502512D01*
X126896600Y-117714263D01*
X126896601Y-117714273D01*
X126911365Y-117788500D01*
X126967616Y-117872684D01*
X127051797Y-117928933D01*
X127051799Y-117928934D01*
X127126033Y-117943700D01*
X128700166Y-117943699D01*
X128700169Y-117943698D01*
X128700173Y-117943698D01*
X128749426Y-117933901D01*
X128774401Y-117928934D01*
X128858584Y-117872684D01*
X128914834Y-117788501D01*
X128929600Y-117714267D01*
X128929599Y-116140134D01*
X128929599Y-116140133D01*
X128929599Y-116140131D01*
X128929599Y-116140130D01*
X137056600Y-116140130D01*
X137056600Y-117714263D01*
X137056601Y-117714273D01*
X137071365Y-117788500D01*
X137127616Y-117872684D01*
X137211797Y-117928933D01*
X137211799Y-117928934D01*
X137286033Y-117943700D01*
X138860166Y-117943699D01*
X138860169Y-117943698D01*
X138860173Y-117943698D01*
X138909426Y-117933901D01*
X138934401Y-117928934D01*
X139018584Y-117872684D01*
X139074834Y-117788501D01*
X139089600Y-117714267D01*
X139089599Y-116140134D01*
X139089598Y-116140131D01*
X139089598Y-116140126D01*
X139074834Y-116065899D01*
X139074833Y-116065897D01*
X139018584Y-115981716D01*
X139018583Y-115981715D01*
X138934402Y-115925466D01*
X138860167Y-115910700D01*
X137286036Y-115910700D01*
X137286026Y-115910701D01*
X137211799Y-115925465D01*
X137127615Y-115981716D01*
X137071366Y-116065897D01*
X137056600Y-116140130D01*
X128929599Y-116140130D01*
X128914834Y-116065899D01*
X128914833Y-116065897D01*
X128858584Y-115981716D01*
X128858583Y-115981715D01*
X128774402Y-115925466D01*
X128700169Y-115910700D01*
X128700167Y-115910700D01*
X127488213Y-115910700D01*
X127420092Y-115890698D01*
X127399118Y-115873795D01*
X126121918Y-114596595D01*
X126087892Y-114534283D01*
X126092957Y-114463468D01*
X126135504Y-114406632D01*
X126202024Y-114381821D01*
X126211013Y-114381500D01*
X166038240Y-114381500D01*
X166106361Y-114401502D01*
X166127335Y-114418405D01*
X166156575Y-114447645D01*
X166156580Y-114447649D01*
X166156582Y-114447651D01*
X166156583Y-114447652D01*
X166156585Y-114447653D01*
X166206066Y-114476221D01*
X166284118Y-114521284D01*
X166426367Y-114559400D01*
X166426369Y-114559400D01*
X166573631Y-114559400D01*
X166573633Y-114559400D01*
X166715882Y-114521284D01*
X166843418Y-114447651D01*
X166947551Y-114343518D01*
X167021184Y-114215982D01*
X167059300Y-114073733D01*
X167059300Y-113926467D01*
X167021184Y-113784218D01*
X166976121Y-113706166D01*
X166947553Y-113656685D01*
X166947545Y-113656675D01*
X166843424Y-113552554D01*
X166843414Y-113552546D01*
X166715882Y-113478916D01*
X166573633Y-113440800D01*
X166426367Y-113440800D01*
X166331534Y-113466210D01*
X166284117Y-113478916D01*
X166156585Y-113552546D01*
X166156575Y-113552554D01*
X166127535Y-113581595D01*
X166065223Y-113615621D01*
X166038440Y-113618500D01*
X124080499Y-113618500D01*
X124012378Y-113598498D01*
X123965885Y-113544842D01*
X123954499Y-113492500D01*
X123954499Y-113275036D01*
X123954498Y-113275027D01*
X123939734Y-113200799D01*
X123883483Y-113116615D01*
X123799302Y-113060366D01*
X123725067Y-113045600D01*
X122274936Y-113045600D01*
X122274926Y-113045601D01*
X122200699Y-113060365D01*
X122116515Y-113116616D01*
X122060266Y-113200797D01*
X122045500Y-113275030D01*
X122045500Y-114725163D01*
X122045501Y-114725173D01*
X122060265Y-114799400D01*
X122116517Y-114883586D01*
X122125290Y-114892359D01*
X122123110Y-114894538D01*
X122156245Y-114934193D01*
X122165087Y-115004637D01*
X122134441Y-115068678D01*
X122074036Y-115105985D01*
X122003226Y-115104767D01*
X121552355Y-114964270D01*
X121430328Y-114934193D01*
X120994885Y-114826866D01*
X120994881Y-114826865D01*
X120994876Y-114826864D01*
X120430136Y-114723372D01*
X120430129Y-114723371D01*
X119860186Y-114654167D01*
X119287076Y-114619500D01*
X119287075Y-114619500D01*
X118712925Y-114619500D01*
X118712924Y-114619500D01*
X118139814Y-114654167D01*
X118139812Y-114654167D01*
X117569870Y-114723371D01*
X117569863Y-114723372D01*
X117005123Y-114826864D01*
X116447644Y-114964270D01*
X115996586Y-115104825D01*
X115925599Y-115105995D01*
X115865249Y-115068600D01*
X115834696Y-115004514D01*
X115843641Y-114934083D01*
X115876989Y-114894238D01*
X115874910Y-114892159D01*
X115883683Y-114883385D01*
X115921449Y-114826866D01*
X115939934Y-114799201D01*
X115954700Y-114724967D01*
X115954699Y-113727570D01*
X115974701Y-113659450D01*
X115991544Y-113638535D01*
X117147774Y-112480859D01*
X117210065Y-112446796D01*
X117236925Y-112443900D01*
X169099383Y-112443900D01*
X176263185Y-112443900D01*
X176331306Y-112463902D01*
X176352280Y-112480805D01*
X177211780Y-113340305D01*
X177245806Y-113402617D01*
X177240741Y-113473432D01*
X177198194Y-113530268D01*
X177131674Y-113555079D01*
X177122685Y-113555400D01*
X176255908Y-113555400D01*
X176197323Y-113555399D01*
X176197322Y-113555399D01*
X176197318Y-113555399D01*
X176149948Y-113568090D01*
X176149949Y-113568091D01*
X176084143Y-113585722D01*
X176084139Y-113585723D01*
X176082964Y-113586298D01*
X176080621Y-113587754D01*
X176039717Y-113611370D01*
X176039716Y-113611371D01*
X175982671Y-113644304D01*
X175982670Y-113644306D01*
X175982666Y-113644309D01*
X175982664Y-113644311D01*
X175970300Y-113656675D01*
X175958176Y-113668799D01*
X173431284Y-116195597D01*
X173368971Y-116229621D01*
X173342190Y-116232500D01*
X168966899Y-116232500D01*
X168898778Y-116212498D01*
X168852285Y-116158842D01*
X168840899Y-116106500D01*
X168840899Y-115890236D01*
X168840898Y-115890227D01*
X168826134Y-115815999D01*
X168769883Y-115731815D01*
X168685702Y-115675566D01*
X168611467Y-115660800D01*
X167037336Y-115660800D01*
X167037326Y-115660801D01*
X166963099Y-115675565D01*
X166878915Y-115731816D01*
X166822666Y-115815997D01*
X166807900Y-115890230D01*
X166807900Y-117464363D01*
X166807901Y-117464373D01*
X166822665Y-117538600D01*
X166878916Y-117622784D01*
X166963097Y-117679033D01*
X166963099Y-117679034D01*
X167037333Y-117693800D01*
X168611466Y-117693799D01*
X168611469Y-117693798D01*
X168611473Y-117693798D01*
X168660726Y-117684001D01*
X168685701Y-117679034D01*
X168769884Y-117622784D01*
X168826134Y-117538601D01*
X168840900Y-117464367D01*
X168840900Y-117248500D01*
X168860902Y-117180379D01*
X168914558Y-117133886D01*
X168966900Y-117122500D01*
X173578692Y-117122500D01*
X173637278Y-117122501D01*
X173637282Y-117122500D01*
X173637285Y-117122500D01*
X173694490Y-117107171D01*
X173694493Y-117107171D01*
X173694493Y-117107170D01*
X173694494Y-117107170D01*
X173744601Y-117093745D01*
X173749629Y-117092655D01*
X173750461Y-117092174D01*
X173750464Y-117092174D01*
X173826692Y-117048163D01*
X173844128Y-117038096D01*
X173847806Y-117036311D01*
X173848794Y-117035660D01*
X173851714Y-117033856D01*
X173853208Y-117032316D01*
X173908100Y-116977425D01*
X175825232Y-115060365D01*
X176403316Y-114482303D01*
X176465629Y-114448279D01*
X176492410Y-114445400D01*
X177419501Y-114445400D01*
X177487622Y-114465402D01*
X177534115Y-114519058D01*
X177545501Y-114571400D01*
X177545501Y-114725172D01*
X177560265Y-114799400D01*
X177616516Y-114883584D01*
X177700697Y-114939833D01*
X177700699Y-114939834D01*
X177738168Y-114947287D01*
X177801078Y-114980194D01*
X177836211Y-115041888D01*
X177832411Y-115112783D01*
X177790886Y-115170370D01*
X177758269Y-115188678D01*
X177362775Y-115338670D01*
X177362757Y-115338677D01*
X177362750Y-115338679D01*
X177362738Y-115338685D01*
X176839186Y-115574316D01*
X176839184Y-115574317D01*
X176330806Y-115841134D01*
X175839467Y-116138159D01*
X175839453Y-116138168D01*
X175366946Y-116464316D01*
X174914982Y-116818408D01*
X174485215Y-117199148D01*
X174079248Y-117605115D01*
X173698508Y-118034882D01*
X173344416Y-118486846D01*
X173018268Y-118959353D01*
X173018259Y-118959367D01*
X172721234Y-119450706D01*
X172454417Y-119959084D01*
X172454416Y-119959086D01*
X172218785Y-120482638D01*
X172218765Y-120482686D01*
X172015180Y-121019494D01*
X171844370Y-121567644D01*
X171706964Y-122125123D01*
X171603472Y-122689863D01*
X171603471Y-122689870D01*
X171534267Y-123259812D01*
X171534267Y-123259814D01*
X171499600Y-123832923D01*
X171499600Y-124407076D01*
X171534267Y-124980185D01*
X171534267Y-124980187D01*
X171603471Y-125550129D01*
X171603472Y-125550136D01*
X171695081Y-126050035D01*
X171706966Y-126114885D01*
X171760528Y-126332196D01*
X171844370Y-126672355D01*
X172015180Y-127220505D01*
X172218765Y-127757313D01*
X172218785Y-127757361D01*
X172454416Y-128280913D01*
X172454417Y-128280915D01*
X172721234Y-128789293D01*
X173018259Y-129280632D01*
X173018268Y-129280646D01*
X173341393Y-129748773D01*
X173344419Y-129753157D01*
X173698508Y-130205118D01*
X174041108Y-130591833D01*
X174079248Y-130634884D01*
X174485215Y-131040851D01*
X174485223Y-131040858D01*
X174485225Y-131040860D01*
X174914982Y-131421592D01*
X175366943Y-131775681D01*
X175366946Y-131775683D01*
X175839453Y-132101831D01*
X175839467Y-132101840D01*
X176330806Y-132398865D01*
X176839184Y-132665682D01*
X176839190Y-132665685D01*
X177362757Y-132901323D01*
X177899596Y-133104920D01*
X178447749Y-133275731D01*
X179005215Y-133413134D01*
X179569960Y-133516627D01*
X179854941Y-133551230D01*
X180139913Y-133585832D01*
X180139916Y-133585832D01*
X180139923Y-133585833D01*
X180636930Y-133615897D01*
X180713024Y-133620500D01*
X180713025Y-133620500D01*
X181287176Y-133620500D01*
X181347303Y-133616862D01*
X181860277Y-133585833D01*
X181860285Y-133585832D01*
X181860287Y-133585832D01*
X182082329Y-133558870D01*
X182430240Y-133516627D01*
X182994985Y-133413134D01*
X183552451Y-133275731D01*
X184100604Y-133104920D01*
X184637443Y-132901323D01*
X185161010Y-132665685D01*
X185669395Y-132398864D01*
X186160741Y-132101835D01*
X186633257Y-131775681D01*
X187085218Y-131421592D01*
X187514975Y-131040860D01*
X187920960Y-130634875D01*
X188301692Y-130205118D01*
X188655781Y-129753157D01*
X188981935Y-129280641D01*
X189278964Y-128789295D01*
X189545785Y-128280910D01*
X189781423Y-127757343D01*
X189985020Y-127220504D01*
X190155831Y-126672351D01*
X190293234Y-126114885D01*
X190396727Y-125550140D01*
X190465933Y-124980177D01*
X190500600Y-124407075D01*
X190500600Y-123832925D01*
X190465933Y-123259823D01*
X190396727Y-122689860D01*
X190293234Y-122125115D01*
X190155831Y-121567649D01*
X189985020Y-121019496D01*
X189781423Y-120482657D01*
X189545785Y-119959090D01*
X189422681Y-119724534D01*
X189278965Y-119450706D01*
X188981940Y-118959367D01*
X188981931Y-118959353D01*
X188655783Y-118486846D01*
X188561024Y-118365895D01*
X188301692Y-118034882D01*
X187920960Y-117605125D01*
X187920958Y-117605123D01*
X187920951Y-117605115D01*
X187514984Y-117199148D01*
X187493798Y-117180379D01*
X187085218Y-116818408D01*
X186633257Y-116464319D01*
X186506080Y-116376535D01*
X186160746Y-116138168D01*
X186160732Y-116138159D01*
X185669393Y-115841134D01*
X185161015Y-115574317D01*
X185161013Y-115574316D01*
X184637461Y-115338685D01*
X184637457Y-115338683D01*
X184637443Y-115338677D01*
X184637425Y-115338670D01*
X184637413Y-115338665D01*
X184100605Y-115135080D01*
X183552455Y-114964270D01*
X183430428Y-114934193D01*
X182994985Y-114826866D01*
X182994981Y-114826865D01*
X182994976Y-114826864D01*
X182430236Y-114723372D01*
X182430229Y-114723371D01*
X181860286Y-114654167D01*
X181287176Y-114619500D01*
X181287175Y-114619500D01*
X180713025Y-114619500D01*
X180713024Y-114619500D01*
X180139914Y-114654167D01*
X180139908Y-114654168D01*
X179595686Y-114720248D01*
X179525651Y-114708603D01*
X179473030Y-114660943D01*
X179454499Y-114595170D01*
X179454499Y-113275034D01*
X179454498Y-113275027D01*
X179454498Y-113275026D01*
X179439734Y-113200799D01*
X179383483Y-113116615D01*
X179299302Y-113060366D01*
X179225069Y-113045600D01*
X179225067Y-113045600D01*
X178227915Y-113045600D01*
X178159794Y-113025598D01*
X178138820Y-113008695D01*
X176772937Y-111642812D01*
X176772932Y-111642808D01*
X176671468Y-111584228D01*
X176671466Y-111584227D01*
X176671464Y-111584226D01*
X176614874Y-111569063D01*
X176614873Y-111569062D01*
X176614872Y-111569062D01*
X176558289Y-111553900D01*
X176558286Y-111553900D01*
X176558285Y-111553900D01*
X169277318Y-111553900D01*
X169209197Y-111533898D01*
X169188222Y-111516995D01*
X162234904Y-104563581D01*
X162200879Y-104501268D01*
X162198000Y-104474486D01*
X162198000Y-92786130D01*
X164312800Y-92786130D01*
X164312800Y-94360263D01*
X164312801Y-94360273D01*
X164327565Y-94434500D01*
X164383816Y-94518684D01*
X164467997Y-94574933D01*
X164467999Y-94574934D01*
X164542233Y-94589700D01*
X166116366Y-94589699D01*
X166116369Y-94589698D01*
X166116373Y-94589698D01*
X166165626Y-94579901D01*
X166190601Y-94574934D01*
X166274784Y-94518684D01*
X166331034Y-94434501D01*
X166345800Y-94360267D01*
X166345799Y-92786134D01*
X166345798Y-92786130D01*
X166345798Y-92786126D01*
X166331034Y-92711899D01*
X166274783Y-92627715D01*
X166190602Y-92571466D01*
X166116367Y-92556700D01*
X164542236Y-92556700D01*
X164542226Y-92556701D01*
X164467999Y-92571465D01*
X164383815Y-92627716D01*
X164327566Y-92711897D01*
X164312800Y-92786130D01*
X162198000Y-92786130D01*
X162198000Y-85081699D01*
X162218002Y-85013578D01*
X162271658Y-84967085D01*
X162324000Y-84955699D01*
X162477914Y-84955699D01*
X162477916Y-84955699D01*
X162477919Y-84955698D01*
X162477922Y-84955698D01*
X162514513Y-84948419D01*
X162552151Y-84940934D01*
X162636334Y-84884684D01*
X162692584Y-84800501D01*
X162707350Y-84726267D01*
X162707349Y-83276134D01*
X162707348Y-83276130D01*
X162707348Y-83276126D01*
X162692584Y-83201899D01*
X162636333Y-83117715D01*
X162552152Y-83061466D01*
X162477917Y-83046700D01*
X161027886Y-83046700D01*
X161027876Y-83046701D01*
X160953649Y-83061465D01*
X160869465Y-83117716D01*
X160813216Y-83201897D01*
X160798450Y-83276130D01*
X160798450Y-84726263D01*
X160798451Y-84726273D01*
X160813215Y-84800500D01*
X160869466Y-84884684D01*
X160953647Y-84940933D01*
X160953649Y-84940934D01*
X161027883Y-84955700D01*
X161182000Y-84955699D01*
X161250120Y-84975701D01*
X161296613Y-85029356D01*
X161308000Y-85081699D01*
X161308000Y-103333584D01*
X161287998Y-103401705D01*
X161234342Y-103448198D01*
X161164068Y-103458302D01*
X161099488Y-103428808D01*
X161092905Y-103422679D01*
X153887537Y-96217312D01*
X153887532Y-96217308D01*
X153786068Y-96158728D01*
X153786066Y-96158727D01*
X153786064Y-96158726D01*
X153729474Y-96143563D01*
X153729473Y-96143562D01*
X153729472Y-96143562D01*
X153672889Y-96128400D01*
X153672886Y-96128400D01*
X153672885Y-96128400D01*
X138970499Y-96128400D01*
X138902378Y-96108398D01*
X138855885Y-96054742D01*
X138844499Y-96002400D01*
X138844499Y-95786336D01*
X138844498Y-95786327D01*
X138829734Y-95712099D01*
X138773483Y-95627915D01*
X138689302Y-95571666D01*
X138615067Y-95556900D01*
X137040936Y-95556900D01*
X137040926Y-95556901D01*
X136966699Y-95571665D01*
X136882515Y-95627916D01*
X136826266Y-95712097D01*
X136811500Y-95786330D01*
X136811500Y-97360463D01*
X136811501Y-97360473D01*
X136826265Y-97434700D01*
X136882516Y-97518884D01*
X136966697Y-97575133D01*
X136966699Y-97575134D01*
X137040933Y-97589900D01*
X138615066Y-97589899D01*
X138615069Y-97589898D01*
X138615073Y-97589898D01*
X138664326Y-97580101D01*
X138689301Y-97575134D01*
X138773484Y-97518884D01*
X138829734Y-97434701D01*
X138844500Y-97360467D01*
X138844500Y-97144400D01*
X138864502Y-97076279D01*
X138918158Y-97029786D01*
X138970500Y-97018400D01*
X153377785Y-97018400D01*
X153445906Y-97038402D01*
X153466880Y-97055305D01*
X161480882Y-105069309D01*
X161489835Y-105077160D01*
X162374521Y-105961858D01*
X167751394Y-111338805D01*
X167785419Y-111401118D01*
X167780353Y-111471933D01*
X167737806Y-111528769D01*
X167671286Y-111553579D01*
X167662298Y-111553900D01*
X117066984Y-111553900D01*
X117066357Y-111553859D01*
X117000724Y-111553900D01*
X116941591Y-111553900D01*
X116941363Y-111553929D01*
X116899631Y-111565138D01*
X116884639Y-111569166D01*
X116865324Y-111574341D01*
X116828403Y-111584234D01*
X116828201Y-111584318D01*
X116777880Y-111613413D01*
X116777814Y-111613451D01*
X116726958Y-111642813D01*
X116726752Y-111642971D01*
X116686005Y-111683769D01*
X116638685Y-111731089D01*
X116638262Y-111731570D01*
X115362988Y-113008440D01*
X115300697Y-113042504D01*
X115273837Y-113045400D01*
X114275136Y-113045400D01*
X114275126Y-113045401D01*
X114200899Y-113060165D01*
X114116715Y-113116416D01*
X114060466Y-113200597D01*
X114045700Y-113274830D01*
X114045700Y-114724963D01*
X114045701Y-114724973D01*
X114060465Y-114799200D01*
X114116716Y-114883384D01*
X114200897Y-114939633D01*
X114200899Y-114939634D01*
X114275133Y-114954400D01*
X115688353Y-114954399D01*
X115756474Y-114974401D01*
X115802967Y-115028057D01*
X115813071Y-115098331D01*
X115783578Y-115162911D01*
X115733033Y-115198211D01*
X115362686Y-115338665D01*
X115362638Y-115338685D01*
X114839086Y-115574316D01*
X114839084Y-115574317D01*
X114330706Y-115841134D01*
X113839367Y-116138159D01*
X113839353Y-116138168D01*
X113366846Y-116464316D01*
X112914882Y-116818408D01*
X112485115Y-117199148D01*
X112079148Y-117605115D01*
X111698408Y-118034882D01*
X111344316Y-118486846D01*
X111018168Y-118959353D01*
X111018159Y-118959367D01*
X110721134Y-119450706D01*
X110454317Y-119959084D01*
X110454316Y-119959086D01*
X110218685Y-120482638D01*
X110218665Y-120482686D01*
X110015080Y-121019494D01*
X109844270Y-121567644D01*
X109706864Y-122125123D01*
X109603372Y-122689863D01*
X109603371Y-122689870D01*
X109534167Y-123259812D01*
X109534167Y-123259814D01*
X109499500Y-123832923D01*
X100500400Y-123832923D01*
X100500400Y-105762700D01*
X100520402Y-105694579D01*
X100574058Y-105648086D01*
X100626400Y-105636700D01*
X103062690Y-105636700D01*
X103062691Y-105636700D01*
X103185469Y-105612278D01*
X103301122Y-105564373D01*
X103405208Y-105494825D01*
X105993125Y-102906908D01*
X106062673Y-102802822D01*
X106110578Y-102687169D01*
X106135000Y-102564391D01*
X106135000Y-102439209D01*
X106135000Y-97563083D01*
X106135001Y-97563078D01*
X106135000Y-97500487D01*
X106135000Y-97437909D01*
X106135000Y-97437900D01*
X106122890Y-97377029D01*
X106122889Y-97377025D01*
X106119596Y-97360469D01*
X106110578Y-97315131D01*
X106110577Y-97315129D01*
X106110442Y-97314450D01*
X106108873Y-97311012D01*
X106086810Y-97257749D01*
X106062911Y-97200053D01*
X106062685Y-97199498D01*
X106062674Y-97199477D01*
X106023614Y-97141022D01*
X106023613Y-97141020D01*
X105993121Y-97095385D01*
X105943398Y-97045665D01*
X105943397Y-97045664D01*
X105904608Y-97006875D01*
X105904607Y-97006874D01*
X105902154Y-97004421D01*
X105902133Y-97004401D01*
X103453784Y-94556151D01*
X103453782Y-94556149D01*
X103407708Y-94510075D01*
X103407707Y-94510074D01*
X103407702Y-94510069D01*
X103366463Y-94482516D01*
X103303622Y-94440527D01*
X103303614Y-94440523D01*
X103303613Y-94440522D01*
X103286178Y-94433301D01*
X103244081Y-94415864D01*
X103188601Y-94392884D01*
X103187996Y-94392628D01*
X103187967Y-94392620D01*
X103187957Y-94392618D01*
X103126045Y-94380304D01*
X103126044Y-94380303D01*
X103126043Y-94380303D01*
X103095823Y-94374292D01*
X103065188Y-94368199D01*
X103065178Y-94368199D01*
X103002587Y-94368200D01*
X100626400Y-94368200D01*
X100558279Y-94348198D01*
X100511786Y-94294542D01*
X100500400Y-94242200D01*
X100500400Y-82451890D01*
X116870157Y-82451890D01*
X116870200Y-82502117D01*
X116870200Y-87802223D01*
X116870199Y-87802223D01*
X116896200Y-87899258D01*
X116937178Y-87970233D01*
X116937183Y-87970241D01*
X116946424Y-87986247D01*
X116946426Y-87986249D01*
X116946429Y-87986253D01*
X118557695Y-89597518D01*
X118591720Y-89659830D01*
X118594600Y-89686613D01*
X118594600Y-90674263D01*
X118594601Y-90674273D01*
X118609365Y-90748500D01*
X118665616Y-90832684D01*
X118749797Y-90888933D01*
X118749799Y-90888934D01*
X118824033Y-90903700D01*
X120174166Y-90903699D01*
X120174169Y-90903698D01*
X120174173Y-90903698D01*
X120223426Y-90893901D01*
X120248401Y-90888934D01*
X120332584Y-90832684D01*
X120388834Y-90748501D01*
X120403600Y-90674267D01*
X120403599Y-89474030D01*
X120744600Y-89474030D01*
X120744600Y-90524163D01*
X120744601Y-90524173D01*
X120759365Y-90598400D01*
X120815616Y-90682584D01*
X120899797Y-90738833D01*
X120899799Y-90738834D01*
X120974033Y-90753600D01*
X122024166Y-90753599D01*
X122024169Y-90753598D01*
X122024173Y-90753598D01*
X122073426Y-90743801D01*
X122098401Y-90738834D01*
X122182584Y-90682584D01*
X122238834Y-90598401D01*
X122253600Y-90524167D01*
X122253599Y-89474034D01*
X122253598Y-89474030D01*
X122253598Y-89474026D01*
X122238834Y-89399799D01*
X122188277Y-89324136D01*
X122182584Y-89315616D01*
X122182583Y-89315615D01*
X122098402Y-89259366D01*
X122024167Y-89244600D01*
X120974036Y-89244600D01*
X120974026Y-89244601D01*
X120899799Y-89259365D01*
X120815615Y-89315616D01*
X120759366Y-89399797D01*
X120744600Y-89474030D01*
X120403599Y-89474030D01*
X120403599Y-89324134D01*
X120403598Y-89324131D01*
X120403598Y-89324126D01*
X120388834Y-89249899D01*
X120332583Y-89165715D01*
X120240167Y-89103963D01*
X120194640Y-89049486D01*
X120185793Y-88979043D01*
X120216434Y-88914999D01*
X120240168Y-88894434D01*
X120248398Y-88888934D01*
X120248401Y-88888934D01*
X120332584Y-88832684D01*
X120388834Y-88748501D01*
X120403600Y-88674267D01*
X120403599Y-87474030D01*
X120744600Y-87474030D01*
X120744600Y-88524163D01*
X120744601Y-88524173D01*
X120759365Y-88598400D01*
X120815616Y-88682584D01*
X120899797Y-88738833D01*
X120899799Y-88738834D01*
X120974033Y-88753600D01*
X122024166Y-88753599D01*
X122024169Y-88753598D01*
X122024173Y-88753598D01*
X122073426Y-88743801D01*
X122098401Y-88738834D01*
X122182584Y-88682584D01*
X122238834Y-88598401D01*
X122253600Y-88524167D01*
X122253599Y-87474034D01*
X122253598Y-87474030D01*
X122253598Y-87474026D01*
X122238834Y-87399799D01*
X122188277Y-87324136D01*
X122182584Y-87315616D01*
X122171333Y-87308098D01*
X122098402Y-87259366D01*
X122024167Y-87244600D01*
X120974036Y-87244600D01*
X120974026Y-87244601D01*
X120899799Y-87259365D01*
X120815615Y-87315616D01*
X120759366Y-87399797D01*
X120744600Y-87474030D01*
X120403599Y-87474030D01*
X120403599Y-87324134D01*
X120403598Y-87324131D01*
X120403598Y-87324126D01*
X120388834Y-87249899D01*
X120355808Y-87200473D01*
X120332584Y-87165716D01*
X120332583Y-87165715D01*
X120240167Y-87103963D01*
X120194640Y-87049486D01*
X120185793Y-86979043D01*
X120216434Y-86914999D01*
X120240168Y-86894434D01*
X120248398Y-86888934D01*
X120248401Y-86888934D01*
X120332584Y-86832684D01*
X120388834Y-86748501D01*
X120403600Y-86674267D01*
X120403599Y-85688790D01*
X120423601Y-85620670D01*
X120440612Y-85599586D01*
X120529618Y-85510803D01*
X120591971Y-85476858D01*
X120662780Y-85482011D01*
X120719562Y-85524629D01*
X120744290Y-85591180D01*
X120744600Y-85600012D01*
X120744600Y-86524163D01*
X120744601Y-86524173D01*
X120759365Y-86598400D01*
X120815616Y-86682584D01*
X120899797Y-86738833D01*
X120899799Y-86738834D01*
X120974033Y-86753600D01*
X122024166Y-86753599D01*
X122024169Y-86753598D01*
X122024173Y-86753598D01*
X122073426Y-86743801D01*
X122098401Y-86738834D01*
X122182584Y-86682584D01*
X122238834Y-86598401D01*
X122253600Y-86524167D01*
X122253599Y-85508699D01*
X122273601Y-85440579D01*
X122327257Y-85394086D01*
X122379599Y-85382700D01*
X122801023Y-85382700D01*
X122801025Y-85382700D01*
X122898054Y-85356701D01*
X122898057Y-85356699D01*
X122898058Y-85356699D01*
X122954464Y-85324133D01*
X122985047Y-85306476D01*
X123056076Y-85235447D01*
X123073796Y-85217727D01*
X123073798Y-85217724D01*
X127982419Y-80309103D01*
X135869351Y-80309103D01*
X135869400Y-80309848D01*
X135869400Y-85051423D01*
X135869399Y-85051423D01*
X135895398Y-85148451D01*
X135895401Y-85148458D01*
X135913857Y-85180424D01*
X135913857Y-85180425D01*
X135945621Y-85235443D01*
X135945623Y-85235445D01*
X135945623Y-85235446D01*
X135945626Y-85235449D01*
X136774595Y-86064417D01*
X136808620Y-86126730D01*
X136811500Y-86153513D01*
X136811500Y-87200463D01*
X136811501Y-87200473D01*
X136826265Y-87274700D01*
X136882516Y-87358884D01*
X136966697Y-87415133D01*
X136966699Y-87415134D01*
X137040933Y-87429900D01*
X138615066Y-87429899D01*
X138615069Y-87429898D01*
X138615073Y-87429898D01*
X138664326Y-87420101D01*
X138689301Y-87415134D01*
X138773484Y-87358884D01*
X138829734Y-87274701D01*
X138844500Y-87200467D01*
X138844499Y-85626334D01*
X138844498Y-85626331D01*
X138844498Y-85626326D01*
X138829734Y-85552099D01*
X138817036Y-85533095D01*
X138773484Y-85467916D01*
X138773483Y-85467915D01*
X138689302Y-85411666D01*
X138615069Y-85396900D01*
X138615067Y-85396900D01*
X137238313Y-85396900D01*
X137170192Y-85376898D01*
X137149218Y-85359995D01*
X136669305Y-84880082D01*
X136635279Y-84817770D01*
X136632400Y-84790987D01*
X136632400Y-82697227D01*
X136652402Y-82629106D01*
X136706058Y-82582613D01*
X136776332Y-82572509D01*
X136840912Y-82602003D01*
X136863165Y-82627225D01*
X136868316Y-82634934D01*
X136952497Y-82691183D01*
X136952499Y-82691184D01*
X137026733Y-82705950D01*
X138476866Y-82705949D01*
X138476869Y-82705948D01*
X138476873Y-82705948D01*
X138526126Y-82696151D01*
X138551101Y-82691184D01*
X138635284Y-82634934D01*
X138691534Y-82550751D01*
X138706300Y-82476517D01*
X138706299Y-81026484D01*
X138706298Y-81026481D01*
X138706298Y-81026476D01*
X138691534Y-80952249D01*
X138635283Y-80868065D01*
X138551102Y-80811816D01*
X138476867Y-80797050D01*
X137026736Y-80797050D01*
X137026726Y-80797051D01*
X136952499Y-80811815D01*
X136868315Y-80868066D01*
X136863163Y-80875777D01*
X136808685Y-80921303D01*
X136738242Y-80930149D01*
X136674198Y-80899506D01*
X136636889Y-80839103D01*
X136632400Y-80805772D01*
X136632400Y-80461860D01*
X136652402Y-80393739D01*
X136669376Y-80372692D01*
X137102048Y-79940742D01*
X137300291Y-79742829D01*
X137362631Y-79708856D01*
X137389312Y-79705999D01*
X138476864Y-79705999D01*
X138476866Y-79705999D01*
X138476869Y-79705998D01*
X138476872Y-79705998D01*
X138513463Y-79698719D01*
X138551101Y-79691234D01*
X138635284Y-79634984D01*
X138670149Y-79582806D01*
X139499400Y-79582806D01*
X139499400Y-80217393D01*
X139537715Y-80850827D01*
X139614203Y-81480763D01*
X139614204Y-81480770D01*
X139682038Y-81850930D01*
X139728592Y-82104962D01*
X139880458Y-82721106D01*
X139897112Y-82774551D01*
X140069248Y-83326957D01*
X140294263Y-83920272D01*
X140294283Y-83920320D01*
X140554717Y-84498981D01*
X140554718Y-84498983D01*
X140849621Y-85060874D01*
X140849627Y-85060885D01*
X141177900Y-85603915D01*
X141177918Y-85603943D01*
X141538391Y-86126179D01*
X141538400Y-86126190D01*
X141929759Y-86625723D01*
X141929763Y-86625728D01*
X141929765Y-86625730D01*
X141929766Y-86625731D01*
X142350559Y-87100709D01*
X142350580Y-87100731D01*
X142799268Y-87549419D01*
X142799290Y-87549440D01*
X143084624Y-87802223D01*
X143274277Y-87970241D01*
X143549602Y-88185944D01*
X143773820Y-88361608D01*
X144296056Y-88722081D01*
X144296084Y-88722099D01*
X144839114Y-89050372D01*
X144839125Y-89050378D01*
X145360724Y-89324134D01*
X145401022Y-89345284D01*
X145979698Y-89605725D01*
X146573044Y-89830752D01*
X147178894Y-90019542D01*
X147795038Y-90171408D01*
X148419226Y-90285795D01*
X148664649Y-90315594D01*
X149049172Y-90362284D01*
X149049177Y-90362284D01*
X149049183Y-90362285D01*
X149585633Y-90394734D01*
X149682607Y-90400600D01*
X149682608Y-90400600D01*
X150317193Y-90400600D01*
X150401291Y-90395512D01*
X150950617Y-90362285D01*
X150950623Y-90362284D01*
X150950627Y-90362284D01*
X151196040Y-90332485D01*
X151580574Y-90285795D01*
X152204762Y-90171408D01*
X152820906Y-90019542D01*
X153426756Y-89830752D01*
X154020102Y-89605725D01*
X154598778Y-89345284D01*
X155160674Y-89050378D01*
X155160685Y-89050372D01*
X155703715Y-88722099D01*
X155703717Y-88722097D01*
X155703738Y-88722085D01*
X156003512Y-88515165D01*
X156225979Y-88361608D01*
X156225983Y-88361604D01*
X156225990Y-88361600D01*
X156725523Y-87970241D01*
X157200516Y-87549434D01*
X157649234Y-87100716D01*
X158070041Y-86625723D01*
X158461400Y-86126190D01*
X158478566Y-86101322D01*
X158718143Y-85754234D01*
X158821885Y-85603938D01*
X158824517Y-85599584D01*
X159150172Y-85060885D01*
X159150178Y-85060874D01*
X159213128Y-84940933D01*
X159445084Y-84498978D01*
X159705525Y-83920302D01*
X159930552Y-83326956D01*
X160119342Y-82721106D01*
X160271208Y-82104962D01*
X160385595Y-81480774D01*
X160440755Y-81026484D01*
X160462084Y-80850827D01*
X160462794Y-80839103D01*
X160500400Y-80217392D01*
X160500400Y-79582808D01*
X160493826Y-79474134D01*
X160472078Y-79114583D01*
X160462085Y-78949383D01*
X160452029Y-78866567D01*
X160415394Y-78564849D01*
X160385595Y-78319426D01*
X160271208Y-77695238D01*
X160119342Y-77079094D01*
X159930552Y-76473244D01*
X159705525Y-75879898D01*
X159445084Y-75301222D01*
X159445081Y-75301216D01*
X159445081Y-75301215D01*
X159432073Y-75276430D01*
X160798500Y-75276430D01*
X160798500Y-76726563D01*
X160798501Y-76726573D01*
X160813265Y-76800800D01*
X160869516Y-76884984D01*
X160953697Y-76941233D01*
X160953699Y-76941234D01*
X161027933Y-76956000D01*
X162115786Y-76955999D01*
X162183907Y-76976001D01*
X162204881Y-76992904D01*
X164954806Y-79742829D01*
X167616983Y-82405005D01*
X167651009Y-82467317D01*
X167645944Y-82538132D01*
X167603397Y-82594968D01*
X167536877Y-82619779D01*
X167527888Y-82620100D01*
X166443475Y-82620100D01*
X166375354Y-82600098D01*
X166340843Y-82560270D01*
X166337930Y-82562218D01*
X166274784Y-82467715D01*
X166190602Y-82411466D01*
X166116367Y-82396700D01*
X164542236Y-82396700D01*
X164542226Y-82396701D01*
X164467999Y-82411465D01*
X164383815Y-82467716D01*
X164327566Y-82551897D01*
X164312800Y-82626130D01*
X164312800Y-84200263D01*
X164312801Y-84200273D01*
X164327565Y-84274500D01*
X164383816Y-84358684D01*
X164467997Y-84414933D01*
X164467999Y-84414934D01*
X164542233Y-84429700D01*
X166116366Y-84429699D01*
X166116369Y-84429698D01*
X166116373Y-84429698D01*
X166165626Y-84419901D01*
X166190601Y-84414934D01*
X166274784Y-84358684D01*
X166331034Y-84274501D01*
X166345800Y-84200267D01*
X166345799Y-83965430D01*
X173743300Y-83965430D01*
X173743300Y-85539563D01*
X173743301Y-85539573D01*
X173758065Y-85613800D01*
X173814316Y-85697984D01*
X173898497Y-85754233D01*
X173898499Y-85754234D01*
X173972733Y-85769000D01*
X175546866Y-85768999D01*
X175546869Y-85768998D01*
X175546873Y-85768998D01*
X175596126Y-85759201D01*
X175621101Y-85754234D01*
X175705284Y-85697984D01*
X175761534Y-85613801D01*
X175776300Y-85539567D01*
X175776299Y-83965434D01*
X175776298Y-83965430D01*
X175776298Y-83965426D01*
X175761534Y-83891199D01*
X175705283Y-83807015D01*
X175621102Y-83750766D01*
X175546867Y-83736000D01*
X173972736Y-83736000D01*
X173972726Y-83736001D01*
X173898499Y-83750765D01*
X173814315Y-83807016D01*
X173758066Y-83891197D01*
X173743300Y-83965430D01*
X166345799Y-83965430D01*
X166345799Y-83785915D01*
X166345799Y-83509100D01*
X166365801Y-83440979D01*
X166419456Y-83394486D01*
X166471799Y-83383100D01*
X168702875Y-83383100D01*
X168803325Y-83383100D01*
X179293671Y-83383100D01*
X179361792Y-83403102D01*
X179382771Y-83420009D01*
X179501626Y-83538876D01*
X179921950Y-83959243D01*
X180065600Y-84102907D01*
X180099622Y-84165221D01*
X180102500Y-84191998D01*
X180102500Y-84281000D01*
X180082498Y-84349121D01*
X180028842Y-84395614D01*
X179976500Y-84407000D01*
X179559136Y-84407000D01*
X179559126Y-84407001D01*
X179484899Y-84421765D01*
X179400715Y-84478016D01*
X179344466Y-84562196D01*
X179337778Y-84595819D01*
X179304869Y-84658729D01*
X179243173Y-84693859D01*
X179172279Y-84690058D01*
X179114693Y-84648532D01*
X179090620Y-84595815D01*
X179083934Y-84562199D01*
X179058586Y-84524263D01*
X179027684Y-84478016D01*
X179027683Y-84478015D01*
X178943502Y-84421766D01*
X178869267Y-84407000D01*
X177019136Y-84407000D01*
X177019126Y-84407001D01*
X176944899Y-84421765D01*
X176860715Y-84478016D01*
X176804466Y-84562197D01*
X176789700Y-84636430D01*
X176789700Y-86486563D01*
X176789701Y-86486573D01*
X176804465Y-86560800D01*
X176860716Y-86644984D01*
X176944897Y-86701233D01*
X176944899Y-86701234D01*
X177019133Y-86716000D01*
X178869266Y-86715999D01*
X178869269Y-86715998D01*
X178869273Y-86715998D01*
X178918526Y-86706201D01*
X178943501Y-86701234D01*
X179027684Y-86644984D01*
X179083934Y-86560801D01*
X179090621Y-86527182D01*
X179123528Y-86464273D01*
X179185222Y-86429140D01*
X179256117Y-86432940D01*
X179313704Y-86474465D01*
X179337779Y-86527182D01*
X179344466Y-86560801D01*
X179400716Y-86644984D01*
X179484897Y-86701233D01*
X179484899Y-86701234D01*
X179559133Y-86716000D01*
X181409266Y-86715999D01*
X181409269Y-86715998D01*
X181409273Y-86715998D01*
X181458526Y-86706201D01*
X181483501Y-86701234D01*
X181567684Y-86644984D01*
X181623934Y-86560801D01*
X181630621Y-86527182D01*
X181663528Y-86464273D01*
X181725222Y-86429140D01*
X181796117Y-86432940D01*
X181853704Y-86474465D01*
X181877779Y-86527182D01*
X181884466Y-86560801D01*
X181940716Y-86644984D01*
X182024897Y-86701233D01*
X182024899Y-86701234D01*
X182099133Y-86716000D01*
X183949266Y-86715999D01*
X183949269Y-86715998D01*
X183949273Y-86715998D01*
X183998526Y-86706201D01*
X184023501Y-86701234D01*
X184107684Y-86644984D01*
X184163934Y-86560801D01*
X184170621Y-86527182D01*
X184203528Y-86464273D01*
X184265222Y-86429140D01*
X184336117Y-86432940D01*
X184393704Y-86474465D01*
X184417779Y-86527182D01*
X184424466Y-86560801D01*
X184480716Y-86644984D01*
X184564897Y-86701233D01*
X184564899Y-86701234D01*
X184639133Y-86716000D01*
X186489266Y-86715999D01*
X186489269Y-86715998D01*
X186489273Y-86715998D01*
X186538526Y-86706201D01*
X186563501Y-86701234D01*
X186647684Y-86644984D01*
X186703934Y-86560801D01*
X186718700Y-86486567D01*
X186718699Y-84636434D01*
X186718698Y-84636430D01*
X186718698Y-84636426D01*
X186703934Y-84562199D01*
X186678586Y-84524263D01*
X186647684Y-84478016D01*
X186647683Y-84478015D01*
X186563502Y-84421766D01*
X186489267Y-84407000D01*
X184639136Y-84407000D01*
X184639126Y-84407001D01*
X184564899Y-84421765D01*
X184480715Y-84478016D01*
X184424466Y-84562196D01*
X184417778Y-84595819D01*
X184384869Y-84658729D01*
X184323173Y-84693859D01*
X184252279Y-84690058D01*
X184194693Y-84648532D01*
X184170620Y-84595815D01*
X184163934Y-84562199D01*
X184138586Y-84524263D01*
X184107684Y-84478016D01*
X184107683Y-84478015D01*
X184023502Y-84421766D01*
X183949267Y-84407000D01*
X182099136Y-84407000D01*
X182099126Y-84407001D01*
X182024899Y-84421765D01*
X181940715Y-84478016D01*
X181884466Y-84562196D01*
X181877778Y-84595819D01*
X181844869Y-84658729D01*
X181783173Y-84693859D01*
X181712279Y-84690058D01*
X181654693Y-84648532D01*
X181630620Y-84595815D01*
X181623934Y-84562199D01*
X181598586Y-84524263D01*
X181567684Y-84478016D01*
X181567683Y-84478015D01*
X181483502Y-84421766D01*
X181409269Y-84407000D01*
X181409267Y-84407000D01*
X180991500Y-84407000D01*
X180923379Y-84386998D01*
X180876886Y-84333342D01*
X180865500Y-84281000D01*
X180865500Y-83985748D01*
X180865501Y-83959243D01*
X180865503Y-83931594D01*
X180865501Y-83931589D01*
X180865502Y-83931584D01*
X180859590Y-83909523D01*
X180854631Y-83891015D01*
X180854629Y-83891005D01*
X180840193Y-83837117D01*
X180839611Y-83834744D01*
X180839578Y-83834664D01*
X180839068Y-83833796D01*
X180823606Y-83807016D01*
X180811422Y-83785912D01*
X180811420Y-83785905D01*
X180811419Y-83785907D01*
X180789735Y-83748344D01*
X180789311Y-83747596D01*
X180789283Y-83747560D01*
X180749997Y-83708274D01*
X180749993Y-83708267D01*
X180749992Y-83708269D01*
X179816366Y-82774549D01*
X179816336Y-82774513D01*
X179809176Y-82767353D01*
X179762932Y-82721109D01*
X179762929Y-82721104D01*
X179762929Y-82721105D01*
X179738156Y-82696329D01*
X179690959Y-82669080D01*
X179690955Y-82669076D01*
X179690955Y-82669077D01*
X179651165Y-82646101D01*
X179609486Y-82634934D01*
X179609479Y-82634932D01*
X179554147Y-82620102D01*
X179554135Y-82620100D01*
X179554125Y-82620100D01*
X179513965Y-82620100D01*
X179453694Y-82620097D01*
X179453692Y-82620097D01*
X179445321Y-82620097D01*
X179445277Y-82620100D01*
X168963312Y-82620100D01*
X168895191Y-82600098D01*
X168874217Y-82583195D01*
X162744404Y-76453381D01*
X162710378Y-76391069D01*
X162707499Y-76364286D01*
X162707499Y-75276436D01*
X162707498Y-75276427D01*
X162692734Y-75202199D01*
X162692733Y-75202197D01*
X162636484Y-75118016D01*
X162636483Y-75118015D01*
X162552302Y-75061766D01*
X162478067Y-75047000D01*
X161027936Y-75047000D01*
X161027926Y-75047001D01*
X160953699Y-75061765D01*
X160869515Y-75118016D01*
X160813266Y-75202197D01*
X160798500Y-75276430D01*
X159432073Y-75276430D01*
X159150178Y-74739325D01*
X159150172Y-74739314D01*
X158821899Y-74196284D01*
X158821881Y-74196256D01*
X158461408Y-73674020D01*
X158240247Y-73391729D01*
X158070041Y-73174477D01*
X157969972Y-73061522D01*
X157649240Y-72699490D01*
X157649219Y-72699468D01*
X157200531Y-72250780D01*
X157200509Y-72250759D01*
X156725531Y-71829966D01*
X156725530Y-71829965D01*
X156725528Y-71829963D01*
X156725523Y-71829959D01*
X156233807Y-71444724D01*
X156225979Y-71438591D01*
X155703743Y-71078118D01*
X155703715Y-71078100D01*
X155160685Y-70749827D01*
X155160674Y-70749821D01*
X154598783Y-70454918D01*
X154598781Y-70454917D01*
X154020120Y-70194483D01*
X154020116Y-70194481D01*
X154020102Y-70194475D01*
X154020088Y-70194469D01*
X154020072Y-70194463D01*
X153426757Y-69969448D01*
X152820910Y-69780659D01*
X152820906Y-69780658D01*
X152204762Y-69628792D01*
X152204758Y-69628791D01*
X152204753Y-69628790D01*
X151580570Y-69514404D01*
X151580563Y-69514403D01*
X150950627Y-69437915D01*
X150317193Y-69399600D01*
X150317192Y-69399600D01*
X149682608Y-69399600D01*
X149682607Y-69399600D01*
X149049172Y-69437915D01*
X148419236Y-69514403D01*
X148419229Y-69514404D01*
X147795046Y-69628790D01*
X147178889Y-69780659D01*
X146573042Y-69969448D01*
X145979727Y-70194463D01*
X145979679Y-70194483D01*
X145401018Y-70454917D01*
X145401016Y-70454918D01*
X144839125Y-70749821D01*
X144839114Y-70749827D01*
X144296084Y-71078100D01*
X144296056Y-71078118D01*
X143773820Y-71438591D01*
X143274269Y-71829965D01*
X143274268Y-71829966D01*
X142799290Y-72250759D01*
X142799268Y-72250780D01*
X142350580Y-72699468D01*
X142350559Y-72699490D01*
X141929766Y-73174468D01*
X141929765Y-73174469D01*
X141538391Y-73674020D01*
X141177918Y-74196256D01*
X141177900Y-74196284D01*
X140849627Y-74739314D01*
X140849621Y-74739325D01*
X140554718Y-75301216D01*
X140554717Y-75301218D01*
X140294283Y-75879879D01*
X140294263Y-75879927D01*
X140069248Y-76473242D01*
X139880459Y-77079089D01*
X139728590Y-77695246D01*
X139614204Y-78319429D01*
X139614203Y-78319436D01*
X139537715Y-78949372D01*
X139499400Y-79582806D01*
X138670149Y-79582806D01*
X138691534Y-79550802D01*
X138691534Y-79550801D01*
X138706299Y-79476572D01*
X138706300Y-79476567D01*
X138706299Y-78026434D01*
X138706298Y-78026430D01*
X138706298Y-78026426D01*
X138691534Y-77952199D01*
X138663395Y-77910087D01*
X138635284Y-77868016D01*
X138635283Y-77868015D01*
X138551102Y-77811766D01*
X138476867Y-77797000D01*
X137026736Y-77797000D01*
X137026726Y-77797001D01*
X136952499Y-77811765D01*
X136868315Y-77868016D01*
X136812066Y-77952197D01*
X136797300Y-78026430D01*
X136797300Y-79114583D01*
X136777298Y-79182704D01*
X136760321Y-79203753D01*
X136022599Y-79940246D01*
X136022034Y-79940742D01*
X135980579Y-79982197D01*
X135945804Y-80016915D01*
X135945786Y-80016939D01*
X135945630Y-80017141D01*
X135920402Y-80060837D01*
X135920351Y-80060925D01*
X135895512Y-80103864D01*
X135895403Y-80104127D01*
X135882545Y-80152114D01*
X135882519Y-80152212D01*
X135869437Y-80200872D01*
X135869400Y-80201156D01*
X135869400Y-80251188D01*
X135869351Y-80309103D01*
X127982419Y-80309103D01*
X145122317Y-63169205D01*
X145184629Y-63135179D01*
X145211412Y-63132300D01*
X171483787Y-63132300D01*
X171551908Y-63152302D01*
X171572882Y-63169205D01*
X175598695Y-67195018D01*
X175632721Y-67257330D01*
X175635600Y-67284113D01*
X175635600Y-67325331D01*
X175635599Y-67325331D01*
X175673716Y-67467582D01*
X175747346Y-67595114D01*
X175747354Y-67595124D01*
X175851475Y-67699245D01*
X175851480Y-67699249D01*
X175851482Y-67699251D01*
X175979018Y-67772884D01*
X176121267Y-67811000D01*
X176121269Y-67811000D01*
X176268531Y-67811000D01*
X176268533Y-67811000D01*
X176410782Y-67772884D01*
X176538318Y-67699251D01*
X176642451Y-67595118D01*
X176712448Y-67473878D01*
X176763830Y-67424886D01*
X176833544Y-67411449D01*
X176899455Y-67437836D01*
X176910662Y-67447784D01*
X176943026Y-67480148D01*
X176943270Y-67480426D01*
X176984948Y-67522070D01*
X176984947Y-67522070D01*
X176984966Y-67522088D01*
X177019853Y-67556975D01*
X177025560Y-67562682D01*
X177025822Y-67562911D01*
X180066560Y-70601202D01*
X180100610Y-70663499D01*
X180103500Y-70690332D01*
X180103500Y-76661000D01*
X180083498Y-76729121D01*
X180029842Y-76775614D01*
X179977500Y-76787000D01*
X179559136Y-76787000D01*
X179559126Y-76787001D01*
X179484899Y-76801765D01*
X179400715Y-76858016D01*
X179344466Y-76942197D01*
X179329700Y-77016430D01*
X179329700Y-78866563D01*
X179329701Y-78866573D01*
X179344465Y-78940800D01*
X179400716Y-79024984D01*
X179484897Y-79081233D01*
X179484899Y-79081234D01*
X179559133Y-79096000D01*
X181409266Y-79095999D01*
X181409269Y-79095998D01*
X181409273Y-79095998D01*
X181458526Y-79086201D01*
X181483501Y-79081234D01*
X181567684Y-79024984D01*
X181623934Y-78940801D01*
X181630621Y-78907182D01*
X181663528Y-78844273D01*
X181725222Y-78809140D01*
X181796117Y-78812940D01*
X181853704Y-78854465D01*
X181877779Y-78907182D01*
X181884466Y-78940801D01*
X181940716Y-79024984D01*
X182024897Y-79081233D01*
X182024899Y-79081234D01*
X182099133Y-79096000D01*
X183949266Y-79095999D01*
X183949269Y-79095998D01*
X183949273Y-79095998D01*
X183998526Y-79086201D01*
X184023501Y-79081234D01*
X184107684Y-79024984D01*
X184163934Y-78940801D01*
X184170621Y-78907182D01*
X184203528Y-78844273D01*
X184265222Y-78809140D01*
X184336117Y-78812940D01*
X184393704Y-78854465D01*
X184417779Y-78907182D01*
X184424466Y-78940801D01*
X184480716Y-79024984D01*
X184564897Y-79081233D01*
X184564899Y-79081234D01*
X184639133Y-79096000D01*
X186489266Y-79095999D01*
X186489269Y-79095998D01*
X186489273Y-79095998D01*
X186538526Y-79086201D01*
X186563501Y-79081234D01*
X186647684Y-79024984D01*
X186703934Y-78940801D01*
X186718700Y-78866567D01*
X186718699Y-77016434D01*
X186718698Y-77016430D01*
X186718698Y-77016426D01*
X186703934Y-76942199D01*
X186668342Y-76888933D01*
X186647684Y-76858016D01*
X186647683Y-76858015D01*
X186563502Y-76801766D01*
X186489269Y-76787000D01*
X186489267Y-76787000D01*
X186072500Y-76787000D01*
X186004379Y-76766998D01*
X185957886Y-76713342D01*
X185946500Y-76661000D01*
X185946500Y-74760476D01*
X185940833Y-74739326D01*
X185920501Y-74663446D01*
X185920499Y-74663443D01*
X185920499Y-74663441D01*
X185870278Y-74576456D01*
X185870270Y-74576446D01*
X185794858Y-74501034D01*
X185794835Y-74501013D01*
X182733088Y-71439264D01*
X182732337Y-71438605D01*
X172827298Y-61533476D01*
X172827295Y-61533471D01*
X172738553Y-61444729D01*
X172738543Y-61444721D01*
X172651557Y-61394500D01*
X172651486Y-61394471D01*
X172650504Y-61394217D01*
X172554531Y-61368500D01*
X172554525Y-61368499D01*
X172446359Y-61368499D01*
X172446343Y-61368500D01*
X142552024Y-61368500D01*
X142451574Y-61368500D01*
X142402460Y-61381660D01*
X142355594Y-61394218D01*
X142354612Y-61394472D01*
X142354542Y-61394500D01*
X142267556Y-61444721D01*
X142267553Y-61444724D01*
X142267552Y-61444725D01*
X123201792Y-80510585D01*
X123130082Y-80582295D01*
X123067770Y-80616320D01*
X123040986Y-80619200D01*
X122379600Y-80619200D01*
X122311479Y-80599198D01*
X122264986Y-80545542D01*
X122253600Y-80493200D01*
X122253599Y-79474086D01*
X122253598Y-79474076D01*
X122238834Y-79399849D01*
X122182617Y-79315716D01*
X122182584Y-79315666D01*
X122182583Y-79315665D01*
X122098402Y-79259416D01*
X122024167Y-79244650D01*
X120974036Y-79244650D01*
X120974026Y-79244651D01*
X120899799Y-79259415D01*
X120815615Y-79315666D01*
X120759366Y-79399847D01*
X120744600Y-79474080D01*
X120744600Y-79474084D01*
X120744601Y-80493200D01*
X120724599Y-80561321D01*
X120670943Y-80607814D01*
X120618601Y-80619200D01*
X120379600Y-80619200D01*
X120311479Y-80599198D01*
X120264986Y-80545542D01*
X120253600Y-80493200D01*
X120253599Y-79474136D01*
X120253598Y-79474126D01*
X120238834Y-79399899D01*
X120182583Y-79315715D01*
X120098402Y-79259466D01*
X120024167Y-79244700D01*
X118974036Y-79244700D01*
X118974026Y-79244701D01*
X118899799Y-79259465D01*
X118815615Y-79315716D01*
X118759366Y-79399897D01*
X118744600Y-79474130D01*
X118744600Y-80510585D01*
X118724598Y-80578706D01*
X118670942Y-80625199D01*
X118651653Y-80632172D01*
X118651550Y-80632200D01*
X118651111Y-80632319D01*
X118603026Y-80645204D01*
X118602764Y-80645312D01*
X118559825Y-80670151D01*
X118559737Y-80670202D01*
X118516041Y-80695430D01*
X118515839Y-80695586D01*
X118515815Y-80695604D01*
X118481097Y-80730379D01*
X118439642Y-80771834D01*
X118439146Y-80772399D01*
X116982273Y-82231703D01*
X116946414Y-82267562D01*
X116946235Y-82267795D01*
X116921384Y-82310923D01*
X116921333Y-82311011D01*
X116896195Y-82354551D01*
X116896182Y-82354585D01*
X116896083Y-82354823D01*
X116896079Y-82354831D01*
X116883111Y-82403388D01*
X116883085Y-82403484D01*
X116870198Y-82451582D01*
X116870157Y-82451890D01*
X100500400Y-82451890D01*
X100500400Y-77474080D01*
X120744600Y-77474080D01*
X120744600Y-78524113D01*
X120744601Y-78524123D01*
X120759365Y-78598350D01*
X120815616Y-78682534D01*
X120899797Y-78738783D01*
X120899799Y-78738784D01*
X120974033Y-78753550D01*
X122024166Y-78753549D01*
X122024169Y-78753548D01*
X122024173Y-78753548D01*
X122073426Y-78743751D01*
X122098401Y-78738784D01*
X122182584Y-78682534D01*
X122238834Y-78598351D01*
X122253600Y-78524117D01*
X122253599Y-77474084D01*
X122253598Y-77474080D01*
X122253598Y-77474076D01*
X122238834Y-77399849D01*
X122182583Y-77315665D01*
X122098402Y-77259416D01*
X122024167Y-77244650D01*
X120974036Y-77244650D01*
X120974026Y-77244651D01*
X120899799Y-77259415D01*
X120815615Y-77315666D01*
X120759366Y-77399847D01*
X120744600Y-77474080D01*
X100500400Y-77474080D01*
X100500400Y-75324130D01*
X118594600Y-75324130D01*
X118594600Y-76674263D01*
X118594601Y-76674273D01*
X118609365Y-76748500D01*
X118665616Y-76832684D01*
X118749797Y-76888933D01*
X118749799Y-76888934D01*
X118824033Y-76903700D01*
X120174166Y-76903699D01*
X120174169Y-76903698D01*
X120174173Y-76903698D01*
X120223426Y-76893901D01*
X120248401Y-76888934D01*
X120332584Y-76832684D01*
X120388834Y-76748501D01*
X120403600Y-76674267D01*
X120403599Y-75474080D01*
X120744600Y-75474080D01*
X120744600Y-76524113D01*
X120744601Y-76524123D01*
X120759365Y-76598350D01*
X120815616Y-76682534D01*
X120899797Y-76738783D01*
X120899799Y-76738784D01*
X120974033Y-76753550D01*
X122024166Y-76753549D01*
X122024169Y-76753548D01*
X122024173Y-76753548D01*
X122073426Y-76743751D01*
X122098401Y-76738784D01*
X122182584Y-76682534D01*
X122238834Y-76598351D01*
X122253600Y-76524117D01*
X122253599Y-75474084D01*
X122253598Y-75474080D01*
X122253598Y-75474076D01*
X122238834Y-75399849D01*
X122238833Y-75399847D01*
X122182584Y-75315666D01*
X122182583Y-75315665D01*
X122098402Y-75259416D01*
X122024167Y-75244650D01*
X120974036Y-75244650D01*
X120974026Y-75244651D01*
X120899799Y-75259415D01*
X120815615Y-75315666D01*
X120759366Y-75399847D01*
X120744600Y-75474080D01*
X120403599Y-75474080D01*
X120403599Y-75324134D01*
X120403598Y-75324130D01*
X120403598Y-75324126D01*
X120388834Y-75249899D01*
X120332583Y-75165715D01*
X120248402Y-75109466D01*
X120174167Y-75094700D01*
X118824036Y-75094700D01*
X118824026Y-75094701D01*
X118749799Y-75109465D01*
X118665615Y-75165716D01*
X118609366Y-75249897D01*
X118594600Y-75324130D01*
X100500400Y-75324130D01*
X100500400Y-64463530D01*
X119504400Y-64463530D01*
X119504400Y-66037663D01*
X119504401Y-66037673D01*
X119519165Y-66111900D01*
X119575416Y-66196084D01*
X119659597Y-66252333D01*
X119659599Y-66252334D01*
X119733833Y-66267100D01*
X121307966Y-66267099D01*
X121307969Y-66267098D01*
X121307973Y-66267098D01*
X121357226Y-66257301D01*
X121382201Y-66252334D01*
X121466384Y-66196084D01*
X121522634Y-66111901D01*
X121537400Y-66037667D01*
X121537399Y-64463534D01*
X121537398Y-64463530D01*
X121537398Y-64463526D01*
X121522634Y-64389299D01*
X121466383Y-64305115D01*
X121382202Y-64248866D01*
X121307967Y-64234100D01*
X119733836Y-64234100D01*
X119733826Y-64234101D01*
X119659599Y-64248865D01*
X119575415Y-64305116D01*
X119519166Y-64389297D01*
X119504400Y-64463530D01*
X100500400Y-64463530D01*
X100500400Y-60292604D01*
X100520402Y-60224483D01*
X100537305Y-60203509D01*
X110170409Y-50570405D01*
X110232721Y-50536379D01*
X110259504Y-50533500D01*
X189740296Y-50533500D01*
X189808417Y-50553502D01*
G37*
%TD.AperFunction*%
%TD*%
M02*
