%TF.GenerationSoftware,KiCad,Pcbnew,10.0.6*%
%TF.CreationDate,2026-09-23T18:23:03+08:00*%
%TF.ProjectId,Executive_Actions_Module,45786563-7574-4697-9665-5f416374696f,1.7*%
%TF.SameCoordinates,Original*%
%TF.FileFunction,Legend,Bot*%
%TF.FilePolarity,Positive*%
%FSLAX46Y46*%
G04 Gerber Fmt 4.6, Leading zero omitted, Abs format (unit mm)*
G04 Created by KiCad (PCBNEW 10.0.6) date 2026-09-23 18:23:03*
%MOMM*%
%LPD*%
G01*
G04 APERTURE LIST*
%ADD10C,0.254000*%
%ADD11C,1.000000*%
%ADD12C,0.800000*%
%ADD13C,0.180000*%
G04 APERTURE END LIST*
D10*
X107599700Y-79060100D02*
X107599700Y-86560800D01*
X107599700Y-79060100D02*
X113624600Y-79060100D01*
X107599700Y-86560800D02*
X113624600Y-86560800D01*
X113624600Y-86560800D02*
X113624600Y-79060100D01*
D11*
X116918400Y-113999900D02*
G75*
G02*
X113082000Y-113999900I-1918200J0D01*
G01*
X113082000Y-113999900D02*
G75*
G02*
X116918400Y-113999900I1918200J0D01*
G01*
X124918200Y-114000100D02*
G75*
G02*
X121081800Y-114000100I-1918200J0D01*
G01*
X121081800Y-114000100D02*
G75*
G02*
X124918200Y-114000100I1918200J0D01*
G01*
D12*
X139502100Y-78751500D02*
G75*
G02*
X136001500Y-78751500I-1750300J0D01*
G01*
X136001500Y-78751500D02*
G75*
G02*
X139502100Y-78751500I1750300J0D01*
G01*
X139502100Y-81751500D02*
G75*
G02*
X136001500Y-81751500I-1750300J0D01*
G01*
X136001500Y-81751500D02*
G75*
G02*
X139502100Y-81751500I1750300J0D01*
G01*
D11*
X163671200Y-76001500D02*
G75*
G02*
X159834800Y-76001500I-1918200J0D01*
G01*
X159834800Y-76001500D02*
G75*
G02*
X163671200Y-76001500I1918200J0D01*
G01*
X163671200Y-84001200D02*
G75*
G02*
X159834800Y-84001200I-1918200J0D01*
G01*
X159834800Y-84001200D02*
G75*
G02*
X163671200Y-84001200I1918200J0D01*
G01*
X180418200Y-114000100D02*
G75*
G02*
X176581800Y-114000100I-1918200J0D01*
G01*
X176581800Y-114000100D02*
G75*
G02*
X180418200Y-114000100I1918200J0D01*
G01*
X185418200Y-114000100D02*
G75*
G02*
X181581800Y-114000100I-1918200J0D01*
G01*
X181581800Y-114000100D02*
G75*
G02*
X185418200Y-114000100I1918200J0D01*
G01*
D13*
X112486479Y-80364106D02*
X112356479Y-80407440D01*
X112356479Y-80407440D02*
X112313145Y-80450773D01*
X112313145Y-80450773D02*
X112269812Y-80537440D01*
X112269812Y-80537440D02*
X112269812Y-80667440D01*
X112269812Y-80667440D02*
X112313145Y-80754106D01*
X112313145Y-80754106D02*
X112356479Y-80797440D01*
X112356479Y-80797440D02*
X112443145Y-80840773D01*
X112443145Y-80840773D02*
X112789812Y-80840773D01*
X112789812Y-80840773D02*
X112789812Y-79930773D01*
X112789812Y-79930773D02*
X112486479Y-79930773D01*
X112486479Y-79930773D02*
X112399812Y-79974106D01*
X112399812Y-79974106D02*
X112356479Y-80017440D01*
X112356479Y-80017440D02*
X112313145Y-80104106D01*
X112313145Y-80104106D02*
X112313145Y-80190773D01*
X112313145Y-80190773D02*
X112356479Y-80277440D01*
X112356479Y-80277440D02*
X112399812Y-80320773D01*
X112399812Y-80320773D02*
X112486479Y-80364106D01*
X112486479Y-80364106D02*
X112789812Y-80364106D01*
X111446479Y-80840773D02*
X111879812Y-80840773D01*
X111879812Y-80840773D02*
X111879812Y-79930773D01*
X111186478Y-80580773D02*
X110753145Y-80580773D01*
X111273145Y-80840773D02*
X110969812Y-79930773D01*
X110969812Y-79930773D02*
X110666478Y-80840773D01*
X109843145Y-80754106D02*
X109886478Y-80797440D01*
X109886478Y-80797440D02*
X110016478Y-80840773D01*
X110016478Y-80840773D02*
X110103145Y-80840773D01*
X110103145Y-80840773D02*
X110233145Y-80797440D01*
X110233145Y-80797440D02*
X110319812Y-80710773D01*
X110319812Y-80710773D02*
X110363145Y-80624106D01*
X110363145Y-80624106D02*
X110406478Y-80450773D01*
X110406478Y-80450773D02*
X110406478Y-80320773D01*
X110406478Y-80320773D02*
X110363145Y-80147440D01*
X110363145Y-80147440D02*
X110319812Y-80060773D01*
X110319812Y-80060773D02*
X110233145Y-79974106D01*
X110233145Y-79974106D02*
X110103145Y-79930773D01*
X110103145Y-79930773D02*
X110016478Y-79930773D01*
X110016478Y-79930773D02*
X109886478Y-79974106D01*
X109886478Y-79974106D02*
X109843145Y-80017440D01*
X109453145Y-80840773D02*
X109453145Y-79930773D01*
X108933145Y-80840773D02*
X109323145Y-80320773D01*
X108933145Y-79930773D02*
X109453145Y-80450773D01*
X112486479Y-82113906D02*
X112356479Y-82157240D01*
X112356479Y-82157240D02*
X112313145Y-82200573D01*
X112313145Y-82200573D02*
X112269812Y-82287240D01*
X112269812Y-82287240D02*
X112269812Y-82417240D01*
X112269812Y-82417240D02*
X112313145Y-82503906D01*
X112313145Y-82503906D02*
X112356479Y-82547240D01*
X112356479Y-82547240D02*
X112443145Y-82590573D01*
X112443145Y-82590573D02*
X112789812Y-82590573D01*
X112789812Y-82590573D02*
X112789812Y-81680573D01*
X112789812Y-81680573D02*
X112486479Y-81680573D01*
X112486479Y-81680573D02*
X112399812Y-81723906D01*
X112399812Y-81723906D02*
X112356479Y-81767240D01*
X112356479Y-81767240D02*
X112313145Y-81853906D01*
X112313145Y-81853906D02*
X112313145Y-81940573D01*
X112313145Y-81940573D02*
X112356479Y-82027240D01*
X112356479Y-82027240D02*
X112399812Y-82070573D01*
X112399812Y-82070573D02*
X112486479Y-82113906D01*
X112486479Y-82113906D02*
X112789812Y-82113906D01*
X111879812Y-82503906D02*
X111836479Y-82547240D01*
X111836479Y-82547240D02*
X111879812Y-82590573D01*
X111879812Y-82590573D02*
X111923145Y-82547240D01*
X111923145Y-82547240D02*
X111879812Y-82503906D01*
X111879812Y-82503906D02*
X111879812Y-82590573D01*
X111879812Y-82027240D02*
X111836479Y-82070573D01*
X111836479Y-82070573D02*
X111879812Y-82113906D01*
X111879812Y-82113906D02*
X111923145Y-82070573D01*
X111923145Y-82070573D02*
X111879812Y-82027240D01*
X111879812Y-82027240D02*
X111879812Y-82113906D01*
X110796479Y-81767240D02*
X110753146Y-81723906D01*
X110753146Y-81723906D02*
X110666479Y-81680573D01*
X110666479Y-81680573D02*
X110449813Y-81680573D01*
X110449813Y-81680573D02*
X110363146Y-81723906D01*
X110363146Y-81723906D02*
X110319813Y-81767240D01*
X110319813Y-81767240D02*
X110276479Y-81853906D01*
X110276479Y-81853906D02*
X110276479Y-81940573D01*
X110276479Y-81940573D02*
X110319813Y-82070573D01*
X110319813Y-82070573D02*
X110839813Y-82590573D01*
X110839813Y-82590573D02*
X110276479Y-82590573D01*
X112269812Y-84254006D02*
X112313145Y-84297340D01*
X112313145Y-84297340D02*
X112443145Y-84340673D01*
X112443145Y-84340673D02*
X112529812Y-84340673D01*
X112529812Y-84340673D02*
X112659812Y-84297340D01*
X112659812Y-84297340D02*
X112746479Y-84210673D01*
X112746479Y-84210673D02*
X112789812Y-84124006D01*
X112789812Y-84124006D02*
X112833145Y-83950673D01*
X112833145Y-83950673D02*
X112833145Y-83820673D01*
X112833145Y-83820673D02*
X112789812Y-83647340D01*
X112789812Y-83647340D02*
X112746479Y-83560673D01*
X112746479Y-83560673D02*
X112659812Y-83474006D01*
X112659812Y-83474006D02*
X112529812Y-83430673D01*
X112529812Y-83430673D02*
X112443145Y-83430673D01*
X112443145Y-83430673D02*
X112313145Y-83474006D01*
X112313145Y-83474006D02*
X112269812Y-83517340D01*
X111879812Y-84254006D02*
X111836479Y-84297340D01*
X111836479Y-84297340D02*
X111879812Y-84340673D01*
X111879812Y-84340673D02*
X111923145Y-84297340D01*
X111923145Y-84297340D02*
X111879812Y-84254006D01*
X111879812Y-84254006D02*
X111879812Y-84340673D01*
X111879812Y-83777340D02*
X111836479Y-83820673D01*
X111836479Y-83820673D02*
X111879812Y-83864006D01*
X111879812Y-83864006D02*
X111923145Y-83820673D01*
X111923145Y-83820673D02*
X111879812Y-83777340D01*
X111879812Y-83777340D02*
X111879812Y-83864006D01*
X110796479Y-83517340D02*
X110753146Y-83474006D01*
X110753146Y-83474006D02*
X110666479Y-83430673D01*
X110666479Y-83430673D02*
X110449813Y-83430673D01*
X110449813Y-83430673D02*
X110363146Y-83474006D01*
X110363146Y-83474006D02*
X110319813Y-83517340D01*
X110319813Y-83517340D02*
X110276479Y-83604006D01*
X110276479Y-83604006D02*
X110276479Y-83690673D01*
X110276479Y-83690673D02*
X110319813Y-83820673D01*
X110319813Y-83820673D02*
X110839813Y-84340673D01*
X110839813Y-84340673D02*
X110276479Y-84340673D01*
X112789812Y-86090673D02*
X112789812Y-85180673D01*
X112789812Y-85180673D02*
X112573145Y-85180673D01*
X112573145Y-85180673D02*
X112443145Y-85224006D01*
X112443145Y-85224006D02*
X112356479Y-85310673D01*
X112356479Y-85310673D02*
X112313145Y-85397340D01*
X112313145Y-85397340D02*
X112269812Y-85570673D01*
X112269812Y-85570673D02*
X112269812Y-85700673D01*
X112269812Y-85700673D02*
X112313145Y-85874006D01*
X112313145Y-85874006D02*
X112356479Y-85960673D01*
X112356479Y-85960673D02*
X112443145Y-86047340D01*
X112443145Y-86047340D02*
X112573145Y-86090673D01*
X112573145Y-86090673D02*
X112789812Y-86090673D01*
X111879812Y-86004006D02*
X111836479Y-86047340D01*
X111836479Y-86047340D02*
X111879812Y-86090673D01*
X111879812Y-86090673D02*
X111923145Y-86047340D01*
X111923145Y-86047340D02*
X111879812Y-86004006D01*
X111879812Y-86004006D02*
X111879812Y-86090673D01*
X111879812Y-85527340D02*
X111836479Y-85570673D01*
X111836479Y-85570673D02*
X111879812Y-85614006D01*
X111879812Y-85614006D02*
X111923145Y-85570673D01*
X111923145Y-85570673D02*
X111879812Y-85527340D01*
X111879812Y-85527340D02*
X111879812Y-85614006D01*
X110363146Y-85484006D02*
X110363146Y-86090673D01*
X110579813Y-85137340D02*
X110796479Y-85787340D01*
X110796479Y-85787340D02*
X110233146Y-85787340D01*
X115064912Y-111229373D02*
X115064912Y-110319373D01*
X115064912Y-110319373D02*
X114848245Y-110319373D01*
X114848245Y-110319373D02*
X114718245Y-110362706D01*
X114718245Y-110362706D02*
X114631579Y-110449373D01*
X114631579Y-110449373D02*
X114588245Y-110536040D01*
X114588245Y-110536040D02*
X114544912Y-110709373D01*
X114544912Y-110709373D02*
X114544912Y-110839373D01*
X114544912Y-110839373D02*
X114588245Y-111012706D01*
X114588245Y-111012706D02*
X114631579Y-111099373D01*
X114631579Y-111099373D02*
X114718245Y-111186040D01*
X114718245Y-111186040D02*
X114848245Y-111229373D01*
X114848245Y-111229373D02*
X115064912Y-111229373D01*
X123064912Y-111229373D02*
X123064912Y-110319373D01*
X123064912Y-110319373D02*
X122848245Y-110319373D01*
X122848245Y-110319373D02*
X122718245Y-110362706D01*
X122718245Y-110362706D02*
X122631579Y-110449373D01*
X122631579Y-110449373D02*
X122588245Y-110536040D01*
X122588245Y-110536040D02*
X122544912Y-110709373D01*
X122544912Y-110709373D02*
X122544912Y-110839373D01*
X122544912Y-110839373D02*
X122588245Y-111012706D01*
X122588245Y-111012706D02*
X122631579Y-111099373D01*
X122631579Y-111099373D02*
X122718245Y-111186040D01*
X122718245Y-111186040D02*
X122848245Y-111229373D01*
X122848245Y-111229373D02*
X123064912Y-111229373D01*
X134344712Y-79142706D02*
X134388045Y-79186040D01*
X134388045Y-79186040D02*
X134518045Y-79229373D01*
X134518045Y-79229373D02*
X134604712Y-79229373D01*
X134604712Y-79229373D02*
X134734712Y-79186040D01*
X134734712Y-79186040D02*
X134821379Y-79099373D01*
X134821379Y-79099373D02*
X134864712Y-79012706D01*
X134864712Y-79012706D02*
X134908045Y-78839373D01*
X134908045Y-78839373D02*
X134908045Y-78709373D01*
X134908045Y-78709373D02*
X134864712Y-78536040D01*
X134864712Y-78536040D02*
X134821379Y-78449373D01*
X134821379Y-78449373D02*
X134734712Y-78362706D01*
X134734712Y-78362706D02*
X134604712Y-78319373D01*
X134604712Y-78319373D02*
X134518045Y-78319373D01*
X134518045Y-78319373D02*
X134388045Y-78362706D01*
X134388045Y-78362706D02*
X134344712Y-78406040D01*
X134344712Y-82342906D02*
X134388045Y-82386240D01*
X134388045Y-82386240D02*
X134518045Y-82429573D01*
X134518045Y-82429573D02*
X134604712Y-82429573D01*
X134604712Y-82429573D02*
X134734712Y-82386240D01*
X134734712Y-82386240D02*
X134821379Y-82299573D01*
X134821379Y-82299573D02*
X134864712Y-82212906D01*
X134864712Y-82212906D02*
X134908045Y-82039573D01*
X134908045Y-82039573D02*
X134908045Y-81909573D01*
X134908045Y-81909573D02*
X134864712Y-81736240D01*
X134864712Y-81736240D02*
X134821379Y-81649573D01*
X134821379Y-81649573D02*
X134734712Y-81562906D01*
X134734712Y-81562906D02*
X134604712Y-81519573D01*
X134604712Y-81519573D02*
X134518045Y-81519573D01*
X134518045Y-81519573D02*
X134388045Y-81562906D01*
X134388045Y-81562906D02*
X134344712Y-81606240D01*
X161361479Y-72752806D02*
X161231479Y-72796140D01*
X161231479Y-72796140D02*
X161188145Y-72839473D01*
X161188145Y-72839473D02*
X161144812Y-72926140D01*
X161144812Y-72926140D02*
X161144812Y-73056140D01*
X161144812Y-73056140D02*
X161188145Y-73142806D01*
X161188145Y-73142806D02*
X161231479Y-73186140D01*
X161231479Y-73186140D02*
X161318145Y-73229473D01*
X161318145Y-73229473D02*
X161664812Y-73229473D01*
X161664812Y-73229473D02*
X161664812Y-72319473D01*
X161664812Y-72319473D02*
X161361479Y-72319473D01*
X161361479Y-72319473D02*
X161274812Y-72362806D01*
X161274812Y-72362806D02*
X161231479Y-72406140D01*
X161231479Y-72406140D02*
X161188145Y-72492806D01*
X161188145Y-72492806D02*
X161188145Y-72579473D01*
X161188145Y-72579473D02*
X161231479Y-72666140D01*
X161231479Y-72666140D02*
X161274812Y-72709473D01*
X161274812Y-72709473D02*
X161361479Y-72752806D01*
X161361479Y-72752806D02*
X161664812Y-72752806D01*
X161361479Y-87552806D02*
X161231479Y-87596140D01*
X161231479Y-87596140D02*
X161188145Y-87639473D01*
X161188145Y-87639473D02*
X161144812Y-87726140D01*
X161144812Y-87726140D02*
X161144812Y-87856140D01*
X161144812Y-87856140D02*
X161188145Y-87942806D01*
X161188145Y-87942806D02*
X161231479Y-87986140D01*
X161231479Y-87986140D02*
X161318145Y-88029473D01*
X161318145Y-88029473D02*
X161664812Y-88029473D01*
X161664812Y-88029473D02*
X161664812Y-87119473D01*
X161664812Y-87119473D02*
X161361479Y-87119473D01*
X161361479Y-87119473D02*
X161274812Y-87162806D01*
X161274812Y-87162806D02*
X161231479Y-87206140D01*
X161231479Y-87206140D02*
X161188145Y-87292806D01*
X161188145Y-87292806D02*
X161188145Y-87379473D01*
X161188145Y-87379473D02*
X161231479Y-87466140D01*
X161231479Y-87466140D02*
X161274812Y-87509473D01*
X161274812Y-87509473D02*
X161361479Y-87552806D01*
X161361479Y-87552806D02*
X161664812Y-87552806D01*
X178664712Y-111229373D02*
X178664712Y-110319373D01*
X178664712Y-110319373D02*
X178448045Y-110319373D01*
X178448045Y-110319373D02*
X178318045Y-110362706D01*
X178318045Y-110362706D02*
X178231379Y-110449373D01*
X178231379Y-110449373D02*
X178188045Y-110536040D01*
X178188045Y-110536040D02*
X178144712Y-110709373D01*
X178144712Y-110709373D02*
X178144712Y-110839373D01*
X178144712Y-110839373D02*
X178188045Y-111012706D01*
X178188045Y-111012706D02*
X178231379Y-111099373D01*
X178231379Y-111099373D02*
X178318045Y-111186040D01*
X178318045Y-111186040D02*
X178448045Y-111229373D01*
X178448045Y-111229373D02*
X178664712Y-111229373D01*
X183464812Y-111229373D02*
X183464812Y-110319373D01*
X183464812Y-110319373D02*
X183248145Y-110319373D01*
X183248145Y-110319373D02*
X183118145Y-110362706D01*
X183118145Y-110362706D02*
X183031479Y-110449373D01*
X183031479Y-110449373D02*
X182988145Y-110536040D01*
X182988145Y-110536040D02*
X182944812Y-110709373D01*
X182944812Y-110709373D02*
X182944812Y-110839373D01*
X182944812Y-110839373D02*
X182988145Y-111012706D01*
X182988145Y-111012706D02*
X183031479Y-111099373D01*
X183031479Y-111099373D02*
X183118145Y-111186040D01*
X183118145Y-111186040D02*
X183248145Y-111229373D01*
X183248145Y-111229373D02*
X183464812Y-111229373D01*
M02*
