M48
; DRILL file KiCad 10.0.6 date 2026-09-22T18:33:26
; FORMAT={-:-/ absolute / metric / decimal}
; #@! TF.CreationDate,2026-09-22T18:33:26+08:00
; #@! TF.GenerationSoftware,Kicad,Pcbnew,10.0.6
; #@! TF.FileFunction,Plated,1,2,PTH
FMAT,2
METRIC
; #@! TA.AperFunction,Plated,PTH,ViaDrill
T1C0.305
; #@! TA.AperFunction,Plated,PTH,ComponentDrill
T2C0.670
; #@! TA.AperFunction,Plated,PTH,ComponentDrill
T3C0.889
; #@! TA.AperFunction,Plated,PTH,ComponentDrill
T4C0.914
; #@! TA.AperFunction,Plated,PTH,ComponentDrill
T5C1.100
%
G90
G05
T1
X100.501Y-95.004
X100.501Y-105.001
X166.5Y-114.0
X176.195Y-67.252
X199.505Y-95.255
X199.505Y-105.253
T2
X119.499Y-75.999
X119.499Y-77.999
X119.499Y-79.999
X119.499Y-81.999
X119.499Y-83.999
X119.499Y-85.999
X119.499Y-87.999
X119.499Y-89.999
X121.499Y-75.999
X121.499Y-77.999
X121.499Y-79.999
X121.499Y-81.999
X121.499Y-83.999
X121.499Y-85.999
X121.499Y-87.999
X121.499Y-89.999
T3
X115.0Y-114.0
X123.0Y-114.0
X137.752Y-78.751
X137.752Y-81.751
X148.5Y-116.0
X151.5Y-116.0
X161.753Y-84.001
X161.753Y-76.001
X178.5Y-114.0
X183.5Y-114.0
T4
X117.981Y-65.251
X120.521Y-65.251
X127.913Y-116.927
X137.828Y-86.413
X137.828Y-96.573
X138.073Y-116.927
X157.664Y-116.677
X165.329Y-83.413
X165.329Y-93.573
X167.824Y-116.677
X174.76Y-79.752
X174.76Y-84.752
T5
X177.944Y-77.941
X177.944Y-85.561
X180.484Y-77.941
X180.484Y-85.561
X183.024Y-77.941
X183.024Y-85.561
X185.564Y-77.941
X185.564Y-85.561
M30
