%TF.GenerationSoftware,KiCad,Pcbnew,10.0.6*%
%TF.CreationDate,2026-09-23T18:18:51+08:00*%
%TF.ProjectId,Analog_Module,416e616c-6f67-45f4-9d6f-64756c652e6b,1.7*%
%TF.SameCoordinates,Original*%
%TF.FileFunction,Copper,L1,Top*%
%TF.FilePolarity,Positive*%
%FSLAX46Y46*%
G04 Gerber Fmt 4.6, Leading zero omitted, Abs format (unit mm)*
G04 Created by KiCad (PCBNEW 10.0.6) date 2026-09-23 18:18:51*
%MOMM*%
%LPD*%
G01*
G04 APERTURE LIST*
%TA.AperFunction,ComponentPad*%
%ADD10R,1.600000X1.600000*%
%TD*%
%TA.AperFunction,ComponentPad*%
%ADD11R,1.524000X1.524000*%
%TD*%
%TA.AperFunction,ComponentPad*%
%ADD12R,1.000000X1.000000*%
%TD*%
%TA.AperFunction,ComponentPad*%
%ADD13R,1.400000X1.399900*%
%TD*%
%TA.AperFunction,ComponentPad*%
%ADD14R,1.400000X1.400000*%
%TD*%
%TA.AperFunction,ComponentPad*%
%ADD15R,1.600200X1.600200*%
%TD*%
%TA.AperFunction,ComponentPad*%
%ADD16R,1.300000X1.300000*%
%TD*%
%TA.AperFunction,SMDPad,CuDef*%
%ADD17R,1.000000X1.100000*%
%TD*%
%TA.AperFunction,ComponentPad*%
%ADD18R,1.300000X1.300100*%
%TD*%
%TA.AperFunction,ViaPad*%
%ADD19C,0.609600*%
%TD*%
%TA.AperFunction,Conductor*%
%ADD20C,0.254000*%
%TD*%
%TA.AperFunction,Conductor*%
%ADD21C,0.762000*%
%TD*%
G04 APERTURE END LIST*
D10*
%TO.P,U4,1*%
%TO.N,LATCH(G)*%
X156309800Y-136009800D03*
%TO.P,U4,2*%
%TO.N,CLOCK(Y)*%
X158849800Y-136009800D03*
%TO.P,U4,3*%
%TO.N,MODE2*%
X161389800Y-136009800D03*
%TO.P,U4,4*%
%TO.N,TRANS*%
X163929800Y-136009800D03*
%TO.P,U4,5*%
%TO.N,GEAR*%
X166469800Y-136009800D03*
%TO.P,U4,6*%
%TO.N,GND*%
X169009800Y-136009800D03*
%TO.P,U4,7*%
%TO.N,N/C*%
X171549800Y-136009800D03*
%TO.P,U4,8*%
%TO.N,GND*%
X174089800Y-136009800D03*
%TO.P,U4,9*%
%TO.N,DATA(P)*%
X174089800Y-128389800D03*
%TO.P,U4,10*%
%TO.N,N/C*%
X171549800Y-128389800D03*
%TO.P,U4,11*%
%TO.N,TRIM*%
X169009800Y-128389800D03*
%TO.P,U4,12*%
%TO.N,RESETTRIM*%
X166469800Y-128389800D03*
%TO.P,U4,13*%
%TO.N,BRAKES*%
X163929800Y-128389800D03*
%TO.P,U4,14*%
%TO.N,MODE1*%
X161389800Y-128389800D03*
%TO.P,U4,15*%
%TO.N,GND*%
X158849800Y-128389800D03*
%TO.P,U4,16*%
%TO.N,+5V*%
X156309800Y-128389800D03*
%TD*%
D11*
%TO.P,C1,1*%
%TO.N,GND*%
X109943900Y-123549100D03*
%TO.P,C1,2*%
%TO.N,+5V*%
X109943900Y-128549000D03*
%TD*%
%TO.P,R5,1*%
%TO.N,GND*%
X171342000Y-124079100D03*
%TO.P,R5,2*%
%TO.N,TRIM*%
X161182000Y-124079100D03*
%TD*%
D12*
%TO.P,WP25,1*%
%TO.N,N/C*%
X143502100Y-143253800D03*
%TD*%
D13*
%TO.P,TP_+5V,1*%
%TO.N,+5V*%
X137250100Y-85000000D03*
%TD*%
D11*
%TO.P,TP_+5V,1*%
%TO.N,+5V*%
X110170200Y-141417700D03*
%TD*%
D14*
%TO.P,TP_TRANS,1*%
%TO.N,TRANS*%
X165000100Y-152499900D03*
%TD*%
%TO.P,TP_+5V,1*%
%TO.N,+5V*%
X151999900Y-121500000D03*
%TD*%
%TO.P,TP_AXIS3,1*%
%TO.N,AXIS3*%
X179000100Y-122000100D03*
%TD*%
%TO.P,TP_+5V,1*%
%TO.N,+5V*%
X157000100Y-152499900D03*
%TD*%
D12*
%TO.P,WP43,1*%
%TO.N,N/C*%
X143501800Y-139253600D03*
%TD*%
D15*
%TO.P,TP_AREF,13*%
%TO.N,AREF*%
X116700000Y-121999900D03*
%TD*%
D12*
%TO.P,WP53,1*%
%TO.N,N/C*%
X143501800Y-149253800D03*
%TD*%
D14*
%TO.P,TP_MODE2,1*%
%TO.N,MODE2*%
X178749900Y-154749900D03*
%TD*%
D15*
%TO.P,TP_SCL,9*%
%TO.N,SCL*%
X126860000Y-121999900D03*
%TD*%
D11*
%TO.P,R2,1*%
%TO.N,GND*%
X154914300Y-155428800D03*
%TO.P,R2,2*%
%TO.N,TRANS*%
X165074300Y-155428800D03*
%TD*%
D14*
%TO.P,TP_+5V,1*%
%TO.N,+5V*%
X111000000Y-100999900D03*
%TD*%
D15*
%TO.P,TP_AXIS3,10*%
%TO.N,AXIS3*%
X124320000Y-121999900D03*
%TD*%
D11*
%TO.P,C4,1*%
%TO.N,GND*%
X153056000Y-134650600D03*
%TO.P,C4,2*%
%TO.N,+5V*%
X153056000Y-129650700D03*
%TD*%
D15*
%TO.P,TP_THROTTLE,6*%
%TO.N,THROTTLE*%
X126899600Y-129599800D03*
%TD*%
D14*
%TO.P,TP_+5V,1*%
%TO.N,+5V*%
X175000100Y-122000100D03*
%TD*%
D12*
%TO.P,WP49,1*%
%TO.N,N/C*%
X141501800Y-145253800D03*
%TD*%
D11*
%TO.P,R1,1*%
%TO.N,GND*%
X113964600Y-154438500D03*
%TO.P,R1,2*%
%TO.N,GEAR*%
X124124600Y-154438500D03*
%TD*%
D16*
%TO.P,WP51,1*%
%TO.N,SCL*%
X141501800Y-149253800D03*
%TD*%
D14*
%TO.P,TP_+5V,1*%
%TO.N,+5V*%
X111000000Y-83000000D03*
%TD*%
%TO.P,TP_RESETTRIM,1*%
%TO.N,RESETTRIM*%
X111000000Y-90999900D03*
%TD*%
D12*
%TO.P,WP44,1*%
%TO.N,N/C*%
X143501800Y-137253800D03*
%TD*%
D15*
%TO.P,TP_DATA_P_,5*%
%TO.N,DATA(P)*%
X124359600Y-129599800D03*
%TD*%
D12*
%TO.P,WP48,1*%
%TO.N,N/C*%
X141501800Y-143253800D03*
%TD*%
D14*
%TO.P,TP_BRAKES,1*%
%TO.N,BRAKES*%
X111000000Y-108999900D03*
%TD*%
D15*
%TO.P,TP_+5V,1*%
%TO.N,+5V*%
X114199900Y-129599800D03*
%TD*%
D16*
%TO.P,WP50,1*%
%TO.N,RESET*%
X141501800Y-147253800D03*
%TD*%
D14*
%TO.P,TP_AXIS1,1*%
%TO.N,AXIS1*%
X166000100Y-64000000D03*
%TD*%
D12*
%TO.P,WP39,1*%
%TO.N,N/C*%
X143501800Y-151253800D03*
%TD*%
D11*
%TO.P,TP_GEAR,1*%
%TO.N,GEAR*%
X110170200Y-149417700D03*
%TD*%
%TO.P,R3,1*%
%TO.N,GND*%
X190580200Y-141415600D03*
%TO.P,R3,2*%
%TO.N,MODE2*%
X190580200Y-151575600D03*
%TD*%
D15*
%TO.P,TP_GND,14*%
%TO.N,GND*%
X114160000Y-121999900D03*
%TD*%
%TO.P,TP_LATCH_G_,2*%
%TO.N,LATCH(G)*%
X116739600Y-129599800D03*
%TD*%
D11*
%TO.P,C-MAIN,1*%
%TO.N,+5V*%
X146772300Y-127253400D03*
%TO.P,C-MAIN,2*%
%TO.N,GND*%
X144232300Y-127253400D03*
%TD*%
D15*
%TO.P,TP_RESET,4*%
%TO.N,RESET*%
X121819600Y-129599800D03*
%TD*%
D14*
%TO.P,TP_TRIM,1*%
%TO.N,TRIM*%
X161000100Y-121500000D03*
%TD*%
D17*
%TO.P,AREF,1*%
%TO.N,AREF*%
X116800100Y-119400000D03*
%TO.P,AREF,2*%
%TO.N,+5V*%
X118400000Y-119400000D03*
%TD*%
D12*
%TO.P,WP24,1*%
%TO.N,N/C*%
X143502100Y-145253800D03*
%TD*%
D14*
%TO.P,TP_+5V,1*%
%TO.N,+5V*%
X185999800Y-144500000D03*
%TD*%
D15*
%TO.P,TP_SDA,7*%
%TO.N,SDA*%
X129439600Y-129599800D03*
%TD*%
D11*
%TO.P,R4,1*%
%TO.N,GND*%
X189592900Y-133079300D03*
%TO.P,R4,2*%
%TO.N,MODE1*%
X179432900Y-133079300D03*
%TD*%
%TO.P,R7,1*%
%TO.N,GND*%
X124839700Y-76326700D03*
%TO.P,R7,2*%
%TO.N,RESETTRIM*%
X114679700Y-76326700D03*
%TD*%
D15*
%TO.P,TP_CLOCK_Y_,3*%
%TO.N,CLOCK(Y)*%
X119279600Y-129599800D03*
%TD*%
D11*
%TO.P,R6,1*%
%TO.N,GND*%
X125089600Y-96077600D03*
%TO.P,R6,2*%
%TO.N,BRAKES*%
X114929600Y-96077600D03*
%TD*%
D15*
%TO.P,TP_AXIS1,12*%
%TO.N,AXIS1*%
X119240000Y-121999900D03*
%TD*%
D14*
%TO.P,TP_MODE1,1*%
%TO.N,MODE1*%
X178749900Y-135999800D03*
%TD*%
D12*
%TO.P,WP47,1*%
%TO.N,N/C*%
X141501800Y-141253800D03*
%TD*%
D15*
%TO.P,TP_CRUISE,8*%
%TO.N,CRUISE*%
X129400000Y-121999900D03*
%TD*%
D18*
%TO.P,WP46,1*%
%TO.N,+5V*%
X141501800Y-139253600D03*
%TD*%
D15*
%TO.P,TP_AXIS2,11*%
%TO.N,AXIS2*%
X121780000Y-121999900D03*
%TD*%
D14*
%TO.P,TP_+5V,1*%
%TO.N,+5V*%
X179000100Y-69000000D03*
%TD*%
%TO.P,TP_GND,1*%
%TO.N,GND*%
X137250100Y-110999900D03*
%TD*%
D12*
%TO.P,WP38,1*%
%TO.N,N/C*%
X143502100Y-147253800D03*
%TD*%
D14*
%TO.P,TP_GND,1*%
%TO.N,GND*%
X152999900Y-69000000D03*
%TD*%
D16*
%TO.P,WP45,1*%
%TO.N,GND*%
X141501800Y-137253800D03*
%TD*%
%TO.P,WP52,1*%
%TO.N,SDA*%
X141501800Y-151253800D03*
%TD*%
D14*
%TO.P,TP_GND,1*%
%TO.N,GND*%
X183000100Y-122000100D03*
%TD*%
%TO.P,TP_AXIS2,1*%
%TO.N,AXIS2*%
X132250100Y-97999900D03*
%TD*%
D12*
%TO.P,WP11,1*%
%TO.N,N/C*%
X143502100Y-141253800D03*
%TD*%
D19*
%TO.N,LATCH(G)*%
X140599900Y-128999900D03*
%TO.N,CLOCK(Y)*%
X140599900Y-129999900D03*
%TO.N,MODE2*%
X166999900Y-141399900D03*
%TO.N,GEAR*%
X148599900Y-150399900D03*
%TO.N,DATA(P)*%
X145199800Y-130999900D03*
%TO.N,RESETTRIM*%
X150400000Y-124800000D03*
X123000000Y-115199800D03*
%TO.N,BRAKES*%
X143599900Y-121399900D03*
%TO.N,GUARD2*%
X199399900Y-105002700D03*
X199399900Y-114999900D03*
%TO.N,GUARD1*%
X100599900Y-105199800D03*
X100599900Y-115197200D03*
%TD*%
%TO.N,LATCH(G)*%
D20*
X152199500Y-137200800D02*
X155120500Y-137200800D01*
X155120500Y-137200800D02*
X156309300Y-136009500D01*
X140599400Y-128999100D02*
X143401000Y-131800700D01*
X143401000Y-131800700D02*
X146799500Y-131800700D01*
X146799500Y-131800700D02*
X152199500Y-137200800D01*
%TO.N,CLOCK(Y)*%
X142999700Y-132400200D02*
X146598800Y-132400200D01*
X158849300Y-136949300D02*
X158849300Y-136009500D01*
X140599400Y-129999900D02*
X142999700Y-132400200D01*
X151998900Y-137800200D02*
X158000900Y-137800200D01*
X146598800Y-132400200D02*
X151998900Y-137800200D01*
X158000900Y-137800200D02*
X158849300Y-136949300D01*
%TO.N,MODE2*%
X166999900Y-141399900D02*
X161609900Y-136009900D01*
X178749900Y-154749900D02*
X187406000Y-154749900D01*
X187406000Y-154749900D02*
X190580200Y-151575600D01*
X161609900Y-136009900D02*
X161389900Y-136009900D01*
%TO.N,TRANS*%
X165001100Y-152499200D02*
X167800200Y-149700100D01*
X167800200Y-141000600D02*
X163929300Y-137129600D01*
X167800200Y-149700100D02*
X167800200Y-141000600D01*
X165074300Y-152574100D02*
X165000100Y-152499900D01*
X165074300Y-155428800D02*
X165074300Y-152574100D01*
X163929300Y-137129600D02*
X163929300Y-136009500D01*
%TO.N,GEAR*%
X110170200Y-150769400D02*
X110170200Y-149418200D01*
X112199600Y-152798900D02*
X110170200Y-150769400D01*
X144561300Y-154438500D02*
X148599900Y-150399800D01*
X122486600Y-152798900D02*
X112199600Y-152798900D01*
X124124700Y-154438500D02*
X144561300Y-154438500D01*
X124124900Y-154437200D02*
X122486600Y-152798900D01*
%TO.N,DATA(P)*%
X145199900Y-130999900D02*
X171479900Y-130999900D01*
X171479900Y-130999900D02*
X174089800Y-128389900D01*
%TO.N,TRIM*%
X164699000Y-124079100D02*
X161182000Y-124079100D01*
X161182000Y-121681900D02*
X161000100Y-121500000D01*
X161182000Y-124079100D02*
X161182000Y-121681900D01*
X169009800Y-128389900D02*
X164699000Y-124079100D01*
%TO.N,RESETTRIM*%
X108800000Y-110199900D02*
X113800000Y-115199900D01*
X112600000Y-78406300D02*
X114679700Y-76326600D01*
X113800000Y-115199900D02*
X123000000Y-115199900D01*
X152400200Y-126799500D02*
X159400400Y-126799500D01*
X160200500Y-129400400D02*
X161000600Y-130200500D01*
X159400400Y-126799500D02*
X160200500Y-127599600D01*
X164660800Y-130200500D02*
X166469300Y-128389500D01*
X150398700Y-124800500D02*
X152400200Y-126799500D01*
X108800000Y-93199900D02*
X108800000Y-110199900D01*
X111000000Y-90999900D02*
X112600000Y-89399900D01*
X160200500Y-127599600D02*
X160200500Y-129400400D01*
X111000000Y-90999900D02*
X108800000Y-93199900D01*
X161000600Y-130200500D02*
X164660800Y-130200500D01*
X112600000Y-89399900D02*
X112600000Y-78406300D01*
%TO.N,BRAKES*%
X149999900Y-123200300D02*
X150398700Y-123200300D01*
X152999600Y-125798700D02*
X161800700Y-125798700D01*
X150398700Y-123200300D02*
X152999600Y-125798700D01*
X143599100Y-121399400D02*
X148199000Y-121399400D01*
X112200000Y-107799900D02*
X112200000Y-98807300D01*
X111000000Y-108999900D02*
X112200000Y-107799900D01*
X148199000Y-121399400D02*
X149999900Y-123200300D01*
X163929300Y-127929800D02*
X163929300Y-128389500D01*
X112200000Y-98807300D02*
X114929600Y-96077700D01*
X161800700Y-125798700D02*
X163929300Y-127929800D01*
%TO.N,MODE1*%
X178749900Y-133762400D02*
X179432900Y-133079400D01*
X178749900Y-135999800D02*
X178749900Y-133762400D01*
%TO.N,AREF*%
X116800100Y-121519800D02*
X116800100Y-119399900D01*
X116719900Y-121600000D02*
X116800100Y-121519800D01*
%TO.N,SCL*%
X141501100Y-149253100D02*
X131198800Y-138950800D01*
X131198800Y-138950800D02*
X131198800Y-126200000D01*
X126880800Y-121879500D02*
X126880800Y-121600100D01*
X131198800Y-126200000D02*
X126880800Y-121879500D01*
%TO.N,AXIS1*%
X165801200Y-63799800D02*
X147599600Y-63799800D01*
X119260800Y-121539100D02*
X119260800Y-121600100D01*
X128001000Y-112799000D02*
X119260800Y-121539100D01*
X147599600Y-63799800D02*
X128001000Y-83401000D01*
X128001000Y-83401000D02*
X128001000Y-112799000D01*
X165999400Y-64000500D02*
X165801200Y-63799800D01*
%TO.N,SDA*%
X129419900Y-139171900D02*
X129419900Y-129999800D01*
X141501800Y-151253800D02*
X129419900Y-139171900D01*
%TO.N,AXIS2*%
X132250400Y-109349700D02*
X121800800Y-119799200D01*
X132250400Y-98000900D02*
X132250400Y-109349700D01*
X121800800Y-119799200D02*
X121800800Y-121600100D01*
%TO.N,GUARD2*%
D21*
X196900500Y-114999900D02*
X194401100Y-112500600D01*
X194401100Y-107499400D02*
X196897900Y-105002600D01*
X196897900Y-105002600D02*
X199399800Y-105002600D01*
X194401100Y-112500600D02*
X194401100Y-107499400D01*
X199399800Y-114999900D02*
X196900500Y-114999900D01*
%TO.N,GUARD1*%
X105598700Y-107699300D02*
X105598700Y-112700500D01*
X103099400Y-105199900D02*
X105598700Y-107699300D01*
X103101900Y-115197300D02*
X100600000Y-115197300D01*
X100600000Y-105199900D02*
X103099400Y-105199900D01*
X105598700Y-112700500D02*
X103101900Y-115197300D01*
%TD*%
%TA.AperFunction,Conductor*%
%TO.N,+5V*%
G36*
X189808418Y-60520502D02*
G01*
X189829392Y-60537404D01*
X193546984Y-64254958D01*
X199246583Y-69954500D01*
X199462495Y-70170409D01*
X199496520Y-70232721D01*
X199499400Y-70259505D01*
X199499400Y-104241100D01*
X199479398Y-104309221D01*
X199425742Y-104355714D01*
X199373400Y-104367100D01*
X196835306Y-104367100D01*
X196712530Y-104391522D01*
X196712525Y-104391524D01*
X196596877Y-104439427D01*
X196492796Y-104508972D01*
X196492789Y-104508977D01*
X193907477Y-107094289D01*
X193907472Y-107094296D01*
X193837927Y-107198377D01*
X193790024Y-107314025D01*
X193790022Y-107314030D01*
X193765600Y-107436806D01*
X193765600Y-112432806D01*
X193765599Y-112432832D01*
X193765600Y-112493723D01*
X193765600Y-112563197D01*
X193777709Y-112624070D01*
X193790024Y-112685982D01*
X193790034Y-112686012D01*
X193790271Y-112686574D01*
X193809284Y-112732473D01*
X193809284Y-112732474D01*
X193827347Y-112776082D01*
X193837927Y-112801622D01*
X193837930Y-112801627D01*
X193837933Y-112801633D01*
X193873121Y-112854294D01*
X193907480Y-112905716D01*
X193947995Y-112946229D01*
X193948009Y-112946242D01*
X193948021Y-112946254D01*
X193995992Y-112994225D01*
X193999144Y-112997377D01*
X193999160Y-112997392D01*
X196275291Y-115273431D01*
X196436014Y-115434147D01*
X196495392Y-115493525D01*
X196495395Y-115493527D01*
X196495396Y-115493528D01*
X196495399Y-115493530D01*
X196495402Y-115493533D01*
X196536526Y-115521010D01*
X196536528Y-115521012D01*
X196599478Y-115563074D01*
X196648805Y-115583505D01*
X196648807Y-115583506D01*
X196714559Y-115610741D01*
X196715218Y-115611019D01*
X196715275Y-115611036D01*
X196717019Y-115611354D01*
X196801957Y-115628248D01*
X196837909Y-115635400D01*
X196837912Y-115635400D01*
X196837922Y-115635402D01*
X196921377Y-115635400D01*
X199373400Y-115635400D01*
X199441521Y-115655402D01*
X199488014Y-115709058D01*
X199499400Y-115761400D01*
X199499400Y-149740496D01*
X199479398Y-149808617D01*
X199462495Y-149829591D01*
X194650353Y-154641732D01*
X194650353Y-154641733D01*
X189829594Y-159462396D01*
X189767281Y-159496421D01*
X189740499Y-159499300D01*
X110259410Y-159499300D01*
X110191289Y-159479298D01*
X110170338Y-159462419D01*
X105353487Y-154648072D01*
X105353461Y-154648046D01*
X105070952Y-154365520D01*
X100537399Y-149831696D01*
X100503377Y-149769385D01*
X100500498Y-149742613D01*
X100500495Y-148630630D01*
X109153700Y-148630630D01*
X109153700Y-150204763D01*
X109153701Y-150204773D01*
X109168465Y-150279000D01*
X109224716Y-150363184D01*
X109308897Y-150419433D01*
X109308899Y-150419434D01*
X109383133Y-150434200D01*
X109662701Y-150434199D01*
X109730820Y-150454201D01*
X109777313Y-150507856D01*
X109788700Y-150560199D01*
X109788700Y-150743321D01*
X109788698Y-150819618D01*
X109814696Y-150916650D01*
X109864921Y-151003643D01*
X109864923Y-151003646D01*
X109864924Y-151003647D01*
X109925506Y-151064229D01*
X109925507Y-151064231D01*
X109925508Y-151064231D01*
X111889915Y-153028736D01*
X111889938Y-153028761D01*
X111894323Y-153033146D01*
X111894324Y-153033147D01*
X111945149Y-153083972D01*
X111965346Y-153104170D01*
X111965348Y-153104171D01*
X111965353Y-153104176D01*
X112022140Y-153136961D01*
X112052339Y-153154398D01*
X112052342Y-153154398D01*
X112052346Y-153154401D01*
X112095357Y-153165926D01*
X112149366Y-153180399D01*
X112149371Y-153180399D01*
X112149375Y-153180400D01*
X112182848Y-153180400D01*
X112182849Y-153180400D01*
X112249816Y-153180402D01*
X112249819Y-153180400D01*
X112258579Y-153180401D01*
X112258608Y-153180400D01*
X113112841Y-153180400D01*
X113180962Y-153200402D01*
X113227455Y-153254058D01*
X113237559Y-153324332D01*
X113208065Y-153388912D01*
X113148339Y-153427296D01*
X113137421Y-153429979D01*
X113103299Y-153436765D01*
X113019115Y-153493016D01*
X112962866Y-153577197D01*
X112948100Y-153651430D01*
X112948100Y-155225563D01*
X112948101Y-155225573D01*
X112962865Y-155299800D01*
X113019116Y-155383984D01*
X113103297Y-155440233D01*
X113103299Y-155440234D01*
X113177533Y-155455000D01*
X114751666Y-155454999D01*
X114751669Y-155454998D01*
X114751673Y-155454998D01*
X114800926Y-155445201D01*
X114825901Y-155440234D01*
X114910084Y-155383984D01*
X114966334Y-155299801D01*
X114981100Y-155225567D01*
X114981099Y-153651434D01*
X114981098Y-153651427D01*
X114981098Y-153651426D01*
X114966334Y-153577199D01*
X114933497Y-153528056D01*
X114910084Y-153493016D01*
X114910083Y-153493015D01*
X114825902Y-153436766D01*
X114791781Y-153429979D01*
X114728872Y-153397071D01*
X114693740Y-153335376D01*
X114697540Y-153264481D01*
X114739066Y-153206895D01*
X114805133Y-153180901D01*
X114816363Y-153180400D01*
X122276387Y-153180400D01*
X122344508Y-153200402D01*
X122365482Y-153217305D01*
X123071195Y-153923018D01*
X123105221Y-153985330D01*
X123108100Y-154012113D01*
X123108100Y-155225563D01*
X123108101Y-155225573D01*
X123122865Y-155299800D01*
X123179116Y-155383984D01*
X123263297Y-155440233D01*
X123263299Y-155440234D01*
X123337533Y-155455000D01*
X124911666Y-155454999D01*
X124911669Y-155454998D01*
X124911673Y-155454998D01*
X124960926Y-155445201D01*
X124985901Y-155440234D01*
X125070084Y-155383984D01*
X125126334Y-155299801D01*
X125141100Y-155225567D01*
X125141100Y-154946000D01*
X125161102Y-154877879D01*
X125214758Y-154831386D01*
X125267100Y-154820000D01*
X144511076Y-154820000D01*
X144511080Y-154820001D01*
X144611530Y-154820000D01*
X144692538Y-154798292D01*
X144711757Y-154793143D01*
X144711765Y-154793140D01*
X144719230Y-154791140D01*
X144730254Y-154781472D01*
X144753318Y-154768156D01*
X144753319Y-154768156D01*
X144784501Y-154750153D01*
X144787173Y-154748951D01*
X144793933Y-154744773D01*
X144795564Y-154743797D01*
X144796861Y-154742463D01*
X144846634Y-154692689D01*
X144846633Y-154692689D01*
X144846637Y-154692686D01*
X144866576Y-154672747D01*
X144866577Y-154672745D01*
X144897591Y-154641730D01*
X153897800Y-154641730D01*
X153897800Y-156215863D01*
X153897801Y-156215873D01*
X153912565Y-156290100D01*
X153968816Y-156374284D01*
X154052997Y-156430533D01*
X154052999Y-156430534D01*
X154127233Y-156445300D01*
X155701366Y-156445299D01*
X155701369Y-156445298D01*
X155701373Y-156445298D01*
X155750626Y-156435501D01*
X155775601Y-156430534D01*
X155859784Y-156374284D01*
X155916034Y-156290101D01*
X155930800Y-156215867D01*
X155930799Y-154641734D01*
X155930799Y-154641732D01*
X155930798Y-154641726D01*
X155916034Y-154567499D01*
X155859783Y-154483315D01*
X155775602Y-154427066D01*
X155701367Y-154412300D01*
X154127236Y-154412300D01*
X154127226Y-154412301D01*
X154052999Y-154427065D01*
X153968815Y-154483316D01*
X153912566Y-154567497D01*
X153897800Y-154641730D01*
X144897591Y-154641730D01*
X148543125Y-150996106D01*
X148605437Y-150962080D01*
X148632222Y-150959200D01*
X148673531Y-150959200D01*
X148673533Y-150959200D01*
X148815782Y-150921084D01*
X148943318Y-150847451D01*
X149047451Y-150743318D01*
X149121084Y-150615782D01*
X149159200Y-150473533D01*
X149159200Y-150326267D01*
X149121084Y-150184018D01*
X149047451Y-150056482D01*
X149047449Y-150056480D01*
X149047445Y-150056475D01*
X148943324Y-149952354D01*
X148943314Y-149952346D01*
X148815782Y-149878716D01*
X148767176Y-149865692D01*
X148673533Y-149840600D01*
X148526267Y-149840600D01*
X148432631Y-149865690D01*
X148384017Y-149878716D01*
X148256485Y-149952346D01*
X148256475Y-149952354D01*
X148152354Y-150056475D01*
X148152346Y-150056485D01*
X148078716Y-150184017D01*
X148065419Y-150233643D01*
X148046544Y-150304086D01*
X148040600Y-150326268D01*
X148040600Y-150367393D01*
X148020598Y-150435514D01*
X148003697Y-150456487D01*
X144440179Y-154020094D01*
X144377867Y-154054120D01*
X144351082Y-154057000D01*
X125267099Y-154057000D01*
X125198978Y-154036998D01*
X125152485Y-153983342D01*
X125141099Y-153931000D01*
X125141099Y-153651436D01*
X125141098Y-153651427D01*
X125126334Y-153577199D01*
X125093497Y-153528056D01*
X125070084Y-153493016D01*
X125070083Y-153493015D01*
X124985902Y-153436766D01*
X124911669Y-153422000D01*
X124911667Y-153422000D01*
X123701413Y-153422000D01*
X123633292Y-153401998D01*
X123612318Y-153385095D01*
X123109818Y-152882595D01*
X123075792Y-152820283D01*
X123080857Y-152749468D01*
X123123404Y-152692632D01*
X123189924Y-152667821D01*
X123198913Y-152667500D01*
X125736590Y-152667500D01*
X125736592Y-152667500D01*
X125863886Y-152633392D01*
X125978014Y-152567500D01*
X126071200Y-152474314D01*
X126137092Y-152360186D01*
X126171200Y-152232892D01*
X126171200Y-138168135D01*
X126171205Y-138102243D01*
X126171200Y-138102224D01*
X126171200Y-138102208D01*
X126153043Y-138034444D01*
X126137105Y-137974946D01*
X126137096Y-137974931D01*
X126137092Y-137974914D01*
X126102114Y-137914331D01*
X126101563Y-137913376D01*
X126071369Y-137861070D01*
X126071226Y-137860820D01*
X126071202Y-137860788D01*
X126059711Y-137849297D01*
X126024631Y-137814217D01*
X125978042Y-137767621D01*
X125978025Y-137767611D01*
X125978014Y-137767600D01*
X125924528Y-137736720D01*
X125863918Y-137701721D01*
X125863900Y-137701716D01*
X125863886Y-137701708D01*
X125851331Y-137698343D01*
X125851330Y-137698343D01*
X125799932Y-137684571D01*
X125799929Y-137684569D01*
X125799929Y-137684570D01*
X125772910Y-137677329D01*
X125736627Y-137667605D01*
X125736625Y-137667604D01*
X125736607Y-137667600D01*
X125736592Y-137667600D01*
X125664474Y-137667600D01*
X112744738Y-137666704D01*
X112744670Y-137666700D01*
X112736492Y-137666700D01*
X112676896Y-137666700D01*
X112604735Y-137666694D01*
X112604721Y-137666696D01*
X112552715Y-137680630D01*
X112552712Y-137680631D01*
X112541438Y-137683652D01*
X112477446Y-137700795D01*
X112477431Y-137700803D01*
X112477414Y-137700808D01*
X112416831Y-137735785D01*
X112363314Y-137766679D01*
X112363302Y-137766690D01*
X112363286Y-137766700D01*
X112354432Y-137775553D01*
X112354429Y-137775555D01*
X112316722Y-137813263D01*
X112316716Y-137813268D01*
X112270112Y-137859865D01*
X112239219Y-137913372D01*
X112239216Y-137913376D01*
X112210527Y-137963058D01*
X112210526Y-137963062D01*
X112204221Y-137973982D01*
X112204216Y-137973999D01*
X112204208Y-137974014D01*
X112188016Y-138034444D01*
X112170105Y-138101273D01*
X112170104Y-138101289D01*
X112170100Y-138101308D01*
X112170100Y-138167165D01*
X112170099Y-138178870D01*
X112170099Y-138178871D01*
X112170094Y-138241553D01*
X112170100Y-138241642D01*
X112170100Y-151925660D01*
X112150098Y-151993781D01*
X112096442Y-152040274D01*
X112026168Y-152050378D01*
X111961588Y-152020884D01*
X111955002Y-152014753D01*
X110728834Y-150788526D01*
X110589606Y-150649291D01*
X110555584Y-150586979D01*
X110560650Y-150516164D01*
X110603198Y-150459329D01*
X110669719Y-150434520D01*
X110678705Y-150434199D01*
X110957264Y-150434199D01*
X110957266Y-150434199D01*
X110957269Y-150434198D01*
X110957272Y-150434198D01*
X110993863Y-150426919D01*
X111031501Y-150419434D01*
X111115684Y-150363184D01*
X111171934Y-150279001D01*
X111186700Y-150204767D01*
X111186699Y-148630634D01*
X111186698Y-148630630D01*
X111186698Y-148630626D01*
X111171934Y-148556399D01*
X111171933Y-148556397D01*
X111115684Y-148472216D01*
X111115683Y-148472215D01*
X111031502Y-148415966D01*
X110957267Y-148401200D01*
X109383136Y-148401200D01*
X109383126Y-148401201D01*
X109308899Y-148415965D01*
X109224715Y-148472216D01*
X109168466Y-148556397D01*
X109153700Y-148630630D01*
X100500495Y-148630630D01*
X100500444Y-128774630D01*
X115685000Y-128774630D01*
X115685000Y-130424963D01*
X115685001Y-130424973D01*
X115699765Y-130499200D01*
X115756016Y-130583384D01*
X115840197Y-130639633D01*
X115840199Y-130639634D01*
X115914433Y-130654400D01*
X117564766Y-130654399D01*
X117564769Y-130654398D01*
X117564773Y-130654398D01*
X117614026Y-130644601D01*
X117639001Y-130639634D01*
X117723184Y-130583384D01*
X117779434Y-130499201D01*
X117794200Y-130424967D01*
X117794199Y-128774634D01*
X117794199Y-128774633D01*
X117794199Y-128774631D01*
X117794199Y-128774630D01*
X118225000Y-128774630D01*
X118225000Y-130424963D01*
X118225001Y-130424973D01*
X118239765Y-130499200D01*
X118296016Y-130583384D01*
X118380197Y-130639633D01*
X118380199Y-130639634D01*
X118454433Y-130654400D01*
X120104766Y-130654399D01*
X120104769Y-130654398D01*
X120104773Y-130654398D01*
X120154026Y-130644601D01*
X120179001Y-130639634D01*
X120263184Y-130583384D01*
X120319434Y-130499201D01*
X120334200Y-130424967D01*
X120334199Y-128774634D01*
X120334199Y-128774633D01*
X120334199Y-128774631D01*
X120334199Y-128774630D01*
X120765000Y-128774630D01*
X120765000Y-130424963D01*
X120765001Y-130424973D01*
X120779765Y-130499200D01*
X120836016Y-130583384D01*
X120920197Y-130639633D01*
X120920199Y-130639634D01*
X120994433Y-130654400D01*
X122644766Y-130654399D01*
X122644769Y-130654398D01*
X122644773Y-130654398D01*
X122694026Y-130644601D01*
X122719001Y-130639634D01*
X122803184Y-130583384D01*
X122859434Y-130499201D01*
X122874200Y-130424967D01*
X122874199Y-128774634D01*
X122874199Y-128774633D01*
X122874199Y-128774631D01*
X122874199Y-128774630D01*
X123305000Y-128774630D01*
X123305000Y-130424963D01*
X123305001Y-130424973D01*
X123319765Y-130499200D01*
X123376016Y-130583384D01*
X123460197Y-130639633D01*
X123460199Y-130639634D01*
X123534433Y-130654400D01*
X125184766Y-130654399D01*
X125184769Y-130654398D01*
X125184773Y-130654398D01*
X125234026Y-130644601D01*
X125259001Y-130639634D01*
X125343184Y-130583384D01*
X125399434Y-130499201D01*
X125414200Y-130424967D01*
X125414199Y-128774634D01*
X125414199Y-128774633D01*
X125414199Y-128774631D01*
X125414199Y-128774630D01*
X125845000Y-128774630D01*
X125845000Y-130424963D01*
X125845001Y-130424973D01*
X125859765Y-130499200D01*
X125916016Y-130583384D01*
X126000197Y-130639633D01*
X126000199Y-130639634D01*
X126074433Y-130654400D01*
X127724766Y-130654399D01*
X127724769Y-130654398D01*
X127724773Y-130654398D01*
X127774026Y-130644601D01*
X127799001Y-130639634D01*
X127883184Y-130583384D01*
X127939434Y-130499201D01*
X127954200Y-130424967D01*
X127954199Y-128774634D01*
X127954198Y-128774631D01*
X127954198Y-128774626D01*
X127939434Y-128700399D01*
X127910089Y-128656482D01*
X127883184Y-128616216D01*
X127883183Y-128616215D01*
X127799002Y-128559966D01*
X127724767Y-128545200D01*
X126074436Y-128545200D01*
X126074426Y-128545201D01*
X126000199Y-128559965D01*
X125916015Y-128616216D01*
X125859766Y-128700397D01*
X125845000Y-128774630D01*
X125414199Y-128774630D01*
X125399434Y-128700399D01*
X125370089Y-128656482D01*
X125343184Y-128616216D01*
X125343183Y-128616215D01*
X125259002Y-128559966D01*
X125184767Y-128545200D01*
X123534436Y-128545200D01*
X123534426Y-128545201D01*
X123460199Y-128559965D01*
X123376015Y-128616216D01*
X123319766Y-128700397D01*
X123305000Y-128774630D01*
X122874199Y-128774630D01*
X122859434Y-128700399D01*
X122830089Y-128656482D01*
X122803184Y-128616216D01*
X122803183Y-128616215D01*
X122719002Y-128559966D01*
X122644767Y-128545200D01*
X120994436Y-128545200D01*
X120994426Y-128545201D01*
X120920199Y-128559965D01*
X120836015Y-128616216D01*
X120779766Y-128700397D01*
X120765000Y-128774630D01*
X120334199Y-128774630D01*
X120319434Y-128700399D01*
X120290089Y-128656482D01*
X120263184Y-128616216D01*
X120263183Y-128616215D01*
X120179002Y-128559966D01*
X120104767Y-128545200D01*
X118454436Y-128545200D01*
X118454426Y-128545201D01*
X118380199Y-128559965D01*
X118296015Y-128616216D01*
X118239766Y-128700397D01*
X118225000Y-128774630D01*
X117794199Y-128774630D01*
X117779434Y-128700399D01*
X117750089Y-128656482D01*
X117723184Y-128616216D01*
X117723183Y-128616215D01*
X117639002Y-128559966D01*
X117564767Y-128545200D01*
X115914436Y-128545200D01*
X115914426Y-128545201D01*
X115840199Y-128559965D01*
X115756015Y-128616216D01*
X115699766Y-128700397D01*
X115685000Y-128774630D01*
X100500444Y-128774630D01*
X100500429Y-122762030D01*
X108927400Y-122762030D01*
X108927400Y-124336163D01*
X108927401Y-124336173D01*
X108942165Y-124410400D01*
X108998416Y-124494584D01*
X109082597Y-124550833D01*
X109082599Y-124550834D01*
X109156833Y-124565600D01*
X110730966Y-124565599D01*
X110730969Y-124565598D01*
X110730973Y-124565598D01*
X110780226Y-124555801D01*
X110805201Y-124550834D01*
X110889384Y-124494584D01*
X110945634Y-124410401D01*
X110960400Y-124336167D01*
X110960399Y-122762034D01*
X110960398Y-122762030D01*
X110960398Y-122762026D01*
X110945634Y-122687799D01*
X110945633Y-122687797D01*
X110889384Y-122603616D01*
X110889383Y-122603615D01*
X110805202Y-122547366D01*
X110730967Y-122532600D01*
X109156836Y-122532600D01*
X109156826Y-122532601D01*
X109082599Y-122547365D01*
X108998415Y-122603616D01*
X108942166Y-122687797D01*
X108927400Y-122762030D01*
X100500429Y-122762030D01*
X100500429Y-122590024D01*
X100500425Y-121174730D01*
X113105400Y-121174730D01*
X113105400Y-122825063D01*
X113105401Y-122825073D01*
X113120165Y-122899300D01*
X113176416Y-122983484D01*
X113260597Y-123039733D01*
X113260599Y-123039734D01*
X113334833Y-123054500D01*
X114985166Y-123054499D01*
X114985169Y-123054498D01*
X114985173Y-123054498D01*
X115045001Y-123042598D01*
X115059401Y-123039734D01*
X115143584Y-122983484D01*
X115199834Y-122899301D01*
X115214600Y-122825067D01*
X115214599Y-121174734D01*
X115214599Y-121174733D01*
X115214599Y-121174731D01*
X115214599Y-121174730D01*
X115645400Y-121174730D01*
X115645400Y-122825063D01*
X115645401Y-122825073D01*
X115660165Y-122899300D01*
X115716416Y-122983484D01*
X115800597Y-123039733D01*
X115800599Y-123039734D01*
X115874833Y-123054500D01*
X117525166Y-123054499D01*
X117525169Y-123054498D01*
X117525173Y-123054498D01*
X117585001Y-123042598D01*
X117599401Y-123039734D01*
X117683584Y-122983484D01*
X117739834Y-122899301D01*
X117754600Y-122825067D01*
X117754599Y-121174734D01*
X117754599Y-121174733D01*
X117754599Y-121174731D01*
X117754599Y-121174730D01*
X118185400Y-121174730D01*
X118185400Y-122825063D01*
X118185401Y-122825073D01*
X118200165Y-122899300D01*
X118256416Y-122983484D01*
X118340597Y-123039733D01*
X118340599Y-123039734D01*
X118414833Y-123054500D01*
X120065166Y-123054499D01*
X120065169Y-123054498D01*
X120065173Y-123054498D01*
X120125001Y-123042598D01*
X120139401Y-123039734D01*
X120223584Y-122983484D01*
X120279834Y-122899301D01*
X120294600Y-122825067D01*
X120294599Y-121174734D01*
X120286186Y-121132435D01*
X120292514Y-121061723D01*
X120320668Y-121018762D01*
X121204205Y-120135235D01*
X121266518Y-120101211D01*
X121337333Y-120106277D01*
X121394169Y-120148824D01*
X121418979Y-120215344D01*
X121419300Y-120224332D01*
X121419300Y-120819300D01*
X121399298Y-120887421D01*
X121345642Y-120933914D01*
X121293300Y-120945300D01*
X120954836Y-120945300D01*
X120954826Y-120945301D01*
X120880599Y-120960065D01*
X120796415Y-121016316D01*
X120740166Y-121100497D01*
X120725400Y-121174730D01*
X120725400Y-122825063D01*
X120725401Y-122825073D01*
X120740165Y-122899300D01*
X120796416Y-122983484D01*
X120880597Y-123039733D01*
X120880599Y-123039734D01*
X120954833Y-123054500D01*
X122605166Y-123054499D01*
X122605169Y-123054498D01*
X122605173Y-123054498D01*
X122665001Y-123042598D01*
X122679401Y-123039734D01*
X122763584Y-122983484D01*
X122819834Y-122899301D01*
X122834600Y-122825067D01*
X122834599Y-121174734D01*
X122834599Y-121174733D01*
X122834599Y-121174731D01*
X122834599Y-121174730D01*
X123265400Y-121174730D01*
X123265400Y-122825063D01*
X123265401Y-122825073D01*
X123280165Y-122899300D01*
X123336416Y-122983484D01*
X123420597Y-123039733D01*
X123420599Y-123039734D01*
X123494833Y-123054500D01*
X125145166Y-123054499D01*
X125145169Y-123054498D01*
X125145173Y-123054498D01*
X125205001Y-123042598D01*
X125219401Y-123039734D01*
X125303584Y-122983484D01*
X125359834Y-122899301D01*
X125374600Y-122825067D01*
X125374599Y-121174734D01*
X125374599Y-121174733D01*
X125374599Y-121174731D01*
X125374599Y-121174730D01*
X125805400Y-121174730D01*
X125805400Y-122825063D01*
X125805401Y-122825073D01*
X125820165Y-122899300D01*
X125876416Y-122983484D01*
X125960597Y-123039733D01*
X125960599Y-123039734D01*
X126034833Y-123054500D01*
X127463540Y-123054499D01*
X127531661Y-123074501D01*
X127552661Y-123091429D01*
X129011221Y-124550833D01*
X130780421Y-126321057D01*
X130814428Y-126383378D01*
X130817300Y-126410126D01*
X130817300Y-139001023D01*
X130817299Y-139001023D01*
X130843298Y-139098051D01*
X130843301Y-139098058D01*
X130888293Y-139175986D01*
X130888294Y-139175988D01*
X130893523Y-139185046D01*
X130893528Y-139185052D01*
X140560395Y-148851917D01*
X140594421Y-148914229D01*
X140597300Y-148941012D01*
X140597300Y-149505587D01*
X140577298Y-149573708D01*
X140523642Y-149620201D01*
X140453368Y-149630305D01*
X140388788Y-149600811D01*
X140382205Y-149594682D01*
X129838305Y-139050782D01*
X129804279Y-138988470D01*
X129801400Y-138961687D01*
X129801400Y-130780399D01*
X129821402Y-130712278D01*
X129875058Y-130665785D01*
X129927400Y-130654399D01*
X130264764Y-130654399D01*
X130264766Y-130654399D01*
X130264769Y-130654398D01*
X130264772Y-130654398D01*
X130301363Y-130647119D01*
X130339001Y-130639634D01*
X130423184Y-130583384D01*
X130479434Y-130499201D01*
X130494200Y-130424967D01*
X130494199Y-128774634D01*
X130494198Y-128774631D01*
X130494198Y-128774626D01*
X130479434Y-128700399D01*
X130450089Y-128656482D01*
X130423184Y-128616216D01*
X130423183Y-128616215D01*
X130339002Y-128559966D01*
X130264767Y-128545200D01*
X128614436Y-128545200D01*
X128614426Y-128545201D01*
X128540199Y-128559965D01*
X128456015Y-128616216D01*
X128399766Y-128700397D01*
X128385000Y-128774630D01*
X128385000Y-130424963D01*
X128385001Y-130424973D01*
X128399765Y-130499200D01*
X128456016Y-130583384D01*
X128540197Y-130639633D01*
X128540199Y-130639634D01*
X128614433Y-130654400D01*
X128912401Y-130654399D01*
X128980520Y-130674401D01*
X129027013Y-130728056D01*
X129038400Y-130780399D01*
X129038400Y-139222123D01*
X129038399Y-139222123D01*
X129064398Y-139319151D01*
X129064401Y-139319158D01*
X129071358Y-139331207D01*
X129071358Y-139331208D01*
X129114621Y-139406143D01*
X129114629Y-139406153D01*
X140560395Y-150851918D01*
X140594421Y-150914230D01*
X140597300Y-150941013D01*
X140597300Y-151928863D01*
X140597301Y-151928873D01*
X140612065Y-152003100D01*
X140668316Y-152087284D01*
X140752497Y-152143533D01*
X140752499Y-152143534D01*
X140826733Y-152158300D01*
X142176866Y-152158299D01*
X142176869Y-152158298D01*
X142176873Y-152158298D01*
X142226126Y-152148501D01*
X142251101Y-152143534D01*
X142335284Y-152087284D01*
X142391534Y-152003101D01*
X142406300Y-151928867D01*
X142406299Y-150728730D01*
X142747300Y-150728730D01*
X142747300Y-151778863D01*
X142747301Y-151778873D01*
X142762065Y-151853100D01*
X142818316Y-151937284D01*
X142902497Y-151993533D01*
X142902499Y-151993534D01*
X142976733Y-152008300D01*
X144026866Y-152008299D01*
X144026869Y-152008298D01*
X144026873Y-152008298D01*
X144076126Y-151998501D01*
X144101101Y-151993534D01*
X144185284Y-151937284D01*
X144241534Y-151853101D01*
X144256300Y-151778867D01*
X144256299Y-150728734D01*
X144256298Y-150728730D01*
X144256298Y-150728726D01*
X144241534Y-150654499D01*
X144238055Y-150649292D01*
X144185284Y-150570316D01*
X144185283Y-150570315D01*
X144101102Y-150514066D01*
X144026867Y-150499300D01*
X142976736Y-150499300D01*
X142976726Y-150499301D01*
X142902499Y-150514065D01*
X142818315Y-150570316D01*
X142762066Y-150654497D01*
X142747300Y-150728730D01*
X142406299Y-150728730D01*
X142406299Y-150578734D01*
X142406298Y-150578731D01*
X142406298Y-150578726D01*
X142391534Y-150504499D01*
X142370843Y-150473533D01*
X142335284Y-150420316D01*
X142335283Y-150420315D01*
X142242867Y-150358563D01*
X142197340Y-150304086D01*
X142188493Y-150233643D01*
X142219134Y-150169599D01*
X142242868Y-150149034D01*
X142251098Y-150143534D01*
X142251101Y-150143534D01*
X142335284Y-150087284D01*
X142391534Y-150003101D01*
X142406300Y-149928867D01*
X142406299Y-148728730D01*
X142747300Y-148728730D01*
X142747300Y-149778863D01*
X142747301Y-149778873D01*
X142762065Y-149853100D01*
X142818316Y-149937284D01*
X142902497Y-149993533D01*
X142902499Y-149993534D01*
X142976733Y-150008300D01*
X144026866Y-150008299D01*
X144026869Y-150008298D01*
X144026873Y-150008298D01*
X144076126Y-149998501D01*
X144101101Y-149993534D01*
X144185284Y-149937284D01*
X144241534Y-149853101D01*
X144256300Y-149778867D01*
X144256299Y-148728734D01*
X144256298Y-148728730D01*
X144256298Y-148728726D01*
X144241534Y-148654499D01*
X144185283Y-148570315D01*
X144101102Y-148514066D01*
X144026867Y-148499300D01*
X142976736Y-148499300D01*
X142976726Y-148499301D01*
X142902499Y-148514065D01*
X142818315Y-148570316D01*
X142762066Y-148654497D01*
X142747300Y-148728730D01*
X142406299Y-148728730D01*
X142406299Y-148578734D01*
X142406298Y-148578731D01*
X142406298Y-148578726D01*
X142391534Y-148504499D01*
X142335283Y-148420315D01*
X142242867Y-148358563D01*
X142197340Y-148304086D01*
X142188493Y-148233643D01*
X142219134Y-148169599D01*
X142242868Y-148149034D01*
X142251098Y-148143534D01*
X142251101Y-148143534D01*
X142335284Y-148087284D01*
X142391534Y-148003101D01*
X142406300Y-147928867D01*
X142406299Y-146728730D01*
X142747600Y-146728730D01*
X142747600Y-147778863D01*
X142747601Y-147778873D01*
X142762365Y-147853100D01*
X142818616Y-147937284D01*
X142902797Y-147993533D01*
X142902799Y-147993534D01*
X142977033Y-148008300D01*
X144027166Y-148008299D01*
X144027169Y-148008298D01*
X144027173Y-148008298D01*
X144076426Y-147998501D01*
X144101401Y-147993534D01*
X144185584Y-147937284D01*
X144241834Y-147853101D01*
X144256600Y-147778867D01*
X144256599Y-146728734D01*
X144256598Y-146728730D01*
X144256598Y-146728726D01*
X144241834Y-146654499D01*
X144185583Y-146570315D01*
X144101402Y-146514066D01*
X144027167Y-146499300D01*
X142977036Y-146499300D01*
X142977026Y-146499301D01*
X142902799Y-146514065D01*
X142818615Y-146570316D01*
X142762366Y-146654497D01*
X142747600Y-146728730D01*
X142406299Y-146728730D01*
X142406299Y-146578734D01*
X142406298Y-146578730D01*
X142406298Y-146578726D01*
X142391534Y-146504499D01*
X142335283Y-146420315D01*
X142251102Y-146364066D01*
X142176867Y-146349300D01*
X140826736Y-146349300D01*
X140826726Y-146349301D01*
X140752499Y-146364065D01*
X140668315Y-146420316D01*
X140612066Y-146504497D01*
X140597300Y-146578730D01*
X140597300Y-147505587D01*
X140577298Y-147573708D01*
X140523642Y-147620201D01*
X140453368Y-147630305D01*
X140388788Y-147600811D01*
X140382205Y-147594682D01*
X137516253Y-144728730D01*
X140747300Y-144728730D01*
X140747300Y-145778863D01*
X140747301Y-145778873D01*
X140762065Y-145853100D01*
X140818316Y-145937284D01*
X140902497Y-145993533D01*
X140902499Y-145993534D01*
X140976733Y-146008300D01*
X142026866Y-146008299D01*
X142026869Y-146008298D01*
X142026873Y-146008298D01*
X142076126Y-145998501D01*
X142101101Y-145993534D01*
X142185284Y-145937284D01*
X142241534Y-145853101D01*
X142256300Y-145778867D01*
X142256299Y-144728734D01*
X142256299Y-144728733D01*
X142256299Y-144728731D01*
X142256299Y-144728730D01*
X142747600Y-144728730D01*
X142747600Y-145778863D01*
X142747601Y-145778873D01*
X142762365Y-145853100D01*
X142818616Y-145937284D01*
X142902797Y-145993533D01*
X142902799Y-145993534D01*
X142977033Y-146008300D01*
X144027166Y-146008299D01*
X144027169Y-146008298D01*
X144027173Y-146008298D01*
X144076426Y-145998501D01*
X144101401Y-145993534D01*
X144185584Y-145937284D01*
X144241834Y-145853101D01*
X144256600Y-145778867D01*
X144256599Y-144728734D01*
X144256598Y-144728731D01*
X144256598Y-144728726D01*
X144241834Y-144654499D01*
X144185583Y-144570315D01*
X144101402Y-144514066D01*
X144027167Y-144499300D01*
X142977036Y-144499300D01*
X142977026Y-144499301D01*
X142902799Y-144514065D01*
X142818615Y-144570316D01*
X142762366Y-144654497D01*
X142747600Y-144728730D01*
X142256299Y-144728730D01*
X142241534Y-144654499D01*
X142185283Y-144570315D01*
X142101102Y-144514066D01*
X142026867Y-144499300D01*
X140976736Y-144499300D01*
X140976726Y-144499301D01*
X140902499Y-144514065D01*
X140818315Y-144570316D01*
X140762066Y-144654497D01*
X140747300Y-144728730D01*
X137516253Y-144728730D01*
X135516253Y-142728730D01*
X140747300Y-142728730D01*
X140747300Y-143778863D01*
X140747301Y-143778873D01*
X140762065Y-143853100D01*
X140818316Y-143937284D01*
X140902497Y-143993533D01*
X140902499Y-143993534D01*
X140976733Y-144008300D01*
X142026866Y-144008299D01*
X142026869Y-144008298D01*
X142026873Y-144008298D01*
X142076126Y-143998501D01*
X142101101Y-143993534D01*
X142185284Y-143937284D01*
X142241534Y-143853101D01*
X142256300Y-143778867D01*
X142256299Y-142728734D01*
X142256299Y-142728733D01*
X142256299Y-142728731D01*
X142256299Y-142728730D01*
X142747600Y-142728730D01*
X142747600Y-143778863D01*
X142747601Y-143778873D01*
X142762365Y-143853100D01*
X142818616Y-143937284D01*
X142902797Y-143993533D01*
X142902799Y-143993534D01*
X142977033Y-144008300D01*
X144027166Y-144008299D01*
X144027169Y-144008298D01*
X144027173Y-144008298D01*
X144076426Y-143998501D01*
X144101401Y-143993534D01*
X144185584Y-143937284D01*
X144241834Y-143853101D01*
X144256600Y-143778867D01*
X144256599Y-142728734D01*
X144256598Y-142728731D01*
X144256598Y-142728726D01*
X144241834Y-142654499D01*
X144185583Y-142570315D01*
X144101402Y-142514066D01*
X144027167Y-142499300D01*
X142977036Y-142499300D01*
X142977026Y-142499301D01*
X142902799Y-142514065D01*
X142818615Y-142570316D01*
X142762366Y-142654497D01*
X142747600Y-142728730D01*
X142256299Y-142728730D01*
X142241534Y-142654499D01*
X142185283Y-142570315D01*
X142101102Y-142514066D01*
X142026867Y-142499300D01*
X140976736Y-142499300D01*
X140976726Y-142499301D01*
X140902499Y-142514065D01*
X140818315Y-142570316D01*
X140762066Y-142654497D01*
X140747300Y-142728730D01*
X135516253Y-142728730D01*
X133516253Y-140728730D01*
X140747300Y-140728730D01*
X140747300Y-141778863D01*
X140747301Y-141778873D01*
X140762065Y-141853100D01*
X140818316Y-141937284D01*
X140902497Y-141993533D01*
X140902499Y-141993534D01*
X140976733Y-142008300D01*
X142026866Y-142008299D01*
X142026869Y-142008298D01*
X142026873Y-142008298D01*
X142076126Y-141998501D01*
X142101101Y-141993534D01*
X142185284Y-141937284D01*
X142241534Y-141853101D01*
X142256300Y-141778867D01*
X142256299Y-140728734D01*
X142256299Y-140728733D01*
X142256299Y-140728731D01*
X142256299Y-140728730D01*
X142747600Y-140728730D01*
X142747600Y-141778863D01*
X142747601Y-141778873D01*
X142762365Y-141853100D01*
X142818616Y-141937284D01*
X142902797Y-141993533D01*
X142902799Y-141993534D01*
X142977033Y-142008300D01*
X144027166Y-142008299D01*
X144027169Y-142008298D01*
X144027173Y-142008298D01*
X144076426Y-141998501D01*
X144101401Y-141993534D01*
X144185584Y-141937284D01*
X144241834Y-141853101D01*
X144256600Y-141778867D01*
X144256599Y-140733908D01*
X151149300Y-140733908D01*
X151149300Y-149733908D01*
X151149300Y-149865692D01*
X151183408Y-149992986D01*
X151192249Y-150008299D01*
X151249297Y-150107110D01*
X151249305Y-150107120D01*
X151342479Y-150200294D01*
X151342484Y-150200298D01*
X151342486Y-150200300D01*
X151342487Y-150200301D01*
X151342489Y-150200302D01*
X151412771Y-150240879D01*
X151456614Y-150266192D01*
X151583908Y-150300300D01*
X151583910Y-150300300D01*
X165715690Y-150300300D01*
X165715692Y-150300300D01*
X165842986Y-150266192D01*
X165957114Y-150200300D01*
X166050300Y-150107114D01*
X166116192Y-149992986D01*
X166150300Y-149865692D01*
X166150300Y-141394013D01*
X166170302Y-141325892D01*
X166223958Y-141279399D01*
X166294232Y-141269295D01*
X166358812Y-141298789D01*
X166365395Y-141304918D01*
X166403695Y-141343218D01*
X166437721Y-141405530D01*
X166440600Y-141432313D01*
X166440600Y-141473531D01*
X166440599Y-141473531D01*
X166478716Y-141615782D01*
X166552346Y-141743314D01*
X166552354Y-141743324D01*
X166656475Y-141847445D01*
X166656480Y-141847449D01*
X166656482Y-141847451D01*
X166656483Y-141847452D01*
X166656485Y-141847453D01*
X166705966Y-141876021D01*
X166784018Y-141921084D01*
X166926267Y-141959200D01*
X166926269Y-141959200D01*
X167073531Y-141959200D01*
X167073533Y-141959200D01*
X167215782Y-141921084D01*
X167229702Y-141913047D01*
X167298694Y-141896310D01*
X167365786Y-141919530D01*
X167409674Y-141975337D01*
X167418700Y-142022167D01*
X167418700Y-149489886D01*
X167398698Y-149558007D01*
X167381795Y-149578981D01*
X165452280Y-151508495D01*
X165389968Y-151542521D01*
X165363185Y-151545400D01*
X164275036Y-151545400D01*
X164275026Y-151545401D01*
X164200799Y-151560165D01*
X164116615Y-151616416D01*
X164060366Y-151700597D01*
X164045600Y-151774830D01*
X164045600Y-153224963D01*
X164045601Y-153224973D01*
X164060365Y-153299200D01*
X164116616Y-153383384D01*
X164200797Y-153439633D01*
X164200799Y-153439634D01*
X164275033Y-153454400D01*
X164566801Y-153454399D01*
X164634920Y-153474401D01*
X164681413Y-153528056D01*
X164692800Y-153580399D01*
X164692800Y-154286300D01*
X164672798Y-154354421D01*
X164619142Y-154400914D01*
X164566800Y-154412300D01*
X164287236Y-154412300D01*
X164287226Y-154412301D01*
X164212999Y-154427065D01*
X164128815Y-154483316D01*
X164072566Y-154567497D01*
X164057800Y-154641730D01*
X164057800Y-156215863D01*
X164057801Y-156215873D01*
X164072565Y-156290100D01*
X164128816Y-156374284D01*
X164212997Y-156430533D01*
X164212999Y-156430534D01*
X164287233Y-156445300D01*
X165861366Y-156445299D01*
X165861369Y-156445298D01*
X165861373Y-156445298D01*
X165910626Y-156435501D01*
X165935601Y-156430534D01*
X166019784Y-156374284D01*
X166076034Y-156290101D01*
X166090800Y-156215867D01*
X166090799Y-154641734D01*
X166090799Y-154641732D01*
X166090798Y-154641726D01*
X166076034Y-154567499D01*
X166019783Y-154483315D01*
X165935602Y-154427066D01*
X165861369Y-154412300D01*
X165861367Y-154412300D01*
X165581800Y-154412300D01*
X165513679Y-154392298D01*
X165467186Y-154338642D01*
X165455800Y-154286300D01*
X165455800Y-154024830D01*
X177795400Y-154024830D01*
X177795400Y-155474963D01*
X177795401Y-155474973D01*
X177810165Y-155549200D01*
X177866416Y-155633384D01*
X177950597Y-155689633D01*
X177950599Y-155689634D01*
X178024833Y-155704400D01*
X179474966Y-155704399D01*
X179474969Y-155704398D01*
X179474973Y-155704398D01*
X179524226Y-155694601D01*
X179549201Y-155689634D01*
X179633384Y-155633384D01*
X179689634Y-155549201D01*
X179704400Y-155474967D01*
X179704400Y-155257400D01*
X179724402Y-155189279D01*
X179778058Y-155142786D01*
X179830400Y-155131400D01*
X187355777Y-155131400D01*
X187355781Y-155131401D01*
X187456231Y-155131400D01*
X187517736Y-155114917D01*
X187517744Y-155114917D01*
X187517744Y-155114915D01*
X187553254Y-155105401D01*
X187553257Y-155105399D01*
X187553258Y-155105399D01*
X187559183Y-155101977D01*
X187567619Y-155097108D01*
X187567620Y-155097106D01*
X187595516Y-155081001D01*
X187629209Y-155061548D01*
X187631871Y-155060351D01*
X187638609Y-155056187D01*
X187640280Y-155055188D01*
X187641745Y-155053770D01*
X187647122Y-155048729D01*
X187649068Y-155046355D01*
X187671758Y-155023665D01*
X187671758Y-155023664D01*
X187671759Y-155023663D01*
X187711276Y-154984147D01*
X187711276Y-154984145D01*
X187721641Y-154973781D01*
X187721644Y-154973775D01*
X190066341Y-152629004D01*
X190128653Y-152594979D01*
X190155438Y-152592099D01*
X191367264Y-152592099D01*
X191367266Y-152592099D01*
X191367269Y-152592098D01*
X191367272Y-152592098D01*
X191403863Y-152584819D01*
X191441501Y-152577334D01*
X191525684Y-152521084D01*
X191581934Y-152436901D01*
X191596700Y-152362667D01*
X191596699Y-150788534D01*
X191596698Y-150788530D01*
X191596698Y-150788526D01*
X191581934Y-150714299D01*
X191525683Y-150630115D01*
X191441502Y-150573866D01*
X191367267Y-150559100D01*
X189793136Y-150559100D01*
X189793126Y-150559101D01*
X189718899Y-150573865D01*
X189634715Y-150630116D01*
X189578466Y-150714297D01*
X189563700Y-150788530D01*
X189563700Y-152000410D01*
X189543698Y-152068531D01*
X189526797Y-152089504D01*
X188587595Y-153028736D01*
X187330072Y-154286300D01*
X187284879Y-154331494D01*
X187222567Y-154365520D01*
X187195782Y-154368400D01*
X179830399Y-154368400D01*
X179762278Y-154348398D01*
X179715785Y-154294742D01*
X179704399Y-154242400D01*
X179704399Y-154024836D01*
X179704398Y-154024827D01*
X179689634Y-153950599D01*
X179633383Y-153866415D01*
X179549202Y-153810166D01*
X179474967Y-153795400D01*
X178024836Y-153795400D01*
X178024826Y-153795401D01*
X177950599Y-153810165D01*
X177866415Y-153866416D01*
X177810166Y-153950597D01*
X177795400Y-154024830D01*
X165455800Y-154024830D01*
X165455800Y-153580399D01*
X165475802Y-153512278D01*
X165529458Y-153465785D01*
X165581800Y-153454399D01*
X165725164Y-153454399D01*
X165725166Y-153454399D01*
X165725169Y-153454398D01*
X165725172Y-153454398D01*
X165761763Y-153447119D01*
X165799401Y-153439634D01*
X165883584Y-153383384D01*
X165939834Y-153299201D01*
X165954600Y-153224967D01*
X165954599Y-152137411D01*
X165974601Y-152069291D01*
X165991495Y-152048326D01*
X168105476Y-149934347D01*
X168137594Y-149878716D01*
X168155701Y-149847354D01*
X168181700Y-149750325D01*
X168181700Y-141020730D01*
X168181701Y-140950380D01*
X168155968Y-140854341D01*
X168155717Y-140853375D01*
X168155701Y-140853348D01*
X168155701Y-140853346D01*
X168121576Y-140794240D01*
X168107360Y-140769615D01*
X168105851Y-140766812D01*
X168105607Y-140766483D01*
X168066834Y-140727711D01*
X168066832Y-140727708D01*
X168066832Y-140727709D01*
X165603931Y-138264744D01*
X165523097Y-138183908D01*
X173499300Y-138183908D01*
X173499300Y-152183908D01*
X173499300Y-152315692D01*
X173524267Y-152408873D01*
X173533407Y-152442983D01*
X173533410Y-152442990D01*
X173599297Y-152557110D01*
X173599305Y-152557120D01*
X173692479Y-152650294D01*
X173692484Y-152650298D01*
X173692486Y-152650300D01*
X173806614Y-152716192D01*
X173933908Y-152750300D01*
X173933910Y-152750300D01*
X183065690Y-152750300D01*
X183065692Y-152750300D01*
X183192986Y-152716192D01*
X183307114Y-152650300D01*
X183400300Y-152557114D01*
X183466192Y-152442986D01*
X183500300Y-152315692D01*
X183500300Y-140628530D01*
X189563700Y-140628530D01*
X189563700Y-142202663D01*
X189563701Y-142202673D01*
X189578465Y-142276900D01*
X189634716Y-142361084D01*
X189718897Y-142417333D01*
X189718899Y-142417334D01*
X189793133Y-142432100D01*
X191367266Y-142432099D01*
X191367269Y-142432098D01*
X191367273Y-142432098D01*
X191416526Y-142422301D01*
X191441501Y-142417334D01*
X191525684Y-142361084D01*
X191581934Y-142276901D01*
X191596700Y-142202667D01*
X191596699Y-140628534D01*
X191596698Y-140628530D01*
X191596698Y-140628526D01*
X191581934Y-140554299D01*
X191540631Y-140492486D01*
X191525684Y-140470116D01*
X191525683Y-140470115D01*
X191441502Y-140413866D01*
X191367267Y-140399100D01*
X189793136Y-140399100D01*
X189793126Y-140399101D01*
X189718899Y-140413865D01*
X189634715Y-140470116D01*
X189578466Y-140554297D01*
X189563700Y-140628530D01*
X183500300Y-140628530D01*
X183500300Y-138183908D01*
X183466192Y-138056614D01*
X183419032Y-137974931D01*
X183400302Y-137942489D01*
X183400294Y-137942479D01*
X183307120Y-137849305D01*
X183307110Y-137849297D01*
X183192990Y-137783410D01*
X183192987Y-137783409D01*
X183192986Y-137783408D01*
X183192984Y-137783407D01*
X183192983Y-137783407D01*
X183158873Y-137774267D01*
X183065692Y-137749300D01*
X174065692Y-137749300D01*
X173933908Y-137749300D01*
X173869048Y-137766679D01*
X173806616Y-137783407D01*
X173806609Y-137783410D01*
X173692489Y-137849297D01*
X173692479Y-137849305D01*
X173599305Y-137942479D01*
X173599297Y-137942489D01*
X173533410Y-138056609D01*
X173533407Y-138056616D01*
X173520315Y-138105477D01*
X173499300Y-138183908D01*
X165523097Y-138183908D01*
X165199055Y-137859858D01*
X164618604Y-137279392D01*
X164584581Y-137217081D01*
X164589647Y-137146265D01*
X164632194Y-137089430D01*
X164698715Y-137064620D01*
X164707702Y-137064299D01*
X164754864Y-137064299D01*
X164754866Y-137064299D01*
X164754869Y-137064298D01*
X164754872Y-137064298D01*
X164807954Y-137053740D01*
X164829101Y-137049534D01*
X164913284Y-136993284D01*
X164969534Y-136909101D01*
X164984300Y-136834867D01*
X164984299Y-135184734D01*
X164984299Y-135184733D01*
X164984299Y-135184731D01*
X164984299Y-135184730D01*
X165415300Y-135184730D01*
X165415300Y-136834863D01*
X165415301Y-136834873D01*
X165430065Y-136909100D01*
X165486316Y-136993284D01*
X165570497Y-137049533D01*
X165570499Y-137049534D01*
X165644733Y-137064300D01*
X167294866Y-137064299D01*
X167294869Y-137064298D01*
X167294873Y-137064298D01*
X167347954Y-137053740D01*
X167369101Y-137049534D01*
X167453284Y-136993284D01*
X167509534Y-136909101D01*
X167524300Y-136834867D01*
X167524299Y-135184734D01*
X167524299Y-135184733D01*
X167524299Y-135184731D01*
X167524299Y-135184730D01*
X167955300Y-135184730D01*
X167955300Y-136834863D01*
X167955301Y-136834873D01*
X167970065Y-136909100D01*
X168026316Y-136993284D01*
X168110497Y-137049533D01*
X168110499Y-137049534D01*
X168184733Y-137064300D01*
X169834866Y-137064299D01*
X169834869Y-137064298D01*
X169834873Y-137064298D01*
X169887954Y-137053740D01*
X169909101Y-137049534D01*
X169993284Y-136993284D01*
X170049534Y-136909101D01*
X170064300Y-136834867D01*
X170064299Y-135184734D01*
X170064299Y-135184733D01*
X170064299Y-135184731D01*
X170064299Y-135184730D01*
X170495300Y-135184730D01*
X170495300Y-136834863D01*
X170495301Y-136834873D01*
X170510065Y-136909100D01*
X170566316Y-136993284D01*
X170650497Y-137049533D01*
X170650499Y-137049534D01*
X170724733Y-137064300D01*
X172374866Y-137064299D01*
X172374869Y-137064298D01*
X172374873Y-137064298D01*
X172427954Y-137053740D01*
X172449101Y-137049534D01*
X172533284Y-136993284D01*
X172589534Y-136909101D01*
X172604300Y-136834867D01*
X172604299Y-135184734D01*
X172604299Y-135184733D01*
X172604299Y-135184731D01*
X172604299Y-135184730D01*
X173035300Y-135184730D01*
X173035300Y-136834863D01*
X173035301Y-136834873D01*
X173050065Y-136909100D01*
X173106316Y-136993284D01*
X173190497Y-137049533D01*
X173190499Y-137049534D01*
X173264733Y-137064300D01*
X174914866Y-137064299D01*
X174914869Y-137064298D01*
X174914873Y-137064298D01*
X174967954Y-137053740D01*
X174989101Y-137049534D01*
X175073284Y-136993284D01*
X175129534Y-136909101D01*
X175144300Y-136834867D01*
X175144299Y-135274730D01*
X177795400Y-135274730D01*
X177795400Y-136724863D01*
X177795401Y-136724873D01*
X177810165Y-136799100D01*
X177866416Y-136883284D01*
X177950597Y-136939533D01*
X177950599Y-136939534D01*
X178024833Y-136954300D01*
X179474966Y-136954299D01*
X179474969Y-136954298D01*
X179474973Y-136954298D01*
X179524226Y-136944501D01*
X179549201Y-136939534D01*
X179633384Y-136883284D01*
X179689634Y-136799101D01*
X179704400Y-136724867D01*
X179704399Y-135274734D01*
X179704398Y-135274730D01*
X179704398Y-135274726D01*
X179689634Y-135200499D01*
X179633383Y-135116315D01*
X179549202Y-135060066D01*
X179474969Y-135045300D01*
X179474967Y-135045300D01*
X179257400Y-135045300D01*
X179189279Y-135025298D01*
X179142786Y-134971642D01*
X179131400Y-134919300D01*
X179131400Y-134221799D01*
X179151402Y-134153678D01*
X179205058Y-134107185D01*
X179257400Y-134095799D01*
X180219964Y-134095799D01*
X180219966Y-134095799D01*
X180219969Y-134095798D01*
X180219972Y-134095798D01*
X180256563Y-134088519D01*
X180294201Y-134081034D01*
X180378384Y-134024784D01*
X180434634Y-133940601D01*
X180449400Y-133866367D01*
X180449399Y-132292234D01*
X180449399Y-132292233D01*
X180449399Y-132292231D01*
X180449399Y-132292230D01*
X188576400Y-132292230D01*
X188576400Y-133866363D01*
X188576401Y-133866373D01*
X188591165Y-133940600D01*
X188647416Y-134024784D01*
X188731597Y-134081033D01*
X188731599Y-134081034D01*
X188805833Y-134095800D01*
X190379966Y-134095799D01*
X190379969Y-134095798D01*
X190379973Y-134095798D01*
X190429226Y-134086001D01*
X190454201Y-134081034D01*
X190538384Y-134024784D01*
X190594634Y-133940601D01*
X190609400Y-133866367D01*
X190609399Y-132292234D01*
X190609398Y-132292231D01*
X190609398Y-132292226D01*
X190594634Y-132217999D01*
X190538383Y-132133815D01*
X190454202Y-132077566D01*
X190379967Y-132062800D01*
X188805836Y-132062800D01*
X188805826Y-132062801D01*
X188731599Y-132077565D01*
X188647415Y-132133816D01*
X188591166Y-132217997D01*
X188576400Y-132292230D01*
X180449399Y-132292230D01*
X180434634Y-132217999D01*
X180378383Y-132133815D01*
X180294202Y-132077566D01*
X180219967Y-132062800D01*
X178645836Y-132062800D01*
X178645826Y-132062801D01*
X178571599Y-132077565D01*
X178487415Y-132133816D01*
X178431166Y-132217997D01*
X178416400Y-132292230D01*
X178416400Y-133543277D01*
X178399522Y-133606272D01*
X178394400Y-133615143D01*
X178394399Y-133615145D01*
X178394399Y-133615146D01*
X178370292Y-133705116D01*
X178368400Y-133712176D01*
X178368400Y-134919300D01*
X178348398Y-134987421D01*
X178294742Y-135033914D01*
X178242401Y-135045300D01*
X178024836Y-135045300D01*
X178024826Y-135045301D01*
X177950599Y-135060065D01*
X177866415Y-135116316D01*
X177810166Y-135200497D01*
X177795400Y-135274730D01*
X175144299Y-135274730D01*
X175144299Y-135184734D01*
X175144298Y-135184731D01*
X175144298Y-135184726D01*
X175129534Y-135110499D01*
X175095835Y-135060066D01*
X175073284Y-135026316D01*
X175073283Y-135026315D01*
X174989102Y-134970066D01*
X174914867Y-134955300D01*
X173264736Y-134955300D01*
X173264726Y-134955301D01*
X173190499Y-134970065D01*
X173106315Y-135026316D01*
X173050066Y-135110497D01*
X173035300Y-135184730D01*
X172604299Y-135184730D01*
X172589534Y-135110499D01*
X172555835Y-135060066D01*
X172533284Y-135026316D01*
X172533283Y-135026315D01*
X172449102Y-134970066D01*
X172374867Y-134955300D01*
X170724736Y-134955300D01*
X170724726Y-134955301D01*
X170650499Y-134970065D01*
X170566315Y-135026316D01*
X170510066Y-135110497D01*
X170495300Y-135184730D01*
X170064299Y-135184730D01*
X170049534Y-135110499D01*
X170015835Y-135060066D01*
X169993284Y-135026316D01*
X169993283Y-135026315D01*
X169909102Y-134970066D01*
X169834867Y-134955300D01*
X168184736Y-134955300D01*
X168184726Y-134955301D01*
X168110499Y-134970065D01*
X168026315Y-135026316D01*
X167970066Y-135110497D01*
X167955300Y-135184730D01*
X167524299Y-135184730D01*
X167509534Y-135110499D01*
X167475835Y-135060066D01*
X167453284Y-135026316D01*
X167453283Y-135026315D01*
X167369102Y-134970066D01*
X167294867Y-134955300D01*
X165644736Y-134955300D01*
X165644726Y-134955301D01*
X165570499Y-134970065D01*
X165486315Y-135026316D01*
X165430066Y-135110497D01*
X165415300Y-135184730D01*
X164984299Y-135184730D01*
X164969534Y-135110499D01*
X164935835Y-135060066D01*
X164913284Y-135026316D01*
X164913283Y-135026315D01*
X164829102Y-134970066D01*
X164754867Y-134955300D01*
X163104736Y-134955300D01*
X163104726Y-134955301D01*
X163030499Y-134970065D01*
X162946315Y-135026316D01*
X162890066Y-135110497D01*
X162875300Y-135184730D01*
X162875300Y-136431587D01*
X162855298Y-136499708D01*
X162801642Y-136546201D01*
X162731368Y-136556305D01*
X162666788Y-136526811D01*
X162660205Y-136520682D01*
X162481204Y-136341681D01*
X162447178Y-136279369D01*
X162444299Y-136252586D01*
X162444299Y-135184736D01*
X162444298Y-135184727D01*
X162429534Y-135110499D01*
X162395835Y-135060066D01*
X162373284Y-135026316D01*
X162373283Y-135026315D01*
X162289102Y-134970066D01*
X162214867Y-134955300D01*
X160564736Y-134955300D01*
X160564726Y-134955301D01*
X160490499Y-134970065D01*
X160406315Y-135026316D01*
X160350066Y-135110497D01*
X160335300Y-135184730D01*
X160335300Y-136834863D01*
X160335301Y-136834873D01*
X160350065Y-136909100D01*
X160406316Y-136993284D01*
X160490497Y-137049533D01*
X160490499Y-137049534D01*
X160564733Y-137064300D01*
X162072586Y-137064299D01*
X162140707Y-137084301D01*
X162161681Y-137101204D01*
X165144682Y-140084205D01*
X165178708Y-140146517D01*
X165173643Y-140217332D01*
X165131096Y-140274168D01*
X165064576Y-140298979D01*
X165055587Y-140299300D01*
X151715692Y-140299300D01*
X151583908Y-140299300D01*
X151515694Y-140317577D01*
X151456616Y-140333407D01*
X151456609Y-140333410D01*
X151342489Y-140399297D01*
X151342479Y-140399305D01*
X151249305Y-140492479D01*
X151249297Y-140492489D01*
X151183410Y-140606609D01*
X151183407Y-140606616D01*
X151177534Y-140628536D01*
X151149300Y-140733908D01*
X144256599Y-140733908D01*
X144256599Y-140728734D01*
X144256598Y-140728731D01*
X144256598Y-140728726D01*
X144241834Y-140654499D01*
X144224486Y-140628536D01*
X144185584Y-140570316D01*
X144185583Y-140570315D01*
X144101402Y-140514066D01*
X144027167Y-140499300D01*
X142977036Y-140499300D01*
X142977026Y-140499301D01*
X142902799Y-140514065D01*
X142818615Y-140570316D01*
X142762366Y-140654497D01*
X142747600Y-140728730D01*
X142256299Y-140728730D01*
X142241534Y-140654499D01*
X142224186Y-140628536D01*
X142185284Y-140570316D01*
X142185283Y-140570315D01*
X142101102Y-140514066D01*
X142026867Y-140499300D01*
X140976736Y-140499300D01*
X140976726Y-140499301D01*
X140902499Y-140514065D01*
X140818315Y-140570316D01*
X140762066Y-140654497D01*
X140747300Y-140728730D01*
X133516253Y-140728730D01*
X131617205Y-138829682D01*
X131602260Y-138802313D01*
X131585404Y-138776085D01*
X131584498Y-138769786D01*
X131583179Y-138767370D01*
X131580300Y-138740587D01*
X131580300Y-138728530D01*
X142747300Y-138728530D01*
X142747300Y-139778663D01*
X142747301Y-139778673D01*
X142762065Y-139852900D01*
X142818316Y-139937084D01*
X142902497Y-139993333D01*
X142902499Y-139993334D01*
X142976733Y-140008100D01*
X144026866Y-140008099D01*
X144026869Y-140008098D01*
X144026873Y-140008098D01*
X144076126Y-139998301D01*
X144101101Y-139993334D01*
X144185284Y-139937084D01*
X144241534Y-139852901D01*
X144256300Y-139778667D01*
X144256299Y-138728534D01*
X144256298Y-138728530D01*
X144256298Y-138728526D01*
X144241534Y-138654299D01*
X144185283Y-138570115D01*
X144101102Y-138513866D01*
X144026867Y-138499100D01*
X142976736Y-138499100D01*
X142976726Y-138499101D01*
X142902499Y-138513865D01*
X142818315Y-138570116D01*
X142762066Y-138654297D01*
X142747300Y-138728530D01*
X131580300Y-138728530D01*
X131580300Y-136578730D01*
X140597300Y-136578730D01*
X140597300Y-137928863D01*
X140597301Y-137928873D01*
X140612065Y-138003100D01*
X140668316Y-138087284D01*
X140752497Y-138143533D01*
X140752499Y-138143534D01*
X140826733Y-138158300D01*
X142176866Y-138158299D01*
X142176869Y-138158298D01*
X142176873Y-138158298D01*
X142226126Y-138148501D01*
X142251101Y-138143534D01*
X142335284Y-138087284D01*
X142391534Y-138003101D01*
X142406300Y-137928867D01*
X142406299Y-136728730D01*
X142747300Y-136728730D01*
X142747300Y-137778863D01*
X142747301Y-137778873D01*
X142762065Y-137853100D01*
X142818316Y-137937284D01*
X142902497Y-137993533D01*
X142902499Y-137993534D01*
X142976733Y-138008300D01*
X144026866Y-138008299D01*
X144026869Y-138008298D01*
X144026873Y-138008298D01*
X144076126Y-137998501D01*
X144101101Y-137993534D01*
X144185284Y-137937284D01*
X144241534Y-137853101D01*
X144256300Y-137778867D01*
X144256299Y-136728734D01*
X144256298Y-136728730D01*
X144256298Y-136728726D01*
X144241534Y-136654499D01*
X144185283Y-136570315D01*
X144101102Y-136514066D01*
X144026867Y-136499300D01*
X142976736Y-136499300D01*
X142976726Y-136499301D01*
X142902499Y-136514065D01*
X142818315Y-136570316D01*
X142762066Y-136654497D01*
X142747300Y-136728730D01*
X142406299Y-136728730D01*
X142406299Y-136578734D01*
X142406298Y-136578730D01*
X142406298Y-136578726D01*
X142391534Y-136504499D01*
X142335283Y-136420315D01*
X142251102Y-136364066D01*
X142176867Y-136349300D01*
X140826736Y-136349300D01*
X140826726Y-136349301D01*
X140752499Y-136364065D01*
X140668315Y-136420316D01*
X140612066Y-136504497D01*
X140597300Y-136578730D01*
X131580300Y-136578730D01*
X131580300Y-129073531D01*
X140040599Y-129073531D01*
X140078716Y-129215782D01*
X140152346Y-129343314D01*
X140152354Y-129343324D01*
X140219835Y-129410805D01*
X140253861Y-129473117D01*
X140248796Y-129543932D01*
X140219835Y-129588995D01*
X140152354Y-129656475D01*
X140152346Y-129656485D01*
X140078716Y-129784017D01*
X140040600Y-129926268D01*
X140040600Y-130073531D01*
X140040599Y-130073531D01*
X140078716Y-130215782D01*
X140152346Y-130343314D01*
X140152354Y-130343324D01*
X140256475Y-130447445D01*
X140256480Y-130447449D01*
X140256482Y-130447451D01*
X140384018Y-130521084D01*
X140526267Y-130559200D01*
X140566987Y-130559200D01*
X140635108Y-130579202D01*
X140656082Y-130596105D01*
X142765446Y-132705470D01*
X142765451Y-132705474D01*
X142765453Y-132705476D01*
X142852447Y-132755702D01*
X142949475Y-132781701D01*
X142949477Y-132781701D01*
X143057643Y-132781701D01*
X143057659Y-132781700D01*
X146388589Y-132781700D01*
X146456710Y-132801702D01*
X146477682Y-132818602D01*
X151693624Y-138034447D01*
X151746460Y-138087283D01*
X151764792Y-138105615D01*
X151765102Y-138105846D01*
X151767906Y-138107354D01*
X151805032Y-138128789D01*
X151851646Y-138155701D01*
X151851650Y-138155703D01*
X151948678Y-138181701D01*
X152049129Y-138181700D01*
X157942508Y-138181700D01*
X157943816Y-138181784D01*
X157951232Y-138181773D01*
X157951236Y-138181774D01*
X158001371Y-138181700D01*
X158001462Y-138181700D01*
X158051122Y-138181700D01*
X158051125Y-138181700D01*
X158051127Y-138181699D01*
X158051674Y-138181626D01*
X158051686Y-138181626D01*
X158091025Y-138171021D01*
X158099926Y-138168623D01*
X158099935Y-138168656D01*
X158100103Y-138168575D01*
X158148154Y-138155701D01*
X158148163Y-138155695D01*
X158148274Y-138155650D01*
X158148577Y-138155525D01*
X158148673Y-138155484D01*
X158148676Y-138155484D01*
X158191778Y-138130514D01*
X158191782Y-138130522D01*
X158191915Y-138130434D01*
X158235147Y-138105476D01*
X158235153Y-138105469D01*
X158235583Y-138105138D01*
X158235596Y-138105131D01*
X158270876Y-138069746D01*
X158306176Y-138034447D01*
X158306177Y-138034444D01*
X158311508Y-138029114D01*
X158312360Y-138028138D01*
X159118831Y-137219291D01*
X159118999Y-137219199D01*
X159118961Y-137219161D01*
X159134424Y-137203698D01*
X159154576Y-137183547D01*
X159154581Y-137183537D01*
X159154759Y-137183306D01*
X159154912Y-137183104D01*
X159154920Y-137183097D01*
X159179772Y-137139905D01*
X159179773Y-137139904D01*
X159187052Y-137127297D01*
X159238436Y-137078305D01*
X159296170Y-137064299D01*
X159674864Y-137064299D01*
X159674866Y-137064299D01*
X159674869Y-137064298D01*
X159674872Y-137064298D01*
X159727954Y-137053740D01*
X159749101Y-137049534D01*
X159833284Y-136993284D01*
X159889534Y-136909101D01*
X159904300Y-136834867D01*
X159904299Y-135184734D01*
X159904298Y-135184731D01*
X159904298Y-135184726D01*
X159889534Y-135110499D01*
X159855835Y-135060066D01*
X159833284Y-135026316D01*
X159833283Y-135026315D01*
X159749102Y-134970066D01*
X159674867Y-134955300D01*
X158024736Y-134955300D01*
X158024726Y-134955301D01*
X157950499Y-134970065D01*
X157866315Y-135026316D01*
X157810066Y-135110497D01*
X157795300Y-135184730D01*
X157795300Y-136834863D01*
X157795301Y-136834873D01*
X157810065Y-136909100D01*
X157866316Y-136993284D01*
X157950495Y-137049532D01*
X157950497Y-137049533D01*
X157950499Y-137049534D01*
X157950500Y-137049534D01*
X157960654Y-137053740D01*
X158015935Y-137098287D01*
X158038358Y-137165650D01*
X158020801Y-137234442D01*
X158001665Y-137259114D01*
X157879476Y-137381664D01*
X157817214Y-137415781D01*
X157790249Y-137418700D01*
X155745753Y-137418700D01*
X155677632Y-137398698D01*
X155631139Y-137345042D01*
X155621035Y-137274768D01*
X155650529Y-137210188D01*
X155656564Y-137203698D01*
X155758750Y-137101297D01*
X155821026Y-137067207D01*
X155847939Y-137064299D01*
X157134864Y-137064299D01*
X157134866Y-137064299D01*
X157134869Y-137064298D01*
X157134872Y-137064298D01*
X157187954Y-137053740D01*
X157209101Y-137049534D01*
X157293284Y-136993284D01*
X157349534Y-136909101D01*
X157364300Y-136834867D01*
X157364299Y-135184734D01*
X157364298Y-135184731D01*
X157364298Y-135184726D01*
X157349534Y-135110499D01*
X157315835Y-135060066D01*
X157293284Y-135026316D01*
X157293283Y-135026315D01*
X157209102Y-134970066D01*
X157134867Y-134955300D01*
X155484736Y-134955300D01*
X155484726Y-134955301D01*
X155410499Y-134970065D01*
X155326315Y-135026316D01*
X155270066Y-135110497D01*
X155255300Y-135184730D01*
X155255300Y-136473511D01*
X155235298Y-136541632D01*
X155218489Y-136562513D01*
X154999162Y-136782302D01*
X154936886Y-136816392D01*
X154909973Y-136819300D01*
X152409717Y-136819300D01*
X152341596Y-136799298D01*
X152320621Y-136782395D01*
X149760072Y-134221799D01*
X149401810Y-133863530D01*
X152039500Y-133863530D01*
X152039500Y-135437663D01*
X152039501Y-135437673D01*
X152054265Y-135511900D01*
X152110516Y-135596084D01*
X152194697Y-135652333D01*
X152194699Y-135652334D01*
X152268933Y-135667100D01*
X153843066Y-135667099D01*
X153843069Y-135667098D01*
X153843073Y-135667098D01*
X153892326Y-135657301D01*
X153917301Y-135652334D01*
X154001484Y-135596084D01*
X154057734Y-135511901D01*
X154072500Y-135437667D01*
X154072499Y-133863534D01*
X154072498Y-133863530D01*
X154072498Y-133863526D01*
X154057734Y-133789299D01*
X154006201Y-133712176D01*
X154001484Y-133705116D01*
X154001483Y-133705115D01*
X153917302Y-133648866D01*
X153843067Y-133634100D01*
X152268936Y-133634100D01*
X152268926Y-133634101D01*
X152194699Y-133648865D01*
X152110515Y-133705116D01*
X152054266Y-133789297D01*
X152039500Y-133863530D01*
X149401810Y-133863530D01*
X147134816Y-131596494D01*
X147100792Y-131534182D01*
X147105858Y-131463366D01*
X147148405Y-131406531D01*
X147214925Y-131381721D01*
X147223913Y-131381400D01*
X171429678Y-131381400D01*
X171429682Y-131381401D01*
X171479907Y-131381400D01*
X171530125Y-131381400D01*
X171530128Y-131381399D01*
X171530132Y-131381399D01*
X171597140Y-131363443D01*
X171627154Y-131355401D01*
X171627155Y-131355400D01*
X171627160Y-131355399D01*
X171669614Y-131330886D01*
X171714147Y-131305176D01*
X171714150Y-131305172D01*
X171714153Y-131305171D01*
X171720130Y-131299193D01*
X171720200Y-131299164D01*
X171720470Y-131298852D01*
X171740181Y-131279141D01*
X171785176Y-131234147D01*
X171785176Y-131234144D01*
X171794214Y-131225108D01*
X171794225Y-131225093D01*
X173538047Y-129481204D01*
X173600358Y-129447179D01*
X173627144Y-129444299D01*
X174914864Y-129444299D01*
X174914866Y-129444299D01*
X174914869Y-129444298D01*
X174914872Y-129444298D01*
X174951463Y-129437019D01*
X174989101Y-129429534D01*
X175073284Y-129373284D01*
X175129534Y-129289101D01*
X175144300Y-129214867D01*
X175144299Y-127564734D01*
X175144298Y-127564730D01*
X175144298Y-127564726D01*
X175129534Y-127490499D01*
X175073283Y-127406315D01*
X174989102Y-127350066D01*
X174914867Y-127335300D01*
X173264736Y-127335300D01*
X173264726Y-127335301D01*
X173190499Y-127350065D01*
X173106315Y-127406316D01*
X173050066Y-127490497D01*
X173035300Y-127564730D01*
X173035300Y-128852717D01*
X173015298Y-128920838D01*
X172998397Y-128941811D01*
X172819396Y-129120818D01*
X172757084Y-129154844D01*
X172686268Y-129149780D01*
X172629432Y-129107235D01*
X172604620Y-129040715D01*
X172604299Y-129031748D01*
X172604299Y-127564734D01*
X172604298Y-127564730D01*
X172604298Y-127564726D01*
X172589534Y-127490499D01*
X172533283Y-127406315D01*
X172449102Y-127350066D01*
X172374867Y-127335300D01*
X170724736Y-127335300D01*
X170724726Y-127335301D01*
X170650499Y-127350065D01*
X170566315Y-127406316D01*
X170510066Y-127490497D01*
X170495300Y-127564730D01*
X170495300Y-129214863D01*
X170495301Y-129214873D01*
X170510065Y-129289100D01*
X170566316Y-129373284D01*
X170650497Y-129429533D01*
X170650499Y-129429534D01*
X170724733Y-129444300D01*
X172191745Y-129444299D01*
X172259866Y-129464301D01*
X172306359Y-129517957D01*
X172316463Y-129588231D01*
X172286970Y-129652811D01*
X172280842Y-129659393D01*
X172013979Y-129926267D01*
X171361070Y-130579202D01*
X171358778Y-130581494D01*
X171296467Y-130615520D01*
X171269681Y-130618400D01*
X165086521Y-130618400D01*
X165018400Y-130598398D01*
X164971907Y-130544742D01*
X164961803Y-130474468D01*
X164991297Y-130409888D01*
X164997364Y-130403366D01*
X165899583Y-129499900D01*
X165918192Y-129481264D01*
X165980481Y-129447197D01*
X166007349Y-129444299D01*
X167294864Y-129444299D01*
X167294866Y-129444299D01*
X167294869Y-129444298D01*
X167294872Y-129444298D01*
X167331463Y-129437019D01*
X167369101Y-129429534D01*
X167453284Y-129373284D01*
X167509534Y-129289101D01*
X167524300Y-129214867D01*
X167524299Y-127748111D01*
X167544301Y-127679991D01*
X167597957Y-127633498D01*
X167668231Y-127623394D01*
X167732811Y-127652887D01*
X167739394Y-127659017D01*
X167918395Y-127838018D01*
X167952421Y-127900330D01*
X167955300Y-127927113D01*
X167955300Y-129214863D01*
X167955301Y-129214873D01*
X167970065Y-129289100D01*
X168026316Y-129373284D01*
X168110497Y-129429533D01*
X168110499Y-129429534D01*
X168184733Y-129444300D01*
X169834866Y-129444299D01*
X169834869Y-129444298D01*
X169834873Y-129444298D01*
X169884126Y-129434501D01*
X169909101Y-129429534D01*
X169993284Y-129373284D01*
X170049534Y-129289101D01*
X170064300Y-129214867D01*
X170064299Y-127564734D01*
X170064298Y-127564730D01*
X170064298Y-127564726D01*
X170049534Y-127490499D01*
X169993283Y-127406315D01*
X169909102Y-127350066D01*
X169834869Y-127335300D01*
X169834867Y-127335300D01*
X168546913Y-127335300D01*
X168478792Y-127315298D01*
X168457818Y-127298395D01*
X164933253Y-123773829D01*
X164933243Y-123773821D01*
X164878095Y-123741982D01*
X164878094Y-123741982D01*
X164846258Y-123723601D01*
X164846255Y-123723600D01*
X164846254Y-123723599D01*
X164846252Y-123723598D01*
X164846251Y-123723598D01*
X164820253Y-123716632D01*
X164749225Y-123697600D01*
X164749223Y-123697600D01*
X162324499Y-123697600D01*
X162256378Y-123677598D01*
X162209885Y-123623942D01*
X162198499Y-123571600D01*
X162198499Y-123292031D01*
X162198499Y-123292030D01*
X170325500Y-123292030D01*
X170325500Y-124866163D01*
X170325501Y-124866173D01*
X170340265Y-124940400D01*
X170396516Y-125024584D01*
X170480697Y-125080833D01*
X170480699Y-125080834D01*
X170554933Y-125095600D01*
X172129066Y-125095599D01*
X172129069Y-125095598D01*
X172129073Y-125095598D01*
X172178326Y-125085801D01*
X172203301Y-125080834D01*
X172287484Y-125024584D01*
X172343734Y-124940401D01*
X172358500Y-124866167D01*
X172358499Y-123292034D01*
X172358498Y-123292031D01*
X172358498Y-123292026D01*
X172343734Y-123217799D01*
X172336683Y-123207247D01*
X172287484Y-123133616D01*
X172287483Y-123133615D01*
X172203302Y-123077366D01*
X172129067Y-123062600D01*
X170554936Y-123062600D01*
X170554926Y-123062601D01*
X170480699Y-123077365D01*
X170396515Y-123133616D01*
X170340266Y-123217797D01*
X170325500Y-123292030D01*
X162198499Y-123292030D01*
X162183734Y-123217799D01*
X162176683Y-123207247D01*
X162127484Y-123133616D01*
X162127483Y-123133615D01*
X162043302Y-123077366D01*
X161969069Y-123062600D01*
X161969067Y-123062600D01*
X161689500Y-123062600D01*
X161621379Y-123042598D01*
X161574886Y-122988942D01*
X161563500Y-122936600D01*
X161563500Y-122580499D01*
X161583502Y-122512378D01*
X161637158Y-122465885D01*
X161689500Y-122454499D01*
X161725164Y-122454499D01*
X161725166Y-122454499D01*
X161725169Y-122454498D01*
X161725172Y-122454498D01*
X161761763Y-122447219D01*
X161799401Y-122439734D01*
X161883584Y-122383484D01*
X161939834Y-122299301D01*
X161954600Y-122225067D01*
X161954599Y-121275030D01*
X178045600Y-121275030D01*
X178045600Y-122725163D01*
X178045601Y-122725173D01*
X178060365Y-122799400D01*
X178116616Y-122883584D01*
X178200797Y-122939833D01*
X178200799Y-122939834D01*
X178275033Y-122954600D01*
X179725166Y-122954599D01*
X179725169Y-122954598D01*
X179725173Y-122954598D01*
X179774426Y-122944801D01*
X179799401Y-122939834D01*
X179883584Y-122883584D01*
X179939834Y-122799401D01*
X179954600Y-122725167D01*
X179954599Y-121275034D01*
X179954599Y-121275033D01*
X179954599Y-121275031D01*
X179954599Y-121275030D01*
X182045600Y-121275030D01*
X182045600Y-122725163D01*
X182045601Y-122725173D01*
X182060365Y-122799400D01*
X182116616Y-122883584D01*
X182200797Y-122939833D01*
X182200799Y-122939834D01*
X182275033Y-122954600D01*
X183725166Y-122954599D01*
X183725169Y-122954598D01*
X183725173Y-122954598D01*
X183774426Y-122944801D01*
X183799401Y-122939834D01*
X183883584Y-122883584D01*
X183939834Y-122799401D01*
X183954600Y-122725167D01*
X183954599Y-121275034D01*
X183954598Y-121275031D01*
X183954598Y-121275026D01*
X183939834Y-121200799D01*
X183883583Y-121116615D01*
X183799402Y-121060366D01*
X183725167Y-121045600D01*
X182275036Y-121045600D01*
X182275026Y-121045601D01*
X182200799Y-121060365D01*
X182116615Y-121116616D01*
X182060366Y-121200797D01*
X182045600Y-121275030D01*
X179954599Y-121275030D01*
X179939834Y-121200799D01*
X179883583Y-121116615D01*
X179799402Y-121060366D01*
X179725167Y-121045600D01*
X178275036Y-121045600D01*
X178275026Y-121045601D01*
X178200799Y-121060365D01*
X178116615Y-121116616D01*
X178060366Y-121200797D01*
X178045600Y-121275030D01*
X161954599Y-121275030D01*
X161954599Y-120774934D01*
X161954598Y-120774930D01*
X161954598Y-120774926D01*
X161939834Y-120700699D01*
X161883583Y-120616515D01*
X161799402Y-120560266D01*
X161725167Y-120545500D01*
X160275036Y-120545500D01*
X160275026Y-120545501D01*
X160200799Y-120560265D01*
X160116615Y-120616516D01*
X160060366Y-120700697D01*
X160045600Y-120774930D01*
X160045600Y-122225063D01*
X160045601Y-122225073D01*
X160060365Y-122299300D01*
X160116616Y-122383484D01*
X160200797Y-122439733D01*
X160200799Y-122439734D01*
X160275033Y-122454500D01*
X160674500Y-122454499D01*
X160742620Y-122474501D01*
X160789114Y-122528156D01*
X160800500Y-122580499D01*
X160800500Y-122936600D01*
X160780498Y-123004721D01*
X160726842Y-123051214D01*
X160674500Y-123062600D01*
X160394936Y-123062600D01*
X160394926Y-123062601D01*
X160320699Y-123077365D01*
X160236515Y-123133616D01*
X160180266Y-123217797D01*
X160165500Y-123292030D01*
X160165500Y-124866163D01*
X160165501Y-124866173D01*
X160180265Y-124940400D01*
X160236516Y-125024584D01*
X160320697Y-125080833D01*
X160320699Y-125080834D01*
X160394933Y-125095600D01*
X161969066Y-125095599D01*
X161969069Y-125095598D01*
X161969073Y-125095598D01*
X162018326Y-125085801D01*
X162043301Y-125080834D01*
X162127484Y-125024584D01*
X162183734Y-124940401D01*
X162198500Y-124866167D01*
X162198500Y-124586600D01*
X162218502Y-124518479D01*
X162272158Y-124471986D01*
X162324500Y-124460600D01*
X164488787Y-124460600D01*
X164556908Y-124480602D01*
X164577882Y-124497505D01*
X167200582Y-127120205D01*
X167234608Y-127182517D01*
X167229543Y-127253332D01*
X167186996Y-127310168D01*
X167120476Y-127334979D01*
X167111487Y-127335300D01*
X165644736Y-127335300D01*
X165644726Y-127335301D01*
X165570499Y-127350065D01*
X165486315Y-127406316D01*
X165430066Y-127490497D01*
X165415300Y-127564730D01*
X165415300Y-128852920D01*
X165395298Y-128921041D01*
X165378457Y-128941954D01*
X165199456Y-129121202D01*
X165137167Y-129155270D01*
X165066348Y-129150254D01*
X165009483Y-129107747D01*
X164984626Y-129041243D01*
X164984299Y-129032192D01*
X164984299Y-127564734D01*
X164984298Y-127564730D01*
X164984298Y-127564726D01*
X164969534Y-127490499D01*
X164913283Y-127406315D01*
X164829102Y-127350066D01*
X164754869Y-127335300D01*
X164754867Y-127335300D01*
X163926938Y-127335300D01*
X163858817Y-127315298D01*
X163837790Y-127298343D01*
X163794156Y-127254658D01*
X162112048Y-125570575D01*
X162111700Y-125570178D01*
X162105977Y-125564455D01*
X162105976Y-125564453D01*
X162070091Y-125528568D01*
X162070055Y-125528501D01*
X162070040Y-125528517D01*
X162035126Y-125493562D01*
X162035125Y-125493561D01*
X162035121Y-125493557D01*
X162035065Y-125493514D01*
X162034949Y-125493425D01*
X162026246Y-125488400D01*
X161990974Y-125468036D01*
X161990923Y-125467982D01*
X161990913Y-125468001D01*
X161948148Y-125443277D01*
X161947966Y-125443202D01*
X161900038Y-125430360D01*
X161900040Y-125430349D01*
X161899965Y-125430340D01*
X161851136Y-125417225D01*
X161850946Y-125417200D01*
X161850925Y-125417200D01*
X161801775Y-125417200D01*
X161742764Y-125417165D01*
X161742233Y-125417200D01*
X153209670Y-125417200D01*
X153141549Y-125397198D01*
X153120617Y-125380338D01*
X150669216Y-122931293D01*
X150669220Y-122931288D01*
X150669175Y-122931252D01*
X150632947Y-122895024D01*
X150632946Y-122895023D01*
X150632942Y-122895019D01*
X150632805Y-122894914D01*
X150590212Y-122870351D01*
X150590220Y-122870336D01*
X150590157Y-122870320D01*
X150545951Y-122844797D01*
X150545786Y-122844729D01*
X150497381Y-122831783D01*
X150497383Y-122831775D01*
X150497326Y-122831768D01*
X150448919Y-122818798D01*
X150448747Y-122818775D01*
X150398517Y-122818800D01*
X150210113Y-122818800D01*
X150141992Y-122798798D01*
X150121018Y-122781895D01*
X148433253Y-121094129D01*
X148433243Y-121094121D01*
X148346258Y-121043900D01*
X148334792Y-121040827D01*
X148249225Y-121017900D01*
X148249223Y-121017900D01*
X144061060Y-121017900D01*
X143992939Y-120997898D01*
X143971965Y-120980995D01*
X143943324Y-120952354D01*
X143943314Y-120952346D01*
X143815782Y-120878716D01*
X143673533Y-120840600D01*
X143526267Y-120840600D01*
X143431434Y-120866010D01*
X143384017Y-120878716D01*
X143256485Y-120952346D01*
X143256475Y-120952354D01*
X143152354Y-121056475D01*
X143152346Y-121056485D01*
X143078716Y-121184017D01*
X143078716Y-121184018D01*
X143054328Y-121275036D01*
X143040600Y-121326268D01*
X143040600Y-121473531D01*
X143040599Y-121473531D01*
X143078716Y-121615782D01*
X143152346Y-121743314D01*
X143152354Y-121743324D01*
X143256475Y-121847445D01*
X143256480Y-121847449D01*
X143256482Y-121847451D01*
X143384018Y-121921084D01*
X143526267Y-121959200D01*
X143526269Y-121959200D01*
X143673531Y-121959200D01*
X143673533Y-121959200D01*
X143815782Y-121921084D01*
X143943318Y-121847451D01*
X143943324Y-121847445D01*
X143972965Y-121817805D01*
X144035277Y-121783779D01*
X144062060Y-121780900D01*
X147988787Y-121780900D01*
X148056908Y-121800902D01*
X148077882Y-121817805D01*
X149694624Y-123434547D01*
X149765653Y-123505576D01*
X149765654Y-123505577D01*
X149765656Y-123505578D01*
X149852641Y-123555799D01*
X149852643Y-123555799D01*
X149852646Y-123555801D01*
X149949675Y-123581800D01*
X150050125Y-123581800D01*
X150188629Y-123581800D01*
X150256750Y-123601802D01*
X150277682Y-123618662D01*
X150723714Y-124064265D01*
X150757769Y-124126561D01*
X150752738Y-124197379D01*
X150710219Y-124254235D01*
X150643710Y-124279078D01*
X150602051Y-124275110D01*
X150473633Y-124240700D01*
X150326367Y-124240700D01*
X150231534Y-124266110D01*
X150184117Y-124278816D01*
X150056585Y-124352446D01*
X150056575Y-124352454D01*
X149952454Y-124456575D01*
X149952446Y-124456585D01*
X149878816Y-124584117D01*
X149840700Y-124726368D01*
X149840700Y-124873631D01*
X149840699Y-124873631D01*
X149878816Y-125015882D01*
X149952446Y-125143414D01*
X149952454Y-125143424D01*
X150056575Y-125247545D01*
X150056580Y-125247549D01*
X150056582Y-125247551D01*
X150184118Y-125321184D01*
X150326367Y-125359300D01*
X150366194Y-125359300D01*
X150434315Y-125379302D01*
X150455234Y-125396149D01*
X152130120Y-127068943D01*
X152130118Y-127068944D01*
X152130162Y-127068985D01*
X152165953Y-127104776D01*
X152166146Y-127104924D01*
X152209043Y-127129655D01*
X152209036Y-127129667D01*
X152209109Y-127129692D01*
X152252946Y-127155001D01*
X152252954Y-127155003D01*
X152253164Y-127155090D01*
X152253169Y-127155093D01*
X152295115Y-127166304D01*
X152302053Y-127168159D01*
X152302052Y-127168162D01*
X152302107Y-127168173D01*
X152349975Y-127181000D01*
X152349977Y-127181000D01*
X152349981Y-127181001D01*
X152350203Y-127181029D01*
X152350213Y-127181032D01*
X152401235Y-127181000D01*
X157788159Y-127181000D01*
X157856280Y-127201002D01*
X157902773Y-127254658D01*
X157912877Y-127324932D01*
X157883383Y-127389512D01*
X157874711Y-127397162D01*
X157875090Y-127397541D01*
X157866316Y-127406314D01*
X157810066Y-127490497D01*
X157795300Y-127564730D01*
X157795300Y-129214863D01*
X157795301Y-129214873D01*
X157810065Y-129289100D01*
X157866316Y-129373284D01*
X157950497Y-129429533D01*
X157950499Y-129429534D01*
X158024733Y-129444300D01*
X159674866Y-129444299D01*
X159694353Y-129440423D01*
X159765067Y-129446751D01*
X159821134Y-129490305D01*
X159840640Y-129531387D01*
X159845000Y-129547657D01*
X159885786Y-129618300D01*
X159885787Y-129618301D01*
X159895223Y-129634645D01*
X159895226Y-129634649D01*
X160663882Y-130403304D01*
X160697907Y-130465617D01*
X160692843Y-130536432D01*
X160650296Y-130593268D01*
X160583776Y-130618079D01*
X160574787Y-130618400D01*
X145661460Y-130618400D01*
X145593339Y-130598398D01*
X145572365Y-130581495D01*
X145543224Y-130552354D01*
X145543214Y-130552346D01*
X145415682Y-130478716D01*
X145399828Y-130474468D01*
X145273433Y-130440600D01*
X145126167Y-130440600D01*
X145031334Y-130466010D01*
X144983917Y-130478716D01*
X144856385Y-130552346D01*
X144856375Y-130552354D01*
X144752254Y-130656475D01*
X144752246Y-130656485D01*
X144678616Y-130784017D01*
X144640500Y-130926268D01*
X144640500Y-131073531D01*
X144640499Y-131073531D01*
X144678616Y-131215783D01*
X144686941Y-131230202D01*
X144703678Y-131299197D01*
X144680456Y-131366289D01*
X144624649Y-131410175D01*
X144577821Y-131419200D01*
X143611213Y-131419200D01*
X143543092Y-131399198D01*
X143522118Y-131382295D01*
X141196105Y-129056282D01*
X141162079Y-128993970D01*
X141159200Y-128967187D01*
X141159200Y-128926268D01*
X141159200Y-128926267D01*
X141121084Y-128784018D01*
X141047451Y-128656482D01*
X141047449Y-128656480D01*
X141047445Y-128656475D01*
X140943324Y-128552354D01*
X140943314Y-128552346D01*
X140815782Y-128478716D01*
X140673533Y-128440600D01*
X140526267Y-128440600D01*
X140431434Y-128466010D01*
X140384017Y-128478716D01*
X140256485Y-128552346D01*
X140256475Y-128552354D01*
X140152354Y-128656475D01*
X140152346Y-128656485D01*
X140078716Y-128784017D01*
X140078716Y-128784018D01*
X140042001Y-128921041D01*
X140040600Y-128926268D01*
X140040600Y-129073531D01*
X140040599Y-129073531D01*
X131580300Y-129073531D01*
X131580300Y-126466330D01*
X143215800Y-126466330D01*
X143215800Y-128040463D01*
X143215801Y-128040473D01*
X143230565Y-128114700D01*
X143286816Y-128198884D01*
X143370997Y-128255133D01*
X143370999Y-128255134D01*
X143445233Y-128269900D01*
X145019366Y-128269899D01*
X145019369Y-128269898D01*
X145019373Y-128269898D01*
X145068626Y-128260101D01*
X145093601Y-128255134D01*
X145177784Y-128198884D01*
X145234034Y-128114701D01*
X145248800Y-128040467D01*
X145248799Y-126466334D01*
X145248798Y-126466330D01*
X145248798Y-126466326D01*
X145234034Y-126392099D01*
X145177783Y-126307915D01*
X145093602Y-126251666D01*
X145019367Y-126236900D01*
X143445236Y-126236900D01*
X143445226Y-126236901D01*
X143370999Y-126251665D01*
X143286815Y-126307916D01*
X143230566Y-126392097D01*
X143215800Y-126466330D01*
X131580300Y-126466330D01*
X131580300Y-126201841D01*
X131580309Y-126170293D01*
X131580315Y-126149885D01*
X131580311Y-126149871D01*
X131580300Y-126149782D01*
X131580300Y-126149775D01*
X131567618Y-126102446D01*
X131567618Y-126102445D01*
X131567620Y-126102444D01*
X131567608Y-126102410D01*
X131558335Y-126067763D01*
X131554344Y-126052850D01*
X131554342Y-126052847D01*
X131554334Y-126052816D01*
X131554317Y-126052775D01*
X131554301Y-126052748D01*
X131554301Y-126052746D01*
X131528618Y-126008261D01*
X131528610Y-126008228D01*
X131528602Y-126008233D01*
X131521330Y-125995630D01*
X131504143Y-125965841D01*
X131504138Y-125965836D01*
X131504074Y-125965751D01*
X131467894Y-125929571D01*
X131467877Y-125929539D01*
X131467870Y-125929547D01*
X128809432Y-123269569D01*
X128775425Y-123207247D01*
X128780510Y-123136432D01*
X128823073Y-123079609D01*
X128889601Y-123054817D01*
X128898553Y-123054499D01*
X130225164Y-123054499D01*
X130225166Y-123054499D01*
X130225169Y-123054498D01*
X130225172Y-123054498D01*
X130285001Y-123042598D01*
X130299401Y-123039734D01*
X130383584Y-122983484D01*
X130439834Y-122899301D01*
X130454600Y-122825067D01*
X130454599Y-121174734D01*
X130454598Y-121174731D01*
X130454598Y-121174726D01*
X130439834Y-121100499D01*
X130413924Y-121061723D01*
X130383584Y-121016316D01*
X130383583Y-121016315D01*
X130299402Y-120960066D01*
X130225167Y-120945300D01*
X128574836Y-120945300D01*
X128574826Y-120945301D01*
X128500599Y-120960065D01*
X128416415Y-121016316D01*
X128360166Y-121100497D01*
X128345400Y-121174730D01*
X128345400Y-122500954D01*
X128325398Y-122569075D01*
X128271742Y-122615568D01*
X128201468Y-122625672D01*
X128136888Y-122596178D01*
X128130279Y-122590024D01*
X127951478Y-122411119D01*
X127917471Y-122348796D01*
X127914599Y-122322049D01*
X127914599Y-121174736D01*
X127914598Y-121174727D01*
X127899834Y-121100499D01*
X127873924Y-121061723D01*
X127843584Y-121016316D01*
X127843583Y-121016315D01*
X127759402Y-120960066D01*
X127685167Y-120945300D01*
X126034836Y-120945300D01*
X126034826Y-120945301D01*
X125960599Y-120960065D01*
X125876415Y-121016316D01*
X125820166Y-121100497D01*
X125805400Y-121174730D01*
X125374599Y-121174730D01*
X125359834Y-121100499D01*
X125333924Y-121061723D01*
X125303584Y-121016316D01*
X125303583Y-121016315D01*
X125219402Y-120960066D01*
X125145167Y-120945300D01*
X123494836Y-120945300D01*
X123494826Y-120945301D01*
X123420599Y-120960065D01*
X123336415Y-121016316D01*
X123280166Y-121100497D01*
X123265400Y-121174730D01*
X122834599Y-121174730D01*
X122819834Y-121100499D01*
X122793924Y-121061723D01*
X122763584Y-121016316D01*
X122763583Y-121016315D01*
X122679402Y-120960066D01*
X122605169Y-120945300D01*
X122605167Y-120945300D01*
X122308300Y-120945300D01*
X122240179Y-120925298D01*
X122193686Y-120871642D01*
X122182300Y-120819300D01*
X122182300Y-120009414D01*
X122202302Y-119941293D01*
X122219205Y-119920318D01*
X122320134Y-119819390D01*
X131864784Y-110274830D01*
X136295600Y-110274830D01*
X136295600Y-111724963D01*
X136295601Y-111724973D01*
X136310365Y-111799200D01*
X136366616Y-111883384D01*
X136450797Y-111939633D01*
X136450799Y-111939634D01*
X136525033Y-111954400D01*
X137975166Y-111954399D01*
X137975169Y-111954398D01*
X137975173Y-111954398D01*
X138024426Y-111944601D01*
X138049401Y-111939634D01*
X138133584Y-111883384D01*
X138189834Y-111799201D01*
X138204600Y-111724967D01*
X138204599Y-110274834D01*
X138204598Y-110274830D01*
X138204598Y-110274826D01*
X138189834Y-110200599D01*
X138172182Y-110174181D01*
X138133584Y-110116416D01*
X138131558Y-110115062D01*
X138049402Y-110060166D01*
X137975167Y-110045400D01*
X136525036Y-110045400D01*
X136525026Y-110045401D01*
X136450799Y-110060165D01*
X136366615Y-110116416D01*
X136310366Y-110200597D01*
X136295600Y-110274830D01*
X131864784Y-110274830D01*
X132477462Y-109662158D01*
X132477476Y-109662147D01*
X132555670Y-109583953D01*
X132555676Y-109583947D01*
X132593386Y-109518631D01*
X132605901Y-109496955D01*
X132631900Y-109399927D01*
X132631900Y-109299477D01*
X132631900Y-99080399D01*
X132651902Y-99012278D01*
X132705558Y-98965785D01*
X132757900Y-98954399D01*
X132975164Y-98954399D01*
X132975166Y-98954399D01*
X132975169Y-98954398D01*
X132975172Y-98954398D01*
X133011763Y-98947119D01*
X133049401Y-98939634D01*
X133133584Y-98883384D01*
X133189834Y-98799201D01*
X133204600Y-98724967D01*
X133204599Y-97274834D01*
X133204598Y-97274830D01*
X133204598Y-97274826D01*
X133189834Y-97200599D01*
X133133583Y-97116415D01*
X133049402Y-97060166D01*
X132975167Y-97045400D01*
X131525036Y-97045400D01*
X131525026Y-97045401D01*
X131450799Y-97060165D01*
X131366615Y-97116416D01*
X131310366Y-97200597D01*
X131295600Y-97274830D01*
X131295600Y-98724963D01*
X131295601Y-98724973D01*
X131310365Y-98799200D01*
X131366616Y-98883384D01*
X131450797Y-98939633D01*
X131450799Y-98939634D01*
X131525033Y-98954400D01*
X131742900Y-98954399D01*
X131811020Y-98974401D01*
X131857513Y-99028056D01*
X131868900Y-99080399D01*
X131868900Y-109139483D01*
X131848898Y-109207604D01*
X131831995Y-109228579D01*
X128597595Y-112462949D01*
X128535283Y-112496974D01*
X128464467Y-112491908D01*
X128407631Y-112449362D01*
X128382821Y-112382841D01*
X128382500Y-112373853D01*
X128382500Y-87933908D01*
X134749500Y-87933908D01*
X134749500Y-107933908D01*
X134749500Y-108065692D01*
X134766525Y-108129229D01*
X134783607Y-108192983D01*
X134783610Y-108192990D01*
X134849497Y-108307110D01*
X134849505Y-108307120D01*
X134942679Y-108400294D01*
X134942684Y-108400298D01*
X134942686Y-108400300D01*
X134942687Y-108400301D01*
X134942689Y-108400302D01*
X134962984Y-108412019D01*
X135056814Y-108466192D01*
X135184108Y-108500300D01*
X141372546Y-108500300D01*
X141440667Y-108520302D01*
X141487160Y-108573958D01*
X141498546Y-108626271D01*
X141500885Y-118687008D01*
X141500900Y-118750699D01*
X141500900Y-118816092D01*
X141500914Y-118816147D01*
X141500915Y-118816208D01*
X141517994Y-118879890D01*
X141535008Y-118943386D01*
X141535037Y-118943437D01*
X141535053Y-118943494D01*
X141568057Y-119000629D01*
X141600900Y-119057514D01*
X141600940Y-119057554D01*
X141600971Y-119057607D01*
X141647575Y-119104189D01*
X141694086Y-119150700D01*
X141694138Y-119150730D01*
X141694179Y-119150771D01*
X141751171Y-119183658D01*
X141789820Y-119205972D01*
X141808216Y-119216594D01*
X141808324Y-119216638D01*
X141871933Y-119233666D01*
X141871932Y-119233666D01*
X141871963Y-119233673D01*
X141935485Y-119250694D01*
X141935508Y-119250700D01*
X141935511Y-119250700D01*
X141935623Y-119250715D01*
X141935623Y-119250714D01*
X141935624Y-119250715D01*
X141999390Y-119250700D01*
X149332800Y-119250700D01*
X149400921Y-119270702D01*
X149447414Y-119324358D01*
X149458800Y-119376700D01*
X149458800Y-119687608D01*
X149458800Y-119819392D01*
X149483767Y-119912573D01*
X149492907Y-119946683D01*
X149492910Y-119946690D01*
X149558797Y-120060810D01*
X149558805Y-120060820D01*
X149651979Y-120153994D01*
X149651984Y-120153998D01*
X149651986Y-120154000D01*
X149766114Y-120219892D01*
X149893408Y-120254000D01*
X149893410Y-120254000D01*
X158318290Y-120254000D01*
X158318292Y-120254000D01*
X158445586Y-120219892D01*
X158559714Y-120154000D01*
X158652900Y-120060814D01*
X158718792Y-119946686D01*
X158752900Y-119819392D01*
X158752900Y-119379340D01*
X158772902Y-119311219D01*
X158826558Y-119264726D01*
X158878887Y-119253340D01*
X187002146Y-119250700D01*
X187065992Y-119250700D01*
X187066014Y-119250694D01*
X187066039Y-119250694D01*
X187131589Y-119233123D01*
X187193286Y-119216592D01*
X187193306Y-119216580D01*
X187193330Y-119216574D01*
X187249500Y-119184136D01*
X187307414Y-119150700D01*
X187307432Y-119150681D01*
X187307451Y-119150671D01*
X187351299Y-119106814D01*
X187400600Y-119057514D01*
X187400612Y-119057492D01*
X187400629Y-119057476D01*
X187432788Y-119001761D01*
X187466492Y-118943386D01*
X187466498Y-118943362D01*
X187466510Y-118943342D01*
X187483047Y-118881598D01*
X187500600Y-118816092D01*
X187500600Y-118816067D01*
X187500606Y-118816045D01*
X187500600Y-118750153D01*
X187500600Y-73750423D01*
X187500603Y-73684531D01*
X187500601Y-73684526D01*
X187500602Y-73684517D01*
X187484429Y-73624157D01*
X187484102Y-73622938D01*
X187484102Y-73622930D01*
X187484100Y-73622931D01*
X187467528Y-73561068D01*
X187466677Y-73557426D01*
X187466658Y-73557379D01*
X187465192Y-73554963D01*
X187435922Y-73504266D01*
X187434724Y-73502191D01*
X187401027Y-73443819D01*
X187400637Y-73443131D01*
X187400612Y-73443098D01*
X187400600Y-73443086D01*
X187354024Y-73396510D01*
X187354023Y-73396508D01*
X187354023Y-73396509D01*
X187307432Y-73349914D01*
X187307429Y-73349912D01*
X187307421Y-73349904D01*
X187246273Y-73314600D01*
X187246268Y-73314597D01*
X187194051Y-73284446D01*
X187193349Y-73284033D01*
X187193293Y-73284010D01*
X187127612Y-73266411D01*
X187127612Y-73266409D01*
X187127606Y-73266409D01*
X187066004Y-73249900D01*
X187065992Y-73249900D01*
X187000011Y-73249900D01*
X176625694Y-73249427D01*
X176557574Y-73229422D01*
X176511084Y-73175764D01*
X176499700Y-73123427D01*
X176499700Y-66933209D01*
X176499700Y-66933208D01*
X176465592Y-66805914D01*
X176399700Y-66691786D01*
X176399698Y-66691784D01*
X176399694Y-66691779D01*
X176306520Y-66598605D01*
X176306510Y-66598597D01*
X176192390Y-66532710D01*
X176192387Y-66532709D01*
X176192386Y-66532708D01*
X176192384Y-66532707D01*
X176192383Y-66532707D01*
X176158273Y-66523567D01*
X176065092Y-66498600D01*
X156065192Y-66498600D01*
X155933408Y-66498600D01*
X155865194Y-66516877D01*
X155806116Y-66532707D01*
X155806109Y-66532710D01*
X155691989Y-66598597D01*
X155691979Y-66598605D01*
X155598805Y-66691779D01*
X155598797Y-66691789D01*
X155532910Y-66805909D01*
X155532907Y-66805916D01*
X155498800Y-66933209D01*
X155498800Y-73123422D01*
X155478798Y-73191543D01*
X155425142Y-73238036D01*
X155372804Y-73249422D01*
X142072399Y-73249892D01*
X142072354Y-73249890D01*
X142017854Y-73249894D01*
X142017852Y-73249894D01*
X142006921Y-73249895D01*
X141932890Y-73249898D01*
X141932878Y-73249900D01*
X141932869Y-73249901D01*
X141872448Y-73266095D01*
X141805597Y-73284011D01*
X141805587Y-73284016D01*
X141805578Y-73284019D01*
X141798099Y-73288337D01*
X141798096Y-73288338D01*
X141760520Y-73310036D01*
X141760514Y-73310041D01*
X141750496Y-73315826D01*
X141691472Y-73349907D01*
X141691464Y-73349914D01*
X141691455Y-73349920D01*
X141644854Y-73396527D01*
X141598289Y-73443096D01*
X141598283Y-73443105D01*
X141598276Y-73443113D01*
X141592010Y-73453966D01*
X141592010Y-73453967D01*
X141564173Y-73502190D01*
X141564172Y-73502191D01*
X141532397Y-73557232D01*
X141532397Y-73557234D01*
X141532370Y-73557299D01*
X141532174Y-73558059D01*
X141514469Y-73624155D01*
X141514469Y-73624156D01*
X141498295Y-73684531D01*
X141498299Y-73748617D01*
X141498299Y-73748619D01*
X141498301Y-73824672D01*
X141498305Y-73824727D01*
X141499351Y-87373290D01*
X141479354Y-87441413D01*
X141425702Y-87487910D01*
X141373351Y-87499300D01*
X135315892Y-87499300D01*
X135184108Y-87499300D01*
X135115894Y-87517577D01*
X135056816Y-87533407D01*
X135056809Y-87533410D01*
X134942689Y-87599297D01*
X134942679Y-87599305D01*
X134849505Y-87692479D01*
X134849497Y-87692489D01*
X134783610Y-87806609D01*
X134783608Y-87806614D01*
X134749500Y-87933908D01*
X128382500Y-87933908D01*
X128382500Y-83611193D01*
X128402502Y-83543072D01*
X128419399Y-83522103D01*
X128687696Y-83253771D01*
X143664551Y-68274930D01*
X152045400Y-68274930D01*
X152045400Y-69725063D01*
X152045401Y-69725073D01*
X152060165Y-69799300D01*
X152116416Y-69883484D01*
X152200597Y-69939733D01*
X152200599Y-69939734D01*
X152274833Y-69954500D01*
X153724966Y-69954499D01*
X153724969Y-69954498D01*
X153724973Y-69954498D01*
X153774226Y-69944701D01*
X153799201Y-69939734D01*
X153883384Y-69883484D01*
X153939634Y-69799301D01*
X153954400Y-69725067D01*
X153954399Y-68274934D01*
X153954398Y-68274930D01*
X153954398Y-68274926D01*
X153939634Y-68200699D01*
X153883383Y-68116515D01*
X153799202Y-68060266D01*
X153724967Y-68045500D01*
X152274836Y-68045500D01*
X152274826Y-68045501D01*
X152200599Y-68060265D01*
X152116415Y-68116516D01*
X152060166Y-68200697D01*
X152045400Y-68274930D01*
X143664551Y-68274930D01*
X147720733Y-64218210D01*
X147783043Y-64184181D01*
X147809834Y-64181300D01*
X164919601Y-64181300D01*
X164987722Y-64201302D01*
X165034215Y-64254958D01*
X165045601Y-64307300D01*
X165045601Y-64725072D01*
X165060365Y-64799300D01*
X165116616Y-64883484D01*
X165200797Y-64939733D01*
X165200799Y-64939734D01*
X165275033Y-64954500D01*
X166725166Y-64954499D01*
X166725169Y-64954498D01*
X166725173Y-64954498D01*
X166774426Y-64944701D01*
X166799401Y-64939734D01*
X166883584Y-64883484D01*
X166939834Y-64799301D01*
X166954600Y-64725067D01*
X166954599Y-63274934D01*
X166954598Y-63274930D01*
X166954598Y-63274926D01*
X166939834Y-63200699D01*
X166883583Y-63116515D01*
X166799402Y-63060266D01*
X166725167Y-63045500D01*
X165275036Y-63045500D01*
X165275026Y-63045501D01*
X165200799Y-63060265D01*
X165116615Y-63116516D01*
X165060366Y-63200697D01*
X165045600Y-63274930D01*
X165045600Y-63292300D01*
X165025598Y-63360421D01*
X164971942Y-63406914D01*
X164919600Y-63418300D01*
X147658223Y-63418300D01*
X147658162Y-63418296D01*
X147599581Y-63418299D01*
X147599574Y-63418300D01*
X147549367Y-63418300D01*
X147549348Y-63418303D01*
X147510481Y-63428719D01*
X147500030Y-63431521D01*
X147455580Y-63443432D01*
X147452331Y-63444303D01*
X147415433Y-63465609D01*
X147415430Y-63465611D01*
X147365341Y-63494531D01*
X147335180Y-63524696D01*
X147335175Y-63524700D01*
X147289962Y-63569913D01*
X147289907Y-63569974D01*
X127733408Y-83129068D01*
X127695715Y-83166761D01*
X127673721Y-83204861D01*
X127673719Y-83204864D01*
X127645493Y-83253754D01*
X127631188Y-83307152D01*
X127631187Y-83307156D01*
X127619497Y-83350782D01*
X127619495Y-83350800D01*
X127619500Y-83408199D01*
X127619500Y-112588784D01*
X127599498Y-112656905D01*
X127582595Y-112677880D01*
X119351984Y-120908396D01*
X119289672Y-120942421D01*
X119262889Y-120945300D01*
X118414836Y-120945300D01*
X118414826Y-120945301D01*
X118340599Y-120960065D01*
X118256415Y-121016316D01*
X118200166Y-121100497D01*
X118185400Y-121174730D01*
X117754599Y-121174730D01*
X117739834Y-121100499D01*
X117713924Y-121061723D01*
X117683584Y-121016316D01*
X117683583Y-121016315D01*
X117599402Y-120960066D01*
X117525169Y-120945300D01*
X117525167Y-120945300D01*
X117307600Y-120945300D01*
X117239479Y-120925298D01*
X117192986Y-120871642D01*
X117181600Y-120819300D01*
X117181600Y-120330499D01*
X117201602Y-120262378D01*
X117255258Y-120215885D01*
X117307600Y-120204499D01*
X117325164Y-120204499D01*
X117325166Y-120204499D01*
X117325169Y-120204498D01*
X117325172Y-120204498D01*
X117361763Y-120197219D01*
X117399401Y-120189734D01*
X117483584Y-120133484D01*
X117539834Y-120049301D01*
X117554600Y-119975067D01*
X117554599Y-118824934D01*
X117554598Y-118824930D01*
X117554598Y-118824926D01*
X117539834Y-118750699D01*
X117497305Y-118687051D01*
X117483584Y-118666516D01*
X117483583Y-118666515D01*
X117399402Y-118610266D01*
X117325167Y-118595500D01*
X116275036Y-118595500D01*
X116275026Y-118595501D01*
X116200799Y-118610265D01*
X116116615Y-118666516D01*
X116060366Y-118750697D01*
X116045600Y-118824930D01*
X116045600Y-119975063D01*
X116045601Y-119975073D01*
X116060365Y-120049300D01*
X116116616Y-120133484D01*
X116200797Y-120189733D01*
X116200799Y-120189734D01*
X116275033Y-120204500D01*
X116292597Y-120204499D01*
X116360716Y-120224498D01*
X116407211Y-120278152D01*
X116418600Y-120330499D01*
X116418600Y-120819300D01*
X116398598Y-120887421D01*
X116344942Y-120933914D01*
X116292600Y-120945300D01*
X115874836Y-120945300D01*
X115874826Y-120945301D01*
X115800599Y-120960065D01*
X115716415Y-121016316D01*
X115660166Y-121100497D01*
X115645400Y-121174730D01*
X115214599Y-121174730D01*
X115199834Y-121100499D01*
X115173924Y-121061723D01*
X115143584Y-121016316D01*
X115143583Y-121016315D01*
X115059402Y-120960066D01*
X114985167Y-120945300D01*
X113334836Y-120945300D01*
X113334826Y-120945301D01*
X113260599Y-120960065D01*
X113176415Y-121016316D01*
X113120166Y-121100497D01*
X113105400Y-121174730D01*
X100500425Y-121174730D01*
X100500425Y-121168543D01*
X100500420Y-119127000D01*
X100500411Y-115958798D01*
X100520413Y-115890680D01*
X100574068Y-115844187D01*
X100626411Y-115832800D01*
X103164490Y-115832800D01*
X103164491Y-115832800D01*
X103287269Y-115808378D01*
X103402922Y-115760473D01*
X103507008Y-115690925D01*
X106092325Y-113105608D01*
X106161873Y-113001522D01*
X106209778Y-112885869D01*
X106234200Y-112763091D01*
X106234200Y-112637909D01*
X106234200Y-110250123D01*
X108418499Y-110250123D01*
X108444500Y-110347156D01*
X108482301Y-110412630D01*
X108494721Y-110434143D01*
X108494729Y-110434153D01*
X113565746Y-115505170D01*
X113565751Y-115505174D01*
X113565753Y-115505176D01*
X113565754Y-115505177D01*
X113565756Y-115505178D01*
X113631654Y-115543224D01*
X113652747Y-115555402D01*
X113749775Y-115581401D01*
X113749777Y-115581401D01*
X113857943Y-115581401D01*
X113857959Y-115581400D01*
X122538440Y-115581400D01*
X122606561Y-115601402D01*
X122627535Y-115618305D01*
X122656575Y-115647345D01*
X122656580Y-115647349D01*
X122656582Y-115647351D01*
X122656583Y-115647352D01*
X122656585Y-115647353D01*
X122706066Y-115675921D01*
X122784118Y-115720984D01*
X122926367Y-115759100D01*
X122926369Y-115759100D01*
X123073631Y-115759100D01*
X123073633Y-115759100D01*
X123215882Y-115720984D01*
X123343418Y-115647351D01*
X123447551Y-115543218D01*
X123521184Y-115415682D01*
X123559300Y-115273433D01*
X123559300Y-115126167D01*
X123521184Y-114983918D01*
X123447551Y-114856382D01*
X123447549Y-114856380D01*
X123447545Y-114856375D01*
X123343424Y-114752254D01*
X123343414Y-114752246D01*
X123215882Y-114678616D01*
X123073633Y-114640500D01*
X122926367Y-114640500D01*
X122831534Y-114665910D01*
X122784117Y-114678616D01*
X122656585Y-114752246D01*
X122656575Y-114752254D01*
X122627335Y-114781495D01*
X122565023Y-114815521D01*
X122538240Y-114818400D01*
X114010213Y-114818400D01*
X113942092Y-114798398D01*
X113921118Y-114781495D01*
X109218405Y-110078782D01*
X109184379Y-110016470D01*
X109181500Y-109989687D01*
X109181500Y-108274830D01*
X110045500Y-108274830D01*
X110045500Y-109724963D01*
X110045501Y-109724973D01*
X110060265Y-109799200D01*
X110116516Y-109883384D01*
X110200697Y-109939633D01*
X110200699Y-109939634D01*
X110274933Y-109954400D01*
X111725066Y-109954399D01*
X111725069Y-109954398D01*
X111725073Y-109954398D01*
X111774326Y-109944601D01*
X111799301Y-109939634D01*
X111883484Y-109883384D01*
X111939734Y-109799201D01*
X111954500Y-109724967D01*
X111954499Y-108637112D01*
X111974501Y-108568992D01*
X111991399Y-108548022D01*
X112423871Y-108115549D01*
X112423881Y-108115542D01*
X112505270Y-108034153D01*
X112505276Y-108034147D01*
X112536771Y-107979595D01*
X112555499Y-107947158D01*
X112555499Y-107947157D01*
X112555501Y-107947154D01*
X112581500Y-107850125D01*
X112581500Y-99017512D01*
X112601502Y-98949391D01*
X112618405Y-98928417D01*
X112659405Y-98887417D01*
X112721717Y-98853391D01*
X112792532Y-98858456D01*
X112849368Y-98901003D01*
X112874179Y-98967523D01*
X112874500Y-98976512D01*
X112874500Y-112184108D01*
X112874500Y-112315892D01*
X112892439Y-112382841D01*
X112908607Y-112443183D01*
X112908610Y-112443190D01*
X112974497Y-112557310D01*
X112974505Y-112557320D01*
X113067679Y-112650494D01*
X113067684Y-112650498D01*
X113067686Y-112650500D01*
X113067687Y-112650501D01*
X113067689Y-112650502D01*
X113115109Y-112677880D01*
X113181814Y-112716392D01*
X113309108Y-112750500D01*
X113309110Y-112750500D01*
X126440990Y-112750500D01*
X126440992Y-112750500D01*
X126568286Y-112716392D01*
X126682414Y-112650500D01*
X126775600Y-112557314D01*
X126841492Y-112443186D01*
X126875600Y-112315892D01*
X126875600Y-98251038D01*
X126875605Y-98185146D01*
X126875600Y-98185127D01*
X126875600Y-98185108D01*
X126858834Y-98122536D01*
X126841507Y-98057850D01*
X126841497Y-98057832D01*
X126841492Y-98057814D01*
X126809445Y-98002307D01*
X126775624Y-97943717D01*
X126775609Y-97943702D01*
X126775600Y-97943686D01*
X126729034Y-97897120D01*
X126682445Y-97850524D01*
X126682444Y-97850523D01*
X126682439Y-97850518D01*
X126682419Y-97850503D01*
X126623859Y-97816693D01*
X126623860Y-97816691D01*
X126623852Y-97816689D01*
X126568322Y-97784623D01*
X126568321Y-97784622D01*
X126568306Y-97784614D01*
X126568288Y-97784609D01*
X126568286Y-97784608D01*
X126503637Y-97767285D01*
X126475399Y-97759716D01*
X126441012Y-97750500D01*
X126440992Y-97750500D01*
X126376021Y-97750500D01*
X114101445Y-97749555D01*
X114033326Y-97729548D01*
X113986837Y-97675888D01*
X113976739Y-97605614D01*
X114006237Y-97541035D01*
X114012332Y-97534488D01*
X114415819Y-97131001D01*
X114478129Y-97096978D01*
X114504912Y-97094099D01*
X115716664Y-97094099D01*
X115716666Y-97094099D01*
X115716669Y-97094098D01*
X115716672Y-97094098D01*
X115753263Y-97086819D01*
X115790901Y-97079334D01*
X115875084Y-97023084D01*
X115931334Y-96938901D01*
X115946100Y-96864667D01*
X115946099Y-95290534D01*
X115946099Y-95290533D01*
X115946099Y-95290531D01*
X115946099Y-95290530D01*
X124073100Y-95290530D01*
X124073100Y-96864663D01*
X124073101Y-96864673D01*
X124087865Y-96938900D01*
X124144116Y-97023084D01*
X124228297Y-97079333D01*
X124228299Y-97079334D01*
X124302533Y-97094100D01*
X125876666Y-97094099D01*
X125876669Y-97094098D01*
X125876673Y-97094098D01*
X125925926Y-97084301D01*
X125950901Y-97079334D01*
X126035084Y-97023084D01*
X126091334Y-96938901D01*
X126106100Y-96864667D01*
X126106099Y-95290534D01*
X126106098Y-95290531D01*
X126106098Y-95290526D01*
X126091334Y-95216299D01*
X126035083Y-95132115D01*
X125950902Y-95075866D01*
X125876667Y-95061100D01*
X124302536Y-95061100D01*
X124302526Y-95061101D01*
X124228299Y-95075865D01*
X124144115Y-95132116D01*
X124087866Y-95216297D01*
X124073100Y-95290530D01*
X115946099Y-95290530D01*
X115931334Y-95216299D01*
X115875083Y-95132115D01*
X115790902Y-95075866D01*
X115716667Y-95061100D01*
X114142536Y-95061100D01*
X114142526Y-95061101D01*
X114068299Y-95075865D01*
X113984115Y-95132116D01*
X113927866Y-95216297D01*
X113913100Y-95290530D01*
X113913100Y-96502485D01*
X113893098Y-96570606D01*
X113876195Y-96591580D01*
X111948030Y-98519745D01*
X111948028Y-98519748D01*
X111894729Y-98573046D01*
X111894721Y-98573056D01*
X111844500Y-98660041D01*
X111829963Y-98714291D01*
X111820005Y-98751461D01*
X111818500Y-98757076D01*
X111818500Y-107589687D01*
X111798498Y-107657808D01*
X111781599Y-107678777D01*
X111610254Y-107850123D01*
X111451881Y-108008496D01*
X111389569Y-108042521D01*
X111362786Y-108045400D01*
X110274936Y-108045400D01*
X110274926Y-108045401D01*
X110200699Y-108060165D01*
X110116515Y-108116416D01*
X110060266Y-108200597D01*
X110045500Y-108274830D01*
X109181500Y-108274830D01*
X109181500Y-93410112D01*
X109201502Y-93341991D01*
X109218400Y-93321022D01*
X110548118Y-91991303D01*
X110610430Y-91957278D01*
X110637213Y-91954399D01*
X111725064Y-91954399D01*
X111725066Y-91954399D01*
X111725069Y-91954398D01*
X111725072Y-91954398D01*
X111761663Y-91947119D01*
X111799301Y-91939634D01*
X111883484Y-91883384D01*
X111939734Y-91799201D01*
X111954500Y-91724967D01*
X111954499Y-90637112D01*
X111974501Y-90568992D01*
X111991399Y-90548022D01*
X112659506Y-89879916D01*
X112721817Y-89845892D01*
X112792633Y-89850957D01*
X112849468Y-89893504D01*
X112874279Y-89960024D01*
X112874600Y-89969013D01*
X112874600Y-93934208D01*
X112874600Y-94065992D01*
X112899567Y-94159173D01*
X112908707Y-94193283D01*
X112908710Y-94193290D01*
X112974597Y-94307410D01*
X112974605Y-94307420D01*
X113067779Y-94400594D01*
X113067784Y-94400598D01*
X113067786Y-94400600D01*
X113181914Y-94466492D01*
X113309208Y-94500600D01*
X113309210Y-94500600D01*
X126440990Y-94500600D01*
X126440992Y-94500600D01*
X126568286Y-94466492D01*
X126682414Y-94400600D01*
X126775600Y-94307414D01*
X126841492Y-94193286D01*
X126875600Y-94065992D01*
X126875600Y-79934108D01*
X126841492Y-79806814D01*
X126775600Y-79692686D01*
X126775598Y-79692684D01*
X126775594Y-79692679D01*
X126682420Y-79599505D01*
X126682410Y-79599497D01*
X126568290Y-79533610D01*
X126568287Y-79533609D01*
X126568286Y-79533608D01*
X126568284Y-79533607D01*
X126568283Y-79533607D01*
X126534173Y-79524467D01*
X126440992Y-79499500D01*
X113440992Y-79499500D01*
X113309208Y-79499500D01*
X113240994Y-79517777D01*
X113181916Y-79533607D01*
X113181909Y-79533610D01*
X113170500Y-79540198D01*
X113101504Y-79556936D01*
X113034412Y-79533715D01*
X112990525Y-79477908D01*
X112981500Y-79431079D01*
X112981500Y-78616512D01*
X113001502Y-78548391D01*
X113018400Y-78527421D01*
X114165718Y-77380103D01*
X114228030Y-77346078D01*
X114254813Y-77343199D01*
X115466764Y-77343199D01*
X115466766Y-77343199D01*
X115466769Y-77343198D01*
X115466772Y-77343198D01*
X115503363Y-77335919D01*
X115541001Y-77328434D01*
X115625184Y-77272184D01*
X115681434Y-77188001D01*
X115696200Y-77113767D01*
X115696199Y-75539634D01*
X115696199Y-75539633D01*
X115696199Y-75539631D01*
X115696199Y-75539630D01*
X123823200Y-75539630D01*
X123823200Y-77113763D01*
X123823201Y-77113773D01*
X123837965Y-77188000D01*
X123894216Y-77272184D01*
X123978397Y-77328433D01*
X123978399Y-77328434D01*
X124052633Y-77343200D01*
X125626766Y-77343199D01*
X125626769Y-77343198D01*
X125626773Y-77343198D01*
X125676026Y-77333401D01*
X125701001Y-77328434D01*
X125785184Y-77272184D01*
X125841434Y-77188001D01*
X125856200Y-77113767D01*
X125856199Y-75539634D01*
X125856198Y-75539631D01*
X125856198Y-75539626D01*
X125841434Y-75465399D01*
X125785183Y-75381215D01*
X125701002Y-75324966D01*
X125626767Y-75310200D01*
X124052636Y-75310200D01*
X124052626Y-75310201D01*
X123978399Y-75324965D01*
X123894215Y-75381216D01*
X123837966Y-75465397D01*
X123823200Y-75539630D01*
X115696199Y-75539630D01*
X115681434Y-75465399D01*
X115625183Y-75381215D01*
X115541002Y-75324966D01*
X115466767Y-75310200D01*
X113892636Y-75310200D01*
X113892626Y-75310201D01*
X113818399Y-75324965D01*
X113734215Y-75381216D01*
X113677966Y-75465397D01*
X113663200Y-75539630D01*
X113663200Y-76751386D01*
X113643198Y-76819507D01*
X113626294Y-76840481D01*
X112365753Y-78101024D01*
X112330239Y-78136538D01*
X112294725Y-78172051D01*
X112294721Y-78172056D01*
X112244500Y-78259041D01*
X112218500Y-78356076D01*
X112218500Y-89189685D01*
X112198498Y-89257806D01*
X112181595Y-89278780D01*
X111451880Y-90008495D01*
X111389568Y-90042521D01*
X111362785Y-90045400D01*
X110274936Y-90045400D01*
X110274926Y-90045401D01*
X110200699Y-90060165D01*
X110116515Y-90116416D01*
X110060266Y-90200597D01*
X110045500Y-90274830D01*
X110045500Y-91362686D01*
X110025498Y-91430807D01*
X110008594Y-91451781D01*
X108565753Y-92894624D01*
X108530239Y-92930138D01*
X108494725Y-92965651D01*
X108494721Y-92965656D01*
X108444500Y-93052641D01*
X108418500Y-93149676D01*
X108418500Y-110250123D01*
X108418499Y-110250123D01*
X106234200Y-110250123D01*
X106234200Y-107720176D01*
X106234202Y-107636722D01*
X106234200Y-107636711D01*
X106234200Y-107636709D01*
X106226745Y-107599229D01*
X106214971Y-107540032D01*
X106210153Y-107515808D01*
X106209836Y-107514076D01*
X106209821Y-107514024D01*
X106209545Y-107513369D01*
X106203717Y-107499300D01*
X106170208Y-107418400D01*
X106161879Y-107398290D01*
X106161876Y-107398285D01*
X106161873Y-107398278D01*
X106119812Y-107335328D01*
X106119812Y-107335327D01*
X106119810Y-107335326D01*
X106092333Y-107294202D01*
X106092329Y-107294198D01*
X106092325Y-107294192D01*
X106042567Y-107244434D01*
X104691467Y-105893279D01*
X103596192Y-104797960D01*
X103596162Y-104797928D01*
X103550484Y-104752251D01*
X103550482Y-104752248D01*
X103550482Y-104752249D01*
X103504518Y-104706283D01*
X103504517Y-104706282D01*
X103504513Y-104706278D01*
X103453094Y-104671921D01*
X103453093Y-104671920D01*
X103400429Y-104636730D01*
X103331274Y-104608084D01*
X103331273Y-104608084D01*
X103285374Y-104589071D01*
X103284812Y-104588834D01*
X103284782Y-104588824D01*
X103238560Y-104579630D01*
X103222870Y-104576509D01*
X103222868Y-104576508D01*
X103222867Y-104576508D01*
X103192022Y-104570372D01*
X103162004Y-104564401D01*
X103161998Y-104564400D01*
X103161997Y-104564400D01*
X103161996Y-104564400D01*
X103161991Y-104564400D01*
X103099413Y-104564400D01*
X103036822Y-104564399D01*
X103036821Y-104564399D01*
X103030610Y-104564399D01*
X103030590Y-104564400D01*
X100626400Y-104564400D01*
X100558279Y-104544398D01*
X100511786Y-104490742D01*
X100500400Y-104438400D01*
X100500400Y-70259604D01*
X100520402Y-70191483D01*
X100537305Y-70170509D01*
X110170409Y-60537405D01*
X110232721Y-60503379D01*
X110259504Y-60500500D01*
X189740297Y-60500500D01*
X189808418Y-60520502D01*
G37*
%TD.AperFunction*%
%TD*%
M02*
