%TF.GenerationSoftware,KiCad,Pcbnew,10.0.6*%
%TF.CreationDate,2026-09-23T18:18:51+08:00*%
%TF.ProjectId,Analog_Module,416e616c-6f67-45f4-9d6f-64756c652e6b,1.7*%
%TF.SameCoordinates,Original*%
%TF.FileFunction,Soldermask,Top*%
%TF.FilePolarity,Negative*%
%FSLAX46Y46*%
G04 Gerber Fmt 4.6, Leading zero omitted, Abs format (unit mm)*
G04 Created by KiCad (PCBNEW 10.0.6) date 2026-09-23 18:18:51*
%MOMM*%
%LPD*%
G01*
G04 APERTURE LIST*
G04 Aperture macros list*
%AMRoundRect*
0 Rectangle with rounded corners*
0 $1 Rounding radius*
0 $2 $3 $4 $5 $6 $7 $8 $9 X,Y pos of 4 corners*
0 Add a 4 corners polygon primitive as box body*
4,1,4,$2,$3,$4,$5,$6,$7,$8,$9,$2,$3,0*
0 Add four circle primitives for the rounded corners*
1,1,$1+$1,$2,$3*
1,1,$1+$1,$4,$5*
1,1,$1+$1,$6,$7*
1,1,$1+$1,$8,$9*
0 Add four rect primitives between the rounded corners*
20,1,$1+$1,$2,$3,$4,$5,0*
20,1,$1+$1,$4,$5,$6,$7,0*
20,1,$1+$1,$6,$7,$8,$9,0*
20,1,$1+$1,$8,$9,$2,$3,0*%
G04 Aperture macros list end*
%ADD10RoundRect,0.050800X0.800000X-0.800000X0.800000X0.800000X-0.800000X0.800000X-0.800000X-0.800000X0*%
%ADD11RoundRect,0.101600X0.762000X0.762000X-0.762000X0.762000X-0.762000X-0.762000X0.762000X-0.762000X0*%
%ADD12RoundRect,0.101600X-0.762000X0.762000X-0.762000X-0.762000X0.762000X-0.762000X0.762000X0.762000X0*%
%ADD13RoundRect,0.101600X-0.500000X0.500000X-0.500000X-0.500000X0.500000X-0.500000X0.500000X0.500000X0*%
%ADD14RoundRect,0.101600X-0.700000X-0.699950X0.700000X-0.699950X0.700000X0.699950X-0.700000X0.699950X0*%
%ADD15RoundRect,0.101600X-0.700000X-0.700000X0.700000X-0.700000X0.700000X0.700000X-0.700000X0.700000X0*%
%ADD16RoundRect,0.101600X0.700000X0.700000X-0.700000X0.700000X-0.700000X-0.700000X0.700000X-0.700000X0*%
%ADD17RoundRect,0.101600X0.500000X0.500000X-0.500000X0.500000X-0.500000X-0.500000X0.500000X-0.500000X0*%
%ADD18RoundRect,0.050800X-0.800100X-0.800100X0.800100X-0.800100X0.800100X0.800100X-0.800100X0.800100X0*%
%ADD19RoundRect,0.101600X0.762000X-0.762000X0.762000X0.762000X-0.762000X0.762000X-0.762000X-0.762000X0*%
%ADD20RoundRect,0.101600X-0.700000X0.700000X-0.700000X-0.700000X0.700000X-0.700000X0.700000X0.700000X0*%
%ADD21RoundRect,0.101600X-0.762000X-0.762000X0.762000X-0.762000X0.762000X0.762000X-0.762000X0.762000X0*%
%ADD22RoundRect,0.101600X0.650000X0.650000X-0.650000X0.650000X-0.650000X-0.650000X0.650000X-0.650000X0*%
%ADD23RoundRect,0.050800X-0.500000X-0.550000X0.500000X-0.550000X0.500000X0.550000X-0.500000X0.550000X0*%
%ADD24RoundRect,0.101600X0.650000X0.650050X-0.650000X0.650050X-0.650000X-0.650050X0.650000X-0.650050X0*%
G04 APERTURE END LIST*
D10*
%TO.C,U4*%
X156309800Y-136009800D03*
X158849800Y-136009800D03*
X161389800Y-136009800D03*
X163929800Y-136009800D03*
X166469800Y-136009800D03*
X169009800Y-136009800D03*
X171549800Y-136009800D03*
X174089800Y-136009800D03*
X174089800Y-128389800D03*
X171549800Y-128389800D03*
X169009800Y-128389800D03*
X166469800Y-128389800D03*
X163929800Y-128389800D03*
X161389800Y-128389800D03*
X158849800Y-128389800D03*
X156309800Y-128389800D03*
%TD*%
D11*
%TO.C,C1*%
X109943900Y-123549100D03*
X109943900Y-128549000D03*
%TD*%
D12*
%TO.C,R5*%
X171342000Y-124079100D03*
X161182000Y-124079100D03*
%TD*%
D13*
%TO.C,WP25*%
X143502100Y-143253800D03*
%TD*%
D14*
%TO.C,TP_+5V*%
X137250100Y-85000000D03*
%TD*%
D12*
%TO.C,TP_+5V*%
X110170200Y-141417700D03*
%TD*%
D15*
%TO.C,TP_TRANS*%
X165000100Y-152499900D03*
%TD*%
D16*
%TO.C,TP_+5V*%
X151999900Y-121500000D03*
%TD*%
D15*
%TO.C,TP_AXIS3*%
X179000100Y-122000100D03*
%TD*%
%TO.C,TP_+5V*%
X157000100Y-152499900D03*
%TD*%
D17*
%TO.C,WP43*%
X143501800Y-139253600D03*
%TD*%
D18*
%TO.C,TP_AREF*%
X116700000Y-121999900D03*
%TD*%
D17*
%TO.C,WP53*%
X143501800Y-149253800D03*
%TD*%
D15*
%TO.C,TP_MODE2*%
X178749900Y-154749900D03*
%TD*%
D18*
%TO.C,TP_SCL*%
X126860000Y-121999900D03*
%TD*%
D19*
%TO.C,R2*%
X154914300Y-155428800D03*
X165074300Y-155428800D03*
%TD*%
D20*
%TO.C,TP_+5V*%
X111000000Y-100999900D03*
%TD*%
D18*
%TO.C,TP_AXIS3*%
X124320000Y-121999900D03*
%TD*%
D21*
%TO.C,C4*%
X153056000Y-134650600D03*
X153056000Y-129650700D03*
%TD*%
D18*
%TO.C,TP_THROTTLE*%
X126899600Y-129599800D03*
%TD*%
D15*
%TO.C,TP_+5V*%
X175000100Y-122000100D03*
%TD*%
D17*
%TO.C,WP49*%
X141501800Y-145253800D03*
%TD*%
D19*
%TO.C,R1*%
X113964600Y-154438500D03*
X124124600Y-154438500D03*
%TD*%
D22*
%TO.C,WP51*%
X141501800Y-149253800D03*
%TD*%
D20*
%TO.C,TP_+5V*%
X111000000Y-83000000D03*
%TD*%
%TO.C,TP_RESETTRIM*%
X111000000Y-90999900D03*
%TD*%
D17*
%TO.C,WP44*%
X143501800Y-137253800D03*
%TD*%
D18*
%TO.C,TP_DATA_P_*%
X124359600Y-129599800D03*
%TD*%
D17*
%TO.C,WP48*%
X141501800Y-143253800D03*
%TD*%
D20*
%TO.C,TP_BRAKES*%
X111000000Y-108999900D03*
%TD*%
D18*
%TO.C,TP_+5V*%
X114199900Y-129599800D03*
%TD*%
D22*
%TO.C,WP50*%
X141501800Y-147253800D03*
%TD*%
D15*
%TO.C,TP_AXIS1*%
X166000100Y-64000000D03*
%TD*%
D17*
%TO.C,WP39*%
X143501800Y-151253800D03*
%TD*%
D12*
%TO.C,TP_GEAR*%
X110170200Y-149417700D03*
%TD*%
D21*
%TO.C,R3*%
X190580200Y-141415600D03*
X190580200Y-151575600D03*
%TD*%
D18*
%TO.C,TP_GND*%
X114160000Y-121999900D03*
%TD*%
%TO.C,TP_LATCH_G_*%
X116739600Y-129599800D03*
%TD*%
D11*
%TO.C,C-MAIN*%
X146772300Y-127253400D03*
X144232300Y-127253400D03*
%TD*%
D18*
%TO.C,TP_RESET*%
X121819600Y-129599800D03*
%TD*%
D16*
%TO.C,TP_TRIM*%
X161000100Y-121500000D03*
%TD*%
D23*
%TO.C,AREF*%
X116800100Y-119400000D03*
X118400000Y-119400000D03*
%TD*%
D13*
%TO.C,WP24*%
X143502100Y-145253800D03*
%TD*%
D15*
%TO.C,TP_+5V*%
X185999800Y-144500000D03*
%TD*%
D18*
%TO.C,TP_SDA*%
X129439600Y-129599800D03*
%TD*%
D12*
%TO.C,R4*%
X189592900Y-133079300D03*
X179432900Y-133079300D03*
%TD*%
%TO.C,R7*%
X124839700Y-76326700D03*
X114679700Y-76326700D03*
%TD*%
D18*
%TO.C,TP_CLOCK_Y_*%
X119279600Y-129599800D03*
%TD*%
D12*
%TO.C,R6*%
X125089600Y-96077600D03*
X114929600Y-96077600D03*
%TD*%
D18*
%TO.C,TP_AXIS1*%
X119240000Y-121999900D03*
%TD*%
D15*
%TO.C,TP_MODE1*%
X178749900Y-135999800D03*
%TD*%
D17*
%TO.C,WP47*%
X141501800Y-141253800D03*
%TD*%
D18*
%TO.C,TP_CRUISE*%
X129400000Y-121999900D03*
%TD*%
D24*
%TO.C,WP46*%
X141501800Y-139253600D03*
%TD*%
D18*
%TO.C,TP_AXIS2*%
X121780000Y-121999900D03*
%TD*%
D15*
%TO.C,TP_+5V*%
X179000100Y-69000000D03*
%TD*%
%TO.C,TP_GND*%
X137250100Y-110999900D03*
%TD*%
D13*
%TO.C,WP38*%
X143502100Y-147253800D03*
%TD*%
D15*
%TO.C,TP_GND*%
X152999900Y-69000000D03*
%TD*%
D22*
%TO.C,WP45*%
X141501800Y-137253800D03*
%TD*%
%TO.C,WP52*%
X141501800Y-151253800D03*
%TD*%
D15*
%TO.C,TP_GND*%
X183000100Y-122000100D03*
%TD*%
%TO.C,TP_AXIS2*%
X132250100Y-97999900D03*
%TD*%
D13*
%TO.C,WP11*%
X143502100Y-141253800D03*
%TD*%
M02*
