%TF.GenerationSoftware,KiCad,Pcbnew,10.0.6*%
%TF.CreationDate,2026-09-23T18:18:51+08:00*%
%TF.ProjectId,Analog_Module,416e616c-6f67-45f4-9d6f-64756c652e6b,1.7*%
%TF.SameCoordinates,Original*%
%TF.FileFunction,Profile,NP*%
%FSLAX46Y46*%
G04 Gerber Fmt 4.6, Leading zero omitted, Abs format (unit mm)*
G04 Created by KiCad (PCBNEW 10.0.6) date 2026-09-23 18:18:51*
%MOMM*%
%LPD*%
G01*
G04 APERTURE LIST*
%TA.AperFunction,Profile*%
%ADD10C,0.254000*%
%TD*%
G04 APERTURE END LIST*
D10*
X99999900Y-70000100D02*
X99999900Y-108557200D01*
X99999900Y-70000100D02*
X110000000Y-60000000D01*
X99999911Y-115756656D02*
X100000000Y-150002100D01*
X99999911Y-115756656D02*
X100003800Y-111130300D01*
X100000000Y-111399900D02*
X100005100Y-111399900D01*
X100000000Y-150002100D02*
X104998700Y-155001100D01*
X100003600Y-108545700D02*
X100003600Y-108898193D01*
X100003800Y-111130300D02*
X100168400Y-111266200D01*
X100103800Y-108814900D02*
X100003600Y-108898193D01*
X100168400Y-111266200D02*
X100339000Y-111364500D01*
X100244900Y-108705200D02*
X100103800Y-108814900D01*
X100339000Y-111364500D02*
X100674200Y-111478800D01*
X100542000Y-108574900D02*
X100244900Y-108705200D01*
X100674200Y-111478800D02*
X101098400Y-111517000D01*
X100847000Y-108508200D02*
X100542000Y-108574900D01*
X101098400Y-111517000D02*
X101559500Y-111409800D01*
X101202400Y-108509300D02*
X100847000Y-108508200D01*
X101501100Y-108596000D02*
X101202400Y-108509300D01*
X101517400Y-108596000D02*
X101501100Y-108596000D01*
X101559500Y-111409800D02*
X101972100Y-111166400D01*
X101707700Y-108691900D02*
X101517400Y-108596000D01*
X101972100Y-111166400D02*
X102142500Y-110989500D01*
X101990000Y-108867200D02*
X101707700Y-108691900D01*
X102130200Y-109027800D02*
X101990000Y-108867200D01*
X102142500Y-110989500D02*
X102293900Y-110781800D01*
X102196600Y-109104000D02*
X102130200Y-109027800D01*
X102241400Y-109178300D02*
X102196600Y-109104000D01*
X102257700Y-109181600D02*
X102241400Y-109178300D01*
X102293900Y-110781800D02*
X102379300Y-110628000D01*
X102345400Y-109350500D02*
X102257700Y-109181600D01*
X102367600Y-110653300D02*
X102457900Y-110399300D01*
X102379300Y-110628000D02*
X102410500Y-110526300D01*
X102418300Y-109535800D02*
X102345400Y-109350500D01*
X102457900Y-110399300D02*
X102498000Y-110145300D01*
X102482700Y-109764300D02*
X102431900Y-109563600D01*
X102487300Y-109756200D02*
X102418300Y-109535800D01*
X102498000Y-109953100D02*
X102482700Y-109764300D01*
X102498000Y-110145300D02*
X102498000Y-109953100D01*
X102505000Y-110057100D02*
X102487300Y-109756200D01*
X104998700Y-155001100D02*
X110000000Y-159999800D01*
X110000000Y-159999800D02*
X190000000Y-159999800D01*
X112670600Y-138167200D02*
X125670700Y-138168100D01*
X112670600Y-152167000D02*
X112670600Y-138167200D01*
X113375000Y-98250000D02*
X126375100Y-98251000D01*
X113375000Y-112250000D02*
X113375000Y-98250000D01*
X113375100Y-80000000D02*
X126375100Y-80000000D01*
X113375100Y-94000100D02*
X113375100Y-80000000D01*
X125670700Y-138168100D02*
X125670700Y-152167000D01*
X125670700Y-152167000D02*
X112670600Y-152167000D01*
X126375100Y-80000000D02*
X126375100Y-94000100D01*
X126375100Y-94000100D02*
X113375100Y-94000100D01*
X126375100Y-98251000D02*
X126375100Y-112250000D01*
X126375100Y-112250000D02*
X113375000Y-112250000D01*
X135250000Y-87999800D02*
X141999900Y-87999800D01*
X135250000Y-107999800D02*
X135250000Y-87999800D01*
X141998800Y-73750396D02*
X155999300Y-73749900D01*
X141998900Y-107999800D02*
X135250000Y-107999800D01*
X141999900Y-87999800D02*
X141998800Y-73750396D01*
X142001400Y-118750200D02*
X141998900Y-107999800D01*
X149959300Y-118750200D02*
X142001400Y-118750200D01*
X149959300Y-118750200D02*
X149959300Y-119753500D01*
X149959300Y-119753500D02*
X158252400Y-119753500D01*
X151649800Y-140799800D02*
X165649800Y-140799800D01*
X151649800Y-149799800D02*
X151649800Y-140799800D01*
X155999300Y-66999100D02*
X175999200Y-66999100D01*
X155999300Y-73749900D02*
X155999300Y-66999100D01*
X158252400Y-119753500D02*
X158252400Y-118752900D01*
X165649800Y-140799800D02*
X165649800Y-149799800D01*
X165649800Y-149799800D02*
X151649800Y-149799800D01*
X173999800Y-138249800D02*
X182999800Y-138249800D01*
X173999800Y-152249800D02*
X173999800Y-138249800D01*
X175999200Y-66999100D02*
X175999200Y-73749900D01*
X175999200Y-73749900D02*
X187000100Y-73750400D01*
X182999800Y-138249800D02*
X182999800Y-152249800D01*
X182999800Y-152249800D02*
X173999800Y-152249800D01*
X187000100Y-73750400D02*
X187000100Y-118750200D01*
X187000100Y-118750200D02*
X158252400Y-118752900D01*
X189999800Y-60000000D02*
X110000000Y-60000000D01*
X194999900Y-155000000D02*
X190000000Y-159999800D01*
X197500000Y-109900400D02*
X197517700Y-110201400D01*
X197507000Y-109812100D02*
X197507000Y-110004400D01*
X197507000Y-110004400D02*
X197522300Y-110193100D01*
X197517700Y-110201400D02*
X197586700Y-110421800D01*
X197522300Y-110193100D02*
X197573200Y-110393900D01*
X197547200Y-109558100D02*
X197507000Y-109812100D01*
X197586700Y-110421800D02*
X197659500Y-110607000D01*
X197608254Y-109386174D02*
X197547200Y-109558100D01*
X197608254Y-109386174D02*
X197594400Y-109431100D01*
X197659500Y-110607000D02*
X197747300Y-110775800D01*
X197711200Y-109175700D02*
X197625700Y-109329600D01*
X197747300Y-110775800D02*
X197763700Y-110779100D01*
X197763700Y-110779100D02*
X197808500Y-110853600D01*
X197808500Y-110853600D02*
X197874800Y-110929800D01*
X197862500Y-108968000D02*
X197711200Y-109175700D01*
X197874800Y-110929800D02*
X198015000Y-111090400D01*
X198015000Y-111090400D02*
X198297400Y-111265700D01*
X198032900Y-108791200D02*
X197862500Y-108968000D01*
X198297400Y-111265700D02*
X198487700Y-111361600D01*
X198445400Y-108547600D02*
X198032900Y-108791200D01*
X198487700Y-111361600D02*
X198504000Y-111361600D01*
X198504000Y-111361600D02*
X198802500Y-111448200D01*
X198802500Y-111448200D02*
X199158000Y-111449300D01*
X198906700Y-108440600D02*
X198445400Y-108547600D01*
X199158000Y-111449300D02*
X199463000Y-111382600D01*
X199330900Y-108478600D02*
X198906700Y-108440600D01*
X199463000Y-111382600D02*
X199760200Y-111252300D01*
X199666000Y-108592900D02*
X199330900Y-108478600D01*
X199760200Y-111252300D02*
X199901200Y-111142600D01*
X199836600Y-108691400D02*
X199666000Y-108592900D01*
X199901200Y-111142600D02*
X200001400Y-111059211D01*
X199999900Y-70000000D02*
X189999800Y-60000000D01*
X199999900Y-108557600D02*
X199999900Y-70000000D01*
X199999900Y-150000000D02*
X194999900Y-155000000D01*
X199999900Y-150000000D02*
X199999900Y-111448000D01*
X200001100Y-108827200D02*
X199836600Y-108691400D01*
X200001400Y-111411800D02*
X200001400Y-111059211D01*
X200001500Y-108470300D02*
X200001100Y-108827200D01*
X200004900Y-108557200D02*
X199999900Y-108557400D01*
X200005000Y-108557600D02*
X199999900Y-108557400D01*
M02*
