%TF.GenerationSoftware,KiCad,Pcbnew,10.0.6*%
%TF.CreationDate,2026-09-23T18:18:51+08:00*%
%TF.ProjectId,Analog_Module,416e616c-6f67-45f4-9d6f-64756c652e6b,1.7*%
%TF.SameCoordinates,Original*%
%TF.FileFunction,Legend,Top*%
%TF.FilePolarity,Positive*%
%FSLAX46Y46*%
G04 Gerber Fmt 4.6, Leading zero omitted, Abs format (unit mm)*
G04 Created by KiCad (PCBNEW 10.0.6) date 2026-09-23 18:18:51*
%MOMM*%
%LPD*%
G01*
G04 APERTURE LIST*
%ADD10C,0.254000*%
%ADD11C,0.080000*%
%ADD12C,0.150000*%
%ADD13C,0.200000*%
%ADD14C,0.152400*%
%ADD15C,0.177800*%
G04 APERTURE END LIST*
D10*
X106200000Y-117799900D02*
X106200000Y-131399900D01*
X106200000Y-131399900D02*
X132199900Y-131399900D01*
X112200000Y-122499900D02*
X112200000Y-124834900D01*
X112200000Y-122499900D02*
X113679200Y-122499900D01*
X112200000Y-124834900D02*
G75*
G02*
X112198800Y-126765100I-600J-965100D01*
G01*
X112200000Y-129099900D02*
X112200000Y-126765100D01*
X112200000Y-129099900D02*
X113171700Y-129099900D01*
X112478000Y-130473600D02*
G75*
G02*
X112224000Y-130473600I-127000J0D01*
G01*
X112224000Y-130473600D02*
G75*
G02*
X112478000Y-130473600I127000J0D01*
G01*
X114680700Y-122499900D02*
X116219200Y-122499900D01*
X115188200Y-129099900D02*
X116219200Y-129099900D01*
X117220700Y-122499900D02*
X118759200Y-122499900D01*
X117220700Y-129099900D02*
X118759200Y-129099900D01*
X119760700Y-122499900D02*
X121299200Y-122499900D01*
X119760700Y-129099900D02*
X121299200Y-129099900D01*
X122300700Y-122499900D02*
X123839200Y-122499900D01*
X122300700Y-129099900D02*
X123839200Y-129099900D01*
X124840700Y-122499900D02*
X126379200Y-122499900D01*
X124840700Y-129099900D02*
X126379200Y-129099900D01*
X127380700Y-122499900D02*
X128919200Y-122499900D01*
X127380700Y-129099900D02*
X128919200Y-129099900D01*
X129920700Y-122499900D02*
X131400000Y-122499900D01*
X129920700Y-129099900D02*
X131400000Y-129099900D01*
X131400000Y-122499900D02*
X131400000Y-129099900D01*
X132199900Y-117799900D02*
X106200000Y-117799900D01*
X132199900Y-131399900D02*
X132199900Y-117799900D01*
X139501900Y-132253900D02*
X145501700Y-132253900D01*
X139501900Y-156253900D02*
X139501900Y-132253900D01*
X144501700Y-143253900D02*
X144501700Y-145253800D01*
X144501700Y-145253800D02*
X145501700Y-145253800D01*
X145501700Y-132253900D02*
X145501700Y-156253900D01*
X145501700Y-143253900D02*
X144501700Y-143253900D01*
X145501700Y-156253900D02*
X139501900Y-156253900D01*
X193500100Y-84250000D02*
X193500100Y-86499900D01*
D11*
X111299721Y-141552673D02*
X111543531Y-141552673D01*
X111939721Y-141552673D02*
X112183531Y-141552673D01*
X112579721Y-141552673D02*
X112823531Y-141552673D01*
X112129321Y-109139773D02*
X112373131Y-109139773D01*
X112769321Y-109139773D02*
X113013131Y-109139773D01*
X113409321Y-109139773D02*
X113653131Y-109139773D01*
X133378921Y-98140273D02*
X133622731Y-98140273D01*
X134018921Y-98140273D02*
X134262731Y-98140273D01*
X134658921Y-98140273D02*
X134902731Y-98140273D01*
X153128721Y-121639073D02*
X153372531Y-121639073D01*
X153768721Y-121639073D02*
X154012531Y-121639073D01*
X154128721Y-69139873D02*
X154372531Y-69139873D01*
X154768721Y-69139873D02*
X155012531Y-69139873D01*
X155408721Y-69139873D02*
X155652531Y-69139873D01*
X176378821Y-69140073D02*
X176622631Y-69140073D01*
X177018821Y-69140073D02*
X177262631Y-69140073D01*
X177658821Y-69140073D02*
X177902631Y-69140073D01*
X137389773Y-109871578D02*
X137389773Y-109627769D01*
X137389773Y-109231578D02*
X137389773Y-108987769D01*
X137389773Y-108591578D02*
X137389773Y-108347769D01*
X177870978Y-121860726D02*
X177627169Y-121860726D01*
X177230978Y-121860726D02*
X176987169Y-121860726D01*
X176590978Y-121860726D02*
X176347169Y-121860726D01*
X181621078Y-121860726D02*
X181377269Y-121860726D01*
X180981078Y-121860726D02*
X180737269Y-121860726D01*
X180341078Y-121860726D02*
X180097269Y-121860726D01*
X137110726Y-86128721D02*
X137110726Y-86372531D01*
X137110726Y-86768721D02*
X137110726Y-87012531D01*
X137110726Y-87408721D02*
X137110726Y-87652531D01*
X165860726Y-65129321D02*
X165860726Y-65373131D01*
X165860726Y-65769321D02*
X165860726Y-66013131D01*
X165860726Y-66409321D02*
X165860726Y-66653131D01*
X178610826Y-152128621D02*
X178610826Y-152372431D01*
X178610826Y-152768621D02*
X178610826Y-153012431D01*
X178610826Y-153408621D02*
X178610826Y-153652431D01*
X111311626Y-149552973D02*
X111593531Y-149552973D01*
X112051626Y-149552973D02*
X112333531Y-149552973D01*
X112791626Y-149552973D02*
X113073531Y-149552973D01*
X112140726Y-83139073D02*
X112422631Y-83139073D01*
X112880726Y-83139073D02*
X113162631Y-83139073D01*
X113620726Y-83139073D02*
X113902631Y-83139073D01*
X112141426Y-91139773D02*
X112423331Y-91139773D01*
X112881426Y-91139773D02*
X113163331Y-91139773D01*
X113621426Y-91139773D02*
X113903331Y-91139773D01*
X112141426Y-101139573D02*
X112423331Y-101139573D01*
X112881426Y-101139573D02*
X113163331Y-101139573D01*
X113621426Y-101139573D02*
X113903331Y-101139573D01*
X159140626Y-121639073D02*
X159422531Y-121639073D01*
X159880626Y-121639073D02*
X160162531Y-121639073D01*
X157138973Y-151359173D02*
X157138973Y-151077269D01*
X157138973Y-150619173D02*
X157138973Y-150337269D01*
X157138973Y-149879173D02*
X157138973Y-149597269D01*
X165138973Y-151359173D02*
X165138973Y-151077269D01*
X165138973Y-150619173D02*
X165138973Y-150337269D01*
X165138973Y-149879173D02*
X165138973Y-149597269D01*
X184859573Y-144361126D02*
X184577669Y-144361126D01*
X184119573Y-144361126D02*
X183837669Y-144361126D01*
X183379573Y-144361126D02*
X183097669Y-144361126D01*
X178610826Y-137140326D02*
X178610826Y-137422231D01*
X178610826Y-137880326D02*
X178610826Y-138162231D01*
X178610826Y-138620326D02*
X178610826Y-138902231D01*
D12*
X106995895Y-122496303D02*
X106957800Y-122458207D01*
X106957800Y-122458207D02*
X106919704Y-122343922D01*
X106919704Y-122343922D02*
X106919704Y-122267731D01*
X106919704Y-122267731D02*
X106957800Y-122153445D01*
X106957800Y-122153445D02*
X107033990Y-122077255D01*
X107033990Y-122077255D02*
X107110180Y-122039160D01*
X107110180Y-122039160D02*
X107262561Y-122001064D01*
X107262561Y-122001064D02*
X107376847Y-122001064D01*
X107376847Y-122001064D02*
X107529228Y-122039160D01*
X107529228Y-122039160D02*
X107605419Y-122077255D01*
X107605419Y-122077255D02*
X107681609Y-122153445D01*
X107681609Y-122153445D02*
X107719704Y-122267731D01*
X107719704Y-122267731D02*
X107719704Y-122343922D01*
X107719704Y-122343922D02*
X107681609Y-122458207D01*
X107681609Y-122458207D02*
X107643514Y-122496303D01*
X107719704Y-122991541D02*
X107719704Y-123143922D01*
X107719704Y-123143922D02*
X107681609Y-123220112D01*
X107681609Y-123220112D02*
X107605419Y-123296303D01*
X107605419Y-123296303D02*
X107453038Y-123334398D01*
X107453038Y-123334398D02*
X107186371Y-123334398D01*
X107186371Y-123334398D02*
X107033990Y-123296303D01*
X107033990Y-123296303D02*
X106957800Y-123220112D01*
X106957800Y-123220112D02*
X106919704Y-123143922D01*
X106919704Y-123143922D02*
X106919704Y-122991541D01*
X106919704Y-122991541D02*
X106957800Y-122915350D01*
X106957800Y-122915350D02*
X107033990Y-122839160D01*
X107033990Y-122839160D02*
X107186371Y-122801064D01*
X107186371Y-122801064D02*
X107453038Y-122801064D01*
X107453038Y-122801064D02*
X107605419Y-122839160D01*
X107605419Y-122839160D02*
X107681609Y-122915350D01*
X107681609Y-122915350D02*
X107719704Y-122991541D01*
X106919704Y-123677255D02*
X107719704Y-123677255D01*
X107719704Y-123677255D02*
X106919704Y-124134398D01*
X106919704Y-124134398D02*
X107719704Y-124134398D01*
X107719704Y-124401064D02*
X107719704Y-124858207D01*
X106919704Y-124629635D02*
X107719704Y-124629635D01*
X106919704Y-125582017D02*
X107300657Y-125315350D01*
X106919704Y-125124874D02*
X107719704Y-125124874D01*
X107719704Y-125124874D02*
X107719704Y-125429636D01*
X107719704Y-125429636D02*
X107681609Y-125505826D01*
X107681609Y-125505826D02*
X107643514Y-125543921D01*
X107643514Y-125543921D02*
X107567323Y-125582017D01*
X107567323Y-125582017D02*
X107453038Y-125582017D01*
X107453038Y-125582017D02*
X107376847Y-125543921D01*
X107376847Y-125543921D02*
X107338752Y-125505826D01*
X107338752Y-125505826D02*
X107300657Y-125429636D01*
X107300657Y-125429636D02*
X107300657Y-125124874D01*
X107719704Y-126077255D02*
X107719704Y-126229636D01*
X107719704Y-126229636D02*
X107681609Y-126305826D01*
X107681609Y-126305826D02*
X107605419Y-126382017D01*
X107605419Y-126382017D02*
X107453038Y-126420112D01*
X107453038Y-126420112D02*
X107186371Y-126420112D01*
X107186371Y-126420112D02*
X107033990Y-126382017D01*
X107033990Y-126382017D02*
X106957800Y-126305826D01*
X106957800Y-126305826D02*
X106919704Y-126229636D01*
X106919704Y-126229636D02*
X106919704Y-126077255D01*
X106919704Y-126077255D02*
X106957800Y-126001064D01*
X106957800Y-126001064D02*
X107033990Y-125924874D01*
X107033990Y-125924874D02*
X107186371Y-125886778D01*
X107186371Y-125886778D02*
X107453038Y-125886778D01*
X107453038Y-125886778D02*
X107605419Y-125924874D01*
X107605419Y-125924874D02*
X107681609Y-126001064D01*
X107681609Y-126001064D02*
X107719704Y-126077255D01*
X106919704Y-127143921D02*
X106919704Y-126762969D01*
X106919704Y-126762969D02*
X107719704Y-126762969D01*
X192343138Y-86174774D02*
X192343138Y-86479536D01*
X191809804Y-86289060D02*
X192495519Y-86289060D01*
X192495519Y-86289060D02*
X192571709Y-86327155D01*
X192571709Y-86327155D02*
X192609804Y-86403345D01*
X192609804Y-86403345D02*
X192609804Y-86479536D01*
X192597900Y-79251064D02*
X192559804Y-79327255D01*
X192559804Y-79327255D02*
X192559804Y-79479636D01*
X192559804Y-79479636D02*
X192597900Y-79555826D01*
X192597900Y-79555826D02*
X192674090Y-79593922D01*
X192674090Y-79593922D02*
X192712185Y-79593922D01*
X192712185Y-79593922D02*
X192788376Y-79555826D01*
X192788376Y-79555826D02*
X192826471Y-79479636D01*
X192826471Y-79479636D02*
X192826471Y-79365350D01*
X192826471Y-79365350D02*
X192864566Y-79289160D01*
X192864566Y-79289160D02*
X192940757Y-79251064D01*
X192940757Y-79251064D02*
X192978852Y-79251064D01*
X192978852Y-79251064D02*
X193055042Y-79289160D01*
X193055042Y-79289160D02*
X193093138Y-79365350D01*
X193093138Y-79365350D02*
X193093138Y-79479636D01*
X193093138Y-79479636D02*
X193055042Y-79555826D01*
X193093138Y-79936779D02*
X192293138Y-79936779D01*
X193055042Y-79936779D02*
X193093138Y-80012969D01*
X193093138Y-80012969D02*
X193093138Y-80165350D01*
X193093138Y-80165350D02*
X193055042Y-80241541D01*
X193055042Y-80241541D02*
X193016947Y-80279636D01*
X193016947Y-80279636D02*
X192940757Y-80317731D01*
X192940757Y-80317731D02*
X192712185Y-80317731D01*
X192712185Y-80317731D02*
X192635995Y-80279636D01*
X192635995Y-80279636D02*
X192597900Y-80241541D01*
X192597900Y-80241541D02*
X192559804Y-80165350D01*
X192559804Y-80165350D02*
X192559804Y-80012969D01*
X192559804Y-80012969D02*
X192597900Y-79936779D01*
X193359804Y-81941641D02*
X193359804Y-82017831D01*
X193359804Y-82017831D02*
X193321709Y-82094022D01*
X193321709Y-82094022D02*
X193283614Y-82132117D01*
X193283614Y-82132117D02*
X193207423Y-82170212D01*
X193207423Y-82170212D02*
X193055042Y-82208307D01*
X193055042Y-82208307D02*
X192864566Y-82208307D01*
X192864566Y-82208307D02*
X192712185Y-82170212D01*
X192712185Y-82170212D02*
X192635995Y-82132117D01*
X192635995Y-82132117D02*
X192597900Y-82094022D01*
X192597900Y-82094022D02*
X192559804Y-82017831D01*
X192559804Y-82017831D02*
X192559804Y-81941641D01*
X192559804Y-81941641D02*
X192597900Y-81865450D01*
X192597900Y-81865450D02*
X192635995Y-81827355D01*
X192635995Y-81827355D02*
X192712185Y-81789260D01*
X192712185Y-81789260D02*
X192864566Y-81751164D01*
X192864566Y-81751164D02*
X193055042Y-81751164D01*
X193055042Y-81751164D02*
X193207423Y-81789260D01*
X193207423Y-81789260D02*
X193283614Y-81827355D01*
X193283614Y-81827355D02*
X193321709Y-81865450D01*
X193321709Y-81865450D02*
X193359804Y-81941641D01*
X193609804Y-87941641D02*
X193609804Y-88094022D01*
X193609804Y-88094022D02*
X193571709Y-88170212D01*
X193571709Y-88170212D02*
X193495519Y-88246403D01*
X193495519Y-88246403D02*
X193343138Y-88284498D01*
X193343138Y-88284498D02*
X193076471Y-88284498D01*
X193076471Y-88284498D02*
X192924090Y-88246403D01*
X192924090Y-88246403D02*
X192847900Y-88170212D01*
X192847900Y-88170212D02*
X192809804Y-88094022D01*
X192809804Y-88094022D02*
X192809804Y-87941641D01*
X192809804Y-87941641D02*
X192847900Y-87865450D01*
X192847900Y-87865450D02*
X192924090Y-87789260D01*
X192924090Y-87789260D02*
X193076471Y-87751164D01*
X193076471Y-87751164D02*
X193343138Y-87751164D01*
X193343138Y-87751164D02*
X193495519Y-87789260D01*
X193495519Y-87789260D02*
X193571709Y-87865450D01*
X193571709Y-87865450D02*
X193609804Y-87941641D01*
X192809804Y-89084498D02*
X193190757Y-88817831D01*
X192809804Y-88627355D02*
X193609804Y-88627355D01*
X193609804Y-88627355D02*
X193609804Y-88932117D01*
X193609804Y-88932117D02*
X193571709Y-89008307D01*
X193571709Y-89008307D02*
X193533614Y-89046402D01*
X193533614Y-89046402D02*
X193457423Y-89084498D01*
X193457423Y-89084498D02*
X193343138Y-89084498D01*
X193343138Y-89084498D02*
X193266947Y-89046402D01*
X193266947Y-89046402D02*
X193228852Y-89008307D01*
X193228852Y-89008307D02*
X193190757Y-88932117D01*
X193190757Y-88932117D02*
X193190757Y-88627355D01*
X193571709Y-90455926D02*
X193609804Y-90379736D01*
X193609804Y-90379736D02*
X193609804Y-90265450D01*
X193609804Y-90265450D02*
X193571709Y-90151164D01*
X193571709Y-90151164D02*
X193495519Y-90074974D01*
X193495519Y-90074974D02*
X193419328Y-90036879D01*
X193419328Y-90036879D02*
X193266947Y-89998783D01*
X193266947Y-89998783D02*
X193152661Y-89998783D01*
X193152661Y-89998783D02*
X193000280Y-90036879D01*
X193000280Y-90036879D02*
X192924090Y-90074974D01*
X192924090Y-90074974D02*
X192847900Y-90151164D01*
X192847900Y-90151164D02*
X192809804Y-90265450D01*
X192809804Y-90265450D02*
X192809804Y-90341641D01*
X192809804Y-90341641D02*
X192847900Y-90455926D01*
X192847900Y-90455926D02*
X192885995Y-90494022D01*
X192885995Y-90494022D02*
X193152661Y-90494022D01*
X193152661Y-90494022D02*
X193152661Y-90341641D01*
X193228852Y-90836879D02*
X193228852Y-91103545D01*
X192809804Y-91217831D02*
X192809804Y-90836879D01*
X192809804Y-90836879D02*
X193609804Y-90836879D01*
X193609804Y-90836879D02*
X193609804Y-91217831D01*
X193609804Y-91446403D02*
X193609804Y-91903546D01*
X192809804Y-91674974D02*
X193609804Y-91674974D01*
X193609804Y-92932118D02*
X193609804Y-93084499D01*
X193609804Y-93084499D02*
X193571709Y-93160689D01*
X193571709Y-93160689D02*
X193495519Y-93236880D01*
X193495519Y-93236880D02*
X193343138Y-93274975D01*
X193343138Y-93274975D02*
X193076471Y-93274975D01*
X193076471Y-93274975D02*
X192924090Y-93236880D01*
X192924090Y-93236880D02*
X192847900Y-93160689D01*
X192847900Y-93160689D02*
X192809804Y-93084499D01*
X192809804Y-93084499D02*
X192809804Y-92932118D01*
X192809804Y-92932118D02*
X192847900Y-92855927D01*
X192847900Y-92855927D02*
X192924090Y-92779737D01*
X192924090Y-92779737D02*
X193076471Y-92741641D01*
X193076471Y-92741641D02*
X193343138Y-92741641D01*
X193343138Y-92741641D02*
X193495519Y-92779737D01*
X193495519Y-92779737D02*
X193571709Y-92855927D01*
X193571709Y-92855927D02*
X193609804Y-92932118D01*
X193609804Y-93617832D02*
X192962185Y-93617832D01*
X192962185Y-93617832D02*
X192885995Y-93655927D01*
X192885995Y-93655927D02*
X192847900Y-93694022D01*
X192847900Y-93694022D02*
X192809804Y-93770213D01*
X192809804Y-93770213D02*
X192809804Y-93922594D01*
X192809804Y-93922594D02*
X192847900Y-93998784D01*
X192847900Y-93998784D02*
X192885995Y-94036879D01*
X192885995Y-94036879D02*
X192962185Y-94074975D01*
X192962185Y-94074975D02*
X193609804Y-94074975D01*
X193609804Y-94341641D02*
X193609804Y-94798784D01*
X192809804Y-94570212D02*
X193609804Y-94570212D01*
X193038376Y-95636879D02*
X193038376Y-96017832D01*
X192809804Y-95560689D02*
X193609804Y-95827356D01*
X193609804Y-95827356D02*
X192809804Y-96094022D01*
X192809804Y-96360689D02*
X193609804Y-96360689D01*
X193609804Y-96360689D02*
X192809804Y-96817832D01*
X192809804Y-96817832D02*
X193609804Y-96817832D01*
X192809804Y-97198784D02*
X193609804Y-97198784D01*
X193609804Y-97198784D02*
X193609804Y-97389260D01*
X193609804Y-97389260D02*
X193571709Y-97503546D01*
X193571709Y-97503546D02*
X193495519Y-97579736D01*
X193495519Y-97579736D02*
X193419328Y-97617831D01*
X193419328Y-97617831D02*
X193266947Y-97655927D01*
X193266947Y-97655927D02*
X193152661Y-97655927D01*
X193152661Y-97655927D02*
X193000280Y-97617831D01*
X193000280Y-97617831D02*
X192924090Y-97579736D01*
X192924090Y-97579736D02*
X192847900Y-97503546D01*
X192847900Y-97503546D02*
X192809804Y-97389260D01*
X192809804Y-97389260D02*
X192809804Y-97198784D01*
X192809804Y-98608308D02*
X193609804Y-98608308D01*
X193609804Y-98608308D02*
X193609804Y-98913070D01*
X193609804Y-98913070D02*
X193571709Y-98989260D01*
X193571709Y-98989260D02*
X193533614Y-99027355D01*
X193533614Y-99027355D02*
X193457423Y-99065451D01*
X193457423Y-99065451D02*
X193343138Y-99065451D01*
X193343138Y-99065451D02*
X193266947Y-99027355D01*
X193266947Y-99027355D02*
X193228852Y-98989260D01*
X193228852Y-98989260D02*
X193190757Y-98913070D01*
X193190757Y-98913070D02*
X193190757Y-98608308D01*
X193609804Y-99408308D02*
X192962185Y-99408308D01*
X192962185Y-99408308D02*
X192885995Y-99446403D01*
X192885995Y-99446403D02*
X192847900Y-99484498D01*
X192847900Y-99484498D02*
X192809804Y-99560689D01*
X192809804Y-99560689D02*
X192809804Y-99713070D01*
X192809804Y-99713070D02*
X192847900Y-99789260D01*
X192847900Y-99789260D02*
X192885995Y-99827355D01*
X192885995Y-99827355D02*
X192962185Y-99865451D01*
X192962185Y-99865451D02*
X193609804Y-99865451D01*
X192847900Y-100208307D02*
X192809804Y-100322593D01*
X192809804Y-100322593D02*
X192809804Y-100513069D01*
X192809804Y-100513069D02*
X192847900Y-100589260D01*
X192847900Y-100589260D02*
X192885995Y-100627355D01*
X192885995Y-100627355D02*
X192962185Y-100665450D01*
X192962185Y-100665450D02*
X193038376Y-100665450D01*
X193038376Y-100665450D02*
X193114566Y-100627355D01*
X193114566Y-100627355D02*
X193152661Y-100589260D01*
X193152661Y-100589260D02*
X193190757Y-100513069D01*
X193190757Y-100513069D02*
X193228852Y-100360688D01*
X193228852Y-100360688D02*
X193266947Y-100284498D01*
X193266947Y-100284498D02*
X193305042Y-100246403D01*
X193305042Y-100246403D02*
X193381233Y-100208307D01*
X193381233Y-100208307D02*
X193457423Y-100208307D01*
X193457423Y-100208307D02*
X193533614Y-100246403D01*
X193533614Y-100246403D02*
X193571709Y-100284498D01*
X193571709Y-100284498D02*
X193609804Y-100360688D01*
X193609804Y-100360688D02*
X193609804Y-100551165D01*
X193609804Y-100551165D02*
X193571709Y-100665450D01*
X192809804Y-101008308D02*
X193609804Y-101008308D01*
X193228852Y-101008308D02*
X193228852Y-101465451D01*
X192809804Y-101465451D02*
X193609804Y-101465451D01*
X194359804Y-86441441D02*
X194359804Y-86517631D01*
X194359804Y-86517631D02*
X194321709Y-86593822D01*
X194321709Y-86593822D02*
X194283614Y-86631917D01*
X194283614Y-86631917D02*
X194207423Y-86670012D01*
X194207423Y-86670012D02*
X194055042Y-86708107D01*
X194055042Y-86708107D02*
X193864566Y-86708107D01*
X193864566Y-86708107D02*
X193712185Y-86670012D01*
X193712185Y-86670012D02*
X193635995Y-86631917D01*
X193635995Y-86631917D02*
X193597900Y-86593822D01*
X193597900Y-86593822D02*
X193559804Y-86517631D01*
X193559804Y-86517631D02*
X193559804Y-86441441D01*
X193559804Y-86441441D02*
X193597900Y-86365250D01*
X193597900Y-86365250D02*
X193635995Y-86327155D01*
X193635995Y-86327155D02*
X193712185Y-86289060D01*
X193712185Y-86289060D02*
X193864566Y-86250964D01*
X193864566Y-86250964D02*
X194055042Y-86250964D01*
X194055042Y-86250964D02*
X194207423Y-86289060D01*
X194207423Y-86289060D02*
X194283614Y-86327155D01*
X194283614Y-86327155D02*
X194321709Y-86365250D01*
X194321709Y-86365250D02*
X194359804Y-86441441D01*
X119085350Y-79195533D02*
X118782017Y-78762200D01*
X118565350Y-79195533D02*
X118565350Y-78285533D01*
X118565350Y-78285533D02*
X118912017Y-78285533D01*
X118912017Y-78285533D02*
X118998684Y-78328866D01*
X118998684Y-78328866D02*
X119042017Y-78372200D01*
X119042017Y-78372200D02*
X119085350Y-78458866D01*
X119085350Y-78458866D02*
X119085350Y-78588866D01*
X119085350Y-78588866D02*
X119042017Y-78675533D01*
X119042017Y-78675533D02*
X118998684Y-78718866D01*
X118998684Y-78718866D02*
X118912017Y-78762200D01*
X118912017Y-78762200D02*
X118565350Y-78762200D01*
X119475350Y-78718866D02*
X119778684Y-78718866D01*
X119908684Y-79195533D02*
X119475350Y-79195533D01*
X119475350Y-79195533D02*
X119475350Y-78285533D01*
X119475350Y-78285533D02*
X119908684Y-78285533D01*
X120255350Y-79152200D02*
X120385350Y-79195533D01*
X120385350Y-79195533D02*
X120602017Y-79195533D01*
X120602017Y-79195533D02*
X120688683Y-79152200D01*
X120688683Y-79152200D02*
X120732017Y-79108866D01*
X120732017Y-79108866D02*
X120775350Y-79022200D01*
X120775350Y-79022200D02*
X120775350Y-78935533D01*
X120775350Y-78935533D02*
X120732017Y-78848866D01*
X120732017Y-78848866D02*
X120688683Y-78805533D01*
X120688683Y-78805533D02*
X120602017Y-78762200D01*
X120602017Y-78762200D02*
X120428683Y-78718866D01*
X120428683Y-78718866D02*
X120342017Y-78675533D01*
X120342017Y-78675533D02*
X120298683Y-78632200D01*
X120298683Y-78632200D02*
X120255350Y-78545533D01*
X120255350Y-78545533D02*
X120255350Y-78458866D01*
X120255350Y-78458866D02*
X120298683Y-78372200D01*
X120298683Y-78372200D02*
X120342017Y-78328866D01*
X120342017Y-78328866D02*
X120428683Y-78285533D01*
X120428683Y-78285533D02*
X120645350Y-78285533D01*
X120645350Y-78285533D02*
X120775350Y-78328866D01*
X121165350Y-78718866D02*
X121468684Y-78718866D01*
X121598684Y-79195533D02*
X121165350Y-79195533D01*
X121165350Y-79195533D02*
X121165350Y-78285533D01*
X121165350Y-78285533D02*
X121598684Y-78285533D01*
X121858683Y-78285533D02*
X122378683Y-78285533D01*
X122118683Y-79195533D02*
X122118683Y-78285533D01*
X123245349Y-78285533D02*
X123765349Y-78285533D01*
X123505349Y-79195533D02*
X123505349Y-78285533D01*
X124588682Y-79195533D02*
X124285349Y-78762200D01*
X124068682Y-79195533D02*
X124068682Y-78285533D01*
X124068682Y-78285533D02*
X124415349Y-78285533D01*
X124415349Y-78285533D02*
X124502016Y-78328866D01*
X124502016Y-78328866D02*
X124545349Y-78372200D01*
X124545349Y-78372200D02*
X124588682Y-78458866D01*
X124588682Y-78458866D02*
X124588682Y-78588866D01*
X124588682Y-78588866D02*
X124545349Y-78675533D01*
X124545349Y-78675533D02*
X124502016Y-78718866D01*
X124502016Y-78718866D02*
X124415349Y-78762200D01*
X124415349Y-78762200D02*
X124068682Y-78762200D01*
X124978682Y-79195533D02*
X124978682Y-78285533D01*
X125412015Y-79195533D02*
X125412015Y-78285533D01*
X125412015Y-78285533D02*
X125715349Y-78935533D01*
X125715349Y-78935533D02*
X126018682Y-78285533D01*
X126018682Y-78285533D02*
X126018682Y-79195533D01*
X119022017Y-126370933D02*
X119455350Y-126370933D01*
X118935350Y-126630933D02*
X119238684Y-125720933D01*
X119238684Y-125720933D02*
X119542017Y-126630933D01*
X119715350Y-125720933D02*
X120235350Y-125720933D01*
X119975350Y-126630933D02*
X119975350Y-125720933D01*
X120408683Y-125720933D02*
X120928683Y-125720933D01*
X120668683Y-126630933D02*
X120668683Y-125720933D01*
X121232016Y-126630933D02*
X121232016Y-125720933D01*
X121665349Y-126630933D02*
X121665349Y-125720933D01*
X121665349Y-125720933D02*
X122185349Y-126630933D01*
X122185349Y-126630933D02*
X122185349Y-125720933D01*
X122792016Y-126197600D02*
X122792016Y-126630933D01*
X122488682Y-125720933D02*
X122792016Y-126197600D01*
X122792016Y-126197600D02*
X123095349Y-125720933D01*
X123355349Y-125807600D02*
X123398682Y-125764266D01*
X123398682Y-125764266D02*
X123485349Y-125720933D01*
X123485349Y-125720933D02*
X123702016Y-125720933D01*
X123702016Y-125720933D02*
X123788682Y-125764266D01*
X123788682Y-125764266D02*
X123832016Y-125807600D01*
X123832016Y-125807600D02*
X123875349Y-125894266D01*
X123875349Y-125894266D02*
X123875349Y-125980933D01*
X123875349Y-125980933D02*
X123832016Y-126110933D01*
X123832016Y-126110933D02*
X123312016Y-126630933D01*
X123312016Y-126630933D02*
X123875349Y-126630933D01*
X124655349Y-126024266D02*
X124655349Y-126630933D01*
X124438683Y-125677600D02*
X124222016Y-126327600D01*
X124222016Y-126327600D02*
X124785349Y-126327600D01*
X121618684Y-113554366D02*
X121748684Y-113597700D01*
X121748684Y-113597700D02*
X121792017Y-113641033D01*
X121792017Y-113641033D02*
X121835350Y-113727700D01*
X121835350Y-113727700D02*
X121835350Y-113857700D01*
X121835350Y-113857700D02*
X121792017Y-113944366D01*
X121792017Y-113944366D02*
X121748684Y-113987700D01*
X121748684Y-113987700D02*
X121662017Y-114031033D01*
X121662017Y-114031033D02*
X121315350Y-114031033D01*
X121315350Y-114031033D02*
X121315350Y-113121033D01*
X121315350Y-113121033D02*
X121618684Y-113121033D01*
X121618684Y-113121033D02*
X121705350Y-113164366D01*
X121705350Y-113164366D02*
X121748684Y-113207700D01*
X121748684Y-113207700D02*
X121792017Y-113294366D01*
X121792017Y-113294366D02*
X121792017Y-113381033D01*
X121792017Y-113381033D02*
X121748684Y-113467700D01*
X121748684Y-113467700D02*
X121705350Y-113511033D01*
X121705350Y-113511033D02*
X121618684Y-113554366D01*
X121618684Y-113554366D02*
X121315350Y-113554366D01*
X122745350Y-114031033D02*
X122442017Y-113597700D01*
X122225350Y-114031033D02*
X122225350Y-113121033D01*
X122225350Y-113121033D02*
X122572017Y-113121033D01*
X122572017Y-113121033D02*
X122658684Y-113164366D01*
X122658684Y-113164366D02*
X122702017Y-113207700D01*
X122702017Y-113207700D02*
X122745350Y-113294366D01*
X122745350Y-113294366D02*
X122745350Y-113424366D01*
X122745350Y-113424366D02*
X122702017Y-113511033D01*
X122702017Y-113511033D02*
X122658684Y-113554366D01*
X122658684Y-113554366D02*
X122572017Y-113597700D01*
X122572017Y-113597700D02*
X122225350Y-113597700D01*
X123092017Y-113771033D02*
X123525350Y-113771033D01*
X123005350Y-114031033D02*
X123308684Y-113121033D01*
X123308684Y-113121033D02*
X123612017Y-114031033D01*
X123915350Y-114031033D02*
X123915350Y-113121033D01*
X124435350Y-114031033D02*
X124045350Y-113511033D01*
X124435350Y-113121033D02*
X123915350Y-113641033D01*
X124825350Y-113554366D02*
X125128684Y-113554366D01*
X125258684Y-114031033D02*
X124825350Y-114031033D01*
X124825350Y-114031033D02*
X124825350Y-113121033D01*
X124825350Y-113121033D02*
X125258684Y-113121033D01*
X125605350Y-113987700D02*
X125735350Y-114031033D01*
X125735350Y-114031033D02*
X125952017Y-114031033D01*
X125952017Y-114031033D02*
X126038683Y-113987700D01*
X126038683Y-113987700D02*
X126082017Y-113944366D01*
X126082017Y-113944366D02*
X126125350Y-113857700D01*
X126125350Y-113857700D02*
X126125350Y-113771033D01*
X126125350Y-113771033D02*
X126082017Y-113684366D01*
X126082017Y-113684366D02*
X126038683Y-113641033D01*
X126038683Y-113641033D02*
X125952017Y-113597700D01*
X125952017Y-113597700D02*
X125778683Y-113554366D01*
X125778683Y-113554366D02*
X125692017Y-113511033D01*
X125692017Y-113511033D02*
X125648683Y-113467700D01*
X125648683Y-113467700D02*
X125605350Y-113381033D01*
X125605350Y-113381033D02*
X125605350Y-113294366D01*
X125605350Y-113294366D02*
X125648683Y-113207700D01*
X125648683Y-113207700D02*
X125692017Y-113164366D01*
X125692017Y-113164366D02*
X125778683Y-113121033D01*
X125778683Y-113121033D02*
X125995350Y-113121033D01*
X125995350Y-113121033D02*
X126125350Y-113164366D01*
X121315350Y-124121033D02*
X121315350Y-124857700D01*
X121315350Y-124857700D02*
X121358684Y-124944366D01*
X121358684Y-124944366D02*
X121402017Y-124987700D01*
X121402017Y-124987700D02*
X121488684Y-125031033D01*
X121488684Y-125031033D02*
X121662017Y-125031033D01*
X121662017Y-125031033D02*
X121748684Y-124987700D01*
X121748684Y-124987700D02*
X121792017Y-124944366D01*
X121792017Y-124944366D02*
X121835350Y-124857700D01*
X121835350Y-124857700D02*
X121835350Y-124121033D01*
X122745350Y-125031033D02*
X122225350Y-125031033D01*
X122485350Y-125031033D02*
X122485350Y-124121033D01*
X122485350Y-124121033D02*
X122398683Y-124251033D01*
X122398683Y-124251033D02*
X122312017Y-124337700D01*
X122312017Y-124337700D02*
X122225350Y-124381033D01*
X151988684Y-123347700D02*
X151988684Y-123781033D01*
X151685350Y-122871033D02*
X151988684Y-123347700D01*
X151988684Y-123347700D02*
X152292017Y-122871033D01*
X151815350Y-151531033D02*
X151815350Y-150621033D01*
X151815350Y-150621033D02*
X152118684Y-151271033D01*
X152118684Y-151271033D02*
X152422017Y-150621033D01*
X152422017Y-150621033D02*
X152422017Y-151531033D01*
X153028684Y-150621033D02*
X153202017Y-150621033D01*
X153202017Y-150621033D02*
X153288684Y-150664366D01*
X153288684Y-150664366D02*
X153375350Y-150751033D01*
X153375350Y-150751033D02*
X153418684Y-150924366D01*
X153418684Y-150924366D02*
X153418684Y-151227700D01*
X153418684Y-151227700D02*
X153375350Y-151401033D01*
X153375350Y-151401033D02*
X153288684Y-151487700D01*
X153288684Y-151487700D02*
X153202017Y-151531033D01*
X153202017Y-151531033D02*
X153028684Y-151531033D01*
X153028684Y-151531033D02*
X152942017Y-151487700D01*
X152942017Y-151487700D02*
X152855350Y-151401033D01*
X152855350Y-151401033D02*
X152812017Y-151227700D01*
X152812017Y-151227700D02*
X152812017Y-150924366D01*
X152812017Y-150924366D02*
X152855350Y-150751033D01*
X152855350Y-150751033D02*
X152942017Y-150664366D01*
X152942017Y-150664366D02*
X153028684Y-150621033D01*
X153808683Y-151531033D02*
X153808683Y-150621033D01*
X153808683Y-150621033D02*
X154025350Y-150621033D01*
X154025350Y-150621033D02*
X154155350Y-150664366D01*
X154155350Y-150664366D02*
X154242017Y-150751033D01*
X154242017Y-150751033D02*
X154285350Y-150837700D01*
X154285350Y-150837700D02*
X154328683Y-151011033D01*
X154328683Y-151011033D02*
X154328683Y-151141033D01*
X154328683Y-151141033D02*
X154285350Y-151314366D01*
X154285350Y-151314366D02*
X154242017Y-151401033D01*
X154242017Y-151401033D02*
X154155350Y-151487700D01*
X154155350Y-151487700D02*
X154025350Y-151531033D01*
X154025350Y-151531033D02*
X153808683Y-151531033D01*
X154718683Y-151054366D02*
X155022017Y-151054366D01*
X155152017Y-151531033D02*
X154718683Y-151531033D01*
X154718683Y-151531033D02*
X154718683Y-150621033D01*
X154718683Y-150621033D02*
X155152017Y-150621033D01*
X154935350Y-121370933D02*
X155455350Y-121370933D01*
X155195350Y-122280933D02*
X155195350Y-121370933D01*
X156278683Y-122280933D02*
X155975350Y-121847600D01*
X155758683Y-122280933D02*
X155758683Y-121370933D01*
X155758683Y-121370933D02*
X156105350Y-121370933D01*
X156105350Y-121370933D02*
X156192017Y-121414266D01*
X156192017Y-121414266D02*
X156235350Y-121457600D01*
X156235350Y-121457600D02*
X156278683Y-121544266D01*
X156278683Y-121544266D02*
X156278683Y-121674266D01*
X156278683Y-121674266D02*
X156235350Y-121760933D01*
X156235350Y-121760933D02*
X156192017Y-121804266D01*
X156192017Y-121804266D02*
X156105350Y-121847600D01*
X156105350Y-121847600D02*
X155758683Y-121847600D01*
X156668683Y-122280933D02*
X156668683Y-121370933D01*
X157102016Y-122280933D02*
X157102016Y-121370933D01*
X157102016Y-121370933D02*
X157405350Y-122020933D01*
X157405350Y-122020933D02*
X157708683Y-121370933D01*
X157708683Y-121370933D02*
X157708683Y-122280933D01*
X156522017Y-66185533D02*
X156955350Y-66185533D01*
X156435350Y-66445533D02*
X156738684Y-65535533D01*
X156738684Y-65535533D02*
X157042017Y-66445533D01*
X157258684Y-65535533D02*
X157865350Y-66445533D01*
X157865350Y-65535533D02*
X157258684Y-66445533D01*
X158212017Y-66445533D02*
X158212017Y-65535533D01*
X158602017Y-66402200D02*
X158732017Y-66445533D01*
X158732017Y-66445533D02*
X158948684Y-66445533D01*
X158948684Y-66445533D02*
X159035350Y-66402200D01*
X159035350Y-66402200D02*
X159078684Y-66358866D01*
X159078684Y-66358866D02*
X159122017Y-66272200D01*
X159122017Y-66272200D02*
X159122017Y-66185533D01*
X159122017Y-66185533D02*
X159078684Y-66098866D01*
X159078684Y-66098866D02*
X159035350Y-66055533D01*
X159035350Y-66055533D02*
X158948684Y-66012200D01*
X158948684Y-66012200D02*
X158775350Y-65968866D01*
X158775350Y-65968866D02*
X158688684Y-65925533D01*
X158688684Y-65925533D02*
X158645350Y-65882200D01*
X158645350Y-65882200D02*
X158602017Y-65795533D01*
X158602017Y-65795533D02*
X158602017Y-65708866D01*
X158602017Y-65708866D02*
X158645350Y-65622200D01*
X158645350Y-65622200D02*
X158688684Y-65578866D01*
X158688684Y-65578866D02*
X158775350Y-65535533D01*
X158775350Y-65535533D02*
X158992017Y-65535533D01*
X158992017Y-65535533D02*
X159122017Y-65578866D01*
X160682017Y-66445533D02*
X160162017Y-66445533D01*
X160422017Y-66445533D02*
X160422017Y-65535533D01*
X160422017Y-65535533D02*
X160335350Y-65665533D01*
X160335350Y-65665533D02*
X160248684Y-65752200D01*
X160248684Y-65752200D02*
X160162017Y-65795533D01*
X160988684Y-120098100D02*
X160988684Y-120531433D01*
X160685350Y-119621433D02*
X160988684Y-120098100D01*
X160988684Y-120098100D02*
X161292017Y-119621433D01*
X162228684Y-132320933D02*
X162835350Y-132320933D01*
X162835350Y-132320933D02*
X162445350Y-133230933D01*
X163572017Y-132624266D02*
X163572017Y-133230933D01*
X163355351Y-132277600D02*
X163138684Y-132927600D01*
X163138684Y-132927600D02*
X163702017Y-132927600D01*
X164048684Y-133230933D02*
X164048684Y-132320933D01*
X164048684Y-132754266D02*
X164568684Y-132754266D01*
X164568684Y-133230933D02*
X164568684Y-132320933D01*
X165522017Y-133144266D02*
X165478684Y-133187600D01*
X165478684Y-133187600D02*
X165348684Y-133230933D01*
X165348684Y-133230933D02*
X165262017Y-133230933D01*
X165262017Y-133230933D02*
X165132017Y-133187600D01*
X165132017Y-133187600D02*
X165045351Y-133100933D01*
X165045351Y-133100933D02*
X165002017Y-133014266D01*
X165002017Y-133014266D02*
X164958684Y-132840933D01*
X164958684Y-132840933D02*
X164958684Y-132710933D01*
X164958684Y-132710933D02*
X165002017Y-132537600D01*
X165002017Y-132537600D02*
X165045351Y-132450933D01*
X165045351Y-132450933D02*
X165132017Y-132364266D01*
X165132017Y-132364266D02*
X165262017Y-132320933D01*
X165262017Y-132320933D02*
X165348684Y-132320933D01*
X165348684Y-132320933D02*
X165478684Y-132364266D01*
X165478684Y-132364266D02*
X165522017Y-132407600D01*
X166388684Y-133230933D02*
X165868684Y-133230933D01*
X166128684Y-133230933D02*
X166128684Y-132320933D01*
X166128684Y-132320933D02*
X166042017Y-132450933D01*
X166042017Y-132450933D02*
X165955351Y-132537600D01*
X165955351Y-132537600D02*
X165868684Y-132580933D01*
X167168684Y-132320933D02*
X166995351Y-132320933D01*
X166995351Y-132320933D02*
X166908684Y-132364266D01*
X166908684Y-132364266D02*
X166865351Y-132407600D01*
X166865351Y-132407600D02*
X166778684Y-132537600D01*
X166778684Y-132537600D02*
X166735351Y-132710933D01*
X166735351Y-132710933D02*
X166735351Y-133057600D01*
X166735351Y-133057600D02*
X166778684Y-133144266D01*
X166778684Y-133144266D02*
X166822018Y-133187600D01*
X166822018Y-133187600D02*
X166908684Y-133230933D01*
X166908684Y-133230933D02*
X167082018Y-133230933D01*
X167082018Y-133230933D02*
X167168684Y-133187600D01*
X167168684Y-133187600D02*
X167212018Y-133144266D01*
X167212018Y-133144266D02*
X167255351Y-133057600D01*
X167255351Y-133057600D02*
X167255351Y-132840933D01*
X167255351Y-132840933D02*
X167212018Y-132754266D01*
X167212018Y-132754266D02*
X167168684Y-132710933D01*
X167168684Y-132710933D02*
X167082018Y-132667600D01*
X167082018Y-132667600D02*
X166908684Y-132667600D01*
X166908684Y-132667600D02*
X166822018Y-132710933D01*
X166822018Y-132710933D02*
X166778684Y-132754266D01*
X166778684Y-132754266D02*
X166735351Y-132840933D01*
X168078685Y-132320933D02*
X167645351Y-132320933D01*
X167645351Y-132320933D02*
X167602018Y-132754266D01*
X167602018Y-132754266D02*
X167645351Y-132710933D01*
X167645351Y-132710933D02*
X167732018Y-132667600D01*
X167732018Y-132667600D02*
X167948685Y-132667600D01*
X167948685Y-132667600D02*
X168035351Y-132710933D01*
X168035351Y-132710933D02*
X168078685Y-132754266D01*
X168078685Y-132754266D02*
X168122018Y-132840933D01*
X168122018Y-132840933D02*
X168122018Y-133057600D01*
X168122018Y-133057600D02*
X168078685Y-133144266D01*
X168078685Y-133144266D02*
X168035351Y-133187600D01*
X168035351Y-133187600D02*
X167948685Y-133230933D01*
X167948685Y-133230933D02*
X167732018Y-133230933D01*
X167732018Y-133230933D02*
X167645351Y-133187600D01*
X167645351Y-133187600D02*
X167602018Y-133144266D01*
X174728684Y-123370933D02*
X174945350Y-124280933D01*
X174945350Y-124280933D02*
X175118684Y-123630933D01*
X175118684Y-123630933D02*
X175292017Y-124280933D01*
X175292017Y-124280933D02*
X175508684Y-123370933D01*
X177022017Y-120435533D02*
X177455350Y-120435533D01*
X176935350Y-120695533D02*
X177238684Y-119785533D01*
X177238684Y-119785533D02*
X177542017Y-120695533D01*
X177758684Y-119785533D02*
X178365350Y-120695533D01*
X178365350Y-119785533D02*
X177758684Y-120695533D01*
X178712017Y-120695533D02*
X178712017Y-119785533D01*
X179102017Y-120652200D02*
X179232017Y-120695533D01*
X179232017Y-120695533D02*
X179448684Y-120695533D01*
X179448684Y-120695533D02*
X179535350Y-120652200D01*
X179535350Y-120652200D02*
X179578684Y-120608866D01*
X179578684Y-120608866D02*
X179622017Y-120522200D01*
X179622017Y-120522200D02*
X179622017Y-120435533D01*
X179622017Y-120435533D02*
X179578684Y-120348866D01*
X179578684Y-120348866D02*
X179535350Y-120305533D01*
X179535350Y-120305533D02*
X179448684Y-120262200D01*
X179448684Y-120262200D02*
X179275350Y-120218866D01*
X179275350Y-120218866D02*
X179188684Y-120175533D01*
X179188684Y-120175533D02*
X179145350Y-120132200D01*
X179145350Y-120132200D02*
X179102017Y-120045533D01*
X179102017Y-120045533D02*
X179102017Y-119958866D01*
X179102017Y-119958866D02*
X179145350Y-119872200D01*
X179145350Y-119872200D02*
X179188684Y-119828866D01*
X179188684Y-119828866D02*
X179275350Y-119785533D01*
X179275350Y-119785533D02*
X179492017Y-119785533D01*
X179492017Y-119785533D02*
X179622017Y-119828866D01*
X180618684Y-119785533D02*
X181182017Y-119785533D01*
X181182017Y-119785533D02*
X180878684Y-120132200D01*
X180878684Y-120132200D02*
X181008684Y-120132200D01*
X181008684Y-120132200D02*
X181095350Y-120175533D01*
X181095350Y-120175533D02*
X181138684Y-120218866D01*
X181138684Y-120218866D02*
X181182017Y-120305533D01*
X181182017Y-120305533D02*
X181182017Y-120522200D01*
X181182017Y-120522200D02*
X181138684Y-120608866D01*
X181138684Y-120608866D02*
X181095350Y-120652200D01*
X181095350Y-120652200D02*
X181008684Y-120695533D01*
X181008684Y-120695533D02*
X180748684Y-120695533D01*
X180748684Y-120695533D02*
X180662017Y-120652200D01*
X180662017Y-120652200D02*
X180618684Y-120608866D01*
X179118684Y-123805066D02*
X179248684Y-123848400D01*
X179248684Y-123848400D02*
X179292017Y-123891733D01*
X179292017Y-123891733D02*
X179335350Y-123978400D01*
X179335350Y-123978400D02*
X179335350Y-124108400D01*
X179335350Y-124108400D02*
X179292017Y-124195066D01*
X179292017Y-124195066D02*
X179248684Y-124238400D01*
X179248684Y-124238400D02*
X179162017Y-124281733D01*
X179162017Y-124281733D02*
X178815350Y-124281733D01*
X178815350Y-124281733D02*
X178815350Y-123371733D01*
X178815350Y-123371733D02*
X179118684Y-123371733D01*
X179118684Y-123371733D02*
X179205350Y-123415066D01*
X179205350Y-123415066D02*
X179248684Y-123458400D01*
X179248684Y-123458400D02*
X179292017Y-123545066D01*
X179292017Y-123545066D02*
X179292017Y-123631733D01*
X179292017Y-123631733D02*
X179248684Y-123718400D01*
X179248684Y-123718400D02*
X179205350Y-123761733D01*
X179205350Y-123761733D02*
X179118684Y-123805066D01*
X179118684Y-123805066D02*
X178815350Y-123805066D01*
X181685350Y-153121233D02*
X181988684Y-154031233D01*
X181988684Y-154031233D02*
X182292017Y-153121233D01*
X182595350Y-153554566D02*
X182898684Y-153554566D01*
X183028684Y-154031233D02*
X182595350Y-154031233D01*
X182595350Y-154031233D02*
X182595350Y-153121233D01*
X182595350Y-153121233D02*
X183028684Y-153121233D01*
X183418683Y-154031233D02*
X183418683Y-153121233D01*
X183418683Y-153554566D02*
X183938683Y-153554566D01*
X183938683Y-154031233D02*
X183938683Y-153121233D01*
X184372016Y-154031233D02*
X184372016Y-153121233D01*
X185325349Y-153944566D02*
X185282016Y-153987900D01*
X185282016Y-153987900D02*
X185152016Y-154031233D01*
X185152016Y-154031233D02*
X185065349Y-154031233D01*
X185065349Y-154031233D02*
X184935349Y-153987900D01*
X184935349Y-153987900D02*
X184848683Y-153901233D01*
X184848683Y-153901233D02*
X184805349Y-153814566D01*
X184805349Y-153814566D02*
X184762016Y-153641233D01*
X184762016Y-153641233D02*
X184762016Y-153511233D01*
X184762016Y-153511233D02*
X184805349Y-153337900D01*
X184805349Y-153337900D02*
X184848683Y-153251233D01*
X184848683Y-153251233D02*
X184935349Y-153164566D01*
X184935349Y-153164566D02*
X185065349Y-153121233D01*
X185065349Y-153121233D02*
X185152016Y-153121233D01*
X185152016Y-153121233D02*
X185282016Y-153164566D01*
X185282016Y-153164566D02*
X185325349Y-153207900D01*
X186148683Y-154031233D02*
X185715349Y-154031233D01*
X185715349Y-154031233D02*
X185715349Y-153121233D01*
X186452016Y-153554566D02*
X186755350Y-153554566D01*
X186885350Y-154031233D02*
X186452016Y-154031233D01*
X186452016Y-154031233D02*
X186452016Y-153121233D01*
X186452016Y-153121233D02*
X186885350Y-153121233D01*
X183585250Y-124281233D02*
X183281917Y-123847900D01*
X183065250Y-124281233D02*
X183065250Y-123371233D01*
X183065250Y-123371233D02*
X183411917Y-123371233D01*
X183411917Y-123371233D02*
X183498584Y-123414566D01*
X183498584Y-123414566D02*
X183541917Y-123457900D01*
X183541917Y-123457900D02*
X183585250Y-123544566D01*
X183585250Y-123544566D02*
X183585250Y-123674566D01*
X183585250Y-123674566D02*
X183541917Y-123761233D01*
X183541917Y-123761233D02*
X183498584Y-123804566D01*
X183498584Y-123804566D02*
X183411917Y-123847900D01*
X183411917Y-123847900D02*
X183065250Y-123847900D01*
X127421133Y-148591917D02*
X127464466Y-148505250D01*
X127464466Y-148505250D02*
X127464466Y-148375250D01*
X127464466Y-148375250D02*
X127421133Y-148245250D01*
X127421133Y-148245250D02*
X127334466Y-148158584D01*
X127334466Y-148158584D02*
X127247800Y-148115250D01*
X127247800Y-148115250D02*
X127074466Y-148071917D01*
X127074466Y-148071917D02*
X126944466Y-148071917D01*
X126944466Y-148071917D02*
X126771133Y-148115250D01*
X126771133Y-148115250D02*
X126684466Y-148158584D01*
X126684466Y-148158584D02*
X126597800Y-148245250D01*
X126597800Y-148245250D02*
X126554466Y-148375250D01*
X126554466Y-148375250D02*
X126554466Y-148461917D01*
X126554466Y-148461917D02*
X126597800Y-148591917D01*
X126597800Y-148591917D02*
X126641133Y-148635250D01*
X126641133Y-148635250D02*
X126944466Y-148635250D01*
X126944466Y-148635250D02*
X126944466Y-148461917D01*
X127031133Y-149025250D02*
X127031133Y-149328584D01*
X126554466Y-149458584D02*
X126554466Y-149025250D01*
X126554466Y-149025250D02*
X127464466Y-149025250D01*
X127464466Y-149025250D02*
X127464466Y-149458584D01*
X126814466Y-149805250D02*
X126814466Y-150238583D01*
X126554466Y-149718583D02*
X127464466Y-150021917D01*
X127464466Y-150021917D02*
X126554466Y-150325250D01*
X126554466Y-151148583D02*
X126987800Y-150845250D01*
X126554466Y-150628583D02*
X127464466Y-150628583D01*
X127464466Y-150628583D02*
X127464466Y-150975250D01*
X127464466Y-150975250D02*
X127421133Y-151061917D01*
X127421133Y-151061917D02*
X127377800Y-151105250D01*
X127377800Y-151105250D02*
X127291133Y-151148583D01*
X127291133Y-151148583D02*
X127161133Y-151148583D01*
X127161133Y-151148583D02*
X127074466Y-151105250D01*
X127074466Y-151105250D02*
X127031133Y-151061917D01*
X127031133Y-151061917D02*
X126987800Y-150975250D01*
X126987800Y-150975250D02*
X126987800Y-150628583D01*
X134064466Y-102772017D02*
X134064466Y-103205350D01*
X133804466Y-102685350D02*
X134714466Y-102988684D01*
X134714466Y-102988684D02*
X133804466Y-103292017D01*
X134714466Y-103508684D02*
X133804466Y-104115350D01*
X134714466Y-104115350D02*
X133804466Y-103508684D01*
X133804466Y-104462017D02*
X134714466Y-104462017D01*
X133847800Y-104852017D02*
X133804466Y-104982017D01*
X133804466Y-104982017D02*
X133804466Y-105198684D01*
X133804466Y-105198684D02*
X133847800Y-105285350D01*
X133847800Y-105285350D02*
X133891133Y-105328684D01*
X133891133Y-105328684D02*
X133977800Y-105372017D01*
X133977800Y-105372017D02*
X134064466Y-105372017D01*
X134064466Y-105372017D02*
X134151133Y-105328684D01*
X134151133Y-105328684D02*
X134194466Y-105285350D01*
X134194466Y-105285350D02*
X134237800Y-105198684D01*
X134237800Y-105198684D02*
X134281133Y-105025350D01*
X134281133Y-105025350D02*
X134324466Y-104938684D01*
X134324466Y-104938684D02*
X134367800Y-104895350D01*
X134367800Y-104895350D02*
X134454466Y-104852017D01*
X134454466Y-104852017D02*
X134541133Y-104852017D01*
X134541133Y-104852017D02*
X134627800Y-104895350D01*
X134627800Y-104895350D02*
X134671133Y-104938684D01*
X134671133Y-104938684D02*
X134714466Y-105025350D01*
X134714466Y-105025350D02*
X134714466Y-105242017D01*
X134714466Y-105242017D02*
X134671133Y-105372017D01*
X134627800Y-106412017D02*
X134671133Y-106455350D01*
X134671133Y-106455350D02*
X134714466Y-106542017D01*
X134714466Y-106542017D02*
X134714466Y-106758684D01*
X134714466Y-106758684D02*
X134671133Y-106845350D01*
X134671133Y-106845350D02*
X134627800Y-106888684D01*
X134627800Y-106888684D02*
X134541133Y-106932017D01*
X134541133Y-106932017D02*
X134454466Y-106932017D01*
X134454466Y-106932017D02*
X134324466Y-106888684D01*
X134324466Y-106888684D02*
X133804466Y-106368684D01*
X133804466Y-106368684D02*
X133804466Y-106932017D01*
X192218866Y-84815450D02*
X192825533Y-84815450D01*
X192738866Y-84815450D02*
X192782200Y-84858784D01*
X192782200Y-84858784D02*
X192825533Y-84945450D01*
X192825533Y-84945450D02*
X192825533Y-85075450D01*
X192825533Y-85075450D02*
X192782200Y-85162117D01*
X192782200Y-85162117D02*
X192695533Y-85205450D01*
X192695533Y-85205450D02*
X192218866Y-85205450D01*
X192695533Y-85205450D02*
X192782200Y-85248784D01*
X192782200Y-85248784D02*
X192825533Y-85335450D01*
X192825533Y-85335450D02*
X192825533Y-85465450D01*
X192825533Y-85465450D02*
X192782200Y-85552117D01*
X192782200Y-85552117D02*
X192695533Y-85595450D01*
X192695533Y-85595450D02*
X192218866Y-85595450D01*
X192718966Y-75705350D02*
X193628966Y-75705350D01*
X192762300Y-75705350D02*
X192718966Y-75618684D01*
X192718966Y-75618684D02*
X192718966Y-75445350D01*
X192718966Y-75445350D02*
X192762300Y-75358684D01*
X192762300Y-75358684D02*
X192805633Y-75315350D01*
X192805633Y-75315350D02*
X192892300Y-75272017D01*
X192892300Y-75272017D02*
X193152300Y-75272017D01*
X193152300Y-75272017D02*
X193238966Y-75315350D01*
X193238966Y-75315350D02*
X193282300Y-75358684D01*
X193282300Y-75358684D02*
X193325633Y-75445350D01*
X193325633Y-75445350D02*
X193325633Y-75618684D01*
X193325633Y-75618684D02*
X193282300Y-75705350D01*
X193628966Y-76008683D02*
X192718966Y-76312017D01*
X192718966Y-76312017D02*
X193628966Y-76615350D01*
X193195633Y-76918683D02*
X193195633Y-77612017D01*
X192935633Y-77612017D02*
X192935633Y-76918683D01*
X192968966Y-79065350D02*
X193878966Y-79065350D01*
X193575633Y-81205450D02*
X192838966Y-81205450D01*
X192838966Y-81205450D02*
X192752300Y-81162117D01*
X192752300Y-81162117D02*
X192708966Y-81118784D01*
X192708966Y-81118784D02*
X192665633Y-81032117D01*
X192665633Y-81032117D02*
X192665633Y-80902117D01*
X192665633Y-80902117D02*
X192708966Y-80815450D01*
X193012300Y-81205450D02*
X192968966Y-81118784D01*
X192968966Y-81118784D02*
X192968966Y-80945450D01*
X192968966Y-80945450D02*
X193012300Y-80858784D01*
X193012300Y-80858784D02*
X193055633Y-80815450D01*
X193055633Y-80815450D02*
X193142300Y-80772117D01*
X193142300Y-80772117D02*
X193402300Y-80772117D01*
X193402300Y-80772117D02*
X193488966Y-80815450D01*
X193488966Y-80815450D02*
X193532300Y-80858784D01*
X193532300Y-80858784D02*
X193575633Y-80945450D01*
X193575633Y-80945450D02*
X193575633Y-81118784D01*
X193575633Y-81118784D02*
X193532300Y-81205450D01*
X192968966Y-83195350D02*
X193012300Y-83108684D01*
X193012300Y-83108684D02*
X193098966Y-83065350D01*
X193098966Y-83065350D02*
X193878966Y-83065350D01*
X193575633Y-83542017D02*
X192968966Y-83542017D01*
X193488966Y-83542017D02*
X193532300Y-83585351D01*
X193532300Y-83585351D02*
X193575633Y-83672017D01*
X193575633Y-83672017D02*
X193575633Y-83802017D01*
X193575633Y-83802017D02*
X193532300Y-83888684D01*
X193532300Y-83888684D02*
X193445633Y-83932017D01*
X193445633Y-83932017D02*
X192968966Y-83932017D01*
X193968966Y-84815450D02*
X194575633Y-84815450D01*
X194488966Y-84815450D02*
X194532300Y-84858784D01*
X194532300Y-84858784D02*
X194575633Y-84945450D01*
X194575633Y-84945450D02*
X194575633Y-85075450D01*
X194575633Y-85075450D02*
X194532300Y-85162117D01*
X194532300Y-85162117D02*
X194445633Y-85205450D01*
X194445633Y-85205450D02*
X193968966Y-85205450D01*
X194445633Y-85205450D02*
X194532300Y-85248784D01*
X194532300Y-85248784D02*
X194575633Y-85335450D01*
X194575633Y-85335450D02*
X194575633Y-85465450D01*
X194575633Y-85465450D02*
X194532300Y-85552117D01*
X194532300Y-85552117D02*
X194445633Y-85595450D01*
X194445633Y-85595450D02*
X193968966Y-85595450D01*
D13*
X101300076Y-70864058D02*
X101300076Y-71445011D01*
X100951504Y-70747868D02*
X102171504Y-71154535D01*
X102171504Y-71154535D02*
X100951504Y-71561201D01*
X100951504Y-71967868D02*
X102171504Y-71967868D01*
X102171504Y-71967868D02*
X100951504Y-72665011D01*
X100951504Y-72665011D02*
X102171504Y-72665011D01*
X101300076Y-73187867D02*
X101300076Y-73768820D01*
X100951504Y-73071677D02*
X102171504Y-73478344D01*
X102171504Y-73478344D02*
X100951504Y-73885010D01*
X100951504Y-74872629D02*
X100951504Y-74291677D01*
X100951504Y-74291677D02*
X102171504Y-74291677D01*
X102171504Y-75511677D02*
X102171504Y-75744058D01*
X102171504Y-75744058D02*
X102113409Y-75860248D01*
X102113409Y-75860248D02*
X101997219Y-75976439D01*
X101997219Y-75976439D02*
X101764838Y-76034534D01*
X101764838Y-76034534D02*
X101358171Y-76034534D01*
X101358171Y-76034534D02*
X101125790Y-75976439D01*
X101125790Y-75976439D02*
X101009600Y-75860248D01*
X101009600Y-75860248D02*
X100951504Y-75744058D01*
X100951504Y-75744058D02*
X100951504Y-75511677D01*
X100951504Y-75511677D02*
X101009600Y-75395486D01*
X101009600Y-75395486D02*
X101125790Y-75279296D01*
X101125790Y-75279296D02*
X101358171Y-75221200D01*
X101358171Y-75221200D02*
X101764838Y-75221200D01*
X101764838Y-75221200D02*
X101997219Y-75279296D01*
X101997219Y-75279296D02*
X102113409Y-75395486D01*
X102113409Y-75395486D02*
X102171504Y-75511677D01*
X102113409Y-77196438D02*
X102171504Y-77080248D01*
X102171504Y-77080248D02*
X102171504Y-76905962D01*
X102171504Y-76905962D02*
X102113409Y-76731676D01*
X102113409Y-76731676D02*
X101997219Y-76615486D01*
X101997219Y-76615486D02*
X101881028Y-76557391D01*
X101881028Y-76557391D02*
X101648647Y-76499295D01*
X101648647Y-76499295D02*
X101474361Y-76499295D01*
X101474361Y-76499295D02*
X101241980Y-76557391D01*
X101241980Y-76557391D02*
X101125790Y-76615486D01*
X101125790Y-76615486D02*
X101009600Y-76731676D01*
X101009600Y-76731676D02*
X100951504Y-76905962D01*
X100951504Y-76905962D02*
X100951504Y-77022153D01*
X100951504Y-77022153D02*
X101009600Y-77196438D01*
X101009600Y-77196438D02*
X101067695Y-77254534D01*
X101067695Y-77254534D02*
X101474361Y-77254534D01*
X101474361Y-77254534D02*
X101474361Y-77022153D01*
X100951504Y-78706915D02*
X102171504Y-78706915D01*
X102171504Y-78706915D02*
X101300076Y-79113581D01*
X101300076Y-79113581D02*
X102171504Y-79520248D01*
X102171504Y-79520248D02*
X100951504Y-79520248D01*
X102171504Y-80333582D02*
X102171504Y-80565963D01*
X102171504Y-80565963D02*
X102113409Y-80682153D01*
X102113409Y-80682153D02*
X101997219Y-80798344D01*
X101997219Y-80798344D02*
X101764838Y-80856439D01*
X101764838Y-80856439D02*
X101358171Y-80856439D01*
X101358171Y-80856439D02*
X101125790Y-80798344D01*
X101125790Y-80798344D02*
X101009600Y-80682153D01*
X101009600Y-80682153D02*
X100951504Y-80565963D01*
X100951504Y-80565963D02*
X100951504Y-80333582D01*
X100951504Y-80333582D02*
X101009600Y-80217391D01*
X101009600Y-80217391D02*
X101125790Y-80101201D01*
X101125790Y-80101201D02*
X101358171Y-80043105D01*
X101358171Y-80043105D02*
X101764838Y-80043105D01*
X101764838Y-80043105D02*
X101997219Y-80101201D01*
X101997219Y-80101201D02*
X102113409Y-80217391D01*
X102113409Y-80217391D02*
X102171504Y-80333582D01*
X100951504Y-81379296D02*
X102171504Y-81379296D01*
X102171504Y-81379296D02*
X102171504Y-81669772D01*
X102171504Y-81669772D02*
X102113409Y-81844058D01*
X102113409Y-81844058D02*
X101997219Y-81960248D01*
X101997219Y-81960248D02*
X101881028Y-82018343D01*
X101881028Y-82018343D02*
X101648647Y-82076439D01*
X101648647Y-82076439D02*
X101474361Y-82076439D01*
X101474361Y-82076439D02*
X101241980Y-82018343D01*
X101241980Y-82018343D02*
X101125790Y-81960248D01*
X101125790Y-81960248D02*
X101009600Y-81844058D01*
X101009600Y-81844058D02*
X100951504Y-81669772D01*
X100951504Y-81669772D02*
X100951504Y-81379296D01*
X102171504Y-82599296D02*
X101183885Y-82599296D01*
X101183885Y-82599296D02*
X101067695Y-82657391D01*
X101067695Y-82657391D02*
X101009600Y-82715486D01*
X101009600Y-82715486D02*
X100951504Y-82831677D01*
X100951504Y-82831677D02*
X100951504Y-83064058D01*
X100951504Y-83064058D02*
X101009600Y-83180248D01*
X101009600Y-83180248D02*
X101067695Y-83238343D01*
X101067695Y-83238343D02*
X101183885Y-83296439D01*
X101183885Y-83296439D02*
X102171504Y-83296439D01*
X100951504Y-84458343D02*
X100951504Y-83877391D01*
X100951504Y-83877391D02*
X102171504Y-83877391D01*
X101590552Y-84865010D02*
X101590552Y-85271676D01*
X100951504Y-85445962D02*
X100951504Y-84865010D01*
X100951504Y-84865010D02*
X102171504Y-84865010D01*
X102171504Y-84865010D02*
X102171504Y-85445962D01*
X101764838Y-86782153D02*
X100951504Y-87072629D01*
X100951504Y-87072629D02*
X101764838Y-87363106D01*
X100951504Y-88466915D02*
X100951504Y-87769772D01*
X100951504Y-88118344D02*
X102171504Y-88118344D01*
X102171504Y-88118344D02*
X101997219Y-88002153D01*
X101997219Y-88002153D02*
X101881028Y-87885963D01*
X101881028Y-87885963D02*
X101822933Y-87769772D01*
X101067695Y-88989773D02*
X101009600Y-89047868D01*
X101009600Y-89047868D02*
X100951504Y-88989773D01*
X100951504Y-88989773D02*
X101009600Y-88931677D01*
X101009600Y-88931677D02*
X101067695Y-88989773D01*
X101067695Y-88989773D02*
X100951504Y-88989773D01*
X101648647Y-89745010D02*
X101706742Y-89628820D01*
X101706742Y-89628820D02*
X101764838Y-89570725D01*
X101764838Y-89570725D02*
X101881028Y-89512629D01*
X101881028Y-89512629D02*
X101939123Y-89512629D01*
X101939123Y-89512629D02*
X102055314Y-89570725D01*
X102055314Y-89570725D02*
X102113409Y-89628820D01*
X102113409Y-89628820D02*
X102171504Y-89745010D01*
X102171504Y-89745010D02*
X102171504Y-89977391D01*
X102171504Y-89977391D02*
X102113409Y-90093582D01*
X102113409Y-90093582D02*
X102055314Y-90151677D01*
X102055314Y-90151677D02*
X101939123Y-90209772D01*
X101939123Y-90209772D02*
X101881028Y-90209772D01*
X101881028Y-90209772D02*
X101764838Y-90151677D01*
X101764838Y-90151677D02*
X101706742Y-90093582D01*
X101706742Y-90093582D02*
X101648647Y-89977391D01*
X101648647Y-89977391D02*
X101648647Y-89745010D01*
X101648647Y-89745010D02*
X101590552Y-89628820D01*
X101590552Y-89628820D02*
X101532457Y-89570725D01*
X101532457Y-89570725D02*
X101416266Y-89512629D01*
X101416266Y-89512629D02*
X101183885Y-89512629D01*
X101183885Y-89512629D02*
X101067695Y-89570725D01*
X101067695Y-89570725D02*
X101009600Y-89628820D01*
X101009600Y-89628820D02*
X100951504Y-89745010D01*
X100951504Y-89745010D02*
X100951504Y-89977391D01*
X100951504Y-89977391D02*
X101009600Y-90093582D01*
X101009600Y-90093582D02*
X101067695Y-90151677D01*
X101067695Y-90151677D02*
X101183885Y-90209772D01*
X101183885Y-90209772D02*
X101416266Y-90209772D01*
X101416266Y-90209772D02*
X101532457Y-90151677D01*
X101532457Y-90151677D02*
X101590552Y-90093582D01*
X101590552Y-90093582D02*
X101648647Y-89977391D01*
X110519673Y-61067219D02*
X110519673Y-62386742D01*
X110519673Y-62386742D02*
X110597292Y-62541980D01*
X110597292Y-62541980D02*
X110674911Y-62619600D01*
X110674911Y-62619600D02*
X110830149Y-62697219D01*
X110830149Y-62697219D02*
X111140625Y-62697219D01*
X111140625Y-62697219D02*
X111295863Y-62619600D01*
X111295863Y-62619600D02*
X111373482Y-62541980D01*
X111373482Y-62541980D02*
X111451101Y-62386742D01*
X111451101Y-62386742D02*
X111451101Y-61067219D01*
X112227292Y-62697219D02*
X112227292Y-61067219D01*
X112227292Y-61067219D02*
X113158720Y-62697219D01*
X113158720Y-62697219D02*
X113158720Y-61067219D01*
X113702054Y-61067219D02*
X114633482Y-61067219D01*
X114167768Y-62697219D02*
X114167768Y-61067219D01*
X115176816Y-62697219D02*
X115176816Y-61067219D01*
X115720149Y-61067219D02*
X116651577Y-61067219D01*
X116185863Y-62697219D02*
X116185863Y-61067219D01*
X117971101Y-62697219D02*
X117194911Y-62697219D01*
X117194911Y-62697219D02*
X117194911Y-61067219D01*
X118514435Y-61843409D02*
X119057768Y-61843409D01*
X119290625Y-62697219D02*
X118514435Y-62697219D01*
X118514435Y-62697219D02*
X118514435Y-61067219D01*
X118514435Y-61067219D02*
X119290625Y-61067219D01*
X119989197Y-62697219D02*
X119989197Y-61067219D01*
X119989197Y-61067219D02*
X120377292Y-61067219D01*
X120377292Y-61067219D02*
X120610149Y-61144838D01*
X120610149Y-61144838D02*
X120765387Y-61300076D01*
X120765387Y-61300076D02*
X120843006Y-61455314D01*
X120843006Y-61455314D02*
X120920625Y-61765790D01*
X120920625Y-61765790D02*
X120920625Y-61998647D01*
X120920625Y-61998647D02*
X120843006Y-62309123D01*
X120843006Y-62309123D02*
X120765387Y-62464361D01*
X120765387Y-62464361D02*
X120610149Y-62619600D01*
X120610149Y-62619600D02*
X120377292Y-62697219D01*
X120377292Y-62697219D02*
X119989197Y-62697219D01*
X122783483Y-62619600D02*
X123016340Y-62697219D01*
X123016340Y-62697219D02*
X123404435Y-62697219D01*
X123404435Y-62697219D02*
X123559673Y-62619600D01*
X123559673Y-62619600D02*
X123637292Y-62541980D01*
X123637292Y-62541980D02*
X123714911Y-62386742D01*
X123714911Y-62386742D02*
X123714911Y-62231504D01*
X123714911Y-62231504D02*
X123637292Y-62076266D01*
X123637292Y-62076266D02*
X123559673Y-61998647D01*
X123559673Y-61998647D02*
X123404435Y-61921028D01*
X123404435Y-61921028D02*
X123093959Y-61843409D01*
X123093959Y-61843409D02*
X122938721Y-61765790D01*
X122938721Y-61765790D02*
X122861102Y-61688171D01*
X122861102Y-61688171D02*
X122783483Y-61532933D01*
X122783483Y-61532933D02*
X122783483Y-61377695D01*
X122783483Y-61377695D02*
X122861102Y-61222457D01*
X122861102Y-61222457D02*
X122938721Y-61144838D01*
X122938721Y-61144838D02*
X123093959Y-61067219D01*
X123093959Y-61067219D02*
X123482054Y-61067219D01*
X123482054Y-61067219D02*
X123714911Y-61144838D01*
X124413483Y-62697219D02*
X124413483Y-61067219D01*
X124413483Y-61067219D02*
X125034435Y-61067219D01*
X125034435Y-61067219D02*
X125189673Y-61144838D01*
X125189673Y-61144838D02*
X125267292Y-61222457D01*
X125267292Y-61222457D02*
X125344911Y-61377695D01*
X125344911Y-61377695D02*
X125344911Y-61610552D01*
X125344911Y-61610552D02*
X125267292Y-61765790D01*
X125267292Y-61765790D02*
X125189673Y-61843409D01*
X125189673Y-61843409D02*
X125034435Y-61921028D01*
X125034435Y-61921028D02*
X124413483Y-61921028D01*
X125965864Y-62231504D02*
X126742054Y-62231504D01*
X125810626Y-62697219D02*
X126353959Y-61067219D01*
X126353959Y-61067219D02*
X126897292Y-62697219D01*
X128372054Y-62541980D02*
X128294435Y-62619600D01*
X128294435Y-62619600D02*
X128061578Y-62697219D01*
X128061578Y-62697219D02*
X127906340Y-62697219D01*
X127906340Y-62697219D02*
X127673483Y-62619600D01*
X127673483Y-62619600D02*
X127518245Y-62464361D01*
X127518245Y-62464361D02*
X127440626Y-62309123D01*
X127440626Y-62309123D02*
X127363007Y-61998647D01*
X127363007Y-61998647D02*
X127363007Y-61765790D01*
X127363007Y-61765790D02*
X127440626Y-61455314D01*
X127440626Y-61455314D02*
X127518245Y-61300076D01*
X127518245Y-61300076D02*
X127673483Y-61144838D01*
X127673483Y-61144838D02*
X127906340Y-61067219D01*
X127906340Y-61067219D02*
X128061578Y-61067219D01*
X128061578Y-61067219D02*
X128294435Y-61144838D01*
X128294435Y-61144838D02*
X128372054Y-61222457D01*
X129070626Y-61843409D02*
X129613959Y-61843409D01*
X129846816Y-62697219D02*
X129070626Y-62697219D01*
X129070626Y-62697219D02*
X129070626Y-61067219D01*
X129070626Y-61067219D02*
X129846816Y-61067219D01*
X132718721Y-62541980D02*
X132641102Y-62619600D01*
X132641102Y-62619600D02*
X132408245Y-62697219D01*
X132408245Y-62697219D02*
X132253007Y-62697219D01*
X132253007Y-62697219D02*
X132020150Y-62619600D01*
X132020150Y-62619600D02*
X131864912Y-62464361D01*
X131864912Y-62464361D02*
X131787293Y-62309123D01*
X131787293Y-62309123D02*
X131709674Y-61998647D01*
X131709674Y-61998647D02*
X131709674Y-61765790D01*
X131709674Y-61765790D02*
X131787293Y-61455314D01*
X131787293Y-61455314D02*
X131864912Y-61300076D01*
X131864912Y-61300076D02*
X132020150Y-61144838D01*
X132020150Y-61144838D02*
X132253007Y-61067219D01*
X132253007Y-61067219D02*
X132408245Y-61067219D01*
X132408245Y-61067219D02*
X132641102Y-61144838D01*
X132641102Y-61144838D02*
X132718721Y-61222457D01*
X134348721Y-62697219D02*
X133805388Y-61921028D01*
X133417293Y-62697219D02*
X133417293Y-61067219D01*
X133417293Y-61067219D02*
X134038245Y-61067219D01*
X134038245Y-61067219D02*
X134193483Y-61144838D01*
X134193483Y-61144838D02*
X134271102Y-61222457D01*
X134271102Y-61222457D02*
X134348721Y-61377695D01*
X134348721Y-61377695D02*
X134348721Y-61610552D01*
X134348721Y-61610552D02*
X134271102Y-61765790D01*
X134271102Y-61765790D02*
X134193483Y-61843409D01*
X134193483Y-61843409D02*
X134038245Y-61921028D01*
X134038245Y-61921028D02*
X133417293Y-61921028D01*
X134969674Y-62231504D02*
X135745864Y-62231504D01*
X134814436Y-62697219D02*
X135357769Y-61067219D01*
X135357769Y-61067219D02*
X135901102Y-62697219D01*
X136987769Y-61843409D02*
X136444436Y-61843409D01*
X136444436Y-62697219D02*
X136444436Y-61067219D01*
X136444436Y-61067219D02*
X137220626Y-61067219D01*
X137608722Y-61067219D02*
X138540150Y-61067219D01*
X138074436Y-62697219D02*
X138074436Y-61067219D01*
X174701101Y-62541980D02*
X174623482Y-62619600D01*
X174623482Y-62619600D02*
X174390625Y-62697219D01*
X174390625Y-62697219D02*
X174235387Y-62697219D01*
X174235387Y-62697219D02*
X174002530Y-62619600D01*
X174002530Y-62619600D02*
X173847292Y-62464361D01*
X173847292Y-62464361D02*
X173769673Y-62309123D01*
X173769673Y-62309123D02*
X173692054Y-61998647D01*
X173692054Y-61998647D02*
X173692054Y-61765790D01*
X173692054Y-61765790D02*
X173769673Y-61455314D01*
X173769673Y-61455314D02*
X173847292Y-61300076D01*
X173847292Y-61300076D02*
X174002530Y-61144838D01*
X174002530Y-61144838D02*
X174235387Y-61067219D01*
X174235387Y-61067219D02*
X174390625Y-61067219D01*
X174390625Y-61067219D02*
X174623482Y-61144838D01*
X174623482Y-61144838D02*
X174701101Y-61222457D01*
X175710149Y-61067219D02*
X176020625Y-61067219D01*
X176020625Y-61067219D02*
X176175863Y-61144838D01*
X176175863Y-61144838D02*
X176331101Y-61300076D01*
X176331101Y-61300076D02*
X176408720Y-61610552D01*
X176408720Y-61610552D02*
X176408720Y-62153885D01*
X176408720Y-62153885D02*
X176331101Y-62464361D01*
X176331101Y-62464361D02*
X176175863Y-62619600D01*
X176175863Y-62619600D02*
X176020625Y-62697219D01*
X176020625Y-62697219D02*
X175710149Y-62697219D01*
X175710149Y-62697219D02*
X175554911Y-62619600D01*
X175554911Y-62619600D02*
X175399673Y-62464361D01*
X175399673Y-62464361D02*
X175322054Y-62153885D01*
X175322054Y-62153885D02*
X175322054Y-61610552D01*
X175322054Y-61610552D02*
X175399673Y-61300076D01*
X175399673Y-61300076D02*
X175554911Y-61144838D01*
X175554911Y-61144838D02*
X175710149Y-61067219D01*
X177107292Y-62697219D02*
X177107292Y-61067219D01*
X177107292Y-61067219D02*
X177495387Y-61067219D01*
X177495387Y-61067219D02*
X177728244Y-61144838D01*
X177728244Y-61144838D02*
X177883482Y-61300076D01*
X177883482Y-61300076D02*
X177961101Y-61455314D01*
X177961101Y-61455314D02*
X178038720Y-61765790D01*
X178038720Y-61765790D02*
X178038720Y-61998647D01*
X178038720Y-61998647D02*
X177961101Y-62309123D01*
X177961101Y-62309123D02*
X177883482Y-62464361D01*
X177883482Y-62464361D02*
X177728244Y-62619600D01*
X177728244Y-62619600D02*
X177495387Y-62697219D01*
X177495387Y-62697219D02*
X177107292Y-62697219D01*
X178659673Y-62231504D02*
X179435863Y-62231504D01*
X178504435Y-62697219D02*
X179047768Y-61067219D01*
X179047768Y-61067219D02*
X179591101Y-62697219D01*
X180134435Y-62697219D02*
X180134435Y-61067219D01*
X180134435Y-61067219D02*
X180755387Y-61067219D01*
X180755387Y-61067219D02*
X180910625Y-61144838D01*
X180910625Y-61144838D02*
X180988244Y-61222457D01*
X180988244Y-61222457D02*
X181065863Y-61377695D01*
X181065863Y-61377695D02*
X181065863Y-61610552D01*
X181065863Y-61610552D02*
X180988244Y-61765790D01*
X180988244Y-61765790D02*
X180910625Y-61843409D01*
X180910625Y-61843409D02*
X180755387Y-61921028D01*
X180755387Y-61921028D02*
X180134435Y-61921028D01*
X182074911Y-61067219D02*
X182385387Y-61067219D01*
X182385387Y-61067219D02*
X182540625Y-61144838D01*
X182540625Y-61144838D02*
X182695863Y-61300076D01*
X182695863Y-61300076D02*
X182773482Y-61610552D01*
X182773482Y-61610552D02*
X182773482Y-62153885D01*
X182773482Y-62153885D02*
X182695863Y-62464361D01*
X182695863Y-62464361D02*
X182540625Y-62619600D01*
X182540625Y-62619600D02*
X182385387Y-62697219D01*
X182385387Y-62697219D02*
X182074911Y-62697219D01*
X182074911Y-62697219D02*
X181919673Y-62619600D01*
X181919673Y-62619600D02*
X181764435Y-62464361D01*
X181764435Y-62464361D02*
X181686816Y-62153885D01*
X181686816Y-62153885D02*
X181686816Y-61610552D01*
X181686816Y-61610552D02*
X181764435Y-61300076D01*
X181764435Y-61300076D02*
X181919673Y-61144838D01*
X181919673Y-61144838D02*
X182074911Y-61067219D01*
X183472054Y-62697219D02*
X183472054Y-61067219D01*
X183472054Y-61067219D02*
X184093006Y-61067219D01*
X184093006Y-61067219D02*
X184248244Y-61144838D01*
X184248244Y-61144838D02*
X184325863Y-61222457D01*
X184325863Y-61222457D02*
X184403482Y-61377695D01*
X184403482Y-61377695D02*
X184403482Y-61610552D01*
X184403482Y-61610552D02*
X184325863Y-61765790D01*
X184325863Y-61765790D02*
X184248244Y-61843409D01*
X184248244Y-61843409D02*
X184093006Y-61921028D01*
X184093006Y-61921028D02*
X183472054Y-61921028D01*
X185102054Y-62697219D02*
X185102054Y-61067219D01*
X186033482Y-62697219D02*
X185334911Y-61765790D01*
X186033482Y-61067219D02*
X185102054Y-61998647D01*
X186654435Y-62619600D02*
X186887292Y-62697219D01*
X186887292Y-62697219D02*
X187275387Y-62697219D01*
X187275387Y-62697219D02*
X187430625Y-62619600D01*
X187430625Y-62619600D02*
X187508244Y-62541980D01*
X187508244Y-62541980D02*
X187585863Y-62386742D01*
X187585863Y-62386742D02*
X187585863Y-62231504D01*
X187585863Y-62231504D02*
X187508244Y-62076266D01*
X187508244Y-62076266D02*
X187430625Y-61998647D01*
X187430625Y-61998647D02*
X187275387Y-61921028D01*
X187275387Y-61921028D02*
X186964911Y-61843409D01*
X186964911Y-61843409D02*
X186809673Y-61765790D01*
X186809673Y-61765790D02*
X186732054Y-61688171D01*
X186732054Y-61688171D02*
X186654435Y-61532933D01*
X186654435Y-61532933D02*
X186654435Y-61377695D01*
X186654435Y-61377695D02*
X186732054Y-61222457D01*
X186732054Y-61222457D02*
X186809673Y-61144838D01*
X186809673Y-61144838D02*
X186964911Y-61067219D01*
X186964911Y-61067219D02*
X187353006Y-61067219D01*
X187353006Y-61067219D02*
X187585863Y-61144838D01*
X188284435Y-62697219D02*
X188284435Y-61067219D01*
X188284435Y-61067219D02*
X188905387Y-61067219D01*
X188905387Y-61067219D02*
X189060625Y-61144838D01*
X189060625Y-61144838D02*
X189138244Y-61222457D01*
X189138244Y-61222457D02*
X189215863Y-61377695D01*
X189215863Y-61377695D02*
X189215863Y-61610552D01*
X189215863Y-61610552D02*
X189138244Y-61765790D01*
X189138244Y-61765790D02*
X189060625Y-61843409D01*
X189060625Y-61843409D02*
X188905387Y-61921028D01*
X188905387Y-61921028D02*
X188284435Y-61921028D01*
X146302780Y-134519673D02*
X147932780Y-134519673D01*
X147932780Y-134519673D02*
X147932780Y-134907768D01*
X147932780Y-134907768D02*
X147855161Y-135140625D01*
X147855161Y-135140625D02*
X147699923Y-135295863D01*
X147699923Y-135295863D02*
X147544685Y-135373482D01*
X147544685Y-135373482D02*
X147234209Y-135451101D01*
X147234209Y-135451101D02*
X147001352Y-135451101D01*
X147001352Y-135451101D02*
X146690876Y-135373482D01*
X146690876Y-135373482D02*
X146535638Y-135295863D01*
X146535638Y-135295863D02*
X146380400Y-135140625D01*
X146380400Y-135140625D02*
X146302780Y-134907768D01*
X146302780Y-134907768D02*
X146302780Y-134519673D01*
X146768495Y-136072054D02*
X146768495Y-136848244D01*
X146302780Y-135916816D02*
X147932780Y-136460149D01*
X147932780Y-136460149D02*
X146302780Y-137003482D01*
X147932780Y-137313959D02*
X147932780Y-138245387D01*
X146302780Y-137779673D02*
X147932780Y-137779673D01*
X146768495Y-138711102D02*
X146768495Y-139487292D01*
X146302780Y-138555864D02*
X147932780Y-139099197D01*
X147932780Y-139099197D02*
X146302780Y-139642530D01*
X147156590Y-141971102D02*
X147078971Y-142203959D01*
X147078971Y-142203959D02*
X147001352Y-142281578D01*
X147001352Y-142281578D02*
X146846114Y-142359197D01*
X146846114Y-142359197D02*
X146613257Y-142359197D01*
X146613257Y-142359197D02*
X146458019Y-142281578D01*
X146458019Y-142281578D02*
X146380400Y-142203959D01*
X146380400Y-142203959D02*
X146302780Y-142048721D01*
X146302780Y-142048721D02*
X146302780Y-141427769D01*
X146302780Y-141427769D02*
X147932780Y-141427769D01*
X147932780Y-141427769D02*
X147932780Y-141971102D01*
X147932780Y-141971102D02*
X147855161Y-142126340D01*
X147855161Y-142126340D02*
X147777542Y-142203959D01*
X147777542Y-142203959D02*
X147622304Y-142281578D01*
X147622304Y-142281578D02*
X147467066Y-142281578D01*
X147467066Y-142281578D02*
X147311828Y-142203959D01*
X147311828Y-142203959D02*
X147234209Y-142126340D01*
X147234209Y-142126340D02*
X147156590Y-141971102D01*
X147156590Y-141971102D02*
X147156590Y-141427769D01*
X147932780Y-143057769D02*
X146613257Y-143057769D01*
X146613257Y-143057769D02*
X146458019Y-143135388D01*
X146458019Y-143135388D02*
X146380400Y-143213007D01*
X146380400Y-143213007D02*
X146302780Y-143368245D01*
X146302780Y-143368245D02*
X146302780Y-143678721D01*
X146302780Y-143678721D02*
X146380400Y-143833959D01*
X146380400Y-143833959D02*
X146458019Y-143911578D01*
X146458019Y-143911578D02*
X146613257Y-143989197D01*
X146613257Y-143989197D02*
X147932780Y-143989197D01*
X146380400Y-144687769D02*
X146302780Y-144920626D01*
X146302780Y-144920626D02*
X146302780Y-145308721D01*
X146302780Y-145308721D02*
X146380400Y-145463959D01*
X146380400Y-145463959D02*
X146458019Y-145541578D01*
X146458019Y-145541578D02*
X146613257Y-145619197D01*
X146613257Y-145619197D02*
X146768495Y-145619197D01*
X146768495Y-145619197D02*
X146923733Y-145541578D01*
X146923733Y-145541578D02*
X147001352Y-145463959D01*
X147001352Y-145463959D02*
X147078971Y-145308721D01*
X147078971Y-145308721D02*
X147156590Y-144998245D01*
X147156590Y-144998245D02*
X147234209Y-144843007D01*
X147234209Y-144843007D02*
X147311828Y-144765388D01*
X147311828Y-144765388D02*
X147467066Y-144687769D01*
X147467066Y-144687769D02*
X147622304Y-144687769D01*
X147622304Y-144687769D02*
X147777542Y-144765388D01*
X147777542Y-144765388D02*
X147855161Y-144843007D01*
X147855161Y-144843007D02*
X147932780Y-144998245D01*
X147932780Y-144998245D02*
X147932780Y-145386340D01*
X147932780Y-145386340D02*
X147855161Y-145619197D01*
X146458019Y-148491102D02*
X146380400Y-148413483D01*
X146380400Y-148413483D02*
X146302780Y-148180626D01*
X146302780Y-148180626D02*
X146302780Y-148025388D01*
X146302780Y-148025388D02*
X146380400Y-147792531D01*
X146380400Y-147792531D02*
X146535638Y-147637293D01*
X146535638Y-147637293D02*
X146690876Y-147559674D01*
X146690876Y-147559674D02*
X147001352Y-147482055D01*
X147001352Y-147482055D02*
X147234209Y-147482055D01*
X147234209Y-147482055D02*
X147544685Y-147559674D01*
X147544685Y-147559674D02*
X147699923Y-147637293D01*
X147699923Y-147637293D02*
X147855161Y-147792531D01*
X147855161Y-147792531D02*
X147932780Y-148025388D01*
X147932780Y-148025388D02*
X147932780Y-148180626D01*
X147932780Y-148180626D02*
X147855161Y-148413483D01*
X147855161Y-148413483D02*
X147777542Y-148491102D01*
X147932780Y-149500150D02*
X147932780Y-149810626D01*
X147932780Y-149810626D02*
X147855161Y-149965864D01*
X147855161Y-149965864D02*
X147699923Y-150121102D01*
X147699923Y-150121102D02*
X147389447Y-150198721D01*
X147389447Y-150198721D02*
X146846114Y-150198721D01*
X146846114Y-150198721D02*
X146535638Y-150121102D01*
X146535638Y-150121102D02*
X146380400Y-149965864D01*
X146380400Y-149965864D02*
X146302780Y-149810626D01*
X146302780Y-149810626D02*
X146302780Y-149500150D01*
X146302780Y-149500150D02*
X146380400Y-149344912D01*
X146380400Y-149344912D02*
X146535638Y-149189674D01*
X146535638Y-149189674D02*
X146846114Y-149112055D01*
X146846114Y-149112055D02*
X147389447Y-149112055D01*
X147389447Y-149112055D02*
X147699923Y-149189674D01*
X147699923Y-149189674D02*
X147855161Y-149344912D01*
X147855161Y-149344912D02*
X147932780Y-149500150D01*
X146302780Y-150897293D02*
X147932780Y-150897293D01*
X147932780Y-150897293D02*
X146302780Y-151828721D01*
X146302780Y-151828721D02*
X147932780Y-151828721D01*
X146302780Y-152604912D02*
X147932780Y-152604912D01*
X147932780Y-152604912D02*
X146302780Y-153536340D01*
X146302780Y-153536340D02*
X147932780Y-153536340D01*
D14*
X164517777Y-130821117D02*
X164517777Y-131561346D01*
X164517777Y-131561346D02*
X164561320Y-131648432D01*
X164561320Y-131648432D02*
X164604863Y-131691975D01*
X164604863Y-131691975D02*
X164691948Y-131735517D01*
X164691948Y-131735517D02*
X164866120Y-131735517D01*
X164866120Y-131735517D02*
X164953205Y-131691975D01*
X164953205Y-131691975D02*
X164996748Y-131648432D01*
X164996748Y-131648432D02*
X165040291Y-131561346D01*
X165040291Y-131561346D02*
X165040291Y-130821117D01*
X165867606Y-131125917D02*
X165867606Y-131735517D01*
X165649891Y-130777575D02*
X165432177Y-131430717D01*
X165432177Y-131430717D02*
X165998234Y-131430717D01*
D15*
X109957801Y-126711611D02*
X109914258Y-126755154D01*
X109914258Y-126755154D02*
X109783630Y-126798696D01*
X109783630Y-126798696D02*
X109696544Y-126798696D01*
X109696544Y-126798696D02*
X109565915Y-126755154D01*
X109565915Y-126755154D02*
X109478830Y-126668068D01*
X109478830Y-126668068D02*
X109435287Y-126580982D01*
X109435287Y-126580982D02*
X109391744Y-126406811D01*
X109391744Y-126406811D02*
X109391744Y-126276182D01*
X109391744Y-126276182D02*
X109435287Y-126102011D01*
X109435287Y-126102011D02*
X109478830Y-126014925D01*
X109478830Y-126014925D02*
X109565915Y-125927839D01*
X109565915Y-125927839D02*
X109696544Y-125884296D01*
X109696544Y-125884296D02*
X109783630Y-125884296D01*
X109783630Y-125884296D02*
X109914258Y-125927839D01*
X109914258Y-125927839D02*
X109957801Y-125971382D01*
X110828658Y-126798696D02*
X110306144Y-126798696D01*
X110567401Y-126798696D02*
X110567401Y-125884296D01*
X110567401Y-125884296D02*
X110480315Y-126014925D01*
X110480315Y-126014925D02*
X110393230Y-126102011D01*
X110393230Y-126102011D02*
X110306144Y-126145554D01*
X163607201Y-124448696D02*
X163302401Y-124013268D01*
X163084687Y-124448696D02*
X163084687Y-123534296D01*
X163084687Y-123534296D02*
X163433030Y-123534296D01*
X163433030Y-123534296D02*
X163520115Y-123577839D01*
X163520115Y-123577839D02*
X163563658Y-123621382D01*
X163563658Y-123621382D02*
X163607201Y-123708468D01*
X163607201Y-123708468D02*
X163607201Y-123839096D01*
X163607201Y-123839096D02*
X163563658Y-123926182D01*
X163563658Y-123926182D02*
X163520115Y-123969725D01*
X163520115Y-123969725D02*
X163433030Y-124013268D01*
X163433030Y-124013268D02*
X163084687Y-124013268D01*
X164434515Y-123534296D02*
X163999087Y-123534296D01*
X163999087Y-123534296D02*
X163955544Y-123969725D01*
X163955544Y-123969725D02*
X163999087Y-123926182D01*
X163999087Y-123926182D02*
X164086173Y-123882639D01*
X164086173Y-123882639D02*
X164303887Y-123882639D01*
X164303887Y-123882639D02*
X164390973Y-123926182D01*
X164390973Y-123926182D02*
X164434515Y-123969725D01*
X164434515Y-123969725D02*
X164478058Y-124056811D01*
X164478058Y-124056811D02*
X164478058Y-124274525D01*
X164478058Y-124274525D02*
X164434515Y-124361611D01*
X164434515Y-124361611D02*
X164390973Y-124405154D01*
X164390973Y-124405154D02*
X164303887Y-124448696D01*
X164303887Y-124448696D02*
X164086173Y-124448696D01*
X164086173Y-124448696D02*
X163999087Y-124405154D01*
X163999087Y-124405154D02*
X163955544Y-124361611D01*
X165584687Y-124100354D02*
X166281373Y-124100354D01*
X167892458Y-124448696D02*
X167369944Y-124448696D01*
X167631201Y-124448696D02*
X167631201Y-123534296D01*
X167631201Y-123534296D02*
X167544115Y-123664925D01*
X167544115Y-123664925D02*
X167457030Y-123752011D01*
X167457030Y-123752011D02*
X167369944Y-123795554D01*
X168458515Y-123534296D02*
X168545601Y-123534296D01*
X168545601Y-123534296D02*
X168632687Y-123577839D01*
X168632687Y-123577839D02*
X168676230Y-123621382D01*
X168676230Y-123621382D02*
X168719772Y-123708468D01*
X168719772Y-123708468D02*
X168763315Y-123882639D01*
X168763315Y-123882639D02*
X168763315Y-124100354D01*
X168763315Y-124100354D02*
X168719772Y-124274525D01*
X168719772Y-124274525D02*
X168676230Y-124361611D01*
X168676230Y-124361611D02*
X168632687Y-124405154D01*
X168632687Y-124405154D02*
X168545601Y-124448696D01*
X168545601Y-124448696D02*
X168458515Y-124448696D01*
X168458515Y-124448696D02*
X168371430Y-124405154D01*
X168371430Y-124405154D02*
X168327887Y-124361611D01*
X168327887Y-124361611D02*
X168284344Y-124274525D01*
X168284344Y-124274525D02*
X168240801Y-124100354D01*
X168240801Y-124100354D02*
X168240801Y-123882639D01*
X168240801Y-123882639D02*
X168284344Y-123708468D01*
X168284344Y-123708468D02*
X168327887Y-123621382D01*
X168327887Y-123621382D02*
X168371430Y-123577839D01*
X168371430Y-123577839D02*
X168458515Y-123534296D01*
X169155201Y-124448696D02*
X169155201Y-123534296D01*
X169677715Y-124448696D02*
X169285829Y-123926182D01*
X169677715Y-123534296D02*
X169155201Y-124056811D01*
X157607201Y-155948696D02*
X157302401Y-155513268D01*
X157084687Y-155948696D02*
X157084687Y-155034296D01*
X157084687Y-155034296D02*
X157433030Y-155034296D01*
X157433030Y-155034296D02*
X157520115Y-155077839D01*
X157520115Y-155077839D02*
X157563658Y-155121382D01*
X157563658Y-155121382D02*
X157607201Y-155208468D01*
X157607201Y-155208468D02*
X157607201Y-155339096D01*
X157607201Y-155339096D02*
X157563658Y-155426182D01*
X157563658Y-155426182D02*
X157520115Y-155469725D01*
X157520115Y-155469725D02*
X157433030Y-155513268D01*
X157433030Y-155513268D02*
X157084687Y-155513268D01*
X157955544Y-155121382D02*
X157999087Y-155077839D01*
X157999087Y-155077839D02*
X158086173Y-155034296D01*
X158086173Y-155034296D02*
X158303887Y-155034296D01*
X158303887Y-155034296D02*
X158390973Y-155077839D01*
X158390973Y-155077839D02*
X158434515Y-155121382D01*
X158434515Y-155121382D02*
X158478058Y-155208468D01*
X158478058Y-155208468D02*
X158478058Y-155295554D01*
X158478058Y-155295554D02*
X158434515Y-155426182D01*
X158434515Y-155426182D02*
X157912001Y-155948696D01*
X157912001Y-155948696D02*
X158478058Y-155948696D01*
X159584687Y-155600354D02*
X160281373Y-155600354D01*
X161892458Y-155948696D02*
X161369944Y-155948696D01*
X161631201Y-155948696D02*
X161631201Y-155034296D01*
X161631201Y-155034296D02*
X161544115Y-155164925D01*
X161544115Y-155164925D02*
X161457030Y-155252011D01*
X161457030Y-155252011D02*
X161369944Y-155295554D01*
X162458515Y-155034296D02*
X162545601Y-155034296D01*
X162545601Y-155034296D02*
X162632687Y-155077839D01*
X162632687Y-155077839D02*
X162676230Y-155121382D01*
X162676230Y-155121382D02*
X162719772Y-155208468D01*
X162719772Y-155208468D02*
X162763315Y-155382639D01*
X162763315Y-155382639D02*
X162763315Y-155600354D01*
X162763315Y-155600354D02*
X162719772Y-155774525D01*
X162719772Y-155774525D02*
X162676230Y-155861611D01*
X162676230Y-155861611D02*
X162632687Y-155905154D01*
X162632687Y-155905154D02*
X162545601Y-155948696D01*
X162545601Y-155948696D02*
X162458515Y-155948696D01*
X162458515Y-155948696D02*
X162371430Y-155905154D01*
X162371430Y-155905154D02*
X162327887Y-155861611D01*
X162327887Y-155861611D02*
X162284344Y-155774525D01*
X162284344Y-155774525D02*
X162240801Y-155600354D01*
X162240801Y-155600354D02*
X162240801Y-155382639D01*
X162240801Y-155382639D02*
X162284344Y-155208468D01*
X162284344Y-155208468D02*
X162327887Y-155121382D01*
X162327887Y-155121382D02*
X162371430Y-155077839D01*
X162371430Y-155077839D02*
X162458515Y-155034296D01*
X163155201Y-155948696D02*
X163155201Y-155034296D01*
X163677715Y-155948696D02*
X163285829Y-155426182D01*
X163677715Y-155034296D02*
X163155201Y-155556811D01*
X152905901Y-132599111D02*
X152862358Y-132642654D01*
X152862358Y-132642654D02*
X152731730Y-132686196D01*
X152731730Y-132686196D02*
X152644644Y-132686196D01*
X152644644Y-132686196D02*
X152514015Y-132642654D01*
X152514015Y-132642654D02*
X152426930Y-132555568D01*
X152426930Y-132555568D02*
X152383387Y-132468482D01*
X152383387Y-132468482D02*
X152339844Y-132294311D01*
X152339844Y-132294311D02*
X152339844Y-132163682D01*
X152339844Y-132163682D02*
X152383387Y-131989511D01*
X152383387Y-131989511D02*
X152426930Y-131902425D01*
X152426930Y-131902425D02*
X152514015Y-131815339D01*
X152514015Y-131815339D02*
X152644644Y-131771796D01*
X152644644Y-131771796D02*
X152731730Y-131771796D01*
X152731730Y-131771796D02*
X152862358Y-131815339D01*
X152862358Y-131815339D02*
X152905901Y-131858882D01*
X153689673Y-132076596D02*
X153689673Y-132686196D01*
X153471958Y-131728254D02*
X153254244Y-132381396D01*
X153254244Y-132381396D02*
X153820301Y-132381396D01*
X116607201Y-154948696D02*
X116302401Y-154513268D01*
X116084687Y-154948696D02*
X116084687Y-154034296D01*
X116084687Y-154034296D02*
X116433030Y-154034296D01*
X116433030Y-154034296D02*
X116520115Y-154077839D01*
X116520115Y-154077839D02*
X116563658Y-154121382D01*
X116563658Y-154121382D02*
X116607201Y-154208468D01*
X116607201Y-154208468D02*
X116607201Y-154339096D01*
X116607201Y-154339096D02*
X116563658Y-154426182D01*
X116563658Y-154426182D02*
X116520115Y-154469725D01*
X116520115Y-154469725D02*
X116433030Y-154513268D01*
X116433030Y-154513268D02*
X116084687Y-154513268D01*
X117478058Y-154948696D02*
X116955544Y-154948696D01*
X117216801Y-154948696D02*
X117216801Y-154034296D01*
X117216801Y-154034296D02*
X117129715Y-154164925D01*
X117129715Y-154164925D02*
X117042630Y-154252011D01*
X117042630Y-154252011D02*
X116955544Y-154295554D01*
X118584687Y-154600354D02*
X119281373Y-154600354D01*
X120892458Y-154948696D02*
X120369944Y-154948696D01*
X120631201Y-154948696D02*
X120631201Y-154034296D01*
X120631201Y-154034296D02*
X120544115Y-154164925D01*
X120544115Y-154164925D02*
X120457030Y-154252011D01*
X120457030Y-154252011D02*
X120369944Y-154295554D01*
X121458515Y-154034296D02*
X121545601Y-154034296D01*
X121545601Y-154034296D02*
X121632687Y-154077839D01*
X121632687Y-154077839D02*
X121676230Y-154121382D01*
X121676230Y-154121382D02*
X121719772Y-154208468D01*
X121719772Y-154208468D02*
X121763315Y-154382639D01*
X121763315Y-154382639D02*
X121763315Y-154600354D01*
X121763315Y-154600354D02*
X121719772Y-154774525D01*
X121719772Y-154774525D02*
X121676230Y-154861611D01*
X121676230Y-154861611D02*
X121632687Y-154905154D01*
X121632687Y-154905154D02*
X121545601Y-154948696D01*
X121545601Y-154948696D02*
X121458515Y-154948696D01*
X121458515Y-154948696D02*
X121371430Y-154905154D01*
X121371430Y-154905154D02*
X121327887Y-154861611D01*
X121327887Y-154861611D02*
X121284344Y-154774525D01*
X121284344Y-154774525D02*
X121240801Y-154600354D01*
X121240801Y-154600354D02*
X121240801Y-154382639D01*
X121240801Y-154382639D02*
X121284344Y-154208468D01*
X121284344Y-154208468D02*
X121327887Y-154121382D01*
X121327887Y-154121382D02*
X121371430Y-154077839D01*
X121371430Y-154077839D02*
X121458515Y-154034296D01*
X122155201Y-154948696D02*
X122155201Y-154034296D01*
X122677715Y-154948696D02*
X122285829Y-154426182D01*
X122677715Y-154034296D02*
X122155201Y-154556811D01*
X190051303Y-143857201D02*
X190486731Y-143552401D01*
X190051303Y-143334687D02*
X190965703Y-143334687D01*
X190965703Y-143334687D02*
X190965703Y-143683030D01*
X190965703Y-143683030D02*
X190922160Y-143770115D01*
X190922160Y-143770115D02*
X190878617Y-143813658D01*
X190878617Y-143813658D02*
X190791531Y-143857201D01*
X190791531Y-143857201D02*
X190660903Y-143857201D01*
X190660903Y-143857201D02*
X190573817Y-143813658D01*
X190573817Y-143813658D02*
X190530274Y-143770115D01*
X190530274Y-143770115D02*
X190486731Y-143683030D01*
X190486731Y-143683030D02*
X190486731Y-143334687D01*
X190965703Y-144162001D02*
X190965703Y-144728058D01*
X190965703Y-144728058D02*
X190617360Y-144423258D01*
X190617360Y-144423258D02*
X190617360Y-144553887D01*
X190617360Y-144553887D02*
X190573817Y-144640973D01*
X190573817Y-144640973D02*
X190530274Y-144684515D01*
X190530274Y-144684515D02*
X190443188Y-144728058D01*
X190443188Y-144728058D02*
X190225474Y-144728058D01*
X190225474Y-144728058D02*
X190138388Y-144684515D01*
X190138388Y-144684515D02*
X190094846Y-144640973D01*
X190094846Y-144640973D02*
X190051303Y-144553887D01*
X190051303Y-144553887D02*
X190051303Y-144292630D01*
X190051303Y-144292630D02*
X190094846Y-144205544D01*
X190094846Y-144205544D02*
X190138388Y-144162001D01*
X190399646Y-145834687D02*
X190399646Y-146531373D01*
X190051303Y-148142458D02*
X190051303Y-147619944D01*
X190051303Y-147881201D02*
X190965703Y-147881201D01*
X190965703Y-147881201D02*
X190835074Y-147794115D01*
X190835074Y-147794115D02*
X190747988Y-147707030D01*
X190747988Y-147707030D02*
X190704446Y-147619944D01*
X190965703Y-148708515D02*
X190965703Y-148795601D01*
X190965703Y-148795601D02*
X190922160Y-148882687D01*
X190922160Y-148882687D02*
X190878617Y-148926230D01*
X190878617Y-148926230D02*
X190791531Y-148969772D01*
X190791531Y-148969772D02*
X190617360Y-149013315D01*
X190617360Y-149013315D02*
X190399646Y-149013315D01*
X190399646Y-149013315D02*
X190225474Y-148969772D01*
X190225474Y-148969772D02*
X190138388Y-148926230D01*
X190138388Y-148926230D02*
X190094846Y-148882687D01*
X190094846Y-148882687D02*
X190051303Y-148795601D01*
X190051303Y-148795601D02*
X190051303Y-148708515D01*
X190051303Y-148708515D02*
X190094846Y-148621430D01*
X190094846Y-148621430D02*
X190138388Y-148577887D01*
X190138388Y-148577887D02*
X190225474Y-148534344D01*
X190225474Y-148534344D02*
X190399646Y-148490801D01*
X190399646Y-148490801D02*
X190617360Y-148490801D01*
X190617360Y-148490801D02*
X190791531Y-148534344D01*
X190791531Y-148534344D02*
X190878617Y-148577887D01*
X190878617Y-148577887D02*
X190922160Y-148621430D01*
X190922160Y-148621430D02*
X190965703Y-148708515D01*
X190051303Y-149405201D02*
X190965703Y-149405201D01*
X190051303Y-149927715D02*
X190573817Y-149535829D01*
X190965703Y-149927715D02*
X190443188Y-149405201D01*
D14*
X143342591Y-123451632D02*
X143299048Y-123495175D01*
X143299048Y-123495175D02*
X143168420Y-123538717D01*
X143168420Y-123538717D02*
X143081334Y-123538717D01*
X143081334Y-123538717D02*
X142950705Y-123495175D01*
X142950705Y-123495175D02*
X142863620Y-123408089D01*
X142863620Y-123408089D02*
X142820077Y-123321003D01*
X142820077Y-123321003D02*
X142776534Y-123146832D01*
X142776534Y-123146832D02*
X142776534Y-123016203D01*
X142776534Y-123016203D02*
X142820077Y-122842032D01*
X142820077Y-122842032D02*
X142863620Y-122754946D01*
X142863620Y-122754946D02*
X142950705Y-122667860D01*
X142950705Y-122667860D02*
X143081334Y-122624317D01*
X143081334Y-122624317D02*
X143168420Y-122624317D01*
X143168420Y-122624317D02*
X143299048Y-122667860D01*
X143299048Y-122667860D02*
X143342591Y-122711403D01*
X143734477Y-123190375D02*
X144431163Y-123190375D01*
X144866591Y-123538717D02*
X144866591Y-122624317D01*
X144866591Y-122624317D02*
X145171391Y-123277460D01*
X145171391Y-123277460D02*
X145476191Y-122624317D01*
X145476191Y-122624317D02*
X145476191Y-123538717D01*
X145868077Y-123277460D02*
X146303506Y-123277460D01*
X145780991Y-123538717D02*
X146085791Y-122624317D01*
X146085791Y-122624317D02*
X146390591Y-123538717D01*
X146695391Y-123538717D02*
X146695391Y-122624317D01*
X147130820Y-123538717D02*
X147130820Y-122624317D01*
X147130820Y-122624317D02*
X147653334Y-123538717D01*
X147653334Y-123538717D02*
X147653334Y-122624317D01*
X119874634Y-119423760D02*
X120310063Y-119423760D01*
X119787548Y-119685017D02*
X120092348Y-118770617D01*
X120092348Y-118770617D02*
X120397148Y-119685017D01*
X121224462Y-119685017D02*
X120919662Y-119249589D01*
X120701948Y-119685017D02*
X120701948Y-118770617D01*
X120701948Y-118770617D02*
X121050291Y-118770617D01*
X121050291Y-118770617D02*
X121137376Y-118814160D01*
X121137376Y-118814160D02*
X121180919Y-118857703D01*
X121180919Y-118857703D02*
X121224462Y-118944789D01*
X121224462Y-118944789D02*
X121224462Y-119075417D01*
X121224462Y-119075417D02*
X121180919Y-119162503D01*
X121180919Y-119162503D02*
X121137376Y-119206046D01*
X121137376Y-119206046D02*
X121050291Y-119249589D01*
X121050291Y-119249589D02*
X120701948Y-119249589D01*
X121616348Y-119206046D02*
X121921148Y-119206046D01*
X122051776Y-119685017D02*
X121616348Y-119685017D01*
X121616348Y-119685017D02*
X121616348Y-118770617D01*
X121616348Y-118770617D02*
X122051776Y-118770617D01*
X122748462Y-119206046D02*
X122443662Y-119206046D01*
X122443662Y-119685017D02*
X122443662Y-118770617D01*
X122443662Y-118770617D02*
X122879090Y-118770617D01*
D15*
X181857201Y-133448696D02*
X181552401Y-133013268D01*
X181334687Y-133448696D02*
X181334687Y-132534296D01*
X181334687Y-132534296D02*
X181683030Y-132534296D01*
X181683030Y-132534296D02*
X181770115Y-132577839D01*
X181770115Y-132577839D02*
X181813658Y-132621382D01*
X181813658Y-132621382D02*
X181857201Y-132708468D01*
X181857201Y-132708468D02*
X181857201Y-132839096D01*
X181857201Y-132839096D02*
X181813658Y-132926182D01*
X181813658Y-132926182D02*
X181770115Y-132969725D01*
X181770115Y-132969725D02*
X181683030Y-133013268D01*
X181683030Y-133013268D02*
X181334687Y-133013268D01*
X182640973Y-132839096D02*
X182640973Y-133448696D01*
X182423258Y-132490754D02*
X182205544Y-133143896D01*
X182205544Y-133143896D02*
X182771601Y-133143896D01*
X183834687Y-133100354D02*
X184531373Y-133100354D01*
X186142458Y-133448696D02*
X185619944Y-133448696D01*
X185881201Y-133448696D02*
X185881201Y-132534296D01*
X185881201Y-132534296D02*
X185794115Y-132664925D01*
X185794115Y-132664925D02*
X185707030Y-132752011D01*
X185707030Y-132752011D02*
X185619944Y-132795554D01*
X186708515Y-132534296D02*
X186795601Y-132534296D01*
X186795601Y-132534296D02*
X186882687Y-132577839D01*
X186882687Y-132577839D02*
X186926230Y-132621382D01*
X186926230Y-132621382D02*
X186969772Y-132708468D01*
X186969772Y-132708468D02*
X187013315Y-132882639D01*
X187013315Y-132882639D02*
X187013315Y-133100354D01*
X187013315Y-133100354D02*
X186969772Y-133274525D01*
X186969772Y-133274525D02*
X186926230Y-133361611D01*
X186926230Y-133361611D02*
X186882687Y-133405154D01*
X186882687Y-133405154D02*
X186795601Y-133448696D01*
X186795601Y-133448696D02*
X186708515Y-133448696D01*
X186708515Y-133448696D02*
X186621430Y-133405154D01*
X186621430Y-133405154D02*
X186577887Y-133361611D01*
X186577887Y-133361611D02*
X186534344Y-133274525D01*
X186534344Y-133274525D02*
X186490801Y-133100354D01*
X186490801Y-133100354D02*
X186490801Y-132882639D01*
X186490801Y-132882639D02*
X186534344Y-132708468D01*
X186534344Y-132708468D02*
X186577887Y-132621382D01*
X186577887Y-132621382D02*
X186621430Y-132577839D01*
X186621430Y-132577839D02*
X186708515Y-132534296D01*
X187405201Y-133448696D02*
X187405201Y-132534296D01*
X187927715Y-133448696D02*
X187535829Y-132926182D01*
X187927715Y-132534296D02*
X187405201Y-133056811D01*
X117357201Y-76698696D02*
X117052401Y-76263268D01*
X116834687Y-76698696D02*
X116834687Y-75784296D01*
X116834687Y-75784296D02*
X117183030Y-75784296D01*
X117183030Y-75784296D02*
X117270115Y-75827839D01*
X117270115Y-75827839D02*
X117313658Y-75871382D01*
X117313658Y-75871382D02*
X117357201Y-75958468D01*
X117357201Y-75958468D02*
X117357201Y-76089096D01*
X117357201Y-76089096D02*
X117313658Y-76176182D01*
X117313658Y-76176182D02*
X117270115Y-76219725D01*
X117270115Y-76219725D02*
X117183030Y-76263268D01*
X117183030Y-76263268D02*
X116834687Y-76263268D01*
X117662001Y-75784296D02*
X118271601Y-75784296D01*
X118271601Y-75784296D02*
X117879715Y-76698696D01*
X119334687Y-76350354D02*
X120031373Y-76350354D01*
X121642458Y-76698696D02*
X121119944Y-76698696D01*
X121381201Y-76698696D02*
X121381201Y-75784296D01*
X121381201Y-75784296D02*
X121294115Y-75914925D01*
X121294115Y-75914925D02*
X121207030Y-76002011D01*
X121207030Y-76002011D02*
X121119944Y-76045554D01*
X122208515Y-75784296D02*
X122295601Y-75784296D01*
X122295601Y-75784296D02*
X122382687Y-75827839D01*
X122382687Y-75827839D02*
X122426230Y-75871382D01*
X122426230Y-75871382D02*
X122469772Y-75958468D01*
X122469772Y-75958468D02*
X122513315Y-76132639D01*
X122513315Y-76132639D02*
X122513315Y-76350354D01*
X122513315Y-76350354D02*
X122469772Y-76524525D01*
X122469772Y-76524525D02*
X122426230Y-76611611D01*
X122426230Y-76611611D02*
X122382687Y-76655154D01*
X122382687Y-76655154D02*
X122295601Y-76698696D01*
X122295601Y-76698696D02*
X122208515Y-76698696D01*
X122208515Y-76698696D02*
X122121430Y-76655154D01*
X122121430Y-76655154D02*
X122077887Y-76611611D01*
X122077887Y-76611611D02*
X122034344Y-76524525D01*
X122034344Y-76524525D02*
X121990801Y-76350354D01*
X121990801Y-76350354D02*
X121990801Y-76132639D01*
X121990801Y-76132639D02*
X122034344Y-75958468D01*
X122034344Y-75958468D02*
X122077887Y-75871382D01*
X122077887Y-75871382D02*
X122121430Y-75827839D01*
X122121430Y-75827839D02*
X122208515Y-75784296D01*
X122905201Y-76698696D02*
X122905201Y-75784296D01*
X123427715Y-76698696D02*
X123035829Y-76176182D01*
X123427715Y-75784296D02*
X122905201Y-76306811D01*
X117607201Y-96448696D02*
X117302401Y-96013268D01*
X117084687Y-96448696D02*
X117084687Y-95534296D01*
X117084687Y-95534296D02*
X117433030Y-95534296D01*
X117433030Y-95534296D02*
X117520115Y-95577839D01*
X117520115Y-95577839D02*
X117563658Y-95621382D01*
X117563658Y-95621382D02*
X117607201Y-95708468D01*
X117607201Y-95708468D02*
X117607201Y-95839096D01*
X117607201Y-95839096D02*
X117563658Y-95926182D01*
X117563658Y-95926182D02*
X117520115Y-95969725D01*
X117520115Y-95969725D02*
X117433030Y-96013268D01*
X117433030Y-96013268D02*
X117084687Y-96013268D01*
X118390973Y-95534296D02*
X118216801Y-95534296D01*
X118216801Y-95534296D02*
X118129715Y-95577839D01*
X118129715Y-95577839D02*
X118086173Y-95621382D01*
X118086173Y-95621382D02*
X117999087Y-95752011D01*
X117999087Y-95752011D02*
X117955544Y-95926182D01*
X117955544Y-95926182D02*
X117955544Y-96274525D01*
X117955544Y-96274525D02*
X117999087Y-96361611D01*
X117999087Y-96361611D02*
X118042630Y-96405154D01*
X118042630Y-96405154D02*
X118129715Y-96448696D01*
X118129715Y-96448696D02*
X118303887Y-96448696D01*
X118303887Y-96448696D02*
X118390973Y-96405154D01*
X118390973Y-96405154D02*
X118434515Y-96361611D01*
X118434515Y-96361611D02*
X118478058Y-96274525D01*
X118478058Y-96274525D02*
X118478058Y-96056811D01*
X118478058Y-96056811D02*
X118434515Y-95969725D01*
X118434515Y-95969725D02*
X118390973Y-95926182D01*
X118390973Y-95926182D02*
X118303887Y-95882639D01*
X118303887Y-95882639D02*
X118129715Y-95882639D01*
X118129715Y-95882639D02*
X118042630Y-95926182D01*
X118042630Y-95926182D02*
X117999087Y-95969725D01*
X117999087Y-95969725D02*
X117955544Y-96056811D01*
X119584687Y-96100354D02*
X120281373Y-96100354D01*
X121892458Y-96448696D02*
X121369944Y-96448696D01*
X121631201Y-96448696D02*
X121631201Y-95534296D01*
X121631201Y-95534296D02*
X121544115Y-95664925D01*
X121544115Y-95664925D02*
X121457030Y-95752011D01*
X121457030Y-95752011D02*
X121369944Y-95795554D01*
X122458515Y-95534296D02*
X122545601Y-95534296D01*
X122545601Y-95534296D02*
X122632687Y-95577839D01*
X122632687Y-95577839D02*
X122676230Y-95621382D01*
X122676230Y-95621382D02*
X122719772Y-95708468D01*
X122719772Y-95708468D02*
X122763315Y-95882639D01*
X122763315Y-95882639D02*
X122763315Y-96100354D01*
X122763315Y-96100354D02*
X122719772Y-96274525D01*
X122719772Y-96274525D02*
X122676230Y-96361611D01*
X122676230Y-96361611D02*
X122632687Y-96405154D01*
X122632687Y-96405154D02*
X122545601Y-96448696D01*
X122545601Y-96448696D02*
X122458515Y-96448696D01*
X122458515Y-96448696D02*
X122371430Y-96405154D01*
X122371430Y-96405154D02*
X122327887Y-96361611D01*
X122327887Y-96361611D02*
X122284344Y-96274525D01*
X122284344Y-96274525D02*
X122240801Y-96100354D01*
X122240801Y-96100354D02*
X122240801Y-95882639D01*
X122240801Y-95882639D02*
X122284344Y-95708468D01*
X122284344Y-95708468D02*
X122327887Y-95621382D01*
X122327887Y-95621382D02*
X122371430Y-95577839D01*
X122371430Y-95577839D02*
X122458515Y-95534296D01*
X123155201Y-96448696D02*
X123155201Y-95534296D01*
X123677715Y-96448696D02*
X123285829Y-95926182D01*
X123677715Y-95534296D02*
X123155201Y-96056811D01*
%TO.C,U4*%
D10*
X155199900Y-129001800D02*
X155480600Y-129001800D01*
X155199900Y-131201700D02*
X155199900Y-129001800D01*
X155199900Y-135399800D02*
X155199900Y-133199900D01*
X155199900Y-135399800D02*
X155479200Y-135399800D01*
X157139200Y-129001800D02*
X158020600Y-129001800D01*
X157140600Y-135399800D02*
X158019200Y-135399800D01*
X159679200Y-129001800D02*
X160560600Y-129001800D01*
X159680600Y-135399800D02*
X160559200Y-135399800D01*
X162219200Y-129001800D02*
X163100600Y-129001800D01*
X162220600Y-135399800D02*
X163099200Y-135399800D01*
X164759200Y-129001800D02*
X165640600Y-129001800D01*
X164760600Y-135399800D02*
X165639200Y-135399800D01*
X167299200Y-129001800D02*
X168180600Y-129001800D01*
X167300600Y-135399800D02*
X168179200Y-135399800D01*
X169839200Y-129001800D02*
X170720600Y-129001800D01*
X169840600Y-135399800D02*
X170719200Y-135399800D01*
X172379200Y-129001800D02*
X173260600Y-129001800D01*
X172380600Y-135399800D02*
X173259200Y-135399800D01*
X174919200Y-129001800D02*
X175199900Y-129001800D01*
X174920600Y-135399800D02*
X175199900Y-135399800D01*
X175199900Y-135399800D02*
X175199900Y-129000000D01*
X155199900Y-131199900D02*
G75*
G02*
X155250000Y-133199899I24999J-1000001D01*
G01*
X156650200Y-134399400D02*
G75*
G02*
X156050200Y-134399400I-300000J0D01*
G01*
X156050200Y-134399400D02*
G75*
G02*
X156650200Y-134399400I300000J0D01*
G01*
%TO.C,C1*%
X108650600Y-122262400D02*
X108650600Y-122511400D01*
X108650600Y-122511400D02*
X108650600Y-129760500D01*
X108650600Y-129760500D02*
X111149900Y-129760500D01*
X111149900Y-122262400D02*
X108650600Y-122262400D01*
X111149900Y-129760500D02*
X111149900Y-122262400D01*
%TO.C,R5*%
X159753400Y-122790700D02*
X159753400Y-125292600D01*
X159753400Y-125292600D02*
X172753100Y-125292600D01*
X172753100Y-122790700D02*
X159753400Y-122790700D01*
X172753100Y-125041100D02*
X172753100Y-122790700D01*
X172753100Y-125292600D02*
X172753100Y-125041100D01*
%TO.C,R2*%
X153503000Y-154215200D02*
X153503000Y-154466700D01*
X153503000Y-154466700D02*
X153503000Y-156717100D01*
X153503000Y-156717100D02*
X166502700Y-156717100D01*
X166502700Y-154215200D02*
X153503000Y-154215200D01*
X166502700Y-156717100D02*
X166502700Y-154215200D01*
%TO.C,C4*%
X151850000Y-128439300D02*
X151850000Y-135937400D01*
X151850000Y-135937400D02*
X154349300Y-135937400D01*
X154349300Y-128439300D02*
X151850000Y-128439300D01*
X154349300Y-135688400D02*
X154349300Y-128439300D01*
X154349300Y-135937400D02*
X154349300Y-135688400D01*
%TO.C,R1*%
X112553100Y-153224800D02*
X112553100Y-153476300D01*
X112553100Y-153476300D02*
X112553100Y-155726700D01*
X112553100Y-155726700D02*
X125552800Y-155726700D01*
X125552800Y-153224800D02*
X112553100Y-153224800D01*
X125552800Y-155726700D02*
X125552800Y-153224800D01*
%TO.C,R3*%
X189292000Y-140004300D02*
X189292000Y-153004000D01*
X189292000Y-153004000D02*
X191793900Y-153004000D01*
X191542400Y-140004300D02*
X189292000Y-140004300D01*
X191793900Y-140004300D02*
X191542400Y-140004300D01*
X191793900Y-153004000D02*
X191793900Y-140004300D01*
%TO.C,C-MAIN*%
X146772200Y-129285300D02*
X146772200Y-128269300D01*
X147280200Y-128777300D02*
X146264200Y-128777300D01*
X148651900Y-127252900D02*
G75*
G02*
X142352700Y-127252900I-3149600J0D01*
G01*
X142352700Y-127252900D02*
G75*
G02*
X148651900Y-127252900I3149600J0D01*
G01*
%TO.C,AREF*%
X116050000Y-118599900D02*
X116050000Y-120199900D01*
X117300100Y-118599900D02*
X116050000Y-118599900D01*
X117300100Y-120199900D02*
X116050000Y-120199900D01*
X117900700Y-118594700D02*
X119150600Y-118594700D01*
X117900700Y-120194800D02*
X119150600Y-120194800D01*
X119150600Y-118594700D02*
X119150600Y-120194800D01*
%TO.C,R4*%
X178004300Y-131791100D02*
X178004300Y-134293000D01*
X178004300Y-134293000D02*
X191004000Y-134293000D01*
X191004000Y-131791100D02*
X178004300Y-131791100D01*
X191004000Y-134041500D02*
X191004000Y-131791100D01*
X191004000Y-134293000D02*
X191004000Y-134041500D01*
%TO.C,R7*%
X113251200Y-75038400D02*
X113251200Y-77540300D01*
X113251200Y-77540300D02*
X126250900Y-77540300D01*
X126250900Y-75038400D02*
X113251200Y-75038400D01*
X126250900Y-77288800D02*
X126250900Y-75038400D01*
X126250900Y-77540300D02*
X126250900Y-77288800D01*
%TO.C,R6*%
X113501200Y-94789300D02*
X113501200Y-97291200D01*
X113501200Y-97291200D02*
X126500900Y-97291200D01*
X126500900Y-94789300D02*
X113501200Y-94789300D01*
X126500900Y-97039700D02*
X126500900Y-94789300D01*
X126500900Y-97291200D02*
X126500900Y-97039700D01*
%TD*%
M02*
