%TF.GenerationSoftware,KiCad,Pcbnew,10.0.6*%
%TF.CreationDate,2026-09-23T18:15:49+08:00*%
%TF.ProjectId,Utility_Time_Module,5574696c-6974-4795-9f54-696d655f4d6f,1.7.1*%
%TF.SameCoordinates,Original*%
%TF.FileFunction,Copper,L2,Bot*%
%TF.FilePolarity,Positive*%
%FSLAX46Y46*%
G04 Gerber Fmt 4.6, Leading zero omitted, Abs format (unit mm)*
G04 Created by KiCad (PCBNEW 10.0.6) date 2026-09-23 18:15:49*
%MOMM*%
%LPD*%
G01*
G04 APERTURE LIST*
%TA.AperFunction,ComponentPad*%
%ADD10R,1.600000X1.600000*%
%TD*%
%TA.AperFunction,ComponentPad*%
%ADD11R,1.524000X1.524000*%
%TD*%
%TA.AperFunction,ComponentPad*%
%ADD12R,1.800000X1.800000*%
%TD*%
%TA.AperFunction,ComponentPad*%
%ADD13R,0.999900X1.000000*%
%TD*%
%TA.AperFunction,ComponentPad*%
%ADD14R,1.300000X1.300000*%
%TD*%
%TA.AperFunction,ComponentPad*%
%ADD15R,1.000000X1.000000*%
%TD*%
%TA.AperFunction,ComponentPad*%
%ADD16R,1.300100X1.300000*%
%TD*%
%TA.AperFunction,ViaPad*%
%ADD17C,0.609600*%
%TD*%
%TA.AperFunction,Conductor*%
%ADD18C,0.254000*%
%TD*%
%TA.AperFunction,Conductor*%
%ADD19C,0.762000*%
%TD*%
G04 APERTURE END LIST*
D10*
%TO.P,U6,1*%
%TO.N,LIGHT2*%
X113510100Y-73210100D03*
%TO.P,U6,2*%
%TO.N,LIGHT3*%
X116050100Y-73210100D03*
%TO.P,U6,3*%
%TO.N,LIGHT4*%
X118590100Y-73210100D03*
%TO.P,U6,4*%
%TO.N,LIGHT5*%
X121130100Y-73210100D03*
%TO.P,U6,5*%
%TO.N,LIGHT6*%
X123670100Y-73210100D03*
%TO.P,U6,6*%
%TO.N,LIGHT7*%
X126210100Y-73210100D03*
%TO.P,U6,7*%
%TO.N,LIGHT8*%
X128750100Y-73210100D03*
%TO.P,U6,8*%
%TO.N,GND*%
X131290100Y-73210100D03*
%TO.P,U6,9*%
%TO.N,DATA(B)2*%
X131290100Y-65590100D03*
%TO.P,U6,10*%
%TO.N,+5V*%
X128750100Y-65590100D03*
%TO.P,U6,11*%
%TO.N,CLOCK(Y)2*%
X126210100Y-65590100D03*
%TO.P,U6,12*%
%TO.N,LATCH(G)2*%
X123670100Y-65590100D03*
%TO.P,U6,13*%
%TO.N,GND*%
X121130100Y-65590100D03*
%TO.P,U6,14*%
%TO.N,DATA(P)2*%
X118590100Y-65590100D03*
%TO.P,U6,15*%
%TO.N,LIGHT1*%
X116050100Y-65590100D03*
%TO.P,U6,16*%
%TO.N,+5V*%
X113510100Y-65590100D03*
%TD*%
D11*
%TO.P,C-MAIN,1*%
%TO.N,+5V*%
X165270100Y-72500100D03*
%TO.P,C-MAIN,2*%
%TO.N,GND*%
X162730100Y-72500100D03*
%TD*%
%TO.P,TP_EVA2,18*%
%TO.N,EVA2*%
X170000100Y-86500100D03*
%TD*%
%TO.P,R12,1*%
%TO.N,LIGHT1*%
X129338800Y-103326000D03*
%TO.P,R12,2*%
%TO.N,WP48_1*%
X119178800Y-103326000D03*
%TD*%
%TO.P,C1,1*%
%TO.N,GND*%
X187750400Y-103493400D03*
%TO.P,C1,2*%
%TO.N,+5V*%
X182750400Y-103493400D03*
%TD*%
D12*
%TO.P,U2,1*%
%TO.N,RESET*%
X167189900Y-114309800D03*
%TO.P,U2,2*%
%TO.N,DATA(P)2*%
X169729900Y-114309800D03*
%TO.P,U2,3*%
%TO.N,LATCH(G)2*%
X172269900Y-114309800D03*
%TO.P,U2,4*%
%TO.N,GND*%
X174809900Y-114309800D03*
%TO.P,U2,5*%
%TO.N,SDA*%
X174809900Y-106689800D03*
%TO.P,U2,6*%
%TO.N,CLOCK(Y)2*%
X172269900Y-106689800D03*
%TO.P,U2,7*%
%TO.N,SCL*%
X169729900Y-106689800D03*
%TO.P,U2,8*%
%TO.N,+5V*%
X167189900Y-106689800D03*
%TD*%
D11*
%TO.P,C5,1*%
%TO.N,GND*%
X135256400Y-72250400D03*
%TO.P,C5,2*%
%TO.N,+5V*%
X135256400Y-67250500D03*
%TD*%
%TO.P,TP_+5V,9*%
%TO.N,+5V*%
X147999700Y-128500000D03*
%TD*%
%TO.P,R7,1*%
%TO.N,T2*%
X167088500Y-143076300D03*
%TO.P,R7,2*%
%TO.N,GND*%
X156928500Y-143076300D03*
%TD*%
%TO.P,R15,1*%
%TO.N,LIGHT4*%
X129338800Y-95826200D03*
%TO.P,R15,2*%
%TO.N,WP45_1*%
X119178800Y-95826200D03*
%TD*%
%TO.P,TP_EVA4,1*%
%TO.N,EVA4*%
X122000000Y-128999900D03*
%TD*%
%TO.P,C2,1*%
%TO.N,GND*%
X172750700Y-103493400D03*
%TO.P,C2,2*%
%TO.N,+5V*%
X167750700Y-103493400D03*
%TD*%
%TO.P,R18,1*%
%TO.N,LIGHT7*%
X129338800Y-88326100D03*
%TO.P,R18,2*%
%TO.N,WP42_1*%
X119178800Y-88326100D03*
%TD*%
D13*
%TO.P,WP15,1*%
%TO.N,N/C*%
X185999800Y-72500100D03*
%TD*%
D11*
%TO.P,C6,1*%
%TO.N,GND*%
X110056600Y-72450300D03*
%TO.P,C6,2*%
%TO.N,+5V*%
X110056600Y-67450400D03*
%TD*%
D14*
%TO.P,WP2,1*%
%TO.N,SCL*%
X185999800Y-74500100D03*
%TD*%
D13*
%TO.P,WP14,1*%
%TO.N,N/C*%
X183999800Y-72500100D03*
%TD*%
D11*
%TO.P,R4,1*%
%TO.N,EVA4*%
X118838700Y-134076300D03*
%TO.P,R4,2*%
%TO.N,GND*%
X108678700Y-134076300D03*
%TD*%
%TO.P,R6,1*%
%TO.N,T1*%
X145088500Y-143076300D03*
%TO.P,R6,2*%
%TO.N,GND*%
X134928500Y-143076300D03*
%TD*%
%TO.P,R2,1*%
%TO.N,EVA2*%
X166838800Y-82826200D03*
%TO.P,R2,2*%
%TO.N,GND*%
X156678800Y-82826200D03*
%TD*%
%TO.P,R19,1*%
%TO.N,LIGHT8*%
X129338800Y-85826200D03*
%TO.P,R19,2*%
%TO.N,WP41_1*%
X119178800Y-85826200D03*
%TD*%
D14*
%TO.P,WP3,1*%
%TO.N,RESET*%
X183999800Y-74500100D03*
%TD*%
D11*
%TO.P,TP_EVA1,20*%
%TO.N,EVA1*%
X192000100Y-86500100D03*
%TD*%
%TO.P,R3,1*%
%TO.N,EVA3*%
X145088800Y-82826200D03*
%TO.P,R3,2*%
%TO.N,GND*%
X134928800Y-82826200D03*
%TD*%
%TO.P,TP_+5V,8*%
%TO.N,+5V*%
X122000000Y-119500000D03*
%TD*%
%TO.P,TP_T1,2*%
%TO.N,T1*%
X147999700Y-138000100D03*
%TD*%
D10*
%TO.P,U3,1*%
%TO.N,LATCH(G)*%
X140109900Y-114610000D03*
%TO.P,U3,2*%
%TO.N,CLOCK(Y)*%
X142649900Y-114610000D03*
%TO.P,U3,3*%
%TO.N,EVA5*%
X145189900Y-114610000D03*
%TO.P,U3,4*%
%TO.N,T1*%
X147729900Y-114610000D03*
%TO.P,U3,5*%
%TO.N,T2*%
X150269900Y-114610000D03*
%TO.P,U3,6*%
%TO.N,T3*%
X152809900Y-114610000D03*
%TO.P,U3,7*%
%TO.N,N/C*%
X155349900Y-114610000D03*
%TO.P,U3,8*%
%TO.N,GND*%
X157889900Y-114610000D03*
%TO.P,U3,9*%
%TO.N,DATA(P)*%
X157889900Y-106990000D03*
%TO.P,U3,10*%
%TO.N,N/C*%
X155349900Y-106990000D03*
%TO.P,U3,11*%
%TO.N,EVA1*%
X152809900Y-106990000D03*
%TO.P,U3,12*%
%TO.N,EVA2*%
X150269900Y-106990000D03*
%TO.P,U3,13*%
%TO.N,EVA3*%
X147729900Y-106990000D03*
%TO.P,U3,14*%
%TO.N,EVA4*%
X145189900Y-106990000D03*
%TO.P,U3,15*%
%TO.N,GND*%
X142649900Y-106990000D03*
%TO.P,U3,16*%
%TO.N,+5V*%
X140109900Y-106990000D03*
%TD*%
D11*
%TO.P,LED,GND*%
%TO.N,GND*%
X108519900Y-80531600D03*
X108519900Y-83071600D03*
X108519900Y-85611600D03*
X108519900Y-88151600D03*
X108519900Y-90691600D03*
X108519900Y-93231600D03*
X108519900Y-95771600D03*
X108519900Y-98311600D03*
X108519900Y-100851600D03*
X108519900Y-103391600D03*
%TO.N,WP60_1*%
X116139900Y-80531600D03*
%TO.N,WP58_1*%
X116139900Y-83071600D03*
%TO.N,WP41_1*%
X116139900Y-85611600D03*
%TO.N,WP42_1*%
X116139900Y-88151600D03*
%TO.N,WP43_1*%
X116139900Y-90691600D03*
%TO.N,WP44_1*%
X116139900Y-93231600D03*
%TO.N,WP45_1*%
X116139900Y-95771600D03*
%TO.N,WP46_1*%
X116139900Y-98311600D03*
%TO.N,WP47_1*%
X116139900Y-100851600D03*
%TO.N,WP48_1*%
X116139900Y-103391600D03*
%TD*%
%TO.P,R1,1*%
%TO.N,EVA1*%
X188838800Y-82826200D03*
%TO.P,R1,2*%
%TO.N,GND*%
X178678800Y-82826200D03*
%TD*%
D12*
%TO.P,U1,1*%
%TO.N,RESET*%
X182189800Y-114310100D03*
%TO.P,U1,2*%
%TO.N,DATA(P)*%
X184729800Y-114310100D03*
%TO.P,U1,3*%
%TO.N,LATCH(G)*%
X187269800Y-114310100D03*
%TO.P,U1,4*%
%TO.N,GND*%
X189809800Y-114310100D03*
%TO.P,U1,5*%
%TO.N,SDA*%
X189809800Y-106690100D03*
%TO.P,U1,6*%
%TO.N,CLOCK(Y)*%
X187269800Y-106690100D03*
%TO.P,U1,7*%
%TO.N,SCL*%
X184729800Y-106690100D03*
%TO.P,U1,8*%
%TO.N,+5V*%
X182189800Y-106690100D03*
%TD*%
D10*
%TO.P,U5,1*%
%TO.N,LIGHT10*%
X138709800Y-73210100D03*
%TO.P,U5,2*%
%TO.N,N/C*%
X141249800Y-73210100D03*
%TO.P,U5,3*%
X143789800Y-73210100D03*
%TO.P,U5,4*%
X146329800Y-73210100D03*
%TO.P,U5,5*%
X148869800Y-73210100D03*
%TO.P,U5,6*%
X151409800Y-73210100D03*
%TO.P,U5,7*%
X153949800Y-73210100D03*
%TO.P,U5,8*%
%TO.N,GND*%
X156489800Y-73210100D03*
%TO.P,U5,9*%
%TO.N,N/C*%
X156489800Y-65590100D03*
%TO.P,U5,10*%
%TO.N,+5V*%
X153949800Y-65590100D03*
%TO.P,U5,11*%
%TO.N,CLOCK(Y)2*%
X151409800Y-65590100D03*
%TO.P,U5,12*%
%TO.N,LATCH(G)2*%
X148869800Y-65590100D03*
%TO.P,U5,13*%
%TO.N,GND*%
X146329800Y-65590100D03*
%TO.P,U5,14*%
%TO.N,DATA(B)2*%
X143789800Y-65590100D03*
%TO.P,U5,15*%
%TO.N,LIGHT9*%
X141249800Y-65590100D03*
%TO.P,U5,16*%
%TO.N,+5V*%
X138709800Y-65590100D03*
%TD*%
D11*
%TO.P,TP_+5V,11*%
%TO.N,+5V*%
X191999800Y-128500000D03*
%TD*%
D13*
%TO.P,WP6,1*%
%TO.N,N/C*%
X177999800Y-74500100D03*
%TD*%
D11*
%TO.P,R21,1*%
%TO.N,LIGHT10*%
X129338800Y-80826200D03*
%TO.P,R21,2*%
%TO.N,WP60_1*%
X119178800Y-80826200D03*
%TD*%
%TO.P,TP_+5V,*%
%TO.N,+5V*%
X169999900Y-128500000D03*
%TD*%
D15*
%TO.P,WP9,1*%
%TO.N,N/C*%
X173999900Y-72500100D03*
%TD*%
D11*
%TO.P,TP_+5V,15*%
%TO.N,+5V*%
X147999900Y-95999900D03*
%TD*%
D16*
%TO.P,WP7,1*%
%TO.N,+5V*%
X175999800Y-74500100D03*
%TD*%
D15*
%TO.P,WP10,1*%
%TO.N,N/C*%
X175999900Y-72500100D03*
%TD*%
D11*
%TO.P,R8,1*%
%TO.N,T3*%
X189088500Y-143076300D03*
%TO.P,R8,2*%
%TO.N,GND*%
X178928500Y-143076300D03*
%TD*%
D14*
%TO.P,WP1,1*%
%TO.N,SDA*%
X187999800Y-74500100D03*
%TD*%
D13*
%TO.P,WP16,1*%
%TO.N,N/C*%
X187999800Y-72500100D03*
%TD*%
%TO.P,WP5,1*%
%TO.N,N/C*%
X179999800Y-74500100D03*
%TD*%
D11*
%TO.P,TP_T2,*%
%TO.N,T2*%
X169999900Y-138000100D03*
%TD*%
%TO.P,R20,1*%
%TO.N,LIGHT9*%
X129338800Y-83326100D03*
%TO.P,R20,2*%
%TO.N,WP58_1*%
X119178800Y-83326100D03*
%TD*%
%TO.P,TP_+5V,*%
%TO.N,+5V*%
X170000100Y-95999900D03*
%TD*%
%TO.P,R14,1*%
%TO.N,LIGHT3*%
X129338800Y-98326000D03*
%TO.P,R14,2*%
%TO.N,WP46_1*%
X119178800Y-98326000D03*
%TD*%
%TO.P,TP_EVA3,16*%
%TO.N,EVA3*%
X147999900Y-86500100D03*
%TD*%
%TO.P,TP_T3,4*%
%TO.N,T3*%
X191999800Y-138000100D03*
%TD*%
D15*
%TO.P,WP11,1*%
%TO.N,N/C*%
X177999900Y-72500100D03*
%TD*%
D16*
%TO.P,WP8,1*%
%TO.N,GND*%
X173999800Y-74500100D03*
%TD*%
D11*
%TO.P,R13,1*%
%TO.N,LIGHT2*%
X129338800Y-100826200D03*
%TO.P,R13,2*%
%TO.N,WP47_1*%
X119178800Y-100826200D03*
%TD*%
D13*
%TO.P,WP13,1*%
%TO.N,N/C*%
X181999800Y-72500100D03*
%TD*%
D11*
%TO.P,R16,1*%
%TO.N,LIGHT5*%
X129338800Y-93326100D03*
%TO.P,R16,2*%
%TO.N,WP44_1*%
X119178800Y-93326100D03*
%TD*%
%TO.P,R17,1*%
%TO.N,LIGHT6*%
X129338800Y-90826200D03*
%TO.P,R17,2*%
%TO.N,WP43_1*%
X119178800Y-90826200D03*
%TD*%
D15*
%TO.P,WP4,1*%
%TO.N,N/C*%
X181999800Y-74500100D03*
%TD*%
D11*
%TO.P,TP_+5V,*%
%TO.N,+5V*%
X192000100Y-95999900D03*
%TD*%
%TO.P,TP_EVA5,1*%
%TO.N,EVA5*%
X122000000Y-147749900D03*
%TD*%
%TO.P,TP_+5V,8*%
%TO.N,+5V*%
X122000000Y-138250000D03*
%TD*%
%TO.P,R5,1*%
%TO.N,EVA5*%
X118588700Y-152576400D03*
%TO.P,R5,2*%
%TO.N,GND*%
X108428700Y-152576400D03*
%TD*%
%TO.P,C3,1*%
%TO.N,GND*%
X136656500Y-113650100D03*
%TO.P,C3,2*%
%TO.N,+5V*%
X136656500Y-108650100D03*
%TD*%
D15*
%TO.P,WP12,1*%
%TO.N,N/C*%
X179999900Y-72500100D03*
%TD*%
D17*
%TO.N,EVA2*%
X163500000Y-100999900D03*
%TO.N,RESET*%
X195499900Y-82249900D03*
%TO.N,EVA1*%
X165749900Y-101999900D03*
%TO.N,EVA3*%
X145999900Y-101999900D03*
%TO.N,GUARD1*%
X199499900Y-105002200D03*
X199499900Y-114999900D03*
%TO.N,GUARD2*%
X100625100Y-114997600D03*
X100625100Y-104999900D03*
%TD*%
%TO.N,DATA(B)2*%
D18*
X131290000Y-65590000D02*
X132630600Y-64249400D01*
X132630600Y-64249400D02*
X142449200Y-64249400D01*
X142449200Y-64249400D02*
X143789800Y-65590100D01*
%TO.N,CLOCK(Y)2*%
X164000400Y-105250100D02*
X159751000Y-101000700D01*
X151409600Y-71010900D02*
X151409600Y-65590500D01*
X152600900Y-99852600D02*
X152600900Y-72199600D01*
X159751000Y-101000700D02*
X153748900Y-101000700D01*
X172270600Y-106690300D02*
X170830400Y-105250100D01*
X149568800Y-63749000D02*
X128051000Y-63749000D01*
X152600900Y-72199600D02*
X151409600Y-71010900D01*
X153748900Y-101000700D02*
X152600900Y-99852600D01*
X170830400Y-105250100D02*
X164000400Y-105250100D01*
X128051000Y-63749000D02*
X126210000Y-65590000D01*
X151409800Y-65590100D02*
X149568800Y-63749000D01*
%TO.N,LATCH(G)2*%
X123700700Y-66700500D02*
X123700700Y-65590500D01*
X148869600Y-70119400D02*
X148869600Y-65590500D01*
X125499100Y-68498800D02*
X123700700Y-66700500D01*
X148869600Y-65590500D02*
X145961300Y-68498800D01*
X151998900Y-99999900D02*
X151998900Y-76748800D01*
X172270600Y-114310300D02*
X159458900Y-101501100D01*
X151998900Y-76748800D02*
X150200600Y-74950400D01*
X153500000Y-101501100D02*
X151998900Y-99999900D01*
X123700700Y-65590500D02*
X123670300Y-65590500D01*
X150200600Y-74950400D02*
X150200600Y-71450300D01*
X150200600Y-71450300D02*
X148869600Y-70119400D01*
X159458900Y-101501100D02*
X153500000Y-101501100D01*
X145961300Y-68498800D02*
X125499100Y-68498800D01*
%TO.N,DATA(P)2*%
X151399900Y-100150200D02*
X151399900Y-78649100D01*
X151399900Y-78649100D02*
X147600000Y-74849100D01*
X169730600Y-112479000D02*
X159250600Y-101998900D01*
X147600000Y-69850500D02*
X146748600Y-68999200D01*
X159250600Y-101998900D02*
X153248600Y-101998900D01*
X169730600Y-114310300D02*
X169730600Y-112479000D01*
X147600000Y-74849100D02*
X147600000Y-69850500D01*
X146748600Y-68999200D02*
X121998900Y-68999200D01*
X121998900Y-68999200D02*
X118589800Y-65590000D01*
X153248600Y-101998900D02*
X151399900Y-100150200D01*
%TO.N,EVA2*%
X163500000Y-101000700D02*
X166250800Y-101000700D01*
X166250800Y-101000700D02*
X168249800Y-98999200D01*
X168249800Y-88249900D02*
X169999900Y-86499800D01*
X168249800Y-98999200D02*
X168249800Y-88249900D01*
%TO.N,RESET*%
X195499900Y-82249900D02*
X189250100Y-76000000D01*
X185499800Y-76000000D02*
X183999800Y-74500100D01*
X189250100Y-76000000D02*
X185499800Y-76000000D01*
%TO.N,SDA*%
X176370200Y-108249800D02*
X188249800Y-108249800D01*
X188249800Y-108249800D02*
X189809300Y-106690300D01*
X174810600Y-106690300D02*
X176370200Y-108249800D01*
%TO.N,T2*%
X173399900Y-132099900D02*
X169999900Y-135499800D01*
X169999900Y-135499800D02*
X169999900Y-138000000D01*
X168899900Y-122799900D02*
X173399900Y-127299900D01*
X158459800Y-122799900D02*
X168899900Y-122799900D01*
X173399900Y-127299900D02*
X173399900Y-132099900D01*
X150269900Y-114610000D02*
X158459800Y-122799900D01*
%TO.N,T1*%
X150999900Y-131999900D02*
X147999700Y-135000100D01*
X150999900Y-117880000D02*
X150999900Y-131999900D01*
X147999700Y-135000100D02*
X147999700Y-138000000D01*
X147729900Y-114610000D02*
X150999900Y-117880000D01*
%TO.N,EVA1*%
X190248700Y-99250600D02*
X190248700Y-88249900D01*
X187500500Y-101998900D02*
X190248700Y-99250600D01*
X165750400Y-101998900D02*
X187500500Y-101998900D01*
X190248700Y-88249900D02*
X192001300Y-86499800D01*
%TO.N,EVA3*%
X145999400Y-101998900D02*
X145999400Y-88498800D01*
X145999400Y-88498800D02*
X148000900Y-86499800D01*
%TO.N,EVA5*%
X125299900Y-129199900D02*
X125299900Y-142799800D01*
X125299900Y-142799800D02*
X122000000Y-146099800D01*
X136300000Y-123499900D02*
X130999900Y-123499900D01*
X122000000Y-146099800D02*
X122000000Y-147749900D01*
X130999900Y-123499900D02*
X125299900Y-129199900D01*
X145189900Y-114610000D02*
X136300000Y-123499900D01*
%TO.N,T3*%
X195399800Y-127599900D02*
X195399800Y-133199900D01*
X152809900Y-114610000D02*
X159799800Y-121599900D01*
X191999800Y-136599800D02*
X191999800Y-138000000D01*
X195399800Y-133199900D02*
X191999800Y-136599800D01*
X189399800Y-121599900D02*
X195399800Y-127599900D01*
X159799800Y-121599900D02*
X189399800Y-121599900D01*
%TO.N,DATA(P)*%
X157889100Y-108089800D02*
X165900300Y-116101000D01*
X165900300Y-116101000D02*
X182941200Y-116101000D01*
X182941200Y-116101000D02*
X184729300Y-114310300D01*
X157889100Y-106990000D02*
X157889100Y-108089800D01*
%TO.N,GUARD1*%
D19*
X196998200Y-105002200D02*
X199500000Y-105002200D01*
X197000700Y-114999600D02*
X194501400Y-112500300D01*
X194501400Y-107499000D02*
X196998200Y-105002200D01*
X199500000Y-114999600D02*
X197000700Y-114999600D01*
X194501400Y-112500300D02*
X194501400Y-107499000D01*
%TO.N,GUARD2*%
X103126700Y-104999900D02*
X100624900Y-104999900D01*
X105623600Y-112498000D02*
X105623600Y-107496800D01*
X105623600Y-107496800D02*
X103126700Y-104999900D01*
X100624900Y-114997400D02*
X103124200Y-114997400D01*
X103124200Y-114997400D02*
X105623600Y-112498000D01*
%TD*%
%TA.AperFunction,Conductor*%
%TO.N,GND*%
G36*
X189808418Y-60520502D02*
G01*
X189829392Y-60537404D01*
X193824750Y-64532721D01*
X199326024Y-70033940D01*
X199462495Y-70170409D01*
X199496520Y-70232721D01*
X199499400Y-70259505D01*
X199499400Y-104240700D01*
X199479398Y-104308821D01*
X199425742Y-104355314D01*
X199373400Y-104366700D01*
X196935606Y-104366700D01*
X196812830Y-104391122D01*
X196812825Y-104391124D01*
X196697177Y-104439027D01*
X196593096Y-104508572D01*
X196593089Y-104508577D01*
X194007777Y-107093889D01*
X194007772Y-107093896D01*
X193938227Y-107197977D01*
X193890324Y-107313625D01*
X193890322Y-107313630D01*
X193865900Y-107436406D01*
X193865900Y-112562893D01*
X193889865Y-112683374D01*
X193890322Y-112685669D01*
X193938227Y-112801322D01*
X194007775Y-112905408D01*
X196507075Y-115404708D01*
X196595592Y-115493225D01*
X196699678Y-115562773D01*
X196815331Y-115610678D01*
X196938109Y-115635100D01*
X199373400Y-115635100D01*
X199441521Y-115655102D01*
X199488014Y-115708758D01*
X199499400Y-115761100D01*
X199499400Y-149740495D01*
X199479398Y-149808616D01*
X199462495Y-149829590D01*
X194642987Y-154649097D01*
X194642987Y-154649098D01*
X189829594Y-159462396D01*
X189767281Y-159496421D01*
X189740499Y-159499300D01*
X110259414Y-159499300D01*
X110191293Y-159479298D01*
X110170341Y-159462418D01*
X105352761Y-154647248D01*
X105352717Y-154647204D01*
X102579063Y-151872217D01*
X102496216Y-151789330D01*
X117572200Y-151789330D01*
X117572200Y-153363463D01*
X117572201Y-153363473D01*
X117586965Y-153437700D01*
X117643216Y-153521884D01*
X117727397Y-153578133D01*
X117727399Y-153578134D01*
X117801633Y-153592900D01*
X119375766Y-153592899D01*
X119375769Y-153592898D01*
X119375773Y-153592898D01*
X119425026Y-153583101D01*
X119450001Y-153578134D01*
X119534184Y-153521884D01*
X119590434Y-153437701D01*
X119605200Y-153363467D01*
X119605199Y-151789334D01*
X119605198Y-151789330D01*
X119605198Y-151789326D01*
X119590434Y-151715099D01*
X119534183Y-151630915D01*
X119450002Y-151574666D01*
X119375767Y-151559900D01*
X117801636Y-151559900D01*
X117801626Y-151559901D01*
X117727399Y-151574665D01*
X117643215Y-151630916D01*
X117586966Y-151715097D01*
X117572200Y-151789330D01*
X102496216Y-151789330D01*
X100537383Y-149829556D01*
X100503373Y-149767236D01*
X100500500Y-149740482D01*
X100500500Y-136184108D01*
X105249600Y-136184108D01*
X105249600Y-150184108D01*
X105249600Y-150315892D01*
X105260090Y-150355040D01*
X105283707Y-150443183D01*
X105283710Y-150443190D01*
X105349597Y-150557310D01*
X105349605Y-150557320D01*
X105442779Y-150650494D01*
X105442784Y-150650498D01*
X105442786Y-150650500D01*
X105556914Y-150716392D01*
X105684208Y-150750500D01*
X105684210Y-150750500D01*
X118815890Y-150750500D01*
X118815892Y-150750500D01*
X118943186Y-150716392D01*
X119057314Y-150650500D01*
X119150500Y-150557314D01*
X119216392Y-150443186D01*
X119250500Y-150315892D01*
X119250500Y-146962830D01*
X120983500Y-146962830D01*
X120983500Y-148536963D01*
X120983501Y-148536973D01*
X120998265Y-148611200D01*
X121054516Y-148695384D01*
X121138697Y-148751633D01*
X121138699Y-148751634D01*
X121212933Y-148766400D01*
X122787066Y-148766399D01*
X122787069Y-148766398D01*
X122787073Y-148766398D01*
X122836326Y-148756601D01*
X122861301Y-148751634D01*
X122945484Y-148695384D01*
X123001734Y-148611201D01*
X123016500Y-148536967D01*
X123016499Y-146962834D01*
X123016498Y-146962830D01*
X123016498Y-146962826D01*
X123001734Y-146888599D01*
X122945483Y-146804415D01*
X122861302Y-146748166D01*
X122787069Y-146733400D01*
X122787067Y-146733400D01*
X122507500Y-146733400D01*
X122439379Y-146713398D01*
X122392886Y-146659742D01*
X122381500Y-146607400D01*
X122381500Y-146310007D01*
X122401502Y-146241886D01*
X122418399Y-146220917D01*
X125539082Y-143100140D01*
X125605176Y-143034047D01*
X125651628Y-142953587D01*
X125654092Y-142949856D01*
X125655221Y-142947730D01*
X125673502Y-142879500D01*
X125673502Y-142879495D01*
X125680429Y-142853644D01*
X125681341Y-142850609D01*
X125681400Y-142850207D01*
X125681400Y-142850022D01*
X125681401Y-142850019D01*
X125681400Y-142749569D01*
X125681400Y-142289230D01*
X144072000Y-142289230D01*
X144072000Y-143863363D01*
X144072001Y-143863373D01*
X144086765Y-143937600D01*
X144143016Y-144021784D01*
X144227197Y-144078033D01*
X144227199Y-144078034D01*
X144301433Y-144092800D01*
X145875566Y-144092799D01*
X145875569Y-144092798D01*
X145875573Y-144092798D01*
X145924826Y-144083001D01*
X145949801Y-144078034D01*
X146033984Y-144021784D01*
X146090234Y-143937601D01*
X146105000Y-143863367D01*
X146104999Y-142289234D01*
X146104999Y-142289233D01*
X146104999Y-142289231D01*
X146104999Y-142289230D01*
X166072000Y-142289230D01*
X166072000Y-143863363D01*
X166072001Y-143863373D01*
X166086765Y-143937600D01*
X166143016Y-144021784D01*
X166227197Y-144078033D01*
X166227199Y-144078034D01*
X166301433Y-144092800D01*
X167875566Y-144092799D01*
X167875569Y-144092798D01*
X167875573Y-144092798D01*
X167924826Y-144083001D01*
X167949801Y-144078034D01*
X168033984Y-144021784D01*
X168090234Y-143937601D01*
X168105000Y-143863367D01*
X168104999Y-142289234D01*
X168104999Y-142289233D01*
X168104999Y-142289231D01*
X168104999Y-142289230D01*
X188072000Y-142289230D01*
X188072000Y-143863363D01*
X188072001Y-143863373D01*
X188086765Y-143937600D01*
X188143016Y-144021784D01*
X188227197Y-144078033D01*
X188227199Y-144078034D01*
X188301433Y-144092800D01*
X189875566Y-144092799D01*
X189875569Y-144092798D01*
X189875573Y-144092798D01*
X189924826Y-144083001D01*
X189949801Y-144078034D01*
X190033984Y-144021784D01*
X190090234Y-143937601D01*
X190105000Y-143863367D01*
X190104999Y-142289234D01*
X190104998Y-142289231D01*
X190104998Y-142289226D01*
X190090234Y-142214999D01*
X190033983Y-142130815D01*
X189949802Y-142074566D01*
X189875567Y-142059800D01*
X188301436Y-142059800D01*
X188301426Y-142059801D01*
X188227199Y-142074565D01*
X188143015Y-142130816D01*
X188086766Y-142214997D01*
X188072000Y-142289230D01*
X168104999Y-142289230D01*
X168090234Y-142214999D01*
X168033983Y-142130815D01*
X167949802Y-142074566D01*
X167875567Y-142059800D01*
X166301436Y-142059800D01*
X166301426Y-142059801D01*
X166227199Y-142074565D01*
X166143015Y-142130816D01*
X166086766Y-142214997D01*
X166072000Y-142289230D01*
X146104999Y-142289230D01*
X146090234Y-142214999D01*
X146033983Y-142130815D01*
X145949802Y-142074566D01*
X145875567Y-142059800D01*
X144301436Y-142059800D01*
X144301426Y-142059801D01*
X144227199Y-142074565D01*
X144143015Y-142130816D01*
X144086766Y-142214997D01*
X144072000Y-142289230D01*
X125681400Y-142289230D01*
X125681400Y-129410112D01*
X125701402Y-129341991D01*
X125718305Y-129321017D01*
X127965173Y-127074149D01*
X131499294Y-127074149D01*
X131499300Y-127074238D01*
X131499300Y-140934008D01*
X131499300Y-141065792D01*
X131524267Y-141158973D01*
X131533407Y-141193083D01*
X131533410Y-141193090D01*
X131599297Y-141307210D01*
X131599305Y-141307220D01*
X131692479Y-141400394D01*
X131692484Y-141400398D01*
X131692486Y-141400400D01*
X131806614Y-141466292D01*
X131933908Y-141500400D01*
X131933910Y-141500400D01*
X145065690Y-141500400D01*
X145065692Y-141500400D01*
X145192986Y-141466292D01*
X145307114Y-141400400D01*
X145400300Y-141307214D01*
X145466192Y-141193086D01*
X145500300Y-141065792D01*
X145500300Y-127712930D01*
X146983200Y-127712930D01*
X146983200Y-129287063D01*
X146983201Y-129287073D01*
X146997965Y-129361300D01*
X147054216Y-129445484D01*
X147138397Y-129501733D01*
X147138399Y-129501734D01*
X147212633Y-129516500D01*
X148786766Y-129516499D01*
X148786769Y-129516498D01*
X148786773Y-129516498D01*
X148836026Y-129506701D01*
X148861001Y-129501734D01*
X148945184Y-129445484D01*
X149001434Y-129361301D01*
X149016200Y-129287067D01*
X149016199Y-127712934D01*
X149016198Y-127712930D01*
X149016198Y-127712926D01*
X149001434Y-127638699D01*
X148945183Y-127554515D01*
X148861002Y-127498266D01*
X148786767Y-127483500D01*
X147212636Y-127483500D01*
X147212626Y-127483501D01*
X147138399Y-127498265D01*
X147054215Y-127554516D01*
X146997966Y-127638697D01*
X146983200Y-127712930D01*
X145500300Y-127712930D01*
X145500300Y-126994624D01*
X145500305Y-126934947D01*
X145500304Y-126934945D01*
X145500300Y-126934910D01*
X145500300Y-126934908D01*
X145483104Y-126870732D01*
X145466207Y-126807650D01*
X145466197Y-126807632D01*
X145466192Y-126807614D01*
X145434145Y-126752107D01*
X145400324Y-126693517D01*
X145400309Y-126693502D01*
X145400300Y-126693486D01*
X145353734Y-126646920D01*
X145307145Y-126600324D01*
X145307144Y-126600323D01*
X145307139Y-126600318D01*
X145307119Y-126600303D01*
X145305364Y-126599290D01*
X145248559Y-126566493D01*
X145248560Y-126566491D01*
X145248552Y-126566489D01*
X145193022Y-126534423D01*
X145193021Y-126534422D01*
X145193006Y-126534414D01*
X145192988Y-126534409D01*
X145192986Y-126534408D01*
X145128337Y-126517085D01*
X145100099Y-126509516D01*
X145065712Y-126500300D01*
X145065692Y-126500300D01*
X145000721Y-126500300D01*
X132073842Y-126499305D01*
X132073756Y-126499300D01*
X132065692Y-126499300D01*
X131998956Y-126499300D01*
X131933942Y-126499294D01*
X131933914Y-126499298D01*
X131869738Y-126516493D01*
X131869731Y-126516495D01*
X131806631Y-126533397D01*
X131761182Y-126559637D01*
X131761180Y-126559638D01*
X131751107Y-126565454D01*
X131692517Y-126599276D01*
X131692502Y-126599290D01*
X131692486Y-126599300D01*
X131645920Y-126645865D01*
X131599324Y-126692455D01*
X131599314Y-126692471D01*
X131599300Y-126692486D01*
X131565493Y-126751040D01*
X131533423Y-126806578D01*
X131533417Y-126806596D01*
X131533408Y-126806614D01*
X131516085Y-126871262D01*
X131513065Y-126882529D01*
X131513063Y-126882534D01*
X131499300Y-126933888D01*
X131499300Y-126994634D01*
X131499294Y-127074149D01*
X127965173Y-127074149D01*
X131121017Y-123918305D01*
X131183329Y-123884279D01*
X131210112Y-123881400D01*
X136350223Y-123881400D01*
X136350225Y-123881400D01*
X136447254Y-123855401D01*
X136447257Y-123855399D01*
X136447258Y-123855399D01*
X136490750Y-123830288D01*
X136534247Y-123805176D01*
X136605276Y-123734147D01*
X144638018Y-115701403D01*
X144700330Y-115667378D01*
X144727113Y-115664499D01*
X146014964Y-115664499D01*
X146014966Y-115664499D01*
X146014969Y-115664498D01*
X146014972Y-115664498D01*
X146062212Y-115655102D01*
X146089201Y-115649734D01*
X146173384Y-115593484D01*
X146229634Y-115509301D01*
X146244400Y-115435067D01*
X146244399Y-113784934D01*
X146244399Y-113784933D01*
X146244399Y-113784931D01*
X146244399Y-113784930D01*
X146675400Y-113784930D01*
X146675400Y-115435063D01*
X146675401Y-115435073D01*
X146690165Y-115509300D01*
X146746416Y-115593484D01*
X146830597Y-115649733D01*
X146830599Y-115649734D01*
X146904833Y-115664500D01*
X148192686Y-115664499D01*
X148260807Y-115684501D01*
X148281781Y-115701404D01*
X150581495Y-118001117D01*
X150615520Y-118063429D01*
X150618400Y-118090212D01*
X150618400Y-131789686D01*
X150598398Y-131857807D01*
X150581495Y-131878781D01*
X147747730Y-134712545D01*
X147747728Y-134712548D01*
X147694429Y-134765846D01*
X147694421Y-134765856D01*
X147644200Y-134852841D01*
X147618200Y-134949876D01*
X147618200Y-136857600D01*
X147598198Y-136925721D01*
X147544542Y-136972214D01*
X147492200Y-136983600D01*
X147212636Y-136983600D01*
X147212626Y-136983601D01*
X147138399Y-136998365D01*
X147054215Y-137054616D01*
X146997966Y-137138797D01*
X146983200Y-137213030D01*
X146983200Y-138787163D01*
X146983201Y-138787173D01*
X146997965Y-138861400D01*
X147054216Y-138945584D01*
X147138397Y-139001833D01*
X147138399Y-139001834D01*
X147212633Y-139016600D01*
X148786766Y-139016599D01*
X148786769Y-139016598D01*
X148786773Y-139016598D01*
X148836026Y-139006801D01*
X148861001Y-139001834D01*
X148945184Y-138945584D01*
X149001434Y-138861401D01*
X149016200Y-138787167D01*
X149016199Y-137213034D01*
X149016198Y-137213030D01*
X149016198Y-137213026D01*
X149001434Y-137138799D01*
X148945183Y-137054615D01*
X148861002Y-136998366D01*
X148786769Y-136983600D01*
X148786767Y-136983600D01*
X148507200Y-136983600D01*
X148439079Y-136963598D01*
X148392586Y-136909942D01*
X148381200Y-136857600D01*
X148381200Y-135210311D01*
X148401202Y-135142190D01*
X148418100Y-135121221D01*
X151223771Y-132315549D01*
X151223776Y-132315546D01*
X151234145Y-132305176D01*
X151234147Y-132305176D01*
X151305176Y-132234147D01*
X151319674Y-132209034D01*
X151334171Y-132183925D01*
X151334174Y-132183920D01*
X151355399Y-132147158D01*
X151355400Y-132147156D01*
X151355399Y-132147156D01*
X151355402Y-132147153D01*
X151381401Y-132050125D01*
X151381401Y-131949675D01*
X151381401Y-131941958D01*
X151381400Y-131941940D01*
X151381400Y-127074149D01*
X153499194Y-127074149D01*
X153499200Y-127074238D01*
X153499200Y-140934008D01*
X153499200Y-141065792D01*
X153524167Y-141158973D01*
X153533307Y-141193083D01*
X153533310Y-141193090D01*
X153599197Y-141307210D01*
X153599205Y-141307220D01*
X153692379Y-141400394D01*
X153692384Y-141400398D01*
X153692386Y-141400400D01*
X153806514Y-141466292D01*
X153933808Y-141500400D01*
X153933810Y-141500400D01*
X167065590Y-141500400D01*
X167065592Y-141500400D01*
X167192886Y-141466292D01*
X167307014Y-141400400D01*
X167400200Y-141307214D01*
X167466092Y-141193086D01*
X167500200Y-141065792D01*
X167500200Y-127712930D01*
X168983400Y-127712930D01*
X168983400Y-129287063D01*
X168983401Y-129287073D01*
X168998165Y-129361300D01*
X169054416Y-129445484D01*
X169138597Y-129501733D01*
X169138599Y-129501734D01*
X169212833Y-129516500D01*
X170786966Y-129516499D01*
X170786969Y-129516498D01*
X170786973Y-129516498D01*
X170836226Y-129506701D01*
X170861201Y-129501734D01*
X170945384Y-129445484D01*
X171001634Y-129361301D01*
X171016400Y-129287067D01*
X171016399Y-127712934D01*
X171016398Y-127712930D01*
X171016398Y-127712926D01*
X171001634Y-127638699D01*
X170945383Y-127554515D01*
X170861202Y-127498266D01*
X170786967Y-127483500D01*
X169212836Y-127483500D01*
X169212826Y-127483501D01*
X169138599Y-127498265D01*
X169054415Y-127554516D01*
X168998166Y-127638697D01*
X168983400Y-127712930D01*
X167500200Y-127712930D01*
X167500200Y-126994624D01*
X167500205Y-126934947D01*
X167500204Y-126934945D01*
X167500200Y-126934910D01*
X167500200Y-126934908D01*
X167483004Y-126870732D01*
X167466107Y-126807650D01*
X167466097Y-126807632D01*
X167466092Y-126807614D01*
X167434045Y-126752107D01*
X167400224Y-126693517D01*
X167400209Y-126693502D01*
X167400200Y-126693486D01*
X167353634Y-126646920D01*
X167307045Y-126600324D01*
X167307044Y-126600323D01*
X167307039Y-126600318D01*
X167307019Y-126600303D01*
X167305264Y-126599290D01*
X167248459Y-126566493D01*
X167248460Y-126566491D01*
X167248452Y-126566489D01*
X167192922Y-126534423D01*
X167192921Y-126534422D01*
X167192906Y-126534414D01*
X167192888Y-126534409D01*
X167192886Y-126534408D01*
X167128237Y-126517085D01*
X167099999Y-126509516D01*
X167065612Y-126500300D01*
X167065592Y-126500300D01*
X167000621Y-126500300D01*
X154073742Y-126499305D01*
X154073656Y-126499300D01*
X154065592Y-126499300D01*
X153998856Y-126499300D01*
X153933842Y-126499294D01*
X153933814Y-126499298D01*
X153869638Y-126516493D01*
X153869631Y-126516495D01*
X153806531Y-126533397D01*
X153761082Y-126559637D01*
X153761080Y-126559638D01*
X153751007Y-126565454D01*
X153692417Y-126599276D01*
X153692402Y-126599290D01*
X153692386Y-126599300D01*
X153645820Y-126645865D01*
X153599224Y-126692455D01*
X153599214Y-126692471D01*
X153599200Y-126692486D01*
X153565393Y-126751040D01*
X153533323Y-126806578D01*
X153533317Y-126806596D01*
X153533308Y-126806614D01*
X153515985Y-126871262D01*
X153512965Y-126882529D01*
X153512963Y-126882534D01*
X153499200Y-126933888D01*
X153499200Y-126994634D01*
X153499194Y-127074149D01*
X151381400Y-127074149D01*
X151381400Y-117829776D01*
X151361904Y-117757016D01*
X151355401Y-117732746D01*
X151355399Y-117732743D01*
X151355399Y-117732741D01*
X151305178Y-117645756D01*
X151305170Y-117645746D01*
X151229758Y-117570334D01*
X151229735Y-117570313D01*
X149539016Y-115879594D01*
X149504990Y-115817282D01*
X149510055Y-115746467D01*
X149552602Y-115689631D01*
X149619122Y-115664820D01*
X149628086Y-115664499D01*
X150732686Y-115664499D01*
X150800807Y-115684501D01*
X150821781Y-115701404D01*
X158225546Y-123105170D01*
X158225551Y-123105174D01*
X158225553Y-123105176D01*
X158225554Y-123105177D01*
X158225556Y-123105178D01*
X158293489Y-123144399D01*
X158312547Y-123155402D01*
X158409575Y-123181401D01*
X158409577Y-123181401D01*
X158517743Y-123181401D01*
X158517759Y-123181400D01*
X168689687Y-123181400D01*
X168757808Y-123201402D01*
X168778782Y-123218305D01*
X172981495Y-127421018D01*
X173015521Y-127483330D01*
X173018400Y-127510113D01*
X173018400Y-131889680D01*
X172998398Y-131957801D01*
X172981494Y-131978777D01*
X169768821Y-135191356D01*
X169768820Y-135191355D01*
X169694629Y-135265546D01*
X169694621Y-135265556D01*
X169644399Y-135352544D01*
X169636614Y-135381598D01*
X169636614Y-135381601D01*
X169618399Y-135449569D01*
X169618399Y-135560168D01*
X169618400Y-135560181D01*
X169618400Y-136857600D01*
X169598398Y-136925721D01*
X169544742Y-136972214D01*
X169492400Y-136983600D01*
X169212836Y-136983600D01*
X169212826Y-136983601D01*
X169138599Y-136998365D01*
X169054415Y-137054616D01*
X168998166Y-137138797D01*
X168983400Y-137213030D01*
X168983400Y-138787163D01*
X168983401Y-138787173D01*
X168998165Y-138861400D01*
X169054416Y-138945584D01*
X169138597Y-139001833D01*
X169138599Y-139001834D01*
X169212833Y-139016600D01*
X170786966Y-139016599D01*
X170786969Y-139016598D01*
X170786973Y-139016598D01*
X170836226Y-139006801D01*
X170861201Y-139001834D01*
X170945384Y-138945584D01*
X171001634Y-138861401D01*
X171016400Y-138787167D01*
X171016399Y-137213034D01*
X171016398Y-137213030D01*
X171016398Y-137213026D01*
X171001634Y-137138799D01*
X170945383Y-137054615D01*
X170861202Y-136998366D01*
X170786969Y-136983600D01*
X170786967Y-136983600D01*
X170507400Y-136983600D01*
X170439279Y-136963598D01*
X170392786Y-136909942D01*
X170381400Y-136857600D01*
X170381400Y-135710017D01*
X170401402Y-135641896D01*
X170418306Y-135620920D01*
X170686690Y-135352544D01*
X173623774Y-132415545D01*
X173623780Y-132415542D01*
X173634145Y-132405176D01*
X173634147Y-132405176D01*
X173683922Y-132355401D01*
X173705172Y-132334152D01*
X173705173Y-132334149D01*
X173705176Y-132334147D01*
X173755401Y-132247154D01*
X173771111Y-132188521D01*
X173780429Y-132153748D01*
X173781342Y-132150711D01*
X173781400Y-132150316D01*
X173781400Y-132099906D01*
X173781401Y-132049681D01*
X173781400Y-132049677D01*
X173781400Y-127249675D01*
X173755401Y-127152646D01*
X173755400Y-127152644D01*
X173755399Y-127152640D01*
X173750955Y-127144943D01*
X173750950Y-127144936D01*
X173710081Y-127074149D01*
X175499194Y-127074149D01*
X175499200Y-127074238D01*
X175499200Y-140934008D01*
X175499200Y-141065792D01*
X175524167Y-141158973D01*
X175533307Y-141193083D01*
X175533310Y-141193090D01*
X175599197Y-141307210D01*
X175599205Y-141307220D01*
X175692379Y-141400394D01*
X175692384Y-141400398D01*
X175692386Y-141400400D01*
X175806514Y-141466292D01*
X175933808Y-141500400D01*
X175933810Y-141500400D01*
X189065590Y-141500400D01*
X189065592Y-141500400D01*
X189192886Y-141466292D01*
X189307014Y-141400400D01*
X189400200Y-141307214D01*
X189466092Y-141193086D01*
X189500200Y-141065792D01*
X189500200Y-127712930D01*
X190983300Y-127712930D01*
X190983300Y-129287063D01*
X190983301Y-129287073D01*
X190998065Y-129361300D01*
X191054316Y-129445484D01*
X191138497Y-129501733D01*
X191138499Y-129501734D01*
X191212733Y-129516500D01*
X192786866Y-129516499D01*
X192786869Y-129516498D01*
X192786873Y-129516498D01*
X192836126Y-129506701D01*
X192861101Y-129501734D01*
X192945284Y-129445484D01*
X193001534Y-129361301D01*
X193016300Y-129287067D01*
X193016299Y-127712934D01*
X193016298Y-127712930D01*
X193016298Y-127712926D01*
X193001534Y-127638699D01*
X192945283Y-127554515D01*
X192861102Y-127498266D01*
X192786867Y-127483500D01*
X191212736Y-127483500D01*
X191212726Y-127483501D01*
X191138499Y-127498265D01*
X191054315Y-127554516D01*
X190998066Y-127638697D01*
X190983300Y-127712930D01*
X189500200Y-127712930D01*
X189500200Y-126994624D01*
X189500205Y-126934947D01*
X189500204Y-126934945D01*
X189500200Y-126934910D01*
X189500200Y-126934908D01*
X189483004Y-126870732D01*
X189466107Y-126807650D01*
X189466097Y-126807632D01*
X189466092Y-126807614D01*
X189434045Y-126752107D01*
X189400224Y-126693517D01*
X189400209Y-126693502D01*
X189400200Y-126693486D01*
X189353634Y-126646920D01*
X189307045Y-126600324D01*
X189307044Y-126600323D01*
X189307039Y-126600318D01*
X189307019Y-126600303D01*
X189305264Y-126599290D01*
X189248459Y-126566493D01*
X189248460Y-126566491D01*
X189248452Y-126566489D01*
X189192922Y-126534423D01*
X189192921Y-126534422D01*
X189192906Y-126534414D01*
X189192888Y-126534409D01*
X189192886Y-126534408D01*
X189128237Y-126517085D01*
X189099999Y-126509516D01*
X189065612Y-126500300D01*
X189065592Y-126500300D01*
X189000621Y-126500300D01*
X176073742Y-126499305D01*
X176073656Y-126499300D01*
X176065592Y-126499300D01*
X175998856Y-126499300D01*
X175933842Y-126499294D01*
X175933814Y-126499298D01*
X175869638Y-126516493D01*
X175869631Y-126516495D01*
X175806531Y-126533397D01*
X175761082Y-126559637D01*
X175761080Y-126559638D01*
X175751007Y-126565454D01*
X175692417Y-126599276D01*
X175692402Y-126599290D01*
X175692386Y-126599300D01*
X175645820Y-126645865D01*
X175599224Y-126692455D01*
X175599214Y-126692471D01*
X175599200Y-126692486D01*
X175565393Y-126751040D01*
X175533323Y-126806578D01*
X175533317Y-126806596D01*
X175533308Y-126806614D01*
X175515985Y-126871262D01*
X175512965Y-126882529D01*
X175512963Y-126882534D01*
X175499200Y-126933888D01*
X175499200Y-126994634D01*
X175499194Y-127074149D01*
X173710081Y-127074149D01*
X173705176Y-127065653D01*
X173634147Y-126994624D01*
X173138817Y-126499294D01*
X169134153Y-122494629D01*
X169134143Y-122494621D01*
X169047158Y-122444400D01*
X169035692Y-122441327D01*
X168950125Y-122418400D01*
X168950123Y-122418400D01*
X158670013Y-122418400D01*
X158601892Y-122398398D01*
X158580918Y-122381495D01*
X152079017Y-115879594D01*
X152044991Y-115817282D01*
X152050056Y-115746467D01*
X152092603Y-115689631D01*
X152159123Y-115664820D01*
X152168087Y-115664499D01*
X153272686Y-115664499D01*
X153340807Y-115684501D01*
X153361781Y-115701404D01*
X159490113Y-121829735D01*
X159490134Y-121829758D01*
X159565546Y-121905170D01*
X159565551Y-121905174D01*
X159565553Y-121905176D01*
X159565554Y-121905177D01*
X159565556Y-121905178D01*
X159652541Y-121955399D01*
X159652543Y-121955399D01*
X159652546Y-121955401D01*
X159749575Y-121981400D01*
X189189587Y-121981400D01*
X189257708Y-122001402D01*
X189278682Y-122018305D01*
X194981395Y-127721017D01*
X195015421Y-127783329D01*
X195018300Y-127810112D01*
X195018300Y-132989680D01*
X194998298Y-133057801D01*
X194981394Y-133078777D01*
X191768721Y-136291356D01*
X191768720Y-136291355D01*
X191694529Y-136365546D01*
X191694521Y-136365556D01*
X191644299Y-136452544D01*
X191634784Y-136488054D01*
X191634784Y-136488057D01*
X191618299Y-136549569D01*
X191618299Y-136660168D01*
X191618300Y-136660181D01*
X191618300Y-136857600D01*
X191598298Y-136925721D01*
X191544642Y-136972214D01*
X191492300Y-136983600D01*
X191212736Y-136983600D01*
X191212726Y-136983601D01*
X191138499Y-136998365D01*
X191054315Y-137054616D01*
X190998066Y-137138797D01*
X190983300Y-137213030D01*
X190983300Y-138787163D01*
X190983301Y-138787173D01*
X190998065Y-138861400D01*
X191054316Y-138945584D01*
X191138497Y-139001833D01*
X191138499Y-139001834D01*
X191212733Y-139016600D01*
X192786866Y-139016599D01*
X192786869Y-139016598D01*
X192786873Y-139016598D01*
X192836126Y-139006801D01*
X192861101Y-139001834D01*
X192945284Y-138945584D01*
X193001534Y-138861401D01*
X193016300Y-138787167D01*
X193016299Y-137213034D01*
X193016298Y-137213030D01*
X193016298Y-137213026D01*
X193001534Y-137138799D01*
X192945283Y-137054615D01*
X192861102Y-136998366D01*
X192786869Y-136983600D01*
X192786867Y-136983600D01*
X192507300Y-136983600D01*
X192439179Y-136963598D01*
X192392686Y-136909942D01*
X192381300Y-136857600D01*
X192381300Y-136810017D01*
X192401302Y-136741896D01*
X192418206Y-136720920D01*
X192686590Y-136452544D01*
X195623675Y-133515544D01*
X195623681Y-133515541D01*
X195634045Y-133505176D01*
X195634047Y-133505176D01*
X195671372Y-133467850D01*
X195696260Y-133442962D01*
X195698628Y-133441022D01*
X195703658Y-133435657D01*
X195705089Y-133434179D01*
X195706080Y-133432521D01*
X195710251Y-133425772D01*
X195711448Y-133423108D01*
X195755301Y-133347154D01*
X195763156Y-133317837D01*
X195771010Y-133288526D01*
X195771011Y-133288521D01*
X195780327Y-133253757D01*
X195781242Y-133250711D01*
X195781300Y-133250316D01*
X195781300Y-133199906D01*
X195781301Y-133149681D01*
X195781300Y-133149677D01*
X195781300Y-127549675D01*
X195755301Y-127452646D01*
X195755299Y-127452643D01*
X195755299Y-127452641D01*
X195705078Y-127365656D01*
X195705070Y-127365646D01*
X195629658Y-127290234D01*
X195629635Y-127290213D01*
X189634053Y-121294629D01*
X189634043Y-121294621D01*
X189547058Y-121244400D01*
X189535592Y-121241327D01*
X189450025Y-121218400D01*
X189450023Y-121218400D01*
X160010012Y-121218400D01*
X159941891Y-121198398D01*
X159920917Y-121181495D01*
X154619017Y-115879594D01*
X154584991Y-115817282D01*
X154590056Y-115746467D01*
X154632603Y-115689631D01*
X154699123Y-115664820D01*
X154708087Y-115664499D01*
X156174966Y-115664499D01*
X156174969Y-115664498D01*
X156174973Y-115664498D01*
X156224226Y-115654701D01*
X156249201Y-115649734D01*
X156333384Y-115593484D01*
X156389634Y-115509301D01*
X156404400Y-115435067D01*
X156404399Y-113784934D01*
X156404398Y-113784931D01*
X156404398Y-113784926D01*
X156389634Y-113710699D01*
X156333383Y-113626515D01*
X156249202Y-113570266D01*
X156174967Y-113555500D01*
X154524836Y-113555500D01*
X154524826Y-113555501D01*
X154450599Y-113570265D01*
X154366415Y-113626516D01*
X154310166Y-113710697D01*
X154295400Y-113784930D01*
X154295400Y-115251787D01*
X154275398Y-115319908D01*
X154221742Y-115366401D01*
X154151468Y-115376505D01*
X154086888Y-115347011D01*
X154080305Y-115340882D01*
X153901304Y-115161881D01*
X153867278Y-115099569D01*
X153864399Y-115072786D01*
X153864399Y-113784936D01*
X153864398Y-113784927D01*
X153849634Y-113710699D01*
X153793383Y-113626515D01*
X153709202Y-113570266D01*
X153634967Y-113555500D01*
X151984836Y-113555500D01*
X151984826Y-113555501D01*
X151910599Y-113570265D01*
X151826415Y-113626516D01*
X151770166Y-113710697D01*
X151755400Y-113784930D01*
X151755400Y-115251787D01*
X151735398Y-115319908D01*
X151681742Y-115366401D01*
X151611468Y-115376505D01*
X151546888Y-115347011D01*
X151540305Y-115340882D01*
X151361304Y-115161881D01*
X151327278Y-115099569D01*
X151324399Y-115072786D01*
X151324399Y-113784936D01*
X151324398Y-113784927D01*
X151309634Y-113710699D01*
X151253383Y-113626515D01*
X151169202Y-113570266D01*
X151094967Y-113555500D01*
X149444836Y-113555500D01*
X149444826Y-113555501D01*
X149370599Y-113570265D01*
X149286415Y-113626516D01*
X149230166Y-113710697D01*
X149215400Y-113784930D01*
X149215400Y-115251788D01*
X149195398Y-115319909D01*
X149141742Y-115366402D01*
X149071468Y-115376506D01*
X149006888Y-115347012D01*
X149000305Y-115340883D01*
X148821304Y-115161882D01*
X148787278Y-115099570D01*
X148784399Y-115072787D01*
X148784399Y-113784936D01*
X148784398Y-113784927D01*
X148769634Y-113710699D01*
X148713383Y-113626515D01*
X148629202Y-113570266D01*
X148554967Y-113555500D01*
X146904836Y-113555500D01*
X146904826Y-113555501D01*
X146830599Y-113570265D01*
X146746415Y-113626516D01*
X146690166Y-113710697D01*
X146675400Y-113784930D01*
X146244399Y-113784930D01*
X146229634Y-113710699D01*
X146173383Y-113626515D01*
X146089202Y-113570266D01*
X146014967Y-113555500D01*
X144364836Y-113555500D01*
X144364826Y-113555501D01*
X144290599Y-113570265D01*
X144206415Y-113626516D01*
X144150166Y-113710697D01*
X144135400Y-113784930D01*
X144135400Y-115072786D01*
X144115398Y-115140907D01*
X144098499Y-115161876D01*
X144008590Y-115251786D01*
X143919494Y-115340882D01*
X143857182Y-115374907D01*
X143786366Y-115369842D01*
X143729531Y-115327295D01*
X143704720Y-115260774D01*
X143704399Y-115251810D01*
X143704399Y-113784934D01*
X143704398Y-113784931D01*
X143704398Y-113784926D01*
X143689634Y-113710699D01*
X143633383Y-113626515D01*
X143549202Y-113570266D01*
X143474967Y-113555500D01*
X141824836Y-113555500D01*
X141824826Y-113555501D01*
X141750599Y-113570265D01*
X141666415Y-113626516D01*
X141610166Y-113710697D01*
X141595400Y-113784930D01*
X141595400Y-115435063D01*
X141595401Y-115435073D01*
X141610165Y-115509300D01*
X141666416Y-115593484D01*
X141750597Y-115649733D01*
X141750599Y-115649734D01*
X141824833Y-115664500D01*
X143291686Y-115664499D01*
X143359807Y-115684501D01*
X143406300Y-115738157D01*
X143416404Y-115808431D01*
X143386911Y-115873011D01*
X143380781Y-115879594D01*
X136178882Y-123081495D01*
X136116570Y-123115521D01*
X136089787Y-123118400D01*
X130949675Y-123118400D01*
X130890290Y-123134312D01*
X130852641Y-123144400D01*
X130765656Y-123194621D01*
X130765651Y-123194625D01*
X130741972Y-123218305D01*
X130694624Y-123265653D01*
X130694622Y-123265655D01*
X125047930Y-128912345D01*
X125047928Y-128912348D01*
X124994629Y-128965646D01*
X124994621Y-128965656D01*
X124944400Y-129052641D01*
X124918400Y-129149676D01*
X124918400Y-142589591D01*
X124898398Y-142657712D01*
X124881497Y-142678685D01*
X121765753Y-145794524D01*
X121765751Y-145794525D01*
X121694729Y-145865546D01*
X121694721Y-145865556D01*
X121644497Y-145952548D01*
X121627620Y-146015537D01*
X121618499Y-146049578D01*
X121618500Y-146150031D01*
X121618500Y-146607400D01*
X121598498Y-146675521D01*
X121544842Y-146722014D01*
X121492500Y-146733400D01*
X121212936Y-146733400D01*
X121212926Y-146733401D01*
X121138699Y-146748165D01*
X121054515Y-146804416D01*
X120998266Y-146888597D01*
X120983500Y-146962830D01*
X119250500Y-146962830D01*
X119250500Y-137462930D01*
X120983500Y-137462930D01*
X120983500Y-139037063D01*
X120983501Y-139037073D01*
X120998265Y-139111300D01*
X121054516Y-139195484D01*
X121138697Y-139251733D01*
X121138699Y-139251734D01*
X121212933Y-139266500D01*
X122787066Y-139266499D01*
X122787069Y-139266498D01*
X122787073Y-139266498D01*
X122836326Y-139256701D01*
X122861301Y-139251734D01*
X122945484Y-139195484D01*
X123001734Y-139111301D01*
X123016500Y-139037067D01*
X123016499Y-137462934D01*
X123016498Y-137462930D01*
X123016498Y-137462926D01*
X123001734Y-137388699D01*
X122945483Y-137304515D01*
X122861302Y-137248266D01*
X122787067Y-137233500D01*
X121212936Y-137233500D01*
X121212926Y-137233501D01*
X121138699Y-137248265D01*
X121054515Y-137304516D01*
X120998266Y-137388697D01*
X120983500Y-137462930D01*
X119250500Y-137462930D01*
X119250500Y-136184108D01*
X119216392Y-136056814D01*
X119150500Y-135942686D01*
X119150498Y-135942684D01*
X119150494Y-135942679D01*
X119057320Y-135849505D01*
X119057310Y-135849497D01*
X118943190Y-135783610D01*
X118943187Y-135783609D01*
X118943186Y-135783608D01*
X118943184Y-135783607D01*
X118943183Y-135783607D01*
X118909073Y-135774467D01*
X118815892Y-135749500D01*
X105815992Y-135749500D01*
X105684208Y-135749500D01*
X105615994Y-135767777D01*
X105556916Y-135783607D01*
X105556909Y-135783610D01*
X105442789Y-135849497D01*
X105442779Y-135849505D01*
X105349605Y-135942679D01*
X105349597Y-135942689D01*
X105283710Y-136056809D01*
X105283708Y-136056814D01*
X105249600Y-136184108D01*
X100500500Y-136184108D01*
X100500500Y-133289230D01*
X117822200Y-133289230D01*
X117822200Y-134863363D01*
X117822201Y-134863373D01*
X117836965Y-134937600D01*
X117893216Y-135021784D01*
X117977397Y-135078033D01*
X117977399Y-135078034D01*
X118051633Y-135092800D01*
X119625766Y-135092799D01*
X119625769Y-135092798D01*
X119625773Y-135092798D01*
X119675026Y-135083001D01*
X119700001Y-135078034D01*
X119784184Y-135021784D01*
X119840434Y-134937601D01*
X119855200Y-134863367D01*
X119855199Y-133289234D01*
X119855198Y-133289230D01*
X119855198Y-133289226D01*
X119840434Y-133214999D01*
X119796789Y-133149681D01*
X119784184Y-133130816D01*
X119784183Y-133130815D01*
X119700002Y-133074566D01*
X119625767Y-133059800D01*
X118051636Y-133059800D01*
X118051626Y-133059801D01*
X117977399Y-133074565D01*
X117893215Y-133130816D01*
X117836966Y-133214997D01*
X117822200Y-133289230D01*
X100500500Y-133289230D01*
X100500500Y-117884308D01*
X105249500Y-117884308D01*
X105249500Y-131884308D01*
X105249500Y-132016092D01*
X105258619Y-132050125D01*
X105283607Y-132143383D01*
X105283610Y-132143390D01*
X105349497Y-132257510D01*
X105349505Y-132257520D01*
X105442679Y-132350694D01*
X105442684Y-132350698D01*
X105442686Y-132350700D01*
X105442687Y-132350701D01*
X105442689Y-132350702D01*
X105522906Y-132397015D01*
X105556814Y-132416592D01*
X105684108Y-132450700D01*
X105684110Y-132450700D01*
X118815790Y-132450700D01*
X118815792Y-132450700D01*
X118943086Y-132416592D01*
X119057214Y-132350700D01*
X119150400Y-132257514D01*
X119216292Y-132143386D01*
X119250400Y-132016092D01*
X119250400Y-128212830D01*
X120983500Y-128212830D01*
X120983500Y-129786963D01*
X120983501Y-129786973D01*
X120998265Y-129861200D01*
X121054516Y-129945384D01*
X121138697Y-130001633D01*
X121138699Y-130001634D01*
X121212933Y-130016400D01*
X122787066Y-130016399D01*
X122787069Y-130016398D01*
X122787073Y-130016398D01*
X122836326Y-130006601D01*
X122861301Y-130001634D01*
X122945484Y-129945384D01*
X123001734Y-129861201D01*
X123016500Y-129786967D01*
X123016499Y-128212834D01*
X123016498Y-128212830D01*
X123016498Y-128212826D01*
X123001734Y-128138599D01*
X122945483Y-128054415D01*
X122861302Y-127998166D01*
X122787067Y-127983400D01*
X121212936Y-127983400D01*
X121212926Y-127983401D01*
X121138699Y-127998165D01*
X121054515Y-128054416D01*
X120998266Y-128138597D01*
X120983500Y-128212830D01*
X119250400Y-128212830D01*
X119250400Y-118712930D01*
X120983500Y-118712930D01*
X120983500Y-120287063D01*
X120983501Y-120287073D01*
X120998265Y-120361300D01*
X121054516Y-120445484D01*
X121138697Y-120501733D01*
X121138699Y-120501734D01*
X121212933Y-120516500D01*
X122787066Y-120516499D01*
X122787069Y-120516498D01*
X122787073Y-120516498D01*
X122836326Y-120506701D01*
X122861301Y-120501734D01*
X122945484Y-120445484D01*
X123001734Y-120361301D01*
X123016500Y-120287067D01*
X123016499Y-118712934D01*
X123016498Y-118712930D01*
X123016498Y-118712926D01*
X123001734Y-118638699D01*
X122945483Y-118554515D01*
X122861302Y-118498266D01*
X122787067Y-118483500D01*
X121212936Y-118483500D01*
X121212926Y-118483501D01*
X121138699Y-118498265D01*
X121054515Y-118554516D01*
X120998266Y-118638697D01*
X120983500Y-118712930D01*
X119250400Y-118712930D01*
X119250400Y-117884308D01*
X119216292Y-117757014D01*
X119152057Y-117645756D01*
X119150402Y-117642889D01*
X119150394Y-117642879D01*
X119057220Y-117549705D01*
X119057210Y-117549697D01*
X118943090Y-117483810D01*
X118943087Y-117483809D01*
X118943086Y-117483808D01*
X118943084Y-117483807D01*
X118943083Y-117483807D01*
X118908973Y-117474667D01*
X118815792Y-117449700D01*
X105815892Y-117449700D01*
X105684108Y-117449700D01*
X105615894Y-117467977D01*
X105556816Y-117483807D01*
X105556809Y-117483810D01*
X105442689Y-117549697D01*
X105442679Y-117549705D01*
X105349505Y-117642879D01*
X105349497Y-117642889D01*
X105283610Y-117757009D01*
X105283608Y-117757014D01*
X105249500Y-117884308D01*
X100500500Y-117884308D01*
X100500500Y-115758900D01*
X100520502Y-115690779D01*
X100574158Y-115644286D01*
X100626500Y-115632900D01*
X103186790Y-115632900D01*
X103186791Y-115632900D01*
X103309569Y-115608478D01*
X103425222Y-115560573D01*
X103529308Y-115491025D01*
X105235403Y-113784930D01*
X139055400Y-113784930D01*
X139055400Y-115435063D01*
X139055401Y-115435073D01*
X139070165Y-115509300D01*
X139126416Y-115593484D01*
X139210597Y-115649733D01*
X139210599Y-115649734D01*
X139284833Y-115664500D01*
X140934966Y-115664499D01*
X140934969Y-115664498D01*
X140934973Y-115664498D01*
X140984226Y-115654701D01*
X141009201Y-115649734D01*
X141093384Y-115593484D01*
X141149634Y-115509301D01*
X141164400Y-115435067D01*
X141164399Y-113784934D01*
X141164398Y-113784931D01*
X141164398Y-113784926D01*
X141149634Y-113710699D01*
X141093383Y-113626515D01*
X141009202Y-113570266D01*
X140934967Y-113555500D01*
X139284836Y-113555500D01*
X139284826Y-113555501D01*
X139210599Y-113570265D01*
X139126415Y-113626516D01*
X139070166Y-113710697D01*
X139055400Y-113784930D01*
X105235403Y-113784930D01*
X106117225Y-112903108D01*
X106186773Y-112799022D01*
X106234678Y-112683369D01*
X106259100Y-112560591D01*
X106259100Y-112435409D01*
X106259100Y-107863030D01*
X135640000Y-107863030D01*
X135640000Y-109437163D01*
X135640001Y-109437173D01*
X135654765Y-109511400D01*
X135711016Y-109595584D01*
X135795197Y-109651833D01*
X135795199Y-109651834D01*
X135869433Y-109666600D01*
X137443566Y-109666599D01*
X137443569Y-109666598D01*
X137443573Y-109666598D01*
X137492826Y-109656801D01*
X137517801Y-109651834D01*
X137601984Y-109595584D01*
X137658234Y-109511401D01*
X137673000Y-109437167D01*
X137672999Y-107863034D01*
X137672998Y-107863030D01*
X137672998Y-107863026D01*
X137658234Y-107788799D01*
X137655990Y-107785440D01*
X137601984Y-107704616D01*
X137601983Y-107704615D01*
X137517802Y-107648366D01*
X137443567Y-107633600D01*
X135869436Y-107633600D01*
X135869426Y-107633601D01*
X135795199Y-107648365D01*
X135711015Y-107704616D01*
X135654766Y-107788797D01*
X135640000Y-107863030D01*
X106259100Y-107863030D01*
X106259100Y-107434209D01*
X106234678Y-107311431D01*
X106186773Y-107195778D01*
X106117225Y-107091692D01*
X106028708Y-107003175D01*
X105190463Y-106164930D01*
X139055400Y-106164930D01*
X139055400Y-107815063D01*
X139055401Y-107815073D01*
X139070165Y-107889300D01*
X139126416Y-107973484D01*
X139210597Y-108029733D01*
X139210599Y-108029734D01*
X139284833Y-108044500D01*
X140934966Y-108044499D01*
X140934969Y-108044498D01*
X140934973Y-108044498D01*
X140991453Y-108033264D01*
X141009201Y-108029734D01*
X141093384Y-107973484D01*
X141149634Y-107889301D01*
X141164400Y-107815067D01*
X141164399Y-106164934D01*
X141164399Y-106164933D01*
X141164399Y-106164931D01*
X141164399Y-106164930D01*
X144135400Y-106164930D01*
X144135400Y-107815063D01*
X144135401Y-107815073D01*
X144150165Y-107889300D01*
X144206416Y-107973484D01*
X144290597Y-108029733D01*
X144290599Y-108029734D01*
X144364833Y-108044500D01*
X146014966Y-108044499D01*
X146014969Y-108044498D01*
X146014973Y-108044498D01*
X146071453Y-108033264D01*
X146089201Y-108029734D01*
X146173384Y-107973484D01*
X146229634Y-107889301D01*
X146244400Y-107815067D01*
X146244399Y-106164934D01*
X146244399Y-106164933D01*
X146244399Y-106164931D01*
X146244399Y-106164930D01*
X146675400Y-106164930D01*
X146675400Y-107815063D01*
X146675401Y-107815073D01*
X146690165Y-107889300D01*
X146746416Y-107973484D01*
X146830597Y-108029733D01*
X146830599Y-108029734D01*
X146904833Y-108044500D01*
X148554966Y-108044499D01*
X148554969Y-108044498D01*
X148554973Y-108044498D01*
X148611453Y-108033264D01*
X148629201Y-108029734D01*
X148713384Y-107973484D01*
X148769634Y-107889301D01*
X148784400Y-107815067D01*
X148784399Y-106164934D01*
X148784399Y-106164933D01*
X148784399Y-106164931D01*
X148784399Y-106164930D01*
X149215400Y-106164930D01*
X149215400Y-107815063D01*
X149215401Y-107815073D01*
X149230165Y-107889300D01*
X149286416Y-107973484D01*
X149370597Y-108029733D01*
X149370599Y-108029734D01*
X149444833Y-108044500D01*
X151094966Y-108044499D01*
X151094969Y-108044498D01*
X151094973Y-108044498D01*
X151151453Y-108033264D01*
X151169201Y-108029734D01*
X151253384Y-107973484D01*
X151309634Y-107889301D01*
X151324400Y-107815067D01*
X151324399Y-106164934D01*
X151324399Y-106164933D01*
X151324399Y-106164931D01*
X151324399Y-106164930D01*
X151755400Y-106164930D01*
X151755400Y-107815063D01*
X151755401Y-107815073D01*
X151770165Y-107889300D01*
X151826416Y-107973484D01*
X151910597Y-108029733D01*
X151910599Y-108029734D01*
X151984833Y-108044500D01*
X153634966Y-108044499D01*
X153634969Y-108044498D01*
X153634973Y-108044498D01*
X153691453Y-108033264D01*
X153709201Y-108029734D01*
X153793384Y-107973484D01*
X153849634Y-107889301D01*
X153864400Y-107815067D01*
X153864399Y-106164934D01*
X153864399Y-106164933D01*
X153864399Y-106164931D01*
X153864399Y-106164930D01*
X154295400Y-106164930D01*
X154295400Y-107815063D01*
X154295401Y-107815073D01*
X154310165Y-107889300D01*
X154366416Y-107973484D01*
X154450597Y-108029733D01*
X154450599Y-108029734D01*
X154524833Y-108044500D01*
X156174966Y-108044499D01*
X156174969Y-108044498D01*
X156174973Y-108044498D01*
X156231453Y-108033264D01*
X156249201Y-108029734D01*
X156333384Y-107973484D01*
X156389634Y-107889301D01*
X156404400Y-107815067D01*
X156404399Y-106164934D01*
X156404399Y-106164933D01*
X156404399Y-106164931D01*
X156404399Y-106164930D01*
X156835400Y-106164930D01*
X156835400Y-107815063D01*
X156835401Y-107815073D01*
X156850165Y-107889300D01*
X156906416Y-107973484D01*
X156990597Y-108029733D01*
X156990599Y-108029734D01*
X157064833Y-108044500D01*
X157385320Y-108044499D01*
X157453440Y-108064501D01*
X157499933Y-108118156D01*
X157507026Y-108137887D01*
X157533596Y-108237046D01*
X157533601Y-108237058D01*
X157576873Y-108312007D01*
X157576875Y-108312011D01*
X157583822Y-108324044D01*
X157583823Y-108324046D01*
X165666046Y-116406270D01*
X165666051Y-116406274D01*
X165666053Y-116406276D01*
X165666054Y-116406277D01*
X165666056Y-116406278D01*
X165710144Y-116431732D01*
X165753047Y-116456502D01*
X165850075Y-116482501D01*
X165850077Y-116482501D01*
X165958243Y-116482501D01*
X165958259Y-116482500D01*
X182882730Y-116482500D01*
X182883382Y-116482542D01*
X182891249Y-116482536D01*
X182891252Y-116482537D01*
X182942165Y-116482500D01*
X182991425Y-116482500D01*
X182991426Y-116482500D01*
X182991694Y-116482464D01*
X182991702Y-116482464D01*
X183040166Y-116469439D01*
X183040267Y-116469441D01*
X183040260Y-116469414D01*
X183088454Y-116456501D01*
X183088456Y-116456499D01*
X183088482Y-116456489D01*
X183088704Y-116456395D01*
X183088711Y-116456394D01*
X183131354Y-116431731D01*
X183131450Y-116431707D01*
X183131437Y-116431684D01*
X183136391Y-116428823D01*
X183175447Y-116406276D01*
X183175453Y-116406270D01*
X183175665Y-116406107D01*
X183175664Y-116406107D01*
X183175669Y-116406105D01*
X183210665Y-116371056D01*
X183210751Y-116371009D01*
X183210732Y-116370990D01*
X183246476Y-116335247D01*
X183246477Y-116335244D01*
X183252099Y-116329623D01*
X183252520Y-116329140D01*
X184017776Y-115562772D01*
X184078891Y-115501568D01*
X184141178Y-115467498D01*
X184168051Y-115464599D01*
X185654864Y-115464599D01*
X185654866Y-115464599D01*
X185654869Y-115464598D01*
X185654872Y-115464598D01*
X185691463Y-115457319D01*
X185729101Y-115449834D01*
X185813284Y-115393584D01*
X185869534Y-115309401D01*
X185876221Y-115275782D01*
X185909128Y-115212873D01*
X185970822Y-115177740D01*
X186041717Y-115181540D01*
X186099304Y-115223065D01*
X186123379Y-115275782D01*
X186130066Y-115309401D01*
X186186316Y-115393584D01*
X186270497Y-115449833D01*
X186270499Y-115449834D01*
X186344733Y-115464600D01*
X188194866Y-115464599D01*
X188194869Y-115464598D01*
X188194873Y-115464598D01*
X188244126Y-115454801D01*
X188269101Y-115449834D01*
X188353284Y-115393584D01*
X188409534Y-115309401D01*
X188424300Y-115235167D01*
X188424299Y-113385034D01*
X188424298Y-113385030D01*
X188424298Y-113385026D01*
X188409534Y-113310799D01*
X188353283Y-113226615D01*
X188269102Y-113170366D01*
X188194867Y-113155600D01*
X186344736Y-113155600D01*
X186344726Y-113155601D01*
X186270499Y-113170365D01*
X186186315Y-113226616D01*
X186130066Y-113310796D01*
X186123378Y-113344419D01*
X186090469Y-113407329D01*
X186028773Y-113442459D01*
X185957879Y-113438658D01*
X185900293Y-113397132D01*
X185876220Y-113344415D01*
X185869534Y-113310799D01*
X185813283Y-113226615D01*
X185729102Y-113170366D01*
X185654867Y-113155600D01*
X183804736Y-113155600D01*
X183804726Y-113155601D01*
X183730499Y-113170365D01*
X183646315Y-113226616D01*
X183590066Y-113310796D01*
X183583378Y-113344419D01*
X183550469Y-113407329D01*
X183488773Y-113442459D01*
X183417879Y-113438658D01*
X183360293Y-113397132D01*
X183336220Y-113344415D01*
X183329534Y-113310799D01*
X183273283Y-113226615D01*
X183189102Y-113170366D01*
X183114867Y-113155600D01*
X181264736Y-113155600D01*
X181264726Y-113155601D01*
X181190499Y-113170365D01*
X181106315Y-113226616D01*
X181050066Y-113310797D01*
X181035300Y-113385030D01*
X181035300Y-115235163D01*
X181035301Y-115235173D01*
X181050065Y-115309400D01*
X181106316Y-115393584D01*
X181190497Y-115449833D01*
X181190499Y-115449834D01*
X181264733Y-115464600D01*
X182733666Y-115464599D01*
X182801787Y-115484601D01*
X182848280Y-115538257D01*
X182858384Y-115608531D01*
X182828891Y-115673111D01*
X182822838Y-115679618D01*
X182819942Y-115682519D01*
X182757659Y-115716597D01*
X182730770Y-115719500D01*
X166110513Y-115719500D01*
X166042392Y-115699498D01*
X166021418Y-115682595D01*
X158598417Y-108259594D01*
X158564391Y-108197282D01*
X158569456Y-108126467D01*
X158612003Y-108069631D01*
X158678523Y-108044820D01*
X158687512Y-108044499D01*
X158714964Y-108044499D01*
X158714966Y-108044499D01*
X158714969Y-108044498D01*
X158714972Y-108044498D01*
X158751563Y-108037219D01*
X158789201Y-108029734D01*
X158873384Y-107973484D01*
X158929634Y-107889301D01*
X158944400Y-107815067D01*
X158944399Y-106164934D01*
X158944398Y-106164931D01*
X158944398Y-106164926D01*
X158929634Y-106090699D01*
X158929633Y-106090697D01*
X158873384Y-106006516D01*
X158873383Y-106006515D01*
X158789202Y-105950266D01*
X158714967Y-105935500D01*
X157064836Y-105935500D01*
X157064826Y-105935501D01*
X156990599Y-105950265D01*
X156906415Y-106006516D01*
X156850166Y-106090697D01*
X156835400Y-106164930D01*
X156404399Y-106164930D01*
X156389634Y-106090699D01*
X156389633Y-106090697D01*
X156333384Y-106006516D01*
X156333383Y-106006515D01*
X156249202Y-105950266D01*
X156174967Y-105935500D01*
X154524836Y-105935500D01*
X154524826Y-105935501D01*
X154450599Y-105950265D01*
X154366415Y-106006516D01*
X154310166Y-106090697D01*
X154295400Y-106164930D01*
X153864399Y-106164930D01*
X153849634Y-106090699D01*
X153849633Y-106090697D01*
X153793384Y-106006516D01*
X153793383Y-106006515D01*
X153709202Y-105950266D01*
X153634967Y-105935500D01*
X151984836Y-105935500D01*
X151984826Y-105935501D01*
X151910599Y-105950265D01*
X151826415Y-106006516D01*
X151770166Y-106090697D01*
X151755400Y-106164930D01*
X151324399Y-106164930D01*
X151309634Y-106090699D01*
X151309633Y-106090697D01*
X151253384Y-106006516D01*
X151253383Y-106006515D01*
X151169202Y-105950266D01*
X151094967Y-105935500D01*
X149444836Y-105935500D01*
X149444826Y-105935501D01*
X149370599Y-105950265D01*
X149286415Y-106006516D01*
X149230166Y-106090697D01*
X149215400Y-106164930D01*
X148784399Y-106164930D01*
X148769634Y-106090699D01*
X148769633Y-106090697D01*
X148713384Y-106006516D01*
X148713383Y-106006515D01*
X148629202Y-105950266D01*
X148554967Y-105935500D01*
X146904836Y-105935500D01*
X146904826Y-105935501D01*
X146830599Y-105950265D01*
X146746415Y-106006516D01*
X146690166Y-106090697D01*
X146675400Y-106164930D01*
X146244399Y-106164930D01*
X146229634Y-106090699D01*
X146229633Y-106090697D01*
X146173384Y-106006516D01*
X146173383Y-106006515D01*
X146089202Y-105950266D01*
X146014967Y-105935500D01*
X144364836Y-105935500D01*
X144364826Y-105935501D01*
X144290599Y-105950265D01*
X144206415Y-106006516D01*
X144150166Y-106090697D01*
X144135400Y-106164930D01*
X141164399Y-106164930D01*
X141149634Y-106090699D01*
X141149633Y-106090697D01*
X141093384Y-106006516D01*
X141093383Y-106006515D01*
X141009202Y-105950266D01*
X140934967Y-105935500D01*
X139284836Y-105935500D01*
X139284826Y-105935501D01*
X139210599Y-105950265D01*
X139126415Y-106006516D01*
X139070166Y-106090697D01*
X139055400Y-106164930D01*
X105190463Y-106164930D01*
X103531808Y-104506275D01*
X103427722Y-104436727D01*
X103358608Y-104408099D01*
X103312074Y-104388824D01*
X103312069Y-104388822D01*
X103189293Y-104364400D01*
X103189291Y-104364400D01*
X100626500Y-104364400D01*
X100558379Y-104344398D01*
X100511886Y-104290742D01*
X100500500Y-104238400D01*
X100500500Y-102604530D01*
X115123400Y-102604530D01*
X115123400Y-104178663D01*
X115123401Y-104178673D01*
X115138165Y-104252900D01*
X115194416Y-104337084D01*
X115278597Y-104393333D01*
X115278599Y-104393334D01*
X115352833Y-104408100D01*
X116926966Y-104408099D01*
X116926969Y-104408098D01*
X116926973Y-104408098D01*
X116976226Y-104398301D01*
X117001201Y-104393334D01*
X117085384Y-104337084D01*
X117141634Y-104252901D01*
X117156400Y-104178667D01*
X117156399Y-102604534D01*
X117156398Y-102604530D01*
X117156398Y-102604526D01*
X117147009Y-102557323D01*
X117145138Y-102547916D01*
X117143351Y-102538930D01*
X118162300Y-102538930D01*
X118162300Y-104113063D01*
X118162301Y-104113073D01*
X118177065Y-104187300D01*
X118233316Y-104271484D01*
X118317497Y-104327733D01*
X118317499Y-104327734D01*
X118391733Y-104342500D01*
X119965866Y-104342499D01*
X119965869Y-104342498D01*
X119965873Y-104342498D01*
X120015126Y-104332701D01*
X120040101Y-104327734D01*
X120124284Y-104271484D01*
X120180534Y-104187301D01*
X120195300Y-104113067D01*
X120195299Y-102538934D01*
X120195299Y-102538933D01*
X120195299Y-102538931D01*
X120195299Y-102538930D01*
X128322300Y-102538930D01*
X128322300Y-104113063D01*
X128322301Y-104113073D01*
X128337065Y-104187300D01*
X128393316Y-104271484D01*
X128477497Y-104327733D01*
X128477499Y-104327734D01*
X128551733Y-104342500D01*
X130125866Y-104342499D01*
X130125869Y-104342498D01*
X130125873Y-104342498D01*
X130175126Y-104332701D01*
X130200101Y-104327734D01*
X130284284Y-104271484D01*
X130340534Y-104187301D01*
X130355300Y-104113067D01*
X130355299Y-102538934D01*
X130355298Y-102538931D01*
X130355298Y-102538926D01*
X130340534Y-102464699D01*
X130308866Y-102417305D01*
X130284284Y-102380516D01*
X130284112Y-102380401D01*
X130200102Y-102324266D01*
X130125867Y-102309500D01*
X128551736Y-102309500D01*
X128551726Y-102309501D01*
X128477499Y-102324265D01*
X128393315Y-102380516D01*
X128337066Y-102464697D01*
X128322300Y-102538930D01*
X120195299Y-102538930D01*
X120180534Y-102464699D01*
X120148866Y-102417305D01*
X120124284Y-102380516D01*
X120124112Y-102380401D01*
X120040102Y-102324266D01*
X119965867Y-102309500D01*
X118391736Y-102309500D01*
X118391726Y-102309501D01*
X118317499Y-102324265D01*
X118233315Y-102380516D01*
X118177066Y-102464697D01*
X118162300Y-102538930D01*
X117143351Y-102538930D01*
X117141634Y-102530299D01*
X117085384Y-102446116D01*
X117076505Y-102440183D01*
X117001202Y-102389866D01*
X116926967Y-102375100D01*
X115352836Y-102375100D01*
X115352826Y-102375101D01*
X115278599Y-102389865D01*
X115194415Y-102446116D01*
X115138166Y-102530297D01*
X115123400Y-102604530D01*
X100500500Y-102604530D01*
X100500500Y-100064530D01*
X115123400Y-100064530D01*
X115123400Y-101638663D01*
X115123401Y-101638673D01*
X115138165Y-101712900D01*
X115194416Y-101797084D01*
X115278597Y-101853333D01*
X115278599Y-101853334D01*
X115352833Y-101868100D01*
X116926966Y-101868099D01*
X116926969Y-101868098D01*
X116926973Y-101868098D01*
X116976226Y-101858301D01*
X117001201Y-101853334D01*
X117085384Y-101797084D01*
X117141634Y-101712901D01*
X117156400Y-101638667D01*
X117156399Y-100064534D01*
X117156398Y-100064530D01*
X117156398Y-100064526D01*
X117155005Y-100057523D01*
X117151347Y-100039130D01*
X118162300Y-100039130D01*
X118162300Y-101613263D01*
X118162301Y-101613273D01*
X118177065Y-101687500D01*
X118233316Y-101771684D01*
X118317497Y-101827933D01*
X118317499Y-101827934D01*
X118391733Y-101842700D01*
X119965866Y-101842699D01*
X119965869Y-101842698D01*
X119965873Y-101842698D01*
X120015126Y-101832901D01*
X120040101Y-101827934D01*
X120124284Y-101771684D01*
X120180534Y-101687501D01*
X120195300Y-101613267D01*
X120195299Y-100039134D01*
X120195299Y-100039133D01*
X120195299Y-100039131D01*
X120195299Y-100039130D01*
X128322300Y-100039130D01*
X128322300Y-101613263D01*
X128322301Y-101613273D01*
X128337065Y-101687500D01*
X128393316Y-101771684D01*
X128477497Y-101827933D01*
X128477499Y-101827934D01*
X128551733Y-101842700D01*
X130125866Y-101842699D01*
X130125869Y-101842698D01*
X130125873Y-101842698D01*
X130175126Y-101832901D01*
X130200101Y-101827934D01*
X130284284Y-101771684D01*
X130340534Y-101687501D01*
X130355300Y-101613267D01*
X130355299Y-100039134D01*
X130355298Y-100039131D01*
X130355298Y-100039126D01*
X130340534Y-99964899D01*
X130284283Y-99880715D01*
X130200102Y-99824466D01*
X130125867Y-99809700D01*
X128551736Y-99809700D01*
X128551726Y-99809701D01*
X128477499Y-99824465D01*
X128393315Y-99880716D01*
X128337066Y-99964897D01*
X128322300Y-100039130D01*
X120195299Y-100039130D01*
X120180534Y-99964899D01*
X120124283Y-99880715D01*
X120040102Y-99824466D01*
X119965867Y-99809700D01*
X118391736Y-99809700D01*
X118391726Y-99809701D01*
X118317499Y-99824465D01*
X118233315Y-99880716D01*
X118177066Y-99964897D01*
X118162300Y-100039130D01*
X117151347Y-100039130D01*
X117141634Y-99990299D01*
X117085383Y-99906115D01*
X117001202Y-99849866D01*
X116926967Y-99835100D01*
X115352836Y-99835100D01*
X115352826Y-99835101D01*
X115278599Y-99849865D01*
X115194415Y-99906116D01*
X115138166Y-99990297D01*
X115123400Y-100064530D01*
X100500500Y-100064530D01*
X100500500Y-97524530D01*
X115123400Y-97524530D01*
X115123400Y-99098663D01*
X115123401Y-99098673D01*
X115138165Y-99172900D01*
X115194416Y-99257084D01*
X115278597Y-99313333D01*
X115278599Y-99313334D01*
X115352833Y-99328100D01*
X116926966Y-99328099D01*
X116926969Y-99328098D01*
X116926973Y-99328098D01*
X116976226Y-99318301D01*
X117001201Y-99313334D01*
X117085384Y-99257084D01*
X117141634Y-99172901D01*
X117156400Y-99098667D01*
X117156399Y-97538930D01*
X118162300Y-97538930D01*
X118162300Y-99113063D01*
X118162301Y-99113073D01*
X118177065Y-99187300D01*
X118233316Y-99271484D01*
X118317497Y-99327733D01*
X118317499Y-99327734D01*
X118391733Y-99342500D01*
X119965866Y-99342499D01*
X119965869Y-99342498D01*
X119965873Y-99342498D01*
X120015126Y-99332701D01*
X120040101Y-99327734D01*
X120124284Y-99271484D01*
X120180534Y-99187301D01*
X120195300Y-99113067D01*
X120195299Y-97538934D01*
X120195299Y-97538933D01*
X120195299Y-97538931D01*
X120195299Y-97538930D01*
X128322300Y-97538930D01*
X128322300Y-99113063D01*
X128322301Y-99113073D01*
X128337065Y-99187300D01*
X128393316Y-99271484D01*
X128477497Y-99327733D01*
X128477499Y-99327734D01*
X128551733Y-99342500D01*
X130125866Y-99342499D01*
X130125869Y-99342498D01*
X130125873Y-99342498D01*
X130175126Y-99332701D01*
X130200101Y-99327734D01*
X130284284Y-99271484D01*
X130340534Y-99187301D01*
X130355300Y-99113067D01*
X130355299Y-97538934D01*
X130355298Y-97538931D01*
X130355298Y-97538926D01*
X130340534Y-97464699D01*
X130284283Y-97380515D01*
X130200102Y-97324266D01*
X130125867Y-97309500D01*
X128551736Y-97309500D01*
X128551726Y-97309501D01*
X128477499Y-97324265D01*
X128393315Y-97380516D01*
X128337066Y-97464697D01*
X128322300Y-97538930D01*
X120195299Y-97538930D01*
X120180534Y-97464699D01*
X120124283Y-97380515D01*
X120040102Y-97324266D01*
X119965867Y-97309500D01*
X118391736Y-97309500D01*
X118391726Y-97309501D01*
X118317499Y-97324265D01*
X118233315Y-97380516D01*
X118177066Y-97464697D01*
X118162300Y-97538930D01*
X117156399Y-97538930D01*
X117156399Y-97524534D01*
X117156398Y-97524530D01*
X117156398Y-97524526D01*
X117141634Y-97450299D01*
X117085383Y-97366115D01*
X117001202Y-97309866D01*
X116926967Y-97295100D01*
X115352836Y-97295100D01*
X115352826Y-97295101D01*
X115278599Y-97309865D01*
X115194415Y-97366116D01*
X115138166Y-97450297D01*
X115123400Y-97524530D01*
X100500500Y-97524530D01*
X100500500Y-94984530D01*
X115123400Y-94984530D01*
X115123400Y-96558663D01*
X115123401Y-96558673D01*
X115138165Y-96632900D01*
X115194416Y-96717084D01*
X115278597Y-96773333D01*
X115278599Y-96773334D01*
X115352833Y-96788100D01*
X116926966Y-96788099D01*
X116926969Y-96788098D01*
X116926973Y-96788098D01*
X116976226Y-96778301D01*
X117001201Y-96773334D01*
X117085384Y-96717084D01*
X117141634Y-96632901D01*
X117156400Y-96558667D01*
X117156399Y-95039130D01*
X118162300Y-95039130D01*
X118162300Y-96613263D01*
X118162301Y-96613273D01*
X118177065Y-96687500D01*
X118233316Y-96771684D01*
X118317497Y-96827933D01*
X118317499Y-96827934D01*
X118391733Y-96842700D01*
X119965866Y-96842699D01*
X119965869Y-96842698D01*
X119965873Y-96842698D01*
X120015126Y-96832901D01*
X120040101Y-96827934D01*
X120124284Y-96771684D01*
X120180534Y-96687501D01*
X120195300Y-96613267D01*
X120195299Y-95039134D01*
X120195299Y-95039133D01*
X120195299Y-95039131D01*
X120195299Y-95039130D01*
X128322300Y-95039130D01*
X128322300Y-96613263D01*
X128322301Y-96613273D01*
X128337065Y-96687500D01*
X128393316Y-96771684D01*
X128477497Y-96827933D01*
X128477499Y-96827934D01*
X128551733Y-96842700D01*
X130125866Y-96842699D01*
X130125869Y-96842698D01*
X130125873Y-96842698D01*
X130175126Y-96832901D01*
X130200101Y-96827934D01*
X130284284Y-96771684D01*
X130340534Y-96687501D01*
X130355300Y-96613267D01*
X130355299Y-95039134D01*
X130355298Y-95039131D01*
X130355298Y-95039126D01*
X130340534Y-94964899D01*
X130304051Y-94910299D01*
X130284284Y-94880716D01*
X130284283Y-94880715D01*
X130200102Y-94824466D01*
X130125867Y-94809700D01*
X128551736Y-94809700D01*
X128551726Y-94809701D01*
X128477499Y-94824465D01*
X128393315Y-94880716D01*
X128337066Y-94964897D01*
X128322300Y-95039130D01*
X120195299Y-95039130D01*
X120180534Y-94964899D01*
X120144051Y-94910299D01*
X120124284Y-94880716D01*
X120124283Y-94880715D01*
X120040102Y-94824466D01*
X119965867Y-94809700D01*
X118391736Y-94809700D01*
X118391726Y-94809701D01*
X118317499Y-94824465D01*
X118233315Y-94880716D01*
X118177066Y-94964897D01*
X118162300Y-95039130D01*
X117156399Y-95039130D01*
X117156399Y-94984534D01*
X117156398Y-94984530D01*
X117156398Y-94984526D01*
X117141634Y-94910299D01*
X117085383Y-94826115D01*
X117001202Y-94769866D01*
X116926967Y-94755100D01*
X115352836Y-94755100D01*
X115352826Y-94755101D01*
X115278599Y-94769865D01*
X115194415Y-94826116D01*
X115138166Y-94910297D01*
X115123400Y-94984530D01*
X100500500Y-94984530D01*
X100500500Y-92444530D01*
X115123400Y-92444530D01*
X115123400Y-94018663D01*
X115123401Y-94018673D01*
X115138165Y-94092900D01*
X115194416Y-94177084D01*
X115278597Y-94233333D01*
X115278599Y-94233334D01*
X115352833Y-94248100D01*
X116926966Y-94248099D01*
X116926969Y-94248098D01*
X116926973Y-94248098D01*
X116976226Y-94238301D01*
X117001201Y-94233334D01*
X117085384Y-94177084D01*
X117141634Y-94092901D01*
X117156400Y-94018667D01*
X117156399Y-92539030D01*
X118162300Y-92539030D01*
X118162300Y-94113163D01*
X118162301Y-94113173D01*
X118177065Y-94187400D01*
X118233316Y-94271584D01*
X118317497Y-94327833D01*
X118317499Y-94327834D01*
X118391733Y-94342600D01*
X119965866Y-94342599D01*
X119965869Y-94342598D01*
X119965873Y-94342598D01*
X120015126Y-94332801D01*
X120040101Y-94327834D01*
X120124284Y-94271584D01*
X120152409Y-94229492D01*
X120180534Y-94187402D01*
X120184200Y-94168969D01*
X120195300Y-94113167D01*
X120195299Y-92539034D01*
X120195299Y-92539033D01*
X120195299Y-92539031D01*
X120195299Y-92539030D01*
X128322300Y-92539030D01*
X128322300Y-94113163D01*
X128322301Y-94113173D01*
X128337065Y-94187400D01*
X128393316Y-94271584D01*
X128477497Y-94327833D01*
X128477499Y-94327834D01*
X128551733Y-94342600D01*
X130125866Y-94342599D01*
X130125869Y-94342598D01*
X130125873Y-94342598D01*
X130175126Y-94332801D01*
X130200101Y-94327834D01*
X130284284Y-94271584D01*
X130312409Y-94229492D01*
X130340534Y-94187402D01*
X130344200Y-94168969D01*
X130355300Y-94113167D01*
X130355299Y-92539034D01*
X130355298Y-92539031D01*
X130355298Y-92539026D01*
X130340534Y-92464799D01*
X130340533Y-92464797D01*
X130284284Y-92380616D01*
X130268841Y-92370297D01*
X130200102Y-92324366D01*
X130125867Y-92309600D01*
X128551736Y-92309600D01*
X128551726Y-92309601D01*
X128477499Y-92324365D01*
X128393315Y-92380616D01*
X128337066Y-92464797D01*
X128322300Y-92539030D01*
X120195299Y-92539030D01*
X120180534Y-92464799D01*
X120180533Y-92464797D01*
X120124284Y-92380616D01*
X120108841Y-92370297D01*
X120040102Y-92324366D01*
X119965867Y-92309600D01*
X118391736Y-92309600D01*
X118391726Y-92309601D01*
X118317499Y-92324365D01*
X118233315Y-92380616D01*
X118177066Y-92464797D01*
X118162300Y-92539030D01*
X117156399Y-92539030D01*
X117156399Y-92444534D01*
X117156398Y-92444530D01*
X117156398Y-92444526D01*
X117141634Y-92370299D01*
X117101076Y-92309601D01*
X117085384Y-92286116D01*
X117085383Y-92286115D01*
X117001202Y-92229866D01*
X116926967Y-92215100D01*
X115352836Y-92215100D01*
X115352826Y-92215101D01*
X115278599Y-92229865D01*
X115194415Y-92286116D01*
X115138166Y-92370297D01*
X115123400Y-92444530D01*
X100500500Y-92444530D01*
X100500500Y-89904530D01*
X115123400Y-89904530D01*
X115123400Y-91478663D01*
X115123401Y-91478673D01*
X115138165Y-91552900D01*
X115194416Y-91637084D01*
X115278597Y-91693333D01*
X115278599Y-91693334D01*
X115352833Y-91708100D01*
X116926966Y-91708099D01*
X116926969Y-91708098D01*
X116926973Y-91708098D01*
X116976226Y-91698301D01*
X117001201Y-91693334D01*
X117085384Y-91637084D01*
X117141634Y-91552901D01*
X117156400Y-91478667D01*
X117156399Y-90039130D01*
X118162300Y-90039130D01*
X118162300Y-91613263D01*
X118162301Y-91613273D01*
X118177065Y-91687500D01*
X118233316Y-91771684D01*
X118317497Y-91827933D01*
X118317499Y-91827934D01*
X118391733Y-91842700D01*
X119965866Y-91842699D01*
X119965869Y-91842698D01*
X119965873Y-91842698D01*
X120015126Y-91832901D01*
X120040101Y-91827934D01*
X120124284Y-91771684D01*
X120180534Y-91687501D01*
X120195300Y-91613267D01*
X120195299Y-90039134D01*
X120195299Y-90039133D01*
X120195299Y-90039131D01*
X120195299Y-90039130D01*
X128322300Y-90039130D01*
X128322300Y-91613263D01*
X128322301Y-91613273D01*
X128337065Y-91687500D01*
X128393316Y-91771684D01*
X128477497Y-91827933D01*
X128477499Y-91827934D01*
X128551733Y-91842700D01*
X130125866Y-91842699D01*
X130125869Y-91842698D01*
X130125873Y-91842698D01*
X130175126Y-91832901D01*
X130200101Y-91827934D01*
X130284284Y-91771684D01*
X130340534Y-91687501D01*
X130355300Y-91613267D01*
X130355299Y-90039134D01*
X130355298Y-90039131D01*
X130355298Y-90039126D01*
X130340534Y-89964899D01*
X130300196Y-89904530D01*
X130284284Y-89880716D01*
X130284283Y-89880715D01*
X130200102Y-89824466D01*
X130125867Y-89809700D01*
X128551736Y-89809700D01*
X128551726Y-89809701D01*
X128477499Y-89824465D01*
X128393315Y-89880716D01*
X128337066Y-89964897D01*
X128322300Y-90039130D01*
X120195299Y-90039130D01*
X120180534Y-89964899D01*
X120140196Y-89904530D01*
X120124284Y-89880716D01*
X120124283Y-89880715D01*
X120040102Y-89824466D01*
X119965867Y-89809700D01*
X118391736Y-89809700D01*
X118391726Y-89809701D01*
X118317499Y-89824465D01*
X118233315Y-89880716D01*
X118177066Y-89964897D01*
X118162300Y-90039130D01*
X117156399Y-90039130D01*
X117156399Y-89904534D01*
X117156398Y-89904530D01*
X117156398Y-89904526D01*
X117141634Y-89830299D01*
X117085383Y-89746115D01*
X117001202Y-89689866D01*
X116926967Y-89675100D01*
X115352836Y-89675100D01*
X115352826Y-89675101D01*
X115278599Y-89689865D01*
X115194415Y-89746116D01*
X115138166Y-89830297D01*
X115123400Y-89904530D01*
X100500500Y-89904530D01*
X100500500Y-87364530D01*
X115123400Y-87364530D01*
X115123400Y-88938663D01*
X115123401Y-88938673D01*
X115138165Y-89012900D01*
X115194416Y-89097084D01*
X115278597Y-89153333D01*
X115278599Y-89153334D01*
X115352833Y-89168100D01*
X116926966Y-89168099D01*
X116926969Y-89168098D01*
X116926973Y-89168098D01*
X116976226Y-89158301D01*
X117001201Y-89153334D01*
X117085384Y-89097084D01*
X117141634Y-89012901D01*
X117156400Y-88938667D01*
X117156399Y-87539030D01*
X118162300Y-87539030D01*
X118162300Y-89113163D01*
X118162301Y-89113173D01*
X118177065Y-89187400D01*
X118233316Y-89271584D01*
X118317497Y-89327833D01*
X118317499Y-89327834D01*
X118391733Y-89342600D01*
X119965866Y-89342599D01*
X119965869Y-89342598D01*
X119965873Y-89342598D01*
X120015126Y-89332801D01*
X120040101Y-89327834D01*
X120124284Y-89271584D01*
X120180534Y-89187401D01*
X120195300Y-89113167D01*
X120195299Y-87539034D01*
X120195299Y-87539033D01*
X120195299Y-87539031D01*
X120195299Y-87539030D01*
X128322300Y-87539030D01*
X128322300Y-89113163D01*
X128322301Y-89113173D01*
X128337065Y-89187400D01*
X128393316Y-89271584D01*
X128477497Y-89327833D01*
X128477499Y-89327834D01*
X128551733Y-89342600D01*
X130125866Y-89342599D01*
X130125869Y-89342598D01*
X130125873Y-89342598D01*
X130175126Y-89332801D01*
X130200101Y-89327834D01*
X130284284Y-89271584D01*
X130340534Y-89187401D01*
X130355300Y-89113167D01*
X130355299Y-87539034D01*
X130355298Y-87539031D01*
X130355298Y-87539026D01*
X130340534Y-87464799D01*
X130284283Y-87380615D01*
X130200102Y-87324366D01*
X130125867Y-87309600D01*
X128551736Y-87309600D01*
X128551726Y-87309601D01*
X128477499Y-87324365D01*
X128393315Y-87380616D01*
X128337066Y-87464797D01*
X128322300Y-87539030D01*
X120195299Y-87539030D01*
X120180534Y-87464799D01*
X120124283Y-87380615D01*
X120040102Y-87324366D01*
X119965867Y-87309600D01*
X118391736Y-87309600D01*
X118391726Y-87309601D01*
X118317499Y-87324365D01*
X118233315Y-87380616D01*
X118177066Y-87464797D01*
X118162300Y-87539030D01*
X117156399Y-87539030D01*
X117156399Y-87364534D01*
X117156398Y-87364530D01*
X117156398Y-87364526D01*
X117141634Y-87290299D01*
X117085383Y-87206115D01*
X117001202Y-87149866D01*
X116926967Y-87135100D01*
X115352836Y-87135100D01*
X115352826Y-87135101D01*
X115278599Y-87149865D01*
X115194415Y-87206116D01*
X115138166Y-87290297D01*
X115123400Y-87364530D01*
X100500500Y-87364530D01*
X100500500Y-84824530D01*
X115123400Y-84824530D01*
X115123400Y-86398663D01*
X115123401Y-86398673D01*
X115138165Y-86472900D01*
X115194416Y-86557084D01*
X115278597Y-86613333D01*
X115278599Y-86613334D01*
X115352833Y-86628100D01*
X116926966Y-86628099D01*
X116926969Y-86628098D01*
X116926973Y-86628098D01*
X116976226Y-86618301D01*
X117001201Y-86613334D01*
X117085384Y-86557084D01*
X117141634Y-86472901D01*
X117156400Y-86398667D01*
X117156399Y-85039130D01*
X118162300Y-85039130D01*
X118162300Y-86613263D01*
X118162301Y-86613273D01*
X118177065Y-86687500D01*
X118233316Y-86771684D01*
X118317497Y-86827933D01*
X118317499Y-86827934D01*
X118391733Y-86842700D01*
X119965866Y-86842699D01*
X119965869Y-86842698D01*
X119965873Y-86842698D01*
X120015126Y-86832901D01*
X120040101Y-86827934D01*
X120124284Y-86771684D01*
X120180534Y-86687501D01*
X120195300Y-86613267D01*
X120195299Y-85039134D01*
X120195299Y-85039133D01*
X120195299Y-85039131D01*
X120195299Y-85039130D01*
X128322300Y-85039130D01*
X128322300Y-86613263D01*
X128322301Y-86613273D01*
X128337065Y-86687500D01*
X128393316Y-86771684D01*
X128477497Y-86827933D01*
X128477499Y-86827934D01*
X128551733Y-86842700D01*
X130125866Y-86842699D01*
X130125869Y-86842698D01*
X130125873Y-86842698D01*
X130175126Y-86832901D01*
X130200101Y-86827934D01*
X130284284Y-86771684D01*
X130340534Y-86687501D01*
X130355300Y-86613267D01*
X130355299Y-85074349D01*
X131499494Y-85074349D01*
X131499500Y-85074438D01*
X131499500Y-98934008D01*
X131499500Y-99065792D01*
X131521081Y-99146335D01*
X131533607Y-99193083D01*
X131533610Y-99193090D01*
X131599497Y-99307210D01*
X131599505Y-99307220D01*
X131692679Y-99400394D01*
X131692684Y-99400398D01*
X131692686Y-99400400D01*
X131806814Y-99466292D01*
X131934108Y-99500400D01*
X131934110Y-99500400D01*
X145065890Y-99500400D01*
X145065892Y-99500400D01*
X145193186Y-99466292D01*
X145307314Y-99400400D01*
X145322698Y-99385016D01*
X145402805Y-99304910D01*
X145465117Y-99270884D01*
X145535932Y-99275949D01*
X145592768Y-99318496D01*
X145617579Y-99385016D01*
X145617900Y-99394005D01*
X145617900Y-101538740D01*
X145597898Y-101606861D01*
X145580995Y-101627835D01*
X145552354Y-101656475D01*
X145552346Y-101656485D01*
X145478716Y-101784017D01*
X145440600Y-101926268D01*
X145440600Y-102073531D01*
X145440599Y-102073531D01*
X145478716Y-102215782D01*
X145552346Y-102343314D01*
X145552354Y-102343324D01*
X145656475Y-102447445D01*
X145656480Y-102447449D01*
X145656482Y-102447451D01*
X145656483Y-102447452D01*
X145656485Y-102447453D01*
X145686353Y-102464697D01*
X145784018Y-102521084D01*
X145926267Y-102559200D01*
X145926269Y-102559200D01*
X146073531Y-102559200D01*
X146073533Y-102559200D01*
X146215782Y-102521084D01*
X146343318Y-102447451D01*
X146447451Y-102343318D01*
X146521084Y-102215782D01*
X146559200Y-102073533D01*
X146559200Y-101926267D01*
X146521084Y-101784018D01*
X146476021Y-101705966D01*
X146447453Y-101656485D01*
X146447445Y-101656475D01*
X146417805Y-101626835D01*
X146383779Y-101564523D01*
X146380900Y-101537740D01*
X146380900Y-95212830D01*
X146983400Y-95212830D01*
X146983400Y-96786963D01*
X146983401Y-96786973D01*
X146998165Y-96861200D01*
X147054416Y-96945384D01*
X147138597Y-97001633D01*
X147138599Y-97001634D01*
X147212833Y-97016400D01*
X148786966Y-97016399D01*
X148786969Y-97016398D01*
X148786973Y-97016398D01*
X148836226Y-97006601D01*
X148861201Y-97001634D01*
X148945384Y-96945384D01*
X149001634Y-96861201D01*
X149016400Y-96786967D01*
X149016399Y-95212834D01*
X149016398Y-95212830D01*
X149016398Y-95212826D01*
X149001634Y-95138599D01*
X148945383Y-95054415D01*
X148861202Y-94998166D01*
X148786967Y-94983400D01*
X147212836Y-94983400D01*
X147212826Y-94983401D01*
X147138599Y-94998165D01*
X147054415Y-95054416D01*
X146998166Y-95138597D01*
X146983400Y-95212830D01*
X146380900Y-95212830D01*
X146380900Y-88709199D01*
X146400902Y-88641078D01*
X146417860Y-88620048D01*
X146589664Y-88448459D01*
X147485793Y-87553448D01*
X147548127Y-87519462D01*
X147574833Y-87516599D01*
X148786964Y-87516599D01*
X148786966Y-87516599D01*
X148786969Y-87516598D01*
X148786972Y-87516598D01*
X148823563Y-87509319D01*
X148861201Y-87501834D01*
X148945384Y-87445584D01*
X149001634Y-87361401D01*
X149016400Y-87287167D01*
X149016399Y-85713034D01*
X149016398Y-85713030D01*
X149016398Y-85713026D01*
X149001634Y-85638799D01*
X148959083Y-85575118D01*
X148945384Y-85554616D01*
X148945383Y-85554615D01*
X148861202Y-85498366D01*
X148786967Y-85483600D01*
X147212836Y-85483600D01*
X147212826Y-85483601D01*
X147138599Y-85498365D01*
X147054415Y-85554616D01*
X146998166Y-85638797D01*
X146983400Y-85713030D01*
X146983400Y-86924604D01*
X146963398Y-86992725D01*
X146946440Y-87013755D01*
X145770941Y-88187785D01*
X145770522Y-88188154D01*
X145729491Y-88229185D01*
X145715538Y-88243120D01*
X145653204Y-88277105D01*
X145582391Y-88271994D01*
X145525583Y-88229411D01*
X145500815Y-88162875D01*
X145500500Y-88153967D01*
X145500500Y-85012764D01*
X145500500Y-85001038D01*
X145500505Y-84935147D01*
X145500500Y-84935128D01*
X145500500Y-84935108D01*
X145483304Y-84870932D01*
X145466407Y-84807850D01*
X145466397Y-84807832D01*
X145466392Y-84807814D01*
X145433186Y-84750299D01*
X145400524Y-84693717D01*
X145400509Y-84693702D01*
X145400500Y-84693686D01*
X145353934Y-84647120D01*
X145307345Y-84600524D01*
X145307344Y-84600523D01*
X145307339Y-84600518D01*
X145307319Y-84600503D01*
X145305564Y-84599490D01*
X145248759Y-84566693D01*
X145248760Y-84566691D01*
X145248752Y-84566689D01*
X145193222Y-84534623D01*
X145193221Y-84534622D01*
X145193206Y-84534614D01*
X145193188Y-84534609D01*
X145193186Y-84534608D01*
X145128537Y-84517285D01*
X145100299Y-84509716D01*
X145065912Y-84500500D01*
X145065892Y-84500500D01*
X145000921Y-84500500D01*
X132074042Y-84499505D01*
X132073956Y-84499500D01*
X132065892Y-84499500D01*
X131999156Y-84499500D01*
X131934142Y-84499494D01*
X131934114Y-84499498D01*
X131869938Y-84516693D01*
X131869931Y-84516695D01*
X131806831Y-84533597D01*
X131761382Y-84559837D01*
X131761380Y-84559838D01*
X131751307Y-84565654D01*
X131692717Y-84599476D01*
X131692702Y-84599490D01*
X131692686Y-84599500D01*
X131646120Y-84646065D01*
X131599524Y-84692655D01*
X131599514Y-84692671D01*
X131599500Y-84692686D01*
X131566237Y-84750299D01*
X131533623Y-84806778D01*
X131533617Y-84806796D01*
X131533608Y-84806814D01*
X131516285Y-84871462D01*
X131513265Y-84882727D01*
X131513263Y-84882733D01*
X131499500Y-84934088D01*
X131499500Y-84999971D01*
X131499494Y-85074349D01*
X130355299Y-85074349D01*
X130355299Y-85039134D01*
X130355298Y-85039131D01*
X130355298Y-85039126D01*
X130340534Y-84964899D01*
X130319934Y-84934070D01*
X130284284Y-84880716D01*
X130270435Y-84871462D01*
X130200102Y-84824466D01*
X130125867Y-84809700D01*
X128551736Y-84809700D01*
X128551726Y-84809701D01*
X128477499Y-84824465D01*
X128393315Y-84880716D01*
X128337066Y-84964897D01*
X128322300Y-85039130D01*
X120195299Y-85039130D01*
X120180534Y-84964899D01*
X120159934Y-84934070D01*
X120124284Y-84880716D01*
X120110435Y-84871462D01*
X120040102Y-84824466D01*
X119965867Y-84809700D01*
X118391736Y-84809700D01*
X118391726Y-84809701D01*
X118317499Y-84824465D01*
X118233315Y-84880716D01*
X118177066Y-84964897D01*
X118162300Y-85039130D01*
X117156399Y-85039130D01*
X117156399Y-84824534D01*
X117156398Y-84824530D01*
X117156398Y-84824526D01*
X117141634Y-84750299D01*
X117104925Y-84695361D01*
X117085384Y-84666116D01*
X117085383Y-84666115D01*
X117001202Y-84609866D01*
X116926967Y-84595100D01*
X115352836Y-84595100D01*
X115352826Y-84595101D01*
X115278599Y-84609865D01*
X115194415Y-84666116D01*
X115138166Y-84750297D01*
X115123400Y-84824530D01*
X100500500Y-84824530D01*
X100500500Y-82284530D01*
X115123400Y-82284530D01*
X115123400Y-83858663D01*
X115123401Y-83858673D01*
X115138165Y-83932900D01*
X115194416Y-84017084D01*
X115278597Y-84073333D01*
X115278599Y-84073334D01*
X115352833Y-84088100D01*
X116926966Y-84088099D01*
X116926969Y-84088098D01*
X116926973Y-84088098D01*
X116976226Y-84078301D01*
X117001201Y-84073334D01*
X117085384Y-84017084D01*
X117141634Y-83932901D01*
X117156400Y-83858667D01*
X117156399Y-82539030D01*
X118162300Y-82539030D01*
X118162300Y-84113163D01*
X118162301Y-84113173D01*
X118177065Y-84187400D01*
X118233316Y-84271584D01*
X118317497Y-84327833D01*
X118317499Y-84327834D01*
X118391733Y-84342600D01*
X119965866Y-84342599D01*
X119965869Y-84342598D01*
X119965873Y-84342598D01*
X120015126Y-84332801D01*
X120040101Y-84327834D01*
X120124284Y-84271584D01*
X120180534Y-84187401D01*
X120195300Y-84113167D01*
X120195299Y-82539034D01*
X120195299Y-82539033D01*
X120195299Y-82539031D01*
X120195299Y-82539030D01*
X128322300Y-82539030D01*
X128322300Y-84113163D01*
X128322301Y-84113173D01*
X128337065Y-84187400D01*
X128393316Y-84271584D01*
X128477497Y-84327833D01*
X128477499Y-84327834D01*
X128551733Y-84342600D01*
X130125866Y-84342599D01*
X130125869Y-84342598D01*
X130125873Y-84342598D01*
X130175126Y-84332801D01*
X130200101Y-84327834D01*
X130284284Y-84271584D01*
X130340534Y-84187401D01*
X130355300Y-84113167D01*
X130355299Y-82539034D01*
X130355298Y-82539031D01*
X130355298Y-82539026D01*
X130340534Y-82464799D01*
X130284283Y-82380615D01*
X130200102Y-82324366D01*
X130125867Y-82309600D01*
X128551736Y-82309600D01*
X128551726Y-82309601D01*
X128477499Y-82324365D01*
X128393315Y-82380616D01*
X128337066Y-82464797D01*
X128322300Y-82539030D01*
X120195299Y-82539030D01*
X120180534Y-82464799D01*
X120124283Y-82380615D01*
X120040102Y-82324366D01*
X119965867Y-82309600D01*
X118391736Y-82309600D01*
X118391726Y-82309601D01*
X118317499Y-82324365D01*
X118233315Y-82380616D01*
X118177066Y-82464797D01*
X118162300Y-82539030D01*
X117156399Y-82539030D01*
X117156399Y-82284534D01*
X117156398Y-82284530D01*
X117156398Y-82284526D01*
X117141634Y-82210299D01*
X117085383Y-82126115D01*
X117001202Y-82069866D01*
X116926967Y-82055100D01*
X115352836Y-82055100D01*
X115352826Y-82055101D01*
X115278599Y-82069865D01*
X115194415Y-82126116D01*
X115138166Y-82210297D01*
X115123400Y-82284530D01*
X100500500Y-82284530D01*
X100500500Y-82039130D01*
X144072300Y-82039130D01*
X144072300Y-83613263D01*
X144072301Y-83613273D01*
X144087065Y-83687500D01*
X144143316Y-83771684D01*
X144227497Y-83827933D01*
X144227499Y-83827934D01*
X144301733Y-83842700D01*
X145875866Y-83842699D01*
X145875869Y-83842698D01*
X145875873Y-83842698D01*
X145925126Y-83832901D01*
X145950101Y-83827934D01*
X146034284Y-83771684D01*
X146090534Y-83687501D01*
X146105300Y-83613267D01*
X146105299Y-82039134D01*
X146105298Y-82039131D01*
X146105298Y-82039126D01*
X146090534Y-81964899D01*
X146090533Y-81964897D01*
X146034284Y-81880716D01*
X146034283Y-81880715D01*
X145950102Y-81824466D01*
X145875867Y-81809700D01*
X144301736Y-81809700D01*
X144301726Y-81809701D01*
X144227499Y-81824465D01*
X144143315Y-81880716D01*
X144087066Y-81964897D01*
X144072300Y-82039130D01*
X100500500Y-82039130D01*
X100500500Y-79744530D01*
X115123400Y-79744530D01*
X115123400Y-81318663D01*
X115123401Y-81318673D01*
X115138165Y-81392900D01*
X115194416Y-81477084D01*
X115278597Y-81533333D01*
X115278599Y-81533334D01*
X115352833Y-81548100D01*
X116926966Y-81548099D01*
X116926969Y-81548098D01*
X116926973Y-81548098D01*
X116976226Y-81538301D01*
X117001201Y-81533334D01*
X117085384Y-81477084D01*
X117141634Y-81392901D01*
X117156400Y-81318667D01*
X117156399Y-80039130D01*
X118162300Y-80039130D01*
X118162300Y-81613263D01*
X118162301Y-81613273D01*
X118177065Y-81687500D01*
X118233316Y-81771684D01*
X118317497Y-81827933D01*
X118317499Y-81827934D01*
X118391733Y-81842700D01*
X119965866Y-81842699D01*
X119965869Y-81842698D01*
X119965873Y-81842698D01*
X120015126Y-81832901D01*
X120040101Y-81827934D01*
X120124284Y-81771684D01*
X120180534Y-81687501D01*
X120195300Y-81613267D01*
X120195299Y-80039134D01*
X120195299Y-80039133D01*
X120195299Y-80039131D01*
X120195299Y-80039130D01*
X128322300Y-80039130D01*
X128322300Y-81613263D01*
X128322301Y-81613273D01*
X128337065Y-81687500D01*
X128393316Y-81771684D01*
X128477497Y-81827933D01*
X128477499Y-81827934D01*
X128551733Y-81842700D01*
X130125866Y-81842699D01*
X130125869Y-81842698D01*
X130125873Y-81842698D01*
X130175126Y-81832901D01*
X130200101Y-81827934D01*
X130284284Y-81771684D01*
X130340534Y-81687501D01*
X130355300Y-81613267D01*
X130355299Y-80039134D01*
X130355298Y-80039131D01*
X130355298Y-80039126D01*
X130340534Y-79964899D01*
X130284283Y-79880715D01*
X130200102Y-79824466D01*
X130125867Y-79809700D01*
X128551736Y-79809700D01*
X128551726Y-79809701D01*
X128477499Y-79824465D01*
X128393315Y-79880716D01*
X128337066Y-79964897D01*
X128322300Y-80039130D01*
X120195299Y-80039130D01*
X120180534Y-79964899D01*
X120124283Y-79880715D01*
X120040102Y-79824466D01*
X119965867Y-79809700D01*
X118391736Y-79809700D01*
X118391726Y-79809701D01*
X118317499Y-79824465D01*
X118233315Y-79880716D01*
X118177066Y-79964897D01*
X118162300Y-80039130D01*
X117156399Y-80039130D01*
X117156399Y-79744534D01*
X117156398Y-79744530D01*
X117156398Y-79744526D01*
X117141634Y-79670299D01*
X117085383Y-79586115D01*
X117001202Y-79529866D01*
X116926967Y-79515100D01*
X115352836Y-79515100D01*
X115352826Y-79515101D01*
X115278599Y-79529865D01*
X115194415Y-79586116D01*
X115138166Y-79670297D01*
X115123400Y-79744530D01*
X100500500Y-79744530D01*
X100500500Y-72385030D01*
X112455600Y-72385030D01*
X112455600Y-74035163D01*
X112455601Y-74035173D01*
X112470365Y-74109400D01*
X112526616Y-74193584D01*
X112610797Y-74249833D01*
X112610799Y-74249834D01*
X112685033Y-74264600D01*
X114335166Y-74264599D01*
X114335169Y-74264598D01*
X114335173Y-74264598D01*
X114398802Y-74251942D01*
X114409401Y-74249834D01*
X114493584Y-74193584D01*
X114549834Y-74109401D01*
X114564600Y-74035167D01*
X114564599Y-72385034D01*
X114564599Y-72385033D01*
X114564599Y-72385031D01*
X114564599Y-72385030D01*
X114995600Y-72385030D01*
X114995600Y-74035163D01*
X114995601Y-74035173D01*
X115010365Y-74109400D01*
X115066616Y-74193584D01*
X115150797Y-74249833D01*
X115150799Y-74249834D01*
X115225033Y-74264600D01*
X116875166Y-74264599D01*
X116875169Y-74264598D01*
X116875173Y-74264598D01*
X116938802Y-74251942D01*
X116949401Y-74249834D01*
X117033584Y-74193584D01*
X117089834Y-74109401D01*
X117104600Y-74035167D01*
X117104599Y-72385034D01*
X117104599Y-72385033D01*
X117104599Y-72385031D01*
X117104599Y-72385030D01*
X117535600Y-72385030D01*
X117535600Y-74035163D01*
X117535601Y-74035173D01*
X117550365Y-74109400D01*
X117606616Y-74193584D01*
X117690797Y-74249833D01*
X117690799Y-74249834D01*
X117765033Y-74264600D01*
X119415166Y-74264599D01*
X119415169Y-74264598D01*
X119415173Y-74264598D01*
X119478802Y-74251942D01*
X119489401Y-74249834D01*
X119573584Y-74193584D01*
X119629834Y-74109401D01*
X119644600Y-74035167D01*
X119644599Y-72385034D01*
X119644599Y-72385033D01*
X119644599Y-72385031D01*
X119644599Y-72385030D01*
X120075600Y-72385030D01*
X120075600Y-74035163D01*
X120075601Y-74035173D01*
X120090365Y-74109400D01*
X120146616Y-74193584D01*
X120230797Y-74249833D01*
X120230799Y-74249834D01*
X120305033Y-74264600D01*
X121955166Y-74264599D01*
X121955169Y-74264598D01*
X121955173Y-74264598D01*
X122018802Y-74251942D01*
X122029401Y-74249834D01*
X122113584Y-74193584D01*
X122169834Y-74109401D01*
X122184600Y-74035167D01*
X122184599Y-72385034D01*
X122184599Y-72385033D01*
X122184599Y-72385031D01*
X122184599Y-72385030D01*
X122615600Y-72385030D01*
X122615600Y-74035163D01*
X122615601Y-74035173D01*
X122630365Y-74109400D01*
X122686616Y-74193584D01*
X122770797Y-74249833D01*
X122770799Y-74249834D01*
X122845033Y-74264600D01*
X124495166Y-74264599D01*
X124495169Y-74264598D01*
X124495173Y-74264598D01*
X124558802Y-74251942D01*
X124569401Y-74249834D01*
X124653584Y-74193584D01*
X124709834Y-74109401D01*
X124724600Y-74035167D01*
X124724599Y-72385034D01*
X124724599Y-72385033D01*
X124724599Y-72385031D01*
X124724599Y-72385030D01*
X125155600Y-72385030D01*
X125155600Y-74035163D01*
X125155601Y-74035173D01*
X125170365Y-74109400D01*
X125226616Y-74193584D01*
X125310797Y-74249833D01*
X125310799Y-74249834D01*
X125385033Y-74264600D01*
X127035166Y-74264599D01*
X127035169Y-74264598D01*
X127035173Y-74264598D01*
X127098802Y-74251942D01*
X127109401Y-74249834D01*
X127193584Y-74193584D01*
X127249834Y-74109401D01*
X127264600Y-74035167D01*
X127264599Y-72385034D01*
X127264599Y-72385033D01*
X127264599Y-72385031D01*
X127264599Y-72385030D01*
X127695600Y-72385030D01*
X127695600Y-74035163D01*
X127695601Y-74035173D01*
X127710365Y-74109400D01*
X127766616Y-74193584D01*
X127850797Y-74249833D01*
X127850799Y-74249834D01*
X127925033Y-74264600D01*
X129575166Y-74264599D01*
X129575169Y-74264598D01*
X129575173Y-74264598D01*
X129638802Y-74251942D01*
X129649401Y-74249834D01*
X129733584Y-74193584D01*
X129789834Y-74109401D01*
X129804600Y-74035167D01*
X129804599Y-72385034D01*
X129804599Y-72385033D01*
X129804599Y-72385031D01*
X129804599Y-72385030D01*
X137655300Y-72385030D01*
X137655300Y-74035163D01*
X137655301Y-74035173D01*
X137670065Y-74109400D01*
X137726316Y-74193584D01*
X137810497Y-74249833D01*
X137810499Y-74249834D01*
X137884733Y-74264600D01*
X139534866Y-74264599D01*
X139534869Y-74264598D01*
X139534873Y-74264598D01*
X139598502Y-74251942D01*
X139609101Y-74249834D01*
X139693284Y-74193584D01*
X139749534Y-74109401D01*
X139764300Y-74035167D01*
X139764299Y-72385034D01*
X139764299Y-72385033D01*
X139764299Y-72385031D01*
X139764299Y-72385030D01*
X140195300Y-72385030D01*
X140195300Y-74035163D01*
X140195301Y-74035173D01*
X140210065Y-74109400D01*
X140266316Y-74193584D01*
X140350497Y-74249833D01*
X140350499Y-74249834D01*
X140424733Y-74264600D01*
X142074866Y-74264599D01*
X142074869Y-74264598D01*
X142074873Y-74264598D01*
X142138502Y-74251942D01*
X142149101Y-74249834D01*
X142233284Y-74193584D01*
X142289534Y-74109401D01*
X142304300Y-74035167D01*
X142304299Y-72385034D01*
X142304299Y-72385033D01*
X142304299Y-72385031D01*
X142304299Y-72385030D01*
X142735300Y-72385030D01*
X142735300Y-74035163D01*
X142735301Y-74035173D01*
X142750065Y-74109400D01*
X142806316Y-74193584D01*
X142890497Y-74249833D01*
X142890499Y-74249834D01*
X142964733Y-74264600D01*
X144614866Y-74264599D01*
X144614869Y-74264598D01*
X144614873Y-74264598D01*
X144678502Y-74251942D01*
X144689101Y-74249834D01*
X144773284Y-74193584D01*
X144829534Y-74109401D01*
X144844300Y-74035167D01*
X144844299Y-72385034D01*
X144844298Y-72385031D01*
X144844298Y-72385026D01*
X144829534Y-72310799D01*
X144773283Y-72226615D01*
X144689102Y-72170366D01*
X144614867Y-72155600D01*
X142964736Y-72155600D01*
X142964726Y-72155601D01*
X142890499Y-72170365D01*
X142806315Y-72226616D01*
X142750066Y-72310797D01*
X142735300Y-72385030D01*
X142304299Y-72385030D01*
X142289534Y-72310799D01*
X142233283Y-72226615D01*
X142149102Y-72170366D01*
X142074867Y-72155600D01*
X140424736Y-72155600D01*
X140424726Y-72155601D01*
X140350499Y-72170365D01*
X140266315Y-72226616D01*
X140210066Y-72310797D01*
X140195300Y-72385030D01*
X139764299Y-72385030D01*
X139749534Y-72310799D01*
X139693283Y-72226615D01*
X139609102Y-72170366D01*
X139534867Y-72155600D01*
X137884736Y-72155600D01*
X137884726Y-72155601D01*
X137810499Y-72170365D01*
X137726315Y-72226616D01*
X137670066Y-72310797D01*
X137655300Y-72385030D01*
X129804599Y-72385030D01*
X129789834Y-72310799D01*
X129733583Y-72226615D01*
X129649402Y-72170366D01*
X129575167Y-72155600D01*
X127925036Y-72155600D01*
X127925026Y-72155601D01*
X127850799Y-72170365D01*
X127766615Y-72226616D01*
X127710366Y-72310797D01*
X127695600Y-72385030D01*
X127264599Y-72385030D01*
X127249834Y-72310799D01*
X127193583Y-72226615D01*
X127109402Y-72170366D01*
X127035167Y-72155600D01*
X125385036Y-72155600D01*
X125385026Y-72155601D01*
X125310799Y-72170365D01*
X125226615Y-72226616D01*
X125170366Y-72310797D01*
X125155600Y-72385030D01*
X124724599Y-72385030D01*
X124709834Y-72310799D01*
X124653583Y-72226615D01*
X124569402Y-72170366D01*
X124495167Y-72155600D01*
X122845036Y-72155600D01*
X122845026Y-72155601D01*
X122770799Y-72170365D01*
X122686615Y-72226616D01*
X122630366Y-72310797D01*
X122615600Y-72385030D01*
X122184599Y-72385030D01*
X122169834Y-72310799D01*
X122113583Y-72226615D01*
X122029402Y-72170366D01*
X121955167Y-72155600D01*
X120305036Y-72155600D01*
X120305026Y-72155601D01*
X120230799Y-72170365D01*
X120146615Y-72226616D01*
X120090366Y-72310797D01*
X120075600Y-72385030D01*
X119644599Y-72385030D01*
X119629834Y-72310799D01*
X119573583Y-72226615D01*
X119489402Y-72170366D01*
X119415167Y-72155600D01*
X117765036Y-72155600D01*
X117765026Y-72155601D01*
X117690799Y-72170365D01*
X117606615Y-72226616D01*
X117550366Y-72310797D01*
X117535600Y-72385030D01*
X117104599Y-72385030D01*
X117089834Y-72310799D01*
X117033583Y-72226615D01*
X116949402Y-72170366D01*
X116875167Y-72155600D01*
X115225036Y-72155600D01*
X115225026Y-72155601D01*
X115150799Y-72170365D01*
X115066615Y-72226616D01*
X115010366Y-72310797D01*
X114995600Y-72385030D01*
X114564599Y-72385030D01*
X114549834Y-72310799D01*
X114493583Y-72226615D01*
X114409402Y-72170366D01*
X114335167Y-72155600D01*
X112685036Y-72155600D01*
X112685026Y-72155601D01*
X112610799Y-72170365D01*
X112526615Y-72226616D01*
X112470366Y-72310797D01*
X112455600Y-72385030D01*
X100500500Y-72385030D01*
X100500500Y-70259504D01*
X100520502Y-70191383D01*
X100537405Y-70170409D01*
X104044484Y-66663330D01*
X109040100Y-66663330D01*
X109040100Y-68237463D01*
X109040101Y-68237473D01*
X109054865Y-68311700D01*
X109111116Y-68395884D01*
X109195297Y-68452133D01*
X109195299Y-68452134D01*
X109269533Y-68466900D01*
X110843666Y-68466899D01*
X110843669Y-68466898D01*
X110843673Y-68466898D01*
X110892926Y-68457101D01*
X110917901Y-68452134D01*
X111002084Y-68395884D01*
X111058334Y-68311701D01*
X111073100Y-68237467D01*
X111073099Y-66663334D01*
X111073098Y-66663330D01*
X111073098Y-66663326D01*
X111058334Y-66589099D01*
X111002083Y-66504915D01*
X110917902Y-66448666D01*
X110843667Y-66433900D01*
X109269536Y-66433900D01*
X109269526Y-66433901D01*
X109195299Y-66448665D01*
X109111115Y-66504916D01*
X109054866Y-66589097D01*
X109040100Y-66663330D01*
X104044484Y-66663330D01*
X105942784Y-64765030D01*
X112455600Y-64765030D01*
X112455600Y-66415163D01*
X112455601Y-66415173D01*
X112470365Y-66489400D01*
X112526616Y-66573584D01*
X112610797Y-66629833D01*
X112610799Y-66629834D01*
X112685033Y-66644600D01*
X114335166Y-66644599D01*
X114335169Y-66644598D01*
X114335173Y-66644598D01*
X114384426Y-66634801D01*
X114409401Y-66629834D01*
X114493584Y-66573584D01*
X114549834Y-66489401D01*
X114564600Y-66415167D01*
X114564599Y-64765034D01*
X114564599Y-64765033D01*
X114564599Y-64765031D01*
X114564599Y-64765030D01*
X114995600Y-64765030D01*
X114995600Y-66415163D01*
X114995601Y-66415173D01*
X115010365Y-66489400D01*
X115066616Y-66573584D01*
X115150797Y-66629833D01*
X115150799Y-66629834D01*
X115225033Y-66644600D01*
X116875166Y-66644599D01*
X116875169Y-66644598D01*
X116875173Y-66644598D01*
X116924426Y-66634801D01*
X116949401Y-66629834D01*
X117033584Y-66573584D01*
X117089834Y-66489401D01*
X117104600Y-66415167D01*
X117104599Y-64765034D01*
X117104599Y-64765033D01*
X117104599Y-64765031D01*
X117104599Y-64765030D01*
X117535600Y-64765030D01*
X117535600Y-66415163D01*
X117535601Y-66415173D01*
X117550365Y-66489400D01*
X117606616Y-66573584D01*
X117690797Y-66629833D01*
X117690799Y-66629834D01*
X117765033Y-66644600D01*
X119052661Y-66644599D01*
X119120782Y-66664601D01*
X119141758Y-66681505D01*
X121688154Y-69227975D01*
X121688179Y-69228003D01*
X121764645Y-69304469D01*
X121764650Y-69304473D01*
X121764653Y-69304476D01*
X121764655Y-69304477D01*
X121838181Y-69346927D01*
X121841041Y-69348578D01*
X121848148Y-69352681D01*
X121851211Y-69354584D01*
X121851644Y-69354700D01*
X121851646Y-69354701D01*
X121887148Y-69364212D01*
X121887155Y-69364217D01*
X121887156Y-69364215D01*
X121948669Y-69380700D01*
X122049119Y-69380701D01*
X122049123Y-69380700D01*
X146538403Y-69380700D01*
X146606524Y-69400702D01*
X146627493Y-69417599D01*
X147171327Y-69961369D01*
X147181590Y-69971630D01*
X147215619Y-70033940D01*
X147218500Y-70060731D01*
X147218500Y-72029600D01*
X147198498Y-72097721D01*
X147144842Y-72144214D01*
X147092500Y-72155600D01*
X145504736Y-72155600D01*
X145504726Y-72155601D01*
X145430499Y-72170365D01*
X145346315Y-72226616D01*
X145290066Y-72310797D01*
X145275300Y-72385030D01*
X145275300Y-74035163D01*
X145275301Y-74035173D01*
X145290065Y-74109400D01*
X145346316Y-74193584D01*
X145430497Y-74249833D01*
X145430499Y-74249834D01*
X145504733Y-74264600D01*
X147092500Y-74264599D01*
X147160621Y-74284601D01*
X147207114Y-74338257D01*
X147218500Y-74390599D01*
X147218500Y-74798870D01*
X147218499Y-74899320D01*
X147237924Y-74971818D01*
X147244499Y-74996354D01*
X147261133Y-75025166D01*
X147278622Y-75055457D01*
X147278622Y-75055460D01*
X147294722Y-75083345D01*
X147294723Y-75083346D01*
X147294724Y-75083347D01*
X147332669Y-75121292D01*
X147332670Y-75121294D01*
X147332671Y-75121294D01*
X150981497Y-78770216D01*
X151015521Y-78832528D01*
X151018400Y-78859310D01*
X151018400Y-100200423D01*
X151018399Y-100200423D01*
X151018400Y-100200425D01*
X151044399Y-100297454D01*
X151087736Y-100372517D01*
X151094624Y-100384447D01*
X151094627Y-100384450D01*
X151094630Y-100384454D01*
X153014346Y-102304170D01*
X153014351Y-102304174D01*
X153014353Y-102304176D01*
X153014354Y-102304177D01*
X153014356Y-102304178D01*
X153101342Y-102354399D01*
X153101347Y-102354402D01*
X153198375Y-102380401D01*
X153198377Y-102380401D01*
X153306543Y-102380401D01*
X153306559Y-102380400D01*
X159040386Y-102380400D01*
X159108507Y-102400402D01*
X159129480Y-102417303D01*
X169312196Y-112600117D01*
X169346221Y-112662428D01*
X169349100Y-112689211D01*
X169349100Y-113029300D01*
X169329098Y-113097421D01*
X169275442Y-113143914D01*
X169223100Y-113155300D01*
X168804836Y-113155300D01*
X168804826Y-113155301D01*
X168730599Y-113170065D01*
X168646415Y-113226316D01*
X168590166Y-113310496D01*
X168583478Y-113344119D01*
X168550569Y-113407029D01*
X168488873Y-113442159D01*
X168417979Y-113438358D01*
X168360393Y-113396832D01*
X168336320Y-113344115D01*
X168329634Y-113310499D01*
X168273584Y-113226616D01*
X168273384Y-113226316D01*
X168273383Y-113226315D01*
X168189202Y-113170066D01*
X168114967Y-113155300D01*
X166264836Y-113155300D01*
X166264826Y-113155301D01*
X166190599Y-113170065D01*
X166106415Y-113226316D01*
X166050166Y-113310497D01*
X166035400Y-113384730D01*
X166035400Y-115234863D01*
X166035401Y-115234873D01*
X166050165Y-115309100D01*
X166106416Y-115393284D01*
X166190597Y-115449533D01*
X166190599Y-115449534D01*
X166264833Y-115464300D01*
X168114966Y-115464299D01*
X168114969Y-115464298D01*
X168114973Y-115464298D01*
X168164226Y-115454501D01*
X168189201Y-115449534D01*
X168273384Y-115393284D01*
X168329634Y-115309101D01*
X168336321Y-115275482D01*
X168369228Y-115212573D01*
X168430922Y-115177440D01*
X168501817Y-115181240D01*
X168559404Y-115222765D01*
X168583479Y-115275482D01*
X168590166Y-115309101D01*
X168646416Y-115393284D01*
X168730597Y-115449533D01*
X168730599Y-115449534D01*
X168804833Y-115464300D01*
X170654966Y-115464299D01*
X170654969Y-115464298D01*
X170654973Y-115464298D01*
X170704226Y-115454501D01*
X170729201Y-115449534D01*
X170813384Y-115393284D01*
X170869634Y-115309101D01*
X170876321Y-115275482D01*
X170909228Y-115212573D01*
X170970922Y-115177440D01*
X171041817Y-115181240D01*
X171099404Y-115222765D01*
X171123479Y-115275482D01*
X171130166Y-115309101D01*
X171186416Y-115393284D01*
X171270597Y-115449533D01*
X171270599Y-115449534D01*
X171344833Y-115464300D01*
X173194966Y-115464299D01*
X173194969Y-115464298D01*
X173194973Y-115464298D01*
X173244226Y-115454501D01*
X173269201Y-115449534D01*
X173353384Y-115393284D01*
X173409634Y-115309101D01*
X173424400Y-115234867D01*
X173424399Y-113384734D01*
X173424398Y-113384730D01*
X173424398Y-113384726D01*
X173409634Y-113310499D01*
X173353584Y-113226616D01*
X173353384Y-113226316D01*
X173353383Y-113226315D01*
X173269202Y-113170066D01*
X173194969Y-113155300D01*
X173194967Y-113155300D01*
X171707135Y-113155300D01*
X171639014Y-113135298D01*
X171618048Y-113118404D01*
X166558059Y-108059403D01*
X166524028Y-107997094D01*
X166529086Y-107926278D01*
X166571627Y-107869438D01*
X166638145Y-107844621D01*
X166647146Y-107844299D01*
X168114964Y-107844299D01*
X168114966Y-107844299D01*
X168114969Y-107844298D01*
X168114972Y-107844298D01*
X168151563Y-107837019D01*
X168189201Y-107829534D01*
X168273384Y-107773284D01*
X168329634Y-107689101D01*
X168336321Y-107655482D01*
X168369228Y-107592573D01*
X168430922Y-107557440D01*
X168501817Y-107561240D01*
X168559404Y-107602765D01*
X168583479Y-107655482D01*
X168590166Y-107689101D01*
X168646416Y-107773284D01*
X168730597Y-107829533D01*
X168730599Y-107829534D01*
X168804833Y-107844300D01*
X170654966Y-107844299D01*
X170654969Y-107844298D01*
X170654973Y-107844298D01*
X170719829Y-107831398D01*
X170729201Y-107829534D01*
X170813384Y-107773284D01*
X170869634Y-107689101D01*
X170876321Y-107655482D01*
X170909228Y-107592573D01*
X170970922Y-107557440D01*
X171041817Y-107561240D01*
X171099404Y-107602765D01*
X171123479Y-107655482D01*
X171130166Y-107689101D01*
X171186416Y-107773284D01*
X171270597Y-107829533D01*
X171270599Y-107829534D01*
X171344833Y-107844300D01*
X173194966Y-107844299D01*
X173194969Y-107844298D01*
X173194973Y-107844298D01*
X173259829Y-107831398D01*
X173269201Y-107829534D01*
X173353384Y-107773284D01*
X173409634Y-107689101D01*
X173416321Y-107655482D01*
X173449228Y-107592573D01*
X173510922Y-107557440D01*
X173581817Y-107561240D01*
X173639404Y-107602765D01*
X173663479Y-107655482D01*
X173670166Y-107689101D01*
X173726416Y-107773284D01*
X173810597Y-107829533D01*
X173810599Y-107829534D01*
X173884833Y-107844300D01*
X175372944Y-107844299D01*
X175441065Y-107864301D01*
X175462037Y-107881201D01*
X176038861Y-108457987D01*
X176082109Y-108501232D01*
X176135953Y-108555076D01*
X176135960Y-108555080D01*
X176135963Y-108555083D01*
X176153611Y-108565271D01*
X176222209Y-108604875D01*
X176222947Y-108605310D01*
X176223780Y-108605525D01*
X176276820Y-108619736D01*
X176276823Y-108619738D01*
X176319061Y-108631055D01*
X176319930Y-108631295D01*
X176319975Y-108631301D01*
X176319983Y-108631300D01*
X176319987Y-108631302D01*
X176386953Y-108631300D01*
X176386955Y-108631300D01*
X188300023Y-108631300D01*
X188300025Y-108631300D01*
X188397054Y-108605301D01*
X188397057Y-108605299D01*
X188397058Y-108605299D01*
X188466387Y-108565272D01*
X188484047Y-108555076D01*
X188555076Y-108484047D01*
X189157619Y-107881504D01*
X189219931Y-107847478D01*
X189246714Y-107844599D01*
X190734864Y-107844599D01*
X190734866Y-107844599D01*
X190734869Y-107844598D01*
X190734872Y-107844598D01*
X190771463Y-107837319D01*
X190809101Y-107829834D01*
X190893284Y-107773584D01*
X190949534Y-107689401D01*
X190964300Y-107615167D01*
X190964299Y-105765034D01*
X190964298Y-105765030D01*
X190964298Y-105765026D01*
X190949534Y-105690799D01*
X190938713Y-105674605D01*
X190893284Y-105606616D01*
X190893283Y-105606615D01*
X190809102Y-105550366D01*
X190734867Y-105535600D01*
X188884736Y-105535600D01*
X188884726Y-105535601D01*
X188810499Y-105550365D01*
X188726315Y-105606616D01*
X188670066Y-105690796D01*
X188663378Y-105724419D01*
X188630469Y-105787329D01*
X188568773Y-105822459D01*
X188497879Y-105818658D01*
X188440293Y-105777132D01*
X188416220Y-105724415D01*
X188409534Y-105690799D01*
X188398713Y-105674605D01*
X188353284Y-105606616D01*
X188353283Y-105606615D01*
X188269102Y-105550366D01*
X188194867Y-105535600D01*
X186344736Y-105535600D01*
X186344726Y-105535601D01*
X186270499Y-105550365D01*
X186186315Y-105606616D01*
X186130066Y-105690796D01*
X186123378Y-105724419D01*
X186090469Y-105787329D01*
X186028773Y-105822459D01*
X185957879Y-105818658D01*
X185900293Y-105777132D01*
X185876220Y-105724415D01*
X185869534Y-105690799D01*
X185858713Y-105674605D01*
X185813284Y-105606616D01*
X185813283Y-105606615D01*
X185729102Y-105550366D01*
X185654867Y-105535600D01*
X183804736Y-105535600D01*
X183804726Y-105535601D01*
X183730499Y-105550365D01*
X183646315Y-105606616D01*
X183590066Y-105690796D01*
X183583378Y-105724419D01*
X183550469Y-105787329D01*
X183488773Y-105822459D01*
X183417879Y-105818658D01*
X183360293Y-105777132D01*
X183336220Y-105724415D01*
X183329534Y-105690799D01*
X183318713Y-105674605D01*
X183273284Y-105606616D01*
X183273283Y-105606615D01*
X183189102Y-105550366D01*
X183114867Y-105535600D01*
X181264736Y-105535600D01*
X181264726Y-105535601D01*
X181190499Y-105550365D01*
X181106315Y-105606616D01*
X181050066Y-105690797D01*
X181035300Y-105765030D01*
X181035300Y-107615163D01*
X181035301Y-107615173D01*
X181050065Y-107689399D01*
X181052006Y-107694084D01*
X181059594Y-107764674D01*
X181027813Y-107828160D01*
X180966755Y-107864387D01*
X180935596Y-107868300D01*
X176580404Y-107868300D01*
X176512283Y-107848298D01*
X176491311Y-107831398D01*
X176001306Y-107341425D01*
X175967279Y-107279114D01*
X175964399Y-107252327D01*
X175964399Y-105764736D01*
X175964398Y-105764727D01*
X175949634Y-105690499D01*
X175927076Y-105656739D01*
X175893384Y-105606316D01*
X175893383Y-105606315D01*
X175809202Y-105550066D01*
X175734967Y-105535300D01*
X173884836Y-105535300D01*
X173884826Y-105535301D01*
X173810599Y-105550065D01*
X173726415Y-105606316D01*
X173670166Y-105690496D01*
X173663478Y-105724119D01*
X173630569Y-105787029D01*
X173568873Y-105822159D01*
X173497979Y-105818358D01*
X173440393Y-105776832D01*
X173416320Y-105724115D01*
X173414224Y-105713579D01*
X173409634Y-105690499D01*
X173353384Y-105606316D01*
X173353383Y-105606315D01*
X173269202Y-105550066D01*
X173194969Y-105535300D01*
X173194967Y-105535300D01*
X171707313Y-105535300D01*
X171639192Y-105515298D01*
X171618218Y-105498395D01*
X171064646Y-104944823D01*
X171055617Y-104939611D01*
X171055614Y-104939609D01*
X170977654Y-104894599D01*
X170880625Y-104868600D01*
X170880623Y-104868600D01*
X164210613Y-104868600D01*
X164142492Y-104848598D01*
X164121518Y-104831695D01*
X159985253Y-100695429D01*
X159985243Y-100695421D01*
X159948657Y-100674298D01*
X159948655Y-100674298D01*
X159898254Y-100645199D01*
X159801225Y-100619200D01*
X159801223Y-100619200D01*
X153959126Y-100619200D01*
X153891005Y-100599198D01*
X153870027Y-100582292D01*
X153728347Y-100440600D01*
X153252686Y-99964897D01*
X153019301Y-99731491D01*
X152985278Y-99669177D01*
X152982400Y-99642399D01*
X152982400Y-85074349D01*
X153499494Y-85074349D01*
X153499500Y-85074438D01*
X153499500Y-98934008D01*
X153499500Y-99065792D01*
X153521081Y-99146335D01*
X153533607Y-99193083D01*
X153533610Y-99193090D01*
X153599497Y-99307210D01*
X153599505Y-99307220D01*
X153692679Y-99400394D01*
X153692684Y-99400398D01*
X153692686Y-99400400D01*
X153806814Y-99466292D01*
X153934108Y-99500400D01*
X153934110Y-99500400D01*
X166906117Y-99500400D01*
X166974238Y-99520402D01*
X167020731Y-99574058D01*
X167030835Y-99644332D01*
X167001341Y-99708912D01*
X166995268Y-99715440D01*
X166746123Y-99964897D01*
X166159401Y-100552354D01*
X166129552Y-100582240D01*
X166067261Y-100616304D01*
X166040401Y-100619200D01*
X163962460Y-100619200D01*
X163894339Y-100599198D01*
X163873365Y-100582295D01*
X163843424Y-100552354D01*
X163843414Y-100552346D01*
X163715882Y-100478716D01*
X163573633Y-100440600D01*
X163426367Y-100440600D01*
X163331534Y-100466010D01*
X163284117Y-100478716D01*
X163156585Y-100552346D01*
X163156575Y-100552354D01*
X163052454Y-100656475D01*
X163052446Y-100656485D01*
X162978816Y-100784017D01*
X162940700Y-100926268D01*
X162940700Y-101073531D01*
X162940699Y-101073531D01*
X162978816Y-101215782D01*
X163052446Y-101343314D01*
X163052454Y-101343324D01*
X163156575Y-101447445D01*
X163156580Y-101447449D01*
X163156582Y-101447451D01*
X163284118Y-101521084D01*
X163426367Y-101559200D01*
X163426369Y-101559200D01*
X163573631Y-101559200D01*
X163573633Y-101559200D01*
X163715882Y-101521084D01*
X163843418Y-101447451D01*
X163850269Y-101440600D01*
X163871765Y-101419105D01*
X163934077Y-101385079D01*
X163960860Y-101382200D01*
X165272440Y-101382200D01*
X165340561Y-101402202D01*
X165387054Y-101455858D01*
X165397158Y-101526132D01*
X165367664Y-101590712D01*
X165361535Y-101597295D01*
X165302354Y-101656475D01*
X165302346Y-101656485D01*
X165228716Y-101784017D01*
X165190600Y-101926268D01*
X165190600Y-102073531D01*
X165190599Y-102073531D01*
X165228716Y-102215782D01*
X165302346Y-102343314D01*
X165302354Y-102343324D01*
X165406475Y-102447445D01*
X165406480Y-102447449D01*
X165406482Y-102447451D01*
X165406483Y-102447452D01*
X165406485Y-102447453D01*
X165436353Y-102464697D01*
X165534018Y-102521084D01*
X165676267Y-102559200D01*
X165676269Y-102559200D01*
X165823531Y-102559200D01*
X165823533Y-102559200D01*
X165965782Y-102521084D01*
X166093318Y-102447451D01*
X166100586Y-102440183D01*
X166123465Y-102417305D01*
X166185777Y-102383279D01*
X166212560Y-102380400D01*
X166681417Y-102380400D01*
X166749538Y-102400402D01*
X166796031Y-102454058D01*
X166806135Y-102524332D01*
X166786181Y-102576403D01*
X166748966Y-102632097D01*
X166734200Y-102706330D01*
X166734200Y-104280463D01*
X166734201Y-104280473D01*
X166748965Y-104354700D01*
X166805216Y-104438884D01*
X166889397Y-104495133D01*
X166889399Y-104495134D01*
X166963633Y-104509900D01*
X168537766Y-104509899D01*
X168537769Y-104509898D01*
X168537773Y-104509898D01*
X168587026Y-104500101D01*
X168612001Y-104495134D01*
X168696184Y-104438884D01*
X168752434Y-104354701D01*
X168767200Y-104280467D01*
X168767199Y-102706334D01*
X168767198Y-102706330D01*
X168767198Y-102706326D01*
X168752434Y-102632099D01*
X168715218Y-102576402D01*
X168694003Y-102508650D01*
X168712786Y-102440183D01*
X168765603Y-102392739D01*
X168819983Y-102380400D01*
X181681117Y-102380400D01*
X181749238Y-102400402D01*
X181795731Y-102454058D01*
X181805835Y-102524332D01*
X181785881Y-102576403D01*
X181748666Y-102632097D01*
X181733900Y-102706330D01*
X181733900Y-104280463D01*
X181733901Y-104280473D01*
X181748665Y-104354700D01*
X181804916Y-104438884D01*
X181889097Y-104495133D01*
X181889099Y-104495134D01*
X181963333Y-104509900D01*
X183537466Y-104509899D01*
X183537469Y-104509898D01*
X183537473Y-104509898D01*
X183586726Y-104500101D01*
X183611701Y-104495134D01*
X183695884Y-104438884D01*
X183752134Y-104354701D01*
X183766900Y-104280467D01*
X183766899Y-102706334D01*
X183766898Y-102706330D01*
X183766898Y-102706326D01*
X183752134Y-102632099D01*
X183714918Y-102576402D01*
X183693703Y-102508650D01*
X183712486Y-102440183D01*
X183765303Y-102392739D01*
X183819683Y-102380400D01*
X187450278Y-102380400D01*
X187450282Y-102380401D01*
X187500507Y-102380400D01*
X187550725Y-102380400D01*
X187550920Y-102380400D01*
X187551309Y-102380342D01*
X187554342Y-102379431D01*
X187584218Y-102371425D01*
X187606050Y-102365575D01*
X187606051Y-102365574D01*
X187647754Y-102354401D01*
X187647755Y-102354399D01*
X187647757Y-102354399D01*
X187647759Y-102354399D01*
X187673472Y-102339552D01*
X187734747Y-102304176D01*
X187805776Y-102233147D01*
X187805777Y-102233143D01*
X187814266Y-102224655D01*
X187814274Y-102224644D01*
X190538423Y-99500400D01*
X190545169Y-99493653D01*
X190547542Y-99491708D01*
X190552577Y-99486338D01*
X190553989Y-99484879D01*
X190554984Y-99483216D01*
X190559153Y-99476469D01*
X190560355Y-99473799D01*
X190579921Y-99439908D01*
X190579924Y-99439901D01*
X190579929Y-99439893D01*
X190604201Y-99397854D01*
X190604201Y-99397851D01*
X190604202Y-99397848D01*
X190604204Y-99397847D01*
X190619033Y-99342499D01*
X190629234Y-99304426D01*
X190630143Y-99301400D01*
X190630200Y-99301012D01*
X190630200Y-99300821D01*
X190630201Y-99300818D01*
X190630200Y-99233256D01*
X190630200Y-95212830D01*
X190983600Y-95212830D01*
X190983600Y-96786963D01*
X190983601Y-96786973D01*
X190998365Y-96861200D01*
X191054616Y-96945384D01*
X191138797Y-97001633D01*
X191138799Y-97001634D01*
X191213033Y-97016400D01*
X192787166Y-97016399D01*
X192787169Y-97016398D01*
X192787173Y-97016398D01*
X192836426Y-97006601D01*
X192861401Y-97001634D01*
X192945584Y-96945384D01*
X193001834Y-96861201D01*
X193016600Y-96786967D01*
X193016599Y-95212834D01*
X193016598Y-95212830D01*
X193016598Y-95212826D01*
X193001834Y-95138599D01*
X192945583Y-95054415D01*
X192861402Y-94998166D01*
X192787167Y-94983400D01*
X191213036Y-94983400D01*
X191213026Y-94983401D01*
X191138799Y-94998165D01*
X191054615Y-95054416D01*
X190998366Y-95138597D01*
X190983600Y-95212830D01*
X190630200Y-95212830D01*
X190630200Y-88460325D01*
X190650202Y-88392204D01*
X190667165Y-88371169D01*
X191486061Y-87553439D01*
X191548398Y-87519459D01*
X191575093Y-87516599D01*
X192787164Y-87516599D01*
X192787166Y-87516599D01*
X192787169Y-87516598D01*
X192787172Y-87516598D01*
X192823763Y-87509319D01*
X192861401Y-87501834D01*
X192945584Y-87445584D01*
X193001834Y-87361401D01*
X193016600Y-87287167D01*
X193016599Y-85713034D01*
X193016598Y-85713030D01*
X193016598Y-85713026D01*
X193001834Y-85638799D01*
X192959283Y-85575118D01*
X192945584Y-85554616D01*
X192945583Y-85554615D01*
X192861402Y-85498366D01*
X192787167Y-85483600D01*
X191213036Y-85483600D01*
X191213026Y-85483601D01*
X191138799Y-85498365D01*
X191054615Y-85554616D01*
X190998366Y-85638797D01*
X190983600Y-85713030D01*
X190983600Y-86924665D01*
X190963598Y-86992786D01*
X190946632Y-87013824D01*
X190020462Y-87938673D01*
X190019989Y-87939088D01*
X189978709Y-87980367D01*
X189978649Y-87980427D01*
X189943579Y-88015447D01*
X189943429Y-88015642D01*
X189918123Y-88059474D01*
X189918080Y-88059548D01*
X189893297Y-88102403D01*
X189893285Y-88102434D01*
X189893201Y-88102637D01*
X189880234Y-88151028D01*
X189880212Y-88151111D01*
X189867231Y-88199420D01*
X189867200Y-88199656D01*
X189867200Y-88249719D01*
X189867158Y-88307747D01*
X189867200Y-88308384D01*
X189867200Y-99040391D01*
X189847198Y-99108512D01*
X189830297Y-99129485D01*
X189688980Y-99270806D01*
X189626668Y-99304832D01*
X189555852Y-99299768D01*
X189499016Y-99257222D01*
X189474204Y-99190703D01*
X189478176Y-99149105D01*
X189500500Y-99065792D01*
X189500500Y-85001038D01*
X189500505Y-84935147D01*
X189500500Y-84935128D01*
X189500500Y-84935108D01*
X189483304Y-84870932D01*
X189466407Y-84807850D01*
X189466397Y-84807832D01*
X189466392Y-84807814D01*
X189433186Y-84750299D01*
X189400524Y-84693717D01*
X189400509Y-84693702D01*
X189400500Y-84693686D01*
X189353934Y-84647120D01*
X189307345Y-84600524D01*
X189307344Y-84600523D01*
X189307339Y-84600518D01*
X189307319Y-84600503D01*
X189305564Y-84599490D01*
X189248759Y-84566693D01*
X189248760Y-84566691D01*
X189248752Y-84566689D01*
X189193222Y-84534623D01*
X189193221Y-84534622D01*
X189193206Y-84534614D01*
X189193188Y-84534609D01*
X189193186Y-84534608D01*
X189128537Y-84517285D01*
X189100299Y-84509716D01*
X189065912Y-84500500D01*
X189065892Y-84500500D01*
X189000921Y-84500500D01*
X176074042Y-84499505D01*
X176073956Y-84499500D01*
X176065892Y-84499500D01*
X175999156Y-84499500D01*
X175934142Y-84499494D01*
X175934114Y-84499498D01*
X175869938Y-84516693D01*
X175869931Y-84516695D01*
X175806831Y-84533597D01*
X175761382Y-84559837D01*
X175761380Y-84559838D01*
X175751307Y-84565654D01*
X175692717Y-84599476D01*
X175692702Y-84599490D01*
X175692686Y-84599500D01*
X175646120Y-84646065D01*
X175599524Y-84692655D01*
X175599514Y-84692671D01*
X175599500Y-84692686D01*
X175566237Y-84750299D01*
X175533623Y-84806778D01*
X175533617Y-84806796D01*
X175533608Y-84806814D01*
X175516285Y-84871462D01*
X175513265Y-84882727D01*
X175513263Y-84882733D01*
X175499500Y-84934088D01*
X175499500Y-84999971D01*
X175499494Y-85074349D01*
X175499500Y-85074438D01*
X175499500Y-98934008D01*
X175499500Y-99065792D01*
X175521081Y-99146335D01*
X175533607Y-99193083D01*
X175533610Y-99193090D01*
X175599497Y-99307210D01*
X175599505Y-99307220D01*
X175692679Y-99400394D01*
X175692684Y-99400398D01*
X175692686Y-99400400D01*
X175806814Y-99466292D01*
X175934108Y-99500400D01*
X175934110Y-99500400D01*
X189065889Y-99500400D01*
X189065892Y-99500400D01*
X189149225Y-99478071D01*
X189220198Y-99479761D01*
X189278994Y-99519555D01*
X189306942Y-99584819D01*
X189295169Y-99654833D01*
X189270930Y-99688872D01*
X187893090Y-101066762D01*
X187416130Y-101543742D01*
X187379379Y-101580494D01*
X187317068Y-101614520D01*
X187290282Y-101617400D01*
X166380316Y-101617400D01*
X166312195Y-101597398D01*
X166265702Y-101543742D01*
X166255598Y-101473468D01*
X166285092Y-101408888D01*
X166344818Y-101370504D01*
X166347535Y-101369738D01*
X166349634Y-101369175D01*
X166349768Y-101369178D01*
X166349759Y-101369142D01*
X166362321Y-101365775D01*
X166398054Y-101356201D01*
X166398058Y-101356198D01*
X166398064Y-101356197D01*
X166398261Y-101356116D01*
X166398271Y-101356109D01*
X166398275Y-101356109D01*
X166441074Y-101331363D01*
X166485047Y-101305976D01*
X166485052Y-101305971D01*
X166485231Y-101305832D01*
X166485238Y-101305829D01*
X166520360Y-101270661D01*
X166520433Y-101270621D01*
X166520417Y-101270605D01*
X166556076Y-101234947D01*
X166556077Y-101234944D01*
X166561693Y-101229329D01*
X166562050Y-101228919D01*
X168519189Y-99269332D01*
X168519242Y-99269281D01*
X168537157Y-99251364D01*
X168555076Y-99233447D01*
X168555081Y-99233437D01*
X168555217Y-99233260D01*
X168555222Y-99233256D01*
X168579954Y-99190356D01*
X168579955Y-99190354D01*
X168579959Y-99190356D01*
X168579983Y-99190304D01*
X168605301Y-99146454D01*
X168605302Y-99146447D01*
X168605391Y-99146235D01*
X168605391Y-99146233D01*
X168605393Y-99146231D01*
X168614258Y-99113063D01*
X168618459Y-99097347D01*
X168618476Y-99097351D01*
X168618478Y-99097271D01*
X168631300Y-99049425D01*
X168631300Y-99049423D01*
X168631301Y-99049420D01*
X168631331Y-99049190D01*
X168631332Y-99049187D01*
X168631300Y-98998164D01*
X168631300Y-95212830D01*
X168983600Y-95212830D01*
X168983600Y-96786963D01*
X168983601Y-96786973D01*
X168998365Y-96861200D01*
X169054616Y-96945384D01*
X169138797Y-97001633D01*
X169138799Y-97001634D01*
X169213033Y-97016400D01*
X170787166Y-97016399D01*
X170787169Y-97016398D01*
X170787173Y-97016398D01*
X170836426Y-97006601D01*
X170861401Y-97001634D01*
X170945584Y-96945384D01*
X171001834Y-96861201D01*
X171016600Y-96786967D01*
X171016599Y-95212834D01*
X171016598Y-95212830D01*
X171016598Y-95212826D01*
X171001834Y-95138599D01*
X170945583Y-95054415D01*
X170861402Y-94998166D01*
X170787167Y-94983400D01*
X169213036Y-94983400D01*
X169213026Y-94983401D01*
X169138799Y-94998165D01*
X169054615Y-95054416D01*
X168998366Y-95138597D01*
X168983600Y-95212830D01*
X168631300Y-95212830D01*
X168631300Y-88460113D01*
X168651302Y-88391992D01*
X168668205Y-88371018D01*
X169485719Y-87553504D01*
X169548031Y-87519478D01*
X169574814Y-87516599D01*
X170787164Y-87516599D01*
X170787166Y-87516599D01*
X170787169Y-87516598D01*
X170787172Y-87516598D01*
X170823763Y-87509319D01*
X170861401Y-87501834D01*
X170945584Y-87445584D01*
X171001834Y-87361401D01*
X171016600Y-87287167D01*
X171016599Y-85713034D01*
X171016598Y-85713030D01*
X171016598Y-85713026D01*
X171001834Y-85638799D01*
X170959283Y-85575118D01*
X170945584Y-85554616D01*
X170945583Y-85554615D01*
X170861402Y-85498366D01*
X170787167Y-85483600D01*
X169213036Y-85483600D01*
X169213026Y-85483601D01*
X169138799Y-85498365D01*
X169054615Y-85554616D01*
X168998366Y-85638797D01*
X168983600Y-85713030D01*
X168983600Y-86924385D01*
X168963598Y-86992506D01*
X168946696Y-87013480D01*
X168015553Y-87944624D01*
X168015552Y-87944624D01*
X167944529Y-88015646D01*
X167944521Y-88015656D01*
X167894300Y-88102641D01*
X167894299Y-88102646D01*
X167868369Y-88199420D01*
X167868300Y-88199676D01*
X167868300Y-98789171D01*
X167848298Y-98857292D01*
X167831451Y-98878211D01*
X167715651Y-98994156D01*
X167653360Y-99028220D01*
X167582541Y-99023199D01*
X167525679Y-98980688D01*
X167500827Y-98914183D01*
X167500500Y-98905116D01*
X167500500Y-85012764D01*
X167500500Y-85001038D01*
X167500505Y-84935147D01*
X167500500Y-84935128D01*
X167500500Y-84935108D01*
X167483304Y-84870932D01*
X167466407Y-84807850D01*
X167466397Y-84807832D01*
X167466392Y-84807814D01*
X167433186Y-84750299D01*
X167400524Y-84693717D01*
X167400509Y-84693702D01*
X167400500Y-84693686D01*
X167353934Y-84647120D01*
X167307345Y-84600524D01*
X167307344Y-84600523D01*
X167307339Y-84600518D01*
X167307319Y-84600503D01*
X167305564Y-84599490D01*
X167248759Y-84566693D01*
X167248760Y-84566691D01*
X167248752Y-84566689D01*
X167193222Y-84534623D01*
X167193221Y-84534622D01*
X167193206Y-84534614D01*
X167193188Y-84534609D01*
X167193186Y-84534608D01*
X167128537Y-84517285D01*
X167100299Y-84509716D01*
X167065912Y-84500500D01*
X167065892Y-84500500D01*
X167000921Y-84500500D01*
X154074042Y-84499505D01*
X154073956Y-84499500D01*
X154065892Y-84499500D01*
X153999156Y-84499500D01*
X153934142Y-84499494D01*
X153934114Y-84499498D01*
X153869938Y-84516693D01*
X153869931Y-84516695D01*
X153806831Y-84533597D01*
X153761382Y-84559837D01*
X153761380Y-84559838D01*
X153751307Y-84565654D01*
X153692717Y-84599476D01*
X153692702Y-84599490D01*
X153692686Y-84599500D01*
X153646120Y-84646065D01*
X153599524Y-84692655D01*
X153599514Y-84692671D01*
X153599500Y-84692686D01*
X153566237Y-84750299D01*
X153533623Y-84806778D01*
X153533617Y-84806796D01*
X153533608Y-84806814D01*
X153516285Y-84871462D01*
X153513265Y-84882727D01*
X153513263Y-84882733D01*
X153499500Y-84934088D01*
X153499500Y-84999971D01*
X153499494Y-85074349D01*
X152982400Y-85074349D01*
X152982400Y-82039130D01*
X165822300Y-82039130D01*
X165822300Y-83613263D01*
X165822301Y-83613273D01*
X165837065Y-83687500D01*
X165893316Y-83771684D01*
X165977497Y-83827933D01*
X165977499Y-83827934D01*
X166051733Y-83842700D01*
X167625866Y-83842699D01*
X167625869Y-83842698D01*
X167625873Y-83842698D01*
X167675126Y-83832901D01*
X167700101Y-83827934D01*
X167784284Y-83771684D01*
X167840534Y-83687501D01*
X167855300Y-83613267D01*
X167855299Y-82039134D01*
X167855299Y-82039133D01*
X167855299Y-82039131D01*
X167855299Y-82039130D01*
X187822300Y-82039130D01*
X187822300Y-83613263D01*
X187822301Y-83613273D01*
X187837065Y-83687500D01*
X187893316Y-83771684D01*
X187977497Y-83827933D01*
X187977499Y-83827934D01*
X188051733Y-83842700D01*
X189625866Y-83842699D01*
X189625869Y-83842698D01*
X189625873Y-83842698D01*
X189675126Y-83832901D01*
X189700101Y-83827934D01*
X189784284Y-83771684D01*
X189840534Y-83687501D01*
X189855300Y-83613267D01*
X189855299Y-82039134D01*
X189855298Y-82039131D01*
X189855298Y-82039126D01*
X189840534Y-81964899D01*
X189840533Y-81964897D01*
X189784284Y-81880716D01*
X189784283Y-81880715D01*
X189700102Y-81824466D01*
X189625867Y-81809700D01*
X188051736Y-81809700D01*
X188051726Y-81809701D01*
X187977499Y-81824465D01*
X187893315Y-81880716D01*
X187837066Y-81964897D01*
X187822300Y-82039130D01*
X167855299Y-82039130D01*
X167840534Y-81964899D01*
X167840533Y-81964897D01*
X167784284Y-81880716D01*
X167784283Y-81880715D01*
X167700102Y-81824466D01*
X167625867Y-81809700D01*
X166051736Y-81809700D01*
X166051726Y-81809701D01*
X165977499Y-81824465D01*
X165893315Y-81880716D01*
X165837066Y-81964897D01*
X165822300Y-82039130D01*
X152982400Y-82039130D01*
X152982400Y-74389601D01*
X153002402Y-74321480D01*
X153056058Y-74274987D01*
X153120750Y-74264208D01*
X153124726Y-74264598D01*
X153124733Y-74264600D01*
X154774866Y-74264599D01*
X154774869Y-74264598D01*
X154774873Y-74264598D01*
X154838502Y-74251942D01*
X154849101Y-74249834D01*
X154933284Y-74193584D01*
X154989534Y-74109401D01*
X155004300Y-74035167D01*
X155004300Y-73825030D01*
X175095250Y-73825030D01*
X175095250Y-75175163D01*
X175095251Y-75175173D01*
X175110015Y-75249400D01*
X175166266Y-75333584D01*
X175250447Y-75389833D01*
X175250449Y-75389834D01*
X175324683Y-75404600D01*
X176674916Y-75404599D01*
X176674919Y-75404598D01*
X176674923Y-75404598D01*
X176724176Y-75394801D01*
X176749151Y-75389834D01*
X176833334Y-75333584D01*
X176889584Y-75249401D01*
X176904350Y-75175167D01*
X176904349Y-73975030D01*
X177245350Y-73975030D01*
X177245350Y-75025163D01*
X177245351Y-75025173D01*
X177260115Y-75099400D01*
X177316366Y-75183584D01*
X177400547Y-75239833D01*
X177400549Y-75239834D01*
X177474783Y-75254600D01*
X178524816Y-75254599D01*
X178524819Y-75254598D01*
X178524823Y-75254598D01*
X178574076Y-75244801D01*
X178599051Y-75239834D01*
X178683234Y-75183584D01*
X178739484Y-75099401D01*
X178754250Y-75025167D01*
X178754249Y-73975034D01*
X178754249Y-73975033D01*
X178754249Y-73975031D01*
X178754249Y-73975030D01*
X179245350Y-73975030D01*
X179245350Y-75025163D01*
X179245351Y-75025173D01*
X179260115Y-75099400D01*
X179316366Y-75183584D01*
X179400547Y-75239833D01*
X179400549Y-75239834D01*
X179474783Y-75254600D01*
X180524816Y-75254599D01*
X180524819Y-75254598D01*
X180524823Y-75254598D01*
X180574076Y-75244801D01*
X180599051Y-75239834D01*
X180683234Y-75183584D01*
X180739484Y-75099401D01*
X180754250Y-75025167D01*
X180754249Y-73975034D01*
X180754249Y-73975033D01*
X180754249Y-73975031D01*
X180754249Y-73975030D01*
X181245300Y-73975030D01*
X181245300Y-75025163D01*
X181245301Y-75025173D01*
X181260065Y-75099400D01*
X181316316Y-75183584D01*
X181400497Y-75239833D01*
X181400499Y-75239834D01*
X181474733Y-75254600D01*
X182524866Y-75254599D01*
X182524869Y-75254598D01*
X182524873Y-75254598D01*
X182574126Y-75244801D01*
X182599101Y-75239834D01*
X182683284Y-75183584D01*
X182739534Y-75099401D01*
X182754300Y-75025167D01*
X182754299Y-73975034D01*
X182754298Y-73975031D01*
X182754298Y-73975026D01*
X182739534Y-73900800D01*
X182739534Y-73900799D01*
X182688906Y-73825030D01*
X183095300Y-73825030D01*
X183095300Y-75175163D01*
X183095301Y-75175173D01*
X183110065Y-75249400D01*
X183166316Y-75333584D01*
X183250497Y-75389833D01*
X183250499Y-75389834D01*
X183324733Y-75404600D01*
X184312631Y-75404599D01*
X184380752Y-75424601D01*
X184401723Y-75441501D01*
X185085840Y-76125572D01*
X185220677Y-76260400D01*
X185265553Y-76305276D01*
X185265560Y-76305281D01*
X185265562Y-76305282D01*
X185265564Y-76305284D01*
X185285320Y-76316689D01*
X185311042Y-76331539D01*
X185311045Y-76331540D01*
X185352546Y-76355501D01*
X185352547Y-76355501D01*
X185352552Y-76355504D01*
X185352611Y-76355528D01*
X185353407Y-76355734D01*
X185413605Y-76371862D01*
X185448789Y-76381289D01*
X185449534Y-76381496D01*
X185449576Y-76381501D01*
X185449584Y-76381500D01*
X185449588Y-76381502D01*
X185516554Y-76381500D01*
X185516556Y-76381500D01*
X189039884Y-76381500D01*
X189108005Y-76401502D01*
X189128980Y-76418405D01*
X190733428Y-78022878D01*
X194744504Y-82034018D01*
X194903696Y-82193212D01*
X194937721Y-82255525D01*
X194940600Y-82282307D01*
X194940600Y-82323531D01*
X194940599Y-82323531D01*
X194978716Y-82465782D01*
X195052346Y-82593314D01*
X195052354Y-82593324D01*
X195156475Y-82697445D01*
X195156480Y-82697449D01*
X195156482Y-82697451D01*
X195284018Y-82771084D01*
X195426267Y-82809200D01*
X195426269Y-82809200D01*
X195573531Y-82809200D01*
X195573533Y-82809200D01*
X195715782Y-82771084D01*
X195843318Y-82697451D01*
X195947451Y-82593318D01*
X196021084Y-82465782D01*
X196059200Y-82323533D01*
X196059200Y-82176267D01*
X196021084Y-82034018D01*
X195947451Y-81906482D01*
X195947449Y-81906480D01*
X195947445Y-81906475D01*
X195843324Y-81802354D01*
X195843314Y-81802346D01*
X195715782Y-81728716D01*
X195573533Y-81690600D01*
X195573531Y-81690600D01*
X195532319Y-81690600D01*
X195464198Y-81670598D01*
X195443223Y-81653695D01*
X189562560Y-75772938D01*
X189562550Y-75772926D01*
X189484353Y-75694729D01*
X189484349Y-75694726D01*
X189484347Y-75694724D01*
X189397354Y-75644499D01*
X189361841Y-75634983D01*
X189331084Y-75626741D01*
X189300329Y-75618500D01*
X189300326Y-75618499D01*
X189192160Y-75618499D01*
X189192144Y-75618500D01*
X188822244Y-75618500D01*
X188754123Y-75598498D01*
X188707630Y-75544842D01*
X188697526Y-75474568D01*
X188727020Y-75409988D01*
X188752242Y-75387735D01*
X188833284Y-75333584D01*
X188889534Y-75249401D01*
X188904300Y-75175167D01*
X188904299Y-73825034D01*
X188904298Y-73825030D01*
X188904298Y-73825026D01*
X188889534Y-73750799D01*
X188833283Y-73666615D01*
X188749102Y-73610366D01*
X188674867Y-73595600D01*
X187324736Y-73595600D01*
X187324726Y-73595601D01*
X187250499Y-73610365D01*
X187166315Y-73666616D01*
X187104563Y-73759032D01*
X187050085Y-73804559D01*
X186979642Y-73813406D01*
X186915599Y-73782764D01*
X186895034Y-73759031D01*
X186889534Y-73750800D01*
X186889534Y-73750799D01*
X186833284Y-73666616D01*
X186833283Y-73666615D01*
X186749102Y-73610366D01*
X186674867Y-73595600D01*
X185324736Y-73595600D01*
X185324726Y-73595601D01*
X185250499Y-73610365D01*
X185166315Y-73666616D01*
X185104563Y-73759032D01*
X185050085Y-73804559D01*
X184979642Y-73813406D01*
X184915599Y-73782764D01*
X184895034Y-73759031D01*
X184889534Y-73750800D01*
X184889534Y-73750799D01*
X184833284Y-73666616D01*
X184833283Y-73666615D01*
X184749102Y-73610366D01*
X184674867Y-73595600D01*
X183324736Y-73595600D01*
X183324726Y-73595601D01*
X183250499Y-73610365D01*
X183166315Y-73666616D01*
X183110066Y-73750797D01*
X183095300Y-73825030D01*
X182688906Y-73825030D01*
X182683284Y-73816616D01*
X182632622Y-73782764D01*
X182599102Y-73760366D01*
X182524867Y-73745600D01*
X181474736Y-73745600D01*
X181474726Y-73745601D01*
X181400499Y-73760365D01*
X181316315Y-73816616D01*
X181260066Y-73900797D01*
X181245300Y-73975030D01*
X180754249Y-73975030D01*
X180739484Y-73900799D01*
X180683233Y-73816615D01*
X180599052Y-73760366D01*
X180524817Y-73745600D01*
X179474786Y-73745600D01*
X179474776Y-73745601D01*
X179400549Y-73760365D01*
X179316365Y-73816616D01*
X179260116Y-73900797D01*
X179245350Y-73975030D01*
X178754249Y-73975030D01*
X178739484Y-73900799D01*
X178683233Y-73816615D01*
X178599052Y-73760366D01*
X178524817Y-73745600D01*
X177474786Y-73745600D01*
X177474776Y-73745601D01*
X177400549Y-73760365D01*
X177316365Y-73816616D01*
X177260116Y-73900797D01*
X177245350Y-73975030D01*
X176904349Y-73975030D01*
X176904349Y-73825034D01*
X176904348Y-73825030D01*
X176904348Y-73825026D01*
X176889584Y-73750799D01*
X176833333Y-73666615D01*
X176749152Y-73610366D01*
X176674917Y-73595600D01*
X175324686Y-73595600D01*
X175324676Y-73595601D01*
X175250449Y-73610365D01*
X175166265Y-73666616D01*
X175110016Y-73750797D01*
X175095250Y-73825030D01*
X155004300Y-73825030D01*
X155004299Y-73183584D01*
X155004299Y-72385036D01*
X155004298Y-72385026D01*
X154989534Y-72310799D01*
X154933283Y-72226615D01*
X154849102Y-72170366D01*
X154774867Y-72155600D01*
X153124736Y-72155600D01*
X153124724Y-72155602D01*
X153106927Y-72159142D01*
X153036213Y-72152813D01*
X152980147Y-72109258D01*
X152960642Y-72068174D01*
X152956401Y-72052346D01*
X152956294Y-72052161D01*
X152956240Y-72051959D01*
X152931536Y-72009279D01*
X152906176Y-71965353D01*
X152906023Y-71965200D01*
X152905919Y-71965020D01*
X152871094Y-71930271D01*
X152835147Y-71894324D01*
X152834960Y-71894216D01*
X152653378Y-71713030D01*
X164253600Y-71713030D01*
X164253600Y-73287163D01*
X164253601Y-73287173D01*
X164268365Y-73361400D01*
X164324616Y-73445584D01*
X164408797Y-73501833D01*
X164408799Y-73501834D01*
X164483033Y-73516600D01*
X166057166Y-73516599D01*
X166057169Y-73516598D01*
X166057173Y-73516598D01*
X166106426Y-73506801D01*
X166131401Y-73501834D01*
X166215584Y-73445584D01*
X166271834Y-73361401D01*
X166286600Y-73287167D01*
X166286599Y-71975030D01*
X173245400Y-71975030D01*
X173245400Y-73025163D01*
X173245401Y-73025173D01*
X173260165Y-73099400D01*
X173316416Y-73183584D01*
X173400597Y-73239833D01*
X173400599Y-73239834D01*
X173474833Y-73254600D01*
X174524966Y-73254599D01*
X174524969Y-73254598D01*
X174524973Y-73254598D01*
X174574226Y-73244801D01*
X174599201Y-73239834D01*
X174683384Y-73183584D01*
X174739634Y-73099401D01*
X174754400Y-73025167D01*
X174754399Y-71975034D01*
X174754399Y-71975033D01*
X174754399Y-71975031D01*
X174754399Y-71975030D01*
X175245400Y-71975030D01*
X175245400Y-73025163D01*
X175245401Y-73025173D01*
X175260165Y-73099400D01*
X175316416Y-73183584D01*
X175400597Y-73239833D01*
X175400599Y-73239834D01*
X175474833Y-73254600D01*
X176524966Y-73254599D01*
X176524969Y-73254598D01*
X176524973Y-73254598D01*
X176574226Y-73244801D01*
X176599201Y-73239834D01*
X176683384Y-73183584D01*
X176739634Y-73099401D01*
X176754400Y-73025167D01*
X176754399Y-71975034D01*
X176754399Y-71975033D01*
X176754399Y-71975031D01*
X176754399Y-71975030D01*
X177245400Y-71975030D01*
X177245400Y-73025163D01*
X177245401Y-73025173D01*
X177260165Y-73099400D01*
X177316416Y-73183584D01*
X177400597Y-73239833D01*
X177400599Y-73239834D01*
X177474833Y-73254600D01*
X178524966Y-73254599D01*
X178524969Y-73254598D01*
X178524973Y-73254598D01*
X178574226Y-73244801D01*
X178599201Y-73239834D01*
X178683384Y-73183584D01*
X178739634Y-73099401D01*
X178754400Y-73025167D01*
X178754399Y-71975034D01*
X178754399Y-71975033D01*
X178754399Y-71975031D01*
X178754399Y-71975030D01*
X179245400Y-71975030D01*
X179245400Y-73025163D01*
X179245401Y-73025173D01*
X179260165Y-73099400D01*
X179316416Y-73183584D01*
X179400597Y-73239833D01*
X179400599Y-73239834D01*
X179474833Y-73254600D01*
X180524966Y-73254599D01*
X180524969Y-73254598D01*
X180524973Y-73254598D01*
X180574226Y-73244801D01*
X180599201Y-73239834D01*
X180683384Y-73183584D01*
X180739634Y-73099401D01*
X180754400Y-73025167D01*
X180754399Y-71975034D01*
X180754399Y-71975033D01*
X180754399Y-71975031D01*
X180754399Y-71975030D01*
X181245350Y-71975030D01*
X181245350Y-73025163D01*
X181245351Y-73025173D01*
X181260115Y-73099400D01*
X181316366Y-73183584D01*
X181400547Y-73239833D01*
X181400549Y-73239834D01*
X181474783Y-73254600D01*
X182524816Y-73254599D01*
X182524819Y-73254598D01*
X182524823Y-73254598D01*
X182574076Y-73244801D01*
X182599051Y-73239834D01*
X182683234Y-73183584D01*
X182739484Y-73099401D01*
X182754250Y-73025167D01*
X182754249Y-71975034D01*
X182754249Y-71975033D01*
X182754249Y-71975031D01*
X182754249Y-71975030D01*
X183245350Y-71975030D01*
X183245350Y-73025163D01*
X183245351Y-73025173D01*
X183260115Y-73099400D01*
X183316366Y-73183584D01*
X183400547Y-73239833D01*
X183400549Y-73239834D01*
X183474783Y-73254600D01*
X184524816Y-73254599D01*
X184524819Y-73254598D01*
X184524823Y-73254598D01*
X184574076Y-73244801D01*
X184599051Y-73239834D01*
X184683234Y-73183584D01*
X184739484Y-73099401D01*
X184754250Y-73025167D01*
X184754249Y-71975034D01*
X184754249Y-71975033D01*
X184754249Y-71975031D01*
X184754249Y-71975030D01*
X185245350Y-71975030D01*
X185245350Y-73025163D01*
X185245351Y-73025173D01*
X185260115Y-73099400D01*
X185316366Y-73183584D01*
X185400547Y-73239833D01*
X185400549Y-73239834D01*
X185474783Y-73254600D01*
X186524816Y-73254599D01*
X186524819Y-73254598D01*
X186524823Y-73254598D01*
X186574076Y-73244801D01*
X186599051Y-73239834D01*
X186683234Y-73183584D01*
X186739484Y-73099401D01*
X186754250Y-73025167D01*
X186754249Y-71975034D01*
X186754249Y-71975033D01*
X186754249Y-71975031D01*
X186754249Y-71975030D01*
X187245350Y-71975030D01*
X187245350Y-73025163D01*
X187245351Y-73025173D01*
X187260115Y-73099400D01*
X187316366Y-73183584D01*
X187400547Y-73239833D01*
X187400549Y-73239834D01*
X187474783Y-73254600D01*
X188524816Y-73254599D01*
X188524819Y-73254598D01*
X188524823Y-73254598D01*
X188574076Y-73244801D01*
X188599051Y-73239834D01*
X188683234Y-73183584D01*
X188739484Y-73099401D01*
X188754250Y-73025167D01*
X188754249Y-71975034D01*
X188754248Y-71975031D01*
X188754248Y-71975026D01*
X188739484Y-71900799D01*
X188683233Y-71816615D01*
X188599052Y-71760366D01*
X188524817Y-71745600D01*
X187474786Y-71745600D01*
X187474776Y-71745601D01*
X187400549Y-71760365D01*
X187316365Y-71816616D01*
X187260116Y-71900797D01*
X187245350Y-71975030D01*
X186754249Y-71975030D01*
X186739484Y-71900799D01*
X186683233Y-71816615D01*
X186599052Y-71760366D01*
X186524817Y-71745600D01*
X185474786Y-71745600D01*
X185474776Y-71745601D01*
X185400549Y-71760365D01*
X185316365Y-71816616D01*
X185260116Y-71900797D01*
X185245350Y-71975030D01*
X184754249Y-71975030D01*
X184739484Y-71900799D01*
X184683233Y-71816615D01*
X184599052Y-71760366D01*
X184524817Y-71745600D01*
X183474786Y-71745600D01*
X183474776Y-71745601D01*
X183400549Y-71760365D01*
X183316365Y-71816616D01*
X183260116Y-71900797D01*
X183245350Y-71975030D01*
X182754249Y-71975030D01*
X182739484Y-71900799D01*
X182683233Y-71816615D01*
X182599052Y-71760366D01*
X182524817Y-71745600D01*
X181474786Y-71745600D01*
X181474776Y-71745601D01*
X181400549Y-71760365D01*
X181316365Y-71816616D01*
X181260116Y-71900797D01*
X181245350Y-71975030D01*
X180754399Y-71975030D01*
X180739634Y-71900799D01*
X180683383Y-71816615D01*
X180599202Y-71760366D01*
X180524967Y-71745600D01*
X179474836Y-71745600D01*
X179474826Y-71745601D01*
X179400599Y-71760365D01*
X179316415Y-71816616D01*
X179260166Y-71900797D01*
X179245400Y-71975030D01*
X178754399Y-71975030D01*
X178739634Y-71900799D01*
X178683383Y-71816615D01*
X178599202Y-71760366D01*
X178524967Y-71745600D01*
X177474836Y-71745600D01*
X177474826Y-71745601D01*
X177400599Y-71760365D01*
X177316415Y-71816616D01*
X177260166Y-71900797D01*
X177245400Y-71975030D01*
X176754399Y-71975030D01*
X176739634Y-71900799D01*
X176683383Y-71816615D01*
X176599202Y-71760366D01*
X176524967Y-71745600D01*
X175474836Y-71745600D01*
X175474826Y-71745601D01*
X175400599Y-71760365D01*
X175316415Y-71816616D01*
X175260166Y-71900797D01*
X175245400Y-71975030D01*
X174754399Y-71975030D01*
X174739634Y-71900799D01*
X174683383Y-71816615D01*
X174599202Y-71760366D01*
X174524967Y-71745600D01*
X173474836Y-71745600D01*
X173474826Y-71745601D01*
X173400599Y-71760365D01*
X173316415Y-71816616D01*
X173260166Y-71900797D01*
X173245400Y-71975030D01*
X166286599Y-71975030D01*
X166286599Y-71713034D01*
X166286598Y-71713030D01*
X166286598Y-71713026D01*
X166271834Y-71638799D01*
X166251476Y-71608331D01*
X166215584Y-71554616D01*
X166215583Y-71554615D01*
X166131402Y-71498366D01*
X166057167Y-71483600D01*
X164483036Y-71483600D01*
X164483026Y-71483601D01*
X164408799Y-71498365D01*
X164324615Y-71554616D01*
X164268366Y-71638797D01*
X164253600Y-71713030D01*
X152653378Y-71713030D01*
X152158558Y-71219289D01*
X151828102Y-70889554D01*
X151794009Y-70827279D01*
X151791100Y-70800361D01*
X151791100Y-66770599D01*
X151811102Y-66702478D01*
X151864758Y-66655985D01*
X151917100Y-66644599D01*
X152234864Y-66644599D01*
X152234866Y-66644599D01*
X152234869Y-66644598D01*
X152234872Y-66644598D01*
X152271463Y-66637319D01*
X152309101Y-66629834D01*
X152393284Y-66573584D01*
X152449534Y-66489401D01*
X152464300Y-66415167D01*
X152464299Y-64765034D01*
X152464299Y-64765033D01*
X152464299Y-64765031D01*
X152464299Y-64765030D01*
X152895300Y-64765030D01*
X152895300Y-66415163D01*
X152895301Y-66415173D01*
X152910065Y-66489400D01*
X152966316Y-66573584D01*
X153050497Y-66629833D01*
X153050499Y-66629834D01*
X153124733Y-66644600D01*
X154774866Y-66644599D01*
X154774869Y-66644598D01*
X154774873Y-66644598D01*
X154824126Y-66634801D01*
X154849101Y-66629834D01*
X154933284Y-66573584D01*
X154989534Y-66489401D01*
X155004300Y-66415167D01*
X155004299Y-64765034D01*
X155004299Y-64765033D01*
X155004299Y-64765031D01*
X155004299Y-64765030D01*
X155435300Y-64765030D01*
X155435300Y-66415163D01*
X155435301Y-66415173D01*
X155450065Y-66489400D01*
X155506316Y-66573584D01*
X155590497Y-66629833D01*
X155590499Y-66629834D01*
X155664733Y-66644600D01*
X157314866Y-66644599D01*
X157314869Y-66644598D01*
X157314873Y-66644598D01*
X157364126Y-66634801D01*
X157389101Y-66629834D01*
X157473284Y-66573584D01*
X157529534Y-66489401D01*
X157544300Y-66415167D01*
X157544299Y-64765034D01*
X157544298Y-64765031D01*
X157544298Y-64765026D01*
X157529534Y-64690799D01*
X157502875Y-64650902D01*
X157473284Y-64606616D01*
X157473283Y-64606615D01*
X157389102Y-64550366D01*
X157314867Y-64535600D01*
X155664736Y-64535600D01*
X155664726Y-64535601D01*
X155590499Y-64550365D01*
X155506315Y-64606616D01*
X155450066Y-64690797D01*
X155435300Y-64765030D01*
X155004299Y-64765030D01*
X154989534Y-64690799D01*
X154962875Y-64650902D01*
X154933284Y-64606616D01*
X154933283Y-64606615D01*
X154849102Y-64550366D01*
X154774867Y-64535600D01*
X153124736Y-64535600D01*
X153124726Y-64535601D01*
X153050499Y-64550365D01*
X152966315Y-64606616D01*
X152910066Y-64690797D01*
X152895300Y-64765030D01*
X152464299Y-64765030D01*
X152449534Y-64690799D01*
X152422875Y-64650902D01*
X152393284Y-64606616D01*
X152393283Y-64606615D01*
X152309102Y-64550366D01*
X152234869Y-64535600D01*
X152234867Y-64535600D01*
X150947058Y-64535600D01*
X150878937Y-64515598D01*
X150857960Y-64498693D01*
X150686364Y-64327088D01*
X149881261Y-63521941D01*
X149881245Y-63521922D01*
X149874076Y-63514753D01*
X149821439Y-63462116D01*
X149821438Y-63462114D01*
X149803050Y-63443726D01*
X149803043Y-63443722D01*
X149780583Y-63430754D01*
X149745148Y-63410296D01*
X149745148Y-63410295D01*
X149745144Y-63410294D01*
X149729918Y-63401502D01*
X149716062Y-63393502D01*
X149716059Y-63393501D01*
X149716054Y-63393499D01*
X149716052Y-63393498D01*
X149716051Y-63393498D01*
X149668900Y-63380864D01*
X149668896Y-63380863D01*
X149619032Y-63367500D01*
X149619028Y-63367500D01*
X149619025Y-63367500D01*
X149585553Y-63367500D01*
X149585544Y-63367499D01*
X149518585Y-63367498D01*
X149518584Y-63367498D01*
X149509821Y-63367498D01*
X149509793Y-63367500D01*
X128000775Y-63367500D01*
X127950904Y-63380863D01*
X127903741Y-63393500D01*
X127816755Y-63443721D01*
X127816755Y-63443722D01*
X127816749Y-63443726D01*
X126761780Y-64498695D01*
X126699468Y-64532721D01*
X126672685Y-64535600D01*
X125385036Y-64535600D01*
X125385026Y-64535601D01*
X125310799Y-64550365D01*
X125226615Y-64606616D01*
X125170366Y-64690797D01*
X125155600Y-64765030D01*
X125155600Y-66415163D01*
X125155601Y-66415173D01*
X125170365Y-66489400D01*
X125226616Y-66573584D01*
X125310797Y-66629833D01*
X125310799Y-66629834D01*
X125385033Y-66644600D01*
X127035166Y-66644599D01*
X127035169Y-66644598D01*
X127035173Y-66644598D01*
X127084426Y-66634801D01*
X127109401Y-66629834D01*
X127193584Y-66573584D01*
X127249834Y-66489401D01*
X127264600Y-66415167D01*
X127264599Y-65127113D01*
X127284601Y-65058993D01*
X127301504Y-65038019D01*
X127480505Y-64859018D01*
X127542817Y-64824992D01*
X127613632Y-64830057D01*
X127670468Y-64872604D01*
X127695279Y-64939124D01*
X127695600Y-64948113D01*
X127695600Y-66415163D01*
X127695601Y-66415173D01*
X127710365Y-66489400D01*
X127766616Y-66573584D01*
X127850797Y-66629833D01*
X127850799Y-66629834D01*
X127925033Y-66644600D01*
X129575166Y-66644599D01*
X129575169Y-66644598D01*
X129575173Y-66644598D01*
X129624426Y-66634801D01*
X129649401Y-66629834D01*
X129733584Y-66573584D01*
X129789834Y-66489401D01*
X129804600Y-66415167D01*
X129804599Y-64765034D01*
X129804598Y-64765031D01*
X129804598Y-64765026D01*
X129789834Y-64690799D01*
X129763175Y-64650902D01*
X129733584Y-64606616D01*
X129733583Y-64606615D01*
X129649402Y-64550366D01*
X129575169Y-64535600D01*
X128108112Y-64535600D01*
X128039991Y-64515598D01*
X127993498Y-64461942D01*
X127983394Y-64391668D01*
X128012888Y-64327088D01*
X128018992Y-64320530D01*
X128172119Y-64167404D01*
X128234432Y-64133379D01*
X128261214Y-64130500D01*
X131905785Y-64130500D01*
X131973906Y-64150502D01*
X132020399Y-64204158D01*
X132030503Y-64274432D01*
X132001009Y-64339012D01*
X131994880Y-64345595D01*
X131841780Y-64498695D01*
X131779468Y-64532721D01*
X131752685Y-64535600D01*
X130465036Y-64535600D01*
X130465026Y-64535601D01*
X130390799Y-64550365D01*
X130306615Y-64606616D01*
X130250366Y-64690797D01*
X130235600Y-64765030D01*
X130235600Y-66415163D01*
X130235601Y-66415173D01*
X130250365Y-66489400D01*
X130306616Y-66573584D01*
X130390797Y-66629833D01*
X130390799Y-66629834D01*
X130465033Y-66644600D01*
X132115166Y-66644599D01*
X132115169Y-66644598D01*
X132115173Y-66644598D01*
X132164426Y-66634801D01*
X132189401Y-66629834D01*
X132273584Y-66573584D01*
X132329834Y-66489401D01*
X132344600Y-66415167D01*
X132344599Y-65127113D01*
X132364601Y-65058993D01*
X132381504Y-65038018D01*
X132751719Y-64667804D01*
X132814031Y-64633779D01*
X132840814Y-64630900D01*
X137529491Y-64630900D01*
X137597612Y-64650902D01*
X137644105Y-64704558D01*
X137653156Y-64758843D01*
X137655300Y-64758843D01*
X137655300Y-66415163D01*
X137655301Y-66415173D01*
X137670065Y-66489400D01*
X137726316Y-66573584D01*
X137810497Y-66629833D01*
X137810499Y-66629834D01*
X137884733Y-66644600D01*
X139534866Y-66644599D01*
X139534869Y-66644598D01*
X139534873Y-66644598D01*
X139584126Y-66634801D01*
X139609101Y-66629834D01*
X139693284Y-66573584D01*
X139749534Y-66489401D01*
X139764300Y-66415167D01*
X139764299Y-64765034D01*
X139764299Y-64765033D01*
X139764299Y-64758844D01*
X139766682Y-64758844D01*
X139777957Y-64699470D01*
X139826810Y-64647954D01*
X139890108Y-64630900D01*
X140069491Y-64630900D01*
X140137612Y-64650902D01*
X140184105Y-64704558D01*
X140193156Y-64758843D01*
X140195300Y-64758843D01*
X140195300Y-66415163D01*
X140195301Y-66415173D01*
X140210065Y-66489400D01*
X140266316Y-66573584D01*
X140350497Y-66629833D01*
X140350499Y-66629834D01*
X140424733Y-66644600D01*
X142074866Y-66644599D01*
X142074869Y-66644598D01*
X142074873Y-66644598D01*
X142124126Y-66634801D01*
X142149101Y-66629834D01*
X142233284Y-66573584D01*
X142289534Y-66489401D01*
X142304300Y-66415167D01*
X142304299Y-64948236D01*
X142324301Y-64880116D01*
X142377957Y-64833623D01*
X142448231Y-64823519D01*
X142512811Y-64853012D01*
X142519398Y-64859145D01*
X142608504Y-64948258D01*
X142698399Y-65038159D01*
X142732421Y-65100472D01*
X142735300Y-65127251D01*
X142735300Y-66415163D01*
X142735301Y-66415173D01*
X142750065Y-66489400D01*
X142806316Y-66573584D01*
X142890497Y-66629833D01*
X142890499Y-66629834D01*
X142964733Y-66644600D01*
X144614866Y-66644599D01*
X144614869Y-66644598D01*
X144614873Y-66644598D01*
X144664126Y-66634801D01*
X144689101Y-66629834D01*
X144773284Y-66573584D01*
X144829534Y-66489401D01*
X144844300Y-66415167D01*
X144844299Y-64765034D01*
X144844298Y-64765031D01*
X144844298Y-64765026D01*
X144829534Y-64690799D01*
X144802875Y-64650902D01*
X144773284Y-64606616D01*
X144773283Y-64606615D01*
X144689102Y-64550366D01*
X144614869Y-64535600D01*
X144614867Y-64535600D01*
X143327075Y-64535600D01*
X143258954Y-64515598D01*
X143237976Y-64498692D01*
X143084887Y-64345592D01*
X143050865Y-64283279D01*
X143055932Y-64212463D01*
X143098481Y-64155629D01*
X143165002Y-64130821D01*
X143173986Y-64130500D01*
X149358578Y-64130500D01*
X149426699Y-64150502D01*
X149447676Y-64167407D01*
X149600767Y-64320507D01*
X149634790Y-64382820D01*
X149629723Y-64453636D01*
X149587175Y-64510470D01*
X149520654Y-64535279D01*
X149511669Y-64535600D01*
X148044736Y-64535600D01*
X148044726Y-64535601D01*
X147970499Y-64550365D01*
X147886315Y-64606616D01*
X147830066Y-64690797D01*
X147815300Y-64765030D01*
X147815300Y-66053086D01*
X147795298Y-66121207D01*
X147778395Y-66142181D01*
X145840182Y-68080395D01*
X145777870Y-68114420D01*
X145751087Y-68117300D01*
X136398900Y-68117300D01*
X136330779Y-68097298D01*
X136284286Y-68043642D01*
X136272900Y-67991300D01*
X136272899Y-66463436D01*
X136272898Y-66463426D01*
X136258134Y-66389199D01*
X136201883Y-66305015D01*
X136117702Y-66248766D01*
X136043467Y-66234000D01*
X134469336Y-66234000D01*
X134469326Y-66234001D01*
X134395099Y-66248765D01*
X134310915Y-66305016D01*
X134254666Y-66389197D01*
X134239900Y-66463430D01*
X134239900Y-66463434D01*
X134239901Y-67991300D01*
X134219899Y-68059421D01*
X134166243Y-68105914D01*
X134113901Y-68117300D01*
X125709305Y-68117300D01*
X125641184Y-68097298D01*
X125620212Y-68080398D01*
X124399443Y-66859697D01*
X124365416Y-66797386D01*
X124370479Y-66726570D01*
X124413024Y-66669733D01*
X124479544Y-66644920D01*
X124488536Y-66644599D01*
X124495164Y-66644599D01*
X124495166Y-66644599D01*
X124495169Y-66644598D01*
X124495172Y-66644598D01*
X124531763Y-66637319D01*
X124569401Y-66629834D01*
X124653584Y-66573584D01*
X124709834Y-66489401D01*
X124724600Y-66415167D01*
X124724599Y-64765034D01*
X124724598Y-64765031D01*
X124724598Y-64765026D01*
X124709834Y-64690799D01*
X124683175Y-64650902D01*
X124653584Y-64606616D01*
X124653583Y-64606615D01*
X124569402Y-64550366D01*
X124495167Y-64535600D01*
X122845036Y-64535600D01*
X122845026Y-64535601D01*
X122770799Y-64550365D01*
X122686615Y-64606616D01*
X122630366Y-64690797D01*
X122615600Y-64765030D01*
X122615600Y-66415163D01*
X122615601Y-66415173D01*
X122630365Y-66489400D01*
X122686616Y-66573584D01*
X122770797Y-66629833D01*
X122770799Y-66629834D01*
X122845033Y-66644600D01*
X123194703Y-66644599D01*
X123262823Y-66664601D01*
X123309316Y-66718256D01*
X123317376Y-66746675D01*
X123318369Y-66746481D01*
X123319200Y-66750734D01*
X123331550Y-66796817D01*
X123331550Y-66796818D01*
X123345199Y-66847754D01*
X123345202Y-66847762D01*
X123361994Y-66876843D01*
X123361995Y-66876848D01*
X123361996Y-66876848D01*
X123395426Y-66934750D01*
X123413380Y-66952704D01*
X123413394Y-66952717D01*
X123413406Y-66952729D01*
X123466453Y-67005776D01*
X123470839Y-67010162D01*
X123470863Y-67010184D01*
X124856641Y-68395884D01*
X124863360Y-68402602D01*
X124897387Y-68464913D01*
X124892324Y-68535729D01*
X124849779Y-68592566D01*
X124783259Y-68617379D01*
X124774267Y-68617700D01*
X122209117Y-68617700D01*
X122140996Y-68597698D01*
X122120020Y-68580794D01*
X122004142Y-68464913D01*
X120549434Y-67010162D01*
X119681502Y-66142204D01*
X119647478Y-66079891D01*
X119644599Y-66053110D01*
X119644599Y-64765036D01*
X119644598Y-64765027D01*
X119629834Y-64690799D01*
X119603175Y-64650902D01*
X119573584Y-64606616D01*
X119573583Y-64606615D01*
X119489402Y-64550366D01*
X119415167Y-64535600D01*
X117765036Y-64535600D01*
X117765026Y-64535601D01*
X117690799Y-64550365D01*
X117606615Y-64606616D01*
X117550366Y-64690797D01*
X117535600Y-64765030D01*
X117104599Y-64765030D01*
X117089834Y-64690799D01*
X117063175Y-64650902D01*
X117033584Y-64606616D01*
X117033583Y-64606615D01*
X116949402Y-64550366D01*
X116875167Y-64535600D01*
X115225036Y-64535600D01*
X115225026Y-64535601D01*
X115150799Y-64550365D01*
X115066615Y-64606616D01*
X115010366Y-64690797D01*
X114995600Y-64765030D01*
X114564599Y-64765030D01*
X114549834Y-64690799D01*
X114523175Y-64650902D01*
X114493584Y-64606616D01*
X114493583Y-64606615D01*
X114409402Y-64550366D01*
X114335167Y-64535600D01*
X112685036Y-64535600D01*
X112685026Y-64535601D01*
X112610799Y-64550365D01*
X112526615Y-64606616D01*
X112470366Y-64690797D01*
X112455600Y-64765030D01*
X105942784Y-64765030D01*
X110170409Y-60537405D01*
X110232721Y-60503379D01*
X110259504Y-60500500D01*
X189740297Y-60500500D01*
X189808418Y-60520502D01*
G37*
%TD.AperFunction*%
%TD*%
M02*
