%TF.GenerationSoftware,KiCad,Pcbnew,10.0.6*%
%TF.CreationDate,2026-09-23T18:15:49+08:00*%
%TF.ProjectId,Utility_Time_Module,5574696c-6974-4795-9f54-696d655f4d6f,1.7.1*%
%TF.SameCoordinates,Original*%
%TF.FileFunction,Legend,Bot*%
%TF.FilePolarity,Positive*%
%FSLAX46Y46*%
G04 Gerber Fmt 4.6, Leading zero omitted, Abs format (unit mm)*
G04 Created by KiCad (PCBNEW 10.0.6) date 2026-09-23 18:15:49*
%MOMM*%
%LPD*%
G01*
G04 APERTURE LIST*
%ADD10C,0.254000*%
%ADD11C,1.000000*%
%ADD12C,0.180000*%
G04 APERTURE END LIST*
D10*
X107280000Y-79260100D02*
X107280000Y-104660100D01*
X107280000Y-104660100D02*
X117380100Y-104660100D01*
X117380100Y-79260100D02*
X107280000Y-79260100D01*
X117380100Y-104660100D02*
X117380100Y-79260100D01*
D11*
X123918200Y-119500000D02*
G75*
G02*
X120081800Y-119500000I-1918200J0D01*
G01*
X120081800Y-119500000D02*
G75*
G02*
X123918200Y-119500000I1918200J0D01*
G01*
X123918200Y-128999900D02*
G75*
G02*
X120081800Y-128999900I-1918200J0D01*
G01*
X120081800Y-128999900D02*
G75*
G02*
X123918200Y-128999900I1918200J0D01*
G01*
X123918200Y-138250000D02*
G75*
G02*
X120081800Y-138250000I-1918200J0D01*
G01*
X120081800Y-138250000D02*
G75*
G02*
X123918200Y-138250000I1918200J0D01*
G01*
X123918200Y-147749900D02*
G75*
G02*
X120081800Y-147749900I-1918200J0D01*
G01*
X120081800Y-147749900D02*
G75*
G02*
X123918200Y-147749900I1918200J0D01*
G01*
X149917900Y-128500000D02*
G75*
G02*
X146081500Y-128500000I-1918200J0D01*
G01*
X146081500Y-128500000D02*
G75*
G02*
X149917900Y-128500000I1918200J0D01*
G01*
X149917900Y-138000100D02*
G75*
G02*
X146081500Y-138000100I-1918200J0D01*
G01*
X146081500Y-138000100D02*
G75*
G02*
X149917900Y-138000100I1918200J0D01*
G01*
X149918100Y-86500100D02*
G75*
G02*
X146081700Y-86500100I-1918200J0D01*
G01*
X146081700Y-86500100D02*
G75*
G02*
X149918100Y-86500100I1918200J0D01*
G01*
X149918100Y-95999900D02*
G75*
G02*
X146081700Y-95999900I-1918200J0D01*
G01*
X146081700Y-95999900D02*
G75*
G02*
X149918100Y-95999900I1918200J0D01*
G01*
X171918100Y-128500000D02*
G75*
G02*
X168081700Y-128500000I-1918200J0D01*
G01*
X168081700Y-128500000D02*
G75*
G02*
X171918100Y-128500000I1918200J0D01*
G01*
X171918100Y-138000100D02*
G75*
G02*
X168081700Y-138000100I-1918200J0D01*
G01*
X168081700Y-138000100D02*
G75*
G02*
X171918100Y-138000100I1918200J0D01*
G01*
X171918300Y-86500100D02*
G75*
G02*
X168081900Y-86500100I-1918200J0D01*
G01*
X168081900Y-86500100D02*
G75*
G02*
X171918300Y-86500100I1918200J0D01*
G01*
X171918300Y-95999900D02*
G75*
G02*
X168081900Y-95999900I-1918200J0D01*
G01*
X168081900Y-95999900D02*
G75*
G02*
X171918300Y-95999900I1918200J0D01*
G01*
D10*
X172798900Y-61800900D02*
X172798900Y-65798800D01*
X172798900Y-65798800D02*
X178849200Y-65798800D01*
X172799900Y-61800000D02*
X172798900Y-61800900D01*
X178849200Y-61800900D02*
X172799900Y-61800000D01*
X178849200Y-65798800D02*
X178849200Y-61800900D01*
D11*
X193918000Y-128500000D02*
G75*
G02*
X190081600Y-128500000I-1918200J0D01*
G01*
X190081600Y-128500000D02*
G75*
G02*
X193918000Y-128500000I1918200J0D01*
G01*
X193918000Y-138000100D02*
G75*
G02*
X190081600Y-138000100I-1918200J0D01*
G01*
X190081600Y-138000100D02*
G75*
G02*
X193918000Y-138000100I1918200J0D01*
G01*
X193918300Y-86500100D02*
G75*
G02*
X190081900Y-86500100I-1918200J0D01*
G01*
X190081900Y-86500100D02*
G75*
G02*
X193918300Y-86500100I1918200J0D01*
G01*
X193918300Y-95999900D02*
G75*
G02*
X190081900Y-95999900I-1918200J0D01*
G01*
X190081900Y-95999900D02*
G75*
G02*
X193918300Y-95999900I1918200J0D01*
G01*
D12*
X122108245Y-116669373D02*
X121674912Y-116669373D01*
X122194912Y-116929373D02*
X121891579Y-116019373D01*
X121891579Y-116019373D02*
X121588245Y-116929373D01*
X122108245Y-126169473D02*
X121674912Y-126169473D01*
X122194912Y-126429473D02*
X121891579Y-125519473D01*
X121891579Y-125519473D02*
X121588245Y-126429473D01*
X122108245Y-135169473D02*
X121674912Y-135169473D01*
X122194912Y-135429473D02*
X121891579Y-134519473D01*
X121891579Y-134519473D02*
X121588245Y-135429473D01*
X122108245Y-144969273D02*
X121674912Y-144969273D01*
X122194912Y-145229273D02*
X121891579Y-144319273D01*
X121891579Y-144319273D02*
X121588245Y-145229273D01*
X148107945Y-134969273D02*
X147674612Y-134969273D01*
X148194612Y-135229273D02*
X147891279Y-134319273D01*
X147891279Y-134319273D02*
X147587945Y-135229273D01*
X148108245Y-83569673D02*
X147674912Y-83569673D01*
X148194912Y-83829673D02*
X147891579Y-82919673D01*
X147891579Y-82919673D02*
X147588245Y-83829673D01*
X148108245Y-92969373D02*
X147674912Y-92969373D01*
X148194912Y-93229373D02*
X147891579Y-92319373D01*
X147891579Y-92319373D02*
X147588245Y-93229373D01*
X148108245Y-125669373D02*
X147674912Y-125669373D01*
X148194912Y-125929373D02*
X147891579Y-125019373D01*
X147891579Y-125019373D02*
X147588245Y-125929373D01*
X170107945Y-134969273D02*
X169674612Y-134969273D01*
X170194612Y-135229273D02*
X169891279Y-134319273D01*
X169891279Y-134319273D02*
X169587945Y-135229273D01*
X170108145Y-83569673D02*
X169674812Y-83569673D01*
X170194812Y-83829673D02*
X169891479Y-82919673D01*
X169891479Y-82919673D02*
X169588145Y-83829673D01*
X170108145Y-92969373D02*
X169674812Y-92969373D01*
X170194812Y-93229373D02*
X169891479Y-92319373D01*
X169891479Y-92319373D02*
X169588145Y-93229373D01*
X170108145Y-125669373D02*
X169674812Y-125669373D01*
X170194812Y-125929373D02*
X169891479Y-125019373D01*
X169891479Y-125019373D02*
X169588145Y-125929373D01*
X177538145Y-62712806D02*
X177624812Y-62669473D01*
X177624812Y-62669473D02*
X177754812Y-62669473D01*
X177754812Y-62669473D02*
X177884812Y-62712806D01*
X177884812Y-62712806D02*
X177971479Y-62799473D01*
X177971479Y-62799473D02*
X178014812Y-62886140D01*
X178014812Y-62886140D02*
X178058145Y-63059473D01*
X178058145Y-63059473D02*
X178058145Y-63189473D01*
X178058145Y-63189473D02*
X178014812Y-63362806D01*
X178014812Y-63362806D02*
X177971479Y-63449473D01*
X177971479Y-63449473D02*
X177884812Y-63536140D01*
X177884812Y-63536140D02*
X177754812Y-63579473D01*
X177754812Y-63579473D02*
X177668145Y-63579473D01*
X177668145Y-63579473D02*
X177538145Y-63536140D01*
X177538145Y-63536140D02*
X177494812Y-63492806D01*
X177494812Y-63492806D02*
X177494812Y-63189473D01*
X177494812Y-63189473D02*
X177668145Y-63189473D01*
X176584812Y-63579473D02*
X176888145Y-63146140D01*
X177104812Y-63579473D02*
X177104812Y-62669473D01*
X177104812Y-62669473D02*
X176758145Y-62669473D01*
X176758145Y-62669473D02*
X176671479Y-62712806D01*
X176671479Y-62712806D02*
X176628145Y-62756140D01*
X176628145Y-62756140D02*
X176584812Y-62842806D01*
X176584812Y-62842806D02*
X176584812Y-62972806D01*
X176584812Y-62972806D02*
X176628145Y-63059473D01*
X176628145Y-63059473D02*
X176671479Y-63102806D01*
X176671479Y-63102806D02*
X176758145Y-63146140D01*
X176758145Y-63146140D02*
X177104812Y-63146140D01*
X176194812Y-63102806D02*
X175891479Y-63102806D01*
X175761479Y-63579473D02*
X176194812Y-63579473D01*
X176194812Y-63579473D02*
X176194812Y-62669473D01*
X176194812Y-62669473D02*
X175761479Y-62669473D01*
X175371479Y-63102806D02*
X175068146Y-63102806D01*
X174938146Y-63579473D02*
X175371479Y-63579473D01*
X175371479Y-63579473D02*
X175371479Y-62669473D01*
X175371479Y-62669473D02*
X174938146Y-62669473D01*
X174548146Y-63579473D02*
X174548146Y-62669473D01*
X174548146Y-62669473D02*
X174028146Y-63579473D01*
X174028146Y-63579473D02*
X174028146Y-62669473D01*
X178058145Y-65069573D02*
X177624812Y-65069573D01*
X178144812Y-65329573D02*
X177841479Y-64419573D01*
X177841479Y-64419573D02*
X177538145Y-65329573D01*
X177234812Y-65242906D02*
X177191479Y-65286240D01*
X177191479Y-65286240D02*
X177234812Y-65329573D01*
X177234812Y-65329573D02*
X177278145Y-65286240D01*
X177278145Y-65286240D02*
X177234812Y-65242906D01*
X177234812Y-65242906D02*
X177234812Y-65329573D01*
X177234812Y-64766240D02*
X177191479Y-64809573D01*
X177191479Y-64809573D02*
X177234812Y-64852906D01*
X177234812Y-64852906D02*
X177278145Y-64809573D01*
X177278145Y-64809573D02*
X177234812Y-64766240D01*
X177234812Y-64766240D02*
X177234812Y-64852906D01*
X175631479Y-65329573D02*
X176151479Y-65329573D01*
X175891479Y-65329573D02*
X175891479Y-64419573D01*
X175891479Y-64419573D02*
X175978146Y-64549573D01*
X175978146Y-64549573D02*
X176064813Y-64636240D01*
X176064813Y-64636240D02*
X176151479Y-64679573D01*
X174851479Y-64419573D02*
X175024812Y-64419573D01*
X175024812Y-64419573D02*
X175111479Y-64462906D01*
X175111479Y-64462906D02*
X175154812Y-64506240D01*
X175154812Y-64506240D02*
X175241479Y-64636240D01*
X175241479Y-64636240D02*
X175284812Y-64809573D01*
X175284812Y-64809573D02*
X175284812Y-65156240D01*
X175284812Y-65156240D02*
X175241479Y-65242906D01*
X175241479Y-65242906D02*
X175198146Y-65286240D01*
X175198146Y-65286240D02*
X175111479Y-65329573D01*
X175111479Y-65329573D02*
X174938146Y-65329573D01*
X174938146Y-65329573D02*
X174851479Y-65286240D01*
X174851479Y-65286240D02*
X174808146Y-65242906D01*
X174808146Y-65242906D02*
X174764812Y-65156240D01*
X174764812Y-65156240D02*
X174764812Y-64939573D01*
X174764812Y-64939573D02*
X174808146Y-64852906D01*
X174808146Y-64852906D02*
X174851479Y-64809573D01*
X174851479Y-64809573D02*
X174938146Y-64766240D01*
X174938146Y-64766240D02*
X175111479Y-64766240D01*
X175111479Y-64766240D02*
X175198146Y-64809573D01*
X175198146Y-64809573D02*
X175241479Y-64852906D01*
X175241479Y-64852906D02*
X175284812Y-64939573D01*
X192107845Y-135169473D02*
X191674512Y-135169473D01*
X192194512Y-135429473D02*
X191891179Y-134519473D01*
X191891179Y-134519473D02*
X191587845Y-135429473D01*
X192108145Y-83569673D02*
X191674812Y-83569673D01*
X192194812Y-83829673D02*
X191891479Y-82919673D01*
X191891479Y-82919673D02*
X191588145Y-83829673D01*
X192108145Y-92969373D02*
X191674812Y-92969373D01*
X192194812Y-93229373D02*
X191891479Y-92319373D01*
X191891479Y-92319373D02*
X191588145Y-93229373D01*
X192108145Y-125669373D02*
X191674812Y-125669373D01*
X192194812Y-125929373D02*
X191891479Y-125019373D01*
X191891479Y-125019373D02*
X191588145Y-125929373D01*
M02*
