%TF.GenerationSoftware,KiCad,Pcbnew,10.0.6*%
%TF.CreationDate,2026-09-23T18:15:49+08:00*%
%TF.ProjectId,Utility_Time_Module,5574696c-6974-4795-9f54-696d655f4d6f,1.7.1*%
%TF.SameCoordinates,Original*%
%TF.FileFunction,Legend,Top*%
%TF.FilePolarity,Positive*%
%FSLAX46Y46*%
G04 Gerber Fmt 4.6, Leading zero omitted, Abs format (unit mm)*
G04 Created by KiCad (PCBNEW 10.0.6) date 2026-09-23 18:15:49*
%MOMM*%
%LPD*%
G01*
G04 APERTURE LIST*
%ADD10C,0.254000*%
%ADD11C,0.080000*%
%ADD12C,0.150000*%
%ADD13C,0.200000*%
%ADD14C,0.152400*%
%ADD15C,0.177800*%
G04 APERTURE END LIST*
D10*
X112100000Y-107199900D02*
X129499900Y-107199900D01*
X112100000Y-113199800D02*
X112100000Y-107199900D01*
X129499900Y-107199900D02*
X129499900Y-113199800D01*
X129499900Y-113199800D02*
X112100000Y-113199800D01*
X169000000Y-70499900D02*
X192999900Y-70499900D01*
X169000000Y-76499800D02*
X169000000Y-70499900D01*
X180000000Y-70499900D02*
X180000000Y-71500000D01*
X180000000Y-71500000D02*
X181999800Y-71500000D01*
X181999800Y-71500000D02*
X181999800Y-70499900D01*
X192999900Y-70499900D02*
X192999900Y-76499800D01*
X192999900Y-76499800D02*
X169000000Y-76499800D01*
D11*
X120871178Y-119360926D02*
X120627369Y-119360926D01*
X120231178Y-119360926D02*
X119987369Y-119360926D01*
X119591178Y-119360926D02*
X119347369Y-119360926D01*
X146870878Y-128360926D02*
X146627069Y-128360926D01*
X146230878Y-128360926D02*
X145987069Y-128360926D01*
X145590878Y-128360926D02*
X145347069Y-128360926D01*
X146871078Y-95860826D02*
X146627269Y-95860826D01*
X146231078Y-95860826D02*
X145987269Y-95860826D01*
X145591078Y-95860826D02*
X145347269Y-95860826D01*
X168871078Y-128360926D02*
X168627269Y-128360926D01*
X168231078Y-128360926D02*
X167987269Y-128360926D01*
X167591078Y-128360926D02*
X167347269Y-128360926D01*
X168871278Y-95860826D02*
X168627469Y-95860826D01*
X168231278Y-95860826D02*
X167987469Y-95860826D01*
X167591278Y-95860826D02*
X167347469Y-95860826D01*
X190870978Y-128360926D02*
X190627169Y-128360926D01*
X190230978Y-128360926D02*
X189987169Y-128360926D01*
X189590978Y-128360926D02*
X189347169Y-128360926D01*
X190871278Y-95860826D02*
X190627469Y-95860826D01*
X190231278Y-95860826D02*
X189987469Y-95860826D01*
X189591278Y-95860826D02*
X189347469Y-95860826D01*
X118890726Y-79139073D02*
X119172631Y-79139073D01*
X119630726Y-79139073D02*
X119912631Y-79139073D01*
X120370726Y-79139073D02*
X120652631Y-79139073D01*
X121110726Y-79139073D02*
X121392631Y-79139073D01*
X121850726Y-79139073D02*
X122132631Y-79139073D01*
X122590726Y-79139073D02*
X122872631Y-79139073D01*
X123330726Y-79139073D02*
X123612631Y-79139073D01*
X124070726Y-79139073D02*
X124352631Y-79139073D01*
X124810726Y-79139073D02*
X125092631Y-79139073D01*
X125550726Y-79139073D02*
X125832631Y-79139073D01*
X126290726Y-79139073D02*
X126572631Y-79139073D01*
X127030726Y-79139073D02*
X127312631Y-79139073D01*
X127770726Y-79139073D02*
X128052631Y-79139073D01*
X128510726Y-79139073D02*
X128792631Y-79139073D01*
X129250726Y-79139073D02*
X129532631Y-79139073D01*
X129990726Y-79139073D02*
X130272631Y-79139073D01*
X118890726Y-104889073D02*
X119172631Y-104889073D01*
X119630726Y-104889073D02*
X119912631Y-104889073D01*
X120370726Y-104889073D02*
X120652631Y-104889073D01*
X121110726Y-104889073D02*
X121392631Y-104889073D01*
X121850726Y-104889073D02*
X122132631Y-104889073D01*
X122590726Y-104889073D02*
X122872631Y-104889073D01*
X123330726Y-104889073D02*
X123612631Y-104889073D01*
X124070726Y-104889073D02*
X124352631Y-104889073D01*
X124810726Y-104889073D02*
X125092631Y-104889073D01*
X125550726Y-104889073D02*
X125832631Y-104889073D01*
X126290726Y-104889073D02*
X126572631Y-104889073D01*
X127030726Y-104889073D02*
X127312631Y-104889073D01*
X127770726Y-104889073D02*
X128052631Y-104889073D01*
X128510726Y-104889073D02*
X128792631Y-104889073D01*
X129250726Y-104889073D02*
X129532631Y-104889073D01*
X129990726Y-104889073D02*
X130272631Y-104889073D01*
X120859273Y-128860726D02*
X120577369Y-128860726D01*
X120119273Y-128860726D02*
X119837369Y-128860726D01*
X119379273Y-128860726D02*
X119097369Y-128860726D01*
X120859273Y-138110926D02*
X120577369Y-138110926D01*
X120119273Y-138110926D02*
X119837369Y-138110926D01*
X119379273Y-138110926D02*
X119097369Y-138110926D01*
X120859273Y-147610826D02*
X120577369Y-147610826D01*
X120119273Y-147610826D02*
X119837369Y-147610826D01*
X119379273Y-147610826D02*
X119097369Y-147610826D01*
X146858973Y-137860726D02*
X146577069Y-137860726D01*
X146118973Y-137860726D02*
X145837069Y-137860726D01*
X145378973Y-137860726D02*
X145097069Y-137860726D01*
X146859173Y-86360926D02*
X146577269Y-86360926D01*
X146119173Y-86360926D02*
X145837269Y-86360926D01*
X145379173Y-86360926D02*
X145097269Y-86360926D01*
X168859173Y-137860726D02*
X168577269Y-137860726D01*
X168119173Y-137860726D02*
X167837269Y-137860726D01*
X167379173Y-137860726D02*
X167097269Y-137860726D01*
X168859373Y-86360926D02*
X168577469Y-86360926D01*
X168119373Y-86360926D02*
X167837469Y-86360926D01*
X167379373Y-86360926D02*
X167097469Y-86360926D01*
X190859073Y-137860726D02*
X190577169Y-137860726D01*
X190119073Y-137860726D02*
X189837169Y-137860726D01*
X189379073Y-137860726D02*
X189097169Y-137860726D01*
X190859373Y-86360926D02*
X190577469Y-86360926D01*
X190119373Y-86360926D02*
X189837469Y-86360926D01*
X189379373Y-86360926D02*
X189097469Y-86360926D01*
X131110726Y-80640826D02*
X131110726Y-80922731D01*
X131110726Y-81380826D02*
X131110726Y-81662731D01*
X131110726Y-82120826D02*
X131110726Y-82402731D01*
X131110726Y-82860826D02*
X131110726Y-83142731D01*
X131110726Y-83600826D02*
X131110726Y-83882731D01*
X131110726Y-84340826D02*
X131110726Y-84622731D01*
X131110726Y-85080826D02*
X131110726Y-85362731D01*
X131110726Y-85820826D02*
X131110726Y-86102731D01*
X131110726Y-86560826D02*
X131110726Y-86842731D01*
X131110726Y-87300826D02*
X131110726Y-87582731D01*
X131110726Y-88040826D02*
X131110726Y-88322731D01*
X131110726Y-88780826D02*
X131110726Y-89062731D01*
X131110726Y-89520826D02*
X131110726Y-89802731D01*
X131110726Y-90260826D02*
X131110726Y-90542731D01*
X131110726Y-91000826D02*
X131110726Y-91282731D01*
X131110726Y-91740826D02*
X131110726Y-92022731D01*
X131110726Y-92390826D02*
X131110726Y-92672731D01*
X131110726Y-93130826D02*
X131110726Y-93412731D01*
X131110726Y-93870826D02*
X131110726Y-94152731D01*
X131110726Y-94610826D02*
X131110726Y-94892731D01*
X131110726Y-95350826D02*
X131110726Y-95632731D01*
X131110726Y-96090826D02*
X131110726Y-96372731D01*
X131110726Y-96830826D02*
X131110726Y-97112731D01*
X131110726Y-97570826D02*
X131110726Y-97852731D01*
X131110726Y-98310826D02*
X131110726Y-98592731D01*
X131110726Y-99050826D02*
X131110726Y-99332731D01*
X131110726Y-99790826D02*
X131110726Y-100072731D01*
X131110726Y-100530826D02*
X131110726Y-100812731D01*
X131110726Y-101270826D02*
X131110726Y-101552731D01*
X131110726Y-102010826D02*
X131110726Y-102292731D01*
X131110726Y-102750826D02*
X131110726Y-103032731D01*
X131110726Y-103490826D02*
X131110726Y-103772731D01*
D12*
X110289160Y-103975633D02*
X110898684Y-103975633D01*
X113717732Y-103975633D02*
X114327256Y-103975633D01*
X114022494Y-104280395D02*
X114022494Y-103670871D01*
X110289660Y-80226633D02*
X110899184Y-80226633D01*
X113718232Y-80226633D02*
X114327756Y-80226633D01*
X114022994Y-80531395D02*
X114022994Y-79921871D01*
X118501064Y-110542200D02*
X118615350Y-110580295D01*
X118615350Y-110580295D02*
X118805826Y-110580295D01*
X118805826Y-110580295D02*
X118882017Y-110542200D01*
X118882017Y-110542200D02*
X118920112Y-110504104D01*
X118920112Y-110504104D02*
X118958207Y-110427914D01*
X118958207Y-110427914D02*
X118958207Y-110351723D01*
X118958207Y-110351723D02*
X118920112Y-110275533D01*
X118920112Y-110275533D02*
X118882017Y-110237438D01*
X118882017Y-110237438D02*
X118805826Y-110199342D01*
X118805826Y-110199342D02*
X118653445Y-110161247D01*
X118653445Y-110161247D02*
X118577255Y-110123152D01*
X118577255Y-110123152D02*
X118539160Y-110085057D01*
X118539160Y-110085057D02*
X118501064Y-110008866D01*
X118501064Y-110008866D02*
X118501064Y-109932676D01*
X118501064Y-109932676D02*
X118539160Y-109856485D01*
X118539160Y-109856485D02*
X118577255Y-109818390D01*
X118577255Y-109818390D02*
X118653445Y-109780295D01*
X118653445Y-109780295D02*
X118843922Y-109780295D01*
X118843922Y-109780295D02*
X118958207Y-109818390D01*
X119301065Y-110580295D02*
X119301065Y-109780295D01*
X119301065Y-109780295D02*
X119758208Y-110580295D01*
X119758208Y-110580295D02*
X119758208Y-109780295D01*
X120101064Y-110351723D02*
X120482017Y-110351723D01*
X120024874Y-110580295D02*
X120291541Y-109780295D01*
X120291541Y-109780295D02*
X120558207Y-110580295D01*
X121282017Y-110504104D02*
X121243921Y-110542200D01*
X121243921Y-110542200D02*
X121129636Y-110580295D01*
X121129636Y-110580295D02*
X121053445Y-110580295D01*
X121053445Y-110580295D02*
X120939159Y-110542200D01*
X120939159Y-110542200D02*
X120862969Y-110466009D01*
X120862969Y-110466009D02*
X120824874Y-110389819D01*
X120824874Y-110389819D02*
X120786778Y-110237438D01*
X120786778Y-110237438D02*
X120786778Y-110123152D01*
X120786778Y-110123152D02*
X120824874Y-109970771D01*
X120824874Y-109970771D02*
X120862969Y-109894580D01*
X120862969Y-109894580D02*
X120939159Y-109818390D01*
X120939159Y-109818390D02*
X121053445Y-109780295D01*
X121053445Y-109780295D02*
X121129636Y-109780295D01*
X121129636Y-109780295D02*
X121243921Y-109818390D01*
X121243921Y-109818390D02*
X121282017Y-109856485D01*
X121624874Y-110580295D02*
X121624874Y-109780295D01*
X122082017Y-110580295D02*
X121739159Y-110123152D01*
X122082017Y-109780295D02*
X121624874Y-110237438D01*
X122386778Y-110542200D02*
X122501064Y-110580295D01*
X122501064Y-110580295D02*
X122691540Y-110580295D01*
X122691540Y-110580295D02*
X122767731Y-110542200D01*
X122767731Y-110542200D02*
X122805826Y-110504104D01*
X122805826Y-110504104D02*
X122843921Y-110427914D01*
X122843921Y-110427914D02*
X122843921Y-110351723D01*
X122843921Y-110351723D02*
X122805826Y-110275533D01*
X122805826Y-110275533D02*
X122767731Y-110237438D01*
X122767731Y-110237438D02*
X122691540Y-110199342D01*
X122691540Y-110199342D02*
X122539159Y-110161247D01*
X122539159Y-110161247D02*
X122462969Y-110123152D01*
X122462969Y-110123152D02*
X122424874Y-110085057D01*
X122424874Y-110085057D02*
X122386778Y-110008866D01*
X122386778Y-110008866D02*
X122386778Y-109932676D01*
X122386778Y-109932676D02*
X122424874Y-109856485D01*
X122424874Y-109856485D02*
X122462969Y-109818390D01*
X122462969Y-109818390D02*
X122539159Y-109780295D01*
X122539159Y-109780295D02*
X122729636Y-109780295D01*
X122729636Y-109780295D02*
X122843921Y-109818390D01*
X132517631Y-99980295D02*
X132517631Y-100551723D01*
X132517631Y-100551723D02*
X132479536Y-100666009D01*
X132479536Y-100666009D02*
X132403345Y-100742200D01*
X132403345Y-100742200D02*
X132289060Y-100780295D01*
X132289060Y-100780295D02*
X132212869Y-100780295D01*
X132898584Y-99980295D02*
X132898584Y-100627914D01*
X132898584Y-100627914D02*
X132936679Y-100704104D01*
X132936679Y-100704104D02*
X132974774Y-100742200D01*
X132974774Y-100742200D02*
X133050965Y-100780295D01*
X133050965Y-100780295D02*
X133203346Y-100780295D01*
X133203346Y-100780295D02*
X133279536Y-100742200D01*
X133279536Y-100742200D02*
X133317631Y-100704104D01*
X133317631Y-100704104D02*
X133355727Y-100627914D01*
X133355727Y-100627914D02*
X133355727Y-99980295D01*
X133736679Y-100780295D02*
X133736679Y-99980295D01*
X133736679Y-99980295D02*
X134003345Y-100551723D01*
X134003345Y-100551723D02*
X134270012Y-99980295D01*
X134270012Y-99980295D02*
X134270012Y-100780295D01*
X134650965Y-100780295D02*
X134650965Y-99980295D01*
X134650965Y-99980295D02*
X134955727Y-99980295D01*
X134955727Y-99980295D02*
X135031917Y-100018390D01*
X135031917Y-100018390D02*
X135070012Y-100056485D01*
X135070012Y-100056485D02*
X135108108Y-100132676D01*
X135108108Y-100132676D02*
X135108108Y-100246961D01*
X135108108Y-100246961D02*
X135070012Y-100323152D01*
X135070012Y-100323152D02*
X135031917Y-100361247D01*
X135031917Y-100361247D02*
X134955727Y-100399342D01*
X134955727Y-100399342D02*
X134650965Y-100399342D01*
X136022393Y-99942200D02*
X135336679Y-100970771D01*
X136670012Y-100780295D02*
X136289060Y-100780295D01*
X136289060Y-100780295D02*
X136289060Y-99980295D01*
X136936679Y-100361247D02*
X137203345Y-100361247D01*
X137317631Y-100780295D02*
X136936679Y-100780295D01*
X136936679Y-100780295D02*
X136936679Y-99980295D01*
X136936679Y-99980295D02*
X137317631Y-99980295D01*
X137546203Y-99980295D02*
X138003346Y-99980295D01*
X137774774Y-100780295D02*
X137774774Y-99980295D01*
X139298584Y-100018390D02*
X139222394Y-99980295D01*
X139222394Y-99980295D02*
X139108108Y-99980295D01*
X139108108Y-99980295D02*
X138993822Y-100018390D01*
X138993822Y-100018390D02*
X138917632Y-100094580D01*
X138917632Y-100094580D02*
X138879537Y-100170771D01*
X138879537Y-100170771D02*
X138841441Y-100323152D01*
X138841441Y-100323152D02*
X138841441Y-100437438D01*
X138841441Y-100437438D02*
X138879537Y-100589819D01*
X138879537Y-100589819D02*
X138917632Y-100666009D01*
X138917632Y-100666009D02*
X138993822Y-100742200D01*
X138993822Y-100742200D02*
X139108108Y-100780295D01*
X139108108Y-100780295D02*
X139184299Y-100780295D01*
X139184299Y-100780295D02*
X139298584Y-100742200D01*
X139298584Y-100742200D02*
X139336680Y-100704104D01*
X139336680Y-100704104D02*
X139336680Y-100437438D01*
X139336680Y-100437438D02*
X139184299Y-100437438D01*
X139831918Y-99980295D02*
X139984299Y-99980295D01*
X139984299Y-99980295D02*
X140060489Y-100018390D01*
X140060489Y-100018390D02*
X140136680Y-100094580D01*
X140136680Y-100094580D02*
X140174775Y-100246961D01*
X140174775Y-100246961D02*
X140174775Y-100513628D01*
X140174775Y-100513628D02*
X140136680Y-100666009D01*
X140136680Y-100666009D02*
X140060489Y-100742200D01*
X140060489Y-100742200D02*
X139984299Y-100780295D01*
X139984299Y-100780295D02*
X139831918Y-100780295D01*
X139831918Y-100780295D02*
X139755727Y-100742200D01*
X139755727Y-100742200D02*
X139679537Y-100666009D01*
X139679537Y-100666009D02*
X139641441Y-100513628D01*
X139641441Y-100513628D02*
X139641441Y-100246961D01*
X139641441Y-100246961D02*
X139679537Y-100094580D01*
X139679537Y-100094580D02*
X139755727Y-100018390D01*
X139755727Y-100018390D02*
X139831918Y-99980295D01*
X154708107Y-100018390D02*
X154631917Y-99980295D01*
X154631917Y-99980295D02*
X154517631Y-99980295D01*
X154517631Y-99980295D02*
X154403345Y-100018390D01*
X154403345Y-100018390D02*
X154327155Y-100094580D01*
X154327155Y-100094580D02*
X154289060Y-100170771D01*
X154289060Y-100170771D02*
X154250964Y-100323152D01*
X154250964Y-100323152D02*
X154250964Y-100437438D01*
X154250964Y-100437438D02*
X154289060Y-100589819D01*
X154289060Y-100589819D02*
X154327155Y-100666009D01*
X154327155Y-100666009D02*
X154403345Y-100742200D01*
X154403345Y-100742200D02*
X154517631Y-100780295D01*
X154517631Y-100780295D02*
X154593822Y-100780295D01*
X154593822Y-100780295D02*
X154708107Y-100742200D01*
X154708107Y-100742200D02*
X154746203Y-100704104D01*
X154746203Y-100704104D02*
X154746203Y-100437438D01*
X154746203Y-100437438D02*
X154593822Y-100437438D01*
X155546203Y-100780295D02*
X155279536Y-100399342D01*
X155089060Y-100780295D02*
X155089060Y-99980295D01*
X155089060Y-99980295D02*
X155393822Y-99980295D01*
X155393822Y-99980295D02*
X155470012Y-100018390D01*
X155470012Y-100018390D02*
X155508107Y-100056485D01*
X155508107Y-100056485D02*
X155546203Y-100132676D01*
X155546203Y-100132676D02*
X155546203Y-100246961D01*
X155546203Y-100246961D02*
X155508107Y-100323152D01*
X155508107Y-100323152D02*
X155470012Y-100361247D01*
X155470012Y-100361247D02*
X155393822Y-100399342D01*
X155393822Y-100399342D02*
X155089060Y-100399342D01*
X155850964Y-100551723D02*
X156231917Y-100551723D01*
X155774774Y-100780295D02*
X156041441Y-99980295D01*
X156041441Y-99980295D02*
X156308107Y-100780295D01*
X156841440Y-100361247D02*
X156955726Y-100399342D01*
X156955726Y-100399342D02*
X156993821Y-100437438D01*
X156993821Y-100437438D02*
X157031917Y-100513628D01*
X157031917Y-100513628D02*
X157031917Y-100627914D01*
X157031917Y-100627914D02*
X156993821Y-100704104D01*
X156993821Y-100704104D02*
X156955726Y-100742200D01*
X156955726Y-100742200D02*
X156879536Y-100780295D01*
X156879536Y-100780295D02*
X156574774Y-100780295D01*
X156574774Y-100780295D02*
X156574774Y-99980295D01*
X156574774Y-99980295D02*
X156841440Y-99980295D01*
X156841440Y-99980295D02*
X156917631Y-100018390D01*
X156917631Y-100018390D02*
X156955726Y-100056485D01*
X156955726Y-100056485D02*
X156993821Y-100132676D01*
X156993821Y-100132676D02*
X156993821Y-100208866D01*
X156993821Y-100208866D02*
X156955726Y-100285057D01*
X156955726Y-100285057D02*
X156917631Y-100323152D01*
X156917631Y-100323152D02*
X156841440Y-100361247D01*
X156841440Y-100361247D02*
X156574774Y-100361247D01*
X176555926Y-100361247D02*
X176670212Y-100399342D01*
X176670212Y-100399342D02*
X176708307Y-100437438D01*
X176708307Y-100437438D02*
X176746403Y-100513628D01*
X176746403Y-100513628D02*
X176746403Y-100627914D01*
X176746403Y-100627914D02*
X176708307Y-100704104D01*
X176708307Y-100704104D02*
X176670212Y-100742200D01*
X176670212Y-100742200D02*
X176594022Y-100780295D01*
X176594022Y-100780295D02*
X176289260Y-100780295D01*
X176289260Y-100780295D02*
X176289260Y-99980295D01*
X176289260Y-99980295D02*
X176555926Y-99980295D01*
X176555926Y-99980295D02*
X176632117Y-100018390D01*
X176632117Y-100018390D02*
X176670212Y-100056485D01*
X176670212Y-100056485D02*
X176708307Y-100132676D01*
X176708307Y-100132676D02*
X176708307Y-100208866D01*
X176708307Y-100208866D02*
X176670212Y-100285057D01*
X176670212Y-100285057D02*
X176632117Y-100323152D01*
X176632117Y-100323152D02*
X176555926Y-100361247D01*
X176555926Y-100361247D02*
X176289260Y-100361247D01*
X177241641Y-99980295D02*
X177394022Y-99980295D01*
X177394022Y-99980295D02*
X177470212Y-100018390D01*
X177470212Y-100018390D02*
X177546403Y-100094580D01*
X177546403Y-100094580D02*
X177584498Y-100246961D01*
X177584498Y-100246961D02*
X177584498Y-100513628D01*
X177584498Y-100513628D02*
X177546403Y-100666009D01*
X177546403Y-100666009D02*
X177470212Y-100742200D01*
X177470212Y-100742200D02*
X177394022Y-100780295D01*
X177394022Y-100780295D02*
X177241641Y-100780295D01*
X177241641Y-100780295D02*
X177165450Y-100742200D01*
X177165450Y-100742200D02*
X177089260Y-100666009D01*
X177089260Y-100666009D02*
X177051164Y-100513628D01*
X177051164Y-100513628D02*
X177051164Y-100246961D01*
X177051164Y-100246961D02*
X177089260Y-100094580D01*
X177089260Y-100094580D02*
X177165450Y-100018390D01*
X177165450Y-100018390D02*
X177241641Y-99980295D01*
X177889259Y-100551723D02*
X178270212Y-100551723D01*
X177813069Y-100780295D02*
X178079736Y-99980295D01*
X178079736Y-99980295D02*
X178346402Y-100780295D01*
X179070212Y-100780295D02*
X178803545Y-100399342D01*
X178613069Y-100780295D02*
X178613069Y-99980295D01*
X178613069Y-99980295D02*
X178917831Y-99980295D01*
X178917831Y-99980295D02*
X178994021Y-100018390D01*
X178994021Y-100018390D02*
X179032116Y-100056485D01*
X179032116Y-100056485D02*
X179070212Y-100132676D01*
X179070212Y-100132676D02*
X179070212Y-100246961D01*
X179070212Y-100246961D02*
X179032116Y-100323152D01*
X179032116Y-100323152D02*
X178994021Y-100361247D01*
X178994021Y-100361247D02*
X178917831Y-100399342D01*
X178917831Y-100399342D02*
X178613069Y-100399342D01*
X179413069Y-100780295D02*
X179413069Y-99980295D01*
X179413069Y-99980295D02*
X179603545Y-99980295D01*
X179603545Y-99980295D02*
X179717831Y-100018390D01*
X179717831Y-100018390D02*
X179794021Y-100094580D01*
X179794021Y-100094580D02*
X179832116Y-100170771D01*
X179832116Y-100170771D02*
X179870212Y-100323152D01*
X179870212Y-100323152D02*
X179870212Y-100437438D01*
X179870212Y-100437438D02*
X179832116Y-100589819D01*
X179832116Y-100589819D02*
X179794021Y-100666009D01*
X179794021Y-100666009D02*
X179717831Y-100742200D01*
X179717831Y-100742200D02*
X179603545Y-100780295D01*
X179603545Y-100780295D02*
X179413069Y-100780295D01*
X104769704Y-118517831D02*
X104198276Y-118517831D01*
X104198276Y-118517831D02*
X104083990Y-118479736D01*
X104083990Y-118479736D02*
X104007800Y-118403545D01*
X104007800Y-118403545D02*
X103969704Y-118289260D01*
X103969704Y-118289260D02*
X103969704Y-118213069D01*
X104388752Y-118898784D02*
X104388752Y-119165450D01*
X103969704Y-119279736D02*
X103969704Y-118898784D01*
X103969704Y-118898784D02*
X104769704Y-118898784D01*
X104769704Y-118898784D02*
X104769704Y-119279736D01*
X104769704Y-119508308D02*
X104769704Y-119965451D01*
X103969704Y-119736879D02*
X104769704Y-119736879D01*
X103969704Y-120232118D02*
X104769704Y-120232118D01*
X104769704Y-120232118D02*
X104769704Y-120536880D01*
X104769704Y-120536880D02*
X104731609Y-120613070D01*
X104731609Y-120613070D02*
X104693514Y-120651165D01*
X104693514Y-120651165D02*
X104617323Y-120689261D01*
X104617323Y-120689261D02*
X104503038Y-120689261D01*
X104503038Y-120689261D02*
X104426847Y-120651165D01*
X104426847Y-120651165D02*
X104388752Y-120613070D01*
X104388752Y-120613070D02*
X104350657Y-120536880D01*
X104350657Y-120536880D02*
X104350657Y-120232118D01*
X104198276Y-120994022D02*
X104198276Y-121374975D01*
X103969704Y-120917832D02*
X104769704Y-121184499D01*
X104769704Y-121184499D02*
X103969704Y-121451165D01*
X104045895Y-122174975D02*
X104007800Y-122136879D01*
X104007800Y-122136879D02*
X103969704Y-122022594D01*
X103969704Y-122022594D02*
X103969704Y-121946403D01*
X103969704Y-121946403D02*
X104007800Y-121832117D01*
X104007800Y-121832117D02*
X104083990Y-121755927D01*
X104083990Y-121755927D02*
X104160180Y-121717832D01*
X104160180Y-121717832D02*
X104312561Y-121679736D01*
X104312561Y-121679736D02*
X104426847Y-121679736D01*
X104426847Y-121679736D02*
X104579228Y-121717832D01*
X104579228Y-121717832D02*
X104655419Y-121755927D01*
X104655419Y-121755927D02*
X104731609Y-121832117D01*
X104731609Y-121832117D02*
X104769704Y-121946403D01*
X104769704Y-121946403D02*
X104769704Y-122022594D01*
X104769704Y-122022594D02*
X104731609Y-122136879D01*
X104731609Y-122136879D02*
X104693514Y-122174975D01*
X103969704Y-122517832D02*
X104769704Y-122517832D01*
X103969704Y-122974975D02*
X104426847Y-122632117D01*
X104769704Y-122974975D02*
X104312561Y-122517832D01*
X103969704Y-137170112D02*
X103969704Y-136789160D01*
X103969704Y-136789160D02*
X104769704Y-136789160D01*
X103969704Y-137436779D02*
X104769704Y-137436779D01*
X104731609Y-138236778D02*
X104769704Y-138160588D01*
X104769704Y-138160588D02*
X104769704Y-138046302D01*
X104769704Y-138046302D02*
X104731609Y-137932016D01*
X104731609Y-137932016D02*
X104655419Y-137855826D01*
X104655419Y-137855826D02*
X104579228Y-137817731D01*
X104579228Y-137817731D02*
X104426847Y-137779635D01*
X104426847Y-137779635D02*
X104312561Y-137779635D01*
X104312561Y-137779635D02*
X104160180Y-137817731D01*
X104160180Y-137817731D02*
X104083990Y-137855826D01*
X104083990Y-137855826D02*
X104007800Y-137932016D01*
X104007800Y-137932016D02*
X103969704Y-138046302D01*
X103969704Y-138046302D02*
X103969704Y-138122493D01*
X103969704Y-138122493D02*
X104007800Y-138236778D01*
X104007800Y-138236778D02*
X104045895Y-138274874D01*
X104045895Y-138274874D02*
X104312561Y-138274874D01*
X104312561Y-138274874D02*
X104312561Y-138122493D01*
X103969704Y-138617731D02*
X104769704Y-138617731D01*
X104388752Y-138617731D02*
X104388752Y-139074874D01*
X103969704Y-139074874D02*
X104769704Y-139074874D01*
X104769704Y-139341540D02*
X104769704Y-139798683D01*
X103969704Y-139570111D02*
X104769704Y-139570111D01*
X111719704Y-86289060D02*
X112519704Y-86289060D01*
X112519704Y-86289060D02*
X111948276Y-86555726D01*
X111948276Y-86555726D02*
X112519704Y-86822393D01*
X112519704Y-86822393D02*
X111719704Y-86822393D01*
X112519704Y-87355727D02*
X112519704Y-87508108D01*
X112519704Y-87508108D02*
X112481609Y-87584298D01*
X112481609Y-87584298D02*
X112405419Y-87660489D01*
X112405419Y-87660489D02*
X112253038Y-87698584D01*
X112253038Y-87698584D02*
X111986371Y-87698584D01*
X111986371Y-87698584D02*
X111833990Y-87660489D01*
X111833990Y-87660489D02*
X111757800Y-87584298D01*
X111757800Y-87584298D02*
X111719704Y-87508108D01*
X111719704Y-87508108D02*
X111719704Y-87355727D01*
X111719704Y-87355727D02*
X111757800Y-87279536D01*
X111757800Y-87279536D02*
X111833990Y-87203346D01*
X111833990Y-87203346D02*
X111986371Y-87165250D01*
X111986371Y-87165250D02*
X112253038Y-87165250D01*
X112253038Y-87165250D02*
X112405419Y-87203346D01*
X112405419Y-87203346D02*
X112481609Y-87279536D01*
X112481609Y-87279536D02*
X112519704Y-87355727D01*
X111719704Y-88041441D02*
X112519704Y-88041441D01*
X112519704Y-88041441D02*
X111719704Y-88498584D01*
X111719704Y-88498584D02*
X112519704Y-88498584D01*
X112519704Y-89031917D02*
X112519704Y-89184298D01*
X112519704Y-89184298D02*
X112481609Y-89260488D01*
X112481609Y-89260488D02*
X112405419Y-89336679D01*
X112405419Y-89336679D02*
X112253038Y-89374774D01*
X112253038Y-89374774D02*
X111986371Y-89374774D01*
X111986371Y-89374774D02*
X111833990Y-89336679D01*
X111833990Y-89336679D02*
X111757800Y-89260488D01*
X111757800Y-89260488D02*
X111719704Y-89184298D01*
X111719704Y-89184298D02*
X111719704Y-89031917D01*
X111719704Y-89031917D02*
X111757800Y-88955726D01*
X111757800Y-88955726D02*
X111833990Y-88879536D01*
X111833990Y-88879536D02*
X111986371Y-88841440D01*
X111986371Y-88841440D02*
X112253038Y-88841440D01*
X112253038Y-88841440D02*
X112405419Y-88879536D01*
X112405419Y-88879536D02*
X112481609Y-88955726D01*
X112481609Y-88955726D02*
X112519704Y-89031917D01*
X111719704Y-89717631D02*
X112519704Y-89717631D01*
X112519704Y-89717631D02*
X112519704Y-90022393D01*
X112519704Y-90022393D02*
X112481609Y-90098583D01*
X112481609Y-90098583D02*
X112443514Y-90136678D01*
X112443514Y-90136678D02*
X112367323Y-90174774D01*
X112367323Y-90174774D02*
X112253038Y-90174774D01*
X112253038Y-90174774D02*
X112176847Y-90136678D01*
X112176847Y-90136678D02*
X112138752Y-90098583D01*
X112138752Y-90098583D02*
X112100657Y-90022393D01*
X112100657Y-90022393D02*
X112100657Y-89717631D01*
X111719704Y-90974774D02*
X112100657Y-90708107D01*
X111719704Y-90517631D02*
X112519704Y-90517631D01*
X112519704Y-90517631D02*
X112519704Y-90822393D01*
X112519704Y-90822393D02*
X112481609Y-90898583D01*
X112481609Y-90898583D02*
X112443514Y-90936678D01*
X112443514Y-90936678D02*
X112367323Y-90974774D01*
X112367323Y-90974774D02*
X112253038Y-90974774D01*
X112253038Y-90974774D02*
X112176847Y-90936678D01*
X112176847Y-90936678D02*
X112138752Y-90898583D01*
X112138752Y-90898583D02*
X112100657Y-90822393D01*
X112100657Y-90822393D02*
X112100657Y-90517631D01*
X112519704Y-91470012D02*
X112519704Y-91622393D01*
X112519704Y-91622393D02*
X112481609Y-91698583D01*
X112481609Y-91698583D02*
X112405419Y-91774774D01*
X112405419Y-91774774D02*
X112253038Y-91812869D01*
X112253038Y-91812869D02*
X111986371Y-91812869D01*
X111986371Y-91812869D02*
X111833990Y-91774774D01*
X111833990Y-91774774D02*
X111757800Y-91698583D01*
X111757800Y-91698583D02*
X111719704Y-91622393D01*
X111719704Y-91622393D02*
X111719704Y-91470012D01*
X111719704Y-91470012D02*
X111757800Y-91393821D01*
X111757800Y-91393821D02*
X111833990Y-91317631D01*
X111833990Y-91317631D02*
X111986371Y-91279535D01*
X111986371Y-91279535D02*
X112253038Y-91279535D01*
X112253038Y-91279535D02*
X112405419Y-91317631D01*
X112405419Y-91317631D02*
X112481609Y-91393821D01*
X112481609Y-91393821D02*
X112519704Y-91470012D01*
X111719704Y-92155726D02*
X112519704Y-92155726D01*
X112519704Y-92155726D02*
X112519704Y-92460488D01*
X112519704Y-92460488D02*
X112481609Y-92536678D01*
X112481609Y-92536678D02*
X112443514Y-92574773D01*
X112443514Y-92574773D02*
X112367323Y-92612869D01*
X112367323Y-92612869D02*
X112253038Y-92612869D01*
X112253038Y-92612869D02*
X112176847Y-92574773D01*
X112176847Y-92574773D02*
X112138752Y-92536678D01*
X112138752Y-92536678D02*
X112100657Y-92460488D01*
X112100657Y-92460488D02*
X112100657Y-92155726D01*
X112138752Y-92955726D02*
X112138752Y-93222392D01*
X111719704Y-93336678D02*
X111719704Y-92955726D01*
X111719704Y-92955726D02*
X112519704Y-92955726D01*
X112519704Y-92955726D02*
X112519704Y-93336678D01*
X111719704Y-94060488D02*
X111719704Y-93679536D01*
X111719704Y-93679536D02*
X112519704Y-93679536D01*
X111719704Y-94708107D02*
X111719704Y-94327155D01*
X111719704Y-94327155D02*
X112519704Y-94327155D01*
X111948276Y-94936678D02*
X111948276Y-95317631D01*
X111719704Y-94860488D02*
X112519704Y-95127155D01*
X112519704Y-95127155D02*
X111719704Y-95393821D01*
X111719704Y-95660488D02*
X112519704Y-95660488D01*
X112519704Y-95660488D02*
X111719704Y-96117631D01*
X111719704Y-96117631D02*
X112519704Y-96117631D01*
X112519704Y-96384297D02*
X112519704Y-96841440D01*
X111719704Y-96612868D02*
X112519704Y-96612868D01*
X130219604Y-127539260D02*
X131019604Y-127539260D01*
X130638652Y-127539260D02*
X130638652Y-127996403D01*
X130219604Y-127996403D02*
X131019604Y-127996403D01*
X130448176Y-128339259D02*
X130448176Y-128720212D01*
X130219604Y-128263069D02*
X131019604Y-128529736D01*
X131019604Y-128529736D02*
X130219604Y-128796402D01*
X131019604Y-128986878D02*
X130219604Y-129520212D01*
X131019604Y-129520212D02*
X130219604Y-128986878D01*
X152345795Y-127746203D02*
X152307700Y-127708107D01*
X152307700Y-127708107D02*
X152269604Y-127593822D01*
X152269604Y-127593822D02*
X152269604Y-127517631D01*
X152269604Y-127517631D02*
X152307700Y-127403345D01*
X152307700Y-127403345D02*
X152383890Y-127327155D01*
X152383890Y-127327155D02*
X152460080Y-127289060D01*
X152460080Y-127289060D02*
X152612461Y-127250964D01*
X152612461Y-127250964D02*
X152726747Y-127250964D01*
X152726747Y-127250964D02*
X152879128Y-127289060D01*
X152879128Y-127289060D02*
X152955319Y-127327155D01*
X152955319Y-127327155D02*
X153031509Y-127403345D01*
X153031509Y-127403345D02*
X153069604Y-127517631D01*
X153069604Y-127517631D02*
X153069604Y-127593822D01*
X153069604Y-127593822D02*
X153031509Y-127708107D01*
X153031509Y-127708107D02*
X152993414Y-127746203D01*
X152269604Y-128089060D02*
X153069604Y-128089060D01*
X152688652Y-128089060D02*
X152688652Y-128546203D01*
X152269604Y-128546203D02*
X153069604Y-128546203D01*
X152688652Y-128927155D02*
X152688652Y-129193821D01*
X152269604Y-129308107D02*
X152269604Y-128927155D01*
X152269604Y-128927155D02*
X153069604Y-128927155D01*
X153069604Y-128927155D02*
X153069604Y-129308107D01*
X152498176Y-129612869D02*
X152498176Y-129993822D01*
X152269604Y-129536679D02*
X153069604Y-129803346D01*
X153069604Y-129803346D02*
X152269604Y-130070012D01*
X153069604Y-130222393D02*
X153069604Y-130679536D01*
X152269604Y-130450964D02*
X153069604Y-130450964D01*
X164469704Y-107289060D02*
X165269704Y-107289060D01*
X165269704Y-107289060D02*
X165269704Y-107479536D01*
X165269704Y-107479536D02*
X165231609Y-107593822D01*
X165231609Y-107593822D02*
X165155419Y-107670012D01*
X165155419Y-107670012D02*
X165079228Y-107708107D01*
X165079228Y-107708107D02*
X164926847Y-107746203D01*
X164926847Y-107746203D02*
X164812561Y-107746203D01*
X164812561Y-107746203D02*
X164660180Y-107708107D01*
X164660180Y-107708107D02*
X164583990Y-107670012D01*
X164583990Y-107670012D02*
X164507800Y-107593822D01*
X164507800Y-107593822D02*
X164469704Y-107479536D01*
X164469704Y-107479536D02*
X164469704Y-107289060D01*
X164507800Y-108050964D02*
X164469704Y-108165250D01*
X164469704Y-108165250D02*
X164469704Y-108355726D01*
X164469704Y-108355726D02*
X164507800Y-108431917D01*
X164507800Y-108431917D02*
X164545895Y-108470012D01*
X164545895Y-108470012D02*
X164622085Y-108508107D01*
X164622085Y-108508107D02*
X164698276Y-108508107D01*
X164698276Y-108508107D02*
X164774466Y-108470012D01*
X164774466Y-108470012D02*
X164812561Y-108431917D01*
X164812561Y-108431917D02*
X164850657Y-108355726D01*
X164850657Y-108355726D02*
X164888752Y-108203345D01*
X164888752Y-108203345D02*
X164926847Y-108127155D01*
X164926847Y-108127155D02*
X164964942Y-108089060D01*
X164964942Y-108089060D02*
X165041133Y-108050964D01*
X165041133Y-108050964D02*
X165117323Y-108050964D01*
X165117323Y-108050964D02*
X165193514Y-108089060D01*
X165193514Y-108089060D02*
X165231609Y-108127155D01*
X165231609Y-108127155D02*
X165269704Y-108203345D01*
X165269704Y-108203345D02*
X165269704Y-108393822D01*
X165269704Y-108393822D02*
X165231609Y-108508107D01*
X164469704Y-108850965D02*
X165269704Y-108850965D01*
X165269704Y-108850965D02*
X165269704Y-109155727D01*
X165269704Y-109155727D02*
X165231609Y-109231917D01*
X165231609Y-109231917D02*
X165193514Y-109270012D01*
X165193514Y-109270012D02*
X165117323Y-109308108D01*
X165117323Y-109308108D02*
X165003038Y-109308108D01*
X165003038Y-109308108D02*
X164926847Y-109270012D01*
X164926847Y-109270012D02*
X164888752Y-109231917D01*
X164888752Y-109231917D02*
X164850657Y-109155727D01*
X164850657Y-109155727D02*
X164850657Y-108850965D01*
X164469704Y-110031917D02*
X164469704Y-109650965D01*
X164469704Y-109650965D02*
X165269704Y-109650965D01*
X165269704Y-110908108D02*
X164622085Y-110908108D01*
X164622085Y-110908108D02*
X164545895Y-110946203D01*
X164545895Y-110946203D02*
X164507800Y-110984298D01*
X164507800Y-110984298D02*
X164469704Y-111060489D01*
X164469704Y-111060489D02*
X164469704Y-111212870D01*
X164469704Y-111212870D02*
X164507800Y-111289060D01*
X164507800Y-111289060D02*
X164545895Y-111327155D01*
X164545895Y-111327155D02*
X164622085Y-111365251D01*
X164622085Y-111365251D02*
X165269704Y-111365251D01*
X164469704Y-111746203D02*
X165269704Y-111746203D01*
X165269704Y-111746203D02*
X164469704Y-112203346D01*
X164469704Y-112203346D02*
X165269704Y-112203346D01*
X164469704Y-112584298D02*
X165269704Y-112584298D01*
X165269704Y-112850964D02*
X165269704Y-113308107D01*
X164469704Y-113079535D02*
X165269704Y-113079535D01*
X174257600Y-127251164D02*
X174219504Y-127365450D01*
X174219504Y-127365450D02*
X174219504Y-127555926D01*
X174219504Y-127555926D02*
X174257600Y-127632117D01*
X174257600Y-127632117D02*
X174295695Y-127670212D01*
X174295695Y-127670212D02*
X174371885Y-127708307D01*
X174371885Y-127708307D02*
X174448076Y-127708307D01*
X174448076Y-127708307D02*
X174524266Y-127670212D01*
X174524266Y-127670212D02*
X174562361Y-127632117D01*
X174562361Y-127632117D02*
X174600457Y-127555926D01*
X174600457Y-127555926D02*
X174638552Y-127403545D01*
X174638552Y-127403545D02*
X174676647Y-127327355D01*
X174676647Y-127327355D02*
X174714742Y-127289260D01*
X174714742Y-127289260D02*
X174790933Y-127251164D01*
X174790933Y-127251164D02*
X174867123Y-127251164D01*
X174867123Y-127251164D02*
X174943314Y-127289260D01*
X174943314Y-127289260D02*
X174981409Y-127327355D01*
X174981409Y-127327355D02*
X175019504Y-127403545D01*
X175019504Y-127403545D02*
X175019504Y-127594022D01*
X175019504Y-127594022D02*
X174981409Y-127708307D01*
X174448076Y-128013069D02*
X174448076Y-128394022D01*
X174219504Y-127936879D02*
X175019504Y-128203546D01*
X175019504Y-128203546D02*
X174219504Y-128470212D01*
X175019504Y-128622593D02*
X174219504Y-128889260D01*
X174219504Y-128889260D02*
X175019504Y-129155926D01*
X174638552Y-129422593D02*
X174638552Y-129689259D01*
X174219504Y-129803545D02*
X174219504Y-129422593D01*
X174219504Y-129422593D02*
X175019504Y-129422593D01*
X175019504Y-129422593D02*
X175019504Y-129803545D01*
X179545895Y-107746203D02*
X179507800Y-107708107D01*
X179507800Y-107708107D02*
X179469704Y-107593822D01*
X179469704Y-107593822D02*
X179469704Y-107517631D01*
X179469704Y-107517631D02*
X179507800Y-107403345D01*
X179507800Y-107403345D02*
X179583990Y-107327155D01*
X179583990Y-107327155D02*
X179660180Y-107289060D01*
X179660180Y-107289060D02*
X179812561Y-107250964D01*
X179812561Y-107250964D02*
X179926847Y-107250964D01*
X179926847Y-107250964D02*
X180079228Y-107289060D01*
X180079228Y-107289060D02*
X180155419Y-107327155D01*
X180155419Y-107327155D02*
X180231609Y-107403345D01*
X180231609Y-107403345D02*
X180269704Y-107517631D01*
X180269704Y-107517631D02*
X180269704Y-107593822D01*
X180269704Y-107593822D02*
X180231609Y-107708107D01*
X180231609Y-107708107D02*
X180193514Y-107746203D01*
X180269704Y-107974774D02*
X180269704Y-108431917D01*
X179469704Y-108203345D02*
X180269704Y-108203345D01*
X179469704Y-109155727D02*
X179850657Y-108889060D01*
X179469704Y-108698584D02*
X180269704Y-108698584D01*
X180269704Y-108698584D02*
X180269704Y-109003346D01*
X180269704Y-109003346D02*
X180231609Y-109079536D01*
X180231609Y-109079536D02*
X180193514Y-109117631D01*
X180193514Y-109117631D02*
X180117323Y-109155727D01*
X180117323Y-109155727D02*
X180003038Y-109155727D01*
X180003038Y-109155727D02*
X179926847Y-109117631D01*
X179926847Y-109117631D02*
X179888752Y-109079536D01*
X179888752Y-109079536D02*
X179850657Y-109003346D01*
X179850657Y-109003346D02*
X179850657Y-108698584D01*
X179469704Y-109879536D02*
X179469704Y-109498584D01*
X179469704Y-109498584D02*
X180269704Y-109498584D01*
X180269704Y-110755727D02*
X179622085Y-110755727D01*
X179622085Y-110755727D02*
X179545895Y-110793822D01*
X179545895Y-110793822D02*
X179507800Y-110831917D01*
X179507800Y-110831917D02*
X179469704Y-110908108D01*
X179469704Y-110908108D02*
X179469704Y-111060489D01*
X179469704Y-111060489D02*
X179507800Y-111136679D01*
X179507800Y-111136679D02*
X179545895Y-111174774D01*
X179545895Y-111174774D02*
X179622085Y-111212870D01*
X179622085Y-111212870D02*
X180269704Y-111212870D01*
X179469704Y-111593822D02*
X180269704Y-111593822D01*
X180269704Y-111593822D02*
X179469704Y-112050965D01*
X179469704Y-112050965D02*
X180269704Y-112050965D01*
X179469704Y-112431917D02*
X180269704Y-112431917D01*
X180269704Y-112698583D02*
X180269704Y-113155726D01*
X179469704Y-112927154D02*
X180269704Y-112927154D01*
X119228684Y-69535533D02*
X119835350Y-69535533D01*
X119835350Y-69535533D02*
X119445350Y-70445533D01*
X120572017Y-69838866D02*
X120572017Y-70445533D01*
X120355351Y-69492200D02*
X120138684Y-70142200D01*
X120138684Y-70142200D02*
X120702017Y-70142200D01*
X121048684Y-70445533D02*
X121048684Y-69535533D01*
X121048684Y-69968866D02*
X121568684Y-69968866D01*
X121568684Y-70445533D02*
X121568684Y-69535533D01*
X122522017Y-70358866D02*
X122478684Y-70402200D01*
X122478684Y-70402200D02*
X122348684Y-70445533D01*
X122348684Y-70445533D02*
X122262017Y-70445533D01*
X122262017Y-70445533D02*
X122132017Y-70402200D01*
X122132017Y-70402200D02*
X122045351Y-70315533D01*
X122045351Y-70315533D02*
X122002017Y-70228866D01*
X122002017Y-70228866D02*
X121958684Y-70055533D01*
X121958684Y-70055533D02*
X121958684Y-69925533D01*
X121958684Y-69925533D02*
X122002017Y-69752200D01*
X122002017Y-69752200D02*
X122045351Y-69665533D01*
X122045351Y-69665533D02*
X122132017Y-69578866D01*
X122132017Y-69578866D02*
X122262017Y-69535533D01*
X122262017Y-69535533D02*
X122348684Y-69535533D01*
X122348684Y-69535533D02*
X122478684Y-69578866D01*
X122478684Y-69578866D02*
X122522017Y-69622200D01*
X123345351Y-69535533D02*
X122912017Y-69535533D01*
X122912017Y-69535533D02*
X122868684Y-69968866D01*
X122868684Y-69968866D02*
X122912017Y-69925533D01*
X122912017Y-69925533D02*
X122998684Y-69882200D01*
X122998684Y-69882200D02*
X123215351Y-69882200D01*
X123215351Y-69882200D02*
X123302017Y-69925533D01*
X123302017Y-69925533D02*
X123345351Y-69968866D01*
X123345351Y-69968866D02*
X123388684Y-70055533D01*
X123388684Y-70055533D02*
X123388684Y-70272200D01*
X123388684Y-70272200D02*
X123345351Y-70358866D01*
X123345351Y-70358866D02*
X123302017Y-70402200D01*
X123302017Y-70402200D02*
X123215351Y-70445533D01*
X123215351Y-70445533D02*
X122998684Y-70445533D01*
X122998684Y-70445533D02*
X122912017Y-70402200D01*
X122912017Y-70402200D02*
X122868684Y-70358866D01*
X123822018Y-70445533D02*
X123995351Y-70445533D01*
X123995351Y-70445533D02*
X124082018Y-70402200D01*
X124082018Y-70402200D02*
X124125351Y-70358866D01*
X124125351Y-70358866D02*
X124212018Y-70228866D01*
X124212018Y-70228866D02*
X124255351Y-70055533D01*
X124255351Y-70055533D02*
X124255351Y-69708866D01*
X124255351Y-69708866D02*
X124212018Y-69622200D01*
X124212018Y-69622200D02*
X124168684Y-69578866D01*
X124168684Y-69578866D02*
X124082018Y-69535533D01*
X124082018Y-69535533D02*
X123908684Y-69535533D01*
X123908684Y-69535533D02*
X123822018Y-69578866D01*
X123822018Y-69578866D02*
X123778684Y-69622200D01*
X123778684Y-69622200D02*
X123735351Y-69708866D01*
X123735351Y-69708866D02*
X123735351Y-69925533D01*
X123735351Y-69925533D02*
X123778684Y-70012200D01*
X123778684Y-70012200D02*
X123822018Y-70055533D01*
X123822018Y-70055533D02*
X123908684Y-70098866D01*
X123908684Y-70098866D02*
X124082018Y-70098866D01*
X124082018Y-70098866D02*
X124168684Y-70055533D01*
X124168684Y-70055533D02*
X124212018Y-70012200D01*
X124212018Y-70012200D02*
X124255351Y-69925533D01*
X125078685Y-69535533D02*
X124645351Y-69535533D01*
X124645351Y-69535533D02*
X124602018Y-69968866D01*
X124602018Y-69968866D02*
X124645351Y-69925533D01*
X124645351Y-69925533D02*
X124732018Y-69882200D01*
X124732018Y-69882200D02*
X124948685Y-69882200D01*
X124948685Y-69882200D02*
X125035351Y-69925533D01*
X125035351Y-69925533D02*
X125078685Y-69968866D01*
X125078685Y-69968866D02*
X125122018Y-70055533D01*
X125122018Y-70055533D02*
X125122018Y-70272200D01*
X125122018Y-70272200D02*
X125078685Y-70358866D01*
X125078685Y-70358866D02*
X125035351Y-70402200D01*
X125035351Y-70402200D02*
X124948685Y-70445533D01*
X124948685Y-70445533D02*
X124732018Y-70445533D01*
X124732018Y-70445533D02*
X124645351Y-70402200D01*
X124645351Y-70402200D02*
X124602018Y-70358866D01*
X144728684Y-69521133D02*
X145335350Y-69521133D01*
X145335350Y-69521133D02*
X144945350Y-70431133D01*
X146072017Y-69824466D02*
X146072017Y-70431133D01*
X145855351Y-69477800D02*
X145638684Y-70127800D01*
X145638684Y-70127800D02*
X146202017Y-70127800D01*
X146548684Y-70431133D02*
X146548684Y-69521133D01*
X146548684Y-69954466D02*
X147068684Y-69954466D01*
X147068684Y-70431133D02*
X147068684Y-69521133D01*
X148022017Y-70344466D02*
X147978684Y-70387800D01*
X147978684Y-70387800D02*
X147848684Y-70431133D01*
X147848684Y-70431133D02*
X147762017Y-70431133D01*
X147762017Y-70431133D02*
X147632017Y-70387800D01*
X147632017Y-70387800D02*
X147545351Y-70301133D01*
X147545351Y-70301133D02*
X147502017Y-70214466D01*
X147502017Y-70214466D02*
X147458684Y-70041133D01*
X147458684Y-70041133D02*
X147458684Y-69911133D01*
X147458684Y-69911133D02*
X147502017Y-69737800D01*
X147502017Y-69737800D02*
X147545351Y-69651133D01*
X147545351Y-69651133D02*
X147632017Y-69564466D01*
X147632017Y-69564466D02*
X147762017Y-69521133D01*
X147762017Y-69521133D02*
X147848684Y-69521133D01*
X147848684Y-69521133D02*
X147978684Y-69564466D01*
X147978684Y-69564466D02*
X148022017Y-69607800D01*
X148845351Y-69521133D02*
X148412017Y-69521133D01*
X148412017Y-69521133D02*
X148368684Y-69954466D01*
X148368684Y-69954466D02*
X148412017Y-69911133D01*
X148412017Y-69911133D02*
X148498684Y-69867800D01*
X148498684Y-69867800D02*
X148715351Y-69867800D01*
X148715351Y-69867800D02*
X148802017Y-69911133D01*
X148802017Y-69911133D02*
X148845351Y-69954466D01*
X148845351Y-69954466D02*
X148888684Y-70041133D01*
X148888684Y-70041133D02*
X148888684Y-70257800D01*
X148888684Y-70257800D02*
X148845351Y-70344466D01*
X148845351Y-70344466D02*
X148802017Y-70387800D01*
X148802017Y-70387800D02*
X148715351Y-70431133D01*
X148715351Y-70431133D02*
X148498684Y-70431133D01*
X148498684Y-70431133D02*
X148412017Y-70387800D01*
X148412017Y-70387800D02*
X148368684Y-70344466D01*
X149322018Y-70431133D02*
X149495351Y-70431133D01*
X149495351Y-70431133D02*
X149582018Y-70387800D01*
X149582018Y-70387800D02*
X149625351Y-70344466D01*
X149625351Y-70344466D02*
X149712018Y-70214466D01*
X149712018Y-70214466D02*
X149755351Y-70041133D01*
X149755351Y-70041133D02*
X149755351Y-69694466D01*
X149755351Y-69694466D02*
X149712018Y-69607800D01*
X149712018Y-69607800D02*
X149668684Y-69564466D01*
X149668684Y-69564466D02*
X149582018Y-69521133D01*
X149582018Y-69521133D02*
X149408684Y-69521133D01*
X149408684Y-69521133D02*
X149322018Y-69564466D01*
X149322018Y-69564466D02*
X149278684Y-69607800D01*
X149278684Y-69607800D02*
X149235351Y-69694466D01*
X149235351Y-69694466D02*
X149235351Y-69911133D01*
X149235351Y-69911133D02*
X149278684Y-69997800D01*
X149278684Y-69997800D02*
X149322018Y-70041133D01*
X149322018Y-70041133D02*
X149408684Y-70084466D01*
X149408684Y-70084466D02*
X149582018Y-70084466D01*
X149582018Y-70084466D02*
X149668684Y-70041133D01*
X149668684Y-70041133D02*
X149712018Y-69997800D01*
X149712018Y-69997800D02*
X149755351Y-69911133D01*
X150578685Y-69521133D02*
X150145351Y-69521133D01*
X150145351Y-69521133D02*
X150102018Y-69954466D01*
X150102018Y-69954466D02*
X150145351Y-69911133D01*
X150145351Y-69911133D02*
X150232018Y-69867800D01*
X150232018Y-69867800D02*
X150448685Y-69867800D01*
X150448685Y-69867800D02*
X150535351Y-69911133D01*
X150535351Y-69911133D02*
X150578685Y-69954466D01*
X150578685Y-69954466D02*
X150622018Y-70041133D01*
X150622018Y-70041133D02*
X150622018Y-70257800D01*
X150622018Y-70257800D02*
X150578685Y-70344466D01*
X150578685Y-70344466D02*
X150535351Y-70387800D01*
X150535351Y-70387800D02*
X150448685Y-70431133D01*
X150448685Y-70431133D02*
X150232018Y-70431133D01*
X150232018Y-70431133D02*
X150145351Y-70387800D01*
X150145351Y-70387800D02*
X150102018Y-70344466D01*
X145828584Y-111121033D02*
X146435250Y-111121033D01*
X146435250Y-111121033D02*
X146045250Y-112031033D01*
X147171917Y-111424366D02*
X147171917Y-112031033D01*
X146955251Y-111077700D02*
X146738584Y-111727700D01*
X146738584Y-111727700D02*
X147301917Y-111727700D01*
X147648584Y-112031033D02*
X147648584Y-111121033D01*
X147648584Y-111554366D02*
X148168584Y-111554366D01*
X148168584Y-112031033D02*
X148168584Y-111121033D01*
X149121917Y-111944366D02*
X149078584Y-111987700D01*
X149078584Y-111987700D02*
X148948584Y-112031033D01*
X148948584Y-112031033D02*
X148861917Y-112031033D01*
X148861917Y-112031033D02*
X148731917Y-111987700D01*
X148731917Y-111987700D02*
X148645251Y-111901033D01*
X148645251Y-111901033D02*
X148601917Y-111814366D01*
X148601917Y-111814366D02*
X148558584Y-111641033D01*
X148558584Y-111641033D02*
X148558584Y-111511033D01*
X148558584Y-111511033D02*
X148601917Y-111337700D01*
X148601917Y-111337700D02*
X148645251Y-111251033D01*
X148645251Y-111251033D02*
X148731917Y-111164366D01*
X148731917Y-111164366D02*
X148861917Y-111121033D01*
X148861917Y-111121033D02*
X148948584Y-111121033D01*
X148948584Y-111121033D02*
X149078584Y-111164366D01*
X149078584Y-111164366D02*
X149121917Y-111207700D01*
X149988584Y-112031033D02*
X149468584Y-112031033D01*
X149728584Y-112031033D02*
X149728584Y-111121033D01*
X149728584Y-111121033D02*
X149641917Y-111251033D01*
X149641917Y-111251033D02*
X149555251Y-111337700D01*
X149555251Y-111337700D02*
X149468584Y-111381033D01*
X150768584Y-111121033D02*
X150595251Y-111121033D01*
X150595251Y-111121033D02*
X150508584Y-111164366D01*
X150508584Y-111164366D02*
X150465251Y-111207700D01*
X150465251Y-111207700D02*
X150378584Y-111337700D01*
X150378584Y-111337700D02*
X150335251Y-111511033D01*
X150335251Y-111511033D02*
X150335251Y-111857700D01*
X150335251Y-111857700D02*
X150378584Y-111944366D01*
X150378584Y-111944366D02*
X150421918Y-111987700D01*
X150421918Y-111987700D02*
X150508584Y-112031033D01*
X150508584Y-112031033D02*
X150681918Y-112031033D01*
X150681918Y-112031033D02*
X150768584Y-111987700D01*
X150768584Y-111987700D02*
X150811918Y-111944366D01*
X150811918Y-111944366D02*
X150855251Y-111857700D01*
X150855251Y-111857700D02*
X150855251Y-111641033D01*
X150855251Y-111641033D02*
X150811918Y-111554366D01*
X150811918Y-111554366D02*
X150768584Y-111511033D01*
X150768584Y-111511033D02*
X150681918Y-111467700D01*
X150681918Y-111467700D02*
X150508584Y-111467700D01*
X150508584Y-111467700D02*
X150421918Y-111511033D01*
X150421918Y-111511033D02*
X150378584Y-111554366D01*
X150378584Y-111554366D02*
X150335251Y-111641033D01*
X151678585Y-111121033D02*
X151245251Y-111121033D01*
X151245251Y-111121033D02*
X151201918Y-111554366D01*
X151201918Y-111554366D02*
X151245251Y-111511033D01*
X151245251Y-111511033D02*
X151331918Y-111467700D01*
X151331918Y-111467700D02*
X151548585Y-111467700D01*
X151548585Y-111467700D02*
X151635251Y-111511033D01*
X151635251Y-111511033D02*
X151678585Y-111554366D01*
X151678585Y-111554366D02*
X151721918Y-111641033D01*
X151721918Y-111641033D02*
X151721918Y-111857700D01*
X151721918Y-111857700D02*
X151678585Y-111944366D01*
X151678585Y-111944366D02*
X151635251Y-111987700D01*
X151635251Y-111987700D02*
X151548585Y-112031033D01*
X151548585Y-112031033D02*
X151331918Y-112031033D01*
X151331918Y-112031033D02*
X151245251Y-111987700D01*
X151245251Y-111987700D02*
X151201918Y-111944366D01*
X168522017Y-111435533D02*
X168955350Y-111435533D01*
X168435350Y-111695533D02*
X168738684Y-110785533D01*
X168738684Y-110785533D02*
X169042017Y-111695533D01*
X169215350Y-110785533D02*
X169735350Y-110785533D01*
X169475350Y-111695533D02*
X169475350Y-110785533D01*
X169908683Y-110785533D02*
X170428683Y-110785533D01*
X170168683Y-111695533D02*
X170168683Y-110785533D01*
X170732016Y-111695533D02*
X170732016Y-110785533D01*
X171165349Y-111695533D02*
X171165349Y-110785533D01*
X171165349Y-110785533D02*
X171685349Y-111695533D01*
X171685349Y-111695533D02*
X171685349Y-110785533D01*
X172292016Y-111262200D02*
X172292016Y-111695533D01*
X171988682Y-110785533D02*
X172292016Y-111262200D01*
X172292016Y-111262200D02*
X172595349Y-110785533D01*
X173288682Y-111088866D02*
X173288682Y-111695533D01*
X173072016Y-110742200D02*
X172855349Y-111392200D01*
X172855349Y-111392200D02*
X173418682Y-111392200D01*
X174198683Y-110785533D02*
X173765349Y-110785533D01*
X173765349Y-110785533D02*
X173722016Y-111218866D01*
X173722016Y-111218866D02*
X173765349Y-111175533D01*
X173765349Y-111175533D02*
X173852016Y-111132200D01*
X173852016Y-111132200D02*
X174068683Y-111132200D01*
X174068683Y-111132200D02*
X174155349Y-111175533D01*
X174155349Y-111175533D02*
X174198683Y-111218866D01*
X174198683Y-111218866D02*
X174242016Y-111305533D01*
X174242016Y-111305533D02*
X174242016Y-111522200D01*
X174242016Y-111522200D02*
X174198683Y-111608866D01*
X174198683Y-111608866D02*
X174155349Y-111652200D01*
X174155349Y-111652200D02*
X174068683Y-111695533D01*
X174068683Y-111695533D02*
X173852016Y-111695533D01*
X173852016Y-111695533D02*
X173765349Y-111652200D01*
X173765349Y-111652200D02*
X173722016Y-111608866D01*
X183522017Y-111435533D02*
X183955350Y-111435533D01*
X183435350Y-111695533D02*
X183738684Y-110785533D01*
X183738684Y-110785533D02*
X184042017Y-111695533D01*
X184215350Y-110785533D02*
X184735350Y-110785533D01*
X184475350Y-111695533D02*
X184475350Y-110785533D01*
X184908683Y-110785533D02*
X185428683Y-110785533D01*
X185168683Y-111695533D02*
X185168683Y-110785533D01*
X185732016Y-111695533D02*
X185732016Y-110785533D01*
X186165349Y-111695533D02*
X186165349Y-110785533D01*
X186165349Y-110785533D02*
X186685349Y-111695533D01*
X186685349Y-111695533D02*
X186685349Y-110785533D01*
X187292016Y-111262200D02*
X187292016Y-111695533D01*
X186988682Y-110785533D02*
X187292016Y-111262200D01*
X187292016Y-111262200D02*
X187595349Y-110785533D01*
X188288682Y-111088866D02*
X188288682Y-111695533D01*
X188072016Y-110742200D02*
X187855349Y-111392200D01*
X187855349Y-111392200D02*
X188418682Y-111392200D01*
X189198683Y-110785533D02*
X188765349Y-110785533D01*
X188765349Y-110785533D02*
X188722016Y-111218866D01*
X188722016Y-111218866D02*
X188765349Y-111175533D01*
X188765349Y-111175533D02*
X188852016Y-111132200D01*
X188852016Y-111132200D02*
X189068683Y-111132200D01*
X189068683Y-111132200D02*
X189155349Y-111175533D01*
X189155349Y-111175533D02*
X189198683Y-111218866D01*
X189198683Y-111218866D02*
X189242016Y-111305533D01*
X189242016Y-111305533D02*
X189242016Y-111522200D01*
X189242016Y-111522200D02*
X189198683Y-111608866D01*
X189198683Y-111608866D02*
X189155349Y-111652200D01*
X189155349Y-111652200D02*
X189068683Y-111695533D01*
X189068683Y-111695533D02*
X188852016Y-111695533D01*
X188852016Y-111695533D02*
X188765349Y-111652200D01*
X188765349Y-111652200D02*
X188722016Y-111608866D01*
D13*
X102202304Y-70422054D02*
X101214685Y-70422054D01*
X101214685Y-70422054D02*
X101098495Y-70480149D01*
X101098495Y-70480149D02*
X101040400Y-70538244D01*
X101040400Y-70538244D02*
X100982304Y-70654435D01*
X100982304Y-70654435D02*
X100982304Y-70886816D01*
X100982304Y-70886816D02*
X101040400Y-71003006D01*
X101040400Y-71003006D02*
X101098495Y-71061101D01*
X101098495Y-71061101D02*
X101214685Y-71119197D01*
X101214685Y-71119197D02*
X102202304Y-71119197D01*
X102202304Y-71525863D02*
X102202304Y-72223006D01*
X100982304Y-71874434D02*
X102202304Y-71874434D01*
X100982304Y-72629673D02*
X102202304Y-72629673D01*
X100982304Y-73791577D02*
X100982304Y-73210625D01*
X100982304Y-73210625D02*
X102202304Y-73210625D01*
X100982304Y-74198244D02*
X102202304Y-74198244D01*
X102202304Y-74604910D02*
X102202304Y-75302053D01*
X100982304Y-74953481D02*
X102202304Y-74953481D01*
X101563257Y-75941101D02*
X100982304Y-75941101D01*
X102202304Y-75534434D02*
X101563257Y-75941101D01*
X101563257Y-75941101D02*
X102202304Y-76347767D01*
X102202304Y-77509672D02*
X102202304Y-78206815D01*
X100982304Y-77858243D02*
X102202304Y-77858243D01*
X100982304Y-78613482D02*
X102202304Y-78613482D01*
X100982304Y-79194434D02*
X102202304Y-79194434D01*
X102202304Y-79194434D02*
X101330876Y-79601100D01*
X101330876Y-79601100D02*
X102202304Y-80007767D01*
X102202304Y-80007767D02*
X100982304Y-80007767D01*
X101621352Y-80588720D02*
X101621352Y-80995386D01*
X100982304Y-81169672D02*
X100982304Y-80588720D01*
X100982304Y-80588720D02*
X102202304Y-80588720D01*
X102202304Y-80588720D02*
X102202304Y-81169672D01*
X100982304Y-82622054D02*
X102202304Y-82622054D01*
X102202304Y-82622054D02*
X101330876Y-83028720D01*
X101330876Y-83028720D02*
X102202304Y-83435387D01*
X102202304Y-83435387D02*
X100982304Y-83435387D01*
X102202304Y-84248721D02*
X102202304Y-84481102D01*
X102202304Y-84481102D02*
X102144209Y-84597292D01*
X102144209Y-84597292D02*
X102028019Y-84713483D01*
X102028019Y-84713483D02*
X101795638Y-84771578D01*
X101795638Y-84771578D02*
X101388971Y-84771578D01*
X101388971Y-84771578D02*
X101156590Y-84713483D01*
X101156590Y-84713483D02*
X101040400Y-84597292D01*
X101040400Y-84597292D02*
X100982304Y-84481102D01*
X100982304Y-84481102D02*
X100982304Y-84248721D01*
X100982304Y-84248721D02*
X101040400Y-84132530D01*
X101040400Y-84132530D02*
X101156590Y-84016340D01*
X101156590Y-84016340D02*
X101388971Y-83958244D01*
X101388971Y-83958244D02*
X101795638Y-83958244D01*
X101795638Y-83958244D02*
X102028019Y-84016340D01*
X102028019Y-84016340D02*
X102144209Y-84132530D01*
X102144209Y-84132530D02*
X102202304Y-84248721D01*
X100982304Y-85294435D02*
X102202304Y-85294435D01*
X102202304Y-85294435D02*
X102202304Y-85584911D01*
X102202304Y-85584911D02*
X102144209Y-85759197D01*
X102144209Y-85759197D02*
X102028019Y-85875387D01*
X102028019Y-85875387D02*
X101911828Y-85933482D01*
X101911828Y-85933482D02*
X101679447Y-85991578D01*
X101679447Y-85991578D02*
X101505161Y-85991578D01*
X101505161Y-85991578D02*
X101272780Y-85933482D01*
X101272780Y-85933482D02*
X101156590Y-85875387D01*
X101156590Y-85875387D02*
X101040400Y-85759197D01*
X101040400Y-85759197D02*
X100982304Y-85584911D01*
X100982304Y-85584911D02*
X100982304Y-85294435D01*
X102202304Y-86514435D02*
X101214685Y-86514435D01*
X101214685Y-86514435D02*
X101098495Y-86572530D01*
X101098495Y-86572530D02*
X101040400Y-86630625D01*
X101040400Y-86630625D02*
X100982304Y-86746816D01*
X100982304Y-86746816D02*
X100982304Y-86979197D01*
X100982304Y-86979197D02*
X101040400Y-87095387D01*
X101040400Y-87095387D02*
X101098495Y-87153482D01*
X101098495Y-87153482D02*
X101214685Y-87211578D01*
X101214685Y-87211578D02*
X102202304Y-87211578D01*
X100982304Y-88373482D02*
X100982304Y-87792530D01*
X100982304Y-87792530D02*
X102202304Y-87792530D01*
X101621352Y-88780149D02*
X101621352Y-89186815D01*
X100982304Y-89361101D02*
X100982304Y-88780149D01*
X100982304Y-88780149D02*
X102202304Y-88780149D01*
X102202304Y-88780149D02*
X102202304Y-89361101D01*
X101795638Y-90697292D02*
X100982304Y-90987768D01*
X100982304Y-90987768D02*
X101795638Y-91278245D01*
X100982304Y-92382054D02*
X100982304Y-91684911D01*
X100982304Y-92033483D02*
X102202304Y-92033483D01*
X102202304Y-92033483D02*
X102028019Y-91917292D01*
X102028019Y-91917292D02*
X101911828Y-91801102D01*
X101911828Y-91801102D02*
X101853733Y-91684911D01*
X101098495Y-92904912D02*
X101040400Y-92963007D01*
X101040400Y-92963007D02*
X100982304Y-92904912D01*
X100982304Y-92904912D02*
X101040400Y-92846816D01*
X101040400Y-92846816D02*
X101098495Y-92904912D01*
X101098495Y-92904912D02*
X100982304Y-92904912D01*
X101679447Y-93660149D02*
X101737542Y-93543959D01*
X101737542Y-93543959D02*
X101795638Y-93485864D01*
X101795638Y-93485864D02*
X101911828Y-93427768D01*
X101911828Y-93427768D02*
X101969923Y-93427768D01*
X101969923Y-93427768D02*
X102086114Y-93485864D01*
X102086114Y-93485864D02*
X102144209Y-93543959D01*
X102144209Y-93543959D02*
X102202304Y-93660149D01*
X102202304Y-93660149D02*
X102202304Y-93892530D01*
X102202304Y-93892530D02*
X102144209Y-94008721D01*
X102144209Y-94008721D02*
X102086114Y-94066816D01*
X102086114Y-94066816D02*
X101969923Y-94124911D01*
X101969923Y-94124911D02*
X101911828Y-94124911D01*
X101911828Y-94124911D02*
X101795638Y-94066816D01*
X101795638Y-94066816D02*
X101737542Y-94008721D01*
X101737542Y-94008721D02*
X101679447Y-93892530D01*
X101679447Y-93892530D02*
X101679447Y-93660149D01*
X101679447Y-93660149D02*
X101621352Y-93543959D01*
X101621352Y-93543959D02*
X101563257Y-93485864D01*
X101563257Y-93485864D02*
X101447066Y-93427768D01*
X101447066Y-93427768D02*
X101214685Y-93427768D01*
X101214685Y-93427768D02*
X101098495Y-93485864D01*
X101098495Y-93485864D02*
X101040400Y-93543959D01*
X101040400Y-93543959D02*
X100982304Y-93660149D01*
X100982304Y-93660149D02*
X100982304Y-93892530D01*
X100982304Y-93892530D02*
X101040400Y-94008721D01*
X101040400Y-94008721D02*
X101098495Y-94066816D01*
X101098495Y-94066816D02*
X101214685Y-94124911D01*
X101214685Y-94124911D02*
X101447066Y-94124911D01*
X101447066Y-94124911D02*
X101563257Y-94066816D01*
X101563257Y-94066816D02*
X101621352Y-94008721D01*
X101621352Y-94008721D02*
X101679447Y-93892530D01*
X110769673Y-157317219D02*
X110769673Y-158636742D01*
X110769673Y-158636742D02*
X110847292Y-158791980D01*
X110847292Y-158791980D02*
X110924911Y-158869600D01*
X110924911Y-158869600D02*
X111080149Y-158947219D01*
X111080149Y-158947219D02*
X111390625Y-158947219D01*
X111390625Y-158947219D02*
X111545863Y-158869600D01*
X111545863Y-158869600D02*
X111623482Y-158791980D01*
X111623482Y-158791980D02*
X111701101Y-158636742D01*
X111701101Y-158636742D02*
X111701101Y-157317219D01*
X112477292Y-158947219D02*
X112477292Y-157317219D01*
X112477292Y-157317219D02*
X113408720Y-158947219D01*
X113408720Y-158947219D02*
X113408720Y-157317219D01*
X113952054Y-157317219D02*
X114883482Y-157317219D01*
X114417768Y-158947219D02*
X114417768Y-157317219D01*
X115426816Y-158947219D02*
X115426816Y-157317219D01*
X115970149Y-157317219D02*
X116901577Y-157317219D01*
X116435863Y-158947219D02*
X116435863Y-157317219D01*
X118221101Y-158947219D02*
X117444911Y-158947219D01*
X117444911Y-158947219D02*
X117444911Y-157317219D01*
X118764435Y-158093409D02*
X119307768Y-158093409D01*
X119540625Y-158947219D02*
X118764435Y-158947219D01*
X118764435Y-158947219D02*
X118764435Y-157317219D01*
X118764435Y-157317219D02*
X119540625Y-157317219D01*
X120239197Y-158947219D02*
X120239197Y-157317219D01*
X120239197Y-157317219D02*
X120627292Y-157317219D01*
X120627292Y-157317219D02*
X120860149Y-157394838D01*
X120860149Y-157394838D02*
X121015387Y-157550076D01*
X121015387Y-157550076D02*
X121093006Y-157705314D01*
X121093006Y-157705314D02*
X121170625Y-158015790D01*
X121170625Y-158015790D02*
X121170625Y-158248647D01*
X121170625Y-158248647D02*
X121093006Y-158559123D01*
X121093006Y-158559123D02*
X121015387Y-158714361D01*
X121015387Y-158714361D02*
X120860149Y-158869600D01*
X120860149Y-158869600D02*
X120627292Y-158947219D01*
X120627292Y-158947219D02*
X120239197Y-158947219D01*
X123033483Y-158869600D02*
X123266340Y-158947219D01*
X123266340Y-158947219D02*
X123654435Y-158947219D01*
X123654435Y-158947219D02*
X123809673Y-158869600D01*
X123809673Y-158869600D02*
X123887292Y-158791980D01*
X123887292Y-158791980D02*
X123964911Y-158636742D01*
X123964911Y-158636742D02*
X123964911Y-158481504D01*
X123964911Y-158481504D02*
X123887292Y-158326266D01*
X123887292Y-158326266D02*
X123809673Y-158248647D01*
X123809673Y-158248647D02*
X123654435Y-158171028D01*
X123654435Y-158171028D02*
X123343959Y-158093409D01*
X123343959Y-158093409D02*
X123188721Y-158015790D01*
X123188721Y-158015790D02*
X123111102Y-157938171D01*
X123111102Y-157938171D02*
X123033483Y-157782933D01*
X123033483Y-157782933D02*
X123033483Y-157627695D01*
X123033483Y-157627695D02*
X123111102Y-157472457D01*
X123111102Y-157472457D02*
X123188721Y-157394838D01*
X123188721Y-157394838D02*
X123343959Y-157317219D01*
X123343959Y-157317219D02*
X123732054Y-157317219D01*
X123732054Y-157317219D02*
X123964911Y-157394838D01*
X124663483Y-158947219D02*
X124663483Y-157317219D01*
X124663483Y-157317219D02*
X125284435Y-157317219D01*
X125284435Y-157317219D02*
X125439673Y-157394838D01*
X125439673Y-157394838D02*
X125517292Y-157472457D01*
X125517292Y-157472457D02*
X125594911Y-157627695D01*
X125594911Y-157627695D02*
X125594911Y-157860552D01*
X125594911Y-157860552D02*
X125517292Y-158015790D01*
X125517292Y-158015790D02*
X125439673Y-158093409D01*
X125439673Y-158093409D02*
X125284435Y-158171028D01*
X125284435Y-158171028D02*
X124663483Y-158171028D01*
X126215864Y-158481504D02*
X126992054Y-158481504D01*
X126060626Y-158947219D02*
X126603959Y-157317219D01*
X126603959Y-157317219D02*
X127147292Y-158947219D01*
X128622054Y-158791980D02*
X128544435Y-158869600D01*
X128544435Y-158869600D02*
X128311578Y-158947219D01*
X128311578Y-158947219D02*
X128156340Y-158947219D01*
X128156340Y-158947219D02*
X127923483Y-158869600D01*
X127923483Y-158869600D02*
X127768245Y-158714361D01*
X127768245Y-158714361D02*
X127690626Y-158559123D01*
X127690626Y-158559123D02*
X127613007Y-158248647D01*
X127613007Y-158248647D02*
X127613007Y-158015790D01*
X127613007Y-158015790D02*
X127690626Y-157705314D01*
X127690626Y-157705314D02*
X127768245Y-157550076D01*
X127768245Y-157550076D02*
X127923483Y-157394838D01*
X127923483Y-157394838D02*
X128156340Y-157317219D01*
X128156340Y-157317219D02*
X128311578Y-157317219D01*
X128311578Y-157317219D02*
X128544435Y-157394838D01*
X128544435Y-157394838D02*
X128622054Y-157472457D01*
X129320626Y-158093409D02*
X129863959Y-158093409D01*
X130096816Y-158947219D02*
X129320626Y-158947219D01*
X129320626Y-158947219D02*
X129320626Y-157317219D01*
X129320626Y-157317219D02*
X130096816Y-157317219D01*
X132968721Y-158791980D02*
X132891102Y-158869600D01*
X132891102Y-158869600D02*
X132658245Y-158947219D01*
X132658245Y-158947219D02*
X132503007Y-158947219D01*
X132503007Y-158947219D02*
X132270150Y-158869600D01*
X132270150Y-158869600D02*
X132114912Y-158714361D01*
X132114912Y-158714361D02*
X132037293Y-158559123D01*
X132037293Y-158559123D02*
X131959674Y-158248647D01*
X131959674Y-158248647D02*
X131959674Y-158015790D01*
X131959674Y-158015790D02*
X132037293Y-157705314D01*
X132037293Y-157705314D02*
X132114912Y-157550076D01*
X132114912Y-157550076D02*
X132270150Y-157394838D01*
X132270150Y-157394838D02*
X132503007Y-157317219D01*
X132503007Y-157317219D02*
X132658245Y-157317219D01*
X132658245Y-157317219D02*
X132891102Y-157394838D01*
X132891102Y-157394838D02*
X132968721Y-157472457D01*
X134598721Y-158947219D02*
X134055388Y-158171028D01*
X133667293Y-158947219D02*
X133667293Y-157317219D01*
X133667293Y-157317219D02*
X134288245Y-157317219D01*
X134288245Y-157317219D02*
X134443483Y-157394838D01*
X134443483Y-157394838D02*
X134521102Y-157472457D01*
X134521102Y-157472457D02*
X134598721Y-157627695D01*
X134598721Y-157627695D02*
X134598721Y-157860552D01*
X134598721Y-157860552D02*
X134521102Y-158015790D01*
X134521102Y-158015790D02*
X134443483Y-158093409D01*
X134443483Y-158093409D02*
X134288245Y-158171028D01*
X134288245Y-158171028D02*
X133667293Y-158171028D01*
X135219674Y-158481504D02*
X135995864Y-158481504D01*
X135064436Y-158947219D02*
X135607769Y-157317219D01*
X135607769Y-157317219D02*
X136151102Y-158947219D01*
X137237769Y-158093409D02*
X136694436Y-158093409D01*
X136694436Y-158947219D02*
X136694436Y-157317219D01*
X136694436Y-157317219D02*
X137470626Y-157317219D01*
X137858722Y-157317219D02*
X138790150Y-157317219D01*
X138324436Y-158947219D02*
X138324436Y-157317219D01*
X171519673Y-69571719D02*
X171519673Y-67941719D01*
X171519673Y-67941719D02*
X171907768Y-67941719D01*
X171907768Y-67941719D02*
X172140625Y-68019338D01*
X172140625Y-68019338D02*
X172295863Y-68174576D01*
X172295863Y-68174576D02*
X172373482Y-68329814D01*
X172373482Y-68329814D02*
X172451101Y-68640290D01*
X172451101Y-68640290D02*
X172451101Y-68873147D01*
X172451101Y-68873147D02*
X172373482Y-69183623D01*
X172373482Y-69183623D02*
X172295863Y-69338861D01*
X172295863Y-69338861D02*
X172140625Y-69494100D01*
X172140625Y-69494100D02*
X171907768Y-69571719D01*
X171907768Y-69571719D02*
X171519673Y-69571719D01*
X173072054Y-69106004D02*
X173848244Y-69106004D01*
X172916816Y-69571719D02*
X173460149Y-67941719D01*
X173460149Y-67941719D02*
X174003482Y-69571719D01*
X174313959Y-67941719D02*
X175245387Y-67941719D01*
X174779673Y-69571719D02*
X174779673Y-67941719D01*
X175711102Y-69106004D02*
X176487292Y-69106004D01*
X175555864Y-69571719D02*
X176099197Y-67941719D01*
X176099197Y-67941719D02*
X176642530Y-69571719D01*
X178971102Y-68717909D02*
X179203959Y-68795528D01*
X179203959Y-68795528D02*
X179281578Y-68873147D01*
X179281578Y-68873147D02*
X179359197Y-69028385D01*
X179359197Y-69028385D02*
X179359197Y-69261242D01*
X179359197Y-69261242D02*
X179281578Y-69416480D01*
X179281578Y-69416480D02*
X179203959Y-69494100D01*
X179203959Y-69494100D02*
X179048721Y-69571719D01*
X179048721Y-69571719D02*
X178427769Y-69571719D01*
X178427769Y-69571719D02*
X178427769Y-67941719D01*
X178427769Y-67941719D02*
X178971102Y-67941719D01*
X178971102Y-67941719D02*
X179126340Y-68019338D01*
X179126340Y-68019338D02*
X179203959Y-68096957D01*
X179203959Y-68096957D02*
X179281578Y-68252195D01*
X179281578Y-68252195D02*
X179281578Y-68407433D01*
X179281578Y-68407433D02*
X179203959Y-68562671D01*
X179203959Y-68562671D02*
X179126340Y-68640290D01*
X179126340Y-68640290D02*
X178971102Y-68717909D01*
X178971102Y-68717909D02*
X178427769Y-68717909D01*
X180057769Y-67941719D02*
X180057769Y-69261242D01*
X180057769Y-69261242D02*
X180135388Y-69416480D01*
X180135388Y-69416480D02*
X180213007Y-69494100D01*
X180213007Y-69494100D02*
X180368245Y-69571719D01*
X180368245Y-69571719D02*
X180678721Y-69571719D01*
X180678721Y-69571719D02*
X180833959Y-69494100D01*
X180833959Y-69494100D02*
X180911578Y-69416480D01*
X180911578Y-69416480D02*
X180989197Y-69261242D01*
X180989197Y-69261242D02*
X180989197Y-67941719D01*
X181687769Y-69494100D02*
X181920626Y-69571719D01*
X181920626Y-69571719D02*
X182308721Y-69571719D01*
X182308721Y-69571719D02*
X182463959Y-69494100D01*
X182463959Y-69494100D02*
X182541578Y-69416480D01*
X182541578Y-69416480D02*
X182619197Y-69261242D01*
X182619197Y-69261242D02*
X182619197Y-69106004D01*
X182619197Y-69106004D02*
X182541578Y-68950766D01*
X182541578Y-68950766D02*
X182463959Y-68873147D01*
X182463959Y-68873147D02*
X182308721Y-68795528D01*
X182308721Y-68795528D02*
X181998245Y-68717909D01*
X181998245Y-68717909D02*
X181843007Y-68640290D01*
X181843007Y-68640290D02*
X181765388Y-68562671D01*
X181765388Y-68562671D02*
X181687769Y-68407433D01*
X181687769Y-68407433D02*
X181687769Y-68252195D01*
X181687769Y-68252195D02*
X181765388Y-68096957D01*
X181765388Y-68096957D02*
X181843007Y-68019338D01*
X181843007Y-68019338D02*
X181998245Y-67941719D01*
X181998245Y-67941719D02*
X182386340Y-67941719D01*
X182386340Y-67941719D02*
X182619197Y-68019338D01*
X185491102Y-69416480D02*
X185413483Y-69494100D01*
X185413483Y-69494100D02*
X185180626Y-69571719D01*
X185180626Y-69571719D02*
X185025388Y-69571719D01*
X185025388Y-69571719D02*
X184792531Y-69494100D01*
X184792531Y-69494100D02*
X184637293Y-69338861D01*
X184637293Y-69338861D02*
X184559674Y-69183623D01*
X184559674Y-69183623D02*
X184482055Y-68873147D01*
X184482055Y-68873147D02*
X184482055Y-68640290D01*
X184482055Y-68640290D02*
X184559674Y-68329814D01*
X184559674Y-68329814D02*
X184637293Y-68174576D01*
X184637293Y-68174576D02*
X184792531Y-68019338D01*
X184792531Y-68019338D02*
X185025388Y-67941719D01*
X185025388Y-67941719D02*
X185180626Y-67941719D01*
X185180626Y-67941719D02*
X185413483Y-68019338D01*
X185413483Y-68019338D02*
X185491102Y-68096957D01*
X186500150Y-67941719D02*
X186810626Y-67941719D01*
X186810626Y-67941719D02*
X186965864Y-68019338D01*
X186965864Y-68019338D02*
X187121102Y-68174576D01*
X187121102Y-68174576D02*
X187198721Y-68485052D01*
X187198721Y-68485052D02*
X187198721Y-69028385D01*
X187198721Y-69028385D02*
X187121102Y-69338861D01*
X187121102Y-69338861D02*
X186965864Y-69494100D01*
X186965864Y-69494100D02*
X186810626Y-69571719D01*
X186810626Y-69571719D02*
X186500150Y-69571719D01*
X186500150Y-69571719D02*
X186344912Y-69494100D01*
X186344912Y-69494100D02*
X186189674Y-69338861D01*
X186189674Y-69338861D02*
X186112055Y-69028385D01*
X186112055Y-69028385D02*
X186112055Y-68485052D01*
X186112055Y-68485052D02*
X186189674Y-68174576D01*
X186189674Y-68174576D02*
X186344912Y-68019338D01*
X186344912Y-68019338D02*
X186500150Y-67941719D01*
X187897293Y-69571719D02*
X187897293Y-67941719D01*
X187897293Y-67941719D02*
X188828721Y-69571719D01*
X188828721Y-69571719D02*
X188828721Y-67941719D01*
X189604912Y-69571719D02*
X189604912Y-67941719D01*
X189604912Y-67941719D02*
X190536340Y-69571719D01*
X190536340Y-69571719D02*
X190536340Y-67941719D01*
X175451101Y-158791980D02*
X175373482Y-158869600D01*
X175373482Y-158869600D02*
X175140625Y-158947219D01*
X175140625Y-158947219D02*
X174985387Y-158947219D01*
X174985387Y-158947219D02*
X174752530Y-158869600D01*
X174752530Y-158869600D02*
X174597292Y-158714361D01*
X174597292Y-158714361D02*
X174519673Y-158559123D01*
X174519673Y-158559123D02*
X174442054Y-158248647D01*
X174442054Y-158248647D02*
X174442054Y-158015790D01*
X174442054Y-158015790D02*
X174519673Y-157705314D01*
X174519673Y-157705314D02*
X174597292Y-157550076D01*
X174597292Y-157550076D02*
X174752530Y-157394838D01*
X174752530Y-157394838D02*
X174985387Y-157317219D01*
X174985387Y-157317219D02*
X175140625Y-157317219D01*
X175140625Y-157317219D02*
X175373482Y-157394838D01*
X175373482Y-157394838D02*
X175451101Y-157472457D01*
X176460149Y-157317219D02*
X176770625Y-157317219D01*
X176770625Y-157317219D02*
X176925863Y-157394838D01*
X176925863Y-157394838D02*
X177081101Y-157550076D01*
X177081101Y-157550076D02*
X177158720Y-157860552D01*
X177158720Y-157860552D02*
X177158720Y-158403885D01*
X177158720Y-158403885D02*
X177081101Y-158714361D01*
X177081101Y-158714361D02*
X176925863Y-158869600D01*
X176925863Y-158869600D02*
X176770625Y-158947219D01*
X176770625Y-158947219D02*
X176460149Y-158947219D01*
X176460149Y-158947219D02*
X176304911Y-158869600D01*
X176304911Y-158869600D02*
X176149673Y-158714361D01*
X176149673Y-158714361D02*
X176072054Y-158403885D01*
X176072054Y-158403885D02*
X176072054Y-157860552D01*
X176072054Y-157860552D02*
X176149673Y-157550076D01*
X176149673Y-157550076D02*
X176304911Y-157394838D01*
X176304911Y-157394838D02*
X176460149Y-157317219D01*
X177857292Y-158947219D02*
X177857292Y-157317219D01*
X177857292Y-157317219D02*
X178245387Y-157317219D01*
X178245387Y-157317219D02*
X178478244Y-157394838D01*
X178478244Y-157394838D02*
X178633482Y-157550076D01*
X178633482Y-157550076D02*
X178711101Y-157705314D01*
X178711101Y-157705314D02*
X178788720Y-158015790D01*
X178788720Y-158015790D02*
X178788720Y-158248647D01*
X178788720Y-158248647D02*
X178711101Y-158559123D01*
X178711101Y-158559123D02*
X178633482Y-158714361D01*
X178633482Y-158714361D02*
X178478244Y-158869600D01*
X178478244Y-158869600D02*
X178245387Y-158947219D01*
X178245387Y-158947219D02*
X177857292Y-158947219D01*
X179409673Y-158481504D02*
X180185863Y-158481504D01*
X179254435Y-158947219D02*
X179797768Y-157317219D01*
X179797768Y-157317219D02*
X180341101Y-158947219D01*
X180884435Y-158947219D02*
X180884435Y-157317219D01*
X180884435Y-157317219D02*
X181505387Y-157317219D01*
X181505387Y-157317219D02*
X181660625Y-157394838D01*
X181660625Y-157394838D02*
X181738244Y-157472457D01*
X181738244Y-157472457D02*
X181815863Y-157627695D01*
X181815863Y-157627695D02*
X181815863Y-157860552D01*
X181815863Y-157860552D02*
X181738244Y-158015790D01*
X181738244Y-158015790D02*
X181660625Y-158093409D01*
X181660625Y-158093409D02*
X181505387Y-158171028D01*
X181505387Y-158171028D02*
X180884435Y-158171028D01*
X182824911Y-157317219D02*
X183135387Y-157317219D01*
X183135387Y-157317219D02*
X183290625Y-157394838D01*
X183290625Y-157394838D02*
X183445863Y-157550076D01*
X183445863Y-157550076D02*
X183523482Y-157860552D01*
X183523482Y-157860552D02*
X183523482Y-158403885D01*
X183523482Y-158403885D02*
X183445863Y-158714361D01*
X183445863Y-158714361D02*
X183290625Y-158869600D01*
X183290625Y-158869600D02*
X183135387Y-158947219D01*
X183135387Y-158947219D02*
X182824911Y-158947219D01*
X182824911Y-158947219D02*
X182669673Y-158869600D01*
X182669673Y-158869600D02*
X182514435Y-158714361D01*
X182514435Y-158714361D02*
X182436816Y-158403885D01*
X182436816Y-158403885D02*
X182436816Y-157860552D01*
X182436816Y-157860552D02*
X182514435Y-157550076D01*
X182514435Y-157550076D02*
X182669673Y-157394838D01*
X182669673Y-157394838D02*
X182824911Y-157317219D01*
X184222054Y-158947219D02*
X184222054Y-157317219D01*
X184222054Y-157317219D02*
X184843006Y-157317219D01*
X184843006Y-157317219D02*
X184998244Y-157394838D01*
X184998244Y-157394838D02*
X185075863Y-157472457D01*
X185075863Y-157472457D02*
X185153482Y-157627695D01*
X185153482Y-157627695D02*
X185153482Y-157860552D01*
X185153482Y-157860552D02*
X185075863Y-158015790D01*
X185075863Y-158015790D02*
X184998244Y-158093409D01*
X184998244Y-158093409D02*
X184843006Y-158171028D01*
X184843006Y-158171028D02*
X184222054Y-158171028D01*
X185852054Y-158947219D02*
X185852054Y-157317219D01*
X186783482Y-158947219D02*
X186084911Y-158015790D01*
X186783482Y-157317219D02*
X185852054Y-158248647D01*
X187404435Y-158869600D02*
X187637292Y-158947219D01*
X187637292Y-158947219D02*
X188025387Y-158947219D01*
X188025387Y-158947219D02*
X188180625Y-158869600D01*
X188180625Y-158869600D02*
X188258244Y-158791980D01*
X188258244Y-158791980D02*
X188335863Y-158636742D01*
X188335863Y-158636742D02*
X188335863Y-158481504D01*
X188335863Y-158481504D02*
X188258244Y-158326266D01*
X188258244Y-158326266D02*
X188180625Y-158248647D01*
X188180625Y-158248647D02*
X188025387Y-158171028D01*
X188025387Y-158171028D02*
X187714911Y-158093409D01*
X187714911Y-158093409D02*
X187559673Y-158015790D01*
X187559673Y-158015790D02*
X187482054Y-157938171D01*
X187482054Y-157938171D02*
X187404435Y-157782933D01*
X187404435Y-157782933D02*
X187404435Y-157627695D01*
X187404435Y-157627695D02*
X187482054Y-157472457D01*
X187482054Y-157472457D02*
X187559673Y-157394838D01*
X187559673Y-157394838D02*
X187714911Y-157317219D01*
X187714911Y-157317219D02*
X188103006Y-157317219D01*
X188103006Y-157317219D02*
X188335863Y-157394838D01*
X189034435Y-158947219D02*
X189034435Y-157317219D01*
X189034435Y-157317219D02*
X189655387Y-157317219D01*
X189655387Y-157317219D02*
X189810625Y-157394838D01*
X189810625Y-157394838D02*
X189888244Y-157472457D01*
X189888244Y-157472457D02*
X189965863Y-157627695D01*
X189965863Y-157627695D02*
X189965863Y-157860552D01*
X189965863Y-157860552D02*
X189888244Y-158015790D01*
X189888244Y-158015790D02*
X189810625Y-158093409D01*
X189810625Y-158093409D02*
X189655387Y-158171028D01*
X189655387Y-158171028D02*
X189034435Y-158171028D01*
D14*
X121717777Y-68020417D02*
X121717777Y-68760646D01*
X121717777Y-68760646D02*
X121761320Y-68847732D01*
X121761320Y-68847732D02*
X121804863Y-68891275D01*
X121804863Y-68891275D02*
X121891948Y-68934817D01*
X121891948Y-68934817D02*
X122066120Y-68934817D01*
X122066120Y-68934817D02*
X122153205Y-68891275D01*
X122153205Y-68891275D02*
X122196748Y-68847732D01*
X122196748Y-68847732D02*
X122240291Y-68760646D01*
X122240291Y-68760646D02*
X122240291Y-68020417D01*
X123067606Y-68020417D02*
X122893434Y-68020417D01*
X122893434Y-68020417D02*
X122806348Y-68063960D01*
X122806348Y-68063960D02*
X122762806Y-68107503D01*
X122762806Y-68107503D02*
X122675720Y-68238132D01*
X122675720Y-68238132D02*
X122632177Y-68412303D01*
X122632177Y-68412303D02*
X122632177Y-68760646D01*
X122632177Y-68760646D02*
X122675720Y-68847732D01*
X122675720Y-68847732D02*
X122719263Y-68891275D01*
X122719263Y-68891275D02*
X122806348Y-68934817D01*
X122806348Y-68934817D02*
X122980520Y-68934817D01*
X122980520Y-68934817D02*
X123067606Y-68891275D01*
X123067606Y-68891275D02*
X123111148Y-68847732D01*
X123111148Y-68847732D02*
X123154691Y-68760646D01*
X123154691Y-68760646D02*
X123154691Y-68542932D01*
X123154691Y-68542932D02*
X123111148Y-68455846D01*
X123111148Y-68455846D02*
X123067606Y-68412303D01*
X123067606Y-68412303D02*
X122980520Y-68368760D01*
X122980520Y-68368760D02*
X122806348Y-68368760D01*
X122806348Y-68368760D02*
X122719263Y-68412303D01*
X122719263Y-68412303D02*
X122675720Y-68455846D01*
X122675720Y-68455846D02*
X122632177Y-68542932D01*
X162340491Y-68612932D02*
X162296948Y-68656475D01*
X162296948Y-68656475D02*
X162166320Y-68700017D01*
X162166320Y-68700017D02*
X162079234Y-68700017D01*
X162079234Y-68700017D02*
X161948605Y-68656475D01*
X161948605Y-68656475D02*
X161861520Y-68569389D01*
X161861520Y-68569389D02*
X161817977Y-68482303D01*
X161817977Y-68482303D02*
X161774434Y-68308132D01*
X161774434Y-68308132D02*
X161774434Y-68177503D01*
X161774434Y-68177503D02*
X161817977Y-68003332D01*
X161817977Y-68003332D02*
X161861520Y-67916246D01*
X161861520Y-67916246D02*
X161948605Y-67829160D01*
X161948605Y-67829160D02*
X162079234Y-67785617D01*
X162079234Y-67785617D02*
X162166320Y-67785617D01*
X162166320Y-67785617D02*
X162296948Y-67829160D01*
X162296948Y-67829160D02*
X162340491Y-67872703D01*
X162732377Y-68351675D02*
X163429063Y-68351675D01*
X163864491Y-68700017D02*
X163864491Y-67785617D01*
X163864491Y-67785617D02*
X164169291Y-68438760D01*
X164169291Y-68438760D02*
X164474091Y-67785617D01*
X164474091Y-67785617D02*
X164474091Y-68700017D01*
X164865977Y-68438760D02*
X165301406Y-68438760D01*
X164778891Y-68700017D02*
X165083691Y-67785617D01*
X165083691Y-67785617D02*
X165388491Y-68700017D01*
X165693291Y-68700017D02*
X165693291Y-67785617D01*
X166128720Y-68700017D02*
X166128720Y-67785617D01*
X166128720Y-67785617D02*
X166651234Y-68700017D01*
X166651234Y-68700017D02*
X166651234Y-67785617D01*
D15*
X121107201Y-103698496D02*
X120802401Y-103263068D01*
X120584687Y-103698496D02*
X120584687Y-102784096D01*
X120584687Y-102784096D02*
X120933030Y-102784096D01*
X120933030Y-102784096D02*
X121020115Y-102827639D01*
X121020115Y-102827639D02*
X121063658Y-102871182D01*
X121063658Y-102871182D02*
X121107201Y-102958268D01*
X121107201Y-102958268D02*
X121107201Y-103088896D01*
X121107201Y-103088896D02*
X121063658Y-103175982D01*
X121063658Y-103175982D02*
X121020115Y-103219525D01*
X121020115Y-103219525D02*
X120933030Y-103263068D01*
X120933030Y-103263068D02*
X120584687Y-103263068D01*
X121978058Y-103698496D02*
X121455544Y-103698496D01*
X121716801Y-103698496D02*
X121716801Y-102784096D01*
X121716801Y-102784096D02*
X121629715Y-102914725D01*
X121629715Y-102914725D02*
X121542630Y-103001811D01*
X121542630Y-103001811D02*
X121455544Y-103045354D01*
X122326401Y-102871182D02*
X122369944Y-102827639D01*
X122369944Y-102827639D02*
X122457030Y-102784096D01*
X122457030Y-102784096D02*
X122674744Y-102784096D01*
X122674744Y-102784096D02*
X122761830Y-102827639D01*
X122761830Y-102827639D02*
X122805372Y-102871182D01*
X122805372Y-102871182D02*
X122848915Y-102958268D01*
X122848915Y-102958268D02*
X122848915Y-103045354D01*
X122848915Y-103045354D02*
X122805372Y-103175982D01*
X122805372Y-103175982D02*
X122282858Y-103698496D01*
X122282858Y-103698496D02*
X122848915Y-103698496D01*
X123584687Y-103350254D02*
X124281373Y-103350254D01*
X125892458Y-103698596D02*
X125369944Y-103698596D01*
X125631201Y-103698596D02*
X125631201Y-102784196D01*
X125631201Y-102784196D02*
X125544115Y-102914825D01*
X125544115Y-102914825D02*
X125457030Y-103001911D01*
X125457030Y-103001911D02*
X125369944Y-103045454D01*
X126284344Y-103611511D02*
X126327887Y-103655054D01*
X126327887Y-103655054D02*
X126284344Y-103698596D01*
X126284344Y-103698596D02*
X126240801Y-103655054D01*
X126240801Y-103655054D02*
X126284344Y-103611511D01*
X126284344Y-103611511D02*
X126284344Y-103698596D01*
X126676230Y-102871282D02*
X126719773Y-102827739D01*
X126719773Y-102827739D02*
X126806859Y-102784196D01*
X126806859Y-102784196D02*
X127024573Y-102784196D01*
X127024573Y-102784196D02*
X127111659Y-102827739D01*
X127111659Y-102827739D02*
X127155201Y-102871282D01*
X127155201Y-102871282D02*
X127198744Y-102958368D01*
X127198744Y-102958368D02*
X127198744Y-103045454D01*
X127198744Y-103045454D02*
X127155201Y-103176082D01*
X127155201Y-103176082D02*
X126632687Y-103698596D01*
X126632687Y-103698596D02*
X127198744Y-103698596D01*
X127590630Y-103698596D02*
X127590630Y-102784196D01*
X128113144Y-103698596D02*
X127721258Y-103176082D01*
X128113144Y-102784196D02*
X127590630Y-103306711D01*
X184888388Y-103357201D02*
X184844846Y-103313658D01*
X184844846Y-103313658D02*
X184801303Y-103183030D01*
X184801303Y-103183030D02*
X184801303Y-103095944D01*
X184801303Y-103095944D02*
X184844846Y-102965315D01*
X184844846Y-102965315D02*
X184931931Y-102878230D01*
X184931931Y-102878230D02*
X185019017Y-102834687D01*
X185019017Y-102834687D02*
X185193188Y-102791144D01*
X185193188Y-102791144D02*
X185323817Y-102791144D01*
X185323817Y-102791144D02*
X185497988Y-102834687D01*
X185497988Y-102834687D02*
X185585074Y-102878230D01*
X185585074Y-102878230D02*
X185672160Y-102965315D01*
X185672160Y-102965315D02*
X185715703Y-103095944D01*
X185715703Y-103095944D02*
X185715703Y-103183030D01*
X185715703Y-103183030D02*
X185672160Y-103313658D01*
X185672160Y-103313658D02*
X185628617Y-103357201D01*
X184801303Y-104228058D02*
X184801303Y-103705544D01*
X184801303Y-103966801D02*
X185715703Y-103966801D01*
X185715703Y-103966801D02*
X185585074Y-103879715D01*
X185585074Y-103879715D02*
X185497988Y-103792630D01*
X185497988Y-103792630D02*
X185454446Y-103705544D01*
D14*
X170817977Y-109121117D02*
X170817977Y-109861346D01*
X170817977Y-109861346D02*
X170861520Y-109948432D01*
X170861520Y-109948432D02*
X170905063Y-109991975D01*
X170905063Y-109991975D02*
X170992148Y-110035517D01*
X170992148Y-110035517D02*
X171166320Y-110035517D01*
X171166320Y-110035517D02*
X171253405Y-109991975D01*
X171253405Y-109991975D02*
X171296948Y-109948432D01*
X171296948Y-109948432D02*
X171340491Y-109861346D01*
X171340491Y-109861346D02*
X171340491Y-109121117D01*
X171732377Y-109208203D02*
X171775920Y-109164660D01*
X171775920Y-109164660D02*
X171863006Y-109121117D01*
X171863006Y-109121117D02*
X172080720Y-109121117D01*
X172080720Y-109121117D02*
X172167806Y-109164660D01*
X172167806Y-109164660D02*
X172211348Y-109208203D01*
X172211348Y-109208203D02*
X172254891Y-109295289D01*
X172254891Y-109295289D02*
X172254891Y-109382375D01*
X172254891Y-109382375D02*
X172211348Y-109513003D01*
X172211348Y-109513003D02*
X171688834Y-110035517D01*
X171688834Y-110035517D02*
X172254891Y-110035517D01*
D15*
X135107201Y-70111611D02*
X135063658Y-70155154D01*
X135063658Y-70155154D02*
X134933030Y-70198696D01*
X134933030Y-70198696D02*
X134845944Y-70198696D01*
X134845944Y-70198696D02*
X134715315Y-70155154D01*
X134715315Y-70155154D02*
X134628230Y-70068068D01*
X134628230Y-70068068D02*
X134584687Y-69980982D01*
X134584687Y-69980982D02*
X134541144Y-69806811D01*
X134541144Y-69806811D02*
X134541144Y-69676182D01*
X134541144Y-69676182D02*
X134584687Y-69502011D01*
X134584687Y-69502011D02*
X134628230Y-69414925D01*
X134628230Y-69414925D02*
X134715315Y-69327839D01*
X134715315Y-69327839D02*
X134845944Y-69284296D01*
X134845944Y-69284296D02*
X134933030Y-69284296D01*
X134933030Y-69284296D02*
X135063658Y-69327839D01*
X135063658Y-69327839D02*
X135107201Y-69371382D01*
X135934515Y-69284296D02*
X135499087Y-69284296D01*
X135499087Y-69284296D02*
X135455544Y-69719725D01*
X135455544Y-69719725D02*
X135499087Y-69676182D01*
X135499087Y-69676182D02*
X135586173Y-69632639D01*
X135586173Y-69632639D02*
X135803887Y-69632639D01*
X135803887Y-69632639D02*
X135890973Y-69676182D01*
X135890973Y-69676182D02*
X135934515Y-69719725D01*
X135934515Y-69719725D02*
X135978058Y-69806811D01*
X135978058Y-69806811D02*
X135978058Y-70024525D01*
X135978058Y-70024525D02*
X135934515Y-70111611D01*
X135934515Y-70111611D02*
X135890973Y-70155154D01*
X135890973Y-70155154D02*
X135803887Y-70198696D01*
X135803887Y-70198696D02*
X135586173Y-70198696D01*
X135586173Y-70198696D02*
X135499087Y-70155154D01*
X135499087Y-70155154D02*
X135455544Y-70111611D01*
X159357201Y-143448696D02*
X159052401Y-143013268D01*
X158834687Y-143448696D02*
X158834687Y-142534296D01*
X158834687Y-142534296D02*
X159183030Y-142534296D01*
X159183030Y-142534296D02*
X159270115Y-142577839D01*
X159270115Y-142577839D02*
X159313658Y-142621382D01*
X159313658Y-142621382D02*
X159357201Y-142708468D01*
X159357201Y-142708468D02*
X159357201Y-142839096D01*
X159357201Y-142839096D02*
X159313658Y-142926182D01*
X159313658Y-142926182D02*
X159270115Y-142969725D01*
X159270115Y-142969725D02*
X159183030Y-143013268D01*
X159183030Y-143013268D02*
X158834687Y-143013268D01*
X159662001Y-142534296D02*
X160271601Y-142534296D01*
X160271601Y-142534296D02*
X159879715Y-143448696D01*
X161334687Y-143100354D02*
X162031373Y-143100354D01*
X163642458Y-143448696D02*
X163119944Y-143448696D01*
X163381201Y-143448696D02*
X163381201Y-142534296D01*
X163381201Y-142534296D02*
X163294115Y-142664925D01*
X163294115Y-142664925D02*
X163207030Y-142752011D01*
X163207030Y-142752011D02*
X163119944Y-142795554D01*
X164208515Y-142534296D02*
X164295601Y-142534296D01*
X164295601Y-142534296D02*
X164382687Y-142577839D01*
X164382687Y-142577839D02*
X164426230Y-142621382D01*
X164426230Y-142621382D02*
X164469772Y-142708468D01*
X164469772Y-142708468D02*
X164513315Y-142882639D01*
X164513315Y-142882639D02*
X164513315Y-143100354D01*
X164513315Y-143100354D02*
X164469772Y-143274525D01*
X164469772Y-143274525D02*
X164426230Y-143361611D01*
X164426230Y-143361611D02*
X164382687Y-143405154D01*
X164382687Y-143405154D02*
X164295601Y-143448696D01*
X164295601Y-143448696D02*
X164208515Y-143448696D01*
X164208515Y-143448696D02*
X164121430Y-143405154D01*
X164121430Y-143405154D02*
X164077887Y-143361611D01*
X164077887Y-143361611D02*
X164034344Y-143274525D01*
X164034344Y-143274525D02*
X163990801Y-143100354D01*
X163990801Y-143100354D02*
X163990801Y-142882639D01*
X163990801Y-142882639D02*
X164034344Y-142708468D01*
X164034344Y-142708468D02*
X164077887Y-142621382D01*
X164077887Y-142621382D02*
X164121430Y-142577839D01*
X164121430Y-142577839D02*
X164208515Y-142534296D01*
X164905201Y-143448696D02*
X164905201Y-142534296D01*
X165427715Y-143448696D02*
X165035829Y-142926182D01*
X165427715Y-142534296D02*
X164905201Y-143056811D01*
X121107201Y-96198696D02*
X120802401Y-95763268D01*
X120584687Y-96198696D02*
X120584687Y-95284296D01*
X120584687Y-95284296D02*
X120933030Y-95284296D01*
X120933030Y-95284296D02*
X121020115Y-95327839D01*
X121020115Y-95327839D02*
X121063658Y-95371382D01*
X121063658Y-95371382D02*
X121107201Y-95458468D01*
X121107201Y-95458468D02*
X121107201Y-95589096D01*
X121107201Y-95589096D02*
X121063658Y-95676182D01*
X121063658Y-95676182D02*
X121020115Y-95719725D01*
X121020115Y-95719725D02*
X120933030Y-95763268D01*
X120933030Y-95763268D02*
X120584687Y-95763268D01*
X121978058Y-96198696D02*
X121455544Y-96198696D01*
X121716801Y-96198696D02*
X121716801Y-95284296D01*
X121716801Y-95284296D02*
X121629715Y-95414925D01*
X121629715Y-95414925D02*
X121542630Y-95502011D01*
X121542630Y-95502011D02*
X121455544Y-95545554D01*
X122805372Y-95284296D02*
X122369944Y-95284296D01*
X122369944Y-95284296D02*
X122326401Y-95719725D01*
X122326401Y-95719725D02*
X122369944Y-95676182D01*
X122369944Y-95676182D02*
X122457030Y-95632639D01*
X122457030Y-95632639D02*
X122674744Y-95632639D01*
X122674744Y-95632639D02*
X122761830Y-95676182D01*
X122761830Y-95676182D02*
X122805372Y-95719725D01*
X122805372Y-95719725D02*
X122848915Y-95806811D01*
X122848915Y-95806811D02*
X122848915Y-96024525D01*
X122848915Y-96024525D02*
X122805372Y-96111611D01*
X122805372Y-96111611D02*
X122761830Y-96155154D01*
X122761830Y-96155154D02*
X122674744Y-96198696D01*
X122674744Y-96198696D02*
X122457030Y-96198696D01*
X122457030Y-96198696D02*
X122369944Y-96155154D01*
X122369944Y-96155154D02*
X122326401Y-96111611D01*
X123584687Y-95850354D02*
X124281373Y-95850354D01*
X125892458Y-96198696D02*
X125369944Y-96198696D01*
X125631201Y-96198696D02*
X125631201Y-95284296D01*
X125631201Y-95284296D02*
X125544115Y-95414925D01*
X125544115Y-95414925D02*
X125457030Y-95502011D01*
X125457030Y-95502011D02*
X125369944Y-95545554D01*
X126284344Y-96111611D02*
X126327887Y-96155154D01*
X126327887Y-96155154D02*
X126284344Y-96198696D01*
X126284344Y-96198696D02*
X126240801Y-96155154D01*
X126240801Y-96155154D02*
X126284344Y-96111611D01*
X126284344Y-96111611D02*
X126284344Y-96198696D01*
X126676230Y-95371382D02*
X126719773Y-95327839D01*
X126719773Y-95327839D02*
X126806859Y-95284296D01*
X126806859Y-95284296D02*
X127024573Y-95284296D01*
X127024573Y-95284296D02*
X127111659Y-95327839D01*
X127111659Y-95327839D02*
X127155201Y-95371382D01*
X127155201Y-95371382D02*
X127198744Y-95458468D01*
X127198744Y-95458468D02*
X127198744Y-95545554D01*
X127198744Y-95545554D02*
X127155201Y-95676182D01*
X127155201Y-95676182D02*
X126632687Y-96198696D01*
X126632687Y-96198696D02*
X127198744Y-96198696D01*
X127590630Y-96198696D02*
X127590630Y-95284296D01*
X128113144Y-96198696D02*
X127721258Y-95676182D01*
X128113144Y-95284296D02*
X127590630Y-95806811D01*
X169802688Y-103357201D02*
X169759146Y-103313658D01*
X169759146Y-103313658D02*
X169715603Y-103183030D01*
X169715603Y-103183030D02*
X169715603Y-103095944D01*
X169715603Y-103095944D02*
X169759146Y-102965315D01*
X169759146Y-102965315D02*
X169846231Y-102878230D01*
X169846231Y-102878230D02*
X169933317Y-102834687D01*
X169933317Y-102834687D02*
X170107488Y-102791144D01*
X170107488Y-102791144D02*
X170238117Y-102791144D01*
X170238117Y-102791144D02*
X170412288Y-102834687D01*
X170412288Y-102834687D02*
X170499374Y-102878230D01*
X170499374Y-102878230D02*
X170586460Y-102965315D01*
X170586460Y-102965315D02*
X170630003Y-103095944D01*
X170630003Y-103095944D02*
X170630003Y-103183030D01*
X170630003Y-103183030D02*
X170586460Y-103313658D01*
X170586460Y-103313658D02*
X170542917Y-103357201D01*
X170542917Y-103705544D02*
X170586460Y-103749087D01*
X170586460Y-103749087D02*
X170630003Y-103836173D01*
X170630003Y-103836173D02*
X170630003Y-104053887D01*
X170630003Y-104053887D02*
X170586460Y-104140973D01*
X170586460Y-104140973D02*
X170542917Y-104184515D01*
X170542917Y-104184515D02*
X170455831Y-104228058D01*
X170455831Y-104228058D02*
X170368746Y-104228058D01*
X170368746Y-104228058D02*
X170238117Y-104184515D01*
X170238117Y-104184515D02*
X169715603Y-103662001D01*
X169715603Y-103662001D02*
X169715603Y-104228058D01*
X121107201Y-88698496D02*
X120802401Y-88263068D01*
X120584687Y-88698496D02*
X120584687Y-87784096D01*
X120584687Y-87784096D02*
X120933030Y-87784096D01*
X120933030Y-87784096D02*
X121020115Y-87827639D01*
X121020115Y-87827639D02*
X121063658Y-87871182D01*
X121063658Y-87871182D02*
X121107201Y-87958268D01*
X121107201Y-87958268D02*
X121107201Y-88088896D01*
X121107201Y-88088896D02*
X121063658Y-88175982D01*
X121063658Y-88175982D02*
X121020115Y-88219525D01*
X121020115Y-88219525D02*
X120933030Y-88263068D01*
X120933030Y-88263068D02*
X120584687Y-88263068D01*
X121978058Y-88698496D02*
X121455544Y-88698496D01*
X121716801Y-88698496D02*
X121716801Y-87784096D01*
X121716801Y-87784096D02*
X121629715Y-87914725D01*
X121629715Y-87914725D02*
X121542630Y-88001811D01*
X121542630Y-88001811D02*
X121455544Y-88045354D01*
X122500572Y-88175982D02*
X122413487Y-88132439D01*
X122413487Y-88132439D02*
X122369944Y-88088896D01*
X122369944Y-88088896D02*
X122326401Y-88001811D01*
X122326401Y-88001811D02*
X122326401Y-87958268D01*
X122326401Y-87958268D02*
X122369944Y-87871182D01*
X122369944Y-87871182D02*
X122413487Y-87827639D01*
X122413487Y-87827639D02*
X122500572Y-87784096D01*
X122500572Y-87784096D02*
X122674744Y-87784096D01*
X122674744Y-87784096D02*
X122761830Y-87827639D01*
X122761830Y-87827639D02*
X122805372Y-87871182D01*
X122805372Y-87871182D02*
X122848915Y-87958268D01*
X122848915Y-87958268D02*
X122848915Y-88001811D01*
X122848915Y-88001811D02*
X122805372Y-88088896D01*
X122805372Y-88088896D02*
X122761830Y-88132439D01*
X122761830Y-88132439D02*
X122674744Y-88175982D01*
X122674744Y-88175982D02*
X122500572Y-88175982D01*
X122500572Y-88175982D02*
X122413487Y-88219525D01*
X122413487Y-88219525D02*
X122369944Y-88263068D01*
X122369944Y-88263068D02*
X122326401Y-88350154D01*
X122326401Y-88350154D02*
X122326401Y-88524325D01*
X122326401Y-88524325D02*
X122369944Y-88611411D01*
X122369944Y-88611411D02*
X122413487Y-88654954D01*
X122413487Y-88654954D02*
X122500572Y-88698496D01*
X122500572Y-88698496D02*
X122674744Y-88698496D01*
X122674744Y-88698496D02*
X122761830Y-88654954D01*
X122761830Y-88654954D02*
X122805372Y-88611411D01*
X122805372Y-88611411D02*
X122848915Y-88524325D01*
X122848915Y-88524325D02*
X122848915Y-88350154D01*
X122848915Y-88350154D02*
X122805372Y-88263068D01*
X122805372Y-88263068D02*
X122761830Y-88219525D01*
X122761830Y-88219525D02*
X122674744Y-88175982D01*
X123584687Y-88350254D02*
X124281373Y-88350254D01*
X125892458Y-88698596D02*
X125369944Y-88698596D01*
X125631201Y-88698596D02*
X125631201Y-87784196D01*
X125631201Y-87784196D02*
X125544115Y-87914825D01*
X125544115Y-87914825D02*
X125457030Y-88001911D01*
X125457030Y-88001911D02*
X125369944Y-88045454D01*
X126284344Y-88611511D02*
X126327887Y-88655054D01*
X126327887Y-88655054D02*
X126284344Y-88698596D01*
X126284344Y-88698596D02*
X126240801Y-88655054D01*
X126240801Y-88655054D02*
X126284344Y-88611511D01*
X126284344Y-88611511D02*
X126284344Y-88698596D01*
X126676230Y-87871282D02*
X126719773Y-87827739D01*
X126719773Y-87827739D02*
X126806859Y-87784196D01*
X126806859Y-87784196D02*
X127024573Y-87784196D01*
X127024573Y-87784196D02*
X127111659Y-87827739D01*
X127111659Y-87827739D02*
X127155201Y-87871282D01*
X127155201Y-87871282D02*
X127198744Y-87958368D01*
X127198744Y-87958368D02*
X127198744Y-88045454D01*
X127198744Y-88045454D02*
X127155201Y-88176082D01*
X127155201Y-88176082D02*
X126632687Y-88698596D01*
X126632687Y-88698596D02*
X127198744Y-88698596D01*
X127590630Y-88698596D02*
X127590630Y-87784196D01*
X128113144Y-88698596D02*
X127721258Y-88176082D01*
X128113144Y-87784196D02*
X127590630Y-88306711D01*
X109857201Y-70361611D02*
X109813658Y-70405154D01*
X109813658Y-70405154D02*
X109683030Y-70448696D01*
X109683030Y-70448696D02*
X109595944Y-70448696D01*
X109595944Y-70448696D02*
X109465315Y-70405154D01*
X109465315Y-70405154D02*
X109378230Y-70318068D01*
X109378230Y-70318068D02*
X109334687Y-70230982D01*
X109334687Y-70230982D02*
X109291144Y-70056811D01*
X109291144Y-70056811D02*
X109291144Y-69926182D01*
X109291144Y-69926182D02*
X109334687Y-69752011D01*
X109334687Y-69752011D02*
X109378230Y-69664925D01*
X109378230Y-69664925D02*
X109465315Y-69577839D01*
X109465315Y-69577839D02*
X109595944Y-69534296D01*
X109595944Y-69534296D02*
X109683030Y-69534296D01*
X109683030Y-69534296D02*
X109813658Y-69577839D01*
X109813658Y-69577839D02*
X109857201Y-69621382D01*
X110640973Y-69534296D02*
X110466801Y-69534296D01*
X110466801Y-69534296D02*
X110379715Y-69577839D01*
X110379715Y-69577839D02*
X110336173Y-69621382D01*
X110336173Y-69621382D02*
X110249087Y-69752011D01*
X110249087Y-69752011D02*
X110205544Y-69926182D01*
X110205544Y-69926182D02*
X110205544Y-70274525D01*
X110205544Y-70274525D02*
X110249087Y-70361611D01*
X110249087Y-70361611D02*
X110292630Y-70405154D01*
X110292630Y-70405154D02*
X110379715Y-70448696D01*
X110379715Y-70448696D02*
X110553887Y-70448696D01*
X110553887Y-70448696D02*
X110640973Y-70405154D01*
X110640973Y-70405154D02*
X110684515Y-70361611D01*
X110684515Y-70361611D02*
X110728058Y-70274525D01*
X110728058Y-70274525D02*
X110728058Y-70056811D01*
X110728058Y-70056811D02*
X110684515Y-69969725D01*
X110684515Y-69969725D02*
X110640973Y-69926182D01*
X110640973Y-69926182D02*
X110553887Y-69882639D01*
X110553887Y-69882639D02*
X110379715Y-69882639D01*
X110379715Y-69882639D02*
X110292630Y-69926182D01*
X110292630Y-69926182D02*
X110249087Y-69969725D01*
X110249087Y-69969725D02*
X110205544Y-70056811D01*
X111107201Y-134448696D02*
X110802401Y-134013268D01*
X110584687Y-134448696D02*
X110584687Y-133534296D01*
X110584687Y-133534296D02*
X110933030Y-133534296D01*
X110933030Y-133534296D02*
X111020115Y-133577839D01*
X111020115Y-133577839D02*
X111063658Y-133621382D01*
X111063658Y-133621382D02*
X111107201Y-133708468D01*
X111107201Y-133708468D02*
X111107201Y-133839096D01*
X111107201Y-133839096D02*
X111063658Y-133926182D01*
X111063658Y-133926182D02*
X111020115Y-133969725D01*
X111020115Y-133969725D02*
X110933030Y-134013268D01*
X110933030Y-134013268D02*
X110584687Y-134013268D01*
X111890973Y-133839096D02*
X111890973Y-134448696D01*
X111673258Y-133490754D02*
X111455544Y-134143896D01*
X111455544Y-134143896D02*
X112021601Y-134143896D01*
X113084687Y-134100354D02*
X113781373Y-134100354D01*
X115392458Y-134448696D02*
X114869944Y-134448696D01*
X115131201Y-134448696D02*
X115131201Y-133534296D01*
X115131201Y-133534296D02*
X115044115Y-133664925D01*
X115044115Y-133664925D02*
X114957030Y-133752011D01*
X114957030Y-133752011D02*
X114869944Y-133795554D01*
X115958515Y-133534296D02*
X116045601Y-133534296D01*
X116045601Y-133534296D02*
X116132687Y-133577839D01*
X116132687Y-133577839D02*
X116176230Y-133621382D01*
X116176230Y-133621382D02*
X116219772Y-133708468D01*
X116219772Y-133708468D02*
X116263315Y-133882639D01*
X116263315Y-133882639D02*
X116263315Y-134100354D01*
X116263315Y-134100354D02*
X116219772Y-134274525D01*
X116219772Y-134274525D02*
X116176230Y-134361611D01*
X116176230Y-134361611D02*
X116132687Y-134405154D01*
X116132687Y-134405154D02*
X116045601Y-134448696D01*
X116045601Y-134448696D02*
X115958515Y-134448696D01*
X115958515Y-134448696D02*
X115871430Y-134405154D01*
X115871430Y-134405154D02*
X115827887Y-134361611D01*
X115827887Y-134361611D02*
X115784344Y-134274525D01*
X115784344Y-134274525D02*
X115740801Y-134100354D01*
X115740801Y-134100354D02*
X115740801Y-133882639D01*
X115740801Y-133882639D02*
X115784344Y-133708468D01*
X115784344Y-133708468D02*
X115827887Y-133621382D01*
X115827887Y-133621382D02*
X115871430Y-133577839D01*
X115871430Y-133577839D02*
X115958515Y-133534296D01*
X116655201Y-134448696D02*
X116655201Y-133534296D01*
X117177715Y-134448696D02*
X116785829Y-133926182D01*
X117177715Y-133534296D02*
X116655201Y-134056811D01*
X137107201Y-143448696D02*
X136802401Y-143013268D01*
X136584687Y-143448696D02*
X136584687Y-142534296D01*
X136584687Y-142534296D02*
X136933030Y-142534296D01*
X136933030Y-142534296D02*
X137020115Y-142577839D01*
X137020115Y-142577839D02*
X137063658Y-142621382D01*
X137063658Y-142621382D02*
X137107201Y-142708468D01*
X137107201Y-142708468D02*
X137107201Y-142839096D01*
X137107201Y-142839096D02*
X137063658Y-142926182D01*
X137063658Y-142926182D02*
X137020115Y-142969725D01*
X137020115Y-142969725D02*
X136933030Y-143013268D01*
X136933030Y-143013268D02*
X136584687Y-143013268D01*
X137890973Y-142534296D02*
X137716801Y-142534296D01*
X137716801Y-142534296D02*
X137629715Y-142577839D01*
X137629715Y-142577839D02*
X137586173Y-142621382D01*
X137586173Y-142621382D02*
X137499087Y-142752011D01*
X137499087Y-142752011D02*
X137455544Y-142926182D01*
X137455544Y-142926182D02*
X137455544Y-143274525D01*
X137455544Y-143274525D02*
X137499087Y-143361611D01*
X137499087Y-143361611D02*
X137542630Y-143405154D01*
X137542630Y-143405154D02*
X137629715Y-143448696D01*
X137629715Y-143448696D02*
X137803887Y-143448696D01*
X137803887Y-143448696D02*
X137890973Y-143405154D01*
X137890973Y-143405154D02*
X137934515Y-143361611D01*
X137934515Y-143361611D02*
X137978058Y-143274525D01*
X137978058Y-143274525D02*
X137978058Y-143056811D01*
X137978058Y-143056811D02*
X137934515Y-142969725D01*
X137934515Y-142969725D02*
X137890973Y-142926182D01*
X137890973Y-142926182D02*
X137803887Y-142882639D01*
X137803887Y-142882639D02*
X137629715Y-142882639D01*
X137629715Y-142882639D02*
X137542630Y-142926182D01*
X137542630Y-142926182D02*
X137499087Y-142969725D01*
X137499087Y-142969725D02*
X137455544Y-143056811D01*
X139334687Y-143100354D02*
X140031373Y-143100354D01*
X141642458Y-143448696D02*
X141119944Y-143448696D01*
X141381201Y-143448696D02*
X141381201Y-142534296D01*
X141381201Y-142534296D02*
X141294115Y-142664925D01*
X141294115Y-142664925D02*
X141207030Y-142752011D01*
X141207030Y-142752011D02*
X141119944Y-142795554D01*
X142208515Y-142534296D02*
X142295601Y-142534296D01*
X142295601Y-142534296D02*
X142382687Y-142577839D01*
X142382687Y-142577839D02*
X142426230Y-142621382D01*
X142426230Y-142621382D02*
X142469772Y-142708468D01*
X142469772Y-142708468D02*
X142513315Y-142882639D01*
X142513315Y-142882639D02*
X142513315Y-143100354D01*
X142513315Y-143100354D02*
X142469772Y-143274525D01*
X142469772Y-143274525D02*
X142426230Y-143361611D01*
X142426230Y-143361611D02*
X142382687Y-143405154D01*
X142382687Y-143405154D02*
X142295601Y-143448696D01*
X142295601Y-143448696D02*
X142208515Y-143448696D01*
X142208515Y-143448696D02*
X142121430Y-143405154D01*
X142121430Y-143405154D02*
X142077887Y-143361611D01*
X142077887Y-143361611D02*
X142034344Y-143274525D01*
X142034344Y-143274525D02*
X141990801Y-143100354D01*
X141990801Y-143100354D02*
X141990801Y-142882639D01*
X141990801Y-142882639D02*
X142034344Y-142708468D01*
X142034344Y-142708468D02*
X142077887Y-142621382D01*
X142077887Y-142621382D02*
X142121430Y-142577839D01*
X142121430Y-142577839D02*
X142208515Y-142534296D01*
X142905201Y-143448696D02*
X142905201Y-142534296D01*
X143427715Y-143448696D02*
X143035829Y-142926182D01*
X143427715Y-142534296D02*
X142905201Y-143056811D01*
X158857201Y-83198696D02*
X158552401Y-82763268D01*
X158334687Y-83198696D02*
X158334687Y-82284296D01*
X158334687Y-82284296D02*
X158683030Y-82284296D01*
X158683030Y-82284296D02*
X158770115Y-82327839D01*
X158770115Y-82327839D02*
X158813658Y-82371382D01*
X158813658Y-82371382D02*
X158857201Y-82458468D01*
X158857201Y-82458468D02*
X158857201Y-82589096D01*
X158857201Y-82589096D02*
X158813658Y-82676182D01*
X158813658Y-82676182D02*
X158770115Y-82719725D01*
X158770115Y-82719725D02*
X158683030Y-82763268D01*
X158683030Y-82763268D02*
X158334687Y-82763268D01*
X159205544Y-82371382D02*
X159249087Y-82327839D01*
X159249087Y-82327839D02*
X159336173Y-82284296D01*
X159336173Y-82284296D02*
X159553887Y-82284296D01*
X159553887Y-82284296D02*
X159640973Y-82327839D01*
X159640973Y-82327839D02*
X159684515Y-82371382D01*
X159684515Y-82371382D02*
X159728058Y-82458468D01*
X159728058Y-82458468D02*
X159728058Y-82545554D01*
X159728058Y-82545554D02*
X159684515Y-82676182D01*
X159684515Y-82676182D02*
X159162001Y-83198696D01*
X159162001Y-83198696D02*
X159728058Y-83198696D01*
X160834687Y-82850354D02*
X161531373Y-82850354D01*
X163142458Y-83198696D02*
X162619944Y-83198696D01*
X162881201Y-83198696D02*
X162881201Y-82284296D01*
X162881201Y-82284296D02*
X162794115Y-82414925D01*
X162794115Y-82414925D02*
X162707030Y-82502011D01*
X162707030Y-82502011D02*
X162619944Y-82545554D01*
X163708515Y-82284296D02*
X163795601Y-82284296D01*
X163795601Y-82284296D02*
X163882687Y-82327839D01*
X163882687Y-82327839D02*
X163926230Y-82371382D01*
X163926230Y-82371382D02*
X163969772Y-82458468D01*
X163969772Y-82458468D02*
X164013315Y-82632639D01*
X164013315Y-82632639D02*
X164013315Y-82850354D01*
X164013315Y-82850354D02*
X163969772Y-83024525D01*
X163969772Y-83024525D02*
X163926230Y-83111611D01*
X163926230Y-83111611D02*
X163882687Y-83155154D01*
X163882687Y-83155154D02*
X163795601Y-83198696D01*
X163795601Y-83198696D02*
X163708515Y-83198696D01*
X163708515Y-83198696D02*
X163621430Y-83155154D01*
X163621430Y-83155154D02*
X163577887Y-83111611D01*
X163577887Y-83111611D02*
X163534344Y-83024525D01*
X163534344Y-83024525D02*
X163490801Y-82850354D01*
X163490801Y-82850354D02*
X163490801Y-82632639D01*
X163490801Y-82632639D02*
X163534344Y-82458468D01*
X163534344Y-82458468D02*
X163577887Y-82371382D01*
X163577887Y-82371382D02*
X163621430Y-82327839D01*
X163621430Y-82327839D02*
X163708515Y-82284296D01*
X164405201Y-83198696D02*
X164405201Y-82284296D01*
X164927715Y-83198696D02*
X164535829Y-82676182D01*
X164927715Y-82284296D02*
X164405201Y-82806811D01*
X121107201Y-86198696D02*
X120802401Y-85763268D01*
X120584687Y-86198696D02*
X120584687Y-85284296D01*
X120584687Y-85284296D02*
X120933030Y-85284296D01*
X120933030Y-85284296D02*
X121020115Y-85327839D01*
X121020115Y-85327839D02*
X121063658Y-85371382D01*
X121063658Y-85371382D02*
X121107201Y-85458468D01*
X121107201Y-85458468D02*
X121107201Y-85589096D01*
X121107201Y-85589096D02*
X121063658Y-85676182D01*
X121063658Y-85676182D02*
X121020115Y-85719725D01*
X121020115Y-85719725D02*
X120933030Y-85763268D01*
X120933030Y-85763268D02*
X120584687Y-85763268D01*
X121978058Y-86198696D02*
X121455544Y-86198696D01*
X121716801Y-86198696D02*
X121716801Y-85284296D01*
X121716801Y-85284296D02*
X121629715Y-85414925D01*
X121629715Y-85414925D02*
X121542630Y-85502011D01*
X121542630Y-85502011D02*
X121455544Y-85545554D01*
X122413487Y-86198696D02*
X122587658Y-86198696D01*
X122587658Y-86198696D02*
X122674744Y-86155154D01*
X122674744Y-86155154D02*
X122718287Y-86111611D01*
X122718287Y-86111611D02*
X122805372Y-85980982D01*
X122805372Y-85980982D02*
X122848915Y-85806811D01*
X122848915Y-85806811D02*
X122848915Y-85458468D01*
X122848915Y-85458468D02*
X122805372Y-85371382D01*
X122805372Y-85371382D02*
X122761830Y-85327839D01*
X122761830Y-85327839D02*
X122674744Y-85284296D01*
X122674744Y-85284296D02*
X122500572Y-85284296D01*
X122500572Y-85284296D02*
X122413487Y-85327839D01*
X122413487Y-85327839D02*
X122369944Y-85371382D01*
X122369944Y-85371382D02*
X122326401Y-85458468D01*
X122326401Y-85458468D02*
X122326401Y-85676182D01*
X122326401Y-85676182D02*
X122369944Y-85763268D01*
X122369944Y-85763268D02*
X122413487Y-85806811D01*
X122413487Y-85806811D02*
X122500572Y-85850354D01*
X122500572Y-85850354D02*
X122674744Y-85850354D01*
X122674744Y-85850354D02*
X122761830Y-85806811D01*
X122761830Y-85806811D02*
X122805372Y-85763268D01*
X122805372Y-85763268D02*
X122848915Y-85676182D01*
X123584687Y-85850354D02*
X124281373Y-85850354D01*
X125892458Y-86198696D02*
X125369944Y-86198696D01*
X125631201Y-86198696D02*
X125631201Y-85284296D01*
X125631201Y-85284296D02*
X125544115Y-85414925D01*
X125544115Y-85414925D02*
X125457030Y-85502011D01*
X125457030Y-85502011D02*
X125369944Y-85545554D01*
X126284344Y-86111611D02*
X126327887Y-86155154D01*
X126327887Y-86155154D02*
X126284344Y-86198696D01*
X126284344Y-86198696D02*
X126240801Y-86155154D01*
X126240801Y-86155154D02*
X126284344Y-86111611D01*
X126284344Y-86111611D02*
X126284344Y-86198696D01*
X126676230Y-85371382D02*
X126719773Y-85327839D01*
X126719773Y-85327839D02*
X126806859Y-85284296D01*
X126806859Y-85284296D02*
X127024573Y-85284296D01*
X127024573Y-85284296D02*
X127111659Y-85327839D01*
X127111659Y-85327839D02*
X127155201Y-85371382D01*
X127155201Y-85371382D02*
X127198744Y-85458468D01*
X127198744Y-85458468D02*
X127198744Y-85545554D01*
X127198744Y-85545554D02*
X127155201Y-85676182D01*
X127155201Y-85676182D02*
X126632687Y-86198696D01*
X126632687Y-86198696D02*
X127198744Y-86198696D01*
X127590630Y-86198696D02*
X127590630Y-85284296D01*
X128113144Y-86198696D02*
X127721258Y-85676182D01*
X128113144Y-85284296D02*
X127590630Y-85806811D01*
X137107201Y-83198696D02*
X136802401Y-82763268D01*
X136584687Y-83198696D02*
X136584687Y-82284296D01*
X136584687Y-82284296D02*
X136933030Y-82284296D01*
X136933030Y-82284296D02*
X137020115Y-82327839D01*
X137020115Y-82327839D02*
X137063658Y-82371382D01*
X137063658Y-82371382D02*
X137107201Y-82458468D01*
X137107201Y-82458468D02*
X137107201Y-82589096D01*
X137107201Y-82589096D02*
X137063658Y-82676182D01*
X137063658Y-82676182D02*
X137020115Y-82719725D01*
X137020115Y-82719725D02*
X136933030Y-82763268D01*
X136933030Y-82763268D02*
X136584687Y-82763268D01*
X137412001Y-82284296D02*
X137978058Y-82284296D01*
X137978058Y-82284296D02*
X137673258Y-82632639D01*
X137673258Y-82632639D02*
X137803887Y-82632639D01*
X137803887Y-82632639D02*
X137890973Y-82676182D01*
X137890973Y-82676182D02*
X137934515Y-82719725D01*
X137934515Y-82719725D02*
X137978058Y-82806811D01*
X137978058Y-82806811D02*
X137978058Y-83024525D01*
X137978058Y-83024525D02*
X137934515Y-83111611D01*
X137934515Y-83111611D02*
X137890973Y-83155154D01*
X137890973Y-83155154D02*
X137803887Y-83198696D01*
X137803887Y-83198696D02*
X137542630Y-83198696D01*
X137542630Y-83198696D02*
X137455544Y-83155154D01*
X137455544Y-83155154D02*
X137412001Y-83111611D01*
X139084687Y-82850354D02*
X139781373Y-82850354D01*
X141392458Y-83198696D02*
X140869944Y-83198696D01*
X141131201Y-83198696D02*
X141131201Y-82284296D01*
X141131201Y-82284296D02*
X141044115Y-82414925D01*
X141044115Y-82414925D02*
X140957030Y-82502011D01*
X140957030Y-82502011D02*
X140869944Y-82545554D01*
X141958515Y-82284296D02*
X142045601Y-82284296D01*
X142045601Y-82284296D02*
X142132687Y-82327839D01*
X142132687Y-82327839D02*
X142176230Y-82371382D01*
X142176230Y-82371382D02*
X142219772Y-82458468D01*
X142219772Y-82458468D02*
X142263315Y-82632639D01*
X142263315Y-82632639D02*
X142263315Y-82850354D01*
X142263315Y-82850354D02*
X142219772Y-83024525D01*
X142219772Y-83024525D02*
X142176230Y-83111611D01*
X142176230Y-83111611D02*
X142132687Y-83155154D01*
X142132687Y-83155154D02*
X142045601Y-83198696D01*
X142045601Y-83198696D02*
X141958515Y-83198696D01*
X141958515Y-83198696D02*
X141871430Y-83155154D01*
X141871430Y-83155154D02*
X141827887Y-83111611D01*
X141827887Y-83111611D02*
X141784344Y-83024525D01*
X141784344Y-83024525D02*
X141740801Y-82850354D01*
X141740801Y-82850354D02*
X141740801Y-82632639D01*
X141740801Y-82632639D02*
X141784344Y-82458468D01*
X141784344Y-82458468D02*
X141827887Y-82371382D01*
X141827887Y-82371382D02*
X141871430Y-82327839D01*
X141871430Y-82327839D02*
X141958515Y-82284296D01*
X142655201Y-83198696D02*
X142655201Y-82284296D01*
X143177715Y-83198696D02*
X142785829Y-82676182D01*
X143177715Y-82284296D02*
X142655201Y-82806811D01*
D14*
X148317877Y-109421117D02*
X148317877Y-110161346D01*
X148317877Y-110161346D02*
X148361420Y-110248432D01*
X148361420Y-110248432D02*
X148404963Y-110291975D01*
X148404963Y-110291975D02*
X148492048Y-110335517D01*
X148492048Y-110335517D02*
X148666220Y-110335517D01*
X148666220Y-110335517D02*
X148753305Y-110291975D01*
X148753305Y-110291975D02*
X148796848Y-110248432D01*
X148796848Y-110248432D02*
X148840391Y-110161346D01*
X148840391Y-110161346D02*
X148840391Y-109421117D01*
X149188734Y-109421117D02*
X149754791Y-109421117D01*
X149754791Y-109421117D02*
X149449991Y-109769460D01*
X149449991Y-109769460D02*
X149580620Y-109769460D01*
X149580620Y-109769460D02*
X149667706Y-109813003D01*
X149667706Y-109813003D02*
X149711248Y-109856546D01*
X149711248Y-109856546D02*
X149754791Y-109943632D01*
X149754791Y-109943632D02*
X149754791Y-110161346D01*
X149754791Y-110161346D02*
X149711248Y-110248432D01*
X149711248Y-110248432D02*
X149667706Y-110291975D01*
X149667706Y-110291975D02*
X149580620Y-110335517D01*
X149580620Y-110335517D02*
X149319363Y-110335517D01*
X149319363Y-110335517D02*
X149232277Y-110291975D01*
X149232277Y-110291975D02*
X149188734Y-110248432D01*
D15*
X111520115Y-99198696D02*
X111084687Y-99198696D01*
X111084687Y-99198696D02*
X111084687Y-98284296D01*
X111824916Y-98719725D02*
X112129716Y-98719725D01*
X112260344Y-99198696D02*
X111824916Y-99198696D01*
X111824916Y-99198696D02*
X111824916Y-98284296D01*
X111824916Y-98284296D02*
X112260344Y-98284296D01*
X112652230Y-99198696D02*
X112652230Y-98284296D01*
X112652230Y-98284296D02*
X112869944Y-98284296D01*
X112869944Y-98284296D02*
X113000573Y-98327839D01*
X113000573Y-98327839D02*
X113087658Y-98414925D01*
X113087658Y-98414925D02*
X113131201Y-98502011D01*
X113131201Y-98502011D02*
X113174744Y-98676182D01*
X113174744Y-98676182D02*
X113174744Y-98806811D01*
X113174744Y-98806811D02*
X113131201Y-98980982D01*
X113131201Y-98980982D02*
X113087658Y-99068068D01*
X113087658Y-99068068D02*
X113000573Y-99155154D01*
X113000573Y-99155154D02*
X112869944Y-99198696D01*
X112869944Y-99198696D02*
X112652230Y-99198696D01*
X181107201Y-83198696D02*
X180802401Y-82763268D01*
X180584687Y-83198696D02*
X180584687Y-82284296D01*
X180584687Y-82284296D02*
X180933030Y-82284296D01*
X180933030Y-82284296D02*
X181020115Y-82327839D01*
X181020115Y-82327839D02*
X181063658Y-82371382D01*
X181063658Y-82371382D02*
X181107201Y-82458468D01*
X181107201Y-82458468D02*
X181107201Y-82589096D01*
X181107201Y-82589096D02*
X181063658Y-82676182D01*
X181063658Y-82676182D02*
X181020115Y-82719725D01*
X181020115Y-82719725D02*
X180933030Y-82763268D01*
X180933030Y-82763268D02*
X180584687Y-82763268D01*
X181978058Y-83198696D02*
X181455544Y-83198696D01*
X181716801Y-83198696D02*
X181716801Y-82284296D01*
X181716801Y-82284296D02*
X181629715Y-82414925D01*
X181629715Y-82414925D02*
X181542630Y-82502011D01*
X181542630Y-82502011D02*
X181455544Y-82545554D01*
X183084687Y-82850354D02*
X183781373Y-82850354D01*
X185392458Y-83198696D02*
X184869944Y-83198696D01*
X185131201Y-83198696D02*
X185131201Y-82284296D01*
X185131201Y-82284296D02*
X185044115Y-82414925D01*
X185044115Y-82414925D02*
X184957030Y-82502011D01*
X184957030Y-82502011D02*
X184869944Y-82545554D01*
X185958515Y-82284296D02*
X186045601Y-82284296D01*
X186045601Y-82284296D02*
X186132687Y-82327839D01*
X186132687Y-82327839D02*
X186176230Y-82371382D01*
X186176230Y-82371382D02*
X186219772Y-82458468D01*
X186219772Y-82458468D02*
X186263315Y-82632639D01*
X186263315Y-82632639D02*
X186263315Y-82850354D01*
X186263315Y-82850354D02*
X186219772Y-83024525D01*
X186219772Y-83024525D02*
X186176230Y-83111611D01*
X186176230Y-83111611D02*
X186132687Y-83155154D01*
X186132687Y-83155154D02*
X186045601Y-83198696D01*
X186045601Y-83198696D02*
X185958515Y-83198696D01*
X185958515Y-83198696D02*
X185871430Y-83155154D01*
X185871430Y-83155154D02*
X185827887Y-83111611D01*
X185827887Y-83111611D02*
X185784344Y-83024525D01*
X185784344Y-83024525D02*
X185740801Y-82850354D01*
X185740801Y-82850354D02*
X185740801Y-82632639D01*
X185740801Y-82632639D02*
X185784344Y-82458468D01*
X185784344Y-82458468D02*
X185827887Y-82371382D01*
X185827887Y-82371382D02*
X185871430Y-82327839D01*
X185871430Y-82327839D02*
X185958515Y-82284296D01*
X186655201Y-83198696D02*
X186655201Y-82284296D01*
X187177715Y-83198696D02*
X186785829Y-82676182D01*
X187177715Y-82284296D02*
X186655201Y-82806811D01*
D14*
X185817977Y-109121117D02*
X185817977Y-109861346D01*
X185817977Y-109861346D02*
X185861520Y-109948432D01*
X185861520Y-109948432D02*
X185905063Y-109991975D01*
X185905063Y-109991975D02*
X185992148Y-110035517D01*
X185992148Y-110035517D02*
X186166320Y-110035517D01*
X186166320Y-110035517D02*
X186253405Y-109991975D01*
X186253405Y-109991975D02*
X186296948Y-109948432D01*
X186296948Y-109948432D02*
X186340491Y-109861346D01*
X186340491Y-109861346D02*
X186340491Y-109121117D01*
X187254891Y-110035517D02*
X186732377Y-110035517D01*
X186993634Y-110035517D02*
X186993634Y-109121117D01*
X186993634Y-109121117D02*
X186906548Y-109251746D01*
X186906548Y-109251746D02*
X186819463Y-109338832D01*
X186819463Y-109338832D02*
X186732377Y-109382375D01*
X147167477Y-68021117D02*
X147167477Y-68761346D01*
X147167477Y-68761346D02*
X147211020Y-68848432D01*
X147211020Y-68848432D02*
X147254563Y-68891975D01*
X147254563Y-68891975D02*
X147341648Y-68935517D01*
X147341648Y-68935517D02*
X147515820Y-68935517D01*
X147515820Y-68935517D02*
X147602905Y-68891975D01*
X147602905Y-68891975D02*
X147646448Y-68848432D01*
X147646448Y-68848432D02*
X147689991Y-68761346D01*
X147689991Y-68761346D02*
X147689991Y-68021117D01*
X148560848Y-68021117D02*
X148125420Y-68021117D01*
X148125420Y-68021117D02*
X148081877Y-68456546D01*
X148081877Y-68456546D02*
X148125420Y-68413003D01*
X148125420Y-68413003D02*
X148212506Y-68369460D01*
X148212506Y-68369460D02*
X148430220Y-68369460D01*
X148430220Y-68369460D02*
X148517306Y-68413003D01*
X148517306Y-68413003D02*
X148560848Y-68456546D01*
X148560848Y-68456546D02*
X148604391Y-68543632D01*
X148604391Y-68543632D02*
X148604391Y-68761346D01*
X148604391Y-68761346D02*
X148560848Y-68848432D01*
X148560848Y-68848432D02*
X148517306Y-68891975D01*
X148517306Y-68891975D02*
X148430220Y-68935517D01*
X148430220Y-68935517D02*
X148212506Y-68935517D01*
X148212506Y-68935517D02*
X148125420Y-68891975D01*
X148125420Y-68891975D02*
X148081877Y-68848432D01*
D15*
X121107201Y-81198696D02*
X120802401Y-80763268D01*
X120584687Y-81198696D02*
X120584687Y-80284296D01*
X120584687Y-80284296D02*
X120933030Y-80284296D01*
X120933030Y-80284296D02*
X121020115Y-80327839D01*
X121020115Y-80327839D02*
X121063658Y-80371382D01*
X121063658Y-80371382D02*
X121107201Y-80458468D01*
X121107201Y-80458468D02*
X121107201Y-80589096D01*
X121107201Y-80589096D02*
X121063658Y-80676182D01*
X121063658Y-80676182D02*
X121020115Y-80719725D01*
X121020115Y-80719725D02*
X120933030Y-80763268D01*
X120933030Y-80763268D02*
X120584687Y-80763268D01*
X121455544Y-80371382D02*
X121499087Y-80327839D01*
X121499087Y-80327839D02*
X121586173Y-80284296D01*
X121586173Y-80284296D02*
X121803887Y-80284296D01*
X121803887Y-80284296D02*
X121890973Y-80327839D01*
X121890973Y-80327839D02*
X121934515Y-80371382D01*
X121934515Y-80371382D02*
X121978058Y-80458468D01*
X121978058Y-80458468D02*
X121978058Y-80545554D01*
X121978058Y-80545554D02*
X121934515Y-80676182D01*
X121934515Y-80676182D02*
X121412001Y-81198696D01*
X121412001Y-81198696D02*
X121978058Y-81198696D01*
X122848915Y-81198696D02*
X122326401Y-81198696D01*
X122587658Y-81198696D02*
X122587658Y-80284296D01*
X122587658Y-80284296D02*
X122500572Y-80414925D01*
X122500572Y-80414925D02*
X122413487Y-80502011D01*
X122413487Y-80502011D02*
X122326401Y-80545554D01*
X123584687Y-80850354D02*
X124281373Y-80850354D01*
X125892458Y-81198696D02*
X125369944Y-81198696D01*
X125631201Y-81198696D02*
X125631201Y-80284296D01*
X125631201Y-80284296D02*
X125544115Y-80414925D01*
X125544115Y-80414925D02*
X125457030Y-80502011D01*
X125457030Y-80502011D02*
X125369944Y-80545554D01*
X126284344Y-81111611D02*
X126327887Y-81155154D01*
X126327887Y-81155154D02*
X126284344Y-81198696D01*
X126284344Y-81198696D02*
X126240801Y-81155154D01*
X126240801Y-81155154D02*
X126284344Y-81111611D01*
X126284344Y-81111611D02*
X126284344Y-81198696D01*
X126676230Y-80371382D02*
X126719773Y-80327839D01*
X126719773Y-80327839D02*
X126806859Y-80284296D01*
X126806859Y-80284296D02*
X127024573Y-80284296D01*
X127024573Y-80284296D02*
X127111659Y-80327839D01*
X127111659Y-80327839D02*
X127155201Y-80371382D01*
X127155201Y-80371382D02*
X127198744Y-80458468D01*
X127198744Y-80458468D02*
X127198744Y-80545554D01*
X127198744Y-80545554D02*
X127155201Y-80676182D01*
X127155201Y-80676182D02*
X126632687Y-81198696D01*
X126632687Y-81198696D02*
X127198744Y-81198696D01*
X127590630Y-81198696D02*
X127590630Y-80284296D01*
X128113144Y-81198696D02*
X127721258Y-80676182D01*
X128113144Y-80284296D02*
X127590630Y-80806811D01*
X181357201Y-143448696D02*
X181052401Y-143013268D01*
X180834687Y-143448696D02*
X180834687Y-142534296D01*
X180834687Y-142534296D02*
X181183030Y-142534296D01*
X181183030Y-142534296D02*
X181270115Y-142577839D01*
X181270115Y-142577839D02*
X181313658Y-142621382D01*
X181313658Y-142621382D02*
X181357201Y-142708468D01*
X181357201Y-142708468D02*
X181357201Y-142839096D01*
X181357201Y-142839096D02*
X181313658Y-142926182D01*
X181313658Y-142926182D02*
X181270115Y-142969725D01*
X181270115Y-142969725D02*
X181183030Y-143013268D01*
X181183030Y-143013268D02*
X180834687Y-143013268D01*
X181879715Y-142926182D02*
X181792630Y-142882639D01*
X181792630Y-142882639D02*
X181749087Y-142839096D01*
X181749087Y-142839096D02*
X181705544Y-142752011D01*
X181705544Y-142752011D02*
X181705544Y-142708468D01*
X181705544Y-142708468D02*
X181749087Y-142621382D01*
X181749087Y-142621382D02*
X181792630Y-142577839D01*
X181792630Y-142577839D02*
X181879715Y-142534296D01*
X181879715Y-142534296D02*
X182053887Y-142534296D01*
X182053887Y-142534296D02*
X182140973Y-142577839D01*
X182140973Y-142577839D02*
X182184515Y-142621382D01*
X182184515Y-142621382D02*
X182228058Y-142708468D01*
X182228058Y-142708468D02*
X182228058Y-142752011D01*
X182228058Y-142752011D02*
X182184515Y-142839096D01*
X182184515Y-142839096D02*
X182140973Y-142882639D01*
X182140973Y-142882639D02*
X182053887Y-142926182D01*
X182053887Y-142926182D02*
X181879715Y-142926182D01*
X181879715Y-142926182D02*
X181792630Y-142969725D01*
X181792630Y-142969725D02*
X181749087Y-143013268D01*
X181749087Y-143013268D02*
X181705544Y-143100354D01*
X181705544Y-143100354D02*
X181705544Y-143274525D01*
X181705544Y-143274525D02*
X181749087Y-143361611D01*
X181749087Y-143361611D02*
X181792630Y-143405154D01*
X181792630Y-143405154D02*
X181879715Y-143448696D01*
X181879715Y-143448696D02*
X182053887Y-143448696D01*
X182053887Y-143448696D02*
X182140973Y-143405154D01*
X182140973Y-143405154D02*
X182184515Y-143361611D01*
X182184515Y-143361611D02*
X182228058Y-143274525D01*
X182228058Y-143274525D02*
X182228058Y-143100354D01*
X182228058Y-143100354D02*
X182184515Y-143013268D01*
X182184515Y-143013268D02*
X182140973Y-142969725D01*
X182140973Y-142969725D02*
X182053887Y-142926182D01*
X183334687Y-143100354D02*
X184031373Y-143100354D01*
X185642458Y-143448696D02*
X185119944Y-143448696D01*
X185381201Y-143448696D02*
X185381201Y-142534296D01*
X185381201Y-142534296D02*
X185294115Y-142664925D01*
X185294115Y-142664925D02*
X185207030Y-142752011D01*
X185207030Y-142752011D02*
X185119944Y-142795554D01*
X186208515Y-142534296D02*
X186295601Y-142534296D01*
X186295601Y-142534296D02*
X186382687Y-142577839D01*
X186382687Y-142577839D02*
X186426230Y-142621382D01*
X186426230Y-142621382D02*
X186469772Y-142708468D01*
X186469772Y-142708468D02*
X186513315Y-142882639D01*
X186513315Y-142882639D02*
X186513315Y-143100354D01*
X186513315Y-143100354D02*
X186469772Y-143274525D01*
X186469772Y-143274525D02*
X186426230Y-143361611D01*
X186426230Y-143361611D02*
X186382687Y-143405154D01*
X186382687Y-143405154D02*
X186295601Y-143448696D01*
X186295601Y-143448696D02*
X186208515Y-143448696D01*
X186208515Y-143448696D02*
X186121430Y-143405154D01*
X186121430Y-143405154D02*
X186077887Y-143361611D01*
X186077887Y-143361611D02*
X186034344Y-143274525D01*
X186034344Y-143274525D02*
X185990801Y-143100354D01*
X185990801Y-143100354D02*
X185990801Y-142882639D01*
X185990801Y-142882639D02*
X186034344Y-142708468D01*
X186034344Y-142708468D02*
X186077887Y-142621382D01*
X186077887Y-142621382D02*
X186121430Y-142577839D01*
X186121430Y-142577839D02*
X186208515Y-142534296D01*
X186905201Y-143448696D02*
X186905201Y-142534296D01*
X187427715Y-143448696D02*
X187035829Y-142926182D01*
X187427715Y-142534296D02*
X186905201Y-143056811D01*
X121107201Y-83698596D02*
X120802401Y-83263168D01*
X120584687Y-83698596D02*
X120584687Y-82784196D01*
X120584687Y-82784196D02*
X120933030Y-82784196D01*
X120933030Y-82784196D02*
X121020115Y-82827739D01*
X121020115Y-82827739D02*
X121063658Y-82871282D01*
X121063658Y-82871282D02*
X121107201Y-82958368D01*
X121107201Y-82958368D02*
X121107201Y-83088996D01*
X121107201Y-83088996D02*
X121063658Y-83176082D01*
X121063658Y-83176082D02*
X121020115Y-83219625D01*
X121020115Y-83219625D02*
X120933030Y-83263168D01*
X120933030Y-83263168D02*
X120584687Y-83263168D01*
X121455544Y-82871282D02*
X121499087Y-82827739D01*
X121499087Y-82827739D02*
X121586173Y-82784196D01*
X121586173Y-82784196D02*
X121803887Y-82784196D01*
X121803887Y-82784196D02*
X121890973Y-82827739D01*
X121890973Y-82827739D02*
X121934515Y-82871282D01*
X121934515Y-82871282D02*
X121978058Y-82958368D01*
X121978058Y-82958368D02*
X121978058Y-83045454D01*
X121978058Y-83045454D02*
X121934515Y-83176082D01*
X121934515Y-83176082D02*
X121412001Y-83698596D01*
X121412001Y-83698596D02*
X121978058Y-83698596D01*
X122544115Y-82784196D02*
X122631201Y-82784196D01*
X122631201Y-82784196D02*
X122718287Y-82827739D01*
X122718287Y-82827739D02*
X122761830Y-82871282D01*
X122761830Y-82871282D02*
X122805372Y-82958368D01*
X122805372Y-82958368D02*
X122848915Y-83132539D01*
X122848915Y-83132539D02*
X122848915Y-83350254D01*
X122848915Y-83350254D02*
X122805372Y-83524425D01*
X122805372Y-83524425D02*
X122761830Y-83611511D01*
X122761830Y-83611511D02*
X122718287Y-83655054D01*
X122718287Y-83655054D02*
X122631201Y-83698596D01*
X122631201Y-83698596D02*
X122544115Y-83698596D01*
X122544115Y-83698596D02*
X122457030Y-83655054D01*
X122457030Y-83655054D02*
X122413487Y-83611511D01*
X122413487Y-83611511D02*
X122369944Y-83524425D01*
X122369944Y-83524425D02*
X122326401Y-83350254D01*
X122326401Y-83350254D02*
X122326401Y-83132539D01*
X122326401Y-83132539D02*
X122369944Y-82958368D01*
X122369944Y-82958368D02*
X122413487Y-82871282D01*
X122413487Y-82871282D02*
X122457030Y-82827739D01*
X122457030Y-82827739D02*
X122544115Y-82784196D01*
X123584687Y-83350254D02*
X124281373Y-83350254D01*
X125892458Y-83698596D02*
X125369944Y-83698596D01*
X125631201Y-83698596D02*
X125631201Y-82784196D01*
X125631201Y-82784196D02*
X125544115Y-82914825D01*
X125544115Y-82914825D02*
X125457030Y-83001911D01*
X125457030Y-83001911D02*
X125369944Y-83045454D01*
X126284344Y-83611511D02*
X126327887Y-83655054D01*
X126327887Y-83655054D02*
X126284344Y-83698596D01*
X126284344Y-83698596D02*
X126240801Y-83655054D01*
X126240801Y-83655054D02*
X126284344Y-83611511D01*
X126284344Y-83611511D02*
X126284344Y-83698596D01*
X126676230Y-82871282D02*
X126719773Y-82827739D01*
X126719773Y-82827739D02*
X126806859Y-82784196D01*
X126806859Y-82784196D02*
X127024573Y-82784196D01*
X127024573Y-82784196D02*
X127111659Y-82827739D01*
X127111659Y-82827739D02*
X127155201Y-82871282D01*
X127155201Y-82871282D02*
X127198744Y-82958368D01*
X127198744Y-82958368D02*
X127198744Y-83045454D01*
X127198744Y-83045454D02*
X127155201Y-83176082D01*
X127155201Y-83176082D02*
X126632687Y-83698596D01*
X126632687Y-83698596D02*
X127198744Y-83698596D01*
X127590630Y-83698596D02*
X127590630Y-82784196D01*
X128113144Y-83698596D02*
X127721258Y-83176082D01*
X128113144Y-82784196D02*
X127590630Y-83306711D01*
X121107201Y-98698496D02*
X120802401Y-98263068D01*
X120584687Y-98698496D02*
X120584687Y-97784096D01*
X120584687Y-97784096D02*
X120933030Y-97784096D01*
X120933030Y-97784096D02*
X121020115Y-97827639D01*
X121020115Y-97827639D02*
X121063658Y-97871182D01*
X121063658Y-97871182D02*
X121107201Y-97958268D01*
X121107201Y-97958268D02*
X121107201Y-98088896D01*
X121107201Y-98088896D02*
X121063658Y-98175982D01*
X121063658Y-98175982D02*
X121020115Y-98219525D01*
X121020115Y-98219525D02*
X120933030Y-98263068D01*
X120933030Y-98263068D02*
X120584687Y-98263068D01*
X121978058Y-98698496D02*
X121455544Y-98698496D01*
X121716801Y-98698496D02*
X121716801Y-97784096D01*
X121716801Y-97784096D02*
X121629715Y-97914725D01*
X121629715Y-97914725D02*
X121542630Y-98001811D01*
X121542630Y-98001811D02*
X121455544Y-98045354D01*
X122761830Y-98088896D02*
X122761830Y-98698496D01*
X122544115Y-97740554D02*
X122326401Y-98393696D01*
X122326401Y-98393696D02*
X122892458Y-98393696D01*
X123584687Y-98350254D02*
X124281373Y-98350254D01*
X125892458Y-98698596D02*
X125369944Y-98698596D01*
X125631201Y-98698596D02*
X125631201Y-97784196D01*
X125631201Y-97784196D02*
X125544115Y-97914825D01*
X125544115Y-97914825D02*
X125457030Y-98001911D01*
X125457030Y-98001911D02*
X125369944Y-98045454D01*
X126284344Y-98611511D02*
X126327887Y-98655054D01*
X126327887Y-98655054D02*
X126284344Y-98698596D01*
X126284344Y-98698596D02*
X126240801Y-98655054D01*
X126240801Y-98655054D02*
X126284344Y-98611511D01*
X126284344Y-98611511D02*
X126284344Y-98698596D01*
X126676230Y-97871282D02*
X126719773Y-97827739D01*
X126719773Y-97827739D02*
X126806859Y-97784196D01*
X126806859Y-97784196D02*
X127024573Y-97784196D01*
X127024573Y-97784196D02*
X127111659Y-97827739D01*
X127111659Y-97827739D02*
X127155201Y-97871282D01*
X127155201Y-97871282D02*
X127198744Y-97958368D01*
X127198744Y-97958368D02*
X127198744Y-98045454D01*
X127198744Y-98045454D02*
X127155201Y-98176082D01*
X127155201Y-98176082D02*
X126632687Y-98698596D01*
X126632687Y-98698596D02*
X127198744Y-98698596D01*
X127590630Y-98698596D02*
X127590630Y-97784196D01*
X128113144Y-98698596D02*
X127721258Y-98176082D01*
X128113144Y-97784196D02*
X127590630Y-98306711D01*
X121107201Y-101198596D02*
X120802401Y-100763168D01*
X120584687Y-101198596D02*
X120584687Y-100284196D01*
X120584687Y-100284196D02*
X120933030Y-100284196D01*
X120933030Y-100284196D02*
X121020115Y-100327739D01*
X121020115Y-100327739D02*
X121063658Y-100371282D01*
X121063658Y-100371282D02*
X121107201Y-100458368D01*
X121107201Y-100458368D02*
X121107201Y-100588996D01*
X121107201Y-100588996D02*
X121063658Y-100676082D01*
X121063658Y-100676082D02*
X121020115Y-100719625D01*
X121020115Y-100719625D02*
X120933030Y-100763168D01*
X120933030Y-100763168D02*
X120584687Y-100763168D01*
X121978058Y-101198596D02*
X121455544Y-101198596D01*
X121716801Y-101198596D02*
X121716801Y-100284196D01*
X121716801Y-100284196D02*
X121629715Y-100414825D01*
X121629715Y-100414825D02*
X121542630Y-100501911D01*
X121542630Y-100501911D02*
X121455544Y-100545454D01*
X122282858Y-100284196D02*
X122848915Y-100284196D01*
X122848915Y-100284196D02*
X122544115Y-100632539D01*
X122544115Y-100632539D02*
X122674744Y-100632539D01*
X122674744Y-100632539D02*
X122761830Y-100676082D01*
X122761830Y-100676082D02*
X122805372Y-100719625D01*
X122805372Y-100719625D02*
X122848915Y-100806711D01*
X122848915Y-100806711D02*
X122848915Y-101024425D01*
X122848915Y-101024425D02*
X122805372Y-101111511D01*
X122805372Y-101111511D02*
X122761830Y-101155054D01*
X122761830Y-101155054D02*
X122674744Y-101198596D01*
X122674744Y-101198596D02*
X122413487Y-101198596D01*
X122413487Y-101198596D02*
X122326401Y-101155054D01*
X122326401Y-101155054D02*
X122282858Y-101111511D01*
X123584687Y-100850354D02*
X124281373Y-100850354D01*
X125892458Y-101198696D02*
X125369944Y-101198696D01*
X125631201Y-101198696D02*
X125631201Y-100284296D01*
X125631201Y-100284296D02*
X125544115Y-100414925D01*
X125544115Y-100414925D02*
X125457030Y-100502011D01*
X125457030Y-100502011D02*
X125369944Y-100545554D01*
X126284344Y-101111611D02*
X126327887Y-101155154D01*
X126327887Y-101155154D02*
X126284344Y-101198696D01*
X126284344Y-101198696D02*
X126240801Y-101155154D01*
X126240801Y-101155154D02*
X126284344Y-101111611D01*
X126284344Y-101111611D02*
X126284344Y-101198696D01*
X126676230Y-100371382D02*
X126719773Y-100327839D01*
X126719773Y-100327839D02*
X126806859Y-100284296D01*
X126806859Y-100284296D02*
X127024573Y-100284296D01*
X127024573Y-100284296D02*
X127111659Y-100327839D01*
X127111659Y-100327839D02*
X127155201Y-100371382D01*
X127155201Y-100371382D02*
X127198744Y-100458468D01*
X127198744Y-100458468D02*
X127198744Y-100545554D01*
X127198744Y-100545554D02*
X127155201Y-100676182D01*
X127155201Y-100676182D02*
X126632687Y-101198696D01*
X126632687Y-101198696D02*
X127198744Y-101198696D01*
X127590630Y-101198696D02*
X127590630Y-100284296D01*
X128113144Y-101198696D02*
X127721258Y-100676182D01*
X128113144Y-100284296D02*
X127590630Y-100806811D01*
X121107201Y-93698496D02*
X120802401Y-93263068D01*
X120584687Y-93698496D02*
X120584687Y-92784096D01*
X120584687Y-92784096D02*
X120933030Y-92784096D01*
X120933030Y-92784096D02*
X121020115Y-92827639D01*
X121020115Y-92827639D02*
X121063658Y-92871182D01*
X121063658Y-92871182D02*
X121107201Y-92958268D01*
X121107201Y-92958268D02*
X121107201Y-93088896D01*
X121107201Y-93088896D02*
X121063658Y-93175982D01*
X121063658Y-93175982D02*
X121020115Y-93219525D01*
X121020115Y-93219525D02*
X120933030Y-93263068D01*
X120933030Y-93263068D02*
X120584687Y-93263068D01*
X121978058Y-93698496D02*
X121455544Y-93698496D01*
X121716801Y-93698496D02*
X121716801Y-92784096D01*
X121716801Y-92784096D02*
X121629715Y-92914725D01*
X121629715Y-92914725D02*
X121542630Y-93001811D01*
X121542630Y-93001811D02*
X121455544Y-93045354D01*
X122761830Y-92784096D02*
X122587658Y-92784096D01*
X122587658Y-92784096D02*
X122500572Y-92827639D01*
X122500572Y-92827639D02*
X122457030Y-92871182D01*
X122457030Y-92871182D02*
X122369944Y-93001811D01*
X122369944Y-93001811D02*
X122326401Y-93175982D01*
X122326401Y-93175982D02*
X122326401Y-93524325D01*
X122326401Y-93524325D02*
X122369944Y-93611411D01*
X122369944Y-93611411D02*
X122413487Y-93654954D01*
X122413487Y-93654954D02*
X122500572Y-93698496D01*
X122500572Y-93698496D02*
X122674744Y-93698496D01*
X122674744Y-93698496D02*
X122761830Y-93654954D01*
X122761830Y-93654954D02*
X122805372Y-93611411D01*
X122805372Y-93611411D02*
X122848915Y-93524325D01*
X122848915Y-93524325D02*
X122848915Y-93306611D01*
X122848915Y-93306611D02*
X122805372Y-93219525D01*
X122805372Y-93219525D02*
X122761830Y-93175982D01*
X122761830Y-93175982D02*
X122674744Y-93132439D01*
X122674744Y-93132439D02*
X122500572Y-93132439D01*
X122500572Y-93132439D02*
X122413487Y-93175982D01*
X122413487Y-93175982D02*
X122369944Y-93219525D01*
X122369944Y-93219525D02*
X122326401Y-93306611D01*
X123584687Y-93350254D02*
X124281373Y-93350254D01*
X125892458Y-93698596D02*
X125369944Y-93698596D01*
X125631201Y-93698596D02*
X125631201Y-92784196D01*
X125631201Y-92784196D02*
X125544115Y-92914825D01*
X125544115Y-92914825D02*
X125457030Y-93001911D01*
X125457030Y-93001911D02*
X125369944Y-93045454D01*
X126284344Y-93611511D02*
X126327887Y-93655054D01*
X126327887Y-93655054D02*
X126284344Y-93698596D01*
X126284344Y-93698596D02*
X126240801Y-93655054D01*
X126240801Y-93655054D02*
X126284344Y-93611511D01*
X126284344Y-93611511D02*
X126284344Y-93698596D01*
X126676230Y-92871282D02*
X126719773Y-92827739D01*
X126719773Y-92827739D02*
X126806859Y-92784196D01*
X126806859Y-92784196D02*
X127024573Y-92784196D01*
X127024573Y-92784196D02*
X127111659Y-92827739D01*
X127111659Y-92827739D02*
X127155201Y-92871282D01*
X127155201Y-92871282D02*
X127198744Y-92958368D01*
X127198744Y-92958368D02*
X127198744Y-93045454D01*
X127198744Y-93045454D02*
X127155201Y-93176082D01*
X127155201Y-93176082D02*
X126632687Y-93698596D01*
X126632687Y-93698596D02*
X127198744Y-93698596D01*
X127590630Y-93698596D02*
X127590630Y-92784196D01*
X128113144Y-93698596D02*
X127721258Y-93176082D01*
X128113144Y-92784196D02*
X127590630Y-93306711D01*
X121107201Y-91198696D02*
X120802401Y-90763268D01*
X120584687Y-91198696D02*
X120584687Y-90284296D01*
X120584687Y-90284296D02*
X120933030Y-90284296D01*
X120933030Y-90284296D02*
X121020115Y-90327839D01*
X121020115Y-90327839D02*
X121063658Y-90371382D01*
X121063658Y-90371382D02*
X121107201Y-90458468D01*
X121107201Y-90458468D02*
X121107201Y-90589096D01*
X121107201Y-90589096D02*
X121063658Y-90676182D01*
X121063658Y-90676182D02*
X121020115Y-90719725D01*
X121020115Y-90719725D02*
X120933030Y-90763268D01*
X120933030Y-90763268D02*
X120584687Y-90763268D01*
X121978058Y-91198696D02*
X121455544Y-91198696D01*
X121716801Y-91198696D02*
X121716801Y-90284296D01*
X121716801Y-90284296D02*
X121629715Y-90414925D01*
X121629715Y-90414925D02*
X121542630Y-90502011D01*
X121542630Y-90502011D02*
X121455544Y-90545554D01*
X122282858Y-90284296D02*
X122892458Y-90284296D01*
X122892458Y-90284296D02*
X122500572Y-91198696D01*
X123584687Y-90850354D02*
X124281373Y-90850354D01*
X125892458Y-91198696D02*
X125369944Y-91198696D01*
X125631201Y-91198696D02*
X125631201Y-90284296D01*
X125631201Y-90284296D02*
X125544115Y-90414925D01*
X125544115Y-90414925D02*
X125457030Y-90502011D01*
X125457030Y-90502011D02*
X125369944Y-90545554D01*
X126284344Y-91111611D02*
X126327887Y-91155154D01*
X126327887Y-91155154D02*
X126284344Y-91198696D01*
X126284344Y-91198696D02*
X126240801Y-91155154D01*
X126240801Y-91155154D02*
X126284344Y-91111611D01*
X126284344Y-91111611D02*
X126284344Y-91198696D01*
X126676230Y-90371382D02*
X126719773Y-90327839D01*
X126719773Y-90327839D02*
X126806859Y-90284296D01*
X126806859Y-90284296D02*
X127024573Y-90284296D01*
X127024573Y-90284296D02*
X127111659Y-90327839D01*
X127111659Y-90327839D02*
X127155201Y-90371382D01*
X127155201Y-90371382D02*
X127198744Y-90458468D01*
X127198744Y-90458468D02*
X127198744Y-90545554D01*
X127198744Y-90545554D02*
X127155201Y-90676182D01*
X127155201Y-90676182D02*
X126632687Y-91198696D01*
X126632687Y-91198696D02*
X127198744Y-91198696D01*
X127590630Y-91198696D02*
X127590630Y-90284296D01*
X128113144Y-91198696D02*
X127721258Y-90676182D01*
X128113144Y-90284296D02*
X127590630Y-90806811D01*
X110857201Y-152948696D02*
X110552401Y-152513268D01*
X110334687Y-152948696D02*
X110334687Y-152034296D01*
X110334687Y-152034296D02*
X110683030Y-152034296D01*
X110683030Y-152034296D02*
X110770115Y-152077839D01*
X110770115Y-152077839D02*
X110813658Y-152121382D01*
X110813658Y-152121382D02*
X110857201Y-152208468D01*
X110857201Y-152208468D02*
X110857201Y-152339096D01*
X110857201Y-152339096D02*
X110813658Y-152426182D01*
X110813658Y-152426182D02*
X110770115Y-152469725D01*
X110770115Y-152469725D02*
X110683030Y-152513268D01*
X110683030Y-152513268D02*
X110334687Y-152513268D01*
X111684515Y-152034296D02*
X111249087Y-152034296D01*
X111249087Y-152034296D02*
X111205544Y-152469725D01*
X111205544Y-152469725D02*
X111249087Y-152426182D01*
X111249087Y-152426182D02*
X111336173Y-152382639D01*
X111336173Y-152382639D02*
X111553887Y-152382639D01*
X111553887Y-152382639D02*
X111640973Y-152426182D01*
X111640973Y-152426182D02*
X111684515Y-152469725D01*
X111684515Y-152469725D02*
X111728058Y-152556811D01*
X111728058Y-152556811D02*
X111728058Y-152774525D01*
X111728058Y-152774525D02*
X111684515Y-152861611D01*
X111684515Y-152861611D02*
X111640973Y-152905154D01*
X111640973Y-152905154D02*
X111553887Y-152948696D01*
X111553887Y-152948696D02*
X111336173Y-152948696D01*
X111336173Y-152948696D02*
X111249087Y-152905154D01*
X111249087Y-152905154D02*
X111205544Y-152861611D01*
X112834687Y-152600354D02*
X113531373Y-152600354D01*
X115142458Y-152948696D02*
X114619944Y-152948696D01*
X114881201Y-152948696D02*
X114881201Y-152034296D01*
X114881201Y-152034296D02*
X114794115Y-152164925D01*
X114794115Y-152164925D02*
X114707030Y-152252011D01*
X114707030Y-152252011D02*
X114619944Y-152295554D01*
X115708515Y-152034296D02*
X115795601Y-152034296D01*
X115795601Y-152034296D02*
X115882687Y-152077839D01*
X115882687Y-152077839D02*
X115926230Y-152121382D01*
X115926230Y-152121382D02*
X115969772Y-152208468D01*
X115969772Y-152208468D02*
X116013315Y-152382639D01*
X116013315Y-152382639D02*
X116013315Y-152600354D01*
X116013315Y-152600354D02*
X115969772Y-152774525D01*
X115969772Y-152774525D02*
X115926230Y-152861611D01*
X115926230Y-152861611D02*
X115882687Y-152905154D01*
X115882687Y-152905154D02*
X115795601Y-152948696D01*
X115795601Y-152948696D02*
X115708515Y-152948696D01*
X115708515Y-152948696D02*
X115621430Y-152905154D01*
X115621430Y-152905154D02*
X115577887Y-152861611D01*
X115577887Y-152861611D02*
X115534344Y-152774525D01*
X115534344Y-152774525D02*
X115490801Y-152600354D01*
X115490801Y-152600354D02*
X115490801Y-152382639D01*
X115490801Y-152382639D02*
X115534344Y-152208468D01*
X115534344Y-152208468D02*
X115577887Y-152121382D01*
X115577887Y-152121382D02*
X115621430Y-152077839D01*
X115621430Y-152077839D02*
X115708515Y-152034296D01*
X116405201Y-152948696D02*
X116405201Y-152034296D01*
X116927715Y-152948696D02*
X116535829Y-152426182D01*
X116927715Y-152034296D02*
X116405201Y-152556811D01*
X136607201Y-111611611D02*
X136563658Y-111655154D01*
X136563658Y-111655154D02*
X136433030Y-111698696D01*
X136433030Y-111698696D02*
X136345944Y-111698696D01*
X136345944Y-111698696D02*
X136215315Y-111655154D01*
X136215315Y-111655154D02*
X136128230Y-111568068D01*
X136128230Y-111568068D02*
X136084687Y-111480982D01*
X136084687Y-111480982D02*
X136041144Y-111306811D01*
X136041144Y-111306811D02*
X136041144Y-111176182D01*
X136041144Y-111176182D02*
X136084687Y-111002011D01*
X136084687Y-111002011D02*
X136128230Y-110914925D01*
X136128230Y-110914925D02*
X136215315Y-110827839D01*
X136215315Y-110827839D02*
X136345944Y-110784296D01*
X136345944Y-110784296D02*
X136433030Y-110784296D01*
X136433030Y-110784296D02*
X136563658Y-110827839D01*
X136563658Y-110827839D02*
X136607201Y-110871382D01*
X136912001Y-110784296D02*
X137478058Y-110784296D01*
X137478058Y-110784296D02*
X137173258Y-111132639D01*
X137173258Y-111132639D02*
X137303887Y-111132639D01*
X137303887Y-111132639D02*
X137390973Y-111176182D01*
X137390973Y-111176182D02*
X137434515Y-111219725D01*
X137434515Y-111219725D02*
X137478058Y-111306811D01*
X137478058Y-111306811D02*
X137478058Y-111524525D01*
X137478058Y-111524525D02*
X137434515Y-111611611D01*
X137434515Y-111611611D02*
X137390973Y-111655154D01*
X137390973Y-111655154D02*
X137303887Y-111698696D01*
X137303887Y-111698696D02*
X137042630Y-111698696D01*
X137042630Y-111698696D02*
X136955544Y-111655154D01*
X136955544Y-111655154D02*
X136912001Y-111611611D01*
%TO.C,U6*%
D10*
X112400000Y-66201900D02*
X112680700Y-66201900D01*
X112400000Y-68401800D02*
X112400000Y-66201900D01*
X112400000Y-72599900D02*
X112400000Y-70400000D01*
X112400000Y-72599900D02*
X112679300Y-72599900D01*
X114339300Y-66201900D02*
X115220700Y-66201900D01*
X114340700Y-72599900D02*
X115219300Y-72599900D01*
X116879300Y-66201900D02*
X117760700Y-66201900D01*
X116880700Y-72599900D02*
X117759300Y-72599900D01*
X119419300Y-66201900D02*
X120300700Y-66201900D01*
X119420700Y-72599900D02*
X120299300Y-72599900D01*
X121959300Y-66201900D02*
X122840700Y-66201900D01*
X121960700Y-72599900D02*
X122839300Y-72599900D01*
X124499300Y-66201900D02*
X125380700Y-66201900D01*
X124500700Y-72599900D02*
X125379300Y-72599900D01*
X127039300Y-66201900D02*
X127920700Y-66201900D01*
X127040700Y-72599900D02*
X127919300Y-72599900D01*
X129579300Y-66201900D02*
X130460700Y-66201900D01*
X129580700Y-72599900D02*
X130459300Y-72599900D01*
X132119300Y-66201900D02*
X132400000Y-66201900D01*
X132120700Y-72599900D02*
X132400000Y-72599900D01*
X132400000Y-72599900D02*
X132400000Y-66200100D01*
X112400000Y-68400000D02*
G75*
G02*
X112450100Y-70399999I24999J-1000001D01*
G01*
X113850400Y-71599700D02*
G75*
G02*
X113250400Y-71599700I-300000J0D01*
G01*
X113250400Y-71599700D02*
G75*
G02*
X113850400Y-71599700I300000J0D01*
G01*
%TO.C,C-MAIN*%
X165270000Y-74532000D02*
X165270000Y-73516000D01*
X165778000Y-74024000D02*
X164762000Y-74024000D01*
X167149200Y-72499800D02*
G75*
G02*
X160850000Y-72499800I-3149600J0D01*
G01*
X160850000Y-72499800D02*
G75*
G02*
X167149200Y-72499800I3149600J0D01*
G01*
%TO.C,R12*%
X117750200Y-102037500D02*
X117750200Y-104539400D01*
X117750200Y-104539400D02*
X130749900Y-104539400D01*
X130749900Y-102037500D02*
X117750200Y-102037500D01*
X130749900Y-104287900D02*
X130749900Y-102037500D01*
X130749900Y-104539400D02*
X130749900Y-104287900D01*
%TO.C,C1*%
X181539400Y-102200600D02*
X181539400Y-104699900D01*
X181539400Y-104699900D02*
X189037500Y-104699900D01*
X188788500Y-102200600D02*
X181539400Y-102200600D01*
X189037500Y-102200600D02*
X188788500Y-102200600D01*
X189037500Y-104699900D02*
X189037500Y-102200600D01*
%TO.C,U2*%
X166300000Y-109483200D02*
X166300000Y-107386500D01*
X166300000Y-111515200D02*
X166300000Y-113613500D01*
X167886800Y-113420200D02*
X169033200Y-113420200D01*
X167888800Y-107578200D02*
X169031200Y-107578200D01*
X170426800Y-113420200D02*
X171573200Y-113420200D01*
X170428800Y-107578200D02*
X171571200Y-107578200D01*
X172966800Y-113420200D02*
X174113200Y-113420200D01*
X172968800Y-107578200D02*
X174111200Y-107578200D01*
X175700000Y-107386500D02*
X175700000Y-113613500D01*
X166300000Y-109483200D02*
G75*
G02*
X166300000Y-111515200I0J-1016000D01*
G01*
%TO.C,C5*%
X134050000Y-66039400D02*
X134050000Y-73537500D01*
X134050000Y-73537500D02*
X136549300Y-73537500D01*
X136549300Y-66039400D02*
X134050000Y-66039400D01*
X136549300Y-73288500D02*
X136549300Y-66039400D01*
X136549300Y-73537500D02*
X136549300Y-73288500D01*
%TO.C,R7*%
X155499900Y-141787400D02*
X155499900Y-144289300D01*
X155499900Y-144289300D02*
X168499600Y-144289300D01*
X168499600Y-141787400D02*
X155499900Y-141787400D01*
X168499600Y-144037800D02*
X168499600Y-141787400D01*
X168499600Y-144289300D02*
X168499600Y-144037800D01*
%TO.C,R15*%
X117750200Y-94537500D02*
X117750200Y-97039400D01*
X117750200Y-97039400D02*
X130749900Y-97039400D01*
X130749900Y-94537500D02*
X117750200Y-94537500D01*
X130749900Y-96787900D02*
X130749900Y-94537500D01*
X130749900Y-97039400D02*
X130749900Y-96787900D01*
%TO.C,C2*%
X166539400Y-102200600D02*
X166539400Y-104699900D01*
X166539400Y-104699900D02*
X174037500Y-104699900D01*
X173788500Y-102200600D02*
X166539400Y-102200600D01*
X174037500Y-102200600D02*
X173788500Y-102200600D01*
X174037500Y-104699900D02*
X174037500Y-102200600D01*
%TO.C,R18*%
X117750200Y-87037500D02*
X117750200Y-89539400D01*
X117750200Y-89539400D02*
X130749900Y-89539400D01*
X130749900Y-87037500D02*
X117750200Y-87037500D01*
X130749900Y-89287900D02*
X130749900Y-87037500D01*
X130749900Y-89539400D02*
X130749900Y-89287900D01*
%TO.C,C6*%
X108850100Y-66239400D02*
X108850100Y-73737500D01*
X108850100Y-73737500D02*
X111349400Y-73737500D01*
X111349400Y-66239400D02*
X108850100Y-66239400D01*
X111349400Y-73488500D02*
X111349400Y-66239400D01*
X111349400Y-73737500D02*
X111349400Y-73488500D01*
%TO.C,R4*%
X107250200Y-132787500D02*
X107250200Y-135289400D01*
X107250200Y-135289400D02*
X120249900Y-135289400D01*
X120249900Y-132787500D02*
X107250200Y-132787500D01*
X120249900Y-135037900D02*
X120249900Y-132787500D01*
X120249900Y-135289400D02*
X120249900Y-135037900D01*
%TO.C,R6*%
X133499900Y-141787400D02*
X133499900Y-144289300D01*
X133499900Y-144289300D02*
X146499600Y-144289300D01*
X146499600Y-141787400D02*
X133499900Y-141787400D01*
X146499600Y-144037800D02*
X146499600Y-141787400D01*
X146499600Y-144289300D02*
X146499600Y-144037800D01*
%TO.C,R2*%
X155250200Y-81537500D02*
X155250200Y-84039400D01*
X155250200Y-84039400D02*
X168249900Y-84039400D01*
X168249900Y-81537500D02*
X155250200Y-81537500D01*
X168249900Y-83787900D02*
X168249900Y-81537500D01*
X168249900Y-84039400D02*
X168249900Y-83787900D01*
%TO.C,R19*%
X117750200Y-84537500D02*
X117750200Y-87039400D01*
X117750200Y-87039400D02*
X130749900Y-87039400D01*
X130749900Y-84537500D02*
X117750200Y-84537500D01*
X130749900Y-86787900D02*
X130749900Y-84537500D01*
X130749900Y-87039400D02*
X130749900Y-86787900D01*
%TO.C,R3*%
X133500200Y-81537500D02*
X133500200Y-84039400D01*
X133500200Y-84039400D02*
X146499900Y-84039400D01*
X146499900Y-81537500D02*
X133500200Y-81537500D01*
X146499900Y-83787900D02*
X146499900Y-81537500D01*
X146499900Y-84039400D02*
X146499900Y-83787900D01*
%TO.C,U3*%
X138999900Y-107601800D02*
X139280600Y-107601800D01*
X138999900Y-109801700D02*
X138999900Y-107601800D01*
X138999900Y-113999800D02*
X138999900Y-111799900D01*
X138999900Y-113999800D02*
X139279200Y-113999800D01*
X140939200Y-107601800D02*
X141820600Y-107601800D01*
X140940600Y-113999800D02*
X141819200Y-113999800D01*
X143479200Y-107601800D02*
X144360600Y-107601800D01*
X143480600Y-113999800D02*
X144359200Y-113999800D01*
X146019200Y-107601800D02*
X146900600Y-107601800D01*
X146020600Y-113999800D02*
X146899200Y-113999800D01*
X148559200Y-107601800D02*
X149440600Y-107601800D01*
X148560600Y-113999800D02*
X149439200Y-113999800D01*
X151099200Y-107601800D02*
X151980600Y-107601800D01*
X151100600Y-113999800D02*
X151979200Y-113999800D01*
X153639200Y-107601800D02*
X154520600Y-107601800D01*
X153640600Y-113999800D02*
X154519200Y-113999800D01*
X156179200Y-107601800D02*
X157060600Y-107601800D01*
X156180600Y-113999800D02*
X157059200Y-113999800D01*
X158719200Y-107601800D02*
X158999900Y-107601800D01*
X158720600Y-113999800D02*
X158999900Y-113999800D01*
X158999900Y-113999800D02*
X158999900Y-107600000D01*
X138999900Y-109799900D02*
G75*
G02*
X139050000Y-111799899I24999J-1000001D01*
G01*
X140450300Y-112999400D02*
G75*
G02*
X139850300Y-112999400I-300000J0D01*
G01*
X139850300Y-112999400D02*
G75*
G02*
X140450300Y-112999400I300000J0D01*
G01*
%TO.C,R1*%
X177250200Y-81537500D02*
X177250200Y-84039400D01*
X177250200Y-84039400D02*
X190249900Y-84039400D01*
X190249900Y-81537500D02*
X177250200Y-81537500D01*
X190249900Y-83787900D02*
X190249900Y-81537500D01*
X190249900Y-84039400D02*
X190249900Y-83787900D01*
%TO.C,U1*%
X181300000Y-109483300D02*
X181300000Y-107386600D01*
X181300000Y-111515300D02*
X181300000Y-113613600D01*
X182886800Y-113420300D02*
X184033200Y-113420300D01*
X182888800Y-107578300D02*
X184031200Y-107578300D01*
X185426800Y-113420300D02*
X186573200Y-113420300D01*
X185428800Y-107578300D02*
X186571200Y-107578300D01*
X187966800Y-113420300D02*
X189113200Y-113420300D01*
X187968800Y-107578300D02*
X189111200Y-107578300D01*
X190700000Y-107386600D02*
X190700000Y-113613600D01*
X181300000Y-109483300D02*
G75*
G02*
X181300000Y-111515300I0J-1016000D01*
G01*
%TO.C,U5*%
X137599900Y-66201900D02*
X137880600Y-66201900D01*
X137599900Y-68401800D02*
X137599900Y-66201900D01*
X137599900Y-72599900D02*
X137599900Y-70400000D01*
X137599900Y-72599900D02*
X137879200Y-72599900D01*
X139539200Y-66201900D02*
X140420600Y-66201900D01*
X139540600Y-72599900D02*
X140419200Y-72599900D01*
X142079200Y-66201900D02*
X142960600Y-66201900D01*
X142080600Y-72599900D02*
X142959200Y-72599900D01*
X144619200Y-66201900D02*
X145500600Y-66201900D01*
X144620600Y-72599900D02*
X145499200Y-72599900D01*
X147159200Y-66201900D02*
X148040600Y-66201900D01*
X147160600Y-72599900D02*
X148039200Y-72599900D01*
X149699200Y-66201900D02*
X150580600Y-66201900D01*
X149700600Y-72599900D02*
X150579200Y-72599900D01*
X152239200Y-66201900D02*
X153120600Y-66201900D01*
X152240600Y-72599900D02*
X153119200Y-72599900D01*
X154779200Y-66201900D02*
X155660600Y-66201900D01*
X154780600Y-72599900D02*
X155659200Y-72599900D01*
X157319200Y-66201900D02*
X157599900Y-66201900D01*
X157320600Y-72599900D02*
X157599900Y-72599900D01*
X157599900Y-72599900D02*
X157599900Y-66200100D01*
X137599900Y-68400000D02*
G75*
G02*
X137650000Y-70399999I24999J-1000001D01*
G01*
X139050000Y-71599700D02*
G75*
G02*
X138450000Y-71599700I-300000J0D01*
G01*
X138450000Y-71599700D02*
G75*
G02*
X139050000Y-71599700I300000J0D01*
G01*
%TO.C,R21*%
X117750200Y-79537500D02*
X117750200Y-82039400D01*
X117750200Y-82039400D02*
X130749900Y-82039400D01*
X130749900Y-79537500D02*
X117750200Y-79537500D01*
X130749900Y-81787900D02*
X130749900Y-79537500D01*
X130749900Y-82039400D02*
X130749900Y-81787900D01*
%TO.C,R8*%
X177500000Y-141787400D02*
X177500000Y-144289300D01*
X177500000Y-144289300D02*
X190499700Y-144289300D01*
X190499700Y-141787400D02*
X177500000Y-141787400D01*
X190499700Y-144037800D02*
X190499700Y-141787400D01*
X190499700Y-144289300D02*
X190499700Y-144037800D01*
%TO.C,R20*%
X117750200Y-82037500D02*
X117750200Y-84539400D01*
X117750200Y-84539400D02*
X130749900Y-84539400D01*
X130749900Y-82037500D02*
X117750200Y-82037500D01*
X130749900Y-84287900D02*
X130749900Y-82037500D01*
X130749900Y-84539400D02*
X130749900Y-84287900D01*
%TO.C,R14*%
X117750200Y-97037500D02*
X117750200Y-99539400D01*
X117750200Y-99539400D02*
X130749900Y-99539400D01*
X130749900Y-97037500D02*
X117750200Y-97037500D01*
X130749900Y-99287900D02*
X130749900Y-97037500D01*
X130749900Y-99539400D02*
X130749900Y-99287900D01*
%TO.C,R13*%
X117750200Y-99537500D02*
X117750200Y-102039400D01*
X117750200Y-102039400D02*
X130749900Y-102039400D01*
X130749900Y-99537500D02*
X117750200Y-99537500D01*
X130749900Y-101787900D02*
X130749900Y-99537500D01*
X130749900Y-102039400D02*
X130749900Y-101787900D01*
%TO.C,R16*%
X117750200Y-92037500D02*
X117750200Y-94539400D01*
X117750200Y-94539400D02*
X130749900Y-94539400D01*
X130749900Y-92037500D02*
X117750200Y-92037500D01*
X130749900Y-94287900D02*
X130749900Y-92037500D01*
X130749900Y-94539400D02*
X130749900Y-94287900D01*
%TO.C,R17*%
X117750200Y-89537500D02*
X117750200Y-92039400D01*
X117750200Y-92039400D02*
X130749900Y-92039400D01*
X130749900Y-89537500D02*
X117750200Y-89537500D01*
X130749900Y-91787900D02*
X130749900Y-89537500D01*
X130749900Y-92039400D02*
X130749900Y-91787900D01*
%TO.C,R5*%
X107000200Y-151287500D02*
X107000200Y-153789400D01*
X107000200Y-153789400D02*
X119999900Y-153789400D01*
X119999900Y-151287500D02*
X107000200Y-151287500D01*
X119999900Y-153537900D02*
X119999900Y-151287500D01*
X119999900Y-153789400D02*
X119999900Y-153537900D01*
%TO.C,C3*%
X135450000Y-107439300D02*
X135450000Y-114937400D01*
X135450000Y-114937400D02*
X137949300Y-114937400D01*
X137949300Y-107439300D02*
X135450000Y-107439300D01*
X137949300Y-114688400D02*
X137949300Y-107439300D01*
X137949300Y-114937400D02*
X137949300Y-114688400D01*
%TD*%
M02*
