%TF.GenerationSoftware,KiCad,Pcbnew,10.0.6*%
%TF.CreationDate,2026-09-23T18:15:48+08:00*%
%TF.ProjectId,Utility_Time_Module,5574696c-6974-4795-9f54-696d655f4d6f,1.7.1*%
%TF.SameCoordinates,Original*%
%TF.FileFunction,Copper,L1,Top*%
%TF.FilePolarity,Positive*%
%FSLAX46Y46*%
G04 Gerber Fmt 4.6, Leading zero omitted, Abs format (unit mm)*
G04 Created by KiCad (PCBNEW 10.0.6) date 2026-09-23 18:15:48*
%MOMM*%
%LPD*%
G01*
G04 APERTURE LIST*
%TA.AperFunction,ComponentPad*%
%ADD10R,1.600000X1.600000*%
%TD*%
%TA.AperFunction,ComponentPad*%
%ADD11R,1.524000X1.524000*%
%TD*%
%TA.AperFunction,ComponentPad*%
%ADD12R,1.800000X1.800000*%
%TD*%
%TA.AperFunction,ComponentPad*%
%ADD13R,0.999900X1.000000*%
%TD*%
%TA.AperFunction,ComponentPad*%
%ADD14R,1.300000X1.300000*%
%TD*%
%TA.AperFunction,ComponentPad*%
%ADD15R,1.000000X1.000000*%
%TD*%
%TA.AperFunction,ComponentPad*%
%ADD16R,1.300100X1.300000*%
%TD*%
%TA.AperFunction,ViaPad*%
%ADD17C,0.609600*%
%TD*%
%TA.AperFunction,Conductor*%
%ADD18C,0.254000*%
%TD*%
%TA.AperFunction,Conductor*%
%ADD19C,0.762000*%
%TD*%
G04 APERTURE END LIST*
D10*
%TO.P,U6,1*%
%TO.N,LIGHT2*%
X113510100Y-73210100D03*
%TO.P,U6,2*%
%TO.N,LIGHT3*%
X116050100Y-73210100D03*
%TO.P,U6,3*%
%TO.N,LIGHT4*%
X118590100Y-73210100D03*
%TO.P,U6,4*%
%TO.N,LIGHT5*%
X121130100Y-73210100D03*
%TO.P,U6,5*%
%TO.N,LIGHT6*%
X123670100Y-73210100D03*
%TO.P,U6,6*%
%TO.N,LIGHT7*%
X126210100Y-73210100D03*
%TO.P,U6,7*%
%TO.N,LIGHT8*%
X128750100Y-73210100D03*
%TO.P,U6,8*%
%TO.N,GND*%
X131290100Y-73210100D03*
%TO.P,U6,9*%
%TO.N,DATA(B)2*%
X131290100Y-65590100D03*
%TO.P,U6,10*%
%TO.N,+5V*%
X128750100Y-65590100D03*
%TO.P,U6,11*%
%TO.N,CLOCK(Y)2*%
X126210100Y-65590100D03*
%TO.P,U6,12*%
%TO.N,LATCH(G)2*%
X123670100Y-65590100D03*
%TO.P,U6,13*%
%TO.N,GND*%
X121130100Y-65590100D03*
%TO.P,U6,14*%
%TO.N,DATA(P)2*%
X118590100Y-65590100D03*
%TO.P,U6,15*%
%TO.N,LIGHT1*%
X116050100Y-65590100D03*
%TO.P,U6,16*%
%TO.N,+5V*%
X113510100Y-65590100D03*
%TD*%
D11*
%TO.P,C-MAIN,1*%
%TO.N,+5V*%
X165270100Y-72500100D03*
%TO.P,C-MAIN,2*%
%TO.N,GND*%
X162730100Y-72500100D03*
%TD*%
%TO.P,TP_EVA2,18*%
%TO.N,EVA2*%
X170000100Y-86500100D03*
%TD*%
%TO.P,R12,1*%
%TO.N,LIGHT1*%
X129338800Y-103326000D03*
%TO.P,R12,2*%
%TO.N,WP48_1*%
X119178800Y-103326000D03*
%TD*%
%TO.P,C1,1*%
%TO.N,GND*%
X187750400Y-103493400D03*
%TO.P,C1,2*%
%TO.N,+5V*%
X182750400Y-103493400D03*
%TD*%
D12*
%TO.P,U2,1*%
%TO.N,RESET*%
X167189900Y-114309800D03*
%TO.P,U2,2*%
%TO.N,DATA(P)2*%
X169729900Y-114309800D03*
%TO.P,U2,3*%
%TO.N,LATCH(G)2*%
X172269900Y-114309800D03*
%TO.P,U2,4*%
%TO.N,GND*%
X174809900Y-114309800D03*
%TO.P,U2,5*%
%TO.N,SDA*%
X174809900Y-106689800D03*
%TO.P,U2,6*%
%TO.N,CLOCK(Y)2*%
X172269900Y-106689800D03*
%TO.P,U2,7*%
%TO.N,SCL*%
X169729900Y-106689800D03*
%TO.P,U2,8*%
%TO.N,+5V*%
X167189900Y-106689800D03*
%TD*%
D11*
%TO.P,C5,1*%
%TO.N,GND*%
X135256400Y-72250400D03*
%TO.P,C5,2*%
%TO.N,+5V*%
X135256400Y-67250500D03*
%TD*%
%TO.P,TP_+5V,9*%
%TO.N,+5V*%
X147999700Y-128500000D03*
%TD*%
%TO.P,R7,1*%
%TO.N,T2*%
X167088500Y-143076300D03*
%TO.P,R7,2*%
%TO.N,GND*%
X156928500Y-143076300D03*
%TD*%
%TO.P,R15,1*%
%TO.N,LIGHT4*%
X129338800Y-95826200D03*
%TO.P,R15,2*%
%TO.N,WP45_1*%
X119178800Y-95826200D03*
%TD*%
%TO.P,TP_EVA4,1*%
%TO.N,EVA4*%
X122000000Y-128999900D03*
%TD*%
%TO.P,C2,1*%
%TO.N,GND*%
X172750700Y-103493400D03*
%TO.P,C2,2*%
%TO.N,+5V*%
X167750700Y-103493400D03*
%TD*%
%TO.P,R18,1*%
%TO.N,LIGHT7*%
X129338800Y-88326100D03*
%TO.P,R18,2*%
%TO.N,WP42_1*%
X119178800Y-88326100D03*
%TD*%
D13*
%TO.P,WP15,1*%
%TO.N,N/C*%
X185999800Y-72500100D03*
%TD*%
D11*
%TO.P,C6,1*%
%TO.N,GND*%
X110056600Y-72450300D03*
%TO.P,C6,2*%
%TO.N,+5V*%
X110056600Y-67450400D03*
%TD*%
D14*
%TO.P,WP2,1*%
%TO.N,SCL*%
X185999800Y-74500100D03*
%TD*%
D13*
%TO.P,WP14,1*%
%TO.N,N/C*%
X183999800Y-72500100D03*
%TD*%
D11*
%TO.P,R4,1*%
%TO.N,EVA4*%
X118838700Y-134076300D03*
%TO.P,R4,2*%
%TO.N,GND*%
X108678700Y-134076300D03*
%TD*%
%TO.P,R6,1*%
%TO.N,T1*%
X145088500Y-143076300D03*
%TO.P,R6,2*%
%TO.N,GND*%
X134928500Y-143076300D03*
%TD*%
%TO.P,R2,1*%
%TO.N,EVA2*%
X166838800Y-82826200D03*
%TO.P,R2,2*%
%TO.N,GND*%
X156678800Y-82826200D03*
%TD*%
%TO.P,R19,1*%
%TO.N,LIGHT8*%
X129338800Y-85826200D03*
%TO.P,R19,2*%
%TO.N,WP41_1*%
X119178800Y-85826200D03*
%TD*%
D14*
%TO.P,WP3,1*%
%TO.N,RESET*%
X183999800Y-74500100D03*
%TD*%
D11*
%TO.P,TP_EVA1,20*%
%TO.N,EVA1*%
X192000100Y-86500100D03*
%TD*%
%TO.P,R3,1*%
%TO.N,EVA3*%
X145088800Y-82826200D03*
%TO.P,R3,2*%
%TO.N,GND*%
X134928800Y-82826200D03*
%TD*%
%TO.P,TP_+5V,8*%
%TO.N,+5V*%
X122000000Y-119500000D03*
%TD*%
%TO.P,TP_T1,2*%
%TO.N,T1*%
X147999700Y-138000100D03*
%TD*%
D10*
%TO.P,U3,1*%
%TO.N,LATCH(G)*%
X140109900Y-114610000D03*
%TO.P,U3,2*%
%TO.N,CLOCK(Y)*%
X142649900Y-114610000D03*
%TO.P,U3,3*%
%TO.N,EVA5*%
X145189900Y-114610000D03*
%TO.P,U3,4*%
%TO.N,T1*%
X147729900Y-114610000D03*
%TO.P,U3,5*%
%TO.N,T2*%
X150269900Y-114610000D03*
%TO.P,U3,6*%
%TO.N,T3*%
X152809900Y-114610000D03*
%TO.P,U3,7*%
%TO.N,N/C*%
X155349900Y-114610000D03*
%TO.P,U3,8*%
%TO.N,GND*%
X157889900Y-114610000D03*
%TO.P,U3,9*%
%TO.N,DATA(P)*%
X157889900Y-106990000D03*
%TO.P,U3,10*%
%TO.N,N/C*%
X155349900Y-106990000D03*
%TO.P,U3,11*%
%TO.N,EVA1*%
X152809900Y-106990000D03*
%TO.P,U3,12*%
%TO.N,EVA2*%
X150269900Y-106990000D03*
%TO.P,U3,13*%
%TO.N,EVA3*%
X147729900Y-106990000D03*
%TO.P,U3,14*%
%TO.N,EVA4*%
X145189900Y-106990000D03*
%TO.P,U3,15*%
%TO.N,GND*%
X142649900Y-106990000D03*
%TO.P,U3,16*%
%TO.N,+5V*%
X140109900Y-106990000D03*
%TD*%
D11*
%TO.P,LED,GND*%
%TO.N,GND*%
X108519900Y-80531600D03*
X108519900Y-83071600D03*
X108519900Y-85611600D03*
X108519900Y-88151600D03*
X108519900Y-90691600D03*
X108519900Y-93231600D03*
X108519900Y-95771600D03*
X108519900Y-98311600D03*
X108519900Y-100851600D03*
X108519900Y-103391600D03*
%TO.N,WP60_1*%
X116139900Y-80531600D03*
%TO.N,WP58_1*%
X116139900Y-83071600D03*
%TO.N,WP41_1*%
X116139900Y-85611600D03*
%TO.N,WP42_1*%
X116139900Y-88151600D03*
%TO.N,WP43_1*%
X116139900Y-90691600D03*
%TO.N,WP44_1*%
X116139900Y-93231600D03*
%TO.N,WP45_1*%
X116139900Y-95771600D03*
%TO.N,WP46_1*%
X116139900Y-98311600D03*
%TO.N,WP47_1*%
X116139900Y-100851600D03*
%TO.N,WP48_1*%
X116139900Y-103391600D03*
%TD*%
%TO.P,R1,1*%
%TO.N,EVA1*%
X188838800Y-82826200D03*
%TO.P,R1,2*%
%TO.N,GND*%
X178678800Y-82826200D03*
%TD*%
D12*
%TO.P,U1,1*%
%TO.N,RESET*%
X182189800Y-114310100D03*
%TO.P,U1,2*%
%TO.N,DATA(P)*%
X184729800Y-114310100D03*
%TO.P,U1,3*%
%TO.N,LATCH(G)*%
X187269800Y-114310100D03*
%TO.P,U1,4*%
%TO.N,GND*%
X189809800Y-114310100D03*
%TO.P,U1,5*%
%TO.N,SDA*%
X189809800Y-106690100D03*
%TO.P,U1,6*%
%TO.N,CLOCK(Y)*%
X187269800Y-106690100D03*
%TO.P,U1,7*%
%TO.N,SCL*%
X184729800Y-106690100D03*
%TO.P,U1,8*%
%TO.N,+5V*%
X182189800Y-106690100D03*
%TD*%
D10*
%TO.P,U5,1*%
%TO.N,LIGHT10*%
X138709800Y-73210100D03*
%TO.P,U5,2*%
%TO.N,N/C*%
X141249800Y-73210100D03*
%TO.P,U5,3*%
X143789800Y-73210100D03*
%TO.P,U5,4*%
X146329800Y-73210100D03*
%TO.P,U5,5*%
X148869800Y-73210100D03*
%TO.P,U5,6*%
X151409800Y-73210100D03*
%TO.P,U5,7*%
X153949800Y-73210100D03*
%TO.P,U5,8*%
%TO.N,GND*%
X156489800Y-73210100D03*
%TO.P,U5,9*%
%TO.N,N/C*%
X156489800Y-65590100D03*
%TO.P,U5,10*%
%TO.N,+5V*%
X153949800Y-65590100D03*
%TO.P,U5,11*%
%TO.N,CLOCK(Y)2*%
X151409800Y-65590100D03*
%TO.P,U5,12*%
%TO.N,LATCH(G)2*%
X148869800Y-65590100D03*
%TO.P,U5,13*%
%TO.N,GND*%
X146329800Y-65590100D03*
%TO.P,U5,14*%
%TO.N,DATA(B)2*%
X143789800Y-65590100D03*
%TO.P,U5,15*%
%TO.N,LIGHT9*%
X141249800Y-65590100D03*
%TO.P,U5,16*%
%TO.N,+5V*%
X138709800Y-65590100D03*
%TD*%
D11*
%TO.P,TP_+5V,11*%
%TO.N,+5V*%
X191999800Y-128500000D03*
%TD*%
D13*
%TO.P,WP6,1*%
%TO.N,N/C*%
X177999800Y-74500100D03*
%TD*%
D11*
%TO.P,R21,1*%
%TO.N,LIGHT10*%
X129338800Y-80826200D03*
%TO.P,R21,2*%
%TO.N,WP60_1*%
X119178800Y-80826200D03*
%TD*%
%TO.P,TP_+5V,*%
%TO.N,+5V*%
X169999900Y-128500000D03*
%TD*%
D15*
%TO.P,WP9,1*%
%TO.N,N/C*%
X173999900Y-72500100D03*
%TD*%
D11*
%TO.P,TP_+5V,15*%
%TO.N,+5V*%
X147999900Y-95999900D03*
%TD*%
D16*
%TO.P,WP7,1*%
%TO.N,+5V*%
X175999800Y-74500100D03*
%TD*%
D15*
%TO.P,WP10,1*%
%TO.N,N/C*%
X175999900Y-72500100D03*
%TD*%
D11*
%TO.P,R8,1*%
%TO.N,T3*%
X189088500Y-143076300D03*
%TO.P,R8,2*%
%TO.N,GND*%
X178928500Y-143076300D03*
%TD*%
D14*
%TO.P,WP1,1*%
%TO.N,SDA*%
X187999800Y-74500100D03*
%TD*%
D13*
%TO.P,WP16,1*%
%TO.N,N/C*%
X187999800Y-72500100D03*
%TD*%
%TO.P,WP5,1*%
%TO.N,N/C*%
X179999800Y-74500100D03*
%TD*%
D11*
%TO.P,TP_T2,*%
%TO.N,T2*%
X169999900Y-138000100D03*
%TD*%
%TO.P,R20,1*%
%TO.N,LIGHT9*%
X129338800Y-83326100D03*
%TO.P,R20,2*%
%TO.N,WP58_1*%
X119178800Y-83326100D03*
%TD*%
%TO.P,TP_+5V,*%
%TO.N,+5V*%
X170000100Y-95999900D03*
%TD*%
%TO.P,R14,1*%
%TO.N,LIGHT3*%
X129338800Y-98326000D03*
%TO.P,R14,2*%
%TO.N,WP46_1*%
X119178800Y-98326000D03*
%TD*%
%TO.P,TP_EVA3,16*%
%TO.N,EVA3*%
X147999900Y-86500100D03*
%TD*%
%TO.P,TP_T3,4*%
%TO.N,T3*%
X191999800Y-138000100D03*
%TD*%
D15*
%TO.P,WP11,1*%
%TO.N,N/C*%
X177999900Y-72500100D03*
%TD*%
D16*
%TO.P,WP8,1*%
%TO.N,GND*%
X173999800Y-74500100D03*
%TD*%
D11*
%TO.P,R13,1*%
%TO.N,LIGHT2*%
X129338800Y-100826200D03*
%TO.P,R13,2*%
%TO.N,WP47_1*%
X119178800Y-100826200D03*
%TD*%
D13*
%TO.P,WP13,1*%
%TO.N,N/C*%
X181999800Y-72500100D03*
%TD*%
D11*
%TO.P,R16,1*%
%TO.N,LIGHT5*%
X129338800Y-93326100D03*
%TO.P,R16,2*%
%TO.N,WP44_1*%
X119178800Y-93326100D03*
%TD*%
%TO.P,R17,1*%
%TO.N,LIGHT6*%
X129338800Y-90826200D03*
%TO.P,R17,2*%
%TO.N,WP43_1*%
X119178800Y-90826200D03*
%TD*%
D15*
%TO.P,WP4,1*%
%TO.N,N/C*%
X181999800Y-74500100D03*
%TD*%
D11*
%TO.P,TP_+5V,*%
%TO.N,+5V*%
X192000100Y-95999900D03*
%TD*%
%TO.P,TP_EVA5,1*%
%TO.N,EVA5*%
X122000000Y-147749900D03*
%TD*%
%TO.P,TP_+5V,8*%
%TO.N,+5V*%
X122000000Y-138250000D03*
%TD*%
%TO.P,R5,1*%
%TO.N,EVA5*%
X118588700Y-152576400D03*
%TO.P,R5,2*%
%TO.N,GND*%
X108428700Y-152576400D03*
%TD*%
%TO.P,C3,1*%
%TO.N,GND*%
X136656500Y-113650100D03*
%TO.P,C3,2*%
%TO.N,+5V*%
X136656500Y-108650100D03*
%TD*%
D15*
%TO.P,WP12,1*%
%TO.N,N/C*%
X179999900Y-72500100D03*
%TD*%
D17*
%TO.N,EVA2*%
X163500000Y-100999900D03*
%TO.N,RESET*%
X195499900Y-82249900D03*
%TO.N,EVA1*%
X165749900Y-101999900D03*
%TO.N,EVA3*%
X145999900Y-101999900D03*
%TO.N,GUARD1*%
X199499900Y-105002200D03*
X199499900Y-114999900D03*
%TO.N,GUARD2*%
X100625100Y-114997600D03*
X100625100Y-104999900D03*
%TD*%
%TO.N,LIGHT2*%
D18*
X118549600Y-78249900D02*
X119499600Y-78249900D01*
X119499600Y-78249900D02*
X123749000Y-82499300D01*
X113509800Y-73210000D02*
X118549600Y-78249900D01*
X123749000Y-95237400D02*
X129339500Y-100825400D01*
X123749000Y-82499300D02*
X123749000Y-95237400D01*
%TO.N,LIGHT3*%
X124249400Y-93238400D02*
X129339500Y-98326100D01*
X124249400Y-82250400D02*
X124249400Y-93238400D01*
X119751000Y-77749500D02*
X124249400Y-82250400D01*
X116050300Y-73210500D02*
X116050300Y-74848800D01*
X118948400Y-77749500D02*
X119751000Y-77749500D01*
X116050300Y-74848800D02*
X118948400Y-77749500D01*
%TO.N,LIGHT4*%
X124749800Y-91236900D02*
X129339500Y-95826700D01*
X124749800Y-81998900D02*
X124749800Y-91236900D01*
X118590300Y-73210500D02*
X118590300Y-75839400D01*
X118590300Y-75839400D02*
X124749800Y-81998900D01*
%TO.N,LIGHT5*%
X125250200Y-81750000D02*
X125250200Y-89238000D01*
X121130000Y-77629800D02*
X125250200Y-81750000D01*
X121130000Y-73210000D02*
X121130000Y-77629800D01*
X126828200Y-90816100D02*
X129339500Y-93327300D01*
X125250200Y-89238000D02*
X126828200Y-90816100D01*
%TO.N,LIGHT6*%
X125750500Y-87236400D02*
X129339500Y-90825500D01*
X125750500Y-81501100D02*
X125750500Y-87236400D01*
X123670000Y-79420600D02*
X125750500Y-81501100D01*
X123670000Y-73210000D02*
X123670000Y-79420600D01*
%TO.N,LIGHT7*%
X126210300Y-73210500D02*
X126210300Y-85196800D01*
X126210300Y-85196800D02*
X129339500Y-88326100D01*
%TO.N,LIGHT8*%
X126748700Y-83238500D02*
X129339500Y-85826700D01*
X128750300Y-78249900D02*
X126748700Y-80251400D01*
X126748700Y-80251400D02*
X126748700Y-83238500D01*
X128750300Y-73210500D02*
X128750300Y-78249900D01*
%TO.N,LIGHT1*%
X112199600Y-74399300D02*
X116550600Y-78750300D01*
X119250700Y-78750300D02*
X123251200Y-82750800D01*
X116550600Y-78750300D02*
X119250700Y-78750300D01*
X123251200Y-82750800D02*
X123251200Y-97236400D01*
X112199600Y-69438600D02*
X112199600Y-74399300D01*
X116050300Y-65590500D02*
X112199600Y-69438600D01*
X123251200Y-97236400D02*
X129339500Y-103324800D01*
%TO.N,EVA2*%
X166837600Y-82827000D02*
X169999900Y-85986700D01*
X150269900Y-106990000D02*
X156259900Y-101000000D01*
X169999900Y-85986700D02*
X169999900Y-86499800D01*
X156259900Y-101000000D02*
X163500000Y-101000000D01*
%TO.N,WP48_1*%
X119178700Y-103326100D02*
X116205400Y-103326100D01*
X116205400Y-103326100D02*
X116139900Y-103391600D01*
%TO.N,RESET*%
X186500000Y-108250000D02*
X190500000Y-108250000D01*
X195499900Y-103250100D02*
X195499900Y-82249900D01*
X167190600Y-114310300D02*
X169250600Y-112250300D01*
X190500000Y-108250000D02*
X195499900Y-103250100D01*
X182189800Y-112560100D02*
X186500000Y-108250000D01*
X182189800Y-114310100D02*
X182189800Y-112560100D01*
X179999800Y-112250300D02*
X182059800Y-114310300D01*
X169250600Y-112250300D02*
X179999800Y-112250300D01*
X182059800Y-114310300D02*
X182189300Y-114310300D01*
%TO.N,SDA*%
X189809300Y-106690300D02*
X195001100Y-101501100D01*
X188000800Y-75750500D02*
X188000800Y-74500900D01*
X195001100Y-82750800D02*
X188000800Y-75750500D01*
X195001100Y-101501100D02*
X195001100Y-82750800D01*
%TO.N,SCL*%
X184729300Y-106690300D02*
X186169500Y-105250100D01*
X194500700Y-82999700D02*
X185999300Y-74500900D01*
X186169500Y-105250100D02*
X190248700Y-105250100D01*
X194500700Y-101000700D02*
X194500700Y-82999700D01*
X169730600Y-106690300D02*
X171290200Y-108249800D01*
X190248700Y-105250100D02*
X194500700Y-101000700D01*
X171290200Y-108249800D02*
X182999600Y-108249800D01*
X182999600Y-108249800D02*
X184559100Y-106690300D01*
X184559100Y-106690300D02*
X184729300Y-106690300D01*
%TO.N,T2*%
X169999900Y-140164900D02*
X169999900Y-138000900D01*
X167089000Y-143075800D02*
X169999900Y-140164900D01*
%TO.N,WP45_1*%
X116194500Y-95826100D02*
X116139900Y-95771600D01*
X119178700Y-95826100D02*
X116194500Y-95826100D01*
%TO.N,EVA4*%
X140180000Y-111999900D02*
X145189900Y-106990000D01*
X122000000Y-128999900D02*
X122000000Y-125099900D01*
X122000000Y-125099900D02*
X135099900Y-111999900D01*
X119173800Y-133626000D02*
X122000000Y-130799700D01*
X118838700Y-134076400D02*
X119173700Y-134076400D01*
X135099900Y-111999900D02*
X140180000Y-111999900D01*
X122000000Y-130799700D02*
X122000000Y-128999800D01*
%TO.N,WP42_1*%
X116314500Y-88326100D02*
X116139900Y-88151600D01*
X119178700Y-88326100D02*
X116314500Y-88326100D01*
%TO.N,T1*%
X148000900Y-140164900D02*
X148000900Y-138000900D01*
X145087500Y-143075800D02*
X148000900Y-140164900D01*
%TO.N,WP41_1*%
X116354500Y-85826100D02*
X116139900Y-85611600D01*
X119178700Y-85826100D02*
X116354500Y-85826100D01*
%TO.N,EVA1*%
X192001300Y-85986700D02*
X192001300Y-86499800D01*
X152809900Y-106990000D02*
X157800000Y-101999900D01*
X188839000Y-82827000D02*
X192001300Y-85986700D01*
X157800000Y-101999900D02*
X165749900Y-101999900D01*
%TO.N,EVA3*%
X148000900Y-85737800D02*
X148000900Y-86499800D01*
X147729100Y-106990000D02*
X147729100Y-103728600D01*
X147729100Y-103728600D02*
X145999400Y-101998900D01*
X145087500Y-82827000D02*
X148000900Y-85737800D01*
%TO.N,LATCH(G)*%
X141499300Y-115999400D02*
X140109900Y-114610000D01*
X187269300Y-114310300D02*
X185580300Y-115999400D01*
X185580300Y-115999400D02*
X141499300Y-115999400D01*
%TO.N,CLOCK(Y)*%
X145509900Y-111750000D02*
X142649900Y-114610000D01*
X182209700Y-111750000D02*
X145509900Y-111750000D01*
X187269300Y-106690300D02*
X182209700Y-111750000D01*
%TO.N,EVA5*%
X118587700Y-152575400D02*
X121998900Y-149164200D01*
X121998900Y-149164200D02*
X121998900Y-147749400D01*
%TO.N,T3*%
X191998800Y-140164900D02*
X191998800Y-138000900D01*
X189088000Y-143075800D02*
X191998800Y-140164900D01*
%TO.N,WP60_1*%
X119178700Y-80826100D02*
X116434500Y-80826100D01*
X116434500Y-80826100D02*
X116139900Y-80531600D01*
%TO.N,WP58_1*%
X116394500Y-83326100D02*
X116139900Y-83071600D01*
X119178700Y-83326100D02*
X116394500Y-83326100D01*
%TO.N,WP43_1*%
X119178700Y-90826100D02*
X116274500Y-90826100D01*
X116274500Y-90826100D02*
X116139900Y-90691600D01*
%TO.N,WP44_1*%
X116234500Y-93326100D02*
X116139900Y-93231600D01*
X119178700Y-93326100D02*
X116234500Y-93326100D01*
%TO.N,WP46_1*%
X119179500Y-98326100D02*
X116139200Y-98310800D01*
%TO.N,WP47_1*%
X116165400Y-100826100D02*
X116139900Y-100851600D01*
X119178700Y-100826100D02*
X116165400Y-100826100D01*
%TO.N,LIGHT10*%
X131094400Y-80825500D02*
X129339500Y-80825500D01*
X138709900Y-73210000D02*
X131094400Y-80825500D01*
%TO.N,LIGHT9*%
X141249600Y-65590500D02*
X141249600Y-67150100D01*
X138600400Y-69799300D02*
X135199300Y-69799300D01*
X141249600Y-67150100D02*
X138600400Y-69799300D01*
X133599100Y-71399500D02*
X133599100Y-74401800D01*
X133599100Y-74401800D02*
X128001000Y-80000000D01*
X129075400Y-83324800D02*
X129339500Y-83324800D01*
X128001000Y-80000000D02*
X128001000Y-82250400D01*
X135199300Y-69799300D02*
X133599100Y-71399500D01*
X128001000Y-82250400D02*
X129075400Y-83324800D01*
%TO.N,GUARD1*%
D19*
X194501400Y-112500300D02*
X194501400Y-107499000D01*
X199500000Y-114999600D02*
X197000700Y-114999600D01*
X194501400Y-107499000D02*
X196998200Y-105002200D01*
X196998200Y-105002200D02*
X199500000Y-105002200D01*
X197000700Y-114999600D02*
X194501400Y-112500300D01*
%TO.N,GUARD2*%
X103126700Y-104999900D02*
X100624900Y-104999900D01*
X105623600Y-107496800D02*
X103126700Y-104999900D01*
X100624900Y-114997400D02*
X103124200Y-114997400D01*
X103124200Y-114997400D02*
X105623600Y-112498000D01*
X105623600Y-112498000D02*
X105623600Y-107496800D01*
%TD*%
%TA.AperFunction,Conductor*%
%TO.N,+5V*%
G36*
X189808418Y-60520502D02*
G01*
X189829392Y-60537404D01*
X199446886Y-70154801D01*
X199462495Y-70170409D01*
X199496520Y-70232721D01*
X199499400Y-70259505D01*
X199499400Y-104240700D01*
X199479398Y-104308821D01*
X199425742Y-104355314D01*
X199373400Y-104366700D01*
X196935606Y-104366700D01*
X196812830Y-104391122D01*
X196812825Y-104391124D01*
X196697177Y-104439027D01*
X196593096Y-104508572D01*
X196593089Y-104508577D01*
X194007777Y-107093889D01*
X194007772Y-107093896D01*
X193938227Y-107197977D01*
X193890324Y-107313625D01*
X193890322Y-107313630D01*
X193865900Y-107436406D01*
X193865900Y-112562893D01*
X193889865Y-112683374D01*
X193890322Y-112685669D01*
X193938227Y-112801322D01*
X194007775Y-112905408D01*
X196595592Y-115493225D01*
X196699678Y-115562773D01*
X196815331Y-115610678D01*
X196938109Y-115635100D01*
X197063291Y-115635100D01*
X199373400Y-115635100D01*
X199441521Y-115655102D01*
X199488014Y-115708758D01*
X199499400Y-115761100D01*
X199499400Y-149740495D01*
X199479398Y-149808616D01*
X199462495Y-149829590D01*
X194642987Y-154649097D01*
X194642987Y-154649098D01*
X189829594Y-159462396D01*
X189767281Y-159496421D01*
X189740499Y-159499300D01*
X110259414Y-159499300D01*
X110191293Y-159479298D01*
X110170341Y-159462418D01*
X105352761Y-154647248D01*
X105352717Y-154647204D01*
X102579063Y-151872217D01*
X102496216Y-151789330D01*
X107412200Y-151789330D01*
X107412200Y-153363463D01*
X107412201Y-153363473D01*
X107426965Y-153437700D01*
X107483216Y-153521884D01*
X107567397Y-153578133D01*
X107567399Y-153578134D01*
X107641633Y-153592900D01*
X109215766Y-153592899D01*
X109215769Y-153592898D01*
X109215773Y-153592898D01*
X109265026Y-153583101D01*
X109290001Y-153578134D01*
X109374184Y-153521884D01*
X109430434Y-153437701D01*
X109445200Y-153363467D01*
X109445199Y-151789334D01*
X109445199Y-151789333D01*
X109445199Y-151789331D01*
X109445199Y-151789330D01*
X117572200Y-151789330D01*
X117572200Y-153363463D01*
X117572201Y-153363473D01*
X117586965Y-153437700D01*
X117643216Y-153521884D01*
X117727397Y-153578133D01*
X117727399Y-153578134D01*
X117801633Y-153592900D01*
X119375766Y-153592899D01*
X119375769Y-153592898D01*
X119375773Y-153592898D01*
X119425026Y-153583101D01*
X119450001Y-153578134D01*
X119534184Y-153521884D01*
X119590434Y-153437701D01*
X119605200Y-153363467D01*
X119605199Y-152149611D01*
X119625201Y-152081491D01*
X119642099Y-152060522D01*
X122222770Y-149479850D01*
X122222780Y-149479843D01*
X122304170Y-149398453D01*
X122304176Y-149398447D01*
X122354401Y-149311454D01*
X122380400Y-149214425D01*
X122380400Y-148892399D01*
X122400402Y-148824278D01*
X122454058Y-148777785D01*
X122506400Y-148766399D01*
X122787064Y-148766399D01*
X122787066Y-148766399D01*
X122787069Y-148766398D01*
X122787072Y-148766398D01*
X122823663Y-148759119D01*
X122861301Y-148751634D01*
X122945484Y-148695384D01*
X123001734Y-148611201D01*
X123016500Y-148536967D01*
X123016499Y-146962834D01*
X123016498Y-146962830D01*
X123016498Y-146962826D01*
X123001734Y-146888599D01*
X122945483Y-146804415D01*
X122861302Y-146748166D01*
X122787067Y-146733400D01*
X121212936Y-146733400D01*
X121212926Y-146733401D01*
X121138699Y-146748165D01*
X121054515Y-146804416D01*
X120998266Y-146888597D01*
X120983500Y-146962830D01*
X120983500Y-148536963D01*
X120983501Y-148536973D01*
X120998265Y-148611200D01*
X121054516Y-148695384D01*
X121138697Y-148751633D01*
X121138699Y-148751634D01*
X121212933Y-148766400D01*
X121491401Y-148766399D01*
X121559520Y-148786401D01*
X121606013Y-148840056D01*
X121617400Y-148892399D01*
X121617400Y-148953987D01*
X121597398Y-149022108D01*
X121580495Y-149043082D01*
X119100581Y-151522995D01*
X119038269Y-151557021D01*
X119011486Y-151559900D01*
X117801636Y-151559900D01*
X117801626Y-151559901D01*
X117727399Y-151574665D01*
X117643215Y-151630916D01*
X117586966Y-151715097D01*
X117572200Y-151789330D01*
X109445199Y-151789330D01*
X109430434Y-151715099D01*
X109374183Y-151630915D01*
X109290002Y-151574666D01*
X109215767Y-151559900D01*
X107641636Y-151559900D01*
X107641626Y-151559901D01*
X107567399Y-151574665D01*
X107483215Y-151630916D01*
X107426966Y-151715097D01*
X107412200Y-151789330D01*
X102496216Y-151789330D01*
X100537383Y-149829556D01*
X100503373Y-149767236D01*
X100500500Y-149740482D01*
X100500500Y-136184108D01*
X105249600Y-136184108D01*
X105249600Y-150184108D01*
X105249600Y-150315892D01*
X105260090Y-150355040D01*
X105283707Y-150443183D01*
X105283710Y-150443190D01*
X105349597Y-150557310D01*
X105349605Y-150557320D01*
X105442779Y-150650494D01*
X105442784Y-150650498D01*
X105442786Y-150650500D01*
X105556914Y-150716392D01*
X105684208Y-150750500D01*
X105684210Y-150750500D01*
X118815890Y-150750500D01*
X118815892Y-150750500D01*
X118943186Y-150716392D01*
X119057314Y-150650500D01*
X119150500Y-150557314D01*
X119216392Y-150443186D01*
X119250500Y-150315892D01*
X119250500Y-142289230D01*
X133912000Y-142289230D01*
X133912000Y-143863363D01*
X133912001Y-143863373D01*
X133926765Y-143937600D01*
X133983016Y-144021784D01*
X134067197Y-144078033D01*
X134067199Y-144078034D01*
X134141433Y-144092800D01*
X135715566Y-144092799D01*
X135715569Y-144092798D01*
X135715573Y-144092798D01*
X135764826Y-144083001D01*
X135789801Y-144078034D01*
X135873984Y-144021784D01*
X135930234Y-143937601D01*
X135945000Y-143863367D01*
X135944999Y-142289234D01*
X135944999Y-142289233D01*
X135944999Y-142289231D01*
X135944999Y-142289230D01*
X144072000Y-142289230D01*
X144072000Y-143863363D01*
X144072001Y-143863373D01*
X144086765Y-143937600D01*
X144143016Y-144021784D01*
X144227197Y-144078033D01*
X144227199Y-144078034D01*
X144301433Y-144092800D01*
X145875566Y-144092799D01*
X145875569Y-144092798D01*
X145875573Y-144092798D01*
X145924826Y-144083001D01*
X145949801Y-144078034D01*
X146033984Y-144021784D01*
X146090234Y-143937601D01*
X146105000Y-143863367D01*
X146104999Y-142650686D01*
X146125001Y-142582566D01*
X146141939Y-142561556D01*
X146414499Y-142289230D01*
X155912000Y-142289230D01*
X155912000Y-143863363D01*
X155912001Y-143863373D01*
X155926765Y-143937600D01*
X155983016Y-144021784D01*
X156067197Y-144078033D01*
X156067199Y-144078034D01*
X156141433Y-144092800D01*
X157715566Y-144092799D01*
X157715569Y-144092798D01*
X157715573Y-144092798D01*
X157764826Y-144083001D01*
X157789801Y-144078034D01*
X157873984Y-144021784D01*
X157930234Y-143937601D01*
X157945000Y-143863367D01*
X157944999Y-142289234D01*
X157944999Y-142289233D01*
X157944999Y-142289231D01*
X157944999Y-142289230D01*
X166072000Y-142289230D01*
X166072000Y-143863363D01*
X166072001Y-143863373D01*
X166086765Y-143937600D01*
X166143016Y-144021784D01*
X166227197Y-144078033D01*
X166227199Y-144078034D01*
X166301433Y-144092800D01*
X167875566Y-144092799D01*
X167875569Y-144092798D01*
X167875573Y-144092798D01*
X167924826Y-144083001D01*
X167949801Y-144078034D01*
X168033984Y-144021784D01*
X168090234Y-143937601D01*
X168105000Y-143863367D01*
X168104999Y-142651511D01*
X168125001Y-142583391D01*
X168141899Y-142562422D01*
X168415091Y-142289230D01*
X177912000Y-142289230D01*
X177912000Y-143863363D01*
X177912001Y-143863373D01*
X177926765Y-143937600D01*
X177983016Y-144021784D01*
X178067197Y-144078033D01*
X178067199Y-144078034D01*
X178141433Y-144092800D01*
X179715566Y-144092799D01*
X179715569Y-144092798D01*
X179715573Y-144092798D01*
X179764826Y-144083001D01*
X179789801Y-144078034D01*
X179873984Y-144021784D01*
X179930234Y-143937601D01*
X179945000Y-143863367D01*
X179944999Y-142289234D01*
X179944999Y-142289233D01*
X179944999Y-142289231D01*
X179944999Y-142289230D01*
X188072000Y-142289230D01*
X188072000Y-143863363D01*
X188072001Y-143863373D01*
X188086765Y-143937600D01*
X188143016Y-144021784D01*
X188227197Y-144078033D01*
X188227199Y-144078034D01*
X188301433Y-144092800D01*
X189875566Y-144092799D01*
X189875569Y-144092798D01*
X189875573Y-144092798D01*
X189924826Y-144083001D01*
X189949801Y-144078034D01*
X190033984Y-144021784D01*
X190090234Y-143937601D01*
X190105000Y-143863367D01*
X190104999Y-142650485D01*
X190125001Y-142582365D01*
X190141898Y-142561395D01*
X192246180Y-140457042D01*
X192304076Y-140399147D01*
X192304078Y-140399142D01*
X192304080Y-140399141D01*
X192316572Y-140377503D01*
X192354301Y-140312154D01*
X192354302Y-140312148D01*
X192354304Y-140312146D01*
X192380302Y-140215118D01*
X192380300Y-140114668D01*
X192380300Y-139142599D01*
X192400302Y-139074478D01*
X192453958Y-139027985D01*
X192506300Y-139016599D01*
X192786864Y-139016599D01*
X192786866Y-139016599D01*
X192786869Y-139016598D01*
X192786872Y-139016598D01*
X192823463Y-139009319D01*
X192861101Y-139001834D01*
X192945284Y-138945584D01*
X193001534Y-138861401D01*
X193016300Y-138787167D01*
X193016299Y-137213034D01*
X193016298Y-137213030D01*
X193016298Y-137213026D01*
X193001534Y-137138799D01*
X192945283Y-137054615D01*
X192861102Y-136998366D01*
X192786867Y-136983600D01*
X191212736Y-136983600D01*
X191212726Y-136983601D01*
X191138499Y-136998365D01*
X191054315Y-137054616D01*
X190998066Y-137138797D01*
X190983300Y-137213030D01*
X190983300Y-138787163D01*
X190983301Y-138787173D01*
X190998065Y-138861400D01*
X191054316Y-138945584D01*
X191138497Y-139001833D01*
X191138499Y-139001834D01*
X191212733Y-139016600D01*
X191491301Y-139016599D01*
X191559420Y-139036601D01*
X191605913Y-139090256D01*
X191617300Y-139142599D01*
X191617300Y-139954691D01*
X191597298Y-140022812D01*
X191580397Y-140043785D01*
X189601355Y-142022894D01*
X189539043Y-142056920D01*
X189512258Y-142059800D01*
X188301436Y-142059800D01*
X188301426Y-142059801D01*
X188227199Y-142074565D01*
X188143015Y-142130816D01*
X188086766Y-142214997D01*
X188072000Y-142289230D01*
X179944999Y-142289230D01*
X179930234Y-142214999D01*
X179873983Y-142130815D01*
X179789802Y-142074566D01*
X179715567Y-142059800D01*
X178141436Y-142059800D01*
X178141426Y-142059801D01*
X178067199Y-142074565D01*
X177983015Y-142130816D01*
X177926766Y-142214997D01*
X177912000Y-142289230D01*
X168415091Y-142289230D01*
X170223770Y-140480550D01*
X170223780Y-140480543D01*
X170305170Y-140399153D01*
X170305172Y-140399151D01*
X170305176Y-140399147D01*
X170330513Y-140355261D01*
X170355399Y-140312158D01*
X170355399Y-140312157D01*
X170355401Y-140312154D01*
X170381400Y-140215125D01*
X170381400Y-139142599D01*
X170401402Y-139074478D01*
X170455058Y-139027985D01*
X170507400Y-139016599D01*
X170786964Y-139016599D01*
X170786966Y-139016599D01*
X170786969Y-139016598D01*
X170786972Y-139016598D01*
X170823563Y-139009319D01*
X170861201Y-139001834D01*
X170945384Y-138945584D01*
X171001634Y-138861401D01*
X171016400Y-138787167D01*
X171016399Y-137213034D01*
X171016398Y-137213030D01*
X171016398Y-137213026D01*
X171001634Y-137138799D01*
X170945383Y-137054615D01*
X170861202Y-136998366D01*
X170786967Y-136983600D01*
X169212836Y-136983600D01*
X169212826Y-136983601D01*
X169138599Y-136998365D01*
X169054415Y-137054616D01*
X168998166Y-137138797D01*
X168983400Y-137213030D01*
X168983400Y-138787163D01*
X168983401Y-138787173D01*
X168998165Y-138861400D01*
X169054416Y-138945584D01*
X169138597Y-139001833D01*
X169138599Y-139001834D01*
X169212833Y-139016600D01*
X169492401Y-139016599D01*
X169560520Y-139036601D01*
X169607013Y-139090256D01*
X169618400Y-139142599D01*
X169618400Y-139954687D01*
X169598398Y-140022808D01*
X169581495Y-140043782D01*
X167602381Y-142022895D01*
X167540069Y-142056921D01*
X167513286Y-142059800D01*
X166301436Y-142059800D01*
X166301426Y-142059801D01*
X166227199Y-142074565D01*
X166143015Y-142130816D01*
X166086766Y-142214997D01*
X166072000Y-142289230D01*
X157944999Y-142289230D01*
X157930234Y-142214999D01*
X157873983Y-142130815D01*
X157789802Y-142074566D01*
X157715567Y-142059800D01*
X156141436Y-142059800D01*
X156141426Y-142059801D01*
X156067199Y-142074565D01*
X155983015Y-142130816D01*
X155926766Y-142214997D01*
X155912000Y-142289230D01*
X146414499Y-142289230D01*
X148229032Y-140476253D01*
X148229319Y-140476003D01*
X148235144Y-140470177D01*
X148235147Y-140470176D01*
X148271114Y-140434208D01*
X148306075Y-140399278D01*
X148306077Y-140399273D01*
X148306080Y-140399271D01*
X148306172Y-140399151D01*
X148306172Y-140399150D01*
X148306176Y-140399147D01*
X148331512Y-140355261D01*
X148356338Y-140312306D01*
X148356339Y-140312299D01*
X148356347Y-140312287D01*
X148356395Y-140312172D01*
X148356398Y-140312157D01*
X148356401Y-140312154D01*
X148369454Y-140263438D01*
X148369454Y-140263437D01*
X148369466Y-140263440D01*
X148369467Y-140263386D01*
X148382378Y-140215289D01*
X148382378Y-140215286D01*
X148382400Y-140215122D01*
X148382400Y-140165063D01*
X148382425Y-140106907D01*
X148382400Y-140106507D01*
X148382400Y-139142599D01*
X148402402Y-139074478D01*
X148456058Y-139027985D01*
X148508400Y-139016599D01*
X148786764Y-139016599D01*
X148786766Y-139016599D01*
X148786769Y-139016598D01*
X148786772Y-139016598D01*
X148823363Y-139009319D01*
X148861001Y-139001834D01*
X148945184Y-138945584D01*
X149001434Y-138861401D01*
X149016200Y-138787167D01*
X149016199Y-137213034D01*
X149016198Y-137213030D01*
X149016198Y-137213026D01*
X149001434Y-137138799D01*
X148945183Y-137054615D01*
X148861002Y-136998366D01*
X148786767Y-136983600D01*
X147212636Y-136983600D01*
X147212626Y-136983601D01*
X147138399Y-136998365D01*
X147054215Y-137054616D01*
X146997966Y-137138797D01*
X146983200Y-137213030D01*
X146983200Y-138787163D01*
X146983201Y-138787173D01*
X146997965Y-138861400D01*
X147054216Y-138945584D01*
X147138397Y-139001833D01*
X147138399Y-139001834D01*
X147212633Y-139016600D01*
X147493401Y-139016599D01*
X147561520Y-139036601D01*
X147608013Y-139090256D01*
X147619400Y-139142599D01*
X147619400Y-139954558D01*
X147599398Y-140022679D01*
X147582457Y-140043692D01*
X145601515Y-142022934D01*
X145539188Y-142056932D01*
X145512458Y-142059800D01*
X144301436Y-142059800D01*
X144301426Y-142059801D01*
X144227199Y-142074565D01*
X144143015Y-142130816D01*
X144086766Y-142214997D01*
X144072000Y-142289230D01*
X135944999Y-142289230D01*
X135930234Y-142214999D01*
X135873983Y-142130815D01*
X135789802Y-142074566D01*
X135715567Y-142059800D01*
X134141436Y-142059800D01*
X134141426Y-142059801D01*
X134067199Y-142074565D01*
X133983015Y-142130816D01*
X133926766Y-142214997D01*
X133912000Y-142289230D01*
X119250500Y-142289230D01*
X119250500Y-136184108D01*
X119216392Y-136056814D01*
X119150500Y-135942686D01*
X119150498Y-135942684D01*
X119150494Y-135942679D01*
X119057320Y-135849505D01*
X119057310Y-135849497D01*
X118943190Y-135783610D01*
X118943187Y-135783609D01*
X118943186Y-135783608D01*
X118943184Y-135783607D01*
X118943183Y-135783607D01*
X118909073Y-135774467D01*
X118815892Y-135749500D01*
X105815992Y-135749500D01*
X105684208Y-135749500D01*
X105615994Y-135767777D01*
X105556916Y-135783607D01*
X105556909Y-135783610D01*
X105442789Y-135849497D01*
X105442779Y-135849505D01*
X105349605Y-135942679D01*
X105349597Y-135942689D01*
X105283710Y-136056809D01*
X105283708Y-136056814D01*
X105249600Y-136184108D01*
X100500500Y-136184108D01*
X100500500Y-133289230D01*
X107662200Y-133289230D01*
X107662200Y-134863363D01*
X107662201Y-134863373D01*
X107676965Y-134937600D01*
X107733216Y-135021784D01*
X107817397Y-135078033D01*
X107817399Y-135078034D01*
X107891633Y-135092800D01*
X109465766Y-135092799D01*
X109465769Y-135092798D01*
X109465773Y-135092798D01*
X109515026Y-135083001D01*
X109540001Y-135078034D01*
X109624184Y-135021784D01*
X109680434Y-134937601D01*
X109695200Y-134863367D01*
X109695199Y-133289234D01*
X109695199Y-133289233D01*
X109695199Y-133289231D01*
X109695199Y-133289230D01*
X117822200Y-133289230D01*
X117822200Y-134863363D01*
X117822201Y-134863373D01*
X117836965Y-134937600D01*
X117893216Y-135021784D01*
X117977397Y-135078033D01*
X117977399Y-135078034D01*
X118051633Y-135092800D01*
X119625766Y-135092799D01*
X119625769Y-135092798D01*
X119625773Y-135092798D01*
X119675026Y-135083001D01*
X119700001Y-135078034D01*
X119784184Y-135021784D01*
X119840434Y-134937601D01*
X119855200Y-134863367D01*
X119855199Y-133536296D01*
X119875201Y-133468176D01*
X119892099Y-133447206D01*
X122249021Y-131090200D01*
X122249023Y-131090200D01*
X122303969Y-131035254D01*
X122305542Y-131033725D01*
X122307350Y-131030800D01*
X122307998Y-131029817D01*
X122309780Y-131026144D01*
X122322344Y-131004383D01*
X122355501Y-130946954D01*
X122355501Y-130946952D01*
X122355502Y-130946951D01*
X122355502Y-130946948D01*
X122355504Y-130946947D01*
X122370118Y-130892400D01*
X122370119Y-130892400D01*
X122370119Y-130892394D01*
X122380530Y-130853546D01*
X122381441Y-130850512D01*
X122381500Y-130850105D01*
X122381500Y-130849921D01*
X122381501Y-130849918D01*
X122381500Y-130799693D01*
X122381500Y-130142399D01*
X122401502Y-130074278D01*
X122455158Y-130027785D01*
X122507500Y-130016399D01*
X122787064Y-130016399D01*
X122787066Y-130016399D01*
X122787069Y-130016398D01*
X122787072Y-130016398D01*
X122823663Y-130009119D01*
X122861301Y-130001634D01*
X122945484Y-129945384D01*
X123001734Y-129861201D01*
X123016500Y-129786967D01*
X123016499Y-128212834D01*
X123016498Y-128212830D01*
X123016498Y-128212826D01*
X123001734Y-128138599D01*
X122945483Y-128054415D01*
X122861302Y-127998166D01*
X122787069Y-127983400D01*
X122787067Y-127983400D01*
X122507500Y-127983400D01*
X122439379Y-127963398D01*
X122392886Y-127909742D01*
X122381500Y-127857400D01*
X122381500Y-127074149D01*
X131499294Y-127074149D01*
X131499300Y-127074238D01*
X131499300Y-140934008D01*
X131499300Y-141065792D01*
X131524267Y-141158973D01*
X131533407Y-141193083D01*
X131533410Y-141193090D01*
X131599297Y-141307210D01*
X131599305Y-141307220D01*
X131692479Y-141400394D01*
X131692484Y-141400398D01*
X131692486Y-141400400D01*
X131806614Y-141466292D01*
X131933908Y-141500400D01*
X131933910Y-141500400D01*
X145065690Y-141500400D01*
X145065692Y-141500400D01*
X145192986Y-141466292D01*
X145307114Y-141400400D01*
X145400300Y-141307214D01*
X145466192Y-141193086D01*
X145500300Y-141065792D01*
X145500300Y-127074149D01*
X153499194Y-127074149D01*
X153499200Y-127074238D01*
X153499200Y-140934008D01*
X153499200Y-141065792D01*
X153524167Y-141158973D01*
X153533307Y-141193083D01*
X153533310Y-141193090D01*
X153599197Y-141307210D01*
X153599205Y-141307220D01*
X153692379Y-141400394D01*
X153692384Y-141400398D01*
X153692386Y-141400400D01*
X153806514Y-141466292D01*
X153933808Y-141500400D01*
X153933810Y-141500400D01*
X167065590Y-141500400D01*
X167065592Y-141500400D01*
X167192886Y-141466292D01*
X167307014Y-141400400D01*
X167400200Y-141307214D01*
X167466092Y-141193086D01*
X167500200Y-141065792D01*
X167500200Y-127074149D01*
X175499194Y-127074149D01*
X175499200Y-127074238D01*
X175499200Y-140934008D01*
X175499200Y-141065792D01*
X175524167Y-141158973D01*
X175533307Y-141193083D01*
X175533310Y-141193090D01*
X175599197Y-141307210D01*
X175599205Y-141307220D01*
X175692379Y-141400394D01*
X175692384Y-141400398D01*
X175692386Y-141400400D01*
X175806514Y-141466292D01*
X175933808Y-141500400D01*
X175933810Y-141500400D01*
X189065590Y-141500400D01*
X189065592Y-141500400D01*
X189192886Y-141466292D01*
X189307014Y-141400400D01*
X189400200Y-141307214D01*
X189466092Y-141193086D01*
X189500200Y-141065792D01*
X189500200Y-127000838D01*
X189500205Y-126934947D01*
X189500200Y-126934928D01*
X189500200Y-126934908D01*
X189483004Y-126870732D01*
X189466107Y-126807650D01*
X189466097Y-126807632D01*
X189466092Y-126807614D01*
X189434045Y-126752107D01*
X189400224Y-126693517D01*
X189400209Y-126693502D01*
X189400200Y-126693486D01*
X189353634Y-126646920D01*
X189307045Y-126600324D01*
X189307044Y-126600323D01*
X189307039Y-126600318D01*
X189307019Y-126600303D01*
X189305264Y-126599290D01*
X189248459Y-126566493D01*
X189248460Y-126566491D01*
X189248452Y-126566489D01*
X189192922Y-126534423D01*
X189192921Y-126534422D01*
X189192906Y-126534414D01*
X189192888Y-126534409D01*
X189192886Y-126534408D01*
X189128237Y-126517085D01*
X189099999Y-126509516D01*
X189065612Y-126500300D01*
X189065592Y-126500300D01*
X189000621Y-126500300D01*
X176073742Y-126499305D01*
X176073656Y-126499300D01*
X176065592Y-126499300D01*
X175998856Y-126499300D01*
X175933842Y-126499294D01*
X175933814Y-126499298D01*
X175869638Y-126516493D01*
X175869631Y-126516495D01*
X175806531Y-126533397D01*
X175761082Y-126559637D01*
X175761080Y-126559638D01*
X175751007Y-126565454D01*
X175692417Y-126599276D01*
X175692402Y-126599290D01*
X175692386Y-126599300D01*
X175645820Y-126645865D01*
X175599224Y-126692455D01*
X175599214Y-126692471D01*
X175599200Y-126692486D01*
X175565393Y-126751040D01*
X175533323Y-126806578D01*
X175533317Y-126806596D01*
X175533308Y-126806614D01*
X175515985Y-126871262D01*
X175512965Y-126882529D01*
X175512963Y-126882534D01*
X175499200Y-126933888D01*
X175499200Y-126999771D01*
X175499194Y-127074149D01*
X167500200Y-127074149D01*
X167500200Y-127000838D01*
X167500205Y-126934947D01*
X167500200Y-126934928D01*
X167500200Y-126934908D01*
X167483004Y-126870732D01*
X167466107Y-126807650D01*
X167466097Y-126807632D01*
X167466092Y-126807614D01*
X167434045Y-126752107D01*
X167400224Y-126693517D01*
X167400209Y-126693502D01*
X167400200Y-126693486D01*
X167353634Y-126646920D01*
X167307045Y-126600324D01*
X167307044Y-126600323D01*
X167307039Y-126600318D01*
X167307019Y-126600303D01*
X167305264Y-126599290D01*
X167248459Y-126566493D01*
X167248460Y-126566491D01*
X167248452Y-126566489D01*
X167192922Y-126534423D01*
X167192921Y-126534422D01*
X167192906Y-126534414D01*
X167192888Y-126534409D01*
X167192886Y-126534408D01*
X167128237Y-126517085D01*
X167099999Y-126509516D01*
X167065612Y-126500300D01*
X167065592Y-126500300D01*
X167000621Y-126500300D01*
X154073742Y-126499305D01*
X154073656Y-126499300D01*
X154065592Y-126499300D01*
X153998856Y-126499300D01*
X153933842Y-126499294D01*
X153933814Y-126499298D01*
X153869638Y-126516493D01*
X153869631Y-126516495D01*
X153806531Y-126533397D01*
X153761082Y-126559637D01*
X153761080Y-126559638D01*
X153751007Y-126565454D01*
X153692417Y-126599276D01*
X153692402Y-126599290D01*
X153692386Y-126599300D01*
X153645820Y-126645865D01*
X153599224Y-126692455D01*
X153599214Y-126692471D01*
X153599200Y-126692486D01*
X153565393Y-126751040D01*
X153533323Y-126806578D01*
X153533317Y-126806596D01*
X153533308Y-126806614D01*
X153515985Y-126871262D01*
X153512965Y-126882529D01*
X153512963Y-126882534D01*
X153499200Y-126933888D01*
X153499200Y-126999771D01*
X153499194Y-127074149D01*
X145500300Y-127074149D01*
X145500300Y-127000838D01*
X145500305Y-126934947D01*
X145500300Y-126934928D01*
X145500300Y-126934908D01*
X145483104Y-126870732D01*
X145466207Y-126807650D01*
X145466197Y-126807632D01*
X145466192Y-126807614D01*
X145434145Y-126752107D01*
X145400324Y-126693517D01*
X145400309Y-126693502D01*
X145400300Y-126693486D01*
X145353734Y-126646920D01*
X145307145Y-126600324D01*
X145307144Y-126600323D01*
X145307139Y-126600318D01*
X145307119Y-126600303D01*
X145305364Y-126599290D01*
X145248559Y-126566493D01*
X145248560Y-126566491D01*
X145248552Y-126566489D01*
X145193022Y-126534423D01*
X145193021Y-126534422D01*
X145193006Y-126534414D01*
X145192988Y-126534409D01*
X145192986Y-126534408D01*
X145128337Y-126517085D01*
X145100099Y-126509516D01*
X145065712Y-126500300D01*
X145065692Y-126500300D01*
X145000721Y-126500300D01*
X132073842Y-126499305D01*
X132073756Y-126499300D01*
X132065692Y-126499300D01*
X131998956Y-126499300D01*
X131933942Y-126499294D01*
X131933914Y-126499298D01*
X131869738Y-126516493D01*
X131869731Y-126516495D01*
X131806631Y-126533397D01*
X131761182Y-126559637D01*
X131761180Y-126559638D01*
X131751107Y-126565454D01*
X131692517Y-126599276D01*
X131692502Y-126599290D01*
X131692486Y-126599300D01*
X131645920Y-126645865D01*
X131599324Y-126692455D01*
X131599314Y-126692471D01*
X131599300Y-126692486D01*
X131565493Y-126751040D01*
X131533423Y-126806578D01*
X131533417Y-126806596D01*
X131533408Y-126806614D01*
X131516085Y-126871262D01*
X131513065Y-126882529D01*
X131513063Y-126882534D01*
X131499300Y-126933888D01*
X131499300Y-126999771D01*
X131499294Y-127074149D01*
X122381500Y-127074149D01*
X122381500Y-125310111D01*
X122401502Y-125241990D01*
X122418401Y-125221019D01*
X134776296Y-112863030D01*
X135640000Y-112863030D01*
X135640000Y-114437163D01*
X135640001Y-114437173D01*
X135654765Y-114511400D01*
X135711016Y-114595584D01*
X135795197Y-114651833D01*
X135795199Y-114651834D01*
X135869433Y-114666600D01*
X137443566Y-114666599D01*
X137443569Y-114666598D01*
X137443573Y-114666598D01*
X137492826Y-114656801D01*
X137517801Y-114651834D01*
X137601984Y-114595584D01*
X137658234Y-114511401D01*
X137673000Y-114437167D01*
X137672999Y-113784930D01*
X139055400Y-113784930D01*
X139055400Y-115435063D01*
X139055401Y-115435073D01*
X139070165Y-115509300D01*
X139126416Y-115593484D01*
X139210597Y-115649733D01*
X139210599Y-115649734D01*
X139284833Y-115664500D01*
X140572685Y-115664499D01*
X140640806Y-115684501D01*
X140661780Y-115701403D01*
X141189618Y-116229240D01*
X141189639Y-116229263D01*
X141265046Y-116304670D01*
X141265051Y-116304674D01*
X141265053Y-116304676D01*
X141265054Y-116304677D01*
X141265056Y-116304678D01*
X141352041Y-116354899D01*
X141352043Y-116354899D01*
X141352046Y-116354901D01*
X141449075Y-116380900D01*
X185521294Y-116380900D01*
X185521322Y-116380901D01*
X185530082Y-116380900D01*
X185530086Y-116380902D01*
X185597052Y-116380900D01*
X185597054Y-116380900D01*
X185625194Y-116380900D01*
X185630525Y-116380900D01*
X185630528Y-116380899D01*
X185630536Y-116380899D01*
X185683975Y-116366577D01*
X185727554Y-116354901D01*
X185727559Y-116354898D01*
X185727563Y-116354897D01*
X185762247Y-116334870D01*
X185814547Y-116304676D01*
X185814551Y-116304671D01*
X185814556Y-116304669D01*
X185848080Y-116271142D01*
X185885576Y-116233647D01*
X185885576Y-116233646D01*
X185892740Y-116226483D01*
X185892755Y-116226463D01*
X186617670Y-115501505D01*
X186679981Y-115467479D01*
X186706768Y-115464599D01*
X188194864Y-115464599D01*
X188194866Y-115464599D01*
X188194869Y-115464598D01*
X188194872Y-115464598D01*
X188231463Y-115457319D01*
X188269101Y-115449834D01*
X188353284Y-115393584D01*
X188409534Y-115309401D01*
X188416221Y-115275782D01*
X188449128Y-115212873D01*
X188510822Y-115177740D01*
X188581717Y-115181540D01*
X188639304Y-115223065D01*
X188663379Y-115275782D01*
X188670066Y-115309401D01*
X188726316Y-115393584D01*
X188810497Y-115449833D01*
X188810499Y-115449834D01*
X188884733Y-115464600D01*
X190734866Y-115464599D01*
X190734869Y-115464598D01*
X190734873Y-115464598D01*
X190784126Y-115454801D01*
X190809101Y-115449834D01*
X190893284Y-115393584D01*
X190949534Y-115309401D01*
X190964300Y-115235167D01*
X190964299Y-113385034D01*
X190964298Y-113385031D01*
X190964298Y-113385026D01*
X190949534Y-113310799D01*
X190893283Y-113226615D01*
X190809102Y-113170366D01*
X190734867Y-113155600D01*
X188884736Y-113155600D01*
X188884726Y-113155601D01*
X188810499Y-113170365D01*
X188726315Y-113226616D01*
X188670066Y-113310796D01*
X188663378Y-113344419D01*
X188630469Y-113407329D01*
X188568773Y-113442459D01*
X188497879Y-113438658D01*
X188440293Y-113397132D01*
X188416220Y-113344415D01*
X188409534Y-113310799D01*
X188353283Y-113226615D01*
X188269102Y-113170366D01*
X188194867Y-113155600D01*
X186344736Y-113155600D01*
X186344726Y-113155601D01*
X186270499Y-113170365D01*
X186186315Y-113226616D01*
X186130066Y-113310796D01*
X186123378Y-113344419D01*
X186090469Y-113407329D01*
X186028773Y-113442459D01*
X185957879Y-113438658D01*
X185900293Y-113397132D01*
X185876220Y-113344415D01*
X185869534Y-113310799D01*
X185813283Y-113226615D01*
X185729102Y-113170366D01*
X185654867Y-113155600D01*
X183804736Y-113155600D01*
X183804726Y-113155601D01*
X183730499Y-113170365D01*
X183646315Y-113226616D01*
X183590066Y-113310796D01*
X183583378Y-113344419D01*
X183550469Y-113407329D01*
X183488773Y-113442459D01*
X183417879Y-113438658D01*
X183360293Y-113397132D01*
X183336220Y-113344415D01*
X183329534Y-113310799D01*
X183273283Y-113226615D01*
X183189102Y-113170366D01*
X183114869Y-113155600D01*
X183114867Y-113155600D01*
X182697300Y-113155600D01*
X182629179Y-113135598D01*
X182582686Y-113081942D01*
X182571300Y-113029600D01*
X182571300Y-112770315D01*
X182591302Y-112702194D01*
X182608202Y-112681222D01*
X186621116Y-108668402D01*
X186683428Y-108634379D01*
X186710210Y-108631500D01*
X190550223Y-108631500D01*
X190550225Y-108631500D01*
X190647254Y-108605501D01*
X190647257Y-108605499D01*
X190647258Y-108605499D01*
X190703839Y-108572832D01*
X190734247Y-108555276D01*
X190805276Y-108484247D01*
X190822996Y-108466527D01*
X190822998Y-108466523D01*
X195723770Y-103565750D01*
X195723780Y-103565743D01*
X195805170Y-103484353D01*
X195805176Y-103484347D01*
X195855401Y-103397354D01*
X195881400Y-103300325D01*
X195881400Y-82711559D01*
X195901402Y-82643438D01*
X195918301Y-82622467D01*
X195947451Y-82593318D01*
X196021084Y-82465782D01*
X196059200Y-82323533D01*
X196059200Y-82176267D01*
X196021084Y-82034018D01*
X195947451Y-81906482D01*
X195947449Y-81906480D01*
X195947445Y-81906475D01*
X195843324Y-81802354D01*
X195843314Y-81802346D01*
X195715782Y-81728716D01*
X195573533Y-81690600D01*
X195426267Y-81690600D01*
X195331434Y-81716010D01*
X195284017Y-81728716D01*
X195156485Y-81802346D01*
X195156475Y-81802354D01*
X195052354Y-81906475D01*
X195052348Y-81906483D01*
X195004130Y-81989999D01*
X194952747Y-82038992D01*
X194883033Y-82052427D01*
X194817122Y-82026040D01*
X194805916Y-82016093D01*
X188419205Y-75629382D01*
X188385179Y-75567070D01*
X188382300Y-75540287D01*
X188382300Y-75530599D01*
X188402302Y-75462478D01*
X188455958Y-75415985D01*
X188508300Y-75404599D01*
X188674864Y-75404599D01*
X188674866Y-75404599D01*
X188674869Y-75404598D01*
X188674872Y-75404598D01*
X188711463Y-75397319D01*
X188749101Y-75389834D01*
X188833284Y-75333584D01*
X188889534Y-75249401D01*
X188904300Y-75175167D01*
X188904299Y-73825034D01*
X188904298Y-73825030D01*
X188904298Y-73825026D01*
X188889534Y-73750799D01*
X188833283Y-73666615D01*
X188749102Y-73610366D01*
X188674867Y-73595600D01*
X187324736Y-73595600D01*
X187324726Y-73595601D01*
X187250499Y-73610365D01*
X187166315Y-73666616D01*
X187104563Y-73759032D01*
X187050085Y-73804559D01*
X186979642Y-73813406D01*
X186915599Y-73782764D01*
X186895034Y-73759031D01*
X186889534Y-73750800D01*
X186889534Y-73750799D01*
X186833284Y-73666616D01*
X186833283Y-73666615D01*
X186749102Y-73610366D01*
X186674867Y-73595600D01*
X185324736Y-73595600D01*
X185324726Y-73595601D01*
X185250499Y-73610365D01*
X185166315Y-73666616D01*
X185104563Y-73759032D01*
X185050085Y-73804559D01*
X184979642Y-73813406D01*
X184915599Y-73782764D01*
X184895034Y-73759031D01*
X184889534Y-73750800D01*
X184889534Y-73750799D01*
X184833284Y-73666616D01*
X184833283Y-73666615D01*
X184749102Y-73610366D01*
X184674867Y-73595600D01*
X183324736Y-73595600D01*
X183324726Y-73595601D01*
X183250499Y-73610365D01*
X183166315Y-73666616D01*
X183110066Y-73750797D01*
X183095300Y-73825030D01*
X183095300Y-75175163D01*
X183095301Y-75175173D01*
X183110065Y-75249400D01*
X183166316Y-75333584D01*
X183250497Y-75389833D01*
X183250499Y-75389834D01*
X183324733Y-75404600D01*
X184674866Y-75404599D01*
X184674869Y-75404598D01*
X184674873Y-75404598D01*
X184724126Y-75394801D01*
X184749101Y-75389834D01*
X184833284Y-75333584D01*
X184889534Y-75249401D01*
X184889534Y-75249400D01*
X184895035Y-75241168D01*
X184949512Y-75195640D01*
X185019955Y-75186793D01*
X185083999Y-75217434D01*
X185104565Y-75241168D01*
X185166316Y-75333584D01*
X185250497Y-75389833D01*
X185250499Y-75389834D01*
X185324733Y-75404600D01*
X186311490Y-75404599D01*
X186379611Y-75424601D01*
X186400572Y-75441490D01*
X188999556Y-78039679D01*
X194041784Y-83080365D01*
X194082282Y-83120850D01*
X194116316Y-83183157D01*
X194119200Y-83209959D01*
X194119200Y-100790395D01*
X194099198Y-100858516D01*
X194082268Y-100879518D01*
X192421845Y-102538926D01*
X190449666Y-104509900D01*
X190127646Y-104831723D01*
X190065324Y-104865729D01*
X190038578Y-104868600D01*
X186119275Y-104868600D01*
X186059890Y-104884512D01*
X186022241Y-104894600D01*
X185935256Y-104944821D01*
X185935251Y-104944825D01*
X185899738Y-104980339D01*
X185864224Y-105015853D01*
X185864222Y-105015855D01*
X185381381Y-105498696D01*
X185319069Y-105532721D01*
X185292286Y-105535600D01*
X183804736Y-105535600D01*
X183804726Y-105535601D01*
X183730499Y-105550365D01*
X183646315Y-105606616D01*
X183590066Y-105690797D01*
X183575300Y-105765030D01*
X183575300Y-107082385D01*
X183555298Y-107150506D01*
X183538396Y-107171480D01*
X182878482Y-107831395D01*
X182816169Y-107865420D01*
X182789386Y-107868300D01*
X176063980Y-107868300D01*
X175995859Y-107848298D01*
X175949366Y-107794642D01*
X175939262Y-107724368D01*
X175947571Y-107694083D01*
X175949633Y-107689103D01*
X175949633Y-107689102D01*
X175949634Y-107689101D01*
X175964400Y-107614867D01*
X175964399Y-105764734D01*
X175964398Y-105764730D01*
X175964398Y-105764726D01*
X175949634Y-105690499D01*
X175927719Y-105657702D01*
X175893384Y-105606316D01*
X175893383Y-105606315D01*
X175809202Y-105550066D01*
X175734967Y-105535300D01*
X173884836Y-105535300D01*
X173884826Y-105535301D01*
X173810599Y-105550065D01*
X173726415Y-105606316D01*
X173670166Y-105690496D01*
X173663478Y-105724119D01*
X173630569Y-105787029D01*
X173568873Y-105822159D01*
X173497979Y-105818358D01*
X173440393Y-105776832D01*
X173416320Y-105724115D01*
X173409634Y-105690499D01*
X173387719Y-105657702D01*
X173353384Y-105606316D01*
X173353383Y-105606315D01*
X173269202Y-105550066D01*
X173194967Y-105535300D01*
X171344836Y-105535300D01*
X171344826Y-105535301D01*
X171270599Y-105550065D01*
X171186415Y-105606316D01*
X171130166Y-105690496D01*
X171123478Y-105724119D01*
X171090569Y-105787029D01*
X171028873Y-105822159D01*
X170957979Y-105818358D01*
X170900393Y-105776832D01*
X170876320Y-105724115D01*
X170869634Y-105690499D01*
X170847719Y-105657702D01*
X170813384Y-105606316D01*
X170813383Y-105606315D01*
X170729202Y-105550066D01*
X170654967Y-105535300D01*
X168804836Y-105535300D01*
X168804826Y-105535301D01*
X168730599Y-105550065D01*
X168646415Y-105606316D01*
X168590166Y-105690497D01*
X168575400Y-105764730D01*
X168575400Y-107614863D01*
X168575401Y-107614873D01*
X168590165Y-107689100D01*
X168646416Y-107773284D01*
X168730597Y-107829533D01*
X168730599Y-107829534D01*
X168804833Y-107844300D01*
X170292944Y-107844299D01*
X170361065Y-107864301D01*
X170382037Y-107881201D01*
X170958861Y-108457987D01*
X171002109Y-108501232D01*
X171055953Y-108555076D01*
X171055960Y-108555080D01*
X171055963Y-108555083D01*
X171073611Y-108565271D01*
X171142209Y-108604875D01*
X171142947Y-108605310D01*
X171143780Y-108605525D01*
X171196820Y-108619736D01*
X171196823Y-108619738D01*
X171239061Y-108631055D01*
X171239930Y-108631295D01*
X171239975Y-108631301D01*
X171239983Y-108631300D01*
X171239987Y-108631302D01*
X171306953Y-108631300D01*
X171306955Y-108631300D01*
X183049823Y-108631300D01*
X183049825Y-108631300D01*
X183146854Y-108605301D01*
X183146857Y-108605299D01*
X183146858Y-108605299D01*
X183216187Y-108565272D01*
X183233847Y-108555076D01*
X183304876Y-108484047D01*
X183907419Y-107881504D01*
X183969731Y-107847478D01*
X183996514Y-107844599D01*
X185271318Y-107844599D01*
X185339439Y-107864601D01*
X185385932Y-107918257D01*
X185396036Y-107988531D01*
X185366542Y-108053111D01*
X185360414Y-108059694D01*
X182088579Y-111331595D01*
X182026267Y-111365620D01*
X181999483Y-111368500D01*
X145567859Y-111368500D01*
X145567843Y-111368499D01*
X145560125Y-111368499D01*
X145459675Y-111368499D01*
X145424979Y-111377796D01*
X145362645Y-111394498D01*
X145275656Y-111444721D01*
X145275646Y-111444729D01*
X143201780Y-113518595D01*
X143139468Y-113552621D01*
X143112685Y-113555500D01*
X141824836Y-113555500D01*
X141824826Y-113555501D01*
X141750599Y-113570265D01*
X141666415Y-113626516D01*
X141610166Y-113710697D01*
X141595400Y-113784930D01*
X141595400Y-115251788D01*
X141575398Y-115319909D01*
X141521742Y-115366402D01*
X141451468Y-115376506D01*
X141386888Y-115347012D01*
X141380305Y-115340883D01*
X141201304Y-115161882D01*
X141167278Y-115099570D01*
X141164399Y-115072787D01*
X141164399Y-113784936D01*
X141164398Y-113784927D01*
X141149634Y-113710699D01*
X141093383Y-113626515D01*
X141009202Y-113570266D01*
X140934967Y-113555500D01*
X139284836Y-113555500D01*
X139284826Y-113555501D01*
X139210599Y-113570265D01*
X139126415Y-113626516D01*
X139070166Y-113710697D01*
X139055400Y-113784930D01*
X137672999Y-113784930D01*
X137672999Y-113626516D01*
X137672999Y-112863036D01*
X137672998Y-112863026D01*
X137658234Y-112788799D01*
X137601983Y-112704615D01*
X137517802Y-112648366D01*
X137443567Y-112633600D01*
X135869436Y-112633600D01*
X135869426Y-112633601D01*
X135795199Y-112648365D01*
X135711015Y-112704616D01*
X135654766Y-112788797D01*
X135640000Y-112863030D01*
X134776296Y-112863030D01*
X135221019Y-112418304D01*
X135283331Y-112384280D01*
X135310115Y-112381400D01*
X140230223Y-112381400D01*
X140230225Y-112381400D01*
X140327254Y-112355401D01*
X140327257Y-112355399D01*
X140327258Y-112355399D01*
X140378433Y-112325853D01*
X140414247Y-112305176D01*
X140485276Y-112234147D01*
X140502996Y-112216427D01*
X140502998Y-112216423D01*
X144638017Y-108081403D01*
X144700329Y-108047378D01*
X144727112Y-108044499D01*
X146014964Y-108044499D01*
X146014966Y-108044499D01*
X146014969Y-108044498D01*
X146014972Y-108044498D01*
X146051563Y-108037219D01*
X146089201Y-108029734D01*
X146173384Y-107973484D01*
X146229634Y-107889301D01*
X146244400Y-107815067D01*
X146244399Y-106164934D01*
X146244398Y-106164931D01*
X146244398Y-106164926D01*
X146229634Y-106090699D01*
X146173383Y-106006515D01*
X146089202Y-105950266D01*
X146014967Y-105935500D01*
X144364836Y-105935500D01*
X144364826Y-105935501D01*
X144290599Y-105950265D01*
X144206415Y-106006516D01*
X144150166Y-106090697D01*
X144135400Y-106164930D01*
X144135400Y-107452787D01*
X144115398Y-107520908D01*
X144098499Y-107541877D01*
X144008590Y-107631787D01*
X143919494Y-107720883D01*
X143857182Y-107754908D01*
X143786366Y-107749843D01*
X143729531Y-107707296D01*
X143704720Y-107640775D01*
X143704399Y-107631811D01*
X143704399Y-106164934D01*
X143704398Y-106164931D01*
X143704398Y-106164926D01*
X143689634Y-106090699D01*
X143633383Y-106006515D01*
X143549202Y-105950266D01*
X143474967Y-105935500D01*
X141824836Y-105935500D01*
X141824826Y-105935501D01*
X141750599Y-105950265D01*
X141666415Y-106006516D01*
X141610166Y-106090697D01*
X141595400Y-106164930D01*
X141595400Y-107815063D01*
X141595401Y-107815073D01*
X141610165Y-107889300D01*
X141666416Y-107973484D01*
X141750597Y-108029733D01*
X141750599Y-108029734D01*
X141824833Y-108044500D01*
X143291687Y-108044499D01*
X143359808Y-108064501D01*
X143406301Y-108118157D01*
X143416405Y-108188431D01*
X143386912Y-108253011D01*
X143380782Y-108259594D01*
X140058882Y-111581495D01*
X139996570Y-111615521D01*
X139969787Y-111618400D01*
X135157858Y-111618400D01*
X135157841Y-111618399D01*
X135049674Y-111618399D01*
X135049671Y-111618400D01*
X135009760Y-111629095D01*
X134982778Y-111636325D01*
X134971746Y-111639280D01*
X134952643Y-111644399D01*
X134865656Y-111694621D01*
X134865651Y-111694625D01*
X134835093Y-111725184D01*
X134794624Y-111765653D01*
X134794623Y-111765654D01*
X134794621Y-111765655D01*
X121694724Y-124865652D01*
X121644499Y-124952644D01*
X121644498Y-124952648D01*
X121618499Y-125049676D01*
X121618499Y-125049677D01*
X121618499Y-125049678D01*
X121618500Y-125150127D01*
X121618500Y-127857400D01*
X121598498Y-127925521D01*
X121544842Y-127972014D01*
X121492500Y-127983400D01*
X121212936Y-127983400D01*
X121212926Y-127983401D01*
X121138699Y-127998165D01*
X121054515Y-128054416D01*
X120998266Y-128138597D01*
X120983500Y-128212830D01*
X120983500Y-129786963D01*
X120983501Y-129786973D01*
X120998265Y-129861200D01*
X121054516Y-129945384D01*
X121138697Y-130001633D01*
X121138699Y-130001634D01*
X121212933Y-130016400D01*
X121492501Y-130016399D01*
X121560620Y-130036401D01*
X121607113Y-130090056D01*
X121618500Y-130142399D01*
X121618500Y-130589492D01*
X121598498Y-130657613D01*
X121581597Y-130678586D01*
X119237371Y-133022894D01*
X119175059Y-133056920D01*
X119148274Y-133059800D01*
X118051636Y-133059800D01*
X118051626Y-133059801D01*
X117977399Y-133074565D01*
X117893215Y-133130816D01*
X117836966Y-133214997D01*
X117822200Y-133289230D01*
X109695199Y-133289230D01*
X109680434Y-133214999D01*
X109624183Y-133130815D01*
X109540002Y-133074566D01*
X109465767Y-133059800D01*
X107891636Y-133059800D01*
X107891626Y-133059801D01*
X107817399Y-133074565D01*
X107733215Y-133130816D01*
X107676966Y-133214997D01*
X107662200Y-133289230D01*
X100500500Y-133289230D01*
X100500500Y-117884308D01*
X105249500Y-117884308D01*
X105249500Y-131884308D01*
X105249500Y-132016092D01*
X105274467Y-132109273D01*
X105283607Y-132143383D01*
X105283610Y-132143390D01*
X105349497Y-132257510D01*
X105349505Y-132257520D01*
X105442679Y-132350694D01*
X105442684Y-132350698D01*
X105442686Y-132350700D01*
X105556814Y-132416592D01*
X105684108Y-132450700D01*
X105684110Y-132450700D01*
X118815790Y-132450700D01*
X118815792Y-132450700D01*
X118943086Y-132416592D01*
X119057214Y-132350700D01*
X119150400Y-132257514D01*
X119216292Y-132143386D01*
X119250400Y-132016092D01*
X119250400Y-117884308D01*
X119216292Y-117757014D01*
X119150400Y-117642886D01*
X119150398Y-117642884D01*
X119150394Y-117642879D01*
X119057220Y-117549705D01*
X119057210Y-117549697D01*
X118943090Y-117483810D01*
X118943087Y-117483809D01*
X118943086Y-117483808D01*
X118943084Y-117483807D01*
X118943083Y-117483807D01*
X118908973Y-117474667D01*
X118815792Y-117449700D01*
X105815892Y-117449700D01*
X105684108Y-117449700D01*
X105615894Y-117467977D01*
X105556816Y-117483807D01*
X105556809Y-117483810D01*
X105442689Y-117549697D01*
X105442679Y-117549705D01*
X105349505Y-117642879D01*
X105349497Y-117642889D01*
X105283610Y-117757009D01*
X105283608Y-117757014D01*
X105249500Y-117884308D01*
X100500500Y-117884308D01*
X100500500Y-115758900D01*
X100520502Y-115690779D01*
X100574158Y-115644286D01*
X100626500Y-115632900D01*
X103186790Y-115632900D01*
X103186791Y-115632900D01*
X103309569Y-115608478D01*
X103425222Y-115560573D01*
X103529308Y-115491025D01*
X106117225Y-112903108D01*
X106186773Y-112799022D01*
X106234678Y-112683369D01*
X106259100Y-112560591D01*
X106259100Y-112435409D01*
X106259100Y-107434209D01*
X106234678Y-107311431D01*
X106186773Y-107195778D01*
X106117225Y-107091692D01*
X106028708Y-107003175D01*
X103531808Y-104506275D01*
X103427722Y-104436727D01*
X103358608Y-104408099D01*
X103312074Y-104388824D01*
X103312069Y-104388822D01*
X103189293Y-104364400D01*
X103189291Y-104364400D01*
X100626500Y-104364400D01*
X100558379Y-104344398D01*
X100511886Y-104290742D01*
X100500500Y-104238400D01*
X100500500Y-102604530D01*
X107503400Y-102604530D01*
X107503400Y-104178663D01*
X107503401Y-104178673D01*
X107518165Y-104252900D01*
X107574416Y-104337084D01*
X107658597Y-104393333D01*
X107658599Y-104393334D01*
X107732833Y-104408100D01*
X109306966Y-104408099D01*
X109306969Y-104408098D01*
X109306973Y-104408098D01*
X109356226Y-104398301D01*
X109381201Y-104393334D01*
X109465384Y-104337084D01*
X109521634Y-104252901D01*
X109536400Y-104178667D01*
X109536399Y-102604534D01*
X109536399Y-102604533D01*
X109536399Y-102604531D01*
X109536399Y-102604530D01*
X115123400Y-102604530D01*
X115123400Y-104178663D01*
X115123401Y-104178673D01*
X115138165Y-104252900D01*
X115194416Y-104337084D01*
X115278597Y-104393333D01*
X115278599Y-104393334D01*
X115352833Y-104408100D01*
X116926966Y-104408099D01*
X116926969Y-104408098D01*
X116926973Y-104408098D01*
X116976226Y-104398301D01*
X117001201Y-104393334D01*
X117085384Y-104337084D01*
X117141634Y-104252901D01*
X117156400Y-104178667D01*
X117156400Y-103833600D01*
X117176402Y-103765479D01*
X117230058Y-103718986D01*
X117282400Y-103707600D01*
X118036301Y-103707600D01*
X118104422Y-103727602D01*
X118150915Y-103781258D01*
X118162301Y-103833600D01*
X118162301Y-104113072D01*
X118177065Y-104187300D01*
X118233316Y-104271484D01*
X118317497Y-104327733D01*
X118317499Y-104327734D01*
X118391733Y-104342500D01*
X119965866Y-104342499D01*
X119965869Y-104342498D01*
X119965873Y-104342498D01*
X120015126Y-104332701D01*
X120040101Y-104327734D01*
X120124284Y-104271484D01*
X120180534Y-104187301D01*
X120195300Y-104113067D01*
X120195299Y-102538934D01*
X120195298Y-102538930D01*
X120195298Y-102538926D01*
X120180534Y-102464699D01*
X120138240Y-102401402D01*
X120124284Y-102380516D01*
X120124283Y-102380515D01*
X120040102Y-102324266D01*
X119965867Y-102309500D01*
X118391736Y-102309500D01*
X118391726Y-102309501D01*
X118317499Y-102324265D01*
X118233315Y-102380516D01*
X118177066Y-102464697D01*
X118162300Y-102538930D01*
X118162300Y-102818600D01*
X118142298Y-102886721D01*
X118088642Y-102933214D01*
X118036300Y-102944600D01*
X117282399Y-102944600D01*
X117214278Y-102924598D01*
X117167785Y-102870942D01*
X117156399Y-102818600D01*
X117156399Y-102604536D01*
X117156398Y-102604527D01*
X117141634Y-102530299D01*
X117097801Y-102464699D01*
X117085384Y-102446116D01*
X117085383Y-102446115D01*
X117001202Y-102389866D01*
X116926967Y-102375100D01*
X115352836Y-102375100D01*
X115352826Y-102375101D01*
X115278599Y-102389865D01*
X115194415Y-102446116D01*
X115138166Y-102530297D01*
X115123400Y-102604530D01*
X109536399Y-102604530D01*
X109521634Y-102530299D01*
X109477801Y-102464699D01*
X109465384Y-102446116D01*
X109465383Y-102446115D01*
X109381202Y-102389866D01*
X109306967Y-102375100D01*
X107732836Y-102375100D01*
X107732826Y-102375101D01*
X107658599Y-102389865D01*
X107574415Y-102446116D01*
X107518166Y-102530297D01*
X107503400Y-102604530D01*
X100500500Y-102604530D01*
X100500500Y-100064530D01*
X107503400Y-100064530D01*
X107503400Y-101638663D01*
X107503401Y-101638673D01*
X107518165Y-101712900D01*
X107574416Y-101797084D01*
X107658597Y-101853333D01*
X107658599Y-101853334D01*
X107732833Y-101868100D01*
X109306966Y-101868099D01*
X109306969Y-101868098D01*
X109306973Y-101868098D01*
X109356226Y-101858301D01*
X109381201Y-101853334D01*
X109465384Y-101797084D01*
X109521634Y-101712901D01*
X109536400Y-101638667D01*
X109536399Y-100064534D01*
X109536399Y-100064533D01*
X109536399Y-100064531D01*
X109536399Y-100064530D01*
X115123400Y-100064530D01*
X115123400Y-101638663D01*
X115123401Y-101638673D01*
X115138165Y-101712900D01*
X115194416Y-101797084D01*
X115278597Y-101853333D01*
X115278599Y-101853334D01*
X115352833Y-101868100D01*
X116926966Y-101868099D01*
X116926969Y-101868098D01*
X116926973Y-101868098D01*
X116976226Y-101858301D01*
X117001201Y-101853334D01*
X117085384Y-101797084D01*
X117141634Y-101712901D01*
X117156400Y-101638667D01*
X117156400Y-101333600D01*
X117176402Y-101265479D01*
X117230058Y-101218986D01*
X117282400Y-101207600D01*
X118036301Y-101207600D01*
X118104422Y-101227602D01*
X118150915Y-101281258D01*
X118162301Y-101333600D01*
X118162301Y-101613272D01*
X118177065Y-101687500D01*
X118233316Y-101771684D01*
X118317497Y-101827933D01*
X118317499Y-101827934D01*
X118391733Y-101842700D01*
X119965866Y-101842699D01*
X119965869Y-101842698D01*
X119965873Y-101842698D01*
X120015126Y-101832901D01*
X120040101Y-101827934D01*
X120124284Y-101771684D01*
X120180534Y-101687501D01*
X120195300Y-101613267D01*
X120195299Y-100039134D01*
X120195298Y-100039130D01*
X120195298Y-100039126D01*
X120180534Y-99964899D01*
X120124283Y-99880715D01*
X120040102Y-99824466D01*
X119965867Y-99809700D01*
X118391736Y-99809700D01*
X118391726Y-99809701D01*
X118317499Y-99824465D01*
X118233315Y-99880716D01*
X118177066Y-99964897D01*
X118162300Y-100039130D01*
X118162300Y-100318600D01*
X118142298Y-100386721D01*
X118088642Y-100433214D01*
X118036300Y-100444600D01*
X117282399Y-100444600D01*
X117214278Y-100424598D01*
X117167785Y-100370942D01*
X117156399Y-100318600D01*
X117156399Y-100064536D01*
X117156398Y-100064527D01*
X117141634Y-99990299D01*
X117085383Y-99906115D01*
X117001202Y-99849866D01*
X116926967Y-99835100D01*
X115352836Y-99835100D01*
X115352826Y-99835101D01*
X115278599Y-99849865D01*
X115194415Y-99906116D01*
X115138166Y-99990297D01*
X115123400Y-100064530D01*
X109536399Y-100064530D01*
X109521634Y-99990299D01*
X109465383Y-99906115D01*
X109381202Y-99849866D01*
X109306967Y-99835100D01*
X107732836Y-99835100D01*
X107732826Y-99835101D01*
X107658599Y-99849865D01*
X107574415Y-99906116D01*
X107518166Y-99990297D01*
X107503400Y-100064530D01*
X100500500Y-100064530D01*
X100500500Y-97524530D01*
X107503400Y-97524530D01*
X107503400Y-99098663D01*
X107503401Y-99098673D01*
X107518165Y-99172900D01*
X107574416Y-99257084D01*
X107658597Y-99313333D01*
X107658599Y-99313334D01*
X107732833Y-99328100D01*
X109306966Y-99328099D01*
X109306969Y-99328098D01*
X109306973Y-99328098D01*
X109356226Y-99318301D01*
X109381201Y-99313334D01*
X109465384Y-99257084D01*
X109521634Y-99172901D01*
X109536400Y-99098667D01*
X109536399Y-97524534D01*
X109536399Y-97524533D01*
X109536399Y-97524531D01*
X109536399Y-97524530D01*
X115123400Y-97524530D01*
X115123400Y-99098663D01*
X115123401Y-99098673D01*
X115138165Y-99172900D01*
X115194416Y-99257084D01*
X115278597Y-99313333D01*
X115278599Y-99313334D01*
X115352833Y-99328100D01*
X116926966Y-99328099D01*
X116926969Y-99328098D01*
X116926973Y-99328098D01*
X116976226Y-99318301D01*
X117001201Y-99313334D01*
X117085384Y-99257084D01*
X117141634Y-99172901D01*
X117156400Y-99098667D01*
X117156399Y-98824056D01*
X117176401Y-98755938D01*
X117230056Y-98709445D01*
X117283031Y-98698060D01*
X118036934Y-98701854D01*
X118104953Y-98722198D01*
X118151176Y-98776087D01*
X118162300Y-98827852D01*
X118162300Y-99113063D01*
X118162301Y-99113073D01*
X118177065Y-99187300D01*
X118233316Y-99271484D01*
X118317497Y-99327733D01*
X118317499Y-99327734D01*
X118391733Y-99342500D01*
X119965866Y-99342499D01*
X119965869Y-99342498D01*
X119965873Y-99342498D01*
X120015126Y-99332701D01*
X120040101Y-99327734D01*
X120124284Y-99271484D01*
X120180534Y-99187301D01*
X120195300Y-99113067D01*
X120195299Y-97538934D01*
X120195298Y-97538930D01*
X120195298Y-97538926D01*
X120180534Y-97464699D01*
X120126465Y-97383780D01*
X120124284Y-97380516D01*
X120124283Y-97380515D01*
X120040102Y-97324266D01*
X119965867Y-97309500D01*
X118391736Y-97309500D01*
X118391726Y-97309501D01*
X118317499Y-97324265D01*
X118233315Y-97380516D01*
X118177066Y-97464697D01*
X118162300Y-97538930D01*
X118162300Y-97812840D01*
X118142298Y-97880961D01*
X118088642Y-97927454D01*
X118035666Y-97938838D01*
X117281765Y-97935044D01*
X117213746Y-97914700D01*
X117167523Y-97860811D01*
X117156399Y-97809046D01*
X117156399Y-97524531D01*
X117156398Y-97524527D01*
X117141634Y-97450299D01*
X117097187Y-97383780D01*
X117085384Y-97366116D01*
X117085383Y-97366115D01*
X117001202Y-97309866D01*
X116926967Y-97295100D01*
X115352836Y-97295100D01*
X115352826Y-97295101D01*
X115278599Y-97309865D01*
X115194415Y-97366116D01*
X115138166Y-97450297D01*
X115123400Y-97524530D01*
X109536399Y-97524530D01*
X109521634Y-97450299D01*
X109477187Y-97383780D01*
X109465384Y-97366116D01*
X109465383Y-97366115D01*
X109381202Y-97309866D01*
X109306967Y-97295100D01*
X107732836Y-97295100D01*
X107732826Y-97295101D01*
X107658599Y-97309865D01*
X107574415Y-97366116D01*
X107518166Y-97450297D01*
X107503400Y-97524530D01*
X100500500Y-97524530D01*
X100500500Y-94984530D01*
X107503400Y-94984530D01*
X107503400Y-96558663D01*
X107503401Y-96558673D01*
X107518165Y-96632900D01*
X107574416Y-96717084D01*
X107658597Y-96773333D01*
X107658599Y-96773334D01*
X107732833Y-96788100D01*
X109306966Y-96788099D01*
X109306969Y-96788098D01*
X109306973Y-96788098D01*
X109356226Y-96778301D01*
X109381201Y-96773334D01*
X109465384Y-96717084D01*
X109521634Y-96632901D01*
X109536400Y-96558667D01*
X109536399Y-94984534D01*
X109536399Y-94984533D01*
X109536399Y-94984531D01*
X109536399Y-94984530D01*
X115123400Y-94984530D01*
X115123400Y-96558663D01*
X115123401Y-96558673D01*
X115138165Y-96632900D01*
X115194416Y-96717084D01*
X115278597Y-96773333D01*
X115278599Y-96773334D01*
X115352833Y-96788100D01*
X116926966Y-96788099D01*
X116926969Y-96788098D01*
X116926973Y-96788098D01*
X116976226Y-96778301D01*
X117001201Y-96773334D01*
X117085384Y-96717084D01*
X117141634Y-96632901D01*
X117156400Y-96558667D01*
X117156400Y-96333600D01*
X117176402Y-96265479D01*
X117230058Y-96218986D01*
X117282400Y-96207600D01*
X118036301Y-96207600D01*
X118104422Y-96227602D01*
X118150915Y-96281258D01*
X118162301Y-96333600D01*
X118162301Y-96613272D01*
X118177065Y-96687500D01*
X118233316Y-96771684D01*
X118317497Y-96827933D01*
X118317499Y-96827934D01*
X118391733Y-96842700D01*
X119965866Y-96842699D01*
X119965869Y-96842698D01*
X119965873Y-96842698D01*
X120015126Y-96832901D01*
X120040101Y-96827934D01*
X120124284Y-96771684D01*
X120180534Y-96687501D01*
X120195300Y-96613267D01*
X120195299Y-95039134D01*
X120195298Y-95039130D01*
X120195298Y-95039126D01*
X120180534Y-94964899D01*
X120144051Y-94910299D01*
X120124284Y-94880716D01*
X120124283Y-94880715D01*
X120040102Y-94824466D01*
X119965867Y-94809700D01*
X118391736Y-94809700D01*
X118391726Y-94809701D01*
X118317499Y-94824465D01*
X118233315Y-94880716D01*
X118177066Y-94964897D01*
X118162300Y-95039130D01*
X118162300Y-95318600D01*
X118142298Y-95386721D01*
X118088642Y-95433214D01*
X118036300Y-95444600D01*
X117282399Y-95444600D01*
X117214278Y-95424598D01*
X117167785Y-95370942D01*
X117156399Y-95318600D01*
X117156399Y-94984536D01*
X117156398Y-94984527D01*
X117141634Y-94910299D01*
X117085383Y-94826115D01*
X117001202Y-94769866D01*
X116926967Y-94755100D01*
X115352836Y-94755100D01*
X115352826Y-94755101D01*
X115278599Y-94769865D01*
X115194415Y-94826116D01*
X115138166Y-94910297D01*
X115123400Y-94984530D01*
X109536399Y-94984530D01*
X109521634Y-94910299D01*
X109465383Y-94826115D01*
X109381202Y-94769866D01*
X109306967Y-94755100D01*
X107732836Y-94755100D01*
X107732826Y-94755101D01*
X107658599Y-94769865D01*
X107574415Y-94826116D01*
X107518166Y-94910297D01*
X107503400Y-94984530D01*
X100500500Y-94984530D01*
X100500500Y-92444530D01*
X107503400Y-92444530D01*
X107503400Y-94018663D01*
X107503401Y-94018673D01*
X107518165Y-94092900D01*
X107574416Y-94177084D01*
X107658597Y-94233333D01*
X107658599Y-94233334D01*
X107732833Y-94248100D01*
X109306966Y-94248099D01*
X109306969Y-94248098D01*
X109306973Y-94248098D01*
X109356226Y-94238301D01*
X109381201Y-94233334D01*
X109465384Y-94177084D01*
X109521634Y-94092901D01*
X109536400Y-94018667D01*
X109536399Y-92444534D01*
X109536399Y-92444533D01*
X109536399Y-92444531D01*
X109536399Y-92444530D01*
X115123400Y-92444530D01*
X115123400Y-94018663D01*
X115123401Y-94018673D01*
X115138165Y-94092900D01*
X115194416Y-94177084D01*
X115278597Y-94233333D01*
X115278599Y-94233334D01*
X115352833Y-94248100D01*
X116926966Y-94248099D01*
X116926969Y-94248098D01*
X116926973Y-94248098D01*
X116976226Y-94238301D01*
X117001201Y-94233334D01*
X117085384Y-94177084D01*
X117141634Y-94092901D01*
X117156400Y-94018667D01*
X117156400Y-93833600D01*
X117176402Y-93765479D01*
X117230058Y-93718986D01*
X117282400Y-93707600D01*
X118036301Y-93707600D01*
X118104422Y-93727602D01*
X118150915Y-93781258D01*
X118162301Y-93833600D01*
X118162301Y-94113172D01*
X118177065Y-94187400D01*
X118233316Y-94271584D01*
X118317497Y-94327833D01*
X118317499Y-94327834D01*
X118391733Y-94342600D01*
X119965866Y-94342599D01*
X119965869Y-94342598D01*
X119965873Y-94342598D01*
X120015126Y-94332801D01*
X120040101Y-94327834D01*
X120124284Y-94271584D01*
X120152409Y-94229492D01*
X120180534Y-94187402D01*
X120184200Y-94168969D01*
X120195300Y-94113167D01*
X120195299Y-92539034D01*
X120195298Y-92539030D01*
X120195298Y-92539026D01*
X120180534Y-92464799D01*
X120180533Y-92464797D01*
X120124284Y-92380616D01*
X120108841Y-92370297D01*
X120040102Y-92324366D01*
X119965867Y-92309600D01*
X118391736Y-92309600D01*
X118391726Y-92309601D01*
X118317499Y-92324365D01*
X118233315Y-92380616D01*
X118177066Y-92464797D01*
X118162300Y-92539030D01*
X118162300Y-92818600D01*
X118142298Y-92886721D01*
X118088642Y-92933214D01*
X118036300Y-92944600D01*
X117282399Y-92944600D01*
X117214278Y-92924598D01*
X117167785Y-92870942D01*
X117156399Y-92818600D01*
X117156399Y-92444536D01*
X117156398Y-92444527D01*
X117141634Y-92370299D01*
X117101076Y-92309601D01*
X117085384Y-92286116D01*
X117085383Y-92286115D01*
X117001202Y-92229866D01*
X116926967Y-92215100D01*
X115352836Y-92215100D01*
X115352826Y-92215101D01*
X115278599Y-92229865D01*
X115194415Y-92286116D01*
X115138166Y-92370297D01*
X115123400Y-92444530D01*
X109536399Y-92444530D01*
X109521634Y-92370299D01*
X109481076Y-92309601D01*
X109465384Y-92286116D01*
X109465383Y-92286115D01*
X109381202Y-92229866D01*
X109306967Y-92215100D01*
X107732836Y-92215100D01*
X107732826Y-92215101D01*
X107658599Y-92229865D01*
X107574415Y-92286116D01*
X107518166Y-92370297D01*
X107503400Y-92444530D01*
X100500500Y-92444530D01*
X100500500Y-89904530D01*
X107503400Y-89904530D01*
X107503400Y-91478663D01*
X107503401Y-91478673D01*
X107518165Y-91552900D01*
X107574416Y-91637084D01*
X107658597Y-91693333D01*
X107658599Y-91693334D01*
X107732833Y-91708100D01*
X109306966Y-91708099D01*
X109306969Y-91708098D01*
X109306973Y-91708098D01*
X109356226Y-91698301D01*
X109381201Y-91693334D01*
X109465384Y-91637084D01*
X109521634Y-91552901D01*
X109536400Y-91478667D01*
X109536399Y-89904534D01*
X109536399Y-89904533D01*
X109536399Y-89904531D01*
X109536399Y-89904530D01*
X115123400Y-89904530D01*
X115123400Y-91478663D01*
X115123401Y-91478673D01*
X115138165Y-91552900D01*
X115194416Y-91637084D01*
X115278597Y-91693333D01*
X115278599Y-91693334D01*
X115352833Y-91708100D01*
X116926966Y-91708099D01*
X116926969Y-91708098D01*
X116926973Y-91708098D01*
X116976226Y-91698301D01*
X117001201Y-91693334D01*
X117085384Y-91637084D01*
X117141634Y-91552901D01*
X117156400Y-91478667D01*
X117156400Y-91333600D01*
X117176402Y-91265479D01*
X117230058Y-91218986D01*
X117282400Y-91207600D01*
X118036301Y-91207600D01*
X118104422Y-91227602D01*
X118150915Y-91281258D01*
X118162301Y-91333600D01*
X118162301Y-91613272D01*
X118177065Y-91687500D01*
X118233316Y-91771684D01*
X118317497Y-91827933D01*
X118317499Y-91827934D01*
X118391733Y-91842700D01*
X119965866Y-91842699D01*
X119965869Y-91842698D01*
X119965873Y-91842698D01*
X120015126Y-91832901D01*
X120040101Y-91827934D01*
X120124284Y-91771684D01*
X120180534Y-91687501D01*
X120195300Y-91613267D01*
X120195299Y-90039134D01*
X120195298Y-90039130D01*
X120195298Y-90039126D01*
X120180534Y-89964899D01*
X120124283Y-89880715D01*
X120040102Y-89824466D01*
X119965867Y-89809700D01*
X118391736Y-89809700D01*
X118391726Y-89809701D01*
X118317499Y-89824465D01*
X118233315Y-89880716D01*
X118177066Y-89964897D01*
X118162300Y-90039130D01*
X118162300Y-90318600D01*
X118142298Y-90386721D01*
X118088642Y-90433214D01*
X118036300Y-90444600D01*
X117282399Y-90444600D01*
X117214278Y-90424598D01*
X117167785Y-90370942D01*
X117156399Y-90318600D01*
X117156399Y-89904536D01*
X117156398Y-89904527D01*
X117141634Y-89830299D01*
X117085383Y-89746115D01*
X117001202Y-89689866D01*
X116926967Y-89675100D01*
X115352836Y-89675100D01*
X115352826Y-89675101D01*
X115278599Y-89689865D01*
X115194415Y-89746116D01*
X115138166Y-89830297D01*
X115123400Y-89904530D01*
X109536399Y-89904530D01*
X109521634Y-89830299D01*
X109465383Y-89746115D01*
X109381202Y-89689866D01*
X109306967Y-89675100D01*
X107732836Y-89675100D01*
X107732826Y-89675101D01*
X107658599Y-89689865D01*
X107574415Y-89746116D01*
X107518166Y-89830297D01*
X107503400Y-89904530D01*
X100500500Y-89904530D01*
X100500500Y-87364530D01*
X107503400Y-87364530D01*
X107503400Y-88938663D01*
X107503401Y-88938673D01*
X107518165Y-89012900D01*
X107574416Y-89097084D01*
X107658597Y-89153333D01*
X107658599Y-89153334D01*
X107732833Y-89168100D01*
X109306966Y-89168099D01*
X109306969Y-89168098D01*
X109306973Y-89168098D01*
X109356226Y-89158301D01*
X109381201Y-89153334D01*
X109465384Y-89097084D01*
X109521634Y-89012901D01*
X109536400Y-88938667D01*
X109536399Y-87364534D01*
X109536399Y-87364533D01*
X109536399Y-87364531D01*
X109536399Y-87364530D01*
X115123400Y-87364530D01*
X115123400Y-88938663D01*
X115123401Y-88938673D01*
X115138165Y-89012900D01*
X115194416Y-89097084D01*
X115278597Y-89153333D01*
X115278599Y-89153334D01*
X115352833Y-89168100D01*
X116926966Y-89168099D01*
X116926969Y-89168098D01*
X116926973Y-89168098D01*
X116976226Y-89158301D01*
X117001201Y-89153334D01*
X117085384Y-89097084D01*
X117141634Y-89012901D01*
X117156400Y-88938667D01*
X117156400Y-88833600D01*
X117176402Y-88765479D01*
X117230058Y-88718986D01*
X117282400Y-88707600D01*
X118036301Y-88707600D01*
X118104422Y-88727602D01*
X118150915Y-88781258D01*
X118162301Y-88833600D01*
X118162301Y-89113172D01*
X118177065Y-89187400D01*
X118233316Y-89271584D01*
X118317497Y-89327833D01*
X118317499Y-89327834D01*
X118391733Y-89342600D01*
X119965866Y-89342599D01*
X119965869Y-89342598D01*
X119965873Y-89342598D01*
X120015126Y-89332801D01*
X120040101Y-89327834D01*
X120124284Y-89271584D01*
X120180534Y-89187401D01*
X120195300Y-89113167D01*
X120195299Y-87539034D01*
X120195298Y-87539030D01*
X120195298Y-87539026D01*
X120180534Y-87464799D01*
X120124283Y-87380615D01*
X120040102Y-87324366D01*
X119965867Y-87309600D01*
X118391736Y-87309600D01*
X118391726Y-87309601D01*
X118317499Y-87324365D01*
X118233315Y-87380616D01*
X118177066Y-87464797D01*
X118162300Y-87539030D01*
X118162300Y-87818600D01*
X118142298Y-87886721D01*
X118088642Y-87933214D01*
X118036300Y-87944600D01*
X117282399Y-87944600D01*
X117214278Y-87924598D01*
X117167785Y-87870942D01*
X117156399Y-87818600D01*
X117156399Y-87364536D01*
X117156398Y-87364527D01*
X117141634Y-87290299D01*
X117139539Y-87287163D01*
X117085384Y-87206116D01*
X117085383Y-87206115D01*
X117001202Y-87149866D01*
X116926967Y-87135100D01*
X115352836Y-87135100D01*
X115352826Y-87135101D01*
X115278599Y-87149865D01*
X115194415Y-87206116D01*
X115138166Y-87290297D01*
X115123400Y-87364530D01*
X109536399Y-87364530D01*
X109521634Y-87290299D01*
X109519539Y-87287163D01*
X109465384Y-87206116D01*
X109465383Y-87206115D01*
X109381202Y-87149866D01*
X109306967Y-87135100D01*
X107732836Y-87135100D01*
X107732826Y-87135101D01*
X107658599Y-87149865D01*
X107574415Y-87206116D01*
X107518166Y-87290297D01*
X107503400Y-87364530D01*
X100500500Y-87364530D01*
X100500500Y-84824530D01*
X107503400Y-84824530D01*
X107503400Y-86398663D01*
X107503401Y-86398673D01*
X107518165Y-86472900D01*
X107574416Y-86557084D01*
X107658597Y-86613333D01*
X107658599Y-86613334D01*
X107732833Y-86628100D01*
X109306966Y-86628099D01*
X109306969Y-86628098D01*
X109306973Y-86628098D01*
X109356226Y-86618301D01*
X109381201Y-86613334D01*
X109465384Y-86557084D01*
X109521634Y-86472901D01*
X109536400Y-86398667D01*
X109536399Y-84824534D01*
X109536399Y-84824533D01*
X109536399Y-84824531D01*
X109536399Y-84824530D01*
X115123400Y-84824530D01*
X115123400Y-86398663D01*
X115123401Y-86398673D01*
X115138165Y-86472900D01*
X115194416Y-86557084D01*
X115278597Y-86613333D01*
X115278599Y-86613334D01*
X115352833Y-86628100D01*
X116926966Y-86628099D01*
X116926969Y-86628098D01*
X116926973Y-86628098D01*
X116976226Y-86618301D01*
X117001201Y-86613334D01*
X117085384Y-86557084D01*
X117141634Y-86472901D01*
X117156400Y-86398667D01*
X117156400Y-86333600D01*
X117176402Y-86265479D01*
X117230058Y-86218986D01*
X117282400Y-86207600D01*
X118036301Y-86207600D01*
X118104422Y-86227602D01*
X118150915Y-86281258D01*
X118162301Y-86333600D01*
X118162301Y-86613272D01*
X118177065Y-86687500D01*
X118233316Y-86771684D01*
X118317497Y-86827933D01*
X118317499Y-86827934D01*
X118391733Y-86842700D01*
X119965866Y-86842699D01*
X119965869Y-86842698D01*
X119965873Y-86842698D01*
X120015126Y-86832901D01*
X120040101Y-86827934D01*
X120124284Y-86771684D01*
X120180534Y-86687501D01*
X120195300Y-86613267D01*
X120195299Y-85039134D01*
X120195298Y-85039130D01*
X120195298Y-85039126D01*
X120180534Y-84964899D01*
X120159934Y-84934070D01*
X120124284Y-84880716D01*
X120110435Y-84871462D01*
X120040102Y-84824466D01*
X119965867Y-84809700D01*
X118391736Y-84809700D01*
X118391726Y-84809701D01*
X118317499Y-84824465D01*
X118233315Y-84880716D01*
X118177066Y-84964897D01*
X118162300Y-85039130D01*
X118162300Y-85318600D01*
X118142298Y-85386721D01*
X118088642Y-85433214D01*
X118036300Y-85444600D01*
X117282399Y-85444600D01*
X117214278Y-85424598D01*
X117167785Y-85370942D01*
X117156399Y-85318600D01*
X117156399Y-84824536D01*
X117156398Y-84824527D01*
X117141634Y-84750299D01*
X117104925Y-84695361D01*
X117085384Y-84666116D01*
X117085383Y-84666115D01*
X117001202Y-84609866D01*
X116926967Y-84595100D01*
X115352836Y-84595100D01*
X115352826Y-84595101D01*
X115278599Y-84609865D01*
X115194415Y-84666116D01*
X115138166Y-84750297D01*
X115123400Y-84824530D01*
X109536399Y-84824530D01*
X109521634Y-84750299D01*
X109484925Y-84695361D01*
X109465384Y-84666116D01*
X109465383Y-84666115D01*
X109381202Y-84609866D01*
X109306967Y-84595100D01*
X107732836Y-84595100D01*
X107732826Y-84595101D01*
X107658599Y-84609865D01*
X107574415Y-84666116D01*
X107518166Y-84750297D01*
X107503400Y-84824530D01*
X100500500Y-84824530D01*
X100500500Y-82284530D01*
X107503400Y-82284530D01*
X107503400Y-83858663D01*
X107503401Y-83858673D01*
X107518165Y-83932900D01*
X107574416Y-84017084D01*
X107658597Y-84073333D01*
X107658599Y-84073334D01*
X107732833Y-84088100D01*
X109306966Y-84088099D01*
X109306969Y-84088098D01*
X109306973Y-84088098D01*
X109356226Y-84078301D01*
X109381201Y-84073334D01*
X109465384Y-84017084D01*
X109521634Y-83932901D01*
X109536400Y-83858667D01*
X109536399Y-82284534D01*
X109536399Y-82284533D01*
X109536399Y-82284531D01*
X109536399Y-82284530D01*
X115123400Y-82284530D01*
X115123400Y-83858663D01*
X115123401Y-83858673D01*
X115138165Y-83932900D01*
X115194416Y-84017084D01*
X115278597Y-84073333D01*
X115278599Y-84073334D01*
X115352833Y-84088100D01*
X116926966Y-84088099D01*
X116926969Y-84088098D01*
X116926973Y-84088098D01*
X116976226Y-84078301D01*
X117001201Y-84073334D01*
X117085384Y-84017084D01*
X117141634Y-83932901D01*
X117156400Y-83858667D01*
X117156400Y-83833600D01*
X117176402Y-83765479D01*
X117230058Y-83718986D01*
X117282400Y-83707600D01*
X118036301Y-83707600D01*
X118104422Y-83727602D01*
X118150915Y-83781258D01*
X118162301Y-83833600D01*
X118162301Y-84113172D01*
X118177065Y-84187400D01*
X118233316Y-84271584D01*
X118317497Y-84327833D01*
X118317499Y-84327834D01*
X118391733Y-84342600D01*
X119965866Y-84342599D01*
X119965869Y-84342598D01*
X119965873Y-84342598D01*
X120015126Y-84332801D01*
X120040101Y-84327834D01*
X120124284Y-84271584D01*
X120180534Y-84187401D01*
X120195300Y-84113167D01*
X120195299Y-82539034D01*
X120195298Y-82539030D01*
X120195298Y-82539026D01*
X120180534Y-82464799D01*
X120135670Y-82397656D01*
X120124284Y-82380616D01*
X120124283Y-82380615D01*
X120040102Y-82324366D01*
X119965867Y-82309600D01*
X118391736Y-82309600D01*
X118391726Y-82309601D01*
X118317499Y-82324365D01*
X118233315Y-82380616D01*
X118177066Y-82464797D01*
X118162300Y-82539030D01*
X118162300Y-82818600D01*
X118142298Y-82886721D01*
X118088642Y-82933214D01*
X118036300Y-82944600D01*
X117282399Y-82944600D01*
X117214278Y-82924598D01*
X117167785Y-82870942D01*
X117156399Y-82818600D01*
X117156399Y-82284536D01*
X117156398Y-82284527D01*
X117141634Y-82210299D01*
X117085383Y-82126115D01*
X117001202Y-82069866D01*
X116926967Y-82055100D01*
X115352836Y-82055100D01*
X115352826Y-82055101D01*
X115278599Y-82069865D01*
X115194415Y-82126116D01*
X115138166Y-82210297D01*
X115123400Y-82284530D01*
X109536399Y-82284530D01*
X109521634Y-82210299D01*
X109465383Y-82126115D01*
X109381202Y-82069866D01*
X109306967Y-82055100D01*
X107732836Y-82055100D01*
X107732826Y-82055101D01*
X107658599Y-82069865D01*
X107574415Y-82126116D01*
X107518166Y-82210297D01*
X107503400Y-82284530D01*
X100500500Y-82284530D01*
X100500500Y-79744530D01*
X107503400Y-79744530D01*
X107503400Y-81318663D01*
X107503401Y-81318673D01*
X107518165Y-81392900D01*
X107574416Y-81477084D01*
X107658597Y-81533333D01*
X107658599Y-81533334D01*
X107732833Y-81548100D01*
X109306966Y-81548099D01*
X109306969Y-81548098D01*
X109306973Y-81548098D01*
X109356226Y-81538301D01*
X109381201Y-81533334D01*
X109465384Y-81477084D01*
X109521634Y-81392901D01*
X109536400Y-81318667D01*
X109536399Y-79744534D01*
X109536398Y-79744527D01*
X109536398Y-79744526D01*
X109521634Y-79670299D01*
X109465383Y-79586115D01*
X109381202Y-79529866D01*
X109306967Y-79515100D01*
X107732836Y-79515100D01*
X107732826Y-79515101D01*
X107658599Y-79529865D01*
X107574415Y-79586116D01*
X107518166Y-79670297D01*
X107503400Y-79744530D01*
X100500500Y-79744530D01*
X100500500Y-71663230D01*
X109040100Y-71663230D01*
X109040100Y-73237363D01*
X109040101Y-73237373D01*
X109054865Y-73311600D01*
X109111116Y-73395784D01*
X109195297Y-73452033D01*
X109195299Y-73452034D01*
X109269533Y-73466800D01*
X110843666Y-73466799D01*
X110843669Y-73466798D01*
X110843673Y-73466798D01*
X110892926Y-73457001D01*
X110917901Y-73452034D01*
X111002084Y-73395784D01*
X111058334Y-73311601D01*
X111073100Y-73237367D01*
X111073099Y-71663234D01*
X111073098Y-71663230D01*
X111073098Y-71663226D01*
X111058334Y-71588999D01*
X111035359Y-71554615D01*
X111002084Y-71504816D01*
X111002083Y-71504815D01*
X110917902Y-71448566D01*
X110843667Y-71433800D01*
X109269536Y-71433800D01*
X109269526Y-71433801D01*
X109195299Y-71448565D01*
X109111115Y-71504816D01*
X109054866Y-71588997D01*
X109040100Y-71663230D01*
X100500500Y-71663230D01*
X100500500Y-70259504D01*
X100520502Y-70191383D01*
X100537405Y-70170409D01*
X101210988Y-69496826D01*
X111818080Y-69496826D01*
X111818100Y-69497129D01*
X111818100Y-74449523D01*
X111818099Y-74449523D01*
X111844098Y-74546551D01*
X111844101Y-74546558D01*
X111883278Y-74614414D01*
X111883279Y-74614417D01*
X111894320Y-74633542D01*
X111894327Y-74633551D01*
X116245324Y-78984547D01*
X116316353Y-79055576D01*
X116316354Y-79055577D01*
X116316356Y-79055578D01*
X116403341Y-79105799D01*
X116403343Y-79105799D01*
X116403346Y-79105801D01*
X116500375Y-79131800D01*
X119040487Y-79131800D01*
X119108608Y-79151802D01*
X119129582Y-79168705D01*
X119555482Y-79594605D01*
X119589508Y-79656917D01*
X119584443Y-79727732D01*
X119541896Y-79784568D01*
X119475376Y-79809379D01*
X119466387Y-79809700D01*
X118391736Y-79809700D01*
X118391726Y-79809701D01*
X118317499Y-79824465D01*
X118233315Y-79880716D01*
X118177066Y-79964897D01*
X118162300Y-80039130D01*
X118162300Y-80318600D01*
X118142298Y-80386721D01*
X118088642Y-80433214D01*
X118036300Y-80444600D01*
X117282399Y-80444600D01*
X117214278Y-80424598D01*
X117167785Y-80370942D01*
X117156399Y-80318600D01*
X117156399Y-79744536D01*
X117156398Y-79744527D01*
X117141634Y-79670299D01*
X117085383Y-79586115D01*
X117001202Y-79529866D01*
X116926967Y-79515100D01*
X115352836Y-79515100D01*
X115352826Y-79515101D01*
X115278599Y-79529865D01*
X115194415Y-79586116D01*
X115138166Y-79670297D01*
X115123400Y-79744530D01*
X115123400Y-81318663D01*
X115123401Y-81318673D01*
X115138165Y-81392900D01*
X115194416Y-81477084D01*
X115278597Y-81533333D01*
X115278599Y-81533334D01*
X115352833Y-81548100D01*
X116926966Y-81548099D01*
X116926969Y-81548098D01*
X116926973Y-81548098D01*
X116976226Y-81538301D01*
X117001201Y-81533334D01*
X117085384Y-81477084D01*
X117141634Y-81392901D01*
X117156400Y-81318667D01*
X117156400Y-81318666D01*
X117157608Y-81312595D01*
X117159491Y-81312969D01*
X117182722Y-81255426D01*
X117240673Y-81214411D01*
X117281539Y-81207600D01*
X118036301Y-81207600D01*
X118104422Y-81227602D01*
X118150915Y-81281258D01*
X118162301Y-81333600D01*
X118162301Y-81613272D01*
X118177065Y-81687500D01*
X118233316Y-81771684D01*
X118317497Y-81827933D01*
X118317499Y-81827934D01*
X118391733Y-81842700D01*
X119965866Y-81842699D01*
X119965869Y-81842698D01*
X119965873Y-81842698D01*
X120015126Y-81832901D01*
X120040101Y-81827934D01*
X120124284Y-81771684D01*
X120180534Y-81687501D01*
X120195300Y-81613267D01*
X120195299Y-80538610D01*
X120215301Y-80470490D01*
X120268957Y-80423997D01*
X120339231Y-80413893D01*
X120403811Y-80443386D01*
X120410394Y-80449516D01*
X122832795Y-82871917D01*
X122866821Y-82934229D01*
X122869700Y-82961012D01*
X122869700Y-97186173D01*
X122869699Y-97286620D01*
X122869699Y-97286621D01*
X122895694Y-97383641D01*
X122895741Y-97383780D01*
X122896655Y-97385310D01*
X122945921Y-97470643D01*
X122945923Y-97470646D01*
X122945924Y-97470647D01*
X122999810Y-97524533D01*
X128181528Y-102706336D01*
X128285396Y-102810205D01*
X128319421Y-102872518D01*
X128322300Y-102899300D01*
X128322300Y-104113063D01*
X128322301Y-104113073D01*
X128337065Y-104187300D01*
X128393316Y-104271484D01*
X128477497Y-104327733D01*
X128477499Y-104327734D01*
X128551733Y-104342500D01*
X130125866Y-104342499D01*
X130125869Y-104342498D01*
X130125873Y-104342498D01*
X130175126Y-104332701D01*
X130200101Y-104327734D01*
X130284284Y-104271484D01*
X130340534Y-104187301D01*
X130355300Y-104113067D01*
X130355299Y-102538934D01*
X130355298Y-102538930D01*
X130355298Y-102538926D01*
X130340534Y-102464699D01*
X130298240Y-102401402D01*
X130284284Y-102380516D01*
X130284283Y-102380515D01*
X130200102Y-102324266D01*
X130125869Y-102309500D01*
X130125867Y-102309500D01*
X128915926Y-102309500D01*
X128847805Y-102289498D01*
X128826830Y-102272595D01*
X128627770Y-102073531D01*
X145440599Y-102073531D01*
X145478716Y-102215782D01*
X145552346Y-102343314D01*
X145552354Y-102343324D01*
X145656475Y-102447445D01*
X145656480Y-102447449D01*
X145656482Y-102447451D01*
X145784018Y-102521084D01*
X145926267Y-102559200D01*
X145967987Y-102559200D01*
X146036108Y-102579202D01*
X146057082Y-102596105D01*
X147310695Y-103849718D01*
X147344721Y-103912030D01*
X147347600Y-103938813D01*
X147347600Y-105809500D01*
X147327598Y-105877621D01*
X147273942Y-105924114D01*
X147221600Y-105935500D01*
X146904836Y-105935500D01*
X146904826Y-105935501D01*
X146830599Y-105950265D01*
X146746415Y-106006516D01*
X146690166Y-106090697D01*
X146675400Y-106164930D01*
X146675400Y-107815063D01*
X146675401Y-107815073D01*
X146690165Y-107889300D01*
X146746416Y-107973484D01*
X146830597Y-108029733D01*
X146830599Y-108029734D01*
X146904833Y-108044500D01*
X148554966Y-108044499D01*
X148554969Y-108044498D01*
X148554973Y-108044498D01*
X148611453Y-108033264D01*
X148629201Y-108029734D01*
X148713384Y-107973484D01*
X148769634Y-107889301D01*
X148784400Y-107815067D01*
X148784399Y-106164934D01*
X148784399Y-106164933D01*
X148784399Y-106164931D01*
X148784399Y-106164930D01*
X149215400Y-106164930D01*
X149215400Y-107815063D01*
X149215401Y-107815073D01*
X149230165Y-107889300D01*
X149286416Y-107973484D01*
X149370597Y-108029733D01*
X149370599Y-108029734D01*
X149444833Y-108044500D01*
X151094966Y-108044499D01*
X151094969Y-108044498D01*
X151094973Y-108044498D01*
X151151453Y-108033264D01*
X151169201Y-108029734D01*
X151253384Y-107973484D01*
X151309634Y-107889301D01*
X151324400Y-107815067D01*
X151324399Y-106527211D01*
X151344401Y-106459091D01*
X151361299Y-106438122D01*
X151540307Y-106259114D01*
X151602617Y-106225090D01*
X151673432Y-106230155D01*
X151730268Y-106272702D01*
X151755079Y-106339222D01*
X151755400Y-106348211D01*
X151755400Y-107815063D01*
X151755401Y-107815073D01*
X151770165Y-107889300D01*
X151826416Y-107973484D01*
X151910597Y-108029733D01*
X151910599Y-108029734D01*
X151984833Y-108044500D01*
X153634966Y-108044499D01*
X153634969Y-108044498D01*
X153634973Y-108044498D01*
X153691453Y-108033264D01*
X153709201Y-108029734D01*
X153793384Y-107973484D01*
X153849634Y-107889301D01*
X153864400Y-107815067D01*
X153864399Y-106527211D01*
X153884401Y-106459091D01*
X153901299Y-106438122D01*
X154080307Y-106259114D01*
X154142617Y-106225090D01*
X154213432Y-106230155D01*
X154270268Y-106272702D01*
X154295079Y-106339222D01*
X154295400Y-106348211D01*
X154295400Y-107815063D01*
X154295401Y-107815073D01*
X154310165Y-107889300D01*
X154366416Y-107973484D01*
X154450597Y-108029733D01*
X154450599Y-108029734D01*
X154524833Y-108044500D01*
X156174966Y-108044499D01*
X156174969Y-108044498D01*
X156174973Y-108044498D01*
X156231453Y-108033264D01*
X156249201Y-108029734D01*
X156333384Y-107973484D01*
X156389634Y-107889301D01*
X156404400Y-107815067D01*
X156404399Y-106164934D01*
X156404399Y-106164933D01*
X156404399Y-106164931D01*
X156404399Y-106164930D01*
X156835400Y-106164930D01*
X156835400Y-107815063D01*
X156835401Y-107815073D01*
X156850165Y-107889300D01*
X156906416Y-107973484D01*
X156990597Y-108029733D01*
X156990599Y-108029734D01*
X157064833Y-108044500D01*
X158714966Y-108044499D01*
X158714969Y-108044498D01*
X158714973Y-108044498D01*
X158771453Y-108033264D01*
X158789201Y-108029734D01*
X158873384Y-107973484D01*
X158929634Y-107889301D01*
X158944400Y-107815067D01*
X158944399Y-106164934D01*
X158944398Y-106164931D01*
X158944398Y-106164926D01*
X158929634Y-106090699D01*
X158873383Y-106006515D01*
X158789202Y-105950266D01*
X158714967Y-105935500D01*
X157064836Y-105935500D01*
X157064826Y-105935501D01*
X156990599Y-105950265D01*
X156906415Y-106006516D01*
X156850166Y-106090697D01*
X156835400Y-106164930D01*
X156404399Y-106164930D01*
X156389634Y-106090699D01*
X156333383Y-106006515D01*
X156249202Y-105950266D01*
X156174969Y-105935500D01*
X154708111Y-105935500D01*
X154639990Y-105915498D01*
X154593497Y-105861842D01*
X154583393Y-105791568D01*
X154612887Y-105726988D01*
X154619000Y-105720422D01*
X157633093Y-102706330D01*
X171734200Y-102706330D01*
X171734200Y-104280463D01*
X171734201Y-104280473D01*
X171748965Y-104354700D01*
X171805216Y-104438884D01*
X171889397Y-104495133D01*
X171889399Y-104495134D01*
X171963633Y-104509900D01*
X173537766Y-104509899D01*
X173537769Y-104509898D01*
X173537773Y-104509898D01*
X173587026Y-104500101D01*
X173612001Y-104495134D01*
X173696184Y-104438884D01*
X173752434Y-104354701D01*
X173767200Y-104280467D01*
X173767199Y-102706334D01*
X173767199Y-102706333D01*
X173767199Y-102706331D01*
X173767199Y-102706330D01*
X186733900Y-102706330D01*
X186733900Y-104280463D01*
X186733901Y-104280473D01*
X186748665Y-104354700D01*
X186804916Y-104438884D01*
X186889097Y-104495133D01*
X186889099Y-104495134D01*
X186963333Y-104509900D01*
X188537466Y-104509899D01*
X188537469Y-104509898D01*
X188537473Y-104509898D01*
X188586726Y-104500101D01*
X188611701Y-104495134D01*
X188695884Y-104438884D01*
X188752134Y-104354701D01*
X188766900Y-104280467D01*
X188766899Y-102706334D01*
X188766898Y-102706331D01*
X188766898Y-102706326D01*
X188752134Y-102632099D01*
X188695883Y-102547915D01*
X188611702Y-102491666D01*
X188537467Y-102476900D01*
X186963336Y-102476900D01*
X186963326Y-102476901D01*
X186889099Y-102491665D01*
X186804915Y-102547916D01*
X186748666Y-102632097D01*
X186733900Y-102706330D01*
X173767199Y-102706330D01*
X173752434Y-102632099D01*
X173696183Y-102547915D01*
X173612002Y-102491666D01*
X173537767Y-102476900D01*
X171963636Y-102476900D01*
X171963626Y-102476901D01*
X171889399Y-102491665D01*
X171805215Y-102547916D01*
X171748966Y-102632097D01*
X171734200Y-102706330D01*
X157633093Y-102706330D01*
X157921118Y-102418305D01*
X157983430Y-102384279D01*
X158010213Y-102381400D01*
X165288240Y-102381400D01*
X165356361Y-102401402D01*
X165377335Y-102418305D01*
X165406475Y-102447445D01*
X165406480Y-102447449D01*
X165406482Y-102447451D01*
X165534018Y-102521084D01*
X165676267Y-102559200D01*
X165676269Y-102559200D01*
X165823531Y-102559200D01*
X165823533Y-102559200D01*
X165965782Y-102521084D01*
X166093318Y-102447451D01*
X166197451Y-102343318D01*
X166271084Y-102215782D01*
X166309200Y-102073533D01*
X166309200Y-101926267D01*
X166271084Y-101784018D01*
X166219471Y-101694621D01*
X166197453Y-101656485D01*
X166197445Y-101656475D01*
X166093324Y-101552354D01*
X166093314Y-101552346D01*
X165965782Y-101478716D01*
X165949928Y-101474468D01*
X165823533Y-101440600D01*
X165676267Y-101440600D01*
X165581434Y-101466010D01*
X165534017Y-101478716D01*
X165406485Y-101552346D01*
X165406475Y-101552354D01*
X165377335Y-101581495D01*
X165315023Y-101615521D01*
X165288240Y-101618400D01*
X163976660Y-101618400D01*
X163908539Y-101598398D01*
X163862046Y-101544742D01*
X163851942Y-101474468D01*
X163881436Y-101409888D01*
X163887565Y-101403305D01*
X163947545Y-101343324D01*
X163947551Y-101343318D01*
X164021184Y-101215782D01*
X164059300Y-101073533D01*
X164059300Y-100926267D01*
X164021184Y-100784018D01*
X163969630Y-100694724D01*
X163947553Y-100656485D01*
X163947545Y-100656475D01*
X163843424Y-100552354D01*
X163843414Y-100552346D01*
X163715882Y-100478716D01*
X163573633Y-100440600D01*
X163426367Y-100440600D01*
X163331534Y-100466010D01*
X163284117Y-100478716D01*
X163156585Y-100552346D01*
X163156575Y-100552354D01*
X163127335Y-100581595D01*
X163065023Y-100615621D01*
X163038240Y-100618500D01*
X156209675Y-100618500D01*
X156112646Y-100644499D01*
X156112645Y-100644499D01*
X156112643Y-100644500D01*
X156091885Y-100656485D01*
X156054504Y-100678067D01*
X156040078Y-100686395D01*
X156025654Y-100694723D01*
X156025646Y-100694729D01*
X150821780Y-105898595D01*
X150759468Y-105932621D01*
X150732685Y-105935500D01*
X149444836Y-105935500D01*
X149444826Y-105935501D01*
X149370599Y-105950265D01*
X149286415Y-106006516D01*
X149230166Y-106090697D01*
X149215400Y-106164930D01*
X148784399Y-106164930D01*
X148769634Y-106090699D01*
X148713383Y-106006515D01*
X148629202Y-105950266D01*
X148554969Y-105935500D01*
X148554967Y-105935500D01*
X148236600Y-105935500D01*
X148168479Y-105915498D01*
X148121986Y-105861842D01*
X148110600Y-105809500D01*
X148110600Y-103678376D01*
X148110600Y-103678375D01*
X148084601Y-103581346D01*
X148084599Y-103581343D01*
X148084599Y-103581341D01*
X148034378Y-103494356D01*
X148034374Y-103494351D01*
X148024366Y-103484343D01*
X147963347Y-103423324D01*
X146596105Y-102056082D01*
X146562079Y-101993770D01*
X146559200Y-101966987D01*
X146559200Y-101926268D01*
X146559200Y-101926267D01*
X146521084Y-101784018D01*
X146469471Y-101694621D01*
X146447453Y-101656485D01*
X146447445Y-101656475D01*
X146343324Y-101552354D01*
X146343314Y-101552346D01*
X146215782Y-101478716D01*
X146199928Y-101474468D01*
X146073533Y-101440600D01*
X145926267Y-101440600D01*
X145831434Y-101466010D01*
X145784017Y-101478716D01*
X145656485Y-101552346D01*
X145656475Y-101552354D01*
X145552354Y-101656475D01*
X145552346Y-101656485D01*
X145478716Y-101784017D01*
X145462992Y-101842699D01*
X145441030Y-101924665D01*
X145440600Y-101926268D01*
X145440600Y-102073531D01*
X145440599Y-102073531D01*
X128627770Y-102073531D01*
X128612033Y-102057794D01*
X128578008Y-101995481D01*
X128583074Y-101924665D01*
X128625621Y-101867830D01*
X128692141Y-101843020D01*
X128701103Y-101842699D01*
X130125866Y-101842699D01*
X130125869Y-101842698D01*
X130125873Y-101842698D01*
X130146786Y-101838538D01*
X130200101Y-101827934D01*
X130284284Y-101771684D01*
X130340534Y-101687501D01*
X130355300Y-101613267D01*
X130355299Y-100039134D01*
X130355298Y-100039130D01*
X130355298Y-100039126D01*
X130340534Y-99964899D01*
X130284283Y-99880715D01*
X130200102Y-99824466D01*
X130125869Y-99809700D01*
X130125867Y-99809700D01*
X128915164Y-99809700D01*
X128847043Y-99789698D01*
X128826088Y-99772815D01*
X128610791Y-99557614D01*
X128576752Y-99495310D01*
X128581802Y-99424493D01*
X128624336Y-99367648D01*
X128690850Y-99342822D01*
X128699841Y-99342499D01*
X130125866Y-99342499D01*
X130125869Y-99342498D01*
X130125873Y-99342498D01*
X130175126Y-99332701D01*
X130200101Y-99327734D01*
X130284284Y-99271484D01*
X130340534Y-99187301D01*
X130355300Y-99113067D01*
X130355299Y-97538934D01*
X130355298Y-97538930D01*
X130355298Y-97538926D01*
X130340534Y-97464699D01*
X130286465Y-97383780D01*
X130284284Y-97380516D01*
X130284283Y-97380515D01*
X130200102Y-97324266D01*
X130125869Y-97309500D01*
X130125867Y-97309500D01*
X128914243Y-97309500D01*
X128846122Y-97289498D01*
X128825171Y-97272618D01*
X128610265Y-97057814D01*
X128576227Y-96995511D01*
X128581275Y-96924694D01*
X128623808Y-96867849D01*
X128690323Y-96843022D01*
X128699315Y-96842699D01*
X130125866Y-96842699D01*
X130125869Y-96842698D01*
X130125873Y-96842698D01*
X130175126Y-96832901D01*
X130200101Y-96827934D01*
X130284284Y-96771684D01*
X130340534Y-96687501D01*
X130355300Y-96613267D01*
X130355299Y-95039134D01*
X130355298Y-95039130D01*
X130355298Y-95039126D01*
X130340534Y-94964899D01*
X130304051Y-94910299D01*
X130284284Y-94880716D01*
X130284283Y-94880715D01*
X130200102Y-94824466D01*
X130125869Y-94809700D01*
X130125867Y-94809700D01*
X128914229Y-94809700D01*
X128846108Y-94789698D01*
X128825133Y-94772794D01*
X128610037Y-94557693D01*
X128576012Y-94495381D01*
X128581078Y-94424565D01*
X128623625Y-94367730D01*
X128690146Y-94342920D01*
X128699107Y-94342599D01*
X130125866Y-94342599D01*
X130125869Y-94342598D01*
X130125873Y-94342598D01*
X130175126Y-94332801D01*
X130200101Y-94327834D01*
X130284284Y-94271584D01*
X130312409Y-94229492D01*
X130340534Y-94187402D01*
X130344200Y-94168969D01*
X130355300Y-94113167D01*
X130355299Y-92539034D01*
X130355298Y-92539030D01*
X130355298Y-92539026D01*
X130340534Y-92464799D01*
X130340533Y-92464797D01*
X130284284Y-92380616D01*
X130268841Y-92370297D01*
X130200102Y-92324366D01*
X130125869Y-92309600D01*
X130125867Y-92309600D01*
X128913483Y-92309600D01*
X128845362Y-92289598D01*
X128824389Y-92272697D01*
X128609479Y-92057796D01*
X128575453Y-91995485D01*
X128580516Y-91924669D01*
X128623062Y-91867832D01*
X128689582Y-91843020D01*
X128698547Y-91842699D01*
X130125866Y-91842699D01*
X130125869Y-91842698D01*
X130125873Y-91842698D01*
X130175126Y-91832901D01*
X130200101Y-91827934D01*
X130284284Y-91771684D01*
X130340534Y-91687501D01*
X130355300Y-91613267D01*
X130355299Y-90039134D01*
X130355298Y-90039130D01*
X130355298Y-90039126D01*
X130340534Y-89964899D01*
X130284283Y-89880715D01*
X130200102Y-89824466D01*
X130125869Y-89809700D01*
X130125867Y-89809700D01*
X128915436Y-89809700D01*
X128847315Y-89789698D01*
X128826339Y-89772794D01*
X128611244Y-89557693D01*
X128577220Y-89495381D01*
X128582286Y-89424565D01*
X128624833Y-89367730D01*
X128691354Y-89342920D01*
X128700315Y-89342599D01*
X130125866Y-89342599D01*
X130125869Y-89342598D01*
X130125873Y-89342598D01*
X130175126Y-89332801D01*
X130200101Y-89327834D01*
X130284284Y-89271584D01*
X130340534Y-89187401D01*
X130355300Y-89113167D01*
X130355299Y-87539034D01*
X130355298Y-87539030D01*
X130355298Y-87539026D01*
X130340534Y-87464799D01*
X130284283Y-87380615D01*
X130200102Y-87324366D01*
X130125869Y-87309600D01*
X130125867Y-87309600D01*
X128914739Y-87309600D01*
X128846618Y-87289598D01*
X128825642Y-87272694D01*
X128688053Y-87135101D01*
X128610747Y-87057792D01*
X128576724Y-86995480D01*
X128581790Y-86924665D01*
X128624338Y-86867830D01*
X128690858Y-86843020D01*
X128699819Y-86842699D01*
X130125866Y-86842699D01*
X130125869Y-86842698D01*
X130125873Y-86842698D01*
X130175126Y-86832901D01*
X130200101Y-86827934D01*
X130284284Y-86771684D01*
X130340534Y-86687501D01*
X130355300Y-86613267D01*
X130355299Y-85074349D01*
X131499494Y-85074349D01*
X131499500Y-85074438D01*
X131499500Y-98934008D01*
X131499500Y-99065792D01*
X131512166Y-99113063D01*
X131533607Y-99193083D01*
X131533610Y-99193090D01*
X131599497Y-99307210D01*
X131599505Y-99307220D01*
X131692679Y-99400394D01*
X131692684Y-99400398D01*
X131692686Y-99400400D01*
X131806814Y-99466292D01*
X131934108Y-99500400D01*
X131934110Y-99500400D01*
X145065890Y-99500400D01*
X145065892Y-99500400D01*
X145193186Y-99466292D01*
X145307314Y-99400400D01*
X145400500Y-99307214D01*
X145466392Y-99193086D01*
X145500500Y-99065792D01*
X145500500Y-85001038D01*
X145500505Y-84935147D01*
X145500500Y-84935128D01*
X145500500Y-84935108D01*
X145483304Y-84870932D01*
X145466407Y-84807850D01*
X145466397Y-84807832D01*
X145466392Y-84807814D01*
X145433186Y-84750299D01*
X145400524Y-84693717D01*
X145400509Y-84693702D01*
X145400500Y-84693686D01*
X145353934Y-84647120D01*
X145307345Y-84600524D01*
X145307344Y-84600523D01*
X145307339Y-84600518D01*
X145307319Y-84600503D01*
X145305564Y-84599490D01*
X145248759Y-84566693D01*
X145248760Y-84566691D01*
X145248752Y-84566689D01*
X145193222Y-84534623D01*
X145193221Y-84534622D01*
X145193206Y-84534614D01*
X145193188Y-84534609D01*
X145193186Y-84534608D01*
X145128537Y-84517285D01*
X145100299Y-84509716D01*
X145065912Y-84500500D01*
X145065892Y-84500500D01*
X145000921Y-84500500D01*
X132074042Y-84499505D01*
X132073956Y-84499500D01*
X132065892Y-84499500D01*
X131999156Y-84499500D01*
X131934142Y-84499494D01*
X131934114Y-84499498D01*
X131869938Y-84516693D01*
X131869931Y-84516695D01*
X131806831Y-84533597D01*
X131761382Y-84559837D01*
X131761380Y-84559838D01*
X131751307Y-84565654D01*
X131692717Y-84599476D01*
X131692702Y-84599490D01*
X131692686Y-84599500D01*
X131646120Y-84646065D01*
X131599524Y-84692655D01*
X131599514Y-84692671D01*
X131599500Y-84692686D01*
X131566237Y-84750299D01*
X131533623Y-84806778D01*
X131533617Y-84806796D01*
X131533608Y-84806814D01*
X131516285Y-84871462D01*
X131513265Y-84882727D01*
X131513263Y-84882733D01*
X131499500Y-84934088D01*
X131499500Y-84999971D01*
X131499494Y-85074349D01*
X130355299Y-85074349D01*
X130355299Y-85039134D01*
X130355298Y-85039130D01*
X130355298Y-85039126D01*
X130340534Y-84964899D01*
X130319934Y-84934070D01*
X130284284Y-84880716D01*
X130270435Y-84871462D01*
X130200102Y-84824466D01*
X130125869Y-84809700D01*
X130125867Y-84809700D01*
X128913426Y-84809700D01*
X128845305Y-84789698D01*
X128824375Y-84772840D01*
X128609058Y-84557739D01*
X128575002Y-84495444D01*
X128580031Y-84424626D01*
X128622549Y-84367769D01*
X128689057Y-84342925D01*
X128698083Y-84342599D01*
X130125866Y-84342599D01*
X130125869Y-84342598D01*
X130125873Y-84342598D01*
X130175126Y-84332801D01*
X130200101Y-84327834D01*
X130284284Y-84271584D01*
X130340534Y-84187401D01*
X130355300Y-84113167D01*
X130355299Y-82539034D01*
X130355298Y-82539030D01*
X130355298Y-82539026D01*
X130340534Y-82464799D01*
X130295670Y-82397656D01*
X130284284Y-82380616D01*
X130284283Y-82380615D01*
X130200102Y-82324366D01*
X130125869Y-82309600D01*
X130125867Y-82309600D01*
X128651913Y-82309600D01*
X128583792Y-82289598D01*
X128562818Y-82272695D01*
X128419405Y-82129282D01*
X128404460Y-82101913D01*
X128387604Y-82075685D01*
X128386698Y-82069386D01*
X128385379Y-82066970D01*
X128382500Y-82040187D01*
X128382500Y-82039130D01*
X133912300Y-82039130D01*
X133912300Y-83613263D01*
X133912301Y-83613273D01*
X133927065Y-83687500D01*
X133983316Y-83771684D01*
X134067497Y-83827933D01*
X134067499Y-83827934D01*
X134141733Y-83842700D01*
X135715866Y-83842699D01*
X135715869Y-83842698D01*
X135715873Y-83842698D01*
X135780920Y-83829760D01*
X135790101Y-83827934D01*
X135874284Y-83771684D01*
X135930534Y-83687501D01*
X135945300Y-83613267D01*
X135945299Y-82039134D01*
X135945299Y-82039133D01*
X135945299Y-82039131D01*
X135945299Y-82039130D01*
X144072300Y-82039130D01*
X144072300Y-83613263D01*
X144072301Y-83613273D01*
X144087065Y-83687500D01*
X144143316Y-83771684D01*
X144227497Y-83827933D01*
X144227499Y-83827934D01*
X144301733Y-83842700D01*
X145512184Y-83842699D01*
X145580305Y-83862701D01*
X145601240Y-83879564D01*
X147079609Y-85356613D01*
X147113662Y-85418910D01*
X147108628Y-85489728D01*
X147066107Y-85546582D01*
X147060560Y-85550510D01*
X147054415Y-85554615D01*
X146998166Y-85638797D01*
X146983400Y-85713030D01*
X146983400Y-87287163D01*
X146983401Y-87287173D01*
X146998165Y-87361400D01*
X147054416Y-87445584D01*
X147138597Y-87501833D01*
X147138599Y-87501834D01*
X147212833Y-87516600D01*
X148786966Y-87516599D01*
X148786969Y-87516598D01*
X148786973Y-87516598D01*
X148836226Y-87506801D01*
X148861201Y-87501834D01*
X148945384Y-87445584D01*
X149001634Y-87361401D01*
X149016400Y-87287167D01*
X149016399Y-85713034D01*
X149016398Y-85713030D01*
X149016398Y-85713026D01*
X149001634Y-85638799D01*
X148956153Y-85570733D01*
X148945384Y-85554616D01*
X148945383Y-85554615D01*
X148861202Y-85498366D01*
X148786969Y-85483600D01*
X148786967Y-85483600D01*
X148338414Y-85483600D01*
X148270293Y-85463598D01*
X148249319Y-85446695D01*
X148229617Y-85426993D01*
X148229302Y-85426716D01*
X147965880Y-85163529D01*
X147876620Y-85074349D01*
X153499494Y-85074349D01*
X153499500Y-85074438D01*
X153499500Y-98934008D01*
X153499500Y-99065792D01*
X153512166Y-99113063D01*
X153533607Y-99193083D01*
X153533610Y-99193090D01*
X153599497Y-99307210D01*
X153599505Y-99307220D01*
X153692679Y-99400394D01*
X153692684Y-99400398D01*
X153692686Y-99400400D01*
X153806814Y-99466292D01*
X153934108Y-99500400D01*
X153934110Y-99500400D01*
X167065890Y-99500400D01*
X167065892Y-99500400D01*
X167193186Y-99466292D01*
X167307314Y-99400400D01*
X167400500Y-99307214D01*
X167466392Y-99193086D01*
X167500500Y-99065792D01*
X167500500Y-85001038D01*
X167500505Y-84935147D01*
X167500500Y-84935128D01*
X167500500Y-84935108D01*
X167483304Y-84870932D01*
X167466407Y-84807850D01*
X167466397Y-84807832D01*
X167466392Y-84807814D01*
X167433186Y-84750299D01*
X167400524Y-84693717D01*
X167400509Y-84693702D01*
X167400500Y-84693686D01*
X167353934Y-84647120D01*
X167307345Y-84600524D01*
X167307344Y-84600523D01*
X167307339Y-84600518D01*
X167307319Y-84600503D01*
X167305564Y-84599490D01*
X167248759Y-84566693D01*
X167248760Y-84566691D01*
X167248752Y-84566689D01*
X167193222Y-84534623D01*
X167193221Y-84534622D01*
X167193206Y-84534614D01*
X167193188Y-84534609D01*
X167193186Y-84534608D01*
X167128537Y-84517285D01*
X167100299Y-84509716D01*
X167065912Y-84500500D01*
X167065892Y-84500500D01*
X167000921Y-84500500D01*
X154074042Y-84499505D01*
X154073956Y-84499500D01*
X154065892Y-84499500D01*
X153999156Y-84499500D01*
X153934142Y-84499494D01*
X153934114Y-84499498D01*
X153869938Y-84516693D01*
X153869931Y-84516695D01*
X153806831Y-84533597D01*
X153761382Y-84559837D01*
X153761380Y-84559838D01*
X153751307Y-84565654D01*
X153692717Y-84599476D01*
X153692702Y-84599490D01*
X153692686Y-84599500D01*
X153646120Y-84646065D01*
X153599524Y-84692655D01*
X153599514Y-84692671D01*
X153599500Y-84692686D01*
X153566237Y-84750299D01*
X153533623Y-84806778D01*
X153533617Y-84806796D01*
X153533608Y-84806814D01*
X153516285Y-84871462D01*
X153513265Y-84882727D01*
X153513263Y-84882733D01*
X153499500Y-84934088D01*
X153499500Y-84999971D01*
X153499494Y-85074349D01*
X147876620Y-85074349D01*
X146142243Y-83341521D01*
X146108190Y-83279224D01*
X146105299Y-83252386D01*
X146105299Y-82039131D01*
X146105299Y-82039130D01*
X155662300Y-82039130D01*
X155662300Y-83613263D01*
X155662301Y-83613273D01*
X155677065Y-83687500D01*
X155733316Y-83771684D01*
X155817497Y-83827933D01*
X155817499Y-83827934D01*
X155891733Y-83842700D01*
X157465866Y-83842699D01*
X157465869Y-83842698D01*
X157465873Y-83842698D01*
X157530920Y-83829760D01*
X157540101Y-83827934D01*
X157624284Y-83771684D01*
X157680534Y-83687501D01*
X157695300Y-83613267D01*
X157695299Y-82039134D01*
X157695299Y-82039133D01*
X157695299Y-82039131D01*
X157695299Y-82039130D01*
X165822300Y-82039130D01*
X165822300Y-83613263D01*
X165822301Y-83613273D01*
X165837065Y-83687500D01*
X165893316Y-83771684D01*
X165977497Y-83827933D01*
X165977499Y-83827934D01*
X166051733Y-83842700D01*
X167262229Y-83842699D01*
X167330350Y-83862701D01*
X167351288Y-83879567D01*
X168547143Y-85074438D01*
X168899710Y-85426716D01*
X168972037Y-85498983D01*
X169006087Y-85561281D01*
X169001052Y-85632099D01*
X168999388Y-85636330D01*
X168998366Y-85638796D01*
X168983600Y-85713030D01*
X168983600Y-87287163D01*
X168983601Y-87287173D01*
X168998365Y-87361400D01*
X169054616Y-87445584D01*
X169138797Y-87501833D01*
X169138799Y-87501834D01*
X169213033Y-87516600D01*
X170787166Y-87516599D01*
X170787169Y-87516598D01*
X170787173Y-87516598D01*
X170836426Y-87506801D01*
X170861401Y-87501834D01*
X170945584Y-87445584D01*
X171001834Y-87361401D01*
X171016600Y-87287167D01*
X171016599Y-85713034D01*
X171016598Y-85713030D01*
X171016598Y-85713026D01*
X171001834Y-85638799D01*
X170956353Y-85570733D01*
X170945584Y-85554616D01*
X170945583Y-85554615D01*
X170861402Y-85498366D01*
X170787169Y-85483600D01*
X170787167Y-85483600D01*
X170088292Y-85483600D01*
X170020171Y-85463598D01*
X169999233Y-85446732D01*
X169715794Y-85163526D01*
X169626544Y-85074349D01*
X175499494Y-85074349D01*
X175499500Y-85074438D01*
X175499500Y-98934008D01*
X175499500Y-99065792D01*
X175512166Y-99113063D01*
X175533607Y-99193083D01*
X175533610Y-99193090D01*
X175599497Y-99307210D01*
X175599505Y-99307220D01*
X175692679Y-99400394D01*
X175692684Y-99400398D01*
X175692686Y-99400400D01*
X175806814Y-99466292D01*
X175934108Y-99500400D01*
X175934110Y-99500400D01*
X189065890Y-99500400D01*
X189065892Y-99500400D01*
X189193186Y-99466292D01*
X189307314Y-99400400D01*
X189400500Y-99307214D01*
X189466392Y-99193086D01*
X189500500Y-99065792D01*
X189500500Y-85001038D01*
X189500505Y-84935147D01*
X189500500Y-84935128D01*
X189500500Y-84935108D01*
X189483304Y-84870932D01*
X189466407Y-84807850D01*
X189466397Y-84807832D01*
X189466392Y-84807814D01*
X189433186Y-84750299D01*
X189400524Y-84693717D01*
X189400509Y-84693702D01*
X189400500Y-84693686D01*
X189353934Y-84647120D01*
X189307345Y-84600524D01*
X189307344Y-84600523D01*
X189307339Y-84600518D01*
X189307319Y-84600503D01*
X189305564Y-84599490D01*
X189248759Y-84566693D01*
X189248760Y-84566691D01*
X189248752Y-84566689D01*
X189193222Y-84534623D01*
X189193221Y-84534622D01*
X189193206Y-84534614D01*
X189193188Y-84534609D01*
X189193186Y-84534608D01*
X189128537Y-84517285D01*
X189100299Y-84509716D01*
X189065912Y-84500500D01*
X189065892Y-84500500D01*
X189000921Y-84500500D01*
X176074042Y-84499505D01*
X176073956Y-84499500D01*
X176065892Y-84499500D01*
X175999156Y-84499500D01*
X175934142Y-84499494D01*
X175934114Y-84499498D01*
X175869938Y-84516693D01*
X175869931Y-84516695D01*
X175806831Y-84533597D01*
X175761382Y-84559837D01*
X175761380Y-84559838D01*
X175751307Y-84565654D01*
X175692717Y-84599476D01*
X175692702Y-84599490D01*
X175692686Y-84599500D01*
X175646120Y-84646065D01*
X175599524Y-84692655D01*
X175599514Y-84692671D01*
X175599500Y-84692686D01*
X175566237Y-84750299D01*
X175533623Y-84806778D01*
X175533617Y-84806796D01*
X175533608Y-84806814D01*
X175516285Y-84871462D01*
X175513265Y-84882727D01*
X175513263Y-84882733D01*
X175499500Y-84934088D01*
X175499500Y-84999971D01*
X175499494Y-85074349D01*
X169626544Y-85074349D01*
X167892240Y-83341472D01*
X167858190Y-83279174D01*
X167855299Y-83252340D01*
X167855299Y-82039131D01*
X167855299Y-82039130D01*
X177662300Y-82039130D01*
X177662300Y-83613263D01*
X177662301Y-83613273D01*
X177677065Y-83687500D01*
X177733316Y-83771684D01*
X177817497Y-83827933D01*
X177817499Y-83827934D01*
X177891733Y-83842700D01*
X179465866Y-83842699D01*
X179465869Y-83842698D01*
X179465873Y-83842698D01*
X179530920Y-83829760D01*
X179540101Y-83827934D01*
X179624284Y-83771684D01*
X179680534Y-83687501D01*
X179695300Y-83613267D01*
X179695299Y-82039134D01*
X179695299Y-82039133D01*
X179695299Y-82039131D01*
X179695299Y-82039130D01*
X187822300Y-82039130D01*
X187822300Y-83613263D01*
X187822301Y-83613273D01*
X187837065Y-83687500D01*
X187893316Y-83771684D01*
X187977497Y-83827933D01*
X187977499Y-83827934D01*
X188051733Y-83842700D01*
X189263629Y-83842699D01*
X189331750Y-83862701D01*
X189352688Y-83879567D01*
X190224135Y-84750297D01*
X190901387Y-85426993D01*
X190972447Y-85497994D01*
X191006497Y-85560292D01*
X191001462Y-85631110D01*
X190999797Y-85635344D01*
X190998366Y-85638798D01*
X190983600Y-85713030D01*
X190983600Y-87287163D01*
X190983601Y-87287173D01*
X190998365Y-87361400D01*
X191054616Y-87445584D01*
X191138797Y-87501833D01*
X191138799Y-87501834D01*
X191213033Y-87516600D01*
X192787166Y-87516599D01*
X192787169Y-87516598D01*
X192787173Y-87516598D01*
X192836426Y-87506801D01*
X192861401Y-87501834D01*
X192945584Y-87445584D01*
X193001834Y-87361401D01*
X193016600Y-87287167D01*
X193016599Y-85713034D01*
X193016598Y-85713030D01*
X193016598Y-85713026D01*
X193001834Y-85638799D01*
X192956353Y-85570733D01*
X192945584Y-85554616D01*
X192945583Y-85554615D01*
X192861402Y-85498366D01*
X192787169Y-85483600D01*
X192787167Y-85483600D01*
X192089692Y-85483600D01*
X192021571Y-85463598D01*
X192000633Y-85446732D01*
X189892240Y-83340073D01*
X189858190Y-83277775D01*
X189855299Y-83250941D01*
X189855299Y-82039136D01*
X189855298Y-82039127D01*
X189840534Y-81964899D01*
X189838977Y-81962569D01*
X189784284Y-81880716D01*
X189784283Y-81880715D01*
X189700102Y-81824466D01*
X189625867Y-81809700D01*
X188051736Y-81809700D01*
X188051726Y-81809701D01*
X187977499Y-81824465D01*
X187893315Y-81880716D01*
X187837066Y-81964897D01*
X187822300Y-82039130D01*
X179695299Y-82039130D01*
X179680534Y-81964899D01*
X179678977Y-81962569D01*
X179624284Y-81880716D01*
X179624283Y-81880715D01*
X179540102Y-81824466D01*
X179465867Y-81809700D01*
X177891736Y-81809700D01*
X177891726Y-81809701D01*
X177817499Y-81824465D01*
X177733315Y-81880716D01*
X177677066Y-81964897D01*
X177662300Y-82039130D01*
X167855299Y-82039130D01*
X167840534Y-81964899D01*
X167838977Y-81962569D01*
X167784284Y-81880716D01*
X167784283Y-81880715D01*
X167700102Y-81824466D01*
X167625867Y-81809700D01*
X166051736Y-81809700D01*
X166051726Y-81809701D01*
X165977499Y-81824465D01*
X165893315Y-81880716D01*
X165837066Y-81964897D01*
X165822300Y-82039130D01*
X157695299Y-82039130D01*
X157680534Y-81964899D01*
X157678977Y-81962569D01*
X157624284Y-81880716D01*
X157624283Y-81880715D01*
X157540102Y-81824466D01*
X157465867Y-81809700D01*
X155891736Y-81809700D01*
X155891726Y-81809701D01*
X155817499Y-81824465D01*
X155733315Y-81880716D01*
X155677066Y-81964897D01*
X155662300Y-82039130D01*
X146105299Y-82039130D01*
X146090534Y-81964899D01*
X146088977Y-81962569D01*
X146034284Y-81880716D01*
X146034283Y-81880715D01*
X145950102Y-81824466D01*
X145875867Y-81809700D01*
X144301736Y-81809700D01*
X144301726Y-81809701D01*
X144227499Y-81824465D01*
X144143315Y-81880716D01*
X144087066Y-81964897D01*
X144072300Y-82039130D01*
X135945299Y-82039130D01*
X135930534Y-81964899D01*
X135928977Y-81962569D01*
X135874284Y-81880716D01*
X135874283Y-81880715D01*
X135790102Y-81824466D01*
X135715867Y-81809700D01*
X134141736Y-81809700D01*
X134141726Y-81809701D01*
X134067499Y-81824465D01*
X133983315Y-81880716D01*
X133927066Y-81964897D01*
X133912300Y-82039130D01*
X128382500Y-82039130D01*
X128382500Y-81962569D01*
X128402502Y-81894448D01*
X128456158Y-81847955D01*
X128526432Y-81837851D01*
X128533072Y-81838988D01*
X128551733Y-81842700D01*
X130125866Y-81842699D01*
X130125869Y-81842698D01*
X130125873Y-81842698D01*
X130175126Y-81832901D01*
X130200101Y-81827934D01*
X130284284Y-81771684D01*
X130340534Y-81687501D01*
X130355300Y-81613267D01*
X130355300Y-81333000D01*
X130375302Y-81264879D01*
X130428958Y-81218386D01*
X130481300Y-81207000D01*
X131144623Y-81207000D01*
X131144625Y-81207000D01*
X131241654Y-81181001D01*
X131241657Y-81180999D01*
X131241658Y-81180999D01*
X131285150Y-81155888D01*
X131328647Y-81130776D01*
X131399676Y-81059747D01*
X131417396Y-81042027D01*
X131417398Y-81042023D01*
X138157917Y-74301503D01*
X138220229Y-74267478D01*
X138247012Y-74264599D01*
X139534864Y-74264599D01*
X139534866Y-74264599D01*
X139534869Y-74264598D01*
X139534872Y-74264598D01*
X139571463Y-74257319D01*
X139609101Y-74249834D01*
X139693284Y-74193584D01*
X139749534Y-74109401D01*
X139764300Y-74035167D01*
X139764299Y-72385034D01*
X139764299Y-72385033D01*
X139764299Y-72385031D01*
X139764299Y-72385030D01*
X140195300Y-72385030D01*
X140195300Y-74035163D01*
X140195301Y-74035173D01*
X140210065Y-74109400D01*
X140266316Y-74193584D01*
X140350497Y-74249833D01*
X140350499Y-74249834D01*
X140424733Y-74264600D01*
X142074866Y-74264599D01*
X142074869Y-74264598D01*
X142074873Y-74264598D01*
X142124126Y-74254801D01*
X142149101Y-74249834D01*
X142233284Y-74193584D01*
X142289534Y-74109401D01*
X142304300Y-74035167D01*
X142304299Y-72385034D01*
X142304299Y-72385033D01*
X142304299Y-72385031D01*
X142304299Y-72385030D01*
X142735300Y-72385030D01*
X142735300Y-74035163D01*
X142735301Y-74035173D01*
X142750065Y-74109400D01*
X142806316Y-74193584D01*
X142890497Y-74249833D01*
X142890499Y-74249834D01*
X142964733Y-74264600D01*
X144614866Y-74264599D01*
X144614869Y-74264598D01*
X144614873Y-74264598D01*
X144664126Y-74254801D01*
X144689101Y-74249834D01*
X144773284Y-74193584D01*
X144829534Y-74109401D01*
X144844300Y-74035167D01*
X144844299Y-72385034D01*
X144844299Y-72385033D01*
X144844299Y-72385031D01*
X144844299Y-72385030D01*
X145275300Y-72385030D01*
X145275300Y-74035163D01*
X145275301Y-74035173D01*
X145290065Y-74109400D01*
X145346316Y-74193584D01*
X145430497Y-74249833D01*
X145430499Y-74249834D01*
X145504733Y-74264600D01*
X147154866Y-74264599D01*
X147154869Y-74264598D01*
X147154873Y-74264598D01*
X147204126Y-74254801D01*
X147229101Y-74249834D01*
X147313284Y-74193584D01*
X147369534Y-74109401D01*
X147384300Y-74035167D01*
X147384299Y-72385034D01*
X147384299Y-72385033D01*
X147384299Y-72385031D01*
X147384299Y-72385030D01*
X147815300Y-72385030D01*
X147815300Y-74035163D01*
X147815301Y-74035173D01*
X147830065Y-74109400D01*
X147886316Y-74193584D01*
X147970497Y-74249833D01*
X147970499Y-74249834D01*
X148044733Y-74264600D01*
X149694866Y-74264599D01*
X149694869Y-74264598D01*
X149694873Y-74264598D01*
X149744126Y-74254801D01*
X149769101Y-74249834D01*
X149853284Y-74193584D01*
X149909534Y-74109401D01*
X149924300Y-74035167D01*
X149924299Y-72385034D01*
X149924299Y-72385033D01*
X149924299Y-72385031D01*
X149924299Y-72385030D01*
X150355300Y-72385030D01*
X150355300Y-74035163D01*
X150355301Y-74035173D01*
X150370065Y-74109400D01*
X150426316Y-74193584D01*
X150510497Y-74249833D01*
X150510499Y-74249834D01*
X150584733Y-74264600D01*
X152234866Y-74264599D01*
X152234869Y-74264598D01*
X152234873Y-74264598D01*
X152284126Y-74254801D01*
X152309101Y-74249834D01*
X152393284Y-74193584D01*
X152449534Y-74109401D01*
X152464300Y-74035167D01*
X152464299Y-72385034D01*
X152464299Y-72385033D01*
X152464299Y-72385031D01*
X152464299Y-72385030D01*
X152895300Y-72385030D01*
X152895300Y-74035163D01*
X152895301Y-74035173D01*
X152910065Y-74109400D01*
X152966316Y-74193584D01*
X153050497Y-74249833D01*
X153050499Y-74249834D01*
X153124733Y-74264600D01*
X154774866Y-74264599D01*
X154774869Y-74264598D01*
X154774873Y-74264598D01*
X154824126Y-74254801D01*
X154849101Y-74249834D01*
X154933284Y-74193584D01*
X154989534Y-74109401D01*
X155004300Y-74035167D01*
X155004299Y-72385034D01*
X155004299Y-72385033D01*
X155004299Y-72385031D01*
X155004299Y-72385030D01*
X155435300Y-72385030D01*
X155435300Y-74035163D01*
X155435301Y-74035173D01*
X155450065Y-74109400D01*
X155506316Y-74193584D01*
X155590497Y-74249833D01*
X155590499Y-74249834D01*
X155664733Y-74264600D01*
X157314866Y-74264599D01*
X157314869Y-74264598D01*
X157314873Y-74264598D01*
X157364126Y-74254801D01*
X157389101Y-74249834D01*
X157473284Y-74193584D01*
X157529534Y-74109401D01*
X157544300Y-74035167D01*
X157544300Y-73825030D01*
X173095250Y-73825030D01*
X173095250Y-75175163D01*
X173095251Y-75175173D01*
X173110015Y-75249400D01*
X173166266Y-75333584D01*
X173250447Y-75389833D01*
X173250449Y-75389834D01*
X173324683Y-75404600D01*
X174674916Y-75404599D01*
X174674919Y-75404598D01*
X174674923Y-75404598D01*
X174724176Y-75394801D01*
X174749151Y-75389834D01*
X174833334Y-75333584D01*
X174889584Y-75249401D01*
X174904350Y-75175167D01*
X174904349Y-73975030D01*
X177245350Y-73975030D01*
X177245350Y-75025163D01*
X177245351Y-75025173D01*
X177260115Y-75099400D01*
X177316366Y-75183584D01*
X177400547Y-75239833D01*
X177400549Y-75239834D01*
X177474783Y-75254600D01*
X178524816Y-75254599D01*
X178524819Y-75254598D01*
X178524823Y-75254598D01*
X178574076Y-75244801D01*
X178599051Y-75239834D01*
X178683234Y-75183584D01*
X178739484Y-75099401D01*
X178754250Y-75025167D01*
X178754249Y-73975034D01*
X178754249Y-73975033D01*
X178754249Y-73975031D01*
X178754249Y-73975030D01*
X179245350Y-73975030D01*
X179245350Y-75025163D01*
X179245351Y-75025173D01*
X179260115Y-75099400D01*
X179316366Y-75183584D01*
X179400547Y-75239833D01*
X179400549Y-75239834D01*
X179474783Y-75254600D01*
X180524816Y-75254599D01*
X180524819Y-75254598D01*
X180524823Y-75254598D01*
X180574076Y-75244801D01*
X180599051Y-75239834D01*
X180683234Y-75183584D01*
X180739484Y-75099401D01*
X180754250Y-75025167D01*
X180754249Y-73975034D01*
X180754249Y-73975033D01*
X180754249Y-73975031D01*
X180754249Y-73975030D01*
X181245300Y-73975030D01*
X181245300Y-75025163D01*
X181245301Y-75025173D01*
X181260065Y-75099400D01*
X181316316Y-75183584D01*
X181400497Y-75239833D01*
X181400499Y-75239834D01*
X181474733Y-75254600D01*
X182524866Y-75254599D01*
X182524869Y-75254598D01*
X182524873Y-75254598D01*
X182574126Y-75244801D01*
X182599101Y-75239834D01*
X182683284Y-75183584D01*
X182739534Y-75099401D01*
X182754300Y-75025167D01*
X182754299Y-73975034D01*
X182754298Y-73975031D01*
X182754298Y-73975026D01*
X182739534Y-73900799D01*
X182739533Y-73900797D01*
X182683284Y-73816616D01*
X182632622Y-73782764D01*
X182599102Y-73760366D01*
X182524867Y-73745600D01*
X181474736Y-73745600D01*
X181474726Y-73745601D01*
X181400499Y-73760365D01*
X181316315Y-73816616D01*
X181260066Y-73900797D01*
X181245300Y-73975030D01*
X180754249Y-73975030D01*
X180739484Y-73900799D01*
X180739483Y-73900797D01*
X180683234Y-73816616D01*
X180632572Y-73782764D01*
X180599052Y-73760366D01*
X180524817Y-73745600D01*
X179474786Y-73745600D01*
X179474776Y-73745601D01*
X179400549Y-73760365D01*
X179316365Y-73816616D01*
X179260116Y-73900797D01*
X179245350Y-73975030D01*
X178754249Y-73975030D01*
X178739484Y-73900799D01*
X178739483Y-73900797D01*
X178683234Y-73816616D01*
X178632572Y-73782764D01*
X178599052Y-73760366D01*
X178524817Y-73745600D01*
X177474786Y-73745600D01*
X177474776Y-73745601D01*
X177400549Y-73760365D01*
X177316365Y-73816616D01*
X177260116Y-73900797D01*
X177245350Y-73975030D01*
X174904349Y-73975030D01*
X174904349Y-73825034D01*
X174904348Y-73825030D01*
X174904348Y-73825026D01*
X174889584Y-73750799D01*
X174833333Y-73666615D01*
X174749152Y-73610366D01*
X174674917Y-73595600D01*
X173324686Y-73595600D01*
X173324676Y-73595601D01*
X173250449Y-73610365D01*
X173166265Y-73666616D01*
X173110016Y-73750797D01*
X173095250Y-73825030D01*
X157544300Y-73825030D01*
X157544299Y-73195884D01*
X157544299Y-72385036D01*
X157544298Y-72385026D01*
X157529534Y-72310799D01*
X157473283Y-72226615D01*
X157389102Y-72170366D01*
X157314867Y-72155600D01*
X155664736Y-72155600D01*
X155664726Y-72155601D01*
X155590499Y-72170365D01*
X155506315Y-72226616D01*
X155450066Y-72310797D01*
X155435300Y-72385030D01*
X155004299Y-72385030D01*
X154989534Y-72310799D01*
X154933283Y-72226615D01*
X154849102Y-72170366D01*
X154774867Y-72155600D01*
X153124736Y-72155600D01*
X153124726Y-72155601D01*
X153050499Y-72170365D01*
X152966315Y-72226616D01*
X152910066Y-72310797D01*
X152895300Y-72385030D01*
X152464299Y-72385030D01*
X152449534Y-72310799D01*
X152393283Y-72226615D01*
X152309102Y-72170366D01*
X152234867Y-72155600D01*
X150584736Y-72155600D01*
X150584726Y-72155601D01*
X150510499Y-72170365D01*
X150426315Y-72226616D01*
X150370066Y-72310797D01*
X150355300Y-72385030D01*
X149924299Y-72385030D01*
X149909534Y-72310799D01*
X149853283Y-72226615D01*
X149769102Y-72170366D01*
X149694867Y-72155600D01*
X148044736Y-72155600D01*
X148044726Y-72155601D01*
X147970499Y-72170365D01*
X147886315Y-72226616D01*
X147830066Y-72310797D01*
X147815300Y-72385030D01*
X147384299Y-72385030D01*
X147369534Y-72310799D01*
X147313283Y-72226615D01*
X147229102Y-72170366D01*
X147154867Y-72155600D01*
X145504736Y-72155600D01*
X145504726Y-72155601D01*
X145430499Y-72170365D01*
X145346315Y-72226616D01*
X145290066Y-72310797D01*
X145275300Y-72385030D01*
X144844299Y-72385030D01*
X144829534Y-72310799D01*
X144773283Y-72226615D01*
X144689102Y-72170366D01*
X144614867Y-72155600D01*
X142964736Y-72155600D01*
X142964726Y-72155601D01*
X142890499Y-72170365D01*
X142806315Y-72226616D01*
X142750066Y-72310797D01*
X142735300Y-72385030D01*
X142304299Y-72385030D01*
X142289534Y-72310799D01*
X142233283Y-72226615D01*
X142149102Y-72170366D01*
X142074867Y-72155600D01*
X140424736Y-72155600D01*
X140424726Y-72155601D01*
X140350499Y-72170365D01*
X140266315Y-72226616D01*
X140210066Y-72310797D01*
X140195300Y-72385030D01*
X139764299Y-72385030D01*
X139749534Y-72310799D01*
X139693283Y-72226615D01*
X139609102Y-72170366D01*
X139534867Y-72155600D01*
X137884736Y-72155600D01*
X137884726Y-72155601D01*
X137810499Y-72170365D01*
X137726315Y-72226616D01*
X137670066Y-72310797D01*
X137655300Y-72385030D01*
X137655300Y-73672887D01*
X137635298Y-73741008D01*
X137618395Y-73761982D01*
X130973282Y-80407095D01*
X130910970Y-80441121D01*
X130884187Y-80444000D01*
X130481299Y-80444000D01*
X130413178Y-80423998D01*
X130366685Y-80370342D01*
X130355299Y-80318000D01*
X130355299Y-80039136D01*
X130355298Y-80039127D01*
X130340534Y-79964899D01*
X130284283Y-79880715D01*
X130200102Y-79824466D01*
X130125869Y-79809700D01*
X130125867Y-79809700D01*
X129035001Y-79809700D01*
X128966880Y-79789698D01*
X128920387Y-79736042D01*
X128910283Y-79665768D01*
X128939777Y-79601188D01*
X128945905Y-79594605D01*
X128975908Y-79564602D01*
X133848798Y-74691624D01*
X133904376Y-74636047D01*
X133905820Y-74633547D01*
X133938057Y-74577709D01*
X133954601Y-74549054D01*
X133954601Y-74549053D01*
X133954603Y-74549050D01*
X133959138Y-74532122D01*
X133980601Y-74452021D01*
X133980600Y-74351571D01*
X133980600Y-71609712D01*
X134000602Y-71541591D01*
X134017493Y-71520628D01*
X134024802Y-71513319D01*
X134087108Y-71479292D01*
X134157924Y-71484352D01*
X134214763Y-71526895D01*
X134239578Y-71593414D01*
X134239900Y-71602411D01*
X134239900Y-73037463D01*
X134239901Y-73037473D01*
X134254665Y-73111700D01*
X134310916Y-73195884D01*
X134395097Y-73252133D01*
X134395099Y-73252134D01*
X134469333Y-73266900D01*
X136043466Y-73266899D01*
X136043469Y-73266898D01*
X136043473Y-73266898D01*
X136092726Y-73257101D01*
X136117701Y-73252134D01*
X136201884Y-73195884D01*
X136258134Y-73111701D01*
X136272900Y-73037467D01*
X136272899Y-71713030D01*
X161713600Y-71713030D01*
X161713600Y-73287163D01*
X161713601Y-73287173D01*
X161728365Y-73361400D01*
X161784616Y-73445584D01*
X161868797Y-73501833D01*
X161868799Y-73501834D01*
X161943033Y-73516600D01*
X163517166Y-73516599D01*
X163517169Y-73516598D01*
X163517173Y-73516598D01*
X163566426Y-73506801D01*
X163591401Y-73501834D01*
X163675584Y-73445584D01*
X163731834Y-73361401D01*
X163746600Y-73287167D01*
X163746599Y-71975030D01*
X173245400Y-71975030D01*
X173245400Y-73025163D01*
X173245401Y-73025173D01*
X173260165Y-73099400D01*
X173316416Y-73183584D01*
X173400597Y-73239833D01*
X173400599Y-73239834D01*
X173474833Y-73254600D01*
X174524966Y-73254599D01*
X174524969Y-73254598D01*
X174524973Y-73254598D01*
X174574226Y-73244801D01*
X174599201Y-73239834D01*
X174683384Y-73183584D01*
X174739634Y-73099401D01*
X174754400Y-73025167D01*
X174754399Y-71975034D01*
X174754399Y-71975033D01*
X174754399Y-71975031D01*
X174754399Y-71975030D01*
X175245400Y-71975030D01*
X175245400Y-73025163D01*
X175245401Y-73025173D01*
X175260165Y-73099400D01*
X175316416Y-73183584D01*
X175400597Y-73239833D01*
X175400599Y-73239834D01*
X175474833Y-73254600D01*
X176524966Y-73254599D01*
X176524969Y-73254598D01*
X176524973Y-73254598D01*
X176574226Y-73244801D01*
X176599201Y-73239834D01*
X176683384Y-73183584D01*
X176739634Y-73099401D01*
X176754400Y-73025167D01*
X176754399Y-71975034D01*
X176754399Y-71975033D01*
X176754399Y-71975031D01*
X176754399Y-71975030D01*
X177245400Y-71975030D01*
X177245400Y-73025163D01*
X177245401Y-73025173D01*
X177260165Y-73099400D01*
X177316416Y-73183584D01*
X177400597Y-73239833D01*
X177400599Y-73239834D01*
X177474833Y-73254600D01*
X178524966Y-73254599D01*
X178524969Y-73254598D01*
X178524973Y-73254598D01*
X178574226Y-73244801D01*
X178599201Y-73239834D01*
X178683384Y-73183584D01*
X178739634Y-73099401D01*
X178754400Y-73025167D01*
X178754399Y-71975034D01*
X178754399Y-71975033D01*
X178754399Y-71975031D01*
X178754399Y-71975030D01*
X179245400Y-71975030D01*
X179245400Y-73025163D01*
X179245401Y-73025173D01*
X179260165Y-73099400D01*
X179316416Y-73183584D01*
X179400597Y-73239833D01*
X179400599Y-73239834D01*
X179474833Y-73254600D01*
X180524966Y-73254599D01*
X180524969Y-73254598D01*
X180524973Y-73254598D01*
X180574226Y-73244801D01*
X180599201Y-73239834D01*
X180683384Y-73183584D01*
X180739634Y-73099401D01*
X180754400Y-73025167D01*
X180754399Y-71975034D01*
X180754399Y-71975033D01*
X180754399Y-71975031D01*
X180754399Y-71975030D01*
X181245350Y-71975030D01*
X181245350Y-73025163D01*
X181245351Y-73025173D01*
X181260115Y-73099400D01*
X181316366Y-73183584D01*
X181400547Y-73239833D01*
X181400549Y-73239834D01*
X181474783Y-73254600D01*
X182524816Y-73254599D01*
X182524819Y-73254598D01*
X182524823Y-73254598D01*
X182574076Y-73244801D01*
X182599051Y-73239834D01*
X182683234Y-73183584D01*
X182739484Y-73099401D01*
X182754250Y-73025167D01*
X182754249Y-71975034D01*
X182754249Y-71975033D01*
X182754249Y-71975031D01*
X182754249Y-71975030D01*
X183245350Y-71975030D01*
X183245350Y-73025163D01*
X183245351Y-73025173D01*
X183260115Y-73099400D01*
X183316366Y-73183584D01*
X183400547Y-73239833D01*
X183400549Y-73239834D01*
X183474783Y-73254600D01*
X184524816Y-73254599D01*
X184524819Y-73254598D01*
X184524823Y-73254598D01*
X184574076Y-73244801D01*
X184599051Y-73239834D01*
X184683234Y-73183584D01*
X184739484Y-73099401D01*
X184754250Y-73025167D01*
X184754249Y-71975034D01*
X184754249Y-71975033D01*
X184754249Y-71975031D01*
X184754249Y-71975030D01*
X185245350Y-71975030D01*
X185245350Y-73025163D01*
X185245351Y-73025173D01*
X185260115Y-73099400D01*
X185316366Y-73183584D01*
X185400547Y-73239833D01*
X185400549Y-73239834D01*
X185474783Y-73254600D01*
X186524816Y-73254599D01*
X186524819Y-73254598D01*
X186524823Y-73254598D01*
X186574076Y-73244801D01*
X186599051Y-73239834D01*
X186683234Y-73183584D01*
X186739484Y-73099401D01*
X186754250Y-73025167D01*
X186754249Y-71975034D01*
X186754249Y-71975033D01*
X186754249Y-71975031D01*
X186754249Y-71975030D01*
X187245350Y-71975030D01*
X187245350Y-73025163D01*
X187245351Y-73025173D01*
X187260115Y-73099400D01*
X187316366Y-73183584D01*
X187400547Y-73239833D01*
X187400549Y-73239834D01*
X187474783Y-73254600D01*
X188524816Y-73254599D01*
X188524819Y-73254598D01*
X188524823Y-73254598D01*
X188574076Y-73244801D01*
X188599051Y-73239834D01*
X188683234Y-73183584D01*
X188739484Y-73099401D01*
X188754250Y-73025167D01*
X188754249Y-71975034D01*
X188754248Y-71975031D01*
X188754248Y-71975026D01*
X188739484Y-71900799D01*
X188683233Y-71816615D01*
X188599052Y-71760366D01*
X188524817Y-71745600D01*
X187474786Y-71745600D01*
X187474776Y-71745601D01*
X187400549Y-71760365D01*
X187316365Y-71816616D01*
X187260116Y-71900797D01*
X187245350Y-71975030D01*
X186754249Y-71975030D01*
X186739484Y-71900799D01*
X186683233Y-71816615D01*
X186599052Y-71760366D01*
X186524817Y-71745600D01*
X185474786Y-71745600D01*
X185474776Y-71745601D01*
X185400549Y-71760365D01*
X185316365Y-71816616D01*
X185260116Y-71900797D01*
X185245350Y-71975030D01*
X184754249Y-71975030D01*
X184739484Y-71900799D01*
X184683233Y-71816615D01*
X184599052Y-71760366D01*
X184524817Y-71745600D01*
X183474786Y-71745600D01*
X183474776Y-71745601D01*
X183400549Y-71760365D01*
X183316365Y-71816616D01*
X183260116Y-71900797D01*
X183245350Y-71975030D01*
X182754249Y-71975030D01*
X182739484Y-71900799D01*
X182683233Y-71816615D01*
X182599052Y-71760366D01*
X182524817Y-71745600D01*
X181474786Y-71745600D01*
X181474776Y-71745601D01*
X181400549Y-71760365D01*
X181316365Y-71816616D01*
X181260116Y-71900797D01*
X181245350Y-71975030D01*
X180754399Y-71975030D01*
X180739634Y-71900799D01*
X180683383Y-71816615D01*
X180599202Y-71760366D01*
X180524967Y-71745600D01*
X179474836Y-71745600D01*
X179474826Y-71745601D01*
X179400599Y-71760365D01*
X179316415Y-71816616D01*
X179260166Y-71900797D01*
X179245400Y-71975030D01*
X178754399Y-71975030D01*
X178739634Y-71900799D01*
X178683383Y-71816615D01*
X178599202Y-71760366D01*
X178524967Y-71745600D01*
X177474836Y-71745600D01*
X177474826Y-71745601D01*
X177400599Y-71760365D01*
X177316415Y-71816616D01*
X177260166Y-71900797D01*
X177245400Y-71975030D01*
X176754399Y-71975030D01*
X176739634Y-71900799D01*
X176683383Y-71816615D01*
X176599202Y-71760366D01*
X176524967Y-71745600D01*
X175474836Y-71745600D01*
X175474826Y-71745601D01*
X175400599Y-71760365D01*
X175316415Y-71816616D01*
X175260166Y-71900797D01*
X175245400Y-71975030D01*
X174754399Y-71975030D01*
X174739634Y-71900799D01*
X174683383Y-71816615D01*
X174599202Y-71760366D01*
X174524967Y-71745600D01*
X173474836Y-71745600D01*
X173474826Y-71745601D01*
X173400599Y-71760365D01*
X173316415Y-71816616D01*
X173260166Y-71900797D01*
X173245400Y-71975030D01*
X163746599Y-71975030D01*
X163746599Y-71713034D01*
X163746598Y-71713030D01*
X163746598Y-71713026D01*
X163731834Y-71638799D01*
X163698557Y-71588997D01*
X163675584Y-71554616D01*
X163675583Y-71554615D01*
X163591402Y-71498366D01*
X163517167Y-71483600D01*
X161943036Y-71483600D01*
X161943026Y-71483601D01*
X161868799Y-71498365D01*
X161784615Y-71554616D01*
X161728366Y-71638797D01*
X161713600Y-71713030D01*
X136272899Y-71713030D01*
X136272899Y-71463334D01*
X136272898Y-71463331D01*
X136272898Y-71463326D01*
X136258134Y-71389099D01*
X136201883Y-71304915D01*
X136117702Y-71248666D01*
X136043469Y-71233900D01*
X134608411Y-71233900D01*
X134540290Y-71213898D01*
X134493797Y-71160242D01*
X134483693Y-71089968D01*
X134513187Y-71025388D01*
X134519289Y-71018832D01*
X135320419Y-70217702D01*
X135382729Y-70183679D01*
X135409512Y-70180800D01*
X138650623Y-70180800D01*
X138650625Y-70180800D01*
X138747654Y-70154801D01*
X138747657Y-70154799D01*
X138747658Y-70154799D01*
X138791150Y-70129688D01*
X138834647Y-70104576D01*
X138905676Y-70033547D01*
X138923396Y-70015827D01*
X138923398Y-70015823D01*
X141473470Y-67465750D01*
X141473480Y-67465743D01*
X141554870Y-67384353D01*
X141554876Y-67384347D01*
X141605101Y-67297354D01*
X141605102Y-67297353D01*
X141631101Y-67200325D01*
X141631101Y-67099875D01*
X141631101Y-67092158D01*
X141631100Y-67092140D01*
X141631100Y-66770599D01*
X141651102Y-66702478D01*
X141704758Y-66655985D01*
X141757100Y-66644599D01*
X142074864Y-66644599D01*
X142074866Y-66644599D01*
X142074869Y-66644598D01*
X142074872Y-66644598D01*
X142111463Y-66637319D01*
X142149101Y-66629834D01*
X142233284Y-66573584D01*
X142289534Y-66489401D01*
X142304300Y-66415167D01*
X142304299Y-64765034D01*
X142304299Y-64765033D01*
X142304299Y-64765031D01*
X142304299Y-64765030D01*
X142735300Y-64765030D01*
X142735300Y-66415163D01*
X142735301Y-66415173D01*
X142750065Y-66489400D01*
X142806316Y-66573584D01*
X142890497Y-66629833D01*
X142890499Y-66629834D01*
X142964733Y-66644600D01*
X144614866Y-66644599D01*
X144614869Y-66644598D01*
X144614873Y-66644598D01*
X144664126Y-66634801D01*
X144689101Y-66629834D01*
X144773284Y-66573584D01*
X144829534Y-66489401D01*
X144844300Y-66415167D01*
X144844299Y-64765034D01*
X144844299Y-64765033D01*
X144844299Y-64765031D01*
X144844299Y-64765030D01*
X145275300Y-64765030D01*
X145275300Y-66415163D01*
X145275301Y-66415173D01*
X145290065Y-66489400D01*
X145346316Y-66573584D01*
X145430497Y-66629833D01*
X145430499Y-66629834D01*
X145504733Y-66644600D01*
X147154866Y-66644599D01*
X147154869Y-66644598D01*
X147154873Y-66644598D01*
X147204126Y-66634801D01*
X147229101Y-66629834D01*
X147313284Y-66573584D01*
X147369534Y-66489401D01*
X147384300Y-66415167D01*
X147384299Y-64765034D01*
X147384299Y-64765033D01*
X147384299Y-64765031D01*
X147384299Y-64765030D01*
X147815300Y-64765030D01*
X147815300Y-66415163D01*
X147815301Y-66415173D01*
X147830065Y-66489400D01*
X147886316Y-66573584D01*
X147970497Y-66629833D01*
X147970499Y-66629834D01*
X148044733Y-66644600D01*
X149694866Y-66644599D01*
X149694869Y-66644598D01*
X149694873Y-66644598D01*
X149744126Y-66634801D01*
X149769101Y-66629834D01*
X149853284Y-66573584D01*
X149909534Y-66489401D01*
X149924300Y-66415167D01*
X149924299Y-64765034D01*
X149924299Y-64765033D01*
X149924299Y-64765031D01*
X149924299Y-64765030D01*
X150355300Y-64765030D01*
X150355300Y-66415163D01*
X150355301Y-66415173D01*
X150370065Y-66489400D01*
X150426316Y-66573584D01*
X150510497Y-66629833D01*
X150510499Y-66629834D01*
X150584733Y-66644600D01*
X152234866Y-66644599D01*
X152234869Y-66644598D01*
X152234873Y-66644598D01*
X152284126Y-66634801D01*
X152309101Y-66629834D01*
X152393284Y-66573584D01*
X152449534Y-66489401D01*
X152464300Y-66415167D01*
X152464299Y-64765034D01*
X152464299Y-64765033D01*
X152464299Y-64765031D01*
X152464299Y-64765030D01*
X155435300Y-64765030D01*
X155435300Y-66415163D01*
X155435301Y-66415173D01*
X155450065Y-66489400D01*
X155506316Y-66573584D01*
X155590497Y-66629833D01*
X155590499Y-66629834D01*
X155664733Y-66644600D01*
X157314866Y-66644599D01*
X157314869Y-66644598D01*
X157314873Y-66644598D01*
X157364126Y-66634801D01*
X157389101Y-66629834D01*
X157473284Y-66573584D01*
X157529534Y-66489401D01*
X157544300Y-66415167D01*
X157544299Y-64765034D01*
X157544298Y-64765031D01*
X157544298Y-64765026D01*
X157529534Y-64690799D01*
X157473283Y-64606615D01*
X157389102Y-64550366D01*
X157314867Y-64535600D01*
X155664736Y-64535600D01*
X155664726Y-64535601D01*
X155590499Y-64550365D01*
X155506315Y-64606616D01*
X155450066Y-64690797D01*
X155435300Y-64765030D01*
X152464299Y-64765030D01*
X152449534Y-64690799D01*
X152393283Y-64606615D01*
X152309102Y-64550366D01*
X152234867Y-64535600D01*
X150584736Y-64535600D01*
X150584726Y-64535601D01*
X150510499Y-64550365D01*
X150426315Y-64606616D01*
X150370066Y-64690797D01*
X150355300Y-64765030D01*
X149924299Y-64765030D01*
X149909534Y-64690799D01*
X149853283Y-64606615D01*
X149769102Y-64550366D01*
X149694867Y-64535600D01*
X148044736Y-64535600D01*
X148044726Y-64535601D01*
X147970499Y-64550365D01*
X147886315Y-64606616D01*
X147830066Y-64690797D01*
X147815300Y-64765030D01*
X147384299Y-64765030D01*
X147369534Y-64690799D01*
X147313283Y-64606615D01*
X147229102Y-64550366D01*
X147154867Y-64535600D01*
X145504736Y-64535600D01*
X145504726Y-64535601D01*
X145430499Y-64550365D01*
X145346315Y-64606616D01*
X145290066Y-64690797D01*
X145275300Y-64765030D01*
X144844299Y-64765030D01*
X144829534Y-64690799D01*
X144773283Y-64606615D01*
X144689102Y-64550366D01*
X144614867Y-64535600D01*
X142964736Y-64535600D01*
X142964726Y-64535601D01*
X142890499Y-64550365D01*
X142806315Y-64606616D01*
X142750066Y-64690797D01*
X142735300Y-64765030D01*
X142304299Y-64765030D01*
X142289534Y-64690799D01*
X142233283Y-64606615D01*
X142149102Y-64550366D01*
X142074867Y-64535600D01*
X140424736Y-64535600D01*
X140424726Y-64535601D01*
X140350499Y-64550365D01*
X140266315Y-64606616D01*
X140210066Y-64690797D01*
X140195300Y-64765030D01*
X140195300Y-66415163D01*
X140195301Y-66415173D01*
X140210065Y-66489400D01*
X140266316Y-66573584D01*
X140350497Y-66629833D01*
X140350499Y-66629834D01*
X140424733Y-66644600D01*
X140742100Y-66644599D01*
X140810220Y-66664601D01*
X140856713Y-66718256D01*
X140868100Y-66770599D01*
X140868100Y-66939887D01*
X140848098Y-67008008D01*
X140831195Y-67028982D01*
X138479282Y-69380895D01*
X138416970Y-69414921D01*
X138390187Y-69417800D01*
X135257259Y-69417800D01*
X135257243Y-69417799D01*
X135249525Y-69417799D01*
X135149075Y-69417799D01*
X135100561Y-69430798D01*
X135052045Y-69443798D01*
X135015279Y-69465026D01*
X134965056Y-69494021D01*
X134965051Y-69494025D01*
X134929538Y-69529539D01*
X134894024Y-69565053D01*
X134894022Y-69565055D01*
X134443256Y-70015821D01*
X133347130Y-71111946D01*
X133347128Y-71111948D01*
X133293829Y-71165246D01*
X133293821Y-71165256D01*
X133243600Y-71252241D01*
X133217600Y-71349276D01*
X133217600Y-74191588D01*
X133197598Y-74259709D01*
X133180696Y-74280683D01*
X129346896Y-78114551D01*
X129284584Y-78148576D01*
X129213769Y-78143512D01*
X129156932Y-78100966D01*
X129132121Y-78034446D01*
X129131800Y-78025456D01*
X129131800Y-74390599D01*
X129151802Y-74322478D01*
X129205458Y-74275985D01*
X129257800Y-74264599D01*
X129575164Y-74264599D01*
X129575166Y-74264599D01*
X129575169Y-74264598D01*
X129575172Y-74264598D01*
X129611763Y-74257319D01*
X129649401Y-74249834D01*
X129733584Y-74193584D01*
X129789834Y-74109401D01*
X129804600Y-74035167D01*
X129804599Y-72385034D01*
X129804599Y-72385033D01*
X129804599Y-72385031D01*
X129804599Y-72385030D01*
X130235600Y-72385030D01*
X130235600Y-74035163D01*
X130235601Y-74035173D01*
X130250365Y-74109400D01*
X130306616Y-74193584D01*
X130390797Y-74249833D01*
X130390799Y-74249834D01*
X130465033Y-74264600D01*
X132115166Y-74264599D01*
X132115169Y-74264598D01*
X132115173Y-74264598D01*
X132164426Y-74254801D01*
X132189401Y-74249834D01*
X132273584Y-74193584D01*
X132329834Y-74109401D01*
X132344600Y-74035167D01*
X132344599Y-72385034D01*
X132344598Y-72385031D01*
X132344598Y-72385026D01*
X132329834Y-72310799D01*
X132273583Y-72226615D01*
X132189402Y-72170366D01*
X132115167Y-72155600D01*
X130465036Y-72155600D01*
X130465026Y-72155601D01*
X130390799Y-72170365D01*
X130306615Y-72226616D01*
X130250366Y-72310797D01*
X130235600Y-72385030D01*
X129804599Y-72385030D01*
X129789834Y-72310799D01*
X129733583Y-72226615D01*
X129649402Y-72170366D01*
X129575167Y-72155600D01*
X127925036Y-72155600D01*
X127925026Y-72155601D01*
X127850799Y-72170365D01*
X127766615Y-72226616D01*
X127710366Y-72310797D01*
X127695600Y-72385030D01*
X127695600Y-74035163D01*
X127695601Y-74035173D01*
X127710365Y-74109400D01*
X127766616Y-74193584D01*
X127850797Y-74249833D01*
X127850799Y-74249834D01*
X127925033Y-74264600D01*
X128242800Y-74264599D01*
X128310920Y-74284601D01*
X128357413Y-74338256D01*
X128368800Y-74390599D01*
X128368800Y-78039679D01*
X128348798Y-78107800D01*
X128331893Y-78128777D01*
X126806893Y-79653700D01*
X126744580Y-79687723D01*
X126673765Y-79682657D01*
X126616930Y-79640108D01*
X126592121Y-79573588D01*
X126591800Y-79564602D01*
X126591800Y-74390599D01*
X126611802Y-74322478D01*
X126665458Y-74275985D01*
X126717800Y-74264599D01*
X127035164Y-74264599D01*
X127035166Y-74264599D01*
X127035169Y-74264598D01*
X127035172Y-74264598D01*
X127071763Y-74257319D01*
X127109401Y-74249834D01*
X127193584Y-74193584D01*
X127249834Y-74109401D01*
X127264600Y-74035167D01*
X127264599Y-72385034D01*
X127264598Y-72385031D01*
X127264598Y-72385026D01*
X127249834Y-72310799D01*
X127193583Y-72226615D01*
X127109402Y-72170366D01*
X127035167Y-72155600D01*
X125385036Y-72155600D01*
X125385026Y-72155601D01*
X125310799Y-72170365D01*
X125226615Y-72226616D01*
X125170366Y-72310797D01*
X125155600Y-72385030D01*
X125155600Y-74035163D01*
X125155601Y-74035173D01*
X125170365Y-74109400D01*
X125226616Y-74193584D01*
X125310797Y-74249833D01*
X125310799Y-74249834D01*
X125385033Y-74264600D01*
X125702800Y-74264599D01*
X125770920Y-74284601D01*
X125817413Y-74338256D01*
X125828800Y-74390599D01*
X125828800Y-80735687D01*
X125808798Y-80803808D01*
X125755142Y-80850301D01*
X125684868Y-80860405D01*
X125620288Y-80830911D01*
X125613705Y-80824782D01*
X124088405Y-79299482D01*
X124054379Y-79237170D01*
X124051500Y-79210387D01*
X124051500Y-74390599D01*
X124071502Y-74322478D01*
X124125158Y-74275985D01*
X124177500Y-74264599D01*
X124495164Y-74264599D01*
X124495166Y-74264599D01*
X124495169Y-74264598D01*
X124495172Y-74264598D01*
X124531763Y-74257319D01*
X124569401Y-74249834D01*
X124653584Y-74193584D01*
X124709834Y-74109401D01*
X124724600Y-74035167D01*
X124724599Y-72385034D01*
X124724598Y-72385031D01*
X124724598Y-72385026D01*
X124709834Y-72310799D01*
X124653583Y-72226615D01*
X124569402Y-72170366D01*
X124495167Y-72155600D01*
X122845036Y-72155600D01*
X122845026Y-72155601D01*
X122770799Y-72170365D01*
X122686615Y-72226616D01*
X122630366Y-72310797D01*
X122615600Y-72385030D01*
X122615600Y-74035163D01*
X122615601Y-74035173D01*
X122630365Y-74109400D01*
X122686616Y-74193584D01*
X122770797Y-74249833D01*
X122770799Y-74249834D01*
X122845033Y-74264600D01*
X123162500Y-74264599D01*
X123230620Y-74284601D01*
X123277113Y-74338256D01*
X123288500Y-74390599D01*
X123288500Y-78944587D01*
X123268498Y-79012708D01*
X123214842Y-79059201D01*
X123144568Y-79069305D01*
X123079988Y-79039811D01*
X123073405Y-79033682D01*
X121548405Y-77508682D01*
X121514379Y-77446370D01*
X121511500Y-77419587D01*
X121511500Y-74390599D01*
X121531502Y-74322478D01*
X121585158Y-74275985D01*
X121637500Y-74264599D01*
X121955164Y-74264599D01*
X121955166Y-74264599D01*
X121955169Y-74264598D01*
X121955172Y-74264598D01*
X121991763Y-74257319D01*
X122029401Y-74249834D01*
X122113584Y-74193584D01*
X122169834Y-74109401D01*
X122184600Y-74035167D01*
X122184599Y-72385034D01*
X122184598Y-72385031D01*
X122184598Y-72385026D01*
X122169834Y-72310799D01*
X122113583Y-72226615D01*
X122029402Y-72170366D01*
X121955167Y-72155600D01*
X120305036Y-72155600D01*
X120305026Y-72155601D01*
X120230799Y-72170365D01*
X120146615Y-72226616D01*
X120090366Y-72310797D01*
X120075600Y-72385030D01*
X120075600Y-74035163D01*
X120075601Y-74035173D01*
X120090365Y-74109400D01*
X120146616Y-74193584D01*
X120230797Y-74249833D01*
X120230799Y-74249834D01*
X120305033Y-74264600D01*
X120622500Y-74264599D01*
X120690620Y-74284601D01*
X120737113Y-74338256D01*
X120748500Y-74390599D01*
X120748500Y-77153887D01*
X120728498Y-77222008D01*
X120674842Y-77268501D01*
X120604568Y-77278605D01*
X120539988Y-77249111D01*
X120533405Y-77242982D01*
X119008705Y-75718282D01*
X118974679Y-75655970D01*
X118971800Y-75629187D01*
X118971800Y-74390599D01*
X118991802Y-74322478D01*
X119045458Y-74275985D01*
X119097800Y-74264599D01*
X119415164Y-74264599D01*
X119415166Y-74264599D01*
X119415169Y-74264598D01*
X119415172Y-74264598D01*
X119451763Y-74257319D01*
X119489401Y-74249834D01*
X119573584Y-74193584D01*
X119629834Y-74109401D01*
X119644600Y-74035167D01*
X119644599Y-72385034D01*
X119644598Y-72385031D01*
X119644598Y-72385026D01*
X119629834Y-72310799D01*
X119573583Y-72226615D01*
X119489402Y-72170366D01*
X119415167Y-72155600D01*
X117765036Y-72155600D01*
X117765026Y-72155601D01*
X117690799Y-72170365D01*
X117606615Y-72226616D01*
X117550366Y-72310797D01*
X117535600Y-72385030D01*
X117535600Y-74035163D01*
X117535601Y-74035173D01*
X117550365Y-74109400D01*
X117606616Y-74193584D01*
X117690797Y-74249833D01*
X117690799Y-74249834D01*
X117765033Y-74264600D01*
X118082800Y-74264599D01*
X118150920Y-74284601D01*
X118197413Y-74338256D01*
X118208800Y-74390599D01*
X118208800Y-75889623D01*
X118208799Y-75889623D01*
X118234800Y-75986656D01*
X118274706Y-76055776D01*
X118274707Y-76055778D01*
X118285022Y-76073646D01*
X118285024Y-76073648D01*
X119364282Y-77152905D01*
X119398307Y-77215217D01*
X119393243Y-77286032D01*
X119350696Y-77342868D01*
X119284176Y-77367679D01*
X119275187Y-77368000D01*
X119158746Y-77368000D01*
X119090625Y-77347998D01*
X119069611Y-77331055D01*
X119024628Y-77286032D01*
X116989823Y-75249400D01*
X116468665Y-74727774D01*
X116434667Y-74665447D01*
X116431800Y-74638719D01*
X116431800Y-74390599D01*
X116451802Y-74322478D01*
X116505458Y-74275985D01*
X116557800Y-74264599D01*
X116875164Y-74264599D01*
X116875166Y-74264599D01*
X116875169Y-74264598D01*
X116875172Y-74264598D01*
X116911763Y-74257319D01*
X116949401Y-74249834D01*
X117033584Y-74193584D01*
X117089834Y-74109401D01*
X117104600Y-74035167D01*
X117104599Y-72385034D01*
X117104598Y-72385031D01*
X117104598Y-72385026D01*
X117089834Y-72310799D01*
X117033583Y-72226615D01*
X116949402Y-72170366D01*
X116875167Y-72155600D01*
X115225036Y-72155600D01*
X115225026Y-72155601D01*
X115150799Y-72170365D01*
X115066615Y-72226616D01*
X115010366Y-72310797D01*
X114995600Y-72385030D01*
X114995600Y-73852107D01*
X114975598Y-73920228D01*
X114921942Y-73966721D01*
X114851668Y-73976825D01*
X114787088Y-73947331D01*
X114780504Y-73941201D01*
X114601503Y-73762196D01*
X114567478Y-73699884D01*
X114564599Y-73673102D01*
X114564599Y-72385036D01*
X114564598Y-72385027D01*
X114549834Y-72310799D01*
X114493583Y-72226615D01*
X114409402Y-72170366D01*
X114335169Y-72155600D01*
X112707100Y-72155600D01*
X112638979Y-72135598D01*
X112592486Y-72081942D01*
X112581100Y-72029600D01*
X112581100Y-69648913D01*
X112601102Y-69580792D01*
X112618031Y-69559791D01*
X115498294Y-66681472D01*
X115560617Y-66647469D01*
X115587359Y-66644599D01*
X116875164Y-66644599D01*
X116875166Y-66644599D01*
X116875169Y-66644598D01*
X116875172Y-66644598D01*
X116911763Y-66637319D01*
X116949401Y-66629834D01*
X117033584Y-66573584D01*
X117089834Y-66489401D01*
X117104600Y-66415167D01*
X117104599Y-64765034D01*
X117104599Y-64765033D01*
X117104599Y-64765031D01*
X117104599Y-64765030D01*
X117535600Y-64765030D01*
X117535600Y-66415163D01*
X117535601Y-66415173D01*
X117550365Y-66489400D01*
X117606616Y-66573584D01*
X117690797Y-66629833D01*
X117690799Y-66629834D01*
X117765033Y-66644600D01*
X119415166Y-66644599D01*
X119415169Y-66644598D01*
X119415173Y-66644598D01*
X119464426Y-66634801D01*
X119489401Y-66629834D01*
X119573584Y-66573584D01*
X119629834Y-66489401D01*
X119644600Y-66415167D01*
X119644599Y-64765034D01*
X119644599Y-64765033D01*
X119644599Y-64765031D01*
X119644599Y-64765030D01*
X120075600Y-64765030D01*
X120075600Y-66415163D01*
X120075601Y-66415173D01*
X120090365Y-66489400D01*
X120146616Y-66573584D01*
X120230797Y-66629833D01*
X120230799Y-66629834D01*
X120305033Y-66644600D01*
X121955166Y-66644599D01*
X121955169Y-66644598D01*
X121955173Y-66644598D01*
X122004426Y-66634801D01*
X122029401Y-66629834D01*
X122113584Y-66573584D01*
X122169834Y-66489401D01*
X122184600Y-66415167D01*
X122184599Y-64765034D01*
X122184599Y-64765033D01*
X122184599Y-64765031D01*
X122184599Y-64765030D01*
X122615600Y-64765030D01*
X122615600Y-66415163D01*
X122615601Y-66415173D01*
X122630365Y-66489400D01*
X122686616Y-66573584D01*
X122770797Y-66629833D01*
X122770799Y-66629834D01*
X122845033Y-66644600D01*
X124495166Y-66644599D01*
X124495169Y-66644598D01*
X124495173Y-66644598D01*
X124544426Y-66634801D01*
X124569401Y-66629834D01*
X124653584Y-66573584D01*
X124709834Y-66489401D01*
X124724600Y-66415167D01*
X124724599Y-64765034D01*
X124724599Y-64765033D01*
X124724599Y-64765031D01*
X124724599Y-64765030D01*
X125155600Y-64765030D01*
X125155600Y-66415163D01*
X125155601Y-66415173D01*
X125170365Y-66489400D01*
X125226616Y-66573584D01*
X125310797Y-66629833D01*
X125310799Y-66629834D01*
X125385033Y-66644600D01*
X127035166Y-66644599D01*
X127035169Y-66644598D01*
X127035173Y-66644598D01*
X127084426Y-66634801D01*
X127109401Y-66629834D01*
X127193584Y-66573584D01*
X127249834Y-66489401D01*
X127264600Y-66415167D01*
X127264599Y-64765034D01*
X127264599Y-64765033D01*
X127264599Y-64765031D01*
X127264599Y-64765030D01*
X130235600Y-64765030D01*
X130235600Y-66415163D01*
X130235601Y-66415173D01*
X130250365Y-66489400D01*
X130306616Y-66573584D01*
X130390797Y-66629833D01*
X130390799Y-66629834D01*
X130465033Y-66644600D01*
X132115166Y-66644599D01*
X132115169Y-66644598D01*
X132115173Y-66644598D01*
X132164426Y-66634801D01*
X132189401Y-66629834D01*
X132273584Y-66573584D01*
X132329834Y-66489401D01*
X132344600Y-66415167D01*
X132344599Y-64765034D01*
X132344598Y-64765031D01*
X132344598Y-64765026D01*
X132329834Y-64690799D01*
X132273583Y-64606615D01*
X132189402Y-64550366D01*
X132115167Y-64535600D01*
X130465036Y-64535600D01*
X130465026Y-64535601D01*
X130390799Y-64550365D01*
X130306615Y-64606616D01*
X130250366Y-64690797D01*
X130235600Y-64765030D01*
X127264599Y-64765030D01*
X127249834Y-64690799D01*
X127193583Y-64606615D01*
X127109402Y-64550366D01*
X127035167Y-64535600D01*
X125385036Y-64535600D01*
X125385026Y-64535601D01*
X125310799Y-64550365D01*
X125226615Y-64606616D01*
X125170366Y-64690797D01*
X125155600Y-64765030D01*
X124724599Y-64765030D01*
X124709834Y-64690799D01*
X124653583Y-64606615D01*
X124569402Y-64550366D01*
X124495167Y-64535600D01*
X122845036Y-64535600D01*
X122845026Y-64535601D01*
X122770799Y-64550365D01*
X122686615Y-64606616D01*
X122630366Y-64690797D01*
X122615600Y-64765030D01*
X122184599Y-64765030D01*
X122169834Y-64690799D01*
X122113583Y-64606615D01*
X122029402Y-64550366D01*
X121955167Y-64535600D01*
X120305036Y-64535600D01*
X120305026Y-64535601D01*
X120230799Y-64550365D01*
X120146615Y-64606616D01*
X120090366Y-64690797D01*
X120075600Y-64765030D01*
X119644599Y-64765030D01*
X119629834Y-64690799D01*
X119573583Y-64606615D01*
X119489402Y-64550366D01*
X119415167Y-64535600D01*
X117765036Y-64535600D01*
X117765026Y-64535601D01*
X117690799Y-64550365D01*
X117606615Y-64606616D01*
X117550366Y-64690797D01*
X117535600Y-64765030D01*
X117104599Y-64765030D01*
X117089834Y-64690799D01*
X117033583Y-64606615D01*
X116949402Y-64550366D01*
X116875167Y-64535600D01*
X115225036Y-64535600D01*
X115225026Y-64535601D01*
X115150799Y-64550365D01*
X115066615Y-64606616D01*
X115010366Y-64690797D01*
X114995600Y-64765030D01*
X114995600Y-66052930D01*
X114975598Y-66121051D01*
X114958665Y-66142056D01*
X111971082Y-69127620D01*
X111970858Y-69127818D01*
X111929947Y-69168729D01*
X111894380Y-69204273D01*
X111894338Y-69204327D01*
X111869403Y-69247516D01*
X111869384Y-69247549D01*
X111844116Y-69291281D01*
X111831313Y-69339064D01*
X111831302Y-69339105D01*
X111818100Y-69388308D01*
X111818100Y-69438514D01*
X111818080Y-69496826D01*
X101210988Y-69496826D01*
X110170409Y-60537405D01*
X110232721Y-60503379D01*
X110259504Y-60500500D01*
X189740297Y-60500500D01*
X189808418Y-60520502D01*
G37*
%TD.AperFunction*%
%TD*%
M02*
