%TF.GenerationSoftware,KiCad,Pcbnew,10.0.6*%
%TF.CreationDate,2026-09-23T18:15:49+08:00*%
%TF.ProjectId,Utility_Time_Module,5574696c-6974-4795-9f54-696d655f4d6f,1.7.1*%
%TF.SameCoordinates,Original*%
%TF.FileFunction,Soldermask,Top*%
%TF.FilePolarity,Negative*%
%FSLAX46Y46*%
G04 Gerber Fmt 4.6, Leading zero omitted, Abs format (unit mm)*
G04 Created by KiCad (PCBNEW 10.0.6) date 2026-09-23 18:15:49*
%MOMM*%
%LPD*%
G01*
G04 APERTURE LIST*
G04 Aperture macros list*
%AMRoundRect*
0 Rectangle with rounded corners*
0 $1 Rounding radius*
0 $2 $3 $4 $5 $6 $7 $8 $9 X,Y pos of 4 corners*
0 Add a 4 corners polygon primitive as box body*
4,1,4,$2,$3,$4,$5,$6,$7,$8,$9,$2,$3,0*
0 Add four circle primitives for the rounded corners*
1,1,$1+$1,$2,$3*
1,1,$1+$1,$4,$5*
1,1,$1+$1,$6,$7*
1,1,$1+$1,$8,$9*
0 Add four rect primitives between the rounded corners*
20,1,$1+$1,$2,$3,$4,$5,0*
20,1,$1+$1,$4,$5,$6,$7,0*
20,1,$1+$1,$6,$7,$8,$9,0*
20,1,$1+$1,$8,$9,$2,$3,0*%
G04 Aperture macros list end*
%ADD10RoundRect,0.050800X0.800000X-0.800000X0.800000X0.800000X-0.800000X0.800000X-0.800000X-0.800000X0*%
%ADD11RoundRect,0.101600X0.762000X0.762000X-0.762000X0.762000X-0.762000X-0.762000X0.762000X-0.762000X0*%
%ADD12RoundRect,0.101600X-0.762000X-0.762000X0.762000X-0.762000X0.762000X0.762000X-0.762000X0.762000X0*%
%ADD13RoundRect,0.101600X-0.762000X0.762000X-0.762000X-0.762000X0.762000X-0.762000X0.762000X0.762000X0*%
%ADD14RoundRect,0.101600X0.762000X-0.762000X0.762000X0.762000X-0.762000X0.762000X-0.762000X-0.762000X0*%
%ADD15RoundRect,0.050800X0.900000X-0.900000X0.900000X0.900000X-0.900000X0.900000X-0.900000X-0.900000X0*%
%ADD16RoundRect,0.101600X-0.499950X0.500000X-0.499950X-0.500000X0.499950X-0.500000X0.499950X0.500000X0*%
%ADD17RoundRect,0.101600X-0.650000X0.650000X-0.650000X-0.650000X0.650000X-0.650000X0.650000X0.650000X0*%
%ADD18RoundRect,0.101600X-0.500000X0.500000X-0.500000X-0.500000X0.500000X-0.500000X0.500000X0.500000X0*%
%ADD19RoundRect,0.101600X-0.650050X0.650000X-0.650050X-0.650000X0.650050X-0.650000X0.650050X0.650000X0*%
G04 APERTURE END LIST*
D10*
%TO.C,U6*%
X113510100Y-73210100D03*
X116050100Y-73210100D03*
X118590100Y-73210100D03*
X121130100Y-73210100D03*
X123670100Y-73210100D03*
X126210100Y-73210100D03*
X128750100Y-73210100D03*
X131290100Y-73210100D03*
X131290100Y-65590100D03*
X128750100Y-65590100D03*
X126210100Y-65590100D03*
X123670100Y-65590100D03*
X121130100Y-65590100D03*
X118590100Y-65590100D03*
X116050100Y-65590100D03*
X113510100Y-65590100D03*
%TD*%
D11*
%TO.C,C-MAIN*%
X165270100Y-72500100D03*
X162730100Y-72500100D03*
%TD*%
D12*
%TO.C,TP_EVA2*%
X170000100Y-86500100D03*
%TD*%
D13*
%TO.C,R12*%
X129338800Y-103326000D03*
X119178800Y-103326000D03*
%TD*%
D14*
%TO.C,C1*%
X187750400Y-103493400D03*
X182750400Y-103493400D03*
%TD*%
D15*
%TO.C,U2*%
X167189900Y-114309800D03*
X169729900Y-114309800D03*
X172269900Y-114309800D03*
X174809900Y-114309800D03*
X174809900Y-106689800D03*
X172269900Y-106689800D03*
X169729900Y-106689800D03*
X167189900Y-106689800D03*
%TD*%
D12*
%TO.C,C5*%
X135256400Y-72250400D03*
X135256400Y-67250500D03*
%TD*%
%TO.C,TP_+5V*%
X147999700Y-128500000D03*
%TD*%
D13*
%TO.C,R7*%
X167088500Y-143076300D03*
X156928500Y-143076300D03*
%TD*%
%TO.C,R15*%
X129338800Y-95826200D03*
X119178800Y-95826200D03*
%TD*%
D12*
%TO.C,TP_EVA4*%
X122000000Y-128999900D03*
%TD*%
D14*
%TO.C,C2*%
X172750700Y-103493400D03*
X167750700Y-103493400D03*
%TD*%
D13*
%TO.C,R18*%
X129338800Y-88326100D03*
X119178800Y-88326100D03*
%TD*%
D16*
%TO.C,WP15*%
X185999800Y-72500100D03*
%TD*%
D12*
%TO.C,C6*%
X110056600Y-72450300D03*
X110056600Y-67450400D03*
%TD*%
D17*
%TO.C,WP2*%
X185999800Y-74500100D03*
%TD*%
D16*
%TO.C,WP14*%
X183999800Y-72500100D03*
%TD*%
D13*
%TO.C,R4*%
X118838700Y-134076300D03*
X108678700Y-134076300D03*
%TD*%
%TO.C,R6*%
X145088500Y-143076300D03*
X134928500Y-143076300D03*
%TD*%
%TO.C,R2*%
X166838800Y-82826200D03*
X156678800Y-82826200D03*
%TD*%
%TO.C,R19*%
X129338800Y-85826200D03*
X119178800Y-85826200D03*
%TD*%
D17*
%TO.C,WP3*%
X183999800Y-74500100D03*
%TD*%
D12*
%TO.C,TP_EVA1*%
X192000100Y-86500100D03*
%TD*%
D13*
%TO.C,R3*%
X145088800Y-82826200D03*
X134928800Y-82826200D03*
%TD*%
D12*
%TO.C,TP_+5V*%
X122000000Y-119500000D03*
%TD*%
%TO.C,TP_T1*%
X147999700Y-138000100D03*
%TD*%
D10*
%TO.C,U3*%
X140109900Y-114610000D03*
X142649900Y-114610000D03*
X145189900Y-114610000D03*
X147729900Y-114610000D03*
X150269900Y-114610000D03*
X152809900Y-114610000D03*
X155349900Y-114610000D03*
X157889900Y-114610000D03*
X157889900Y-106990000D03*
X155349900Y-106990000D03*
X152809900Y-106990000D03*
X150269900Y-106990000D03*
X147729900Y-106990000D03*
X145189900Y-106990000D03*
X142649900Y-106990000D03*
X140109900Y-106990000D03*
%TD*%
D12*
%TO.C,LED*%
X108519900Y-80531600D03*
X108519900Y-83071600D03*
X108519900Y-85611600D03*
X108519900Y-88151600D03*
X108519900Y-90691600D03*
X108519900Y-93231600D03*
X108519900Y-95771600D03*
X108519900Y-98311600D03*
X108519900Y-100851600D03*
X108519900Y-103391600D03*
X116139900Y-80531600D03*
X116139900Y-83071600D03*
X116139900Y-85611600D03*
X116139900Y-88151600D03*
X116139900Y-90691600D03*
X116139900Y-93231600D03*
X116139900Y-95771600D03*
X116139900Y-98311600D03*
X116139900Y-100851600D03*
X116139900Y-103391600D03*
%TD*%
D13*
%TO.C,R1*%
X188838800Y-82826200D03*
X178678800Y-82826200D03*
%TD*%
D15*
%TO.C,U1*%
X182189800Y-114310100D03*
X184729800Y-114310100D03*
X187269800Y-114310100D03*
X189809800Y-114310100D03*
X189809800Y-106690100D03*
X187269800Y-106690100D03*
X184729800Y-106690100D03*
X182189800Y-106690100D03*
%TD*%
D10*
%TO.C,U5*%
X138709800Y-73210100D03*
X141249800Y-73210100D03*
X143789800Y-73210100D03*
X146329800Y-73210100D03*
X148869800Y-73210100D03*
X151409800Y-73210100D03*
X153949800Y-73210100D03*
X156489800Y-73210100D03*
X156489800Y-65590100D03*
X153949800Y-65590100D03*
X151409800Y-65590100D03*
X148869800Y-65590100D03*
X146329800Y-65590100D03*
X143789800Y-65590100D03*
X141249800Y-65590100D03*
X138709800Y-65590100D03*
%TD*%
D12*
%TO.C,TP_+5V*%
X191999800Y-128500000D03*
%TD*%
D16*
%TO.C,WP6*%
X177999800Y-74500100D03*
%TD*%
D13*
%TO.C,R21*%
X129338800Y-80826200D03*
X119178800Y-80826200D03*
%TD*%
D12*
%TO.C,TP_+5V*%
X169999900Y-128500000D03*
%TD*%
D18*
%TO.C,WP9*%
X173999900Y-72500100D03*
%TD*%
D12*
%TO.C,TP_+5V*%
X147999900Y-95999900D03*
%TD*%
D19*
%TO.C,WP7*%
X175999800Y-74500100D03*
%TD*%
D18*
%TO.C,WP10*%
X175999900Y-72500100D03*
%TD*%
D13*
%TO.C,R8*%
X189088500Y-143076300D03*
X178928500Y-143076300D03*
%TD*%
D17*
%TO.C,WP1*%
X187999800Y-74500100D03*
%TD*%
D16*
%TO.C,WP16*%
X187999800Y-72500100D03*
%TD*%
%TO.C,WP5*%
X179999800Y-74500100D03*
%TD*%
D12*
%TO.C,TP_T2*%
X169999900Y-138000100D03*
%TD*%
D13*
%TO.C,R20*%
X129338800Y-83326100D03*
X119178800Y-83326100D03*
%TD*%
D12*
%TO.C,TP_+5V*%
X170000100Y-95999900D03*
%TD*%
D13*
%TO.C,R14*%
X129338800Y-98326000D03*
X119178800Y-98326000D03*
%TD*%
D12*
%TO.C,TP_EVA3*%
X147999900Y-86500100D03*
%TD*%
%TO.C,TP_T3*%
X191999800Y-138000100D03*
%TD*%
D18*
%TO.C,WP11*%
X177999900Y-72500100D03*
%TD*%
D19*
%TO.C,WP8*%
X173999800Y-74500100D03*
%TD*%
D13*
%TO.C,R13*%
X129338800Y-100826200D03*
X119178800Y-100826200D03*
%TD*%
D16*
%TO.C,WP13*%
X181999800Y-72500100D03*
%TD*%
D13*
%TO.C,R16*%
X129338800Y-93326100D03*
X119178800Y-93326100D03*
%TD*%
%TO.C,R17*%
X129338800Y-90826200D03*
X119178800Y-90826200D03*
%TD*%
D18*
%TO.C,WP4*%
X181999800Y-74500100D03*
%TD*%
D12*
%TO.C,TP_+5V*%
X192000100Y-95999900D03*
%TD*%
%TO.C,TP_EVA5*%
X122000000Y-147749900D03*
%TD*%
%TO.C,TP_+5V*%
X122000000Y-138250000D03*
%TD*%
D13*
%TO.C,R5*%
X118588700Y-152576400D03*
X108428700Y-152576400D03*
%TD*%
D12*
%TO.C,C3*%
X136656500Y-113650100D03*
X136656500Y-108650100D03*
%TD*%
D18*
%TO.C,WP12*%
X179999900Y-72500100D03*
%TD*%
M02*
