M48
; DRILL file KiCad 10.0.6 date 2026-09-23T17:37:49
; FORMAT={-:-/ absolute / metric / decimal}
; #@! TF.CreationDate,2026-09-23T17:37:49+08:00
; #@! TF.GenerationSoftware,Kicad,Pcbnew,10.0.6
; #@! TF.FileFunction,Plated,1,2,PTH
FMAT,2
METRIC
; #@! TA.AperFunction,Plated,PTH,ViaDrill
T1C0.305
; #@! TA.AperFunction,Plated,PTH,ComponentDrill
T2C0.670
; #@! TA.AperFunction,Plated,PTH,ComponentDrill
T3C0.914
; #@! TA.AperFunction,Plated,PTH,ComponentDrill
T4C1.000
; #@! TA.AperFunction,Plated,PTH,ComponentDrill
T5C1.100
%
G90
G05
T1
X100.625Y-105.0
X100.625Y-114.998
X146.0Y-102.0
X163.5Y-101.0
X165.75Y-102.0
X195.5Y-82.25
X199.5Y-105.002
X199.5Y-115.0
T2
X174.0Y-74.5
X174.0Y-72.5
X176.0Y-74.5
X176.0Y-72.5
X178.0Y-74.5
X178.0Y-72.5
X180.0Y-74.5
X180.0Y-72.5
X182.0Y-72.5
X182.0Y-74.5
X184.0Y-72.5
X184.0Y-74.5
X186.0Y-72.5
X186.0Y-74.5
X188.0Y-72.5
X188.0Y-74.5
T3
X108.429Y-152.576
X108.52Y-80.532
X108.52Y-83.072
X108.52Y-85.612
X108.52Y-88.152
X108.52Y-90.692
X108.52Y-93.232
X108.52Y-95.772
X108.52Y-98.312
X108.52Y-100.852
X108.52Y-103.392
X108.679Y-134.076
X110.057Y-67.45
X110.057Y-72.45
X116.14Y-80.532
X116.14Y-83.072
X116.14Y-85.612
X116.14Y-88.152
X116.14Y-90.692
X116.14Y-93.232
X116.14Y-95.772
X116.14Y-98.312
X116.14Y-100.852
X116.14Y-103.392
X118.589Y-152.576
X118.839Y-134.076
X119.179Y-80.826
X119.179Y-83.326
X119.179Y-85.826
X119.179Y-88.326
X119.179Y-90.826
X119.179Y-93.326
X119.179Y-95.826
X119.179Y-98.326
X119.179Y-100.826
X119.179Y-103.326
X122.0Y-119.5
X122.0Y-129.0
X122.0Y-138.25
X122.0Y-147.75
X129.339Y-80.826
X129.339Y-83.326
X129.339Y-85.826
X129.339Y-88.326
X129.339Y-90.826
X129.339Y-93.326
X129.339Y-95.826
X129.339Y-98.326
X129.339Y-100.826
X129.339Y-103.326
X134.929Y-82.826
X135.256Y-67.251
X135.256Y-72.25
X136.656Y-108.65
X136.656Y-113.65
X140.729Y-134.076
X140.729Y-152.576
X145.089Y-82.826
X148.0Y-86.5
X148.0Y-96.0
X150.889Y-134.076
X150.889Y-152.576
X153.8Y-119.5
X153.8Y-129.0
X153.8Y-138.0
X153.8Y-148.0
X156.679Y-82.826
X162.73Y-72.5
X164.4Y-119.2
X165.27Y-72.5
X166.839Y-82.826
X167.751Y-103.493
X170.0Y-86.5
X170.0Y-96.0
X172.751Y-103.493
X178.328Y-151.426
X178.679Y-82.826
X179.6Y-119.2
X182.75Y-103.493
X187.75Y-103.493
X188.488Y-151.426
X188.6Y-137.6
X188.6Y-145.6
X188.626Y-119.711
X188.626Y-129.871
X188.839Y-82.826
X192.0Y-86.5
X192.0Y-96.0
T4
X113.51Y-65.59
X113.51Y-73.21
X116.05Y-65.59
X116.05Y-73.21
X118.59Y-65.59
X118.59Y-73.21
X121.13Y-65.59
X121.13Y-73.21
X123.67Y-65.59
X123.67Y-73.21
X126.21Y-65.59
X126.21Y-73.21
X128.75Y-65.59
X128.75Y-73.21
X131.29Y-65.59
X131.29Y-73.21
X138.71Y-65.59
X138.71Y-73.21
X140.11Y-106.99
X140.11Y-114.61
X141.25Y-65.59
X141.25Y-73.21
X142.65Y-106.99
X142.65Y-114.61
X143.79Y-65.59
X143.79Y-73.21
X145.19Y-106.99
X145.19Y-114.61
X146.33Y-65.59
X146.33Y-73.21
X147.73Y-106.99
X147.73Y-114.61
X148.87Y-65.59
X148.87Y-73.21
X150.27Y-106.99
X150.27Y-114.61
X151.41Y-65.59
X151.41Y-73.21
X152.81Y-106.99
X152.81Y-114.61
X153.95Y-65.59
X153.95Y-73.21
X155.35Y-106.99
X155.35Y-114.61
X156.49Y-65.59
X156.49Y-73.21
X157.89Y-106.99
X157.89Y-114.61
T5
X167.19Y-106.69
X167.19Y-114.31
X169.73Y-106.69
X169.73Y-114.31
X172.27Y-106.69
X172.27Y-114.31
X174.81Y-106.69
X174.81Y-114.31
X182.19Y-106.69
X182.19Y-114.31
X184.73Y-106.69
X184.73Y-114.31
X187.27Y-106.69
X187.27Y-114.31
X189.81Y-106.69
X189.81Y-114.31
M30
