%TF.GenerationSoftware,KiCad,Pcbnew,10.0.6*%
%TF.CreationDate,2026-09-23T18:32:19+08:00*%
%TF.ProjectId,Utility_Navigation_Module,5574696c-6974-4795-9f4e-617669676174,1.7*%
%TF.SameCoordinates,Original*%
%TF.FileFunction,Legend,Bot*%
%TF.FilePolarity,Positive*%
%FSLAX46Y46*%
G04 Gerber Fmt 4.6, Leading zero omitted, Abs format (unit mm)*
G04 Created by KiCad (PCBNEW 10.0.6) date 2026-09-23 18:32:19*
%MOMM*%
%LPD*%
G01*
G04 APERTURE LIST*
%ADD10C,0.254000*%
%ADD11C,1.000000*%
%ADD12C,0.180000*%
G04 APERTURE END LIST*
D10*
X107280000Y-79260100D02*
X107280000Y-104660100D01*
X107280000Y-104660100D02*
X117380100Y-104660100D01*
X117380100Y-79260100D02*
X107280000Y-79260100D01*
X117380100Y-104660100D02*
X117380100Y-79260100D01*
D11*
X123918200Y-119500000D02*
G75*
G02*
X120081800Y-119500000I-1918200J0D01*
G01*
X120081800Y-119500000D02*
G75*
G02*
X123918200Y-119500000I1918200J0D01*
G01*
X123918200Y-128999900D02*
G75*
G02*
X120081800Y-128999900I-1918200J0D01*
G01*
X120081800Y-128999900D02*
G75*
G02*
X123918200Y-128999900I1918200J0D01*
G01*
X123918200Y-138250000D02*
G75*
G02*
X120081800Y-138250000I-1918200J0D01*
G01*
X120081800Y-138250000D02*
G75*
G02*
X123918200Y-138250000I1918200J0D01*
G01*
X123918200Y-147749900D02*
G75*
G02*
X120081800Y-147749900I-1918200J0D01*
G01*
X120081800Y-147749900D02*
G75*
G02*
X123918200Y-147749900I1918200J0D01*
G01*
X149918100Y-86500100D02*
G75*
G02*
X146081700Y-86500100I-1918200J0D01*
G01*
X146081700Y-86500100D02*
G75*
G02*
X149918100Y-86500100I1918200J0D01*
G01*
X149918100Y-95999900D02*
G75*
G02*
X146081700Y-95999900I-1918200J0D01*
G01*
X146081700Y-95999900D02*
G75*
G02*
X149918100Y-95999900I1918200J0D01*
G01*
X155718200Y-119499800D02*
G75*
G02*
X151881800Y-119499800I-1918200J0D01*
G01*
X151881800Y-119499800D02*
G75*
G02*
X155718200Y-119499800I1918200J0D01*
G01*
X155718200Y-128999900D02*
G75*
G02*
X151881800Y-128999900I-1918200J0D01*
G01*
X151881800Y-128999900D02*
G75*
G02*
X155718200Y-128999900I1918200J0D01*
G01*
X155718200Y-137999800D02*
G75*
G02*
X151881800Y-137999800I-1918200J0D01*
G01*
X151881800Y-137999800D02*
G75*
G02*
X155718200Y-137999800I1918200J0D01*
G01*
X155718200Y-147999800D02*
G75*
G02*
X151881800Y-147999800I-1918200J0D01*
G01*
X151881800Y-147999800D02*
G75*
G02*
X155718200Y-147999800I1918200J0D01*
G01*
X166318100Y-119199800D02*
G75*
G02*
X162481700Y-119199800I-1918200J0D01*
G01*
X162481700Y-119199800D02*
G75*
G02*
X166318100Y-119199800I1918200J0D01*
G01*
X171918300Y-86500100D02*
G75*
G02*
X168081900Y-86500100I-1918200J0D01*
G01*
X168081900Y-86500100D02*
G75*
G02*
X171918300Y-86500100I1918200J0D01*
G01*
X171918300Y-95999900D02*
G75*
G02*
X168081900Y-95999900I-1918200J0D01*
G01*
X168081900Y-95999900D02*
G75*
G02*
X171918300Y-95999900I1918200J0D01*
G01*
D10*
X172798900Y-61800900D02*
X172798900Y-61800900D01*
X172798900Y-61800900D02*
X172798900Y-68801100D01*
X172798900Y-68801100D02*
X178849200Y-68801100D01*
X178849200Y-61800900D02*
X172798900Y-61800900D01*
X178849200Y-68801100D02*
X178849200Y-61800900D01*
D11*
X181518000Y-119199800D02*
G75*
G02*
X177681600Y-119199800I-1918200J0D01*
G01*
X177681600Y-119199800D02*
G75*
G02*
X181518000Y-119199800I1918200J0D01*
G01*
X190518000Y-137599800D02*
G75*
G02*
X186681600Y-137599800I-1918200J0D01*
G01*
X186681600Y-137599800D02*
G75*
G02*
X190518000Y-137599800I1918200J0D01*
G01*
X190518000Y-145599800D02*
G75*
G02*
X186681600Y-145599800I-1918200J0D01*
G01*
X186681600Y-145599800D02*
G75*
G02*
X190518000Y-145599800I1918200J0D01*
G01*
X193918300Y-86500100D02*
G75*
G02*
X190081900Y-86500100I-1918200J0D01*
G01*
X190081900Y-86500100D02*
G75*
G02*
X193918300Y-86500100I1918200J0D01*
G01*
X193918300Y-95999900D02*
G75*
G02*
X190081900Y-95999900I-1918200J0D01*
G01*
X190081900Y-95999900D02*
G75*
G02*
X193918300Y-95999900I1918200J0D01*
G01*
D12*
X122108245Y-126169473D02*
X121674912Y-126169473D01*
X122194912Y-126429473D02*
X121891579Y-125519473D01*
X121891579Y-125519473D02*
X121588245Y-126429473D01*
X122108245Y-135169473D02*
X121674912Y-135169473D01*
X122194912Y-135429473D02*
X121891579Y-134519473D01*
X121891579Y-134519473D02*
X121588245Y-135429473D01*
X122108245Y-144969273D02*
X121674912Y-144969273D01*
X122194912Y-145229273D02*
X121891579Y-144319273D01*
X121891579Y-144319273D02*
X121588245Y-145229273D01*
X125308145Y-119769473D02*
X124874812Y-119769473D01*
X125394812Y-120029473D02*
X125091479Y-119119473D01*
X125091479Y-119119473D02*
X124788145Y-120029473D01*
X148108245Y-83569673D02*
X147674912Y-83569673D01*
X148194912Y-83829673D02*
X147891579Y-82919673D01*
X147891579Y-82919673D02*
X147588245Y-83829673D01*
X148108245Y-92969373D02*
X147674912Y-92969373D01*
X148194912Y-93229373D02*
X147891579Y-92319373D01*
X147891579Y-92319373D02*
X147588245Y-93229373D01*
X153908245Y-125969073D02*
X153474912Y-125969073D01*
X153994912Y-126229073D02*
X153691579Y-125319073D01*
X153691579Y-125319073D02*
X153388245Y-126229073D01*
X153908245Y-134969073D02*
X153474912Y-134969073D01*
X153994912Y-135229073D02*
X153691579Y-134319073D01*
X153691579Y-134319073D02*
X153388245Y-135229073D01*
X153908245Y-145169173D02*
X153474912Y-145169173D01*
X153994912Y-145429173D02*
X153691579Y-144519173D01*
X153691579Y-144519173D02*
X153388245Y-145429173D01*
X157108145Y-119369173D02*
X156674812Y-119369173D01*
X157194812Y-119629173D02*
X156891479Y-118719173D01*
X156891479Y-118719173D02*
X156588145Y-119629173D01*
X160861579Y-119352606D02*
X160731579Y-119395940D01*
X160731579Y-119395940D02*
X160688245Y-119439273D01*
X160688245Y-119439273D02*
X160644912Y-119525940D01*
X160644912Y-119525940D02*
X160644912Y-119655940D01*
X160644912Y-119655940D02*
X160688245Y-119742606D01*
X160688245Y-119742606D02*
X160731579Y-119785940D01*
X160731579Y-119785940D02*
X160818245Y-119829273D01*
X160818245Y-119829273D02*
X161164912Y-119829273D01*
X161164912Y-119829273D02*
X161164912Y-118919273D01*
X161164912Y-118919273D02*
X160861579Y-118919273D01*
X160861579Y-118919273D02*
X160774912Y-118962606D01*
X160774912Y-118962606D02*
X160731579Y-119005940D01*
X160731579Y-119005940D02*
X160688245Y-119092606D01*
X160688245Y-119092606D02*
X160688245Y-119179273D01*
X160688245Y-119179273D02*
X160731579Y-119265940D01*
X160731579Y-119265940D02*
X160774912Y-119309273D01*
X160774912Y-119309273D02*
X160861579Y-119352606D01*
X160861579Y-119352606D02*
X161164912Y-119352606D01*
X170108145Y-83569673D02*
X169674812Y-83569673D01*
X170194812Y-83829673D02*
X169891479Y-82919673D01*
X169891479Y-82919673D02*
X169588145Y-83829673D01*
X170108145Y-92969373D02*
X169674812Y-92969373D01*
X170194812Y-93229373D02*
X169891479Y-92319373D01*
X169891479Y-92319373D02*
X169588145Y-93229373D01*
X177538145Y-62712806D02*
X177624812Y-62669473D01*
X177624812Y-62669473D02*
X177754812Y-62669473D01*
X177754812Y-62669473D02*
X177884812Y-62712806D01*
X177884812Y-62712806D02*
X177971479Y-62799473D01*
X177971479Y-62799473D02*
X178014812Y-62886140D01*
X178014812Y-62886140D02*
X178058145Y-63059473D01*
X178058145Y-63059473D02*
X178058145Y-63189473D01*
X178058145Y-63189473D02*
X178014812Y-63362806D01*
X178014812Y-63362806D02*
X177971479Y-63449473D01*
X177971479Y-63449473D02*
X177884812Y-63536140D01*
X177884812Y-63536140D02*
X177754812Y-63579473D01*
X177754812Y-63579473D02*
X177668145Y-63579473D01*
X177668145Y-63579473D02*
X177538145Y-63536140D01*
X177538145Y-63536140D02*
X177494812Y-63492806D01*
X177494812Y-63492806D02*
X177494812Y-63189473D01*
X177494812Y-63189473D02*
X177668145Y-63189473D01*
X176584812Y-63579473D02*
X176888145Y-63146140D01*
X177104812Y-63579473D02*
X177104812Y-62669473D01*
X177104812Y-62669473D02*
X176758145Y-62669473D01*
X176758145Y-62669473D02*
X176671479Y-62712806D01*
X176671479Y-62712806D02*
X176628145Y-62756140D01*
X176628145Y-62756140D02*
X176584812Y-62842806D01*
X176584812Y-62842806D02*
X176584812Y-62972806D01*
X176584812Y-62972806D02*
X176628145Y-63059473D01*
X176628145Y-63059473D02*
X176671479Y-63102806D01*
X176671479Y-63102806D02*
X176758145Y-63146140D01*
X176758145Y-63146140D02*
X177104812Y-63146140D01*
X176194812Y-63102806D02*
X175891479Y-63102806D01*
X175761479Y-63579473D02*
X176194812Y-63579473D01*
X176194812Y-63579473D02*
X176194812Y-62669473D01*
X176194812Y-62669473D02*
X175761479Y-62669473D01*
X175371479Y-63102806D02*
X175068146Y-63102806D01*
X174938146Y-63579473D02*
X175371479Y-63579473D01*
X175371479Y-63579473D02*
X175371479Y-62669473D01*
X175371479Y-62669473D02*
X174938146Y-62669473D01*
X174548146Y-63579473D02*
X174548146Y-62669473D01*
X174548146Y-62669473D02*
X174028146Y-63579473D01*
X174028146Y-63579473D02*
X174028146Y-62669473D01*
X178058145Y-65069573D02*
X177624812Y-65069573D01*
X178144812Y-65329573D02*
X177841479Y-64419573D01*
X177841479Y-64419573D02*
X177538145Y-65329573D01*
X177234812Y-65242906D02*
X177191479Y-65286240D01*
X177191479Y-65286240D02*
X177234812Y-65329573D01*
X177234812Y-65329573D02*
X177278145Y-65286240D01*
X177278145Y-65286240D02*
X177234812Y-65242906D01*
X177234812Y-65242906D02*
X177234812Y-65329573D01*
X177234812Y-64766240D02*
X177191479Y-64809573D01*
X177191479Y-64809573D02*
X177234812Y-64852906D01*
X177234812Y-64852906D02*
X177278145Y-64809573D01*
X177278145Y-64809573D02*
X177234812Y-64766240D01*
X177234812Y-64766240D02*
X177234812Y-64852906D01*
X175631479Y-65329573D02*
X176151479Y-65329573D01*
X175891479Y-65329573D02*
X175891479Y-64419573D01*
X175891479Y-64419573D02*
X175978146Y-64549573D01*
X175978146Y-64549573D02*
X176064813Y-64636240D01*
X176064813Y-64636240D02*
X176151479Y-64679573D01*
X174851479Y-64722906D02*
X174851479Y-65329573D01*
X175068146Y-64376240D02*
X175284812Y-65026240D01*
X175284812Y-65026240D02*
X174721479Y-65026240D01*
X177761479Y-66353006D02*
X177631479Y-66396340D01*
X177631479Y-66396340D02*
X177588145Y-66439673D01*
X177588145Y-66439673D02*
X177544812Y-66526340D01*
X177544812Y-66526340D02*
X177544812Y-66656340D01*
X177544812Y-66656340D02*
X177588145Y-66743006D01*
X177588145Y-66743006D02*
X177631479Y-66786340D01*
X177631479Y-66786340D02*
X177718145Y-66829673D01*
X177718145Y-66829673D02*
X178064812Y-66829673D01*
X178064812Y-66829673D02*
X178064812Y-65919673D01*
X178064812Y-65919673D02*
X177761479Y-65919673D01*
X177761479Y-65919673D02*
X177674812Y-65963006D01*
X177674812Y-65963006D02*
X177631479Y-66006340D01*
X177631479Y-66006340D02*
X177588145Y-66093006D01*
X177588145Y-66093006D02*
X177588145Y-66179673D01*
X177588145Y-66179673D02*
X177631479Y-66266340D01*
X177631479Y-66266340D02*
X177674812Y-66309673D01*
X177674812Y-66309673D02*
X177761479Y-66353006D01*
X177761479Y-66353006D02*
X178064812Y-66353006D01*
X177154812Y-66743006D02*
X177111479Y-66786340D01*
X177111479Y-66786340D02*
X177154812Y-66829673D01*
X177154812Y-66829673D02*
X177198145Y-66786340D01*
X177198145Y-66786340D02*
X177154812Y-66743006D01*
X177154812Y-66743006D02*
X177154812Y-66829673D01*
X177154812Y-66266340D02*
X177111479Y-66309673D01*
X177111479Y-66309673D02*
X177154812Y-66353006D01*
X177154812Y-66353006D02*
X177198145Y-66309673D01*
X177198145Y-66309673D02*
X177154812Y-66266340D01*
X177154812Y-66266340D02*
X177154812Y-66353006D01*
X176071479Y-66006340D02*
X176028146Y-65963006D01*
X176028146Y-65963006D02*
X175941479Y-65919673D01*
X175941479Y-65919673D02*
X175724813Y-65919673D01*
X175724813Y-65919673D02*
X175638146Y-65963006D01*
X175638146Y-65963006D02*
X175594813Y-66006340D01*
X175594813Y-66006340D02*
X175551479Y-66093006D01*
X175551479Y-66093006D02*
X175551479Y-66179673D01*
X175551479Y-66179673D02*
X175594813Y-66309673D01*
X175594813Y-66309673D02*
X176114813Y-66829673D01*
X176114813Y-66829673D02*
X175551479Y-66829673D01*
X177544812Y-68342906D02*
X177588145Y-68386240D01*
X177588145Y-68386240D02*
X177718145Y-68429573D01*
X177718145Y-68429573D02*
X177804812Y-68429573D01*
X177804812Y-68429573D02*
X177934812Y-68386240D01*
X177934812Y-68386240D02*
X178021479Y-68299573D01*
X178021479Y-68299573D02*
X178064812Y-68212906D01*
X178064812Y-68212906D02*
X178108145Y-68039573D01*
X178108145Y-68039573D02*
X178108145Y-67909573D01*
X178108145Y-67909573D02*
X178064812Y-67736240D01*
X178064812Y-67736240D02*
X178021479Y-67649573D01*
X178021479Y-67649573D02*
X177934812Y-67562906D01*
X177934812Y-67562906D02*
X177804812Y-67519573D01*
X177804812Y-67519573D02*
X177718145Y-67519573D01*
X177718145Y-67519573D02*
X177588145Y-67562906D01*
X177588145Y-67562906D02*
X177544812Y-67606240D01*
X177154812Y-68342906D02*
X177111479Y-68386240D01*
X177111479Y-68386240D02*
X177154812Y-68429573D01*
X177154812Y-68429573D02*
X177198145Y-68386240D01*
X177198145Y-68386240D02*
X177154812Y-68342906D01*
X177154812Y-68342906D02*
X177154812Y-68429573D01*
X177154812Y-67866240D02*
X177111479Y-67909573D01*
X177111479Y-67909573D02*
X177154812Y-67952906D01*
X177154812Y-67952906D02*
X177198145Y-67909573D01*
X177198145Y-67909573D02*
X177154812Y-67866240D01*
X177154812Y-67866240D02*
X177154812Y-67952906D01*
X176071479Y-67606240D02*
X176028146Y-67562906D01*
X176028146Y-67562906D02*
X175941479Y-67519573D01*
X175941479Y-67519573D02*
X175724813Y-67519573D01*
X175724813Y-67519573D02*
X175638146Y-67562906D01*
X175638146Y-67562906D02*
X175594813Y-67606240D01*
X175594813Y-67606240D02*
X175551479Y-67692906D01*
X175551479Y-67692906D02*
X175551479Y-67779573D01*
X175551479Y-67779573D02*
X175594813Y-67909573D01*
X175594813Y-67909573D02*
X176114813Y-68429573D01*
X176114813Y-68429573D02*
X175551479Y-68429573D01*
X182561279Y-119352906D02*
X182431279Y-119396240D01*
X182431279Y-119396240D02*
X182387945Y-119439573D01*
X182387945Y-119439573D02*
X182344612Y-119526240D01*
X182344612Y-119526240D02*
X182344612Y-119656240D01*
X182344612Y-119656240D02*
X182387945Y-119742906D01*
X182387945Y-119742906D02*
X182431279Y-119786240D01*
X182431279Y-119786240D02*
X182517945Y-119829573D01*
X182517945Y-119829573D02*
X182864612Y-119829573D01*
X182864612Y-119829573D02*
X182864612Y-118919573D01*
X182864612Y-118919573D02*
X182561279Y-118919573D01*
X182561279Y-118919573D02*
X182474612Y-118962906D01*
X182474612Y-118962906D02*
X182431279Y-119006240D01*
X182431279Y-119006240D02*
X182387945Y-119092906D01*
X182387945Y-119092906D02*
X182387945Y-119179573D01*
X182387945Y-119179573D02*
X182431279Y-119266240D01*
X182431279Y-119266240D02*
X182474612Y-119309573D01*
X182474612Y-119309573D02*
X182561279Y-119352906D01*
X182561279Y-119352906D02*
X182864612Y-119352906D01*
X188143512Y-142742806D02*
X188186845Y-142786140D01*
X188186845Y-142786140D02*
X188316845Y-142829473D01*
X188316845Y-142829473D02*
X188403512Y-142829473D01*
X188403512Y-142829473D02*
X188533512Y-142786140D01*
X188533512Y-142786140D02*
X188620179Y-142699473D01*
X188620179Y-142699473D02*
X188663512Y-142612806D01*
X188663512Y-142612806D02*
X188706845Y-142439473D01*
X188706845Y-142439473D02*
X188706845Y-142309473D01*
X188706845Y-142309473D02*
X188663512Y-142136140D01*
X188663512Y-142136140D02*
X188620179Y-142049473D01*
X188620179Y-142049473D02*
X188533512Y-141962806D01*
X188533512Y-141962806D02*
X188403512Y-141919473D01*
X188403512Y-141919473D02*
X188316845Y-141919473D01*
X188316845Y-141919473D02*
X188186845Y-141962806D01*
X188186845Y-141962806D02*
X188143512Y-142006140D01*
X188144712Y-134942806D02*
X188188045Y-134986140D01*
X188188045Y-134986140D02*
X188318045Y-135029473D01*
X188318045Y-135029473D02*
X188404712Y-135029473D01*
X188404712Y-135029473D02*
X188534712Y-134986140D01*
X188534712Y-134986140D02*
X188621379Y-134899473D01*
X188621379Y-134899473D02*
X188664712Y-134812806D01*
X188664712Y-134812806D02*
X188708045Y-134639473D01*
X188708045Y-134639473D02*
X188708045Y-134509473D01*
X188708045Y-134509473D02*
X188664712Y-134336140D01*
X188664712Y-134336140D02*
X188621379Y-134249473D01*
X188621379Y-134249473D02*
X188534712Y-134162806D01*
X188534712Y-134162806D02*
X188404712Y-134119473D01*
X188404712Y-134119473D02*
X188318045Y-134119473D01*
X188318045Y-134119473D02*
X188188045Y-134162806D01*
X188188045Y-134162806D02*
X188144712Y-134206140D01*
X192108145Y-83569673D02*
X191674812Y-83569673D01*
X192194812Y-83829673D02*
X191891479Y-82919673D01*
X191891479Y-82919673D02*
X191588145Y-83829673D01*
X192108145Y-92969373D02*
X191674812Y-92969373D01*
X192194812Y-93229373D02*
X191891479Y-92319373D01*
X191891479Y-92319373D02*
X191588145Y-93229373D01*
M02*
