%TF.GenerationSoftware,KiCad,Pcbnew,10.0.6*%
%TF.CreationDate,2026-09-23T18:32:19+08:00*%
%TF.ProjectId,Utility_Navigation_Module,5574696c-6974-4795-9f4e-617669676174,1.7*%
%TF.SameCoordinates,Original*%
%TF.FileFunction,Copper,L2,Bot*%
%TF.FilePolarity,Positive*%
%FSLAX46Y46*%
G04 Gerber Fmt 4.6, Leading zero omitted, Abs format (unit mm)*
G04 Created by KiCad (PCBNEW 10.0.6) date 2026-09-23 18:32:19*
%MOMM*%
%LPD*%
G01*
G04 APERTURE LIST*
%TA.AperFunction,ComponentPad*%
%ADD10R,0.999900X1.000000*%
%TD*%
%TA.AperFunction,ComponentPad*%
%ADD11R,1.524000X1.524000*%
%TD*%
%TA.AperFunction,ComponentPad*%
%ADD12R,1.000000X1.000000*%
%TD*%
%TA.AperFunction,ComponentPad*%
%ADD13R,1.800000X1.800000*%
%TD*%
%TA.AperFunction,ComponentPad*%
%ADD14R,1.600000X1.600000*%
%TD*%
%TA.AperFunction,ComponentPad*%
%ADD15R,1.300100X1.300000*%
%TD*%
%TA.AperFunction,ComponentPad*%
%ADD16R,1.300000X1.300000*%
%TD*%
%TA.AperFunction,ViaPad*%
%ADD17C,0.609600*%
%TD*%
%TA.AperFunction,Conductor*%
%ADD18C,0.254000*%
%TD*%
%TA.AperFunction,Conductor*%
%ADD19C,0.762000*%
%TD*%
G04 APERTURE END LIST*
D10*
%TO.P,WP16,1*%
%TO.N,N/C*%
X187999800Y-72500100D03*
%TD*%
D11*
%TO.P,R5,1*%
%TO.N,EVA5*%
X118588700Y-152576400D03*
%TO.P,R5,2*%
%TO.N,GND*%
X108428700Y-152576400D03*
%TD*%
D12*
%TO.P,WP9,1*%
%TO.N,N/C*%
X173999900Y-72500100D03*
%TD*%
D13*
%TO.P,U2,1*%
%TO.N,RESET*%
X167189900Y-114309800D03*
%TO.P,U2,2*%
%TO.N,DATA(P)2*%
X169729900Y-114309800D03*
%TO.P,U2,3*%
%TO.N,LATCH(G)2*%
X172269900Y-114309800D03*
%TO.P,U2,4*%
%TO.N,GND*%
X174809900Y-114309800D03*
%TO.P,U2,5*%
%TO.N,SDA*%
X174809900Y-106689800D03*
%TO.P,U2,6*%
%TO.N,CLOCK(Y)2*%
X172269900Y-106689800D03*
%TO.P,U2,7*%
%TO.N,SCL*%
X169729900Y-106689800D03*
%TO.P,U2,8*%
%TO.N,+5V*%
X167189900Y-106689800D03*
%TD*%
D11*
%TO.P,TP_N1,2*%
%TO.N,N1*%
X153800000Y-128999900D03*
%TD*%
%TO.P,TP_+5V,8*%
%TO.N,+5V*%
X122000000Y-138250000D03*
%TD*%
D10*
%TO.P,WP14,1*%
%TO.N,N/C*%
X183999800Y-72500100D03*
%TD*%
D11*
%TO.P,R17,1*%
%TO.N,LIGHT6*%
X129338800Y-90826200D03*
%TO.P,R17,2*%
%TO.N,WP43_1*%
X119178800Y-90826200D03*
%TD*%
%TO.P,R14,1*%
%TO.N,LIGHT3*%
X129338800Y-98326000D03*
%TO.P,R14,2*%
%TO.N,WP46_1*%
X119178800Y-98326000D03*
%TD*%
%TO.P,C2,1*%
%TO.N,GND*%
X172750700Y-103493400D03*
%TO.P,C2,2*%
%TO.N,+5V*%
X167750700Y-103493400D03*
%TD*%
D14*
%TO.P,U3,1*%
%TO.N,LATCH(G)*%
X140109900Y-114610000D03*
%TO.P,U3,2*%
%TO.N,CLOCK(Y)*%
X142649900Y-114610000D03*
%TO.P,U3,3*%
%TO.N,EVA5*%
X145189900Y-114610000D03*
%TO.P,U3,4*%
%TO.N,N1*%
X147729900Y-114610000D03*
%TO.P,U3,5*%
%TO.N,N2*%
X150269900Y-114610000D03*
%TO.P,U3,6*%
%TO.N,N3*%
X152809900Y-114610000D03*
%TO.P,U3,7*%
%TO.N,N/C*%
X155349900Y-114610000D03*
%TO.P,U3,8*%
%TO.N,GND*%
X157889900Y-114610000D03*
%TO.P,U3,9*%
%TO.N,DATA(P)*%
X157889900Y-106990000D03*
%TO.P,U3,10*%
%TO.N,N/C*%
X155349900Y-106990000D03*
%TO.P,U3,11*%
%TO.N,EVA1*%
X152809900Y-106990000D03*
%TO.P,U3,12*%
%TO.N,EVA2*%
X150269900Y-106990000D03*
%TO.P,U3,13*%
%TO.N,EVA3*%
X147729900Y-106990000D03*
%TO.P,U3,14*%
%TO.N,EVA4*%
X145189900Y-106990000D03*
%TO.P,U3,15*%
%TO.N,GND*%
X142649900Y-106990000D03*
%TO.P,U3,16*%
%TO.N,+5V*%
X140109900Y-106990000D03*
%TD*%
D11*
%TO.P,TP_EVA1,20*%
%TO.N,EVA1*%
X192000100Y-86500100D03*
%TD*%
%TO.P,R6,1*%
%TO.N,N1*%
X150888900Y-134076100D03*
%TO.P,R6,2*%
%TO.N,GND*%
X140728900Y-134076100D03*
%TD*%
%TO.P,C1,1*%
%TO.N,GND*%
X187750400Y-103493400D03*
%TO.P,C1,2*%
%TO.N,+5V*%
X182750400Y-103493400D03*
%TD*%
%TO.P,R7,1*%
%TO.N,N2*%
X150888900Y-152576100D03*
%TO.P,R7,2*%
%TO.N,GND*%
X140728900Y-152576100D03*
%TD*%
D10*
%TO.P,WP5,1*%
%TO.N,N/C*%
X179999800Y-74500100D03*
%TD*%
D12*
%TO.P,WP11,1*%
%TO.N,N/C*%
X177999900Y-72500100D03*
%TD*%
D11*
%TO.P,TP_EVA3,16*%
%TO.N,EVA3*%
X147999900Y-86500100D03*
%TD*%
D12*
%TO.P,WP12,1*%
%TO.N,N/C*%
X179999900Y-72500100D03*
%TD*%
D11*
%TO.P,C-MAIN,1*%
%TO.N,+5V*%
X165270100Y-72500100D03*
%TO.P,C-MAIN,2*%
%TO.N,GND*%
X162730100Y-72500100D03*
%TD*%
D10*
%TO.P,WP13,1*%
%TO.N,N/C*%
X181999800Y-72500100D03*
%TD*%
D11*
%TO.P,R15,1*%
%TO.N,LIGHT4*%
X129338800Y-95826200D03*
%TO.P,R15,2*%
%TO.N,WP45_1*%
X119178800Y-95826200D03*
%TD*%
%TO.P,C6,1*%
%TO.N,GND*%
X110056600Y-72450300D03*
%TO.P,C6,2*%
%TO.N,+5V*%
X110056600Y-67450400D03*
%TD*%
D14*
%TO.P,U5,1*%
%TO.N,LIGHT10*%
X138709800Y-73210100D03*
%TO.P,U5,2*%
%TO.N,N/C*%
X141249800Y-73210100D03*
%TO.P,U5,3*%
X143789800Y-73210100D03*
%TO.P,U5,4*%
X146329800Y-73210100D03*
%TO.P,U5,5*%
X148869800Y-73210100D03*
%TO.P,U5,6*%
X151409800Y-73210100D03*
%TO.P,U5,7*%
X153949800Y-73210100D03*
%TO.P,U5,8*%
%TO.N,GND*%
X156489800Y-73210100D03*
%TO.P,U5,9*%
%TO.N,N/C*%
X156489800Y-65590100D03*
%TO.P,U5,10*%
%TO.N,+5V*%
X153949800Y-65590100D03*
%TO.P,U5,11*%
%TO.N,CLOCK(Y)2*%
X151409800Y-65590100D03*
%TO.P,U5,12*%
%TO.N,LATCH(G)2*%
X148869800Y-65590100D03*
%TO.P,U5,13*%
%TO.N,GND*%
X146329800Y-65590100D03*
%TO.P,U5,14*%
%TO.N,DATA(B)2*%
X143789800Y-65590100D03*
%TO.P,U5,15*%
%TO.N,LIGHT9*%
X141249800Y-65590100D03*
%TO.P,U5,16*%
%TO.N,+5V*%
X138709800Y-65590100D03*
%TD*%
D10*
%TO.P,WP6,1*%
%TO.N,N/C*%
X177999800Y-74500100D03*
%TD*%
%TO.P,WP15,1*%
%TO.N,N/C*%
X185999800Y-72500100D03*
%TD*%
D15*
%TO.P,WP8,1*%
%TO.N,GND*%
X173999800Y-74500100D03*
%TD*%
D11*
%TO.P,TP_GND,*%
%TO.N,GND*%
X179599800Y-119199800D03*
%TD*%
%TO.P,TP_EVA4,1*%
%TO.N,EVA4*%
X122000000Y-128999900D03*
%TD*%
%TO.P,R16,1*%
%TO.N,LIGHT5*%
X129338800Y-93326100D03*
%TO.P,R16,2*%
%TO.N,WP44_1*%
X119178800Y-93326100D03*
%TD*%
%TO.P,C5,1*%
%TO.N,GND*%
X135256400Y-72250400D03*
%TO.P,C5,2*%
%TO.N,+5V*%
X135256400Y-67250500D03*
%TD*%
%TO.P,TP_LIGHT0,*%
%TO.N,LIGHT0*%
X164399900Y-119199800D03*
%TD*%
%TO.P,R3,1*%
%TO.N,EVA3*%
X145088800Y-82826200D03*
%TO.P,R3,2*%
%TO.N,GND*%
X134928800Y-82826200D03*
%TD*%
%TO.P,TP_N2,*%
%TO.N,N2*%
X153800000Y-147999800D03*
%TD*%
%TO.P,R2,1*%
%TO.N,EVA2*%
X166838800Y-82826200D03*
%TO.P,R2,2*%
%TO.N,GND*%
X156678800Y-82826200D03*
%TD*%
D14*
%TO.P,U6,1*%
%TO.N,LIGHT2*%
X113510100Y-73210100D03*
%TO.P,U6,2*%
%TO.N,LIGHT3*%
X116050100Y-73210100D03*
%TO.P,U6,3*%
%TO.N,LIGHT4*%
X118590100Y-73210100D03*
%TO.P,U6,4*%
%TO.N,LIGHT5*%
X121130100Y-73210100D03*
%TO.P,U6,5*%
%TO.N,LIGHT6*%
X123670100Y-73210100D03*
%TO.P,U6,6*%
%TO.N,LIGHT7*%
X126210100Y-73210100D03*
%TO.P,U6,7*%
%TO.N,LIGHT8*%
X128750100Y-73210100D03*
%TO.P,U6,8*%
%TO.N,GND*%
X131290100Y-73210100D03*
%TO.P,U6,9*%
%TO.N,DATA(B)2*%
X131290100Y-65590100D03*
%TO.P,U6,10*%
%TO.N,+5V*%
X128750100Y-65590100D03*
%TO.P,U6,11*%
%TO.N,CLOCK(Y)2*%
X126210100Y-65590100D03*
%TO.P,U6,12*%
%TO.N,LATCH(G)2*%
X123670100Y-65590100D03*
%TO.P,U6,13*%
%TO.N,GND*%
X121130100Y-65590100D03*
%TO.P,U6,14*%
%TO.N,DATA(P)2*%
X118590100Y-65590100D03*
%TO.P,U6,15*%
%TO.N,LIGHT1*%
X116050100Y-65590100D03*
%TO.P,U6,16*%
%TO.N,+5V*%
X113510100Y-65590100D03*
%TD*%
D11*
%TO.P,R21,1*%
%TO.N,LIGHT10*%
X129338800Y-80826200D03*
%TO.P,R21,2*%
%TO.N,WP60_1*%
X119178800Y-80826200D03*
%TD*%
D12*
%TO.P,WP10,1*%
%TO.N,N/C*%
X175999900Y-72500100D03*
%TD*%
D11*
%TO.P,LED,GND*%
%TO.N,GND*%
X108519900Y-80531600D03*
X108519900Y-83071600D03*
X108519900Y-85611600D03*
X108519900Y-88151600D03*
X108519900Y-90691600D03*
X108519900Y-93231600D03*
X108519900Y-95771600D03*
X108519900Y-98311600D03*
X108519900Y-100851600D03*
X108519900Y-103391600D03*
%TO.N,WP60_1*%
X116139900Y-80531600D03*
%TO.N,WP58_1*%
X116139900Y-83071600D03*
%TO.N,WP41_1*%
X116139900Y-85611600D03*
%TO.N,WP42_1*%
X116139900Y-88151600D03*
%TO.N,WP43_1*%
X116139900Y-90691600D03*
%TO.N,WP44_1*%
X116139900Y-93231600D03*
%TO.N,WP45_1*%
X116139900Y-95771600D03*
%TO.N,WP46_1*%
X116139900Y-98311600D03*
%TO.N,WP47_1*%
X116139900Y-100851600D03*
%TO.N,WP48_1*%
X116139900Y-103391600D03*
%TD*%
%TO.P,R9,1*%
%TO.N,LIGHT0*%
X188625700Y-119711100D03*
%TO.P,R9,2*%
%TO.N,+5V*%
X188625700Y-129871100D03*
%TD*%
%TO.P,R1,1*%
%TO.N,EVA1*%
X188838800Y-82826200D03*
%TO.P,R1,2*%
%TO.N,GND*%
X178678800Y-82826200D03*
%TD*%
%TO.P,R18,1*%
%TO.N,LIGHT7*%
X129338800Y-88326100D03*
%TO.P,R18,2*%
%TO.N,WP42_1*%
X119178800Y-88326100D03*
%TD*%
%TO.P,R13,1*%
%TO.N,LIGHT2*%
X129338800Y-100826200D03*
%TO.P,R13,2*%
%TO.N,WP47_1*%
X119178800Y-100826200D03*
%TD*%
%TO.P,TP_+5V,*%
%TO.N,+5V*%
X188599800Y-137599800D03*
%TD*%
D15*
%TO.P,WP7,1*%
%TO.N,+5V*%
X175999800Y-74500100D03*
%TD*%
D11*
%TO.P,TP_+5V,*%
%TO.N,+5V*%
X192000100Y-95999900D03*
%TD*%
%TO.P,TP_EVA5,1*%
%TO.N,EVA5*%
X122000000Y-147749900D03*
%TD*%
%TO.P,R19,1*%
%TO.N,LIGHT8*%
X129338800Y-85826200D03*
%TO.P,R19,2*%
%TO.N,WP41_1*%
X119178800Y-85826200D03*
%TD*%
%TO.P,TP_+5V,8*%
%TO.N,+5V*%
X122000000Y-119500000D03*
%TD*%
%TO.P,TP_+5V,*%
%TO.N,+5V*%
X170000100Y-95999900D03*
%TD*%
%TO.P,R8,1*%
%TO.N,N3*%
X188488500Y-151426000D03*
%TO.P,R8,2*%
%TO.N,GND*%
X178328500Y-151426000D03*
%TD*%
%TO.P,R20,1*%
%TO.N,LIGHT9*%
X129338800Y-83326100D03*
%TO.P,R20,2*%
%TO.N,WP58_1*%
X119178800Y-83326100D03*
%TD*%
%TO.P,R4,1*%
%TO.N,EVA4*%
X118838700Y-134076300D03*
%TO.P,R4,2*%
%TO.N,GND*%
X108678700Y-134076300D03*
%TD*%
%TO.P,TP_+5V,9*%
%TO.N,+5V*%
X153800000Y-119499800D03*
%TD*%
%TO.P,TP_N3,*%
%TO.N,N3*%
X188599800Y-145599800D03*
%TD*%
D12*
%TO.P,WP4,1*%
%TO.N,N/C*%
X181999800Y-74500100D03*
%TD*%
D16*
%TO.P,WP1,1*%
%TO.N,SDA*%
X187999800Y-74500100D03*
%TD*%
D11*
%TO.P,TP_+5V,*%
%TO.N,+5V*%
X153800000Y-137999800D03*
%TD*%
%TO.P,TP_EVA2,18*%
%TO.N,EVA2*%
X170000100Y-86500100D03*
%TD*%
D16*
%TO.P,WP2,1*%
%TO.N,SCL*%
X185999800Y-74500100D03*
%TD*%
D11*
%TO.P,R12,1*%
%TO.N,LIGHT1*%
X129338800Y-103326000D03*
%TO.P,R12,2*%
%TO.N,WP48_1*%
X119178800Y-103326000D03*
%TD*%
%TO.P,C3,1*%
%TO.N,GND*%
X136656500Y-113650100D03*
%TO.P,C3,2*%
%TO.N,+5V*%
X136656500Y-108650100D03*
%TD*%
D16*
%TO.P,WP3,1*%
%TO.N,RESET*%
X183999800Y-74500100D03*
%TD*%
D11*
%TO.P,TP_+5V,15*%
%TO.N,+5V*%
X147999900Y-95999900D03*
%TD*%
D13*
%TO.P,U1,1*%
%TO.N,RESET*%
X182189800Y-114310100D03*
%TO.P,U1,2*%
%TO.N,DATA(P)*%
X184729800Y-114310100D03*
%TO.P,U1,3*%
%TO.N,LATCH(G)*%
X187269800Y-114310100D03*
%TO.P,U1,4*%
%TO.N,GND*%
X189809800Y-114310100D03*
%TO.P,U1,5*%
%TO.N,SDA*%
X189809800Y-106690100D03*
%TO.P,U1,6*%
%TO.N,CLOCK(Y)*%
X187269800Y-106690100D03*
%TO.P,U1,7*%
%TO.N,SCL*%
X184729800Y-106690100D03*
%TO.P,U1,8*%
%TO.N,+5V*%
X182189800Y-106690100D03*
%TD*%
D17*
%TO.N,RESET*%
X195499900Y-82249900D03*
%TO.N,EVA1*%
X165749900Y-101999900D03*
%TO.N,EVA2*%
X163500000Y-100999900D03*
%TO.N,EVA3*%
X145999900Y-101999900D03*
%TO.N,GUARD1*%
X199499900Y-114999900D03*
X199499900Y-105002200D03*
%TO.N,GUARD2*%
X100625100Y-104999900D03*
X100625100Y-114997600D03*
%TD*%
%TO.N,EVA5*%
D18*
X134998700Y-115999400D02*
X125400000Y-125600600D01*
X143799800Y-115999400D02*
X134998700Y-115999400D01*
X145189100Y-114610000D02*
X143799800Y-115999400D01*
X125400000Y-144350900D02*
X121998900Y-147749400D01*
X125400000Y-125600600D02*
X125400000Y-144350900D01*
%TO.N,RESET*%
X185499800Y-76000000D02*
X183999800Y-74500100D01*
X189250100Y-76000000D02*
X185499800Y-76000000D01*
X195499900Y-82249900D02*
X189250100Y-76000000D01*
%TO.N,DATA(P)2*%
X159250600Y-101998900D02*
X153248600Y-101998900D01*
X146748600Y-68999200D02*
X121998900Y-68999200D01*
X153248600Y-101998900D02*
X151399900Y-100150200D01*
X121998900Y-68999200D02*
X118589800Y-65590000D01*
X151399900Y-78649100D02*
X147600000Y-74849100D01*
X147600000Y-74849100D02*
X147600000Y-69850500D01*
X147600000Y-69850500D02*
X146748600Y-68999200D01*
X169730600Y-112479000D02*
X159250600Y-101998900D01*
X151399900Y-100150200D02*
X151399900Y-78649100D01*
X169730600Y-114310300D02*
X169730600Y-112479000D01*
%TO.N,LATCH(G)2*%
X123700700Y-66700500D02*
X123700700Y-65590500D01*
X148869600Y-65590500D02*
X145961300Y-68498800D01*
X159458900Y-101501100D02*
X153500000Y-101501100D01*
X148869600Y-70119400D02*
X148869600Y-65590500D01*
X151998900Y-76748800D02*
X150200600Y-74950400D01*
X150200600Y-71450300D02*
X148869600Y-70119400D01*
X125499100Y-68498800D02*
X123700700Y-66700500D01*
X151998900Y-99999900D02*
X151998900Y-76748800D01*
X123700700Y-65590500D02*
X123670300Y-65590500D01*
X153500000Y-101501100D02*
X151998900Y-99999900D01*
X145961300Y-68498800D02*
X125499100Y-68498800D01*
X150200600Y-74950400D02*
X150200600Y-71450300D01*
X172270600Y-114310300D02*
X159458900Y-101501100D01*
%TO.N,SDA*%
X176370200Y-108249800D02*
X188249800Y-108249800D01*
X174810600Y-106690300D02*
X176370200Y-108249800D01*
X188249800Y-108249800D02*
X189809300Y-106690300D01*
%TO.N,CLOCK(Y)2*%
X149568800Y-63749000D02*
X128051000Y-63749000D01*
X152600900Y-99852600D02*
X152600900Y-72199600D01*
X164000400Y-105250100D02*
X159751000Y-101000700D01*
X151409600Y-71010900D02*
X151409600Y-65590500D01*
X151409800Y-65590100D02*
X149568800Y-63749000D01*
X172270600Y-106690300D02*
X170830400Y-105250100D01*
X152600900Y-72199600D02*
X151409600Y-71010900D01*
X153748900Y-101000700D02*
X152600900Y-99852600D01*
X170830400Y-105250100D02*
X164000400Y-105250100D01*
X128051000Y-63749000D02*
X126210000Y-65590000D01*
X159751000Y-101000700D02*
X153748900Y-101000700D01*
%TO.N,N1*%
X149918600Y-116799500D02*
X151000700Y-116799500D01*
X151600100Y-126799500D02*
X153799700Y-128999100D01*
X151600100Y-117398900D02*
X151600100Y-126799500D01*
X147729100Y-114610000D02*
X149918600Y-116799500D01*
X151000700Y-116799500D02*
X151600100Y-117398900D01*
%TO.N,N2*%
X153459800Y-117799900D02*
X154399900Y-117799900D01*
X154399900Y-117799900D02*
X155799900Y-119199900D01*
X150269900Y-114610000D02*
X153459800Y-117799900D01*
X155799900Y-119199900D02*
X155799900Y-145999900D01*
X155799900Y-145999900D02*
X153800000Y-147999800D01*
%TO.N,N3*%
X184599800Y-149601000D02*
X188600300Y-145600500D01*
X152809100Y-114610000D02*
X156598800Y-118399700D01*
X156598800Y-118399700D02*
X156598800Y-142199500D01*
X156598800Y-142199500D02*
X164000400Y-149601000D01*
X164000400Y-149601000D02*
X184599800Y-149601000D01*
%TO.N,DATA(P)*%
X183040000Y-115999900D02*
X184729800Y-114310000D01*
X157889900Y-108689900D02*
X165199900Y-115999900D01*
X157889900Y-106990000D02*
X157889900Y-108689900D01*
X165199900Y-115999900D02*
X183040000Y-115999900D01*
%TO.N,EVA1*%
X187500500Y-101998900D02*
X190248700Y-99250600D01*
X190248700Y-88249900D02*
X192001300Y-86499800D01*
X165750400Y-101998900D02*
X187500500Y-101998900D01*
X190248700Y-99250600D02*
X190248700Y-88249900D01*
%TO.N,EVA2*%
X168249800Y-98999200D02*
X168249800Y-88249900D01*
X166250800Y-101000700D02*
X168249800Y-98999200D01*
X168249800Y-88249900D02*
X169999900Y-86499800D01*
X163500000Y-101000700D02*
X166250800Y-101000700D01*
%TO.N,EVA3*%
X145999400Y-101998900D02*
X145999400Y-88498800D01*
X145999400Y-88498800D02*
X148000900Y-86499800D01*
%TO.N,EVA4*%
X138600400Y-114599800D02*
X137800300Y-115399900D01*
X137800300Y-115399900D02*
X133197800Y-115399900D01*
X133197800Y-115399900D02*
X121998900Y-126598800D01*
X138600400Y-113578800D02*
X138600400Y-114599800D01*
X145189100Y-106990000D02*
X138600400Y-113578800D01*
X121998900Y-126598800D02*
X121998900Y-128999100D01*
%TO.N,DATA(B)2*%
X142449200Y-64249400D02*
X143789800Y-65590100D01*
X131290000Y-65590000D02*
X132630600Y-64249400D01*
X132630600Y-64249400D02*
X142449200Y-64249400D01*
%TO.N,GUARD1*%
D19*
X199500000Y-114999600D02*
X197000700Y-114999600D01*
X194501400Y-107499000D02*
X196998200Y-105002200D01*
X194501400Y-112500300D02*
X194501400Y-107499000D01*
X196998200Y-105002200D02*
X199500000Y-105002200D01*
X197000700Y-114999600D02*
X194501400Y-112500300D01*
%TO.N,GUARD2*%
X105623600Y-112498000D02*
X105623600Y-107496800D01*
X103124200Y-114997400D02*
X105623600Y-112498000D01*
X100624900Y-114997400D02*
X103124200Y-114997400D01*
X105623600Y-107496800D02*
X103126700Y-104999900D01*
X103126700Y-104999900D02*
X100624900Y-104999900D01*
%TD*%
%TA.AperFunction,Conductor*%
%TO.N,GND*%
G36*
X189808418Y-60520502D02*
G01*
X189829392Y-60537404D01*
X193824750Y-64532721D01*
X199326024Y-70033940D01*
X199462495Y-70170409D01*
X199496520Y-70232721D01*
X199499400Y-70259505D01*
X199499400Y-104240700D01*
X199479398Y-104308821D01*
X199425742Y-104355314D01*
X199373400Y-104366700D01*
X196935606Y-104366700D01*
X196812830Y-104391122D01*
X196812825Y-104391124D01*
X196697177Y-104439027D01*
X196593096Y-104508572D01*
X196593089Y-104508577D01*
X194007777Y-107093889D01*
X194007772Y-107093896D01*
X193938227Y-107197977D01*
X193890324Y-107313625D01*
X193890322Y-107313630D01*
X193865900Y-107436406D01*
X193865900Y-112562893D01*
X193889865Y-112683374D01*
X193890322Y-112685669D01*
X193938227Y-112801322D01*
X194007775Y-112905408D01*
X196595592Y-115493225D01*
X196699678Y-115562773D01*
X196815331Y-115610678D01*
X196938109Y-115635100D01*
X197063291Y-115635100D01*
X199373400Y-115635100D01*
X199441521Y-115655102D01*
X199488014Y-115708758D01*
X199499400Y-115761100D01*
X199499400Y-149740495D01*
X199479398Y-149808616D01*
X199462495Y-149829590D01*
X194642987Y-154649097D01*
X194642987Y-154649098D01*
X189829594Y-159462396D01*
X189767281Y-159496421D01*
X189740499Y-159499300D01*
X110259414Y-159499300D01*
X110191293Y-159479298D01*
X110170341Y-159462418D01*
X105352761Y-154647248D01*
X105352717Y-154647204D01*
X102579063Y-151872217D01*
X102496216Y-151789330D01*
X117572200Y-151789330D01*
X117572200Y-153363463D01*
X117572201Y-153363473D01*
X117586965Y-153437700D01*
X117643216Y-153521884D01*
X117727397Y-153578133D01*
X117727399Y-153578134D01*
X117801633Y-153592900D01*
X119375766Y-153592899D01*
X119375769Y-153592898D01*
X119375773Y-153592898D01*
X119425026Y-153583101D01*
X119450001Y-153578134D01*
X119534184Y-153521884D01*
X119590434Y-153437701D01*
X119605200Y-153363467D01*
X119605199Y-151789334D01*
X119605139Y-151789034D01*
X119605138Y-151789030D01*
X149872400Y-151789030D01*
X149872400Y-153363163D01*
X149872401Y-153363173D01*
X149887165Y-153437400D01*
X149943416Y-153521584D01*
X150027597Y-153577833D01*
X150027599Y-153577834D01*
X150101833Y-153592600D01*
X151675966Y-153592599D01*
X151675969Y-153592598D01*
X151675973Y-153592598D01*
X151725226Y-153582801D01*
X151750201Y-153577834D01*
X151834384Y-153521584D01*
X151890634Y-153437401D01*
X151905400Y-153363167D01*
X151905399Y-151789034D01*
X151905398Y-151789030D01*
X151905398Y-151789026D01*
X151890634Y-151714799D01*
X151834584Y-151630916D01*
X151834384Y-151630616D01*
X151834383Y-151630615D01*
X151750202Y-151574366D01*
X151675967Y-151559600D01*
X150101836Y-151559600D01*
X150101826Y-151559601D01*
X150027599Y-151574365D01*
X149943415Y-151630616D01*
X149887166Y-151714797D01*
X149872400Y-151789030D01*
X119605138Y-151789030D01*
X119590434Y-151715099D01*
X119534183Y-151630915D01*
X119450002Y-151574666D01*
X119375767Y-151559900D01*
X117801636Y-151559900D01*
X117801626Y-151559901D01*
X117727399Y-151574665D01*
X117643215Y-151630916D01*
X117586966Y-151715097D01*
X117572200Y-151789330D01*
X102496216Y-151789330D01*
X100537383Y-149829556D01*
X100503373Y-149767236D01*
X100500500Y-149740482D01*
X100500500Y-136184108D01*
X105249600Y-136184108D01*
X105249600Y-150184108D01*
X105249600Y-150315892D01*
X105260090Y-150355040D01*
X105283707Y-150443183D01*
X105283710Y-150443190D01*
X105349597Y-150557310D01*
X105349605Y-150557320D01*
X105442779Y-150650494D01*
X105442784Y-150650498D01*
X105442786Y-150650500D01*
X105556914Y-150716392D01*
X105684208Y-150750500D01*
X105684210Y-150750500D01*
X118815890Y-150750500D01*
X118815892Y-150750500D01*
X118943186Y-150716392D01*
X119057314Y-150650500D01*
X119150500Y-150557314D01*
X119216392Y-150443186D01*
X119250500Y-150315892D01*
X119250500Y-137462930D01*
X120983500Y-137462930D01*
X120983500Y-139037063D01*
X120983501Y-139037073D01*
X120998265Y-139111300D01*
X121054516Y-139195484D01*
X121138697Y-139251733D01*
X121138699Y-139251734D01*
X121212933Y-139266500D01*
X122787066Y-139266499D01*
X122787069Y-139266498D01*
X122787073Y-139266498D01*
X122836326Y-139256701D01*
X122861301Y-139251734D01*
X122945484Y-139195484D01*
X123001734Y-139111301D01*
X123016500Y-139037067D01*
X123016499Y-137462934D01*
X123016498Y-137462930D01*
X123016498Y-137462926D01*
X123001734Y-137388699D01*
X122945483Y-137304515D01*
X122861302Y-137248266D01*
X122787067Y-137233500D01*
X121212936Y-137233500D01*
X121212926Y-137233501D01*
X121138699Y-137248265D01*
X121054515Y-137304516D01*
X120998266Y-137388697D01*
X120983500Y-137462930D01*
X119250500Y-137462930D01*
X119250500Y-136184108D01*
X119216392Y-136056814D01*
X119196815Y-136022906D01*
X119150502Y-135942689D01*
X119150494Y-135942679D01*
X119057320Y-135849505D01*
X119057310Y-135849497D01*
X118943190Y-135783610D01*
X118943187Y-135783609D01*
X118943186Y-135783608D01*
X118943184Y-135783607D01*
X118943183Y-135783607D01*
X118909073Y-135774467D01*
X118815892Y-135749500D01*
X105815992Y-135749500D01*
X105684208Y-135749500D01*
X105625629Y-135765196D01*
X105556916Y-135783607D01*
X105556909Y-135783610D01*
X105442789Y-135849497D01*
X105442779Y-135849505D01*
X105349605Y-135942679D01*
X105349597Y-135942689D01*
X105283710Y-136056809D01*
X105283707Y-136056816D01*
X105266365Y-136121538D01*
X105249600Y-136184108D01*
X100500500Y-136184108D01*
X100500500Y-133289230D01*
X117822200Y-133289230D01*
X117822200Y-134863363D01*
X117822201Y-134863373D01*
X117836965Y-134937600D01*
X117893216Y-135021784D01*
X117977397Y-135078033D01*
X117977399Y-135078034D01*
X118051633Y-135092800D01*
X119625766Y-135092799D01*
X119625769Y-135092798D01*
X119625773Y-135092798D01*
X119675026Y-135083001D01*
X119700001Y-135078034D01*
X119784184Y-135021784D01*
X119840434Y-134937601D01*
X119855200Y-134863367D01*
X119855199Y-133289234D01*
X119855198Y-133289230D01*
X119855198Y-133289226D01*
X119840434Y-133214999D01*
X119784183Y-133130815D01*
X119700002Y-133074566D01*
X119625767Y-133059800D01*
X118051636Y-133059800D01*
X118051626Y-133059801D01*
X117977399Y-133074565D01*
X117893215Y-133130816D01*
X117836966Y-133214997D01*
X117822200Y-133289230D01*
X100500500Y-133289230D01*
X100500500Y-117884308D01*
X105249500Y-117884308D01*
X105249500Y-131884308D01*
X105249500Y-132016092D01*
X105262790Y-132065690D01*
X105283607Y-132143383D01*
X105283610Y-132143390D01*
X105349497Y-132257510D01*
X105349505Y-132257520D01*
X105442679Y-132350694D01*
X105442684Y-132350698D01*
X105442686Y-132350700D01*
X105556814Y-132416592D01*
X105684108Y-132450700D01*
X105684110Y-132450700D01*
X118815790Y-132450700D01*
X118815792Y-132450700D01*
X118943086Y-132416592D01*
X119057214Y-132350700D01*
X119150400Y-132257514D01*
X119216292Y-132143386D01*
X119250400Y-132016092D01*
X119250400Y-128212830D01*
X120983500Y-128212830D01*
X120983500Y-129786963D01*
X120983501Y-129786973D01*
X120998265Y-129861200D01*
X121054516Y-129945384D01*
X121138697Y-130001633D01*
X121138699Y-130001634D01*
X121212933Y-130016400D01*
X122787066Y-130016399D01*
X122787069Y-130016398D01*
X122787073Y-130016398D01*
X122836326Y-130006601D01*
X122861301Y-130001634D01*
X122945484Y-129945384D01*
X123001734Y-129861201D01*
X123016500Y-129786967D01*
X123016499Y-128212834D01*
X123016498Y-128212830D01*
X123016498Y-128212826D01*
X123001734Y-128138599D01*
X122945483Y-128054415D01*
X122861302Y-127998166D01*
X122787069Y-127983400D01*
X122787067Y-127983400D01*
X122506400Y-127983400D01*
X122438279Y-127963398D01*
X122391786Y-127909742D01*
X122380400Y-127857400D01*
X122380400Y-126809012D01*
X122400402Y-126740891D01*
X122417305Y-126719917D01*
X133318917Y-115818305D01*
X133381229Y-115784279D01*
X133408012Y-115781400D01*
X134373057Y-115781400D01*
X134441178Y-115801402D01*
X134487671Y-115855058D01*
X134497775Y-115925332D01*
X134468281Y-115989912D01*
X134462164Y-115996483D01*
X131685785Y-118773586D01*
X125133106Y-125327970D01*
X125133096Y-125327979D01*
X125094708Y-125366368D01*
X125070002Y-125409172D01*
X125069996Y-125409182D01*
X125044486Y-125453367D01*
X125030535Y-125505456D01*
X125030533Y-125505465D01*
X125018496Y-125550388D01*
X125018493Y-125550419D01*
X125018500Y-125604513D01*
X125018500Y-144140572D01*
X124998498Y-144208693D01*
X124981561Y-144229702D01*
X122512845Y-146696530D01*
X122450520Y-146730531D01*
X122423784Y-146733400D01*
X121212936Y-146733400D01*
X121212926Y-146733401D01*
X121138699Y-146748165D01*
X121054515Y-146804416D01*
X120998266Y-146888597D01*
X120983500Y-146962830D01*
X120983500Y-148536963D01*
X120983501Y-148536973D01*
X120998265Y-148611200D01*
X121054516Y-148695384D01*
X121138697Y-148751633D01*
X121138699Y-148751634D01*
X121212933Y-148766400D01*
X122787066Y-148766399D01*
X122787069Y-148766398D01*
X122787073Y-148766398D01*
X122836326Y-148756601D01*
X122861301Y-148751634D01*
X122945484Y-148695384D01*
X123001734Y-148611201D01*
X123016500Y-148536967D01*
X123016499Y-147324112D01*
X123036501Y-147255992D01*
X123053438Y-147234983D01*
X123342247Y-146946395D01*
X125628133Y-144662256D01*
X125628403Y-144662020D01*
X125671134Y-144619289D01*
X125671169Y-144619253D01*
X125671195Y-144619226D01*
X125705186Y-144585263D01*
X125705187Y-144585260D01*
X125705204Y-144585244D01*
X125705264Y-144585165D01*
X125705272Y-144585150D01*
X125705276Y-144585147D01*
X125730897Y-144540767D01*
X125730933Y-144540733D01*
X125730921Y-144540726D01*
X125730922Y-144540725D01*
X125755445Y-144498289D01*
X125755446Y-144498281D01*
X125755496Y-144498165D01*
X125755497Y-144498160D01*
X125755501Y-144498154D01*
X125768367Y-144450137D01*
X125768368Y-144450133D01*
X125768378Y-144450135D01*
X125768380Y-144450087D01*
X125781481Y-144401270D01*
X125781500Y-144401129D01*
X125781500Y-144352333D01*
X125781520Y-144300821D01*
X125781519Y-144300817D01*
X125781522Y-144292813D01*
X125781500Y-144292461D01*
X125781500Y-136324153D01*
X137299494Y-136324153D01*
X137299500Y-136324242D01*
X137299500Y-150183908D01*
X137299500Y-150315692D01*
X137299554Y-150315892D01*
X137333607Y-150442983D01*
X137333610Y-150442990D01*
X137399497Y-150557110D01*
X137399505Y-150557120D01*
X137492679Y-150650294D01*
X137492684Y-150650298D01*
X137492686Y-150650300D01*
X137492687Y-150650301D01*
X137492689Y-150650302D01*
X137572906Y-150696615D01*
X137606814Y-150716192D01*
X137734108Y-150750300D01*
X137734110Y-150750300D01*
X150865890Y-150750300D01*
X150865892Y-150750300D01*
X150993186Y-150716192D01*
X151107314Y-150650300D01*
X151118684Y-150638930D01*
X187472000Y-150638930D01*
X187472000Y-152213063D01*
X187472001Y-152213073D01*
X187486765Y-152287300D01*
X187543016Y-152371484D01*
X187627197Y-152427733D01*
X187627199Y-152427734D01*
X187701433Y-152442500D01*
X189275566Y-152442499D01*
X189275569Y-152442498D01*
X189275573Y-152442498D01*
X189324826Y-152432701D01*
X189349801Y-152427734D01*
X189433984Y-152371484D01*
X189490234Y-152287301D01*
X189505000Y-152213067D01*
X189504999Y-150638934D01*
X189504998Y-150638930D01*
X189504998Y-150638926D01*
X189490234Y-150564699D01*
X189433983Y-150480515D01*
X189349802Y-150424266D01*
X189275567Y-150409500D01*
X187701436Y-150409500D01*
X187701426Y-150409501D01*
X187627199Y-150424265D01*
X187543015Y-150480516D01*
X187486766Y-150564697D01*
X187472000Y-150638930D01*
X151118684Y-150638930D01*
X151200500Y-150557114D01*
X151266392Y-150442986D01*
X151300500Y-150315692D01*
X151300500Y-137212730D01*
X152783500Y-137212730D01*
X152783500Y-138786863D01*
X152783501Y-138786873D01*
X152798265Y-138861100D01*
X152854516Y-138945284D01*
X152938697Y-139001533D01*
X152938699Y-139001534D01*
X153012933Y-139016300D01*
X154587066Y-139016299D01*
X154587069Y-139016298D01*
X154587073Y-139016298D01*
X154636326Y-139006501D01*
X154661301Y-139001534D01*
X154745484Y-138945284D01*
X154801734Y-138861101D01*
X154816500Y-138786867D01*
X154816499Y-137212734D01*
X154816498Y-137212730D01*
X154816498Y-137212726D01*
X154801734Y-137138499D01*
X154745483Y-137054315D01*
X154661302Y-136998066D01*
X154587067Y-136983300D01*
X153012936Y-136983300D01*
X153012926Y-136983301D01*
X152938699Y-136998065D01*
X152854515Y-137054316D01*
X152798266Y-137138497D01*
X152783500Y-137212730D01*
X151300500Y-137212730D01*
X151300500Y-136250735D01*
X151300505Y-136184843D01*
X151300500Y-136184824D01*
X151300500Y-136184808D01*
X151283547Y-136121538D01*
X151266405Y-136057546D01*
X151266396Y-136057531D01*
X151266392Y-136057514D01*
X151231414Y-135996931D01*
X151200669Y-135943670D01*
X151200526Y-135943420D01*
X151200502Y-135943388D01*
X151190718Y-135933604D01*
X151153931Y-135896817D01*
X151107342Y-135850221D01*
X151107325Y-135850211D01*
X151107314Y-135850200D01*
X151053828Y-135819320D01*
X150993218Y-135784321D01*
X150993200Y-135784316D01*
X150993186Y-135784308D01*
X150980631Y-135780943D01*
X150980630Y-135780943D01*
X150929232Y-135767171D01*
X150929229Y-135767169D01*
X150929229Y-135767170D01*
X150897460Y-135758656D01*
X150865927Y-135750205D01*
X150865925Y-135750204D01*
X150865907Y-135750200D01*
X150865892Y-135750200D01*
X150793774Y-135750200D01*
X137874138Y-135749304D01*
X137874070Y-135749300D01*
X137865892Y-135749300D01*
X137806296Y-135749300D01*
X137734135Y-135749294D01*
X137734121Y-135749296D01*
X137682115Y-135763230D01*
X137682112Y-135763231D01*
X137670838Y-135766252D01*
X137606846Y-135783395D01*
X137606831Y-135783403D01*
X137606814Y-135783408D01*
X137546231Y-135818385D01*
X137492714Y-135849279D01*
X137492702Y-135849290D01*
X137492686Y-135849300D01*
X137483831Y-135858154D01*
X137483828Y-135858156D01*
X137448748Y-135893237D01*
X137448743Y-135893243D01*
X137448742Y-135893244D01*
X137399521Y-135942458D01*
X137399511Y-135942474D01*
X137399500Y-135942486D01*
X137368620Y-135995971D01*
X137333621Y-136056582D01*
X137333616Y-136056599D01*
X137333608Y-136056614D01*
X137316470Y-136120571D01*
X137313449Y-136131842D01*
X137313448Y-136131845D01*
X137299500Y-136183891D01*
X137299500Y-136249775D01*
X137299494Y-136324153D01*
X125781500Y-136324153D01*
X125781500Y-133289030D01*
X149872400Y-133289030D01*
X149872400Y-134863163D01*
X149872401Y-134863173D01*
X149887165Y-134937400D01*
X149943416Y-135021584D01*
X150027597Y-135077833D01*
X150027599Y-135077834D01*
X150101833Y-135092600D01*
X151675966Y-135092599D01*
X151675969Y-135092598D01*
X151675973Y-135092598D01*
X151725226Y-135082801D01*
X151750201Y-135077834D01*
X151834384Y-135021584D01*
X151890634Y-134937401D01*
X151905400Y-134863167D01*
X151905399Y-133289034D01*
X151905398Y-133289030D01*
X151905398Y-133289026D01*
X151890634Y-133214799D01*
X151890633Y-133214797D01*
X151834384Y-133130616D01*
X151834383Y-133130615D01*
X151750202Y-133074366D01*
X151675967Y-133059600D01*
X150101836Y-133059600D01*
X150101826Y-133059601D01*
X150027599Y-133074365D01*
X149943415Y-133130616D01*
X149887166Y-133214797D01*
X149872400Y-133289030D01*
X125781500Y-133289030D01*
X125781500Y-125810774D01*
X125801502Y-125742653D01*
X125818393Y-125721690D01*
X125935540Y-125604513D01*
X130812333Y-120726450D01*
X133464043Y-118074049D01*
X137299494Y-118074049D01*
X137299500Y-118074138D01*
X137299500Y-131933908D01*
X137299500Y-132065692D01*
X137320317Y-132143383D01*
X137333607Y-132192983D01*
X137333610Y-132192990D01*
X137399497Y-132307110D01*
X137399505Y-132307120D01*
X137492679Y-132400294D01*
X137492684Y-132400298D01*
X137492686Y-132400300D01*
X137606814Y-132466192D01*
X137734108Y-132500300D01*
X137734110Y-132500300D01*
X150865890Y-132500300D01*
X150865892Y-132500300D01*
X150993186Y-132466192D01*
X151107314Y-132400300D01*
X151200500Y-132307114D01*
X151266392Y-132192986D01*
X151300500Y-132065692D01*
X151300500Y-127343613D01*
X151320502Y-127275492D01*
X151374158Y-127228999D01*
X151444432Y-127218895D01*
X151509012Y-127248389D01*
X151515595Y-127254518D01*
X152746595Y-128485518D01*
X152780621Y-128547830D01*
X152783500Y-128574613D01*
X152783500Y-129786963D01*
X152783501Y-129786973D01*
X152798265Y-129861200D01*
X152854516Y-129945384D01*
X152938697Y-130001633D01*
X152938699Y-130001634D01*
X153012933Y-130016400D01*
X154587066Y-130016399D01*
X154587069Y-130016398D01*
X154587073Y-130016398D01*
X154636326Y-130006601D01*
X154661301Y-130001634D01*
X154745484Y-129945384D01*
X154801734Y-129861201D01*
X154816500Y-129786967D01*
X154816499Y-128212834D01*
X154816498Y-128212830D01*
X154816498Y-128212826D01*
X154801734Y-128138599D01*
X154745483Y-128054415D01*
X154661302Y-127998166D01*
X154587069Y-127983400D01*
X154587067Y-127983400D01*
X153375713Y-127983400D01*
X153307592Y-127963398D01*
X153286618Y-127946495D01*
X152018505Y-126678382D01*
X151984479Y-126616070D01*
X151981600Y-126589287D01*
X151981600Y-117459288D01*
X151981601Y-117459275D01*
X151981601Y-117348676D01*
X151955601Y-117251645D01*
X151905378Y-117164656D01*
X151905370Y-117164646D01*
X151234953Y-116494229D01*
X151234943Y-116494221D01*
X151147958Y-116444000D01*
X151136492Y-116440927D01*
X151050925Y-116418000D01*
X151050923Y-116418000D01*
X150128813Y-116418000D01*
X150060692Y-116397998D01*
X150039718Y-116381095D01*
X149538217Y-115879594D01*
X149504191Y-115817282D01*
X149509256Y-115746467D01*
X149551803Y-115689631D01*
X149618323Y-115664820D01*
X149627287Y-115664499D01*
X150732686Y-115664499D01*
X150800807Y-115684501D01*
X150821781Y-115701404D01*
X153225546Y-118105170D01*
X153225551Y-118105174D01*
X153225553Y-118105176D01*
X153225554Y-118105177D01*
X153225556Y-118105178D01*
X153312542Y-118155400D01*
X153312544Y-118155400D01*
X153312547Y-118155402D01*
X153409575Y-118181400D01*
X153510025Y-118181400D01*
X154189687Y-118181400D01*
X154257808Y-118201402D01*
X154278782Y-118218305D01*
X154328682Y-118268205D01*
X154362708Y-118330517D01*
X154357643Y-118401332D01*
X154315096Y-118458168D01*
X154248576Y-118482979D01*
X154239587Y-118483300D01*
X153012936Y-118483300D01*
X153012926Y-118483301D01*
X152938699Y-118498065D01*
X152854515Y-118554316D01*
X152798266Y-118638497D01*
X152783500Y-118712730D01*
X152783500Y-120286863D01*
X152783501Y-120286873D01*
X152798265Y-120361100D01*
X152854516Y-120445284D01*
X152938697Y-120501533D01*
X152938699Y-120501534D01*
X153012933Y-120516300D01*
X154587066Y-120516299D01*
X154587069Y-120516298D01*
X154587073Y-120516298D01*
X154643744Y-120505026D01*
X154661301Y-120501534D01*
X154745484Y-120445284D01*
X154801734Y-120361101D01*
X154816500Y-120286867D01*
X154816499Y-119060211D01*
X154836501Y-118992091D01*
X154890157Y-118945598D01*
X154960431Y-118935494D01*
X155025011Y-118964987D01*
X155031594Y-118971117D01*
X155381495Y-119321018D01*
X155415521Y-119383330D01*
X155418400Y-119410113D01*
X155418400Y-145789686D01*
X155398398Y-145857807D01*
X155381495Y-145878781D01*
X154313880Y-146946395D01*
X154251568Y-146980421D01*
X154224785Y-146983300D01*
X153012936Y-146983300D01*
X153012926Y-146983301D01*
X152938699Y-146998065D01*
X152854515Y-147054316D01*
X152798266Y-147138497D01*
X152783500Y-147212730D01*
X152783500Y-148786863D01*
X152783501Y-148786873D01*
X152798265Y-148861100D01*
X152854516Y-148945284D01*
X152938697Y-149001533D01*
X152938699Y-149001534D01*
X153012933Y-149016300D01*
X154587066Y-149016299D01*
X154587069Y-149016298D01*
X154587073Y-149016298D01*
X154636326Y-149006501D01*
X154661301Y-149001534D01*
X154745484Y-148945284D01*
X154801734Y-148861101D01*
X154816500Y-148786867D01*
X154816499Y-147575012D01*
X154836501Y-147506892D01*
X154853399Y-147485922D01*
X156105176Y-146234147D01*
X156155402Y-146147153D01*
X156181401Y-146050125D01*
X156181401Y-145949675D01*
X156181401Y-145941958D01*
X156181400Y-145941940D01*
X156181400Y-142625812D01*
X156201402Y-142557691D01*
X156255058Y-142511198D01*
X156325332Y-142501094D01*
X156389912Y-142530588D01*
X156396486Y-142536708D01*
X163695123Y-149835246D01*
X163695124Y-149835247D01*
X163766153Y-149906276D01*
X163853146Y-149956501D01*
X163853148Y-149956501D01*
X163853149Y-149956502D01*
X163879146Y-149963467D01*
X163950175Y-149982500D01*
X163950176Y-149982500D01*
X184650023Y-149982500D01*
X184650025Y-149982500D01*
X184747054Y-149956501D01*
X184747057Y-149956499D01*
X184747058Y-149956499D01*
X184790550Y-149931388D01*
X184834047Y-149906276D01*
X184905076Y-149835247D01*
X184922796Y-149817527D01*
X184922798Y-149817523D01*
X188087117Y-146653203D01*
X188149429Y-146619178D01*
X188176212Y-146616299D01*
X189386864Y-146616299D01*
X189386866Y-146616299D01*
X189386869Y-146616298D01*
X189386872Y-146616298D01*
X189423463Y-146609019D01*
X189461101Y-146601534D01*
X189545284Y-146545284D01*
X189601534Y-146461101D01*
X189616300Y-146386867D01*
X189616299Y-144812734D01*
X189616298Y-144812730D01*
X189616298Y-144812726D01*
X189601534Y-144738499D01*
X189550591Y-144662259D01*
X189545284Y-144654316D01*
X189545283Y-144654315D01*
X189461102Y-144598066D01*
X189386867Y-144583300D01*
X187812736Y-144583300D01*
X187812726Y-144583301D01*
X187738499Y-144598065D01*
X187654315Y-144654316D01*
X187598066Y-144738497D01*
X187583300Y-144812730D01*
X187583300Y-146025787D01*
X187563298Y-146093908D01*
X187546395Y-146114882D01*
X184478682Y-149182595D01*
X184416370Y-149216621D01*
X184389587Y-149219500D01*
X164210612Y-149219500D01*
X164142491Y-149199498D01*
X164121517Y-149182596D01*
X157017205Y-142078380D01*
X156983180Y-142016068D01*
X156980300Y-141989284D01*
X156980300Y-133620177D01*
X157499400Y-133620177D01*
X157499400Y-134379622D01*
X157536777Y-135092799D01*
X157539145Y-135137986D01*
X157618525Y-135893244D01*
X157626320Y-135942458D01*
X157737323Y-136643310D01*
X157895217Y-137386140D01*
X158091769Y-138119682D01*
X158326436Y-138841912D01*
X158326451Y-138841954D01*
X158598590Y-139550899D01*
X158598591Y-139550903D01*
X158907475Y-140244666D01*
X159252252Y-140921328D01*
X159631956Y-141578993D01*
X159677269Y-141648769D01*
X160045121Y-142215212D01*
X160045560Y-142215887D01*
X160045580Y-142215916D01*
X160491918Y-142830247D01*
X160491925Y-142830255D01*
X160491936Y-142830271D01*
X160827024Y-143244071D01*
X160969843Y-143420438D01*
X160969861Y-143420459D01*
X161478005Y-143984809D01*
X161478019Y-143984824D01*
X162014975Y-144521780D01*
X162014990Y-144521794D01*
X162014993Y-144521797D01*
X162579350Y-145029947D01*
X163169529Y-145507864D01*
X163169547Y-145507877D01*
X163169552Y-145507881D01*
X163777623Y-145949671D01*
X163783911Y-145954239D01*
X164420812Y-146367847D01*
X164600885Y-146471812D01*
X165053969Y-146733401D01*
X165078487Y-146747556D01*
X165755134Y-147092325D01*
X166122736Y-147255992D01*
X166448896Y-147401208D01*
X166448898Y-147401208D01*
X167157874Y-147673359D01*
X167482423Y-147778811D01*
X167880117Y-147908030D01*
X167880121Y-147908031D01*
X167880124Y-147908032D01*
X168613665Y-148104584D01*
X169356488Y-148262476D01*
X170106556Y-148381275D01*
X170861814Y-148460655D01*
X171620177Y-148500399D01*
X171620178Y-148500400D01*
X171620191Y-148500400D01*
X172379622Y-148500400D01*
X172379622Y-148500399D01*
X173137986Y-148460655D01*
X173893244Y-148381275D01*
X174643312Y-148262476D01*
X175386135Y-148104584D01*
X176119676Y-147908032D01*
X176841926Y-147673359D01*
X177550903Y-147401208D01*
X178244666Y-147092325D01*
X178921313Y-146747556D01*
X179578988Y-146367847D01*
X180215889Y-145954239D01*
X180830271Y-145507864D01*
X181420450Y-145029947D01*
X181984807Y-144521797D01*
X182521797Y-143984807D01*
X183029947Y-143420450D01*
X183507864Y-142830271D01*
X183954239Y-142215889D01*
X184367847Y-141578988D01*
X184747556Y-140921313D01*
X185092325Y-140244666D01*
X185401208Y-139550903D01*
X185673359Y-138841926D01*
X185908032Y-138119676D01*
X186104584Y-137386135D01*
X186226465Y-136812730D01*
X187583300Y-136812730D01*
X187583300Y-138386863D01*
X187583301Y-138386873D01*
X187598065Y-138461100D01*
X187654316Y-138545284D01*
X187738497Y-138601533D01*
X187738499Y-138601534D01*
X187812733Y-138616300D01*
X189386866Y-138616299D01*
X189386869Y-138616298D01*
X189386873Y-138616298D01*
X189436126Y-138606501D01*
X189461101Y-138601534D01*
X189545284Y-138545284D01*
X189601534Y-138461101D01*
X189616300Y-138386867D01*
X189616299Y-136812734D01*
X189616298Y-136812730D01*
X189616298Y-136812726D01*
X189601534Y-136738499D01*
X189545283Y-136654315D01*
X189461102Y-136598066D01*
X189386867Y-136583300D01*
X187812736Y-136583300D01*
X187812726Y-136583301D01*
X187738499Y-136598065D01*
X187654315Y-136654316D01*
X187598066Y-136738497D01*
X187583300Y-136812730D01*
X186226465Y-136812730D01*
X186262476Y-136643312D01*
X186381275Y-135893244D01*
X186460655Y-135137986D01*
X186500399Y-134379622D01*
X186500400Y-134379622D01*
X186500400Y-133620178D01*
X186500399Y-133620177D01*
X186483055Y-133289230D01*
X186460655Y-132861814D01*
X186381275Y-132106556D01*
X186262476Y-131356488D01*
X186104584Y-130613665D01*
X185908032Y-129880124D01*
X185877765Y-129786973D01*
X185673363Y-129157887D01*
X185673359Y-129157874D01*
X185645013Y-129084030D01*
X187609200Y-129084030D01*
X187609200Y-130658163D01*
X187609201Y-130658173D01*
X187623965Y-130732400D01*
X187680216Y-130816584D01*
X187764397Y-130872833D01*
X187764399Y-130872834D01*
X187838633Y-130887600D01*
X189412766Y-130887599D01*
X189412769Y-130887598D01*
X189412773Y-130887598D01*
X189462026Y-130877801D01*
X189487001Y-130872834D01*
X189571184Y-130816584D01*
X189627434Y-130732401D01*
X189642200Y-130658167D01*
X189642199Y-129084034D01*
X189642198Y-129084030D01*
X189642198Y-129084026D01*
X189627434Y-129009799D01*
X189571183Y-128925615D01*
X189487002Y-128869366D01*
X189412767Y-128854600D01*
X187838636Y-128854600D01*
X187838626Y-128854601D01*
X187764399Y-128869365D01*
X187680215Y-128925616D01*
X187623966Y-129009797D01*
X187609200Y-129084030D01*
X185645013Y-129084030D01*
X185401208Y-128448897D01*
X185296102Y-128212826D01*
X185193956Y-127983401D01*
X185092325Y-127755134D01*
X184747556Y-127078487D01*
X184725002Y-127039423D01*
X184591974Y-126809012D01*
X184367847Y-126420812D01*
X183954239Y-125783911D01*
X183935844Y-125758593D01*
X183507881Y-125169552D01*
X183507877Y-125169547D01*
X183507864Y-125169529D01*
X183029947Y-124579350D01*
X182521797Y-124014993D01*
X182521794Y-124014990D01*
X182521780Y-124014975D01*
X181984824Y-123478019D01*
X181984809Y-123478005D01*
X181420459Y-122969861D01*
X181420438Y-122969843D01*
X181244071Y-122827024D01*
X180830271Y-122491936D01*
X180830255Y-122491925D01*
X180830247Y-122491918D01*
X180215916Y-122045580D01*
X180215899Y-122045568D01*
X180215889Y-122045561D01*
X179578988Y-121631953D01*
X179401231Y-121529325D01*
X178921328Y-121252252D01*
X178921318Y-121252247D01*
X178921313Y-121252244D01*
X178244666Y-120907475D01*
X177550903Y-120598591D01*
X177550899Y-120598590D01*
X176841954Y-120326451D01*
X176841912Y-120326436D01*
X176119682Y-120091769D01*
X175386140Y-119895217D01*
X174643310Y-119737323D01*
X173893253Y-119618526D01*
X173893245Y-119618525D01*
X173893244Y-119618525D01*
X173137986Y-119539145D01*
X173137977Y-119539144D01*
X173137972Y-119539144D01*
X172379622Y-119499400D01*
X172379609Y-119499400D01*
X171620191Y-119499400D01*
X171620178Y-119499400D01*
X170861827Y-119539144D01*
X170861820Y-119539144D01*
X170861814Y-119539145D01*
X170198893Y-119608820D01*
X170106546Y-119618526D01*
X169356489Y-119737323D01*
X168613659Y-119895217D01*
X167880117Y-120091769D01*
X167157887Y-120326436D01*
X167157845Y-120326451D01*
X166448900Y-120598590D01*
X166448896Y-120598591D01*
X165755133Y-120907475D01*
X165078471Y-121252252D01*
X164420806Y-121631956D01*
X163783912Y-122045560D01*
X163783883Y-122045580D01*
X163169552Y-122491918D01*
X163169514Y-122491948D01*
X162579361Y-122969843D01*
X162579340Y-122969861D01*
X162014990Y-123478005D01*
X162014975Y-123478019D01*
X161478019Y-124014975D01*
X161478005Y-124014990D01*
X160969861Y-124579340D01*
X160969843Y-124579361D01*
X160491948Y-125169514D01*
X160491918Y-125169552D01*
X160045580Y-125783883D01*
X160045560Y-125783912D01*
X159631956Y-126420806D01*
X159252252Y-127078471D01*
X158907475Y-127755133D01*
X158598591Y-128448896D01*
X158598590Y-128448900D01*
X158326451Y-129157845D01*
X158326436Y-129157887D01*
X158091769Y-129880117D01*
X157895217Y-130613659D01*
X157737323Y-131356489D01*
X157618526Y-132106546D01*
X157618525Y-132106556D01*
X157580727Y-132466189D01*
X157539144Y-132861827D01*
X157499400Y-133620177D01*
X156980300Y-133620177D01*
X156980300Y-118412730D01*
X163383400Y-118412730D01*
X163383400Y-119986863D01*
X163383401Y-119986873D01*
X163398165Y-120061100D01*
X163454416Y-120145284D01*
X163538597Y-120201533D01*
X163538599Y-120201534D01*
X163612833Y-120216300D01*
X165186966Y-120216299D01*
X165186969Y-120216298D01*
X165186973Y-120216298D01*
X165236226Y-120206501D01*
X165261201Y-120201534D01*
X165345384Y-120145284D01*
X165401634Y-120061101D01*
X165416400Y-119986867D01*
X165416399Y-118924030D01*
X187609200Y-118924030D01*
X187609200Y-120498163D01*
X187609201Y-120498173D01*
X187623965Y-120572400D01*
X187680216Y-120656584D01*
X187764397Y-120712833D01*
X187764399Y-120712834D01*
X187838633Y-120727600D01*
X189412766Y-120727599D01*
X189412769Y-120727598D01*
X189412773Y-120727598D01*
X189462026Y-120717801D01*
X189487001Y-120712834D01*
X189571184Y-120656584D01*
X189627434Y-120572401D01*
X189642200Y-120498167D01*
X189642199Y-118924034D01*
X189642198Y-118924030D01*
X189642198Y-118924026D01*
X189627434Y-118849799D01*
X189571183Y-118765615D01*
X189487002Y-118709366D01*
X189412767Y-118694600D01*
X187838636Y-118694600D01*
X187838626Y-118694601D01*
X187764399Y-118709365D01*
X187680215Y-118765616D01*
X187623966Y-118849797D01*
X187609200Y-118924030D01*
X165416399Y-118924030D01*
X165416399Y-118412734D01*
X165416398Y-118412730D01*
X165416398Y-118412726D01*
X165401634Y-118338499D01*
X165401633Y-118338497D01*
X165345384Y-118254316D01*
X165345383Y-118254315D01*
X165261202Y-118198066D01*
X165186967Y-118183300D01*
X163612836Y-118183300D01*
X163612826Y-118183301D01*
X163538599Y-118198065D01*
X163454415Y-118254316D01*
X163398166Y-118338497D01*
X163383400Y-118412730D01*
X156980300Y-118412730D01*
X156980300Y-118349476D01*
X156975220Y-118330517D01*
X156954301Y-118252446D01*
X156954299Y-118252443D01*
X156954299Y-118252441D01*
X156904078Y-118165456D01*
X156904074Y-118165451D01*
X156894023Y-118155400D01*
X156833047Y-118094424D01*
X154618217Y-115879594D01*
X154584191Y-115817282D01*
X154589256Y-115746467D01*
X154631803Y-115689631D01*
X154698323Y-115664820D01*
X154707287Y-115664499D01*
X156174966Y-115664499D01*
X156174969Y-115664498D01*
X156174973Y-115664498D01*
X156224226Y-115654701D01*
X156249201Y-115649734D01*
X156333384Y-115593484D01*
X156389634Y-115509301D01*
X156404400Y-115435067D01*
X156404399Y-113784934D01*
X156404398Y-113784927D01*
X156404398Y-113784926D01*
X156389634Y-113710699D01*
X156333383Y-113626515D01*
X156249202Y-113570266D01*
X156174967Y-113555500D01*
X154524836Y-113555500D01*
X154524826Y-113555501D01*
X154450599Y-113570265D01*
X154366415Y-113626516D01*
X154310166Y-113710697D01*
X154295400Y-113784930D01*
X154295400Y-115252587D01*
X154275398Y-115320708D01*
X154221742Y-115367201D01*
X154151468Y-115377305D01*
X154086888Y-115347811D01*
X154080305Y-115341682D01*
X153901304Y-115162681D01*
X153867278Y-115100369D01*
X153864399Y-115073586D01*
X153864399Y-113784936D01*
X153864398Y-113784927D01*
X153849634Y-113710699D01*
X153793383Y-113626515D01*
X153709202Y-113570266D01*
X153634967Y-113555500D01*
X151984836Y-113555500D01*
X151984826Y-113555501D01*
X151910599Y-113570265D01*
X151826415Y-113626516D01*
X151770166Y-113710697D01*
X151755400Y-113784930D01*
X151755400Y-115251787D01*
X151735398Y-115319908D01*
X151681742Y-115366401D01*
X151611468Y-115376505D01*
X151546888Y-115347011D01*
X151540305Y-115340882D01*
X151361304Y-115161881D01*
X151327278Y-115099569D01*
X151324399Y-115072786D01*
X151324399Y-113784936D01*
X151324398Y-113784927D01*
X151309634Y-113710699D01*
X151253383Y-113626515D01*
X151169202Y-113570266D01*
X151094967Y-113555500D01*
X149444836Y-113555500D01*
X149444826Y-113555501D01*
X149370599Y-113570265D01*
X149286415Y-113626516D01*
X149230166Y-113710697D01*
X149215400Y-113784930D01*
X149215400Y-115252587D01*
X149195398Y-115320708D01*
X149141742Y-115367201D01*
X149071468Y-115377305D01*
X149006888Y-115347811D01*
X149000305Y-115341682D01*
X148821304Y-115162681D01*
X148787278Y-115100369D01*
X148784399Y-115073586D01*
X148784399Y-113784936D01*
X148784398Y-113784927D01*
X148769634Y-113710699D01*
X148713383Y-113626515D01*
X148629202Y-113570266D01*
X148554967Y-113555500D01*
X146904836Y-113555500D01*
X146904826Y-113555501D01*
X146830599Y-113570265D01*
X146746415Y-113626516D01*
X146690166Y-113710697D01*
X146675400Y-113784930D01*
X146675400Y-115435063D01*
X146675401Y-115435073D01*
X146690165Y-115509300D01*
X146746416Y-115593484D01*
X146830597Y-115649733D01*
X146830599Y-115649734D01*
X146904833Y-115664500D01*
X148191886Y-115664499D01*
X148260007Y-115684501D01*
X148280981Y-115701404D01*
X149684346Y-117104770D01*
X149684351Y-117104774D01*
X149684353Y-117104776D01*
X149771347Y-117155002D01*
X149868375Y-117181001D01*
X149868377Y-117181001D01*
X149976543Y-117181001D01*
X149976559Y-117181000D01*
X150790487Y-117181000D01*
X150858608Y-117201002D01*
X150879582Y-117217905D01*
X150946782Y-117285105D01*
X150980808Y-117347417D01*
X150975743Y-117418232D01*
X150933196Y-117475068D01*
X150866676Y-117499879D01*
X150857687Y-117500200D01*
X150800921Y-117500200D01*
X137874042Y-117499205D01*
X137873956Y-117499200D01*
X137865892Y-117499200D01*
X137799156Y-117499200D01*
X137734142Y-117499194D01*
X137734114Y-117499198D01*
X137669938Y-117516393D01*
X137669931Y-117516395D01*
X137606831Y-117533297D01*
X137565910Y-117556923D01*
X137551307Y-117565354D01*
X137492717Y-117599176D01*
X137492702Y-117599190D01*
X137492686Y-117599200D01*
X137449000Y-117642886D01*
X137399524Y-117692355D01*
X137399514Y-117692371D01*
X137399500Y-117692386D01*
X137366424Y-117749675D01*
X137333623Y-117806478D01*
X137333617Y-117806496D01*
X137333608Y-117806514D01*
X137316285Y-117871162D01*
X137313265Y-117882427D01*
X137313264Y-117882431D01*
X137299500Y-117933788D01*
X137299500Y-117999671D01*
X137299494Y-118074049D01*
X133464043Y-118074049D01*
X133553059Y-117985010D01*
X135119845Y-116417816D01*
X135182153Y-116383783D01*
X135208952Y-116380900D01*
X143740797Y-116380900D01*
X143740825Y-116380901D01*
X143749585Y-116380900D01*
X143749589Y-116380902D01*
X143816555Y-116380900D01*
X143816557Y-116380900D01*
X143844734Y-116380900D01*
X143850025Y-116380900D01*
X143850028Y-116380899D01*
X143850039Y-116380899D01*
X143908892Y-116365126D01*
X143947054Y-116354901D01*
X143947059Y-116354897D01*
X143947066Y-116354896D01*
X143983710Y-116333737D01*
X144034047Y-116304676D01*
X144034053Y-116304669D01*
X144034058Y-116304667D01*
X144061873Y-116276849D01*
X144105076Y-116233647D01*
X144105077Y-116233644D01*
X144112239Y-116226483D01*
X144112257Y-116226461D01*
X144592217Y-115746467D01*
X144637274Y-115701407D01*
X144699586Y-115667379D01*
X144726373Y-115664499D01*
X146014964Y-115664499D01*
X146014966Y-115664499D01*
X146014969Y-115664498D01*
X146014972Y-115664498D01*
X146062212Y-115655102D01*
X146089201Y-115649734D01*
X146173384Y-115593484D01*
X146229634Y-115509301D01*
X146244400Y-115435067D01*
X146244399Y-113784934D01*
X146244398Y-113784927D01*
X146244398Y-113784926D01*
X146229634Y-113710699D01*
X146173383Y-113626515D01*
X146089202Y-113570266D01*
X146014967Y-113555500D01*
X144364836Y-113555500D01*
X144364826Y-113555501D01*
X144290599Y-113570265D01*
X144206415Y-113626516D01*
X144150166Y-113710697D01*
X144135400Y-113784930D01*
X144135400Y-115072043D01*
X144115398Y-115140164D01*
X144098499Y-115161135D01*
X143919498Y-115340149D01*
X143857187Y-115374177D01*
X143786371Y-115369114D01*
X143729534Y-115326570D01*
X143704720Y-115260050D01*
X143704399Y-115251081D01*
X143704399Y-113784934D01*
X143704398Y-113784927D01*
X143704398Y-113784926D01*
X143689634Y-113710699D01*
X143633383Y-113626515D01*
X143549202Y-113570266D01*
X143474967Y-113555500D01*
X141824836Y-113555500D01*
X141824826Y-113555501D01*
X141750599Y-113570265D01*
X141666415Y-113626516D01*
X141610166Y-113710697D01*
X141595400Y-113784930D01*
X141595400Y-115435063D01*
X141595401Y-115435073D01*
X141601816Y-115467320D01*
X141595488Y-115538034D01*
X141551933Y-115594100D01*
X141484980Y-115617719D01*
X141478237Y-115617900D01*
X141281564Y-115617900D01*
X141213443Y-115597898D01*
X141166950Y-115544242D01*
X141156846Y-115473968D01*
X141157985Y-115467318D01*
X141158870Y-115462867D01*
X141164400Y-115435067D01*
X141164399Y-113784934D01*
X141164398Y-113784927D01*
X141164398Y-113784926D01*
X141149634Y-113710699D01*
X141093383Y-113626515D01*
X141009202Y-113570266D01*
X140934969Y-113555500D01*
X139467404Y-113555500D01*
X139399283Y-113535498D01*
X139352790Y-113481842D01*
X139342686Y-113411568D01*
X139372180Y-113346988D01*
X139378295Y-113340418D01*
X143066825Y-109651833D01*
X144637230Y-108081404D01*
X144699542Y-108047379D01*
X144726326Y-108044499D01*
X146014964Y-108044499D01*
X146014966Y-108044499D01*
X146014969Y-108044498D01*
X146014972Y-108044498D01*
X146051563Y-108037219D01*
X146089201Y-108029734D01*
X146173384Y-107973484D01*
X146229634Y-107889301D01*
X146244400Y-107815067D01*
X146244399Y-106164934D01*
X146244399Y-106164933D01*
X146244399Y-106164931D01*
X146244399Y-106164930D01*
X146675400Y-106164930D01*
X146675400Y-107815063D01*
X146675401Y-107815073D01*
X146690165Y-107889300D01*
X146746416Y-107973484D01*
X146830597Y-108029733D01*
X146830599Y-108029734D01*
X146904833Y-108044500D01*
X148554966Y-108044499D01*
X148554969Y-108044498D01*
X148554973Y-108044498D01*
X148611453Y-108033264D01*
X148629201Y-108029734D01*
X148713384Y-107973484D01*
X148769634Y-107889301D01*
X148784400Y-107815067D01*
X148784399Y-106164934D01*
X148784399Y-106164933D01*
X148784399Y-106164931D01*
X148784399Y-106164930D01*
X149215400Y-106164930D01*
X149215400Y-107815063D01*
X149215401Y-107815073D01*
X149230165Y-107889300D01*
X149286416Y-107973484D01*
X149370597Y-108029733D01*
X149370599Y-108029734D01*
X149444833Y-108044500D01*
X151094966Y-108044499D01*
X151094969Y-108044498D01*
X151094973Y-108044498D01*
X151151453Y-108033264D01*
X151169201Y-108029734D01*
X151253384Y-107973484D01*
X151309634Y-107889301D01*
X151324400Y-107815067D01*
X151324399Y-106164934D01*
X151324399Y-106164933D01*
X151324399Y-106164931D01*
X151324399Y-106164930D01*
X151755400Y-106164930D01*
X151755400Y-107815063D01*
X151755401Y-107815073D01*
X151770165Y-107889300D01*
X151826416Y-107973484D01*
X151910597Y-108029733D01*
X151910599Y-108029734D01*
X151984833Y-108044500D01*
X153634966Y-108044499D01*
X153634969Y-108044498D01*
X153634973Y-108044498D01*
X153691453Y-108033264D01*
X153709201Y-108029734D01*
X153793384Y-107973484D01*
X153849634Y-107889301D01*
X153864400Y-107815067D01*
X153864399Y-106164934D01*
X153864399Y-106164933D01*
X153864399Y-106164931D01*
X153864399Y-106164930D01*
X154295400Y-106164930D01*
X154295400Y-107815063D01*
X154295401Y-107815073D01*
X154310165Y-107889300D01*
X154366416Y-107973484D01*
X154450597Y-108029733D01*
X154450599Y-108029734D01*
X154524833Y-108044500D01*
X156174966Y-108044499D01*
X156174969Y-108044498D01*
X156174973Y-108044498D01*
X156231453Y-108033264D01*
X156249201Y-108029734D01*
X156333384Y-107973484D01*
X156389634Y-107889301D01*
X156404400Y-107815067D01*
X156404399Y-106164934D01*
X156404398Y-106164931D01*
X156404398Y-106164926D01*
X156389634Y-106090699D01*
X156389633Y-106090697D01*
X156333384Y-106006516D01*
X156333383Y-106006515D01*
X156249202Y-105950266D01*
X156174967Y-105935500D01*
X154524836Y-105935500D01*
X154524826Y-105935501D01*
X154450599Y-105950265D01*
X154366415Y-106006516D01*
X154310166Y-106090697D01*
X154295400Y-106164930D01*
X153864399Y-106164930D01*
X153849634Y-106090699D01*
X153849633Y-106090697D01*
X153793384Y-106006516D01*
X153793383Y-106006515D01*
X153709202Y-105950266D01*
X153634967Y-105935500D01*
X151984836Y-105935500D01*
X151984826Y-105935501D01*
X151910599Y-105950265D01*
X151826415Y-106006516D01*
X151770166Y-106090697D01*
X151755400Y-106164930D01*
X151324399Y-106164930D01*
X151309634Y-106090699D01*
X151309633Y-106090697D01*
X151253384Y-106006516D01*
X151253383Y-106006515D01*
X151169202Y-105950266D01*
X151094967Y-105935500D01*
X149444836Y-105935500D01*
X149444826Y-105935501D01*
X149370599Y-105950265D01*
X149286415Y-106006516D01*
X149230166Y-106090697D01*
X149215400Y-106164930D01*
X148784399Y-106164930D01*
X148769634Y-106090699D01*
X148769633Y-106090697D01*
X148713384Y-106006516D01*
X148713383Y-106006515D01*
X148629202Y-105950266D01*
X148554967Y-105935500D01*
X146904836Y-105935500D01*
X146904826Y-105935501D01*
X146830599Y-105950265D01*
X146746415Y-106006516D01*
X146690166Y-106090697D01*
X146675400Y-106164930D01*
X146244399Y-106164930D01*
X146229634Y-106090699D01*
X146229633Y-106090697D01*
X146173384Y-106006516D01*
X146173383Y-106006515D01*
X146089202Y-105950266D01*
X146014967Y-105935500D01*
X144364836Y-105935500D01*
X144364826Y-105935501D01*
X144290599Y-105950265D01*
X144206415Y-106006516D01*
X144150166Y-106090697D01*
X144135400Y-106164930D01*
X144135400Y-107451997D01*
X144115398Y-107520118D01*
X144098496Y-107541092D01*
X139204255Y-112435409D01*
X138366155Y-113273522D01*
X138366153Y-113273524D01*
X138330639Y-113309038D01*
X138295125Y-113344551D01*
X138295121Y-113344556D01*
X138244904Y-113431535D01*
X138244896Y-113431551D01*
X138218899Y-113528578D01*
X138218899Y-113528579D01*
X138218900Y-113596861D01*
X138218900Y-114389587D01*
X138198898Y-114457708D01*
X138181995Y-114478682D01*
X137679182Y-114981495D01*
X137616870Y-115015521D01*
X137590087Y-115018400D01*
X133147575Y-115018400D01*
X133088190Y-115034312D01*
X133050541Y-115044400D01*
X132963556Y-115094621D01*
X132963551Y-115094625D01*
X132933945Y-115124232D01*
X132892524Y-115165653D01*
X132892522Y-115165655D01*
X121746930Y-126311245D01*
X121746928Y-126311248D01*
X121693629Y-126364546D01*
X121693621Y-126364556D01*
X121643400Y-126451541D01*
X121617400Y-126548576D01*
X121617400Y-127857400D01*
X121597398Y-127925521D01*
X121543742Y-127972014D01*
X121491400Y-127983400D01*
X121212936Y-127983400D01*
X121212926Y-127983401D01*
X121138699Y-127998165D01*
X121054515Y-128054416D01*
X120998266Y-128138597D01*
X120983500Y-128212830D01*
X119250400Y-128212830D01*
X119250400Y-118712930D01*
X120983500Y-118712930D01*
X120983500Y-120287063D01*
X120983501Y-120287073D01*
X120998265Y-120361300D01*
X121054516Y-120445484D01*
X121138697Y-120501733D01*
X121138699Y-120501734D01*
X121212933Y-120516500D01*
X122787066Y-120516499D01*
X122787069Y-120516498D01*
X122787073Y-120516498D01*
X122836326Y-120506701D01*
X122861301Y-120501734D01*
X122945484Y-120445484D01*
X123001734Y-120361301D01*
X123016500Y-120287067D01*
X123016499Y-118712934D01*
X123016498Y-118712930D01*
X123016498Y-118712926D01*
X123001734Y-118638699D01*
X122993414Y-118626247D01*
X122945484Y-118554516D01*
X122945185Y-118554316D01*
X122861302Y-118498266D01*
X122787067Y-118483500D01*
X121212936Y-118483500D01*
X121212926Y-118483501D01*
X121138699Y-118498265D01*
X121054515Y-118554516D01*
X120998266Y-118638697D01*
X120983500Y-118712930D01*
X119250400Y-118712930D01*
X119250400Y-117884308D01*
X119216292Y-117757014D01*
X119178961Y-117692355D01*
X119150402Y-117642889D01*
X119150394Y-117642879D01*
X119057220Y-117549705D01*
X119057210Y-117549697D01*
X118943090Y-117483810D01*
X118943087Y-117483809D01*
X118943086Y-117483808D01*
X118943084Y-117483807D01*
X118943083Y-117483807D01*
X118908973Y-117474667D01*
X118815792Y-117449700D01*
X105815892Y-117449700D01*
X105684108Y-117449700D01*
X105615894Y-117467977D01*
X105556816Y-117483807D01*
X105556809Y-117483810D01*
X105442689Y-117549697D01*
X105442679Y-117549705D01*
X105349505Y-117642879D01*
X105349497Y-117642889D01*
X105283610Y-117757009D01*
X105283607Y-117757016D01*
X105261983Y-117837717D01*
X105249500Y-117884308D01*
X100500500Y-117884308D01*
X100500500Y-115758900D01*
X100520502Y-115690779D01*
X100574158Y-115644286D01*
X100626500Y-115632900D01*
X103186790Y-115632900D01*
X103186791Y-115632900D01*
X103309569Y-115608478D01*
X103425222Y-115560573D01*
X103529308Y-115491025D01*
X106117225Y-112903108D01*
X106186773Y-112799022D01*
X106234678Y-112683369D01*
X106259100Y-112560591D01*
X106259100Y-112435409D01*
X106259100Y-107863030D01*
X135640000Y-107863030D01*
X135640000Y-109437163D01*
X135640001Y-109437173D01*
X135654765Y-109511400D01*
X135711016Y-109595584D01*
X135795197Y-109651833D01*
X135795199Y-109651834D01*
X135869433Y-109666600D01*
X137443566Y-109666599D01*
X137443569Y-109666598D01*
X137443573Y-109666598D01*
X137492826Y-109656801D01*
X137517801Y-109651834D01*
X137601984Y-109595584D01*
X137658234Y-109511401D01*
X137673000Y-109437167D01*
X137672999Y-107863034D01*
X137672998Y-107863030D01*
X137672998Y-107863026D01*
X137658234Y-107788799D01*
X137655990Y-107785440D01*
X137601984Y-107704616D01*
X137601983Y-107704615D01*
X137517802Y-107648366D01*
X137443567Y-107633600D01*
X135869436Y-107633600D01*
X135869426Y-107633601D01*
X135795199Y-107648365D01*
X135711015Y-107704616D01*
X135654766Y-107788797D01*
X135640000Y-107863030D01*
X106259100Y-107863030D01*
X106259100Y-107434209D01*
X106234678Y-107311431D01*
X106186773Y-107195778D01*
X106117225Y-107091692D01*
X106028708Y-107003175D01*
X105190463Y-106164930D01*
X139055400Y-106164930D01*
X139055400Y-107815063D01*
X139055401Y-107815073D01*
X139070165Y-107889300D01*
X139126416Y-107973484D01*
X139210597Y-108029733D01*
X139210599Y-108029734D01*
X139284833Y-108044500D01*
X140934966Y-108044499D01*
X140934969Y-108044498D01*
X140934973Y-108044498D01*
X140991453Y-108033264D01*
X141009201Y-108029734D01*
X141093384Y-107973484D01*
X141149634Y-107889301D01*
X141164400Y-107815067D01*
X141164399Y-106164934D01*
X141164398Y-106164931D01*
X141164398Y-106164926D01*
X141149634Y-106090699D01*
X141149633Y-106090697D01*
X141093384Y-106006516D01*
X141093383Y-106006515D01*
X141009202Y-105950266D01*
X140934967Y-105935500D01*
X139284836Y-105935500D01*
X139284826Y-105935501D01*
X139210599Y-105950265D01*
X139126415Y-106006516D01*
X139070166Y-106090697D01*
X139055400Y-106164930D01*
X105190463Y-106164930D01*
X103531808Y-104506275D01*
X103427722Y-104436727D01*
X103358608Y-104408099D01*
X103312074Y-104388824D01*
X103312069Y-104388822D01*
X103189293Y-104364400D01*
X103189291Y-104364400D01*
X100626500Y-104364400D01*
X100558379Y-104344398D01*
X100511886Y-104290742D01*
X100500500Y-104238400D01*
X100500500Y-102604530D01*
X115123400Y-102604530D01*
X115123400Y-104178663D01*
X115123401Y-104178673D01*
X115138165Y-104252900D01*
X115194416Y-104337084D01*
X115278597Y-104393333D01*
X115278599Y-104393334D01*
X115352833Y-104408100D01*
X116926966Y-104408099D01*
X116926969Y-104408098D01*
X116926973Y-104408098D01*
X116976226Y-104398301D01*
X117001201Y-104393334D01*
X117085384Y-104337084D01*
X117141634Y-104252901D01*
X117156400Y-104178667D01*
X117156399Y-102604534D01*
X117156398Y-102604530D01*
X117156398Y-102604526D01*
X117147009Y-102557323D01*
X117145138Y-102547916D01*
X117143351Y-102538930D01*
X118162300Y-102538930D01*
X118162300Y-104113063D01*
X118162301Y-104113073D01*
X118177065Y-104187300D01*
X118233316Y-104271484D01*
X118317497Y-104327733D01*
X118317499Y-104327734D01*
X118391733Y-104342500D01*
X119965866Y-104342499D01*
X119965869Y-104342498D01*
X119965873Y-104342498D01*
X120015126Y-104332701D01*
X120040101Y-104327734D01*
X120124284Y-104271484D01*
X120180534Y-104187301D01*
X120195300Y-104113067D01*
X120195299Y-102538934D01*
X120195299Y-102538933D01*
X120195299Y-102538931D01*
X120195299Y-102538930D01*
X128322300Y-102538930D01*
X128322300Y-104113063D01*
X128322301Y-104113073D01*
X128337065Y-104187300D01*
X128393316Y-104271484D01*
X128477497Y-104327733D01*
X128477499Y-104327734D01*
X128551733Y-104342500D01*
X130125866Y-104342499D01*
X130125869Y-104342498D01*
X130125873Y-104342498D01*
X130175126Y-104332701D01*
X130200101Y-104327734D01*
X130284284Y-104271484D01*
X130340534Y-104187301D01*
X130355300Y-104113067D01*
X130355299Y-102538934D01*
X130355298Y-102538931D01*
X130355298Y-102538926D01*
X130340534Y-102464699D01*
X130308866Y-102417305D01*
X130284284Y-102380516D01*
X130284112Y-102380401D01*
X130200102Y-102324266D01*
X130125867Y-102309500D01*
X128551736Y-102309500D01*
X128551726Y-102309501D01*
X128477499Y-102324265D01*
X128393315Y-102380516D01*
X128337066Y-102464697D01*
X128322300Y-102538930D01*
X120195299Y-102538930D01*
X120180534Y-102464699D01*
X120148866Y-102417305D01*
X120124284Y-102380516D01*
X120124112Y-102380401D01*
X120040102Y-102324266D01*
X119965867Y-102309500D01*
X118391736Y-102309500D01*
X118391726Y-102309501D01*
X118317499Y-102324265D01*
X118233315Y-102380516D01*
X118177066Y-102464697D01*
X118162300Y-102538930D01*
X117143351Y-102538930D01*
X117141634Y-102530299D01*
X117085384Y-102446116D01*
X117076505Y-102440183D01*
X117001202Y-102389866D01*
X116926967Y-102375100D01*
X115352836Y-102375100D01*
X115352826Y-102375101D01*
X115278599Y-102389865D01*
X115194415Y-102446116D01*
X115138166Y-102530297D01*
X115123400Y-102604530D01*
X100500500Y-102604530D01*
X100500500Y-100064530D01*
X115123400Y-100064530D01*
X115123400Y-101638663D01*
X115123401Y-101638673D01*
X115138165Y-101712900D01*
X115194416Y-101797084D01*
X115278597Y-101853333D01*
X115278599Y-101853334D01*
X115352833Y-101868100D01*
X116926966Y-101868099D01*
X116926969Y-101868098D01*
X116926973Y-101868098D01*
X116976226Y-101858301D01*
X117001201Y-101853334D01*
X117085384Y-101797084D01*
X117141634Y-101712901D01*
X117156400Y-101638667D01*
X117156399Y-100064534D01*
X117156398Y-100064530D01*
X117156398Y-100064526D01*
X117155005Y-100057523D01*
X117151347Y-100039130D01*
X118162300Y-100039130D01*
X118162300Y-101613263D01*
X118162301Y-101613273D01*
X118177065Y-101687500D01*
X118233316Y-101771684D01*
X118317497Y-101827933D01*
X118317499Y-101827934D01*
X118391733Y-101842700D01*
X119965866Y-101842699D01*
X119965869Y-101842698D01*
X119965873Y-101842698D01*
X120015126Y-101832901D01*
X120040101Y-101827934D01*
X120124284Y-101771684D01*
X120180534Y-101687501D01*
X120195300Y-101613267D01*
X120195299Y-100039134D01*
X120195299Y-100039133D01*
X120195299Y-100039131D01*
X120195299Y-100039130D01*
X128322300Y-100039130D01*
X128322300Y-101613263D01*
X128322301Y-101613273D01*
X128337065Y-101687500D01*
X128393316Y-101771684D01*
X128477497Y-101827933D01*
X128477499Y-101827934D01*
X128551733Y-101842700D01*
X130125866Y-101842699D01*
X130125869Y-101842698D01*
X130125873Y-101842698D01*
X130175126Y-101832901D01*
X130200101Y-101827934D01*
X130284284Y-101771684D01*
X130340534Y-101687501D01*
X130355300Y-101613267D01*
X130355299Y-100039134D01*
X130355298Y-100039131D01*
X130355298Y-100039126D01*
X130340534Y-99964899D01*
X130284283Y-99880715D01*
X130200102Y-99824466D01*
X130125867Y-99809700D01*
X128551736Y-99809700D01*
X128551726Y-99809701D01*
X128477499Y-99824465D01*
X128393315Y-99880716D01*
X128337066Y-99964897D01*
X128322300Y-100039130D01*
X120195299Y-100039130D01*
X120180534Y-99964899D01*
X120124283Y-99880715D01*
X120040102Y-99824466D01*
X119965867Y-99809700D01*
X118391736Y-99809700D01*
X118391726Y-99809701D01*
X118317499Y-99824465D01*
X118233315Y-99880716D01*
X118177066Y-99964897D01*
X118162300Y-100039130D01*
X117151347Y-100039130D01*
X117141634Y-99990299D01*
X117085383Y-99906115D01*
X117001202Y-99849866D01*
X116926967Y-99835100D01*
X115352836Y-99835100D01*
X115352826Y-99835101D01*
X115278599Y-99849865D01*
X115194415Y-99906116D01*
X115138166Y-99990297D01*
X115123400Y-100064530D01*
X100500500Y-100064530D01*
X100500500Y-97524530D01*
X115123400Y-97524530D01*
X115123400Y-99098663D01*
X115123401Y-99098673D01*
X115138165Y-99172900D01*
X115194416Y-99257084D01*
X115278597Y-99313333D01*
X115278599Y-99313334D01*
X115352833Y-99328100D01*
X116926966Y-99328099D01*
X116926969Y-99328098D01*
X116926973Y-99328098D01*
X116976226Y-99318301D01*
X117001201Y-99313334D01*
X117085384Y-99257084D01*
X117141634Y-99172901D01*
X117156400Y-99098667D01*
X117156399Y-97538930D01*
X118162300Y-97538930D01*
X118162300Y-99113063D01*
X118162301Y-99113073D01*
X118177065Y-99187300D01*
X118233316Y-99271484D01*
X118317497Y-99327733D01*
X118317499Y-99327734D01*
X118391733Y-99342500D01*
X119965866Y-99342499D01*
X119965869Y-99342498D01*
X119965873Y-99342498D01*
X120015126Y-99332701D01*
X120040101Y-99327734D01*
X120124284Y-99271484D01*
X120180534Y-99187301D01*
X120195300Y-99113067D01*
X120195299Y-97538934D01*
X120195299Y-97538933D01*
X120195299Y-97538931D01*
X120195299Y-97538930D01*
X128322300Y-97538930D01*
X128322300Y-99113063D01*
X128322301Y-99113073D01*
X128337065Y-99187300D01*
X128393316Y-99271484D01*
X128477497Y-99327733D01*
X128477499Y-99327734D01*
X128551733Y-99342500D01*
X130125866Y-99342499D01*
X130125869Y-99342498D01*
X130125873Y-99342498D01*
X130175126Y-99332701D01*
X130200101Y-99327734D01*
X130284284Y-99271484D01*
X130340534Y-99187301D01*
X130355300Y-99113067D01*
X130355299Y-97538934D01*
X130355298Y-97538931D01*
X130355298Y-97538926D01*
X130340534Y-97464699D01*
X130284283Y-97380515D01*
X130200102Y-97324266D01*
X130125867Y-97309500D01*
X128551736Y-97309500D01*
X128551726Y-97309501D01*
X128477499Y-97324265D01*
X128393315Y-97380516D01*
X128337066Y-97464697D01*
X128322300Y-97538930D01*
X120195299Y-97538930D01*
X120180534Y-97464699D01*
X120124283Y-97380515D01*
X120040102Y-97324266D01*
X119965867Y-97309500D01*
X118391736Y-97309500D01*
X118391726Y-97309501D01*
X118317499Y-97324265D01*
X118233315Y-97380516D01*
X118177066Y-97464697D01*
X118162300Y-97538930D01*
X117156399Y-97538930D01*
X117156399Y-97524534D01*
X117156398Y-97524530D01*
X117156398Y-97524526D01*
X117141634Y-97450299D01*
X117085383Y-97366115D01*
X117001202Y-97309866D01*
X116926967Y-97295100D01*
X115352836Y-97295100D01*
X115352826Y-97295101D01*
X115278599Y-97309865D01*
X115194415Y-97366116D01*
X115138166Y-97450297D01*
X115123400Y-97524530D01*
X100500500Y-97524530D01*
X100500500Y-94984530D01*
X115123400Y-94984530D01*
X115123400Y-96558663D01*
X115123401Y-96558673D01*
X115138165Y-96632900D01*
X115194416Y-96717084D01*
X115278597Y-96773333D01*
X115278599Y-96773334D01*
X115352833Y-96788100D01*
X116926966Y-96788099D01*
X116926969Y-96788098D01*
X116926973Y-96788098D01*
X116976226Y-96778301D01*
X117001201Y-96773334D01*
X117085384Y-96717084D01*
X117141634Y-96632901D01*
X117156400Y-96558667D01*
X117156399Y-95039130D01*
X118162300Y-95039130D01*
X118162300Y-96613263D01*
X118162301Y-96613273D01*
X118177065Y-96687500D01*
X118233316Y-96771684D01*
X118317497Y-96827933D01*
X118317499Y-96827934D01*
X118391733Y-96842700D01*
X119965866Y-96842699D01*
X119965869Y-96842698D01*
X119965873Y-96842698D01*
X120015126Y-96832901D01*
X120040101Y-96827934D01*
X120124284Y-96771684D01*
X120180534Y-96687501D01*
X120195300Y-96613267D01*
X120195299Y-95039134D01*
X120195299Y-95039133D01*
X120195299Y-95039131D01*
X120195299Y-95039130D01*
X128322300Y-95039130D01*
X128322300Y-96613263D01*
X128322301Y-96613273D01*
X128337065Y-96687500D01*
X128393316Y-96771684D01*
X128477497Y-96827933D01*
X128477499Y-96827934D01*
X128551733Y-96842700D01*
X130125866Y-96842699D01*
X130125869Y-96842698D01*
X130125873Y-96842698D01*
X130175126Y-96832901D01*
X130200101Y-96827934D01*
X130284284Y-96771684D01*
X130340534Y-96687501D01*
X130355300Y-96613267D01*
X130355299Y-95039134D01*
X130355298Y-95039131D01*
X130355298Y-95039126D01*
X130340534Y-94964899D01*
X130304051Y-94910299D01*
X130284284Y-94880716D01*
X130284283Y-94880715D01*
X130200102Y-94824466D01*
X130125867Y-94809700D01*
X128551736Y-94809700D01*
X128551726Y-94809701D01*
X128477499Y-94824465D01*
X128393315Y-94880716D01*
X128337066Y-94964897D01*
X128322300Y-95039130D01*
X120195299Y-95039130D01*
X120180534Y-94964899D01*
X120144051Y-94910299D01*
X120124284Y-94880716D01*
X120124283Y-94880715D01*
X120040102Y-94824466D01*
X119965867Y-94809700D01*
X118391736Y-94809700D01*
X118391726Y-94809701D01*
X118317499Y-94824465D01*
X118233315Y-94880716D01*
X118177066Y-94964897D01*
X118162300Y-95039130D01*
X117156399Y-95039130D01*
X117156399Y-94984534D01*
X117156398Y-94984530D01*
X117156398Y-94984526D01*
X117141634Y-94910299D01*
X117085383Y-94826115D01*
X117001202Y-94769866D01*
X116926967Y-94755100D01*
X115352836Y-94755100D01*
X115352826Y-94755101D01*
X115278599Y-94769865D01*
X115194415Y-94826116D01*
X115138166Y-94910297D01*
X115123400Y-94984530D01*
X100500500Y-94984530D01*
X100500500Y-92444530D01*
X115123400Y-92444530D01*
X115123400Y-94018663D01*
X115123401Y-94018673D01*
X115138165Y-94092900D01*
X115194416Y-94177084D01*
X115278597Y-94233333D01*
X115278599Y-94233334D01*
X115352833Y-94248100D01*
X116926966Y-94248099D01*
X116926969Y-94248098D01*
X116926973Y-94248098D01*
X116976226Y-94238301D01*
X117001201Y-94233334D01*
X117085384Y-94177084D01*
X117141634Y-94092901D01*
X117156400Y-94018667D01*
X117156399Y-92539030D01*
X118162300Y-92539030D01*
X118162300Y-94113163D01*
X118162301Y-94113173D01*
X118177065Y-94187400D01*
X118233316Y-94271584D01*
X118317497Y-94327833D01*
X118317499Y-94327834D01*
X118391733Y-94342600D01*
X119965866Y-94342599D01*
X119965869Y-94342598D01*
X119965873Y-94342598D01*
X120015126Y-94332801D01*
X120040101Y-94327834D01*
X120124284Y-94271584D01*
X120152409Y-94229492D01*
X120180534Y-94187402D01*
X120184200Y-94168969D01*
X120195300Y-94113167D01*
X120195299Y-92539034D01*
X120195299Y-92539033D01*
X120195299Y-92539031D01*
X120195299Y-92539030D01*
X128322300Y-92539030D01*
X128322300Y-94113163D01*
X128322301Y-94113173D01*
X128337065Y-94187400D01*
X128393316Y-94271584D01*
X128477497Y-94327833D01*
X128477499Y-94327834D01*
X128551733Y-94342600D01*
X130125866Y-94342599D01*
X130125869Y-94342598D01*
X130125873Y-94342598D01*
X130175126Y-94332801D01*
X130200101Y-94327834D01*
X130284284Y-94271584D01*
X130312409Y-94229492D01*
X130340534Y-94187402D01*
X130344200Y-94168969D01*
X130355300Y-94113167D01*
X130355299Y-92539034D01*
X130355298Y-92539031D01*
X130355298Y-92539026D01*
X130340534Y-92464799D01*
X130340533Y-92464797D01*
X130284284Y-92380616D01*
X130268841Y-92370297D01*
X130200102Y-92324366D01*
X130125867Y-92309600D01*
X128551736Y-92309600D01*
X128551726Y-92309601D01*
X128477499Y-92324365D01*
X128393315Y-92380616D01*
X128337066Y-92464797D01*
X128322300Y-92539030D01*
X120195299Y-92539030D01*
X120180534Y-92464799D01*
X120180533Y-92464797D01*
X120124284Y-92380616D01*
X120108841Y-92370297D01*
X120040102Y-92324366D01*
X119965867Y-92309600D01*
X118391736Y-92309600D01*
X118391726Y-92309601D01*
X118317499Y-92324365D01*
X118233315Y-92380616D01*
X118177066Y-92464797D01*
X118162300Y-92539030D01*
X117156399Y-92539030D01*
X117156399Y-92444534D01*
X117156398Y-92444530D01*
X117156398Y-92444526D01*
X117141634Y-92370299D01*
X117101076Y-92309601D01*
X117085384Y-92286116D01*
X117085383Y-92286115D01*
X117001202Y-92229866D01*
X116926967Y-92215100D01*
X115352836Y-92215100D01*
X115352826Y-92215101D01*
X115278599Y-92229865D01*
X115194415Y-92286116D01*
X115138166Y-92370297D01*
X115123400Y-92444530D01*
X100500500Y-92444530D01*
X100500500Y-89904530D01*
X115123400Y-89904530D01*
X115123400Y-91478663D01*
X115123401Y-91478673D01*
X115138165Y-91552900D01*
X115194416Y-91637084D01*
X115278597Y-91693333D01*
X115278599Y-91693334D01*
X115352833Y-91708100D01*
X116926966Y-91708099D01*
X116926969Y-91708098D01*
X116926973Y-91708098D01*
X116976226Y-91698301D01*
X117001201Y-91693334D01*
X117085384Y-91637084D01*
X117141634Y-91552901D01*
X117156400Y-91478667D01*
X117156399Y-90039130D01*
X118162300Y-90039130D01*
X118162300Y-91613263D01*
X118162301Y-91613273D01*
X118177065Y-91687500D01*
X118233316Y-91771684D01*
X118317497Y-91827933D01*
X118317499Y-91827934D01*
X118391733Y-91842700D01*
X119965866Y-91842699D01*
X119965869Y-91842698D01*
X119965873Y-91842698D01*
X120015126Y-91832901D01*
X120040101Y-91827934D01*
X120124284Y-91771684D01*
X120180534Y-91687501D01*
X120195300Y-91613267D01*
X120195299Y-90039134D01*
X120195299Y-90039133D01*
X120195299Y-90039131D01*
X120195299Y-90039130D01*
X128322300Y-90039130D01*
X128322300Y-91613263D01*
X128322301Y-91613273D01*
X128337065Y-91687500D01*
X128393316Y-91771684D01*
X128477497Y-91827933D01*
X128477499Y-91827934D01*
X128551733Y-91842700D01*
X130125866Y-91842699D01*
X130125869Y-91842698D01*
X130125873Y-91842698D01*
X130175126Y-91832901D01*
X130200101Y-91827934D01*
X130284284Y-91771684D01*
X130340534Y-91687501D01*
X130355300Y-91613267D01*
X130355299Y-90039134D01*
X130355298Y-90039131D01*
X130355298Y-90039126D01*
X130340534Y-89964899D01*
X130300196Y-89904530D01*
X130284284Y-89880716D01*
X130284283Y-89880715D01*
X130200102Y-89824466D01*
X130125867Y-89809700D01*
X128551736Y-89809700D01*
X128551726Y-89809701D01*
X128477499Y-89824465D01*
X128393315Y-89880716D01*
X128337066Y-89964897D01*
X128322300Y-90039130D01*
X120195299Y-90039130D01*
X120180534Y-89964899D01*
X120140196Y-89904530D01*
X120124284Y-89880716D01*
X120124283Y-89880715D01*
X120040102Y-89824466D01*
X119965867Y-89809700D01*
X118391736Y-89809700D01*
X118391726Y-89809701D01*
X118317499Y-89824465D01*
X118233315Y-89880716D01*
X118177066Y-89964897D01*
X118162300Y-90039130D01*
X117156399Y-90039130D01*
X117156399Y-89904534D01*
X117156398Y-89904530D01*
X117156398Y-89904526D01*
X117141634Y-89830299D01*
X117085383Y-89746115D01*
X117001202Y-89689866D01*
X116926967Y-89675100D01*
X115352836Y-89675100D01*
X115352826Y-89675101D01*
X115278599Y-89689865D01*
X115194415Y-89746116D01*
X115138166Y-89830297D01*
X115123400Y-89904530D01*
X100500500Y-89904530D01*
X100500500Y-87364530D01*
X115123400Y-87364530D01*
X115123400Y-88938663D01*
X115123401Y-88938673D01*
X115138165Y-89012900D01*
X115194416Y-89097084D01*
X115278597Y-89153333D01*
X115278599Y-89153334D01*
X115352833Y-89168100D01*
X116926966Y-89168099D01*
X116926969Y-89168098D01*
X116926973Y-89168098D01*
X116976226Y-89158301D01*
X117001201Y-89153334D01*
X117085384Y-89097084D01*
X117141634Y-89012901D01*
X117156400Y-88938667D01*
X117156399Y-87539030D01*
X118162300Y-87539030D01*
X118162300Y-89113163D01*
X118162301Y-89113173D01*
X118177065Y-89187400D01*
X118233316Y-89271584D01*
X118317497Y-89327833D01*
X118317499Y-89327834D01*
X118391733Y-89342600D01*
X119965866Y-89342599D01*
X119965869Y-89342598D01*
X119965873Y-89342598D01*
X120015126Y-89332801D01*
X120040101Y-89327834D01*
X120124284Y-89271584D01*
X120180534Y-89187401D01*
X120195300Y-89113167D01*
X120195299Y-87539034D01*
X120195299Y-87539033D01*
X120195299Y-87539031D01*
X120195299Y-87539030D01*
X128322300Y-87539030D01*
X128322300Y-89113163D01*
X128322301Y-89113173D01*
X128337065Y-89187400D01*
X128393316Y-89271584D01*
X128477497Y-89327833D01*
X128477499Y-89327834D01*
X128551733Y-89342600D01*
X130125866Y-89342599D01*
X130125869Y-89342598D01*
X130125873Y-89342598D01*
X130175126Y-89332801D01*
X130200101Y-89327834D01*
X130284284Y-89271584D01*
X130340534Y-89187401D01*
X130355300Y-89113167D01*
X130355299Y-87539034D01*
X130355298Y-87539031D01*
X130355298Y-87539026D01*
X130340534Y-87464799D01*
X130284283Y-87380615D01*
X130200102Y-87324366D01*
X130125867Y-87309600D01*
X128551736Y-87309600D01*
X128551726Y-87309601D01*
X128477499Y-87324365D01*
X128393315Y-87380616D01*
X128337066Y-87464797D01*
X128322300Y-87539030D01*
X120195299Y-87539030D01*
X120180534Y-87464799D01*
X120124283Y-87380615D01*
X120040102Y-87324366D01*
X119965867Y-87309600D01*
X118391736Y-87309600D01*
X118391726Y-87309601D01*
X118317499Y-87324365D01*
X118233315Y-87380616D01*
X118177066Y-87464797D01*
X118162300Y-87539030D01*
X117156399Y-87539030D01*
X117156399Y-87364534D01*
X117156398Y-87364530D01*
X117156398Y-87364526D01*
X117141634Y-87290299D01*
X117085383Y-87206115D01*
X117001202Y-87149866D01*
X116926967Y-87135100D01*
X115352836Y-87135100D01*
X115352826Y-87135101D01*
X115278599Y-87149865D01*
X115194415Y-87206116D01*
X115138166Y-87290297D01*
X115123400Y-87364530D01*
X100500500Y-87364530D01*
X100500500Y-84824530D01*
X115123400Y-84824530D01*
X115123400Y-86398663D01*
X115123401Y-86398673D01*
X115138165Y-86472900D01*
X115194416Y-86557084D01*
X115278597Y-86613333D01*
X115278599Y-86613334D01*
X115352833Y-86628100D01*
X116926966Y-86628099D01*
X116926969Y-86628098D01*
X116926973Y-86628098D01*
X116976226Y-86618301D01*
X117001201Y-86613334D01*
X117085384Y-86557084D01*
X117141634Y-86472901D01*
X117156400Y-86398667D01*
X117156399Y-85039130D01*
X118162300Y-85039130D01*
X118162300Y-86613263D01*
X118162301Y-86613273D01*
X118177065Y-86687500D01*
X118233316Y-86771684D01*
X118317497Y-86827933D01*
X118317499Y-86827934D01*
X118391733Y-86842700D01*
X119965866Y-86842699D01*
X119965869Y-86842698D01*
X119965873Y-86842698D01*
X120015126Y-86832901D01*
X120040101Y-86827934D01*
X120124284Y-86771684D01*
X120180534Y-86687501D01*
X120195300Y-86613267D01*
X120195299Y-85039134D01*
X120195299Y-85039133D01*
X120195299Y-85039131D01*
X120195299Y-85039130D01*
X128322300Y-85039130D01*
X128322300Y-86613263D01*
X128322301Y-86613273D01*
X128337065Y-86687500D01*
X128393316Y-86771684D01*
X128477497Y-86827933D01*
X128477499Y-86827934D01*
X128551733Y-86842700D01*
X130125866Y-86842699D01*
X130125869Y-86842698D01*
X130125873Y-86842698D01*
X130175126Y-86832901D01*
X130200101Y-86827934D01*
X130284284Y-86771684D01*
X130340534Y-86687501D01*
X130355300Y-86613267D01*
X130355299Y-85074349D01*
X131499494Y-85074349D01*
X131499500Y-85074438D01*
X131499500Y-98934008D01*
X131499500Y-99065792D01*
X131521081Y-99146335D01*
X131533607Y-99193083D01*
X131533610Y-99193090D01*
X131599497Y-99307210D01*
X131599505Y-99307220D01*
X131692679Y-99400394D01*
X131692684Y-99400398D01*
X131692686Y-99400400D01*
X131806814Y-99466292D01*
X131934108Y-99500400D01*
X131934110Y-99500400D01*
X145065890Y-99500400D01*
X145065892Y-99500400D01*
X145193186Y-99466292D01*
X145307314Y-99400400D01*
X145322698Y-99385016D01*
X145402805Y-99304910D01*
X145465117Y-99270884D01*
X145535932Y-99275949D01*
X145592768Y-99318496D01*
X145617579Y-99385016D01*
X145617900Y-99394005D01*
X145617900Y-101538740D01*
X145597898Y-101606861D01*
X145580995Y-101627835D01*
X145552354Y-101656475D01*
X145552346Y-101656485D01*
X145478716Y-101784017D01*
X145440600Y-101926268D01*
X145440600Y-102073531D01*
X145440599Y-102073531D01*
X145478716Y-102215782D01*
X145552346Y-102343314D01*
X145552354Y-102343324D01*
X145656475Y-102447445D01*
X145656480Y-102447449D01*
X145656482Y-102447451D01*
X145656483Y-102447452D01*
X145656485Y-102447453D01*
X145686353Y-102464697D01*
X145784018Y-102521084D01*
X145926267Y-102559200D01*
X145926269Y-102559200D01*
X146073531Y-102559200D01*
X146073533Y-102559200D01*
X146215782Y-102521084D01*
X146343318Y-102447451D01*
X146447451Y-102343318D01*
X146521084Y-102215782D01*
X146559200Y-102073533D01*
X146559200Y-101926267D01*
X146521084Y-101784018D01*
X146476021Y-101705966D01*
X146447453Y-101656485D01*
X146447445Y-101656475D01*
X146417805Y-101626835D01*
X146383779Y-101564523D01*
X146380900Y-101537740D01*
X146380900Y-95212830D01*
X146983400Y-95212830D01*
X146983400Y-96786963D01*
X146983401Y-96786973D01*
X146998165Y-96861200D01*
X147054416Y-96945384D01*
X147138597Y-97001633D01*
X147138599Y-97001634D01*
X147212833Y-97016400D01*
X148786966Y-97016399D01*
X148786969Y-97016398D01*
X148786973Y-97016398D01*
X148836226Y-97006601D01*
X148861201Y-97001634D01*
X148945384Y-96945384D01*
X149001634Y-96861201D01*
X149016400Y-96786967D01*
X149016399Y-95212834D01*
X149016398Y-95212830D01*
X149016398Y-95212826D01*
X149001634Y-95138599D01*
X148945383Y-95054415D01*
X148861202Y-94998166D01*
X148786967Y-94983400D01*
X147212836Y-94983400D01*
X147212826Y-94983401D01*
X147138599Y-94998165D01*
X147054415Y-95054416D01*
X146998166Y-95138597D01*
X146983400Y-95212830D01*
X146380900Y-95212830D01*
X146380900Y-88709199D01*
X146400902Y-88641078D01*
X146417860Y-88620048D01*
X146589664Y-88448459D01*
X147485793Y-87553448D01*
X147548127Y-87519462D01*
X147574833Y-87516599D01*
X148786964Y-87516599D01*
X148786966Y-87516599D01*
X148786969Y-87516598D01*
X148786972Y-87516598D01*
X148823563Y-87509319D01*
X148861201Y-87501834D01*
X148945384Y-87445584D01*
X149001634Y-87361401D01*
X149016400Y-87287167D01*
X149016399Y-85713034D01*
X149016398Y-85713030D01*
X149016398Y-85713026D01*
X149001634Y-85638799D01*
X148959083Y-85575118D01*
X148945384Y-85554616D01*
X148945383Y-85554615D01*
X148861202Y-85498366D01*
X148786967Y-85483600D01*
X147212836Y-85483600D01*
X147212826Y-85483601D01*
X147138599Y-85498365D01*
X147054415Y-85554616D01*
X146998166Y-85638797D01*
X146983400Y-85713030D01*
X146983400Y-86924604D01*
X146963398Y-86992725D01*
X146946440Y-87013755D01*
X145770941Y-88187785D01*
X145770522Y-88188154D01*
X145729491Y-88229185D01*
X145715538Y-88243120D01*
X145653204Y-88277105D01*
X145582391Y-88271994D01*
X145525583Y-88229411D01*
X145500815Y-88162875D01*
X145500500Y-88153967D01*
X145500500Y-85012764D01*
X145500500Y-85001038D01*
X145500505Y-84935147D01*
X145500500Y-84935128D01*
X145500500Y-84935108D01*
X145483304Y-84870932D01*
X145466407Y-84807850D01*
X145466397Y-84807832D01*
X145466392Y-84807814D01*
X145433186Y-84750299D01*
X145400524Y-84693717D01*
X145400509Y-84693702D01*
X145400500Y-84693686D01*
X145353934Y-84647120D01*
X145307345Y-84600524D01*
X145307344Y-84600523D01*
X145307339Y-84600518D01*
X145307319Y-84600503D01*
X145305564Y-84599490D01*
X145248759Y-84566693D01*
X145248760Y-84566691D01*
X145248752Y-84566689D01*
X145193222Y-84534623D01*
X145193221Y-84534622D01*
X145193206Y-84534614D01*
X145193188Y-84534609D01*
X145193186Y-84534608D01*
X145128537Y-84517285D01*
X145100299Y-84509716D01*
X145065912Y-84500500D01*
X145065892Y-84500500D01*
X145000921Y-84500500D01*
X132074042Y-84499505D01*
X132073956Y-84499500D01*
X132065892Y-84499500D01*
X131999156Y-84499500D01*
X131934142Y-84499494D01*
X131934114Y-84499498D01*
X131869938Y-84516693D01*
X131869931Y-84516695D01*
X131806831Y-84533597D01*
X131761382Y-84559837D01*
X131761380Y-84559838D01*
X131751307Y-84565654D01*
X131692717Y-84599476D01*
X131692702Y-84599490D01*
X131692686Y-84599500D01*
X131646120Y-84646065D01*
X131599524Y-84692655D01*
X131599514Y-84692671D01*
X131599500Y-84692686D01*
X131566237Y-84750299D01*
X131533623Y-84806778D01*
X131533617Y-84806796D01*
X131533608Y-84806814D01*
X131516285Y-84871462D01*
X131513265Y-84882727D01*
X131513263Y-84882733D01*
X131499500Y-84934088D01*
X131499500Y-84999971D01*
X131499494Y-85074349D01*
X130355299Y-85074349D01*
X130355299Y-85039134D01*
X130355298Y-85039131D01*
X130355298Y-85039126D01*
X130340534Y-84964899D01*
X130319934Y-84934070D01*
X130284284Y-84880716D01*
X130270435Y-84871462D01*
X130200102Y-84824466D01*
X130125867Y-84809700D01*
X128551736Y-84809700D01*
X128551726Y-84809701D01*
X128477499Y-84824465D01*
X128393315Y-84880716D01*
X128337066Y-84964897D01*
X128322300Y-85039130D01*
X120195299Y-85039130D01*
X120180534Y-84964899D01*
X120159934Y-84934070D01*
X120124284Y-84880716D01*
X120110435Y-84871462D01*
X120040102Y-84824466D01*
X119965867Y-84809700D01*
X118391736Y-84809700D01*
X118391726Y-84809701D01*
X118317499Y-84824465D01*
X118233315Y-84880716D01*
X118177066Y-84964897D01*
X118162300Y-85039130D01*
X117156399Y-85039130D01*
X117156399Y-84824534D01*
X117156398Y-84824530D01*
X117156398Y-84824526D01*
X117141634Y-84750299D01*
X117104925Y-84695361D01*
X117085384Y-84666116D01*
X117085383Y-84666115D01*
X117001202Y-84609866D01*
X116926967Y-84595100D01*
X115352836Y-84595100D01*
X115352826Y-84595101D01*
X115278599Y-84609865D01*
X115194415Y-84666116D01*
X115138166Y-84750297D01*
X115123400Y-84824530D01*
X100500500Y-84824530D01*
X100500500Y-82284530D01*
X115123400Y-82284530D01*
X115123400Y-83858663D01*
X115123401Y-83858673D01*
X115138165Y-83932900D01*
X115194416Y-84017084D01*
X115278597Y-84073333D01*
X115278599Y-84073334D01*
X115352833Y-84088100D01*
X116926966Y-84088099D01*
X116926969Y-84088098D01*
X116926973Y-84088098D01*
X116976226Y-84078301D01*
X117001201Y-84073334D01*
X117085384Y-84017084D01*
X117141634Y-83932901D01*
X117156400Y-83858667D01*
X117156399Y-82539030D01*
X118162300Y-82539030D01*
X118162300Y-84113163D01*
X118162301Y-84113173D01*
X118177065Y-84187400D01*
X118233316Y-84271584D01*
X118317497Y-84327833D01*
X118317499Y-84327834D01*
X118391733Y-84342600D01*
X119965866Y-84342599D01*
X119965869Y-84342598D01*
X119965873Y-84342598D01*
X120015126Y-84332801D01*
X120040101Y-84327834D01*
X120124284Y-84271584D01*
X120180534Y-84187401D01*
X120195300Y-84113167D01*
X120195299Y-82539034D01*
X120195299Y-82539033D01*
X120195299Y-82539031D01*
X120195299Y-82539030D01*
X128322300Y-82539030D01*
X128322300Y-84113163D01*
X128322301Y-84113173D01*
X128337065Y-84187400D01*
X128393316Y-84271584D01*
X128477497Y-84327833D01*
X128477499Y-84327834D01*
X128551733Y-84342600D01*
X130125866Y-84342599D01*
X130125869Y-84342598D01*
X130125873Y-84342598D01*
X130175126Y-84332801D01*
X130200101Y-84327834D01*
X130284284Y-84271584D01*
X130340534Y-84187401D01*
X130355300Y-84113167D01*
X130355299Y-82539034D01*
X130355298Y-82539031D01*
X130355298Y-82539026D01*
X130340534Y-82464799D01*
X130284283Y-82380615D01*
X130200102Y-82324366D01*
X130125867Y-82309600D01*
X128551736Y-82309600D01*
X128551726Y-82309601D01*
X128477499Y-82324365D01*
X128393315Y-82380616D01*
X128337066Y-82464797D01*
X128322300Y-82539030D01*
X120195299Y-82539030D01*
X120180534Y-82464799D01*
X120124283Y-82380615D01*
X120040102Y-82324366D01*
X119965867Y-82309600D01*
X118391736Y-82309600D01*
X118391726Y-82309601D01*
X118317499Y-82324365D01*
X118233315Y-82380616D01*
X118177066Y-82464797D01*
X118162300Y-82539030D01*
X117156399Y-82539030D01*
X117156399Y-82284534D01*
X117156398Y-82284530D01*
X117156398Y-82284526D01*
X117141634Y-82210299D01*
X117085383Y-82126115D01*
X117001202Y-82069866D01*
X116926967Y-82055100D01*
X115352836Y-82055100D01*
X115352826Y-82055101D01*
X115278599Y-82069865D01*
X115194415Y-82126116D01*
X115138166Y-82210297D01*
X115123400Y-82284530D01*
X100500500Y-82284530D01*
X100500500Y-82039130D01*
X144072300Y-82039130D01*
X144072300Y-83613263D01*
X144072301Y-83613273D01*
X144087065Y-83687500D01*
X144143316Y-83771684D01*
X144227497Y-83827933D01*
X144227499Y-83827934D01*
X144301733Y-83842700D01*
X145875866Y-83842699D01*
X145875869Y-83842698D01*
X145875873Y-83842698D01*
X145925126Y-83832901D01*
X145950101Y-83827934D01*
X146034284Y-83771684D01*
X146090534Y-83687501D01*
X146105300Y-83613267D01*
X146105299Y-82039134D01*
X146105298Y-82039131D01*
X146105298Y-82039126D01*
X146090534Y-81964899D01*
X146090533Y-81964897D01*
X146034284Y-81880716D01*
X146034283Y-81880715D01*
X145950102Y-81824466D01*
X145875867Y-81809700D01*
X144301736Y-81809700D01*
X144301726Y-81809701D01*
X144227499Y-81824465D01*
X144143315Y-81880716D01*
X144087066Y-81964897D01*
X144072300Y-82039130D01*
X100500500Y-82039130D01*
X100500500Y-79744530D01*
X115123400Y-79744530D01*
X115123400Y-81318663D01*
X115123401Y-81318673D01*
X115138165Y-81392900D01*
X115194416Y-81477084D01*
X115278597Y-81533333D01*
X115278599Y-81533334D01*
X115352833Y-81548100D01*
X116926966Y-81548099D01*
X116926969Y-81548098D01*
X116926973Y-81548098D01*
X116976226Y-81538301D01*
X117001201Y-81533334D01*
X117085384Y-81477084D01*
X117141634Y-81392901D01*
X117156400Y-81318667D01*
X117156399Y-80039130D01*
X118162300Y-80039130D01*
X118162300Y-81613263D01*
X118162301Y-81613273D01*
X118177065Y-81687500D01*
X118233316Y-81771684D01*
X118317497Y-81827933D01*
X118317499Y-81827934D01*
X118391733Y-81842700D01*
X119965866Y-81842699D01*
X119965869Y-81842698D01*
X119965873Y-81842698D01*
X120015126Y-81832901D01*
X120040101Y-81827934D01*
X120124284Y-81771684D01*
X120180534Y-81687501D01*
X120195300Y-81613267D01*
X120195299Y-80039134D01*
X120195299Y-80039133D01*
X120195299Y-80039131D01*
X120195299Y-80039130D01*
X128322300Y-80039130D01*
X128322300Y-81613263D01*
X128322301Y-81613273D01*
X128337065Y-81687500D01*
X128393316Y-81771684D01*
X128477497Y-81827933D01*
X128477499Y-81827934D01*
X128551733Y-81842700D01*
X130125866Y-81842699D01*
X130125869Y-81842698D01*
X130125873Y-81842698D01*
X130175126Y-81832901D01*
X130200101Y-81827934D01*
X130284284Y-81771684D01*
X130340534Y-81687501D01*
X130355300Y-81613267D01*
X130355299Y-80039134D01*
X130355298Y-80039131D01*
X130355298Y-80039126D01*
X130340534Y-79964899D01*
X130284283Y-79880715D01*
X130200102Y-79824466D01*
X130125867Y-79809700D01*
X128551736Y-79809700D01*
X128551726Y-79809701D01*
X128477499Y-79824465D01*
X128393315Y-79880716D01*
X128337066Y-79964897D01*
X128322300Y-80039130D01*
X120195299Y-80039130D01*
X120180534Y-79964899D01*
X120124283Y-79880715D01*
X120040102Y-79824466D01*
X119965867Y-79809700D01*
X118391736Y-79809700D01*
X118391726Y-79809701D01*
X118317499Y-79824465D01*
X118233315Y-79880716D01*
X118177066Y-79964897D01*
X118162300Y-80039130D01*
X117156399Y-80039130D01*
X117156399Y-79744534D01*
X117156398Y-79744530D01*
X117156398Y-79744526D01*
X117141634Y-79670299D01*
X117085383Y-79586115D01*
X117001202Y-79529866D01*
X116926967Y-79515100D01*
X115352836Y-79515100D01*
X115352826Y-79515101D01*
X115278599Y-79529865D01*
X115194415Y-79586116D01*
X115138166Y-79670297D01*
X115123400Y-79744530D01*
X100500500Y-79744530D01*
X100500500Y-72385030D01*
X112455600Y-72385030D01*
X112455600Y-74035163D01*
X112455601Y-74035173D01*
X112470365Y-74109400D01*
X112526616Y-74193584D01*
X112610797Y-74249833D01*
X112610799Y-74249834D01*
X112685033Y-74264600D01*
X114335166Y-74264599D01*
X114335169Y-74264598D01*
X114335173Y-74264598D01*
X114398802Y-74251942D01*
X114409401Y-74249834D01*
X114493584Y-74193584D01*
X114549834Y-74109401D01*
X114564600Y-74035167D01*
X114564599Y-72385034D01*
X114564599Y-72385033D01*
X114564599Y-72385031D01*
X114564599Y-72385030D01*
X114995600Y-72385030D01*
X114995600Y-74035163D01*
X114995601Y-74035173D01*
X115010365Y-74109400D01*
X115066616Y-74193584D01*
X115150797Y-74249833D01*
X115150799Y-74249834D01*
X115225033Y-74264600D01*
X116875166Y-74264599D01*
X116875169Y-74264598D01*
X116875173Y-74264598D01*
X116938802Y-74251942D01*
X116949401Y-74249834D01*
X117033584Y-74193584D01*
X117089834Y-74109401D01*
X117104600Y-74035167D01*
X117104599Y-72385034D01*
X117104599Y-72385033D01*
X117104599Y-72385031D01*
X117104599Y-72385030D01*
X117535600Y-72385030D01*
X117535600Y-74035163D01*
X117535601Y-74035173D01*
X117550365Y-74109400D01*
X117606616Y-74193584D01*
X117690797Y-74249833D01*
X117690799Y-74249834D01*
X117765033Y-74264600D01*
X119415166Y-74264599D01*
X119415169Y-74264598D01*
X119415173Y-74264598D01*
X119478802Y-74251942D01*
X119489401Y-74249834D01*
X119573584Y-74193584D01*
X119629834Y-74109401D01*
X119644600Y-74035167D01*
X119644599Y-72385034D01*
X119644599Y-72385033D01*
X119644599Y-72385031D01*
X119644599Y-72385030D01*
X120075600Y-72385030D01*
X120075600Y-74035163D01*
X120075601Y-74035173D01*
X120090365Y-74109400D01*
X120146616Y-74193584D01*
X120230797Y-74249833D01*
X120230799Y-74249834D01*
X120305033Y-74264600D01*
X121955166Y-74264599D01*
X121955169Y-74264598D01*
X121955173Y-74264598D01*
X122018802Y-74251942D01*
X122029401Y-74249834D01*
X122113584Y-74193584D01*
X122169834Y-74109401D01*
X122184600Y-74035167D01*
X122184599Y-72385034D01*
X122184599Y-72385033D01*
X122184599Y-72385031D01*
X122184599Y-72385030D01*
X122615600Y-72385030D01*
X122615600Y-74035163D01*
X122615601Y-74035173D01*
X122630365Y-74109400D01*
X122686616Y-74193584D01*
X122770797Y-74249833D01*
X122770799Y-74249834D01*
X122845033Y-74264600D01*
X124495166Y-74264599D01*
X124495169Y-74264598D01*
X124495173Y-74264598D01*
X124558802Y-74251942D01*
X124569401Y-74249834D01*
X124653584Y-74193584D01*
X124709834Y-74109401D01*
X124724600Y-74035167D01*
X124724599Y-72385034D01*
X124724599Y-72385033D01*
X124724599Y-72385031D01*
X124724599Y-72385030D01*
X125155600Y-72385030D01*
X125155600Y-74035163D01*
X125155601Y-74035173D01*
X125170365Y-74109400D01*
X125226616Y-74193584D01*
X125310797Y-74249833D01*
X125310799Y-74249834D01*
X125385033Y-74264600D01*
X127035166Y-74264599D01*
X127035169Y-74264598D01*
X127035173Y-74264598D01*
X127098802Y-74251942D01*
X127109401Y-74249834D01*
X127193584Y-74193584D01*
X127249834Y-74109401D01*
X127264600Y-74035167D01*
X127264599Y-72385034D01*
X127264599Y-72385033D01*
X127264599Y-72385031D01*
X127264599Y-72385030D01*
X127695600Y-72385030D01*
X127695600Y-74035163D01*
X127695601Y-74035173D01*
X127710365Y-74109400D01*
X127766616Y-74193584D01*
X127850797Y-74249833D01*
X127850799Y-74249834D01*
X127925033Y-74264600D01*
X129575166Y-74264599D01*
X129575169Y-74264598D01*
X129575173Y-74264598D01*
X129638802Y-74251942D01*
X129649401Y-74249834D01*
X129733584Y-74193584D01*
X129789834Y-74109401D01*
X129804600Y-74035167D01*
X129804599Y-72385034D01*
X129804599Y-72385033D01*
X129804599Y-72385031D01*
X129804599Y-72385030D01*
X137655300Y-72385030D01*
X137655300Y-74035163D01*
X137655301Y-74035173D01*
X137670065Y-74109400D01*
X137726316Y-74193584D01*
X137810497Y-74249833D01*
X137810499Y-74249834D01*
X137884733Y-74264600D01*
X139534866Y-74264599D01*
X139534869Y-74264598D01*
X139534873Y-74264598D01*
X139598502Y-74251942D01*
X139609101Y-74249834D01*
X139693284Y-74193584D01*
X139749534Y-74109401D01*
X139764300Y-74035167D01*
X139764299Y-72385034D01*
X139764299Y-72385033D01*
X139764299Y-72385031D01*
X139764299Y-72385030D01*
X140195300Y-72385030D01*
X140195300Y-74035163D01*
X140195301Y-74035173D01*
X140210065Y-74109400D01*
X140266316Y-74193584D01*
X140350497Y-74249833D01*
X140350499Y-74249834D01*
X140424733Y-74264600D01*
X142074866Y-74264599D01*
X142074869Y-74264598D01*
X142074873Y-74264598D01*
X142138502Y-74251942D01*
X142149101Y-74249834D01*
X142233284Y-74193584D01*
X142289534Y-74109401D01*
X142304300Y-74035167D01*
X142304299Y-72385034D01*
X142304299Y-72385033D01*
X142304299Y-72385031D01*
X142304299Y-72385030D01*
X142735300Y-72385030D01*
X142735300Y-74035163D01*
X142735301Y-74035173D01*
X142750065Y-74109400D01*
X142806316Y-74193584D01*
X142890497Y-74249833D01*
X142890499Y-74249834D01*
X142964733Y-74264600D01*
X144614866Y-74264599D01*
X144614869Y-74264598D01*
X144614873Y-74264598D01*
X144678502Y-74251942D01*
X144689101Y-74249834D01*
X144773284Y-74193584D01*
X144829534Y-74109401D01*
X144844300Y-74035167D01*
X144844299Y-72385034D01*
X144844298Y-72385031D01*
X144844298Y-72385026D01*
X144829534Y-72310799D01*
X144773283Y-72226615D01*
X144689102Y-72170366D01*
X144614867Y-72155600D01*
X142964736Y-72155600D01*
X142964726Y-72155601D01*
X142890499Y-72170365D01*
X142806315Y-72226616D01*
X142750066Y-72310797D01*
X142735300Y-72385030D01*
X142304299Y-72385030D01*
X142289534Y-72310799D01*
X142233283Y-72226615D01*
X142149102Y-72170366D01*
X142074867Y-72155600D01*
X140424736Y-72155600D01*
X140424726Y-72155601D01*
X140350499Y-72170365D01*
X140266315Y-72226616D01*
X140210066Y-72310797D01*
X140195300Y-72385030D01*
X139764299Y-72385030D01*
X139749534Y-72310799D01*
X139693283Y-72226615D01*
X139609102Y-72170366D01*
X139534867Y-72155600D01*
X137884736Y-72155600D01*
X137884726Y-72155601D01*
X137810499Y-72170365D01*
X137726315Y-72226616D01*
X137670066Y-72310797D01*
X137655300Y-72385030D01*
X129804599Y-72385030D01*
X129789834Y-72310799D01*
X129733583Y-72226615D01*
X129649402Y-72170366D01*
X129575167Y-72155600D01*
X127925036Y-72155600D01*
X127925026Y-72155601D01*
X127850799Y-72170365D01*
X127766615Y-72226616D01*
X127710366Y-72310797D01*
X127695600Y-72385030D01*
X127264599Y-72385030D01*
X127249834Y-72310799D01*
X127193583Y-72226615D01*
X127109402Y-72170366D01*
X127035167Y-72155600D01*
X125385036Y-72155600D01*
X125385026Y-72155601D01*
X125310799Y-72170365D01*
X125226615Y-72226616D01*
X125170366Y-72310797D01*
X125155600Y-72385030D01*
X124724599Y-72385030D01*
X124709834Y-72310799D01*
X124653583Y-72226615D01*
X124569402Y-72170366D01*
X124495167Y-72155600D01*
X122845036Y-72155600D01*
X122845026Y-72155601D01*
X122770799Y-72170365D01*
X122686615Y-72226616D01*
X122630366Y-72310797D01*
X122615600Y-72385030D01*
X122184599Y-72385030D01*
X122169834Y-72310799D01*
X122113583Y-72226615D01*
X122029402Y-72170366D01*
X121955167Y-72155600D01*
X120305036Y-72155600D01*
X120305026Y-72155601D01*
X120230799Y-72170365D01*
X120146615Y-72226616D01*
X120090366Y-72310797D01*
X120075600Y-72385030D01*
X119644599Y-72385030D01*
X119629834Y-72310799D01*
X119573583Y-72226615D01*
X119489402Y-72170366D01*
X119415167Y-72155600D01*
X117765036Y-72155600D01*
X117765026Y-72155601D01*
X117690799Y-72170365D01*
X117606615Y-72226616D01*
X117550366Y-72310797D01*
X117535600Y-72385030D01*
X117104599Y-72385030D01*
X117089834Y-72310799D01*
X117033583Y-72226615D01*
X116949402Y-72170366D01*
X116875167Y-72155600D01*
X115225036Y-72155600D01*
X115225026Y-72155601D01*
X115150799Y-72170365D01*
X115066615Y-72226616D01*
X115010366Y-72310797D01*
X114995600Y-72385030D01*
X114564599Y-72385030D01*
X114549834Y-72310799D01*
X114493583Y-72226615D01*
X114409402Y-72170366D01*
X114335167Y-72155600D01*
X112685036Y-72155600D01*
X112685026Y-72155601D01*
X112610799Y-72170365D01*
X112526615Y-72226616D01*
X112470366Y-72310797D01*
X112455600Y-72385030D01*
X100500500Y-72385030D01*
X100500500Y-70259504D01*
X100520502Y-70191383D01*
X100537405Y-70170409D01*
X104044484Y-66663330D01*
X109040100Y-66663330D01*
X109040100Y-68237463D01*
X109040101Y-68237473D01*
X109054865Y-68311700D01*
X109111116Y-68395884D01*
X109195297Y-68452133D01*
X109195299Y-68452134D01*
X109269533Y-68466900D01*
X110843666Y-68466899D01*
X110843669Y-68466898D01*
X110843673Y-68466898D01*
X110892926Y-68457101D01*
X110917901Y-68452134D01*
X111002084Y-68395884D01*
X111058334Y-68311701D01*
X111073100Y-68237467D01*
X111073099Y-66663334D01*
X111073098Y-66663330D01*
X111073098Y-66663326D01*
X111058334Y-66589099D01*
X111002083Y-66504915D01*
X110917902Y-66448666D01*
X110843667Y-66433900D01*
X109269536Y-66433900D01*
X109269526Y-66433901D01*
X109195299Y-66448665D01*
X109111115Y-66504916D01*
X109054866Y-66589097D01*
X109040100Y-66663330D01*
X104044484Y-66663330D01*
X105942784Y-64765030D01*
X112455600Y-64765030D01*
X112455600Y-66415163D01*
X112455601Y-66415173D01*
X112470365Y-66489400D01*
X112526616Y-66573584D01*
X112610797Y-66629833D01*
X112610799Y-66629834D01*
X112685033Y-66644600D01*
X114335166Y-66644599D01*
X114335169Y-66644598D01*
X114335173Y-66644598D01*
X114384426Y-66634801D01*
X114409401Y-66629834D01*
X114493584Y-66573584D01*
X114549834Y-66489401D01*
X114564600Y-66415167D01*
X114564599Y-64765034D01*
X114564599Y-64765033D01*
X114564599Y-64765031D01*
X114564599Y-64765030D01*
X114995600Y-64765030D01*
X114995600Y-66415163D01*
X114995601Y-66415173D01*
X115010365Y-66489400D01*
X115066616Y-66573584D01*
X115150797Y-66629833D01*
X115150799Y-66629834D01*
X115225033Y-66644600D01*
X116875166Y-66644599D01*
X116875169Y-66644598D01*
X116875173Y-66644598D01*
X116924426Y-66634801D01*
X116949401Y-66629834D01*
X117033584Y-66573584D01*
X117089834Y-66489401D01*
X117104600Y-66415167D01*
X117104599Y-64765034D01*
X117104599Y-64765033D01*
X117104599Y-64765031D01*
X117104599Y-64765030D01*
X117535600Y-64765030D01*
X117535600Y-66415163D01*
X117535601Y-66415173D01*
X117550365Y-66489400D01*
X117606616Y-66573584D01*
X117690797Y-66629833D01*
X117690799Y-66629834D01*
X117765033Y-66644600D01*
X119052661Y-66644599D01*
X119120782Y-66664601D01*
X119141758Y-66681505D01*
X121688154Y-69227975D01*
X121688179Y-69228003D01*
X121764645Y-69304469D01*
X121764650Y-69304473D01*
X121764653Y-69304476D01*
X121764655Y-69304477D01*
X121838181Y-69346927D01*
X121841041Y-69348578D01*
X121848148Y-69352681D01*
X121851211Y-69354584D01*
X121851644Y-69354700D01*
X121851646Y-69354701D01*
X121887148Y-69364212D01*
X121887155Y-69364217D01*
X121887156Y-69364215D01*
X121948669Y-69380700D01*
X122049119Y-69380701D01*
X122049123Y-69380700D01*
X146538403Y-69380700D01*
X146606524Y-69400702D01*
X146627493Y-69417599D01*
X147171327Y-69961369D01*
X147181590Y-69971630D01*
X147215619Y-70033940D01*
X147218500Y-70060731D01*
X147218500Y-72029600D01*
X147198498Y-72097721D01*
X147144842Y-72144214D01*
X147092500Y-72155600D01*
X145504736Y-72155600D01*
X145504726Y-72155601D01*
X145430499Y-72170365D01*
X145346315Y-72226616D01*
X145290066Y-72310797D01*
X145275300Y-72385030D01*
X145275300Y-74035163D01*
X145275301Y-74035173D01*
X145290065Y-74109400D01*
X145346316Y-74193584D01*
X145430497Y-74249833D01*
X145430499Y-74249834D01*
X145504733Y-74264600D01*
X147092500Y-74264599D01*
X147160621Y-74284601D01*
X147207114Y-74338257D01*
X147218500Y-74390599D01*
X147218500Y-74798870D01*
X147218499Y-74899320D01*
X147237924Y-74971818D01*
X147244499Y-74996354D01*
X147261133Y-75025166D01*
X147278622Y-75055457D01*
X147278622Y-75055460D01*
X147294722Y-75083345D01*
X147294723Y-75083346D01*
X147294724Y-75083347D01*
X147332669Y-75121292D01*
X147332670Y-75121294D01*
X147332671Y-75121294D01*
X150981497Y-78770216D01*
X151015521Y-78832528D01*
X151018400Y-78859310D01*
X151018400Y-100200423D01*
X151018399Y-100200423D01*
X151018400Y-100200425D01*
X151044399Y-100297454D01*
X151087736Y-100372517D01*
X151094624Y-100384447D01*
X151094627Y-100384450D01*
X151094630Y-100384454D01*
X153014346Y-102304170D01*
X153014351Y-102304174D01*
X153014353Y-102304176D01*
X153014354Y-102304177D01*
X153014356Y-102304178D01*
X153101342Y-102354399D01*
X153101347Y-102354402D01*
X153198375Y-102380401D01*
X153198377Y-102380401D01*
X153306543Y-102380401D01*
X153306559Y-102380400D01*
X159040386Y-102380400D01*
X159108507Y-102400402D01*
X159129480Y-102417303D01*
X169312196Y-112600117D01*
X169346221Y-112662428D01*
X169349100Y-112689211D01*
X169349100Y-113029300D01*
X169329098Y-113097421D01*
X169275442Y-113143914D01*
X169223100Y-113155300D01*
X168804836Y-113155300D01*
X168804826Y-113155301D01*
X168730599Y-113170065D01*
X168646415Y-113226316D01*
X168590166Y-113310496D01*
X168583478Y-113344119D01*
X168550569Y-113407029D01*
X168488873Y-113442159D01*
X168417979Y-113438358D01*
X168360393Y-113396832D01*
X168336320Y-113344115D01*
X168329634Y-113310499D01*
X168273584Y-113226616D01*
X168273384Y-113226316D01*
X168273383Y-113226315D01*
X168189202Y-113170066D01*
X168114967Y-113155300D01*
X166264836Y-113155300D01*
X166264826Y-113155301D01*
X166190599Y-113170065D01*
X166106415Y-113226316D01*
X166050166Y-113310497D01*
X166035400Y-113384730D01*
X166035400Y-115234863D01*
X166035401Y-115234873D01*
X166050165Y-115309100D01*
X166106417Y-115393286D01*
X166115190Y-115402059D01*
X166112371Y-115404877D01*
X166143487Y-115442105D01*
X166152339Y-115512548D01*
X166121701Y-115576594D01*
X166061302Y-115613909D01*
X166027960Y-115618400D01*
X165410113Y-115618400D01*
X165341992Y-115598398D01*
X165321018Y-115581495D01*
X158308305Y-108568782D01*
X158274279Y-108506470D01*
X158271400Y-108479687D01*
X158271400Y-108170499D01*
X158291402Y-108102378D01*
X158345058Y-108055885D01*
X158397400Y-108044499D01*
X158714964Y-108044499D01*
X158714966Y-108044499D01*
X158714969Y-108044498D01*
X158714972Y-108044498D01*
X158751563Y-108037219D01*
X158789201Y-108029734D01*
X158873384Y-107973484D01*
X158929634Y-107889301D01*
X158944400Y-107815067D01*
X158944399Y-106164934D01*
X158944398Y-106164931D01*
X158944398Y-106164926D01*
X158929634Y-106090699D01*
X158929633Y-106090697D01*
X158873384Y-106006516D01*
X158873383Y-106006515D01*
X158789202Y-105950266D01*
X158714967Y-105935500D01*
X157064836Y-105935500D01*
X157064826Y-105935501D01*
X156990599Y-105950265D01*
X156906415Y-106006516D01*
X156850166Y-106090697D01*
X156835400Y-106164930D01*
X156835400Y-107815063D01*
X156835401Y-107815073D01*
X156850165Y-107889300D01*
X156906416Y-107973484D01*
X156990597Y-108029733D01*
X156990599Y-108029734D01*
X157064833Y-108044500D01*
X157382400Y-108044499D01*
X157450520Y-108064501D01*
X157497013Y-108118156D01*
X157508400Y-108170499D01*
X157508400Y-108740123D01*
X157508399Y-108740123D01*
X157508400Y-108740125D01*
X157534399Y-108837154D01*
X157576889Y-108910750D01*
X157584624Y-108924147D01*
X157584627Y-108924150D01*
X157584630Y-108924154D01*
X164894624Y-116234147D01*
X164965653Y-116305176D01*
X164965654Y-116305177D01*
X164965656Y-116305178D01*
X165052641Y-116355399D01*
X165052643Y-116355399D01*
X165052646Y-116355401D01*
X165149675Y-116381400D01*
X182980994Y-116381400D01*
X182981022Y-116381401D01*
X182989782Y-116381400D01*
X182989786Y-116381402D01*
X183056752Y-116381400D01*
X183056754Y-116381400D01*
X183084894Y-116381400D01*
X183090225Y-116381400D01*
X183090228Y-116381399D01*
X183090236Y-116381399D01*
X183143675Y-116367077D01*
X183187254Y-116355401D01*
X183187259Y-116355398D01*
X183187263Y-116355397D01*
X183221947Y-116335370D01*
X183274247Y-116305176D01*
X183274251Y-116305171D01*
X183274256Y-116305169D01*
X183308118Y-116271304D01*
X183345276Y-116234147D01*
X183345276Y-116234145D01*
X183355635Y-116223787D01*
X183355647Y-116223770D01*
X184077870Y-115501505D01*
X184140181Y-115467479D01*
X184166968Y-115464599D01*
X185654864Y-115464599D01*
X185654866Y-115464599D01*
X185654869Y-115464598D01*
X185654872Y-115464598D01*
X185691463Y-115457319D01*
X185729101Y-115449834D01*
X185813284Y-115393584D01*
X185869534Y-115309401D01*
X185876221Y-115275782D01*
X185909128Y-115212873D01*
X185970822Y-115177740D01*
X186041717Y-115181540D01*
X186099304Y-115223065D01*
X186123379Y-115275782D01*
X186130066Y-115309401D01*
X186186316Y-115393584D01*
X186270497Y-115449833D01*
X186270499Y-115449834D01*
X186344733Y-115464600D01*
X188194866Y-115464599D01*
X188194869Y-115464598D01*
X188194873Y-115464598D01*
X188244126Y-115454801D01*
X188269101Y-115449834D01*
X188353284Y-115393584D01*
X188409534Y-115309401D01*
X188424300Y-115235167D01*
X188424299Y-113385034D01*
X188424298Y-113385030D01*
X188424298Y-113385026D01*
X188409534Y-113310799D01*
X188353283Y-113226615D01*
X188269102Y-113170366D01*
X188194867Y-113155600D01*
X186344736Y-113155600D01*
X186344726Y-113155601D01*
X186270499Y-113170365D01*
X186186315Y-113226616D01*
X186130066Y-113310796D01*
X186123378Y-113344419D01*
X186090469Y-113407329D01*
X186028773Y-113442459D01*
X185957879Y-113438658D01*
X185900293Y-113397132D01*
X185876220Y-113344415D01*
X185869534Y-113310799D01*
X185813283Y-113226615D01*
X185729102Y-113170366D01*
X185654867Y-113155600D01*
X183804736Y-113155600D01*
X183804726Y-113155601D01*
X183730499Y-113170365D01*
X183646315Y-113226616D01*
X183590066Y-113310796D01*
X183583378Y-113344419D01*
X183550469Y-113407329D01*
X183488773Y-113442459D01*
X183417879Y-113438658D01*
X183360293Y-113397132D01*
X183336220Y-113344415D01*
X183329534Y-113310799D01*
X183273283Y-113226615D01*
X183189102Y-113170366D01*
X183114867Y-113155600D01*
X181264736Y-113155600D01*
X181264726Y-113155601D01*
X181190499Y-113170365D01*
X181106315Y-113226616D01*
X181050066Y-113310797D01*
X181035300Y-113385030D01*
X181035300Y-115235163D01*
X181035301Y-115235173D01*
X181050065Y-115309400D01*
X181106317Y-115393586D01*
X181115090Y-115402359D01*
X181112163Y-115405285D01*
X181142937Y-115442104D01*
X181151790Y-115512546D01*
X181121153Y-115576593D01*
X181060754Y-115613908D01*
X181027411Y-115618400D01*
X173431840Y-115618400D01*
X173363719Y-115598398D01*
X173317226Y-115544742D01*
X173307122Y-115474468D01*
X173336616Y-115409888D01*
X173345022Y-115402471D01*
X173344610Y-115402059D01*
X173353383Y-115393285D01*
X173364596Y-115376505D01*
X173409634Y-115309101D01*
X173424400Y-115234867D01*
X173424399Y-113384734D01*
X173424398Y-113384730D01*
X173424398Y-113384726D01*
X173409634Y-113310499D01*
X173353584Y-113226616D01*
X173353384Y-113226316D01*
X173353383Y-113226315D01*
X173269202Y-113170066D01*
X173194969Y-113155300D01*
X173194967Y-113155300D01*
X171707135Y-113155300D01*
X171639014Y-113135298D01*
X171618048Y-113118404D01*
X166558059Y-108059403D01*
X166524028Y-107997094D01*
X166529086Y-107926278D01*
X166571627Y-107869438D01*
X166638145Y-107844621D01*
X166647146Y-107844299D01*
X168114964Y-107844299D01*
X168114966Y-107844299D01*
X168114969Y-107844298D01*
X168114972Y-107844298D01*
X168151563Y-107837019D01*
X168189201Y-107829534D01*
X168273384Y-107773284D01*
X168329634Y-107689101D01*
X168336321Y-107655482D01*
X168369228Y-107592573D01*
X168430922Y-107557440D01*
X168501817Y-107561240D01*
X168559404Y-107602765D01*
X168583479Y-107655482D01*
X168590166Y-107689101D01*
X168646416Y-107773284D01*
X168730597Y-107829533D01*
X168730599Y-107829534D01*
X168804833Y-107844300D01*
X170654966Y-107844299D01*
X170654969Y-107844298D01*
X170654973Y-107844298D01*
X170719829Y-107831398D01*
X170729201Y-107829534D01*
X170813384Y-107773284D01*
X170869634Y-107689101D01*
X170876321Y-107655482D01*
X170909228Y-107592573D01*
X170970922Y-107557440D01*
X171041817Y-107561240D01*
X171099404Y-107602765D01*
X171123479Y-107655482D01*
X171130166Y-107689101D01*
X171186416Y-107773284D01*
X171270597Y-107829533D01*
X171270599Y-107829534D01*
X171344833Y-107844300D01*
X173194966Y-107844299D01*
X173194969Y-107844298D01*
X173194973Y-107844298D01*
X173259829Y-107831398D01*
X173269201Y-107829534D01*
X173353384Y-107773284D01*
X173409634Y-107689101D01*
X173416321Y-107655482D01*
X173449228Y-107592573D01*
X173510922Y-107557440D01*
X173581817Y-107561240D01*
X173639404Y-107602765D01*
X173663479Y-107655482D01*
X173670166Y-107689101D01*
X173726416Y-107773284D01*
X173810597Y-107829533D01*
X173810599Y-107829534D01*
X173884833Y-107844300D01*
X175372944Y-107844299D01*
X175441065Y-107864301D01*
X175462037Y-107881201D01*
X175985456Y-108404585D01*
X176083976Y-108503099D01*
X176135953Y-108555076D01*
X176135960Y-108555080D01*
X176135963Y-108555083D01*
X176153611Y-108565271D01*
X176222209Y-108604875D01*
X176222947Y-108605310D01*
X176223780Y-108605525D01*
X176276820Y-108619736D01*
X176276823Y-108619738D01*
X176319061Y-108631055D01*
X176319930Y-108631295D01*
X176319975Y-108631301D01*
X176319983Y-108631300D01*
X176319987Y-108631302D01*
X176386953Y-108631300D01*
X176386955Y-108631300D01*
X188300023Y-108631300D01*
X188300025Y-108631300D01*
X188397054Y-108605301D01*
X188397057Y-108605299D01*
X188397058Y-108605299D01*
X188466387Y-108565272D01*
X188484047Y-108555076D01*
X188555076Y-108484047D01*
X189157619Y-107881504D01*
X189219931Y-107847478D01*
X189246714Y-107844599D01*
X190734864Y-107844599D01*
X190734866Y-107844599D01*
X190734869Y-107844598D01*
X190734872Y-107844598D01*
X190771463Y-107837319D01*
X190809101Y-107829834D01*
X190893284Y-107773584D01*
X190949534Y-107689401D01*
X190964300Y-107615167D01*
X190964299Y-105765034D01*
X190964298Y-105765030D01*
X190964298Y-105765026D01*
X190949534Y-105690799D01*
X190938713Y-105674605D01*
X190893284Y-105606616D01*
X190893283Y-105606615D01*
X190809102Y-105550366D01*
X190734867Y-105535600D01*
X188884736Y-105535600D01*
X188884726Y-105535601D01*
X188810499Y-105550365D01*
X188726315Y-105606616D01*
X188670066Y-105690796D01*
X188663378Y-105724419D01*
X188630469Y-105787329D01*
X188568773Y-105822459D01*
X188497879Y-105818658D01*
X188440293Y-105777132D01*
X188416220Y-105724415D01*
X188409534Y-105690799D01*
X188398713Y-105674605D01*
X188353284Y-105606616D01*
X188353283Y-105606615D01*
X188269102Y-105550366D01*
X188194867Y-105535600D01*
X186344736Y-105535600D01*
X186344726Y-105535601D01*
X186270499Y-105550365D01*
X186186315Y-105606616D01*
X186130066Y-105690796D01*
X186123378Y-105724419D01*
X186090469Y-105787329D01*
X186028773Y-105822459D01*
X185957879Y-105818658D01*
X185900293Y-105777132D01*
X185876220Y-105724415D01*
X185869534Y-105690799D01*
X185858713Y-105674605D01*
X185813284Y-105606616D01*
X185813283Y-105606615D01*
X185729102Y-105550366D01*
X185654867Y-105535600D01*
X183804736Y-105535600D01*
X183804726Y-105535601D01*
X183730499Y-105550365D01*
X183646315Y-105606616D01*
X183590066Y-105690796D01*
X183583378Y-105724419D01*
X183550469Y-105787329D01*
X183488773Y-105822459D01*
X183417879Y-105818658D01*
X183360293Y-105777132D01*
X183336220Y-105724415D01*
X183329534Y-105690799D01*
X183318713Y-105674605D01*
X183273284Y-105606616D01*
X183273283Y-105606615D01*
X183189102Y-105550366D01*
X183114867Y-105535600D01*
X181264736Y-105535600D01*
X181264726Y-105535601D01*
X181190499Y-105550365D01*
X181106315Y-105606616D01*
X181050066Y-105690797D01*
X181035300Y-105765030D01*
X181035300Y-107615163D01*
X181035301Y-107615173D01*
X181050065Y-107689399D01*
X181052006Y-107694084D01*
X181059594Y-107764674D01*
X181027813Y-107828160D01*
X180966755Y-107864387D01*
X180935596Y-107868300D01*
X176580404Y-107868300D01*
X176512283Y-107848298D01*
X176491311Y-107831398D01*
X176001306Y-107341425D01*
X175967279Y-107279114D01*
X175964399Y-107252327D01*
X175964399Y-105764736D01*
X175964398Y-105764727D01*
X175949634Y-105690499D01*
X175927076Y-105656739D01*
X175893384Y-105606316D01*
X175893383Y-105606315D01*
X175809202Y-105550066D01*
X175734967Y-105535300D01*
X173884836Y-105535300D01*
X173884826Y-105535301D01*
X173810599Y-105550065D01*
X173726415Y-105606316D01*
X173670166Y-105690496D01*
X173663478Y-105724119D01*
X173630569Y-105787029D01*
X173568873Y-105822159D01*
X173497979Y-105818358D01*
X173440393Y-105776832D01*
X173416320Y-105724115D01*
X173414224Y-105713579D01*
X173409634Y-105690499D01*
X173353384Y-105606316D01*
X173353383Y-105606315D01*
X173269202Y-105550066D01*
X173194969Y-105535300D01*
X173194967Y-105535300D01*
X171707313Y-105535300D01*
X171639192Y-105515298D01*
X171618218Y-105498395D01*
X171064646Y-104944823D01*
X171055617Y-104939611D01*
X171055614Y-104939609D01*
X170977654Y-104894599D01*
X170880625Y-104868600D01*
X170880623Y-104868600D01*
X164210613Y-104868600D01*
X164142492Y-104848598D01*
X164121518Y-104831695D01*
X159985253Y-100695429D01*
X159985243Y-100695421D01*
X159948657Y-100674298D01*
X159948655Y-100674298D01*
X159898254Y-100645199D01*
X159801225Y-100619200D01*
X159801223Y-100619200D01*
X153959126Y-100619200D01*
X153891005Y-100599198D01*
X153870027Y-100582292D01*
X153728347Y-100440600D01*
X153252686Y-99964897D01*
X153019301Y-99731491D01*
X152985278Y-99669177D01*
X152982400Y-99642399D01*
X152982400Y-85074349D01*
X153499494Y-85074349D01*
X153499500Y-85074438D01*
X153499500Y-98934008D01*
X153499500Y-99065792D01*
X153521081Y-99146335D01*
X153533607Y-99193083D01*
X153533610Y-99193090D01*
X153599497Y-99307210D01*
X153599505Y-99307220D01*
X153692679Y-99400394D01*
X153692684Y-99400398D01*
X153692686Y-99400400D01*
X153806814Y-99466292D01*
X153934108Y-99500400D01*
X153934110Y-99500400D01*
X166906117Y-99500400D01*
X166974238Y-99520402D01*
X167020731Y-99574058D01*
X167030835Y-99644332D01*
X167001341Y-99708912D01*
X166995268Y-99715440D01*
X166746123Y-99964897D01*
X166159401Y-100552354D01*
X166129552Y-100582240D01*
X166067261Y-100616304D01*
X166040401Y-100619200D01*
X163962460Y-100619200D01*
X163894339Y-100599198D01*
X163873365Y-100582295D01*
X163843424Y-100552354D01*
X163843414Y-100552346D01*
X163715882Y-100478716D01*
X163573633Y-100440600D01*
X163426367Y-100440600D01*
X163331534Y-100466010D01*
X163284117Y-100478716D01*
X163156585Y-100552346D01*
X163156575Y-100552354D01*
X163052454Y-100656475D01*
X163052446Y-100656485D01*
X162978816Y-100784017D01*
X162940700Y-100926268D01*
X162940700Y-101073531D01*
X162940699Y-101073531D01*
X162978816Y-101215782D01*
X163052446Y-101343314D01*
X163052454Y-101343324D01*
X163156575Y-101447445D01*
X163156580Y-101447449D01*
X163156582Y-101447451D01*
X163284118Y-101521084D01*
X163426367Y-101559200D01*
X163426369Y-101559200D01*
X163573631Y-101559200D01*
X163573633Y-101559200D01*
X163715882Y-101521084D01*
X163843418Y-101447451D01*
X163850269Y-101440600D01*
X163871765Y-101419105D01*
X163934077Y-101385079D01*
X163960860Y-101382200D01*
X165272440Y-101382200D01*
X165340561Y-101402202D01*
X165387054Y-101455858D01*
X165397158Y-101526132D01*
X165367664Y-101590712D01*
X165361535Y-101597295D01*
X165302354Y-101656475D01*
X165302346Y-101656485D01*
X165228716Y-101784017D01*
X165190600Y-101926268D01*
X165190600Y-102073531D01*
X165190599Y-102073531D01*
X165228716Y-102215782D01*
X165302346Y-102343314D01*
X165302354Y-102343324D01*
X165406475Y-102447445D01*
X165406480Y-102447449D01*
X165406482Y-102447451D01*
X165406483Y-102447452D01*
X165406485Y-102447453D01*
X165436353Y-102464697D01*
X165534018Y-102521084D01*
X165676267Y-102559200D01*
X165676269Y-102559200D01*
X165823531Y-102559200D01*
X165823533Y-102559200D01*
X165965782Y-102521084D01*
X166093318Y-102447451D01*
X166100586Y-102440183D01*
X166123465Y-102417305D01*
X166185777Y-102383279D01*
X166212560Y-102380400D01*
X166681417Y-102380400D01*
X166749538Y-102400402D01*
X166796031Y-102454058D01*
X166806135Y-102524332D01*
X166786181Y-102576403D01*
X166748966Y-102632097D01*
X166734200Y-102706330D01*
X166734200Y-104280463D01*
X166734201Y-104280473D01*
X166748965Y-104354700D01*
X166805216Y-104438884D01*
X166889397Y-104495133D01*
X166889399Y-104495134D01*
X166963633Y-104509900D01*
X168537766Y-104509899D01*
X168537769Y-104509898D01*
X168537773Y-104509898D01*
X168587026Y-104500101D01*
X168612001Y-104495134D01*
X168696184Y-104438884D01*
X168752434Y-104354701D01*
X168767200Y-104280467D01*
X168767199Y-102706334D01*
X168767198Y-102706330D01*
X168767198Y-102706326D01*
X168752434Y-102632099D01*
X168715218Y-102576402D01*
X168694003Y-102508650D01*
X168712786Y-102440183D01*
X168765603Y-102392739D01*
X168819983Y-102380400D01*
X181681117Y-102380400D01*
X181749238Y-102400402D01*
X181795731Y-102454058D01*
X181805835Y-102524332D01*
X181785881Y-102576403D01*
X181748666Y-102632097D01*
X181733900Y-102706330D01*
X181733900Y-104280463D01*
X181733901Y-104280473D01*
X181748665Y-104354700D01*
X181804916Y-104438884D01*
X181889097Y-104495133D01*
X181889099Y-104495134D01*
X181963333Y-104509900D01*
X183537466Y-104509899D01*
X183537469Y-104509898D01*
X183537473Y-104509898D01*
X183586726Y-104500101D01*
X183611701Y-104495134D01*
X183695884Y-104438884D01*
X183752134Y-104354701D01*
X183766900Y-104280467D01*
X183766899Y-102706334D01*
X183766898Y-102706330D01*
X183766898Y-102706326D01*
X183752134Y-102632099D01*
X183714918Y-102576402D01*
X183693703Y-102508650D01*
X183712486Y-102440183D01*
X183765303Y-102392739D01*
X183819683Y-102380400D01*
X187450278Y-102380400D01*
X187450282Y-102380401D01*
X187500507Y-102380400D01*
X187550725Y-102380400D01*
X187550920Y-102380400D01*
X187551309Y-102380342D01*
X187554342Y-102379431D01*
X187584218Y-102371425D01*
X187606050Y-102365575D01*
X187606051Y-102365574D01*
X187647754Y-102354401D01*
X187647755Y-102354399D01*
X187647757Y-102354399D01*
X187647759Y-102354399D01*
X187673472Y-102339552D01*
X187734747Y-102304176D01*
X187805776Y-102233147D01*
X187805777Y-102233143D01*
X187814266Y-102224655D01*
X187814274Y-102224644D01*
X190538423Y-99500400D01*
X190545169Y-99493653D01*
X190547542Y-99491708D01*
X190552577Y-99486338D01*
X190553989Y-99484879D01*
X190554984Y-99483216D01*
X190559153Y-99476469D01*
X190560355Y-99473799D01*
X190579921Y-99439908D01*
X190579924Y-99439901D01*
X190579929Y-99439893D01*
X190604201Y-99397854D01*
X190604201Y-99397851D01*
X190604202Y-99397848D01*
X190604204Y-99397847D01*
X190619033Y-99342499D01*
X190629234Y-99304426D01*
X190630143Y-99301400D01*
X190630200Y-99301012D01*
X190630200Y-99300821D01*
X190630201Y-99300818D01*
X190630200Y-99233256D01*
X190630200Y-95212830D01*
X190983600Y-95212830D01*
X190983600Y-96786963D01*
X190983601Y-96786973D01*
X190998365Y-96861200D01*
X191054616Y-96945384D01*
X191138797Y-97001633D01*
X191138799Y-97001634D01*
X191213033Y-97016400D01*
X192787166Y-97016399D01*
X192787169Y-97016398D01*
X192787173Y-97016398D01*
X192836426Y-97006601D01*
X192861401Y-97001634D01*
X192945584Y-96945384D01*
X193001834Y-96861201D01*
X193016600Y-96786967D01*
X193016599Y-95212834D01*
X193016598Y-95212830D01*
X193016598Y-95212826D01*
X193001834Y-95138599D01*
X192945583Y-95054415D01*
X192861402Y-94998166D01*
X192787167Y-94983400D01*
X191213036Y-94983400D01*
X191213026Y-94983401D01*
X191138799Y-94998165D01*
X191054615Y-95054416D01*
X190998366Y-95138597D01*
X190983600Y-95212830D01*
X190630200Y-95212830D01*
X190630200Y-88460325D01*
X190650202Y-88392204D01*
X190667165Y-88371169D01*
X191486061Y-87553439D01*
X191548398Y-87519459D01*
X191575093Y-87516599D01*
X192787164Y-87516599D01*
X192787166Y-87516599D01*
X192787169Y-87516598D01*
X192787172Y-87516598D01*
X192823763Y-87509319D01*
X192861401Y-87501834D01*
X192945584Y-87445584D01*
X193001834Y-87361401D01*
X193016600Y-87287167D01*
X193016599Y-85713034D01*
X193016598Y-85713030D01*
X193016598Y-85713026D01*
X193001834Y-85638799D01*
X192959283Y-85575118D01*
X192945584Y-85554616D01*
X192945583Y-85554615D01*
X192861402Y-85498366D01*
X192787167Y-85483600D01*
X191213036Y-85483600D01*
X191213026Y-85483601D01*
X191138799Y-85498365D01*
X191054615Y-85554616D01*
X190998366Y-85638797D01*
X190983600Y-85713030D01*
X190983600Y-86924665D01*
X190963598Y-86992786D01*
X190946632Y-87013824D01*
X190020462Y-87938673D01*
X190019989Y-87939088D01*
X189978709Y-87980367D01*
X189978649Y-87980427D01*
X189943579Y-88015447D01*
X189943429Y-88015642D01*
X189918123Y-88059474D01*
X189918080Y-88059548D01*
X189893297Y-88102403D01*
X189893285Y-88102434D01*
X189893201Y-88102637D01*
X189880234Y-88151028D01*
X189880212Y-88151111D01*
X189867231Y-88199420D01*
X189867200Y-88199656D01*
X189867200Y-88249719D01*
X189867158Y-88307747D01*
X189867200Y-88308384D01*
X189867200Y-99040391D01*
X189847198Y-99108512D01*
X189830297Y-99129485D01*
X189688980Y-99270806D01*
X189626668Y-99304832D01*
X189555852Y-99299768D01*
X189499016Y-99257222D01*
X189474204Y-99190703D01*
X189478176Y-99149105D01*
X189500500Y-99065792D01*
X189500500Y-85001038D01*
X189500505Y-84935147D01*
X189500500Y-84935128D01*
X189500500Y-84935108D01*
X189483304Y-84870932D01*
X189466407Y-84807850D01*
X189466397Y-84807832D01*
X189466392Y-84807814D01*
X189433186Y-84750299D01*
X189400524Y-84693717D01*
X189400509Y-84693702D01*
X189400500Y-84693686D01*
X189353934Y-84647120D01*
X189307345Y-84600524D01*
X189307344Y-84600523D01*
X189307339Y-84600518D01*
X189307319Y-84600503D01*
X189305564Y-84599490D01*
X189248759Y-84566693D01*
X189248760Y-84566691D01*
X189248752Y-84566689D01*
X189193222Y-84534623D01*
X189193221Y-84534622D01*
X189193206Y-84534614D01*
X189193188Y-84534609D01*
X189193186Y-84534608D01*
X189128537Y-84517285D01*
X189100299Y-84509716D01*
X189065912Y-84500500D01*
X189065892Y-84500500D01*
X189000921Y-84500500D01*
X176074042Y-84499505D01*
X176073956Y-84499500D01*
X176065892Y-84499500D01*
X175999156Y-84499500D01*
X175934142Y-84499494D01*
X175934114Y-84499498D01*
X175869938Y-84516693D01*
X175869931Y-84516695D01*
X175806831Y-84533597D01*
X175761382Y-84559837D01*
X175761380Y-84559838D01*
X175751307Y-84565654D01*
X175692717Y-84599476D01*
X175692702Y-84599490D01*
X175692686Y-84599500D01*
X175646120Y-84646065D01*
X175599524Y-84692655D01*
X175599514Y-84692671D01*
X175599500Y-84692686D01*
X175566237Y-84750299D01*
X175533623Y-84806778D01*
X175533617Y-84806796D01*
X175533608Y-84806814D01*
X175516285Y-84871462D01*
X175513265Y-84882727D01*
X175513263Y-84882733D01*
X175499500Y-84934088D01*
X175499500Y-84999971D01*
X175499494Y-85074349D01*
X175499500Y-85074438D01*
X175499500Y-98934008D01*
X175499500Y-99065792D01*
X175521081Y-99146335D01*
X175533607Y-99193083D01*
X175533610Y-99193090D01*
X175599497Y-99307210D01*
X175599505Y-99307220D01*
X175692679Y-99400394D01*
X175692684Y-99400398D01*
X175692686Y-99400400D01*
X175806814Y-99466292D01*
X175934108Y-99500400D01*
X175934110Y-99500400D01*
X189065889Y-99500400D01*
X189065892Y-99500400D01*
X189149225Y-99478071D01*
X189220198Y-99479761D01*
X189278994Y-99519555D01*
X189306942Y-99584819D01*
X189295169Y-99654833D01*
X189270930Y-99688872D01*
X187893090Y-101066762D01*
X187416130Y-101543742D01*
X187379379Y-101580494D01*
X187317068Y-101614520D01*
X187290282Y-101617400D01*
X166380316Y-101617400D01*
X166312195Y-101597398D01*
X166265702Y-101543742D01*
X166255598Y-101473468D01*
X166285092Y-101408888D01*
X166344818Y-101370504D01*
X166347535Y-101369738D01*
X166349634Y-101369175D01*
X166349768Y-101369178D01*
X166349759Y-101369142D01*
X166362321Y-101365775D01*
X166398054Y-101356201D01*
X166398058Y-101356198D01*
X166398064Y-101356197D01*
X166398261Y-101356116D01*
X166398271Y-101356109D01*
X166398275Y-101356109D01*
X166441074Y-101331363D01*
X166485047Y-101305976D01*
X166485052Y-101305971D01*
X166485231Y-101305832D01*
X166485238Y-101305829D01*
X166520360Y-101270661D01*
X166520433Y-101270621D01*
X166520417Y-101270605D01*
X166556076Y-101234947D01*
X166556077Y-101234944D01*
X166561693Y-101229329D01*
X166562050Y-101228919D01*
X168519189Y-99269332D01*
X168519242Y-99269281D01*
X168537157Y-99251364D01*
X168555076Y-99233447D01*
X168555081Y-99233437D01*
X168555217Y-99233260D01*
X168555222Y-99233256D01*
X168579954Y-99190356D01*
X168579955Y-99190354D01*
X168579959Y-99190356D01*
X168579983Y-99190304D01*
X168605301Y-99146454D01*
X168605302Y-99146447D01*
X168605391Y-99146235D01*
X168605391Y-99146233D01*
X168605393Y-99146231D01*
X168614258Y-99113063D01*
X168618459Y-99097347D01*
X168618476Y-99097351D01*
X168618478Y-99097271D01*
X168631300Y-99049425D01*
X168631300Y-99049423D01*
X168631301Y-99049420D01*
X168631331Y-99049190D01*
X168631332Y-99049187D01*
X168631300Y-98998164D01*
X168631300Y-95212830D01*
X168983600Y-95212830D01*
X168983600Y-96786963D01*
X168983601Y-96786973D01*
X168998365Y-96861200D01*
X169054616Y-96945384D01*
X169138797Y-97001633D01*
X169138799Y-97001634D01*
X169213033Y-97016400D01*
X170787166Y-97016399D01*
X170787169Y-97016398D01*
X170787173Y-97016398D01*
X170836426Y-97006601D01*
X170861401Y-97001634D01*
X170945584Y-96945384D01*
X171001834Y-96861201D01*
X171016600Y-96786967D01*
X171016599Y-95212834D01*
X171016598Y-95212830D01*
X171016598Y-95212826D01*
X171001834Y-95138599D01*
X170945583Y-95054415D01*
X170861402Y-94998166D01*
X170787167Y-94983400D01*
X169213036Y-94983400D01*
X169213026Y-94983401D01*
X169138799Y-94998165D01*
X169054615Y-95054416D01*
X168998366Y-95138597D01*
X168983600Y-95212830D01*
X168631300Y-95212830D01*
X168631300Y-88460113D01*
X168651302Y-88391992D01*
X168668205Y-88371018D01*
X169485719Y-87553504D01*
X169548031Y-87519478D01*
X169574814Y-87516599D01*
X170787164Y-87516599D01*
X170787166Y-87516599D01*
X170787169Y-87516598D01*
X170787172Y-87516598D01*
X170823763Y-87509319D01*
X170861401Y-87501834D01*
X170945584Y-87445584D01*
X171001834Y-87361401D01*
X171016600Y-87287167D01*
X171016599Y-85713034D01*
X171016598Y-85713030D01*
X171016598Y-85713026D01*
X171001834Y-85638799D01*
X170959283Y-85575118D01*
X170945584Y-85554616D01*
X170945583Y-85554615D01*
X170861402Y-85498366D01*
X170787167Y-85483600D01*
X169213036Y-85483600D01*
X169213026Y-85483601D01*
X169138799Y-85498365D01*
X169054615Y-85554616D01*
X168998366Y-85638797D01*
X168983600Y-85713030D01*
X168983600Y-86924385D01*
X168963598Y-86992506D01*
X168946696Y-87013480D01*
X168015553Y-87944624D01*
X168015552Y-87944624D01*
X167944529Y-88015646D01*
X167944521Y-88015656D01*
X167894300Y-88102641D01*
X167894299Y-88102646D01*
X167868369Y-88199420D01*
X167868300Y-88199676D01*
X167868300Y-98789171D01*
X167848298Y-98857292D01*
X167831451Y-98878211D01*
X167715651Y-98994156D01*
X167653360Y-99028220D01*
X167582541Y-99023199D01*
X167525679Y-98980688D01*
X167500827Y-98914183D01*
X167500500Y-98905116D01*
X167500500Y-85012764D01*
X167500500Y-85001038D01*
X167500505Y-84935147D01*
X167500500Y-84935128D01*
X167500500Y-84935108D01*
X167483304Y-84870932D01*
X167466407Y-84807850D01*
X167466397Y-84807832D01*
X167466392Y-84807814D01*
X167433186Y-84750299D01*
X167400524Y-84693717D01*
X167400509Y-84693702D01*
X167400500Y-84693686D01*
X167353934Y-84647120D01*
X167307345Y-84600524D01*
X167307344Y-84600523D01*
X167307339Y-84600518D01*
X167307319Y-84600503D01*
X167305564Y-84599490D01*
X167248759Y-84566693D01*
X167248760Y-84566691D01*
X167248752Y-84566689D01*
X167193222Y-84534623D01*
X167193221Y-84534622D01*
X167193206Y-84534614D01*
X167193188Y-84534609D01*
X167193186Y-84534608D01*
X167128537Y-84517285D01*
X167100299Y-84509716D01*
X167065912Y-84500500D01*
X167065892Y-84500500D01*
X167000921Y-84500500D01*
X154074042Y-84499505D01*
X154073956Y-84499500D01*
X154065892Y-84499500D01*
X153999156Y-84499500D01*
X153934142Y-84499494D01*
X153934114Y-84499498D01*
X153869938Y-84516693D01*
X153869931Y-84516695D01*
X153806831Y-84533597D01*
X153761382Y-84559837D01*
X153761380Y-84559838D01*
X153751307Y-84565654D01*
X153692717Y-84599476D01*
X153692702Y-84599490D01*
X153692686Y-84599500D01*
X153646120Y-84646065D01*
X153599524Y-84692655D01*
X153599514Y-84692671D01*
X153599500Y-84692686D01*
X153566237Y-84750299D01*
X153533623Y-84806778D01*
X153533617Y-84806796D01*
X153533608Y-84806814D01*
X153516285Y-84871462D01*
X153513265Y-84882727D01*
X153513263Y-84882733D01*
X153499500Y-84934088D01*
X153499500Y-84999971D01*
X153499494Y-85074349D01*
X152982400Y-85074349D01*
X152982400Y-82039130D01*
X165822300Y-82039130D01*
X165822300Y-83613263D01*
X165822301Y-83613273D01*
X165837065Y-83687500D01*
X165893316Y-83771684D01*
X165977497Y-83827933D01*
X165977499Y-83827934D01*
X166051733Y-83842700D01*
X167625866Y-83842699D01*
X167625869Y-83842698D01*
X167625873Y-83842698D01*
X167675126Y-83832901D01*
X167700101Y-83827934D01*
X167784284Y-83771684D01*
X167840534Y-83687501D01*
X167855300Y-83613267D01*
X167855299Y-82039134D01*
X167855299Y-82039133D01*
X167855299Y-82039131D01*
X167855299Y-82039130D01*
X187822300Y-82039130D01*
X187822300Y-83613263D01*
X187822301Y-83613273D01*
X187837065Y-83687500D01*
X187893316Y-83771684D01*
X187977497Y-83827933D01*
X187977499Y-83827934D01*
X188051733Y-83842700D01*
X189625866Y-83842699D01*
X189625869Y-83842698D01*
X189625873Y-83842698D01*
X189675126Y-83832901D01*
X189700101Y-83827934D01*
X189784284Y-83771684D01*
X189840534Y-83687501D01*
X189855300Y-83613267D01*
X189855299Y-82039134D01*
X189855298Y-82039131D01*
X189855298Y-82039126D01*
X189840534Y-81964899D01*
X189840533Y-81964897D01*
X189784284Y-81880716D01*
X189784283Y-81880715D01*
X189700102Y-81824466D01*
X189625867Y-81809700D01*
X188051736Y-81809700D01*
X188051726Y-81809701D01*
X187977499Y-81824465D01*
X187893315Y-81880716D01*
X187837066Y-81964897D01*
X187822300Y-82039130D01*
X167855299Y-82039130D01*
X167840534Y-81964899D01*
X167840533Y-81964897D01*
X167784284Y-81880716D01*
X167784283Y-81880715D01*
X167700102Y-81824466D01*
X167625867Y-81809700D01*
X166051736Y-81809700D01*
X166051726Y-81809701D01*
X165977499Y-81824465D01*
X165893315Y-81880716D01*
X165837066Y-81964897D01*
X165822300Y-82039130D01*
X152982400Y-82039130D01*
X152982400Y-74389601D01*
X153002402Y-74321480D01*
X153056058Y-74274987D01*
X153120750Y-74264208D01*
X153124726Y-74264598D01*
X153124733Y-74264600D01*
X154774866Y-74264599D01*
X154774869Y-74264598D01*
X154774873Y-74264598D01*
X154838502Y-74251942D01*
X154849101Y-74249834D01*
X154933284Y-74193584D01*
X154989534Y-74109401D01*
X155004300Y-74035167D01*
X155004300Y-73825030D01*
X175095250Y-73825030D01*
X175095250Y-75175163D01*
X175095251Y-75175173D01*
X175110015Y-75249400D01*
X175166266Y-75333584D01*
X175250447Y-75389833D01*
X175250449Y-75389834D01*
X175324683Y-75404600D01*
X176674916Y-75404599D01*
X176674919Y-75404598D01*
X176674923Y-75404598D01*
X176724176Y-75394801D01*
X176749151Y-75389834D01*
X176833334Y-75333584D01*
X176889584Y-75249401D01*
X176904350Y-75175167D01*
X176904349Y-73975030D01*
X177245350Y-73975030D01*
X177245350Y-75025163D01*
X177245351Y-75025173D01*
X177260115Y-75099400D01*
X177316366Y-75183584D01*
X177400547Y-75239833D01*
X177400549Y-75239834D01*
X177474783Y-75254600D01*
X178524816Y-75254599D01*
X178524819Y-75254598D01*
X178524823Y-75254598D01*
X178574076Y-75244801D01*
X178599051Y-75239834D01*
X178683234Y-75183584D01*
X178739484Y-75099401D01*
X178754250Y-75025167D01*
X178754249Y-73975034D01*
X178754249Y-73975033D01*
X178754249Y-73975031D01*
X178754249Y-73975030D01*
X179245350Y-73975030D01*
X179245350Y-75025163D01*
X179245351Y-75025173D01*
X179260115Y-75099400D01*
X179316366Y-75183584D01*
X179400547Y-75239833D01*
X179400549Y-75239834D01*
X179474783Y-75254600D01*
X180524816Y-75254599D01*
X180524819Y-75254598D01*
X180524823Y-75254598D01*
X180574076Y-75244801D01*
X180599051Y-75239834D01*
X180683234Y-75183584D01*
X180739484Y-75099401D01*
X180754250Y-75025167D01*
X180754249Y-73975034D01*
X180754249Y-73975033D01*
X180754249Y-73975031D01*
X180754249Y-73975030D01*
X181245300Y-73975030D01*
X181245300Y-75025163D01*
X181245301Y-75025173D01*
X181260065Y-75099400D01*
X181316316Y-75183584D01*
X181400497Y-75239833D01*
X181400499Y-75239834D01*
X181474733Y-75254600D01*
X182524866Y-75254599D01*
X182524869Y-75254598D01*
X182524873Y-75254598D01*
X182574126Y-75244801D01*
X182599101Y-75239834D01*
X182683284Y-75183584D01*
X182739534Y-75099401D01*
X182754300Y-75025167D01*
X182754299Y-73975034D01*
X182754298Y-73975031D01*
X182754298Y-73975026D01*
X182739534Y-73900800D01*
X182739534Y-73900799D01*
X182688906Y-73825030D01*
X183095300Y-73825030D01*
X183095300Y-75175163D01*
X183095301Y-75175173D01*
X183110065Y-75249400D01*
X183166316Y-75333584D01*
X183250497Y-75389833D01*
X183250499Y-75389834D01*
X183324733Y-75404600D01*
X184312631Y-75404599D01*
X184380752Y-75424601D01*
X184401723Y-75441501D01*
X185085840Y-76125572D01*
X185220677Y-76260400D01*
X185265553Y-76305276D01*
X185265560Y-76305281D01*
X185265562Y-76305282D01*
X185265564Y-76305284D01*
X185285320Y-76316689D01*
X185311042Y-76331539D01*
X185311045Y-76331540D01*
X185352546Y-76355501D01*
X185352547Y-76355501D01*
X185352552Y-76355504D01*
X185352611Y-76355528D01*
X185353407Y-76355734D01*
X185413605Y-76371862D01*
X185448789Y-76381289D01*
X185449534Y-76381496D01*
X185449576Y-76381501D01*
X185449584Y-76381500D01*
X185449588Y-76381502D01*
X185516554Y-76381500D01*
X185516556Y-76381500D01*
X189039884Y-76381500D01*
X189108005Y-76401502D01*
X189128980Y-76418405D01*
X190733428Y-78022878D01*
X194744504Y-82034018D01*
X194903696Y-82193212D01*
X194937721Y-82255525D01*
X194940600Y-82282307D01*
X194940600Y-82323531D01*
X194940599Y-82323531D01*
X194978716Y-82465782D01*
X195052346Y-82593314D01*
X195052354Y-82593324D01*
X195156475Y-82697445D01*
X195156480Y-82697449D01*
X195156482Y-82697451D01*
X195284018Y-82771084D01*
X195426267Y-82809200D01*
X195426269Y-82809200D01*
X195573531Y-82809200D01*
X195573533Y-82809200D01*
X195715782Y-82771084D01*
X195843318Y-82697451D01*
X195947451Y-82593318D01*
X196021084Y-82465782D01*
X196059200Y-82323533D01*
X196059200Y-82176267D01*
X196021084Y-82034018D01*
X195947451Y-81906482D01*
X195947449Y-81906480D01*
X195947445Y-81906475D01*
X195843324Y-81802354D01*
X195843314Y-81802346D01*
X195715782Y-81728716D01*
X195573533Y-81690600D01*
X195573531Y-81690600D01*
X195532319Y-81690600D01*
X195464198Y-81670598D01*
X195443223Y-81653695D01*
X189562560Y-75772938D01*
X189562550Y-75772926D01*
X189484353Y-75694729D01*
X189484349Y-75694726D01*
X189484347Y-75694724D01*
X189397354Y-75644499D01*
X189361841Y-75634983D01*
X189331084Y-75626741D01*
X189300329Y-75618500D01*
X189300326Y-75618499D01*
X189192160Y-75618499D01*
X189192144Y-75618500D01*
X188822244Y-75618500D01*
X188754123Y-75598498D01*
X188707630Y-75544842D01*
X188697526Y-75474568D01*
X188727020Y-75409988D01*
X188752242Y-75387735D01*
X188833284Y-75333584D01*
X188889534Y-75249401D01*
X188904300Y-75175167D01*
X188904299Y-73825034D01*
X188904298Y-73825030D01*
X188904298Y-73825026D01*
X188889534Y-73750799D01*
X188833283Y-73666615D01*
X188749102Y-73610366D01*
X188674867Y-73595600D01*
X187324736Y-73595600D01*
X187324726Y-73595601D01*
X187250499Y-73610365D01*
X187166315Y-73666616D01*
X187104563Y-73759032D01*
X187050085Y-73804559D01*
X186979642Y-73813406D01*
X186915599Y-73782764D01*
X186895034Y-73759031D01*
X186889534Y-73750800D01*
X186889534Y-73750799D01*
X186833284Y-73666616D01*
X186833283Y-73666615D01*
X186749102Y-73610366D01*
X186674867Y-73595600D01*
X185324736Y-73595600D01*
X185324726Y-73595601D01*
X185250499Y-73610365D01*
X185166315Y-73666616D01*
X185104563Y-73759032D01*
X185050085Y-73804559D01*
X184979642Y-73813406D01*
X184915599Y-73782764D01*
X184895034Y-73759031D01*
X184889534Y-73750800D01*
X184889534Y-73750799D01*
X184833284Y-73666616D01*
X184833283Y-73666615D01*
X184749102Y-73610366D01*
X184674867Y-73595600D01*
X183324736Y-73595600D01*
X183324726Y-73595601D01*
X183250499Y-73610365D01*
X183166315Y-73666616D01*
X183110066Y-73750797D01*
X183095300Y-73825030D01*
X182688906Y-73825030D01*
X182683284Y-73816616D01*
X182632622Y-73782764D01*
X182599102Y-73760366D01*
X182524867Y-73745600D01*
X181474736Y-73745600D01*
X181474726Y-73745601D01*
X181400499Y-73760365D01*
X181316315Y-73816616D01*
X181260066Y-73900797D01*
X181245300Y-73975030D01*
X180754249Y-73975030D01*
X180739484Y-73900799D01*
X180683233Y-73816615D01*
X180599052Y-73760366D01*
X180524817Y-73745600D01*
X179474786Y-73745600D01*
X179474776Y-73745601D01*
X179400549Y-73760365D01*
X179316365Y-73816616D01*
X179260116Y-73900797D01*
X179245350Y-73975030D01*
X178754249Y-73975030D01*
X178739484Y-73900799D01*
X178683233Y-73816615D01*
X178599052Y-73760366D01*
X178524817Y-73745600D01*
X177474786Y-73745600D01*
X177474776Y-73745601D01*
X177400549Y-73760365D01*
X177316365Y-73816616D01*
X177260116Y-73900797D01*
X177245350Y-73975030D01*
X176904349Y-73975030D01*
X176904349Y-73825034D01*
X176904348Y-73825030D01*
X176904348Y-73825026D01*
X176889584Y-73750799D01*
X176833333Y-73666615D01*
X176749152Y-73610366D01*
X176674917Y-73595600D01*
X175324686Y-73595600D01*
X175324676Y-73595601D01*
X175250449Y-73610365D01*
X175166265Y-73666616D01*
X175110016Y-73750797D01*
X175095250Y-73825030D01*
X155004300Y-73825030D01*
X155004299Y-73183584D01*
X155004299Y-72385036D01*
X155004298Y-72385026D01*
X154989534Y-72310799D01*
X154933283Y-72226615D01*
X154849102Y-72170366D01*
X154774867Y-72155600D01*
X153124736Y-72155600D01*
X153124724Y-72155602D01*
X153106927Y-72159142D01*
X153036213Y-72152813D01*
X152980147Y-72109258D01*
X152960642Y-72068174D01*
X152956401Y-72052346D01*
X152956294Y-72052161D01*
X152956240Y-72051959D01*
X152931536Y-72009279D01*
X152906176Y-71965353D01*
X152906023Y-71965200D01*
X152905919Y-71965020D01*
X152871094Y-71930271D01*
X152835147Y-71894324D01*
X152834960Y-71894216D01*
X152653378Y-71713030D01*
X164253600Y-71713030D01*
X164253600Y-73287163D01*
X164253601Y-73287173D01*
X164268365Y-73361400D01*
X164324616Y-73445584D01*
X164408797Y-73501833D01*
X164408799Y-73501834D01*
X164483033Y-73516600D01*
X166057166Y-73516599D01*
X166057169Y-73516598D01*
X166057173Y-73516598D01*
X166106426Y-73506801D01*
X166131401Y-73501834D01*
X166215584Y-73445584D01*
X166271834Y-73361401D01*
X166286600Y-73287167D01*
X166286599Y-71975030D01*
X173245400Y-71975030D01*
X173245400Y-73025163D01*
X173245401Y-73025173D01*
X173260165Y-73099400D01*
X173316416Y-73183584D01*
X173400597Y-73239833D01*
X173400599Y-73239834D01*
X173474833Y-73254600D01*
X174524966Y-73254599D01*
X174524969Y-73254598D01*
X174524973Y-73254598D01*
X174574226Y-73244801D01*
X174599201Y-73239834D01*
X174683384Y-73183584D01*
X174739634Y-73099401D01*
X174754400Y-73025167D01*
X174754399Y-71975034D01*
X174754399Y-71975033D01*
X174754399Y-71975031D01*
X174754399Y-71975030D01*
X175245400Y-71975030D01*
X175245400Y-73025163D01*
X175245401Y-73025173D01*
X175260165Y-73099400D01*
X175316416Y-73183584D01*
X175400597Y-73239833D01*
X175400599Y-73239834D01*
X175474833Y-73254600D01*
X176524966Y-73254599D01*
X176524969Y-73254598D01*
X176524973Y-73254598D01*
X176574226Y-73244801D01*
X176599201Y-73239834D01*
X176683384Y-73183584D01*
X176739634Y-73099401D01*
X176754400Y-73025167D01*
X176754399Y-71975034D01*
X176754399Y-71975033D01*
X176754399Y-71975031D01*
X176754399Y-71975030D01*
X177245400Y-71975030D01*
X177245400Y-73025163D01*
X177245401Y-73025173D01*
X177260165Y-73099400D01*
X177316416Y-73183584D01*
X177400597Y-73239833D01*
X177400599Y-73239834D01*
X177474833Y-73254600D01*
X178524966Y-73254599D01*
X178524969Y-73254598D01*
X178524973Y-73254598D01*
X178574226Y-73244801D01*
X178599201Y-73239834D01*
X178683384Y-73183584D01*
X178739634Y-73099401D01*
X178754400Y-73025167D01*
X178754399Y-71975034D01*
X178754399Y-71975033D01*
X178754399Y-71975031D01*
X178754399Y-71975030D01*
X179245400Y-71975030D01*
X179245400Y-73025163D01*
X179245401Y-73025173D01*
X179260165Y-73099400D01*
X179316416Y-73183584D01*
X179400597Y-73239833D01*
X179400599Y-73239834D01*
X179474833Y-73254600D01*
X180524966Y-73254599D01*
X180524969Y-73254598D01*
X180524973Y-73254598D01*
X180574226Y-73244801D01*
X180599201Y-73239834D01*
X180683384Y-73183584D01*
X180739634Y-73099401D01*
X180754400Y-73025167D01*
X180754399Y-71975034D01*
X180754399Y-71975033D01*
X180754399Y-71975031D01*
X180754399Y-71975030D01*
X181245350Y-71975030D01*
X181245350Y-73025163D01*
X181245351Y-73025173D01*
X181260115Y-73099400D01*
X181316366Y-73183584D01*
X181400547Y-73239833D01*
X181400549Y-73239834D01*
X181474783Y-73254600D01*
X182524816Y-73254599D01*
X182524819Y-73254598D01*
X182524823Y-73254598D01*
X182574076Y-73244801D01*
X182599051Y-73239834D01*
X182683234Y-73183584D01*
X182739484Y-73099401D01*
X182754250Y-73025167D01*
X182754249Y-71975034D01*
X182754249Y-71975033D01*
X182754249Y-71975031D01*
X182754249Y-71975030D01*
X183245350Y-71975030D01*
X183245350Y-73025163D01*
X183245351Y-73025173D01*
X183260115Y-73099400D01*
X183316366Y-73183584D01*
X183400547Y-73239833D01*
X183400549Y-73239834D01*
X183474783Y-73254600D01*
X184524816Y-73254599D01*
X184524819Y-73254598D01*
X184524823Y-73254598D01*
X184574076Y-73244801D01*
X184599051Y-73239834D01*
X184683234Y-73183584D01*
X184739484Y-73099401D01*
X184754250Y-73025167D01*
X184754249Y-71975034D01*
X184754249Y-71975033D01*
X184754249Y-71975031D01*
X184754249Y-71975030D01*
X185245350Y-71975030D01*
X185245350Y-73025163D01*
X185245351Y-73025173D01*
X185260115Y-73099400D01*
X185316366Y-73183584D01*
X185400547Y-73239833D01*
X185400549Y-73239834D01*
X185474783Y-73254600D01*
X186524816Y-73254599D01*
X186524819Y-73254598D01*
X186524823Y-73254598D01*
X186574076Y-73244801D01*
X186599051Y-73239834D01*
X186683234Y-73183584D01*
X186739484Y-73099401D01*
X186754250Y-73025167D01*
X186754249Y-71975034D01*
X186754249Y-71975033D01*
X186754249Y-71975031D01*
X186754249Y-71975030D01*
X187245350Y-71975030D01*
X187245350Y-73025163D01*
X187245351Y-73025173D01*
X187260115Y-73099400D01*
X187316366Y-73183584D01*
X187400547Y-73239833D01*
X187400549Y-73239834D01*
X187474783Y-73254600D01*
X188524816Y-73254599D01*
X188524819Y-73254598D01*
X188524823Y-73254598D01*
X188574076Y-73244801D01*
X188599051Y-73239834D01*
X188683234Y-73183584D01*
X188739484Y-73099401D01*
X188754250Y-73025167D01*
X188754249Y-71975034D01*
X188754248Y-71975031D01*
X188754248Y-71975026D01*
X188739484Y-71900799D01*
X188683233Y-71816615D01*
X188599052Y-71760366D01*
X188524817Y-71745600D01*
X187474786Y-71745600D01*
X187474776Y-71745601D01*
X187400549Y-71760365D01*
X187316365Y-71816616D01*
X187260116Y-71900797D01*
X187245350Y-71975030D01*
X186754249Y-71975030D01*
X186739484Y-71900799D01*
X186683233Y-71816615D01*
X186599052Y-71760366D01*
X186524817Y-71745600D01*
X185474786Y-71745600D01*
X185474776Y-71745601D01*
X185400549Y-71760365D01*
X185316365Y-71816616D01*
X185260116Y-71900797D01*
X185245350Y-71975030D01*
X184754249Y-71975030D01*
X184739484Y-71900799D01*
X184683233Y-71816615D01*
X184599052Y-71760366D01*
X184524817Y-71745600D01*
X183474786Y-71745600D01*
X183474776Y-71745601D01*
X183400549Y-71760365D01*
X183316365Y-71816616D01*
X183260116Y-71900797D01*
X183245350Y-71975030D01*
X182754249Y-71975030D01*
X182739484Y-71900799D01*
X182683233Y-71816615D01*
X182599052Y-71760366D01*
X182524817Y-71745600D01*
X181474786Y-71745600D01*
X181474776Y-71745601D01*
X181400549Y-71760365D01*
X181316365Y-71816616D01*
X181260116Y-71900797D01*
X181245350Y-71975030D01*
X180754399Y-71975030D01*
X180739634Y-71900799D01*
X180683383Y-71816615D01*
X180599202Y-71760366D01*
X180524967Y-71745600D01*
X179474836Y-71745600D01*
X179474826Y-71745601D01*
X179400599Y-71760365D01*
X179316415Y-71816616D01*
X179260166Y-71900797D01*
X179245400Y-71975030D01*
X178754399Y-71975030D01*
X178739634Y-71900799D01*
X178683383Y-71816615D01*
X178599202Y-71760366D01*
X178524967Y-71745600D01*
X177474836Y-71745600D01*
X177474826Y-71745601D01*
X177400599Y-71760365D01*
X177316415Y-71816616D01*
X177260166Y-71900797D01*
X177245400Y-71975030D01*
X176754399Y-71975030D01*
X176739634Y-71900799D01*
X176683383Y-71816615D01*
X176599202Y-71760366D01*
X176524967Y-71745600D01*
X175474836Y-71745600D01*
X175474826Y-71745601D01*
X175400599Y-71760365D01*
X175316415Y-71816616D01*
X175260166Y-71900797D01*
X175245400Y-71975030D01*
X174754399Y-71975030D01*
X174739634Y-71900799D01*
X174683383Y-71816615D01*
X174599202Y-71760366D01*
X174524967Y-71745600D01*
X173474836Y-71745600D01*
X173474826Y-71745601D01*
X173400599Y-71760365D01*
X173316415Y-71816616D01*
X173260166Y-71900797D01*
X173245400Y-71975030D01*
X166286599Y-71975030D01*
X166286599Y-71713034D01*
X166286598Y-71713030D01*
X166286598Y-71713026D01*
X166271834Y-71638799D01*
X166251476Y-71608331D01*
X166215584Y-71554616D01*
X166215583Y-71554615D01*
X166131402Y-71498366D01*
X166057167Y-71483600D01*
X164483036Y-71483600D01*
X164483026Y-71483601D01*
X164408799Y-71498365D01*
X164324615Y-71554616D01*
X164268366Y-71638797D01*
X164253600Y-71713030D01*
X152653378Y-71713030D01*
X152158558Y-71219289D01*
X151828102Y-70889554D01*
X151794009Y-70827279D01*
X151791100Y-70800361D01*
X151791100Y-66770599D01*
X151811102Y-66702478D01*
X151864758Y-66655985D01*
X151917100Y-66644599D01*
X152234864Y-66644599D01*
X152234866Y-66644599D01*
X152234869Y-66644598D01*
X152234872Y-66644598D01*
X152271463Y-66637319D01*
X152309101Y-66629834D01*
X152393284Y-66573584D01*
X152449534Y-66489401D01*
X152464300Y-66415167D01*
X152464299Y-64765034D01*
X152464299Y-64765033D01*
X152464299Y-64765031D01*
X152464299Y-64765030D01*
X152895300Y-64765030D01*
X152895300Y-66415163D01*
X152895301Y-66415173D01*
X152910065Y-66489400D01*
X152966316Y-66573584D01*
X153050497Y-66629833D01*
X153050499Y-66629834D01*
X153124733Y-66644600D01*
X154774866Y-66644599D01*
X154774869Y-66644598D01*
X154774873Y-66644598D01*
X154824126Y-66634801D01*
X154849101Y-66629834D01*
X154933284Y-66573584D01*
X154989534Y-66489401D01*
X155004300Y-66415167D01*
X155004299Y-64765034D01*
X155004299Y-64765033D01*
X155004299Y-64765031D01*
X155004299Y-64765030D01*
X155435300Y-64765030D01*
X155435300Y-66415163D01*
X155435301Y-66415173D01*
X155450065Y-66489400D01*
X155506316Y-66573584D01*
X155590497Y-66629833D01*
X155590499Y-66629834D01*
X155664733Y-66644600D01*
X157314866Y-66644599D01*
X157314869Y-66644598D01*
X157314873Y-66644598D01*
X157364126Y-66634801D01*
X157389101Y-66629834D01*
X157473284Y-66573584D01*
X157529534Y-66489401D01*
X157544300Y-66415167D01*
X157544299Y-64765034D01*
X157544298Y-64765031D01*
X157544298Y-64765026D01*
X157529534Y-64690799D01*
X157502875Y-64650902D01*
X157473284Y-64606616D01*
X157473283Y-64606615D01*
X157389102Y-64550366D01*
X157314867Y-64535600D01*
X155664736Y-64535600D01*
X155664726Y-64535601D01*
X155590499Y-64550365D01*
X155506315Y-64606616D01*
X155450066Y-64690797D01*
X155435300Y-64765030D01*
X155004299Y-64765030D01*
X154989534Y-64690799D01*
X154962875Y-64650902D01*
X154933284Y-64606616D01*
X154933283Y-64606615D01*
X154849102Y-64550366D01*
X154774867Y-64535600D01*
X153124736Y-64535600D01*
X153124726Y-64535601D01*
X153050499Y-64550365D01*
X152966315Y-64606616D01*
X152910066Y-64690797D01*
X152895300Y-64765030D01*
X152464299Y-64765030D01*
X152449534Y-64690799D01*
X152422875Y-64650902D01*
X152393284Y-64606616D01*
X152393283Y-64606615D01*
X152309102Y-64550366D01*
X152234869Y-64535600D01*
X152234867Y-64535600D01*
X150947058Y-64535600D01*
X150878937Y-64515598D01*
X150857960Y-64498693D01*
X150686364Y-64327088D01*
X149881261Y-63521941D01*
X149881245Y-63521922D01*
X149874076Y-63514753D01*
X149821439Y-63462116D01*
X149821438Y-63462114D01*
X149803050Y-63443726D01*
X149803043Y-63443722D01*
X149780583Y-63430754D01*
X149745148Y-63410296D01*
X149745148Y-63410295D01*
X149745144Y-63410294D01*
X149729918Y-63401502D01*
X149716062Y-63393502D01*
X149716059Y-63393501D01*
X149716054Y-63393499D01*
X149716052Y-63393498D01*
X149716051Y-63393498D01*
X149668900Y-63380864D01*
X149668896Y-63380863D01*
X149619032Y-63367500D01*
X149619028Y-63367500D01*
X149619025Y-63367500D01*
X149585553Y-63367500D01*
X149585544Y-63367499D01*
X149518585Y-63367498D01*
X149518584Y-63367498D01*
X149509821Y-63367498D01*
X149509793Y-63367500D01*
X128000775Y-63367500D01*
X127950904Y-63380863D01*
X127903741Y-63393500D01*
X127816755Y-63443721D01*
X127816755Y-63443722D01*
X127816749Y-63443726D01*
X126761780Y-64498695D01*
X126699468Y-64532721D01*
X126672685Y-64535600D01*
X125385036Y-64535600D01*
X125385026Y-64535601D01*
X125310799Y-64550365D01*
X125226615Y-64606616D01*
X125170366Y-64690797D01*
X125155600Y-64765030D01*
X125155600Y-66415163D01*
X125155601Y-66415173D01*
X125170365Y-66489400D01*
X125226616Y-66573584D01*
X125310797Y-66629833D01*
X125310799Y-66629834D01*
X125385033Y-66644600D01*
X127035166Y-66644599D01*
X127035169Y-66644598D01*
X127035173Y-66644598D01*
X127084426Y-66634801D01*
X127109401Y-66629834D01*
X127193584Y-66573584D01*
X127249834Y-66489401D01*
X127264600Y-66415167D01*
X127264599Y-65127113D01*
X127284601Y-65058993D01*
X127301504Y-65038019D01*
X127480505Y-64859018D01*
X127542817Y-64824992D01*
X127613632Y-64830057D01*
X127670468Y-64872604D01*
X127695279Y-64939124D01*
X127695600Y-64948113D01*
X127695600Y-66415163D01*
X127695601Y-66415173D01*
X127710365Y-66489400D01*
X127766616Y-66573584D01*
X127850797Y-66629833D01*
X127850799Y-66629834D01*
X127925033Y-66644600D01*
X129575166Y-66644599D01*
X129575169Y-66644598D01*
X129575173Y-66644598D01*
X129624426Y-66634801D01*
X129649401Y-66629834D01*
X129733584Y-66573584D01*
X129789834Y-66489401D01*
X129804600Y-66415167D01*
X129804599Y-64765034D01*
X129804598Y-64765031D01*
X129804598Y-64765026D01*
X129789834Y-64690799D01*
X129763175Y-64650902D01*
X129733584Y-64606616D01*
X129733583Y-64606615D01*
X129649402Y-64550366D01*
X129575169Y-64535600D01*
X128108112Y-64535600D01*
X128039991Y-64515598D01*
X127993498Y-64461942D01*
X127983394Y-64391668D01*
X128012888Y-64327088D01*
X128018992Y-64320530D01*
X128172119Y-64167404D01*
X128234432Y-64133379D01*
X128261214Y-64130500D01*
X131905785Y-64130500D01*
X131973906Y-64150502D01*
X132020399Y-64204158D01*
X132030503Y-64274432D01*
X132001009Y-64339012D01*
X131994880Y-64345595D01*
X131841780Y-64498695D01*
X131779468Y-64532721D01*
X131752685Y-64535600D01*
X130465036Y-64535600D01*
X130465026Y-64535601D01*
X130390799Y-64550365D01*
X130306615Y-64606616D01*
X130250366Y-64690797D01*
X130235600Y-64765030D01*
X130235600Y-66415163D01*
X130235601Y-66415173D01*
X130250365Y-66489400D01*
X130306616Y-66573584D01*
X130390797Y-66629833D01*
X130390799Y-66629834D01*
X130465033Y-66644600D01*
X132115166Y-66644599D01*
X132115169Y-66644598D01*
X132115173Y-66644598D01*
X132164426Y-66634801D01*
X132189401Y-66629834D01*
X132273584Y-66573584D01*
X132329834Y-66489401D01*
X132344600Y-66415167D01*
X132344599Y-65127113D01*
X132364601Y-65058993D01*
X132381504Y-65038018D01*
X132751719Y-64667804D01*
X132814031Y-64633779D01*
X132840814Y-64630900D01*
X137529491Y-64630900D01*
X137597612Y-64650902D01*
X137644105Y-64704558D01*
X137653156Y-64758843D01*
X137655300Y-64758843D01*
X137655300Y-66415163D01*
X137655301Y-66415173D01*
X137670065Y-66489400D01*
X137726316Y-66573584D01*
X137810497Y-66629833D01*
X137810499Y-66629834D01*
X137884733Y-66644600D01*
X139534866Y-66644599D01*
X139534869Y-66644598D01*
X139534873Y-66644598D01*
X139584126Y-66634801D01*
X139609101Y-66629834D01*
X139693284Y-66573584D01*
X139749534Y-66489401D01*
X139764300Y-66415167D01*
X139764299Y-64765034D01*
X139764299Y-64765033D01*
X139764299Y-64758844D01*
X139766682Y-64758844D01*
X139777957Y-64699470D01*
X139826810Y-64647954D01*
X139890108Y-64630900D01*
X140069491Y-64630900D01*
X140137612Y-64650902D01*
X140184105Y-64704558D01*
X140193156Y-64758843D01*
X140195300Y-64758843D01*
X140195300Y-66415163D01*
X140195301Y-66415173D01*
X140210065Y-66489400D01*
X140266316Y-66573584D01*
X140350497Y-66629833D01*
X140350499Y-66629834D01*
X140424733Y-66644600D01*
X142074866Y-66644599D01*
X142074869Y-66644598D01*
X142074873Y-66644598D01*
X142124126Y-66634801D01*
X142149101Y-66629834D01*
X142233284Y-66573584D01*
X142289534Y-66489401D01*
X142304300Y-66415167D01*
X142304299Y-64948236D01*
X142324301Y-64880116D01*
X142377957Y-64833623D01*
X142448231Y-64823519D01*
X142512811Y-64853012D01*
X142519398Y-64859145D01*
X142608504Y-64948258D01*
X142698399Y-65038159D01*
X142732421Y-65100472D01*
X142735300Y-65127251D01*
X142735300Y-66415163D01*
X142735301Y-66415173D01*
X142750065Y-66489400D01*
X142806316Y-66573584D01*
X142890497Y-66629833D01*
X142890499Y-66629834D01*
X142964733Y-66644600D01*
X144614866Y-66644599D01*
X144614869Y-66644598D01*
X144614873Y-66644598D01*
X144664126Y-66634801D01*
X144689101Y-66629834D01*
X144773284Y-66573584D01*
X144829534Y-66489401D01*
X144844300Y-66415167D01*
X144844299Y-64765034D01*
X144844298Y-64765031D01*
X144844298Y-64765026D01*
X144829534Y-64690799D01*
X144802875Y-64650902D01*
X144773284Y-64606616D01*
X144773283Y-64606615D01*
X144689102Y-64550366D01*
X144614869Y-64535600D01*
X144614867Y-64535600D01*
X143327075Y-64535600D01*
X143258954Y-64515598D01*
X143237976Y-64498692D01*
X143084887Y-64345592D01*
X143050865Y-64283279D01*
X143055932Y-64212463D01*
X143098481Y-64155629D01*
X143165002Y-64130821D01*
X143173986Y-64130500D01*
X149358578Y-64130500D01*
X149426699Y-64150502D01*
X149447676Y-64167407D01*
X149600767Y-64320507D01*
X149634790Y-64382820D01*
X149629723Y-64453636D01*
X149587175Y-64510470D01*
X149520654Y-64535279D01*
X149511669Y-64535600D01*
X148044736Y-64535600D01*
X148044726Y-64535601D01*
X147970499Y-64550365D01*
X147886315Y-64606616D01*
X147830066Y-64690797D01*
X147815300Y-64765030D01*
X147815300Y-66053086D01*
X147795298Y-66121207D01*
X147778395Y-66142181D01*
X145840182Y-68080395D01*
X145777870Y-68114420D01*
X145751087Y-68117300D01*
X136398900Y-68117300D01*
X136330779Y-68097298D01*
X136284286Y-68043642D01*
X136272900Y-67991300D01*
X136272899Y-66463436D01*
X136272898Y-66463426D01*
X136258134Y-66389199D01*
X136201883Y-66305015D01*
X136117702Y-66248766D01*
X136043467Y-66234000D01*
X134469336Y-66234000D01*
X134469326Y-66234001D01*
X134395099Y-66248765D01*
X134310915Y-66305016D01*
X134254666Y-66389197D01*
X134239900Y-66463430D01*
X134239900Y-66463434D01*
X134239901Y-67991300D01*
X134219899Y-68059421D01*
X134166243Y-68105914D01*
X134113901Y-68117300D01*
X125709305Y-68117300D01*
X125641184Y-68097298D01*
X125620212Y-68080398D01*
X124399443Y-66859697D01*
X124365416Y-66797386D01*
X124370479Y-66726570D01*
X124413024Y-66669733D01*
X124479544Y-66644920D01*
X124488536Y-66644599D01*
X124495164Y-66644599D01*
X124495166Y-66644599D01*
X124495169Y-66644598D01*
X124495172Y-66644598D01*
X124531763Y-66637319D01*
X124569401Y-66629834D01*
X124653584Y-66573584D01*
X124709834Y-66489401D01*
X124724600Y-66415167D01*
X124724599Y-64765034D01*
X124724598Y-64765031D01*
X124724598Y-64765026D01*
X124709834Y-64690799D01*
X124683175Y-64650902D01*
X124653584Y-64606616D01*
X124653583Y-64606615D01*
X124569402Y-64550366D01*
X124495167Y-64535600D01*
X122845036Y-64535600D01*
X122845026Y-64535601D01*
X122770799Y-64550365D01*
X122686615Y-64606616D01*
X122630366Y-64690797D01*
X122615600Y-64765030D01*
X122615600Y-66415163D01*
X122615601Y-66415173D01*
X122630365Y-66489400D01*
X122686616Y-66573584D01*
X122770797Y-66629833D01*
X122770799Y-66629834D01*
X122845033Y-66644600D01*
X123194703Y-66644599D01*
X123262823Y-66664601D01*
X123309316Y-66718256D01*
X123317376Y-66746675D01*
X123318369Y-66746481D01*
X123319200Y-66750734D01*
X123331550Y-66796817D01*
X123331550Y-66796818D01*
X123345199Y-66847754D01*
X123345202Y-66847762D01*
X123361994Y-66876843D01*
X123361995Y-66876848D01*
X123361996Y-66876848D01*
X123395426Y-66934750D01*
X123413380Y-66952704D01*
X123413394Y-66952717D01*
X123413406Y-66952729D01*
X123466453Y-67005776D01*
X123470839Y-67010162D01*
X123470863Y-67010184D01*
X124856641Y-68395884D01*
X124863360Y-68402602D01*
X124897387Y-68464913D01*
X124892324Y-68535729D01*
X124849779Y-68592566D01*
X124783259Y-68617379D01*
X124774267Y-68617700D01*
X122209117Y-68617700D01*
X122140996Y-68597698D01*
X122120020Y-68580794D01*
X122004142Y-68464913D01*
X120549434Y-67010162D01*
X119681502Y-66142204D01*
X119647478Y-66079891D01*
X119644599Y-66053110D01*
X119644599Y-64765036D01*
X119644598Y-64765027D01*
X119629834Y-64690799D01*
X119603175Y-64650902D01*
X119573584Y-64606616D01*
X119573583Y-64606615D01*
X119489402Y-64550366D01*
X119415167Y-64535600D01*
X117765036Y-64535600D01*
X117765026Y-64535601D01*
X117690799Y-64550365D01*
X117606615Y-64606616D01*
X117550366Y-64690797D01*
X117535600Y-64765030D01*
X117104599Y-64765030D01*
X117089834Y-64690799D01*
X117063175Y-64650902D01*
X117033584Y-64606616D01*
X117033583Y-64606615D01*
X116949402Y-64550366D01*
X116875167Y-64535600D01*
X115225036Y-64535600D01*
X115225026Y-64535601D01*
X115150799Y-64550365D01*
X115066615Y-64606616D01*
X115010366Y-64690797D01*
X114995600Y-64765030D01*
X114564599Y-64765030D01*
X114549834Y-64690799D01*
X114523175Y-64650902D01*
X114493584Y-64606616D01*
X114493583Y-64606615D01*
X114409402Y-64550366D01*
X114335167Y-64535600D01*
X112685036Y-64535600D01*
X112685026Y-64535601D01*
X112610799Y-64550365D01*
X112526615Y-64606616D01*
X112470366Y-64690797D01*
X112455600Y-64765030D01*
X105942784Y-64765030D01*
X110170409Y-60537405D01*
X110232721Y-60503379D01*
X110259504Y-60500500D01*
X189740297Y-60500500D01*
X189808418Y-60520502D01*
G37*
%TD.AperFunction*%
%TD*%
M02*
