%TF.GenerationSoftware,KiCad,Pcbnew,10.0.6*%
%TF.CreationDate,2026-09-23T18:32:19+08:00*%
%TF.ProjectId,Utility_Navigation_Module,5574696c-6974-4795-9f4e-617669676174,1.7*%
%TF.SameCoordinates,Original*%
%TF.FileFunction,Profile,NP*%
%FSLAX46Y46*%
G04 Gerber Fmt 4.6, Leading zero omitted, Abs format (unit mm)*
G04 Created by KiCad (PCBNEW 10.0.6) date 2026-09-23 18:32:19*
%MOMM*%
%LPD*%
G01*
G04 APERTURE LIST*
%TA.AperFunction,Profile*%
%ADD10C,0.254000*%
%TD*%
G04 APERTURE END LIST*
D10*
X100000000Y-70000000D02*
X100000000Y-108557200D01*
X100000000Y-70000000D02*
X110000000Y-60000000D01*
X100000000Y-111399900D02*
X100000000Y-149999900D01*
X100000000Y-111399900D02*
X100005000Y-111399900D01*
X100000000Y-149999900D02*
X104998800Y-155001100D01*
X100003500Y-108545700D02*
X100003500Y-108898276D01*
X100003500Y-111487200D02*
X100003800Y-111130400D01*
X100003800Y-111130400D02*
X100168400Y-111266100D01*
X100103800Y-108814900D02*
X100003500Y-108898276D01*
X100168400Y-111266100D02*
X100339100Y-111364600D01*
X100244900Y-108705200D02*
X100103800Y-108814900D01*
X100339100Y-111364600D02*
X100674200Y-111478900D01*
X100541900Y-108575000D02*
X100244900Y-108705200D01*
X100674200Y-111478900D02*
X101098300Y-111517000D01*
X100847100Y-108508200D02*
X100541900Y-108575000D01*
X101098300Y-111517000D02*
X101559500Y-111409900D01*
X101202400Y-108509300D02*
X100847100Y-108508200D01*
X101501000Y-108596000D02*
X101202400Y-108509300D01*
X101517300Y-108596000D02*
X101501000Y-108596000D01*
X101559500Y-111409900D02*
X101972000Y-111166400D01*
X101707700Y-108691900D02*
X101517300Y-108596000D01*
X101972000Y-111166400D02*
X102142400Y-110989500D01*
X101990100Y-108867200D02*
X101707700Y-108691900D01*
X102130100Y-109027800D02*
X101990100Y-108867200D01*
X102142400Y-110989500D02*
X102293900Y-110781800D01*
X102196500Y-109104000D02*
X102130100Y-109027800D01*
X102241300Y-109178300D02*
X102196500Y-109104000D01*
X102257700Y-109181700D02*
X102241300Y-109178300D01*
X102293900Y-110781800D02*
X102379200Y-110628000D01*
X102345400Y-109350500D02*
X102257700Y-109181700D01*
X102396538Y-110571720D02*
X102410500Y-110526400D01*
X102396538Y-110571720D02*
X102457800Y-110399400D01*
X102418300Y-109535800D02*
X102345400Y-109350500D01*
X102457800Y-110399400D02*
X102498100Y-110145400D01*
X102482700Y-109764400D02*
X102431800Y-109563600D01*
X102487300Y-109756200D02*
X102418300Y-109535800D01*
X102498100Y-109953100D02*
X102482700Y-109764400D01*
X102498100Y-110145400D02*
X102498100Y-109953100D01*
X102505000Y-110057100D02*
X102487300Y-109756200D01*
X104998800Y-155001100D02*
X110000000Y-159999800D01*
X105750000Y-117950200D02*
X118749900Y-117950200D01*
X105750000Y-131950200D02*
X105750000Y-117950200D01*
X105750100Y-136250000D02*
X118750000Y-136250000D01*
X105750100Y-150250000D02*
X105750100Y-136250000D01*
X110000000Y-159999800D02*
X190000000Y-159999800D01*
X118749900Y-117950200D02*
X118749900Y-131950200D01*
X118749900Y-131950200D02*
X105750000Y-131950200D01*
X118750000Y-136250000D02*
X118750000Y-150250000D01*
X118750000Y-150250000D02*
X105750100Y-150250000D01*
X132000000Y-85000000D02*
X145000000Y-85001000D01*
X132000000Y-98999900D02*
X132000000Y-85000000D01*
X137800000Y-117999700D02*
X150800000Y-118000700D01*
X137800000Y-131999800D02*
X137800000Y-117999700D01*
X137800000Y-136249800D02*
X150800000Y-136250700D01*
X137800000Y-150249800D02*
X137800000Y-136249800D01*
X145000000Y-85001000D02*
X145000000Y-98999900D01*
X145000000Y-98999900D02*
X132000000Y-98999900D01*
X150800000Y-118000700D02*
X150800000Y-131999800D01*
X150800000Y-131999800D02*
X137800000Y-131999800D01*
X150800000Y-136250700D02*
X150800000Y-150249800D01*
X150800000Y-150249800D02*
X137800000Y-150249800D01*
X154000000Y-85000000D02*
X167000000Y-85001000D01*
X154000000Y-98999900D02*
X154000000Y-85000000D01*
X167000000Y-85001000D02*
X167000000Y-98999900D01*
X167000000Y-98999900D02*
X154000000Y-98999900D01*
X185999900Y-133999900D02*
G75*
G02*
X157999900Y-133999900I-14000000J0D01*
G01*
X157999900Y-133999900D02*
G75*
G02*
X185999900Y-133999900I14000000J0D01*
G01*
X176000000Y-85000000D02*
X189000000Y-85001000D01*
X176000000Y-98999900D02*
X176000000Y-85000000D01*
X189000000Y-85001000D02*
X189000000Y-98999900D01*
X189000000Y-98999900D02*
X176000000Y-98999900D01*
X189999800Y-60000000D02*
X110000000Y-60000000D01*
X194999800Y-155000100D02*
X190000000Y-159999800D01*
X197498300Y-109899800D02*
X197516000Y-110200900D01*
X197505300Y-109811600D02*
X197505300Y-110003900D01*
X197505300Y-110003900D02*
X197520700Y-110192600D01*
X197516000Y-110200900D02*
X197585000Y-110421100D01*
X197520700Y-110192600D02*
X197571500Y-110393300D01*
X197545500Y-109557600D02*
X197505300Y-109811600D01*
X197585000Y-110421100D02*
X197658000Y-110606500D01*
X197624100Y-109329000D02*
X197592900Y-109430600D01*
X197631281Y-109316044D02*
X197545500Y-109557600D01*
X197658000Y-110606500D02*
X197745600Y-110775300D01*
X197709400Y-109175100D02*
X197631281Y-109316044D01*
X197745600Y-110775300D02*
X197762000Y-110778600D01*
X197762000Y-110778600D02*
X197806800Y-110853000D01*
X197806800Y-110853000D02*
X197873200Y-110929100D01*
X197860800Y-108967500D02*
X197709400Y-109175100D01*
X197873200Y-110929100D02*
X198013300Y-111089900D01*
X198013300Y-111089900D02*
X198295700Y-111265200D01*
X198031200Y-108790600D02*
X197860800Y-108967500D01*
X198295700Y-111265200D02*
X198485900Y-111361000D01*
X198443700Y-108547100D02*
X198031200Y-108790600D01*
X198485900Y-111361000D02*
X198502300Y-111361000D01*
X198502300Y-111361000D02*
X198801000Y-111447700D01*
X198801000Y-111447700D02*
X199156300Y-111448800D01*
X198905000Y-108440000D02*
X198443700Y-108547100D01*
X199156300Y-111448800D02*
X199461300Y-111382100D01*
X199329200Y-108478100D02*
X198905000Y-108440000D01*
X199461300Y-111382100D02*
X199758400Y-111251800D01*
X199664300Y-108592400D02*
X199329200Y-108478100D01*
X199758400Y-111251800D02*
X199899600Y-111142100D01*
X199834900Y-108690800D02*
X199664300Y-108592400D01*
X199899600Y-111142100D02*
X199999700Y-111058795D01*
X199999500Y-108826700D02*
X199834900Y-108690800D01*
X199999700Y-111411300D02*
X199999700Y-111058795D01*
X199999900Y-70000000D02*
X189999800Y-60000000D01*
X199999900Y-108469800D02*
X199999500Y-108826700D01*
X199999900Y-108557200D02*
X199999900Y-70000000D01*
X199999900Y-150000000D02*
X194999800Y-155000100D01*
X199999900Y-150000000D02*
X199999900Y-111448000D01*
X200004150Y-108557100D02*
X199998300Y-108557000D01*
X200004150Y-108557100D02*
X199999900Y-108557200D01*
M02*
