M48
; DRILL file KiCad 10.0.6 date 2026-09-22T18:30:40
; FORMAT={-:-/ absolute / metric / decimal}
; #@! TF.CreationDate,2026-09-22T18:30:40+08:00
; #@! TF.GenerationSoftware,Kicad,Pcbnew,10.0.6
; #@! TF.FileFunction,Plated,1,2,PTH
FMAT,2
METRIC
; #@! TA.AperFunction,Plated,PTH,ViaDrill
T1C0.305
; #@! TA.AperFunction,Plated,PTH,ComponentDrill
T2C0.670
; #@! TA.AperFunction,Plated,PTH,ComponentDrill
T3C0.889
; #@! TA.AperFunction,Plated,PTH,ComponentDrill
T4C0.914
; #@! TA.AperFunction,Plated,PTH,ComponentDrill
T5C1.000
; #@! TA.AperFunction,Plated,PTH,ComponentDrill
T6C1.100
%
G90
G05
T1
X100.58Y-105.212
X100.58Y-115.209
X125.0Y-83.6
X130.5Y-140.75
X134.2Y-83.6
X135.25Y-133.5
X136.25Y-100.25
X137.75Y-117.75
X139.6Y-81.2
X140.0Y-123.75
X141.0Y-80.2
X141.25Y-108.5
X141.25Y-111.5
X141.5Y-122.25
X141.8Y-76.8
X141.8Y-81.2
X141.8Y-86.2
X142.75Y-119.5
X143.2Y-109.8
X143.4Y-84.4
X143.6Y-102.0
X143.6Y-115.2
X143.8Y-107.4
X144.821Y-133.82
X147.0Y-89.6
X147.25Y-113.5
X147.8Y-86.2
X148.0Y-109.0
X148.257Y-137.257
X148.75Y-107.75
X148.75Y-89.751
X148.75Y-95.375
X151.75Y-65.0
X158.2Y-83.6
X158.2Y-104.4
X158.25Y-115.25
X158.25Y-116.25
X158.6Y-86.2
X159.6Y-75.2
X162.8Y-86.2
X163.0Y-100.8
X163.25Y-113.25
X164.0Y-121.25
X164.0Y-134.75
X165.0Y-76.25
X165.75Y-64.5
X166.25Y-77.75
X176.25Y-102.25
X199.33Y-104.962
X199.33Y-114.959
T2
X143.0Y-153.0
X143.0Y-155.0
X145.0Y-153.0
X145.0Y-155.0
X147.0Y-153.0
X147.0Y-155.0
X149.0Y-153.0
X149.0Y-155.0
X151.0Y-153.0
X151.0Y-155.0
X153.0Y-153.0
X153.0Y-155.0
X155.0Y-153.0
X155.0Y-155.0
X157.0Y-153.0
X157.0Y-155.0
T3
X105.5Y-69.5
X105.5Y-88.5
X105.5Y-108.0
X105.5Y-127.5
X105.5Y-146.5
X111.5Y-69.5
X111.5Y-88.5
X111.5Y-108.0
X111.5Y-127.5
X111.5Y-146.5
X119.5Y-65.503
X119.5Y-85.004
X119.5Y-104.004
X119.5Y-123.503
X119.5Y-142.504
X128.0Y-65.503
X128.0Y-85.004
X128.0Y-123.503
X128.0Y-104.004
X128.0Y-142.504
X171.0Y-85.0
X171.0Y-104.0
X171.0Y-123.5
X171.0Y-142.5
X171.0Y-65.5
X179.5Y-104.0
X179.5Y-65.5
X179.5Y-85.0
X179.5Y-123.5
X179.5Y-142.5
X188.5Y-69.5
X188.5Y-88.5
X188.5Y-108.0
X188.5Y-127.0
X188.5Y-146.0
X194.0Y-69.5
X194.0Y-88.5
X194.0Y-108.0
X194.0Y-127.0
X194.0Y-146.0
T4
X115.326Y-69.411
X115.326Y-79.571
X115.326Y-88.911
X115.326Y-99.071
X115.326Y-107.911
X115.326Y-118.071
X115.326Y-127.411
X115.326Y-137.571
X115.326Y-146.411
X115.326Y-156.571
X133.326Y-69.411
X133.326Y-79.571
X133.326Y-88.911
X133.326Y-99.071
X133.326Y-107.911
X133.326Y-118.071
X133.326Y-127.411
X133.326Y-137.571
X133.326Y-146.411
X133.326Y-156.571
X139.75Y-131.243
X140.149Y-91.656
X140.349Y-66.057
X140.98Y-141.25
X143.52Y-141.25
X144.75Y-131.243
X145.149Y-91.656
X145.349Y-66.057
X155.5Y-131.243
X155.75Y-91.656
X155.95Y-66.057
X160.5Y-131.243
X160.75Y-91.656
X160.95Y-66.057
X166.576Y-69.411
X166.576Y-79.571
X166.576Y-88.911
X166.576Y-99.071
X166.576Y-107.911
X166.576Y-118.071
X166.576Y-127.411
X166.576Y-137.571
X166.576Y-146.411
X166.576Y-156.571
X184.826Y-69.411
X184.826Y-79.571
X184.826Y-88.911
X184.826Y-99.071
X184.826Y-107.911
X184.826Y-118.071
X184.826Y-127.411
X184.826Y-137.571
X184.826Y-146.411
X184.826Y-156.571
T5
X138.19Y-95.31
X138.19Y-97.85
X138.19Y-100.39
X138.19Y-102.93
X138.19Y-105.47
X138.19Y-108.01
X138.19Y-110.55
X138.19Y-113.09
X138.39Y-69.71
X138.39Y-72.25
X138.39Y-74.79
X138.39Y-77.33
X138.39Y-79.87
X138.39Y-82.41
X138.39Y-84.95
X138.39Y-87.49
X145.81Y-95.31
X145.81Y-97.85
X145.81Y-100.39
X145.81Y-102.93
X145.81Y-105.47
X145.81Y-108.01
X145.81Y-110.55
X145.81Y-113.09
X146.01Y-69.71
X146.01Y-72.25
X146.01Y-74.79
X146.01Y-77.33
X146.01Y-79.87
X146.01Y-82.41
X146.01Y-84.95
X146.01Y-87.49
X153.99Y-69.71
X153.99Y-72.25
X153.99Y-74.79
X153.99Y-77.33
X153.99Y-79.87
X153.99Y-82.41
X153.99Y-84.95
X153.99Y-87.49
X153.99Y-95.31
X153.99Y-97.85
X153.99Y-100.39
X153.99Y-102.93
X153.99Y-105.47
X153.99Y-108.01
X153.99Y-110.55
X153.99Y-113.09
X161.61Y-69.71
X161.61Y-72.25
X161.61Y-74.79
X161.61Y-77.33
X161.61Y-79.87
X161.61Y-82.41
X161.61Y-84.95
X161.61Y-87.49
X161.61Y-95.31
X161.61Y-97.85
X161.61Y-100.39
X161.61Y-102.93
X161.61Y-105.47
X161.61Y-108.01
X161.61Y-110.55
X161.61Y-113.09
T6
X138.19Y-120.19
X138.19Y-122.73
X138.19Y-125.27
X138.19Y-127.81
X145.81Y-120.19
X145.81Y-122.73
X145.81Y-125.27
X145.81Y-127.81
X153.94Y-120.19
X153.94Y-122.73
X153.94Y-125.27
X153.94Y-127.81
X161.56Y-120.19
X161.56Y-122.73
X161.56Y-125.27
X161.56Y-127.81
M30
