%TF.GenerationSoftware,KiCad,Pcbnew,10.0.6*%
%TF.CreationDate,2026-09-23T18:16:56+08:00*%
%TF.ProjectId,Action_Groups_Module,41637469-6f6e-45f4-9772-6f7570735f4d,1.7*%
%TF.SameCoordinates,Original*%
%TF.FileFunction,Legend,Bot*%
%TF.FilePolarity,Positive*%
%FSLAX46Y46*%
G04 Gerber Fmt 4.6, Leading zero omitted, Abs format (unit mm)*
G04 Created by KiCad (PCBNEW 10.0.6) date 2026-09-23 18:16:56*
%MOMM*%
%LPD*%
G01*
G04 APERTURE LIST*
%ADD10C,1.000000*%
%ADD11C,0.254000*%
%ADD12C,0.180000*%
G04 APERTURE END LIST*
D10*
X121418300Y-65503400D02*
G75*
G02*
X117581900Y-65503400I-1918200J0D01*
G01*
X117581900Y-65503400D02*
G75*
G02*
X121418300Y-65503400I1918200J0D01*
G01*
X121418300Y-85003500D02*
G75*
G02*
X117581900Y-85003500I-1918200J0D01*
G01*
X117581900Y-85003500D02*
G75*
G02*
X121418300Y-85003500I1918200J0D01*
G01*
X121418300Y-104003700D02*
G75*
G02*
X117581900Y-104003700I-1918200J0D01*
G01*
X117581900Y-104003700D02*
G75*
G02*
X121418300Y-104003700I1918200J0D01*
G01*
X121418300Y-123503600D02*
G75*
G02*
X117581900Y-123503600I-1918200J0D01*
G01*
X117581900Y-123503600D02*
G75*
G02*
X121418300Y-123503600I1918200J0D01*
G01*
X121418300Y-142503500D02*
G75*
G02*
X117581900Y-142503500I-1918200J0D01*
G01*
X117581900Y-142503500D02*
G75*
G02*
X121418300Y-142503500I1918200J0D01*
G01*
D11*
X122200000Y-65600000D02*
X125199900Y-65600000D01*
X122200000Y-85000000D02*
X125199900Y-85000000D01*
X122200000Y-104199900D02*
X125199900Y-104199900D01*
X122200000Y-123599900D02*
X125199900Y-123599900D01*
X122200000Y-142599800D02*
X125199900Y-142599800D01*
D10*
X129918100Y-65503400D02*
G75*
G02*
X126081700Y-65503400I-1918200J0D01*
G01*
X126081700Y-65503400D02*
G75*
G02*
X129918100Y-65503400I1918200J0D01*
G01*
X129918100Y-85003500D02*
G75*
G02*
X126081700Y-85003500I-1918200J0D01*
G01*
X126081700Y-85003500D02*
G75*
G02*
X129918100Y-85003500I1918200J0D01*
G01*
X129918100Y-123503600D02*
G75*
G02*
X126081700Y-123503600I-1918200J0D01*
G01*
X126081700Y-123503600D02*
G75*
G02*
X129918100Y-123503600I1918200J0D01*
G01*
X129918400Y-104003700D02*
G75*
G02*
X126082000Y-104003700I-1918200J0D01*
G01*
X126082000Y-104003700D02*
G75*
G02*
X129918400Y-104003700I1918200J0D01*
G01*
X129918400Y-142503500D02*
G75*
G02*
X126082000Y-142503500I-1918200J0D01*
G01*
X126082000Y-142503500D02*
G75*
G02*
X129918400Y-142503500I1918200J0D01*
G01*
D11*
X149081900Y-145113100D02*
X149081900Y-150713700D01*
X149081900Y-145113600D02*
X149081900Y-145113100D01*
X149081900Y-150713700D02*
X153930700Y-150713700D01*
X153930700Y-145115600D02*
X149081900Y-145113600D01*
X153930700Y-150713700D02*
X153930700Y-145115600D01*
D10*
X172918300Y-85000200D02*
G75*
G02*
X169081900Y-85000200I-1918200J0D01*
G01*
X169081900Y-85000200D02*
G75*
G02*
X172918300Y-85000200I1918200J0D01*
G01*
X172918300Y-104000200D02*
G75*
G02*
X169081900Y-104000200I-1918200J0D01*
G01*
X169081900Y-104000200D02*
G75*
G02*
X172918300Y-104000200I1918200J0D01*
G01*
X172918300Y-123500300D02*
G75*
G02*
X169081900Y-123500300I-1918200J0D01*
G01*
X169081900Y-123500300D02*
G75*
G02*
X172918300Y-123500300I1918200J0D01*
G01*
X172918300Y-142500200D02*
G75*
G02*
X169081900Y-142500200I-1918200J0D01*
G01*
X169081900Y-142500200D02*
G75*
G02*
X172918300Y-142500200I1918200J0D01*
G01*
X172918600Y-65500100D02*
G75*
G02*
X169082200Y-65500100I-1918200J0D01*
G01*
X169082200Y-65500100D02*
G75*
G02*
X172918600Y-65500100I1918200J0D01*
G01*
D11*
X173799900Y-65600000D02*
X176799800Y-65600000D01*
X173799900Y-85000000D02*
X176799800Y-85000000D01*
X173799900Y-103999900D02*
X176799800Y-103999900D01*
X173799900Y-123599900D02*
X176799800Y-123599900D01*
X173799900Y-142799800D02*
X176799800Y-142799800D01*
D10*
X181418400Y-104000200D02*
G75*
G02*
X177582000Y-104000200I-1918200J0D01*
G01*
X177582000Y-104000200D02*
G75*
G02*
X181418400Y-104000200I1918200J0D01*
G01*
X181418700Y-65500100D02*
G75*
G02*
X177582300Y-65500100I-1918200J0D01*
G01*
X177582300Y-65500100D02*
G75*
G02*
X181418700Y-65500100I1918200J0D01*
G01*
X181418700Y-85000200D02*
G75*
G02*
X177582300Y-85000200I-1918200J0D01*
G01*
X177582300Y-85000200D02*
G75*
G02*
X181418700Y-85000200I1918200J0D01*
G01*
X181418700Y-123500300D02*
G75*
G02*
X177582300Y-123500300I-1918200J0D01*
G01*
X177582300Y-123500300D02*
G75*
G02*
X181418700Y-123500300I1918200J0D01*
G01*
X181418700Y-142500200D02*
G75*
G02*
X177582300Y-142500200I-1918200J0D01*
G01*
X177582300Y-142500200D02*
G75*
G02*
X181418700Y-142500200I1918200J0D01*
G01*
D12*
X116248945Y-142728273D02*
X115815612Y-142728273D01*
X116335612Y-142988273D02*
X116032279Y-142078273D01*
X116032279Y-142078273D02*
X115728945Y-142988273D01*
X116308145Y-65769573D02*
X115874812Y-65769573D01*
X116394812Y-66029573D02*
X116091479Y-65119573D01*
X116091479Y-65119573D02*
X115788145Y-66029573D01*
X116308145Y-85169573D02*
X115874812Y-85169573D01*
X116394812Y-85429573D02*
X116091479Y-84519573D01*
X116091479Y-84519573D02*
X115788145Y-85429573D01*
X116308145Y-104369473D02*
X115874812Y-104369473D01*
X116394812Y-104629473D02*
X116091479Y-103719473D01*
X116091479Y-103719473D02*
X115788145Y-104629473D01*
X116308145Y-123769473D02*
X115874812Y-123769473D01*
X116394812Y-124029473D02*
X116091479Y-123119473D01*
X116091479Y-123119473D02*
X115788145Y-124029473D01*
X130955579Y-142647506D02*
X130825579Y-142690840D01*
X130825579Y-142690840D02*
X130782245Y-142734173D01*
X130782245Y-142734173D02*
X130738912Y-142820840D01*
X130738912Y-142820840D02*
X130738912Y-142950840D01*
X130738912Y-142950840D02*
X130782245Y-143037506D01*
X130782245Y-143037506D02*
X130825579Y-143080840D01*
X130825579Y-143080840D02*
X130912245Y-143124173D01*
X130912245Y-143124173D02*
X131258912Y-143124173D01*
X131258912Y-143124173D02*
X131258912Y-142214173D01*
X131258912Y-142214173D02*
X130955579Y-142214173D01*
X130955579Y-142214173D02*
X130868912Y-142257506D01*
X130868912Y-142257506D02*
X130825579Y-142300840D01*
X130825579Y-142300840D02*
X130782245Y-142387506D01*
X130782245Y-142387506D02*
X130782245Y-142474173D01*
X130782245Y-142474173D02*
X130825579Y-142560840D01*
X130825579Y-142560840D02*
X130868912Y-142604173D01*
X130868912Y-142604173D02*
X130955579Y-142647506D01*
X130955579Y-142647506D02*
X131258912Y-142647506D01*
X130961479Y-65552906D02*
X130831479Y-65596240D01*
X130831479Y-65596240D02*
X130788145Y-65639573D01*
X130788145Y-65639573D02*
X130744812Y-65726240D01*
X130744812Y-65726240D02*
X130744812Y-65856240D01*
X130744812Y-65856240D02*
X130788145Y-65942906D01*
X130788145Y-65942906D02*
X130831479Y-65986240D01*
X130831479Y-65986240D02*
X130918145Y-66029573D01*
X130918145Y-66029573D02*
X131264812Y-66029573D01*
X131264812Y-66029573D02*
X131264812Y-65119573D01*
X131264812Y-65119573D02*
X130961479Y-65119573D01*
X130961479Y-65119573D02*
X130874812Y-65162906D01*
X130874812Y-65162906D02*
X130831479Y-65206240D01*
X130831479Y-65206240D02*
X130788145Y-65292906D01*
X130788145Y-65292906D02*
X130788145Y-65379573D01*
X130788145Y-65379573D02*
X130831479Y-65466240D01*
X130831479Y-65466240D02*
X130874812Y-65509573D01*
X130874812Y-65509573D02*
X130961479Y-65552906D01*
X130961479Y-65552906D02*
X131264812Y-65552906D01*
X130961479Y-85152806D02*
X130831479Y-85196140D01*
X130831479Y-85196140D02*
X130788145Y-85239473D01*
X130788145Y-85239473D02*
X130744812Y-85326140D01*
X130744812Y-85326140D02*
X130744812Y-85456140D01*
X130744812Y-85456140D02*
X130788145Y-85542806D01*
X130788145Y-85542806D02*
X130831479Y-85586140D01*
X130831479Y-85586140D02*
X130918145Y-85629473D01*
X130918145Y-85629473D02*
X131264812Y-85629473D01*
X131264812Y-85629473D02*
X131264812Y-84719473D01*
X131264812Y-84719473D02*
X130961479Y-84719473D01*
X130961479Y-84719473D02*
X130874812Y-84762806D01*
X130874812Y-84762806D02*
X130831479Y-84806140D01*
X130831479Y-84806140D02*
X130788145Y-84892806D01*
X130788145Y-84892806D02*
X130788145Y-84979473D01*
X130788145Y-84979473D02*
X130831479Y-85066140D01*
X130831479Y-85066140D02*
X130874812Y-85109473D01*
X130874812Y-85109473D02*
X130961479Y-85152806D01*
X130961479Y-85152806D02*
X131264812Y-85152806D01*
X130961479Y-123752706D02*
X130831479Y-123796040D01*
X130831479Y-123796040D02*
X130788145Y-123839373D01*
X130788145Y-123839373D02*
X130744812Y-123926040D01*
X130744812Y-123926040D02*
X130744812Y-124056040D01*
X130744812Y-124056040D02*
X130788145Y-124142706D01*
X130788145Y-124142706D02*
X130831479Y-124186040D01*
X130831479Y-124186040D02*
X130918145Y-124229373D01*
X130918145Y-124229373D02*
X131264812Y-124229373D01*
X131264812Y-124229373D02*
X131264812Y-123319373D01*
X131264812Y-123319373D02*
X130961479Y-123319373D01*
X130961479Y-123319373D02*
X130874812Y-123362706D01*
X130874812Y-123362706D02*
X130831479Y-123406040D01*
X130831479Y-123406040D02*
X130788145Y-123492706D01*
X130788145Y-123492706D02*
X130788145Y-123579373D01*
X130788145Y-123579373D02*
X130831479Y-123666040D01*
X130831479Y-123666040D02*
X130874812Y-123709373D01*
X130874812Y-123709373D02*
X130961479Y-123752706D01*
X130961479Y-123752706D02*
X131264812Y-123752706D01*
X130990879Y-104182006D02*
X130860879Y-104225340D01*
X130860879Y-104225340D02*
X130817545Y-104268673D01*
X130817545Y-104268673D02*
X130774212Y-104355340D01*
X130774212Y-104355340D02*
X130774212Y-104485340D01*
X130774212Y-104485340D02*
X130817545Y-104572006D01*
X130817545Y-104572006D02*
X130860879Y-104615340D01*
X130860879Y-104615340D02*
X130947545Y-104658673D01*
X130947545Y-104658673D02*
X131294212Y-104658673D01*
X131294212Y-104658673D02*
X131294212Y-103748673D01*
X131294212Y-103748673D02*
X130990879Y-103748673D01*
X130990879Y-103748673D02*
X130904212Y-103792006D01*
X130904212Y-103792006D02*
X130860879Y-103835340D01*
X130860879Y-103835340D02*
X130817545Y-103922006D01*
X130817545Y-103922006D02*
X130817545Y-104008673D01*
X130817545Y-104008673D02*
X130860879Y-104095340D01*
X130860879Y-104095340D02*
X130904212Y-104138673D01*
X130904212Y-104138673D02*
X130990879Y-104182006D01*
X130990879Y-104182006D02*
X131294212Y-104182006D01*
X152643379Y-149666506D02*
X152513379Y-149709840D01*
X152513379Y-149709840D02*
X152470045Y-149753173D01*
X152470045Y-149753173D02*
X152426712Y-149839840D01*
X152426712Y-149839840D02*
X152426712Y-149969840D01*
X152426712Y-149969840D02*
X152470045Y-150056506D01*
X152470045Y-150056506D02*
X152513379Y-150099840D01*
X152513379Y-150099840D02*
X152600045Y-150143173D01*
X152600045Y-150143173D02*
X152946712Y-150143173D01*
X152946712Y-150143173D02*
X152946712Y-149233173D01*
X152946712Y-149233173D02*
X152643379Y-149233173D01*
X152643379Y-149233173D02*
X152556712Y-149276506D01*
X152556712Y-149276506D02*
X152513379Y-149319840D01*
X152513379Y-149319840D02*
X152470045Y-149406506D01*
X152470045Y-149406506D02*
X152470045Y-149493173D01*
X152470045Y-149493173D02*
X152513379Y-149579840D01*
X152513379Y-149579840D02*
X152556712Y-149623173D01*
X152556712Y-149623173D02*
X152643379Y-149666506D01*
X152643379Y-149666506D02*
X152946712Y-149666506D01*
X152036712Y-150056506D02*
X151993379Y-150099840D01*
X151993379Y-150099840D02*
X152036712Y-150143173D01*
X152036712Y-150143173D02*
X152080045Y-150099840D01*
X152080045Y-150099840D02*
X152036712Y-150056506D01*
X152036712Y-150056506D02*
X152036712Y-150143173D01*
X152036712Y-149579840D02*
X151993379Y-149623173D01*
X151993379Y-149623173D02*
X152036712Y-149666506D01*
X152036712Y-149666506D02*
X152080045Y-149623173D01*
X152080045Y-149623173D02*
X152036712Y-149579840D01*
X152036712Y-149579840D02*
X152036712Y-149666506D01*
X150433379Y-150143173D02*
X150953379Y-150143173D01*
X150693379Y-150143173D02*
X150693379Y-149233173D01*
X150693379Y-149233173D02*
X150780046Y-149363173D01*
X150780046Y-149363173D02*
X150866713Y-149449840D01*
X150866713Y-149449840D02*
X150953379Y-149493173D01*
X149870046Y-149233173D02*
X149783379Y-149233173D01*
X149783379Y-149233173D02*
X149696712Y-149276506D01*
X149696712Y-149276506D02*
X149653379Y-149319840D01*
X149653379Y-149319840D02*
X149610046Y-149406506D01*
X149610046Y-149406506D02*
X149566712Y-149579840D01*
X149566712Y-149579840D02*
X149566712Y-149796506D01*
X149566712Y-149796506D02*
X149610046Y-149969840D01*
X149610046Y-149969840D02*
X149653379Y-150056506D01*
X149653379Y-150056506D02*
X149696712Y-150099840D01*
X149696712Y-150099840D02*
X149783379Y-150143173D01*
X149783379Y-150143173D02*
X149870046Y-150143173D01*
X149870046Y-150143173D02*
X149956712Y-150099840D01*
X149956712Y-150099840D02*
X150000046Y-150056506D01*
X150000046Y-150056506D02*
X150043379Y-149969840D01*
X150043379Y-149969840D02*
X150086712Y-149796506D01*
X150086712Y-149796506D02*
X150086712Y-149579840D01*
X150086712Y-149579840D02*
X150043379Y-149406506D01*
X150043379Y-149406506D02*
X150000046Y-149319840D01*
X150000046Y-149319840D02*
X149956712Y-149276506D01*
X149956712Y-149276506D02*
X149870046Y-149233173D01*
X152793279Y-146416306D02*
X152663279Y-146459640D01*
X152663279Y-146459640D02*
X152619945Y-146502973D01*
X152619945Y-146502973D02*
X152576612Y-146589640D01*
X152576612Y-146589640D02*
X152576612Y-146719640D01*
X152576612Y-146719640D02*
X152619945Y-146806306D01*
X152619945Y-146806306D02*
X152663279Y-146849640D01*
X152663279Y-146849640D02*
X152749945Y-146892973D01*
X152749945Y-146892973D02*
X153096612Y-146892973D01*
X153096612Y-146892973D02*
X153096612Y-145982973D01*
X153096612Y-145982973D02*
X152793279Y-145982973D01*
X152793279Y-145982973D02*
X152706612Y-146026306D01*
X152706612Y-146026306D02*
X152663279Y-146069640D01*
X152663279Y-146069640D02*
X152619945Y-146156306D01*
X152619945Y-146156306D02*
X152619945Y-146242973D01*
X152619945Y-146242973D02*
X152663279Y-146329640D01*
X152663279Y-146329640D02*
X152706612Y-146372973D01*
X152706612Y-146372973D02*
X152793279Y-146416306D01*
X152793279Y-146416306D02*
X153096612Y-146416306D01*
X151753279Y-146892973D02*
X152186612Y-146892973D01*
X152186612Y-146892973D02*
X152186612Y-145982973D01*
X151449945Y-145982973D02*
X151449945Y-146719640D01*
X151449945Y-146719640D02*
X151406612Y-146806306D01*
X151406612Y-146806306D02*
X151363278Y-146849640D01*
X151363278Y-146849640D02*
X151276612Y-146892973D01*
X151276612Y-146892973D02*
X151103278Y-146892973D01*
X151103278Y-146892973D02*
X151016612Y-146849640D01*
X151016612Y-146849640D02*
X150973278Y-146806306D01*
X150973278Y-146806306D02*
X150929945Y-146719640D01*
X150929945Y-146719640D02*
X150929945Y-145982973D01*
X150496612Y-146416306D02*
X150193279Y-146416306D01*
X150063279Y-146892973D02*
X150496612Y-146892973D01*
X150496612Y-146892973D02*
X150496612Y-145982973D01*
X150496612Y-145982973D02*
X150063279Y-145982973D01*
X153139945Y-148383073D02*
X152706612Y-148383073D01*
X153226612Y-148643073D02*
X152923279Y-147733073D01*
X152923279Y-147733073D02*
X152619945Y-148643073D01*
X152316612Y-148556406D02*
X152273279Y-148599740D01*
X152273279Y-148599740D02*
X152316612Y-148643073D01*
X152316612Y-148643073D02*
X152359945Y-148599740D01*
X152359945Y-148599740D02*
X152316612Y-148556406D01*
X152316612Y-148556406D02*
X152316612Y-148643073D01*
X152316612Y-148079740D02*
X152273279Y-148123073D01*
X152273279Y-148123073D02*
X152316612Y-148166406D01*
X152316612Y-148166406D02*
X152359945Y-148123073D01*
X152359945Y-148123073D02*
X152316612Y-148079740D01*
X152316612Y-148079740D02*
X152316612Y-148166406D01*
X150713279Y-148643073D02*
X151233279Y-148643073D01*
X150973279Y-148643073D02*
X150973279Y-147733073D01*
X150973279Y-147733073D02*
X151059946Y-147863073D01*
X151059946Y-147863073D02*
X151146613Y-147949740D01*
X151146613Y-147949740D02*
X151233279Y-147993073D01*
X150149946Y-147733073D02*
X150063279Y-147733073D01*
X150063279Y-147733073D02*
X149976612Y-147776406D01*
X149976612Y-147776406D02*
X149933279Y-147819740D01*
X149933279Y-147819740D02*
X149889946Y-147906406D01*
X149889946Y-147906406D02*
X149846612Y-148079740D01*
X149846612Y-148079740D02*
X149846612Y-148296406D01*
X149846612Y-148296406D02*
X149889946Y-148469740D01*
X149889946Y-148469740D02*
X149933279Y-148556406D01*
X149933279Y-148556406D02*
X149976612Y-148599740D01*
X149976612Y-148599740D02*
X150063279Y-148643073D01*
X150063279Y-148643073D02*
X150149946Y-148643073D01*
X150149946Y-148643073D02*
X150236612Y-148599740D01*
X150236612Y-148599740D02*
X150279946Y-148556406D01*
X150279946Y-148556406D02*
X150323279Y-148469740D01*
X150323279Y-148469740D02*
X150366612Y-148296406D01*
X150366612Y-148296406D02*
X150366612Y-148079740D01*
X150366612Y-148079740D02*
X150323279Y-147906406D01*
X150323279Y-147906406D02*
X150279946Y-147819740D01*
X150279946Y-147819740D02*
X150236612Y-147776406D01*
X150236612Y-147776406D02*
X150149946Y-147733073D01*
X167561379Y-65552906D02*
X167431379Y-65596240D01*
X167431379Y-65596240D02*
X167388045Y-65639573D01*
X167388045Y-65639573D02*
X167344712Y-65726240D01*
X167344712Y-65726240D02*
X167344712Y-65856240D01*
X167344712Y-65856240D02*
X167388045Y-65942906D01*
X167388045Y-65942906D02*
X167431379Y-65986240D01*
X167431379Y-65986240D02*
X167518045Y-66029573D01*
X167518045Y-66029573D02*
X167864712Y-66029573D01*
X167864712Y-66029573D02*
X167864712Y-65119573D01*
X167864712Y-65119573D02*
X167561379Y-65119573D01*
X167561379Y-65119573D02*
X167474712Y-65162906D01*
X167474712Y-65162906D02*
X167431379Y-65206240D01*
X167431379Y-65206240D02*
X167388045Y-65292906D01*
X167388045Y-65292906D02*
X167388045Y-65379573D01*
X167388045Y-65379573D02*
X167431379Y-65466240D01*
X167431379Y-65466240D02*
X167474712Y-65509573D01*
X167474712Y-65509573D02*
X167561379Y-65552906D01*
X167561379Y-65552906D02*
X167864712Y-65552906D01*
X167561379Y-85152806D02*
X167431379Y-85196140D01*
X167431379Y-85196140D02*
X167388045Y-85239473D01*
X167388045Y-85239473D02*
X167344712Y-85326140D01*
X167344712Y-85326140D02*
X167344712Y-85456140D01*
X167344712Y-85456140D02*
X167388045Y-85542806D01*
X167388045Y-85542806D02*
X167431379Y-85586140D01*
X167431379Y-85586140D02*
X167518045Y-85629473D01*
X167518045Y-85629473D02*
X167864712Y-85629473D01*
X167864712Y-85629473D02*
X167864712Y-84719473D01*
X167864712Y-84719473D02*
X167561379Y-84719473D01*
X167561379Y-84719473D02*
X167474712Y-84762806D01*
X167474712Y-84762806D02*
X167431379Y-84806140D01*
X167431379Y-84806140D02*
X167388045Y-84892806D01*
X167388045Y-84892806D02*
X167388045Y-84979473D01*
X167388045Y-84979473D02*
X167431379Y-85066140D01*
X167431379Y-85066140D02*
X167474712Y-85109473D01*
X167474712Y-85109473D02*
X167561379Y-85152806D01*
X167561379Y-85152806D02*
X167864712Y-85152806D01*
X167561379Y-104152806D02*
X167431379Y-104196140D01*
X167431379Y-104196140D02*
X167388045Y-104239473D01*
X167388045Y-104239473D02*
X167344712Y-104326140D01*
X167344712Y-104326140D02*
X167344712Y-104456140D01*
X167344712Y-104456140D02*
X167388045Y-104542806D01*
X167388045Y-104542806D02*
X167431379Y-104586140D01*
X167431379Y-104586140D02*
X167518045Y-104629473D01*
X167518045Y-104629473D02*
X167864712Y-104629473D01*
X167864712Y-104629473D02*
X167864712Y-103719473D01*
X167864712Y-103719473D02*
X167561379Y-103719473D01*
X167561379Y-103719473D02*
X167474712Y-103762806D01*
X167474712Y-103762806D02*
X167431379Y-103806140D01*
X167431379Y-103806140D02*
X167388045Y-103892806D01*
X167388045Y-103892806D02*
X167388045Y-103979473D01*
X167388045Y-103979473D02*
X167431379Y-104066140D01*
X167431379Y-104066140D02*
X167474712Y-104109473D01*
X167474712Y-104109473D02*
X167561379Y-104152806D01*
X167561379Y-104152806D02*
X167864712Y-104152806D01*
X167561379Y-123552806D02*
X167431379Y-123596140D01*
X167431379Y-123596140D02*
X167388045Y-123639473D01*
X167388045Y-123639473D02*
X167344712Y-123726140D01*
X167344712Y-123726140D02*
X167344712Y-123856140D01*
X167344712Y-123856140D02*
X167388045Y-123942806D01*
X167388045Y-123942806D02*
X167431379Y-123986140D01*
X167431379Y-123986140D02*
X167518045Y-124029473D01*
X167518045Y-124029473D02*
X167864712Y-124029473D01*
X167864712Y-124029473D02*
X167864712Y-123119473D01*
X167864712Y-123119473D02*
X167561379Y-123119473D01*
X167561379Y-123119473D02*
X167474712Y-123162806D01*
X167474712Y-123162806D02*
X167431379Y-123206140D01*
X167431379Y-123206140D02*
X167388045Y-123292806D01*
X167388045Y-123292806D02*
X167388045Y-123379473D01*
X167388045Y-123379473D02*
X167431379Y-123466140D01*
X167431379Y-123466140D02*
X167474712Y-123509473D01*
X167474712Y-123509473D02*
X167561379Y-123552806D01*
X167561379Y-123552806D02*
X167864712Y-123552806D01*
X167561379Y-142552706D02*
X167431379Y-142596040D01*
X167431379Y-142596040D02*
X167388045Y-142639373D01*
X167388045Y-142639373D02*
X167344712Y-142726040D01*
X167344712Y-142726040D02*
X167344712Y-142856040D01*
X167344712Y-142856040D02*
X167388045Y-142942706D01*
X167388045Y-142942706D02*
X167431379Y-142986040D01*
X167431379Y-142986040D02*
X167518045Y-143029373D01*
X167518045Y-143029373D02*
X167864712Y-143029373D01*
X167864712Y-143029373D02*
X167864712Y-142119373D01*
X167864712Y-142119373D02*
X167561379Y-142119373D01*
X167561379Y-142119373D02*
X167474712Y-142162706D01*
X167474712Y-142162706D02*
X167431379Y-142206040D01*
X167431379Y-142206040D02*
X167388045Y-142292706D01*
X167388045Y-142292706D02*
X167388045Y-142379373D01*
X167388045Y-142379373D02*
X167431379Y-142466040D01*
X167431379Y-142466040D02*
X167474712Y-142509373D01*
X167474712Y-142509373D02*
X167561379Y-142552706D01*
X167561379Y-142552706D02*
X167864712Y-142552706D01*
X182907945Y-65569673D02*
X182474612Y-65569673D01*
X182994612Y-65829673D02*
X182691279Y-64919673D01*
X182691279Y-64919673D02*
X182387945Y-65829673D01*
X182907945Y-85169573D02*
X182474612Y-85169573D01*
X182994612Y-85429573D02*
X182691279Y-84519573D01*
X182691279Y-84519573D02*
X182387945Y-85429573D01*
X182907945Y-104169573D02*
X182474612Y-104169573D01*
X182994612Y-104429573D02*
X182691279Y-103519573D01*
X182691279Y-103519573D02*
X182387945Y-104429573D01*
X182907945Y-123769473D02*
X182474612Y-123769473D01*
X182994612Y-124029473D02*
X182691279Y-123119473D01*
X182691279Y-123119473D02*
X182387945Y-124029473D01*
X182907945Y-142769373D02*
X182474612Y-142769373D01*
X182994612Y-143029373D02*
X182691279Y-142119373D01*
X182691279Y-142119373D02*
X182387945Y-143029373D01*
M02*
