%TF.GenerationSoftware,KiCad,Pcbnew,10.0.6*%
%TF.CreationDate,2026-09-23T18:16:56+08:00*%
%TF.ProjectId,Action_Groups_Module,41637469-6f6e-45f4-9772-6f7570735f4d,1.7*%
%TF.SameCoordinates,Original*%
%TF.FileFunction,Profile,NP*%
%FSLAX46Y46*%
G04 Gerber Fmt 4.6, Leading zero omitted, Abs format (unit mm)*
G04 Created by KiCad (PCBNEW 10.0.6) date 2026-09-23 18:16:56*
%MOMM*%
%LPD*%
G01*
G04 APERTURE LIST*
%TA.AperFunction,Profile*%
%ADD10C,0.254000*%
%TD*%
G04 APERTURE END LIST*
D10*
X99996500Y-111342700D02*
X100001600Y-111342700D01*
X100000000Y-70000100D02*
X100000000Y-108557200D01*
X100000000Y-70000100D02*
X110000000Y-60000000D01*
X100000000Y-111429900D02*
X100000050Y-149999900D01*
X100000000Y-111429900D02*
X100000400Y-111073000D01*
X100000050Y-149999900D02*
X104998800Y-155001100D01*
X100000100Y-108488400D02*
X100000100Y-108840989D01*
X100000400Y-111073000D02*
X100164900Y-111208900D01*
X100100300Y-108757600D02*
X100000100Y-108840989D01*
X100164900Y-111208900D02*
X100335600Y-111307300D01*
X100241500Y-108647900D02*
X100100300Y-108757600D01*
X100335600Y-111307300D02*
X100670700Y-111421600D01*
X100538500Y-108517700D02*
X100241500Y-108647900D01*
X100670700Y-111421600D02*
X101094900Y-111459700D01*
X100843600Y-108450900D02*
X100538500Y-108517700D01*
X101094900Y-111459700D02*
X101556100Y-111352600D01*
X101198900Y-108452000D02*
X100843600Y-108450900D01*
X101497600Y-108538700D02*
X101198900Y-108452000D01*
X101513900Y-108538700D02*
X101497600Y-108538700D01*
X101556100Y-111352600D02*
X101968600Y-111109100D01*
X101704200Y-108634500D02*
X101513900Y-108538700D01*
X101968600Y-111109100D02*
X102139000Y-110932200D01*
X101986600Y-108809900D02*
X101704200Y-108634500D01*
X102126700Y-108970500D02*
X101986600Y-108809900D01*
X102139000Y-110932200D02*
X102290400Y-110724600D01*
X102193100Y-109046700D02*
X102126700Y-108970500D01*
X102237900Y-109121100D02*
X102193100Y-109046700D01*
X102254300Y-109124400D02*
X102237900Y-109121100D01*
X102290400Y-110724600D02*
X102375800Y-110570700D01*
X102341900Y-109293200D02*
X102254300Y-109124400D01*
X102364100Y-110596100D02*
X102454400Y-110342100D01*
X102375800Y-110570700D02*
X102407000Y-110469100D01*
X102414900Y-109478500D02*
X102341900Y-109293200D01*
X102454400Y-110342100D02*
X102494600Y-110088100D01*
X102479200Y-109707100D02*
X102428400Y-109506400D01*
X102483800Y-109698900D02*
X102414900Y-109478500D01*
X102494600Y-109895800D02*
X102479200Y-109707100D01*
X102494600Y-110088100D02*
X102494600Y-109895800D01*
X102501500Y-109999900D02*
X102483800Y-109698900D01*
X104998800Y-155001100D02*
X110000000Y-159999800D01*
X111500100Y-74749800D02*
G75*
G02*
X104499900Y-74749800I-3500100J0D01*
G01*
X104499900Y-74749800D02*
G75*
G02*
X111500100Y-74749800I3500100J0D01*
G01*
X111500100Y-93999900D02*
G75*
G02*
X104499900Y-93999900I-3500100J0D01*
G01*
X104499900Y-93999900D02*
G75*
G02*
X111500100Y-93999900I3500100J0D01*
G01*
X111500100Y-113249800D02*
G75*
G02*
X104499900Y-113249800I-3500100J0D01*
G01*
X104499900Y-113249800D02*
G75*
G02*
X111500100Y-113249800I3500100J0D01*
G01*
X111500100Y-132499700D02*
G75*
G02*
X104499900Y-132499700I-3500100J0D01*
G01*
X104499900Y-132499700D02*
G75*
G02*
X111500100Y-132499700I3500100J0D01*
G01*
X111500100Y-151749900D02*
G75*
G02*
X104499900Y-151749900I-3500100J0D01*
G01*
X104499900Y-151749900D02*
G75*
G02*
X111500100Y-151749900I3500100J0D01*
G01*
X110000000Y-159999800D02*
X190000000Y-159999800D01*
X117859800Y-67748800D02*
X130859800Y-67749800D01*
X117859800Y-81748900D02*
X117859800Y-67748800D01*
X117860200Y-144749400D02*
X130860100Y-144750400D01*
X117860200Y-158749500D02*
X117860200Y-144749400D01*
X117860600Y-86999200D02*
X130860500Y-87000100D01*
X117860600Y-100999100D02*
X117860600Y-86999200D01*
X117860700Y-125499400D02*
X130860600Y-125500400D01*
X117860700Y-139499300D02*
X117860700Y-125499400D01*
X117861100Y-106248800D02*
X130861000Y-106249900D01*
X117861100Y-120248900D02*
X117861100Y-106248800D01*
X130859800Y-67749800D02*
X130859800Y-81748900D01*
X130859800Y-81748900D02*
X117859800Y-81748900D01*
X130860100Y-144750400D02*
X130860100Y-158749500D01*
X130860100Y-158749500D02*
X117860200Y-158749500D01*
X130860500Y-87000100D02*
X130860500Y-100999100D01*
X130860500Y-100999100D02*
X117860600Y-100999100D01*
X130860600Y-125500400D02*
X130860600Y-139499300D01*
X130860600Y-139499300D02*
X117860700Y-139499300D01*
X130861000Y-106249900D02*
X130861000Y-120248900D01*
X130861000Y-120248900D02*
X117861100Y-120248900D01*
X169089900Y-67748900D02*
X182089800Y-67749800D01*
X169089900Y-81748800D02*
X169089900Y-67748900D01*
X169090200Y-144749500D02*
X182090300Y-144750500D01*
X169090200Y-158749400D02*
X169090200Y-144749500D01*
X169090500Y-86999100D02*
X182090500Y-87000100D01*
X169090500Y-100999100D02*
X169090500Y-86999100D01*
X169090800Y-125499300D02*
X182090700Y-125500300D01*
X169090800Y-139499300D02*
X169090800Y-125499300D01*
X169091000Y-106248800D02*
X182091000Y-106249800D01*
X169091000Y-120248800D02*
X169091000Y-106248800D01*
X182089800Y-67749800D02*
X182089800Y-81748800D01*
X182089800Y-81748800D02*
X169089900Y-81748800D01*
X182090300Y-144750500D02*
X182090300Y-158749400D01*
X182090300Y-158749400D02*
X169090200Y-158749400D01*
X182090500Y-87000100D02*
X182090500Y-100999100D01*
X182090500Y-100999100D02*
X169090500Y-100999100D01*
X182090700Y-125500300D02*
X182090700Y-139499300D01*
X182090700Y-139499300D02*
X169090800Y-139499300D01*
X182091000Y-106249800D02*
X182091000Y-120248800D01*
X182091000Y-120248800D02*
X169091000Y-120248800D01*
X189999800Y-60000000D02*
X110000000Y-60000000D01*
X195499900Y-74749800D02*
G75*
G02*
X188499700Y-74749800I-3500100J0D01*
G01*
X188499700Y-74749800D02*
G75*
G02*
X195499900Y-74749800I3500100J0D01*
G01*
X195499900Y-93999900D02*
G75*
G02*
X188499700Y-93999900I-3500100J0D01*
G01*
X188499700Y-93999900D02*
G75*
G02*
X195499900Y-93999900I3500100J0D01*
G01*
X195499900Y-113249800D02*
G75*
G02*
X188499700Y-113249800I-3500100J0D01*
G01*
X188499700Y-113249800D02*
G75*
G02*
X195499900Y-113249800I3500100J0D01*
G01*
X195499900Y-132499700D02*
G75*
G02*
X188499700Y-132499700I-3500100J0D01*
G01*
X188499700Y-132499700D02*
G75*
G02*
X195499900Y-132499700I3500100J0D01*
G01*
X195499900Y-151749900D02*
G75*
G02*
X188499700Y-151749900I-3500100J0D01*
G01*
X188499700Y-151749900D02*
G75*
G02*
X195499900Y-151749900I3500100J0D01*
G01*
X194999900Y-155000000D02*
X190000000Y-159999800D01*
X197494800Y-109942700D02*
X197512500Y-110243700D01*
X197501700Y-109854500D02*
X197501700Y-110046800D01*
X197501700Y-110046800D02*
X197517100Y-110235500D01*
X197512500Y-110243700D02*
X197581500Y-110464000D01*
X197517100Y-110235500D02*
X197568000Y-110436200D01*
X197541900Y-109600500D02*
X197501700Y-109854500D01*
X197581500Y-110464000D02*
X197654400Y-110649300D01*
X197620500Y-109371800D02*
X197589300Y-109473500D01*
X197628021Y-109358256D02*
X197541900Y-109600500D01*
X197654400Y-110649300D02*
X197742100Y-110818200D01*
X197705900Y-109218000D02*
X197628021Y-109358256D01*
X197742100Y-110818200D02*
X197758500Y-110821500D01*
X197758500Y-110821500D02*
X197803200Y-110895800D01*
X197803200Y-110895800D02*
X197869600Y-110972000D01*
X197857300Y-109010400D02*
X197705900Y-109218000D01*
X197869600Y-110972000D02*
X198009700Y-111132700D01*
X198009700Y-111132700D02*
X198292100Y-111308000D01*
X198027700Y-108833400D02*
X197857300Y-109010400D01*
X198292100Y-111308000D02*
X198482400Y-111403800D01*
X198440200Y-108590000D02*
X198027700Y-108833400D01*
X198482400Y-111403800D02*
X198498800Y-111403800D01*
X198498800Y-111403800D02*
X198797400Y-111490500D01*
X198797400Y-111490500D02*
X199152700Y-111491600D01*
X198901500Y-108482800D02*
X198440200Y-108590000D01*
X199152700Y-111491600D02*
X199457800Y-111424900D01*
X199325600Y-108521000D02*
X198901500Y-108482800D01*
X199457800Y-111424900D02*
X199754900Y-111294600D01*
X199660700Y-108635300D02*
X199325600Y-108521000D01*
X199754900Y-111294600D02*
X199896000Y-111185000D01*
X199831400Y-108733700D02*
X199660700Y-108635300D01*
X199896000Y-111185000D02*
X199996230Y-111101587D01*
X199996000Y-108869500D02*
X199831400Y-108733700D01*
X199996263Y-108557200D02*
X199996000Y-108869500D01*
X199998050Y-111451100D02*
X199996230Y-111101587D01*
X199999800Y-108599900D02*
X199994700Y-108599900D01*
X199999900Y-70000000D02*
X189999800Y-60000000D01*
X199999900Y-108564800D02*
X199999900Y-70000000D01*
X199999900Y-150000000D02*
X194999900Y-155000000D01*
X199999900Y-150000000D02*
X199998050Y-111451100D01*
X200004900Y-108557200D02*
X199996263Y-108557200D01*
M02*
