%TF.GenerationSoftware,KiCad,Pcbnew,10.0.6*%
%TF.CreationDate,2026-09-23T18:16:56+08:00*%
%TF.ProjectId,Action_Groups_Module,41637469-6f6e-45f4-9772-6f7570735f4d,1.7*%
%TF.SameCoordinates,Original*%
%TF.FileFunction,Legend,Top*%
%TF.FilePolarity,Positive*%
%FSLAX46Y46*%
G04 Gerber Fmt 4.6, Leading zero omitted, Abs format (unit mm)*
G04 Created by KiCad (PCBNEW 10.0.6) date 2026-09-23 18:16:56*
%MOMM*%
%LPD*%
G01*
G04 APERTURE LIST*
%ADD10C,0.254000*%
%ADD11C,0.080000*%
%ADD12C,0.150000*%
%ADD13C,0.200000*%
%ADD14C,0.177800*%
%ADD15C,0.152400*%
G04 APERTURE END LIST*
D10*
X138000000Y-151000000D02*
X162000000Y-151000000D01*
X138000000Y-157000100D02*
X138000000Y-151000000D01*
X149000000Y-151000000D02*
X149000000Y-152000000D01*
X149000000Y-152000000D02*
X151000100Y-152000000D01*
X151000100Y-152000000D02*
X151000100Y-151000000D01*
X162000000Y-151000000D02*
X162000000Y-157000100D01*
X162000000Y-157000100D02*
X138000000Y-157000100D01*
D11*
X114640826Y-67639173D02*
X114922731Y-67639173D01*
X115380826Y-67639173D02*
X115662731Y-67639173D01*
X116120826Y-67639173D02*
X116402731Y-67639173D01*
X114640826Y-81389273D02*
X114922731Y-81389273D01*
X115380826Y-81389273D02*
X115662731Y-81389273D01*
X116120826Y-81389273D02*
X116402731Y-81389273D01*
X114640826Y-87139273D02*
X114922731Y-87139273D01*
X115380826Y-87139273D02*
X115662731Y-87139273D01*
X116120826Y-87139273D02*
X116402731Y-87139273D01*
X114640826Y-100889073D02*
X114922731Y-100889073D01*
X115380826Y-100889073D02*
X115662731Y-100889073D01*
X116120826Y-100889073D02*
X116402731Y-100889073D01*
X114640826Y-106139273D02*
X114922731Y-106139273D01*
X115380826Y-106139273D02*
X115662731Y-106139273D01*
X116120826Y-106139273D02*
X116402731Y-106139273D01*
X114640826Y-119889273D02*
X114922731Y-119889273D01*
X115380826Y-119889273D02*
X115662731Y-119889273D01*
X116120826Y-119889273D02*
X116402731Y-119889273D01*
X114640826Y-125639073D02*
X114922731Y-125639073D01*
X115380826Y-125639073D02*
X115662731Y-125639073D01*
X116120826Y-125639073D02*
X116402731Y-125639073D01*
X114640826Y-139389173D02*
X114922731Y-139389173D01*
X115380826Y-139389173D02*
X115662731Y-139389173D01*
X116120826Y-139389173D02*
X116402731Y-139389173D01*
X114640826Y-144639073D02*
X114922731Y-144639073D01*
X115380826Y-144639073D02*
X115662731Y-144639073D01*
X116120826Y-144639073D02*
X116402731Y-144639073D01*
X114640826Y-158389073D02*
X114922731Y-158389073D01*
X115380826Y-158389073D02*
X115662731Y-158389073D01*
X116120826Y-158389073D02*
X116402731Y-158389073D01*
X184140826Y-67639173D02*
X184422731Y-67639173D01*
X184880826Y-67639173D02*
X185162731Y-67639173D01*
X185620826Y-67639173D02*
X185902731Y-67639173D01*
X184140826Y-81389273D02*
X184422731Y-81389273D01*
X184880826Y-81389273D02*
X185162731Y-81389273D01*
X185620826Y-81389273D02*
X185902731Y-81389273D01*
X184140826Y-87139273D02*
X184422731Y-87139273D01*
X184880826Y-87139273D02*
X185162731Y-87139273D01*
X185620826Y-87139273D02*
X185902731Y-87139273D01*
X184140826Y-100889073D02*
X184422731Y-100889073D01*
X184880826Y-100889073D02*
X185162731Y-100889073D01*
X185620826Y-100889073D02*
X185902731Y-100889073D01*
X184140826Y-106139273D02*
X184422731Y-106139273D01*
X184880826Y-106139273D02*
X185162731Y-106139273D01*
X185620826Y-106139273D02*
X185902731Y-106139273D01*
X184140826Y-119889273D02*
X184422731Y-119889273D01*
X184880826Y-119889273D02*
X185162731Y-119889273D01*
X185620826Y-119889273D02*
X185902731Y-119889273D01*
X184140826Y-125639073D02*
X184422731Y-125639073D01*
X184880826Y-125639073D02*
X185162731Y-125639073D01*
X185620826Y-125639073D02*
X185902731Y-125639073D01*
X184140826Y-139389173D02*
X184422731Y-139389173D01*
X184880826Y-139389173D02*
X185162731Y-139389173D01*
X185620826Y-139389173D02*
X185902731Y-139389173D01*
X184140826Y-158389073D02*
X184422731Y-158389073D01*
X184880826Y-158389073D02*
X185162731Y-158389073D01*
X185620826Y-158389073D02*
X185902731Y-158389073D01*
X185609173Y-144610826D02*
X185327269Y-144610826D01*
X184869173Y-144610826D02*
X184587269Y-144610826D01*
X184129173Y-144610826D02*
X183847269Y-144610826D01*
X105360726Y-70640826D02*
X105360726Y-70922731D01*
X105360726Y-71380826D02*
X105360726Y-71662731D01*
X105360726Y-72120826D02*
X105360726Y-72402731D01*
X105360726Y-89640826D02*
X105360726Y-89922731D01*
X105360726Y-90380826D02*
X105360726Y-90662731D01*
X105360726Y-91120826D02*
X105360726Y-91402731D01*
X105360726Y-109140626D02*
X105360726Y-109422531D01*
X105360726Y-109880626D02*
X105360726Y-110162531D01*
X105360726Y-110620626D02*
X105360726Y-110902531D01*
X105360726Y-128640726D02*
X105360726Y-128922631D01*
X105360726Y-129380726D02*
X105360726Y-129662631D01*
X105360726Y-130120726D02*
X105360726Y-130402631D01*
X105360726Y-147640726D02*
X105360726Y-147922631D01*
X105360726Y-148380726D02*
X105360726Y-148662631D01*
X105360726Y-149120726D02*
X105360726Y-149402631D01*
X110610926Y-70640826D02*
X110610926Y-70922731D01*
X110610926Y-71380826D02*
X110610926Y-71662731D01*
X110610926Y-72120826D02*
X110610926Y-72402731D01*
X110610926Y-89640826D02*
X110610926Y-89922731D01*
X110610926Y-90380826D02*
X110610926Y-90662731D01*
X110610926Y-91120826D02*
X110610926Y-91402731D01*
X110610926Y-109140626D02*
X110610926Y-109422531D01*
X110610926Y-109880626D02*
X110610926Y-110162531D01*
X110610926Y-110620626D02*
X110610926Y-110902531D01*
X110610926Y-128640726D02*
X110610926Y-128922631D01*
X110610926Y-129380726D02*
X110610926Y-129662631D01*
X110610926Y-130120726D02*
X110610926Y-130402631D01*
X110610926Y-147640726D02*
X110610926Y-147922631D01*
X110610926Y-148380726D02*
X110610926Y-148662631D01*
X110610926Y-149120726D02*
X110610926Y-149402631D01*
X113610926Y-69140726D02*
X113610926Y-69422631D01*
X113610926Y-69880726D02*
X113610926Y-70162631D01*
X113610926Y-70620726D02*
X113610926Y-70902631D01*
X113610926Y-71360726D02*
X113610926Y-71642631D01*
X113610926Y-72100726D02*
X113610926Y-72382631D01*
X113610926Y-72840726D02*
X113610926Y-73122631D01*
X113610926Y-73580726D02*
X113610926Y-73862631D01*
X113610926Y-74320726D02*
X113610926Y-74602631D01*
X113610926Y-75060726D02*
X113610926Y-75342631D01*
X113610926Y-75800726D02*
X113610926Y-76082631D01*
X113610926Y-76540726D02*
X113610926Y-76822631D01*
X113610926Y-77280726D02*
X113610926Y-77562631D01*
X113610926Y-78020726D02*
X113610926Y-78302631D01*
X113610926Y-78760726D02*
X113610926Y-79042631D01*
X113610926Y-79500726D02*
X113610926Y-79782631D01*
X113610926Y-80240726D02*
X113610926Y-80522631D01*
X113610926Y-88640826D02*
X113610926Y-88922731D01*
X113610926Y-89380826D02*
X113610926Y-89662731D01*
X113610926Y-90120826D02*
X113610926Y-90402731D01*
X113610926Y-90860826D02*
X113610926Y-91142731D01*
X113610926Y-91600826D02*
X113610926Y-91882731D01*
X113610926Y-92340826D02*
X113610926Y-92622731D01*
X113610926Y-93080826D02*
X113610926Y-93362731D01*
X113610926Y-93820826D02*
X113610926Y-94102731D01*
X113610926Y-94560826D02*
X113610926Y-94842731D01*
X113610926Y-95300826D02*
X113610926Y-95582731D01*
X113610926Y-96040826D02*
X113610926Y-96322731D01*
X113610926Y-96780826D02*
X113610926Y-97062731D01*
X113610926Y-97520826D02*
X113610926Y-97802731D01*
X113610926Y-98260826D02*
X113610926Y-98542731D01*
X113610926Y-99000826D02*
X113610926Y-99282731D01*
X113610926Y-99740826D02*
X113610926Y-100022731D01*
X113610926Y-107640726D02*
X113610926Y-107922631D01*
X113610926Y-108380726D02*
X113610926Y-108662631D01*
X113610926Y-109120726D02*
X113610926Y-109402631D01*
X113610926Y-109860726D02*
X113610926Y-110142631D01*
X113610926Y-110600726D02*
X113610926Y-110882631D01*
X113610926Y-111340726D02*
X113610926Y-111622631D01*
X113610926Y-112080726D02*
X113610926Y-112362631D01*
X113610926Y-112820726D02*
X113610926Y-113102631D01*
X113610926Y-113560726D02*
X113610926Y-113842631D01*
X113610926Y-114300726D02*
X113610926Y-114582631D01*
X113610926Y-115040726D02*
X113610926Y-115322631D01*
X113610926Y-115780726D02*
X113610926Y-116062631D01*
X113610926Y-116520726D02*
X113610926Y-116802631D01*
X113610926Y-117260726D02*
X113610926Y-117542631D01*
X113610926Y-118000726D02*
X113610926Y-118282631D01*
X113610926Y-118740726D02*
X113610926Y-119022631D01*
X113610926Y-127140826D02*
X113610926Y-127422731D01*
X113610926Y-127880826D02*
X113610926Y-128162731D01*
X113610926Y-128620826D02*
X113610926Y-128902731D01*
X113610926Y-129360826D02*
X113610926Y-129642731D01*
X113610926Y-130100826D02*
X113610926Y-130382731D01*
X113610926Y-130840826D02*
X113610926Y-131122731D01*
X113610926Y-131580826D02*
X113610926Y-131862731D01*
X113610926Y-132320826D02*
X113610926Y-132602731D01*
X113610926Y-133060826D02*
X113610926Y-133342731D01*
X113610926Y-133800826D02*
X113610926Y-134082731D01*
X113610926Y-134540826D02*
X113610926Y-134822731D01*
X113610926Y-135280826D02*
X113610926Y-135562731D01*
X113610926Y-136020826D02*
X113610926Y-136302731D01*
X113610926Y-136760826D02*
X113610926Y-137042731D01*
X113610926Y-137500826D02*
X113610926Y-137782731D01*
X113610926Y-138240826D02*
X113610926Y-138522731D01*
X113610926Y-146140826D02*
X113610926Y-146422731D01*
X113610926Y-146880826D02*
X113610926Y-147162731D01*
X113610926Y-147620826D02*
X113610926Y-147902731D01*
X113610926Y-148360826D02*
X113610926Y-148642731D01*
X113610926Y-149100826D02*
X113610926Y-149382731D01*
X113610926Y-149840826D02*
X113610926Y-150122731D01*
X113610926Y-150580826D02*
X113610926Y-150862731D01*
X113610926Y-151320826D02*
X113610926Y-151602731D01*
X113610926Y-152060826D02*
X113610926Y-152342731D01*
X113610926Y-152800826D02*
X113610926Y-153082731D01*
X113610926Y-153540826D02*
X113610926Y-153822731D01*
X113610926Y-154280826D02*
X113610926Y-154562731D01*
X113610926Y-155020826D02*
X113610926Y-155302731D01*
X113610926Y-155760826D02*
X113610926Y-156042731D01*
X113610926Y-156500826D02*
X113610926Y-156782731D01*
X113610926Y-157240826D02*
X113610926Y-157522731D01*
X116860826Y-69140726D02*
X116860826Y-69422631D01*
X116860826Y-69880726D02*
X116860826Y-70162631D01*
X116860826Y-70620726D02*
X116860826Y-70902631D01*
X116860826Y-71360726D02*
X116860826Y-71642631D01*
X116860826Y-72100726D02*
X116860826Y-72382631D01*
X116860826Y-72840726D02*
X116860826Y-73122631D01*
X116860826Y-73580726D02*
X116860826Y-73862631D01*
X116860826Y-74320726D02*
X116860826Y-74602631D01*
X116860826Y-75060726D02*
X116860826Y-75342631D01*
X116860826Y-75800726D02*
X116860826Y-76082631D01*
X116860826Y-76540726D02*
X116860826Y-76822631D01*
X116860826Y-77280726D02*
X116860826Y-77562631D01*
X116860826Y-78020726D02*
X116860826Y-78302631D01*
X116860826Y-78760726D02*
X116860826Y-79042631D01*
X116860826Y-79500726D02*
X116860826Y-79782631D01*
X116860826Y-80240726D02*
X116860826Y-80522631D01*
X116860826Y-88640826D02*
X116860826Y-88922731D01*
X116860826Y-89380826D02*
X116860826Y-89662731D01*
X116860826Y-90120826D02*
X116860826Y-90402731D01*
X116860826Y-90860826D02*
X116860826Y-91142731D01*
X116860826Y-91600826D02*
X116860826Y-91882731D01*
X116860826Y-92340826D02*
X116860826Y-92622731D01*
X116860826Y-93080826D02*
X116860826Y-93362731D01*
X116860826Y-93820826D02*
X116860826Y-94102731D01*
X116860826Y-94560826D02*
X116860826Y-94842731D01*
X116860826Y-95300826D02*
X116860826Y-95582731D01*
X116860826Y-96040826D02*
X116860826Y-96322731D01*
X116860826Y-96780826D02*
X116860826Y-97062731D01*
X116860826Y-97520826D02*
X116860826Y-97802731D01*
X116860826Y-98260826D02*
X116860826Y-98542731D01*
X116860826Y-99000826D02*
X116860826Y-99282731D01*
X116860826Y-99740826D02*
X116860826Y-100022731D01*
X116860826Y-107640726D02*
X116860826Y-107922631D01*
X116860826Y-108380726D02*
X116860826Y-108662631D01*
X116860826Y-109120726D02*
X116860826Y-109402631D01*
X116860826Y-109860726D02*
X116860826Y-110142631D01*
X116860826Y-110600726D02*
X116860826Y-110882631D01*
X116860826Y-111340726D02*
X116860826Y-111622631D01*
X116860826Y-112080726D02*
X116860826Y-112362631D01*
X116860826Y-112820726D02*
X116860826Y-113102631D01*
X116860826Y-113560726D02*
X116860826Y-113842631D01*
X116860826Y-114300726D02*
X116860826Y-114582631D01*
X116860826Y-115040726D02*
X116860826Y-115322631D01*
X116860826Y-115780726D02*
X116860826Y-116062631D01*
X116860826Y-116520726D02*
X116860826Y-116802631D01*
X116860826Y-117260726D02*
X116860826Y-117542631D01*
X116860826Y-118000726D02*
X116860826Y-118282631D01*
X116860826Y-118740726D02*
X116860826Y-119022631D01*
X116860826Y-127140826D02*
X116860826Y-127422731D01*
X116860826Y-127880826D02*
X116860826Y-128162731D01*
X116860826Y-128620826D02*
X116860826Y-128902731D01*
X116860826Y-129360826D02*
X116860826Y-129642731D01*
X116860826Y-130100826D02*
X116860826Y-130382731D01*
X116860826Y-130840826D02*
X116860826Y-131122731D01*
X116860826Y-131580826D02*
X116860826Y-131862731D01*
X116860826Y-132320826D02*
X116860826Y-132602731D01*
X116860826Y-133060826D02*
X116860826Y-133342731D01*
X116860826Y-133800826D02*
X116860826Y-134082731D01*
X116860826Y-134540826D02*
X116860826Y-134822731D01*
X116860826Y-135280826D02*
X116860826Y-135562731D01*
X116860826Y-136020826D02*
X116860826Y-136302731D01*
X116860826Y-136760826D02*
X116860826Y-137042731D01*
X116860826Y-137500826D02*
X116860826Y-137782731D01*
X116860826Y-138240826D02*
X116860826Y-138522731D01*
X116860826Y-146140826D02*
X116860826Y-146422731D01*
X116860826Y-146880826D02*
X116860826Y-147162731D01*
X116860826Y-147620826D02*
X116860826Y-147902731D01*
X116860826Y-148360826D02*
X116860826Y-148642731D01*
X116860826Y-149100826D02*
X116860826Y-149382731D01*
X116860826Y-149840826D02*
X116860826Y-150122731D01*
X116860826Y-150580826D02*
X116860826Y-150862731D01*
X116860826Y-151320826D02*
X116860826Y-151602731D01*
X116860826Y-152060826D02*
X116860826Y-152342731D01*
X116860826Y-152800826D02*
X116860826Y-153082731D01*
X116860826Y-153540826D02*
X116860826Y-153822731D01*
X116860826Y-154280826D02*
X116860826Y-154562731D01*
X116860826Y-155020826D02*
X116860826Y-155302731D01*
X116860826Y-155760826D02*
X116860826Y-156042731D01*
X116860826Y-156500826D02*
X116860826Y-156782731D01*
X116860826Y-157240826D02*
X116860826Y-157522731D01*
X119360726Y-66640826D02*
X119360726Y-66922731D01*
X119360726Y-67380826D02*
X119360726Y-67662731D01*
X119360726Y-68120826D02*
X119360726Y-68402731D01*
X119360726Y-86140626D02*
X119360726Y-86422531D01*
X119360726Y-86880626D02*
X119360726Y-87162531D01*
X119360726Y-87620626D02*
X119360726Y-87902531D01*
X119360726Y-105140626D02*
X119360726Y-105422531D01*
X119360726Y-105880626D02*
X119360726Y-106162531D01*
X119360726Y-106620626D02*
X119360726Y-106902531D01*
X119360726Y-124640726D02*
X119360726Y-124922631D01*
X119360726Y-125380726D02*
X119360726Y-125662631D01*
X119360726Y-126120726D02*
X119360726Y-126402631D01*
X119360726Y-143640726D02*
X119360726Y-143922631D01*
X119360726Y-144380726D02*
X119360726Y-144662631D01*
X119360726Y-145120726D02*
X119360726Y-145402631D01*
X127860826Y-66640826D02*
X127860826Y-66922731D01*
X127860826Y-67380826D02*
X127860826Y-67662731D01*
X127860826Y-68120826D02*
X127860826Y-68402731D01*
X127860826Y-86140626D02*
X127860826Y-86422531D01*
X127860826Y-86880626D02*
X127860826Y-87162531D01*
X127860826Y-87620626D02*
X127860826Y-87902531D01*
X127860826Y-105140626D02*
X127860826Y-105422531D01*
X127860826Y-105880626D02*
X127860826Y-106162531D01*
X127860826Y-106620626D02*
X127860826Y-106902531D01*
X127860826Y-124640726D02*
X127860826Y-124922631D01*
X127860826Y-125380726D02*
X127860826Y-125662631D01*
X127860826Y-126120726D02*
X127860826Y-126402631D01*
X127860826Y-143640726D02*
X127860826Y-143922631D01*
X127860826Y-144380726D02*
X127860826Y-144662631D01*
X127860826Y-145120726D02*
X127860826Y-145402631D01*
X170860726Y-66640826D02*
X170860726Y-66922731D01*
X170860726Y-67380826D02*
X170860726Y-67662731D01*
X170860726Y-68120826D02*
X170860726Y-68402731D01*
X170860726Y-86140626D02*
X170860726Y-86422531D01*
X170860726Y-86880626D02*
X170860726Y-87162531D01*
X170860726Y-87620626D02*
X170860726Y-87902531D01*
X170860726Y-105140626D02*
X170860726Y-105422531D01*
X170860726Y-105880626D02*
X170860726Y-106162531D01*
X170860726Y-106620626D02*
X170860726Y-106902531D01*
X170860726Y-124640726D02*
X170860726Y-124922631D01*
X170860726Y-125380726D02*
X170860726Y-125662631D01*
X170860726Y-126120726D02*
X170860726Y-126402631D01*
X170860726Y-143640726D02*
X170860726Y-143922631D01*
X170860726Y-144380726D02*
X170860726Y-144662631D01*
X170860726Y-145120726D02*
X170860726Y-145402631D01*
X179360826Y-66640826D02*
X179360826Y-66922731D01*
X179360826Y-67380826D02*
X179360826Y-67662731D01*
X179360826Y-68120826D02*
X179360826Y-68402731D01*
X179360826Y-86140626D02*
X179360826Y-86422531D01*
X179360826Y-86880626D02*
X179360826Y-87162531D01*
X179360826Y-87620626D02*
X179360826Y-87902531D01*
X179360826Y-105140626D02*
X179360826Y-105422531D01*
X179360826Y-105880626D02*
X179360826Y-106162531D01*
X179360826Y-106620626D02*
X179360826Y-106902531D01*
X179360826Y-124640726D02*
X179360826Y-124922631D01*
X179360826Y-125380726D02*
X179360826Y-125662631D01*
X179360826Y-126120726D02*
X179360826Y-126402631D01*
X179360826Y-143640726D02*
X179360826Y-143922631D01*
X179360826Y-144380726D02*
X179360826Y-144662631D01*
X179360826Y-145120726D02*
X179360826Y-145402631D01*
X183110926Y-68890726D02*
X183110926Y-69172631D01*
X183110926Y-69630726D02*
X183110926Y-69912631D01*
X183110926Y-70370726D02*
X183110926Y-70652631D01*
X183110926Y-71110726D02*
X183110926Y-71392631D01*
X183110926Y-71850726D02*
X183110926Y-72132631D01*
X183110926Y-72590726D02*
X183110926Y-72872631D01*
X183110926Y-73330726D02*
X183110926Y-73612631D01*
X183110926Y-74070726D02*
X183110926Y-74352631D01*
X183110926Y-74810726D02*
X183110926Y-75092631D01*
X183110926Y-75550726D02*
X183110926Y-75832631D01*
X183110926Y-76290726D02*
X183110926Y-76572631D01*
X183110926Y-77030726D02*
X183110926Y-77312631D01*
X183110926Y-77770726D02*
X183110926Y-78052631D01*
X183110926Y-78510726D02*
X183110926Y-78792631D01*
X183110926Y-79250726D02*
X183110926Y-79532631D01*
X183110926Y-79990726D02*
X183110926Y-80272631D01*
X183110926Y-88390826D02*
X183110926Y-88672731D01*
X183110926Y-89130826D02*
X183110926Y-89412731D01*
X183110926Y-89870826D02*
X183110926Y-90152731D01*
X183110926Y-90610826D02*
X183110926Y-90892731D01*
X183110926Y-91350826D02*
X183110926Y-91632731D01*
X183110926Y-92090826D02*
X183110926Y-92372731D01*
X183110926Y-92830826D02*
X183110926Y-93112731D01*
X183110926Y-93570826D02*
X183110926Y-93852731D01*
X183110926Y-94310826D02*
X183110926Y-94592731D01*
X183110926Y-95050826D02*
X183110926Y-95332731D01*
X183110926Y-95790826D02*
X183110926Y-96072731D01*
X183110926Y-96530826D02*
X183110926Y-96812731D01*
X183110926Y-97270826D02*
X183110926Y-97552731D01*
X183110926Y-98010826D02*
X183110926Y-98292731D01*
X183110926Y-98750826D02*
X183110926Y-99032731D01*
X183110926Y-99490826D02*
X183110926Y-99772731D01*
X183110926Y-107640726D02*
X183110926Y-107922631D01*
X183110926Y-108380726D02*
X183110926Y-108662631D01*
X183110926Y-109120726D02*
X183110926Y-109402631D01*
X183110926Y-109860726D02*
X183110926Y-110142631D01*
X183110926Y-110600726D02*
X183110926Y-110882631D01*
X183110926Y-111340726D02*
X183110926Y-111622631D01*
X183110926Y-112080726D02*
X183110926Y-112362631D01*
X183110926Y-112820726D02*
X183110926Y-113102631D01*
X183110926Y-113560726D02*
X183110926Y-113842631D01*
X183110926Y-114300726D02*
X183110926Y-114582631D01*
X183110926Y-115040726D02*
X183110926Y-115322631D01*
X183110926Y-115780726D02*
X183110926Y-116062631D01*
X183110926Y-116520726D02*
X183110926Y-116802631D01*
X183110926Y-117260726D02*
X183110926Y-117542631D01*
X183110926Y-118000726D02*
X183110926Y-118282631D01*
X183110926Y-118740726D02*
X183110926Y-119022631D01*
X183110926Y-127140826D02*
X183110926Y-127422731D01*
X183110926Y-127880826D02*
X183110926Y-128162731D01*
X183110926Y-128620826D02*
X183110926Y-128902731D01*
X183110926Y-129360826D02*
X183110926Y-129642731D01*
X183110926Y-130100826D02*
X183110926Y-130382731D01*
X183110926Y-130840826D02*
X183110926Y-131122731D01*
X183110926Y-131580826D02*
X183110926Y-131862731D01*
X183110926Y-132320826D02*
X183110926Y-132602731D01*
X183110926Y-133060826D02*
X183110926Y-133342731D01*
X183110926Y-133800826D02*
X183110926Y-134082731D01*
X183110926Y-134540826D02*
X183110926Y-134822731D01*
X183110926Y-135280826D02*
X183110926Y-135562731D01*
X183110926Y-136020826D02*
X183110926Y-136302731D01*
X183110926Y-136760826D02*
X183110926Y-137042731D01*
X183110926Y-137500826D02*
X183110926Y-137782731D01*
X183110926Y-138240826D02*
X183110926Y-138522731D01*
X183110926Y-146140826D02*
X183110926Y-146422731D01*
X183110926Y-146880826D02*
X183110926Y-147162731D01*
X183110926Y-147620826D02*
X183110926Y-147902731D01*
X183110926Y-148360826D02*
X183110926Y-148642731D01*
X183110926Y-149100826D02*
X183110926Y-149382731D01*
X183110926Y-149840826D02*
X183110926Y-150122731D01*
X183110926Y-150580826D02*
X183110926Y-150862731D01*
X183110926Y-151320826D02*
X183110926Y-151602731D01*
X183110926Y-152060826D02*
X183110926Y-152342731D01*
X183110926Y-152800826D02*
X183110926Y-153082731D01*
X183110926Y-153540826D02*
X183110926Y-153822731D01*
X183110926Y-154280826D02*
X183110926Y-154562731D01*
X183110926Y-155020826D02*
X183110926Y-155302731D01*
X183110926Y-155760826D02*
X183110926Y-156042731D01*
X183110926Y-156500826D02*
X183110926Y-156782731D01*
X183110926Y-157240826D02*
X183110926Y-157522731D01*
X186360826Y-68890726D02*
X186360826Y-69172631D01*
X186360826Y-69630726D02*
X186360826Y-69912631D01*
X186360826Y-70370726D02*
X186360826Y-70652631D01*
X186360826Y-71110726D02*
X186360826Y-71392631D01*
X186360826Y-71850726D02*
X186360826Y-72132631D01*
X186360826Y-72590726D02*
X186360826Y-72872631D01*
X186360826Y-73330726D02*
X186360826Y-73612631D01*
X186360826Y-74070726D02*
X186360826Y-74352631D01*
X186360826Y-74810726D02*
X186360826Y-75092631D01*
X186360826Y-75550726D02*
X186360826Y-75832631D01*
X186360826Y-76290726D02*
X186360826Y-76572631D01*
X186360826Y-77030726D02*
X186360826Y-77312631D01*
X186360826Y-77770726D02*
X186360826Y-78052631D01*
X186360826Y-78510726D02*
X186360826Y-78792631D01*
X186360826Y-79250726D02*
X186360826Y-79532631D01*
X186360826Y-79990726D02*
X186360826Y-80272631D01*
X186360826Y-88390826D02*
X186360826Y-88672731D01*
X186360826Y-89130826D02*
X186360826Y-89412731D01*
X186360826Y-89870826D02*
X186360826Y-90152731D01*
X186360826Y-90610826D02*
X186360826Y-90892731D01*
X186360826Y-91350826D02*
X186360826Y-91632731D01*
X186360826Y-92090826D02*
X186360826Y-92372731D01*
X186360826Y-92830826D02*
X186360826Y-93112731D01*
X186360826Y-93570826D02*
X186360826Y-93852731D01*
X186360826Y-94310826D02*
X186360826Y-94592731D01*
X186360826Y-95050826D02*
X186360826Y-95332731D01*
X186360826Y-95790826D02*
X186360826Y-96072731D01*
X186360826Y-96530826D02*
X186360826Y-96812731D01*
X186360826Y-97270826D02*
X186360826Y-97552731D01*
X186360826Y-98010826D02*
X186360826Y-98292731D01*
X186360826Y-98750826D02*
X186360826Y-99032731D01*
X186360826Y-99490826D02*
X186360826Y-99772731D01*
X186360826Y-107640726D02*
X186360826Y-107922631D01*
X186360826Y-108380726D02*
X186360826Y-108662631D01*
X186360826Y-109120726D02*
X186360826Y-109402631D01*
X186360826Y-109860726D02*
X186360826Y-110142631D01*
X186360826Y-110600726D02*
X186360826Y-110882631D01*
X186360826Y-111340726D02*
X186360826Y-111622631D01*
X186360826Y-112080726D02*
X186360826Y-112362631D01*
X186360826Y-112820726D02*
X186360826Y-113102631D01*
X186360826Y-113560726D02*
X186360826Y-113842631D01*
X186360826Y-114300726D02*
X186360826Y-114582631D01*
X186360826Y-115040726D02*
X186360826Y-115322631D01*
X186360826Y-115780726D02*
X186360826Y-116062631D01*
X186360826Y-116520726D02*
X186360826Y-116802631D01*
X186360826Y-117260726D02*
X186360826Y-117542631D01*
X186360826Y-118000726D02*
X186360826Y-118282631D01*
X186360826Y-118740726D02*
X186360826Y-119022631D01*
X186360826Y-127140826D02*
X186360826Y-127422731D01*
X186360826Y-127880826D02*
X186360826Y-128162731D01*
X186360826Y-128620826D02*
X186360826Y-128902731D01*
X186360826Y-129360826D02*
X186360826Y-129642731D01*
X186360826Y-130100826D02*
X186360826Y-130382731D01*
X186360826Y-130840826D02*
X186360826Y-131122731D01*
X186360826Y-131580826D02*
X186360826Y-131862731D01*
X186360826Y-132320826D02*
X186360826Y-132602731D01*
X186360826Y-133060826D02*
X186360826Y-133342731D01*
X186360826Y-133800826D02*
X186360826Y-134082731D01*
X186360826Y-134540826D02*
X186360826Y-134822731D01*
X186360826Y-135280826D02*
X186360826Y-135562731D01*
X186360826Y-136020826D02*
X186360826Y-136302731D01*
X186360826Y-136760826D02*
X186360826Y-137042731D01*
X186360826Y-137500826D02*
X186360826Y-137782731D01*
X186360826Y-138240826D02*
X186360826Y-138522731D01*
X186360826Y-146140826D02*
X186360826Y-146422731D01*
X186360826Y-146880826D02*
X186360826Y-147162731D01*
X186360826Y-147620826D02*
X186360826Y-147902731D01*
X186360826Y-148360826D02*
X186360826Y-148642731D01*
X186360826Y-149100826D02*
X186360826Y-149382731D01*
X186360826Y-149840826D02*
X186360826Y-150122731D01*
X186360826Y-150580826D02*
X186360826Y-150862731D01*
X186360826Y-151320826D02*
X186360826Y-151602731D01*
X186360826Y-152060826D02*
X186360826Y-152342731D01*
X186360826Y-152800826D02*
X186360826Y-153082731D01*
X186360826Y-153540826D02*
X186360826Y-153822731D01*
X186360826Y-154280826D02*
X186360826Y-154562731D01*
X186360826Y-155020826D02*
X186360826Y-155302731D01*
X186360826Y-155760826D02*
X186360826Y-156042731D01*
X186360826Y-156500826D02*
X186360826Y-156782731D01*
X186360826Y-157240826D02*
X186360826Y-157522731D01*
X189110926Y-70640826D02*
X189110926Y-70922731D01*
X189110926Y-71380826D02*
X189110926Y-71662731D01*
X189110926Y-72120826D02*
X189110926Y-72402731D01*
X189110926Y-89640826D02*
X189110926Y-89922731D01*
X189110926Y-90380826D02*
X189110926Y-90662731D01*
X189110926Y-91120826D02*
X189110926Y-91402731D01*
X189110926Y-109140626D02*
X189110926Y-109422531D01*
X189110926Y-109880626D02*
X189110926Y-110162531D01*
X189110926Y-110620626D02*
X189110926Y-110902531D01*
X189110926Y-128140826D02*
X189110926Y-128422731D01*
X189110926Y-128880826D02*
X189110926Y-129162731D01*
X189110926Y-129620826D02*
X189110926Y-129902731D01*
X189110926Y-147140826D02*
X189110926Y-147422731D01*
X189110926Y-147880826D02*
X189110926Y-148162731D01*
X189110926Y-148620826D02*
X189110926Y-148902731D01*
X193860926Y-70640826D02*
X193860926Y-70922731D01*
X193860926Y-71380826D02*
X193860926Y-71662731D01*
X193860926Y-72120826D02*
X193860926Y-72402731D01*
X193860926Y-89640826D02*
X193860926Y-89922731D01*
X193860926Y-90380826D02*
X193860926Y-90662731D01*
X193860926Y-91120826D02*
X193860926Y-91402731D01*
X193860926Y-109140626D02*
X193860926Y-109422531D01*
X193860926Y-109880626D02*
X193860926Y-110162531D01*
X193860926Y-110620626D02*
X193860926Y-110902531D01*
X193860926Y-128140826D02*
X193860926Y-128422731D01*
X193860926Y-128880826D02*
X193860926Y-129162731D01*
X193860926Y-129620826D02*
X193860926Y-129902731D01*
X193860926Y-147140826D02*
X193860926Y-147422731D01*
X193860926Y-147880826D02*
X193860926Y-148162731D01*
X193860926Y-148620826D02*
X193860926Y-148902731D01*
D12*
X106789160Y-69525533D02*
X107398684Y-69525533D01*
X107093922Y-69830295D02*
X107093922Y-69220771D01*
X109608208Y-69525533D02*
X110217732Y-69525533D01*
X106789160Y-88525533D02*
X107398684Y-88525533D01*
X107093922Y-88830295D02*
X107093922Y-88220771D01*
X109608208Y-88525533D02*
X110217732Y-88525533D01*
X106789160Y-108025533D02*
X107398684Y-108025533D01*
X107093922Y-108330295D02*
X107093922Y-107720771D01*
X109608208Y-108025533D02*
X110217732Y-108025533D01*
X106789160Y-127525533D02*
X107398684Y-127525533D01*
X107093922Y-127830295D02*
X107093922Y-127220771D01*
X109608208Y-127525533D02*
X110217732Y-127525533D01*
X106789160Y-146525533D02*
X107398684Y-146525533D01*
X107093922Y-146830295D02*
X107093922Y-146220771D01*
X109608208Y-146525533D02*
X110217732Y-146525533D01*
X122500964Y-142801823D02*
X122881917Y-142801823D01*
X122424774Y-143030395D02*
X122691441Y-142230395D01*
X122691441Y-142230395D02*
X122958107Y-143030395D01*
X123643821Y-142268490D02*
X123567631Y-142230395D01*
X123567631Y-142230395D02*
X123453345Y-142230395D01*
X123453345Y-142230395D02*
X123339059Y-142268490D01*
X123339059Y-142268490D02*
X123262869Y-142344680D01*
X123262869Y-142344680D02*
X123224774Y-142420871D01*
X123224774Y-142420871D02*
X123186678Y-142573252D01*
X123186678Y-142573252D02*
X123186678Y-142687538D01*
X123186678Y-142687538D02*
X123224774Y-142839919D01*
X123224774Y-142839919D02*
X123262869Y-142916109D01*
X123262869Y-142916109D02*
X123339059Y-142992300D01*
X123339059Y-142992300D02*
X123453345Y-143030395D01*
X123453345Y-143030395D02*
X123529536Y-143030395D01*
X123529536Y-143030395D02*
X123643821Y-142992300D01*
X123643821Y-142992300D02*
X123681917Y-142954204D01*
X123681917Y-142954204D02*
X123681917Y-142687538D01*
X123681917Y-142687538D02*
X123529536Y-142687538D01*
X124443821Y-143030395D02*
X123986678Y-143030395D01*
X124215250Y-143030395D02*
X124215250Y-142230395D01*
X124215250Y-142230395D02*
X124139059Y-142344680D01*
X124139059Y-142344680D02*
X124062869Y-142420871D01*
X124062869Y-142420871D02*
X123986678Y-142458966D01*
X124939060Y-142230395D02*
X125015250Y-142230395D01*
X125015250Y-142230395D02*
X125091441Y-142268490D01*
X125091441Y-142268490D02*
X125129536Y-142306585D01*
X125129536Y-142306585D02*
X125167631Y-142382776D01*
X125167631Y-142382776D02*
X125205726Y-142535157D01*
X125205726Y-142535157D02*
X125205726Y-142725633D01*
X125205726Y-142725633D02*
X125167631Y-142878014D01*
X125167631Y-142878014D02*
X125129536Y-142954204D01*
X125129536Y-142954204D02*
X125091441Y-142992300D01*
X125091441Y-142992300D02*
X125015250Y-143030395D01*
X125015250Y-143030395D02*
X124939060Y-143030395D01*
X124939060Y-143030395D02*
X124862869Y-142992300D01*
X124862869Y-142992300D02*
X124824774Y-142954204D01*
X124824774Y-142954204D02*
X124786679Y-142878014D01*
X124786679Y-142878014D02*
X124748583Y-142725633D01*
X124748583Y-142725633D02*
X124748583Y-142535157D01*
X124748583Y-142535157D02*
X124786679Y-142382776D01*
X124786679Y-142382776D02*
X124824774Y-142306585D01*
X124824774Y-142306585D02*
X124862869Y-142268490D01*
X124862869Y-142268490D02*
X124939060Y-142230395D01*
X122751164Y-65801723D02*
X123132117Y-65801723D01*
X122674974Y-66030295D02*
X122941641Y-65230295D01*
X122941641Y-65230295D02*
X123208307Y-66030295D01*
X123894021Y-65268390D02*
X123817831Y-65230295D01*
X123817831Y-65230295D02*
X123703545Y-65230295D01*
X123703545Y-65230295D02*
X123589259Y-65268390D01*
X123589259Y-65268390D02*
X123513069Y-65344580D01*
X123513069Y-65344580D02*
X123474974Y-65420771D01*
X123474974Y-65420771D02*
X123436878Y-65573152D01*
X123436878Y-65573152D02*
X123436878Y-65687438D01*
X123436878Y-65687438D02*
X123474974Y-65839819D01*
X123474974Y-65839819D02*
X123513069Y-65916009D01*
X123513069Y-65916009D02*
X123589259Y-65992200D01*
X123589259Y-65992200D02*
X123703545Y-66030295D01*
X123703545Y-66030295D02*
X123779736Y-66030295D01*
X123779736Y-66030295D02*
X123894021Y-65992200D01*
X123894021Y-65992200D02*
X123932117Y-65954104D01*
X123932117Y-65954104D02*
X123932117Y-65687438D01*
X123932117Y-65687438D02*
X123779736Y-65687438D01*
X124617831Y-65230295D02*
X124465450Y-65230295D01*
X124465450Y-65230295D02*
X124389259Y-65268390D01*
X124389259Y-65268390D02*
X124351164Y-65306485D01*
X124351164Y-65306485D02*
X124274974Y-65420771D01*
X124274974Y-65420771D02*
X124236878Y-65573152D01*
X124236878Y-65573152D02*
X124236878Y-65877914D01*
X124236878Y-65877914D02*
X124274974Y-65954104D01*
X124274974Y-65954104D02*
X124313069Y-65992200D01*
X124313069Y-65992200D02*
X124389259Y-66030295D01*
X124389259Y-66030295D02*
X124541640Y-66030295D01*
X124541640Y-66030295D02*
X124617831Y-65992200D01*
X124617831Y-65992200D02*
X124655926Y-65954104D01*
X124655926Y-65954104D02*
X124694021Y-65877914D01*
X124694021Y-65877914D02*
X124694021Y-65687438D01*
X124694021Y-65687438D02*
X124655926Y-65611247D01*
X124655926Y-65611247D02*
X124617831Y-65573152D01*
X124617831Y-65573152D02*
X124541640Y-65535057D01*
X124541640Y-65535057D02*
X124389259Y-65535057D01*
X124389259Y-65535057D02*
X124313069Y-65573152D01*
X124313069Y-65573152D02*
X124274974Y-65611247D01*
X124274974Y-65611247D02*
X124236878Y-65687438D01*
X122751164Y-85301823D02*
X123132117Y-85301823D01*
X122674974Y-85530395D02*
X122941641Y-84730395D01*
X122941641Y-84730395D02*
X123208307Y-85530395D01*
X123894021Y-84768490D02*
X123817831Y-84730395D01*
X123817831Y-84730395D02*
X123703545Y-84730395D01*
X123703545Y-84730395D02*
X123589259Y-84768490D01*
X123589259Y-84768490D02*
X123513069Y-84844680D01*
X123513069Y-84844680D02*
X123474974Y-84920871D01*
X123474974Y-84920871D02*
X123436878Y-85073252D01*
X123436878Y-85073252D02*
X123436878Y-85187538D01*
X123436878Y-85187538D02*
X123474974Y-85339919D01*
X123474974Y-85339919D02*
X123513069Y-85416109D01*
X123513069Y-85416109D02*
X123589259Y-85492300D01*
X123589259Y-85492300D02*
X123703545Y-85530395D01*
X123703545Y-85530395D02*
X123779736Y-85530395D01*
X123779736Y-85530395D02*
X123894021Y-85492300D01*
X123894021Y-85492300D02*
X123932117Y-85454204D01*
X123932117Y-85454204D02*
X123932117Y-85187538D01*
X123932117Y-85187538D02*
X123779736Y-85187538D01*
X124198783Y-84730395D02*
X124732117Y-84730395D01*
X124732117Y-84730395D02*
X124389259Y-85530395D01*
X122751164Y-104301723D02*
X123132117Y-104301723D01*
X122674974Y-104530295D02*
X122941641Y-103730295D01*
X122941641Y-103730295D02*
X123208307Y-104530295D01*
X123894021Y-103768390D02*
X123817831Y-103730295D01*
X123817831Y-103730295D02*
X123703545Y-103730295D01*
X123703545Y-103730295D02*
X123589259Y-103768390D01*
X123589259Y-103768390D02*
X123513069Y-103844580D01*
X123513069Y-103844580D02*
X123474974Y-103920771D01*
X123474974Y-103920771D02*
X123436878Y-104073152D01*
X123436878Y-104073152D02*
X123436878Y-104187438D01*
X123436878Y-104187438D02*
X123474974Y-104339819D01*
X123474974Y-104339819D02*
X123513069Y-104416009D01*
X123513069Y-104416009D02*
X123589259Y-104492200D01*
X123589259Y-104492200D02*
X123703545Y-104530295D01*
X123703545Y-104530295D02*
X123779736Y-104530295D01*
X123779736Y-104530295D02*
X123894021Y-104492200D01*
X123894021Y-104492200D02*
X123932117Y-104454104D01*
X123932117Y-104454104D02*
X123932117Y-104187438D01*
X123932117Y-104187438D02*
X123779736Y-104187438D01*
X124389259Y-104073152D02*
X124313069Y-104035057D01*
X124313069Y-104035057D02*
X124274974Y-103996961D01*
X124274974Y-103996961D02*
X124236878Y-103920771D01*
X124236878Y-103920771D02*
X124236878Y-103882676D01*
X124236878Y-103882676D02*
X124274974Y-103806485D01*
X124274974Y-103806485D02*
X124313069Y-103768390D01*
X124313069Y-103768390D02*
X124389259Y-103730295D01*
X124389259Y-103730295D02*
X124541640Y-103730295D01*
X124541640Y-103730295D02*
X124617831Y-103768390D01*
X124617831Y-103768390D02*
X124655926Y-103806485D01*
X124655926Y-103806485D02*
X124694021Y-103882676D01*
X124694021Y-103882676D02*
X124694021Y-103920771D01*
X124694021Y-103920771D02*
X124655926Y-103996961D01*
X124655926Y-103996961D02*
X124617831Y-104035057D01*
X124617831Y-104035057D02*
X124541640Y-104073152D01*
X124541640Y-104073152D02*
X124389259Y-104073152D01*
X124389259Y-104073152D02*
X124313069Y-104111247D01*
X124313069Y-104111247D02*
X124274974Y-104149342D01*
X124274974Y-104149342D02*
X124236878Y-104225533D01*
X124236878Y-104225533D02*
X124236878Y-104377914D01*
X124236878Y-104377914D02*
X124274974Y-104454104D01*
X124274974Y-104454104D02*
X124313069Y-104492200D01*
X124313069Y-104492200D02*
X124389259Y-104530295D01*
X124389259Y-104530295D02*
X124541640Y-104530295D01*
X124541640Y-104530295D02*
X124617831Y-104492200D01*
X124617831Y-104492200D02*
X124655926Y-104454104D01*
X124655926Y-104454104D02*
X124694021Y-104377914D01*
X124694021Y-104377914D02*
X124694021Y-104225533D01*
X124694021Y-104225533D02*
X124655926Y-104149342D01*
X124655926Y-104149342D02*
X124617831Y-104111247D01*
X124617831Y-104111247D02*
X124541640Y-104073152D01*
X122751164Y-123801823D02*
X123132117Y-123801823D01*
X122674974Y-124030395D02*
X122941641Y-123230395D01*
X122941641Y-123230395D02*
X123208307Y-124030395D01*
X123894021Y-123268490D02*
X123817831Y-123230395D01*
X123817831Y-123230395D02*
X123703545Y-123230395D01*
X123703545Y-123230395D02*
X123589259Y-123268490D01*
X123589259Y-123268490D02*
X123513069Y-123344680D01*
X123513069Y-123344680D02*
X123474974Y-123420871D01*
X123474974Y-123420871D02*
X123436878Y-123573252D01*
X123436878Y-123573252D02*
X123436878Y-123687538D01*
X123436878Y-123687538D02*
X123474974Y-123839919D01*
X123474974Y-123839919D02*
X123513069Y-123916109D01*
X123513069Y-123916109D02*
X123589259Y-123992300D01*
X123589259Y-123992300D02*
X123703545Y-124030395D01*
X123703545Y-124030395D02*
X123779736Y-124030395D01*
X123779736Y-124030395D02*
X123894021Y-123992300D01*
X123894021Y-123992300D02*
X123932117Y-123954204D01*
X123932117Y-123954204D02*
X123932117Y-123687538D01*
X123932117Y-123687538D02*
X123779736Y-123687538D01*
X124313069Y-124030395D02*
X124465450Y-124030395D01*
X124465450Y-124030395D02*
X124541640Y-123992300D01*
X124541640Y-123992300D02*
X124579736Y-123954204D01*
X124579736Y-123954204D02*
X124655926Y-123839919D01*
X124655926Y-123839919D02*
X124694021Y-123687538D01*
X124694021Y-123687538D02*
X124694021Y-123382776D01*
X124694021Y-123382776D02*
X124655926Y-123306585D01*
X124655926Y-123306585D02*
X124617831Y-123268490D01*
X124617831Y-123268490D02*
X124541640Y-123230395D01*
X124541640Y-123230395D02*
X124389259Y-123230395D01*
X124389259Y-123230395D02*
X124313069Y-123268490D01*
X124313069Y-123268490D02*
X124274974Y-123306585D01*
X124274974Y-123306585D02*
X124236878Y-123382776D01*
X124236878Y-123382776D02*
X124236878Y-123573252D01*
X124236878Y-123573252D02*
X124274974Y-123649442D01*
X124274974Y-123649442D02*
X124313069Y-123687538D01*
X124313069Y-123687538D02*
X124389259Y-123725633D01*
X124389259Y-123725633D02*
X124541640Y-123725633D01*
X124541640Y-123725633D02*
X124617831Y-123687538D01*
X124617831Y-123687538D02*
X124655926Y-123649442D01*
X124655926Y-123649442D02*
X124694021Y-123573252D01*
X139246303Y-118454104D02*
X139208207Y-118492200D01*
X139208207Y-118492200D02*
X139093922Y-118530295D01*
X139093922Y-118530295D02*
X139017731Y-118530295D01*
X139017731Y-118530295D02*
X138903445Y-118492200D01*
X138903445Y-118492200D02*
X138827255Y-118416009D01*
X138827255Y-118416009D02*
X138789160Y-118339819D01*
X138789160Y-118339819D02*
X138751064Y-118187438D01*
X138751064Y-118187438D02*
X138751064Y-118073152D01*
X138751064Y-118073152D02*
X138789160Y-117920771D01*
X138789160Y-117920771D02*
X138827255Y-117844580D01*
X138827255Y-117844580D02*
X138903445Y-117768390D01*
X138903445Y-117768390D02*
X139017731Y-117730295D01*
X139017731Y-117730295D02*
X139093922Y-117730295D01*
X139093922Y-117730295D02*
X139208207Y-117768390D01*
X139208207Y-117768390D02*
X139246303Y-117806485D01*
X139474874Y-117730295D02*
X139932017Y-117730295D01*
X139703445Y-118530295D02*
X139703445Y-117730295D01*
X140655827Y-118530295D02*
X140389160Y-118149342D01*
X140198684Y-118530295D02*
X140198684Y-117730295D01*
X140198684Y-117730295D02*
X140503446Y-117730295D01*
X140503446Y-117730295D02*
X140579636Y-117768390D01*
X140579636Y-117768390D02*
X140617731Y-117806485D01*
X140617731Y-117806485D02*
X140655827Y-117882676D01*
X140655827Y-117882676D02*
X140655827Y-117996961D01*
X140655827Y-117996961D02*
X140617731Y-118073152D01*
X140617731Y-118073152D02*
X140579636Y-118111247D01*
X140579636Y-118111247D02*
X140503446Y-118149342D01*
X140503446Y-118149342D02*
X140198684Y-118149342D01*
X141379636Y-118530295D02*
X140998684Y-118530295D01*
X140998684Y-118530295D02*
X140998684Y-117730295D01*
X142255827Y-117730295D02*
X142255827Y-118377914D01*
X142255827Y-118377914D02*
X142293922Y-118454104D01*
X142293922Y-118454104D02*
X142332017Y-118492200D01*
X142332017Y-118492200D02*
X142408208Y-118530295D01*
X142408208Y-118530295D02*
X142560589Y-118530295D01*
X142560589Y-118530295D02*
X142636779Y-118492200D01*
X142636779Y-118492200D02*
X142674874Y-118454104D01*
X142674874Y-118454104D02*
X142712970Y-118377914D01*
X142712970Y-118377914D02*
X142712970Y-117730295D01*
X143093922Y-118530295D02*
X143093922Y-117730295D01*
X143093922Y-117730295D02*
X143551065Y-118530295D01*
X143551065Y-118530295D02*
X143551065Y-117730295D01*
X143932017Y-118530295D02*
X143932017Y-117730295D01*
X144198683Y-117730295D02*
X144655826Y-117730295D01*
X144427254Y-118530295D02*
X144427254Y-117730295D01*
X154789160Y-118530295D02*
X154789160Y-117730295D01*
X154789160Y-117730295D02*
X154979636Y-117730295D01*
X154979636Y-117730295D02*
X155093922Y-117768390D01*
X155093922Y-117768390D02*
X155170112Y-117844580D01*
X155170112Y-117844580D02*
X155208207Y-117920771D01*
X155208207Y-117920771D02*
X155246303Y-118073152D01*
X155246303Y-118073152D02*
X155246303Y-118187438D01*
X155246303Y-118187438D02*
X155208207Y-118339819D01*
X155208207Y-118339819D02*
X155170112Y-118416009D01*
X155170112Y-118416009D02*
X155093922Y-118492200D01*
X155093922Y-118492200D02*
X154979636Y-118530295D01*
X154979636Y-118530295D02*
X154789160Y-118530295D01*
X155551064Y-118492200D02*
X155665350Y-118530295D01*
X155665350Y-118530295D02*
X155855826Y-118530295D01*
X155855826Y-118530295D02*
X155932017Y-118492200D01*
X155932017Y-118492200D02*
X155970112Y-118454104D01*
X155970112Y-118454104D02*
X156008207Y-118377914D01*
X156008207Y-118377914D02*
X156008207Y-118301723D01*
X156008207Y-118301723D02*
X155970112Y-118225533D01*
X155970112Y-118225533D02*
X155932017Y-118187438D01*
X155932017Y-118187438D02*
X155855826Y-118149342D01*
X155855826Y-118149342D02*
X155703445Y-118111247D01*
X155703445Y-118111247D02*
X155627255Y-118073152D01*
X155627255Y-118073152D02*
X155589160Y-118035057D01*
X155589160Y-118035057D02*
X155551064Y-117958866D01*
X155551064Y-117958866D02*
X155551064Y-117882676D01*
X155551064Y-117882676D02*
X155589160Y-117806485D01*
X155589160Y-117806485D02*
X155627255Y-117768390D01*
X155627255Y-117768390D02*
X155703445Y-117730295D01*
X155703445Y-117730295D02*
X155893922Y-117730295D01*
X155893922Y-117730295D02*
X156008207Y-117768390D01*
X156351065Y-118530295D02*
X156351065Y-117730295D01*
X156351065Y-117730295D02*
X156655827Y-117730295D01*
X156655827Y-117730295D02*
X156732017Y-117768390D01*
X156732017Y-117768390D02*
X156770112Y-117806485D01*
X156770112Y-117806485D02*
X156808208Y-117882676D01*
X156808208Y-117882676D02*
X156808208Y-117996961D01*
X156808208Y-117996961D02*
X156770112Y-118073152D01*
X156770112Y-118073152D02*
X156732017Y-118111247D01*
X156732017Y-118111247D02*
X156655827Y-118149342D01*
X156655827Y-118149342D02*
X156351065Y-118149342D01*
X157532017Y-118530295D02*
X157151065Y-118530295D01*
X157151065Y-118530295D02*
X157151065Y-117730295D01*
X158408208Y-117730295D02*
X158408208Y-118377914D01*
X158408208Y-118377914D02*
X158446303Y-118454104D01*
X158446303Y-118454104D02*
X158484398Y-118492200D01*
X158484398Y-118492200D02*
X158560589Y-118530295D01*
X158560589Y-118530295D02*
X158712970Y-118530295D01*
X158712970Y-118530295D02*
X158789160Y-118492200D01*
X158789160Y-118492200D02*
X158827255Y-118454104D01*
X158827255Y-118454104D02*
X158865351Y-118377914D01*
X158865351Y-118377914D02*
X158865351Y-117730295D01*
X159246303Y-118530295D02*
X159246303Y-117730295D01*
X159246303Y-117730295D02*
X159703446Y-118530295D01*
X159703446Y-118530295D02*
X159703446Y-117730295D01*
X160084398Y-118530295D02*
X160084398Y-117730295D01*
X160351064Y-117730295D02*
X160808207Y-117730295D01*
X160579635Y-118530295D02*
X160579635Y-117730295D01*
X174251164Y-65801723D02*
X174632117Y-65801723D01*
X174174974Y-66030295D02*
X174441641Y-65230295D01*
X174441641Y-65230295D02*
X174708307Y-66030295D01*
X175394021Y-65268390D02*
X175317831Y-65230295D01*
X175317831Y-65230295D02*
X175203545Y-65230295D01*
X175203545Y-65230295D02*
X175089259Y-65268390D01*
X175089259Y-65268390D02*
X175013069Y-65344580D01*
X175013069Y-65344580D02*
X174974974Y-65420771D01*
X174974974Y-65420771D02*
X174936878Y-65573152D01*
X174936878Y-65573152D02*
X174936878Y-65687438D01*
X174936878Y-65687438D02*
X174974974Y-65839819D01*
X174974974Y-65839819D02*
X175013069Y-65916009D01*
X175013069Y-65916009D02*
X175089259Y-65992200D01*
X175089259Y-65992200D02*
X175203545Y-66030295D01*
X175203545Y-66030295D02*
X175279736Y-66030295D01*
X175279736Y-66030295D02*
X175394021Y-65992200D01*
X175394021Y-65992200D02*
X175432117Y-65954104D01*
X175432117Y-65954104D02*
X175432117Y-65687438D01*
X175432117Y-65687438D02*
X175279736Y-65687438D01*
X176194021Y-66030295D02*
X175736878Y-66030295D01*
X175965450Y-66030295D02*
X175965450Y-65230295D01*
X175965450Y-65230295D02*
X175889259Y-65344580D01*
X175889259Y-65344580D02*
X175813069Y-65420771D01*
X175813069Y-65420771D02*
X175736878Y-65458866D01*
X174251164Y-85051823D02*
X174632117Y-85051823D01*
X174174974Y-85280395D02*
X174441641Y-84480395D01*
X174441641Y-84480395D02*
X174708307Y-85280395D01*
X175394021Y-84518490D02*
X175317831Y-84480395D01*
X175317831Y-84480395D02*
X175203545Y-84480395D01*
X175203545Y-84480395D02*
X175089259Y-84518490D01*
X175089259Y-84518490D02*
X175013069Y-84594680D01*
X175013069Y-84594680D02*
X174974974Y-84670871D01*
X174974974Y-84670871D02*
X174936878Y-84823252D01*
X174936878Y-84823252D02*
X174936878Y-84937538D01*
X174936878Y-84937538D02*
X174974974Y-85089919D01*
X174974974Y-85089919D02*
X175013069Y-85166109D01*
X175013069Y-85166109D02*
X175089259Y-85242300D01*
X175089259Y-85242300D02*
X175203545Y-85280395D01*
X175203545Y-85280395D02*
X175279736Y-85280395D01*
X175279736Y-85280395D02*
X175394021Y-85242300D01*
X175394021Y-85242300D02*
X175432117Y-85204204D01*
X175432117Y-85204204D02*
X175432117Y-84937538D01*
X175432117Y-84937538D02*
X175279736Y-84937538D01*
X175736878Y-84556585D02*
X175774974Y-84518490D01*
X175774974Y-84518490D02*
X175851164Y-84480395D01*
X175851164Y-84480395D02*
X176041640Y-84480395D01*
X176041640Y-84480395D02*
X176117831Y-84518490D01*
X176117831Y-84518490D02*
X176155926Y-84556585D01*
X176155926Y-84556585D02*
X176194021Y-84632776D01*
X176194021Y-84632776D02*
X176194021Y-84708966D01*
X176194021Y-84708966D02*
X176155926Y-84823252D01*
X176155926Y-84823252D02*
X175698783Y-85280395D01*
X175698783Y-85280395D02*
X176194021Y-85280395D01*
X174251164Y-104301723D02*
X174632117Y-104301723D01*
X174174974Y-104530295D02*
X174441641Y-103730295D01*
X174441641Y-103730295D02*
X174708307Y-104530295D01*
X175394021Y-103768390D02*
X175317831Y-103730295D01*
X175317831Y-103730295D02*
X175203545Y-103730295D01*
X175203545Y-103730295D02*
X175089259Y-103768390D01*
X175089259Y-103768390D02*
X175013069Y-103844580D01*
X175013069Y-103844580D02*
X174974974Y-103920771D01*
X174974974Y-103920771D02*
X174936878Y-104073152D01*
X174936878Y-104073152D02*
X174936878Y-104187438D01*
X174936878Y-104187438D02*
X174974974Y-104339819D01*
X174974974Y-104339819D02*
X175013069Y-104416009D01*
X175013069Y-104416009D02*
X175089259Y-104492200D01*
X175089259Y-104492200D02*
X175203545Y-104530295D01*
X175203545Y-104530295D02*
X175279736Y-104530295D01*
X175279736Y-104530295D02*
X175394021Y-104492200D01*
X175394021Y-104492200D02*
X175432117Y-104454104D01*
X175432117Y-104454104D02*
X175432117Y-104187438D01*
X175432117Y-104187438D02*
X175279736Y-104187438D01*
X175698783Y-103730295D02*
X176194021Y-103730295D01*
X176194021Y-103730295D02*
X175927355Y-104035057D01*
X175927355Y-104035057D02*
X176041640Y-104035057D01*
X176041640Y-104035057D02*
X176117831Y-104073152D01*
X176117831Y-104073152D02*
X176155926Y-104111247D01*
X176155926Y-104111247D02*
X176194021Y-104187438D01*
X176194021Y-104187438D02*
X176194021Y-104377914D01*
X176194021Y-104377914D02*
X176155926Y-104454104D01*
X176155926Y-104454104D02*
X176117831Y-104492200D01*
X176117831Y-104492200D02*
X176041640Y-104530295D01*
X176041640Y-104530295D02*
X175813069Y-104530295D01*
X175813069Y-104530295D02*
X175736878Y-104492200D01*
X175736878Y-104492200D02*
X175698783Y-104454104D01*
X174251164Y-123801823D02*
X174632117Y-123801823D01*
X174174974Y-124030395D02*
X174441641Y-123230395D01*
X174441641Y-123230395D02*
X174708307Y-124030395D01*
X175394021Y-123268490D02*
X175317831Y-123230395D01*
X175317831Y-123230395D02*
X175203545Y-123230395D01*
X175203545Y-123230395D02*
X175089259Y-123268490D01*
X175089259Y-123268490D02*
X175013069Y-123344680D01*
X175013069Y-123344680D02*
X174974974Y-123420871D01*
X174974974Y-123420871D02*
X174936878Y-123573252D01*
X174936878Y-123573252D02*
X174936878Y-123687538D01*
X174936878Y-123687538D02*
X174974974Y-123839919D01*
X174974974Y-123839919D02*
X175013069Y-123916109D01*
X175013069Y-123916109D02*
X175089259Y-123992300D01*
X175089259Y-123992300D02*
X175203545Y-124030395D01*
X175203545Y-124030395D02*
X175279736Y-124030395D01*
X175279736Y-124030395D02*
X175394021Y-123992300D01*
X175394021Y-123992300D02*
X175432117Y-123954204D01*
X175432117Y-123954204D02*
X175432117Y-123687538D01*
X175432117Y-123687538D02*
X175279736Y-123687538D01*
X176117831Y-123497061D02*
X176117831Y-124030395D01*
X175927355Y-123192300D02*
X175736878Y-123763728D01*
X175736878Y-123763728D02*
X176232117Y-123763728D01*
X174251164Y-142801823D02*
X174632117Y-142801823D01*
X174174974Y-143030395D02*
X174441641Y-142230395D01*
X174441641Y-142230395D02*
X174708307Y-143030395D01*
X175394021Y-142268490D02*
X175317831Y-142230395D01*
X175317831Y-142230395D02*
X175203545Y-142230395D01*
X175203545Y-142230395D02*
X175089259Y-142268490D01*
X175089259Y-142268490D02*
X175013069Y-142344680D01*
X175013069Y-142344680D02*
X174974974Y-142420871D01*
X174974974Y-142420871D02*
X174936878Y-142573252D01*
X174936878Y-142573252D02*
X174936878Y-142687538D01*
X174936878Y-142687538D02*
X174974974Y-142839919D01*
X174974974Y-142839919D02*
X175013069Y-142916109D01*
X175013069Y-142916109D02*
X175089259Y-142992300D01*
X175089259Y-142992300D02*
X175203545Y-143030395D01*
X175203545Y-143030395D02*
X175279736Y-143030395D01*
X175279736Y-143030395D02*
X175394021Y-142992300D01*
X175394021Y-142992300D02*
X175432117Y-142954204D01*
X175432117Y-142954204D02*
X175432117Y-142687538D01*
X175432117Y-142687538D02*
X175279736Y-142687538D01*
X176155926Y-142230395D02*
X175774974Y-142230395D01*
X175774974Y-142230395D02*
X175736878Y-142611347D01*
X175736878Y-142611347D02*
X175774974Y-142573252D01*
X175774974Y-142573252D02*
X175851164Y-142535157D01*
X175851164Y-142535157D02*
X176041640Y-142535157D01*
X176041640Y-142535157D02*
X176117831Y-142573252D01*
X176117831Y-142573252D02*
X176155926Y-142611347D01*
X176155926Y-142611347D02*
X176194021Y-142687538D01*
X176194021Y-142687538D02*
X176194021Y-142878014D01*
X176194021Y-142878014D02*
X176155926Y-142954204D01*
X176155926Y-142954204D02*
X176117831Y-142992300D01*
X176117831Y-142992300D02*
X176041640Y-143030395D01*
X176041640Y-143030395D02*
X175851164Y-143030395D01*
X175851164Y-143030395D02*
X175774974Y-142992300D01*
X175774974Y-142992300D02*
X175736878Y-142954204D01*
X192710839Y-69474466D02*
X192101316Y-69474466D01*
X192406077Y-69169704D02*
X192406077Y-69779228D01*
X190501315Y-69474466D02*
X189891792Y-69474466D01*
X192710839Y-88474466D02*
X192101316Y-88474466D01*
X192406077Y-88169704D02*
X192406077Y-88779228D01*
X190501315Y-88474466D02*
X189891792Y-88474466D01*
X192710839Y-107974466D02*
X192101316Y-107974466D01*
X192406077Y-107669704D02*
X192406077Y-108279228D01*
X190501315Y-107974466D02*
X189891792Y-107974466D01*
X192710839Y-126974466D02*
X192101316Y-126974466D01*
X192406077Y-126669704D02*
X192406077Y-127279228D01*
X190501315Y-126974466D02*
X189891792Y-126974466D01*
X192710839Y-145974466D02*
X192101316Y-145974466D01*
X192406077Y-145669704D02*
X192406077Y-146279228D01*
X190501315Y-145974466D02*
X189891792Y-145974466D01*
X141064466Y-120772017D02*
X141064466Y-121205350D01*
X140804466Y-120685350D02*
X141714466Y-120988684D01*
X141714466Y-120988684D02*
X140804466Y-121292017D01*
X141714466Y-121465350D02*
X141714466Y-121985350D01*
X140804466Y-121725350D02*
X141714466Y-121725350D01*
X141714466Y-122158683D02*
X141714466Y-122678683D01*
X140804466Y-122418683D02*
X141714466Y-122418683D01*
X140804466Y-122982016D02*
X141714466Y-122982016D01*
X140804466Y-123415349D02*
X141714466Y-123415349D01*
X141714466Y-123415349D02*
X140804466Y-123935349D01*
X140804466Y-123935349D02*
X141714466Y-123935349D01*
X141237800Y-124542016D02*
X140804466Y-124542016D01*
X141714466Y-124238682D02*
X141237800Y-124542016D01*
X141237800Y-124542016D02*
X141714466Y-124845349D01*
X141411133Y-125538682D02*
X140804466Y-125538682D01*
X141757800Y-125322016D02*
X141107800Y-125105349D01*
X141107800Y-125105349D02*
X141107800Y-125668682D01*
X141714466Y-126448683D02*
X141714466Y-126015349D01*
X141714466Y-126015349D02*
X141281133Y-125972016D01*
X141281133Y-125972016D02*
X141324466Y-126015349D01*
X141324466Y-126015349D02*
X141367800Y-126102016D01*
X141367800Y-126102016D02*
X141367800Y-126318683D01*
X141367800Y-126318683D02*
X141324466Y-126405349D01*
X141324466Y-126405349D02*
X141281133Y-126448683D01*
X141281133Y-126448683D02*
X141194466Y-126492016D01*
X141194466Y-126492016D02*
X140977800Y-126492016D01*
X140977800Y-126492016D02*
X140891133Y-126448683D01*
X140891133Y-126448683D02*
X140847800Y-126405349D01*
X140847800Y-126405349D02*
X140804466Y-126318683D01*
X140804466Y-126318683D02*
X140804466Y-126102016D01*
X140804466Y-126102016D02*
X140847800Y-126015349D01*
X140847800Y-126015349D02*
X140891133Y-125972016D01*
X141878766Y-101478684D02*
X141878766Y-102085350D01*
X141878766Y-102085350D02*
X140968766Y-101695350D01*
X141575433Y-102822017D02*
X140968766Y-102822017D01*
X141922100Y-102605351D02*
X141272100Y-102388684D01*
X141272100Y-102388684D02*
X141272100Y-102952017D01*
X140968766Y-103298684D02*
X141878766Y-103298684D01*
X141445433Y-103298684D02*
X141445433Y-103818684D01*
X140968766Y-103818684D02*
X141878766Y-103818684D01*
X141055433Y-104772017D02*
X141012100Y-104728684D01*
X141012100Y-104728684D02*
X140968766Y-104598684D01*
X140968766Y-104598684D02*
X140968766Y-104512017D01*
X140968766Y-104512017D02*
X141012100Y-104382017D01*
X141012100Y-104382017D02*
X141098766Y-104295351D01*
X141098766Y-104295351D02*
X141185433Y-104252017D01*
X141185433Y-104252017D02*
X141358766Y-104208684D01*
X141358766Y-104208684D02*
X141488766Y-104208684D01*
X141488766Y-104208684D02*
X141662100Y-104252017D01*
X141662100Y-104252017D02*
X141748766Y-104295351D01*
X141748766Y-104295351D02*
X141835433Y-104382017D01*
X141835433Y-104382017D02*
X141878766Y-104512017D01*
X141878766Y-104512017D02*
X141878766Y-104598684D01*
X141878766Y-104598684D02*
X141835433Y-104728684D01*
X141835433Y-104728684D02*
X141792100Y-104772017D01*
X140968766Y-105638684D02*
X140968766Y-105118684D01*
X140968766Y-105378684D02*
X141878766Y-105378684D01*
X141878766Y-105378684D02*
X141748766Y-105292017D01*
X141748766Y-105292017D02*
X141662100Y-105205351D01*
X141662100Y-105205351D02*
X141618766Y-105118684D01*
X141878766Y-106418684D02*
X141878766Y-106245351D01*
X141878766Y-106245351D02*
X141835433Y-106158684D01*
X141835433Y-106158684D02*
X141792100Y-106115351D01*
X141792100Y-106115351D02*
X141662100Y-106028684D01*
X141662100Y-106028684D02*
X141488766Y-105985351D01*
X141488766Y-105985351D02*
X141142100Y-105985351D01*
X141142100Y-105985351D02*
X141055433Y-106028684D01*
X141055433Y-106028684D02*
X141012100Y-106072018D01*
X141012100Y-106072018D02*
X140968766Y-106158684D01*
X140968766Y-106158684D02*
X140968766Y-106332018D01*
X140968766Y-106332018D02*
X141012100Y-106418684D01*
X141012100Y-106418684D02*
X141055433Y-106462018D01*
X141055433Y-106462018D02*
X141142100Y-106505351D01*
X141142100Y-106505351D02*
X141358766Y-106505351D01*
X141358766Y-106505351D02*
X141445433Y-106462018D01*
X141445433Y-106462018D02*
X141488766Y-106418684D01*
X141488766Y-106418684D02*
X141532100Y-106332018D01*
X141532100Y-106332018D02*
X141532100Y-106158684D01*
X141532100Y-106158684D02*
X141488766Y-106072018D01*
X141488766Y-106072018D02*
X141445433Y-106028684D01*
X141445433Y-106028684D02*
X141358766Y-105985351D01*
X141878766Y-107328685D02*
X141878766Y-106895351D01*
X141878766Y-106895351D02*
X141445433Y-106852018D01*
X141445433Y-106852018D02*
X141488766Y-106895351D01*
X141488766Y-106895351D02*
X141532100Y-106982018D01*
X141532100Y-106982018D02*
X141532100Y-107198685D01*
X141532100Y-107198685D02*
X141488766Y-107285351D01*
X141488766Y-107285351D02*
X141445433Y-107328685D01*
X141445433Y-107328685D02*
X141358766Y-107372018D01*
X141358766Y-107372018D02*
X141142100Y-107372018D01*
X141142100Y-107372018D02*
X141055433Y-107328685D01*
X141055433Y-107328685D02*
X141012100Y-107285351D01*
X141012100Y-107285351D02*
X140968766Y-107198685D01*
X140968766Y-107198685D02*
X140968766Y-106982018D01*
X140968766Y-106982018D02*
X141012100Y-106895351D01*
X141012100Y-106895351D02*
X141055433Y-106852018D01*
X141964466Y-75228684D02*
X141964466Y-75835350D01*
X141964466Y-75835350D02*
X141054466Y-75445350D01*
X141661133Y-76572017D02*
X141054466Y-76572017D01*
X142007800Y-76355351D02*
X141357800Y-76138684D01*
X141357800Y-76138684D02*
X141357800Y-76702017D01*
X141054466Y-77048684D02*
X141964466Y-77048684D01*
X141531133Y-77048684D02*
X141531133Y-77568684D01*
X141054466Y-77568684D02*
X141964466Y-77568684D01*
X141141133Y-78522017D02*
X141097800Y-78478684D01*
X141097800Y-78478684D02*
X141054466Y-78348684D01*
X141054466Y-78348684D02*
X141054466Y-78262017D01*
X141054466Y-78262017D02*
X141097800Y-78132017D01*
X141097800Y-78132017D02*
X141184466Y-78045351D01*
X141184466Y-78045351D02*
X141271133Y-78002017D01*
X141271133Y-78002017D02*
X141444466Y-77958684D01*
X141444466Y-77958684D02*
X141574466Y-77958684D01*
X141574466Y-77958684D02*
X141747800Y-78002017D01*
X141747800Y-78002017D02*
X141834466Y-78045351D01*
X141834466Y-78045351D02*
X141921133Y-78132017D01*
X141921133Y-78132017D02*
X141964466Y-78262017D01*
X141964466Y-78262017D02*
X141964466Y-78348684D01*
X141964466Y-78348684D02*
X141921133Y-78478684D01*
X141921133Y-78478684D02*
X141877800Y-78522017D01*
X141054466Y-79388684D02*
X141054466Y-78868684D01*
X141054466Y-79128684D02*
X141964466Y-79128684D01*
X141964466Y-79128684D02*
X141834466Y-79042017D01*
X141834466Y-79042017D02*
X141747800Y-78955351D01*
X141747800Y-78955351D02*
X141704466Y-78868684D01*
X141964466Y-80168684D02*
X141964466Y-79995351D01*
X141964466Y-79995351D02*
X141921133Y-79908684D01*
X141921133Y-79908684D02*
X141877800Y-79865351D01*
X141877800Y-79865351D02*
X141747800Y-79778684D01*
X141747800Y-79778684D02*
X141574466Y-79735351D01*
X141574466Y-79735351D02*
X141227800Y-79735351D01*
X141227800Y-79735351D02*
X141141133Y-79778684D01*
X141141133Y-79778684D02*
X141097800Y-79822018D01*
X141097800Y-79822018D02*
X141054466Y-79908684D01*
X141054466Y-79908684D02*
X141054466Y-80082018D01*
X141054466Y-80082018D02*
X141097800Y-80168684D01*
X141097800Y-80168684D02*
X141141133Y-80212018D01*
X141141133Y-80212018D02*
X141227800Y-80255351D01*
X141227800Y-80255351D02*
X141444466Y-80255351D01*
X141444466Y-80255351D02*
X141531133Y-80212018D01*
X141531133Y-80212018D02*
X141574466Y-80168684D01*
X141574466Y-80168684D02*
X141617800Y-80082018D01*
X141617800Y-80082018D02*
X141617800Y-79908684D01*
X141617800Y-79908684D02*
X141574466Y-79822018D01*
X141574466Y-79822018D02*
X141531133Y-79778684D01*
X141531133Y-79778684D02*
X141444466Y-79735351D01*
X141964466Y-81078685D02*
X141964466Y-80645351D01*
X141964466Y-80645351D02*
X141531133Y-80602018D01*
X141531133Y-80602018D02*
X141574466Y-80645351D01*
X141574466Y-80645351D02*
X141617800Y-80732018D01*
X141617800Y-80732018D02*
X141617800Y-80948685D01*
X141617800Y-80948685D02*
X141574466Y-81035351D01*
X141574466Y-81035351D02*
X141531133Y-81078685D01*
X141531133Y-81078685D02*
X141444466Y-81122018D01*
X141444466Y-81122018D02*
X141227800Y-81122018D01*
X141227800Y-81122018D02*
X141141133Y-81078685D01*
X141141133Y-81078685D02*
X141097800Y-81035351D01*
X141097800Y-81035351D02*
X141054466Y-80948685D01*
X141054466Y-80948685D02*
X141054466Y-80732018D01*
X141054466Y-80732018D02*
X141097800Y-80645351D01*
X141097800Y-80645351D02*
X141141133Y-80602018D01*
X157678866Y-100878784D02*
X157678866Y-101485450D01*
X157678866Y-101485450D02*
X156768866Y-101095450D01*
X157375533Y-102222117D02*
X156768866Y-102222117D01*
X157722200Y-102005451D02*
X157072200Y-101788784D01*
X157072200Y-101788784D02*
X157072200Y-102352117D01*
X156768866Y-102698784D02*
X157678866Y-102698784D01*
X157245533Y-102698784D02*
X157245533Y-103218784D01*
X156768866Y-103218784D02*
X157678866Y-103218784D01*
X156855533Y-104172117D02*
X156812200Y-104128784D01*
X156812200Y-104128784D02*
X156768866Y-103998784D01*
X156768866Y-103998784D02*
X156768866Y-103912117D01*
X156768866Y-103912117D02*
X156812200Y-103782117D01*
X156812200Y-103782117D02*
X156898866Y-103695451D01*
X156898866Y-103695451D02*
X156985533Y-103652117D01*
X156985533Y-103652117D02*
X157158866Y-103608784D01*
X157158866Y-103608784D02*
X157288866Y-103608784D01*
X157288866Y-103608784D02*
X157462200Y-103652117D01*
X157462200Y-103652117D02*
X157548866Y-103695451D01*
X157548866Y-103695451D02*
X157635533Y-103782117D01*
X157635533Y-103782117D02*
X157678866Y-103912117D01*
X157678866Y-103912117D02*
X157678866Y-103998784D01*
X157678866Y-103998784D02*
X157635533Y-104128784D01*
X157635533Y-104128784D02*
X157592200Y-104172117D01*
X157678866Y-104995451D02*
X157678866Y-104562117D01*
X157678866Y-104562117D02*
X157245533Y-104518784D01*
X157245533Y-104518784D02*
X157288866Y-104562117D01*
X157288866Y-104562117D02*
X157332200Y-104648784D01*
X157332200Y-104648784D02*
X157332200Y-104865451D01*
X157332200Y-104865451D02*
X157288866Y-104952117D01*
X157288866Y-104952117D02*
X157245533Y-104995451D01*
X157245533Y-104995451D02*
X157158866Y-105038784D01*
X157158866Y-105038784D02*
X156942200Y-105038784D01*
X156942200Y-105038784D02*
X156855533Y-104995451D01*
X156855533Y-104995451D02*
X156812200Y-104952117D01*
X156812200Y-104952117D02*
X156768866Y-104865451D01*
X156768866Y-104865451D02*
X156768866Y-104648784D01*
X156768866Y-104648784D02*
X156812200Y-104562117D01*
X156812200Y-104562117D02*
X156855533Y-104518784D01*
X156768866Y-105472118D02*
X156768866Y-105645451D01*
X156768866Y-105645451D02*
X156812200Y-105732118D01*
X156812200Y-105732118D02*
X156855533Y-105775451D01*
X156855533Y-105775451D02*
X156985533Y-105862118D01*
X156985533Y-105862118D02*
X157158866Y-105905451D01*
X157158866Y-105905451D02*
X157505533Y-105905451D01*
X157505533Y-105905451D02*
X157592200Y-105862118D01*
X157592200Y-105862118D02*
X157635533Y-105818784D01*
X157635533Y-105818784D02*
X157678866Y-105732118D01*
X157678866Y-105732118D02*
X157678866Y-105558784D01*
X157678866Y-105558784D02*
X157635533Y-105472118D01*
X157635533Y-105472118D02*
X157592200Y-105428784D01*
X157592200Y-105428784D02*
X157505533Y-105385451D01*
X157505533Y-105385451D02*
X157288866Y-105385451D01*
X157288866Y-105385451D02*
X157202200Y-105428784D01*
X157202200Y-105428784D02*
X157158866Y-105472118D01*
X157158866Y-105472118D02*
X157115533Y-105558784D01*
X157115533Y-105558784D02*
X157115533Y-105732118D01*
X157115533Y-105732118D02*
X157158866Y-105818784D01*
X157158866Y-105818784D02*
X157202200Y-105862118D01*
X157202200Y-105862118D02*
X157288866Y-105905451D01*
X157678866Y-106728785D02*
X157678866Y-106295451D01*
X157678866Y-106295451D02*
X157245533Y-106252118D01*
X157245533Y-106252118D02*
X157288866Y-106295451D01*
X157288866Y-106295451D02*
X157332200Y-106382118D01*
X157332200Y-106382118D02*
X157332200Y-106598785D01*
X157332200Y-106598785D02*
X157288866Y-106685451D01*
X157288866Y-106685451D02*
X157245533Y-106728785D01*
X157245533Y-106728785D02*
X157158866Y-106772118D01*
X157158866Y-106772118D02*
X156942200Y-106772118D01*
X156942200Y-106772118D02*
X156855533Y-106728785D01*
X156855533Y-106728785D02*
X156812200Y-106685451D01*
X156812200Y-106685451D02*
X156768866Y-106598785D01*
X156768866Y-106598785D02*
X156768866Y-106382118D01*
X156768866Y-106382118D02*
X156812200Y-106295451D01*
X156812200Y-106295451D02*
X156855533Y-106252118D01*
X157064466Y-120772017D02*
X157064466Y-121205350D01*
X156804466Y-120685350D02*
X157714466Y-120988684D01*
X157714466Y-120988684D02*
X156804466Y-121292017D01*
X157714466Y-121465350D02*
X157714466Y-121985350D01*
X156804466Y-121725350D02*
X157714466Y-121725350D01*
X157714466Y-122158683D02*
X157714466Y-122678683D01*
X156804466Y-122418683D02*
X157714466Y-122418683D01*
X156804466Y-122982016D02*
X157714466Y-122982016D01*
X156804466Y-123415349D02*
X157714466Y-123415349D01*
X157714466Y-123415349D02*
X156804466Y-123935349D01*
X156804466Y-123935349D02*
X157714466Y-123935349D01*
X157237800Y-124542016D02*
X156804466Y-124542016D01*
X157714466Y-124238682D02*
X157237800Y-124542016D01*
X157237800Y-124542016D02*
X157714466Y-124845349D01*
X157411133Y-125538682D02*
X156804466Y-125538682D01*
X157757800Y-125322016D02*
X157107800Y-125105349D01*
X157107800Y-125105349D02*
X157107800Y-125668682D01*
X157714466Y-126448683D02*
X157714466Y-126015349D01*
X157714466Y-126015349D02*
X157281133Y-125972016D01*
X157281133Y-125972016D02*
X157324466Y-126015349D01*
X157324466Y-126015349D02*
X157367800Y-126102016D01*
X157367800Y-126102016D02*
X157367800Y-126318683D01*
X157367800Y-126318683D02*
X157324466Y-126405349D01*
X157324466Y-126405349D02*
X157281133Y-126448683D01*
X157281133Y-126448683D02*
X157194466Y-126492016D01*
X157194466Y-126492016D02*
X156977800Y-126492016D01*
X156977800Y-126492016D02*
X156891133Y-126448683D01*
X156891133Y-126448683D02*
X156847800Y-126405349D01*
X156847800Y-126405349D02*
X156804466Y-126318683D01*
X156804466Y-126318683D02*
X156804466Y-126102016D01*
X156804466Y-126102016D02*
X156847800Y-126015349D01*
X156847800Y-126015349D02*
X156891133Y-125972016D01*
X157878766Y-75478684D02*
X157878766Y-76085350D01*
X157878766Y-76085350D02*
X156968766Y-75695350D01*
X157575433Y-76822017D02*
X156968766Y-76822017D01*
X157922100Y-76605351D02*
X157272100Y-76388684D01*
X157272100Y-76388684D02*
X157272100Y-76952017D01*
X156968766Y-77298684D02*
X157878766Y-77298684D01*
X157445433Y-77298684D02*
X157445433Y-77818684D01*
X156968766Y-77818684D02*
X157878766Y-77818684D01*
X157055433Y-78772017D02*
X157012100Y-78728684D01*
X157012100Y-78728684D02*
X156968766Y-78598684D01*
X156968766Y-78598684D02*
X156968766Y-78512017D01*
X156968766Y-78512017D02*
X157012100Y-78382017D01*
X157012100Y-78382017D02*
X157098766Y-78295351D01*
X157098766Y-78295351D02*
X157185433Y-78252017D01*
X157185433Y-78252017D02*
X157358766Y-78208684D01*
X157358766Y-78208684D02*
X157488766Y-78208684D01*
X157488766Y-78208684D02*
X157662100Y-78252017D01*
X157662100Y-78252017D02*
X157748766Y-78295351D01*
X157748766Y-78295351D02*
X157835433Y-78382017D01*
X157835433Y-78382017D02*
X157878766Y-78512017D01*
X157878766Y-78512017D02*
X157878766Y-78598684D01*
X157878766Y-78598684D02*
X157835433Y-78728684D01*
X157835433Y-78728684D02*
X157792100Y-78772017D01*
X157878766Y-79595351D02*
X157878766Y-79162017D01*
X157878766Y-79162017D02*
X157445433Y-79118684D01*
X157445433Y-79118684D02*
X157488766Y-79162017D01*
X157488766Y-79162017D02*
X157532100Y-79248684D01*
X157532100Y-79248684D02*
X157532100Y-79465351D01*
X157532100Y-79465351D02*
X157488766Y-79552017D01*
X157488766Y-79552017D02*
X157445433Y-79595351D01*
X157445433Y-79595351D02*
X157358766Y-79638684D01*
X157358766Y-79638684D02*
X157142100Y-79638684D01*
X157142100Y-79638684D02*
X157055433Y-79595351D01*
X157055433Y-79595351D02*
X157012100Y-79552017D01*
X157012100Y-79552017D02*
X156968766Y-79465351D01*
X156968766Y-79465351D02*
X156968766Y-79248684D01*
X156968766Y-79248684D02*
X157012100Y-79162017D01*
X157012100Y-79162017D02*
X157055433Y-79118684D01*
X156968766Y-80072018D02*
X156968766Y-80245351D01*
X156968766Y-80245351D02*
X157012100Y-80332018D01*
X157012100Y-80332018D02*
X157055433Y-80375351D01*
X157055433Y-80375351D02*
X157185433Y-80462018D01*
X157185433Y-80462018D02*
X157358766Y-80505351D01*
X157358766Y-80505351D02*
X157705433Y-80505351D01*
X157705433Y-80505351D02*
X157792100Y-80462018D01*
X157792100Y-80462018D02*
X157835433Y-80418684D01*
X157835433Y-80418684D02*
X157878766Y-80332018D01*
X157878766Y-80332018D02*
X157878766Y-80158684D01*
X157878766Y-80158684D02*
X157835433Y-80072018D01*
X157835433Y-80072018D02*
X157792100Y-80028684D01*
X157792100Y-80028684D02*
X157705433Y-79985351D01*
X157705433Y-79985351D02*
X157488766Y-79985351D01*
X157488766Y-79985351D02*
X157402100Y-80028684D01*
X157402100Y-80028684D02*
X157358766Y-80072018D01*
X157358766Y-80072018D02*
X157315433Y-80158684D01*
X157315433Y-80158684D02*
X157315433Y-80332018D01*
X157315433Y-80332018D02*
X157358766Y-80418684D01*
X157358766Y-80418684D02*
X157402100Y-80462018D01*
X157402100Y-80462018D02*
X157488766Y-80505351D01*
X157878766Y-81328685D02*
X157878766Y-80895351D01*
X157878766Y-80895351D02*
X157445433Y-80852018D01*
X157445433Y-80852018D02*
X157488766Y-80895351D01*
X157488766Y-80895351D02*
X157532100Y-80982018D01*
X157532100Y-80982018D02*
X157532100Y-81198685D01*
X157532100Y-81198685D02*
X157488766Y-81285351D01*
X157488766Y-81285351D02*
X157445433Y-81328685D01*
X157445433Y-81328685D02*
X157358766Y-81372018D01*
X157358766Y-81372018D02*
X157142100Y-81372018D01*
X157142100Y-81372018D02*
X157055433Y-81328685D01*
X157055433Y-81328685D02*
X157012100Y-81285351D01*
X157012100Y-81285351D02*
X156968766Y-81198685D01*
X156968766Y-81198685D02*
X156968766Y-80982018D01*
X156968766Y-80982018D02*
X157012100Y-80895351D01*
X157012100Y-80895351D02*
X157055433Y-80852018D01*
D13*
X101300076Y-70864058D02*
X101300076Y-71445011D01*
X100951504Y-70747868D02*
X102171504Y-71154535D01*
X102171504Y-71154535D02*
X100951504Y-71561201D01*
X101067695Y-72665011D02*
X101009600Y-72606915D01*
X101009600Y-72606915D02*
X100951504Y-72432630D01*
X100951504Y-72432630D02*
X100951504Y-72316439D01*
X100951504Y-72316439D02*
X101009600Y-72142153D01*
X101009600Y-72142153D02*
X101125790Y-72025963D01*
X101125790Y-72025963D02*
X101241980Y-71967868D01*
X101241980Y-71967868D02*
X101474361Y-71909772D01*
X101474361Y-71909772D02*
X101648647Y-71909772D01*
X101648647Y-71909772D02*
X101881028Y-71967868D01*
X101881028Y-71967868D02*
X101997219Y-72025963D01*
X101997219Y-72025963D02*
X102113409Y-72142153D01*
X102113409Y-72142153D02*
X102171504Y-72316439D01*
X102171504Y-72316439D02*
X102171504Y-72432630D01*
X102171504Y-72432630D02*
X102113409Y-72606915D01*
X102113409Y-72606915D02*
X102055314Y-72665011D01*
X102171504Y-73013582D02*
X102171504Y-73710725D01*
X100951504Y-73362153D02*
X102171504Y-73362153D01*
X100951504Y-74117392D02*
X102171504Y-74117392D01*
X102171504Y-74930725D02*
X102171504Y-75163106D01*
X102171504Y-75163106D02*
X102113409Y-75279296D01*
X102113409Y-75279296D02*
X101997219Y-75395487D01*
X101997219Y-75395487D02*
X101764838Y-75453582D01*
X101764838Y-75453582D02*
X101358171Y-75453582D01*
X101358171Y-75453582D02*
X101125790Y-75395487D01*
X101125790Y-75395487D02*
X101009600Y-75279296D01*
X101009600Y-75279296D02*
X100951504Y-75163106D01*
X100951504Y-75163106D02*
X100951504Y-74930725D01*
X100951504Y-74930725D02*
X101009600Y-74814534D01*
X101009600Y-74814534D02*
X101125790Y-74698344D01*
X101125790Y-74698344D02*
X101358171Y-74640248D01*
X101358171Y-74640248D02*
X101764838Y-74640248D01*
X101764838Y-74640248D02*
X101997219Y-74698344D01*
X101997219Y-74698344D02*
X102113409Y-74814534D01*
X102113409Y-74814534D02*
X102171504Y-74930725D01*
X100951504Y-75976439D02*
X102171504Y-75976439D01*
X102171504Y-75976439D02*
X100951504Y-76673582D01*
X100951504Y-76673582D02*
X102171504Y-76673582D01*
X100951504Y-78184058D02*
X102171504Y-78184058D01*
X102171504Y-78184058D02*
X101300076Y-78590724D01*
X101300076Y-78590724D02*
X102171504Y-78997391D01*
X102171504Y-78997391D02*
X100951504Y-78997391D01*
X102171504Y-79810725D02*
X102171504Y-80043106D01*
X102171504Y-80043106D02*
X102113409Y-80159296D01*
X102113409Y-80159296D02*
X101997219Y-80275487D01*
X101997219Y-80275487D02*
X101764838Y-80333582D01*
X101764838Y-80333582D02*
X101358171Y-80333582D01*
X101358171Y-80333582D02*
X101125790Y-80275487D01*
X101125790Y-80275487D02*
X101009600Y-80159296D01*
X101009600Y-80159296D02*
X100951504Y-80043106D01*
X100951504Y-80043106D02*
X100951504Y-79810725D01*
X100951504Y-79810725D02*
X101009600Y-79694534D01*
X101009600Y-79694534D02*
X101125790Y-79578344D01*
X101125790Y-79578344D02*
X101358171Y-79520248D01*
X101358171Y-79520248D02*
X101764838Y-79520248D01*
X101764838Y-79520248D02*
X101997219Y-79578344D01*
X101997219Y-79578344D02*
X102113409Y-79694534D01*
X102113409Y-79694534D02*
X102171504Y-79810725D01*
X100951504Y-80856439D02*
X102171504Y-80856439D01*
X102171504Y-80856439D02*
X102171504Y-81146915D01*
X102171504Y-81146915D02*
X102113409Y-81321201D01*
X102113409Y-81321201D02*
X101997219Y-81437391D01*
X101997219Y-81437391D02*
X101881028Y-81495486D01*
X101881028Y-81495486D02*
X101648647Y-81553582D01*
X101648647Y-81553582D02*
X101474361Y-81553582D01*
X101474361Y-81553582D02*
X101241980Y-81495486D01*
X101241980Y-81495486D02*
X101125790Y-81437391D01*
X101125790Y-81437391D02*
X101009600Y-81321201D01*
X101009600Y-81321201D02*
X100951504Y-81146915D01*
X100951504Y-81146915D02*
X100951504Y-80856439D01*
X102171504Y-82076439D02*
X101183885Y-82076439D01*
X101183885Y-82076439D02*
X101067695Y-82134534D01*
X101067695Y-82134534D02*
X101009600Y-82192629D01*
X101009600Y-82192629D02*
X100951504Y-82308820D01*
X100951504Y-82308820D02*
X100951504Y-82541201D01*
X100951504Y-82541201D02*
X101009600Y-82657391D01*
X101009600Y-82657391D02*
X101067695Y-82715486D01*
X101067695Y-82715486D02*
X101183885Y-82773582D01*
X101183885Y-82773582D02*
X102171504Y-82773582D01*
X100951504Y-83935486D02*
X100951504Y-83354534D01*
X100951504Y-83354534D02*
X102171504Y-83354534D01*
X101590552Y-84342153D02*
X101590552Y-84748819D01*
X100951504Y-84923105D02*
X100951504Y-84342153D01*
X100951504Y-84342153D02*
X102171504Y-84342153D01*
X102171504Y-84342153D02*
X102171504Y-84923105D01*
X101764838Y-86259296D02*
X100951504Y-86549772D01*
X100951504Y-86549772D02*
X101764838Y-86840249D01*
X100951504Y-87944058D02*
X100951504Y-87246915D01*
X100951504Y-87595487D02*
X102171504Y-87595487D01*
X102171504Y-87595487D02*
X101997219Y-87479296D01*
X101997219Y-87479296D02*
X101881028Y-87363106D01*
X101881028Y-87363106D02*
X101822933Y-87246915D01*
X101067695Y-88466916D02*
X101009600Y-88525011D01*
X101009600Y-88525011D02*
X100951504Y-88466916D01*
X100951504Y-88466916D02*
X101009600Y-88408820D01*
X101009600Y-88408820D02*
X101067695Y-88466916D01*
X101067695Y-88466916D02*
X100951504Y-88466916D01*
X101648647Y-89222153D02*
X101706742Y-89105963D01*
X101706742Y-89105963D02*
X101764838Y-89047868D01*
X101764838Y-89047868D02*
X101881028Y-88989772D01*
X101881028Y-88989772D02*
X101939123Y-88989772D01*
X101939123Y-88989772D02*
X102055314Y-89047868D01*
X102055314Y-89047868D02*
X102113409Y-89105963D01*
X102113409Y-89105963D02*
X102171504Y-89222153D01*
X102171504Y-89222153D02*
X102171504Y-89454534D01*
X102171504Y-89454534D02*
X102113409Y-89570725D01*
X102113409Y-89570725D02*
X102055314Y-89628820D01*
X102055314Y-89628820D02*
X101939123Y-89686915D01*
X101939123Y-89686915D02*
X101881028Y-89686915D01*
X101881028Y-89686915D02*
X101764838Y-89628820D01*
X101764838Y-89628820D02*
X101706742Y-89570725D01*
X101706742Y-89570725D02*
X101648647Y-89454534D01*
X101648647Y-89454534D02*
X101648647Y-89222153D01*
X101648647Y-89222153D02*
X101590552Y-89105963D01*
X101590552Y-89105963D02*
X101532457Y-89047868D01*
X101532457Y-89047868D02*
X101416266Y-88989772D01*
X101416266Y-88989772D02*
X101183885Y-88989772D01*
X101183885Y-88989772D02*
X101067695Y-89047868D01*
X101067695Y-89047868D02*
X101009600Y-89105963D01*
X101009600Y-89105963D02*
X100951504Y-89222153D01*
X100951504Y-89222153D02*
X100951504Y-89454534D01*
X100951504Y-89454534D02*
X101009600Y-89570725D01*
X101009600Y-89570725D02*
X101067695Y-89628820D01*
X101067695Y-89628820D02*
X101183885Y-89686915D01*
X101183885Y-89686915D02*
X101416266Y-89686915D01*
X101416266Y-89686915D02*
X101532457Y-89628820D01*
X101532457Y-89628820D02*
X101590552Y-89570725D01*
X101590552Y-89570725D02*
X101648647Y-89454534D01*
X111019773Y-61191719D02*
X111019773Y-62511242D01*
X111019773Y-62511242D02*
X111097392Y-62666480D01*
X111097392Y-62666480D02*
X111175011Y-62744100D01*
X111175011Y-62744100D02*
X111330249Y-62821719D01*
X111330249Y-62821719D02*
X111640725Y-62821719D01*
X111640725Y-62821719D02*
X111795963Y-62744100D01*
X111795963Y-62744100D02*
X111873582Y-62666480D01*
X111873582Y-62666480D02*
X111951201Y-62511242D01*
X111951201Y-62511242D02*
X111951201Y-61191719D01*
X112727392Y-62821719D02*
X112727392Y-61191719D01*
X112727392Y-61191719D02*
X113658820Y-62821719D01*
X113658820Y-62821719D02*
X113658820Y-61191719D01*
X114202154Y-61191719D02*
X115133582Y-61191719D01*
X114667868Y-62821719D02*
X114667868Y-61191719D01*
X115676916Y-62821719D02*
X115676916Y-61191719D01*
X116220249Y-61191719D02*
X117151677Y-61191719D01*
X116685963Y-62821719D02*
X116685963Y-61191719D01*
X118471201Y-62821719D02*
X117695011Y-62821719D01*
X117695011Y-62821719D02*
X117695011Y-61191719D01*
X119014535Y-61967909D02*
X119557868Y-61967909D01*
X119790725Y-62821719D02*
X119014535Y-62821719D01*
X119014535Y-62821719D02*
X119014535Y-61191719D01*
X119014535Y-61191719D02*
X119790725Y-61191719D01*
X120489297Y-62821719D02*
X120489297Y-61191719D01*
X120489297Y-61191719D02*
X120877392Y-61191719D01*
X120877392Y-61191719D02*
X121110249Y-61269338D01*
X121110249Y-61269338D02*
X121265487Y-61424576D01*
X121265487Y-61424576D02*
X121343106Y-61579814D01*
X121343106Y-61579814D02*
X121420725Y-61890290D01*
X121420725Y-61890290D02*
X121420725Y-62123147D01*
X121420725Y-62123147D02*
X121343106Y-62433623D01*
X121343106Y-62433623D02*
X121265487Y-62588861D01*
X121265487Y-62588861D02*
X121110249Y-62744100D01*
X121110249Y-62744100D02*
X120877392Y-62821719D01*
X120877392Y-62821719D02*
X120489297Y-62821719D01*
X123283583Y-62744100D02*
X123516440Y-62821719D01*
X123516440Y-62821719D02*
X123904535Y-62821719D01*
X123904535Y-62821719D02*
X124059773Y-62744100D01*
X124059773Y-62744100D02*
X124137392Y-62666480D01*
X124137392Y-62666480D02*
X124215011Y-62511242D01*
X124215011Y-62511242D02*
X124215011Y-62356004D01*
X124215011Y-62356004D02*
X124137392Y-62200766D01*
X124137392Y-62200766D02*
X124059773Y-62123147D01*
X124059773Y-62123147D02*
X123904535Y-62045528D01*
X123904535Y-62045528D02*
X123594059Y-61967909D01*
X123594059Y-61967909D02*
X123438821Y-61890290D01*
X123438821Y-61890290D02*
X123361202Y-61812671D01*
X123361202Y-61812671D02*
X123283583Y-61657433D01*
X123283583Y-61657433D02*
X123283583Y-61502195D01*
X123283583Y-61502195D02*
X123361202Y-61346957D01*
X123361202Y-61346957D02*
X123438821Y-61269338D01*
X123438821Y-61269338D02*
X123594059Y-61191719D01*
X123594059Y-61191719D02*
X123982154Y-61191719D01*
X123982154Y-61191719D02*
X124215011Y-61269338D01*
X124913583Y-62821719D02*
X124913583Y-61191719D01*
X124913583Y-61191719D02*
X125534535Y-61191719D01*
X125534535Y-61191719D02*
X125689773Y-61269338D01*
X125689773Y-61269338D02*
X125767392Y-61346957D01*
X125767392Y-61346957D02*
X125845011Y-61502195D01*
X125845011Y-61502195D02*
X125845011Y-61735052D01*
X125845011Y-61735052D02*
X125767392Y-61890290D01*
X125767392Y-61890290D02*
X125689773Y-61967909D01*
X125689773Y-61967909D02*
X125534535Y-62045528D01*
X125534535Y-62045528D02*
X124913583Y-62045528D01*
X126465964Y-62356004D02*
X127242154Y-62356004D01*
X126310726Y-62821719D02*
X126854059Y-61191719D01*
X126854059Y-61191719D02*
X127397392Y-62821719D01*
X128872154Y-62666480D02*
X128794535Y-62744100D01*
X128794535Y-62744100D02*
X128561678Y-62821719D01*
X128561678Y-62821719D02*
X128406440Y-62821719D01*
X128406440Y-62821719D02*
X128173583Y-62744100D01*
X128173583Y-62744100D02*
X128018345Y-62588861D01*
X128018345Y-62588861D02*
X127940726Y-62433623D01*
X127940726Y-62433623D02*
X127863107Y-62123147D01*
X127863107Y-62123147D02*
X127863107Y-61890290D01*
X127863107Y-61890290D02*
X127940726Y-61579814D01*
X127940726Y-61579814D02*
X128018345Y-61424576D01*
X128018345Y-61424576D02*
X128173583Y-61269338D01*
X128173583Y-61269338D02*
X128406440Y-61191719D01*
X128406440Y-61191719D02*
X128561678Y-61191719D01*
X128561678Y-61191719D02*
X128794535Y-61269338D01*
X128794535Y-61269338D02*
X128872154Y-61346957D01*
X129570726Y-61967909D02*
X130114059Y-61967909D01*
X130346916Y-62821719D02*
X129570726Y-62821719D01*
X129570726Y-62821719D02*
X129570726Y-61191719D01*
X129570726Y-61191719D02*
X130346916Y-61191719D01*
X133218821Y-62666480D02*
X133141202Y-62744100D01*
X133141202Y-62744100D02*
X132908345Y-62821719D01*
X132908345Y-62821719D02*
X132753107Y-62821719D01*
X132753107Y-62821719D02*
X132520250Y-62744100D01*
X132520250Y-62744100D02*
X132365012Y-62588861D01*
X132365012Y-62588861D02*
X132287393Y-62433623D01*
X132287393Y-62433623D02*
X132209774Y-62123147D01*
X132209774Y-62123147D02*
X132209774Y-61890290D01*
X132209774Y-61890290D02*
X132287393Y-61579814D01*
X132287393Y-61579814D02*
X132365012Y-61424576D01*
X132365012Y-61424576D02*
X132520250Y-61269338D01*
X132520250Y-61269338D02*
X132753107Y-61191719D01*
X132753107Y-61191719D02*
X132908345Y-61191719D01*
X132908345Y-61191719D02*
X133141202Y-61269338D01*
X133141202Y-61269338D02*
X133218821Y-61346957D01*
X134848821Y-62821719D02*
X134305488Y-62045528D01*
X133917393Y-62821719D02*
X133917393Y-61191719D01*
X133917393Y-61191719D02*
X134538345Y-61191719D01*
X134538345Y-61191719D02*
X134693583Y-61269338D01*
X134693583Y-61269338D02*
X134771202Y-61346957D01*
X134771202Y-61346957D02*
X134848821Y-61502195D01*
X134848821Y-61502195D02*
X134848821Y-61735052D01*
X134848821Y-61735052D02*
X134771202Y-61890290D01*
X134771202Y-61890290D02*
X134693583Y-61967909D01*
X134693583Y-61967909D02*
X134538345Y-62045528D01*
X134538345Y-62045528D02*
X133917393Y-62045528D01*
X135469774Y-62356004D02*
X136245964Y-62356004D01*
X135314536Y-62821719D02*
X135857869Y-61191719D01*
X135857869Y-61191719D02*
X136401202Y-62821719D01*
X137487869Y-61967909D02*
X136944536Y-61967909D01*
X136944536Y-62821719D02*
X136944536Y-61191719D01*
X136944536Y-61191719D02*
X137720726Y-61191719D01*
X138108822Y-61191719D02*
X139040250Y-61191719D01*
X138574536Y-62821719D02*
X138574536Y-61191719D01*
X140519673Y-150071719D02*
X140519673Y-148441719D01*
X140519673Y-148441719D02*
X140907768Y-148441719D01*
X140907768Y-148441719D02*
X141140625Y-148519338D01*
X141140625Y-148519338D02*
X141295863Y-148674576D01*
X141295863Y-148674576D02*
X141373482Y-148829814D01*
X141373482Y-148829814D02*
X141451101Y-149140290D01*
X141451101Y-149140290D02*
X141451101Y-149373147D01*
X141451101Y-149373147D02*
X141373482Y-149683623D01*
X141373482Y-149683623D02*
X141295863Y-149838861D01*
X141295863Y-149838861D02*
X141140625Y-149994100D01*
X141140625Y-149994100D02*
X140907768Y-150071719D01*
X140907768Y-150071719D02*
X140519673Y-150071719D01*
X142072054Y-149606004D02*
X142848244Y-149606004D01*
X141916816Y-150071719D02*
X142460149Y-148441719D01*
X142460149Y-148441719D02*
X143003482Y-150071719D01*
X143313959Y-148441719D02*
X144245387Y-148441719D01*
X143779673Y-150071719D02*
X143779673Y-148441719D01*
X144711102Y-149606004D02*
X145487292Y-149606004D01*
X144555864Y-150071719D02*
X145099197Y-148441719D01*
X145099197Y-148441719D02*
X145642530Y-150071719D01*
X147971102Y-149217909D02*
X148203959Y-149295528D01*
X148203959Y-149295528D02*
X148281578Y-149373147D01*
X148281578Y-149373147D02*
X148359197Y-149528385D01*
X148359197Y-149528385D02*
X148359197Y-149761242D01*
X148359197Y-149761242D02*
X148281578Y-149916480D01*
X148281578Y-149916480D02*
X148203959Y-149994100D01*
X148203959Y-149994100D02*
X148048721Y-150071719D01*
X148048721Y-150071719D02*
X147427769Y-150071719D01*
X147427769Y-150071719D02*
X147427769Y-148441719D01*
X147427769Y-148441719D02*
X147971102Y-148441719D01*
X147971102Y-148441719D02*
X148126340Y-148519338D01*
X148126340Y-148519338D02*
X148203959Y-148596957D01*
X148203959Y-148596957D02*
X148281578Y-148752195D01*
X148281578Y-148752195D02*
X148281578Y-148907433D01*
X148281578Y-148907433D02*
X148203959Y-149062671D01*
X148203959Y-149062671D02*
X148126340Y-149140290D01*
X148126340Y-149140290D02*
X147971102Y-149217909D01*
X147971102Y-149217909D02*
X147427769Y-149217909D01*
X149057769Y-148441719D02*
X149057769Y-149761242D01*
X149057769Y-149761242D02*
X149135388Y-149916480D01*
X149135388Y-149916480D02*
X149213007Y-149994100D01*
X149213007Y-149994100D02*
X149368245Y-150071719D01*
X149368245Y-150071719D02*
X149678721Y-150071719D01*
X149678721Y-150071719D02*
X149833959Y-149994100D01*
X149833959Y-149994100D02*
X149911578Y-149916480D01*
X149911578Y-149916480D02*
X149989197Y-149761242D01*
X149989197Y-149761242D02*
X149989197Y-148441719D01*
X150687769Y-149994100D02*
X150920626Y-150071719D01*
X150920626Y-150071719D02*
X151308721Y-150071719D01*
X151308721Y-150071719D02*
X151463959Y-149994100D01*
X151463959Y-149994100D02*
X151541578Y-149916480D01*
X151541578Y-149916480D02*
X151619197Y-149761242D01*
X151619197Y-149761242D02*
X151619197Y-149606004D01*
X151619197Y-149606004D02*
X151541578Y-149450766D01*
X151541578Y-149450766D02*
X151463959Y-149373147D01*
X151463959Y-149373147D02*
X151308721Y-149295528D01*
X151308721Y-149295528D02*
X150998245Y-149217909D01*
X150998245Y-149217909D02*
X150843007Y-149140290D01*
X150843007Y-149140290D02*
X150765388Y-149062671D01*
X150765388Y-149062671D02*
X150687769Y-148907433D01*
X150687769Y-148907433D02*
X150687769Y-148752195D01*
X150687769Y-148752195D02*
X150765388Y-148596957D01*
X150765388Y-148596957D02*
X150843007Y-148519338D01*
X150843007Y-148519338D02*
X150998245Y-148441719D01*
X150998245Y-148441719D02*
X151386340Y-148441719D01*
X151386340Y-148441719D02*
X151619197Y-148519338D01*
X154491102Y-149916480D02*
X154413483Y-149994100D01*
X154413483Y-149994100D02*
X154180626Y-150071719D01*
X154180626Y-150071719D02*
X154025388Y-150071719D01*
X154025388Y-150071719D02*
X153792531Y-149994100D01*
X153792531Y-149994100D02*
X153637293Y-149838861D01*
X153637293Y-149838861D02*
X153559674Y-149683623D01*
X153559674Y-149683623D02*
X153482055Y-149373147D01*
X153482055Y-149373147D02*
X153482055Y-149140290D01*
X153482055Y-149140290D02*
X153559674Y-148829814D01*
X153559674Y-148829814D02*
X153637293Y-148674576D01*
X153637293Y-148674576D02*
X153792531Y-148519338D01*
X153792531Y-148519338D02*
X154025388Y-148441719D01*
X154025388Y-148441719D02*
X154180626Y-148441719D01*
X154180626Y-148441719D02*
X154413483Y-148519338D01*
X154413483Y-148519338D02*
X154491102Y-148596957D01*
X155500150Y-148441719D02*
X155810626Y-148441719D01*
X155810626Y-148441719D02*
X155965864Y-148519338D01*
X155965864Y-148519338D02*
X156121102Y-148674576D01*
X156121102Y-148674576D02*
X156198721Y-148985052D01*
X156198721Y-148985052D02*
X156198721Y-149528385D01*
X156198721Y-149528385D02*
X156121102Y-149838861D01*
X156121102Y-149838861D02*
X155965864Y-149994100D01*
X155965864Y-149994100D02*
X155810626Y-150071719D01*
X155810626Y-150071719D02*
X155500150Y-150071719D01*
X155500150Y-150071719D02*
X155344912Y-149994100D01*
X155344912Y-149994100D02*
X155189674Y-149838861D01*
X155189674Y-149838861D02*
X155112055Y-149528385D01*
X155112055Y-149528385D02*
X155112055Y-148985052D01*
X155112055Y-148985052D02*
X155189674Y-148674576D01*
X155189674Y-148674576D02*
X155344912Y-148519338D01*
X155344912Y-148519338D02*
X155500150Y-148441719D01*
X156897293Y-150071719D02*
X156897293Y-148441719D01*
X156897293Y-148441719D02*
X157828721Y-150071719D01*
X157828721Y-150071719D02*
X157828721Y-148441719D01*
X158604912Y-150071719D02*
X158604912Y-148441719D01*
X158604912Y-148441719D02*
X159536340Y-150071719D01*
X159536340Y-150071719D02*
X159536340Y-148441719D01*
X174451101Y-62666480D02*
X174373482Y-62744100D01*
X174373482Y-62744100D02*
X174140625Y-62821719D01*
X174140625Y-62821719D02*
X173985387Y-62821719D01*
X173985387Y-62821719D02*
X173752530Y-62744100D01*
X173752530Y-62744100D02*
X173597292Y-62588861D01*
X173597292Y-62588861D02*
X173519673Y-62433623D01*
X173519673Y-62433623D02*
X173442054Y-62123147D01*
X173442054Y-62123147D02*
X173442054Y-61890290D01*
X173442054Y-61890290D02*
X173519673Y-61579814D01*
X173519673Y-61579814D02*
X173597292Y-61424576D01*
X173597292Y-61424576D02*
X173752530Y-61269338D01*
X173752530Y-61269338D02*
X173985387Y-61191719D01*
X173985387Y-61191719D02*
X174140625Y-61191719D01*
X174140625Y-61191719D02*
X174373482Y-61269338D01*
X174373482Y-61269338D02*
X174451101Y-61346957D01*
X175460149Y-61191719D02*
X175770625Y-61191719D01*
X175770625Y-61191719D02*
X175925863Y-61269338D01*
X175925863Y-61269338D02*
X176081101Y-61424576D01*
X176081101Y-61424576D02*
X176158720Y-61735052D01*
X176158720Y-61735052D02*
X176158720Y-62278385D01*
X176158720Y-62278385D02*
X176081101Y-62588861D01*
X176081101Y-62588861D02*
X175925863Y-62744100D01*
X175925863Y-62744100D02*
X175770625Y-62821719D01*
X175770625Y-62821719D02*
X175460149Y-62821719D01*
X175460149Y-62821719D02*
X175304911Y-62744100D01*
X175304911Y-62744100D02*
X175149673Y-62588861D01*
X175149673Y-62588861D02*
X175072054Y-62278385D01*
X175072054Y-62278385D02*
X175072054Y-61735052D01*
X175072054Y-61735052D02*
X175149673Y-61424576D01*
X175149673Y-61424576D02*
X175304911Y-61269338D01*
X175304911Y-61269338D02*
X175460149Y-61191719D01*
X176857292Y-62821719D02*
X176857292Y-61191719D01*
X176857292Y-61191719D02*
X177245387Y-61191719D01*
X177245387Y-61191719D02*
X177478244Y-61269338D01*
X177478244Y-61269338D02*
X177633482Y-61424576D01*
X177633482Y-61424576D02*
X177711101Y-61579814D01*
X177711101Y-61579814D02*
X177788720Y-61890290D01*
X177788720Y-61890290D02*
X177788720Y-62123147D01*
X177788720Y-62123147D02*
X177711101Y-62433623D01*
X177711101Y-62433623D02*
X177633482Y-62588861D01*
X177633482Y-62588861D02*
X177478244Y-62744100D01*
X177478244Y-62744100D02*
X177245387Y-62821719D01*
X177245387Y-62821719D02*
X176857292Y-62821719D01*
X178409673Y-62356004D02*
X179185863Y-62356004D01*
X178254435Y-62821719D02*
X178797768Y-61191719D01*
X178797768Y-61191719D02*
X179341101Y-62821719D01*
X179884435Y-62821719D02*
X179884435Y-61191719D01*
X179884435Y-61191719D02*
X180505387Y-61191719D01*
X180505387Y-61191719D02*
X180660625Y-61269338D01*
X180660625Y-61269338D02*
X180738244Y-61346957D01*
X180738244Y-61346957D02*
X180815863Y-61502195D01*
X180815863Y-61502195D02*
X180815863Y-61735052D01*
X180815863Y-61735052D02*
X180738244Y-61890290D01*
X180738244Y-61890290D02*
X180660625Y-61967909D01*
X180660625Y-61967909D02*
X180505387Y-62045528D01*
X180505387Y-62045528D02*
X179884435Y-62045528D01*
X181824911Y-61191719D02*
X182135387Y-61191719D01*
X182135387Y-61191719D02*
X182290625Y-61269338D01*
X182290625Y-61269338D02*
X182445863Y-61424576D01*
X182445863Y-61424576D02*
X182523482Y-61735052D01*
X182523482Y-61735052D02*
X182523482Y-62278385D01*
X182523482Y-62278385D02*
X182445863Y-62588861D01*
X182445863Y-62588861D02*
X182290625Y-62744100D01*
X182290625Y-62744100D02*
X182135387Y-62821719D01*
X182135387Y-62821719D02*
X181824911Y-62821719D01*
X181824911Y-62821719D02*
X181669673Y-62744100D01*
X181669673Y-62744100D02*
X181514435Y-62588861D01*
X181514435Y-62588861D02*
X181436816Y-62278385D01*
X181436816Y-62278385D02*
X181436816Y-61735052D01*
X181436816Y-61735052D02*
X181514435Y-61424576D01*
X181514435Y-61424576D02*
X181669673Y-61269338D01*
X181669673Y-61269338D02*
X181824911Y-61191719D01*
X183222054Y-62821719D02*
X183222054Y-61191719D01*
X183222054Y-61191719D02*
X183843006Y-61191719D01*
X183843006Y-61191719D02*
X183998244Y-61269338D01*
X183998244Y-61269338D02*
X184075863Y-61346957D01*
X184075863Y-61346957D02*
X184153482Y-61502195D01*
X184153482Y-61502195D02*
X184153482Y-61735052D01*
X184153482Y-61735052D02*
X184075863Y-61890290D01*
X184075863Y-61890290D02*
X183998244Y-61967909D01*
X183998244Y-61967909D02*
X183843006Y-62045528D01*
X183843006Y-62045528D02*
X183222054Y-62045528D01*
X184852054Y-62821719D02*
X184852054Y-61191719D01*
X185783482Y-62821719D02*
X185084911Y-61890290D01*
X185783482Y-61191719D02*
X184852054Y-62123147D01*
X186404435Y-62744100D02*
X186637292Y-62821719D01*
X186637292Y-62821719D02*
X187025387Y-62821719D01*
X187025387Y-62821719D02*
X187180625Y-62744100D01*
X187180625Y-62744100D02*
X187258244Y-62666480D01*
X187258244Y-62666480D02*
X187335863Y-62511242D01*
X187335863Y-62511242D02*
X187335863Y-62356004D01*
X187335863Y-62356004D02*
X187258244Y-62200766D01*
X187258244Y-62200766D02*
X187180625Y-62123147D01*
X187180625Y-62123147D02*
X187025387Y-62045528D01*
X187025387Y-62045528D02*
X186714911Y-61967909D01*
X186714911Y-61967909D02*
X186559673Y-61890290D01*
X186559673Y-61890290D02*
X186482054Y-61812671D01*
X186482054Y-61812671D02*
X186404435Y-61657433D01*
X186404435Y-61657433D02*
X186404435Y-61502195D01*
X186404435Y-61502195D02*
X186482054Y-61346957D01*
X186482054Y-61346957D02*
X186559673Y-61269338D01*
X186559673Y-61269338D02*
X186714911Y-61191719D01*
X186714911Y-61191719D02*
X187103006Y-61191719D01*
X187103006Y-61191719D02*
X187335863Y-61269338D01*
X188034435Y-62821719D02*
X188034435Y-61191719D01*
X188034435Y-61191719D02*
X188655387Y-61191719D01*
X188655387Y-61191719D02*
X188810625Y-61269338D01*
X188810625Y-61269338D02*
X188888244Y-61346957D01*
X188888244Y-61346957D02*
X188965863Y-61502195D01*
X188965863Y-61502195D02*
X188965863Y-61735052D01*
X188965863Y-61735052D02*
X188888244Y-61890290D01*
X188888244Y-61890290D02*
X188810625Y-61967909D01*
X188810625Y-61967909D02*
X188655387Y-62045528D01*
X188655387Y-62045528D02*
X188034435Y-62045528D01*
D14*
X132801303Y-71607201D02*
X133236731Y-71302401D01*
X132801303Y-71084687D02*
X133715703Y-71084687D01*
X133715703Y-71084687D02*
X133715703Y-71433030D01*
X133715703Y-71433030D02*
X133672160Y-71520115D01*
X133672160Y-71520115D02*
X133628617Y-71563658D01*
X133628617Y-71563658D02*
X133541531Y-71607201D01*
X133541531Y-71607201D02*
X133410903Y-71607201D01*
X133410903Y-71607201D02*
X133323817Y-71563658D01*
X133323817Y-71563658D02*
X133280274Y-71520115D01*
X133280274Y-71520115D02*
X133236731Y-71433030D01*
X133236731Y-71433030D02*
X133236731Y-71084687D01*
X133628617Y-71955544D02*
X133672160Y-71999087D01*
X133672160Y-71999087D02*
X133715703Y-72086173D01*
X133715703Y-72086173D02*
X133715703Y-72303887D01*
X133715703Y-72303887D02*
X133672160Y-72390973D01*
X133672160Y-72390973D02*
X133628617Y-72434515D01*
X133628617Y-72434515D02*
X133541531Y-72478058D01*
X133541531Y-72478058D02*
X133454446Y-72478058D01*
X133454446Y-72478058D02*
X133323817Y-72434515D01*
X133323817Y-72434515D02*
X132801303Y-71912001D01*
X132801303Y-71912001D02*
X132801303Y-72478058D01*
X133149646Y-73584687D02*
X133149646Y-74281373D01*
X132801303Y-75892458D02*
X132801303Y-75369944D01*
X132801303Y-75631201D02*
X133715703Y-75631201D01*
X133715703Y-75631201D02*
X133585074Y-75544115D01*
X133585074Y-75544115D02*
X133497988Y-75457030D01*
X133497988Y-75457030D02*
X133454446Y-75369944D01*
X133715703Y-76458515D02*
X133715703Y-76545601D01*
X133715703Y-76545601D02*
X133672160Y-76632687D01*
X133672160Y-76632687D02*
X133628617Y-76676230D01*
X133628617Y-76676230D02*
X133541531Y-76719772D01*
X133541531Y-76719772D02*
X133367360Y-76763315D01*
X133367360Y-76763315D02*
X133149646Y-76763315D01*
X133149646Y-76763315D02*
X132975474Y-76719772D01*
X132975474Y-76719772D02*
X132888388Y-76676230D01*
X132888388Y-76676230D02*
X132844846Y-76632687D01*
X132844846Y-76632687D02*
X132801303Y-76545601D01*
X132801303Y-76545601D02*
X132801303Y-76458515D01*
X132801303Y-76458515D02*
X132844846Y-76371430D01*
X132844846Y-76371430D02*
X132888388Y-76327887D01*
X132888388Y-76327887D02*
X132975474Y-76284344D01*
X132975474Y-76284344D02*
X133149646Y-76240801D01*
X133149646Y-76240801D02*
X133367360Y-76240801D01*
X133367360Y-76240801D02*
X133541531Y-76284344D01*
X133541531Y-76284344D02*
X133628617Y-76327887D01*
X133628617Y-76327887D02*
X133672160Y-76371430D01*
X133672160Y-76371430D02*
X133715703Y-76458515D01*
X132801303Y-77155201D02*
X133715703Y-77155201D01*
X132801303Y-77677715D02*
X133323817Y-77285829D01*
X133715703Y-77677715D02*
X133193188Y-77155201D01*
X166051303Y-148607201D02*
X166486731Y-148302401D01*
X166051303Y-148084687D02*
X166965703Y-148084687D01*
X166965703Y-148084687D02*
X166965703Y-148433030D01*
X166965703Y-148433030D02*
X166922160Y-148520115D01*
X166922160Y-148520115D02*
X166878617Y-148563658D01*
X166878617Y-148563658D02*
X166791531Y-148607201D01*
X166791531Y-148607201D02*
X166660903Y-148607201D01*
X166660903Y-148607201D02*
X166573817Y-148563658D01*
X166573817Y-148563658D02*
X166530274Y-148520115D01*
X166530274Y-148520115D02*
X166486731Y-148433030D01*
X166486731Y-148433030D02*
X166486731Y-148084687D01*
X166051303Y-149042630D02*
X166051303Y-149216801D01*
X166051303Y-149216801D02*
X166094846Y-149303887D01*
X166094846Y-149303887D02*
X166138388Y-149347430D01*
X166138388Y-149347430D02*
X166269017Y-149434515D01*
X166269017Y-149434515D02*
X166443188Y-149478058D01*
X166443188Y-149478058D02*
X166791531Y-149478058D01*
X166791531Y-149478058D02*
X166878617Y-149434515D01*
X166878617Y-149434515D02*
X166922160Y-149390973D01*
X166922160Y-149390973D02*
X166965703Y-149303887D01*
X166965703Y-149303887D02*
X166965703Y-149129715D01*
X166965703Y-149129715D02*
X166922160Y-149042630D01*
X166922160Y-149042630D02*
X166878617Y-148999087D01*
X166878617Y-148999087D02*
X166791531Y-148955544D01*
X166791531Y-148955544D02*
X166573817Y-148955544D01*
X166573817Y-148955544D02*
X166486731Y-148999087D01*
X166486731Y-148999087D02*
X166443188Y-149042630D01*
X166443188Y-149042630D02*
X166399646Y-149129715D01*
X166399646Y-149129715D02*
X166399646Y-149303887D01*
X166399646Y-149303887D02*
X166443188Y-149390973D01*
X166443188Y-149390973D02*
X166486731Y-149434515D01*
X166486731Y-149434515D02*
X166573817Y-149478058D01*
X166399646Y-150834687D02*
X166399646Y-151531373D01*
X166051303Y-153142458D02*
X166051303Y-152619944D01*
X166051303Y-152881201D02*
X166965703Y-152881201D01*
X166965703Y-152881201D02*
X166835074Y-152794115D01*
X166835074Y-152794115D02*
X166747988Y-152707030D01*
X166747988Y-152707030D02*
X166704446Y-152619944D01*
X166965703Y-153708515D02*
X166965703Y-153795601D01*
X166965703Y-153795601D02*
X166922160Y-153882687D01*
X166922160Y-153882687D02*
X166878617Y-153926230D01*
X166878617Y-153926230D02*
X166791531Y-153969772D01*
X166791531Y-153969772D02*
X166617360Y-154013315D01*
X166617360Y-154013315D02*
X166399646Y-154013315D01*
X166399646Y-154013315D02*
X166225474Y-153969772D01*
X166225474Y-153969772D02*
X166138388Y-153926230D01*
X166138388Y-153926230D02*
X166094846Y-153882687D01*
X166094846Y-153882687D02*
X166051303Y-153795601D01*
X166051303Y-153795601D02*
X166051303Y-153708515D01*
X166051303Y-153708515D02*
X166094846Y-153621430D01*
X166094846Y-153621430D02*
X166138388Y-153577887D01*
X166138388Y-153577887D02*
X166225474Y-153534344D01*
X166225474Y-153534344D02*
X166399646Y-153490801D01*
X166399646Y-153490801D02*
X166617360Y-153490801D01*
X166617360Y-153490801D02*
X166791531Y-153534344D01*
X166791531Y-153534344D02*
X166878617Y-153577887D01*
X166878617Y-153577887D02*
X166922160Y-153621430D01*
X166922160Y-153621430D02*
X166965703Y-153708515D01*
X166051303Y-154405201D02*
X166965703Y-154405201D01*
X166051303Y-154927715D02*
X166573817Y-154535829D01*
X166965703Y-154927715D02*
X166443188Y-154405201D01*
X114801303Y-129357201D02*
X115236731Y-129052401D01*
X114801303Y-128834687D02*
X115715703Y-128834687D01*
X115715703Y-128834687D02*
X115715703Y-129183030D01*
X115715703Y-129183030D02*
X115672160Y-129270115D01*
X115672160Y-129270115D02*
X115628617Y-129313658D01*
X115628617Y-129313658D02*
X115541531Y-129357201D01*
X115541531Y-129357201D02*
X115410903Y-129357201D01*
X115410903Y-129357201D02*
X115323817Y-129313658D01*
X115323817Y-129313658D02*
X115280274Y-129270115D01*
X115280274Y-129270115D02*
X115236731Y-129183030D01*
X115236731Y-129183030D02*
X115236731Y-128834687D01*
X114801303Y-130228058D02*
X114801303Y-129705544D01*
X114801303Y-129966801D02*
X115715703Y-129966801D01*
X115715703Y-129966801D02*
X115585074Y-129879715D01*
X115585074Y-129879715D02*
X115497988Y-129792630D01*
X115497988Y-129792630D02*
X115454446Y-129705544D01*
X115323817Y-130750572D02*
X115367360Y-130663487D01*
X115367360Y-130663487D02*
X115410903Y-130619944D01*
X115410903Y-130619944D02*
X115497988Y-130576401D01*
X115497988Y-130576401D02*
X115541531Y-130576401D01*
X115541531Y-130576401D02*
X115628617Y-130619944D01*
X115628617Y-130619944D02*
X115672160Y-130663487D01*
X115672160Y-130663487D02*
X115715703Y-130750572D01*
X115715703Y-130750572D02*
X115715703Y-130924744D01*
X115715703Y-130924744D02*
X115672160Y-131011830D01*
X115672160Y-131011830D02*
X115628617Y-131055372D01*
X115628617Y-131055372D02*
X115541531Y-131098915D01*
X115541531Y-131098915D02*
X115497988Y-131098915D01*
X115497988Y-131098915D02*
X115410903Y-131055372D01*
X115410903Y-131055372D02*
X115367360Y-131011830D01*
X115367360Y-131011830D02*
X115323817Y-130924744D01*
X115323817Y-130924744D02*
X115323817Y-130750572D01*
X115323817Y-130750572D02*
X115280274Y-130663487D01*
X115280274Y-130663487D02*
X115236731Y-130619944D01*
X115236731Y-130619944D02*
X115149646Y-130576401D01*
X115149646Y-130576401D02*
X114975474Y-130576401D01*
X114975474Y-130576401D02*
X114888388Y-130619944D01*
X114888388Y-130619944D02*
X114844846Y-130663487D01*
X114844846Y-130663487D02*
X114801303Y-130750572D01*
X114801303Y-130750572D02*
X114801303Y-130924744D01*
X114801303Y-130924744D02*
X114844846Y-131011830D01*
X114844846Y-131011830D02*
X114888388Y-131055372D01*
X114888388Y-131055372D02*
X114975474Y-131098915D01*
X114975474Y-131098915D02*
X115149646Y-131098915D01*
X115149646Y-131098915D02*
X115236731Y-131055372D01*
X115236731Y-131055372D02*
X115280274Y-131011830D01*
X115280274Y-131011830D02*
X115323817Y-130924744D01*
X115149646Y-132084687D02*
X115149646Y-132781373D01*
X115715703Y-134305373D02*
X115715703Y-134131201D01*
X115715703Y-134131201D02*
X115672160Y-134044115D01*
X115672160Y-134044115D02*
X115628617Y-134000573D01*
X115628617Y-134000573D02*
X115497988Y-133913487D01*
X115497988Y-133913487D02*
X115323817Y-133869944D01*
X115323817Y-133869944D02*
X114975474Y-133869944D01*
X114975474Y-133869944D02*
X114888388Y-133913487D01*
X114888388Y-133913487D02*
X114844846Y-133957030D01*
X114844846Y-133957030D02*
X114801303Y-134044115D01*
X114801303Y-134044115D02*
X114801303Y-134218287D01*
X114801303Y-134218287D02*
X114844846Y-134305373D01*
X114844846Y-134305373D02*
X114888388Y-134348915D01*
X114888388Y-134348915D02*
X114975474Y-134392458D01*
X114975474Y-134392458D02*
X115193188Y-134392458D01*
X115193188Y-134392458D02*
X115280274Y-134348915D01*
X115280274Y-134348915D02*
X115323817Y-134305373D01*
X115323817Y-134305373D02*
X115367360Y-134218287D01*
X115367360Y-134218287D02*
X115367360Y-134044115D01*
X115367360Y-134044115D02*
X115323817Y-133957030D01*
X115323817Y-133957030D02*
X115280274Y-133913487D01*
X115280274Y-133913487D02*
X115193188Y-133869944D01*
X115628617Y-134740801D02*
X115672160Y-134784344D01*
X115672160Y-134784344D02*
X115715703Y-134871430D01*
X115715703Y-134871430D02*
X115715703Y-135089144D01*
X115715703Y-135089144D02*
X115672160Y-135176230D01*
X115672160Y-135176230D02*
X115628617Y-135219772D01*
X115628617Y-135219772D02*
X115541531Y-135263315D01*
X115541531Y-135263315D02*
X115454446Y-135263315D01*
X115454446Y-135263315D02*
X115323817Y-135219772D01*
X115323817Y-135219772D02*
X114801303Y-134697258D01*
X114801303Y-134697258D02*
X114801303Y-135263315D01*
X114801303Y-135655201D02*
X115715703Y-135655201D01*
X114801303Y-136177715D02*
X115323817Y-135785829D01*
X115715703Y-136177715D02*
X115193188Y-135655201D01*
X114801303Y-109857201D02*
X115236731Y-109552401D01*
X114801303Y-109334687D02*
X115715703Y-109334687D01*
X115715703Y-109334687D02*
X115715703Y-109683030D01*
X115715703Y-109683030D02*
X115672160Y-109770115D01*
X115672160Y-109770115D02*
X115628617Y-109813658D01*
X115628617Y-109813658D02*
X115541531Y-109857201D01*
X115541531Y-109857201D02*
X115410903Y-109857201D01*
X115410903Y-109857201D02*
X115323817Y-109813658D01*
X115323817Y-109813658D02*
X115280274Y-109770115D01*
X115280274Y-109770115D02*
X115236731Y-109683030D01*
X115236731Y-109683030D02*
X115236731Y-109334687D01*
X114801303Y-110728058D02*
X114801303Y-110205544D01*
X114801303Y-110466801D02*
X115715703Y-110466801D01*
X115715703Y-110466801D02*
X115585074Y-110379715D01*
X115585074Y-110379715D02*
X115497988Y-110292630D01*
X115497988Y-110292630D02*
X115454446Y-110205544D01*
X115715703Y-111511830D02*
X115715703Y-111337658D01*
X115715703Y-111337658D02*
X115672160Y-111250572D01*
X115672160Y-111250572D02*
X115628617Y-111207030D01*
X115628617Y-111207030D02*
X115497988Y-111119944D01*
X115497988Y-111119944D02*
X115323817Y-111076401D01*
X115323817Y-111076401D02*
X114975474Y-111076401D01*
X114975474Y-111076401D02*
X114888388Y-111119944D01*
X114888388Y-111119944D02*
X114844846Y-111163487D01*
X114844846Y-111163487D02*
X114801303Y-111250572D01*
X114801303Y-111250572D02*
X114801303Y-111424744D01*
X114801303Y-111424744D02*
X114844846Y-111511830D01*
X114844846Y-111511830D02*
X114888388Y-111555372D01*
X114888388Y-111555372D02*
X114975474Y-111598915D01*
X114975474Y-111598915D02*
X115193188Y-111598915D01*
X115193188Y-111598915D02*
X115280274Y-111555372D01*
X115280274Y-111555372D02*
X115323817Y-111511830D01*
X115323817Y-111511830D02*
X115367360Y-111424744D01*
X115367360Y-111424744D02*
X115367360Y-111250572D01*
X115367360Y-111250572D02*
X115323817Y-111163487D01*
X115323817Y-111163487D02*
X115280274Y-111119944D01*
X115280274Y-111119944D02*
X115193188Y-111076401D01*
X115149646Y-112584687D02*
X115149646Y-113281373D01*
X115715703Y-114805373D02*
X115715703Y-114631201D01*
X115715703Y-114631201D02*
X115672160Y-114544115D01*
X115672160Y-114544115D02*
X115628617Y-114500573D01*
X115628617Y-114500573D02*
X115497988Y-114413487D01*
X115497988Y-114413487D02*
X115323817Y-114369944D01*
X115323817Y-114369944D02*
X114975474Y-114369944D01*
X114975474Y-114369944D02*
X114888388Y-114413487D01*
X114888388Y-114413487D02*
X114844846Y-114457030D01*
X114844846Y-114457030D02*
X114801303Y-114544115D01*
X114801303Y-114544115D02*
X114801303Y-114718287D01*
X114801303Y-114718287D02*
X114844846Y-114805373D01*
X114844846Y-114805373D02*
X114888388Y-114848915D01*
X114888388Y-114848915D02*
X114975474Y-114892458D01*
X114975474Y-114892458D02*
X115193188Y-114892458D01*
X115193188Y-114892458D02*
X115280274Y-114848915D01*
X115280274Y-114848915D02*
X115323817Y-114805373D01*
X115323817Y-114805373D02*
X115367360Y-114718287D01*
X115367360Y-114718287D02*
X115367360Y-114544115D01*
X115367360Y-114544115D02*
X115323817Y-114457030D01*
X115323817Y-114457030D02*
X115280274Y-114413487D01*
X115280274Y-114413487D02*
X115193188Y-114369944D01*
X115628617Y-115240801D02*
X115672160Y-115284344D01*
X115672160Y-115284344D02*
X115715703Y-115371430D01*
X115715703Y-115371430D02*
X115715703Y-115589144D01*
X115715703Y-115589144D02*
X115672160Y-115676230D01*
X115672160Y-115676230D02*
X115628617Y-115719772D01*
X115628617Y-115719772D02*
X115541531Y-115763315D01*
X115541531Y-115763315D02*
X115454446Y-115763315D01*
X115454446Y-115763315D02*
X115323817Y-115719772D01*
X115323817Y-115719772D02*
X114801303Y-115197258D01*
X114801303Y-115197258D02*
X114801303Y-115763315D01*
X114801303Y-116155201D02*
X115715703Y-116155201D01*
X114801303Y-116677715D02*
X115323817Y-116285829D01*
X115715703Y-116677715D02*
X115193188Y-116155201D01*
X157888388Y-91607201D02*
X157844846Y-91563658D01*
X157844846Y-91563658D02*
X157801303Y-91433030D01*
X157801303Y-91433030D02*
X157801303Y-91345944D01*
X157801303Y-91345944D02*
X157844846Y-91215315D01*
X157844846Y-91215315D02*
X157931931Y-91128230D01*
X157931931Y-91128230D02*
X158019017Y-91084687D01*
X158019017Y-91084687D02*
X158193188Y-91041144D01*
X158193188Y-91041144D02*
X158323817Y-91041144D01*
X158323817Y-91041144D02*
X158497988Y-91084687D01*
X158497988Y-91084687D02*
X158585074Y-91128230D01*
X158585074Y-91128230D02*
X158672160Y-91215315D01*
X158672160Y-91215315D02*
X158715703Y-91345944D01*
X158715703Y-91345944D02*
X158715703Y-91433030D01*
X158715703Y-91433030D02*
X158672160Y-91563658D01*
X158672160Y-91563658D02*
X158628617Y-91607201D01*
X158715703Y-92434515D02*
X158715703Y-91999087D01*
X158715703Y-91999087D02*
X158280274Y-91955544D01*
X158280274Y-91955544D02*
X158323817Y-91999087D01*
X158323817Y-91999087D02*
X158367360Y-92086173D01*
X158367360Y-92086173D02*
X158367360Y-92303887D01*
X158367360Y-92303887D02*
X158323817Y-92390973D01*
X158323817Y-92390973D02*
X158280274Y-92434515D01*
X158280274Y-92434515D02*
X158193188Y-92478058D01*
X158193188Y-92478058D02*
X157975474Y-92478058D01*
X157975474Y-92478058D02*
X157888388Y-92434515D01*
X157888388Y-92434515D02*
X157844846Y-92390973D01*
X157844846Y-92390973D02*
X157801303Y-92303887D01*
X157801303Y-92303887D02*
X157801303Y-92086173D01*
X157801303Y-92086173D02*
X157844846Y-91999087D01*
X157844846Y-91999087D02*
X157888388Y-91955544D01*
D15*
X143964382Y-77567977D02*
X143224153Y-77567977D01*
X143224153Y-77567977D02*
X143137067Y-77611520D01*
X143137067Y-77611520D02*
X143093525Y-77655063D01*
X143093525Y-77655063D02*
X143049982Y-77742148D01*
X143049982Y-77742148D02*
X143049982Y-77916320D01*
X143049982Y-77916320D02*
X143093525Y-78003405D01*
X143093525Y-78003405D02*
X143137067Y-78046948D01*
X143137067Y-78046948D02*
X143224153Y-78090491D01*
X143224153Y-78090491D02*
X143964382Y-78090491D01*
X143659582Y-78917806D02*
X143049982Y-78917806D01*
X144007925Y-78700091D02*
X143354782Y-78482377D01*
X143354782Y-78482377D02*
X143354782Y-79048434D01*
D14*
X166051303Y-110107201D02*
X166486731Y-109802401D01*
X166051303Y-109584687D02*
X166965703Y-109584687D01*
X166965703Y-109584687D02*
X166965703Y-109933030D01*
X166965703Y-109933030D02*
X166922160Y-110020115D01*
X166922160Y-110020115D02*
X166878617Y-110063658D01*
X166878617Y-110063658D02*
X166791531Y-110107201D01*
X166791531Y-110107201D02*
X166660903Y-110107201D01*
X166660903Y-110107201D02*
X166573817Y-110063658D01*
X166573817Y-110063658D02*
X166530274Y-110020115D01*
X166530274Y-110020115D02*
X166486731Y-109933030D01*
X166486731Y-109933030D02*
X166486731Y-109584687D01*
X166965703Y-110934515D02*
X166965703Y-110499087D01*
X166965703Y-110499087D02*
X166530274Y-110455544D01*
X166530274Y-110455544D02*
X166573817Y-110499087D01*
X166573817Y-110499087D02*
X166617360Y-110586173D01*
X166617360Y-110586173D02*
X166617360Y-110803887D01*
X166617360Y-110803887D02*
X166573817Y-110890973D01*
X166573817Y-110890973D02*
X166530274Y-110934515D01*
X166530274Y-110934515D02*
X166443188Y-110978058D01*
X166443188Y-110978058D02*
X166225474Y-110978058D01*
X166225474Y-110978058D02*
X166138388Y-110934515D01*
X166138388Y-110934515D02*
X166094846Y-110890973D01*
X166094846Y-110890973D02*
X166051303Y-110803887D01*
X166051303Y-110803887D02*
X166051303Y-110586173D01*
X166051303Y-110586173D02*
X166094846Y-110499087D01*
X166094846Y-110499087D02*
X166138388Y-110455544D01*
X166399646Y-112334687D02*
X166399646Y-113031373D01*
X166051303Y-114642458D02*
X166051303Y-114119944D01*
X166051303Y-114381201D02*
X166965703Y-114381201D01*
X166965703Y-114381201D02*
X166835074Y-114294115D01*
X166835074Y-114294115D02*
X166747988Y-114207030D01*
X166747988Y-114207030D02*
X166704446Y-114119944D01*
X166965703Y-115208515D02*
X166965703Y-115295601D01*
X166965703Y-115295601D02*
X166922160Y-115382687D01*
X166922160Y-115382687D02*
X166878617Y-115426230D01*
X166878617Y-115426230D02*
X166791531Y-115469772D01*
X166791531Y-115469772D02*
X166617360Y-115513315D01*
X166617360Y-115513315D02*
X166399646Y-115513315D01*
X166399646Y-115513315D02*
X166225474Y-115469772D01*
X166225474Y-115469772D02*
X166138388Y-115426230D01*
X166138388Y-115426230D02*
X166094846Y-115382687D01*
X166094846Y-115382687D02*
X166051303Y-115295601D01*
X166051303Y-115295601D02*
X166051303Y-115208515D01*
X166051303Y-115208515D02*
X166094846Y-115121430D01*
X166094846Y-115121430D02*
X166138388Y-115077887D01*
X166138388Y-115077887D02*
X166225474Y-115034344D01*
X166225474Y-115034344D02*
X166399646Y-114990801D01*
X166399646Y-114990801D02*
X166617360Y-114990801D01*
X166617360Y-114990801D02*
X166791531Y-115034344D01*
X166791531Y-115034344D02*
X166878617Y-115077887D01*
X166878617Y-115077887D02*
X166922160Y-115121430D01*
X166922160Y-115121430D02*
X166965703Y-115208515D01*
X166051303Y-115905201D02*
X166965703Y-115905201D01*
X166051303Y-116427715D02*
X166573817Y-116035829D01*
X166965703Y-116427715D02*
X166443188Y-115905201D01*
X132801303Y-129857201D02*
X133236731Y-129552401D01*
X132801303Y-129334687D02*
X133715703Y-129334687D01*
X133715703Y-129334687D02*
X133715703Y-129683030D01*
X133715703Y-129683030D02*
X133672160Y-129770115D01*
X133672160Y-129770115D02*
X133628617Y-129813658D01*
X133628617Y-129813658D02*
X133541531Y-129857201D01*
X133541531Y-129857201D02*
X133410903Y-129857201D01*
X133410903Y-129857201D02*
X133323817Y-129813658D01*
X133323817Y-129813658D02*
X133280274Y-129770115D01*
X133280274Y-129770115D02*
X133236731Y-129683030D01*
X133236731Y-129683030D02*
X133236731Y-129334687D01*
X133323817Y-130379715D02*
X133367360Y-130292630D01*
X133367360Y-130292630D02*
X133410903Y-130249087D01*
X133410903Y-130249087D02*
X133497988Y-130205544D01*
X133497988Y-130205544D02*
X133541531Y-130205544D01*
X133541531Y-130205544D02*
X133628617Y-130249087D01*
X133628617Y-130249087D02*
X133672160Y-130292630D01*
X133672160Y-130292630D02*
X133715703Y-130379715D01*
X133715703Y-130379715D02*
X133715703Y-130553887D01*
X133715703Y-130553887D02*
X133672160Y-130640973D01*
X133672160Y-130640973D02*
X133628617Y-130684515D01*
X133628617Y-130684515D02*
X133541531Y-130728058D01*
X133541531Y-130728058D02*
X133497988Y-130728058D01*
X133497988Y-130728058D02*
X133410903Y-130684515D01*
X133410903Y-130684515D02*
X133367360Y-130640973D01*
X133367360Y-130640973D02*
X133323817Y-130553887D01*
X133323817Y-130553887D02*
X133323817Y-130379715D01*
X133323817Y-130379715D02*
X133280274Y-130292630D01*
X133280274Y-130292630D02*
X133236731Y-130249087D01*
X133236731Y-130249087D02*
X133149646Y-130205544D01*
X133149646Y-130205544D02*
X132975474Y-130205544D01*
X132975474Y-130205544D02*
X132888388Y-130249087D01*
X132888388Y-130249087D02*
X132844846Y-130292630D01*
X132844846Y-130292630D02*
X132801303Y-130379715D01*
X132801303Y-130379715D02*
X132801303Y-130553887D01*
X132801303Y-130553887D02*
X132844846Y-130640973D01*
X132844846Y-130640973D02*
X132888388Y-130684515D01*
X132888388Y-130684515D02*
X132975474Y-130728058D01*
X132975474Y-130728058D02*
X133149646Y-130728058D01*
X133149646Y-130728058D02*
X133236731Y-130684515D01*
X133236731Y-130684515D02*
X133280274Y-130640973D01*
X133280274Y-130640973D02*
X133323817Y-130553887D01*
X133149646Y-132084687D02*
X133149646Y-132781373D01*
X132801303Y-134392458D02*
X132801303Y-133869944D01*
X132801303Y-134131201D02*
X133715703Y-134131201D01*
X133715703Y-134131201D02*
X133585074Y-134044115D01*
X133585074Y-134044115D02*
X133497988Y-133957030D01*
X133497988Y-133957030D02*
X133454446Y-133869944D01*
X133715703Y-134958515D02*
X133715703Y-135045601D01*
X133715703Y-135045601D02*
X133672160Y-135132687D01*
X133672160Y-135132687D02*
X133628617Y-135176230D01*
X133628617Y-135176230D02*
X133541531Y-135219772D01*
X133541531Y-135219772D02*
X133367360Y-135263315D01*
X133367360Y-135263315D02*
X133149646Y-135263315D01*
X133149646Y-135263315D02*
X132975474Y-135219772D01*
X132975474Y-135219772D02*
X132888388Y-135176230D01*
X132888388Y-135176230D02*
X132844846Y-135132687D01*
X132844846Y-135132687D02*
X132801303Y-135045601D01*
X132801303Y-135045601D02*
X132801303Y-134958515D01*
X132801303Y-134958515D02*
X132844846Y-134871430D01*
X132844846Y-134871430D02*
X132888388Y-134827887D01*
X132888388Y-134827887D02*
X132975474Y-134784344D01*
X132975474Y-134784344D02*
X133149646Y-134740801D01*
X133149646Y-134740801D02*
X133367360Y-134740801D01*
X133367360Y-134740801D02*
X133541531Y-134784344D01*
X133541531Y-134784344D02*
X133628617Y-134827887D01*
X133628617Y-134827887D02*
X133672160Y-134871430D01*
X133672160Y-134871430D02*
X133715703Y-134958515D01*
X132801303Y-135655201D02*
X133715703Y-135655201D01*
X132801303Y-136177715D02*
X133323817Y-135785829D01*
X133715703Y-136177715D02*
X133193188Y-135655201D01*
X166051303Y-91357201D02*
X166486731Y-91052401D01*
X166051303Y-90834687D02*
X166965703Y-90834687D01*
X166965703Y-90834687D02*
X166965703Y-91183030D01*
X166965703Y-91183030D02*
X166922160Y-91270115D01*
X166922160Y-91270115D02*
X166878617Y-91313658D01*
X166878617Y-91313658D02*
X166791531Y-91357201D01*
X166791531Y-91357201D02*
X166660903Y-91357201D01*
X166660903Y-91357201D02*
X166573817Y-91313658D01*
X166573817Y-91313658D02*
X166530274Y-91270115D01*
X166530274Y-91270115D02*
X166486731Y-91183030D01*
X166486731Y-91183030D02*
X166486731Y-90834687D01*
X166965703Y-91662001D02*
X166965703Y-92228058D01*
X166965703Y-92228058D02*
X166617360Y-91923258D01*
X166617360Y-91923258D02*
X166617360Y-92053887D01*
X166617360Y-92053887D02*
X166573817Y-92140973D01*
X166573817Y-92140973D02*
X166530274Y-92184515D01*
X166530274Y-92184515D02*
X166443188Y-92228058D01*
X166443188Y-92228058D02*
X166225474Y-92228058D01*
X166225474Y-92228058D02*
X166138388Y-92184515D01*
X166138388Y-92184515D02*
X166094846Y-92140973D01*
X166094846Y-92140973D02*
X166051303Y-92053887D01*
X166051303Y-92053887D02*
X166051303Y-91792630D01*
X166051303Y-91792630D02*
X166094846Y-91705544D01*
X166094846Y-91705544D02*
X166138388Y-91662001D01*
X166399646Y-93334687D02*
X166399646Y-94031373D01*
X166051303Y-95642458D02*
X166051303Y-95119944D01*
X166051303Y-95381201D02*
X166965703Y-95381201D01*
X166965703Y-95381201D02*
X166835074Y-95294115D01*
X166835074Y-95294115D02*
X166747988Y-95207030D01*
X166747988Y-95207030D02*
X166704446Y-95119944D01*
X166965703Y-96208515D02*
X166965703Y-96295601D01*
X166965703Y-96295601D02*
X166922160Y-96382687D01*
X166922160Y-96382687D02*
X166878617Y-96426230D01*
X166878617Y-96426230D02*
X166791531Y-96469772D01*
X166791531Y-96469772D02*
X166617360Y-96513315D01*
X166617360Y-96513315D02*
X166399646Y-96513315D01*
X166399646Y-96513315D02*
X166225474Y-96469772D01*
X166225474Y-96469772D02*
X166138388Y-96426230D01*
X166138388Y-96426230D02*
X166094846Y-96382687D01*
X166094846Y-96382687D02*
X166051303Y-96295601D01*
X166051303Y-96295601D02*
X166051303Y-96208515D01*
X166051303Y-96208515D02*
X166094846Y-96121430D01*
X166094846Y-96121430D02*
X166138388Y-96077887D01*
X166138388Y-96077887D02*
X166225474Y-96034344D01*
X166225474Y-96034344D02*
X166399646Y-95990801D01*
X166399646Y-95990801D02*
X166617360Y-95990801D01*
X166617360Y-95990801D02*
X166791531Y-96034344D01*
X166791531Y-96034344D02*
X166878617Y-96077887D01*
X166878617Y-96077887D02*
X166922160Y-96121430D01*
X166922160Y-96121430D02*
X166965703Y-96208515D01*
X166051303Y-96905201D02*
X166965703Y-96905201D01*
X166051303Y-97427715D02*
X166573817Y-97035829D01*
X166965703Y-97427715D02*
X166443188Y-96905201D01*
X157638388Y-131107201D02*
X157594846Y-131063658D01*
X157594846Y-131063658D02*
X157551303Y-130933030D01*
X157551303Y-130933030D02*
X157551303Y-130845944D01*
X157551303Y-130845944D02*
X157594846Y-130715315D01*
X157594846Y-130715315D02*
X157681931Y-130628230D01*
X157681931Y-130628230D02*
X157769017Y-130584687D01*
X157769017Y-130584687D02*
X157943188Y-130541144D01*
X157943188Y-130541144D02*
X158073817Y-130541144D01*
X158073817Y-130541144D02*
X158247988Y-130584687D01*
X158247988Y-130584687D02*
X158335074Y-130628230D01*
X158335074Y-130628230D02*
X158422160Y-130715315D01*
X158422160Y-130715315D02*
X158465703Y-130845944D01*
X158465703Y-130845944D02*
X158465703Y-130933030D01*
X158465703Y-130933030D02*
X158422160Y-131063658D01*
X158422160Y-131063658D02*
X158378617Y-131107201D01*
X158378617Y-131455544D02*
X158422160Y-131499087D01*
X158422160Y-131499087D02*
X158465703Y-131586173D01*
X158465703Y-131586173D02*
X158465703Y-131803887D01*
X158465703Y-131803887D02*
X158422160Y-131890973D01*
X158422160Y-131890973D02*
X158378617Y-131934515D01*
X158378617Y-131934515D02*
X158291531Y-131978058D01*
X158291531Y-131978058D02*
X158204446Y-131978058D01*
X158204446Y-131978058D02*
X158073817Y-131934515D01*
X158073817Y-131934515D02*
X157551303Y-131412001D01*
X157551303Y-131412001D02*
X157551303Y-131978058D01*
X132801303Y-91107201D02*
X133236731Y-90802401D01*
X132801303Y-90584687D02*
X133715703Y-90584687D01*
X133715703Y-90584687D02*
X133715703Y-90933030D01*
X133715703Y-90933030D02*
X133672160Y-91020115D01*
X133672160Y-91020115D02*
X133628617Y-91063658D01*
X133628617Y-91063658D02*
X133541531Y-91107201D01*
X133541531Y-91107201D02*
X133410903Y-91107201D01*
X133410903Y-91107201D02*
X133323817Y-91063658D01*
X133323817Y-91063658D02*
X133280274Y-91020115D01*
X133280274Y-91020115D02*
X133236731Y-90933030D01*
X133236731Y-90933030D02*
X133236731Y-90584687D01*
X133410903Y-91890973D02*
X132801303Y-91890973D01*
X133759246Y-91673258D02*
X133106103Y-91455544D01*
X133106103Y-91455544D02*
X133106103Y-92021601D01*
X133149646Y-93334687D02*
X133149646Y-94031373D01*
X132801303Y-95642458D02*
X132801303Y-95119944D01*
X132801303Y-95381201D02*
X133715703Y-95381201D01*
X133715703Y-95381201D02*
X133585074Y-95294115D01*
X133585074Y-95294115D02*
X133497988Y-95207030D01*
X133497988Y-95207030D02*
X133454446Y-95119944D01*
X133715703Y-96208515D02*
X133715703Y-96295601D01*
X133715703Y-96295601D02*
X133672160Y-96382687D01*
X133672160Y-96382687D02*
X133628617Y-96426230D01*
X133628617Y-96426230D02*
X133541531Y-96469772D01*
X133541531Y-96469772D02*
X133367360Y-96513315D01*
X133367360Y-96513315D02*
X133149646Y-96513315D01*
X133149646Y-96513315D02*
X132975474Y-96469772D01*
X132975474Y-96469772D02*
X132888388Y-96426230D01*
X132888388Y-96426230D02*
X132844846Y-96382687D01*
X132844846Y-96382687D02*
X132801303Y-96295601D01*
X132801303Y-96295601D02*
X132801303Y-96208515D01*
X132801303Y-96208515D02*
X132844846Y-96121430D01*
X132844846Y-96121430D02*
X132888388Y-96077887D01*
X132888388Y-96077887D02*
X132975474Y-96034344D01*
X132975474Y-96034344D02*
X133149646Y-95990801D01*
X133149646Y-95990801D02*
X133367360Y-95990801D01*
X133367360Y-95990801D02*
X133541531Y-96034344D01*
X133541531Y-96034344D02*
X133628617Y-96077887D01*
X133628617Y-96077887D02*
X133672160Y-96121430D01*
X133672160Y-96121430D02*
X133715703Y-96208515D01*
X132801303Y-96905201D02*
X133715703Y-96905201D01*
X132801303Y-97427715D02*
X133323817Y-97035829D01*
X133715703Y-97427715D02*
X133193188Y-96905201D01*
X184301303Y-71357201D02*
X184736731Y-71052401D01*
X184301303Y-70834687D02*
X185215703Y-70834687D01*
X185215703Y-70834687D02*
X185215703Y-71183030D01*
X185215703Y-71183030D02*
X185172160Y-71270115D01*
X185172160Y-71270115D02*
X185128617Y-71313658D01*
X185128617Y-71313658D02*
X185041531Y-71357201D01*
X185041531Y-71357201D02*
X184910903Y-71357201D01*
X184910903Y-71357201D02*
X184823817Y-71313658D01*
X184823817Y-71313658D02*
X184780274Y-71270115D01*
X184780274Y-71270115D02*
X184736731Y-71183030D01*
X184736731Y-71183030D02*
X184736731Y-70834687D01*
X184301303Y-72228058D02*
X184301303Y-71705544D01*
X184301303Y-71966801D02*
X185215703Y-71966801D01*
X185215703Y-71966801D02*
X185085074Y-71879715D01*
X185085074Y-71879715D02*
X184997988Y-71792630D01*
X184997988Y-71792630D02*
X184954446Y-71705544D01*
X184301303Y-73098915D02*
X184301303Y-72576401D01*
X184301303Y-72837658D02*
X185215703Y-72837658D01*
X185215703Y-72837658D02*
X185085074Y-72750572D01*
X185085074Y-72750572D02*
X184997988Y-72663487D01*
X184997988Y-72663487D02*
X184954446Y-72576401D01*
X184649646Y-74084687D02*
X184649646Y-74781373D01*
X185215703Y-76305373D02*
X185215703Y-76131201D01*
X185215703Y-76131201D02*
X185172160Y-76044115D01*
X185172160Y-76044115D02*
X185128617Y-76000573D01*
X185128617Y-76000573D02*
X184997988Y-75913487D01*
X184997988Y-75913487D02*
X184823817Y-75869944D01*
X184823817Y-75869944D02*
X184475474Y-75869944D01*
X184475474Y-75869944D02*
X184388388Y-75913487D01*
X184388388Y-75913487D02*
X184344846Y-75957030D01*
X184344846Y-75957030D02*
X184301303Y-76044115D01*
X184301303Y-76044115D02*
X184301303Y-76218287D01*
X184301303Y-76218287D02*
X184344846Y-76305373D01*
X184344846Y-76305373D02*
X184388388Y-76348915D01*
X184388388Y-76348915D02*
X184475474Y-76392458D01*
X184475474Y-76392458D02*
X184693188Y-76392458D01*
X184693188Y-76392458D02*
X184780274Y-76348915D01*
X184780274Y-76348915D02*
X184823817Y-76305373D01*
X184823817Y-76305373D02*
X184867360Y-76218287D01*
X184867360Y-76218287D02*
X184867360Y-76044115D01*
X184867360Y-76044115D02*
X184823817Y-75957030D01*
X184823817Y-75957030D02*
X184780274Y-75913487D01*
X184780274Y-75913487D02*
X184693188Y-75869944D01*
X185128617Y-76740801D02*
X185172160Y-76784344D01*
X185172160Y-76784344D02*
X185215703Y-76871430D01*
X185215703Y-76871430D02*
X185215703Y-77089144D01*
X185215703Y-77089144D02*
X185172160Y-77176230D01*
X185172160Y-77176230D02*
X185128617Y-77219772D01*
X185128617Y-77219772D02*
X185041531Y-77263315D01*
X185041531Y-77263315D02*
X184954446Y-77263315D01*
X184954446Y-77263315D02*
X184823817Y-77219772D01*
X184823817Y-77219772D02*
X184301303Y-76697258D01*
X184301303Y-76697258D02*
X184301303Y-77263315D01*
X184301303Y-77655201D02*
X185215703Y-77655201D01*
X184301303Y-78177715D02*
X184823817Y-77785829D01*
X185215703Y-78177715D02*
X184693188Y-77655201D01*
D15*
X159714382Y-77567977D02*
X158974153Y-77567977D01*
X158974153Y-77567977D02*
X158887067Y-77611520D01*
X158887067Y-77611520D02*
X158843525Y-77655063D01*
X158843525Y-77655063D02*
X158799982Y-77742148D01*
X158799982Y-77742148D02*
X158799982Y-77916320D01*
X158799982Y-77916320D02*
X158843525Y-78003405D01*
X158843525Y-78003405D02*
X158887067Y-78046948D01*
X158887067Y-78046948D02*
X158974153Y-78090491D01*
X158974153Y-78090491D02*
X159714382Y-78090491D01*
X159714382Y-78917806D02*
X159714382Y-78743634D01*
X159714382Y-78743634D02*
X159670839Y-78656548D01*
X159670839Y-78656548D02*
X159627296Y-78613006D01*
X159627296Y-78613006D02*
X159496667Y-78525920D01*
X159496667Y-78525920D02*
X159322496Y-78482377D01*
X159322496Y-78482377D02*
X158974153Y-78482377D01*
X158974153Y-78482377D02*
X158887067Y-78525920D01*
X158887067Y-78525920D02*
X158843525Y-78569463D01*
X158843525Y-78569463D02*
X158799982Y-78656548D01*
X158799982Y-78656548D02*
X158799982Y-78830720D01*
X158799982Y-78830720D02*
X158843525Y-78917806D01*
X158843525Y-78917806D02*
X158887067Y-78961348D01*
X158887067Y-78961348D02*
X158974153Y-79004891D01*
X158974153Y-79004891D02*
X159191867Y-79004891D01*
X159191867Y-79004891D02*
X159278953Y-78961348D01*
X159278953Y-78961348D02*
X159322496Y-78917806D01*
X159322496Y-78917806D02*
X159366039Y-78830720D01*
X159366039Y-78830720D02*
X159366039Y-78656548D01*
X159366039Y-78656548D02*
X159322496Y-78569463D01*
X159322496Y-78569463D02*
X159278953Y-78525920D01*
X159278953Y-78525920D02*
X159191867Y-78482377D01*
X140340491Y-137362932D02*
X140296948Y-137406475D01*
X140296948Y-137406475D02*
X140166320Y-137450017D01*
X140166320Y-137450017D02*
X140079234Y-137450017D01*
X140079234Y-137450017D02*
X139948605Y-137406475D01*
X139948605Y-137406475D02*
X139861520Y-137319389D01*
X139861520Y-137319389D02*
X139817977Y-137232303D01*
X139817977Y-137232303D02*
X139774434Y-137058132D01*
X139774434Y-137058132D02*
X139774434Y-136927503D01*
X139774434Y-136927503D02*
X139817977Y-136753332D01*
X139817977Y-136753332D02*
X139861520Y-136666246D01*
X139861520Y-136666246D02*
X139948605Y-136579160D01*
X139948605Y-136579160D02*
X140079234Y-136535617D01*
X140079234Y-136535617D02*
X140166320Y-136535617D01*
X140166320Y-136535617D02*
X140296948Y-136579160D01*
X140296948Y-136579160D02*
X140340491Y-136622703D01*
X140732377Y-137101675D02*
X141429063Y-137101675D01*
X141864491Y-137450017D02*
X141864491Y-136535617D01*
X141864491Y-136535617D02*
X142169291Y-137188760D01*
X142169291Y-137188760D02*
X142474091Y-136535617D01*
X142474091Y-136535617D02*
X142474091Y-137450017D01*
X142865977Y-137188760D02*
X143301406Y-137188760D01*
X142778891Y-137450017D02*
X143083691Y-136535617D01*
X143083691Y-136535617D02*
X143388491Y-137450017D01*
X143693291Y-137450017D02*
X143693291Y-136535617D01*
X144128720Y-137450017D02*
X144128720Y-136535617D01*
X144128720Y-136535617D02*
X144651234Y-137450017D01*
X144651234Y-137450017D02*
X144651234Y-136535617D01*
D14*
X132801303Y-110107201D02*
X133236731Y-109802401D01*
X132801303Y-109584687D02*
X133715703Y-109584687D01*
X133715703Y-109584687D02*
X133715703Y-109933030D01*
X133715703Y-109933030D02*
X133672160Y-110020115D01*
X133672160Y-110020115D02*
X133628617Y-110063658D01*
X133628617Y-110063658D02*
X133541531Y-110107201D01*
X133541531Y-110107201D02*
X133410903Y-110107201D01*
X133410903Y-110107201D02*
X133323817Y-110063658D01*
X133323817Y-110063658D02*
X133280274Y-110020115D01*
X133280274Y-110020115D02*
X133236731Y-109933030D01*
X133236731Y-109933030D02*
X133236731Y-109584687D01*
X133715703Y-110890973D02*
X133715703Y-110716801D01*
X133715703Y-110716801D02*
X133672160Y-110629715D01*
X133672160Y-110629715D02*
X133628617Y-110586173D01*
X133628617Y-110586173D02*
X133497988Y-110499087D01*
X133497988Y-110499087D02*
X133323817Y-110455544D01*
X133323817Y-110455544D02*
X132975474Y-110455544D01*
X132975474Y-110455544D02*
X132888388Y-110499087D01*
X132888388Y-110499087D02*
X132844846Y-110542630D01*
X132844846Y-110542630D02*
X132801303Y-110629715D01*
X132801303Y-110629715D02*
X132801303Y-110803887D01*
X132801303Y-110803887D02*
X132844846Y-110890973D01*
X132844846Y-110890973D02*
X132888388Y-110934515D01*
X132888388Y-110934515D02*
X132975474Y-110978058D01*
X132975474Y-110978058D02*
X133193188Y-110978058D01*
X133193188Y-110978058D02*
X133280274Y-110934515D01*
X133280274Y-110934515D02*
X133323817Y-110890973D01*
X133323817Y-110890973D02*
X133367360Y-110803887D01*
X133367360Y-110803887D02*
X133367360Y-110629715D01*
X133367360Y-110629715D02*
X133323817Y-110542630D01*
X133323817Y-110542630D02*
X133280274Y-110499087D01*
X133280274Y-110499087D02*
X133193188Y-110455544D01*
X133149646Y-112334687D02*
X133149646Y-113031373D01*
X132801303Y-114642458D02*
X132801303Y-114119944D01*
X132801303Y-114381201D02*
X133715703Y-114381201D01*
X133715703Y-114381201D02*
X133585074Y-114294115D01*
X133585074Y-114294115D02*
X133497988Y-114207030D01*
X133497988Y-114207030D02*
X133454446Y-114119944D01*
X133715703Y-115208515D02*
X133715703Y-115295601D01*
X133715703Y-115295601D02*
X133672160Y-115382687D01*
X133672160Y-115382687D02*
X133628617Y-115426230D01*
X133628617Y-115426230D02*
X133541531Y-115469772D01*
X133541531Y-115469772D02*
X133367360Y-115513315D01*
X133367360Y-115513315D02*
X133149646Y-115513315D01*
X133149646Y-115513315D02*
X132975474Y-115469772D01*
X132975474Y-115469772D02*
X132888388Y-115426230D01*
X132888388Y-115426230D02*
X132844846Y-115382687D01*
X132844846Y-115382687D02*
X132801303Y-115295601D01*
X132801303Y-115295601D02*
X132801303Y-115208515D01*
X132801303Y-115208515D02*
X132844846Y-115121430D01*
X132844846Y-115121430D02*
X132888388Y-115077887D01*
X132888388Y-115077887D02*
X132975474Y-115034344D01*
X132975474Y-115034344D02*
X133149646Y-114990801D01*
X133149646Y-114990801D02*
X133367360Y-114990801D01*
X133367360Y-114990801D02*
X133541531Y-115034344D01*
X133541531Y-115034344D02*
X133628617Y-115077887D01*
X133628617Y-115077887D02*
X133672160Y-115121430D01*
X133672160Y-115121430D02*
X133715703Y-115208515D01*
X132801303Y-115905201D02*
X133715703Y-115905201D01*
X132801303Y-116427715D02*
X133323817Y-116035829D01*
X133715703Y-116427715D02*
X133193188Y-115905201D01*
X114801303Y-71357201D02*
X115236731Y-71052401D01*
X114801303Y-70834687D02*
X115715703Y-70834687D01*
X115715703Y-70834687D02*
X115715703Y-71183030D01*
X115715703Y-71183030D02*
X115672160Y-71270115D01*
X115672160Y-71270115D02*
X115628617Y-71313658D01*
X115628617Y-71313658D02*
X115541531Y-71357201D01*
X115541531Y-71357201D02*
X115410903Y-71357201D01*
X115410903Y-71357201D02*
X115323817Y-71313658D01*
X115323817Y-71313658D02*
X115280274Y-71270115D01*
X115280274Y-71270115D02*
X115236731Y-71183030D01*
X115236731Y-71183030D02*
X115236731Y-70834687D01*
X114801303Y-72228058D02*
X114801303Y-71705544D01*
X114801303Y-71966801D02*
X115715703Y-71966801D01*
X115715703Y-71966801D02*
X115585074Y-71879715D01*
X115585074Y-71879715D02*
X115497988Y-71792630D01*
X115497988Y-71792630D02*
X115454446Y-71705544D01*
X115628617Y-72576401D02*
X115672160Y-72619944D01*
X115672160Y-72619944D02*
X115715703Y-72707030D01*
X115715703Y-72707030D02*
X115715703Y-72924744D01*
X115715703Y-72924744D02*
X115672160Y-73011830D01*
X115672160Y-73011830D02*
X115628617Y-73055372D01*
X115628617Y-73055372D02*
X115541531Y-73098915D01*
X115541531Y-73098915D02*
X115454446Y-73098915D01*
X115454446Y-73098915D02*
X115323817Y-73055372D01*
X115323817Y-73055372D02*
X114801303Y-72532858D01*
X114801303Y-72532858D02*
X114801303Y-73098915D01*
X115149646Y-74084687D02*
X115149646Y-74781373D01*
X115715703Y-76305373D02*
X115715703Y-76131201D01*
X115715703Y-76131201D02*
X115672160Y-76044115D01*
X115672160Y-76044115D02*
X115628617Y-76000573D01*
X115628617Y-76000573D02*
X115497988Y-75913487D01*
X115497988Y-75913487D02*
X115323817Y-75869944D01*
X115323817Y-75869944D02*
X114975474Y-75869944D01*
X114975474Y-75869944D02*
X114888388Y-75913487D01*
X114888388Y-75913487D02*
X114844846Y-75957030D01*
X114844846Y-75957030D02*
X114801303Y-76044115D01*
X114801303Y-76044115D02*
X114801303Y-76218287D01*
X114801303Y-76218287D02*
X114844846Y-76305373D01*
X114844846Y-76305373D02*
X114888388Y-76348915D01*
X114888388Y-76348915D02*
X114975474Y-76392458D01*
X114975474Y-76392458D02*
X115193188Y-76392458D01*
X115193188Y-76392458D02*
X115280274Y-76348915D01*
X115280274Y-76348915D02*
X115323817Y-76305373D01*
X115323817Y-76305373D02*
X115367360Y-76218287D01*
X115367360Y-76218287D02*
X115367360Y-76044115D01*
X115367360Y-76044115D02*
X115323817Y-75957030D01*
X115323817Y-75957030D02*
X115280274Y-75913487D01*
X115280274Y-75913487D02*
X115193188Y-75869944D01*
X115628617Y-76740801D02*
X115672160Y-76784344D01*
X115672160Y-76784344D02*
X115715703Y-76871430D01*
X115715703Y-76871430D02*
X115715703Y-77089144D01*
X115715703Y-77089144D02*
X115672160Y-77176230D01*
X115672160Y-77176230D02*
X115628617Y-77219772D01*
X115628617Y-77219772D02*
X115541531Y-77263315D01*
X115541531Y-77263315D02*
X115454446Y-77263315D01*
X115454446Y-77263315D02*
X115323817Y-77219772D01*
X115323817Y-77219772D02*
X114801303Y-76697258D01*
X114801303Y-76697258D02*
X114801303Y-77263315D01*
X114801303Y-77655201D02*
X115715703Y-77655201D01*
X114801303Y-78177715D02*
X115323817Y-77785829D01*
X115715703Y-78177715D02*
X115193188Y-77655201D01*
X142388388Y-65857201D02*
X142344846Y-65813658D01*
X142344846Y-65813658D02*
X142301303Y-65683030D01*
X142301303Y-65683030D02*
X142301303Y-65595944D01*
X142301303Y-65595944D02*
X142344846Y-65465315D01*
X142344846Y-65465315D02*
X142431931Y-65378230D01*
X142431931Y-65378230D02*
X142519017Y-65334687D01*
X142519017Y-65334687D02*
X142693188Y-65291144D01*
X142693188Y-65291144D02*
X142823817Y-65291144D01*
X142823817Y-65291144D02*
X142997988Y-65334687D01*
X142997988Y-65334687D02*
X143085074Y-65378230D01*
X143085074Y-65378230D02*
X143172160Y-65465315D01*
X143172160Y-65465315D02*
X143215703Y-65595944D01*
X143215703Y-65595944D02*
X143215703Y-65683030D01*
X143215703Y-65683030D02*
X143172160Y-65813658D01*
X143172160Y-65813658D02*
X143128617Y-65857201D01*
X142910903Y-66640973D02*
X142301303Y-66640973D01*
X143259246Y-66423258D02*
X142606103Y-66205544D01*
X142606103Y-66205544D02*
X142606103Y-66771601D01*
X114801303Y-148357201D02*
X115236731Y-148052401D01*
X114801303Y-147834687D02*
X115715703Y-147834687D01*
X115715703Y-147834687D02*
X115715703Y-148183030D01*
X115715703Y-148183030D02*
X115672160Y-148270115D01*
X115672160Y-148270115D02*
X115628617Y-148313658D01*
X115628617Y-148313658D02*
X115541531Y-148357201D01*
X115541531Y-148357201D02*
X115410903Y-148357201D01*
X115410903Y-148357201D02*
X115323817Y-148313658D01*
X115323817Y-148313658D02*
X115280274Y-148270115D01*
X115280274Y-148270115D02*
X115236731Y-148183030D01*
X115236731Y-148183030D02*
X115236731Y-147834687D01*
X115628617Y-148705544D02*
X115672160Y-148749087D01*
X115672160Y-148749087D02*
X115715703Y-148836173D01*
X115715703Y-148836173D02*
X115715703Y-149053887D01*
X115715703Y-149053887D02*
X115672160Y-149140973D01*
X115672160Y-149140973D02*
X115628617Y-149184515D01*
X115628617Y-149184515D02*
X115541531Y-149228058D01*
X115541531Y-149228058D02*
X115454446Y-149228058D01*
X115454446Y-149228058D02*
X115323817Y-149184515D01*
X115323817Y-149184515D02*
X114801303Y-148662001D01*
X114801303Y-148662001D02*
X114801303Y-149228058D01*
X115715703Y-149794115D02*
X115715703Y-149881201D01*
X115715703Y-149881201D02*
X115672160Y-149968287D01*
X115672160Y-149968287D02*
X115628617Y-150011830D01*
X115628617Y-150011830D02*
X115541531Y-150055372D01*
X115541531Y-150055372D02*
X115367360Y-150098915D01*
X115367360Y-150098915D02*
X115149646Y-150098915D01*
X115149646Y-150098915D02*
X114975474Y-150055372D01*
X114975474Y-150055372D02*
X114888388Y-150011830D01*
X114888388Y-150011830D02*
X114844846Y-149968287D01*
X114844846Y-149968287D02*
X114801303Y-149881201D01*
X114801303Y-149881201D02*
X114801303Y-149794115D01*
X114801303Y-149794115D02*
X114844846Y-149707030D01*
X114844846Y-149707030D02*
X114888388Y-149663487D01*
X114888388Y-149663487D02*
X114975474Y-149619944D01*
X114975474Y-149619944D02*
X115149646Y-149576401D01*
X115149646Y-149576401D02*
X115367360Y-149576401D01*
X115367360Y-149576401D02*
X115541531Y-149619944D01*
X115541531Y-149619944D02*
X115628617Y-149663487D01*
X115628617Y-149663487D02*
X115672160Y-149707030D01*
X115672160Y-149707030D02*
X115715703Y-149794115D01*
X115149646Y-151084687D02*
X115149646Y-151781373D01*
X115715703Y-153305373D02*
X115715703Y-153131201D01*
X115715703Y-153131201D02*
X115672160Y-153044115D01*
X115672160Y-153044115D02*
X115628617Y-153000573D01*
X115628617Y-153000573D02*
X115497988Y-152913487D01*
X115497988Y-152913487D02*
X115323817Y-152869944D01*
X115323817Y-152869944D02*
X114975474Y-152869944D01*
X114975474Y-152869944D02*
X114888388Y-152913487D01*
X114888388Y-152913487D02*
X114844846Y-152957030D01*
X114844846Y-152957030D02*
X114801303Y-153044115D01*
X114801303Y-153044115D02*
X114801303Y-153218287D01*
X114801303Y-153218287D02*
X114844846Y-153305373D01*
X114844846Y-153305373D02*
X114888388Y-153348915D01*
X114888388Y-153348915D02*
X114975474Y-153392458D01*
X114975474Y-153392458D02*
X115193188Y-153392458D01*
X115193188Y-153392458D02*
X115280274Y-153348915D01*
X115280274Y-153348915D02*
X115323817Y-153305373D01*
X115323817Y-153305373D02*
X115367360Y-153218287D01*
X115367360Y-153218287D02*
X115367360Y-153044115D01*
X115367360Y-153044115D02*
X115323817Y-152957030D01*
X115323817Y-152957030D02*
X115280274Y-152913487D01*
X115280274Y-152913487D02*
X115193188Y-152869944D01*
X115628617Y-153740801D02*
X115672160Y-153784344D01*
X115672160Y-153784344D02*
X115715703Y-153871430D01*
X115715703Y-153871430D02*
X115715703Y-154089144D01*
X115715703Y-154089144D02*
X115672160Y-154176230D01*
X115672160Y-154176230D02*
X115628617Y-154219772D01*
X115628617Y-154219772D02*
X115541531Y-154263315D01*
X115541531Y-154263315D02*
X115454446Y-154263315D01*
X115454446Y-154263315D02*
X115323817Y-154219772D01*
X115323817Y-154219772D02*
X114801303Y-153697258D01*
X114801303Y-153697258D02*
X114801303Y-154263315D01*
X114801303Y-154655201D02*
X115715703Y-154655201D01*
X114801303Y-155177715D02*
X115323817Y-154785829D01*
X115715703Y-155177715D02*
X115193188Y-154655201D01*
D15*
X143714282Y-122617977D02*
X142974053Y-122617977D01*
X142974053Y-122617977D02*
X142886967Y-122661520D01*
X142886967Y-122661520D02*
X142843425Y-122705063D01*
X142843425Y-122705063D02*
X142799882Y-122792148D01*
X142799882Y-122792148D02*
X142799882Y-122966320D01*
X142799882Y-122966320D02*
X142843425Y-123053405D01*
X142843425Y-123053405D02*
X142886967Y-123096948D01*
X142886967Y-123096948D02*
X142974053Y-123140491D01*
X142974053Y-123140491D02*
X143714282Y-123140491D01*
X142799882Y-124054891D02*
X142799882Y-123532377D01*
X142799882Y-123793634D02*
X143714282Y-123793634D01*
X143714282Y-123793634D02*
X143583653Y-123706548D01*
X143583653Y-123706548D02*
X143496567Y-123619463D01*
X143496567Y-123619463D02*
X143453025Y-123532377D01*
D14*
X166051303Y-71857201D02*
X166486731Y-71552401D01*
X166051303Y-71334687D02*
X166965703Y-71334687D01*
X166965703Y-71334687D02*
X166965703Y-71683030D01*
X166965703Y-71683030D02*
X166922160Y-71770115D01*
X166922160Y-71770115D02*
X166878617Y-71813658D01*
X166878617Y-71813658D02*
X166791531Y-71857201D01*
X166791531Y-71857201D02*
X166660903Y-71857201D01*
X166660903Y-71857201D02*
X166573817Y-71813658D01*
X166573817Y-71813658D02*
X166530274Y-71770115D01*
X166530274Y-71770115D02*
X166486731Y-71683030D01*
X166486731Y-71683030D02*
X166486731Y-71334687D01*
X166051303Y-72728058D02*
X166051303Y-72205544D01*
X166051303Y-72466801D02*
X166965703Y-72466801D01*
X166965703Y-72466801D02*
X166835074Y-72379715D01*
X166835074Y-72379715D02*
X166747988Y-72292630D01*
X166747988Y-72292630D02*
X166704446Y-72205544D01*
X166399646Y-73834687D02*
X166399646Y-74531373D01*
X166051303Y-76142458D02*
X166051303Y-75619944D01*
X166051303Y-75881201D02*
X166965703Y-75881201D01*
X166965703Y-75881201D02*
X166835074Y-75794115D01*
X166835074Y-75794115D02*
X166747988Y-75707030D01*
X166747988Y-75707030D02*
X166704446Y-75619944D01*
X166965703Y-76708515D02*
X166965703Y-76795601D01*
X166965703Y-76795601D02*
X166922160Y-76882687D01*
X166922160Y-76882687D02*
X166878617Y-76926230D01*
X166878617Y-76926230D02*
X166791531Y-76969772D01*
X166791531Y-76969772D02*
X166617360Y-77013315D01*
X166617360Y-77013315D02*
X166399646Y-77013315D01*
X166399646Y-77013315D02*
X166225474Y-76969772D01*
X166225474Y-76969772D02*
X166138388Y-76926230D01*
X166138388Y-76926230D02*
X166094846Y-76882687D01*
X166094846Y-76882687D02*
X166051303Y-76795601D01*
X166051303Y-76795601D02*
X166051303Y-76708515D01*
X166051303Y-76708515D02*
X166094846Y-76621430D01*
X166094846Y-76621430D02*
X166138388Y-76577887D01*
X166138388Y-76577887D02*
X166225474Y-76534344D01*
X166225474Y-76534344D02*
X166399646Y-76490801D01*
X166399646Y-76490801D02*
X166617360Y-76490801D01*
X166617360Y-76490801D02*
X166791531Y-76534344D01*
X166791531Y-76534344D02*
X166878617Y-76577887D01*
X166878617Y-76577887D02*
X166922160Y-76621430D01*
X166922160Y-76621430D02*
X166965703Y-76708515D01*
X166051303Y-77405201D02*
X166965703Y-77405201D01*
X166051303Y-77927715D02*
X166573817Y-77535829D01*
X166965703Y-77927715D02*
X166443188Y-77405201D01*
X184301303Y-109857201D02*
X184736731Y-109552401D01*
X184301303Y-109334687D02*
X185215703Y-109334687D01*
X185215703Y-109334687D02*
X185215703Y-109683030D01*
X185215703Y-109683030D02*
X185172160Y-109770115D01*
X185172160Y-109770115D02*
X185128617Y-109813658D01*
X185128617Y-109813658D02*
X185041531Y-109857201D01*
X185041531Y-109857201D02*
X184910903Y-109857201D01*
X184910903Y-109857201D02*
X184823817Y-109813658D01*
X184823817Y-109813658D02*
X184780274Y-109770115D01*
X184780274Y-109770115D02*
X184736731Y-109683030D01*
X184736731Y-109683030D02*
X184736731Y-109334687D01*
X184301303Y-110728058D02*
X184301303Y-110205544D01*
X184301303Y-110466801D02*
X185215703Y-110466801D01*
X185215703Y-110466801D02*
X185085074Y-110379715D01*
X185085074Y-110379715D02*
X184997988Y-110292630D01*
X184997988Y-110292630D02*
X184954446Y-110205544D01*
X185215703Y-111555372D02*
X185215703Y-111119944D01*
X185215703Y-111119944D02*
X184780274Y-111076401D01*
X184780274Y-111076401D02*
X184823817Y-111119944D01*
X184823817Y-111119944D02*
X184867360Y-111207030D01*
X184867360Y-111207030D02*
X184867360Y-111424744D01*
X184867360Y-111424744D02*
X184823817Y-111511830D01*
X184823817Y-111511830D02*
X184780274Y-111555372D01*
X184780274Y-111555372D02*
X184693188Y-111598915D01*
X184693188Y-111598915D02*
X184475474Y-111598915D01*
X184475474Y-111598915D02*
X184388388Y-111555372D01*
X184388388Y-111555372D02*
X184344846Y-111511830D01*
X184344846Y-111511830D02*
X184301303Y-111424744D01*
X184301303Y-111424744D02*
X184301303Y-111207030D01*
X184301303Y-111207030D02*
X184344846Y-111119944D01*
X184344846Y-111119944D02*
X184388388Y-111076401D01*
X184649646Y-112584687D02*
X184649646Y-113281373D01*
X185215703Y-114805373D02*
X185215703Y-114631201D01*
X185215703Y-114631201D02*
X185172160Y-114544115D01*
X185172160Y-114544115D02*
X185128617Y-114500573D01*
X185128617Y-114500573D02*
X184997988Y-114413487D01*
X184997988Y-114413487D02*
X184823817Y-114369944D01*
X184823817Y-114369944D02*
X184475474Y-114369944D01*
X184475474Y-114369944D02*
X184388388Y-114413487D01*
X184388388Y-114413487D02*
X184344846Y-114457030D01*
X184344846Y-114457030D02*
X184301303Y-114544115D01*
X184301303Y-114544115D02*
X184301303Y-114718287D01*
X184301303Y-114718287D02*
X184344846Y-114805373D01*
X184344846Y-114805373D02*
X184388388Y-114848915D01*
X184388388Y-114848915D02*
X184475474Y-114892458D01*
X184475474Y-114892458D02*
X184693188Y-114892458D01*
X184693188Y-114892458D02*
X184780274Y-114848915D01*
X184780274Y-114848915D02*
X184823817Y-114805373D01*
X184823817Y-114805373D02*
X184867360Y-114718287D01*
X184867360Y-114718287D02*
X184867360Y-114544115D01*
X184867360Y-114544115D02*
X184823817Y-114457030D01*
X184823817Y-114457030D02*
X184780274Y-114413487D01*
X184780274Y-114413487D02*
X184693188Y-114369944D01*
X185128617Y-115240801D02*
X185172160Y-115284344D01*
X185172160Y-115284344D02*
X185215703Y-115371430D01*
X185215703Y-115371430D02*
X185215703Y-115589144D01*
X185215703Y-115589144D02*
X185172160Y-115676230D01*
X185172160Y-115676230D02*
X185128617Y-115719772D01*
X185128617Y-115719772D02*
X185041531Y-115763315D01*
X185041531Y-115763315D02*
X184954446Y-115763315D01*
X184954446Y-115763315D02*
X184823817Y-115719772D01*
X184823817Y-115719772D02*
X184301303Y-115197258D01*
X184301303Y-115197258D02*
X184301303Y-115763315D01*
X184301303Y-116155201D02*
X185215703Y-116155201D01*
X184301303Y-116677715D02*
X184823817Y-116285829D01*
X185215703Y-116677715D02*
X184693188Y-116155201D01*
X158138388Y-65857201D02*
X158094846Y-65813658D01*
X158094846Y-65813658D02*
X158051303Y-65683030D01*
X158051303Y-65683030D02*
X158051303Y-65595944D01*
X158051303Y-65595944D02*
X158094846Y-65465315D01*
X158094846Y-65465315D02*
X158181931Y-65378230D01*
X158181931Y-65378230D02*
X158269017Y-65334687D01*
X158269017Y-65334687D02*
X158443188Y-65291144D01*
X158443188Y-65291144D02*
X158573817Y-65291144D01*
X158573817Y-65291144D02*
X158747988Y-65334687D01*
X158747988Y-65334687D02*
X158835074Y-65378230D01*
X158835074Y-65378230D02*
X158922160Y-65465315D01*
X158922160Y-65465315D02*
X158965703Y-65595944D01*
X158965703Y-65595944D02*
X158965703Y-65683030D01*
X158965703Y-65683030D02*
X158922160Y-65813658D01*
X158922160Y-65813658D02*
X158878617Y-65857201D01*
X158965703Y-66640973D02*
X158965703Y-66466801D01*
X158965703Y-66466801D02*
X158922160Y-66379715D01*
X158922160Y-66379715D02*
X158878617Y-66336173D01*
X158878617Y-66336173D02*
X158747988Y-66249087D01*
X158747988Y-66249087D02*
X158573817Y-66205544D01*
X158573817Y-66205544D02*
X158225474Y-66205544D01*
X158225474Y-66205544D02*
X158138388Y-66249087D01*
X158138388Y-66249087D02*
X158094846Y-66292630D01*
X158094846Y-66292630D02*
X158051303Y-66379715D01*
X158051303Y-66379715D02*
X158051303Y-66553887D01*
X158051303Y-66553887D02*
X158094846Y-66640973D01*
X158094846Y-66640973D02*
X158138388Y-66684515D01*
X158138388Y-66684515D02*
X158225474Y-66728058D01*
X158225474Y-66728058D02*
X158443188Y-66728058D01*
X158443188Y-66728058D02*
X158530274Y-66684515D01*
X158530274Y-66684515D02*
X158573817Y-66640973D01*
X158573817Y-66640973D02*
X158617360Y-66553887D01*
X158617360Y-66553887D02*
X158617360Y-66379715D01*
X158617360Y-66379715D02*
X158573817Y-66292630D01*
X158573817Y-66292630D02*
X158530274Y-66249087D01*
X158530274Y-66249087D02*
X158443188Y-66205544D01*
X184301303Y-148357201D02*
X184736731Y-148052401D01*
X184301303Y-147834687D02*
X185215703Y-147834687D01*
X185215703Y-147834687D02*
X185215703Y-148183030D01*
X185215703Y-148183030D02*
X185172160Y-148270115D01*
X185172160Y-148270115D02*
X185128617Y-148313658D01*
X185128617Y-148313658D02*
X185041531Y-148357201D01*
X185041531Y-148357201D02*
X184910903Y-148357201D01*
X184910903Y-148357201D02*
X184823817Y-148313658D01*
X184823817Y-148313658D02*
X184780274Y-148270115D01*
X184780274Y-148270115D02*
X184736731Y-148183030D01*
X184736731Y-148183030D02*
X184736731Y-147834687D01*
X184301303Y-149228058D02*
X184301303Y-148705544D01*
X184301303Y-148966801D02*
X185215703Y-148966801D01*
X185215703Y-148966801D02*
X185085074Y-148879715D01*
X185085074Y-148879715D02*
X184997988Y-148792630D01*
X184997988Y-148792630D02*
X184954446Y-148705544D01*
X184301303Y-149663487D02*
X184301303Y-149837658D01*
X184301303Y-149837658D02*
X184344846Y-149924744D01*
X184344846Y-149924744D02*
X184388388Y-149968287D01*
X184388388Y-149968287D02*
X184519017Y-150055372D01*
X184519017Y-150055372D02*
X184693188Y-150098915D01*
X184693188Y-150098915D02*
X185041531Y-150098915D01*
X185041531Y-150098915D02*
X185128617Y-150055372D01*
X185128617Y-150055372D02*
X185172160Y-150011830D01*
X185172160Y-150011830D02*
X185215703Y-149924744D01*
X185215703Y-149924744D02*
X185215703Y-149750572D01*
X185215703Y-149750572D02*
X185172160Y-149663487D01*
X185172160Y-149663487D02*
X185128617Y-149619944D01*
X185128617Y-149619944D02*
X185041531Y-149576401D01*
X185041531Y-149576401D02*
X184823817Y-149576401D01*
X184823817Y-149576401D02*
X184736731Y-149619944D01*
X184736731Y-149619944D02*
X184693188Y-149663487D01*
X184693188Y-149663487D02*
X184649646Y-149750572D01*
X184649646Y-149750572D02*
X184649646Y-149924744D01*
X184649646Y-149924744D02*
X184693188Y-150011830D01*
X184693188Y-150011830D02*
X184736731Y-150055372D01*
X184736731Y-150055372D02*
X184823817Y-150098915D01*
X184649646Y-151084687D02*
X184649646Y-151781373D01*
X185215703Y-153305373D02*
X185215703Y-153131201D01*
X185215703Y-153131201D02*
X185172160Y-153044115D01*
X185172160Y-153044115D02*
X185128617Y-153000573D01*
X185128617Y-153000573D02*
X184997988Y-152913487D01*
X184997988Y-152913487D02*
X184823817Y-152869944D01*
X184823817Y-152869944D02*
X184475474Y-152869944D01*
X184475474Y-152869944D02*
X184388388Y-152913487D01*
X184388388Y-152913487D02*
X184344846Y-152957030D01*
X184344846Y-152957030D02*
X184301303Y-153044115D01*
X184301303Y-153044115D02*
X184301303Y-153218287D01*
X184301303Y-153218287D02*
X184344846Y-153305373D01*
X184344846Y-153305373D02*
X184388388Y-153348915D01*
X184388388Y-153348915D02*
X184475474Y-153392458D01*
X184475474Y-153392458D02*
X184693188Y-153392458D01*
X184693188Y-153392458D02*
X184780274Y-153348915D01*
X184780274Y-153348915D02*
X184823817Y-153305373D01*
X184823817Y-153305373D02*
X184867360Y-153218287D01*
X184867360Y-153218287D02*
X184867360Y-153044115D01*
X184867360Y-153044115D02*
X184823817Y-152957030D01*
X184823817Y-152957030D02*
X184780274Y-152913487D01*
X184780274Y-152913487D02*
X184693188Y-152869944D01*
X185128617Y-153740801D02*
X185172160Y-153784344D01*
X185172160Y-153784344D02*
X185215703Y-153871430D01*
X185215703Y-153871430D02*
X185215703Y-154089144D01*
X185215703Y-154089144D02*
X185172160Y-154176230D01*
X185172160Y-154176230D02*
X185128617Y-154219772D01*
X185128617Y-154219772D02*
X185041531Y-154263315D01*
X185041531Y-154263315D02*
X184954446Y-154263315D01*
X184954446Y-154263315D02*
X184823817Y-154219772D01*
X184823817Y-154219772D02*
X184301303Y-153697258D01*
X184301303Y-153697258D02*
X184301303Y-154263315D01*
X184301303Y-154655201D02*
X185215703Y-154655201D01*
X184301303Y-155177715D02*
X184823817Y-154785829D01*
X185215703Y-155177715D02*
X184693188Y-154655201D01*
D15*
X143964382Y-103567977D02*
X143224153Y-103567977D01*
X143224153Y-103567977D02*
X143137067Y-103611520D01*
X143137067Y-103611520D02*
X143093525Y-103655063D01*
X143093525Y-103655063D02*
X143049982Y-103742148D01*
X143049982Y-103742148D02*
X143049982Y-103916320D01*
X143049982Y-103916320D02*
X143093525Y-104003405D01*
X143093525Y-104003405D02*
X143137067Y-104046948D01*
X143137067Y-104046948D02*
X143224153Y-104090491D01*
X143224153Y-104090491D02*
X143964382Y-104090491D01*
X143964382Y-104438834D02*
X143964382Y-105004891D01*
X143964382Y-105004891D02*
X143616039Y-104700091D01*
X143616039Y-104700091D02*
X143616039Y-104830720D01*
X143616039Y-104830720D02*
X143572496Y-104917806D01*
X143572496Y-104917806D02*
X143528953Y-104961348D01*
X143528953Y-104961348D02*
X143441867Y-105004891D01*
X143441867Y-105004891D02*
X143224153Y-105004891D01*
X143224153Y-105004891D02*
X143137067Y-104961348D01*
X143137067Y-104961348D02*
X143093525Y-104917806D01*
X143093525Y-104917806D02*
X143049982Y-104830720D01*
X143049982Y-104830720D02*
X143049982Y-104569463D01*
X143049982Y-104569463D02*
X143093525Y-104482377D01*
X143093525Y-104482377D02*
X143137067Y-104438834D01*
D14*
X141888388Y-131107201D02*
X141844846Y-131063658D01*
X141844846Y-131063658D02*
X141801303Y-130933030D01*
X141801303Y-130933030D02*
X141801303Y-130845944D01*
X141801303Y-130845944D02*
X141844846Y-130715315D01*
X141844846Y-130715315D02*
X141931931Y-130628230D01*
X141931931Y-130628230D02*
X142019017Y-130584687D01*
X142019017Y-130584687D02*
X142193188Y-130541144D01*
X142193188Y-130541144D02*
X142323817Y-130541144D01*
X142323817Y-130541144D02*
X142497988Y-130584687D01*
X142497988Y-130584687D02*
X142585074Y-130628230D01*
X142585074Y-130628230D02*
X142672160Y-130715315D01*
X142672160Y-130715315D02*
X142715703Y-130845944D01*
X142715703Y-130845944D02*
X142715703Y-130933030D01*
X142715703Y-130933030D02*
X142672160Y-131063658D01*
X142672160Y-131063658D02*
X142628617Y-131107201D01*
X141801303Y-131978058D02*
X141801303Y-131455544D01*
X141801303Y-131716801D02*
X142715703Y-131716801D01*
X142715703Y-131716801D02*
X142585074Y-131629715D01*
X142585074Y-131629715D02*
X142497988Y-131542630D01*
X142497988Y-131542630D02*
X142454446Y-131455544D01*
X142138388Y-91607201D02*
X142094846Y-91563658D01*
X142094846Y-91563658D02*
X142051303Y-91433030D01*
X142051303Y-91433030D02*
X142051303Y-91345944D01*
X142051303Y-91345944D02*
X142094846Y-91215315D01*
X142094846Y-91215315D02*
X142181931Y-91128230D01*
X142181931Y-91128230D02*
X142269017Y-91084687D01*
X142269017Y-91084687D02*
X142443188Y-91041144D01*
X142443188Y-91041144D02*
X142573817Y-91041144D01*
X142573817Y-91041144D02*
X142747988Y-91084687D01*
X142747988Y-91084687D02*
X142835074Y-91128230D01*
X142835074Y-91128230D02*
X142922160Y-91215315D01*
X142922160Y-91215315D02*
X142965703Y-91345944D01*
X142965703Y-91345944D02*
X142965703Y-91433030D01*
X142965703Y-91433030D02*
X142922160Y-91563658D01*
X142922160Y-91563658D02*
X142878617Y-91607201D01*
X142965703Y-91912001D02*
X142965703Y-92478058D01*
X142965703Y-92478058D02*
X142617360Y-92173258D01*
X142617360Y-92173258D02*
X142617360Y-92303887D01*
X142617360Y-92303887D02*
X142573817Y-92390973D01*
X142573817Y-92390973D02*
X142530274Y-92434515D01*
X142530274Y-92434515D02*
X142443188Y-92478058D01*
X142443188Y-92478058D02*
X142225474Y-92478058D01*
X142225474Y-92478058D02*
X142138388Y-92434515D01*
X142138388Y-92434515D02*
X142094846Y-92390973D01*
X142094846Y-92390973D02*
X142051303Y-92303887D01*
X142051303Y-92303887D02*
X142051303Y-92042630D01*
X142051303Y-92042630D02*
X142094846Y-91955544D01*
X142094846Y-91955544D02*
X142138388Y-91912001D01*
X166051303Y-129857201D02*
X166486731Y-129552401D01*
X166051303Y-129334687D02*
X166965703Y-129334687D01*
X166965703Y-129334687D02*
X166965703Y-129683030D01*
X166965703Y-129683030D02*
X166922160Y-129770115D01*
X166922160Y-129770115D02*
X166878617Y-129813658D01*
X166878617Y-129813658D02*
X166791531Y-129857201D01*
X166791531Y-129857201D02*
X166660903Y-129857201D01*
X166660903Y-129857201D02*
X166573817Y-129813658D01*
X166573817Y-129813658D02*
X166530274Y-129770115D01*
X166530274Y-129770115D02*
X166486731Y-129683030D01*
X166486731Y-129683030D02*
X166486731Y-129334687D01*
X166965703Y-130162001D02*
X166965703Y-130771601D01*
X166965703Y-130771601D02*
X166051303Y-130379715D01*
X166399646Y-131834687D02*
X166399646Y-132531373D01*
X166051303Y-134142458D02*
X166051303Y-133619944D01*
X166051303Y-133881201D02*
X166965703Y-133881201D01*
X166965703Y-133881201D02*
X166835074Y-133794115D01*
X166835074Y-133794115D02*
X166747988Y-133707030D01*
X166747988Y-133707030D02*
X166704446Y-133619944D01*
X166965703Y-134708515D02*
X166965703Y-134795601D01*
X166965703Y-134795601D02*
X166922160Y-134882687D01*
X166922160Y-134882687D02*
X166878617Y-134926230D01*
X166878617Y-134926230D02*
X166791531Y-134969772D01*
X166791531Y-134969772D02*
X166617360Y-135013315D01*
X166617360Y-135013315D02*
X166399646Y-135013315D01*
X166399646Y-135013315D02*
X166225474Y-134969772D01*
X166225474Y-134969772D02*
X166138388Y-134926230D01*
X166138388Y-134926230D02*
X166094846Y-134882687D01*
X166094846Y-134882687D02*
X166051303Y-134795601D01*
X166051303Y-134795601D02*
X166051303Y-134708515D01*
X166051303Y-134708515D02*
X166094846Y-134621430D01*
X166094846Y-134621430D02*
X166138388Y-134577887D01*
X166138388Y-134577887D02*
X166225474Y-134534344D01*
X166225474Y-134534344D02*
X166399646Y-134490801D01*
X166399646Y-134490801D02*
X166617360Y-134490801D01*
X166617360Y-134490801D02*
X166791531Y-134534344D01*
X166791531Y-134534344D02*
X166878617Y-134577887D01*
X166878617Y-134577887D02*
X166922160Y-134621430D01*
X166922160Y-134621430D02*
X166965703Y-134708515D01*
X166051303Y-135405201D02*
X166965703Y-135405201D01*
X166051303Y-135927715D02*
X166573817Y-135535829D01*
X166965703Y-135927715D02*
X166443188Y-135405201D01*
D15*
X159464282Y-122617977D02*
X158724053Y-122617977D01*
X158724053Y-122617977D02*
X158636967Y-122661520D01*
X158636967Y-122661520D02*
X158593425Y-122705063D01*
X158593425Y-122705063D02*
X158549882Y-122792148D01*
X158549882Y-122792148D02*
X158549882Y-122966320D01*
X158549882Y-122966320D02*
X158593425Y-123053405D01*
X158593425Y-123053405D02*
X158636967Y-123096948D01*
X158636967Y-123096948D02*
X158724053Y-123140491D01*
X158724053Y-123140491D02*
X159464282Y-123140491D01*
X159377196Y-123532377D02*
X159420739Y-123575920D01*
X159420739Y-123575920D02*
X159464282Y-123663006D01*
X159464282Y-123663006D02*
X159464282Y-123880720D01*
X159464282Y-123880720D02*
X159420739Y-123967806D01*
X159420739Y-123967806D02*
X159377196Y-124011348D01*
X159377196Y-124011348D02*
X159290110Y-124054891D01*
X159290110Y-124054891D02*
X159203025Y-124054891D01*
X159203025Y-124054891D02*
X159072396Y-124011348D01*
X159072396Y-124011348D02*
X158549882Y-123488834D01*
X158549882Y-123488834D02*
X158549882Y-124054891D01*
D14*
X114801303Y-90857201D02*
X115236731Y-90552401D01*
X114801303Y-90334687D02*
X115715703Y-90334687D01*
X115715703Y-90334687D02*
X115715703Y-90683030D01*
X115715703Y-90683030D02*
X115672160Y-90770115D01*
X115672160Y-90770115D02*
X115628617Y-90813658D01*
X115628617Y-90813658D02*
X115541531Y-90857201D01*
X115541531Y-90857201D02*
X115410903Y-90857201D01*
X115410903Y-90857201D02*
X115323817Y-90813658D01*
X115323817Y-90813658D02*
X115280274Y-90770115D01*
X115280274Y-90770115D02*
X115236731Y-90683030D01*
X115236731Y-90683030D02*
X115236731Y-90334687D01*
X114801303Y-91728058D02*
X114801303Y-91205544D01*
X114801303Y-91466801D02*
X115715703Y-91466801D01*
X115715703Y-91466801D02*
X115585074Y-91379715D01*
X115585074Y-91379715D02*
X115497988Y-91292630D01*
X115497988Y-91292630D02*
X115454446Y-91205544D01*
X115410903Y-92511830D02*
X114801303Y-92511830D01*
X115759246Y-92294115D02*
X115106103Y-92076401D01*
X115106103Y-92076401D02*
X115106103Y-92642458D01*
X115149646Y-93584687D02*
X115149646Y-94281373D01*
X115715703Y-95805373D02*
X115715703Y-95631201D01*
X115715703Y-95631201D02*
X115672160Y-95544115D01*
X115672160Y-95544115D02*
X115628617Y-95500573D01*
X115628617Y-95500573D02*
X115497988Y-95413487D01*
X115497988Y-95413487D02*
X115323817Y-95369944D01*
X115323817Y-95369944D02*
X114975474Y-95369944D01*
X114975474Y-95369944D02*
X114888388Y-95413487D01*
X114888388Y-95413487D02*
X114844846Y-95457030D01*
X114844846Y-95457030D02*
X114801303Y-95544115D01*
X114801303Y-95544115D02*
X114801303Y-95718287D01*
X114801303Y-95718287D02*
X114844846Y-95805373D01*
X114844846Y-95805373D02*
X114888388Y-95848915D01*
X114888388Y-95848915D02*
X114975474Y-95892458D01*
X114975474Y-95892458D02*
X115193188Y-95892458D01*
X115193188Y-95892458D02*
X115280274Y-95848915D01*
X115280274Y-95848915D02*
X115323817Y-95805373D01*
X115323817Y-95805373D02*
X115367360Y-95718287D01*
X115367360Y-95718287D02*
X115367360Y-95544115D01*
X115367360Y-95544115D02*
X115323817Y-95457030D01*
X115323817Y-95457030D02*
X115280274Y-95413487D01*
X115280274Y-95413487D02*
X115193188Y-95369944D01*
X115628617Y-96240801D02*
X115672160Y-96284344D01*
X115672160Y-96284344D02*
X115715703Y-96371430D01*
X115715703Y-96371430D02*
X115715703Y-96589144D01*
X115715703Y-96589144D02*
X115672160Y-96676230D01*
X115672160Y-96676230D02*
X115628617Y-96719772D01*
X115628617Y-96719772D02*
X115541531Y-96763315D01*
X115541531Y-96763315D02*
X115454446Y-96763315D01*
X115454446Y-96763315D02*
X115323817Y-96719772D01*
X115323817Y-96719772D02*
X114801303Y-96197258D01*
X114801303Y-96197258D02*
X114801303Y-96763315D01*
X114801303Y-97155201D02*
X115715703Y-97155201D01*
X114801303Y-97677715D02*
X115323817Y-97285829D01*
X115715703Y-97677715D02*
X115193188Y-97155201D01*
X184301303Y-129357201D02*
X184736731Y-129052401D01*
X184301303Y-128834687D02*
X185215703Y-128834687D01*
X185215703Y-128834687D02*
X185215703Y-129183030D01*
X185215703Y-129183030D02*
X185172160Y-129270115D01*
X185172160Y-129270115D02*
X185128617Y-129313658D01*
X185128617Y-129313658D02*
X185041531Y-129357201D01*
X185041531Y-129357201D02*
X184910903Y-129357201D01*
X184910903Y-129357201D02*
X184823817Y-129313658D01*
X184823817Y-129313658D02*
X184780274Y-129270115D01*
X184780274Y-129270115D02*
X184736731Y-129183030D01*
X184736731Y-129183030D02*
X184736731Y-128834687D01*
X184301303Y-130228058D02*
X184301303Y-129705544D01*
X184301303Y-129966801D02*
X185215703Y-129966801D01*
X185215703Y-129966801D02*
X185085074Y-129879715D01*
X185085074Y-129879715D02*
X184997988Y-129792630D01*
X184997988Y-129792630D02*
X184954446Y-129705544D01*
X185215703Y-130532858D02*
X185215703Y-131142458D01*
X185215703Y-131142458D02*
X184301303Y-130750572D01*
X184649646Y-132084687D02*
X184649646Y-132781373D01*
X185215703Y-134305373D02*
X185215703Y-134131201D01*
X185215703Y-134131201D02*
X185172160Y-134044115D01*
X185172160Y-134044115D02*
X185128617Y-134000573D01*
X185128617Y-134000573D02*
X184997988Y-133913487D01*
X184997988Y-133913487D02*
X184823817Y-133869944D01*
X184823817Y-133869944D02*
X184475474Y-133869944D01*
X184475474Y-133869944D02*
X184388388Y-133913487D01*
X184388388Y-133913487D02*
X184344846Y-133957030D01*
X184344846Y-133957030D02*
X184301303Y-134044115D01*
X184301303Y-134044115D02*
X184301303Y-134218287D01*
X184301303Y-134218287D02*
X184344846Y-134305373D01*
X184344846Y-134305373D02*
X184388388Y-134348915D01*
X184388388Y-134348915D02*
X184475474Y-134392458D01*
X184475474Y-134392458D02*
X184693188Y-134392458D01*
X184693188Y-134392458D02*
X184780274Y-134348915D01*
X184780274Y-134348915D02*
X184823817Y-134305373D01*
X184823817Y-134305373D02*
X184867360Y-134218287D01*
X184867360Y-134218287D02*
X184867360Y-134044115D01*
X184867360Y-134044115D02*
X184823817Y-133957030D01*
X184823817Y-133957030D02*
X184780274Y-133913487D01*
X184780274Y-133913487D02*
X184693188Y-133869944D01*
X185128617Y-134740801D02*
X185172160Y-134784344D01*
X185172160Y-134784344D02*
X185215703Y-134871430D01*
X185215703Y-134871430D02*
X185215703Y-135089144D01*
X185215703Y-135089144D02*
X185172160Y-135176230D01*
X185172160Y-135176230D02*
X185128617Y-135219772D01*
X185128617Y-135219772D02*
X185041531Y-135263315D01*
X185041531Y-135263315D02*
X184954446Y-135263315D01*
X184954446Y-135263315D02*
X184823817Y-135219772D01*
X184823817Y-135219772D02*
X184301303Y-134697258D01*
X184301303Y-134697258D02*
X184301303Y-135263315D01*
X184301303Y-135655201D02*
X185215703Y-135655201D01*
X184301303Y-136177715D02*
X184823817Y-135785829D01*
X185215703Y-136177715D02*
X184693188Y-135655201D01*
D15*
X159764282Y-103317777D02*
X159024053Y-103317777D01*
X159024053Y-103317777D02*
X158936967Y-103361320D01*
X158936967Y-103361320D02*
X158893425Y-103404863D01*
X158893425Y-103404863D02*
X158849882Y-103491948D01*
X158849882Y-103491948D02*
X158849882Y-103666120D01*
X158849882Y-103666120D02*
X158893425Y-103753205D01*
X158893425Y-103753205D02*
X158936967Y-103796748D01*
X158936967Y-103796748D02*
X159024053Y-103840291D01*
X159024053Y-103840291D02*
X159764282Y-103840291D01*
X159764282Y-104711148D02*
X159764282Y-104275720D01*
X159764282Y-104275720D02*
X159328853Y-104232177D01*
X159328853Y-104232177D02*
X159372396Y-104275720D01*
X159372396Y-104275720D02*
X159415939Y-104362806D01*
X159415939Y-104362806D02*
X159415939Y-104580520D01*
X159415939Y-104580520D02*
X159372396Y-104667606D01*
X159372396Y-104667606D02*
X159328853Y-104711148D01*
X159328853Y-104711148D02*
X159241767Y-104754691D01*
X159241767Y-104754691D02*
X159024053Y-104754691D01*
X159024053Y-104754691D02*
X158936967Y-104711148D01*
X158936967Y-104711148D02*
X158893425Y-104667606D01*
X158893425Y-104667606D02*
X158849882Y-104580520D01*
X158849882Y-104580520D02*
X158849882Y-104362806D01*
X158849882Y-104362806D02*
X158893425Y-104275720D01*
X158893425Y-104275720D02*
X158936967Y-104232177D01*
D14*
X184301303Y-90857201D02*
X184736731Y-90552401D01*
X184301303Y-90334687D02*
X185215703Y-90334687D01*
X185215703Y-90334687D02*
X185215703Y-90683030D01*
X185215703Y-90683030D02*
X185172160Y-90770115D01*
X185172160Y-90770115D02*
X185128617Y-90813658D01*
X185128617Y-90813658D02*
X185041531Y-90857201D01*
X185041531Y-90857201D02*
X184910903Y-90857201D01*
X184910903Y-90857201D02*
X184823817Y-90813658D01*
X184823817Y-90813658D02*
X184780274Y-90770115D01*
X184780274Y-90770115D02*
X184736731Y-90683030D01*
X184736731Y-90683030D02*
X184736731Y-90334687D01*
X184301303Y-91728058D02*
X184301303Y-91205544D01*
X184301303Y-91466801D02*
X185215703Y-91466801D01*
X185215703Y-91466801D02*
X185085074Y-91379715D01*
X185085074Y-91379715D02*
X184997988Y-91292630D01*
X184997988Y-91292630D02*
X184954446Y-91205544D01*
X185215703Y-92032858D02*
X185215703Y-92598915D01*
X185215703Y-92598915D02*
X184867360Y-92294115D01*
X184867360Y-92294115D02*
X184867360Y-92424744D01*
X184867360Y-92424744D02*
X184823817Y-92511830D01*
X184823817Y-92511830D02*
X184780274Y-92555372D01*
X184780274Y-92555372D02*
X184693188Y-92598915D01*
X184693188Y-92598915D02*
X184475474Y-92598915D01*
X184475474Y-92598915D02*
X184388388Y-92555372D01*
X184388388Y-92555372D02*
X184344846Y-92511830D01*
X184344846Y-92511830D02*
X184301303Y-92424744D01*
X184301303Y-92424744D02*
X184301303Y-92163487D01*
X184301303Y-92163487D02*
X184344846Y-92076401D01*
X184344846Y-92076401D02*
X184388388Y-92032858D01*
X184649646Y-93584687D02*
X184649646Y-94281373D01*
X185215703Y-95805373D02*
X185215703Y-95631201D01*
X185215703Y-95631201D02*
X185172160Y-95544115D01*
X185172160Y-95544115D02*
X185128617Y-95500573D01*
X185128617Y-95500573D02*
X184997988Y-95413487D01*
X184997988Y-95413487D02*
X184823817Y-95369944D01*
X184823817Y-95369944D02*
X184475474Y-95369944D01*
X184475474Y-95369944D02*
X184388388Y-95413487D01*
X184388388Y-95413487D02*
X184344846Y-95457030D01*
X184344846Y-95457030D02*
X184301303Y-95544115D01*
X184301303Y-95544115D02*
X184301303Y-95718287D01*
X184301303Y-95718287D02*
X184344846Y-95805373D01*
X184344846Y-95805373D02*
X184388388Y-95848915D01*
X184388388Y-95848915D02*
X184475474Y-95892458D01*
X184475474Y-95892458D02*
X184693188Y-95892458D01*
X184693188Y-95892458D02*
X184780274Y-95848915D01*
X184780274Y-95848915D02*
X184823817Y-95805373D01*
X184823817Y-95805373D02*
X184867360Y-95718287D01*
X184867360Y-95718287D02*
X184867360Y-95544115D01*
X184867360Y-95544115D02*
X184823817Y-95457030D01*
X184823817Y-95457030D02*
X184780274Y-95413487D01*
X184780274Y-95413487D02*
X184693188Y-95369944D01*
X185128617Y-96240801D02*
X185172160Y-96284344D01*
X185172160Y-96284344D02*
X185215703Y-96371430D01*
X185215703Y-96371430D02*
X185215703Y-96589144D01*
X185215703Y-96589144D02*
X185172160Y-96676230D01*
X185172160Y-96676230D02*
X185128617Y-96719772D01*
X185128617Y-96719772D02*
X185041531Y-96763315D01*
X185041531Y-96763315D02*
X184954446Y-96763315D01*
X184954446Y-96763315D02*
X184823817Y-96719772D01*
X184823817Y-96719772D02*
X184301303Y-96197258D01*
X184301303Y-96197258D02*
X184301303Y-96763315D01*
X184301303Y-97155201D02*
X185215703Y-97155201D01*
X184301303Y-97677715D02*
X184823817Y-97285829D01*
X185215703Y-97677715D02*
X184693188Y-97155201D01*
X132801303Y-148357201D02*
X133236731Y-148052401D01*
X132801303Y-147834687D02*
X133715703Y-147834687D01*
X133715703Y-147834687D02*
X133715703Y-148183030D01*
X133715703Y-148183030D02*
X133672160Y-148270115D01*
X133672160Y-148270115D02*
X133628617Y-148313658D01*
X133628617Y-148313658D02*
X133541531Y-148357201D01*
X133541531Y-148357201D02*
X133410903Y-148357201D01*
X133410903Y-148357201D02*
X133323817Y-148313658D01*
X133323817Y-148313658D02*
X133280274Y-148270115D01*
X133280274Y-148270115D02*
X133236731Y-148183030D01*
X133236731Y-148183030D02*
X133236731Y-147834687D01*
X132801303Y-149228058D02*
X132801303Y-148705544D01*
X132801303Y-148966801D02*
X133715703Y-148966801D01*
X133715703Y-148966801D02*
X133585074Y-148879715D01*
X133585074Y-148879715D02*
X133497988Y-148792630D01*
X133497988Y-148792630D02*
X133454446Y-148705544D01*
X133715703Y-149794115D02*
X133715703Y-149881201D01*
X133715703Y-149881201D02*
X133672160Y-149968287D01*
X133672160Y-149968287D02*
X133628617Y-150011830D01*
X133628617Y-150011830D02*
X133541531Y-150055372D01*
X133541531Y-150055372D02*
X133367360Y-150098915D01*
X133367360Y-150098915D02*
X133149646Y-150098915D01*
X133149646Y-150098915D02*
X132975474Y-150055372D01*
X132975474Y-150055372D02*
X132888388Y-150011830D01*
X132888388Y-150011830D02*
X132844846Y-149968287D01*
X132844846Y-149968287D02*
X132801303Y-149881201D01*
X132801303Y-149881201D02*
X132801303Y-149794115D01*
X132801303Y-149794115D02*
X132844846Y-149707030D01*
X132844846Y-149707030D02*
X132888388Y-149663487D01*
X132888388Y-149663487D02*
X132975474Y-149619944D01*
X132975474Y-149619944D02*
X133149646Y-149576401D01*
X133149646Y-149576401D02*
X133367360Y-149576401D01*
X133367360Y-149576401D02*
X133541531Y-149619944D01*
X133541531Y-149619944D02*
X133628617Y-149663487D01*
X133628617Y-149663487D02*
X133672160Y-149707030D01*
X133672160Y-149707030D02*
X133715703Y-149794115D01*
X133149646Y-151084687D02*
X133149646Y-151781373D01*
X132801303Y-153392458D02*
X132801303Y-152869944D01*
X132801303Y-153131201D02*
X133715703Y-153131201D01*
X133715703Y-153131201D02*
X133585074Y-153044115D01*
X133585074Y-153044115D02*
X133497988Y-152957030D01*
X133497988Y-152957030D02*
X133454446Y-152869944D01*
X133715703Y-153958515D02*
X133715703Y-154045601D01*
X133715703Y-154045601D02*
X133672160Y-154132687D01*
X133672160Y-154132687D02*
X133628617Y-154176230D01*
X133628617Y-154176230D02*
X133541531Y-154219772D01*
X133541531Y-154219772D02*
X133367360Y-154263315D01*
X133367360Y-154263315D02*
X133149646Y-154263315D01*
X133149646Y-154263315D02*
X132975474Y-154219772D01*
X132975474Y-154219772D02*
X132888388Y-154176230D01*
X132888388Y-154176230D02*
X132844846Y-154132687D01*
X132844846Y-154132687D02*
X132801303Y-154045601D01*
X132801303Y-154045601D02*
X132801303Y-153958515D01*
X132801303Y-153958515D02*
X132844846Y-153871430D01*
X132844846Y-153871430D02*
X132888388Y-153827887D01*
X132888388Y-153827887D02*
X132975474Y-153784344D01*
X132975474Y-153784344D02*
X133149646Y-153740801D01*
X133149646Y-153740801D02*
X133367360Y-153740801D01*
X133367360Y-153740801D02*
X133541531Y-153784344D01*
X133541531Y-153784344D02*
X133628617Y-153827887D01*
X133628617Y-153827887D02*
X133672160Y-153871430D01*
X133672160Y-153871430D02*
X133715703Y-153958515D01*
X132801303Y-154655201D02*
X133715703Y-154655201D01*
X132801303Y-155177715D02*
X133323817Y-154785829D01*
X133715703Y-155177715D02*
X133193188Y-154655201D01*
%TO.C,R2*%
D10*
X132037500Y-68000100D02*
X132037500Y-80999800D01*
X132037500Y-80999800D02*
X134539400Y-80999800D01*
X134287900Y-68000100D02*
X132037500Y-68000100D01*
X134539400Y-68000100D02*
X134287900Y-68000100D01*
X134539400Y-80999800D02*
X134539400Y-68000100D01*
%TO.C,R9*%
X165287500Y-145000100D02*
X165287500Y-157999800D01*
X165287500Y-157999800D02*
X167789400Y-157999800D01*
X167537900Y-145000100D02*
X165287500Y-145000100D01*
X167789400Y-145000100D02*
X167537900Y-145000100D01*
X167789400Y-157999800D02*
X167789400Y-145000100D01*
%TO.C,R18*%
X114037500Y-126000100D02*
X114037500Y-138999800D01*
X114037500Y-138999800D02*
X116539400Y-138999800D01*
X116287900Y-126000100D02*
X114037500Y-126000100D01*
X116539400Y-126000100D02*
X116287900Y-126000100D01*
X116539400Y-138999800D02*
X116539400Y-126000100D01*
%TO.C,R16*%
X114037500Y-106500100D02*
X114037500Y-119499800D01*
X114037500Y-119499800D02*
X116539400Y-119499800D01*
X116287900Y-106500100D02*
X114037500Y-106500100D01*
X116539400Y-106500100D02*
X116287900Y-106500100D01*
X116539400Y-119499800D02*
X116539400Y-106500100D01*
%TO.C,C5*%
X154462400Y-90450000D02*
X154462400Y-92949300D01*
X154462400Y-92949300D02*
X154711400Y-92949300D01*
X154711400Y-92949300D02*
X161960500Y-92949300D01*
X161960500Y-90450000D02*
X154462400Y-90450000D01*
X161960500Y-92949300D02*
X161960500Y-90450000D01*
%TO.C,U4*%
X139000000Y-68600000D02*
X139000000Y-68879300D01*
X139000000Y-68600000D02*
X141199900Y-68600000D01*
X139000000Y-70540700D02*
X139000000Y-71419300D01*
X139000000Y-73080700D02*
X139000000Y-73959300D01*
X139000000Y-75620700D02*
X139000000Y-76499300D01*
X139000000Y-78160700D02*
X139000000Y-79039300D01*
X139000000Y-80700700D02*
X139000000Y-81579300D01*
X139000000Y-83240700D02*
X139000000Y-84119300D01*
X139000000Y-85780700D02*
X139000000Y-86659300D01*
X139000000Y-88320700D02*
X139000000Y-88600000D01*
X139000000Y-88600000D02*
X145399800Y-88600000D01*
X143198100Y-68600000D02*
X145398000Y-68600000D01*
X145398000Y-68600000D02*
X145398000Y-68880700D01*
X145398000Y-70539300D02*
X145398000Y-71420700D01*
X145398000Y-73079300D02*
X145398000Y-73960700D01*
X145398000Y-75619300D02*
X145398000Y-76500700D01*
X145398000Y-78159300D02*
X145398000Y-79040700D01*
X145398000Y-80699300D02*
X145398000Y-81580700D01*
X145398000Y-83239300D02*
X145398000Y-84120700D01*
X145398000Y-85779300D02*
X145398000Y-86660700D01*
X145398000Y-88319300D02*
X145398000Y-88600000D01*
X143199900Y-68600000D02*
G75*
G02*
X141199901Y-68650100I-1000001J-24999D01*
G01*
X140300400Y-69750300D02*
G75*
G02*
X139700400Y-69750300I-300000J0D01*
G01*
X139700400Y-69750300D02*
G75*
G02*
X140300400Y-69750300I300000J0D01*
G01*
%TO.C,R5*%
X165287500Y-106500100D02*
X165287500Y-119499800D01*
X165287500Y-119499800D02*
X167789400Y-119499800D01*
X167537900Y-106500100D02*
X165287500Y-106500100D01*
X167789400Y-106500100D02*
X167537900Y-106500100D01*
X167789400Y-119499800D02*
X167789400Y-106500100D01*
%TO.C,R8*%
X132037500Y-126000100D02*
X132037500Y-138999800D01*
X132037500Y-138999800D02*
X134539400Y-138999800D01*
X134287900Y-126000100D02*
X132037500Y-126000100D01*
X134539400Y-126000100D02*
X134287900Y-126000100D01*
X134539400Y-138999800D02*
X134539400Y-126000100D01*
%TO.C,R3*%
X165287500Y-87500100D02*
X165287500Y-100499800D01*
X165287500Y-100499800D02*
X167789400Y-100499800D01*
X167537900Y-87500100D02*
X165287500Y-87500100D01*
X167789400Y-87500100D02*
X167537900Y-87500100D01*
X167789400Y-100499800D02*
X167789400Y-87500100D01*
%TO.C,C2*%
X154289400Y-129950600D02*
X154289400Y-132449900D01*
X154289400Y-132449900D02*
X161787500Y-132449900D01*
X161538500Y-129950600D02*
X154289400Y-129950600D01*
X161787500Y-129950600D02*
X161538500Y-129950600D01*
X161787500Y-132449900D02*
X161787500Y-129950600D01*
%TO.C,R4*%
X132037500Y-87500100D02*
X132037500Y-100499800D01*
X132037500Y-100499800D02*
X134539400Y-100499800D01*
X134287900Y-87500100D02*
X132037500Y-87500100D01*
X134539400Y-87500100D02*
X134287900Y-87500100D01*
X134539400Y-100499800D02*
X134539400Y-87500100D01*
%TO.C,R11*%
X183537500Y-68000100D02*
X183537500Y-80999800D01*
X183537500Y-80999800D02*
X186039400Y-80999800D01*
X185787900Y-68000100D02*
X183537500Y-68000100D01*
X186039400Y-68000100D02*
X185787900Y-68000100D01*
X186039400Y-80999800D02*
X186039400Y-68000100D01*
%TO.C,U6*%
X154600000Y-68600000D02*
X154600000Y-68879300D01*
X154600000Y-68600000D02*
X156799900Y-68600000D01*
X154600000Y-70540700D02*
X154600000Y-71419300D01*
X154600000Y-73080700D02*
X154600000Y-73959300D01*
X154600000Y-75620700D02*
X154600000Y-76499300D01*
X154600000Y-78160700D02*
X154600000Y-79039300D01*
X154600000Y-80700700D02*
X154600000Y-81579300D01*
X154600000Y-83240700D02*
X154600000Y-84119300D01*
X154600000Y-85780700D02*
X154600000Y-86659300D01*
X154600000Y-88320700D02*
X154600000Y-88600000D01*
X154600000Y-88600000D02*
X160999800Y-88600000D01*
X158798100Y-68600000D02*
X160998000Y-68600000D01*
X160998000Y-68600000D02*
X160998000Y-68880700D01*
X160998000Y-70539300D02*
X160998000Y-71420700D01*
X160998000Y-73079300D02*
X160998000Y-73960700D01*
X160998000Y-75619300D02*
X160998000Y-76500700D01*
X160998000Y-78159300D02*
X160998000Y-79040700D01*
X160998000Y-80699300D02*
X160998000Y-81580700D01*
X160998000Y-83239300D02*
X160998000Y-84120700D01*
X160998000Y-85779300D02*
X160998000Y-86660700D01*
X160998000Y-88319300D02*
X160998000Y-88600000D01*
X158799900Y-68600000D02*
G75*
G02*
X156799901Y-68650100I-1000001J-24999D01*
G01*
X155900100Y-69750300D02*
G75*
G02*
X155300100Y-69750300I-300000J0D01*
G01*
X155300100Y-69750300D02*
G75*
G02*
X155900100Y-69750300I300000J0D01*
G01*
%TO.C,C-MAIN*%
X143520000Y-143282000D02*
X143520000Y-142266000D01*
X144028000Y-142774000D02*
X143012000Y-142774000D01*
X145399200Y-141249800D02*
G75*
G02*
X139100000Y-141249800I-3149600J0D01*
G01*
X139100000Y-141249800D02*
G75*
G02*
X145399200Y-141249800I3149600J0D01*
G01*
%TO.C,R6*%
X132037500Y-106500100D02*
X132037500Y-119499800D01*
X132037500Y-119499800D02*
X134539400Y-119499800D01*
X134287900Y-106500100D02*
X132037500Y-106500100D01*
X134539400Y-106500100D02*
X134287900Y-106500100D01*
X134539400Y-119499800D02*
X134539400Y-106500100D01*
%TO.C,R12*%
X114037500Y-68000100D02*
X114037500Y-80999800D01*
X114037500Y-80999800D02*
X116539400Y-80999800D01*
X116287900Y-68000100D02*
X114037500Y-68000100D01*
X116539400Y-68000100D02*
X116287900Y-68000100D01*
X116539400Y-80999800D02*
X116539400Y-68000100D01*
%TO.C,C4*%
X139062400Y-64850100D02*
X139062400Y-67349400D01*
X139062400Y-67349400D02*
X139311400Y-67349400D01*
X139311400Y-67349400D02*
X146560500Y-67349400D01*
X146560500Y-64850100D02*
X139062400Y-64850100D01*
X146560500Y-67349400D02*
X146560500Y-64850100D01*
%TO.C,R20*%
X114037500Y-145000100D02*
X114037500Y-157999800D01*
X114037500Y-157999800D02*
X116539400Y-157999800D01*
X116287900Y-145000100D02*
X114037500Y-145000100D01*
X116539400Y-145000100D02*
X116287900Y-145000100D01*
X116539400Y-157999800D02*
X116539400Y-145000100D01*
%TO.C,U1*%
X138886500Y-119300000D02*
X145113500Y-119300000D01*
X139078200Y-122031200D02*
X139078200Y-120888800D01*
X139078200Y-124571200D02*
X139078200Y-123428800D01*
X139078200Y-127111200D02*
X139078200Y-125968800D01*
X140983200Y-128700000D02*
X138886500Y-128700000D01*
X143015200Y-128700000D02*
X145113500Y-128700000D01*
X144920200Y-122033200D02*
X144920200Y-120886800D01*
X144920200Y-124573200D02*
X144920200Y-123426800D01*
X144920200Y-127113200D02*
X144920200Y-125966800D01*
X140983200Y-128700000D02*
G75*
G02*
X143015200Y-128700000I1016000J0D01*
G01*
%TO.C,R1*%
X165287500Y-68000100D02*
X165287500Y-80999800D01*
X165287500Y-80999800D02*
X167789400Y-80999800D01*
X167537900Y-68000100D02*
X165287500Y-68000100D01*
X167789400Y-68000100D02*
X167537900Y-68000100D01*
X167789400Y-80999800D02*
X167789400Y-68000100D01*
%TO.C,R15*%
X183537500Y-106500100D02*
X183537500Y-119499800D01*
X183537500Y-119499800D02*
X186039400Y-119499800D01*
X185787900Y-106500100D02*
X183537500Y-106500100D01*
X186039400Y-106500100D02*
X185787900Y-106500100D01*
X186039400Y-119499800D02*
X186039400Y-106500100D01*
%TO.C,C6*%
X154662400Y-64850100D02*
X154662400Y-67349400D01*
X154662400Y-67349400D02*
X154911400Y-67349400D01*
X154911400Y-67349400D02*
X162160500Y-67349400D01*
X162160500Y-64850100D02*
X154662400Y-64850100D01*
X162160500Y-67349400D02*
X162160500Y-64850100D01*
%TO.C,R19*%
X183537500Y-145000100D02*
X183537500Y-157999800D01*
X183537500Y-157999800D02*
X186039400Y-157999800D01*
X185787900Y-145000100D02*
X183537500Y-145000100D01*
X186039400Y-145000100D02*
X185787900Y-145000100D01*
X186039400Y-157999800D02*
X186039400Y-145000100D01*
%TO.C,U3*%
X138800000Y-94199900D02*
X138800000Y-94479200D01*
X138800000Y-94199900D02*
X140999900Y-94199900D01*
X138800000Y-96140600D02*
X138800000Y-97019200D01*
X138800000Y-98680600D02*
X138800000Y-99559200D01*
X138800000Y-101220600D02*
X138800000Y-102099200D01*
X138800000Y-103760600D02*
X138800000Y-104639200D01*
X138800000Y-106300600D02*
X138800000Y-107179200D01*
X138800000Y-108840600D02*
X138800000Y-109719200D01*
X138800000Y-111380600D02*
X138800000Y-112259200D01*
X138800000Y-113920600D02*
X138800000Y-114199900D01*
X138800000Y-114199900D02*
X145199800Y-114199900D01*
X142998100Y-94199900D02*
X145198000Y-94199900D01*
X145198000Y-94199900D02*
X145198000Y-94480600D01*
X145198000Y-96139200D02*
X145198000Y-97020600D01*
X145198000Y-98679200D02*
X145198000Y-99560600D01*
X145198000Y-101219200D02*
X145198000Y-102100600D01*
X145198000Y-103759200D02*
X145198000Y-104640600D01*
X145198000Y-106299200D02*
X145198000Y-107180600D01*
X145198000Y-108839200D02*
X145198000Y-109720600D01*
X145198000Y-111379200D02*
X145198000Y-112260600D01*
X145198000Y-113919200D02*
X145198000Y-114199900D01*
X142999900Y-94199900D02*
G75*
G02*
X140999901Y-94250000I-1000001J-24999D01*
G01*
X140100500Y-95350400D02*
G75*
G02*
X139500500Y-95350400I-300000J0D01*
G01*
X139500500Y-95350400D02*
G75*
G02*
X140100500Y-95350400I300000J0D01*
G01*
%TO.C,C1*%
X138539400Y-129950600D02*
X138539400Y-132449900D01*
X138539400Y-132449900D02*
X146037500Y-132449900D01*
X145788500Y-129950600D02*
X138539400Y-129950600D01*
X146037500Y-129950600D02*
X145788500Y-129950600D01*
X146037500Y-132449900D02*
X146037500Y-129950600D01*
%TO.C,C3*%
X138862400Y-90450000D02*
X138862400Y-92949300D01*
X138862400Y-92949300D02*
X139111400Y-92949300D01*
X139111400Y-92949300D02*
X146360500Y-92949300D01*
X146360500Y-90450000D02*
X138862400Y-90450000D01*
X146360500Y-92949300D02*
X146360500Y-90450000D01*
%TO.C,R7*%
X165287500Y-126000100D02*
X165287500Y-138999800D01*
X165287500Y-138999800D02*
X167789400Y-138999800D01*
X167537900Y-126000100D02*
X165287500Y-126000100D01*
X167789400Y-126000100D02*
X167537900Y-126000100D01*
X167789400Y-138999800D02*
X167789400Y-126000100D01*
%TO.C,U2*%
X154636500Y-119300000D02*
X160863500Y-119300000D01*
X154828200Y-122031200D02*
X154828200Y-120888800D01*
X154828200Y-124571200D02*
X154828200Y-123428800D01*
X154828200Y-127111200D02*
X154828200Y-125968800D01*
X156733200Y-128700000D02*
X154636500Y-128700000D01*
X158765200Y-128700000D02*
X160863500Y-128700000D01*
X160670200Y-122033200D02*
X160670200Y-120886800D01*
X160670200Y-124573200D02*
X160670200Y-123426800D01*
X160670200Y-127113200D02*
X160670200Y-125966800D01*
X156733200Y-128700000D02*
G75*
G02*
X158765200Y-128700000I1016000J0D01*
G01*
%TO.C,R14*%
X114037500Y-87500100D02*
X114037500Y-100499800D01*
X114037500Y-100499800D02*
X116539400Y-100499800D01*
X116287900Y-87500100D02*
X114037500Y-87500100D01*
X116539400Y-87500100D02*
X116287900Y-87500100D01*
X116539400Y-100499800D02*
X116539400Y-87500100D01*
%TO.C,R17*%
X183537500Y-126000100D02*
X183537500Y-138999800D01*
X183537500Y-138999800D02*
X186039400Y-138999800D01*
X185787900Y-126000100D02*
X183537500Y-126000100D01*
X186039400Y-126000100D02*
X185787900Y-126000100D01*
X186039400Y-138999800D02*
X186039400Y-126000100D01*
%TO.C,U5*%
X154600000Y-94199900D02*
X154600000Y-94479200D01*
X154600000Y-94199900D02*
X156799900Y-94199900D01*
X154600000Y-96140600D02*
X154600000Y-97019200D01*
X154600000Y-98680600D02*
X154600000Y-99559200D01*
X154600000Y-101220600D02*
X154600000Y-102099200D01*
X154600000Y-103760600D02*
X154600000Y-104639200D01*
X154600000Y-106300600D02*
X154600000Y-107179200D01*
X154600000Y-108840600D02*
X154600000Y-109719200D01*
X154600000Y-111380600D02*
X154600000Y-112259200D01*
X154600000Y-113920600D02*
X154600000Y-114199900D01*
X154600000Y-114199900D02*
X160999800Y-114199900D01*
X158798100Y-94199900D02*
X160998000Y-94199900D01*
X160998000Y-94199900D02*
X160998000Y-94480600D01*
X160998000Y-96139200D02*
X160998000Y-97020600D01*
X160998000Y-98679200D02*
X160998000Y-99560600D01*
X160998000Y-101219200D02*
X160998000Y-102100600D01*
X160998000Y-103759200D02*
X160998000Y-104640600D01*
X160998000Y-106299200D02*
X160998000Y-107180600D01*
X160998000Y-108839200D02*
X160998000Y-109720600D01*
X160998000Y-111379200D02*
X160998000Y-112260600D01*
X160998000Y-113919200D02*
X160998000Y-114199900D01*
X158799900Y-94199900D02*
G75*
G02*
X156799901Y-94250000I-1000001J-24999D01*
G01*
X155900100Y-95350200D02*
G75*
G02*
X155300100Y-95350200I-300000J0D01*
G01*
X155300100Y-95350200D02*
G75*
G02*
X155900100Y-95350200I300000J0D01*
G01*
%TO.C,R13*%
X183537500Y-87500100D02*
X183537500Y-100499800D01*
X183537500Y-100499800D02*
X186039400Y-100499800D01*
X185787900Y-87500100D02*
X183537500Y-87500100D01*
X186039400Y-87500100D02*
X185787900Y-87500100D01*
X186039400Y-100499800D02*
X186039400Y-87500100D01*
%TO.C,R10*%
X132037500Y-145000100D02*
X132037500Y-157999800D01*
X132037500Y-157999800D02*
X134539400Y-157999800D01*
X134287900Y-145000100D02*
X132037500Y-145000100D01*
X134539400Y-145000100D02*
X134287900Y-145000100D01*
X134539400Y-157999800D02*
X134539400Y-145000100D01*
%TD*%
M02*
