%TF.GenerationSoftware,KiCad,Pcbnew,10.0.6*%
%TF.CreationDate,2026-09-23T18:05:48+08:00*%
%TF.ProjectId,Quad_Hub,51756164-5f48-4756-922e-6b696361645f,1.7*%
%TF.SameCoordinates,Original*%
%TF.FileFunction,Copper,L2,Bot*%
%TF.FilePolarity,Positive*%
%FSLAX46Y46*%
G04 Gerber Fmt 4.6, Leading zero omitted, Abs format (unit mm)*
G04 Created by KiCad (PCBNEW 10.0.6) date 2026-09-23 18:05:48*
%MOMM*%
%LPD*%
G01*
G04 APERTURE LIST*
%TA.AperFunction,NonConductor*%
%ADD10C,0.254000*%
%TD*%
%TA.AperFunction,ComponentPad*%
%ADD11R,0.999900X1.000000*%
%TD*%
%TA.AperFunction,ComponentPad*%
%ADD12R,1.300100X1.300000*%
%TD*%
%TA.AperFunction,ComponentPad*%
%ADD13R,1.000000X1.000000*%
%TD*%
%TA.AperFunction,ComponentPad*%
%ADD14R,1.300000X1.300000*%
%TD*%
%TA.AperFunction,ComponentPad*%
%ADD15R,1.300000X1.300100*%
%TD*%
%TA.AperFunction,ComponentPad*%
%ADD16R,1.300100X1.300100*%
%TD*%
%TA.AperFunction,ComponentPad*%
%ADD17R,1.524000X1.524000*%
%TD*%
%TA.AperFunction,ComponentPad*%
%ADD18O,4.800600X4.800600*%
%TD*%
%TA.AperFunction,ComponentPad*%
%ADD19O,1.524000X1.524000*%
%TD*%
%TA.AperFunction,ViaPad*%
%ADD20C,0.609600*%
%TD*%
%TA.AperFunction,Conductor*%
%ADD21C,0.254000*%
%TD*%
G04 APERTURE END LIST*
D10*
X129609800Y-102500100D02*
G75*
G02*
X120390200Y-102500100I-4609800J0D01*
G01*
X120390200Y-102500100D02*
G75*
G02*
X129609800Y-102500100I4609800J0D01*
G01*
X183999900Y-102500100D02*
G75*
G02*
X175999900Y-102500100I-4000000J0D01*
G01*
X175999900Y-102500100D02*
G75*
G02*
X183999900Y-102500100I4000000J0D01*
G01*
D11*
%TO.P,WP55,1*%
%TO.N,DIGITAL3*%
X164000000Y-109999900D03*
%TD*%
%TO.P,WP66,1*%
%TO.N,ANALOG4*%
X169999900Y-117999900D03*
%TD*%
%TO.P,WP64,1*%
%TO.N,ANALOG5*%
X171999900Y-107999900D03*
%TD*%
%TO.P,WP33,1*%
%TO.N,ANALOG3*%
X168000000Y-98000000D03*
%TD*%
%TO.P,WP79,1*%
%TO.N,ANALOG2*%
X166000000Y-117999900D03*
%TD*%
%TO.P,WP40,1*%
%TO.N,DIGITAL2*%
X162000000Y-100000000D03*
%TD*%
D12*
%TO.P,WP57,1*%
%TO.N,+5V*%
X160000000Y-109999900D03*
%TD*%
D13*
%TO.P,WP46,1*%
%TO.N,ANALOG1*%
X163999900Y-98000000D03*
%TD*%
%TO.P,WP27,1*%
%TO.N,DIGITAL4*%
X165999900Y-90000000D03*
%TD*%
%TO.P,WP18,1*%
%TO.N,ANALOG2*%
X165999900Y-88000000D03*
%TD*%
%TO.P,WP32,1*%
%TO.N,ANALOG3*%
X167999900Y-88000000D03*
%TD*%
%TO.P,WP54,1*%
%TO.N,DIGITAL4*%
X165999900Y-109999900D03*
%TD*%
D14*
%TO.P,WP52,1*%
%TO.N,SCL*%
X169999900Y-109999900D03*
%TD*%
D13*
%TO.P,WP70,1*%
%TO.N,DIGITAL4*%
X165999900Y-119999900D03*
%TD*%
D11*
%TO.P,WP56,1*%
%TO.N,DIGITAL2*%
X162000000Y-109999900D03*
%TD*%
%TO.P,WP72,1*%
%TO.N,DIGITAL2*%
X162000000Y-119999900D03*
%TD*%
%TO.P,WP50,1*%
%TO.N,ANALOG4*%
X169999900Y-107999900D03*
%TD*%
D15*
%TO.P,WP35,1*%
%TO.N,SDA*%
X171999900Y-100000000D03*
%TD*%
D13*
%TO.P,WP45,1*%
%TO.N,ANALOG0*%
X161999900Y-98000000D03*
%TD*%
D11*
%TO.P,WP19,1*%
%TO.N,ANALOG1*%
X164000000Y-88000000D03*
%TD*%
D14*
%TO.P,WP28,1*%
%TO.N,RESET*%
X167999900Y-90000000D03*
%TD*%
D13*
%TO.P,WP75,1*%
%TO.N,N/C*%
X157999900Y-117999900D03*
%TD*%
D11*
%TO.P,WP47,1*%
%TO.N,ANALOG2*%
X166000000Y-98000000D03*
%TD*%
D14*
%TO.P,WP29,1*%
%TO.N,SCL*%
X169999900Y-90000000D03*
%TD*%
%TO.P,WP24,1*%
%TO.N,+5V*%
X159999900Y-90000000D03*
%TD*%
D11*
%TO.P,WP71,1*%
%TO.N,DIGITAL3*%
X164000000Y-119999900D03*
%TD*%
D16*
%TO.P,WP42,1*%
%TO.N,GND*%
X158000000Y-100000000D03*
%TD*%
D12*
%TO.P,WP58,1*%
%TO.N,GND*%
X158000000Y-109999900D03*
%TD*%
D11*
%TO.P,WP20,1*%
%TO.N,ANALOG0*%
X162000000Y-88000000D03*
%TD*%
D13*
%TO.P,WP61,1*%
%TO.N,ANALOG0*%
X161999900Y-107999900D03*
%TD*%
D12*
%TO.P,WP73,1*%
%TO.N,+5V*%
X160000000Y-119999900D03*
%TD*%
D13*
%TO.P,WP59,1*%
%TO.N,N/C*%
X157999900Y-107999900D03*
%TD*%
D11*
%TO.P,WP34,1*%
%TO.N,ANALOG4*%
X169999900Y-98000000D03*
%TD*%
D17*
%TO.P,NONE,2*%
%TO.N,+5V*%
X141997900Y-85661200D03*
%TO.P,NONE,3*%
%TO.N,SDA*%
X141997900Y-95821200D03*
%TO.P,NONE,4*%
%TO.N,+5V*%
X144537900Y-85661200D03*
%TO.P,NONE,5*%
%TO.N,SCL*%
X144537900Y-95821200D03*
%TD*%
D11*
%TO.P,WP39,1*%
%TO.N,DIGITAL3*%
X164000000Y-100000000D03*
%TD*%
D13*
%TO.P,WP31,1*%
%TO.N,ANALOG4*%
X169999900Y-88000000D03*
%TD*%
D11*
%TO.P,WP80,1*%
%TO.N,ANALOG5*%
X171999900Y-117999900D03*
%TD*%
D13*
%TO.P,WP25,1*%
%TO.N,DIGITAL2*%
X161999900Y-90000000D03*
%TD*%
D16*
%TO.P,WP41,1*%
%TO.N,+5V*%
X160000000Y-100000000D03*
%TD*%
D13*
%TO.P,WP38,1*%
%TO.N,DIGITAL4*%
X165999900Y-100000000D03*
%TD*%
D14*
%TO.P,WP53,1*%
%TO.N,RESET*%
X167999900Y-109999900D03*
%TD*%
D13*
%TO.P,WP17,1*%
%TO.N,ANALOG5*%
X171999900Y-88000000D03*
%TD*%
D14*
%TO.P,WP68,1*%
%TO.N,SCL*%
X169999900Y-119999900D03*
%TD*%
D13*
%TO.P,WP77,1*%
%TO.N,ANALOG0*%
X161999900Y-117999900D03*
%TD*%
%TO.P,WP76,1*%
%TO.N,DIGITAL1*%
X159999900Y-117999900D03*
%TD*%
%TO.P,WP60,1*%
%TO.N,DIGITAL1*%
X159999900Y-107999900D03*
%TD*%
D11*
%TO.P,WP65,1*%
%TO.N,ANALOG3*%
X168000000Y-117999900D03*
%TD*%
D13*
%TO.P,WP44,1*%
%TO.N,DIGITAL1*%
X159999900Y-98000000D03*
%TD*%
D14*
%TO.P,WP51,1*%
%TO.N,SDA*%
X171999900Y-109999900D03*
%TD*%
D13*
%TO.P,WP78,1*%
%TO.N,ANALOG1*%
X163999900Y-117999900D03*
%TD*%
%TO.P,WP26,1*%
%TO.N,DIGITAL3*%
X163999900Y-90000000D03*
%TD*%
D14*
%TO.P,WP67,1*%
%TO.N,SDA*%
X171999900Y-119999900D03*
%TD*%
%TO.P,WP23,1*%
%TO.N,GND*%
X157999900Y-90000000D03*
%TD*%
D11*
%TO.P,WP21,1*%
%TO.N,DIGITAL1*%
X160000000Y-88000000D03*
%TD*%
D14*
%TO.P,WP30,1*%
%TO.N,SDA*%
X171999900Y-90000000D03*
%TD*%
D15*
%TO.P,WP36,1*%
%TO.N,SCL*%
X169999900Y-100000000D03*
%TD*%
D18*
%TO.P,U1,RING*%
%TO.N,GND*%
X129349500Y-83040900D03*
%TO.P,U1,RING_SW*%
%TO.N,N/C*%
X124650500Y-85961900D03*
%TO.P,U1,TIP*%
%TO.N,+5V*%
X129349500Y-88959100D03*
%TD*%
D13*
%TO.P,WP43,1*%
%TO.N,N/C*%
X157999900Y-98000000D03*
%TD*%
D12*
%TO.P,WP74,1*%
%TO.N,GND*%
X158000000Y-119999900D03*
%TD*%
D11*
%TO.P,WP48,1*%
%TO.N,ANALOG5*%
X171999900Y-98000000D03*
%TD*%
D15*
%TO.P,WP37,1*%
%TO.N,RESET*%
X167999900Y-100000000D03*
%TD*%
D13*
%TO.P,WP62,1*%
%TO.N,ANALOG1*%
X163999900Y-107999900D03*
%TD*%
D11*
%TO.P,WP22,1*%
%TO.N,N/C*%
X158000000Y-88000000D03*
%TD*%
%TO.P,WP49,1*%
%TO.N,ANALOG3*%
X168000000Y-107999900D03*
%TD*%
D14*
%TO.P,WP69,1*%
%TO.N,RESET*%
X167999900Y-119999900D03*
%TD*%
D19*
%TO.P,ARDUINO,1*%
%TO.N,N/C*%
X150620000Y-117240000D03*
%TO.P,ARDUINO,2*%
X150620000Y-114700000D03*
%TO.P,ARDUINO,3*%
X150620000Y-112160000D03*
D17*
%TO.P,ARDUINO,4*%
%TO.N,GND*%
X150620000Y-109620000D03*
%TO.P,ARDUINO,5*%
%TO.N,SDA*%
X150620000Y-107080000D03*
%TO.P,ARDUINO,6*%
%TO.N,SCL*%
X150620000Y-104540000D03*
D19*
%TO.P,ARDUINO,7*%
%TO.N,DIGITAL2*%
X150620000Y-102000000D03*
%TO.P,ARDUINO,8*%
%TO.N,DIGITAL3*%
X150620000Y-99460000D03*
%TO.P,ARDUINO,9*%
%TO.N,DIGITAL4*%
X150620000Y-96920000D03*
D17*
%TO.P,ARDUINO,10*%
%TO.N,RESET*%
X150620000Y-94380000D03*
D19*
%TO.P,ARDUINO,11*%
%TO.N,N/C*%
X150620000Y-91840000D03*
%TO.P,ARDUINO,12*%
X150620000Y-89300000D03*
%TO.P,ARDUINO,13*%
X150620000Y-86760000D03*
%TO.P,ARDUINO,14*%
X150620000Y-84220000D03*
%TO.P,ARDUINO,15*%
X150620000Y-81680000D03*
%TO.P,ARDUINO,16*%
X135380000Y-81680000D03*
%TO.P,ARDUINO,17*%
X135380000Y-84220000D03*
%TO.P,ARDUINO,18*%
%TO.N,AREF*%
X135380000Y-86760000D03*
%TO.P,ARDUINO,19*%
%TO.N,N/C*%
X135380000Y-89300000D03*
%TO.P,ARDUINO,20*%
X135380000Y-91840000D03*
%TO.P,ARDUINO,21*%
X135380000Y-94380000D03*
%TO.P,ARDUINO,22*%
X135380000Y-96920000D03*
D17*
%TO.P,ARDUINO,23*%
%TO.N,SDA*%
X135380000Y-99460000D03*
%TO.P,ARDUINO,24*%
%TO.N,SCL*%
X135380000Y-102000000D03*
D19*
%TO.P,ARDUINO,25*%
%TO.N,ANALOG4*%
X135380000Y-104540000D03*
%TO.P,ARDUINO,26*%
%TO.N,ANALOG5*%
X135380000Y-107080000D03*
%TO.P,ARDUINO,27*%
%TO.N,5V*%
X135380000Y-109620000D03*
%TO.P,ARDUINO,28*%
%TO.N,N/C*%
X135380000Y-112160000D03*
D17*
%TO.P,ARDUINO,29*%
%TO.N,GND*%
X135380000Y-114700000D03*
D19*
%TO.P,ARDUINO,30*%
%TO.N,N/C*%
X135380000Y-117240000D03*
%TD*%
D11*
%TO.P,WP63,1*%
%TO.N,ANALOG2*%
X166000000Y-107999900D03*
%TD*%
D20*
%TO.N,*%
X124979200Y-107109700D03*
X180026300Y-98500100D03*
%TO.N,ANALOG4*%
X146999900Y-122999900D03*
%TO.N,ANALOG5*%
X173999900Y-109999900D03*
X173999900Y-100000000D03*
X173999900Y-119999900D03*
%TD*%
%TO.N,DIGITAL3*%
D21*
X163999800Y-99999900D02*
X163000800Y-99000900D01*
X157176700Y-85516800D02*
X154999800Y-87696100D01*
X162999900Y-108999900D02*
X162999900Y-98999900D01*
X154999800Y-95079900D02*
X150620900Y-99458900D01*
X154999800Y-87696100D02*
X154999800Y-95079900D01*
X163999800Y-109999900D02*
X162999900Y-108999900D01*
X163000800Y-99000900D02*
X163000800Y-88999100D01*
X163000800Y-87000200D02*
X161517500Y-85516800D01*
X162999900Y-118999900D02*
X162999900Y-108999900D01*
X163000800Y-88999100D02*
X163000800Y-87000200D01*
X163999000Y-89999900D02*
X163000800Y-88999100D01*
X161517500Y-85516800D02*
X157176700Y-85516800D01*
X163999800Y-119999900D02*
X162999900Y-118999900D01*
%TO.N,ANALOG4*%
X141999900Y-111159900D02*
X135379900Y-104539900D01*
X146999900Y-122999900D02*
X141999900Y-117999900D01*
X141999900Y-117999900D02*
X141999900Y-111159900D01*
%TO.N,ANALOG5*%
X173999100Y-109999900D02*
X175012500Y-111000600D01*
X173999900Y-119999900D02*
X174999900Y-120999900D01*
X175012500Y-91013400D02*
X175012500Y-122986900D01*
X173999100Y-99999900D02*
X175012500Y-101000600D01*
X140999300Y-118999100D02*
X140999300Y-112699900D01*
X173999100Y-124000300D02*
X146000700Y-124000300D01*
X140999300Y-112699900D02*
X135380900Y-107078900D01*
X174999900Y-120999900D02*
X174999900Y-122999700D01*
X175012500Y-122986900D02*
X173999100Y-124000300D01*
X172000000Y-88000900D02*
X175012500Y-91013400D01*
X146000700Y-124000300D02*
X140999300Y-118999100D01*
%TO.N,DIGITAL2*%
X161999900Y-109999900D02*
X160999300Y-108999300D01*
X156000500Y-96619100D02*
X150620900Y-101998900D01*
X161999900Y-119999900D02*
X160999900Y-118999900D01*
X160999900Y-118999900D02*
X160999900Y-108999900D01*
X162000000Y-89999900D02*
X160999300Y-88999100D01*
X160153500Y-86154300D02*
X157694800Y-86154300D01*
X160999300Y-108999300D02*
X160999300Y-98999300D01*
X160999300Y-88999100D02*
X160999300Y-87000200D01*
X161999900Y-99999900D02*
X160999300Y-98999300D01*
X160999300Y-98999300D02*
X160999300Y-88999100D01*
X157694800Y-86154300D02*
X156000500Y-87848500D01*
X160999300Y-87000200D02*
X160153500Y-86154300D01*
X156000500Y-87848500D02*
X156000500Y-96619100D01*
%TO.N,DIGITAL4*%
X156795700Y-84797900D02*
X153999000Y-87594500D01*
X153999000Y-93540700D02*
X150620900Y-96918900D01*
X164999900Y-108999900D02*
X164999900Y-98999900D01*
X153999000Y-87594500D02*
X153999000Y-93540700D01*
X164999900Y-98999900D02*
X164999900Y-88905700D01*
X164999800Y-88999100D02*
X164999800Y-87000200D01*
X165999800Y-99999900D02*
X164999900Y-98999900D01*
X164999900Y-118999900D02*
X164999900Y-108999900D01*
X164999800Y-87000200D02*
X162797700Y-84797900D01*
X166000500Y-89999900D02*
X164999800Y-88999100D01*
X165999800Y-119999900D02*
X164999900Y-118999900D01*
X162797700Y-84797900D02*
X156795700Y-84797900D01*
X165999800Y-109999900D02*
X164999900Y-108999900D01*
%TO.N,SCL*%
X172000000Y-121998800D02*
X147999500Y-121998800D01*
X150619700Y-104538900D02*
X147500600Y-101419800D01*
X173000800Y-120998000D02*
X172000000Y-121998800D01*
X143000900Y-100749000D02*
X144500000Y-99250000D01*
X173000800Y-92999600D02*
X173000800Y-120998000D01*
X143000900Y-117000100D02*
X143000900Y-100749000D01*
X170001000Y-109999900D02*
X173000800Y-112999600D01*
X146070600Y-95821700D02*
X144538900Y-95821700D01*
X170001000Y-99999900D02*
X173000800Y-102999600D01*
X147999500Y-121998800D02*
X143000900Y-117000100D01*
X147500600Y-97249100D02*
X146070600Y-95821700D01*
X144500000Y-95859200D02*
X144537900Y-95821300D01*
X135380000Y-102000000D02*
X138359200Y-102000000D01*
X144500000Y-99250000D02*
X144500000Y-95859200D01*
X169999800Y-119999900D02*
X167999900Y-121999900D01*
X138359200Y-102000000D02*
X144537900Y-95821300D01*
X147500600Y-101419800D02*
X147500600Y-97249100D01*
X170001000Y-89999900D02*
X173000800Y-92999600D01*
%TO.N,RESET*%
X166999900Y-108999900D02*
X166999900Y-98999900D01*
X153000900Y-91998900D02*
X150620900Y-94378900D01*
X156490800Y-84000400D02*
X153000900Y-87492900D01*
X166999900Y-118999900D02*
X166999900Y-108999900D01*
X167999800Y-119999900D02*
X166999900Y-118999900D01*
X166998800Y-87000200D02*
X163999000Y-84000400D01*
X153000900Y-87492900D02*
X153000900Y-91998900D01*
X167999800Y-109999900D02*
X166999900Y-108999900D01*
X167999800Y-99999900D02*
X166999900Y-98999900D01*
X166998800Y-88999100D02*
X166998800Y-87000200D01*
X166999900Y-98999900D02*
X166999900Y-89000000D01*
X167999500Y-89999900D02*
X166998800Y-88999100D01*
X163999000Y-84000400D02*
X156490800Y-84000400D01*
%TD*%
%TA.AperFunction,Conductor*%
%TO.N,GND*%
G36*
X135006241Y-80520402D02*
G01*
X135052734Y-80574058D01*
X135062838Y-80644332D01*
X135033344Y-80708912D01*
X134986338Y-80742809D01*
X134898507Y-80779190D01*
X134732017Y-80890434D01*
X134732011Y-80890439D01*
X134590439Y-81032011D01*
X134590434Y-81032017D01*
X134479190Y-81198507D01*
X134402565Y-81383494D01*
X134402564Y-81383497D01*
X134363500Y-81579880D01*
X134363500Y-81780119D01*
X134402564Y-81976502D01*
X134479190Y-82161493D01*
X134590433Y-82327981D01*
X134590434Y-82327982D01*
X134590439Y-82327988D01*
X134732011Y-82469560D01*
X134732017Y-82469565D01*
X134732019Y-82469567D01*
X134898507Y-82580810D01*
X135083498Y-82657436D01*
X135279884Y-82696500D01*
X135480116Y-82696500D01*
X135676502Y-82657436D01*
X135861493Y-82580810D01*
X136027981Y-82469567D01*
X136169567Y-82327981D01*
X136280810Y-82161493D01*
X136357436Y-81976502D01*
X136396500Y-81780116D01*
X136396500Y-81579884D01*
X136357436Y-81383498D01*
X136280810Y-81198507D01*
X136169567Y-81032019D01*
X136169565Y-81032017D01*
X136169560Y-81032011D01*
X136027988Y-80890439D01*
X136027982Y-80890434D01*
X136027981Y-80890433D01*
X135861493Y-80779190D01*
X135773662Y-80742809D01*
X135718381Y-80698260D01*
X135695960Y-80630897D01*
X135713518Y-80562106D01*
X135765481Y-80513727D01*
X135821880Y-80500400D01*
X150178120Y-80500400D01*
X150246241Y-80520402D01*
X150292734Y-80574058D01*
X150302838Y-80644332D01*
X150273344Y-80708912D01*
X150226338Y-80742809D01*
X150138507Y-80779190D01*
X149972017Y-80890434D01*
X149972011Y-80890439D01*
X149830439Y-81032011D01*
X149830434Y-81032017D01*
X149719190Y-81198507D01*
X149642565Y-81383494D01*
X149642564Y-81383497D01*
X149603500Y-81579880D01*
X149603500Y-81780119D01*
X149642564Y-81976502D01*
X149719190Y-82161493D01*
X149830433Y-82327981D01*
X149830434Y-82327982D01*
X149830439Y-82327988D01*
X149972011Y-82469560D01*
X149972017Y-82469565D01*
X149972019Y-82469567D01*
X150138507Y-82580810D01*
X150323498Y-82657436D01*
X150519884Y-82696500D01*
X150720116Y-82696500D01*
X150916502Y-82657436D01*
X151101493Y-82580810D01*
X151267981Y-82469567D01*
X151409567Y-82327981D01*
X151520810Y-82161493D01*
X151597436Y-81976502D01*
X151636500Y-81780116D01*
X151636500Y-81579884D01*
X151597436Y-81383498D01*
X151520810Y-81198507D01*
X151409567Y-81032019D01*
X151409565Y-81032017D01*
X151409560Y-81032011D01*
X151267988Y-80890439D01*
X151267982Y-80890434D01*
X151267981Y-80890433D01*
X151101493Y-80779190D01*
X151013662Y-80742809D01*
X150958381Y-80698260D01*
X150935960Y-80630897D01*
X150953518Y-80562106D01*
X151005481Y-80513727D01*
X151061880Y-80500400D01*
X184373400Y-80500400D01*
X184441521Y-80520402D01*
X184488014Y-80574058D01*
X184499400Y-80626400D01*
X184499400Y-101406582D01*
X184479398Y-101474703D01*
X184425742Y-101521196D01*
X184355468Y-101531300D01*
X184290888Y-101501806D01*
X184252504Y-101442080D01*
X184251693Y-101439193D01*
X184246217Y-101418756D01*
X184182592Y-101181302D01*
X184182587Y-101181287D01*
X184182586Y-101181283D01*
X184076487Y-100889783D01*
X184051734Y-100821775D01*
X183924690Y-100549329D01*
X183890043Y-100475027D01*
X183890033Y-100475009D01*
X183698747Y-100143690D01*
X183698738Y-100143676D01*
X183609918Y-100016828D01*
X183479289Y-99830271D01*
X183479284Y-99830265D01*
X183479283Y-99830262D01*
X183233358Y-99537181D01*
X182962818Y-99266641D01*
X182669737Y-99020716D01*
X182669734Y-99020715D01*
X182669732Y-99020714D01*
X182669729Y-99020711D01*
X182406602Y-98836467D01*
X182356323Y-98801261D01*
X182356309Y-98801252D01*
X182024990Y-98609966D01*
X182024972Y-98609956D01*
X181678223Y-98448265D01*
X181318706Y-98317410D01*
X181165291Y-98276303D01*
X180949134Y-98218384D01*
X180572345Y-98151946D01*
X180572341Y-98151945D01*
X180572332Y-98151944D01*
X180504901Y-98146044D01*
X180438783Y-98120181D01*
X180426789Y-98109619D01*
X180369724Y-98052554D01*
X180369714Y-98052546D01*
X180242182Y-97978916D01*
X180099933Y-97940800D01*
X179952667Y-97940800D01*
X179857834Y-97966210D01*
X179810417Y-97978916D01*
X179682884Y-98052547D01*
X179630871Y-98104559D01*
X179568558Y-98138583D01*
X179552759Y-98140982D01*
X179427469Y-98151944D01*
X179427466Y-98151944D01*
X179427455Y-98151946D01*
X179050666Y-98218384D01*
X178931369Y-98250349D01*
X178681093Y-98317410D01*
X178321576Y-98448265D01*
X177974827Y-98609956D01*
X177974809Y-98609966D01*
X177643490Y-98801252D01*
X177643476Y-98801261D01*
X177330065Y-99020715D01*
X177330062Y-99020716D01*
X177036981Y-99266641D01*
X177036972Y-99266651D01*
X176766451Y-99537172D01*
X176766441Y-99537181D01*
X176520516Y-99830262D01*
X176520515Y-99830265D01*
X176301061Y-100143676D01*
X176301052Y-100143690D01*
X176109766Y-100475009D01*
X176109756Y-100475027D01*
X175948065Y-100821776D01*
X175817214Y-101181283D01*
X175817212Y-101181287D01*
X175817208Y-101181302D01*
X175718184Y-101550866D01*
X175651746Y-101927655D01*
X175646482Y-101987829D01*
X175645521Y-101998811D01*
X175619657Y-102064929D01*
X175562154Y-102106568D01*
X175491267Y-102110509D01*
X175429502Y-102075500D01*
X175396470Y-102012655D01*
X175394000Y-101987829D01*
X175394000Y-101058753D01*
X175394340Y-101053298D01*
X175394003Y-100999860D01*
X175394000Y-100999064D01*
X175394000Y-90963176D01*
X175383637Y-90924501D01*
X175368001Y-90866146D01*
X175367999Y-90866143D01*
X175367999Y-90866141D01*
X175317778Y-90779156D01*
X175317770Y-90779146D01*
X175242358Y-90703734D01*
X175242335Y-90703713D01*
X172791304Y-88252681D01*
X172757278Y-88190369D01*
X172754399Y-88163586D01*
X172754399Y-87474936D01*
X172754398Y-87474927D01*
X172739634Y-87400699D01*
X172717718Y-87367900D01*
X172683384Y-87316516D01*
X172660247Y-87301056D01*
X172599202Y-87260266D01*
X172524967Y-87245500D01*
X171474836Y-87245500D01*
X171474826Y-87245501D01*
X171400599Y-87260265D01*
X171316415Y-87316516D01*
X171260166Y-87400697D01*
X171245400Y-87474930D01*
X171245400Y-88525063D01*
X171245401Y-88525073D01*
X171260165Y-88599300D01*
X171316416Y-88683484D01*
X171400597Y-88739733D01*
X171400599Y-88739734D01*
X171474833Y-88754500D01*
X172161886Y-88754499D01*
X172230007Y-88774501D01*
X172250981Y-88791404D01*
X172339982Y-88880405D01*
X172374008Y-88942717D01*
X172368943Y-89013532D01*
X172326396Y-89070368D01*
X172259876Y-89095179D01*
X172250887Y-89095500D01*
X171324836Y-89095500D01*
X171324826Y-89095501D01*
X171250599Y-89110265D01*
X171166415Y-89166516D01*
X171104663Y-89258932D01*
X171050185Y-89304459D01*
X170979742Y-89313306D01*
X170915699Y-89282664D01*
X170895134Y-89258931D01*
X170889634Y-89250700D01*
X170889634Y-89250699D01*
X170833384Y-89166516D01*
X170833383Y-89166515D01*
X170749202Y-89110266D01*
X170674967Y-89095500D01*
X169324836Y-89095500D01*
X169324826Y-89095501D01*
X169250599Y-89110265D01*
X169166415Y-89166516D01*
X169104663Y-89258932D01*
X169050185Y-89304459D01*
X168979742Y-89313306D01*
X168915699Y-89282664D01*
X168895134Y-89258931D01*
X168889634Y-89250700D01*
X168889634Y-89250699D01*
X168833384Y-89166516D01*
X168833383Y-89166515D01*
X168749202Y-89110266D01*
X168674969Y-89095500D01*
X168674967Y-89095500D01*
X167686881Y-89095500D01*
X167618760Y-89075498D01*
X167597781Y-89058591D01*
X167508789Y-88969590D01*
X167474767Y-88907276D01*
X167479836Y-88836461D01*
X167522385Y-88779627D01*
X167588907Y-88754820D01*
X167597864Y-88754499D01*
X168524966Y-88754499D01*
X168524969Y-88754498D01*
X168524973Y-88754498D01*
X168574226Y-88744701D01*
X168599201Y-88739734D01*
X168683384Y-88683484D01*
X168739634Y-88599301D01*
X168754400Y-88525067D01*
X168754399Y-87474934D01*
X168754399Y-87474933D01*
X168754399Y-87474931D01*
X168754399Y-87474930D01*
X169245400Y-87474930D01*
X169245400Y-88525063D01*
X169245401Y-88525073D01*
X169260165Y-88599300D01*
X169316416Y-88683484D01*
X169400597Y-88739733D01*
X169400599Y-88739734D01*
X169474833Y-88754500D01*
X170524966Y-88754499D01*
X170524969Y-88754498D01*
X170524973Y-88754498D01*
X170574226Y-88744701D01*
X170599201Y-88739734D01*
X170683384Y-88683484D01*
X170739634Y-88599301D01*
X170754400Y-88525067D01*
X170754399Y-87474934D01*
X170754398Y-87474931D01*
X170754398Y-87474926D01*
X170739634Y-87400699D01*
X170717718Y-87367900D01*
X170683384Y-87316516D01*
X170660247Y-87301056D01*
X170599202Y-87260266D01*
X170524967Y-87245500D01*
X169474836Y-87245500D01*
X169474826Y-87245501D01*
X169400599Y-87260265D01*
X169316415Y-87316516D01*
X169260166Y-87400697D01*
X169245400Y-87474930D01*
X168754399Y-87474930D01*
X168739634Y-87400699D01*
X168717718Y-87367900D01*
X168683384Y-87316516D01*
X168660247Y-87301056D01*
X168599202Y-87260266D01*
X168524969Y-87245500D01*
X167506300Y-87245500D01*
X167438179Y-87225498D01*
X167391686Y-87171842D01*
X167380300Y-87119500D01*
X167380300Y-86949975D01*
X167380299Y-86949973D01*
X167377454Y-86939352D01*
X167354302Y-86852947D01*
X167304544Y-86766764D01*
X167304078Y-86765956D01*
X167304070Y-86765946D01*
X164233250Y-83695126D01*
X164233247Y-83695124D01*
X164233209Y-83695102D01*
X164233182Y-83695074D01*
X164233107Y-83695016D01*
X164233096Y-83695037D01*
X164146258Y-83644900D01*
X164134792Y-83641827D01*
X164049225Y-83618900D01*
X164049223Y-83618900D01*
X156549265Y-83618900D01*
X156548928Y-83618878D01*
X156489301Y-83618900D01*
X156440497Y-83618900D01*
X156390489Y-83632320D01*
X156390447Y-83632331D01*
X156343538Y-83644900D01*
X156343425Y-83644947D01*
X156343415Y-83644953D01*
X156300055Y-83670008D01*
X156268022Y-83688502D01*
X156256518Y-83695144D01*
X156256469Y-83695182D01*
X156221571Y-83730105D01*
X156180001Y-83771675D01*
X156179779Y-83771927D01*
X152731808Y-87222468D01*
X152695604Y-87258672D01*
X152695550Y-87258742D01*
X152671141Y-87301056D01*
X152671121Y-87301092D01*
X152645385Y-87345670D01*
X152645353Y-87345745D01*
X152645344Y-87345780D01*
X152632349Y-87394342D01*
X152632346Y-87394355D01*
X152619400Y-87442674D01*
X152619386Y-87442783D01*
X152619381Y-87442820D01*
X152619400Y-87494399D01*
X152619400Y-91788687D01*
X152599398Y-91856808D01*
X152582495Y-91877782D01*
X151133681Y-93326595D01*
X151071369Y-93360621D01*
X151044586Y-93363500D01*
X149832936Y-93363500D01*
X149832926Y-93363501D01*
X149758699Y-93378265D01*
X149674515Y-93434516D01*
X149618266Y-93518697D01*
X149603500Y-93592930D01*
X149603500Y-95167063D01*
X149603501Y-95167073D01*
X149618265Y-95241300D01*
X149674516Y-95325484D01*
X149758697Y-95381733D01*
X149758699Y-95381734D01*
X149832933Y-95396500D01*
X151299555Y-95396499D01*
X151367676Y-95416501D01*
X151414169Y-95470157D01*
X151424273Y-95540431D01*
X151394780Y-95605011D01*
X151388652Y-95611593D01*
X151075871Y-95924384D01*
X151013559Y-95958410D01*
X150942743Y-95953346D01*
X150938556Y-95951699D01*
X150916505Y-95942565D01*
X150916502Y-95942564D01*
X150720119Y-95903500D01*
X150720116Y-95903500D01*
X150519884Y-95903500D01*
X150519880Y-95903500D01*
X150323497Y-95942564D01*
X150323494Y-95942565D01*
X150138507Y-96019190D01*
X149972017Y-96130434D01*
X149972011Y-96130439D01*
X149830439Y-96272011D01*
X149830434Y-96272017D01*
X149719190Y-96438507D01*
X149642565Y-96623494D01*
X149642564Y-96623497D01*
X149603500Y-96819880D01*
X149603500Y-97020119D01*
X149633680Y-97171842D01*
X149642564Y-97216502D01*
X149719190Y-97401493D01*
X149768263Y-97474936D01*
X149830434Y-97567982D01*
X149830439Y-97567988D01*
X149972011Y-97709560D01*
X149972017Y-97709565D01*
X149972019Y-97709567D01*
X150138507Y-97820810D01*
X150323498Y-97897436D01*
X150519884Y-97936500D01*
X150720116Y-97936500D01*
X150916502Y-97897436D01*
X151101493Y-97820810D01*
X151267981Y-97709567D01*
X151409567Y-97567981D01*
X151520810Y-97401493D01*
X151597436Y-97216502D01*
X151636500Y-97020116D01*
X151636500Y-96819884D01*
X151597436Y-96623498D01*
X151588170Y-96601130D01*
X151580579Y-96530543D01*
X151612357Y-96467055D01*
X151615445Y-96463853D01*
X154252037Y-93827186D01*
X154304276Y-93774947D01*
X154354501Y-93687954D01*
X154354501Y-93687951D01*
X154354503Y-93687948D01*
X154354504Y-93687947D01*
X154363241Y-93655334D01*
X154370593Y-93627898D01*
X154407543Y-93567275D01*
X154471403Y-93536252D01*
X154541898Y-93544679D01*
X154596646Y-93589881D01*
X154618264Y-93657506D01*
X154618300Y-93660507D01*
X154618300Y-94869689D01*
X154598298Y-94937810D01*
X154581396Y-94958783D01*
X151075874Y-98464385D01*
X151013563Y-98498411D01*
X150942747Y-98493347D01*
X150938562Y-98491701D01*
X150916507Y-98482566D01*
X150916502Y-98482564D01*
X150720119Y-98443500D01*
X150720116Y-98443500D01*
X150519884Y-98443500D01*
X150519880Y-98443500D01*
X150323497Y-98482564D01*
X150323494Y-98482565D01*
X150138507Y-98559190D01*
X149972017Y-98670434D01*
X149972011Y-98670439D01*
X149830439Y-98812011D01*
X149830434Y-98812017D01*
X149719190Y-98978507D01*
X149642565Y-99163494D01*
X149642564Y-99163497D01*
X149603500Y-99359880D01*
X149603500Y-99560119D01*
X149621489Y-99650554D01*
X149642564Y-99756502D01*
X149719190Y-99941493D01*
X149830433Y-100107981D01*
X149830434Y-100107982D01*
X149830439Y-100107988D01*
X149972011Y-100249560D01*
X149972017Y-100249565D01*
X149972019Y-100249567D01*
X150138507Y-100360810D01*
X150323498Y-100437436D01*
X150519884Y-100476500D01*
X150720116Y-100476500D01*
X150916502Y-100437436D01*
X151101493Y-100360810D01*
X151267981Y-100249567D01*
X151409567Y-100107981D01*
X151520810Y-99941493D01*
X151597436Y-99756502D01*
X151636500Y-99560116D01*
X151636500Y-99359884D01*
X151597436Y-99163498D01*
X151588171Y-99141132D01*
X151580582Y-99070543D01*
X151612360Y-99007055D01*
X151615437Y-99003867D01*
X155261787Y-95357436D01*
X155305076Y-95314147D01*
X155355301Y-95227154D01*
X155355301Y-95227151D01*
X155355303Y-95227149D01*
X155371293Y-95167471D01*
X155408244Y-95106849D01*
X155472104Y-95075827D01*
X155542598Y-95084255D01*
X155597346Y-95129457D01*
X155618964Y-95197082D01*
X155619000Y-95200082D01*
X155619000Y-96408891D01*
X155598998Y-96477012D01*
X155582097Y-96497985D01*
X151075867Y-101004382D01*
X151013556Y-101038408D01*
X150942740Y-101033344D01*
X150938553Y-101031697D01*
X150916512Y-101022567D01*
X150916502Y-101022564D01*
X150720119Y-100983500D01*
X150720116Y-100983500D01*
X150519884Y-100983500D01*
X150519880Y-100983500D01*
X150323497Y-101022564D01*
X150323494Y-101022565D01*
X150138507Y-101099190D01*
X149972017Y-101210434D01*
X149972011Y-101210439D01*
X149830439Y-101352011D01*
X149830434Y-101352017D01*
X149719190Y-101518507D01*
X149642565Y-101703494D01*
X149642564Y-101703497D01*
X149603500Y-101899880D01*
X149603500Y-102100119D01*
X149639714Y-102282175D01*
X149642564Y-102296502D01*
X149719190Y-102481493D01*
X149819232Y-102631217D01*
X149830434Y-102647982D01*
X149830439Y-102647988D01*
X149972011Y-102789560D01*
X149972017Y-102789565D01*
X149972019Y-102789567D01*
X150138507Y-102900810D01*
X150323498Y-102977436D01*
X150519884Y-103016500D01*
X150720116Y-103016500D01*
X150916502Y-102977436D01*
X151101493Y-102900810D01*
X151267981Y-102789567D01*
X151409567Y-102647981D01*
X151520810Y-102481493D01*
X151597436Y-102296502D01*
X151636500Y-102100116D01*
X151636500Y-101899884D01*
X151597436Y-101703498D01*
X151596231Y-101700590D01*
X151588169Y-101681124D01*
X151580580Y-101610534D01*
X151612360Y-101547047D01*
X151615459Y-101543834D01*
X155684212Y-97474930D01*
X157245400Y-97474930D01*
X157245400Y-98525063D01*
X157245401Y-98525073D01*
X157260165Y-98599300D01*
X157316416Y-98683484D01*
X157400597Y-98739733D01*
X157400599Y-98739734D01*
X157474833Y-98754500D01*
X158524966Y-98754499D01*
X158524969Y-98754498D01*
X158524973Y-98754498D01*
X158574226Y-98744701D01*
X158599201Y-98739734D01*
X158683384Y-98683484D01*
X158739634Y-98599301D01*
X158754400Y-98525067D01*
X158754399Y-97474934D01*
X158754398Y-97474931D01*
X158754398Y-97474926D01*
X158739634Y-97400699D01*
X158683383Y-97316515D01*
X158599202Y-97260266D01*
X158524967Y-97245500D01*
X157474836Y-97245500D01*
X157474826Y-97245501D01*
X157400599Y-97260265D01*
X157316415Y-97316516D01*
X157260166Y-97400697D01*
X157245400Y-97474930D01*
X155684212Y-97474930D01*
X156251811Y-96907310D01*
X156251813Y-96907310D01*
X156304485Y-96854638D01*
X156306043Y-96853124D01*
X156307842Y-96850213D01*
X156308498Y-96849217D01*
X156310283Y-96845540D01*
X156323335Y-96822934D01*
X156356001Y-96766354D01*
X156356001Y-96766351D01*
X156356482Y-96765519D01*
X156357571Y-96760494D01*
X156382002Y-96669318D01*
X156382000Y-96568868D01*
X156382000Y-88058722D01*
X156402002Y-87990601D01*
X156418907Y-87969624D01*
X157034260Y-87354307D01*
X157096572Y-87320285D01*
X157167388Y-87325352D01*
X157224222Y-87367900D01*
X157249031Y-87434421D01*
X157246931Y-87467985D01*
X157245551Y-87474922D01*
X157245550Y-87474934D01*
X157245550Y-88525063D01*
X157245551Y-88525073D01*
X157260315Y-88599300D01*
X157316566Y-88683484D01*
X157400747Y-88739733D01*
X157400749Y-88739734D01*
X157474983Y-88754500D01*
X158525016Y-88754499D01*
X158525019Y-88754498D01*
X158525023Y-88754498D01*
X158574276Y-88744701D01*
X158599251Y-88739734D01*
X158683434Y-88683484D01*
X158739684Y-88599301D01*
X158754450Y-88525067D01*
X158754449Y-87474934D01*
X158754448Y-87474931D01*
X158754448Y-87474926D01*
X158739684Y-87400699D01*
X158717768Y-87367900D01*
X158683434Y-87316516D01*
X158660297Y-87301056D01*
X158599252Y-87260266D01*
X158525017Y-87245500D01*
X157474986Y-87245500D01*
X157474974Y-87245502D01*
X157468057Y-87246878D01*
X157397343Y-87240549D01*
X157341277Y-87196994D01*
X157317658Y-87130041D01*
X157333987Y-87060947D01*
X157354383Y-87034203D01*
X157710910Y-86677698D01*
X157815912Y-86572702D01*
X157878226Y-86538679D01*
X157905005Y-86535800D01*
X159943269Y-86535800D01*
X160011390Y-86555802D01*
X160032368Y-86572708D01*
X160271075Y-86811443D01*
X160490016Y-87030410D01*
X160524037Y-87092724D01*
X160518968Y-87163539D01*
X160476418Y-87220373D01*
X160409896Y-87245179D01*
X160400915Y-87245500D01*
X159474986Y-87245500D01*
X159474976Y-87245501D01*
X159400749Y-87260265D01*
X159316565Y-87316516D01*
X159260316Y-87400697D01*
X159245550Y-87474930D01*
X159245550Y-88525063D01*
X159245551Y-88525073D01*
X159260315Y-88599300D01*
X159316566Y-88683484D01*
X159400747Y-88739733D01*
X159400749Y-88739734D01*
X159474983Y-88754500D01*
X160491800Y-88754499D01*
X160559921Y-88774501D01*
X160606414Y-88828157D01*
X160617800Y-88880499D01*
X160617800Y-88969500D01*
X160597798Y-89037621D01*
X160544142Y-89084114D01*
X160491800Y-89095500D01*
X159324836Y-89095500D01*
X159324826Y-89095501D01*
X159250599Y-89110265D01*
X159166415Y-89166516D01*
X159110166Y-89250697D01*
X159095400Y-89324930D01*
X159095400Y-90675063D01*
X159095401Y-90675073D01*
X159110165Y-90749300D01*
X159166416Y-90833484D01*
X159250597Y-90889733D01*
X159250599Y-90889734D01*
X159324833Y-90904500D01*
X160491800Y-90904499D01*
X160559921Y-90924501D01*
X160606414Y-90978157D01*
X160617800Y-91030499D01*
X160617800Y-97119500D01*
X160597798Y-97187621D01*
X160544142Y-97234114D01*
X160491800Y-97245500D01*
X159474836Y-97245500D01*
X159474826Y-97245501D01*
X159400599Y-97260265D01*
X159316415Y-97316516D01*
X159260166Y-97400697D01*
X159245400Y-97474930D01*
X159245400Y-98525063D01*
X159245401Y-98525073D01*
X159260165Y-98599300D01*
X159316416Y-98683484D01*
X159400597Y-98739733D01*
X159400599Y-98739734D01*
X159474833Y-98754500D01*
X160491800Y-98754499D01*
X160559921Y-98774501D01*
X160606414Y-98828157D01*
X160617800Y-98880499D01*
X160617800Y-98969450D01*
X160597798Y-99037571D01*
X160544142Y-99084064D01*
X160491800Y-99095450D01*
X159324886Y-99095450D01*
X159324876Y-99095451D01*
X159250649Y-99110215D01*
X159166465Y-99166466D01*
X159110216Y-99250647D01*
X159095451Y-99324876D01*
X159095450Y-99324884D01*
X159095450Y-100675113D01*
X159095451Y-100675123D01*
X159110215Y-100749350D01*
X159166466Y-100833534D01*
X159250647Y-100889783D01*
X159250649Y-100889784D01*
X159324883Y-100904550D01*
X160491800Y-100904549D01*
X160559921Y-100924551D01*
X160606414Y-100978207D01*
X160617800Y-101030549D01*
X160617800Y-107119400D01*
X160597798Y-107187521D01*
X160544142Y-107234014D01*
X160491800Y-107245400D01*
X159474836Y-107245400D01*
X159474826Y-107245401D01*
X159400599Y-107260165D01*
X159316415Y-107316416D01*
X159260166Y-107400597D01*
X159245400Y-107474830D01*
X159245400Y-108524963D01*
X159245401Y-108524973D01*
X159260165Y-108599200D01*
X159316416Y-108683384D01*
X159400597Y-108739633D01*
X159400599Y-108739634D01*
X159474833Y-108754400D01*
X160491800Y-108754399D01*
X160559921Y-108774401D01*
X160606414Y-108828057D01*
X160617800Y-108880399D01*
X160617800Y-108969400D01*
X160597798Y-109037521D01*
X160544142Y-109084014D01*
X160491800Y-109095400D01*
X159324886Y-109095400D01*
X159324876Y-109095401D01*
X159250649Y-109110165D01*
X159166465Y-109166416D01*
X159110216Y-109250597D01*
X159095450Y-109324830D01*
X159095450Y-110674963D01*
X159095451Y-110674973D01*
X159110215Y-110749200D01*
X159166466Y-110833384D01*
X159250647Y-110889633D01*
X159250649Y-110889634D01*
X159324883Y-110904400D01*
X160492400Y-110904399D01*
X160560521Y-110924401D01*
X160607014Y-110978057D01*
X160618400Y-111030399D01*
X160618400Y-117119400D01*
X160598398Y-117187521D01*
X160544742Y-117234014D01*
X160492400Y-117245400D01*
X159474836Y-117245400D01*
X159474826Y-117245401D01*
X159400599Y-117260165D01*
X159316415Y-117316416D01*
X159260166Y-117400597D01*
X159245400Y-117474830D01*
X159245400Y-118524963D01*
X159245401Y-118524973D01*
X159260165Y-118599200D01*
X159316416Y-118683384D01*
X159400597Y-118739633D01*
X159400599Y-118739634D01*
X159474833Y-118754400D01*
X160492400Y-118754399D01*
X160560521Y-118774401D01*
X160607014Y-118828057D01*
X160618400Y-118880399D01*
X160618400Y-118969400D01*
X160598398Y-119037521D01*
X160544742Y-119084014D01*
X160492400Y-119095400D01*
X159324886Y-119095400D01*
X159324876Y-119095401D01*
X159250649Y-119110165D01*
X159166465Y-119166416D01*
X159110216Y-119250597D01*
X159095450Y-119324830D01*
X159095450Y-120674963D01*
X159095451Y-120674973D01*
X159110215Y-120749200D01*
X159166466Y-120833384D01*
X159250647Y-120889633D01*
X159250649Y-120889634D01*
X159324883Y-120904400D01*
X160675116Y-120904399D01*
X160675119Y-120904398D01*
X160675123Y-120904398D01*
X160724376Y-120894601D01*
X160749351Y-120889634D01*
X160833534Y-120833384D01*
X160889784Y-120749201D01*
X160904550Y-120674967D01*
X160904549Y-119748260D01*
X160924551Y-119680140D01*
X160978207Y-119633647D01*
X161048481Y-119623543D01*
X161113061Y-119653036D01*
X161119644Y-119659166D01*
X161208645Y-119748167D01*
X161242671Y-119810479D01*
X161245550Y-119837262D01*
X161245550Y-120524963D01*
X161245551Y-120524973D01*
X161260315Y-120599200D01*
X161316566Y-120683384D01*
X161400747Y-120739633D01*
X161400749Y-120739634D01*
X161474983Y-120754400D01*
X162525016Y-120754399D01*
X162525019Y-120754398D01*
X162525023Y-120754398D01*
X162574276Y-120744601D01*
X162599251Y-120739634D01*
X162683434Y-120683384D01*
X162739684Y-120599201D01*
X162754450Y-120524967D01*
X162754449Y-119598185D01*
X162774451Y-119530065D01*
X162828107Y-119483572D01*
X162898381Y-119473468D01*
X162962961Y-119502961D01*
X162969542Y-119509088D01*
X163147582Y-119687146D01*
X163208650Y-119748220D01*
X163242672Y-119810534D01*
X163245550Y-119837311D01*
X163245550Y-120524963D01*
X163245551Y-120524973D01*
X163260315Y-120599200D01*
X163316566Y-120683384D01*
X163400747Y-120739633D01*
X163400749Y-120739634D01*
X163474983Y-120754400D01*
X164525016Y-120754399D01*
X164525019Y-120754398D01*
X164525023Y-120754398D01*
X164574276Y-120744601D01*
X164599251Y-120739634D01*
X164683434Y-120683384D01*
X164739684Y-120599201D01*
X164754450Y-120524967D01*
X164754449Y-119598185D01*
X164774451Y-119530065D01*
X164828107Y-119483572D01*
X164898381Y-119473468D01*
X164962961Y-119502961D01*
X164969542Y-119509088D01*
X165147582Y-119687146D01*
X165208500Y-119748070D01*
X165242522Y-119810384D01*
X165245400Y-119837161D01*
X165245400Y-120524963D01*
X165245401Y-120524973D01*
X165260165Y-120599200D01*
X165316416Y-120683384D01*
X165400597Y-120739633D01*
X165400599Y-120739634D01*
X165474833Y-120754400D01*
X166524966Y-120754399D01*
X166524969Y-120754398D01*
X166524973Y-120754398D01*
X166574226Y-120744601D01*
X166599201Y-120739634D01*
X166683384Y-120683384D01*
X166739634Y-120599201D01*
X166754400Y-120524967D01*
X166754399Y-119598135D01*
X166774401Y-119530015D01*
X166828057Y-119483522D01*
X166898331Y-119473418D01*
X166962911Y-119502911D01*
X166969492Y-119509039D01*
X167058294Y-119597849D01*
X167058500Y-119598055D01*
X167092522Y-119660369D01*
X167095400Y-119687146D01*
X167095400Y-120674963D01*
X167095401Y-120674973D01*
X167110165Y-120749200D01*
X167166416Y-120833384D01*
X167250597Y-120889633D01*
X167250599Y-120889634D01*
X167324833Y-120904400D01*
X168251655Y-120904399D01*
X168319776Y-120924401D01*
X168366269Y-120978057D01*
X168376373Y-121048331D01*
X168346880Y-121112911D01*
X168340753Y-121119492D01*
X167879877Y-121580393D01*
X167817566Y-121614420D01*
X167790779Y-121617300D01*
X148209716Y-121617300D01*
X148141595Y-121597298D01*
X148120620Y-121580395D01*
X143763103Y-117222789D01*
X143680196Y-117139880D01*
X149603500Y-117139880D01*
X149603500Y-117340119D01*
X149630297Y-117474831D01*
X149642564Y-117536502D01*
X149719190Y-117721493D01*
X149830433Y-117887981D01*
X149830434Y-117887982D01*
X149830439Y-117887988D01*
X149972011Y-118029560D01*
X149972017Y-118029565D01*
X149972019Y-118029567D01*
X150138507Y-118140810D01*
X150323498Y-118217436D01*
X150519884Y-118256500D01*
X150720116Y-118256500D01*
X150916502Y-118217436D01*
X151101493Y-118140810D01*
X151267981Y-118029567D01*
X151409567Y-117887981D01*
X151520810Y-117721493D01*
X151597436Y-117536502D01*
X151609703Y-117474830D01*
X157245400Y-117474830D01*
X157245400Y-118524963D01*
X157245401Y-118524973D01*
X157260165Y-118599200D01*
X157316416Y-118683384D01*
X157400597Y-118739633D01*
X157400599Y-118739634D01*
X157474833Y-118754400D01*
X158524966Y-118754399D01*
X158524969Y-118754398D01*
X158524973Y-118754398D01*
X158574226Y-118744601D01*
X158599201Y-118739634D01*
X158683384Y-118683384D01*
X158739634Y-118599201D01*
X158754400Y-118524967D01*
X158754399Y-117474834D01*
X158754398Y-117474831D01*
X158754398Y-117474826D01*
X158739634Y-117400599D01*
X158683383Y-117316415D01*
X158599202Y-117260166D01*
X158524967Y-117245400D01*
X157474836Y-117245400D01*
X157474826Y-117245401D01*
X157400599Y-117260165D01*
X157316415Y-117316416D01*
X157260166Y-117400597D01*
X157245400Y-117474830D01*
X151609703Y-117474830D01*
X151636500Y-117340116D01*
X151636500Y-117139884D01*
X151597436Y-116943498D01*
X151520810Y-116758507D01*
X151409567Y-116592019D01*
X151409565Y-116592017D01*
X151409560Y-116592011D01*
X151267988Y-116450439D01*
X151267982Y-116450434D01*
X151267981Y-116450433D01*
X151101493Y-116339190D01*
X150984839Y-116290870D01*
X150916505Y-116262565D01*
X150916502Y-116262564D01*
X150720119Y-116223500D01*
X150720116Y-116223500D01*
X150519884Y-116223500D01*
X150519880Y-116223500D01*
X150323497Y-116262564D01*
X150323494Y-116262565D01*
X150138507Y-116339190D01*
X149972017Y-116450434D01*
X149972011Y-116450439D01*
X149830439Y-116592011D01*
X149830434Y-116592017D01*
X149719190Y-116758507D01*
X149642565Y-116943494D01*
X149642564Y-116943497D01*
X149603500Y-117139880D01*
X143680196Y-117139880D01*
X143419304Y-116878983D01*
X143385279Y-116816670D01*
X143382400Y-116789888D01*
X143382400Y-114599880D01*
X149603500Y-114599880D01*
X149603500Y-114800119D01*
X149642564Y-114996502D01*
X149719190Y-115181493D01*
X149830433Y-115347981D01*
X149830434Y-115347982D01*
X149830439Y-115347988D01*
X149972011Y-115489560D01*
X149972017Y-115489565D01*
X149972019Y-115489567D01*
X150138507Y-115600810D01*
X150323498Y-115677436D01*
X150519884Y-115716500D01*
X150720116Y-115716500D01*
X150916502Y-115677436D01*
X151101493Y-115600810D01*
X151267981Y-115489567D01*
X151409567Y-115347981D01*
X151520810Y-115181493D01*
X151597436Y-114996502D01*
X151636500Y-114800116D01*
X151636500Y-114599884D01*
X151597436Y-114403498D01*
X151520810Y-114218507D01*
X151409567Y-114052019D01*
X151409565Y-114052017D01*
X151409560Y-114052011D01*
X151267988Y-113910439D01*
X151267982Y-113910434D01*
X151267981Y-113910433D01*
X151101493Y-113799190D01*
X150984839Y-113750870D01*
X150916505Y-113722565D01*
X150916502Y-113722564D01*
X150720119Y-113683500D01*
X150720116Y-113683500D01*
X150519884Y-113683500D01*
X150519880Y-113683500D01*
X150323497Y-113722564D01*
X150323494Y-113722565D01*
X150138507Y-113799190D01*
X149972017Y-113910434D01*
X149972011Y-113910439D01*
X149830439Y-114052011D01*
X149830434Y-114052017D01*
X149719190Y-114218507D01*
X149642565Y-114403494D01*
X149642564Y-114403497D01*
X149603500Y-114599880D01*
X143382400Y-114599880D01*
X143382400Y-112059880D01*
X149603500Y-112059880D01*
X149603500Y-112260119D01*
X149642564Y-112456502D01*
X149642565Y-112456505D01*
X149646384Y-112465724D01*
X149719190Y-112641493D01*
X149761000Y-112704066D01*
X149830434Y-112807982D01*
X149830439Y-112807988D01*
X149972011Y-112949560D01*
X149972017Y-112949565D01*
X149972019Y-112949567D01*
X150138507Y-113060810D01*
X150323498Y-113137436D01*
X150519884Y-113176500D01*
X150720116Y-113176500D01*
X150916502Y-113137436D01*
X151101493Y-113060810D01*
X151267981Y-112949567D01*
X151409567Y-112807981D01*
X151520810Y-112641493D01*
X151597436Y-112456502D01*
X151636500Y-112260116D01*
X151636500Y-112059884D01*
X151597436Y-111863498D01*
X151520810Y-111678507D01*
X151409567Y-111512019D01*
X151409565Y-111512017D01*
X151409560Y-111512011D01*
X151267988Y-111370439D01*
X151267982Y-111370434D01*
X151227418Y-111343330D01*
X151101493Y-111259190D01*
X150983040Y-111210125D01*
X150916505Y-111182565D01*
X150916502Y-111182564D01*
X150720119Y-111143500D01*
X150720116Y-111143500D01*
X150519884Y-111143500D01*
X150519880Y-111143500D01*
X150323497Y-111182564D01*
X150323494Y-111182565D01*
X150138507Y-111259190D01*
X149972017Y-111370434D01*
X149972011Y-111370439D01*
X149830439Y-111512011D01*
X149830434Y-111512017D01*
X149719190Y-111678507D01*
X149642565Y-111863494D01*
X149642564Y-111863497D01*
X149603500Y-112059880D01*
X143382400Y-112059880D01*
X143382400Y-106292930D01*
X149603500Y-106292930D01*
X149603500Y-107867063D01*
X149603501Y-107867073D01*
X149618265Y-107941300D01*
X149674516Y-108025484D01*
X149758697Y-108081733D01*
X149758699Y-108081734D01*
X149832933Y-108096500D01*
X151407066Y-108096499D01*
X151407069Y-108096498D01*
X151407073Y-108096498D01*
X151456326Y-108086701D01*
X151481301Y-108081734D01*
X151565484Y-108025484D01*
X151621734Y-107941301D01*
X151636500Y-107867067D01*
X151636500Y-107474830D01*
X157245400Y-107474830D01*
X157245400Y-108524963D01*
X157245401Y-108524973D01*
X157260165Y-108599200D01*
X157316416Y-108683384D01*
X157400597Y-108739633D01*
X157400599Y-108739634D01*
X157474833Y-108754400D01*
X158524966Y-108754399D01*
X158524969Y-108754398D01*
X158524973Y-108754398D01*
X158574226Y-108744601D01*
X158599201Y-108739634D01*
X158683384Y-108683384D01*
X158739634Y-108599201D01*
X158754400Y-108524967D01*
X158754399Y-107474834D01*
X158754398Y-107474831D01*
X158754398Y-107474826D01*
X158739634Y-107400599D01*
X158737585Y-107397532D01*
X158683384Y-107316416D01*
X158619350Y-107273629D01*
X158599202Y-107260166D01*
X158524967Y-107245400D01*
X157474836Y-107245400D01*
X157474826Y-107245401D01*
X157400599Y-107260165D01*
X157316415Y-107316416D01*
X157260166Y-107400597D01*
X157245400Y-107474830D01*
X151636500Y-107474830D01*
X151636499Y-106979884D01*
X151636499Y-106292936D01*
X151636498Y-106292926D01*
X151621734Y-106218699D01*
X151608530Y-106198938D01*
X151565484Y-106134516D01*
X151535141Y-106114241D01*
X151481302Y-106078266D01*
X151407067Y-106063500D01*
X149832936Y-106063500D01*
X149832926Y-106063501D01*
X149758699Y-106078265D01*
X149674515Y-106134516D01*
X149618266Y-106218697D01*
X149603500Y-106292930D01*
X143382400Y-106292930D01*
X143382400Y-100959221D01*
X143402402Y-100891100D01*
X143419300Y-100870130D01*
X144725746Y-99563772D01*
X144725760Y-99563761D01*
X144734243Y-99555277D01*
X144734247Y-99555276D01*
X144780394Y-99509129D01*
X144805268Y-99484257D01*
X144805270Y-99484252D01*
X144805276Y-99484247D01*
X144830418Y-99440700D01*
X144855497Y-99397265D01*
X144855499Y-99397257D01*
X144855501Y-99397254D01*
X144863237Y-99368382D01*
X144881499Y-99300238D01*
X144881499Y-99300228D01*
X144881500Y-99300225D01*
X144881500Y-99250649D01*
X144881502Y-99199788D01*
X144881500Y-99199783D01*
X144881501Y-99192082D01*
X144881500Y-99192048D01*
X144881500Y-96963699D01*
X144901502Y-96895578D01*
X144955158Y-96849085D01*
X145007500Y-96837699D01*
X145324964Y-96837699D01*
X145324966Y-96837699D01*
X145324969Y-96837698D01*
X145324972Y-96837698D01*
X145361563Y-96830419D01*
X145399201Y-96822934D01*
X145483384Y-96766684D01*
X145539634Y-96682501D01*
X145554400Y-96608267D01*
X145554400Y-96329200D01*
X145574402Y-96261079D01*
X145628058Y-96214586D01*
X145680400Y-96203200D01*
X145860659Y-96203200D01*
X145928780Y-96223202D01*
X145949673Y-96240024D01*
X147019132Y-97307540D01*
X147082114Y-97370407D01*
X147116196Y-97432688D01*
X147119100Y-97459583D01*
X147119100Y-101470023D01*
X147119099Y-101470023D01*
X147119100Y-101470025D01*
X147145099Y-101567054D01*
X147171833Y-101613359D01*
X147195324Y-101654047D01*
X147195325Y-101654048D01*
X147195329Y-101654053D01*
X149566595Y-104025317D01*
X149600620Y-104087629D01*
X149603500Y-104114412D01*
X149603500Y-105327063D01*
X149603501Y-105327073D01*
X149618265Y-105401300D01*
X149674516Y-105485484D01*
X149758697Y-105541733D01*
X149758699Y-105541734D01*
X149832933Y-105556500D01*
X151407066Y-105556499D01*
X151407069Y-105556498D01*
X151407073Y-105556498D01*
X151456326Y-105546701D01*
X151481301Y-105541734D01*
X151565484Y-105485484D01*
X151621734Y-105401301D01*
X151636500Y-105327067D01*
X151636499Y-103752934D01*
X151636498Y-103752931D01*
X151636498Y-103752926D01*
X151621734Y-103678699D01*
X151565484Y-103594516D01*
X151564139Y-103593617D01*
X151481302Y-103538266D01*
X151407069Y-103523500D01*
X151407067Y-103523500D01*
X150196013Y-103523500D01*
X150127892Y-103503498D01*
X150106918Y-103486595D01*
X147919005Y-101298682D01*
X147884979Y-101236370D01*
X147882100Y-101209587D01*
X147882100Y-97307540D01*
X147882152Y-97306735D01*
X147882145Y-97298981D01*
X147882146Y-97298978D01*
X147882100Y-97248201D01*
X147882100Y-97198875D01*
X147882100Y-97198868D01*
X147882055Y-97198528D01*
X147868838Y-97149381D01*
X147868808Y-97149269D01*
X147856100Y-97101842D01*
X147855969Y-97101527D01*
X147855968Y-97101524D01*
X147830913Y-97058220D01*
X147830884Y-97058101D01*
X147830855Y-97058119D01*
X147805876Y-97014853D01*
X147805872Y-97014849D01*
X147805663Y-97014576D01*
X147799979Y-97008902D01*
X147770459Y-96979436D01*
X147734847Y-96943824D01*
X147729385Y-96938362D01*
X147728771Y-96937824D01*
X147698202Y-96907311D01*
X146340322Y-95551899D01*
X146304847Y-95516424D01*
X146304846Y-95516423D01*
X146304569Y-95516211D01*
X146261516Y-95491407D01*
X146261531Y-95491380D01*
X146261416Y-95491349D01*
X146217854Y-95466199D01*
X146217844Y-95466193D01*
X146217545Y-95466070D01*
X146217539Y-95466067D01*
X146169145Y-95453147D01*
X146169037Y-95453118D01*
X146120820Y-95440198D01*
X146120485Y-95440155D01*
X146120480Y-95440154D01*
X146120478Y-95440154D01*
X146086626Y-95440184D01*
X146069700Y-95440200D01*
X145680399Y-95440200D01*
X145612278Y-95420198D01*
X145565785Y-95366542D01*
X145554399Y-95314200D01*
X145554399Y-95034136D01*
X145554398Y-95034127D01*
X145539634Y-94959899D01*
X145524874Y-94937810D01*
X145483384Y-94875716D01*
X145483383Y-94875715D01*
X145399202Y-94819466D01*
X145324967Y-94804700D01*
X143750836Y-94804700D01*
X143750826Y-94804701D01*
X143676599Y-94819465D01*
X143592415Y-94875716D01*
X143536166Y-94959897D01*
X143521400Y-95034130D01*
X143521400Y-96246087D01*
X143501398Y-96314208D01*
X143484499Y-96335177D01*
X143355860Y-96463817D01*
X143229494Y-96590183D01*
X143167182Y-96624208D01*
X143096366Y-96619143D01*
X143039531Y-96576596D01*
X143014720Y-96510075D01*
X143014399Y-96501113D01*
X143014399Y-95034134D01*
X143014398Y-95034127D01*
X143014398Y-95034126D01*
X142999634Y-94959899D01*
X142984874Y-94937810D01*
X142943384Y-94875716D01*
X142943383Y-94875715D01*
X142859202Y-94819466D01*
X142784967Y-94804700D01*
X141210836Y-94804700D01*
X141210826Y-94804701D01*
X141136599Y-94819465D01*
X141052415Y-94875716D01*
X140996166Y-94959897D01*
X140981400Y-95034130D01*
X140981400Y-96608263D01*
X140981401Y-96608273D01*
X140996165Y-96682500D01*
X141052416Y-96766684D01*
X141136597Y-96822933D01*
X141136599Y-96822934D01*
X141210833Y-96837700D01*
X142677787Y-96837699D01*
X142745908Y-96857701D01*
X142792401Y-96911357D01*
X142802505Y-96981631D01*
X142773012Y-97046211D01*
X142766882Y-97052794D01*
X138238082Y-101581595D01*
X138175770Y-101615621D01*
X138148987Y-101618500D01*
X136522499Y-101618500D01*
X136454378Y-101598498D01*
X136407885Y-101544842D01*
X136396499Y-101492500D01*
X136396499Y-101212936D01*
X136396498Y-101212927D01*
X136381734Y-101138699D01*
X136369003Y-101119646D01*
X136325484Y-101054516D01*
X136325483Y-101054515D01*
X136241302Y-100998266D01*
X136167067Y-100983500D01*
X134592936Y-100983500D01*
X134592926Y-100983501D01*
X134518699Y-100998265D01*
X134434515Y-101054516D01*
X134378266Y-101138697D01*
X134363500Y-101212930D01*
X134363500Y-102787063D01*
X134363501Y-102787073D01*
X134378265Y-102861300D01*
X134434516Y-102945484D01*
X134518697Y-103001733D01*
X134518699Y-103001734D01*
X134592933Y-103016500D01*
X136167066Y-103016499D01*
X136167069Y-103016498D01*
X136167073Y-103016498D01*
X136216326Y-103006701D01*
X136241301Y-103001734D01*
X136325484Y-102945484D01*
X136381734Y-102861301D01*
X136396500Y-102787067D01*
X136396500Y-102507500D01*
X136416502Y-102439379D01*
X136470158Y-102392886D01*
X136522500Y-102381500D01*
X138409423Y-102381500D01*
X138409425Y-102381500D01*
X138506454Y-102355501D01*
X138506457Y-102355499D01*
X138506458Y-102355499D01*
X138587343Y-102308800D01*
X138593447Y-102305276D01*
X138664476Y-102234247D01*
X138682196Y-102216527D01*
X138682198Y-102216523D01*
X143903405Y-96995315D01*
X143965717Y-96961290D01*
X144036532Y-96966355D01*
X144093368Y-97008902D01*
X144118179Y-97075422D01*
X144118500Y-97084411D01*
X144118500Y-99039776D01*
X144098498Y-99107897D01*
X144081592Y-99128874D01*
X142771069Y-100439310D01*
X142771034Y-100439341D01*
X142725826Y-100484549D01*
X142725826Y-100484550D01*
X142695630Y-100514745D01*
X142695625Y-100514751D01*
X142695624Y-100514753D01*
X142675663Y-100549327D01*
X142672532Y-100554750D01*
X142645400Y-100601740D01*
X142645398Y-100601744D01*
X142645358Y-100601863D01*
X142645129Y-100602751D01*
X142637662Y-100630616D01*
X142619402Y-100698754D01*
X142619402Y-100698757D01*
X142619401Y-100698762D01*
X142619400Y-100698771D01*
X142619400Y-100698775D01*
X142619400Y-100732245D01*
X142619400Y-100749351D01*
X142619398Y-100807975D01*
X142619400Y-100808004D01*
X142619400Y-111040834D01*
X142599398Y-111108955D01*
X142545742Y-111155448D01*
X142475468Y-111165552D01*
X142410888Y-111136058D01*
X142372504Y-111076332D01*
X142371694Y-111073446D01*
X142355403Y-111012649D01*
X142305178Y-110925656D01*
X142305170Y-110925646D01*
X136375549Y-104996026D01*
X136341523Y-104933714D01*
X136346588Y-104862899D01*
X136348226Y-104858736D01*
X136357436Y-104836502D01*
X136396500Y-104640116D01*
X136396500Y-104439884D01*
X136357436Y-104243498D01*
X136280810Y-104058507D01*
X136169567Y-103892019D01*
X136169565Y-103892017D01*
X136169560Y-103892011D01*
X136027988Y-103750439D01*
X136027982Y-103750434D01*
X136027981Y-103750433D01*
X135861493Y-103639190D01*
X135744230Y-103590618D01*
X135676505Y-103562565D01*
X135676502Y-103562564D01*
X135480119Y-103523500D01*
X135480116Y-103523500D01*
X135279884Y-103523500D01*
X135279880Y-103523500D01*
X135083497Y-103562564D01*
X135083494Y-103562565D01*
X134898507Y-103639190D01*
X134732017Y-103750434D01*
X134732011Y-103750439D01*
X134590439Y-103892011D01*
X134590434Y-103892017D01*
X134479190Y-104058507D01*
X134402565Y-104243494D01*
X134402564Y-104243497D01*
X134363500Y-104439880D01*
X134363500Y-104640119D01*
X134367716Y-104661312D01*
X134402564Y-104836502D01*
X134479190Y-105021493D01*
X134590433Y-105187981D01*
X134590434Y-105187982D01*
X134590439Y-105187988D01*
X134732011Y-105329560D01*
X134732017Y-105329565D01*
X134732019Y-105329567D01*
X134898507Y-105440810D01*
X135083498Y-105517436D01*
X135279884Y-105556500D01*
X135480116Y-105556500D01*
X135676502Y-105517436D01*
X135698712Y-105508235D01*
X135769301Y-105500646D01*
X135832788Y-105532424D01*
X135836026Y-105535549D01*
X141581495Y-111281018D01*
X141615521Y-111343330D01*
X141618400Y-111370113D01*
X141618400Y-112579348D01*
X141598398Y-112647469D01*
X141544742Y-112693962D01*
X141474468Y-112704066D01*
X141409888Y-112674572D01*
X141371504Y-112614846D01*
X141370695Y-112611964D01*
X141367924Y-112601624D01*
X141367914Y-112601589D01*
X141361960Y-112579348D01*
X141354835Y-112552729D01*
X141354834Y-112552727D01*
X141354832Y-112552719D01*
X141354805Y-112552653D01*
X141328883Y-112507753D01*
X141328869Y-112507730D01*
X141304628Y-112465721D01*
X141304575Y-112465652D01*
X141295425Y-112456502D01*
X141267901Y-112428978D01*
X141267887Y-112428953D01*
X141267882Y-112428959D01*
X136376015Y-107534829D01*
X136342004Y-107472509D01*
X136347086Y-107401694D01*
X136348707Y-107397574D01*
X136357436Y-107376502D01*
X136396500Y-107180116D01*
X136396500Y-106979884D01*
X136357436Y-106783498D01*
X136280810Y-106598507D01*
X136169567Y-106432019D01*
X136169565Y-106432017D01*
X136169560Y-106432011D01*
X136027988Y-106290439D01*
X136027982Y-106290434D01*
X135971913Y-106252970D01*
X135861493Y-106179190D01*
X135704693Y-106114241D01*
X135676505Y-106102565D01*
X135676502Y-106102564D01*
X135480119Y-106063500D01*
X135480116Y-106063500D01*
X135279884Y-106063500D01*
X135279880Y-106063500D01*
X135083497Y-106102564D01*
X135083494Y-106102565D01*
X134898507Y-106179190D01*
X134732017Y-106290434D01*
X134732011Y-106290439D01*
X134590439Y-106432011D01*
X134590434Y-106432017D01*
X134479190Y-106598507D01*
X134402565Y-106783494D01*
X134402564Y-106783497D01*
X134363500Y-106979880D01*
X134363500Y-107180119D01*
X134402564Y-107376502D01*
X134402565Y-107376505D01*
X134412545Y-107400599D01*
X134479190Y-107561493D01*
X134590433Y-107727981D01*
X134590434Y-107727982D01*
X134590439Y-107727988D01*
X134732011Y-107869560D01*
X134732017Y-107869565D01*
X134732019Y-107869567D01*
X134898507Y-107980810D01*
X135083498Y-108057436D01*
X135279884Y-108096500D01*
X135480116Y-108096500D01*
X135676502Y-108057436D01*
X135699891Y-108047747D01*
X135770476Y-108040157D01*
X135833964Y-108071935D01*
X135837208Y-108075065D01*
X140580917Y-112820970D01*
X140614927Y-112883288D01*
X140617800Y-112910043D01*
X140617800Y-118941149D01*
X140617799Y-118941167D01*
X140617800Y-118999109D01*
X140617800Y-119049327D01*
X140617801Y-119049332D01*
X140617802Y-119049338D01*
X140643798Y-119146354D01*
X140643800Y-119146358D01*
X140643801Y-119146360D01*
X140655380Y-119166415D01*
X140668313Y-119188814D01*
X140668314Y-119188816D01*
X140694024Y-119233348D01*
X140694028Y-119233352D01*
X140694029Y-119233353D01*
X140711276Y-119250599D01*
X140743241Y-119282564D01*
X140772227Y-119311550D01*
X140772238Y-119311559D01*
X145716484Y-124255607D01*
X145745182Y-124284305D01*
X145745183Y-124284306D01*
X145779207Y-124346619D01*
X145774141Y-124417435D01*
X145731593Y-124474270D01*
X145665073Y-124499079D01*
X145656086Y-124499400D01*
X120626500Y-124499400D01*
X120558379Y-124479398D01*
X120511886Y-124425742D01*
X120500500Y-124373400D01*
X120500500Y-117139880D01*
X134363500Y-117139880D01*
X134363500Y-117340119D01*
X134390297Y-117474831D01*
X134402564Y-117536502D01*
X134479190Y-117721493D01*
X134590433Y-117887981D01*
X134590434Y-117887982D01*
X134590439Y-117887988D01*
X134732011Y-118029560D01*
X134732017Y-118029565D01*
X134732019Y-118029567D01*
X134898507Y-118140810D01*
X135083498Y-118217436D01*
X135279884Y-118256500D01*
X135480116Y-118256500D01*
X135676502Y-118217436D01*
X135861493Y-118140810D01*
X136027981Y-118029567D01*
X136169567Y-117887981D01*
X136280810Y-117721493D01*
X136357436Y-117536502D01*
X136396500Y-117340116D01*
X136396500Y-117139884D01*
X136357436Y-116943498D01*
X136280810Y-116758507D01*
X136169567Y-116592019D01*
X136169565Y-116592017D01*
X136169560Y-116592011D01*
X136027988Y-116450439D01*
X136027982Y-116450434D01*
X136027981Y-116450433D01*
X135861493Y-116339190D01*
X135744839Y-116290870D01*
X135676505Y-116262565D01*
X135676502Y-116262564D01*
X135480119Y-116223500D01*
X135480116Y-116223500D01*
X135279884Y-116223500D01*
X135279880Y-116223500D01*
X135083497Y-116262564D01*
X135083494Y-116262565D01*
X134898507Y-116339190D01*
X134732017Y-116450434D01*
X134732011Y-116450439D01*
X134590439Y-116592011D01*
X134590434Y-116592017D01*
X134479190Y-116758507D01*
X134402565Y-116943494D01*
X134402564Y-116943497D01*
X134363500Y-117139880D01*
X120500500Y-117139880D01*
X120500500Y-112059880D01*
X134363500Y-112059880D01*
X134363500Y-112260119D01*
X134402564Y-112456502D01*
X134402565Y-112456505D01*
X134406384Y-112465724D01*
X134479190Y-112641493D01*
X134521000Y-112704066D01*
X134590434Y-112807982D01*
X134590439Y-112807988D01*
X134732011Y-112949560D01*
X134732017Y-112949565D01*
X134732019Y-112949567D01*
X134898507Y-113060810D01*
X135083498Y-113137436D01*
X135279884Y-113176500D01*
X135480116Y-113176500D01*
X135676502Y-113137436D01*
X135861493Y-113060810D01*
X136027981Y-112949567D01*
X136169567Y-112807981D01*
X136280810Y-112641493D01*
X136357436Y-112456502D01*
X136396500Y-112260116D01*
X136396500Y-112059884D01*
X136357436Y-111863498D01*
X136280810Y-111678507D01*
X136169567Y-111512019D01*
X136169565Y-111512017D01*
X136169560Y-111512011D01*
X136027988Y-111370439D01*
X136027982Y-111370434D01*
X135987418Y-111343330D01*
X135861493Y-111259190D01*
X135743040Y-111210125D01*
X135676505Y-111182565D01*
X135676502Y-111182564D01*
X135480119Y-111143500D01*
X135480116Y-111143500D01*
X135279884Y-111143500D01*
X135279880Y-111143500D01*
X135083497Y-111182564D01*
X135083494Y-111182565D01*
X134898507Y-111259190D01*
X134732017Y-111370434D01*
X134732011Y-111370439D01*
X134590439Y-111512011D01*
X134590434Y-111512017D01*
X134479190Y-111678507D01*
X134402565Y-111863494D01*
X134402564Y-111863497D01*
X134363500Y-112059880D01*
X120500500Y-112059880D01*
X120500500Y-109519880D01*
X134363500Y-109519880D01*
X134363500Y-109720119D01*
X134376211Y-109784018D01*
X134402564Y-109916502D01*
X134479190Y-110101493D01*
X134555555Y-110215782D01*
X134590434Y-110267982D01*
X134590439Y-110267988D01*
X134732011Y-110409560D01*
X134732017Y-110409565D01*
X134732019Y-110409567D01*
X134898507Y-110520810D01*
X135083498Y-110597436D01*
X135279884Y-110636500D01*
X135480116Y-110636500D01*
X135676502Y-110597436D01*
X135861493Y-110520810D01*
X136027981Y-110409567D01*
X136169567Y-110267981D01*
X136280810Y-110101493D01*
X136357436Y-109916502D01*
X136396500Y-109720116D01*
X136396500Y-109519884D01*
X136357436Y-109323498D01*
X136280810Y-109138507D01*
X136169567Y-108972019D01*
X136169565Y-108972017D01*
X136169560Y-108972011D01*
X136027988Y-108830439D01*
X136027982Y-108830434D01*
X135951794Y-108779527D01*
X135861493Y-108719190D01*
X135744839Y-108670870D01*
X135676505Y-108642565D01*
X135676502Y-108642564D01*
X135480119Y-108603500D01*
X135480116Y-108603500D01*
X135279884Y-108603500D01*
X135279880Y-108603500D01*
X135083497Y-108642564D01*
X135083494Y-108642565D01*
X134898507Y-108719190D01*
X134732017Y-108830434D01*
X134732011Y-108830439D01*
X134590439Y-108972011D01*
X134590434Y-108972017D01*
X134479190Y-109138507D01*
X134402565Y-109323494D01*
X134402564Y-109323497D01*
X134363500Y-109519880D01*
X120500500Y-109519880D01*
X120500500Y-105159575D01*
X120520502Y-105091454D01*
X120574158Y-105044961D01*
X120644432Y-105034857D01*
X120709012Y-105064351D01*
X120735619Y-105096575D01*
X120786359Y-105184460D01*
X120786375Y-105184486D01*
X121036359Y-105541501D01*
X121036368Y-105541514D01*
X121316521Y-105875386D01*
X121624713Y-106183578D01*
X121958585Y-106463731D01*
X121958598Y-106463740D01*
X122307798Y-106708252D01*
X122315622Y-106713730D01*
X122315634Y-106713737D01*
X122315639Y-106713740D01*
X122548623Y-106848253D01*
X122693079Y-106931655D01*
X123088093Y-107115853D01*
X123321117Y-107200667D01*
X123497648Y-107264919D01*
X123497650Y-107264919D01*
X123497657Y-107264922D01*
X123918656Y-107377729D01*
X124347884Y-107453413D01*
X124503906Y-107467063D01*
X124570024Y-107492927D01*
X124582019Y-107503489D01*
X124635775Y-107557245D01*
X124635780Y-107557249D01*
X124635782Y-107557251D01*
X124635783Y-107557252D01*
X124635785Y-107557253D01*
X124643129Y-107561493D01*
X124763318Y-107630884D01*
X124905567Y-107669000D01*
X124905569Y-107669000D01*
X125052831Y-107669000D01*
X125052833Y-107669000D01*
X125195082Y-107630884D01*
X125322618Y-107557251D01*
X125372391Y-107507476D01*
X125434703Y-107473452D01*
X125450504Y-107471051D01*
X125652116Y-107453413D01*
X126081344Y-107377729D01*
X126502343Y-107264922D01*
X126911907Y-107115853D01*
X127306921Y-106931655D01*
X127684378Y-106713730D01*
X128041406Y-106463737D01*
X128041409Y-106463734D01*
X128041414Y-106463731D01*
X128375286Y-106183578D01*
X128375296Y-106183569D01*
X128683469Y-105875396D01*
X128683478Y-105875386D01*
X128963631Y-105541514D01*
X128963637Y-105541506D01*
X129213630Y-105184478D01*
X129431555Y-104807021D01*
X129615753Y-104412007D01*
X129764822Y-104002443D01*
X129877629Y-103581444D01*
X129953313Y-103152216D01*
X129991300Y-102718025D01*
X129991300Y-102282175D01*
X129953313Y-101847984D01*
X129877629Y-101418756D01*
X129764822Y-100997757D01*
X129760731Y-100986518D01*
X129692558Y-100799212D01*
X129615753Y-100588193D01*
X129431555Y-100193179D01*
X129362535Y-100073633D01*
X129213640Y-99815739D01*
X129213624Y-99815713D01*
X128963640Y-99458698D01*
X128963631Y-99458685D01*
X128683478Y-99124813D01*
X128375296Y-98816631D01*
X128375289Y-98816625D01*
X128375286Y-98816622D01*
X128269082Y-98727506D01*
X128204041Y-98672930D01*
X134363500Y-98672930D01*
X134363500Y-100247063D01*
X134363501Y-100247073D01*
X134378265Y-100321300D01*
X134434516Y-100405484D01*
X134518697Y-100461733D01*
X134518699Y-100461734D01*
X134592933Y-100476500D01*
X136167066Y-100476499D01*
X136167069Y-100476498D01*
X136167073Y-100476498D01*
X136216326Y-100466701D01*
X136241301Y-100461734D01*
X136325484Y-100405484D01*
X136381734Y-100321301D01*
X136396500Y-100247067D01*
X136396499Y-98672934D01*
X136396498Y-98672930D01*
X136396498Y-98672926D01*
X136381734Y-98598699D01*
X136377107Y-98591775D01*
X136325484Y-98514516D01*
X136325483Y-98514515D01*
X136241302Y-98458266D01*
X136167067Y-98443500D01*
X134592936Y-98443500D01*
X134592926Y-98443501D01*
X134518699Y-98458265D01*
X134434515Y-98514516D01*
X134378266Y-98598697D01*
X134363500Y-98672930D01*
X128204041Y-98672930D01*
X128041414Y-98536468D01*
X128041401Y-98536459D01*
X127684386Y-98286475D01*
X127684360Y-98286459D01*
X127306932Y-98068551D01*
X127306914Y-98068541D01*
X126911905Y-97884346D01*
X126502351Y-97735280D01*
X126324402Y-97687598D01*
X126081344Y-97622471D01*
X125652116Y-97546787D01*
X125217925Y-97508800D01*
X124782075Y-97508800D01*
X124347884Y-97546787D01*
X123918656Y-97622471D01*
X123918652Y-97622472D01*
X123497648Y-97735280D01*
X123088094Y-97884346D01*
X122693085Y-98068541D01*
X122693067Y-98068551D01*
X122315639Y-98286459D01*
X122315613Y-98286475D01*
X121958598Y-98536459D01*
X121958585Y-98536468D01*
X121624713Y-98816621D01*
X121624704Y-98816631D01*
X121316531Y-99124804D01*
X121316521Y-99124813D01*
X121036368Y-99458685D01*
X121036359Y-99458698D01*
X120786375Y-99815713D01*
X120786359Y-99815739D01*
X120735619Y-99903624D01*
X120684236Y-99952617D01*
X120614523Y-99966053D01*
X120548612Y-99939667D01*
X120507430Y-99881834D01*
X120500500Y-99840624D01*
X120500500Y-96819880D01*
X134363500Y-96819880D01*
X134363500Y-97020119D01*
X134393680Y-97171842D01*
X134402564Y-97216502D01*
X134479190Y-97401493D01*
X134528263Y-97474936D01*
X134590434Y-97567982D01*
X134590439Y-97567988D01*
X134732011Y-97709560D01*
X134732017Y-97709565D01*
X134732019Y-97709567D01*
X134898507Y-97820810D01*
X135083498Y-97897436D01*
X135279884Y-97936500D01*
X135480116Y-97936500D01*
X135676502Y-97897436D01*
X135861493Y-97820810D01*
X136027981Y-97709567D01*
X136169567Y-97567981D01*
X136280810Y-97401493D01*
X136357436Y-97216502D01*
X136396500Y-97020116D01*
X136396500Y-96819884D01*
X136357436Y-96623498D01*
X136280810Y-96438507D01*
X136169567Y-96272019D01*
X136169565Y-96272017D01*
X136169560Y-96272011D01*
X136027988Y-96130439D01*
X136027982Y-96130434D01*
X136027981Y-96130433D01*
X135861493Y-96019190D01*
X135698556Y-95951699D01*
X135676505Y-95942565D01*
X135676502Y-95942564D01*
X135480119Y-95903500D01*
X135480116Y-95903500D01*
X135279884Y-95903500D01*
X135279880Y-95903500D01*
X135083497Y-95942564D01*
X135083494Y-95942565D01*
X134898507Y-96019190D01*
X134732017Y-96130434D01*
X134732011Y-96130439D01*
X134590439Y-96272011D01*
X134590434Y-96272017D01*
X134479190Y-96438507D01*
X134402565Y-96623494D01*
X134402564Y-96623497D01*
X134363500Y-96819880D01*
X120500500Y-96819880D01*
X120500500Y-94279880D01*
X134363500Y-94279880D01*
X134363500Y-94480119D01*
X134402564Y-94676502D01*
X134479190Y-94861493D01*
X134590433Y-95027981D01*
X134590434Y-95027982D01*
X134590439Y-95027988D01*
X134732011Y-95169560D01*
X134732017Y-95169565D01*
X134732019Y-95169567D01*
X134898507Y-95280810D01*
X135083498Y-95357436D01*
X135279884Y-95396500D01*
X135480116Y-95396500D01*
X135676502Y-95357436D01*
X135861493Y-95280810D01*
X136027981Y-95169567D01*
X136169567Y-95027981D01*
X136280810Y-94861493D01*
X136357436Y-94676502D01*
X136396500Y-94480116D01*
X136396500Y-94279884D01*
X136357436Y-94083498D01*
X136280810Y-93898507D01*
X136169567Y-93732019D01*
X136169565Y-93732017D01*
X136169560Y-93732011D01*
X136027988Y-93590439D01*
X136027982Y-93590434D01*
X136027981Y-93590433D01*
X135861493Y-93479190D01*
X135717592Y-93419584D01*
X135676505Y-93402565D01*
X135676502Y-93402564D01*
X135480119Y-93363500D01*
X135480116Y-93363500D01*
X135279884Y-93363500D01*
X135279880Y-93363500D01*
X135083497Y-93402564D01*
X135083494Y-93402565D01*
X134898507Y-93479190D01*
X134732017Y-93590434D01*
X134732011Y-93590439D01*
X134590439Y-93732011D01*
X134590434Y-93732017D01*
X134479190Y-93898507D01*
X134402565Y-94083494D01*
X134402564Y-94083497D01*
X134363500Y-94279880D01*
X120500500Y-94279880D01*
X120500500Y-91739880D01*
X134363500Y-91739880D01*
X134363500Y-91940119D01*
X134402564Y-92136502D01*
X134402565Y-92136505D01*
X134430870Y-92204839D01*
X134479190Y-92321493D01*
X134590433Y-92487981D01*
X134590434Y-92487982D01*
X134590439Y-92487988D01*
X134732011Y-92629560D01*
X134732017Y-92629565D01*
X134732019Y-92629567D01*
X134898507Y-92740810D01*
X135083498Y-92817436D01*
X135279884Y-92856500D01*
X135480116Y-92856500D01*
X135676502Y-92817436D01*
X135861493Y-92740810D01*
X136027981Y-92629567D01*
X136169567Y-92487981D01*
X136280810Y-92321493D01*
X136357436Y-92136502D01*
X136396500Y-91940116D01*
X136396500Y-91739884D01*
X136396499Y-91739880D01*
X149603500Y-91739880D01*
X149603500Y-91940119D01*
X149642564Y-92136502D01*
X149642565Y-92136505D01*
X149670870Y-92204839D01*
X149719190Y-92321493D01*
X149830433Y-92487981D01*
X149830434Y-92487982D01*
X149830439Y-92487988D01*
X149972011Y-92629560D01*
X149972017Y-92629565D01*
X149972019Y-92629567D01*
X150138507Y-92740810D01*
X150323498Y-92817436D01*
X150519884Y-92856500D01*
X150720116Y-92856500D01*
X150916502Y-92817436D01*
X151101493Y-92740810D01*
X151267981Y-92629567D01*
X151409567Y-92487981D01*
X151520810Y-92321493D01*
X151597436Y-92136502D01*
X151636500Y-91940116D01*
X151636500Y-91739884D01*
X151597436Y-91543498D01*
X151520810Y-91358507D01*
X151409567Y-91192019D01*
X151409565Y-91192017D01*
X151409560Y-91192011D01*
X151267988Y-91050439D01*
X151267982Y-91050434D01*
X151238147Y-91030499D01*
X151101493Y-90939190D01*
X150925138Y-90866141D01*
X150916505Y-90862565D01*
X150916502Y-90862564D01*
X150720119Y-90823500D01*
X150720116Y-90823500D01*
X150519884Y-90823500D01*
X150519880Y-90823500D01*
X150323497Y-90862564D01*
X150323494Y-90862565D01*
X150138507Y-90939190D01*
X149972017Y-91050434D01*
X149972011Y-91050439D01*
X149830439Y-91192011D01*
X149830434Y-91192017D01*
X149719190Y-91358507D01*
X149642565Y-91543494D01*
X149642564Y-91543497D01*
X149603500Y-91739880D01*
X136396499Y-91739880D01*
X136357436Y-91543498D01*
X136280810Y-91358507D01*
X136169567Y-91192019D01*
X136169565Y-91192017D01*
X136169560Y-91192011D01*
X136027988Y-91050439D01*
X136027982Y-91050434D01*
X135998147Y-91030499D01*
X135861493Y-90939190D01*
X135685138Y-90866141D01*
X135676505Y-90862565D01*
X135676502Y-90862564D01*
X135480119Y-90823500D01*
X135480116Y-90823500D01*
X135279884Y-90823500D01*
X135279880Y-90823500D01*
X135083497Y-90862564D01*
X135083494Y-90862565D01*
X134898507Y-90939190D01*
X134732017Y-91050434D01*
X134732011Y-91050439D01*
X134590439Y-91192011D01*
X134590434Y-91192017D01*
X134479190Y-91358507D01*
X134402565Y-91543494D01*
X134402564Y-91543497D01*
X134363500Y-91739880D01*
X120500500Y-91739880D01*
X120500500Y-88810008D01*
X126694700Y-88810008D01*
X126694700Y-89108191D01*
X126728086Y-89404499D01*
X126762629Y-89555840D01*
X126794437Y-89695201D01*
X126794439Y-89695207D01*
X126794438Y-89695207D01*
X126892913Y-89976631D01*
X126892924Y-89976658D01*
X127022293Y-90245295D01*
X127022298Y-90245304D01*
X127180940Y-90497780D01*
X127180943Y-90497784D01*
X127366845Y-90730900D01*
X127577699Y-90941754D01*
X127810815Y-91127656D01*
X127810823Y-91127662D01*
X128063300Y-91286304D01*
X128331951Y-91415680D01*
X128331967Y-91415685D01*
X128331968Y-91415686D01*
X128613392Y-91514161D01*
X128613395Y-91514161D01*
X128613399Y-91514163D01*
X128904104Y-91580514D01*
X129114211Y-91604187D01*
X129200408Y-91613900D01*
X129200410Y-91613900D01*
X129498592Y-91613900D01*
X129546641Y-91608486D01*
X129579575Y-91604774D01*
X129794896Y-91580514D01*
X130085601Y-91514163D01*
X130367049Y-91415680D01*
X130635700Y-91286304D01*
X130888177Y-91127662D01*
X130967489Y-91064412D01*
X131121300Y-90941754D01*
X131332154Y-90730900D01*
X131518056Y-90497784D01*
X131518062Y-90497777D01*
X131676704Y-90245300D01*
X131806080Y-89976649D01*
X131904563Y-89695201D01*
X131970914Y-89404496D01*
X131990112Y-89234114D01*
X131993969Y-89199880D01*
X134363500Y-89199880D01*
X134363500Y-89400119D01*
X134372392Y-89444821D01*
X134402564Y-89596502D01*
X134479190Y-89781493D01*
X134590433Y-89947981D01*
X134590434Y-89947982D01*
X134590439Y-89947988D01*
X134732011Y-90089560D01*
X134732017Y-90089565D01*
X134732019Y-90089567D01*
X134898507Y-90200810D01*
X135083498Y-90277436D01*
X135279884Y-90316500D01*
X135480116Y-90316500D01*
X135676502Y-90277436D01*
X135861493Y-90200810D01*
X136027981Y-90089567D01*
X136169567Y-89947981D01*
X136280810Y-89781493D01*
X136357436Y-89596502D01*
X136396500Y-89400116D01*
X136396500Y-89199884D01*
X136396499Y-89199880D01*
X149603500Y-89199880D01*
X149603500Y-89400119D01*
X149612392Y-89444821D01*
X149642564Y-89596502D01*
X149719190Y-89781493D01*
X149830433Y-89947981D01*
X149830434Y-89947982D01*
X149830439Y-89947988D01*
X149972011Y-90089560D01*
X149972017Y-90089565D01*
X149972019Y-90089567D01*
X150138507Y-90200810D01*
X150323498Y-90277436D01*
X150519884Y-90316500D01*
X150720116Y-90316500D01*
X150916502Y-90277436D01*
X151101493Y-90200810D01*
X151267981Y-90089567D01*
X151409567Y-89947981D01*
X151520810Y-89781493D01*
X151597436Y-89596502D01*
X151636500Y-89400116D01*
X151636500Y-89199884D01*
X151597436Y-89003498D01*
X151520810Y-88818507D01*
X151409567Y-88652019D01*
X151409565Y-88652017D01*
X151409560Y-88652011D01*
X151267988Y-88510439D01*
X151267982Y-88510434D01*
X151267981Y-88510433D01*
X151101493Y-88399190D01*
X150984839Y-88350870D01*
X150916505Y-88322565D01*
X150916502Y-88322564D01*
X150720119Y-88283500D01*
X150720116Y-88283500D01*
X150519884Y-88283500D01*
X150519880Y-88283500D01*
X150323497Y-88322564D01*
X150323494Y-88322565D01*
X150138507Y-88399190D01*
X149972017Y-88510434D01*
X149972011Y-88510439D01*
X149830439Y-88652011D01*
X149830434Y-88652017D01*
X149719190Y-88818507D01*
X149642565Y-89003494D01*
X149642564Y-89003497D01*
X149603500Y-89199880D01*
X136396499Y-89199880D01*
X136357436Y-89003498D01*
X136280810Y-88818507D01*
X136169567Y-88652019D01*
X136169565Y-88652017D01*
X136169560Y-88652011D01*
X136027988Y-88510439D01*
X136027982Y-88510434D01*
X136027981Y-88510433D01*
X135861493Y-88399190D01*
X135744839Y-88350870D01*
X135676505Y-88322565D01*
X135676502Y-88322564D01*
X135480119Y-88283500D01*
X135480116Y-88283500D01*
X135279884Y-88283500D01*
X135279880Y-88283500D01*
X135083497Y-88322564D01*
X135083494Y-88322565D01*
X134898507Y-88399190D01*
X134732017Y-88510434D01*
X134732011Y-88510439D01*
X134590439Y-88652011D01*
X134590434Y-88652017D01*
X134479190Y-88818507D01*
X134402565Y-89003494D01*
X134402564Y-89003497D01*
X134363500Y-89199880D01*
X131993969Y-89199880D01*
X131996256Y-89179586D01*
X131996256Y-89179585D01*
X132004300Y-89108192D01*
X132004300Y-88810008D01*
X131990044Y-88683483D01*
X131970914Y-88513704D01*
X131904563Y-88222999D01*
X131893145Y-88190369D01*
X131806086Y-87941568D01*
X131806085Y-87941567D01*
X131806080Y-87941551D01*
X131705984Y-87733700D01*
X131676706Y-87672904D01*
X131676701Y-87672895D01*
X131627438Y-87594493D01*
X131518062Y-87420423D01*
X131518056Y-87420415D01*
X131332154Y-87187299D01*
X131121300Y-86976445D01*
X130888184Y-86790543D01*
X130888180Y-86790540D01*
X130850341Y-86766764D01*
X130740915Y-86698007D01*
X130680237Y-86659880D01*
X134363500Y-86659880D01*
X134363500Y-86860119D01*
X134397374Y-87030409D01*
X134402564Y-87056502D01*
X134479190Y-87241493D01*
X134590433Y-87407981D01*
X134590434Y-87407982D01*
X134590439Y-87407988D01*
X134732011Y-87549560D01*
X134732017Y-87549565D01*
X134732019Y-87549567D01*
X134898507Y-87660810D01*
X135083498Y-87737436D01*
X135279884Y-87776500D01*
X135480116Y-87776500D01*
X135676502Y-87737436D01*
X135861493Y-87660810D01*
X136027981Y-87549567D01*
X136169567Y-87407981D01*
X136280810Y-87241493D01*
X136357436Y-87056502D01*
X136396500Y-86860116D01*
X136396500Y-86659884D01*
X136357436Y-86463498D01*
X136280810Y-86278507D01*
X136169567Y-86112019D01*
X136169565Y-86112017D01*
X136169560Y-86112011D01*
X136027988Y-85970439D01*
X136027982Y-85970434D01*
X136027981Y-85970433D01*
X135861493Y-85859190D01*
X135744839Y-85810870D01*
X135676505Y-85782565D01*
X135676502Y-85782564D01*
X135480119Y-85743500D01*
X135480116Y-85743500D01*
X135279884Y-85743500D01*
X135279880Y-85743500D01*
X135083497Y-85782564D01*
X135083494Y-85782565D01*
X134898507Y-85859190D01*
X134732017Y-85970434D01*
X134732011Y-85970439D01*
X134590439Y-86112011D01*
X134590434Y-86112017D01*
X134479190Y-86278507D01*
X134402565Y-86463494D01*
X134402564Y-86463497D01*
X134363500Y-86659880D01*
X130680237Y-86659880D01*
X130635704Y-86631898D01*
X130635695Y-86631893D01*
X130367058Y-86502524D01*
X130367053Y-86502522D01*
X130367049Y-86502520D01*
X130367043Y-86502517D01*
X130367031Y-86502513D01*
X130085607Y-86404038D01*
X129794899Y-86337686D01*
X129498592Y-86304300D01*
X129498590Y-86304300D01*
X129200410Y-86304300D01*
X129200408Y-86304300D01*
X128904100Y-86337686D01*
X128613392Y-86404038D01*
X128331968Y-86502513D01*
X128331941Y-86502524D01*
X128063304Y-86631893D01*
X128063295Y-86631898D01*
X127810819Y-86790540D01*
X127810815Y-86790543D01*
X127577699Y-86976445D01*
X127366845Y-87187299D01*
X127180943Y-87420415D01*
X127180940Y-87420419D01*
X127022298Y-87672895D01*
X127022293Y-87672904D01*
X126892924Y-87941541D01*
X126892913Y-87941568D01*
X126794438Y-88222992D01*
X126728086Y-88513700D01*
X126694700Y-88810008D01*
X120500500Y-88810008D01*
X120500500Y-85812808D01*
X121995700Y-85812808D01*
X121995700Y-86110991D01*
X122029086Y-86407299D01*
X122055381Y-86522502D01*
X122095437Y-86698001D01*
X122095439Y-86698007D01*
X122095438Y-86698007D01*
X122193913Y-86979431D01*
X122193924Y-86979458D01*
X122323293Y-87248095D01*
X122323298Y-87248104D01*
X122481940Y-87500580D01*
X122481943Y-87500584D01*
X122667845Y-87733700D01*
X122878699Y-87944554D01*
X123111815Y-88130456D01*
X123111823Y-88130462D01*
X123364300Y-88289104D01*
X123632951Y-88418480D01*
X123632967Y-88418485D01*
X123632968Y-88418486D01*
X123914392Y-88516961D01*
X123914395Y-88516961D01*
X123914399Y-88516963D01*
X124205104Y-88583314D01*
X124415211Y-88606987D01*
X124501408Y-88616700D01*
X124501410Y-88616700D01*
X124799592Y-88616700D01*
X124874843Y-88608220D01*
X125095896Y-88583314D01*
X125386601Y-88516963D01*
X125668049Y-88418480D01*
X125936700Y-88289104D01*
X126189177Y-88130462D01*
X126364558Y-87990601D01*
X126422300Y-87944554D01*
X126633154Y-87733700D01*
X126780412Y-87549043D01*
X126819062Y-87500577D01*
X126977704Y-87248100D01*
X127107080Y-86979449D01*
X127180942Y-86768363D01*
X127205561Y-86698007D01*
X127205561Y-86698006D01*
X127205563Y-86698001D01*
X127271914Y-86407296D01*
X127305300Y-86110990D01*
X127305300Y-85812810D01*
X127271914Y-85516504D01*
X127205563Y-85225799D01*
X127202242Y-85216309D01*
X127107086Y-84944368D01*
X127107085Y-84944367D01*
X127107080Y-84944351D01*
X126977704Y-84675700D01*
X126967503Y-84659466D01*
X126877673Y-84516502D01*
X126819062Y-84423223D01*
X126815539Y-84418805D01*
X126634871Y-84192253D01*
X126634870Y-84192252D01*
X126633151Y-84190096D01*
X126562935Y-84119880D01*
X134363500Y-84119880D01*
X134363500Y-84320119D01*
X134402564Y-84516502D01*
X134402565Y-84516505D01*
X134410093Y-84534678D01*
X134479190Y-84701493D01*
X134590433Y-84867981D01*
X134590434Y-84867982D01*
X134590439Y-84867988D01*
X134732011Y-85009560D01*
X134732017Y-85009565D01*
X134732019Y-85009567D01*
X134898507Y-85120810D01*
X135083498Y-85197436D01*
X135279884Y-85236500D01*
X135480116Y-85236500D01*
X135676502Y-85197436D01*
X135861493Y-85120810D01*
X136027981Y-85009567D01*
X136163418Y-84874130D01*
X140981400Y-84874130D01*
X140981400Y-86448263D01*
X140981401Y-86448273D01*
X140996165Y-86522500D01*
X141052416Y-86606684D01*
X141136597Y-86662933D01*
X141136599Y-86662934D01*
X141210833Y-86677700D01*
X142784966Y-86677699D01*
X142784969Y-86677698D01*
X142784973Y-86677698D01*
X142834226Y-86667901D01*
X142859201Y-86662934D01*
X142943384Y-86606684D01*
X142999634Y-86522501D01*
X143014400Y-86448267D01*
X143014399Y-84874134D01*
X143014399Y-84874133D01*
X143014399Y-84874131D01*
X143014399Y-84874130D01*
X143521400Y-84874130D01*
X143521400Y-86448263D01*
X143521401Y-86448273D01*
X143536165Y-86522500D01*
X143592416Y-86606684D01*
X143676597Y-86662933D01*
X143676599Y-86662934D01*
X143750833Y-86677700D01*
X145324966Y-86677699D01*
X145324969Y-86677698D01*
X145324973Y-86677698D01*
X145374226Y-86667901D01*
X145399201Y-86662934D01*
X145403772Y-86659880D01*
X149603500Y-86659880D01*
X149603500Y-86860119D01*
X149637374Y-87030409D01*
X149642564Y-87056502D01*
X149719190Y-87241493D01*
X149830433Y-87407981D01*
X149830434Y-87407982D01*
X149830439Y-87407988D01*
X149972011Y-87549560D01*
X149972017Y-87549565D01*
X149972019Y-87549567D01*
X150138507Y-87660810D01*
X150323498Y-87737436D01*
X150519884Y-87776500D01*
X150720116Y-87776500D01*
X150916502Y-87737436D01*
X151101493Y-87660810D01*
X151267981Y-87549567D01*
X151409567Y-87407981D01*
X151520810Y-87241493D01*
X151597436Y-87056502D01*
X151636500Y-86860116D01*
X151636500Y-86659884D01*
X151597436Y-86463498D01*
X151520810Y-86278507D01*
X151409567Y-86112019D01*
X151409565Y-86112017D01*
X151409560Y-86112011D01*
X151267988Y-85970439D01*
X151267982Y-85970434D01*
X151267981Y-85970433D01*
X151101493Y-85859190D01*
X150984839Y-85810870D01*
X150916505Y-85782565D01*
X150916502Y-85782564D01*
X150720119Y-85743500D01*
X150720116Y-85743500D01*
X150519884Y-85743500D01*
X150519880Y-85743500D01*
X150323497Y-85782564D01*
X150323494Y-85782565D01*
X150138507Y-85859190D01*
X149972017Y-85970434D01*
X149972011Y-85970439D01*
X149830439Y-86112011D01*
X149830434Y-86112017D01*
X149719190Y-86278507D01*
X149642565Y-86463494D01*
X149642564Y-86463497D01*
X149603500Y-86659880D01*
X145403772Y-86659880D01*
X145483384Y-86606684D01*
X145539634Y-86522501D01*
X145554400Y-86448267D01*
X145554399Y-84874134D01*
X145554398Y-84874131D01*
X145554398Y-84874126D01*
X145539634Y-84799899D01*
X145483383Y-84715715D01*
X145399202Y-84659466D01*
X145324967Y-84644700D01*
X143750836Y-84644700D01*
X143750826Y-84644701D01*
X143676599Y-84659465D01*
X143592415Y-84715716D01*
X143536166Y-84799897D01*
X143521400Y-84874130D01*
X143014399Y-84874130D01*
X142999634Y-84799899D01*
X142943383Y-84715715D01*
X142859202Y-84659466D01*
X142784967Y-84644700D01*
X141210836Y-84644700D01*
X141210826Y-84644701D01*
X141136599Y-84659465D01*
X141052415Y-84715716D01*
X140996166Y-84799897D01*
X140981400Y-84874130D01*
X136163418Y-84874130D01*
X136169567Y-84867981D01*
X136280810Y-84701493D01*
X136357436Y-84516502D01*
X136396500Y-84320116D01*
X136396500Y-84119884D01*
X136396499Y-84119880D01*
X149603500Y-84119880D01*
X149603500Y-84320119D01*
X149642564Y-84516502D01*
X149642565Y-84516505D01*
X149650093Y-84534678D01*
X149719190Y-84701493D01*
X149830433Y-84867981D01*
X149830434Y-84867982D01*
X149830439Y-84867988D01*
X149972011Y-85009560D01*
X149972017Y-85009565D01*
X149972019Y-85009567D01*
X150138507Y-85120810D01*
X150323498Y-85197436D01*
X150519884Y-85236500D01*
X150720116Y-85236500D01*
X150916502Y-85197436D01*
X151101493Y-85120810D01*
X151267981Y-85009567D01*
X151409567Y-84867981D01*
X151520810Y-84701493D01*
X151597436Y-84516502D01*
X151636500Y-84320116D01*
X151636500Y-84119884D01*
X151597436Y-83923498D01*
X151520810Y-83738507D01*
X151409567Y-83572019D01*
X151409565Y-83572017D01*
X151409560Y-83572011D01*
X151267988Y-83430439D01*
X151267982Y-83430434D01*
X151232668Y-83406838D01*
X151101493Y-83319190D01*
X150984839Y-83270870D01*
X150916505Y-83242565D01*
X150916502Y-83242564D01*
X150720119Y-83203500D01*
X150720116Y-83203500D01*
X150519884Y-83203500D01*
X150519880Y-83203500D01*
X150323497Y-83242564D01*
X150323494Y-83242565D01*
X150138507Y-83319190D01*
X149972017Y-83430434D01*
X149972011Y-83430439D01*
X149830439Y-83572011D01*
X149830434Y-83572017D01*
X149719190Y-83738507D01*
X149642565Y-83923494D01*
X149642564Y-83923497D01*
X149603500Y-84119880D01*
X136396499Y-84119880D01*
X136357436Y-83923498D01*
X136280810Y-83738507D01*
X136169567Y-83572019D01*
X136169565Y-83572017D01*
X136169560Y-83572011D01*
X136027988Y-83430439D01*
X136027982Y-83430434D01*
X135992668Y-83406838D01*
X135861493Y-83319190D01*
X135744839Y-83270870D01*
X135676505Y-83242565D01*
X135676502Y-83242564D01*
X135480119Y-83203500D01*
X135480116Y-83203500D01*
X135279884Y-83203500D01*
X135279880Y-83203500D01*
X135083497Y-83242564D01*
X135083494Y-83242565D01*
X134898507Y-83319190D01*
X134732017Y-83430434D01*
X134732011Y-83430439D01*
X134590439Y-83572011D01*
X134590434Y-83572017D01*
X134479190Y-83738507D01*
X134402565Y-83923494D01*
X134402564Y-83923497D01*
X134363500Y-84119880D01*
X126562935Y-84119880D01*
X126422300Y-83979245D01*
X126189184Y-83793343D01*
X126189180Y-83793340D01*
X125936704Y-83634698D01*
X125936695Y-83634693D01*
X125668058Y-83505324D01*
X125668053Y-83505322D01*
X125668049Y-83505320D01*
X125668043Y-83505317D01*
X125668031Y-83505313D01*
X125386607Y-83406838D01*
X125095899Y-83340486D01*
X124799592Y-83307100D01*
X124799590Y-83307100D01*
X124501410Y-83307100D01*
X124501408Y-83307100D01*
X124205100Y-83340486D01*
X123914392Y-83406838D01*
X123632968Y-83505313D01*
X123632941Y-83505324D01*
X123364304Y-83634693D01*
X123364295Y-83634698D01*
X123111819Y-83793340D01*
X123111815Y-83793343D01*
X122878699Y-83979245D01*
X122667845Y-84190099D01*
X122481943Y-84423215D01*
X122481940Y-84423219D01*
X122323298Y-84675695D01*
X122323293Y-84675704D01*
X122193924Y-84944341D01*
X122193913Y-84944368D01*
X122095438Y-85225792D01*
X122029086Y-85516500D01*
X121995700Y-85812808D01*
X120500500Y-85812808D01*
X120500500Y-80626400D01*
X120520502Y-80558279D01*
X120574158Y-80511786D01*
X120626500Y-80500400D01*
X134938120Y-80500400D01*
X135006241Y-80520402D01*
G37*
%TD.AperFunction*%
%TD*%
M02*
