M48
; DRILL file KiCad 10.0.6 date 2026-09-22T18:36:20
; FORMAT={-:-/ absolute / metric / decimal}
; #@! TF.CreationDate,2026-09-22T18:36:20+08:00
; #@! TF.GenerationSoftware,Kicad,Pcbnew,10.0.6
; #@! TF.FileFunction,Plated,1,2,PTH
FMAT,2
METRIC
; #@! TA.AperFunction,Plated,PTH,ViaDrill
T1C0.305
; #@! TA.AperFunction,Plated,PTH,ComponentDrill
T2C0.670
; #@! TA.AperFunction,Plated,PTH,ComponentDrill
T3C0.914
; #@! TA.AperFunction,Plated,PTH,ComponentDrill
T4C3.002
%
G90
G05
T1
X124.979Y-107.11
X147.0Y-123.0
X174.0Y-100.0
X174.0Y-110.0
X174.0Y-120.0
X180.026Y-98.5
T2
X158.0Y-90.0
X158.0Y-98.0
X158.0Y-108.0
X158.0Y-118.0
X158.0Y-88.0
X158.0Y-100.0
X158.0Y-110.0
X158.0Y-120.0
X160.0Y-90.0
X160.0Y-98.0
X160.0Y-108.0
X160.0Y-118.0
X160.0Y-88.0
X160.0Y-100.0
X160.0Y-110.0
X160.0Y-120.0
X162.0Y-90.0
X162.0Y-98.0
X162.0Y-108.0
X162.0Y-118.0
X162.0Y-88.0
X162.0Y-100.0
X162.0Y-110.0
X162.0Y-120.0
X164.0Y-90.0
X164.0Y-98.0
X164.0Y-108.0
X164.0Y-118.0
X164.0Y-88.0
X164.0Y-100.0
X164.0Y-110.0
X164.0Y-120.0
X166.0Y-88.0
X166.0Y-90.0
X166.0Y-100.0
X166.0Y-110.0
X166.0Y-120.0
X166.0Y-98.0
X166.0Y-108.0
X166.0Y-118.0
X168.0Y-88.0
X168.0Y-90.0
X168.0Y-100.0
X168.0Y-110.0
X168.0Y-120.0
X168.0Y-98.0
X168.0Y-108.0
X168.0Y-118.0
X170.0Y-88.0
X170.0Y-90.0
X170.0Y-98.0
X170.0Y-100.0
X170.0Y-108.0
X170.0Y-110.0
X170.0Y-118.0
X170.0Y-120.0
X172.0Y-88.0
X172.0Y-90.0
X172.0Y-98.0
X172.0Y-100.0
X172.0Y-108.0
X172.0Y-110.0
X172.0Y-118.0
X172.0Y-120.0
T3
X135.38Y-81.68
X135.38Y-84.22
X135.38Y-86.76
X135.38Y-89.3
X135.38Y-91.84
X135.38Y-94.38
X135.38Y-96.92
X135.38Y-99.46
X135.38Y-102.0
X135.38Y-104.54
X135.38Y-107.08
X135.38Y-109.62
X135.38Y-112.16
X135.38Y-114.7
X135.38Y-117.24
X141.998Y-85.661
X141.998Y-95.821
X144.538Y-85.661
X144.538Y-95.821
X150.62Y-81.68
X150.62Y-84.22
X150.62Y-86.76
X150.62Y-89.3
X150.62Y-91.84
X150.62Y-94.38
X150.62Y-96.92
X150.62Y-99.46
X150.62Y-102.0
X150.62Y-104.54
X150.62Y-107.08
X150.62Y-109.62
X150.62Y-112.16
X150.62Y-114.7
X150.62Y-117.24
T4
X124.65Y-85.962
X129.35Y-83.041
X129.35Y-88.959
M30
