%TF.GenerationSoftware,KiCad,Pcbnew,10.0.6*%
%TF.CreationDate,2026-09-23T18:05:48+08:00*%
%TF.ProjectId,Quad_Hub,51756164-5f48-4756-922e-6b696361645f,1.7*%
%TF.SameCoordinates,Original*%
%TF.FileFunction,Copper,L1,Top*%
%TF.FilePolarity,Positive*%
%FSLAX46Y46*%
G04 Gerber Fmt 4.6, Leading zero omitted, Abs format (unit mm)*
G04 Created by KiCad (PCBNEW 10.0.6) date 2026-09-23 18:05:48*
%MOMM*%
%LPD*%
G01*
G04 APERTURE LIST*
%TA.AperFunction,NonConductor*%
%ADD10C,0.254000*%
%TD*%
%TA.AperFunction,ComponentPad*%
%ADD11R,0.999900X1.000000*%
%TD*%
%TA.AperFunction,ComponentPad*%
%ADD12R,1.300100X1.300000*%
%TD*%
%TA.AperFunction,ComponentPad*%
%ADD13R,1.000000X1.000000*%
%TD*%
%TA.AperFunction,ComponentPad*%
%ADD14R,1.300000X1.300000*%
%TD*%
%TA.AperFunction,ComponentPad*%
%ADD15R,1.300000X1.300100*%
%TD*%
%TA.AperFunction,ComponentPad*%
%ADD16R,1.300100X1.300100*%
%TD*%
%TA.AperFunction,ComponentPad*%
%ADD17R,1.524000X1.524000*%
%TD*%
%TA.AperFunction,ComponentPad*%
%ADD18O,4.800600X4.800600*%
%TD*%
%TA.AperFunction,ComponentPad*%
%ADD19O,1.524000X1.524000*%
%TD*%
%TA.AperFunction,ViaPad*%
%ADD20C,0.609600*%
%TD*%
%TA.AperFunction,Conductor*%
%ADD21C,0.254000*%
%TD*%
G04 APERTURE END LIST*
D10*
X129609800Y-102500100D02*
G75*
G02*
X120390200Y-102500100I-4609800J0D01*
G01*
X120390200Y-102500100D02*
G75*
G02*
X129609800Y-102500100I4609800J0D01*
G01*
X184000100Y-102500100D02*
G75*
G02*
X176000100Y-102500100I-4000000J0D01*
G01*
X176000100Y-102500100D02*
G75*
G02*
X184000100Y-102500100I4000000J0D01*
G01*
D11*
%TO.P,WP55,1*%
%TO.N,DIGITAL3*%
X164000000Y-109999900D03*
%TD*%
%TO.P,WP66,1*%
%TO.N,ANALOG4*%
X169999900Y-117999900D03*
%TD*%
%TO.P,WP64,1*%
%TO.N,ANALOG5*%
X171999900Y-107999900D03*
%TD*%
%TO.P,WP33,1*%
%TO.N,ANALOG3*%
X168000000Y-98000000D03*
%TD*%
%TO.P,WP79,1*%
%TO.N,ANALOG2*%
X166000000Y-117999900D03*
%TD*%
%TO.P,WP40,1*%
%TO.N,DIGITAL2*%
X162000000Y-100000000D03*
%TD*%
D12*
%TO.P,WP57,1*%
%TO.N,+5V*%
X160000000Y-109999900D03*
%TD*%
D13*
%TO.P,WP46,1*%
%TO.N,ANALOG1*%
X163999900Y-98000000D03*
%TD*%
%TO.P,WP27,1*%
%TO.N,DIGITAL4*%
X165999900Y-90000000D03*
%TD*%
%TO.P,WP18,1*%
%TO.N,ANALOG2*%
X165999900Y-88000000D03*
%TD*%
%TO.P,WP32,1*%
%TO.N,ANALOG3*%
X167999900Y-88000000D03*
%TD*%
%TO.P,WP54,1*%
%TO.N,DIGITAL4*%
X165999900Y-109999900D03*
%TD*%
D14*
%TO.P,WP52,1*%
%TO.N,SCL*%
X169999900Y-109999900D03*
%TD*%
D13*
%TO.P,WP70,1*%
%TO.N,DIGITAL4*%
X165999900Y-119999900D03*
%TD*%
D11*
%TO.P,WP56,1*%
%TO.N,DIGITAL2*%
X162000000Y-109999900D03*
%TD*%
%TO.P,WP72,1*%
%TO.N,DIGITAL2*%
X162000000Y-119999900D03*
%TD*%
%TO.P,WP50,1*%
%TO.N,ANALOG4*%
X169999900Y-107999900D03*
%TD*%
D15*
%TO.P,WP35,1*%
%TO.N,SDA*%
X171999900Y-100000000D03*
%TD*%
D13*
%TO.P,WP45,1*%
%TO.N,ANALOG0*%
X161999900Y-98000000D03*
%TD*%
D11*
%TO.P,WP19,1*%
%TO.N,ANALOG1*%
X164000000Y-88000000D03*
%TD*%
D14*
%TO.P,WP28,1*%
%TO.N,RESET*%
X167999900Y-90000000D03*
%TD*%
D13*
%TO.P,WP75,1*%
%TO.N,N/C*%
X157999900Y-117999900D03*
%TD*%
D11*
%TO.P,WP47,1*%
%TO.N,ANALOG2*%
X166000000Y-98000000D03*
%TD*%
D14*
%TO.P,WP29,1*%
%TO.N,SCL*%
X169999900Y-90000000D03*
%TD*%
%TO.P,WP24,1*%
%TO.N,+5V*%
X159999900Y-90000000D03*
%TD*%
D11*
%TO.P,WP71,1*%
%TO.N,DIGITAL3*%
X164000000Y-119999900D03*
%TD*%
D16*
%TO.P,WP42,1*%
%TO.N,GND*%
X158000000Y-100000000D03*
%TD*%
D12*
%TO.P,WP58,1*%
%TO.N,GND*%
X158000000Y-109999900D03*
%TD*%
D11*
%TO.P,WP20,1*%
%TO.N,ANALOG0*%
X162000000Y-88000000D03*
%TD*%
D13*
%TO.P,WP61,1*%
%TO.N,ANALOG0*%
X161999900Y-107999900D03*
%TD*%
D12*
%TO.P,WP73,1*%
%TO.N,+5V*%
X160000000Y-119999900D03*
%TD*%
D13*
%TO.P,WP59,1*%
%TO.N,N/C*%
X157999900Y-107999900D03*
%TD*%
D11*
%TO.P,WP34,1*%
%TO.N,ANALOG4*%
X169999900Y-98000000D03*
%TD*%
D17*
%TO.P,NONE,2*%
%TO.N,+5V*%
X141997900Y-85661200D03*
%TO.P,NONE,3*%
%TO.N,SDA*%
X141997900Y-95821200D03*
%TO.P,NONE,4*%
%TO.N,+5V*%
X144537900Y-85661200D03*
%TO.P,NONE,5*%
%TO.N,SCL*%
X144537900Y-95821200D03*
%TD*%
D11*
%TO.P,WP39,1*%
%TO.N,DIGITAL3*%
X164000000Y-100000000D03*
%TD*%
D13*
%TO.P,WP31,1*%
%TO.N,ANALOG4*%
X169999900Y-88000000D03*
%TD*%
D11*
%TO.P,WP80,1*%
%TO.N,ANALOG5*%
X171999900Y-117999900D03*
%TD*%
D13*
%TO.P,WP25,1*%
%TO.N,DIGITAL2*%
X161999900Y-90000000D03*
%TD*%
D16*
%TO.P,WP41,1*%
%TO.N,+5V*%
X160000000Y-100000000D03*
%TD*%
D13*
%TO.P,WP38,1*%
%TO.N,DIGITAL4*%
X165999900Y-100000000D03*
%TD*%
D14*
%TO.P,WP53,1*%
%TO.N,RESET*%
X167999900Y-109999900D03*
%TD*%
D13*
%TO.P,WP17,1*%
%TO.N,ANALOG5*%
X171999900Y-88000000D03*
%TD*%
D14*
%TO.P,WP68,1*%
%TO.N,SCL*%
X169999900Y-119999900D03*
%TD*%
D13*
%TO.P,WP77,1*%
%TO.N,ANALOG0*%
X161999900Y-117999900D03*
%TD*%
%TO.P,WP76,1*%
%TO.N,DIGITAL1*%
X159999900Y-117999900D03*
%TD*%
%TO.P,WP60,1*%
%TO.N,DIGITAL1*%
X159999900Y-107999900D03*
%TD*%
D11*
%TO.P,WP65,1*%
%TO.N,ANALOG3*%
X168000000Y-117999900D03*
%TD*%
D13*
%TO.P,WP44,1*%
%TO.N,DIGITAL1*%
X159999900Y-98000000D03*
%TD*%
D14*
%TO.P,WP51,1*%
%TO.N,SDA*%
X171999900Y-109999900D03*
%TD*%
D13*
%TO.P,WP78,1*%
%TO.N,ANALOG1*%
X163999900Y-117999900D03*
%TD*%
%TO.P,WP26,1*%
%TO.N,DIGITAL3*%
X163999900Y-90000000D03*
%TD*%
D14*
%TO.P,WP67,1*%
%TO.N,SDA*%
X171999900Y-119999900D03*
%TD*%
%TO.P,WP23,1*%
%TO.N,GND*%
X157999900Y-90000000D03*
%TD*%
D11*
%TO.P,WP21,1*%
%TO.N,DIGITAL1*%
X160000000Y-88000000D03*
%TD*%
D14*
%TO.P,WP30,1*%
%TO.N,SDA*%
X171999900Y-90000000D03*
%TD*%
D15*
%TO.P,WP36,1*%
%TO.N,SCL*%
X169999900Y-100000000D03*
%TD*%
D18*
%TO.P,U1,RING*%
%TO.N,GND*%
X129349500Y-83040900D03*
%TO.P,U1,RING_SW*%
%TO.N,N/C*%
X124650500Y-85961900D03*
%TO.P,U1,TIP*%
%TO.N,+5V*%
X129349500Y-88959100D03*
%TD*%
D13*
%TO.P,WP43,1*%
%TO.N,N/C*%
X157999900Y-98000000D03*
%TD*%
D12*
%TO.P,WP74,1*%
%TO.N,GND*%
X158000000Y-119999900D03*
%TD*%
D11*
%TO.P,WP48,1*%
%TO.N,ANALOG5*%
X171999900Y-98000000D03*
%TD*%
D15*
%TO.P,WP37,1*%
%TO.N,RESET*%
X167999900Y-100000000D03*
%TD*%
D13*
%TO.P,WP62,1*%
%TO.N,ANALOG1*%
X163999900Y-107999900D03*
%TD*%
D11*
%TO.P,WP22,1*%
%TO.N,N/C*%
X158000000Y-88000000D03*
%TD*%
%TO.P,WP49,1*%
%TO.N,ANALOG3*%
X168000000Y-107999900D03*
%TD*%
D14*
%TO.P,WP69,1*%
%TO.N,RESET*%
X167999900Y-119999900D03*
%TD*%
D19*
%TO.P,ARDUINO,1*%
%TO.N,N/C*%
X150620000Y-117240000D03*
%TO.P,ARDUINO,2*%
X150620000Y-114700000D03*
%TO.P,ARDUINO,3*%
X150620000Y-112160000D03*
D17*
%TO.P,ARDUINO,4*%
%TO.N,GND*%
X150620000Y-109620000D03*
%TO.P,ARDUINO,5*%
%TO.N,SDA*%
X150620000Y-107080000D03*
%TO.P,ARDUINO,6*%
%TO.N,SCL*%
X150620000Y-104540000D03*
D19*
%TO.P,ARDUINO,7*%
%TO.N,DIGITAL2*%
X150620000Y-102000000D03*
%TO.P,ARDUINO,8*%
%TO.N,DIGITAL3*%
X150620000Y-99460000D03*
%TO.P,ARDUINO,9*%
%TO.N,DIGITAL4*%
X150620000Y-96920000D03*
D17*
%TO.P,ARDUINO,10*%
%TO.N,RESET*%
X150620000Y-94380000D03*
D19*
%TO.P,ARDUINO,11*%
%TO.N,N/C*%
X150620000Y-91840000D03*
%TO.P,ARDUINO,12*%
X150620000Y-89300000D03*
%TO.P,ARDUINO,13*%
X150620000Y-86760000D03*
%TO.P,ARDUINO,14*%
X150620000Y-84220000D03*
%TO.P,ARDUINO,15*%
X150620000Y-81680000D03*
%TO.P,ARDUINO,16*%
X135380000Y-81680000D03*
%TO.P,ARDUINO,17*%
X135380000Y-84220000D03*
%TO.P,ARDUINO,18*%
%TO.N,AREF*%
X135380000Y-86760000D03*
%TO.P,ARDUINO,19*%
%TO.N,N/C*%
X135380000Y-89300000D03*
%TO.P,ARDUINO,20*%
X135380000Y-91840000D03*
%TO.P,ARDUINO,21*%
X135380000Y-94380000D03*
%TO.P,ARDUINO,22*%
X135380000Y-96920000D03*
D17*
%TO.P,ARDUINO,23*%
%TO.N,SDA*%
X135380000Y-99460000D03*
%TO.P,ARDUINO,24*%
%TO.N,SCL*%
X135380000Y-102000000D03*
D19*
%TO.P,ARDUINO,25*%
%TO.N,ANALOG4*%
X135380000Y-104540000D03*
%TO.P,ARDUINO,26*%
%TO.N,ANALOG5*%
X135380000Y-107080000D03*
%TO.P,ARDUINO,27*%
%TO.N,5V*%
X135380000Y-109620000D03*
%TO.P,ARDUINO,28*%
%TO.N,N/C*%
X135380000Y-112160000D03*
D17*
%TO.P,ARDUINO,29*%
%TO.N,GND*%
X135380000Y-114700000D03*
D19*
%TO.P,ARDUINO,30*%
%TO.N,N/C*%
X135380000Y-117240000D03*
%TD*%
D11*
%TO.P,WP63,1*%
%TO.N,ANALOG2*%
X166000000Y-107999900D03*
%TD*%
D20*
%TO.N,*%
X124979200Y-107109700D03*
X180026300Y-98500100D03*
%TO.N,ANALOG4*%
X146999900Y-122999900D03*
%TO.N,ANALOG5*%
X173999900Y-109999900D03*
X173999900Y-100000000D03*
X173999900Y-119999900D03*
%TD*%
%TO.N,ANALOG4*%
D21*
X169999800Y-88000000D02*
X170999900Y-89000000D01*
X170999900Y-109000000D02*
X169999800Y-107999900D01*
X170999900Y-119000000D02*
X170999900Y-121999900D01*
X170999900Y-99000000D02*
X169999800Y-97999900D01*
X169999800Y-117999900D02*
X170999900Y-119000000D01*
X169999900Y-122999900D02*
X146999900Y-122999900D01*
X170999900Y-121999900D02*
X169999900Y-122999900D01*
X170999900Y-89000000D02*
X170999900Y-100557600D01*
X170999900Y-119000000D02*
X170999900Y-109000000D01*
X170999900Y-109000000D02*
X170999900Y-99000000D01*
%TO.N,ANALOG5*%
X171999900Y-107999900D02*
X173999900Y-109999900D01*
X171999800Y-97999900D02*
X173999900Y-99999900D01*
X171999900Y-117999900D02*
X173999900Y-119999900D01*
%TO.N,ANALOG3*%
X168999900Y-89000000D02*
X168999900Y-99000000D01*
X168999900Y-116999900D02*
X167999900Y-117999900D01*
X168999900Y-99000000D02*
X168999900Y-116999900D01*
X167999900Y-88000000D02*
X168999900Y-89000000D01*
X167999800Y-97999900D02*
X168999900Y-99000000D01*
X168999900Y-109000000D02*
X168999900Y-109999900D01*
X167999800Y-107999900D02*
X168999900Y-109000000D01*
%TO.N,ANALOG2*%
X166999900Y-98999900D02*
X165999800Y-97999900D01*
X165999900Y-88000000D02*
X166999900Y-89000000D01*
X165999900Y-117999900D02*
X166999900Y-116999900D01*
X165999800Y-107999900D02*
X166999900Y-108999900D01*
X166999900Y-116999900D02*
X166999900Y-98999900D01*
X166999900Y-108999900D02*
X166999900Y-110099800D01*
X166999900Y-89000000D02*
X166999900Y-98999900D01*
%TO.N,ANALOG1*%
X164999800Y-107000100D02*
X164999800Y-91427400D01*
X164999800Y-117000100D02*
X163999000Y-118000900D01*
X163999000Y-98000900D02*
X164999800Y-97000100D01*
X163999000Y-108000900D02*
X164999800Y-107000100D01*
X164999800Y-88999100D02*
X163999000Y-88000900D01*
X164999800Y-97000100D02*
X164999800Y-88999100D01*
X164999800Y-100647600D02*
X164999800Y-117000100D01*
%TO.N,SDA*%
X143251200Y-99710400D02*
X143251200Y-96499800D01*
X171998900Y-90000000D02*
X174998600Y-92999700D01*
X171998900Y-124000400D02*
X145999400Y-124000400D01*
X172000000Y-123116400D02*
X172000000Y-119999800D01*
X174999800Y-102999600D02*
X172000000Y-99999900D01*
X140998200Y-100000000D02*
X141998900Y-99001700D01*
X143251200Y-96499800D02*
X142570400Y-95821700D01*
X141998900Y-99001700D02*
X141998900Y-95821700D01*
X171116200Y-124000300D02*
X172000000Y-123116400D01*
X142570400Y-95821700D02*
X141998900Y-95821700D01*
X138359200Y-99460000D02*
X141997900Y-95821300D01*
X145999400Y-124000400D02*
X140998200Y-118999200D01*
X171999800Y-109999900D02*
X174999900Y-112999900D01*
X150619700Y-107078900D02*
X143251200Y-99710400D01*
X174998600Y-92999700D02*
X174998600Y-121000700D01*
X140998200Y-118999200D02*
X140998200Y-100000000D01*
X174998600Y-121000700D02*
X171998900Y-124000400D01*
X135380000Y-99460000D02*
X138359200Y-99460000D01*
%TO.N,ANALOG0*%
X163000800Y-107000100D02*
X163000800Y-91739800D01*
X163000800Y-100718700D02*
X163000800Y-117000100D01*
X162000000Y-98000900D02*
X163000800Y-97000100D01*
X163000800Y-88999100D02*
X162000000Y-88000900D01*
X163000800Y-97000100D02*
X163000800Y-88999100D01*
X162000000Y-108000900D02*
X163000800Y-107000100D01*
X163000800Y-117000100D02*
X162000000Y-118000900D01*
%TO.N,DIGITAL1*%
X159997400Y-98001000D02*
X160998100Y-97000200D01*
X160998100Y-88999200D02*
X159999900Y-88001000D01*
X160999300Y-107000400D02*
X160999300Y-117000400D01*
X160998100Y-97000200D02*
X160998100Y-88999200D01*
X160999300Y-107000400D02*
X160999300Y-97000100D01*
X160999300Y-117000400D02*
X159999800Y-117999900D01*
X159999800Y-107999900D02*
X160999300Y-107000400D01*
%TD*%
%TA.AperFunction,Conductor*%
%TO.N,+5V*%
G36*
X128033524Y-80520402D02*
G01*
X128080017Y-80574058D01*
X128090121Y-80644332D01*
X128060627Y-80708912D01*
X128032439Y-80733087D01*
X127810819Y-80872340D01*
X127810815Y-80872343D01*
X127577699Y-81058245D01*
X127366845Y-81269099D01*
X127180943Y-81502215D01*
X127180940Y-81502219D01*
X127022298Y-81754695D01*
X127022293Y-81754704D01*
X126892924Y-82023341D01*
X126892913Y-82023368D01*
X126794438Y-82304792D01*
X126728086Y-82595500D01*
X126694700Y-82891808D01*
X126694700Y-83189991D01*
X126728086Y-83486299D01*
X126761956Y-83634693D01*
X126794437Y-83777001D01*
X126794439Y-83777007D01*
X126794438Y-83777007D01*
X126892913Y-84058431D01*
X126892924Y-84058458D01*
X126963770Y-84205571D01*
X126975305Y-84275624D01*
X126947136Y-84340793D01*
X126888205Y-84380387D01*
X126817223Y-84381835D01*
X126756726Y-84344678D01*
X126751737Y-84338799D01*
X126633154Y-84190099D01*
X126422300Y-83979245D01*
X126189184Y-83793343D01*
X126189180Y-83793340D01*
X125936704Y-83634698D01*
X125936695Y-83634693D01*
X125668058Y-83505324D01*
X125668053Y-83505322D01*
X125668049Y-83505320D01*
X125668043Y-83505317D01*
X125668031Y-83505313D01*
X125386607Y-83406838D01*
X125095899Y-83340486D01*
X124799592Y-83307100D01*
X124799590Y-83307100D01*
X124501410Y-83307100D01*
X124501408Y-83307100D01*
X124205100Y-83340486D01*
X123914392Y-83406838D01*
X123632968Y-83505313D01*
X123632941Y-83505324D01*
X123364304Y-83634693D01*
X123364295Y-83634698D01*
X123111819Y-83793340D01*
X123111815Y-83793343D01*
X122878699Y-83979245D01*
X122667845Y-84190099D01*
X122481943Y-84423215D01*
X122481940Y-84423219D01*
X122323298Y-84675695D01*
X122323293Y-84675704D01*
X122193924Y-84944341D01*
X122193913Y-84944368D01*
X122095438Y-85225792D01*
X122029086Y-85516500D01*
X121995700Y-85812808D01*
X121995700Y-86110991D01*
X122029086Y-86407299D01*
X122063629Y-86558640D01*
X122095437Y-86698001D01*
X122095439Y-86698007D01*
X122095438Y-86698007D01*
X122193913Y-86979431D01*
X122193924Y-86979458D01*
X122323293Y-87248095D01*
X122323298Y-87248104D01*
X122481940Y-87500580D01*
X122481943Y-87500584D01*
X122667845Y-87733700D01*
X122878699Y-87944554D01*
X123111815Y-88130456D01*
X123111823Y-88130462D01*
X123364300Y-88289104D01*
X123632951Y-88418480D01*
X123632967Y-88418485D01*
X123632968Y-88418486D01*
X123914392Y-88516961D01*
X123914395Y-88516961D01*
X123914399Y-88516963D01*
X124205104Y-88583314D01*
X124415211Y-88606987D01*
X124501408Y-88616700D01*
X124501410Y-88616700D01*
X124799592Y-88616700D01*
X124874843Y-88608220D01*
X125095896Y-88583314D01*
X125386601Y-88516963D01*
X125388205Y-88516402D01*
X125524008Y-88468882D01*
X125668049Y-88418480D01*
X125936700Y-88289104D01*
X126189177Y-88130462D01*
X126268489Y-88067212D01*
X126422300Y-87944554D01*
X126633154Y-87733700D01*
X126819056Y-87500584D01*
X126819062Y-87500577D01*
X126977704Y-87248100D01*
X127107080Y-86979449D01*
X127205563Y-86698001D01*
X127214264Y-86659880D01*
X134363500Y-86659880D01*
X134363500Y-86860119D01*
X134387233Y-86979431D01*
X134402564Y-87056502D01*
X134479190Y-87241493D01*
X134590433Y-87407981D01*
X134590434Y-87407982D01*
X134590439Y-87407988D01*
X134732011Y-87549560D01*
X134732017Y-87549565D01*
X134732019Y-87549567D01*
X134898507Y-87660810D01*
X135083498Y-87737436D01*
X135279884Y-87776500D01*
X135480116Y-87776500D01*
X135676502Y-87737436D01*
X135861493Y-87660810D01*
X136027981Y-87549567D01*
X136169567Y-87407981D01*
X136280810Y-87241493D01*
X136357436Y-87056502D01*
X136396500Y-86860116D01*
X136396500Y-86659884D01*
X136396499Y-86659880D01*
X149603500Y-86659880D01*
X149603500Y-86860119D01*
X149627233Y-86979431D01*
X149642564Y-87056502D01*
X149719190Y-87241493D01*
X149830433Y-87407981D01*
X149830434Y-87407982D01*
X149830439Y-87407988D01*
X149972011Y-87549560D01*
X149972017Y-87549565D01*
X149972019Y-87549567D01*
X150138507Y-87660810D01*
X150323498Y-87737436D01*
X150519884Y-87776500D01*
X150720116Y-87776500D01*
X150916502Y-87737436D01*
X151101493Y-87660810D01*
X151267981Y-87549567D01*
X151342618Y-87474930D01*
X157245550Y-87474930D01*
X157245550Y-88525063D01*
X157245551Y-88525073D01*
X157260315Y-88599300D01*
X157316566Y-88683484D01*
X157400747Y-88739733D01*
X157400749Y-88739734D01*
X157474983Y-88754500D01*
X158525016Y-88754499D01*
X158525019Y-88754498D01*
X158525023Y-88754498D01*
X158574276Y-88744701D01*
X158599251Y-88739734D01*
X158683434Y-88683484D01*
X158739684Y-88599301D01*
X158754450Y-88525067D01*
X158754449Y-87474934D01*
X158754448Y-87474927D01*
X158754448Y-87474926D01*
X158739684Y-87400699D01*
X158683433Y-87316515D01*
X158599252Y-87260266D01*
X158525017Y-87245500D01*
X157474986Y-87245500D01*
X157474976Y-87245501D01*
X157400749Y-87260265D01*
X157316565Y-87316516D01*
X157260316Y-87400697D01*
X157245550Y-87474930D01*
X151342618Y-87474930D01*
X151409567Y-87407981D01*
X151520810Y-87241493D01*
X151597436Y-87056502D01*
X151636500Y-86860116D01*
X151636500Y-86659884D01*
X151597436Y-86463498D01*
X151520810Y-86278507D01*
X151409567Y-86112019D01*
X151409565Y-86112017D01*
X151409560Y-86112011D01*
X151267988Y-85970439D01*
X151267982Y-85970434D01*
X151267981Y-85970433D01*
X151101493Y-85859190D01*
X150984839Y-85810870D01*
X150916505Y-85782565D01*
X150916502Y-85782564D01*
X150720119Y-85743500D01*
X150720116Y-85743500D01*
X150519884Y-85743500D01*
X150519880Y-85743500D01*
X150323497Y-85782564D01*
X150323494Y-85782565D01*
X150138507Y-85859190D01*
X149972017Y-85970434D01*
X149972011Y-85970439D01*
X149830439Y-86112011D01*
X149830434Y-86112017D01*
X149719190Y-86278507D01*
X149642565Y-86463494D01*
X149642564Y-86463497D01*
X149603500Y-86659880D01*
X136396499Y-86659880D01*
X136357436Y-86463498D01*
X136280810Y-86278507D01*
X136169567Y-86112019D01*
X136169565Y-86112017D01*
X136169560Y-86112011D01*
X136027988Y-85970439D01*
X136027982Y-85970434D01*
X136027981Y-85970433D01*
X135861493Y-85859190D01*
X135744839Y-85810870D01*
X135676505Y-85782565D01*
X135676502Y-85782564D01*
X135480119Y-85743500D01*
X135480116Y-85743500D01*
X135279884Y-85743500D01*
X135279880Y-85743500D01*
X135083497Y-85782564D01*
X135083494Y-85782565D01*
X134898507Y-85859190D01*
X134732017Y-85970434D01*
X134732011Y-85970439D01*
X134590439Y-86112011D01*
X134590434Y-86112017D01*
X134479190Y-86278507D01*
X134402565Y-86463494D01*
X134402564Y-86463497D01*
X134363500Y-86659880D01*
X127214264Y-86659880D01*
X127271914Y-86407296D01*
X127305300Y-86110990D01*
X127305300Y-85812810D01*
X127271914Y-85516504D01*
X127205563Y-85225799D01*
X127199846Y-85209462D01*
X127107086Y-84944368D01*
X127107085Y-84944366D01*
X127107080Y-84944351D01*
X127036228Y-84797227D01*
X127024694Y-84727175D01*
X127052863Y-84662006D01*
X127111794Y-84622412D01*
X127182775Y-84620964D01*
X127243272Y-84658121D01*
X127248262Y-84663999D01*
X127366852Y-84812707D01*
X127577699Y-85023554D01*
X127810815Y-85209456D01*
X127810823Y-85209462D01*
X128063300Y-85368104D01*
X128331951Y-85497480D01*
X128331967Y-85497485D01*
X128331968Y-85497486D01*
X128613392Y-85595961D01*
X128613395Y-85595961D01*
X128613399Y-85595963D01*
X128904104Y-85662314D01*
X129114211Y-85685987D01*
X129200408Y-85695700D01*
X129200410Y-85695700D01*
X129498592Y-85695700D01*
X129573843Y-85687220D01*
X129794896Y-85662314D01*
X130085601Y-85595963D01*
X130367049Y-85497480D01*
X130635700Y-85368104D01*
X130888177Y-85209462D01*
X130967489Y-85146212D01*
X131121300Y-85023554D01*
X131332154Y-84812700D01*
X131518056Y-84579584D01*
X131518062Y-84579577D01*
X131676704Y-84327100D01*
X131776496Y-84119880D01*
X134363500Y-84119880D01*
X134363500Y-84320119D01*
X134384009Y-84423223D01*
X134402564Y-84516502D01*
X134479190Y-84701493D01*
X134590433Y-84867981D01*
X134590434Y-84867982D01*
X134590439Y-84867988D01*
X134732011Y-85009560D01*
X134732017Y-85009565D01*
X134732019Y-85009567D01*
X134898507Y-85120810D01*
X135083498Y-85197436D01*
X135279884Y-85236500D01*
X135480116Y-85236500D01*
X135676502Y-85197436D01*
X135861493Y-85120810D01*
X136027981Y-85009567D01*
X136169567Y-84867981D01*
X136280810Y-84701493D01*
X136357436Y-84516502D01*
X136396500Y-84320116D01*
X136396500Y-84119884D01*
X136396499Y-84119880D01*
X149603500Y-84119880D01*
X149603500Y-84320119D01*
X149624009Y-84423223D01*
X149642564Y-84516502D01*
X149719190Y-84701493D01*
X149830433Y-84867981D01*
X149830434Y-84867982D01*
X149830439Y-84867988D01*
X149972011Y-85009560D01*
X149972017Y-85009565D01*
X149972019Y-85009567D01*
X150138507Y-85120810D01*
X150323498Y-85197436D01*
X150519884Y-85236500D01*
X150720116Y-85236500D01*
X150916502Y-85197436D01*
X151101493Y-85120810D01*
X151267981Y-85009567D01*
X151409567Y-84867981D01*
X151520810Y-84701493D01*
X151597436Y-84516502D01*
X151636500Y-84320116D01*
X151636500Y-84119884D01*
X151597436Y-83923498D01*
X151520810Y-83738507D01*
X151409567Y-83572019D01*
X151409565Y-83572017D01*
X151409560Y-83572011D01*
X151267988Y-83430439D01*
X151267982Y-83430434D01*
X151232668Y-83406838D01*
X151101493Y-83319190D01*
X150984839Y-83270870D01*
X150916505Y-83242565D01*
X150916502Y-83242564D01*
X150720119Y-83203500D01*
X150720116Y-83203500D01*
X150519884Y-83203500D01*
X150519880Y-83203500D01*
X150323497Y-83242564D01*
X150323494Y-83242565D01*
X150138507Y-83319190D01*
X149972017Y-83430434D01*
X149972011Y-83430439D01*
X149830439Y-83572011D01*
X149830434Y-83572017D01*
X149719190Y-83738507D01*
X149642565Y-83923494D01*
X149642564Y-83923497D01*
X149603500Y-84119880D01*
X136396499Y-84119880D01*
X136357436Y-83923498D01*
X136280810Y-83738507D01*
X136169567Y-83572019D01*
X136169565Y-83572017D01*
X136169560Y-83572011D01*
X136027988Y-83430439D01*
X136027982Y-83430434D01*
X135992668Y-83406838D01*
X135861493Y-83319190D01*
X135744839Y-83270870D01*
X135676505Y-83242565D01*
X135676502Y-83242564D01*
X135480119Y-83203500D01*
X135480116Y-83203500D01*
X135279884Y-83203500D01*
X135279880Y-83203500D01*
X135083497Y-83242564D01*
X135083494Y-83242565D01*
X134898507Y-83319190D01*
X134732017Y-83430434D01*
X134732011Y-83430439D01*
X134590439Y-83572011D01*
X134590434Y-83572017D01*
X134479190Y-83738507D01*
X134402565Y-83923494D01*
X134402564Y-83923497D01*
X134363500Y-84119880D01*
X131776496Y-84119880D01*
X131806080Y-84058449D01*
X131898846Y-83793340D01*
X131904561Y-83777007D01*
X131904561Y-83777006D01*
X131904563Y-83777001D01*
X131970914Y-83486296D01*
X132004300Y-83189990D01*
X132004300Y-82891810D01*
X131970914Y-82595504D01*
X131904563Y-82304799D01*
X131806080Y-82023351D01*
X131676704Y-81754700D01*
X131518062Y-81502223D01*
X131518056Y-81502215D01*
X131332154Y-81269099D01*
X131121300Y-81058245D01*
X130888184Y-80872343D01*
X130888180Y-80872340D01*
X130666561Y-80733087D01*
X130619523Y-80679908D01*
X130608703Y-80609741D01*
X130637536Y-80544863D01*
X130696868Y-80505872D01*
X130733597Y-80500400D01*
X134938120Y-80500400D01*
X135006241Y-80520402D01*
X135052734Y-80574058D01*
X135062838Y-80644332D01*
X135033344Y-80708912D01*
X134986338Y-80742809D01*
X134898507Y-80779190D01*
X134732017Y-80890434D01*
X134732011Y-80890439D01*
X134590439Y-81032011D01*
X134590434Y-81032017D01*
X134479190Y-81198507D01*
X134402565Y-81383494D01*
X134402564Y-81383497D01*
X134363500Y-81579880D01*
X134363500Y-81780119D01*
X134402564Y-81976502D01*
X134402565Y-81976505D01*
X134421977Y-82023368D01*
X134479190Y-82161493D01*
X134590433Y-82327981D01*
X134590434Y-82327982D01*
X134590439Y-82327988D01*
X134732011Y-82469560D01*
X134732017Y-82469565D01*
X134732019Y-82469567D01*
X134898507Y-82580810D01*
X135083498Y-82657436D01*
X135279884Y-82696500D01*
X135480116Y-82696500D01*
X135676502Y-82657436D01*
X135861493Y-82580810D01*
X136027981Y-82469567D01*
X136169567Y-82327981D01*
X136280810Y-82161493D01*
X136357436Y-81976502D01*
X136396500Y-81780116D01*
X136396500Y-81579884D01*
X136357436Y-81383498D01*
X136280810Y-81198507D01*
X136169567Y-81032019D01*
X136169565Y-81032017D01*
X136169560Y-81032011D01*
X136027988Y-80890439D01*
X136027982Y-80890434D01*
X136000907Y-80872343D01*
X135861493Y-80779190D01*
X135773662Y-80742809D01*
X135718381Y-80698260D01*
X135695960Y-80630897D01*
X135713518Y-80562106D01*
X135765481Y-80513727D01*
X135821880Y-80500400D01*
X150178120Y-80500400D01*
X150246241Y-80520402D01*
X150292734Y-80574058D01*
X150302838Y-80644332D01*
X150273344Y-80708912D01*
X150226338Y-80742809D01*
X150138507Y-80779190D01*
X149972017Y-80890434D01*
X149972011Y-80890439D01*
X149830439Y-81032011D01*
X149830434Y-81032017D01*
X149719190Y-81198507D01*
X149642565Y-81383494D01*
X149642564Y-81383497D01*
X149603500Y-81579880D01*
X149603500Y-81780119D01*
X149642564Y-81976502D01*
X149642565Y-81976505D01*
X149661977Y-82023368D01*
X149719190Y-82161493D01*
X149830433Y-82327981D01*
X149830434Y-82327982D01*
X149830439Y-82327988D01*
X149972011Y-82469560D01*
X149972017Y-82469565D01*
X149972019Y-82469567D01*
X150138507Y-82580810D01*
X150323498Y-82657436D01*
X150519884Y-82696500D01*
X150720116Y-82696500D01*
X150916502Y-82657436D01*
X151101493Y-82580810D01*
X151267981Y-82469567D01*
X151409567Y-82327981D01*
X151520810Y-82161493D01*
X151597436Y-81976502D01*
X151636500Y-81780116D01*
X151636500Y-81579884D01*
X151597436Y-81383498D01*
X151520810Y-81198507D01*
X151409567Y-81032019D01*
X151409565Y-81032017D01*
X151409560Y-81032011D01*
X151267988Y-80890439D01*
X151267982Y-80890434D01*
X151240907Y-80872343D01*
X151101493Y-80779190D01*
X151013662Y-80742809D01*
X150958381Y-80698260D01*
X150935960Y-80630897D01*
X150953518Y-80562106D01*
X151005481Y-80513727D01*
X151061880Y-80500400D01*
X184373400Y-80500400D01*
X184441521Y-80520402D01*
X184488014Y-80574058D01*
X184499400Y-80626400D01*
X184499400Y-101405836D01*
X184479398Y-101473957D01*
X184425742Y-101520450D01*
X184355468Y-101530554D01*
X184290888Y-101501060D01*
X184252504Y-101441334D01*
X184251704Y-101438488D01*
X184182792Y-101181302D01*
X184182787Y-101181287D01*
X184182786Y-101181283D01*
X184076687Y-100889783D01*
X184051934Y-100821775D01*
X183921901Y-100542919D01*
X183890243Y-100475027D01*
X183890233Y-100475009D01*
X183698947Y-100143690D01*
X183698938Y-100143676D01*
X183644329Y-100065686D01*
X183479489Y-99830271D01*
X183479484Y-99830265D01*
X183479483Y-99830262D01*
X183233558Y-99537181D01*
X182963018Y-99266641D01*
X182669937Y-99020716D01*
X182669934Y-99020715D01*
X182669932Y-99020714D01*
X182669929Y-99020711D01*
X182394934Y-98828157D01*
X182356523Y-98801261D01*
X182356509Y-98801252D01*
X182025190Y-98609966D01*
X182025172Y-98609956D01*
X181678423Y-98448265D01*
X181318906Y-98317410D01*
X181165491Y-98276303D01*
X180949334Y-98218384D01*
X180572545Y-98151946D01*
X180572543Y-98151945D01*
X180572533Y-98151944D01*
X180504882Y-98146025D01*
X180438764Y-98120162D01*
X180426770Y-98109600D01*
X180369724Y-98052554D01*
X180369714Y-98052546D01*
X180242182Y-97978916D01*
X180099933Y-97940800D01*
X179952667Y-97940800D01*
X179857834Y-97966210D01*
X179810417Y-97978916D01*
X179682884Y-98052547D01*
X179630850Y-98104579D01*
X179568537Y-98138602D01*
X179552740Y-98141001D01*
X179427667Y-98151944D01*
X179427666Y-98151944D01*
X179427655Y-98151946D01*
X179050866Y-98218384D01*
X178931569Y-98250349D01*
X178681293Y-98317410D01*
X178321776Y-98448265D01*
X177975027Y-98609956D01*
X177975009Y-98609966D01*
X177643690Y-98801252D01*
X177643676Y-98801261D01*
X177330265Y-99020715D01*
X177330262Y-99020716D01*
X177037181Y-99266641D01*
X177037172Y-99266651D01*
X176766651Y-99537172D01*
X176766641Y-99537181D01*
X176520716Y-99830262D01*
X176520715Y-99830265D01*
X176301261Y-100143676D01*
X176301252Y-100143690D01*
X176109966Y-100475009D01*
X176109956Y-100475027D01*
X175948265Y-100821776D01*
X175817414Y-101181283D01*
X175817412Y-101181287D01*
X175817408Y-101181302D01*
X175718384Y-101550866D01*
X175651946Y-101927655D01*
X175632582Y-102148993D01*
X175631621Y-102159975D01*
X175605757Y-102226093D01*
X175548254Y-102267732D01*
X175477367Y-102271673D01*
X175415602Y-102236664D01*
X175382570Y-102173819D01*
X175380100Y-102148993D01*
X175380100Y-92949476D01*
X175355187Y-92856500D01*
X175354101Y-92852446D01*
X175354099Y-92852443D01*
X175354099Y-92852441D01*
X175303878Y-92765456D01*
X175303870Y-92765446D01*
X175228458Y-92690034D01*
X175228435Y-92690013D01*
X172941304Y-90402881D01*
X172907278Y-90340569D01*
X172904399Y-90313786D01*
X172904399Y-89324936D01*
X172904398Y-89324927D01*
X172889634Y-89250699D01*
X172844151Y-89182630D01*
X172833384Y-89166516D01*
X172833383Y-89166515D01*
X172749202Y-89110266D01*
X172674969Y-89095500D01*
X172674967Y-89095500D01*
X171507400Y-89095500D01*
X171439279Y-89075498D01*
X171392786Y-89021842D01*
X171381400Y-88969500D01*
X171381400Y-88949765D01*
X171381188Y-88948975D01*
X171371578Y-88913115D01*
X171373264Y-88842140D01*
X171413055Y-88783342D01*
X171478317Y-88755391D01*
X171493266Y-88754499D01*
X172524966Y-88754499D01*
X172524969Y-88754498D01*
X172524973Y-88754498D01*
X172574226Y-88744701D01*
X172599201Y-88739734D01*
X172683384Y-88683484D01*
X172739634Y-88599301D01*
X172754400Y-88525067D01*
X172754399Y-87474934D01*
X172754398Y-87474927D01*
X172754398Y-87474926D01*
X172739634Y-87400699D01*
X172683383Y-87316515D01*
X172599202Y-87260266D01*
X172524967Y-87245500D01*
X171474836Y-87245500D01*
X171474826Y-87245501D01*
X171400599Y-87260265D01*
X171316415Y-87316516D01*
X171260166Y-87400697D01*
X171245400Y-87474930D01*
X171245400Y-88401811D01*
X171225398Y-88469932D01*
X171171742Y-88516425D01*
X171101468Y-88526529D01*
X171036888Y-88497035D01*
X171030317Y-88490919D01*
X170861946Y-88322564D01*
X170791308Y-88251933D01*
X170757280Y-88189622D01*
X170754399Y-88162833D01*
X170754399Y-87474936D01*
X170754398Y-87474927D01*
X170739634Y-87400699D01*
X170683383Y-87316515D01*
X170599202Y-87260266D01*
X170524967Y-87245500D01*
X169474836Y-87245500D01*
X169474826Y-87245501D01*
X169400599Y-87260265D01*
X169316415Y-87316516D01*
X169260166Y-87400697D01*
X169245400Y-87474930D01*
X169245400Y-88401788D01*
X169225398Y-88469909D01*
X169171742Y-88516402D01*
X169101468Y-88526506D01*
X169036888Y-88497012D01*
X169030305Y-88490883D01*
X168791304Y-88251882D01*
X168757278Y-88189570D01*
X168754399Y-88162787D01*
X168754399Y-87474936D01*
X168754398Y-87474927D01*
X168739634Y-87400699D01*
X168683383Y-87316515D01*
X168599202Y-87260266D01*
X168524967Y-87245500D01*
X167474836Y-87245500D01*
X167474826Y-87245501D01*
X167400599Y-87260265D01*
X167316415Y-87316516D01*
X167260166Y-87400697D01*
X167245400Y-87474930D01*
X167245400Y-88401788D01*
X167225398Y-88469909D01*
X167171742Y-88516402D01*
X167101468Y-88526506D01*
X167036888Y-88497012D01*
X167030305Y-88490883D01*
X166791304Y-88251882D01*
X166757278Y-88189570D01*
X166754399Y-88162787D01*
X166754399Y-87474936D01*
X166754398Y-87474927D01*
X166739634Y-87400699D01*
X166683383Y-87316515D01*
X166599202Y-87260266D01*
X166524967Y-87245500D01*
X165474836Y-87245500D01*
X165474826Y-87245501D01*
X165400599Y-87260265D01*
X165316415Y-87316516D01*
X165260166Y-87400697D01*
X165245400Y-87474930D01*
X165245400Y-88401609D01*
X165225398Y-88469730D01*
X165171742Y-88516223D01*
X165101468Y-88526327D01*
X165036888Y-88496833D01*
X165030439Y-88490837D01*
X164791468Y-88252488D01*
X164757363Y-88190221D01*
X164754449Y-88163278D01*
X164754449Y-87474936D01*
X164754448Y-87474927D01*
X164739684Y-87400699D01*
X164683433Y-87316515D01*
X164599252Y-87260266D01*
X164525017Y-87245500D01*
X163474986Y-87245500D01*
X163474976Y-87245501D01*
X163400749Y-87260265D01*
X163316565Y-87316516D01*
X163260316Y-87400697D01*
X163245550Y-87474930D01*
X163245550Y-88400761D01*
X163225548Y-88468882D01*
X163171892Y-88515375D01*
X163101618Y-88525479D01*
X163037038Y-88495985D01*
X163030589Y-88489990D01*
X162791468Y-88251490D01*
X162757363Y-88189223D01*
X162754449Y-88162280D01*
X162754449Y-87474936D01*
X162754448Y-87474927D01*
X162739684Y-87400699D01*
X162683433Y-87316515D01*
X162599252Y-87260266D01*
X162525017Y-87245500D01*
X161474986Y-87245500D01*
X161474976Y-87245501D01*
X161400749Y-87260265D01*
X161316565Y-87316516D01*
X161260316Y-87400697D01*
X161245550Y-87474930D01*
X161245550Y-88402937D01*
X161225548Y-88471058D01*
X161171892Y-88517551D01*
X161101618Y-88527655D01*
X161037038Y-88498161D01*
X161030455Y-88492032D01*
X160791354Y-88252931D01*
X160757328Y-88190619D01*
X160754449Y-88163836D01*
X160754449Y-87474936D01*
X160754448Y-87474927D01*
X160739684Y-87400699D01*
X160683433Y-87316515D01*
X160599252Y-87260266D01*
X160525017Y-87245500D01*
X159474986Y-87245500D01*
X159474976Y-87245501D01*
X159400749Y-87260265D01*
X159316565Y-87316516D01*
X159260316Y-87400697D01*
X159245550Y-87474930D01*
X159245550Y-88525063D01*
X159245551Y-88525073D01*
X159260315Y-88599300D01*
X159316566Y-88683484D01*
X159400747Y-88739733D01*
X159400749Y-88739734D01*
X159474983Y-88754500D01*
X160161686Y-88754499D01*
X160229807Y-88774501D01*
X160250781Y-88791404D01*
X160579695Y-89120318D01*
X160613721Y-89182630D01*
X160616600Y-89209413D01*
X160616600Y-96790000D01*
X160596598Y-96858121D01*
X160579700Y-96879091D01*
X160250233Y-97208591D01*
X160187922Y-97242619D01*
X160161133Y-97245500D01*
X159474836Y-97245500D01*
X159474826Y-97245501D01*
X159400599Y-97260265D01*
X159316415Y-97316516D01*
X159260166Y-97400697D01*
X159245400Y-97474930D01*
X159245400Y-98525063D01*
X159245401Y-98525073D01*
X159260165Y-98599300D01*
X159316416Y-98683484D01*
X159400597Y-98739733D01*
X159400599Y-98739734D01*
X159474833Y-98754500D01*
X160491800Y-98754499D01*
X160559921Y-98774501D01*
X160606414Y-98828157D01*
X160617800Y-98880499D01*
X160617800Y-106790187D01*
X160597798Y-106858308D01*
X160580899Y-106879277D01*
X160344324Y-107115853D01*
X160251681Y-107208496D01*
X160189369Y-107242521D01*
X160162586Y-107245400D01*
X159474836Y-107245400D01*
X159474826Y-107245401D01*
X159400599Y-107260165D01*
X159316415Y-107316416D01*
X159260166Y-107400597D01*
X159245400Y-107474830D01*
X159245400Y-108524963D01*
X159245401Y-108524973D01*
X159260165Y-108599200D01*
X159316416Y-108683384D01*
X159400597Y-108739633D01*
X159400599Y-108739634D01*
X159474833Y-108754400D01*
X160491800Y-108754399D01*
X160559921Y-108774401D01*
X160606414Y-108828057D01*
X160617800Y-108880399D01*
X160617800Y-116790187D01*
X160597798Y-116858308D01*
X160580899Y-116879277D01*
X160410052Y-117050125D01*
X160251681Y-117208496D01*
X160189369Y-117242521D01*
X160162586Y-117245400D01*
X159474836Y-117245400D01*
X159474826Y-117245401D01*
X159400599Y-117260165D01*
X159316415Y-117316416D01*
X159260166Y-117400597D01*
X159245400Y-117474830D01*
X159245400Y-118524963D01*
X159245401Y-118524973D01*
X159260165Y-118599200D01*
X159316416Y-118683384D01*
X159400597Y-118739633D01*
X159400599Y-118739634D01*
X159474833Y-118754400D01*
X160524966Y-118754399D01*
X160524969Y-118754398D01*
X160524973Y-118754398D01*
X160574226Y-118744601D01*
X160599201Y-118739634D01*
X160683384Y-118683384D01*
X160739634Y-118599201D01*
X160754400Y-118524967D01*
X160754399Y-117837012D01*
X160774401Y-117768892D01*
X160791304Y-117747918D01*
X161030305Y-117508917D01*
X161092617Y-117474891D01*
X161163432Y-117479956D01*
X161220268Y-117522503D01*
X161245079Y-117589023D01*
X161245400Y-117598012D01*
X161245400Y-118524963D01*
X161245401Y-118524973D01*
X161260165Y-118599200D01*
X161316416Y-118683384D01*
X161400597Y-118739633D01*
X161400599Y-118739634D01*
X161474833Y-118754400D01*
X162524966Y-118754399D01*
X162524969Y-118754398D01*
X162524973Y-118754398D01*
X162574226Y-118744601D01*
X162599201Y-118739634D01*
X162683384Y-118683384D01*
X162739634Y-118599201D01*
X162754400Y-118524967D01*
X162754399Y-117838212D01*
X162774401Y-117770092D01*
X162791299Y-117749122D01*
X163030306Y-117510116D01*
X163092617Y-117476092D01*
X163163433Y-117481157D01*
X163220268Y-117523704D01*
X163245079Y-117590225D01*
X163245400Y-117599213D01*
X163245400Y-118524963D01*
X163245401Y-118524973D01*
X163260165Y-118599200D01*
X163316416Y-118683384D01*
X163400597Y-118739633D01*
X163400599Y-118739634D01*
X163474833Y-118754400D01*
X164524966Y-118754399D01*
X164524969Y-118754398D01*
X164524973Y-118754398D01*
X164574226Y-118744601D01*
X164599201Y-118739634D01*
X164683384Y-118683384D01*
X164739634Y-118599201D01*
X164754400Y-118524967D01*
X164754399Y-117837212D01*
X164774401Y-117769092D01*
X164791299Y-117748122D01*
X165030456Y-117508966D01*
X165092767Y-117474942D01*
X165163583Y-117480007D01*
X165220418Y-117522554D01*
X165245229Y-117589075D01*
X165245550Y-117598063D01*
X165245550Y-118524963D01*
X165245551Y-118524973D01*
X165260315Y-118599200D01*
X165316566Y-118683384D01*
X165400747Y-118739633D01*
X165400749Y-118739634D01*
X165474983Y-118754400D01*
X166525016Y-118754399D01*
X166525019Y-118754398D01*
X166525023Y-118754398D01*
X166574276Y-118744601D01*
X166599251Y-118739634D01*
X166683434Y-118683384D01*
X166739684Y-118599201D01*
X166754450Y-118524967D01*
X166754449Y-117837062D01*
X166774451Y-117768942D01*
X166791354Y-117747968D01*
X167030455Y-117508867D01*
X167092767Y-117474841D01*
X167163582Y-117479906D01*
X167220418Y-117522453D01*
X167245229Y-117588973D01*
X167245550Y-117597962D01*
X167245550Y-118524963D01*
X167245551Y-118524973D01*
X167260315Y-118599200D01*
X167316566Y-118683384D01*
X167400747Y-118739633D01*
X167400749Y-118739634D01*
X167474983Y-118754400D01*
X168525016Y-118754399D01*
X168525019Y-118754398D01*
X168525023Y-118754398D01*
X168574276Y-118744601D01*
X168599251Y-118739634D01*
X168683434Y-118683384D01*
X168739684Y-118599201D01*
X168754450Y-118524967D01*
X168754449Y-117837062D01*
X168774451Y-117768942D01*
X168791354Y-117747968D01*
X169030355Y-117508967D01*
X169092667Y-117474941D01*
X169163482Y-117480006D01*
X169220318Y-117522553D01*
X169245129Y-117589073D01*
X169245450Y-117598062D01*
X169245450Y-118524963D01*
X169245451Y-118524973D01*
X169260215Y-118599200D01*
X169316466Y-118683384D01*
X169400647Y-118739633D01*
X169400649Y-118739634D01*
X169474883Y-118754400D01*
X170162586Y-118754399D01*
X170230707Y-118774401D01*
X170251681Y-118791304D01*
X170340682Y-118880305D01*
X170374708Y-118942617D01*
X170369643Y-119013432D01*
X170327096Y-119070268D01*
X170260576Y-119095079D01*
X170251587Y-119095400D01*
X169324836Y-119095400D01*
X169324826Y-119095401D01*
X169250599Y-119110165D01*
X169166415Y-119166416D01*
X169104663Y-119258832D01*
X169050185Y-119304359D01*
X168979742Y-119313206D01*
X168915699Y-119282564D01*
X168895134Y-119258831D01*
X168889634Y-119250600D01*
X168889634Y-119250599D01*
X168833384Y-119166416D01*
X168833383Y-119166415D01*
X168749202Y-119110166D01*
X168674967Y-119095400D01*
X167324836Y-119095400D01*
X167324826Y-119095401D01*
X167250599Y-119110165D01*
X167166415Y-119166416D01*
X167110166Y-119250597D01*
X167095400Y-119324830D01*
X167095400Y-120674963D01*
X167095401Y-120674973D01*
X167110165Y-120749200D01*
X167166416Y-120833384D01*
X167250597Y-120889633D01*
X167250599Y-120889634D01*
X167324833Y-120904400D01*
X168674966Y-120904399D01*
X168674969Y-120904398D01*
X168674973Y-120904398D01*
X168724226Y-120894601D01*
X168749201Y-120889634D01*
X168833384Y-120833384D01*
X168889634Y-120749201D01*
X168889634Y-120749200D01*
X168895135Y-120740968D01*
X168949612Y-120695440D01*
X169020055Y-120686593D01*
X169084099Y-120717234D01*
X169104665Y-120740968D01*
X169166416Y-120833384D01*
X169250597Y-120889633D01*
X169250599Y-120889634D01*
X169324833Y-120904400D01*
X170492400Y-120904399D01*
X170560521Y-120924401D01*
X170607014Y-120978057D01*
X170618400Y-121030399D01*
X170618400Y-121789687D01*
X170598398Y-121857808D01*
X170581495Y-121878782D01*
X169878782Y-122581495D01*
X169816470Y-122615521D01*
X169789687Y-122618400D01*
X147461560Y-122618400D01*
X147393439Y-122598398D01*
X147372465Y-122581495D01*
X147343324Y-122552354D01*
X147343314Y-122552346D01*
X147215782Y-122478716D01*
X147073533Y-122440600D01*
X146926267Y-122440600D01*
X146831434Y-122466010D01*
X146784017Y-122478716D01*
X146656485Y-122552346D01*
X146656475Y-122552354D01*
X146552354Y-122656475D01*
X146552346Y-122656485D01*
X146478716Y-122784017D01*
X146478716Y-122784018D01*
X146445977Y-122906202D01*
X146440600Y-122926268D01*
X146440600Y-123073531D01*
X146440599Y-123073531D01*
X146478716Y-123215782D01*
X146552346Y-123343314D01*
X146552354Y-123343324D01*
X146612835Y-123403805D01*
X146646861Y-123466117D01*
X146641796Y-123536932D01*
X146599249Y-123593768D01*
X146532729Y-123618579D01*
X146523740Y-123618900D01*
X146209613Y-123618900D01*
X146141492Y-123598898D01*
X146120518Y-123581995D01*
X141863353Y-119324830D01*
X157095450Y-119324830D01*
X157095450Y-120674963D01*
X157095451Y-120674973D01*
X157110215Y-120749200D01*
X157166466Y-120833384D01*
X157250647Y-120889633D01*
X157250649Y-120889634D01*
X157324883Y-120904400D01*
X158675116Y-120904399D01*
X158675119Y-120904398D01*
X158675123Y-120904398D01*
X158724376Y-120894601D01*
X158749351Y-120889634D01*
X158833534Y-120833384D01*
X158889784Y-120749201D01*
X158904550Y-120674967D01*
X158904549Y-119474830D01*
X161245550Y-119474830D01*
X161245550Y-120524963D01*
X161245551Y-120524973D01*
X161260315Y-120599200D01*
X161316566Y-120683384D01*
X161400747Y-120739633D01*
X161400749Y-120739634D01*
X161474983Y-120754400D01*
X162525016Y-120754399D01*
X162525019Y-120754398D01*
X162525023Y-120754398D01*
X162574276Y-120744601D01*
X162599251Y-120739634D01*
X162683434Y-120683384D01*
X162739684Y-120599201D01*
X162754450Y-120524967D01*
X162754449Y-119474834D01*
X162754449Y-119474833D01*
X162754449Y-119474831D01*
X162754449Y-119474830D01*
X163245550Y-119474830D01*
X163245550Y-120524963D01*
X163245551Y-120524973D01*
X163260315Y-120599200D01*
X163316566Y-120683384D01*
X163400747Y-120739633D01*
X163400749Y-120739634D01*
X163474983Y-120754400D01*
X164525016Y-120754399D01*
X164525019Y-120754398D01*
X164525023Y-120754398D01*
X164574276Y-120744601D01*
X164599251Y-120739634D01*
X164683434Y-120683384D01*
X164739684Y-120599201D01*
X164754450Y-120524967D01*
X164754449Y-119474834D01*
X164754449Y-119474833D01*
X164754449Y-119474831D01*
X164754449Y-119474830D01*
X165245400Y-119474830D01*
X165245400Y-120524963D01*
X165245401Y-120524973D01*
X165260165Y-120599200D01*
X165316416Y-120683384D01*
X165400597Y-120739633D01*
X165400599Y-120739634D01*
X165474833Y-120754400D01*
X166524966Y-120754399D01*
X166524969Y-120754398D01*
X166524973Y-120754398D01*
X166574226Y-120744601D01*
X166599201Y-120739634D01*
X166683384Y-120683384D01*
X166739634Y-120599201D01*
X166754400Y-120524967D01*
X166754399Y-119474834D01*
X166754398Y-119474831D01*
X166754398Y-119474826D01*
X166739634Y-119400599D01*
X166683383Y-119316415D01*
X166599202Y-119260166D01*
X166524967Y-119245400D01*
X165474836Y-119245400D01*
X165474826Y-119245401D01*
X165400599Y-119260165D01*
X165316415Y-119316416D01*
X165260166Y-119400597D01*
X165245400Y-119474830D01*
X164754449Y-119474830D01*
X164739684Y-119400599D01*
X164683433Y-119316415D01*
X164599252Y-119260166D01*
X164525017Y-119245400D01*
X163474986Y-119245400D01*
X163474976Y-119245401D01*
X163400749Y-119260165D01*
X163316565Y-119316416D01*
X163260316Y-119400597D01*
X163245550Y-119474830D01*
X162754449Y-119474830D01*
X162739684Y-119400599D01*
X162683433Y-119316415D01*
X162599252Y-119260166D01*
X162525017Y-119245400D01*
X161474986Y-119245400D01*
X161474976Y-119245401D01*
X161400749Y-119260165D01*
X161316565Y-119316416D01*
X161260316Y-119400597D01*
X161245550Y-119474830D01*
X158904549Y-119474830D01*
X158904549Y-119324834D01*
X158904548Y-119324830D01*
X158904548Y-119324826D01*
X158889784Y-119250599D01*
X158833533Y-119166415D01*
X158749352Y-119110166D01*
X158675117Y-119095400D01*
X157324886Y-119095400D01*
X157324876Y-119095401D01*
X157250649Y-119110165D01*
X157166465Y-119166416D01*
X157110216Y-119250597D01*
X157095450Y-119324830D01*
X141863353Y-119324830D01*
X141416605Y-118878082D01*
X141382579Y-118815770D01*
X141379700Y-118788987D01*
X141379700Y-117139880D01*
X149603500Y-117139880D01*
X149603500Y-117340119D01*
X149642564Y-117536502D01*
X149642565Y-117536505D01*
X149664817Y-117590225D01*
X149719190Y-117721493D01*
X149830433Y-117887981D01*
X149830434Y-117887982D01*
X149830439Y-117887988D01*
X149972011Y-118029560D01*
X149972017Y-118029565D01*
X149972019Y-118029567D01*
X150138507Y-118140810D01*
X150323498Y-118217436D01*
X150519884Y-118256500D01*
X150720116Y-118256500D01*
X150916502Y-118217436D01*
X151101493Y-118140810D01*
X151267981Y-118029567D01*
X151409567Y-117887981D01*
X151520810Y-117721493D01*
X151597436Y-117536502D01*
X151609703Y-117474830D01*
X157245400Y-117474830D01*
X157245400Y-118524963D01*
X157245401Y-118524973D01*
X157260165Y-118599200D01*
X157316416Y-118683384D01*
X157400597Y-118739633D01*
X157400599Y-118739634D01*
X157474833Y-118754400D01*
X158524966Y-118754399D01*
X158524969Y-118754398D01*
X158524973Y-118754398D01*
X158574226Y-118744601D01*
X158599201Y-118739634D01*
X158683384Y-118683384D01*
X158739634Y-118599201D01*
X158754400Y-118524967D01*
X158754399Y-117474834D01*
X158754398Y-117474827D01*
X158754398Y-117474826D01*
X158739634Y-117400599D01*
X158683383Y-117316415D01*
X158599202Y-117260166D01*
X158524967Y-117245400D01*
X157474836Y-117245400D01*
X157474826Y-117245401D01*
X157400599Y-117260165D01*
X157316415Y-117316416D01*
X157260166Y-117400597D01*
X157245400Y-117474830D01*
X151609703Y-117474830D01*
X151636500Y-117340116D01*
X151636500Y-117139884D01*
X151597436Y-116943498D01*
X151520810Y-116758507D01*
X151409567Y-116592019D01*
X151409565Y-116592017D01*
X151409560Y-116592011D01*
X151267988Y-116450439D01*
X151267982Y-116450434D01*
X151267981Y-116450433D01*
X151101493Y-116339190D01*
X150984839Y-116290870D01*
X150916505Y-116262565D01*
X150916502Y-116262564D01*
X150720119Y-116223500D01*
X150720116Y-116223500D01*
X150519884Y-116223500D01*
X150519880Y-116223500D01*
X150323497Y-116262564D01*
X150323494Y-116262565D01*
X150138507Y-116339190D01*
X149972017Y-116450434D01*
X149972011Y-116450439D01*
X149830439Y-116592011D01*
X149830434Y-116592017D01*
X149719190Y-116758507D01*
X149642565Y-116943494D01*
X149642564Y-116943497D01*
X149603500Y-117139880D01*
X141379700Y-117139880D01*
X141379700Y-114599880D01*
X149603500Y-114599880D01*
X149603500Y-114800119D01*
X149642564Y-114996502D01*
X149719190Y-115181493D01*
X149830433Y-115347981D01*
X149830434Y-115347982D01*
X149830439Y-115347988D01*
X149972011Y-115489560D01*
X149972017Y-115489565D01*
X149972019Y-115489567D01*
X150138507Y-115600810D01*
X150323498Y-115677436D01*
X150519884Y-115716500D01*
X150720116Y-115716500D01*
X150916502Y-115677436D01*
X151101493Y-115600810D01*
X151267981Y-115489567D01*
X151409567Y-115347981D01*
X151520810Y-115181493D01*
X151597436Y-114996502D01*
X151636500Y-114800116D01*
X151636500Y-114599884D01*
X151597436Y-114403498D01*
X151520810Y-114218507D01*
X151409567Y-114052019D01*
X151409565Y-114052017D01*
X151409560Y-114052011D01*
X151267988Y-113910439D01*
X151267982Y-113910434D01*
X151267981Y-113910433D01*
X151101493Y-113799190D01*
X150984839Y-113750870D01*
X150916505Y-113722565D01*
X150916502Y-113722564D01*
X150720119Y-113683500D01*
X150720116Y-113683500D01*
X150519884Y-113683500D01*
X150519880Y-113683500D01*
X150323497Y-113722564D01*
X150323494Y-113722565D01*
X150138507Y-113799190D01*
X149972017Y-113910434D01*
X149972011Y-113910439D01*
X149830439Y-114052011D01*
X149830434Y-114052017D01*
X149719190Y-114218507D01*
X149642565Y-114403494D01*
X149642564Y-114403497D01*
X149603500Y-114599880D01*
X141379700Y-114599880D01*
X141379700Y-112059880D01*
X149603500Y-112059880D01*
X149603500Y-112260119D01*
X149642564Y-112456502D01*
X149719190Y-112641493D01*
X149830433Y-112807981D01*
X149830434Y-112807982D01*
X149830439Y-112807988D01*
X149972011Y-112949560D01*
X149972017Y-112949565D01*
X149972019Y-112949567D01*
X150138507Y-113060810D01*
X150323498Y-113137436D01*
X150519884Y-113176500D01*
X150720116Y-113176500D01*
X150916502Y-113137436D01*
X151101493Y-113060810D01*
X151267981Y-112949567D01*
X151409567Y-112807981D01*
X151520810Y-112641493D01*
X151597436Y-112456502D01*
X151636500Y-112260116D01*
X151636500Y-112059884D01*
X151597436Y-111863498D01*
X151520810Y-111678507D01*
X151409567Y-111512019D01*
X151409565Y-111512017D01*
X151409560Y-111512011D01*
X151267988Y-111370439D01*
X151267982Y-111370434D01*
X151267981Y-111370433D01*
X151101493Y-111259190D01*
X150984839Y-111210870D01*
X150916505Y-111182565D01*
X150916502Y-111182564D01*
X150720119Y-111143500D01*
X150720116Y-111143500D01*
X150519884Y-111143500D01*
X150519880Y-111143500D01*
X150323497Y-111182564D01*
X150323494Y-111182565D01*
X150138507Y-111259190D01*
X149972017Y-111370434D01*
X149972011Y-111370439D01*
X149830439Y-111512011D01*
X149830434Y-111512017D01*
X149719190Y-111678507D01*
X149642565Y-111863494D01*
X149642564Y-111863497D01*
X149603500Y-112059880D01*
X141379700Y-112059880D01*
X141379700Y-108832930D01*
X149603500Y-108832930D01*
X149603500Y-110407063D01*
X149603501Y-110407073D01*
X149618265Y-110481300D01*
X149674516Y-110565484D01*
X149758697Y-110621733D01*
X149758699Y-110621734D01*
X149832933Y-110636500D01*
X151407066Y-110636499D01*
X151407069Y-110636498D01*
X151407073Y-110636498D01*
X151456326Y-110626701D01*
X151481301Y-110621734D01*
X151565484Y-110565484D01*
X151621734Y-110481301D01*
X151636500Y-110407067D01*
X151636499Y-109324830D01*
X157095450Y-109324830D01*
X157095450Y-110674963D01*
X157095451Y-110674973D01*
X157110215Y-110749200D01*
X157166466Y-110833384D01*
X157250647Y-110889633D01*
X157250649Y-110889634D01*
X157324883Y-110904400D01*
X158675116Y-110904399D01*
X158675119Y-110904398D01*
X158675123Y-110904398D01*
X158724376Y-110894601D01*
X158749351Y-110889634D01*
X158833534Y-110833384D01*
X158889784Y-110749201D01*
X158904550Y-110674967D01*
X158904549Y-109324834D01*
X158904548Y-109324830D01*
X158904548Y-109324826D01*
X158889784Y-109250599D01*
X158872945Y-109225398D01*
X158833534Y-109166416D01*
X158833533Y-109166415D01*
X158749352Y-109110166D01*
X158675117Y-109095400D01*
X157324886Y-109095400D01*
X157324876Y-109095401D01*
X157250649Y-109110165D01*
X157166465Y-109166416D01*
X157110216Y-109250597D01*
X157095450Y-109324830D01*
X151636499Y-109324830D01*
X151636499Y-108832934D01*
X151636498Y-108832930D01*
X151636498Y-108832926D01*
X151621734Y-108758699D01*
X151600691Y-108727206D01*
X151565484Y-108674516D01*
X151517667Y-108642565D01*
X151481302Y-108618266D01*
X151407067Y-108603500D01*
X149832936Y-108603500D01*
X149832926Y-108603501D01*
X149758699Y-108618265D01*
X149674515Y-108674516D01*
X149618266Y-108758697D01*
X149603500Y-108832930D01*
X141379700Y-108832930D01*
X141379700Y-100210568D01*
X141399702Y-100142447D01*
X141416708Y-100121369D01*
X142226927Y-99313094D01*
X142227725Y-99312397D01*
X142233144Y-99306977D01*
X142233147Y-99306976D01*
X142268751Y-99271370D01*
X142268862Y-99271261D01*
X142303888Y-99236319D01*
X142303888Y-99236318D01*
X142303894Y-99236313D01*
X142303898Y-99236306D01*
X142304033Y-99236131D01*
X142304167Y-99235955D01*
X142304176Y-99235947D01*
X142329373Y-99192304D01*
X142329383Y-99192309D01*
X142329442Y-99192184D01*
X142354224Y-99149380D01*
X142354225Y-99149378D01*
X142354397Y-99148960D01*
X142354401Y-99148954D01*
X142367400Y-99100441D01*
X142367435Y-99100450D01*
X142367438Y-99100296D01*
X142380339Y-99052383D01*
X142380339Y-99052379D01*
X142380340Y-99052376D01*
X142380381Y-99052069D01*
X142380386Y-99052032D01*
X142380400Y-99051926D01*
X142380400Y-99001742D01*
X142380469Y-98944393D01*
X142380400Y-98943321D01*
X142380400Y-96963699D01*
X142400402Y-96895578D01*
X142454058Y-96849085D01*
X142506400Y-96837699D01*
X142743700Y-96837699D01*
X142811821Y-96857701D01*
X142858314Y-96911357D01*
X142869700Y-96963699D01*
X142869700Y-99760623D01*
X142869699Y-99760623D01*
X142871074Y-99765753D01*
X142895699Y-99857654D01*
X142928047Y-99913683D01*
X142945924Y-99944647D01*
X142945926Y-99944649D01*
X142945929Y-99944653D01*
X149566595Y-106565318D01*
X149600621Y-106627630D01*
X149603500Y-106654413D01*
X149603500Y-107867063D01*
X149603501Y-107867073D01*
X149618265Y-107941300D01*
X149674516Y-108025484D01*
X149758697Y-108081733D01*
X149758699Y-108081734D01*
X149832933Y-108096500D01*
X151407066Y-108096499D01*
X151407069Y-108096498D01*
X151407073Y-108096498D01*
X151456326Y-108086701D01*
X151481301Y-108081734D01*
X151565484Y-108025484D01*
X151621734Y-107941301D01*
X151636500Y-107867067D01*
X151636500Y-107474830D01*
X157245400Y-107474830D01*
X157245400Y-108524963D01*
X157245401Y-108524973D01*
X157260165Y-108599200D01*
X157316416Y-108683384D01*
X157400597Y-108739633D01*
X157400599Y-108739634D01*
X157474833Y-108754400D01*
X158524966Y-108754399D01*
X158524969Y-108754398D01*
X158524973Y-108754398D01*
X158574226Y-108744601D01*
X158599201Y-108739634D01*
X158683384Y-108683384D01*
X158739634Y-108599201D01*
X158754400Y-108524967D01*
X158754399Y-107474834D01*
X158754398Y-107474827D01*
X158754398Y-107474826D01*
X158739634Y-107400599D01*
X158739633Y-107400597D01*
X158683384Y-107316416D01*
X158683383Y-107316415D01*
X158599202Y-107260166D01*
X158524967Y-107245400D01*
X157474836Y-107245400D01*
X157474826Y-107245401D01*
X157400599Y-107260165D01*
X157316415Y-107316416D01*
X157260166Y-107400597D01*
X157245400Y-107474830D01*
X151636500Y-107474830D01*
X151636499Y-106979884D01*
X151636499Y-106292936D01*
X151636498Y-106292926D01*
X151621734Y-106218699D01*
X151608530Y-106198938D01*
X151565484Y-106134516D01*
X151535141Y-106114241D01*
X151481302Y-106078266D01*
X151407069Y-106063500D01*
X151407067Y-106063500D01*
X150196013Y-106063500D01*
X150127892Y-106043498D01*
X150106918Y-106026595D01*
X149851917Y-105771594D01*
X149817891Y-105709282D01*
X149822956Y-105638467D01*
X149865503Y-105581631D01*
X149932023Y-105556820D01*
X149940985Y-105556499D01*
X151407066Y-105556499D01*
X151407069Y-105556498D01*
X151407073Y-105556498D01*
X151456326Y-105546701D01*
X151481301Y-105541734D01*
X151565484Y-105485484D01*
X151621734Y-105401301D01*
X151636500Y-105327067D01*
X151636499Y-103752934D01*
X151636498Y-103752930D01*
X151636498Y-103752926D01*
X151621734Y-103678699D01*
X151621733Y-103678697D01*
X151565484Y-103594516D01*
X151565483Y-103594515D01*
X151481302Y-103538266D01*
X151407067Y-103523500D01*
X149832936Y-103523500D01*
X149832926Y-103523501D01*
X149758699Y-103538265D01*
X149674515Y-103594516D01*
X149618266Y-103678697D01*
X149603500Y-103752930D01*
X149603500Y-105218987D01*
X149583498Y-105287108D01*
X149529842Y-105333601D01*
X149459568Y-105343705D01*
X149394988Y-105314211D01*
X149388405Y-105308082D01*
X145980203Y-101899880D01*
X149603500Y-101899880D01*
X149603500Y-102100119D01*
X149630661Y-102236664D01*
X149642564Y-102296502D01*
X149719190Y-102481493D01*
X149819232Y-102631217D01*
X149830434Y-102647982D01*
X149830439Y-102647988D01*
X149972011Y-102789560D01*
X149972017Y-102789565D01*
X149972019Y-102789567D01*
X150138507Y-102900810D01*
X150323498Y-102977436D01*
X150519884Y-103016500D01*
X150720116Y-103016500D01*
X150916502Y-102977436D01*
X151101493Y-102900810D01*
X151267981Y-102789567D01*
X151409567Y-102647981D01*
X151520810Y-102481493D01*
X151597436Y-102296502D01*
X151636500Y-102100116D01*
X151636500Y-101899884D01*
X151597436Y-101703498D01*
X151520810Y-101518507D01*
X151409567Y-101352019D01*
X151409565Y-101352017D01*
X151409560Y-101352011D01*
X151267988Y-101210439D01*
X151267982Y-101210434D01*
X151267981Y-101210433D01*
X151101493Y-101099190D01*
X150984839Y-101050870D01*
X150916505Y-101022565D01*
X150916502Y-101022564D01*
X150720119Y-100983500D01*
X150720116Y-100983500D01*
X150519884Y-100983500D01*
X150519880Y-100983500D01*
X150323497Y-101022564D01*
X150323494Y-101022565D01*
X150138507Y-101099190D01*
X149972017Y-101210434D01*
X149972011Y-101210439D01*
X149830439Y-101352011D01*
X149830434Y-101352017D01*
X149719190Y-101518507D01*
X149642565Y-101703494D01*
X149642564Y-101703497D01*
X149603500Y-101899880D01*
X145980203Y-101899880D01*
X143669605Y-99589282D01*
X143654660Y-99561913D01*
X143637804Y-99535685D01*
X143636898Y-99529386D01*
X143635579Y-99526970D01*
X143632700Y-99500187D01*
X143632700Y-99359880D01*
X149603500Y-99359880D01*
X149603500Y-99560119D01*
X149630252Y-99694606D01*
X149642564Y-99756502D01*
X149719190Y-99941493D01*
X149830433Y-100107981D01*
X149830434Y-100107982D01*
X149830439Y-100107988D01*
X149972011Y-100249560D01*
X149972017Y-100249565D01*
X149972019Y-100249567D01*
X150138507Y-100360810D01*
X150323498Y-100437436D01*
X150519884Y-100476500D01*
X150720116Y-100476500D01*
X150916502Y-100437436D01*
X151101493Y-100360810D01*
X151267981Y-100249567D01*
X151409567Y-100107981D01*
X151520810Y-99941493D01*
X151597436Y-99756502D01*
X151636500Y-99560116D01*
X151636500Y-99359884D01*
X151636500Y-99359883D01*
X151636499Y-99359875D01*
X151633197Y-99343273D01*
X151629538Y-99324880D01*
X157095450Y-99324880D01*
X157095450Y-100675113D01*
X157095451Y-100675123D01*
X157110215Y-100749350D01*
X157166466Y-100833534D01*
X157250647Y-100889783D01*
X157250649Y-100889784D01*
X157324883Y-100904550D01*
X158675116Y-100904549D01*
X158675119Y-100904548D01*
X158675123Y-100904548D01*
X158724376Y-100894751D01*
X158749351Y-100889784D01*
X158833534Y-100833534D01*
X158889784Y-100749351D01*
X158904550Y-100675117D01*
X158904549Y-99324884D01*
X158904548Y-99324880D01*
X158904548Y-99324876D01*
X158889784Y-99250649D01*
X158886344Y-99245501D01*
X158833534Y-99166466D01*
X158833533Y-99166465D01*
X158749352Y-99110216D01*
X158675117Y-99095450D01*
X157324886Y-99095450D01*
X157324876Y-99095451D01*
X157250649Y-99110215D01*
X157166465Y-99166466D01*
X157110216Y-99250647D01*
X157095450Y-99324880D01*
X151629538Y-99324880D01*
X151608747Y-99220364D01*
X151597436Y-99163498D01*
X151520810Y-98978507D01*
X151409567Y-98812019D01*
X151409565Y-98812017D01*
X151409560Y-98812011D01*
X151267988Y-98670439D01*
X151267982Y-98670434D01*
X151267981Y-98670433D01*
X151101493Y-98559190D01*
X150984839Y-98510870D01*
X150916505Y-98482565D01*
X150916502Y-98482564D01*
X150720119Y-98443500D01*
X150720116Y-98443500D01*
X150519884Y-98443500D01*
X150519880Y-98443500D01*
X150323497Y-98482564D01*
X150323494Y-98482565D01*
X150138507Y-98559190D01*
X149972017Y-98670434D01*
X149972011Y-98670439D01*
X149830439Y-98812011D01*
X149830434Y-98812017D01*
X149719190Y-98978507D01*
X149642565Y-99163494D01*
X149642564Y-99163497D01*
X149603500Y-99359880D01*
X143632700Y-99359880D01*
X143632700Y-96963699D01*
X143652702Y-96895578D01*
X143706358Y-96849085D01*
X143758695Y-96837699D01*
X145324966Y-96837699D01*
X145324969Y-96837698D01*
X145324973Y-96837698D01*
X145374226Y-96827901D01*
X145399201Y-96822934D01*
X145403772Y-96819880D01*
X149603500Y-96819880D01*
X149603500Y-97020119D01*
X149623269Y-97119500D01*
X149642564Y-97216502D01*
X149719190Y-97401493D01*
X149768263Y-97474936D01*
X149830434Y-97567982D01*
X149830439Y-97567988D01*
X149972011Y-97709560D01*
X149972017Y-97709565D01*
X149972019Y-97709567D01*
X150138507Y-97820810D01*
X150323498Y-97897436D01*
X150519884Y-97936500D01*
X150720116Y-97936500D01*
X150916502Y-97897436D01*
X151101493Y-97820810D01*
X151267981Y-97709567D01*
X151409567Y-97567981D01*
X151471741Y-97474930D01*
X157245400Y-97474930D01*
X157245400Y-98525063D01*
X157245401Y-98525073D01*
X157260165Y-98599300D01*
X157316416Y-98683484D01*
X157400597Y-98739733D01*
X157400599Y-98739734D01*
X157474833Y-98754500D01*
X158524966Y-98754499D01*
X158524969Y-98754498D01*
X158524973Y-98754498D01*
X158574226Y-98744701D01*
X158599201Y-98739734D01*
X158683384Y-98683484D01*
X158739634Y-98599301D01*
X158754400Y-98525067D01*
X158754399Y-97474934D01*
X158754398Y-97474927D01*
X158754398Y-97474926D01*
X158739634Y-97400699D01*
X158683383Y-97316515D01*
X158599202Y-97260266D01*
X158524967Y-97245500D01*
X157474836Y-97245500D01*
X157474826Y-97245501D01*
X157400599Y-97260265D01*
X157316415Y-97316516D01*
X157260166Y-97400697D01*
X157245400Y-97474930D01*
X151471741Y-97474930D01*
X151520810Y-97401493D01*
X151597436Y-97216502D01*
X151636500Y-97020116D01*
X151636500Y-96819884D01*
X151597436Y-96623498D01*
X151520810Y-96438507D01*
X151409567Y-96272019D01*
X151409565Y-96272017D01*
X151409560Y-96272011D01*
X151267988Y-96130439D01*
X151267982Y-96130434D01*
X151267981Y-96130433D01*
X151101493Y-96019190D01*
X150984839Y-95970870D01*
X150916505Y-95942565D01*
X150916502Y-95942564D01*
X150720119Y-95903500D01*
X150720116Y-95903500D01*
X150519884Y-95903500D01*
X150519880Y-95903500D01*
X150323497Y-95942564D01*
X150323494Y-95942565D01*
X150138507Y-96019190D01*
X149972017Y-96130434D01*
X149972011Y-96130439D01*
X149830439Y-96272011D01*
X149830434Y-96272017D01*
X149719190Y-96438507D01*
X149642565Y-96623494D01*
X149642564Y-96623497D01*
X149603500Y-96819880D01*
X145403772Y-96819880D01*
X145483384Y-96766684D01*
X145539634Y-96682501D01*
X145554400Y-96608267D01*
X145554399Y-95034134D01*
X145554398Y-95034127D01*
X145554398Y-95034126D01*
X145539634Y-94959899D01*
X145483383Y-94875715D01*
X145399202Y-94819466D01*
X145324967Y-94804700D01*
X143750836Y-94804700D01*
X143750826Y-94804701D01*
X143676599Y-94819465D01*
X143592415Y-94875716D01*
X143536166Y-94959897D01*
X143521400Y-95034130D01*
X143521400Y-95927137D01*
X143501398Y-95995258D01*
X143447742Y-96041751D01*
X143377468Y-96051855D01*
X143312888Y-96022361D01*
X143306482Y-96016409D01*
X143051481Y-95762419D01*
X143017332Y-95700175D01*
X143014399Y-95673147D01*
X143014399Y-95034136D01*
X143014398Y-95034127D01*
X142999634Y-94959899D01*
X142943383Y-94875715D01*
X142859202Y-94819466D01*
X142784967Y-94804700D01*
X141210836Y-94804700D01*
X141210826Y-94804701D01*
X141136599Y-94819465D01*
X141052415Y-94875716D01*
X140996166Y-94959897D01*
X140981400Y-95034130D01*
X140981400Y-96246086D01*
X140961398Y-96314207D01*
X140944495Y-96335181D01*
X138238082Y-99041595D01*
X138175770Y-99075621D01*
X138148987Y-99078500D01*
X136522499Y-99078500D01*
X136454378Y-99058498D01*
X136407885Y-99004842D01*
X136396499Y-98952500D01*
X136396499Y-98672936D01*
X136396498Y-98672927D01*
X136381734Y-98598699D01*
X136377107Y-98591775D01*
X136325484Y-98514516D01*
X136277667Y-98482565D01*
X136241302Y-98458266D01*
X136167067Y-98443500D01*
X134592936Y-98443500D01*
X134592926Y-98443501D01*
X134518699Y-98458265D01*
X134434515Y-98514516D01*
X134378266Y-98598697D01*
X134363500Y-98672930D01*
X134363500Y-100247063D01*
X134363501Y-100247073D01*
X134378265Y-100321300D01*
X134434516Y-100405484D01*
X134518697Y-100461733D01*
X134518699Y-100461734D01*
X134592933Y-100476500D01*
X136167066Y-100476499D01*
X136167069Y-100476498D01*
X136167073Y-100476498D01*
X136216326Y-100466701D01*
X136241301Y-100461734D01*
X136325484Y-100405484D01*
X136381734Y-100321301D01*
X136396500Y-100247067D01*
X136396500Y-99967500D01*
X136416502Y-99899379D01*
X136470158Y-99852886D01*
X136522500Y-99841500D01*
X138409423Y-99841500D01*
X138409425Y-99841500D01*
X138506454Y-99815501D01*
X138506457Y-99815499D01*
X138506458Y-99815499D01*
X138560811Y-99784118D01*
X138593447Y-99765276D01*
X138664476Y-99694247D01*
X141402305Y-96956416D01*
X141464617Y-96922391D01*
X141535432Y-96927456D01*
X141592268Y-96970003D01*
X141617079Y-97036523D01*
X141617400Y-97045512D01*
X141617400Y-98791130D01*
X141597398Y-98859251D01*
X141580388Y-98880332D01*
X140770054Y-99688721D01*
X140769247Y-99689429D01*
X140728328Y-99730348D01*
X140728223Y-99730452D01*
X140693201Y-99765389D01*
X140693175Y-99765425D01*
X140692933Y-99765737D01*
X140692924Y-99765753D01*
X140667726Y-99809395D01*
X140642869Y-99852330D01*
X140642702Y-99852734D01*
X140629843Y-99900724D01*
X140629804Y-99900870D01*
X140616756Y-99949330D01*
X140616700Y-99949760D01*
X140616700Y-99999693D01*
X140616630Y-100057347D01*
X140616700Y-100058411D01*
X140616700Y-119049423D01*
X140616699Y-119049423D01*
X140642699Y-119146455D01*
X140643149Y-119147233D01*
X140643155Y-119147255D01*
X140643160Y-119147253D01*
X140692921Y-119233443D01*
X140692929Y-119233453D01*
X145743781Y-124284305D01*
X145777807Y-124346617D01*
X145772742Y-124417432D01*
X145730195Y-124474268D01*
X145663675Y-124499079D01*
X145654686Y-124499400D01*
X120626500Y-124499400D01*
X120558379Y-124479398D01*
X120511886Y-124425742D01*
X120500500Y-124373400D01*
X120500500Y-117139880D01*
X134363500Y-117139880D01*
X134363500Y-117340119D01*
X134402564Y-117536502D01*
X134402565Y-117536505D01*
X134424817Y-117590225D01*
X134479190Y-117721493D01*
X134590433Y-117887981D01*
X134590434Y-117887982D01*
X134590439Y-117887988D01*
X134732011Y-118029560D01*
X134732017Y-118029565D01*
X134732019Y-118029567D01*
X134898507Y-118140810D01*
X135083498Y-118217436D01*
X135279884Y-118256500D01*
X135480116Y-118256500D01*
X135676502Y-118217436D01*
X135861493Y-118140810D01*
X136027981Y-118029567D01*
X136169567Y-117887981D01*
X136280810Y-117721493D01*
X136357436Y-117536502D01*
X136396500Y-117340116D01*
X136396500Y-117139884D01*
X136357436Y-116943498D01*
X136280810Y-116758507D01*
X136169567Y-116592019D01*
X136169565Y-116592017D01*
X136169560Y-116592011D01*
X136027988Y-116450439D01*
X136027982Y-116450434D01*
X136027981Y-116450433D01*
X135861493Y-116339190D01*
X135744839Y-116290870D01*
X135676505Y-116262565D01*
X135676502Y-116262564D01*
X135480119Y-116223500D01*
X135480116Y-116223500D01*
X135279884Y-116223500D01*
X135279880Y-116223500D01*
X135083497Y-116262564D01*
X135083494Y-116262565D01*
X134898507Y-116339190D01*
X134732017Y-116450434D01*
X134732011Y-116450439D01*
X134590439Y-116592011D01*
X134590434Y-116592017D01*
X134479190Y-116758507D01*
X134402565Y-116943494D01*
X134402564Y-116943497D01*
X134363500Y-117139880D01*
X120500500Y-117139880D01*
X120500500Y-113912930D01*
X134363500Y-113912930D01*
X134363500Y-115487063D01*
X134363501Y-115487073D01*
X134378265Y-115561300D01*
X134434516Y-115645484D01*
X134518697Y-115701733D01*
X134518699Y-115701734D01*
X134592933Y-115716500D01*
X136167066Y-115716499D01*
X136167069Y-115716498D01*
X136167073Y-115716498D01*
X136216326Y-115706701D01*
X136241301Y-115701734D01*
X136325484Y-115645484D01*
X136381734Y-115561301D01*
X136396500Y-115487067D01*
X136396499Y-113912934D01*
X136396498Y-113912930D01*
X136396498Y-113912926D01*
X136381734Y-113838699D01*
X136381733Y-113838697D01*
X136325484Y-113754516D01*
X136277667Y-113722565D01*
X136241302Y-113698266D01*
X136167067Y-113683500D01*
X134592936Y-113683500D01*
X134592926Y-113683501D01*
X134518699Y-113698265D01*
X134434515Y-113754516D01*
X134378266Y-113838697D01*
X134363500Y-113912930D01*
X120500500Y-113912930D01*
X120500500Y-112059880D01*
X134363500Y-112059880D01*
X134363500Y-112260119D01*
X134402564Y-112456502D01*
X134479190Y-112641493D01*
X134590433Y-112807981D01*
X134590434Y-112807982D01*
X134590439Y-112807988D01*
X134732011Y-112949560D01*
X134732017Y-112949565D01*
X134732019Y-112949567D01*
X134898507Y-113060810D01*
X135083498Y-113137436D01*
X135279884Y-113176500D01*
X135480116Y-113176500D01*
X135676502Y-113137436D01*
X135861493Y-113060810D01*
X136027981Y-112949567D01*
X136169567Y-112807981D01*
X136280810Y-112641493D01*
X136357436Y-112456502D01*
X136396500Y-112260116D01*
X136396500Y-112059884D01*
X136357436Y-111863498D01*
X136280810Y-111678507D01*
X136169567Y-111512019D01*
X136169565Y-111512017D01*
X136169560Y-111512011D01*
X136027988Y-111370439D01*
X136027982Y-111370434D01*
X136027981Y-111370433D01*
X135861493Y-111259190D01*
X135744839Y-111210870D01*
X135676505Y-111182565D01*
X135676502Y-111182564D01*
X135480119Y-111143500D01*
X135480116Y-111143500D01*
X135279884Y-111143500D01*
X135279880Y-111143500D01*
X135083497Y-111182564D01*
X135083494Y-111182565D01*
X134898507Y-111259190D01*
X134732017Y-111370434D01*
X134732011Y-111370439D01*
X134590439Y-111512011D01*
X134590434Y-111512017D01*
X134479190Y-111678507D01*
X134402565Y-111863494D01*
X134402564Y-111863497D01*
X134363500Y-112059880D01*
X120500500Y-112059880D01*
X120500500Y-109519880D01*
X134363500Y-109519880D01*
X134363500Y-109720119D01*
X134376211Y-109784018D01*
X134402564Y-109916502D01*
X134479190Y-110101493D01*
X134555555Y-110215782D01*
X134590434Y-110267982D01*
X134590439Y-110267988D01*
X134732011Y-110409560D01*
X134732017Y-110409565D01*
X134732019Y-110409567D01*
X134898507Y-110520810D01*
X135083498Y-110597436D01*
X135279884Y-110636500D01*
X135480116Y-110636500D01*
X135676502Y-110597436D01*
X135861493Y-110520810D01*
X136027981Y-110409567D01*
X136169567Y-110267981D01*
X136280810Y-110101493D01*
X136357436Y-109916502D01*
X136396500Y-109720116D01*
X136396500Y-109519884D01*
X136357436Y-109323498D01*
X136280810Y-109138507D01*
X136169567Y-108972019D01*
X136169565Y-108972017D01*
X136169560Y-108972011D01*
X136027988Y-108830439D01*
X136027982Y-108830434D01*
X136024425Y-108828057D01*
X135861493Y-108719190D01*
X135744839Y-108670870D01*
X135676505Y-108642565D01*
X135676502Y-108642564D01*
X135480119Y-108603500D01*
X135480116Y-108603500D01*
X135279884Y-108603500D01*
X135279880Y-108603500D01*
X135083497Y-108642564D01*
X135083494Y-108642565D01*
X134898507Y-108719190D01*
X134732017Y-108830434D01*
X134732011Y-108830439D01*
X134590439Y-108972011D01*
X134590434Y-108972017D01*
X134479190Y-109138507D01*
X134402565Y-109323494D01*
X134402564Y-109323497D01*
X134363500Y-109519880D01*
X120500500Y-109519880D01*
X120500500Y-105159575D01*
X120520502Y-105091454D01*
X120574158Y-105044961D01*
X120644432Y-105034857D01*
X120709012Y-105064351D01*
X120735619Y-105096575D01*
X120786359Y-105184460D01*
X120786375Y-105184486D01*
X121036359Y-105541501D01*
X121036368Y-105541514D01*
X121316521Y-105875386D01*
X121624713Y-106183578D01*
X121958585Y-106463731D01*
X121958598Y-106463740D01*
X122307798Y-106708252D01*
X122315622Y-106713730D01*
X122315634Y-106713737D01*
X122315639Y-106713740D01*
X122447526Y-106789885D01*
X122693079Y-106931655D01*
X123088093Y-107115853D01*
X123321117Y-107200667D01*
X123497648Y-107264919D01*
X123497650Y-107264919D01*
X123497657Y-107264922D01*
X123918656Y-107377729D01*
X124347884Y-107453413D01*
X124503906Y-107467063D01*
X124570024Y-107492927D01*
X124582019Y-107503489D01*
X124635775Y-107557245D01*
X124635780Y-107557249D01*
X124635782Y-107557251D01*
X124635783Y-107557252D01*
X124635785Y-107557253D01*
X124643129Y-107561493D01*
X124763318Y-107630884D01*
X124905567Y-107669000D01*
X124905569Y-107669000D01*
X125052831Y-107669000D01*
X125052833Y-107669000D01*
X125195082Y-107630884D01*
X125322618Y-107557251D01*
X125372391Y-107507476D01*
X125434703Y-107473452D01*
X125450504Y-107471051D01*
X125652116Y-107453413D01*
X126081344Y-107377729D01*
X126502343Y-107264922D01*
X126911907Y-107115853D01*
X127203502Y-106979880D01*
X134363500Y-106979880D01*
X134363500Y-107180119D01*
X134402564Y-107376502D01*
X134402565Y-107376505D01*
X134412545Y-107400599D01*
X134479190Y-107561493D01*
X134590433Y-107727981D01*
X134590434Y-107727982D01*
X134590439Y-107727988D01*
X134732011Y-107869560D01*
X134732017Y-107869565D01*
X134732019Y-107869567D01*
X134898507Y-107980810D01*
X135083498Y-108057436D01*
X135279884Y-108096500D01*
X135480116Y-108096500D01*
X135676502Y-108057436D01*
X135861493Y-107980810D01*
X136027981Y-107869567D01*
X136169567Y-107727981D01*
X136280810Y-107561493D01*
X136357436Y-107376502D01*
X136396500Y-107180116D01*
X136396500Y-106979884D01*
X136357436Y-106783498D01*
X136280810Y-106598507D01*
X136169567Y-106432019D01*
X136169565Y-106432017D01*
X136169560Y-106432011D01*
X136027988Y-106290439D01*
X136027982Y-106290434D01*
X135971913Y-106252970D01*
X135861493Y-106179190D01*
X135704693Y-106114241D01*
X135676505Y-106102565D01*
X135676502Y-106102564D01*
X135480119Y-106063500D01*
X135480116Y-106063500D01*
X135279884Y-106063500D01*
X135279880Y-106063500D01*
X135083497Y-106102564D01*
X135083494Y-106102565D01*
X134898507Y-106179190D01*
X134732017Y-106290434D01*
X134732011Y-106290439D01*
X134590439Y-106432011D01*
X134590434Y-106432017D01*
X134479190Y-106598507D01*
X134402565Y-106783494D01*
X134402564Y-106783497D01*
X134363500Y-106979880D01*
X127203502Y-106979880D01*
X127306921Y-106931655D01*
X127393619Y-106881600D01*
X127423108Y-106864575D01*
X127583744Y-106771830D01*
X127684378Y-106713730D01*
X128041406Y-106463737D01*
X128041409Y-106463734D01*
X128041414Y-106463731D01*
X128375286Y-106183578D01*
X128375296Y-106183569D01*
X128683469Y-105875396D01*
X128683478Y-105875386D01*
X128963631Y-105541514D01*
X128963637Y-105541506D01*
X129213630Y-105184478D01*
X129431555Y-104807021D01*
X129602756Y-104439880D01*
X134363500Y-104439880D01*
X134363500Y-104640119D01*
X134367716Y-104661312D01*
X134402564Y-104836502D01*
X134479190Y-105021493D01*
X134590433Y-105187981D01*
X134590434Y-105187982D01*
X134590439Y-105187988D01*
X134732011Y-105329560D01*
X134732017Y-105329565D01*
X134732019Y-105329567D01*
X134898507Y-105440810D01*
X135083498Y-105517436D01*
X135279884Y-105556500D01*
X135480116Y-105556500D01*
X135676502Y-105517436D01*
X135861493Y-105440810D01*
X136027981Y-105329567D01*
X136169567Y-105187981D01*
X136280810Y-105021493D01*
X136357436Y-104836502D01*
X136396500Y-104640116D01*
X136396500Y-104439884D01*
X136357436Y-104243498D01*
X136280810Y-104058507D01*
X136169567Y-103892019D01*
X136169565Y-103892017D01*
X136169560Y-103892011D01*
X136027988Y-103750439D01*
X136027982Y-103750434D01*
X136027981Y-103750433D01*
X135861493Y-103639190D01*
X135744839Y-103590870D01*
X135676505Y-103562565D01*
X135676502Y-103562564D01*
X135480119Y-103523500D01*
X135480116Y-103523500D01*
X135279884Y-103523500D01*
X135279880Y-103523500D01*
X135083497Y-103562564D01*
X135083494Y-103562565D01*
X134898507Y-103639190D01*
X134732017Y-103750434D01*
X134732011Y-103750439D01*
X134590439Y-103892011D01*
X134590434Y-103892017D01*
X134479190Y-104058507D01*
X134402565Y-104243494D01*
X134402564Y-104243497D01*
X134363500Y-104439880D01*
X129602756Y-104439880D01*
X129615753Y-104412007D01*
X129620635Y-104398594D01*
X129623545Y-104390600D01*
X129623545Y-104390599D01*
X129764819Y-104002451D01*
X129764818Y-104002451D01*
X129764822Y-104002443D01*
X129877629Y-103581444D01*
X129953313Y-103152216D01*
X129991300Y-102718025D01*
X129991300Y-102282175D01*
X129953313Y-101847984D01*
X129877629Y-101418756D01*
X129822478Y-101212930D01*
X134363500Y-101212930D01*
X134363500Y-102787063D01*
X134363501Y-102787073D01*
X134378265Y-102861300D01*
X134434516Y-102945484D01*
X134518697Y-103001733D01*
X134518699Y-103001734D01*
X134592933Y-103016500D01*
X136167066Y-103016499D01*
X136167069Y-103016498D01*
X136167073Y-103016498D01*
X136216326Y-103006701D01*
X136241301Y-103001734D01*
X136325484Y-102945484D01*
X136381734Y-102861301D01*
X136396500Y-102787067D01*
X136396499Y-101212934D01*
X136396498Y-101212930D01*
X136396498Y-101212926D01*
X136381734Y-101138699D01*
X136381733Y-101138697D01*
X136325484Y-101054516D01*
X136325483Y-101054515D01*
X136241302Y-100998266D01*
X136167067Y-100983500D01*
X134592936Y-100983500D01*
X134592926Y-100983501D01*
X134518699Y-100998265D01*
X134434515Y-101054516D01*
X134378266Y-101138697D01*
X134363500Y-101212930D01*
X129822478Y-101212930D01*
X129764822Y-100997757D01*
X129757706Y-100978207D01*
X129697350Y-100812378D01*
X129615753Y-100588193D01*
X129456683Y-100247066D01*
X129431558Y-100193185D01*
X129431548Y-100193167D01*
X129213640Y-99815739D01*
X129213624Y-99815713D01*
X128963640Y-99458698D01*
X128963631Y-99458685D01*
X128683478Y-99124813D01*
X128375286Y-98816621D01*
X128041414Y-98536468D01*
X128041401Y-98536459D01*
X127684386Y-98286475D01*
X127684360Y-98286459D01*
X127306932Y-98068551D01*
X127306914Y-98068541D01*
X126911905Y-97884346D01*
X126502351Y-97735280D01*
X126324402Y-97687598D01*
X126081344Y-97622471D01*
X125652116Y-97546787D01*
X125217925Y-97508800D01*
X124782075Y-97508800D01*
X124347884Y-97546787D01*
X123918656Y-97622471D01*
X123918652Y-97622472D01*
X123497648Y-97735280D01*
X123088094Y-97884346D01*
X122693085Y-98068541D01*
X122693067Y-98068551D01*
X122315639Y-98286459D01*
X122315613Y-98286475D01*
X121958598Y-98536459D01*
X121958585Y-98536468D01*
X121624713Y-98816621D01*
X121624704Y-98816631D01*
X121316531Y-99124804D01*
X121316521Y-99124813D01*
X121036368Y-99458685D01*
X121036359Y-99458698D01*
X120786375Y-99815713D01*
X120786359Y-99815739D01*
X120735619Y-99903624D01*
X120684236Y-99952617D01*
X120614523Y-99966053D01*
X120548612Y-99939667D01*
X120507430Y-99881834D01*
X120500500Y-99840624D01*
X120500500Y-96819880D01*
X134363500Y-96819880D01*
X134363500Y-97020119D01*
X134383269Y-97119500D01*
X134402564Y-97216502D01*
X134479190Y-97401493D01*
X134528263Y-97474936D01*
X134590434Y-97567982D01*
X134590439Y-97567988D01*
X134732011Y-97709560D01*
X134732017Y-97709565D01*
X134732019Y-97709567D01*
X134898507Y-97820810D01*
X135083498Y-97897436D01*
X135279884Y-97936500D01*
X135480116Y-97936500D01*
X135676502Y-97897436D01*
X135861493Y-97820810D01*
X136027981Y-97709567D01*
X136169567Y-97567981D01*
X136280810Y-97401493D01*
X136357436Y-97216502D01*
X136396500Y-97020116D01*
X136396500Y-96819884D01*
X136357436Y-96623498D01*
X136280810Y-96438507D01*
X136169567Y-96272019D01*
X136169565Y-96272017D01*
X136169560Y-96272011D01*
X136027988Y-96130439D01*
X136027982Y-96130434D01*
X136027981Y-96130433D01*
X135861493Y-96019190D01*
X135744839Y-95970870D01*
X135676505Y-95942565D01*
X135676502Y-95942564D01*
X135480119Y-95903500D01*
X135480116Y-95903500D01*
X135279884Y-95903500D01*
X135279880Y-95903500D01*
X135083497Y-95942564D01*
X135083494Y-95942565D01*
X134898507Y-96019190D01*
X134732017Y-96130434D01*
X134732011Y-96130439D01*
X134590439Y-96272011D01*
X134590434Y-96272017D01*
X134479190Y-96438507D01*
X134402565Y-96623494D01*
X134402564Y-96623497D01*
X134363500Y-96819880D01*
X120500500Y-96819880D01*
X120500500Y-94279880D01*
X134363500Y-94279880D01*
X134363500Y-94480119D01*
X134402564Y-94676502D01*
X134479190Y-94861493D01*
X134590433Y-95027981D01*
X134590434Y-95027982D01*
X134590439Y-95027988D01*
X134732011Y-95169560D01*
X134732017Y-95169565D01*
X134732019Y-95169567D01*
X134898507Y-95280810D01*
X135083498Y-95357436D01*
X135279884Y-95396500D01*
X135480116Y-95396500D01*
X135676502Y-95357436D01*
X135861493Y-95280810D01*
X136027981Y-95169567D01*
X136169567Y-95027981D01*
X136280810Y-94861493D01*
X136357436Y-94676502D01*
X136396500Y-94480116D01*
X136396500Y-94279884D01*
X136357436Y-94083498D01*
X136280810Y-93898507D01*
X136169567Y-93732019D01*
X136169565Y-93732017D01*
X136169560Y-93732011D01*
X136030479Y-93592930D01*
X149603500Y-93592930D01*
X149603500Y-95167063D01*
X149603501Y-95167073D01*
X149618265Y-95241300D01*
X149674516Y-95325484D01*
X149758697Y-95381733D01*
X149758699Y-95381734D01*
X149832933Y-95396500D01*
X151407066Y-95396499D01*
X151407069Y-95396498D01*
X151407073Y-95396498D01*
X151456326Y-95386701D01*
X151481301Y-95381734D01*
X151565484Y-95325484D01*
X151621734Y-95241301D01*
X151636500Y-95167067D01*
X151636499Y-93592934D01*
X151636498Y-93592930D01*
X151636498Y-93592926D01*
X151621734Y-93518699D01*
X151621733Y-93518697D01*
X151565484Y-93434516D01*
X151517667Y-93402565D01*
X151481302Y-93378266D01*
X151407067Y-93363500D01*
X149832936Y-93363500D01*
X149832926Y-93363501D01*
X149758699Y-93378265D01*
X149674515Y-93434516D01*
X149618266Y-93518697D01*
X149603500Y-93592930D01*
X136030479Y-93592930D01*
X136027988Y-93590439D01*
X136027982Y-93590434D01*
X136027981Y-93590433D01*
X135861493Y-93479190D01*
X135744839Y-93430870D01*
X135676505Y-93402565D01*
X135676502Y-93402564D01*
X135480119Y-93363500D01*
X135480116Y-93363500D01*
X135279884Y-93363500D01*
X135279880Y-93363500D01*
X135083497Y-93402564D01*
X135083494Y-93402565D01*
X134898507Y-93479190D01*
X134732017Y-93590434D01*
X134732011Y-93590439D01*
X134590439Y-93732011D01*
X134590434Y-93732017D01*
X134479190Y-93898507D01*
X134402565Y-94083494D01*
X134402564Y-94083497D01*
X134363500Y-94279880D01*
X120500500Y-94279880D01*
X120500500Y-91739880D01*
X134363500Y-91739880D01*
X134363500Y-91940119D01*
X134402564Y-92136502D01*
X134479190Y-92321493D01*
X134590433Y-92487981D01*
X134590434Y-92487982D01*
X134590439Y-92487988D01*
X134732011Y-92629560D01*
X134732017Y-92629565D01*
X134732019Y-92629567D01*
X134898507Y-92740810D01*
X135083498Y-92817436D01*
X135279884Y-92856500D01*
X135480116Y-92856500D01*
X135676502Y-92817436D01*
X135861493Y-92740810D01*
X136027981Y-92629567D01*
X136169567Y-92487981D01*
X136280810Y-92321493D01*
X136357436Y-92136502D01*
X136396500Y-91940116D01*
X136396500Y-91739884D01*
X136396499Y-91739880D01*
X149603500Y-91739880D01*
X149603500Y-91940119D01*
X149642564Y-92136502D01*
X149719190Y-92321493D01*
X149830433Y-92487981D01*
X149830434Y-92487982D01*
X149830439Y-92487988D01*
X149972011Y-92629560D01*
X149972017Y-92629565D01*
X149972019Y-92629567D01*
X150138507Y-92740810D01*
X150323498Y-92817436D01*
X150519884Y-92856500D01*
X150720116Y-92856500D01*
X150916502Y-92817436D01*
X151101493Y-92740810D01*
X151267981Y-92629567D01*
X151409567Y-92487981D01*
X151520810Y-92321493D01*
X151597436Y-92136502D01*
X151636500Y-91940116D01*
X151636500Y-91739884D01*
X151597436Y-91543498D01*
X151520810Y-91358507D01*
X151409567Y-91192019D01*
X151409565Y-91192017D01*
X151409560Y-91192011D01*
X151267988Y-91050439D01*
X151267982Y-91050434D01*
X151238147Y-91030499D01*
X151101493Y-90939190D01*
X150959801Y-90880499D01*
X150916505Y-90862565D01*
X150916502Y-90862564D01*
X150720119Y-90823500D01*
X150720116Y-90823500D01*
X150519884Y-90823500D01*
X150519880Y-90823500D01*
X150323497Y-90862564D01*
X150323494Y-90862565D01*
X150138507Y-90939190D01*
X149972017Y-91050434D01*
X149972011Y-91050439D01*
X149830439Y-91192011D01*
X149830434Y-91192017D01*
X149719190Y-91358507D01*
X149642565Y-91543494D01*
X149642564Y-91543497D01*
X149603500Y-91739880D01*
X136396499Y-91739880D01*
X136357436Y-91543498D01*
X136280810Y-91358507D01*
X136169567Y-91192019D01*
X136169565Y-91192017D01*
X136169560Y-91192011D01*
X136027988Y-91050439D01*
X136027982Y-91050434D01*
X135998147Y-91030499D01*
X135861493Y-90939190D01*
X135719801Y-90880499D01*
X135676505Y-90862565D01*
X135676502Y-90862564D01*
X135480119Y-90823500D01*
X135480116Y-90823500D01*
X135279884Y-90823500D01*
X135279880Y-90823500D01*
X135083497Y-90862564D01*
X135083494Y-90862565D01*
X134898507Y-90939190D01*
X134732017Y-91050434D01*
X134732011Y-91050439D01*
X134590439Y-91192011D01*
X134590434Y-91192017D01*
X134479190Y-91358507D01*
X134402565Y-91543494D01*
X134402564Y-91543497D01*
X134363500Y-91739880D01*
X120500500Y-91739880D01*
X120500500Y-89199880D01*
X134363500Y-89199880D01*
X134363500Y-89400119D01*
X134402564Y-89596502D01*
X134479190Y-89781493D01*
X134590433Y-89947981D01*
X134590434Y-89947982D01*
X134590439Y-89947988D01*
X134732011Y-90089560D01*
X134732017Y-90089565D01*
X134732019Y-90089567D01*
X134898507Y-90200810D01*
X135083498Y-90277436D01*
X135279884Y-90316500D01*
X135480116Y-90316500D01*
X135676502Y-90277436D01*
X135861493Y-90200810D01*
X136027981Y-90089567D01*
X136169567Y-89947981D01*
X136280810Y-89781493D01*
X136357436Y-89596502D01*
X136396500Y-89400116D01*
X136396500Y-89199884D01*
X136396499Y-89199880D01*
X149603500Y-89199880D01*
X149603500Y-89400119D01*
X149642564Y-89596502D01*
X149719190Y-89781493D01*
X149830433Y-89947981D01*
X149830434Y-89947982D01*
X149830439Y-89947988D01*
X149972011Y-90089560D01*
X149972017Y-90089565D01*
X149972019Y-90089567D01*
X150138507Y-90200810D01*
X150323498Y-90277436D01*
X150519884Y-90316500D01*
X150720116Y-90316500D01*
X150916502Y-90277436D01*
X151101493Y-90200810D01*
X151267981Y-90089567D01*
X151409567Y-89947981D01*
X151520810Y-89781493D01*
X151597436Y-89596502D01*
X151636500Y-89400116D01*
X151636500Y-89324930D01*
X157095400Y-89324930D01*
X157095400Y-90675063D01*
X157095401Y-90675073D01*
X157110165Y-90749300D01*
X157166416Y-90833484D01*
X157250597Y-90889733D01*
X157250599Y-90889734D01*
X157324833Y-90904500D01*
X158674966Y-90904499D01*
X158674969Y-90904498D01*
X158674973Y-90904498D01*
X158724226Y-90894701D01*
X158749201Y-90889734D01*
X158833384Y-90833484D01*
X158889634Y-90749301D01*
X158904400Y-90675067D01*
X158904399Y-89324934D01*
X158904398Y-89324927D01*
X158904398Y-89324926D01*
X158889634Y-89250699D01*
X158844151Y-89182630D01*
X158833384Y-89166516D01*
X158833383Y-89166515D01*
X158749202Y-89110266D01*
X158674967Y-89095500D01*
X157324836Y-89095500D01*
X157324826Y-89095501D01*
X157250599Y-89110265D01*
X157166415Y-89166516D01*
X157110166Y-89250697D01*
X157095400Y-89324930D01*
X151636500Y-89324930D01*
X151636500Y-89199884D01*
X151597436Y-89003498D01*
X151520810Y-88818507D01*
X151409567Y-88652019D01*
X151409565Y-88652017D01*
X151409560Y-88652011D01*
X151267988Y-88510439D01*
X151267982Y-88510434D01*
X151267981Y-88510433D01*
X151101493Y-88399190D01*
X150984839Y-88350870D01*
X150916505Y-88322565D01*
X150916502Y-88322564D01*
X150720119Y-88283500D01*
X150720116Y-88283500D01*
X150519884Y-88283500D01*
X150519880Y-88283500D01*
X150323497Y-88322564D01*
X150323494Y-88322565D01*
X150138507Y-88399190D01*
X149972017Y-88510434D01*
X149972011Y-88510439D01*
X149830439Y-88652011D01*
X149830434Y-88652017D01*
X149719190Y-88818507D01*
X149642565Y-89003494D01*
X149642564Y-89003497D01*
X149603500Y-89199880D01*
X136396499Y-89199880D01*
X136357436Y-89003498D01*
X136280810Y-88818507D01*
X136169567Y-88652019D01*
X136169565Y-88652017D01*
X136169560Y-88652011D01*
X136027988Y-88510439D01*
X136027982Y-88510434D01*
X136027981Y-88510433D01*
X135861493Y-88399190D01*
X135744839Y-88350870D01*
X135676505Y-88322565D01*
X135676502Y-88322564D01*
X135480119Y-88283500D01*
X135480116Y-88283500D01*
X135279884Y-88283500D01*
X135279880Y-88283500D01*
X135083497Y-88322564D01*
X135083494Y-88322565D01*
X134898507Y-88399190D01*
X134732017Y-88510434D01*
X134732011Y-88510439D01*
X134590439Y-88652011D01*
X134590434Y-88652017D01*
X134479190Y-88818507D01*
X134402565Y-89003494D01*
X134402564Y-89003497D01*
X134363500Y-89199880D01*
X120500500Y-89199880D01*
X120500500Y-80626400D01*
X120520502Y-80558279D01*
X120574158Y-80511786D01*
X120626500Y-80500400D01*
X127965403Y-80500400D01*
X128033524Y-80520402D01*
G37*
%TD.AperFunction*%
%TD*%
M02*
