%TF.GenerationSoftware,KiCad,Pcbnew,10.0.6*%
%TF.CreationDate,2026-09-23T18:05:48+08:00*%
%TF.ProjectId,Quad_Hub,51756164-5f48-4756-922e-6b696361645f,1.7*%
%TF.SameCoordinates,Original*%
%TF.FileFunction,Soldermask,Top*%
%TF.FilePolarity,Negative*%
%FSLAX46Y46*%
G04 Gerber Fmt 4.6, Leading zero omitted, Abs format (unit mm)*
G04 Created by KiCad (PCBNEW 10.0.6) date 2026-09-23 18:05:48*
%MOMM*%
%LPD*%
G01*
G04 APERTURE LIST*
G04 Aperture macros list*
%AMRoundRect*
0 Rectangle with rounded corners*
0 $1 Rounding radius*
0 $2 $3 $4 $5 $6 $7 $8 $9 X,Y pos of 4 corners*
0 Add a 4 corners polygon primitive as box body*
4,1,4,$2,$3,$4,$5,$6,$7,$8,$9,$2,$3,0*
0 Add four circle primitives for the rounded corners*
1,1,$1+$1,$2,$3*
1,1,$1+$1,$4,$5*
1,1,$1+$1,$6,$7*
1,1,$1+$1,$8,$9*
0 Add four rect primitives between the rounded corners*
20,1,$1+$1,$2,$3,$4,$5,0*
20,1,$1+$1,$4,$5,$6,$7,0*
20,1,$1+$1,$6,$7,$8,$9,0*
20,1,$1+$1,$8,$9,$2,$3,0*%
G04 Aperture macros list end*
%ADD10RoundRect,0.101600X-0.499950X0.500000X-0.499950X-0.500000X0.499950X-0.500000X0.499950X0.500000X0*%
%ADD11RoundRect,0.101600X-0.650050X0.650000X-0.650050X-0.650000X0.650050X-0.650000X0.650050X0.650000X0*%
%ADD12RoundRect,0.101600X-0.500000X0.500000X-0.500000X-0.500000X0.500000X-0.500000X0.500000X0.500000X0*%
%ADD13RoundRect,0.101600X-0.650000X0.650000X-0.650000X-0.650000X0.650000X-0.650000X0.650000X0.650000X0*%
%ADD14RoundRect,0.101600X-0.650000X0.650050X-0.650000X-0.650050X0.650000X-0.650050X0.650000X0.650050X0*%
%ADD15RoundRect,0.101600X-0.650050X0.650050X-0.650050X-0.650050X0.650050X-0.650050X0.650050X0.650050X0*%
%ADD16RoundRect,0.101600X-0.762000X-0.762000X0.762000X-0.762000X0.762000X0.762000X-0.762000X0.762000X0*%
%ADD17O,5.003800X5.003800*%
%ADD18O,1.727200X1.727200*%
%ADD19RoundRect,0.101600X0.762000X0.762000X-0.762000X0.762000X-0.762000X-0.762000X0.762000X-0.762000X0*%
G04 APERTURE END LIST*
D10*
%TO.C,WP55*%
X164000000Y-109999900D03*
%TD*%
%TO.C,WP66*%
X169999900Y-117999900D03*
%TD*%
%TO.C,WP64*%
X171999900Y-107999900D03*
%TD*%
%TO.C,WP33*%
X168000000Y-98000000D03*
%TD*%
%TO.C,WP79*%
X166000000Y-117999900D03*
%TD*%
%TO.C,WP40*%
X162000000Y-100000000D03*
%TD*%
D11*
%TO.C,WP57*%
X160000000Y-109999900D03*
%TD*%
D12*
%TO.C,WP46*%
X163999900Y-98000000D03*
%TD*%
%TO.C,WP27*%
X165999900Y-90000000D03*
%TD*%
%TO.C,WP18*%
X165999900Y-88000000D03*
%TD*%
%TO.C,WP32*%
X167999900Y-88000000D03*
%TD*%
%TO.C,WP54*%
X165999900Y-109999900D03*
%TD*%
D13*
%TO.C,WP52*%
X169999900Y-109999900D03*
%TD*%
D12*
%TO.C,WP70*%
X165999900Y-119999900D03*
%TD*%
D10*
%TO.C,WP56*%
X162000000Y-109999900D03*
%TD*%
%TO.C,WP72*%
X162000000Y-119999900D03*
%TD*%
%TO.C,WP50*%
X169999900Y-107999900D03*
%TD*%
D14*
%TO.C,WP35*%
X171999900Y-100000000D03*
%TD*%
D12*
%TO.C,WP45*%
X161999900Y-98000000D03*
%TD*%
D10*
%TO.C,WP19*%
X164000000Y-88000000D03*
%TD*%
D13*
%TO.C,WP28*%
X167999900Y-90000000D03*
%TD*%
D12*
%TO.C,WP75*%
X157999900Y-117999900D03*
%TD*%
D10*
%TO.C,WP47*%
X166000000Y-98000000D03*
%TD*%
D13*
%TO.C,WP29*%
X169999900Y-90000000D03*
%TD*%
%TO.C,WP24*%
X159999900Y-90000000D03*
%TD*%
D10*
%TO.C,WP71*%
X164000000Y-119999900D03*
%TD*%
D15*
%TO.C,WP42*%
X158000000Y-100000000D03*
%TD*%
D11*
%TO.C,WP58*%
X158000000Y-109999900D03*
%TD*%
D10*
%TO.C,WP20*%
X162000000Y-88000000D03*
%TD*%
D12*
%TO.C,WP61*%
X161999900Y-107999900D03*
%TD*%
D11*
%TO.C,WP73*%
X160000000Y-119999900D03*
%TD*%
D12*
%TO.C,WP59*%
X157999900Y-107999900D03*
%TD*%
D10*
%TO.C,WP34*%
X169999900Y-98000000D03*
%TD*%
D16*
%TO.C,NONE*%
X141997900Y-85661200D03*
X141997900Y-95821200D03*
X144537900Y-85661200D03*
X144537900Y-95821200D03*
%TD*%
D10*
%TO.C,WP39*%
X164000000Y-100000000D03*
%TD*%
D12*
%TO.C,WP31*%
X169999900Y-88000000D03*
%TD*%
D10*
%TO.C,WP80*%
X171999900Y-117999900D03*
%TD*%
D12*
%TO.C,WP25*%
X161999900Y-90000000D03*
%TD*%
D15*
%TO.C,WP41*%
X160000000Y-100000000D03*
%TD*%
D12*
%TO.C,WP38*%
X165999900Y-100000000D03*
%TD*%
D13*
%TO.C,WP53*%
X167999900Y-109999900D03*
%TD*%
D12*
%TO.C,WP17*%
X171999900Y-88000000D03*
%TD*%
D13*
%TO.C,WP68*%
X169999900Y-119999900D03*
%TD*%
D12*
%TO.C,WP77*%
X161999900Y-117999900D03*
%TD*%
%TO.C,WP76*%
X159999900Y-117999900D03*
%TD*%
%TO.C,WP60*%
X159999900Y-107999900D03*
%TD*%
D10*
%TO.C,WP65*%
X168000000Y-117999900D03*
%TD*%
D12*
%TO.C,WP44*%
X159999900Y-98000000D03*
%TD*%
D13*
%TO.C,WP51*%
X171999900Y-109999900D03*
%TD*%
D12*
%TO.C,WP78*%
X163999900Y-117999900D03*
%TD*%
%TO.C,WP26*%
X163999900Y-90000000D03*
%TD*%
D13*
%TO.C,WP67*%
X171999900Y-119999900D03*
%TD*%
%TO.C,WP23*%
X157999900Y-90000000D03*
%TD*%
D10*
%TO.C,WP21*%
X160000000Y-88000000D03*
%TD*%
D13*
%TO.C,WP30*%
X171999900Y-90000000D03*
%TD*%
D14*
%TO.C,WP36*%
X169999900Y-100000000D03*
%TD*%
D17*
%TO.C,U1*%
X129349500Y-83040900D03*
X124650500Y-85961900D03*
X129349500Y-88959100D03*
%TD*%
D12*
%TO.C,WP43*%
X157999900Y-98000000D03*
%TD*%
D11*
%TO.C,WP74*%
X158000000Y-119999900D03*
%TD*%
D10*
%TO.C,WP48*%
X171999900Y-98000000D03*
%TD*%
D14*
%TO.C,WP37*%
X167999900Y-100000000D03*
%TD*%
D12*
%TO.C,WP62*%
X163999900Y-107999900D03*
%TD*%
D10*
%TO.C,WP22*%
X158000000Y-88000000D03*
%TD*%
%TO.C,WP49*%
X168000000Y-107999900D03*
%TD*%
D13*
%TO.C,WP69*%
X167999900Y-119999900D03*
%TD*%
D18*
%TO.C,ARDUINO*%
X150620000Y-117240000D03*
X150620000Y-114700000D03*
X150620000Y-112160000D03*
D19*
X150620000Y-109620000D03*
X150620000Y-107080000D03*
X150620000Y-104540000D03*
D18*
X150620000Y-102000000D03*
X150620000Y-99460000D03*
X150620000Y-96920000D03*
D16*
X150620000Y-94380000D03*
D18*
X150620000Y-91840000D03*
X150620000Y-89300000D03*
X150620000Y-86760000D03*
X150620000Y-84220000D03*
X150620000Y-81680000D03*
X135380000Y-81680000D03*
X135380000Y-84220000D03*
X135380000Y-86760000D03*
X135380000Y-89300000D03*
X135380000Y-91840000D03*
X135380000Y-94380000D03*
X135380000Y-96920000D03*
D16*
X135380000Y-99460000D03*
X135380000Y-102000000D03*
D18*
X135380000Y-104540000D03*
X135380000Y-107080000D03*
X135380000Y-109620000D03*
X135380000Y-112160000D03*
D16*
X135380000Y-114700000D03*
D18*
X135380000Y-117240000D03*
%TD*%
D10*
%TO.C,WP63*%
X166000000Y-107999900D03*
%TD*%
M02*
